<svg xmlns="http://www.w3.org/2000/svg" xmlns:xlink="http://www.w3.org/1999/xlink" width="505" height="335.877" viewBox="0 0 505 335.877">
  <defs>
    <clipPath id="clip-path">
      <rect id="Rectángulo_43084" data-name="Rectángulo 43084" width="505" height="335.877" rx="11" transform="translate(878.362 952.72)" fill="#a6bbff"/>
    </clipPath>
    <clipPath id="clip-path-2">
      <rect id="Rectángulo_43081" data-name="Rectángulo 43081" width="210.005" height="313.451" fill="none"/>
    </clipPath>
    <filter id="Unión_65" x="19.44" y="125.877" width="207.432" height="71.877" filterUnits="userSpaceOnUse">
      <feOffset dy="3" input="SourceAlpha"/>
      <feGaussianBlur stdDeviation="3" result="blur"/>
      <feFlood flood-opacity="0.161"/>
      <feComposite operator="in" in2="blur"/>
      <feComposite in="SourceGraphic"/>
    </filter>
    <filter id="Unión_65-2" x="285" y="72" width="207.432" height="71.877" filterUnits="userSpaceOnUse">
      <feOffset dy="3" input="SourceAlpha"/>
      <feGaussianBlur stdDeviation="3" result="blur-2"/>
      <feFlood flood-opacity="0.161"/>
      <feComposite operator="in" in2="blur-2"/>
      <feComposite in="SourceGraphic"/>
    </filter>
  </defs>
  <g id="Grupo_170670" data-name="Grupo 170670" transform="translate(-180 -404)">
    <g id="Enmascarar_grupo_247" data-name="Enmascarar grupo 247" transform="translate(-698.362 -548.721)" clip-path="url(#clip-path)">
      <g id="Grupo_170487" data-name="Grupo 170487" transform="translate(833.673 799.292)">
        <rect id="Rectángulo_43083" data-name="Rectángulo 43083" width="519.746" height="349.477" rx="11" transform="translate(35.299 146.409)" fill="#6b8dfc"/>
        <g id="Grupo_170486" data-name="Grupo 170486" transform="translate(0 0)">
          <path id="Trazado_165206" data-name="Trazado 165206" d="M493.427,128.944C489.672,65.2,445.106,4.333,384.748.558,315.424-5.269,251.792,36.443,182.737,36.884,147.525,40.2,114.5,25.4,80.186,20.627,2.682,17.506-9.127,117.435,5.328,181.847,66.287,485.51,497.647,444.195,493.427,128.944Z" transform="translate(533.588 190.886) rotate(132)" fill="#3c3fa7"/>
          <path id="Trazado_165207" data-name="Trazado 165207" d="M.018,77.647C2.2,39.26,28.163,2.609,63.319.336,103.7-3.173,140.76,21.945,180.982,22.21c20.51,1.994,39.744-6.913,59.732-9.79,45.143-1.88,52.021,58.3,43.6,97.083C248.81,292.36-2.441,267.481.018,77.647Z" transform="translate(203.811 532.462) rotate(-81)" fill="#3c3fa7" opacity="0.388" style="mix-blend-mode: multiply;isolation: isolate"/>
          <path id="Trazado_165208" data-name="Trazado 165208" d="M.026,112.166C3.185,56.714,40.683,3.769,91.468.485c58.33-5.069,111.87,31.215,169.973,31.6,29.628,2.881,57.413-9.987,86.287-14.142,65.212-2.715,75.148,84.211,62.986,140.242C359.422,422.334-3.526,386.394.026,112.166Z" transform="matrix(0.695, -0.719, 0.719, 0.695, 232.726, 371.691)" fill="#3c3fa7" opacity="0.388" style="mix-blend-mode: multiply;isolation: isolate"/>
          <path id="Trazado_165209" data-name="Trazado 165209" d="M.026,112.166C3.185,56.714,40.683,3.769,91.468.485c58.33-5.069,111.87,31.215,169.973,31.6,29.628,2.881,57.413-9.987,86.287-14.142,65.212-2.715,75.148,84.211,62.986,140.242C359.422,422.334-3.526,386.394.026,112.166Z" transform="translate(224.016 231.237) rotate(90)" fill="#3c3fa7" opacity="0.388" style="mix-blend-mode: multiply;isolation: isolate"/>
        </g>
      </g>
    </g>
    <g id="Grupo_170467" data-name="Grupo 170467" transform="translate(327 425.543)">
      <g id="Grupo_170466" data-name="Grupo 170466" clip-path="url(#clip-path-2)">
        <path id="Trazado_165152" data-name="Trazado 165152" d="M86.132,24.037a23.034,23.034,0,1,0-24.015,22.01,23.033,23.033,0,0,0,24.015-22.01" transform="translate(44.254 -0.001)" fill="#352b4c"/>
        <path id="Trazado_165153" data-name="Trazado 165153" d="M101.3,21.113s10.108,2.779,16.712,19.319c5.012,12.553,1.868,22.936,14.158,37.338s12.182,35.288-13.238,36.713c-15.778.884-23.416,12.567-37.291,9.171s-13.91-5.329-27.281-4.965c-15.626.423-23.178-3.03-28.063-13.451-8.132-17.345,6.83-25.766,6.8-41.218C33.064,47.857,44.337,2.229,101.3,21.113" transform="translate(26.36 18.34)" fill="#352b4c"/>
        <path id="Trazado_165154" data-name="Trazado 165154" d="M90.938,45.861s-.633,41.251-.011,47.012,37.628,2.983,48.878,13.5-26.529,41.582-49.486,54.965c-17.594,10.257-77.6-57.261-63.232-57.753s38.053-4.877,37.405-15.418-1.027-20.131-1.027-20.131S88.849,47.466,90.938,45.861" transform="translate(27.474 50.631)" fill="#eaac90"/>
        <path id="Trazado_165155" data-name="Trazado 165155" d="M93.867,36.933s9.445,63.8-26.725,66.116c-24.882,1.593-37.611-39.98-31.695-59.958s43.042-21.133,58.42-6.158" transform="translate(37.549 29.545)" fill="#eaac90"/>
        <path id="Trazado_165156" data-name="Trazado 165156" d="M43.014,50.278s-4.837-11.7-9.845-6.165,1.8,19.532,6.914,19.146,5.649-8.25,2.931-12.982" transform="translate(34.685 47.058)" fill="#eaac90"/>
        <path id="Trazado_165157" data-name="Trazado 165157" d="M63.33,50.094s1.027-10.956,6.682-6.078-.962,19.054-6.085,19.3-2.71-8.2-.6-13.226" transform="translate(67.206 47.212)" fill="#eaac90"/>
        <path id="Trazado_165158" data-name="Trazado 165158" d="M54.434,52.023c2.481.427,4.883,2.632,7.154,6.577l-1.711.983c-2.2-3.823-4.467-5.784-6.535-5.66-2.914.17-5.317,4.324-6,5.91l-1.814-.781c.124-.278,2.992-6.823,7.7-7.1a5.3,5.3,0,0,1,1.208.069" transform="translate(50.263 57.348)" fill="#2e1f35"/>
        <path id="Trazado_165159" data-name="Trazado 165159" d="M89.164,24.144S107.4,33.328,107,54.223c-.151,8.134-28.728,10.061-33.647,3.573s-5.262-24.457-5.262-24.457S68.13,54.8,59.92,60.361,29.532,63.195,31.5,60.62,36.5,26.309,56.23,19.789s32.934,4.355,32.934,4.355" transform="translate(34.636 19.55)" fill="#352b4c"/>
        <path id="Trazado_165160" data-name="Trazado 165160" d="M67.055,54.939a6.505,6.505,0,1,1-6.912-6.072,6.506,6.506,0,0,1,6.912,6.072" transform="translate(59.68 53.935)" fill="#e1916e"/>
        <path id="Trazado_165161" data-name="Trazado 165161" d="M50.611,54.939A6.505,6.505,0,1,1,43.7,48.867a6.506,6.506,0,0,1,6.912,6.072" transform="translate(41.525 53.935)" fill="#e1916e"/>
        <path id="Trazado_165162" data-name="Trazado 165162" d="M62.726,54.5c-6.558-6.926-8.445-32.73-8.523-33.824l1.969-.139c.017.261,1.91,26.191,7.987,32.608Z" transform="translate(59.841 22.671)" fill="#443965"/>
        <path id="Trazado_165163" data-name="Trazado 165163" d="M41.3,50.788a21.637,21.637,0,0,1,.137-10.756c1.393-5.6,5.54-13.718,17.394-20.636l.993,1.7C38.369,33.617,43.131,50.043,43.181,50.209Z" transform="translate(44.939 21.413)" fill="#443965"/>
        <path id="Trazado_165164" data-name="Trazado 165164" d="M34.052,50.833,32.184,50.2c.385-1.145,9.67-28.044,30.1-31.377l.316,1.946C43.35,23.914,34.143,50.564,34.052,50.833" transform="translate(35.531 20.785)" fill="#443965"/>
        <path id="Trazado_165165" data-name="Trazado 165165" d="M67.934,51.517l-1.91-.49c.042-.168,4.149-16.9-7.179-29.244L60.3,20.451c12.069,13.146,7.825,30.34,7.638,31.066" transform="translate(64.965 22.578)" fill="#443965"/>
        <path id="Trazado_165166" data-name="Trazado 165166" d="M77.211,70.569a43.072,43.072,0,0,0-8.119-25.286l1.521-1.252a44.353,44.353,0,0,1,8.57,26.534Z" transform="translate(76.278 48.611)" fill="#443965"/>
        <path id="Trazado_165167" data-name="Trazado 165167" d="M65.368,72.081,64.276,70.44c.065-.044,6.531-4.65,3.857-19.37l1.942-.353C73,66.829,65.681,71.875,65.368,72.081" transform="translate(70.961 55.992)" fill="#443965"/>
        <path id="Trazado_165168" data-name="Trazado 165168" d="M39.407,74.367c-.3-.215-7.246-5.422-5.9-21.118l1.965.17C34.229,67.9,40.5,72.726,40.565,72.772Z" transform="translate(36.802 58.787)" fill="#443965"/>
        <path id="Trazado_165169" data-name="Trazado 165169" d="M33.367,75.838c-.44-.164-10.68-4.288-2.327-28.156l1.862.65C25.18,70.4,33.965,73.957,34.055,73.988Z" transform="translate(30.66 52.641)" fill="#443965"/>
        <path id="Trazado_165170" data-name="Trazado 165170" d="M54.458,26.319l.661-1.639c2.472-6.133-3.674-19.113-3.737-19.243l1.778-.85c.248.52,5.628,11.888,4.284,19.092,2.083-.629,5.641-2.1,7-5.039,1.063-2.293.606-5.155-1.357-8.5l1.7-1c2.312,3.943,2.8,7.423,1.441,10.339-2.409,5.18-9.721,6.491-10.032,6.543Z" transform="translate(56.726 5.064)" fill="#443965"/>
        <path id="Trazado_165171" data-name="Trazado 165171" d="M51.655,26.518a7.374,7.374,0,0,1-4.088-4.231c-2.668-6.682,2.1-17.741,2.3-18.208l1.805.787c-.046.109-4.637,10.775-2.274,16.693A5.413,5.413,0,0,0,52.421,24.7Z" transform="translate(51.62 4.503)" fill="#443965"/>
        <path id="Trazado_165172" data-name="Trazado 165172" d="M40.2,50.583l-.313-1.546c1.109-.227,4.254-1.069,5.449-2.234l1.1,1.13c-1.774,1.727-6.057,2.613-6.238,2.651" transform="translate(44.035 51.67)" fill="#2e1f35"/>
        <path id="Trazado_165173" data-name="Trazado 165173" d="M60.795,49.41a19.952,19.952,0,0,1-5.258-.957l.494-1.5c1.077.353,4.223,1.189,5.843.766l.393,1.53a6.011,6.011,0,0,1-1.473.16" transform="translate(61.313 51.839)" fill="#2e1f35"/>
        <path id="Trazado_165174" data-name="Trazado 165174" d="M45.694,46.784a3.272,3.272,0,1,1-3.272-3.272,3.271,3.271,0,0,1,3.272,3.272" transform="translate(43.223 48.038)" fill="#2e1f35"/>
        <path id="Trazado_165175" data-name="Trazado 165175" d="M62.5,46.418a3.272,3.272,0,1,1-3.272-3.272A3.271,3.271,0,0,1,62.5,46.418" transform="translate(61.774 47.634)" fill="#2e1f35"/>
        <path id="Trazado_165176" data-name="Trazado 165176" d="M54.263,67.6a19.149,19.149,0,0,1-8.551-2.035l.583-2.047c.059.021.181.076.358.164,3.739,1.87,11.383,3.947,20.575-3.171l1.288,1.664C63.192,66.3,58.3,67.6,54.263,67.6" transform="translate(50.466 66.807)" fill="#e1916e"/>
        <path id="Trazado_165177" data-name="Trazado 165177" d="M38.331,54.694l-2.022-.585c.768-2.645-2.129-5.992-3.31-7.059l1.41-1.561c.215.194,5.207,4.77,3.922,9.205" transform="translate(36.431 50.22)" fill="#e1916e"/>
        <path id="Trazado_165178" data-name="Trazado 165178" d="M52.7,43.815S57.6,56.374,55.306,56.9s-7.919.955-8.624,0S50.349,40.015,52.7,43.815" transform="translate(51.453 47.726)" fill="#e1916e"/>
        <path id="Trazado_165179" data-name="Trazado 165179" d="M40.064,96.426c-.183-.027-18.231-3.021-17.874-24.234.217-12.946,5.635-20.5,9.988-26.572,2.613-3.642,4.675-6.52,4.858-9.546l2.1.126c-.219,3.632-2.55,6.882-5.25,10.646C29.706,52.68,24.5,59.939,24.295,72.228c-.326,19.338,15.418,22.014,16.087,22.119Z" transform="translate(24.493 39.827)" fill="#352b4c"/>
        <path id="Trazado_165180" data-name="Trazado 165180" d="M84.063,89.874l-.181-2.1a10.286,10.286,0,0,0,6.6-3.878c2.4-3.171,3.051-7.871,1.927-13.971-1.687-9.173-5.946-12.715-10.876-16.813-4.355-3.621-9.293-7.726-12.8-16.411l1.95-.789c3.312,8.2,7.829,11.951,12.2,15.582,5.024,4.179,9.773,8.126,11.6,18.05,1.237,6.729.448,11.995-2.348,15.658a12.238,12.238,0,0,1-8.069,4.667" transform="translate(75.88 39.653)" fill="#352b4c"/>
        <path id="Trazado_165181" data-name="Trazado 165181" d="M89.372,92.19a1.154,1.154,0,0,1-.3-.04c-1.231-.311-2.293-.579,3.152-37.007,1.713-11.458-.446-20.35-6.419-26.426C73.823,16.521,50.237,19.471,50,19.5l-.276-2.085c1.006-.137,24.85-3.12,37.578,9.817,6.464,6.573,8.82,16.068,7,28.217C89.786,85.69,90.02,90.014,90.2,90.62a.881.881,0,0,0-.7-.526.95.95,0,0,0-.572.088l1.843.671c-.4,1.094-.97,1.336-1.4,1.336" transform="translate(54.896 18.797)" fill="#352b4c"/>
        <path id="Trazado_165182" data-name="Trazado 165182" d="M29.959,57.542c-2.937-13.653-1.052-24.1,5.595-31.057,12.426-13,36.759-9.083,37.788-8.91l-.349,2.077c-.238-.038-24.272-3.9-35.922,8.292-6.133,6.421-7.833,16.23-5.054,29.157Z" transform="translate(31.592 18.644)" fill="#352b4c"/>
        <path id="Trazado_165183" data-name="Trazado 165183" d="M123.461,69.533s-3.219,31.529-24.876,30.287S76.47,68.794,71.5,70.293s-40.692.869-52.379,24.575S4.913,167.412,6.909,225.96c.433,12.767,171.929,15.443,172.428.839,1.225-35.892.191-142.229-14.347-148.806s-41.529-8.46-41.529-8.46" transform="translate(6.945 76.765)" fill="#2d3339"/>
        <path id="Trazado_165184" data-name="Trazado 165184" d="M79.023,135.3s-5.252-35.97,2.508-37.59,34.064-12.935,38.855-3.295,7.347,49.472-2.441,60.928c-3.73,4.366-38.922-20.043-38.922-20.043" transform="translate(85.325 99.985)" fill="#eaac90"/>
        <path id="Trazado_165185" data-name="Trazado 165185" d="M91.419,136.333s42.6,4.968,50.109,2.779c0,0,4.763-73.2-79.548-69.508,0,0,20.777,63.874,29.439,66.729" transform="translate(68.426 76.695)" fill="#2d3339"/>
        <path id="Trazado_165186" data-name="Trazado 165186" d="M27.677,174.235S6.6,167.218.243,133.389c-1.359-7.236.568-68.934,71.747-63.516,0,0-35.65,101.506-44.313,104.361" transform="translate(-0.001 76.77)" fill="#2d3339"/>
        <path id="Trazado_165187" data-name="Trazado 165187" d="M39.434,97.03.408,105.907c-.633,26.942,12.4,55.7,46.9,44.491,9.283-3.015,16.174-43.063-7.871-53.368" transform="translate(0.427 107.122)" fill="#eaac90"/>
        <path id="Trazado_165188" data-name="Trazado 165188" d="M186.1,127.668s16.3,22.605-22.889,35.894S45.057,123.024,28.477,128.135s-18.8-17.52,13.177-22.837,114.2-5.222,144.444,22.37" transform="translate(18.349 113.237)" fill="#eaac90"/>
        <path id="Trazado_165189" data-name="Trazado 165189" d="M105.258,117.976c-2.927-3.585-23.727-9.571-31.495-11.576l.526-2.039c2.927.757,28.707,7.518,32.6,12.283Z" transform="translate(81.435 115.216)" fill="#e1916e"/>
        <path id="Trazado_165190" data-name="Trazado 165190" d="M8.437,206.1s29.778,22.89,44.6-15.254C64.333,161.8,80.214,83.391,78.469,77.586s-11.2-21.259-12.161-26.359-3.617,4.711-.072,11.282c0,0-2.232-14.957-2.563-17.676s-7.2,6.9-2.07,17.9c0,0,.349-20.63-2.283-19.37S53.1,56.87,53.772,64.228,63.651,79.3,61.6,83.545s-51.035,70.59-52.962,87.948a188.035,188.035,0,0,0-.2,34.609" transform="translate(8.531 47.809)" fill="#eaac90"/>
        <path id="Trazado_165191" data-name="Trazado 165191" d="M50.982,79.249l-2.1-.05a17.478,17.478,0,0,0-2.893-9.125C42.721,65.234,34.156,51,33.716,43.321l2.1-.12c.412,7.166,8.953,21.307,11.913,25.7a19.3,19.3,0,0,1,3.253,10.352" transform="translate(37.223 47.694)" fill="#e1916e"/>
        <rect id="Rectángulo_43080" data-name="Rectángulo 43080" width="13.698" height="2.105" transform="translate(16.201 218.9) rotate(-67.614)" fill="#e1916e"/>
        <path id="Trazado_165192" data-name="Trazado 165192" d="M63.842,52.262l-2.093-.215c.463-4.509,3.173-6.121,3.289-6.186l1.05,1.822-.526-.911.537.9c-.076.048-1.91,1.206-2.256,4.585" transform="translate(68.171 50.632)" fill="#e1916e"/>
        <path id="Trazado_165193" data-name="Trazado 165193" d="M62.489,95.262c-15.692,0-21.932-9.826-22.21-10.278l1.791-1.1c.276.442,6.937,10.812,24.2,9.087C76.6,91.94,84.974,79.32,85.059,79.194l1.759,1.153C86.456,80.9,77.8,93.935,66.478,95.06c-1.393.139-2.723.2-3.989.2" transform="translate(44.468 87.431)" fill="#352b4c"/>
        <path id="Trazado_165194" data-name="Trazado 165194" d="M81.518,115.96l-2.1-.084c.461-11.115-4.848-22.3-4.9-22.416l1.9-.911c.229.478,5.588,11.778,5.106,23.411" transform="translate(82.266 102.175)" fill="#352b4c"/>
      </g>
    </g>
    <g id="Grupo_170469" data-name="Grupo 170469" transform="translate(-7.56 42.877)">
      <g transform="matrix(1, 0, 0, 1, 187.56, 361.12)" filter="url(#Unión_65)">
        <path id="Unión_65-3" data-name="Unión 65" d="M-102.042,53.877a16,16,0,0,1-16-16V16a16,16,0,0,1,16-16H46.635a16,16,0,0,1,16,16v5.494l8.754,5.231-8.754,5.232v5.919a16,16,0,0,1-16,16Z" transform="translate(146.48 131.88)" fill="#fff"/>
      </g>
      <path id="Trazado_165198" data-name="Trazado 165198" d="M2.85,17,4.766,4.2H9.231a4.556,4.556,0,0,1,3.595,1.512,4.507,4.507,0,0,1,.993,3.832L13.5,11.665a6.062,6.062,0,0,1-2.092,3.889A6.167,6.167,0,0,1,7.315,17ZM7.034,6.181,5.707,15.031H7.614a2.944,2.944,0,0,0,2.153-.954,4.232,4.232,0,0,0,1.16-2.413l.325-2.136a3.344,3.344,0,0,0-.409-2.435,2.153,2.153,0,0,0-1.9-.914ZM17.264,17H14.7l1.424-9.51h2.566ZM19.031,5.214H16.464l.29-1.925h2.566Zm.65,7.11a7.031,7.031,0,0,1,1.507-3.669,3.737,3.737,0,0,1,2.949-1.34,2.281,2.281,0,0,1,1.217.321,2.662,2.662,0,0,1,.883.918l.791-5.265H29.6L27.547,17H25.359l-.044-1.169A3.933,3.933,0,0,1,24.1,16.837a3.116,3.116,0,0,1-1.459.347,2.735,2.735,0,0,1-2.492-1.3,4.85,4.85,0,0,1-.5-3.375Zm2.531.185a3.585,3.585,0,0,0,.114,1.986,1.257,1.257,0,0,0,1.274.694,2.148,2.148,0,0,0,1-.233,2.235,2.235,0,0,0,.778-.672l.606-4.025a1.563,1.563,0,0,0-.567-.7,1.612,1.612,0,0,0-.918-.25,1.743,1.743,0,0,0-1.481.848,5.071,5.071,0,0,0-.778,2.167ZM37.769,8.642a4.061,4.061,0,0,1,1.252-.98,3.3,3.3,0,0,1,1.49-.347,2.5,2.5,0,0,1,2.158,1,4.118,4.118,0,0,1,.417,3.045L42.243,17H39.676l.853-5.66a2.478,2.478,0,0,0-.119-1.591A1.108,1.108,0,0,0,39.4,9.31a2.57,2.57,0,0,0-1.042.2,2.4,2.4,0,0,0-.8.571L36.521,17H33.955L36.011,3.289h2.566Zm10.5,8.543a3.7,3.7,0,0,1-3.085-1.323,4.132,4.132,0,0,1-.729-3.344l.053-.352a6.01,6.01,0,0,1,1.674-3.538,4.624,4.624,0,0,1,3.4-1.314A3.18,3.18,0,0,1,52.311,8.5a4.065,4.065,0,0,1,.584,3.146L52.7,12.975H47.024l-.018.044a2.23,2.23,0,0,0,.334,1.6,1.74,1.74,0,0,0,1.494.593,5.638,5.638,0,0,0,1.485-.18,6.782,6.782,0,0,0,1.336-.532l.457,1.582a5.83,5.83,0,0,1-1.67.782A7.285,7.285,0,0,1,48.272,17.185Zm1.02-7.893a1.642,1.642,0,0,0-1.244.536,3.185,3.185,0,0,0-.734,1.4l.018.053h3.111l.026-.193a2.052,2.052,0,0,0-.136-1.327A1.1,1.1,0,0,0,49.292,9.292ZM60.77,17H58.2L60.26,3.289h2.566Zm2.443-4.843a5.906,5.906,0,0,1,1.7-3.524,4.844,4.844,0,0,1,3.494-1.318,3.581,3.581,0,0,1,3.059,1.371,4.483,4.483,0,0,1,.721,3.472l-.026.185a5.976,5.976,0,0,1-1.714,3.533,4.859,4.859,0,0,1-3.5,1.31,3.586,3.586,0,0,1-3.059-1.367,4.435,4.435,0,0,1-.7-3.476Zm2.531.185a3.806,3.806,0,0,0,.132,2.109,1.343,1.343,0,0,0,1.362.765,1.871,1.871,0,0,0,1.556-.8,4.494,4.494,0,0,0,.8-2.074l.026-.185a3.925,3.925,0,0,0-.154-2.087,1.323,1.323,0,0,0-1.349-.778,1.869,1.869,0,0,0-1.564.813,4.408,4.408,0,0,0-.782,2.052Zm12.85,2.021a.748.748,0,0,0-.3-.729,3.873,3.873,0,0,0-1.446-.527A5.231,5.231,0,0,1,74.455,12.1a1.936,1.936,0,0,1-.615-1.837,3.074,3.074,0,0,1,1.323-2.1,4.76,4.76,0,0,1,2.887-.839,4.01,4.01,0,0,1,2.729.87,2.179,2.179,0,0,1,.778,2.136l-.018.053H79.06a1.116,1.116,0,0,0-.237-.94,1.31,1.31,0,0,0-1.02-.352,1.649,1.649,0,0,0-1.006.308,1.11,1.11,0,0,0-.479.756.735.735,0,0,0,.268.721,3.892,3.892,0,0,0,1.455.492A5.312,5.312,0,0,1,80.5,12.39a2.007,2.007,0,0,1,.6,1.876,2.976,2.976,0,0,1-1.393,2.127,5.375,5.375,0,0,1-3.019.791,3.888,3.888,0,0,1-2.83-.976,2.335,2.335,0,0,1-.782-2.18l.026-.053h2.347a1.172,1.172,0,0,0,.347,1.107,1.853,1.853,0,0,0,1.191.343,1.944,1.944,0,0,0,1.107-.29A1.092,1.092,0,0,0,78.594,14.363Zm7.822,2.821a3.7,3.7,0,0,1-3.085-1.323,4.132,4.132,0,0,1-.729-3.344l.053-.352a6.01,6.01,0,0,1,1.674-3.538,4.624,4.624,0,0,1,3.4-1.314A3.18,3.18,0,0,1,90.455,8.5a4.065,4.065,0,0,1,.584,3.146l-.193,1.327H85.168l-.018.044a2.23,2.23,0,0,0,.334,1.6,1.74,1.74,0,0,0,1.494.593,5.638,5.638,0,0,0,1.485-.18A6.782,6.782,0,0,0,89.8,14.5l.457,1.582a5.83,5.83,0,0,1-1.67.782A7.285,7.285,0,0,1,86.417,17.185Zm1.02-7.893a1.642,1.642,0,0,0-1.244.536,3.185,3.185,0,0,0-.734,1.4l.018.053h3.111l.026-.193a2.052,2.052,0,0,0-.136-1.327A1.1,1.1,0,0,0,87.436,9.292Zm12.533-.65a4.061,4.061,0,0,1,1.252-.98,3.3,3.3,0,0,1,1.49-.347,2.5,2.5,0,0,1,2.158,1,4.118,4.118,0,0,1,.417,3.045L104.443,17h-2.566l.853-5.66a2.478,2.478,0,0,0-.119-1.591A1.108,1.108,0,0,0,101.6,9.31a2.57,2.57,0,0,0-1.042.2,2.4,2.4,0,0,0-.8.571L98.721,17H96.155L98.211,3.289h2.566ZM109.075,17h-2.566l1.424-9.51H110.5Zm1.767-11.786h-2.566l.29-1.925h2.566Zm5.9,9.149a.748.748,0,0,0-.3-.729,3.873,3.873,0,0,0-1.446-.527A5.231,5.231,0,0,1,112.6,12.1a1.936,1.936,0,0,1-.615-1.837,3.074,3.074,0,0,1,1.323-2.1,4.76,4.76,0,0,1,2.887-.839,4.01,4.01,0,0,1,2.729.87,2.179,2.179,0,0,1,.778,2.136l-.018.053H117.2a1.116,1.116,0,0,0-.237-.94,1.31,1.31,0,0,0-1.02-.352,1.649,1.649,0,0,0-1.006.308,1.11,1.11,0,0,0-.479.756.735.735,0,0,0,.268.721,3.892,3.892,0,0,0,1.455.492,5.312,5.312,0,0,1,2.457,1.033,2.007,2.007,0,0,1,.6,1.876,2.976,2.976,0,0,1-1.393,2.127,5.375,5.375,0,0,1-3.019.791,3.888,3.888,0,0,1-2.83-.976,2.335,2.335,0,0,1-.782-2.18l.026-.053h2.347a1.172,1.172,0,0,0,.347,1.107,1.853,1.853,0,0,0,1.191.343,1.944,1.944,0,0,0,1.107-.29A1.092,1.092,0,0,0,116.739,14.363Zm12.023-1.345h-.65l-.6,3.981h-2.566L127,3.289h2.566L128.4,11.067h.571l2.813-3.577h2.909l.018.044-3.7,4.289L133.754,17H130.8Zm9.747,4.166a3.7,3.7,0,0,1-3.085-1.323,4.132,4.132,0,0,1-.729-3.344l.053-.352a6.01,6.01,0,0,1,1.674-3.538,4.624,4.624,0,0,1,3.4-1.314A3.18,3.18,0,0,1,142.548,8.5a4.065,4.065,0,0,1,.584,3.146l-.193,1.327h-5.678l-.018.044a2.23,2.23,0,0,0,.334,1.6,1.74,1.74,0,0,0,1.494.593,5.638,5.638,0,0,0,1.485-.18,6.782,6.782,0,0,0,1.336-.532l.457,1.582a5.83,5.83,0,0,1-1.67.782A7.285,7.285,0,0,1,138.509,17.185Zm1.02-7.893a1.642,1.642,0,0,0-1.244.536,3.185,3.185,0,0,0-.734,1.4l.018.053h3.111l.026-.193a2.052,2.052,0,0,0-.136-1.327A1.1,1.1,0,0,0,139.529,9.292Zm8.209,3.718.018.519.053.009,2.733-6.047h2.76l-5.493,10.934a6.111,6.111,0,0,1-1.358,1.718,3.23,3.23,0,0,1-2.193.7,3.12,3.12,0,0,1-.584-.053q-.277-.053-.655-.149l.58-1.872q.105.018.237.035a1.813,1.813,0,0,0,.237.018,1.575,1.575,0,0,0,1.011-.321,2.637,2.637,0,0,0,.659-.769l.4-.729L144.2,7.49h2.76Zm-109.8,17,.018.519.053.009L40.74,24.49H43.5L38.006,35.424a6.111,6.111,0,0,1-1.358,1.718,3.23,3.23,0,0,1-2.193.7,3.12,3.12,0,0,1-.584-.053q-.277-.053-.655-.149l.58-1.872q.105.018.237.035a1.813,1.813,0,0,0,.237.018,1.575,1.575,0,0,0,1.011-.321,2.637,2.637,0,0,0,.659-.769l.4-.729-1.951-9.51h2.76Zm9.149,4.175A3.7,3.7,0,0,1,44,32.862a4.132,4.132,0,0,1-.729-3.344l.053-.352A6.01,6.01,0,0,1,45,25.628a4.624,4.624,0,0,1,3.4-1.314A3.18,3.18,0,0,1,51.124,25.5a4.065,4.065,0,0,1,.584,3.146l-.193,1.327H45.837l-.018.044a2.23,2.23,0,0,0,.334,1.6,1.74,1.74,0,0,0,1.494.593,5.638,5.638,0,0,0,1.485-.18,6.782,6.782,0,0,0,1.336-.532l.457,1.582a5.83,5.83,0,0,1-1.67.782A7.285,7.285,0,0,1,47.085,34.185Zm1.02-7.893a1.642,1.642,0,0,0-1.244.536,3.185,3.185,0,0,0-.734,1.4l.018.053h3.111l.026-.193a2.052,2.052,0,0,0-.136-1.327A1.1,1.1,0,0,0,48.1,26.292Zm9.853,5.071a.748.748,0,0,0-.3-.729,3.873,3.873,0,0,0-1.446-.527A5.231,5.231,0,0,1,53.818,29.1a1.936,1.936,0,0,1-.615-1.837,3.074,3.074,0,0,1,1.323-2.1,4.76,4.76,0,0,1,2.887-.839,4.01,4.01,0,0,1,2.729.87,2.179,2.179,0,0,1,.778,2.136l-.018.053H58.423a1.116,1.116,0,0,0-.237-.94,1.31,1.31,0,0,0-1.02-.352,1.649,1.649,0,0,0-1.006.308,1.11,1.11,0,0,0-.479.756.735.735,0,0,0,.268.721,3.892,3.892,0,0,0,1.455.492A5.312,5.312,0,0,1,59.86,29.39a2.007,2.007,0,0,1,.6,1.876,2.976,2.976,0,0,1-1.393,2.127,5.375,5.375,0,0,1-3.019.791,3.888,3.888,0,0,1-2.83-.976,2.335,2.335,0,0,1-.782-2.18l.026-.053h2.347a1.172,1.172,0,0,0,.347,1.107,1.853,1.853,0,0,0,1.191.343,1.944,1.944,0,0,0,1.107-.29A1.092,1.092,0,0,0,57.958,31.363Zm8.578-9.2-.352,2.329h1.608l-.264,1.8H65.912l-.721,4.843a1.017,1.017,0,0,0,.105.8.725.725,0,0,0,.58.224,2.668,2.668,0,0,0,.356-.022,2.777,2.777,0,0,0,.356-.075l-.07,1.854a5.722,5.722,0,0,1-.778.2,4.631,4.631,0,0,1-.8.066,2.372,2.372,0,0,1-1.912-.738,2.823,2.823,0,0,1-.391-2.3l.721-4.852h-1.38l.264-1.8h1.389l.352-2.329ZM73.558,34a4.167,4.167,0,0,1-.141-.69,5.192,5.192,0,0,1-.035-.743,4.368,4.368,0,0,1-1.217,1.16,2.935,2.935,0,0,1-1.613.457,2.807,2.807,0,0,1-2.162-.778,2.378,2.378,0,0,1-.519-2.087,2.967,2.967,0,0,1,1.389-2.193,6.113,6.113,0,0,1,3.27-.743h1.441l.114-.756a1.33,1.33,0,0,0-.2-1.077,1.265,1.265,0,0,0-1.024-.365,1.6,1.6,0,0,0-1,.3,1.2,1.2,0,0,0-.47.831h-2.47l-.009-.053a2.894,2.894,0,0,1,1.358-2.1,5.191,5.191,0,0,1,3.037-.853,3.737,3.737,0,0,1,2.61.87,2.594,2.594,0,0,1,.721,2.461l-.589,3.929a7.041,7.041,0,0,0-.088,1.266A6.172,6.172,0,0,0,76.116,34Zm-2.092-1.714a2.435,2.435,0,0,0,1.23-.338,2.291,2.291,0,0,0,.853-.778l.2-1.336H72.31a1.933,1.933,0,0,0-1.279.413,1.569,1.569,0,0,0-.584.984.857.857,0,0,0,.193.778A1.112,1.112,0,0,0,71.466,32.286ZM83.718,26.7l-.94-.026a1.828,1.828,0,0,0-.967.25,2.012,2.012,0,0,0-.686.708L80.176,34H77.619l1.424-9.51h2.382l-.088,1.362a3.518,3.518,0,0,1,1.028-1.138,2.251,2.251,0,0,1,1.292-.4,2.012,2.012,0,0,1,.356.031,3.043,3.043,0,0,1,.321.075Zm.378,2.628A7.031,7.031,0,0,1,85.6,25.655a3.737,3.737,0,0,1,2.949-1.34,2.281,2.281,0,0,1,1.217.321,2.662,2.662,0,0,1,.883.918l.791-5.265h2.575L91.962,34H89.774l-.044-1.169a3.933,3.933,0,0,1-1.213,1.006,3.116,3.116,0,0,1-1.459.347,2.735,2.735,0,0,1-2.492-1.3,4.85,4.85,0,0,1-.5-3.375Zm2.531.185a3.585,3.585,0,0,0,.114,1.986,1.257,1.257,0,0,0,1.274.694,2.148,2.148,0,0,0,1-.233,2.235,2.235,0,0,0,.778-.672l.606-4.025a1.563,1.563,0,0,0-.567-.7,1.612,1.612,0,0,0-.918-.25,1.743,1.743,0,0,0-1.481.848,5.071,5.071,0,0,0-.778,2.167ZM99.556,34a4.167,4.167,0,0,1-.141-.69,5.192,5.192,0,0,1-.035-.743,4.368,4.368,0,0,1-1.217,1.16,2.935,2.935,0,0,1-1.613.457,2.807,2.807,0,0,1-2.162-.778,2.378,2.378,0,0,1-.519-2.087,2.967,2.967,0,0,1,1.389-2.193,6.113,6.113,0,0,1,3.27-.743h1.441l.114-.756a1.33,1.33,0,0,0-.2-1.077,1.265,1.265,0,0,0-1.024-.365,1.6,1.6,0,0,0-1,.3,1.2,1.2,0,0,0-.47.831h-2.47l-.009-.053a2.894,2.894,0,0,1,1.358-2.1,5.191,5.191,0,0,1,3.037-.853,3.737,3.737,0,0,1,2.61.87,2.594,2.594,0,0,1,.721,2.461l-.589,3.929a7.041,7.041,0,0,0-.088,1.266,6.172,6.172,0,0,0,.149,1.16Zm-2.092-1.714a2.435,2.435,0,0,0,1.23-.338,2.291,2.291,0,0,0,.853-.778l.2-1.336H98.308a1.933,1.933,0,0,0-1.279.413,1.569,1.569,0,0,0-.584.984.857.857,0,0,0,.193.778A1.112,1.112,0,0,0,97.464,32.286ZM107.51,30.01l.018.519.053.009,2.733-6.047h2.76l-5.493,10.934a6.111,6.111,0,0,1-1.358,1.718,3.23,3.23,0,0,1-2.193.7,3.12,3.12,0,0,1-.584-.053q-.277-.053-.655-.149l.58-1.872q.105.018.237.035a1.813,1.813,0,0,0,.237.018,1.575,1.575,0,0,0,1.011-.321,2.637,2.637,0,0,0,.659-.769l.4-.729-1.951-9.51h2.76Zm7.576.352a3.985,3.985,0,0,1,.637-1.8,7.61,7.61,0,0,1,1.63-1.389,5.857,5.857,0,0,0,1.156-1.1,2.81,2.81,0,0,0,.576-1.318,1.609,1.609,0,0,0-.233-1.279,1.4,1.4,0,0,0-1.156-.444,1.881,1.881,0,0,0-1.151.387,1.689,1.689,0,0,0-.642,1.134h-2.5L113.4,24.5a3.593,3.593,0,0,1,1.5-2.584,5.255,5.255,0,0,1,3.1-.9,3.917,3.917,0,0,1,2.9,1.006,2.983,2.983,0,0,1,.747,2.7,4.116,4.116,0,0,1-.954,2.079,7.412,7.412,0,0,1-1.885,1.578,2.668,2.668,0,0,0-.831.826,3.348,3.348,0,0,0-.338,1.151ZM117.117,34h-2.584l.334-2.2h2.584Z" transform="translate(233 501)" fill="#3c3fa7"/>
    </g>
    <g id="Grupo_170471" data-name="Grupo 170471" transform="translate(13 -1)">
      <g id="Grupo_170470" data-name="Grupo 170470" transform="translate(461 483)">
        <g transform="matrix(1, 0, 0, 1, -294, -78)" filter="url(#Unión_65-2)">
          <path id="Unión_65-4" data-name="Unión 65" d="M16,53.877a16,16,0,0,1-16-16V16A16,16,0,0,1,16,0H164.677a16,16,0,0,1,16,16v5.92l8.755,5.231-8.755,5.231v5.494a16,16,0,0,1-16,16Z" transform="translate(483.43 131.88) rotate(180)" fill="#fff"/>
        </g>
      </g>
      <path id="Trazado_165199" data-name="Trazado 165199" d="M14.9,17H12.329l.791-5.317H7.908L7.117,17H4.55L6.466,4.2H9.033l-.826,5.5h5.212l.826-5.5h2.566Zm7.77,0a4.167,4.167,0,0,1-.141-.69,5.192,5.192,0,0,1-.035-.743,4.368,4.368,0,0,1-1.217,1.16,2.935,2.935,0,0,1-1.613.457,2.807,2.807,0,0,1-2.162-.778,2.378,2.378,0,0,1-.519-2.087,2.967,2.967,0,0,1,1.389-2.193,6.113,6.113,0,0,1,3.27-.743h1.441l.114-.756a1.33,1.33,0,0,0-.2-1.077,1.265,1.265,0,0,0-1.024-.365,1.6,1.6,0,0,0-1,.3,1.2,1.2,0,0,0-.47.831h-2.47l-.009-.053a2.894,2.894,0,0,1,1.358-2.1,5.191,5.191,0,0,1,3.037-.853,3.737,3.737,0,0,1,2.61.87,2.594,2.594,0,0,1,.721,2.461l-.589,3.929a7.041,7.041,0,0,0-.088,1.266A6.172,6.172,0,0,0,25.222,17Zm-2.092-1.714a2.435,2.435,0,0,0,1.23-.338,2.291,2.291,0,0,0,.853-.778l.2-1.336H21.417a1.933,1.933,0,0,0-1.279.413,1.569,1.569,0,0,0-.584.984.857.857,0,0,0,.193.778A1.112,1.112,0,0,0,20.573,15.286Zm11.707-.923a.748.748,0,0,0-.3-.729,3.873,3.873,0,0,0-1.446-.527A5.231,5.231,0,0,1,28.14,12.1a1.936,1.936,0,0,1-.615-1.837,3.074,3.074,0,0,1,1.323-2.1,4.76,4.76,0,0,1,2.887-.839,4.01,4.01,0,0,1,2.729.87,2.179,2.179,0,0,1,.778,2.136l-.018.053H32.746a1.116,1.116,0,0,0-.237-.94,1.31,1.31,0,0,0-1.02-.352,1.649,1.649,0,0,0-1.006.308,1.11,1.11,0,0,0-.479.756.735.735,0,0,0,.268.721,3.892,3.892,0,0,0,1.455.492,5.312,5.312,0,0,1,2.457,1.033,2.007,2.007,0,0,1,.6,1.876,2.976,2.976,0,0,1-1.393,2.127,5.375,5.375,0,0,1-3.019.791,3.888,3.888,0,0,1-2.83-.976,2.335,2.335,0,0,1-.782-2.18l.026-.053h2.347a1.172,1.172,0,0,0,.347,1.107,1.853,1.853,0,0,0,1.191.343,1.944,1.944,0,0,0,1.107-.29A1.092,1.092,0,0,0,32.28,14.363ZM44.242,8.642a4.061,4.061,0,0,1,1.252-.98,3.3,3.3,0,0,1,1.49-.347,2.5,2.5,0,0,1,2.158,1,4.118,4.118,0,0,1,.417,3.045L48.715,17H46.149L47,11.34a2.478,2.478,0,0,0-.119-1.591,1.108,1.108,0,0,0-1.006-.439,2.57,2.57,0,0,0-1.042.2,2.4,2.4,0,0,0-.8.571L42.994,17H40.427L42.484,3.289H45.05Zm10.5,8.543a3.7,3.7,0,0,1-3.085-1.323,4.132,4.132,0,0,1-.729-3.344l.053-.352a6.01,6.01,0,0,1,1.674-3.538,4.624,4.624,0,0,1,3.4-1.314A3.18,3.18,0,0,1,58.783,8.5a4.065,4.065,0,0,1,.584,3.146l-.193,1.327H53.5l-.018.044a2.23,2.23,0,0,0,.334,1.6,1.74,1.74,0,0,0,1.494.593,5.638,5.638,0,0,0,1.485-.18,6.782,6.782,0,0,0,1.336-.532l.457,1.582a5.83,5.83,0,0,1-1.67.782A7.285,7.285,0,0,1,54.745,17.185Zm1.02-7.893a1.642,1.642,0,0,0-1.244.536,3.185,3.185,0,0,0-.734,1.4l.018.053h3.111l.026-.193a2.052,2.052,0,0,0-.136-1.327A1.1,1.1,0,0,0,55.764,9.292ZM67.243,17H64.676L66.733,3.289H69.3Zm2.443-4.843a5.906,5.906,0,0,1,1.7-3.524A4.844,4.844,0,0,1,74.88,7.314a3.581,3.581,0,0,1,3.059,1.371,4.483,4.483,0,0,1,.721,3.472l-.026.185a5.976,5.976,0,0,1-1.714,3.533,4.859,4.859,0,0,1-3.5,1.31,3.586,3.586,0,0,1-3.059-1.367,4.435,4.435,0,0,1-.7-3.476Zm2.531.185a3.806,3.806,0,0,0,.132,2.109,1.343,1.343,0,0,0,1.362.765,1.871,1.871,0,0,0,1.556-.8,4.494,4.494,0,0,0,.8-2.074l.026-.185a3.925,3.925,0,0,0-.154-2.087,1.323,1.323,0,0,0-1.349-.778,1.869,1.869,0,0,0-1.564.813,4.408,4.408,0,0,0-.782,2.052Zm12.85,2.021a.748.748,0,0,0-.3-.729,3.873,3.873,0,0,0-1.446-.527A5.231,5.231,0,0,1,80.927,12.1a1.936,1.936,0,0,1-.615-1.837,3.074,3.074,0,0,1,1.323-2.1,4.76,4.76,0,0,1,2.887-.839,4.01,4.01,0,0,1,2.729.87,2.179,2.179,0,0,1,.778,2.136l-.018.053H85.533a1.116,1.116,0,0,0-.237-.94,1.31,1.31,0,0,0-1.02-.352,1.649,1.649,0,0,0-1.006.308,1.11,1.11,0,0,0-.479.756.735.735,0,0,0,.268.721,3.892,3.892,0,0,0,1.455.492A5.312,5.312,0,0,1,86.97,12.39a2.007,2.007,0,0,1,.6,1.876,2.976,2.976,0,0,1-1.393,2.127,5.375,5.375,0,0,1-3.019.791,3.888,3.888,0,0,1-2.83-.976,2.335,2.335,0,0,1-.782-2.18l.026-.053H81.92a1.172,1.172,0,0,0,.347,1.107,1.853,1.853,0,0,0,1.191.343,1.944,1.944,0,0,0,1.107-.29A1.092,1.092,0,0,0,85.067,14.363Zm8.578-9.2L93.293,7.49H94.9l-.264,1.8H93.021L92.3,14.135a1.017,1.017,0,0,0,.105.8.725.725,0,0,0,.58.224,2.668,2.668,0,0,0,.356-.022,2.777,2.777,0,0,0,.356-.075l-.07,1.854a5.722,5.722,0,0,1-.778.2,4.631,4.631,0,0,1-.8.066,2.372,2.372,0,0,1-1.912-.738,2.823,2.823,0,0,1-.391-2.3l.721-4.852h-1.38l.264-1.8h1.389l.352-2.329Zm9.65,3.48a4.061,4.061,0,0,1,1.252-.98,3.3,3.3,0,0,1,1.49-.347,2.5,2.5,0,0,1,2.158,1,4.118,4.118,0,0,1,.417,3.045L107.769,17H105.2l.853-5.66a2.478,2.478,0,0,0-.119-1.591,1.108,1.108,0,0,0-1.006-.439,2.57,2.57,0,0,0-1.042.2,2.4,2.4,0,0,0-.8.571L102.047,17H99.481l2.057-13.711H104.1ZM112.4,17h-2.566l1.424-9.51h2.566Zm1.767-11.786H111.6l.29-1.925h2.566Zm5.9,9.149a.748.748,0,0,0-.3-.729,3.873,3.873,0,0,0-1.446-.527,5.231,5.231,0,0,1-2.391-1.011,1.936,1.936,0,0,1-.615-1.837,3.074,3.074,0,0,1,1.323-2.1,4.76,4.76,0,0,1,2.887-.839,4.01,4.01,0,0,1,2.729.87,2.179,2.179,0,0,1,.778,2.136l-.018.053h-2.479a1.116,1.116,0,0,0-.237-.94,1.31,1.31,0,0,0-1.02-.352,1.649,1.649,0,0,0-1.006.308,1.11,1.11,0,0,0-.479.756.735.735,0,0,0,.268.721,3.892,3.892,0,0,0,1.455.492,5.312,5.312,0,0,1,2.457,1.033,2.007,2.007,0,0,1,.6,1.876,2.976,2.976,0,0,1-1.393,2.127,5.375,5.375,0,0,1-3.019.791,3.888,3.888,0,0,1-2.83-.976,2.335,2.335,0,0,1-.782-2.18l.026-.053h2.347a1.172,1.172,0,0,0,.347,1.107,1.853,1.853,0,0,0,1.191.343,1.944,1.944,0,0,0,1.107-.29A1.092,1.092,0,0,0,120.065,14.363Zm12.023-1.345h-.65L130.84,17h-2.566l2.057-13.711H132.9l-1.169,7.778h.571l2.813-3.577h2.909l.018.044-3.7,4.289L137.081,17h-2.953Zm9.747,4.166a3.7,3.7,0,0,1-3.085-1.323,4.132,4.132,0,0,1-.729-3.344l.053-.352a6.01,6.01,0,0,1,1.674-3.538,4.624,4.624,0,0,1,3.4-1.314A3.18,3.18,0,0,1,145.874,8.5a4.065,4.065,0,0,1,.584,3.146l-.193,1.327h-5.678l-.018.044a2.23,2.23,0,0,0,.334,1.6,1.74,1.74,0,0,0,1.494.593,5.638,5.638,0,0,0,1.485-.18,6.782,6.782,0,0,0,1.336-.532l.457,1.582a5.83,5.83,0,0,1-1.67.782A7.285,7.285,0,0,1,141.835,17.185Zm1.02-7.893a1.642,1.642,0,0,0-1.244.536,3.185,3.185,0,0,0-.734,1.4l.018.053h3.111l.026-.193a2.052,2.052,0,0,0-.136-1.327A1.1,1.1,0,0,0,142.855,9.292Zm8.209,3.718.018.519.053.009,2.733-6.047h2.76l-5.493,10.934a6.111,6.111,0,0,1-1.358,1.718,3.23,3.23,0,0,1-2.193.7,3.12,3.12,0,0,1-.584-.053q-.277-.053-.655-.149l.58-1.872q.105.018.237.035a1.813,1.813,0,0,0,.237.018,1.575,1.575,0,0,0,1.011-.321,2.637,2.637,0,0,0,.659-.769l.4-.729-1.951-9.51h2.76Zm7.576.352a3.985,3.985,0,0,1,.637-1.8,7.61,7.61,0,0,1,1.63-1.389,5.857,5.857,0,0,0,1.156-1.1,2.81,2.81,0,0,0,.576-1.318,1.609,1.609,0,0,0-.233-1.279,1.4,1.4,0,0,0-1.156-.444,1.881,1.881,0,0,0-1.151.387,1.689,1.689,0,0,0-.642,1.134h-2.5l-.009-.053a3.593,3.593,0,0,1,1.5-2.584,5.255,5.255,0,0,1,3.1-.9,3.917,3.917,0,0,1,2.9,1.006,2.983,2.983,0,0,1,.747,2.7,4.116,4.116,0,0,1-.954,2.079,7.412,7.412,0,0,1-1.885,1.578,2.668,2.668,0,0,0-.831.826,3.348,3.348,0,0,0-.338,1.151ZM160.67,17h-2.584l.334-2.2H161Z" transform="translate(476 499)" fill="#3c3fa7"/>
    </g>
    <g id="Grupo_170321" data-name="Grupo 170321" transform="translate(-13.878 12)">
      <path id="Trazado_165195" data-name="Trazado 165195" d="M9.444.242a.921.921,0,0,1,.63.2,3.05,3.05,0,0,1,.409.443,3.05,3.05,0,0,0,.409.443.921.921,0,0,0,.63.2,1.314,1.314,0,0,0,.145-.009q.077-.009.162-.026a8.081,8.081,0,0,1,1.789-.2,5.933,5.933,0,0,1,2.854.673,6.421,6.421,0,0,1,2.1,1.8,8.32,8.32,0,0,1,1.3,2.572,10.015,10.015,0,0,1,.451,3,14.9,14.9,0,0,1-.545,4.182,10.1,10.1,0,0,1-1.576,3.245,8.559,8.559,0,0,1-2.53,2.266,10.691,10.691,0,0,1-3.424,1.261.836.836,0,0,0-.332.153,1.482,1.482,0,0,0-.3.3,1.806,1.806,0,0,0-.221.375.957.957,0,0,0-.085.383v2.257q0,.622-.009,1.227t-.009,1.1v1.244a1.612,1.612,0,0,1-.187.741,2.628,2.628,0,0,1-.486.664,2.517,2.517,0,0,1-.656.477,1.588,1.588,0,0,1-.716.179q-.392,0-.664-.579a6.493,6.493,0,0,1-.451-1.576q-.179-1-.281-2.334T7.706,22.04q-.051-1.508-.068-3.118t-.017-3.152v-2.93q0-1.388-.034-2.479t-.1-1.78a1.817,1.817,0,0,0-.2-.843A1.766,1.766,0,0,0,6.692,7.3Q6.36,7.142,6.079,7A2.028,2.028,0,0,1,5.6,6.665a.7.7,0,0,1-.2-.528,1.326,1.326,0,0,1,.153-.63,3.015,3.015,0,0,1,.409-.579,5.641,5.641,0,0,1,.588-.571q.332-.281.69-.588A5.2,5.2,0,0,0,7.7,3.36a1.431,1.431,0,0,0,.247-.341,1.739,1.739,0,0,0,.136-.4q.051-.23.119-.6.051-.221.136-.52a3.155,3.155,0,0,1,.23-.579A1.7,1.7,0,0,1,8.924.438.739.739,0,0,1,9.444.242ZM12.8,5.132a3.494,3.494,0,0,0-1.022.119.892.892,0,0,0-.554.52A3.446,3.446,0,0,0,11,6.937Q10.96,7.7,10.96,9v1.124q0,.409.009.988t.017,1.286q.009.707.017,1.405t.009,1.337v1.1a.791.791,0,0,0,.187.494.733.733,0,0,0,.613.239h.17a.456.456,0,0,0,.17-.034,5.59,5.59,0,0,0,2.181-1.014A6.354,6.354,0,0,0,15.9,14.152a8.311,8.311,0,0,0,.946-2.36,11.854,11.854,0,0,0,.315-2.777,8.084,8.084,0,0,0-.111-1.295,2.835,2.835,0,0,0-.545-1.261,3.132,3.132,0,0,0-1.3-.954A6.218,6.218,0,0,0,12.8,5.132Zm7.9,21.943a4.627,4.627,0,0,1-.119-.826q-.051-.6-.077-1.431t-.034-1.78q-.009-.954-.009-1.857t.009-1.678q.009-.775.009-1.235a9.875,9.875,0,0,1,.085-1.21,5.681,5.681,0,0,1,.307-1.278,3.216,3.216,0,0,1,.588-1.014,1.2,1.2,0,0,1,.946-.417.912.912,0,0,1,.673.23,1.735,1.735,0,0,1,.358.511q.128.281.213.511t.256.23a.7.7,0,0,0,.409-.256q.239-.239.545-.52a5.132,5.132,0,0,1,.69-.528,4.243,4.243,0,0,1,.852-.417,3,3,0,0,1,1.031-.17,3.134,3.134,0,0,1,1.337.281,3.258,3.258,0,0,1,1.031.741A3.453,3.453,0,0,1,30.467,16a3.063,3.063,0,0,1,.239,1.176,3.828,3.828,0,0,1-.051.63,1.723,1.723,0,0,1-.187.554,1.079,1.079,0,0,1-.383.4,1.232,1.232,0,0,1-.656.153,1.109,1.109,0,0,1-.775-.23,2.385,2.385,0,0,1-.417-.511,3.916,3.916,0,0,0-.366-.511.751.751,0,0,0-.6-.23A1.767,1.767,0,0,0,26,18.071a5.933,5.933,0,0,0-1.082,1.67,11.783,11.783,0,0,0-.758,2.351,12.566,12.566,0,0,0-.29,2.7,8.094,8.094,0,0,1-.136,1.6,3.811,3.811,0,0,1-.375,1.09,1.624,1.624,0,0,1-.545.613,1.251,1.251,0,0,1-.664.187,1.2,1.2,0,0,1-.545-.119,1.592,1.592,0,0,1-.417-.3,1.789,1.789,0,0,1-.3-.392A2.753,2.753,0,0,1,20.7,27.074ZM38.815,16.75a2.244,2.244,0,0,0-.051-.451,2.056,2.056,0,0,0-.162-.477,1.067,1.067,0,0,0-.307-.383.791.791,0,0,0-.5-.153,1.443,1.443,0,0,0-.937.486A5.362,5.362,0,0,0,35.918,17a8.907,8.907,0,0,0-.716,1.6,5.106,5.106,0,0,0-.29,1.627,1.478,1.478,0,0,0,.017.2.943.943,0,0,0,.068.239.434.434,0,0,0,.17.2.593.593,0,0,0,.324.077,1.9,1.9,0,0,0,1.167-.46,5.547,5.547,0,0,0,1.065-1.116,6.949,6.949,0,0,0,.784-1.38A3.279,3.279,0,0,0,38.815,16.75Zm2.811.613a4.873,4.873,0,0,1-.2,1.354,6.794,6.794,0,0,1-.579,1.388,8.17,8.17,0,0,1-.886,1.295,7.159,7.159,0,0,1-1.116,1.082,5.874,5.874,0,0,1-1.278.758,3.931,3.931,0,0,1-1.371.324.694.694,0,0,0-.528.187.552.552,0,0,0-.119.4,1.3,1.3,0,0,0,.119.451q.1.221.17.358a2.022,2.022,0,0,0,.7.647,2.86,2.86,0,0,0,1.38.256,3.962,3.962,0,0,0,.886-.094,2.8,2.8,0,0,0,.809-.332,4.239,4.239,0,0,0,.835-.681q.434-.443.98-1.124a.691.691,0,0,1,.247-.2.739.739,0,0,1,.349-.085.805.805,0,0,1,.63.383,2.535,2.535,0,0,1,.29,1.44,3.208,3.208,0,0,1-.332,1.44,3.412,3.412,0,0,1-.971,1.176,4.694,4.694,0,0,1-1.593.784,7.792,7.792,0,0,1-2.2.281,7.662,7.662,0,0,1-2.82-.486,5.581,5.581,0,0,1-2.087-1.405,6.1,6.1,0,0,1-1.295-2.249,9.514,9.514,0,0,1-.443-3.015,13.3,13.3,0,0,1,.17-2.1,12.916,12.916,0,0,1,.511-2.078,10.456,10.456,0,0,1,.852-1.9,6.974,6.974,0,0,1,1.2-1.55,5.337,5.337,0,0,1,1.559-1.048,4.675,4.675,0,0,1,1.908-.383,4.037,4.037,0,0,1,2.019.46,3.882,3.882,0,0,1,1.295,1.158,4.7,4.7,0,0,1,.7,1.533A6.415,6.415,0,0,1,41.626,17.364ZM43.687,25.9a1.656,1.656,0,0,1,.29-1,.81.81,0,0,1,.647-.4.739.739,0,0,1,.486.2q.23.2.537.426a3.832,3.832,0,0,0,.75.426,2.742,2.742,0,0,0,1.107.2q.1,0,.366-.026a1.914,1.914,0,0,0,.537-.136,1.2,1.2,0,0,0,.477-.358,1.052,1.052,0,0,0,.2-.69,1.512,1.512,0,0,0-.349-.988,4.571,4.571,0,0,0-.886-.809q-.537-.383-1.158-.784a7.794,7.794,0,0,1-1.158-.911,4.946,4.946,0,0,1-.911-1.184,3.39,3.39,0,0,1-.392-1.61,4.893,4.893,0,0,1,.332-1.84,5.025,5.025,0,0,1,1.031-1.653,5.175,5.175,0,0,1,1.678-1.184,5.37,5.37,0,0,1,2.24-.451,5.487,5.487,0,0,1,.9.077,2.934,2.934,0,0,1,.835.264,1.622,1.622,0,0,1,.613.528,1.512,1.512,0,0,1,.239.886,3.307,3.307,0,0,1-.043.486,2.2,2.2,0,0,1-.162.554,1.347,1.347,0,0,1-.324.46.751.751,0,0,1-.528.187,1.025,1.025,0,0,1-.392-.077q-.187-.077-.375-.17t-.383-.17a1.183,1.183,0,0,0-.434-.077,1.845,1.845,0,0,0-.673.145,2.455,2.455,0,0,0-.673.4,2.334,2.334,0,0,0-.511.6,1.37,1.37,0,0,0-.2.716,1.385,1.385,0,0,0,.366.92,6.732,6.732,0,0,0,.911.86q.545.434,1.176.911a8.725,8.725,0,0,1,1.176,1.073,5.552,5.552,0,0,1,.911,1.363,4.065,4.065,0,0,1,.366,1.772,3.569,3.569,0,0,1-.486,1.942A3.781,3.781,0,0,1,50.6,27.986a4.926,4.926,0,0,1-1.584.63,7.669,7.669,0,0,1-1.567.179,4.635,4.635,0,0,1-1.738-.29,3.618,3.618,0,0,1-1.167-.724,2.735,2.735,0,0,1-.656-.937A2.516,2.516,0,0,1,43.687,25.9Zm19.8-8.518a5.515,5.515,0,0,1-.273,1.755,6.316,6.316,0,0,1-.724,1.5,6.443,6.443,0,0,1-1.031,1.21,8.615,8.615,0,0,1-1.167.9,6.3,6.3,0,0,1-1.15.588,3.214,3.214,0,0,1-.988.23.813.813,0,0,0-.6.2.6.6,0,0,0-.153.4,1.049,1.049,0,0,0,.1.443,3.306,3.306,0,0,0,.187.358,2,2,0,0,0,.707.647,3.008,3.008,0,0,0,1.423.256,8.1,8.1,0,0,0,1.15-.1,6.492,6.492,0,0,0,1.5-.434,8.232,8.232,0,0,0,3.416-2.7.678.678,0,0,1,.256-.2.713.713,0,0,1,.971.3,3.046,3.046,0,0,1-.051,2.709,4.371,4.371,0,0,1-.928,1.124,7.5,7.5,0,0,1-1.363.946,10.316,10.316,0,0,1-1.653.724,12.019,12.019,0,0,1-1.806.46,10.556,10.556,0,0,1-1.814.162,7.149,7.149,0,0,1-2.7-.486,5.4,5.4,0,0,1-2.027-1.405A6.3,6.3,0,0,1,53.5,24.706a9.514,9.514,0,0,1-.443-3.015,13.3,13.3,0,0,1,.17-2.1,12.916,12.916,0,0,1,.511-2.078,10.456,10.456,0,0,1,.852-1.9,6.974,6.974,0,0,1,1.2-1.55,5.337,5.337,0,0,1,1.559-1.048,4.675,4.675,0,0,1,1.908-.383,4.037,4.037,0,0,1,2.019.46,3.882,3.882,0,0,1,1.295,1.158,4.689,4.689,0,0,1,.7,1.542A6.516,6.516,0,0,1,63.483,17.381ZM56.771,20.26q0,.068.009.187a.566.566,0,0,0,.068.23.511.511,0,0,0,.179.187.631.631,0,0,0,.341.077,1.888,1.888,0,0,0,1.1-.434,5.337,5.337,0,0,0,1.073-1.073,6.8,6.8,0,0,0,.809-1.371,3.3,3.3,0,0,0,.324-1.312,2.244,2.244,0,0,0-.051-.451,2.056,2.056,0,0,0-.162-.477,1.067,1.067,0,0,0-.307-.383.791.791,0,0,0-.5-.153,1.443,1.443,0,0,0-.937.486A5.362,5.362,0,0,0,57.776,17a8.729,8.729,0,0,0-.716,1.618A5.259,5.259,0,0,0,56.771,20.26Zm9.012-3.68a2.752,2.752,0,0,1,.136-.775,3.557,3.557,0,0,1,.392-.86,2.649,2.649,0,0,1,.63-.7,1.489,1.489,0,0,1,1.559-.128,1.016,1.016,0,0,1,.4.469,2.28,2.28,0,0,1,.17.75q.034.443.034.988,0,1.039.324,1.039.17,0,.341-.256l.716-1.073a7.947,7.947,0,0,1,.954-1.167,5.458,5.458,0,0,1,1.252-.946,3.3,3.3,0,0,1,1.627-.392,2.427,2.427,0,0,1,1.482.417,2.6,2.6,0,0,1,.86,1.193,6.315,6.315,0,0,1,.366,1.865,17.5,17.5,0,0,1-.034,2.419q-.085,1.141-.1,2.913t.136,4.361a2.065,2.065,0,0,1-.026.486,1.63,1.63,0,0,1-.162.494,1.306,1.306,0,0,1-.307.392.7.7,0,0,1-.477.162,1.939,1.939,0,0,1-1.406-.486,3.049,3.049,0,0,1-.75-1.158,5.273,5.273,0,0,1-.307-1.38q-.06-.707-.06-1.133,0-.75.06-1.346t.119-1.158q.06-.562.119-1.116a11.255,11.255,0,0,0,.06-1.2,7.832,7.832,0,0,0-.043-.911,2.328,2.328,0,0,0-.119-.545.587.587,0,0,0-.17-.264.308.308,0,0,0-.179-.068,1.159,1.159,0,0,0-.673.392,8.778,8.778,0,0,0-.894,1.005q-.477.613-.971,1.354t-.9,1.423a3.946,3.946,0,0,0-.3.681q-.111.341-.145.494a5.611,5.611,0,0,0-.051.843v1.1q0,.579-.026,1.167a5.846,5.846,0,0,1-.136,1.065,2.276,2.276,0,0,1-.315.775.661.661,0,0,1-.579.3h-.341a1.577,1.577,0,0,1-.511-.094,2.627,2.627,0,0,1-.511-.239,2.512,2.512,0,0,1-.434-.332,1.244,1.244,0,0,1-.281-.375,5.03,5.03,0,0,1-.281-1.133q-.111-.724-.179-1.627t-.085-1.908q-.017-1.005-.017-1.959,0-1.193.017-2.206T65.783,16.58ZM82.649,7.96q-.017.2-.034.332a.423.423,0,0,0,.017.213.207.207,0,0,0,.136.119,1.113,1.113,0,0,0,.324.034h.179a1.905,1.905,0,0,0,.23-.017q.579-.034,1.133-.06t1.133-.026q.613,0,1.44.034a10.207,10.207,0,0,1,1.559.179,4.148,4.148,0,0,1,1.244.434.888.888,0,0,1,.511.8,1.05,1.05,0,0,1-.23.656,1.783,1.783,0,0,1-.724.511,5.307,5.307,0,0,1-1.286.332,12.985,12.985,0,0,1-1.9.119q-.375,0-.8.034l-.843.068q-.417.034-.818.077t-.707.06a.7.7,0,0,0-.545.281,1.367,1.367,0,0,0-.2.673q-.119,1.857-.179,3.68t-.043,3.492q.017,1.67.128,3.126a24.517,24.517,0,0,0,.315,2.564q.153.733.332,1.312a9.794,9.794,0,0,1,.264,1.022,1.526,1.526,0,0,1-.017.758.985.985,0,0,1-.511.537,1.48,1.48,0,0,1-.664.17,1.455,1.455,0,0,1-.843-.264,3.376,3.376,0,0,1-.681-.622,4.717,4.717,0,0,1-.494-.707q-.2-.349-.264-.5a7.18,7.18,0,0,1-.451-1.661q-.179-1.048-.281-2.342t-.145-2.726q-.043-1.431-.043-2.82t.034-2.624q.034-1.235.085-2.1a2.549,2.549,0,0,0,.017-.477q-.017-.085-.375-.085h-.409a2.367,2.367,0,0,1-1.38-.358,1.042,1.042,0,0,1-.511-.869.888.888,0,0,1,.17-.528,1.984,1.984,0,0,1,.468-.451,4.439,4.439,0,0,1,.7-.4q.4-.187.86-.375a1.454,1.454,0,0,0,.494-.315,1.013,1.013,0,0,0,.2-.622q.034-.647.1-1.371t.162-1.423q.094-.7.23-1.329a9.379,9.379,0,0,1,.307-1.116,2.67,2.67,0,0,1,.392-.767.618.618,0,0,1,.477-.281,1.841,1.841,0,0,1,.511.085,2.106,2.106,0,0,1,.562.264,1.733,1.733,0,0,1,.477.477,1.575,1.575,0,0,1,.256.707q.017.136.026.562t.009,1q0,.571-.026,1.235T82.649,7.96ZM96.738.242a.921.921,0,0,1,.63.2,3.05,3.05,0,0,1,.409.443,3.05,3.05,0,0,0,.409.443.921.921,0,0,0,.63.2,1.314,1.314,0,0,0,.145-.009q.077-.009.162-.026a8.081,8.081,0,0,1,1.789-.2,5.933,5.933,0,0,1,2.854.673,6.421,6.421,0,0,1,2.1,1.8,8.32,8.32,0,0,1,1.3,2.572,10.015,10.015,0,0,1,.451,3,14.9,14.9,0,0,1-.545,4.182A10.1,10.1,0,0,1,105.5,16.75a8.559,8.559,0,0,1-2.53,2.266,10.691,10.691,0,0,1-3.424,1.261.836.836,0,0,0-.332.153,1.482,1.482,0,0,0-.3.3,1.806,1.806,0,0,0-.221.375.957.957,0,0,0-.085.383v2.257q0,.622-.009,1.227t-.009,1.1v1.244a1.612,1.612,0,0,1-.187.741,2.628,2.628,0,0,1-.486.664,2.517,2.517,0,0,1-.656.477,1.588,1.588,0,0,1-.716.179q-.392,0-.664-.579a6.493,6.493,0,0,1-.451-1.576q-.179-1-.281-2.334T95,22.04q-.051-1.508-.068-3.118t-.017-3.152v-2.93q0-1.388-.034-2.479t-.1-1.78a1.817,1.817,0,0,0-.2-.843,1.766,1.766,0,0,0-.588-.443q-.332-.153-.613-.3a2.028,2.028,0,0,1-.477-.332.7.7,0,0,1-.2-.528,1.326,1.326,0,0,1,.153-.63,3.015,3.015,0,0,1,.409-.579,5.641,5.641,0,0,1,.588-.571q.332-.281.69-.588a5.2,5.2,0,0,0,.451-.409,1.431,1.431,0,0,0,.247-.341,1.739,1.739,0,0,0,.136-.4q.051-.23.119-.6.051-.221.136-.52a3.155,3.155,0,0,1,.23-.579,1.7,1.7,0,0,1,.358-.477A.739.739,0,0,1,96.738.242Zm3.356,4.889a3.494,3.494,0,0,0-1.022.119.892.892,0,0,0-.554.52A3.446,3.446,0,0,0,98.3,6.937Q98.254,7.7,98.254,9v1.124q0,.409.009.988T98.28,12.4q.009.707.017,1.405t.009,1.337v1.1a.791.791,0,0,0,.187.494.733.733,0,0,0,.613.239h.17a.456.456,0,0,0,.17-.034,5.59,5.59,0,0,0,2.181-1.014,6.355,6.355,0,0,0,1.567-1.772,8.311,8.311,0,0,0,.946-2.36,11.854,11.854,0,0,0,.315-2.777,8.084,8.084,0,0,0-.111-1.295A2.835,2.835,0,0,0,103.8,6.46a3.132,3.132,0,0,0-1.3-.954A6.218,6.218,0,0,0,100.094,5.132Zm17.837,12.249a5.515,5.515,0,0,1-.273,1.755,6.316,6.316,0,0,1-.724,1.5,6.443,6.443,0,0,1-1.031,1.21,8.615,8.615,0,0,1-1.167.9,6.3,6.3,0,0,1-1.15.588,3.214,3.214,0,0,1-.988.23.813.813,0,0,0-.6.2.6.6,0,0,0-.153.4,1.049,1.049,0,0,0,.1.443,3.306,3.306,0,0,0,.187.358,2,2,0,0,0,.707.647,3.008,3.008,0,0,0,1.423.256,8.1,8.1,0,0,0,1.15-.1,6.492,6.492,0,0,0,1.5-.434,8.232,8.232,0,0,0,3.416-2.7.678.678,0,0,1,.256-.2.713.713,0,0,1,.971.3,3.046,3.046,0,0,1-.051,2.709,4.371,4.371,0,0,1-.928,1.124,7.5,7.5,0,0,1-1.363.946,10.315,10.315,0,0,1-1.653.724,12.019,12.019,0,0,1-1.806.46,10.556,10.556,0,0,1-1.814.162,7.149,7.149,0,0,1-2.7-.486,5.4,5.4,0,0,1-2.027-1.405,6.3,6.3,0,0,1-1.269-2.249,9.514,9.514,0,0,1-.443-3.015,13.3,13.3,0,0,1,.17-2.1,12.918,12.918,0,0,1,.511-2.078,10.456,10.456,0,0,1,.852-1.9,6.974,6.974,0,0,1,1.2-1.55,5.337,5.337,0,0,1,1.559-1.048,4.675,4.675,0,0,1,1.908-.383,4.037,4.037,0,0,1,2.019.46,3.882,3.882,0,0,1,1.295,1.158,4.689,4.689,0,0,1,.7,1.542A6.516,6.516,0,0,1,117.931,17.381Zm-6.712,2.879q0,.068.009.187a.566.566,0,0,0,.068.23.511.511,0,0,0,.179.187.631.631,0,0,0,.341.077,1.888,1.888,0,0,0,1.1-.434,5.337,5.337,0,0,0,1.073-1.073,6.8,6.8,0,0,0,.809-1.371,3.3,3.3,0,0,0,.324-1.312,2.244,2.244,0,0,0-.051-.451,2.056,2.056,0,0,0-.162-.477,1.067,1.067,0,0,0-.307-.383.791.791,0,0,0-.5-.153,1.443,1.443,0,0,0-.937.486A5.361,5.361,0,0,0,112.224,17a8.729,8.729,0,0,0-.716,1.618A5.259,5.259,0,0,0,111.219,20.26Zm9.183,6.815a4.628,4.628,0,0,1-.119-.826q-.051-.6-.077-1.431t-.034-1.78q-.009-.954-.009-1.857t.009-1.678q.009-.775.009-1.235a9.874,9.874,0,0,1,.085-1.21,5.682,5.682,0,0,1,.307-1.278,3.216,3.216,0,0,1,.588-1.014,1.2,1.2,0,0,1,.946-.417.912.912,0,0,1,.673.23,1.735,1.735,0,0,1,.358.511q.128.281.213.511t.256.23a.7.7,0,0,0,.409-.256q.239-.239.545-.52a5.132,5.132,0,0,1,.69-.528,4.242,4.242,0,0,1,.852-.417,3,3,0,0,1,1.031-.17,3.134,3.134,0,0,1,1.337.281,3.258,3.258,0,0,1,1.031.741A3.453,3.453,0,0,1,130.163,16a3.063,3.063,0,0,1,.239,1.176,3.828,3.828,0,0,1-.051.63,1.723,1.723,0,0,1-.187.554,1.079,1.079,0,0,1-.383.4,1.232,1.232,0,0,1-.656.153,1.109,1.109,0,0,1-.775-.23,2.385,2.385,0,0,1-.417-.511,3.916,3.916,0,0,0-.366-.511.751.751,0,0,0-.6-.23,1.767,1.767,0,0,0-1.261.639,5.933,5.933,0,0,0-1.082,1.67,11.782,11.782,0,0,0-.758,2.351,12.565,12.565,0,0,0-.29,2.7,8.094,8.094,0,0,1-.136,1.6,3.811,3.811,0,0,1-.375,1.09,1.624,1.624,0,0,1-.545.613,1.251,1.251,0,0,1-.664.187,1.2,1.2,0,0,1-.545-.119,1.592,1.592,0,0,1-.417-.3,1.788,1.788,0,0,1-.3-.392A2.753,2.753,0,0,1,120.4,27.074Zm11.977-10.716q-.017-.187-.043-.332a.786.786,0,0,0-.111-.281,1.009,1.009,0,0,0-.256-.264,2.684,2.684,0,0,0-.46-.264,1.365,1.365,0,0,1-.537-.409,1,1,0,0,1-.2-.63,1.217,1.217,0,0,1,.2-.758,1.152,1.152,0,0,1,.545-.383,1.8,1.8,0,0,0,.392-.187.661.661,0,0,0,.239-.307,1.936,1.936,0,0,0,.119-.537q.034-.332.034-.86V9.6a19.866,19.866,0,0,1,.341-4,8.33,8.33,0,0,1,.963-2.641A3.867,3.867,0,0,1,135.1,1.494a4.148,4.148,0,0,1,1.942-.451,3.775,3.775,0,0,1,1.678.332,3.257,3.257,0,0,1,1.073.809,2.992,2.992,0,0,1,.571,1.005,3.062,3.062,0,0,1,.17.92,1.6,1.6,0,0,1-.128.681,1.348,1.348,0,0,1-.307.434,1.263,1.263,0,0,1-.366.239.856.856,0,0,1-.307.077.594.594,0,0,1-.4-.179q-.2-.179-.409-.392a3.5,3.5,0,0,0-.469-.392.986.986,0,0,0-.579-.179,1.063,1.063,0,0,0-.937.622,5.635,5.635,0,0,0-.571,1.653,19.95,19.95,0,0,0-.324,2.36q-.111,1.329-.2,2.743a.7.7,0,0,0,.2.63.824.824,0,0,0,.537.187,9.451,9.451,0,0,1,1.567.1,3.223,3.223,0,0,1,.877.256.831.831,0,0,1,.392.349.885.885,0,0,1,.094.383,1.18,1.18,0,0,1-.29.818,2.3,2.3,0,0,1-.673.52,2.958,2.958,0,0,1-.767.273,3.225,3.225,0,0,1-.571.077,2.465,2.465,0,0,0-.673.077.919.919,0,0,0-.4.213.717.717,0,0,0-.187.324,1.2,1.2,0,0,0-.034.409q.068,1.158.094,2.044t.026,1.346q0,2.334.051,4.336t.17,3.825a1.238,1.238,0,0,1-.026.375,1.18,1.18,0,0,1-.153.383.869.869,0,0,1-.324.3,1.088,1.088,0,0,1-.537.119,1.565,1.565,0,0,1-.954-.315,2.843,2.843,0,0,1-.733-.818,4.816,4.816,0,0,1-.494-1.124,5.287,5.287,0,0,1-.221-1.235q-.068-1.073-.094-2.3t-.026-2.572q0-1.107.034-2.2A20.346,20.346,0,0,0,132.378,16.359Zm16.61,1.022a5.515,5.515,0,0,1-.273,1.755,6.316,6.316,0,0,1-.724,1.5,6.443,6.443,0,0,1-1.031,1.21,8.615,8.615,0,0,1-1.167.9,6.3,6.3,0,0,1-1.15.588,3.214,3.214,0,0,1-.988.23.813.813,0,0,0-.6.2.6.6,0,0,0-.153.4,1.049,1.049,0,0,0,.1.443,3.3,3.3,0,0,0,.187.358,2,2,0,0,0,.707.647,3.008,3.008,0,0,0,1.423.256,8.1,8.1,0,0,0,1.15-.1,6.492,6.492,0,0,0,1.5-.434,8.232,8.232,0,0,0,3.416-2.7.678.678,0,0,1,.256-.2.713.713,0,0,1,.971.3,3.046,3.046,0,0,1-.051,2.709,4.371,4.371,0,0,1-.928,1.124,7.5,7.5,0,0,1-1.363.946,10.316,10.316,0,0,1-1.653.724,12.019,12.019,0,0,1-1.806.46,10.556,10.556,0,0,1-1.814.162,7.149,7.149,0,0,1-2.7-.486,5.4,5.4,0,0,1-2.027-1.405,6.3,6.3,0,0,1-1.269-2.249,9.514,9.514,0,0,1-.443-3.015,13.3,13.3,0,0,1,.17-2.1,12.915,12.915,0,0,1,.511-2.078,10.455,10.455,0,0,1,.852-1.9,6.974,6.974,0,0,1,1.2-1.55,5.337,5.337,0,0,1,1.559-1.048,4.675,4.675,0,0,1,1.908-.383,4.037,4.037,0,0,1,2.019.46,3.882,3.882,0,0,1,1.295,1.158,4.689,4.689,0,0,1,.7,1.542A6.516,6.516,0,0,1,148.989,17.381Zm-6.712,2.879q0,.068.009.187a.566.566,0,0,0,.068.23.511.511,0,0,0,.179.187.631.631,0,0,0,.341.077,1.888,1.888,0,0,0,1.1-.434,5.337,5.337,0,0,0,1.073-1.073,6.8,6.8,0,0,0,.809-1.371,3.3,3.3,0,0,0,.324-1.312,2.244,2.244,0,0,0-.051-.451,2.055,2.055,0,0,0-.162-.477,1.067,1.067,0,0,0-.307-.383.791.791,0,0,0-.5-.153,1.443,1.443,0,0,0-.937.486A5.361,5.361,0,0,0,143.281,17a8.73,8.73,0,0,0-.716,1.618A5.259,5.259,0,0,0,142.276,20.26Zm8.893.954a12.6,12.6,0,0,1,.443-3.373,9.776,9.776,0,0,1,1.244-2.811,6.458,6.458,0,0,1,1.951-1.934,4.684,4.684,0,0,1,2.547-.724,2.994,2.994,0,0,1,1.584.434,4.64,4.64,0,0,1,1.227,1.073,5.171,5.171,0,0,1,.792,1.363,3.683,3.683,0,0,1,.281,1.32,4.665,4.665,0,0,1-.077.758,9.787,9.787,0,0,1-.545,1.934,7.185,7.185,0,0,1-.417.886,2.794,2.794,0,0,1-.477.639.761.761,0,0,1-.528.247,1,1,0,0,1-.451-.128,1.805,1.805,0,0,1-.468-.358,2.219,2.219,0,0,1-.375-.528,1.377,1.377,0,0,1-.153-.639,2.438,2.438,0,0,1,.085-.639q.085-.315.179-.656t.179-.7a3.3,3.3,0,0,0,.085-.767,3.466,3.466,0,0,0-.026-.392,1.57,1.57,0,0,0-.111-.426.817.817,0,0,0-.264-.341.753.753,0,0,0-.469-.136,1.455,1.455,0,0,0-1.048.528,4.774,4.774,0,0,0-.886,1.423,10.273,10.273,0,0,0-.613,2.07,12.754,12.754,0,0,0-.23,2.453,8.353,8.353,0,0,0,.2,1.968,3.727,3.727,0,0,0,.528,1.261,1.9,1.9,0,0,0,.775.664,2.291,2.291,0,0,0,.937.2,3.7,3.7,0,0,0,1.491-.332,9.325,9.325,0,0,0,1.508-.843q.75-.511,1.44-1.09t1.269-1.09q.579-.511,1.014-.843a1.306,1.306,0,0,1,.656-.332q.613,0,.775.392a2.769,2.769,0,0,1,.162,1.039,2.254,2.254,0,0,1-.358,1.082,7.091,7.091,0,0,1-.98,1.286,12.386,12.386,0,0,1-1.457,1.312,13.269,13.269,0,0,1-1.789,1.167,10.652,10.652,0,0,1-1.985.835,6.936,6.936,0,0,1-2.036.315,4.816,4.816,0,0,1-2.385-.579,5.242,5.242,0,0,1-1.755-1.6,7.643,7.643,0,0,1-1.09-2.4A11.341,11.341,0,0,1,151.169,21.214Zm16.7-13.254q-.017.2-.034.332a.423.423,0,0,0,.017.213.207.207,0,0,0,.136.119,1.113,1.113,0,0,0,.324.034h.179a1.906,1.906,0,0,0,.23-.017q.579-.034,1.133-.06t1.133-.026q.613,0,1.44.034a10.207,10.207,0,0,1,1.559.179,4.148,4.148,0,0,1,1.244.434.888.888,0,0,1,.511.8,1.05,1.05,0,0,1-.23.656,1.783,1.783,0,0,1-.724.511,5.307,5.307,0,0,1-1.286.332,12.985,12.985,0,0,1-1.9.119q-.375,0-.8.034l-.843.068q-.417.034-.818.077t-.707.06a.7.7,0,0,0-.545.281,1.367,1.367,0,0,0-.2.673q-.119,1.857-.179,3.68t-.043,3.492q.017,1.67.128,3.126a24.517,24.517,0,0,0,.315,2.564q.153.733.332,1.312a9.794,9.794,0,0,1,.264,1.022,1.525,1.525,0,0,1-.017.758.985.985,0,0,1-.511.537,1.481,1.481,0,0,1-.664.17,1.455,1.455,0,0,1-.843-.264,3.376,3.376,0,0,1-.681-.622,4.717,4.717,0,0,1-.494-.707q-.2-.349-.264-.5a7.181,7.181,0,0,1-.451-1.661q-.179-1.048-.281-2.342t-.145-2.726q-.043-1.431-.043-2.82t.034-2.624q.034-1.235.085-2.1a2.548,2.548,0,0,0,.017-.477q-.017-.085-.375-.085h-.409a2.367,2.367,0,0,1-1.38-.358,1.042,1.042,0,0,1-.511-.869.888.888,0,0,1,.17-.528,1.984,1.984,0,0,1,.468-.451,4.439,4.439,0,0,1,.7-.4q.4-.187.86-.375a1.454,1.454,0,0,0,.494-.315,1.013,1.013,0,0,0,.2-.622q.034-.647.1-1.371t.162-1.423q.094-.7.23-1.329a9.382,9.382,0,0,1,.307-1.116,2.67,2.67,0,0,1,.392-.767.618.618,0,0,1,.477-.281,1.841,1.841,0,0,1,.511.085,2.106,2.106,0,0,1,.562.264,1.733,1.733,0,0,1,.477.477,1.575,1.575,0,0,1,.256.707q.017.136.026.562t.009,1q0,.571-.026,1.235T167.865,7.96Z" transform="translate(281.472 421.141)" fill="#ffd947"/>
      <path id="Trazado_165196" data-name="Trazado 165196" d="M11.005,3.531a1.092,1.092,0,0,1-.023-.253,1.072,1.072,0,0,1,.46-.955,2.1,2.1,0,0,1,1.2-.311,4.837,4.837,0,0,1,.518.035,3.467,3.467,0,0,1,.644.138,2.659,2.659,0,0,1,.667.322,1.878,1.878,0,0,1,.564.587,8.4,8.4,0,0,1,.794,2.024q.4,1.4.817,3.289t.805,4.094l.782,4.416q.391,2.208.759,4.255t.725,3.634a25.346,25.346,0,0,0,.679,2.53q.322.943.6.943.207,0,.449-.472a11.063,11.063,0,0,0,.529-1.277q.288-.805.621-1.909t.667-2.369q.334-1.265.69-2.634t.725-2.7l1.058-3.864q.529-1.932,1.07-3.7t1.058-3.289q.518-1.518,1-2.634a11.738,11.738,0,0,1,.909-1.76q.426-.644.771-.644a3.485,3.485,0,0,1,1.185.173,1.9,1.9,0,0,1,.759.483,1.845,1.845,0,0,1,.414.725,2.975,2.975,0,0,1,.127.874,6.471,6.471,0,0,1-.15,1.081q-.15.759-.426,1.852T31.8,8.66q-.368,1.357-.782,2.852t-.874,3.082q-.46,1.587-.92,3.151Q28.556,20.023,27.9,22.3t-1.3,4.37q-.644,2.093-1.265,3.922t-1.2,3.232A15.812,15.812,0,0,1,23.024,36.1,2.448,2.448,0,0,1,22,37.159q-.115.046-.46.161a1.987,1.987,0,0,1-.437.115,1.791,1.791,0,0,1-1.07-.656,9.329,9.329,0,0,1-1.461-2.2,34.011,34.011,0,0,1-1.725-4.094q-.92-2.553-1.9-6.314t-1.99-8.867Q11.948,10.2,11.005,3.531ZM29.867,34.284a2.236,2.236,0,0,1,.391-1.346,1.094,1.094,0,0,1,.874-.541,1,1,0,0,1,.656.265q.311.265.725.575a5.174,5.174,0,0,0,1.012.575,3.7,3.7,0,0,0,1.5.265q.138,0,.495-.035a2.063,2.063,0,0,0,.725-.219,1.826,1.826,0,0,0,.644-.552,1.74,1.74,0,0,0,.276-1.058,2.164,2.164,0,0,0-.472-1.438,4.91,4.91,0,0,0-1.2-1.012q-.725-.449-1.564-.863a8.692,8.692,0,0,1-1.564-.989,5.129,5.129,0,0,1-1.219-1.4,4.345,4.345,0,0,1-.541-2.093,6.606,6.606,0,0,1,.449-2.484A6.784,6.784,0,0,1,32.443,19.7a6.987,6.987,0,0,1,2.266-1.6,7.25,7.25,0,0,1,3.025-.61,7.408,7.408,0,0,1,1.219.1,3.962,3.962,0,0,1,1.127.357,2.191,2.191,0,0,1,.828.713,2.042,2.042,0,0,1,.322,1.2,4.465,4.465,0,0,1-.058.656,2.969,2.969,0,0,1-.219.748,1.819,1.819,0,0,1-.437.621,1.014,1.014,0,0,1-.713.253,1.384,1.384,0,0,1-.529-.1q-.253-.1-.506-.23t-.518-.23a1.6,1.6,0,0,0-.587-.1,2.491,2.491,0,0,0-.909.2,3.315,3.315,0,0,0-.909.541,3.152,3.152,0,0,0-.69.805,1.85,1.85,0,0,0-.276.966,1.746,1.746,0,0,0,.495,1.208,7.952,7.952,0,0,0,1.231,1.07q.736.529,1.587,1.116a10.536,10.536,0,0,1,1.587,1.346,6.9,6.9,0,0,1,1.231,1.76,5.264,5.264,0,0,1,.495,2.358,4.819,4.819,0,0,1-.656,2.622A5.106,5.106,0,0,1,39.206,37.1a6.651,6.651,0,0,1-2.139.851,10.355,10.355,0,0,1-2.116.242A6.258,6.258,0,0,1,32.6,37.8a4.885,4.885,0,0,1-1.576-.978,3.693,3.693,0,0,1-.886-1.265A3.4,3.4,0,0,1,29.867,34.284Z" transform="translate(450.697 416.196)" fill="#fc5f65"/>
      <path id="Trazado_165197" data-name="Trazado 165197" d="M9.35.121A.822.822,0,0,1,9.912.3a2.721,2.721,0,0,1,.365.4,2.721,2.721,0,0,0,.365.4.822.822,0,0,0,.562.175,1.173,1.173,0,0,0,.129-.008q.068-.008.144-.023a7.209,7.209,0,0,1,1.6-.182,5.292,5.292,0,0,1,2.546.6,5.728,5.728,0,0,1,1.877,1.6,7.422,7.422,0,0,1,1.163,2.295,8.934,8.934,0,0,1,.4,2.675,13.289,13.289,0,0,1-.486,3.731,9.012,9.012,0,0,1-1.406,2.9,7.635,7.635,0,0,1-2.257,2.021,9.537,9.537,0,0,1-3.055,1.125.746.746,0,0,0-.3.137,1.322,1.322,0,0,0-.266.266,1.611,1.611,0,0,0-.2.334.854.854,0,0,0-.076.342v2.014q0,.555-.008,1.094t-.008.98V24.27a1.438,1.438,0,0,1-.167.661,2.345,2.345,0,0,1-.433.593,2.245,2.245,0,0,1-.585.426,1.416,1.416,0,0,1-.638.16q-.35,0-.593-.517a5.793,5.793,0,0,1-.4-1.406q-.16-.889-.251-2.082T7.8,19.566q-.046-1.345-.061-2.781t-.015-2.812V11.36q0-1.239-.03-2.211T7.6,7.56a1.621,1.621,0,0,0-.182-.752,1.576,1.576,0,0,0-.524-.4q-.3-.137-.547-.266a1.809,1.809,0,0,1-.426-.3.621.621,0,0,1-.175-.471,1.183,1.183,0,0,1,.137-.562A2.69,2.69,0,0,1,6.25,4.3a5.032,5.032,0,0,1,.524-.509q.3-.251.616-.524a4.635,4.635,0,0,0,.4-.365,1.276,1.276,0,0,0,.22-.3,1.551,1.551,0,0,0,.122-.357q.046-.205.106-.54.046-.2.122-.464A2.814,2.814,0,0,1,8.567.721,1.512,1.512,0,0,1,8.886.3.66.66,0,0,1,9.35.121Zm2.994,4.362a3.117,3.117,0,0,0-.912.106.8.8,0,0,0-.494.464,3.074,3.074,0,0,0-.2,1.041q-.038.684-.038,1.839v1q0,.365.008.881t.015,1.147q.008.631.015,1.254t.008,1.193v.98a.706.706,0,0,0,.167.441.654.654,0,0,0,.547.213h.152a.407.407,0,0,0,.152-.03,4.986,4.986,0,0,0,1.945-.9,5.669,5.669,0,0,0,1.4-1.581,7.414,7.414,0,0,0,.843-2.1,10.575,10.575,0,0,0,.281-2.477,7.211,7.211,0,0,0-.1-1.155,2.529,2.529,0,0,0-.486-1.125,2.794,2.794,0,0,0-1.163-.851A5.547,5.547,0,0,0,12.344,4.483ZM29.563,22.993a3.533,3.533,0,0,1,.046,1.064,2.124,2.124,0,0,1-.22.745,1.115,1.115,0,0,1-.4.433,1,1,0,0,1-.517.144.9.9,0,0,1-.631-.243,2.092,2.092,0,0,1-.448-.6,4.407,4.407,0,0,1-.3-.775q-.122-.418-.213-.775t-.16-.6q-.068-.243-.16-.243a.611.611,0,0,0-.4.22,5.845,5.845,0,0,0-.479.555q-.258.334-.57.722a5.524,5.524,0,0,1-.7.722,3.721,3.721,0,0,1-.859.555,2.409,2.409,0,0,1-1.033.22,2.493,2.493,0,0,1-1.413-.426A3.8,3.8,0,0,1,20,23.571,5.886,5.886,0,0,1,19.3,21.93,7.36,7.36,0,0,1,19.046,20a9.593,9.593,0,0,1,.2-1.862,12.3,12.3,0,0,1,.57-1.976,10.952,10.952,0,0,1,.927-1.877A8.051,8.051,0,0,1,22.017,12.7a5.915,5.915,0,0,1,1.6-1.1,4.481,4.481,0,0,1,1.915-.41,3.454,3.454,0,0,1,1.459.281,2.986,2.986,0,0,1,1.026.767,3.843,3.843,0,0,1,.669,1.14,7.823,7.823,0,0,1,.388,1.406,12.722,12.722,0,0,1,.182,1.558q.046.805.046,1.6,0,.775.023,1.535t.053,1.436q.03.676.084,1.216T29.563,22.993Zm-7.492-2.4a2.1,2.1,0,0,0,.251,1.125q.251.4.464.4a1.375,1.375,0,0,0,.821-.3,4.418,4.418,0,0,0,.805-.8,7.958,7.958,0,0,0,.737-1.109,12.071,12.071,0,0,0,.6-1.239,9.971,9.971,0,0,0,.41-1.178,3.652,3.652,0,0,0,.152-.935q0-.015-.008-.167t-.038-.372q-.03-.22-.091-.479a2,2,0,0,0-.182-.486,1.167,1.167,0,0,0-.3-.372.688.688,0,0,0-.441-.144,1.229,1.229,0,0,0-.783.319,3.842,3.842,0,0,0-.737.843,8.85,8.85,0,0,0-.654,1.178,11.874,11.874,0,0,0-.524,1.33,12,12,0,0,0-.35,1.307A5.534,5.534,0,0,0,22.07,20.592ZM30.429,22.7a1.477,1.477,0,0,1,.258-.889.723.723,0,0,1,.578-.357.659.659,0,0,1,.433.175q.205.175.479.38a3.418,3.418,0,0,0,.669.38,2.446,2.446,0,0,0,.988.175q.091,0,.327-.023a1.363,1.363,0,0,0,.479-.144,1.206,1.206,0,0,0,.426-.365,1.15,1.15,0,0,0,.182-.7,1.43,1.43,0,0,0-.312-.95,3.244,3.244,0,0,0-.79-.669q-.479-.3-1.033-.57a5.743,5.743,0,0,1-1.033-.654,3.389,3.389,0,0,1-.805-.927,2.871,2.871,0,0,1-.357-1.383,4.365,4.365,0,0,1,.3-1.641,4.483,4.483,0,0,1,.919-1.474,4.617,4.617,0,0,1,1.5-1.056,4.791,4.791,0,0,1,2-.4,4.894,4.894,0,0,1,.805.068,2.617,2.617,0,0,1,.745.236,1.447,1.447,0,0,1,.547.471,1.349,1.349,0,0,1,.213.79,2.95,2.95,0,0,1-.038.433,1.962,1.962,0,0,1-.144.494,1.2,1.2,0,0,1-.289.41.67.67,0,0,1-.471.167.914.914,0,0,1-.35-.068q-.167-.068-.334-.152t-.342-.152a1.055,1.055,0,0,0-.388-.068,1.646,1.646,0,0,0-.6.129,2.19,2.19,0,0,0-.6.357,2.083,2.083,0,0,0-.456.532,1.222,1.222,0,0,0-.182.638,1.154,1.154,0,0,0,.327.8,5.254,5.254,0,0,0,.813.707q.486.35,1.049.737a6.961,6.961,0,0,1,1.049.889,4.556,4.556,0,0,1,.813,1.163,3.478,3.478,0,0,1,.327,1.558,3.184,3.184,0,0,1-.433,1.733A3.373,3.373,0,0,1,36.6,24.566a4.395,4.395,0,0,1-1.413.562,6.842,6.842,0,0,1-1.4.16,4.135,4.135,0,0,1-1.55-.258,3.228,3.228,0,0,1-1.041-.646,2.44,2.44,0,0,1-.585-.836A2.244,2.244,0,0,1,30.429,22.7Zm12.538-15.7q-.015.182-.03.3a.378.378,0,0,0,.015.19.184.184,0,0,0,.122.106.993.993,0,0,0,.289.03h.16a1.7,1.7,0,0,0,.205-.015q.517-.03,1.011-.053t1.011-.023q.547,0,1.284.03a9.106,9.106,0,0,1,1.391.16,3.7,3.7,0,0,1,1.109.388.792.792,0,0,1,.456.714.936.936,0,0,1-.205.585,1.59,1.59,0,0,1-.646.456,4.734,4.734,0,0,1-1.147.3,11.584,11.584,0,0,1-1.695.106q-.334,0-.714.03l-.752.061q-.372.03-.729.068t-.631.053a.622.622,0,0,0-.486.251,1.22,1.22,0,0,0-.182.6q-.106,1.657-.16,3.283T42.6,17.735q.015,1.489.114,2.789A21.872,21.872,0,0,0,43,22.811q.137.654.3,1.17a8.738,8.738,0,0,1,.236.912,1.361,1.361,0,0,1-.015.676.879.879,0,0,1-.456.479,1.321,1.321,0,0,1-.593.152,1.3,1.3,0,0,1-.752-.236,3.012,3.012,0,0,1-.608-.555,4.208,4.208,0,0,1-.441-.631q-.175-.312-.236-.448a6.405,6.405,0,0,1-.4-1.482q-.16-.935-.251-2.09t-.129-2.432q-.038-1.277-.038-2.515t.03-2.34q.03-1.1.076-1.877a2.274,2.274,0,0,0,.015-.426q-.015-.076-.334-.076h-.365a2.111,2.111,0,0,1-1.231-.319A.929.929,0,0,1,37.344,10a.792.792,0,0,1,.152-.471,1.77,1.77,0,0,1,.418-.4,3.96,3.96,0,0,1,.623-.357q.357-.167.767-.334a1.3,1.3,0,0,0,.441-.281.9.9,0,0,0,.182-.555q.03-.578.091-1.223t.144-1.269q.084-.623.205-1.185a8.368,8.368,0,0,1,.274-1,2.382,2.382,0,0,1,.35-.684.551.551,0,0,1,.426-.251,1.643,1.643,0,0,1,.456.076,1.879,1.879,0,0,1,.5.236,1.546,1.546,0,0,1,.426.426,1.4,1.4,0,0,1,.228.631q.015.122.023.5t.008.889q0,.509-.023,1.1T42.967,7.005Zm9.271,15.471a1.562,1.562,0,0,1,.106-.585.477.477,0,0,1,.5-.266,1.08,1.08,0,0,1,.722.251q.3.251.661.547a4.452,4.452,0,0,0,.889.547,3.3,3.3,0,0,0,1.406.251,4.374,4.374,0,0,0,1.854-.372,4.756,4.756,0,0,0,1.36-.919,4.027,4.027,0,0,0,.843-1.17,2.716,2.716,0,0,0,.289-1.125,2.176,2.176,0,0,0-.585-1.429A11.6,11.6,0,0,0,58.819,16.8q-.881-.722-1.9-1.52a14.967,14.967,0,0,1-1.9-1.778,9.408,9.408,0,0,1-1.467-2.181,6.13,6.13,0,0,1-.585-2.72,6.319,6.319,0,0,1,.646-2.88,7.341,7.341,0,0,1,1.664-2.2,7.506,7.506,0,0,1,2.272-1.406,6.705,6.705,0,0,1,2.47-.494,3.091,3.091,0,0,1,1.3.281,3.719,3.719,0,0,1,1.839,1.831,2.939,2.939,0,0,1,.281,1.246,3.862,3.862,0,0,1-.061.585,4.261,4.261,0,0,1-.19.737,2.147,2.147,0,0,1-.342.631.641.641,0,0,1-.517.266.787.787,0,0,1-.4-.122,1.3,1.3,0,0,1-.365-.327,1.975,1.975,0,0,1-.266-.464,1.423,1.423,0,0,1-.106-.547,2.107,2.107,0,0,0-.023-.274,1.475,1.475,0,0,0-.084-.327.792.792,0,0,0-.182-.281.432.432,0,0,0-.319-.122,2.91,2.91,0,0,0-.722.122,5.852,5.852,0,0,0-.95.357A7.2,7.2,0,0,0,57.9,5.8a4.948,4.948,0,0,0-.912.805,4.139,4.139,0,0,0-.661,1.018,2.877,2.877,0,0,0-.258,1.216,2.991,2.991,0,0,0,.327,1.383,5.251,5.251,0,0,0,.874,1.216,11.713,11.713,0,0,0,1.239,1.125l1.406,1.109q.714.562,1.406,1.163a9.847,9.847,0,0,1,1.239,1.284,6,6,0,0,1,.874,1.482,4.589,4.589,0,0,1,.327,1.755,5.433,5.433,0,0,1-.312,1.824,6.505,6.505,0,0,1-.859,1.641,7.989,7.989,0,0,1-1.269,1.383,8.986,8.986,0,0,1-1.535,1.071,7.88,7.88,0,0,1-1.679.691,6.229,6.229,0,0,1-1.687.243,4.876,4.876,0,0,1-1.649-.274,3.981,3.981,0,0,1-1.33-.775,3.628,3.628,0,0,1-.881-1.185A3.514,3.514,0,0,1,52.238,22.477Zm13.024-1.991q0-.532-.023-1.413t-.015-1.885q.008-1,.076-2.029a15.2,15.2,0,0,1,.228-1.854,4.489,4.489,0,0,1,.456-1.353.875.875,0,0,1,.767-.524,1.937,1.937,0,0,1,.9.175,1.117,1.117,0,0,1,.464.8,6.9,6.9,0,0,1,.1.767q.038.464.038,1.117,0,.35.015,1.185t.023,1.9q.008,1.064.015,2.226t-.008,2.2q-.015,1.033-.061,1.793a5.189,5.189,0,0,1-.122,1,.489.489,0,0,1-.243.281,1.8,1.8,0,0,1-.372.152,2,2,0,0,1-.365.068q-.175.015-.236.015a.913.913,0,0,1-.714-.357,2.9,2.9,0,0,1-.509-.988,8.057,8.057,0,0,1-.312-1.474A14.413,14.413,0,0,1,65.262,20.486Zm.3-15.091a2.922,2.922,0,0,1,.114-.828,1.98,1.98,0,0,1,.342-.676,1.535,1.535,0,0,1,.578-.448,1.921,1.921,0,0,1,.805-.16,2.235,2.235,0,0,1,.631.091,1.452,1.452,0,0,1,.555.3,1.586,1.586,0,0,1,.4.547,2.021,2.021,0,0,1,.152.836,2.324,2.324,0,0,1-.167.912,1.8,1.8,0,0,1-.456.654,1.929,1.929,0,0,1-.661.388,2.325,2.325,0,0,1-.767.129,1.552,1.552,0,0,1-.767-.167,1.328,1.328,0,0,1-.464-.418,1.531,1.531,0,0,1-.228-.562A3.134,3.134,0,0,1,65.566,5.394Zm4.195,11q0-.243.023-.676t.084-.927q.061-.494.167-1.011a4.875,4.875,0,0,1,.281-.927,2.367,2.367,0,0,1,.418-.676.742.742,0,0,1,.562-.266.694.694,0,0,1,.616.342,3.277,3.277,0,0,1,.357.76q.137.418.236.76t.236.342q.106,0,.258-.274.167-.3.372-.654a5.009,5.009,0,0,1,.456-.654,2.453,2.453,0,0,1,.555-.5,1.177,1.177,0,0,1,.654-.2,1.066,1.066,0,0,1,.912.5A4.033,4.033,0,0,1,76.5,13.6a11.014,11.014,0,0,1,.3,1.634q.1.874.175,1.634t.152,1.261q.076.5.243.5.152,0,.38-.456t.524-1.147q.3-.691.676-1.5a10.947,10.947,0,0,1,.851-1.5,5.208,5.208,0,0,1,1.041-1.147,1.942,1.942,0,0,1,1.239-.456,1.834,1.834,0,0,1,.669.137,1.491,1.491,0,0,1,.638.524,3.262,3.262,0,0,1,.479,1.056,6.576,6.576,0,0,1,.19,1.748q0,.35-.023.866t-.053,1.109q-.03.593-.061,1.216t-.061,1.2q-.03.578-.053,1.064t-.023.79a5.635,5.635,0,0,1-.152,1.413,3.056,3.056,0,0,1-.388.927,1.537,1.537,0,0,1-.509.5,1.048,1.048,0,0,1-.5.152,1.3,1.3,0,0,1-.729-.182,1.138,1.138,0,0,1-.418-.54,3.277,3.277,0,0,1-.2-.9q-.053-.54-.053-1.269,0-.669.03-1.489t.03-1.535q0-.714-.046-1.193t-.2-.479q-.137,0-.327.418t-.426,1.049q-.236.631-.532,1.36a10.932,10.932,0,0,1-.661,1.36,4.749,4.749,0,0,1-.8,1.049,1.343,1.343,0,0,1-.95.418,1.146,1.146,0,0,1-.927-.479,4.492,4.492,0,0,1-.653-1.193,10.2,10.2,0,0,1-.448-1.543q-.175-.828-.3-1.543t-.251-1.178q-.122-.464-.258-.448-.228.015-.426.4a5.01,5.01,0,0,0-.342.889,10.256,10.256,0,0,0-.236,1,6.759,6.759,0,0,0-.106.775q-.061,1.064-.106,2.014t-.144,1.657a3.69,3.69,0,0,1-.3,1.117.657.657,0,0,1-.616.41h-.289a2.618,2.618,0,0,1-.289-.015.678.678,0,0,1-.228-.061,1.64,1.64,0,0,1-.669-.836,6.577,6.577,0,0,1-.4-1.429,14.132,14.132,0,0,1-.19-1.763q-.046-.942-.053-1.824t.015-1.619Q69.761,16.808,69.761,16.4ZM86.387,32.9a.822.822,0,0,1-.676-.342,2.622,2.622,0,0,1-.418-.813,4.813,4.813,0,0,1-.205-.98,5.7,5.7,0,0,1-.038-.828q.061-2.006.106-3.564t.068-2.857q.023-1.3.03-2.47t.008-2.424v-2.7q0-1.444-.015-3.3a1.375,1.375,0,0,1,.084-.418,1.55,1.55,0,0,1,.266-.479,1.693,1.693,0,0,1,.464-.4,1.3,1.3,0,0,1,.676-.167,1.027,1.027,0,0,1,.745.251,1.563,1.563,0,0,1,.388.631,4.053,4.053,0,0,1,.182.836q.053.456.114.881a2.412,2.412,0,0,0,.122.517.227.227,0,0,0,.228.137q.106,0,.251-.205t.35-.517q.205-.312.464-.669a4.854,4.854,0,0,1,.585-.669,3.136,3.136,0,0,1,.722-.517,1.851,1.851,0,0,1,.866-.205,3.461,3.461,0,0,1,2.956,1.482,4.878,4.878,0,0,1,.737,1.634,8.2,8.2,0,0,1,.243,2.052,10.427,10.427,0,0,1-.388,2.827,9.241,9.241,0,0,1-1.064,2.454,6.179,6.179,0,0,1-1.573,1.725,3.193,3.193,0,0,1-1.915.654,3.534,3.534,0,0,1-.676-.061,5.739,5.739,0,0,1-.562-.137q-.251-.076-.471-.137a1.525,1.525,0,0,0-.4-.061.418.418,0,0,0-.342.16,1.154,1.154,0,0,0-.2.365,1.99,1.99,0,0,0-.091.41q-.023.205-.038.3a13.161,13.161,0,0,0-.137,1.862q0,.9-.008,1.755t-.084,1.657a5.964,5.964,0,0,1-.365,1.565,1.507,1.507,0,0,1-.35.517A.863.863,0,0,1,86.387,32.9Zm6.489-16.094a2.445,2.445,0,0,0-.122-.851,1.328,1.328,0,0,0-.3-.494.887.887,0,0,0-.38-.228,1.325,1.325,0,0,0-.334-.053,1.344,1.344,0,0,0-.76.258,3.882,3.882,0,0,0-.737.669,6.813,6.813,0,0,0-.669.919,8.673,8.673,0,0,0-.54,1.026,8.418,8.418,0,0,0-.365.973,3.328,3.328,0,0,0-.152.76,1.791,1.791,0,0,0,.091.555,1.683,1.683,0,0,0,.266.509,1.43,1.43,0,0,0,.426.372,1.092,1.092,0,0,0,.555.144,2.357,2.357,0,0,0,1.208-.289,2.8,2.8,0,0,0,.828-.729,3.7,3.7,0,0,0,.532-.988,7.183,7.183,0,0,0,.3-1.049,7.7,7.7,0,0,0,.129-.912Q92.877,16.99,92.877,16.808Zm4.012-6.763q.03-.578.061-1.573t.1-2.143q.068-1.147.175-2.333T97.5,1.861A7.547,7.547,0,0,1,97.937.3Q98.2-.3,98.561-.3a1.8,1.8,0,0,1,.471.076,2.059,2.059,0,0,1,.532.236,1.645,1.645,0,0,1,.456.426,1.309,1.309,0,0,1,.243.631,10.488,10.488,0,0,1,.015,1.109q-.015.866-.068,2.15t-.114,2.9q-.061,1.619-.114,3.366T99.9,14.118q-.03,1.778,0,3.4t.114,3a17.819,17.819,0,0,0,.266,2.3q.122.593.258,1.071a6.4,6.4,0,0,1,.19.859,1.362,1.362,0,0,1-.046.654.921.921,0,0,1-.464.471,1.349,1.349,0,0,1-.608.152,1.3,1.3,0,0,1-.752-.236,3.012,3.012,0,0,1-.608-.555,4.208,4.208,0,0,1-.441-.631q-.175-.312-.236-.448a5.911,5.911,0,0,1-.342-1.231q-.144-.775-.236-1.755t-.137-2.1q-.046-1.125-.061-2.257T96.79,14.6q.008-1.079.023-1.991t.038-1.588Q96.874,10.349,96.889,10.045Zm13.845,5.365a4.92,4.92,0,0,1-.243,1.565,5.634,5.634,0,0,1-.646,1.337,5.748,5.748,0,0,1-.919,1.079,7.685,7.685,0,0,1-1.041.805,5.622,5.622,0,0,1-1.026.524,2.867,2.867,0,0,1-.881.205.726.726,0,0,0-.532.175.535.535,0,0,0-.137.357.936.936,0,0,0,.091.4,2.949,2.949,0,0,0,.167.319,1.785,1.785,0,0,0,.631.578,2.683,2.683,0,0,0,1.269.228,7.23,7.23,0,0,0,1.026-.091,5.791,5.791,0,0,0,1.337-.388,7.344,7.344,0,0,0,3.047-2.409.6.6,0,0,1,.228-.182.636.636,0,0,1,.866.266,2.718,2.718,0,0,1-.046,2.416,3.9,3.9,0,0,1-.828,1,6.691,6.691,0,0,1-1.216.843,9.2,9.2,0,0,1-1.474.646,10.721,10.721,0,0,1-1.611.41,9.417,9.417,0,0,1-1.619.144,6.378,6.378,0,0,1-2.409-.433,4.82,4.82,0,0,1-1.809-1.254,5.615,5.615,0,0,1-1.132-2.006,8.487,8.487,0,0,1-.4-2.69,11.867,11.867,0,0,1,.152-1.877,11.523,11.523,0,0,1,.456-1.854,9.328,9.328,0,0,1,.76-1.695,6.221,6.221,0,0,1,1.071-1.383,4.761,4.761,0,0,1,1.391-.935,4.17,4.17,0,0,1,1.7-.342,3.6,3.6,0,0,1,1.8.41,3.463,3.463,0,0,1,1.155,1.033,4.183,4.183,0,0,1,.623,1.375A5.812,5.812,0,0,1,110.734,15.41Zm-5.988,2.568q0,.061.008.167a.5.5,0,0,0,.061.205.456.456,0,0,0,.16.167.563.563,0,0,0,.3.068,1.684,1.684,0,0,0,.98-.388,4.761,4.761,0,0,0,.957-.957,6.069,6.069,0,0,0,.722-1.223,2.945,2.945,0,0,0,.289-1.17,2,2,0,0,0-.046-.4,1.834,1.834,0,0,0-.144-.426.952.952,0,0,0-.274-.342.706.706,0,0,0-.448-.137,1.288,1.288,0,0,0-.836.433,4.783,4.783,0,0,0-.836,1.094A7.788,7.788,0,0,0,105,16.512,4.692,4.692,0,0,0,104.746,17.978Z" transform="translate(490.927 423.734)" fill="#ffd947"/>
    </g>
  </g>
</svg>
