<svg xmlns="http://www.w3.org/2000/svg" xmlns:xlink="http://www.w3.org/1999/xlink" width="494.594" height="143.43" viewBox="0 0 494.594 143.43">
  <defs>
    <clipPath id="clip-path">
      <rect id="Rectángulo_42712" data-name="Rectángulo 42712" width="20.724" height="70.955" fill="#3c3fa7"/>
    </clipPath>
    <clipPath id="clip-path-2">
      <rect id="Rectángulo_42713" data-name="Rectángulo 42713" width="20.723" height="70.955" fill="#3c3fa7"/>
    </clipPath>
    <clipPath id="clip-path-3">
      <rect id="Rectángulo_42714" data-name="Rectángulo 42714" width="176.149" height="26.033" fill="none"/>
    </clipPath>
    <clipPath id="clip-path-4">
      <rect id="Rectángulo_42715" data-name="Rectángulo 42715" width="137.894" height="23.489" fill="none"/>
    </clipPath>
    <clipPath id="clip-path-5">
      <rect id="Rectángulo_42716" data-name="Rectángulo 42716" width="59.699" height="23.76" fill="none"/>
    </clipPath>
    <clipPath id="clip-path-7">
      <rect id="Rectángulo_42718" data-name="Rectángulo 42718" width="148.983" height="39.535" fill="none"/>
    </clipPath>
    <clipPath id="clip-path-8">
      <rect id="Rectángulo_42719" data-name="Rectángulo 42719" width="7.602" height="15.337" fill="none"/>
    </clipPath>
    <clipPath id="clip-path-10">
      <rect id="Rectángulo_42721" data-name="Rectángulo 42721" width="184.793" height="30.184" fill="none"/>
    </clipPath>
    <clipPath id="clip-path-11">
      <rect id="Rectángulo_42722" data-name="Rectángulo 42722" width="183.379" height="13.933" fill="none"/>
    </clipPath>
    <clipPath id="clip-path-12">
      <rect id="Rectángulo_42723" data-name="Rectángulo 42723" width="16.017" height="23.921" fill="#3c3fa7"/>
    </clipPath>
    <clipPath id="clip-path-13">
      <rect id="Rectángulo_42724" data-name="Rectángulo 42724" width="16.018" height="23.921" fill="#3c3fa7"/>
    </clipPath>
  </defs>
  <g id="_10" data-name="10" transform="translate(6388 10170.882)">
    <path id="Trazado_156666" data-name="Trazado 156666" d="M0,0H494.594V143.429H0Z" transform="translate(-6388 -10170.882)" fill="#e1e8fe"/>
    <g id="Grupo_170482" data-name="Grupo 170482">
      <g id="Grupo_170475" data-name="Grupo 170475" transform="translate(-6280.197 -10053.332)">
        <g id="Grupo_170473" data-name="Grupo 170473" transform="translate(5.819 -117.549)">
          <g id="Grupo_170474" data-name="Grupo 170474">
            <rect id="Rectángulo_42695" data-name="Rectángulo 42695" width="13.718" height="4.165" transform="translate(210.635 135.476)" fill="#ebebeb"/>
            <g id="Grupo_170479" data-name="Grupo 170479" transform="translate(-82.622)">
              <rect id="Rectángulo_42687" data-name="Rectángulo 42687" width="13.718" height="4.165" transform="translate(13.298 77.896)" fill="#a6bbff"/>
              <rect id="Rectángulo_42688" data-name="Rectángulo 42688" width="13.718" height="4.165" transform="translate(5.646 83.147)" fill="#a6bbff"/>
              <rect id="Rectángulo_42689" data-name="Rectángulo 42689" width="13.718" height="4.165" transform="translate(20.95 83.147)" fill="#a6bbff"/>
              <rect id="Rectángulo_42690" data-name="Rectángulo 42690" width="13.718" height="4.165" transform="translate(13.298 116.448)" fill="#a6bbff"/>
              <rect id="Rectángulo_42691" data-name="Rectángulo 42691" width="13.718" height="4.165" transform="translate(337.762 83.147)" fill="#a6bbff"/>
              <rect id="Rectángulo_42692" data-name="Rectángulo 42692" width="13.718" height="4.165" transform="translate(418.671 93.116)" fill="#a6bbff"/>
              <rect id="Rectángulo_42693" data-name="Rectángulo 42693" width="13.718" height="4.165" transform="translate(426.323 98.368)" fill="#a6bbff"/>
              <rect id="Rectángulo_42694" data-name="Rectángulo 42694" width="13.718" height="4.165" transform="translate(129.101 135.477)" fill="#a6bbff"/>
              <rect id="Rectángulo_42696" data-name="Rectángulo 42696" width="443.74" height="2.809" transform="translate(0 70.836)" fill="#a6bbff"/>
            </g>
            <g id="Grupo_169649" data-name="Grupo 169649" transform="translate(-102.313)">
              <g id="Grupo_170478" data-name="Grupo 170478" transform="translate(1.982 0)">
                <path id="Trazado_162032" data-name="Trazado 162032" d="M43.925,190.322a3.335,3.335,0,0,1,.28,1.4,3.3,3.3,0,0,1-.28,1.4,3.3,3.3,0,0,1-.28-1.4,3.335,3.335,0,0,1,.28-1.4" transform="translate(-29.383 -119.486)" fill="#c4d1ff"/>
                <path id="Trazado_162033" data-name="Trazado 162033" d="M93.424,190.322a3.335,3.335,0,0,1,.28,1.4,3.3,3.3,0,0,1-.28,1.4,3.3,3.3,0,0,1-.28-1.4,3.336,3.336,0,0,1,.28-1.4" transform="translate(-60.458 -119.486)" fill="#c4d1ff"/>
                <path id="Trazado_162034" data-name="Trazado 162034" d="M142.923,190.322a3.328,3.328,0,0,1,.28,1.4,3.3,3.3,0,0,1-.28,1.4,3.3,3.3,0,0,1-.28-1.4,3.335,3.335,0,0,1,.28-1.4" transform="translate(-41.615 -119.486)" fill="#c4d1ff"/>
                <path id="Trazado_162035" data-name="Trazado 162035" d="M192.423,190.322a3.33,3.33,0,0,1,.28,1.4,3.3,3.3,0,0,1-.28,1.4,3.3,3.3,0,0,1-.28-1.4,3.329,3.329,0,0,1,.28-1.4" transform="translate(-54.697 -119.486)" fill="#c4d1ff"/>
                <path id="Trazado_162036" data-name="Trazado 162036" d="M241.923,190.322a3.335,3.335,0,0,1,.28,1.4,3.3,3.3,0,0,1-.28,1.4,3.29,3.29,0,0,1-.28-1.4,3.329,3.329,0,0,1,.28-1.4" transform="translate(-67.778 -119.486)" fill="#c4d1ff"/>
                <path id="Trazado_162037" data-name="Trazado 162037" d="M291.421,190.322a3.329,3.329,0,0,1,.28,1.4,3.3,3.3,0,0,1-.28,1.4,3.3,3.3,0,0,1-.28-1.4,3.335,3.335,0,0,1,.28-1.4" transform="translate(-80.859 -119.486)" fill="#c4d1ff"/>
                <path id="Trazado_162038" data-name="Trazado 162038" d="M340.92,190.322a3.335,3.335,0,0,1,.28,1.4,3.3,3.3,0,0,1-.28,1.4,3.3,3.3,0,0,1-.28-1.4,3.335,3.335,0,0,1,.28-1.4" transform="translate(-93.94 -119.486)" fill="#c4d1ff"/>
                <path id="Trazado_162039" data-name="Trazado 162039" d="M390.42,190.322a3.336,3.336,0,0,1,.28,1.4,3.3,3.3,0,0,1-.28,1.4,3.291,3.291,0,0,1-.28-1.4,3.329,3.329,0,0,1,.28-1.4" transform="translate(-107.022 -119.486)" fill="#c4d1ff"/>
                <path id="Trazado_162040" data-name="Trazado 162040" d="M439.918,190.322a3.33,3.33,0,0,1,.28,1.4,3.3,3.3,0,0,1-.28,1.4,3.3,3.3,0,0,1-.28-1.4,3.329,3.329,0,0,1,.28-1.4" transform="translate(-120.104 -119.486)" fill="#c4d1ff"/>
                <path id="Trazado_162041" data-name="Trazado 162041" d="M489.417,190.322a3.335,3.335,0,0,1,.28,1.4,3.3,3.3,0,0,1-.28,1.4,3.66,3.66,0,0,1,0-2.809" transform="translate(-133.185 -119.486)" fill="#c4d1ff"/>
                <path id="Trazado_162042" data-name="Trazado 162042" d="M538.916,190.322a3.33,3.33,0,0,1,.28,1.4,3.3,3.3,0,0,1-.28,1.4,3.3,3.3,0,0,1-.28-1.4,3.334,3.334,0,0,1,.28-1.4" transform="translate(-112.405 -119.486)" fill="#c4d1ff"/>
                <path id="Trazado_162043" data-name="Trazado 162043" d="M588.416,190.322a3.663,3.663,0,0,1,0,2.809,3.291,3.291,0,0,1-.28-1.4,3.335,3.335,0,0,1,.28-1.4" transform="translate(-143.482 -119.486)" fill="#c4d1ff"/>
                <path id="Trazado_162044" data-name="Trazado 162044" d="M501.368,41.767c2.584,0,46.062.286,48.794.2.2-.006.3-.294.106-.391-1.723-.853-3.676-.682-5.466-1.285a5.805,5.805,0,0,1-2.431-1.833,5.04,5.04,0,0,0-2.262-1.477,4.784,4.784,0,0,0-2.463-.077,20.959,20.959,0,0,0-2.49,1.034,5.12,5.12,0,0,1-5.609-1.507,12.333,12.333,0,0,0-4.111-3.162,5.459,5.459,0,0,0-4.355-.06c-1.595.722-2.689,2.175-4.187,3.049-1.776,1.038-3.9.793-5.861,1.105s-3.467,1.965-5.187,2.916a3.675,3.675,0,0,1-1.875.581c-.384-.01-.762-.114-1.142-.162a1.563,1.563,0,0,0-1.553.438c-.1.121-.077.631.093.631" transform="translate(-88.913 -20.581)" fill="#c4d1ff"/>
                <path id="Trazado_162045" data-name="Trazado 162045" d="M5.435,6.56c1.886,0,33.629.209,35.624.146.143,0,.22-.215.078-.286-1.258-.623-2.684-.5-3.991-.938a4.243,4.243,0,0,1-1.775-1.338A3.68,3.68,0,0,0,33.72,3.064a3.487,3.487,0,0,0-1.8-.056,15.274,15.274,0,0,0-1.818.755,3.738,3.738,0,0,1-4.1-1.1,9.01,9.01,0,0,0-3-2.308,3.985,3.985,0,0,0-3.18-.044C18.663.838,17.864,1.9,16.77,2.537c-1.3.758-2.847.579-4.279.807S9.96,4.779,8.7,5.473A2.686,2.686,0,0,1,7.335,5.9c-.281-.007-.556-.083-.834-.118a1.141,1.141,0,0,0-1.134.32c-.071.088-.056.461.068.461" transform="translate(-5.325 0)" fill="#c4d1ff"/>
                <path id="Trazado_162046" data-name="Trazado 162046" d="M305.28,66.569c1.886,0,33.629.209,35.624.146.143,0,.22-.215.078-.286-1.258-.623-2.684-.5-3.991-.938a4.244,4.244,0,0,1-1.775-1.339,3.684,3.684,0,0,0-1.652-1.079,3.5,3.5,0,0,0-1.8-.056,15.337,15.337,0,0,0-1.818.755,3.738,3.738,0,0,1-4.1-1.1,9.013,9.013,0,0,0-3-2.309,3.985,3.985,0,0,0-3.18-.044c-1.164.527-1.963,1.589-3.057,2.226-1.3.758-2.847.579-4.279.807s-2.532,1.435-3.787,2.129a2.681,2.681,0,0,1-1.369.424,8.315,8.315,0,0,1-.834-.118,1.141,1.141,0,0,0-1.134.32c-.07.088-.056.46.068.46" transform="translate(-65.102 -37.674)" fill="#c4d1ff"/>
                <path id="Trazado_162047" data-name="Trazado 162047" d="M81.146,107.773c1.886,0,33.629.209,35.624.146.143,0,.22-.215.078-.286-1.258-.623-2.684-.5-3.991-.938a4.24,4.24,0,0,1-1.775-1.339,3.681,3.681,0,0,0-1.652-1.078,3.489,3.489,0,0,0-1.8-.056,15.275,15.275,0,0,0-1.818.755,3.738,3.738,0,0,1-4.1-1.1,9,9,0,0,0-3-2.308,3.983,3.983,0,0,0-3.18-.044c-1.164.527-1.963,1.589-3.057,2.226-1.3.758-2.847.579-4.279.807s-2.532,1.435-3.787,2.129a2.685,2.685,0,0,1-1.369.424c-.281-.007-.556-.083-.834-.118a1.141,1.141,0,0,0-1.134.32c-.07.088-.056.461.068.461" transform="translate(-52.857 -63.542)" fill="#c4d1ff"/>
                <path id="Trazado_162048" data-name="Trazado 162048" d="M184.258,30.048c.037.106,50.031,0,49.4,0-.288,0,.437-.43.155-.569a14.183,14.183,0,0,0-5.18-.993,7.975,7.975,0,0,1-3.027-.734,7.853,7.853,0,0,1-2.2-2.141,9.394,9.394,0,0,0-8.537-3.235c-3.555.557-6.357,3.265-9.918,3.762-2.139.3-4.162-.528-6.253-.82a7.653,7.653,0,0,0-4.695.858,8.957,8.957,0,0,1-3.445,1.118c-.979.069-1.962-.043-2.943-.053a6.593,6.593,0,0,0-4.33,1.731c-.159.14-.663,1.075.97,1.075" transform="translate(-34.559 -13.981)" fill="#c4d1ff"/>
              </g>
            </g>
            <g id="Grupo_170481" data-name="Grupo 170481" transform="translate(242.28 111.548)">
              <g id="Grupo_170476" data-name="Grupo 170476" transform="translate(0 0)">
                <path id="Trazado_162049" data-name="Trazado 162049" d="M2.4,349.666c2.135.076,4.517.2,6.285-1.188,1.632-1.278,3.089-3.183,2.873-5.37-.063-.624-.206-1.009-.874-.743a7.978,7.978,0,0,0-2.509,2.318,21.585,21.585,0,0,1-2.962,2.809c-.759.583-1.579,1.086-2.353,1.65-.1.069-.195.141-.291.216-.036.026-.074.054-.11.083-.02,0-.041,0-.061,0a.106.106,0,0,0-.088.046.1.1,0,0,0-.016.036.112.112,0,0,0,.105.141" transform="translate(22.082 -332.791)" fill="#6b8dfc"/>
                <path id="Trazado_162050" data-name="Trazado 162050" d="M5.128,351.33c1.877-.032,3.9.053,5.4-1.221a8.715,8.715,0,0,0,1.743-2.118c.217-.354.868-1.406.6-1.826-.489-.758-2.725,2.333-3.034,2.629a9.163,9.163,0,0,1-4.145,2.153q-.148.1-.291.216a10.249,10.249,0,0,0,3.113-1.2,15.3,15.3,0,0,0,3.116-3.067c.225-.238.9-1.035,1.16-.539.169.327-.459,1.358-.595,1.579a8.665,8.665,0,0,1-1.648,2.013c-1.5,1.307-3.514,1.261-5.405,1.34a.1.1,0,0,0-.017.037" transform="translate(19.253 -334.595)" fill="#fff"/>
                <path id="Trazado_162051" data-name="Trazado 162051" d="M18.841,347c.019.082.034.164.052.247a.013.013,0,0,0,0,.007.058.058,0,0,0,.038.044.09.09,0,0,0,.112-.043.064.064,0,0,0,0-.051c0-.011-.006-.021-.011-.034l-.023-.072,0-.006c0-.007,0-.017.006-.024.378-1.413.526-2.882.924-4.3.38-1.349.854-2.672,1.128-4.05.173-.868.777-5.225-1.143-4.682-.851.241-1.434,1.472-1.756,2.209a8.985,8.985,0,0,0-.707,3.13c-.14,2.657.833,5.074,1.372,7.621" transform="translate(4.467 -328.819)" fill="#6b8dfc"/>
                <path id="Trazado_162052" data-name="Trazado 162052" d="M19.869,344.082a10.479,10.479,0,0,1,.308-2.956c.086-.334.5-1.937,1.046-1.9.351.023.41.715.44.943a9.227,9.227,0,0,1-.381,2.9,40.112,40.112,0,0,0-.705,5.819c.017.123.036.248.05.371.017.1.026.205.04.308,0,.036.01.07.013.106s.007.053.01.083a.091.091,0,0,1-.113.043c-.01-.079-.023-.159-.033-.238,0,.066,0,.129-.007.2,0,0,0,0,0-.007-.014-.07-.027-.136-.04-.2,0-.017-.006-.03-.01-.046,0-.109,0-.218.007-.324a43.585,43.585,0,0,1-.622-5.1m.649,4.4c.053-1.142.166-2.281.328-3.413.129-.914.3-1.817.493-2.718a9.319,9.319,0,0,0,.245-1.543c.017-.4-.04-1.867-.8-.956a5.967,5.967,0,0,0-.745,2.88,14.8,14.8,0,0,0,.053,2.7c.1,1.02.272,2.032.424,3.045" transform="translate(2.824 -331.329)" fill="#fff"/>
                <path id="Trazado_162053" data-name="Trazado 162053" d="M8.47,364.378h0a.534.534,0,0,0,.079.009c1.952-.1,4.553.084,6.177-1.207,1.2-.955,2.379-2.84,2-4.44-.432-1.8-2.867.36-3.512.882a59.557,59.557,0,0,0-4.784,4.655c-.008.012-.018.023-.025.035l0,.006c-.017.031.024.048.068.058" transform="translate(13.688 -340.34)" fill="#6b8dfc"/>
                <path id="Trazado_162054" data-name="Trazado 162054" d="M11.194,366.013c.113-.069.226-.139.338-.212,1.284-.808,2.535-1.672,3.737-2.6.3-.232,2.5-2.188,2.833-1.49.2.424-.526,1.284-.758,1.576a6.022,6.022,0,0,1-1.483,1.324,15.443,15.443,0,0,1-4.353,1.377c-.069.014-.139.033-.208.053a.217.217,0,0,1-.036.023h0c-.043-.01-.083-.026-.067-.056m3.863-1.112a6.059,6.059,0,0,0,1.685-1.139c.328-.311,1.483-1.48,1.175-1.96-.162-.255-.3-.119-.609.033a3.926,3.926,0,0,0-.414.238c-.328.215-.629.467-.933.708-.536.43-1.079.844-1.635,1.247-.907.662-1.841,1.284-2.794,1.877a29.484,29.484,0,0,0,3.525-1.006" transform="translate(10.896 -342.032)" fill="#fff"/>
                <path id="Trazado_162055" data-name="Trazado 162055" d="M24.8,356.621a11.547,11.547,0,0,0,3.346,5.844.086.086,0,0,0,.036.021.088.088,0,0,0,.1-.037.083.083,0,0,0-.01-.113c-.033-.032-.066-.066-.1-.1-.323-2.654-.68-5.293-.953-7.955-.064-.627-.555-4.62-1.782-3.97-.757.4-.808,2.038-.873,2.773a11.635,11.635,0,0,0,.234,3.535" transform="translate(-6.204 -336.605)" fill="#6b8dfc"/>
                <path id="Trazado_162056" data-name="Trazado 162056" d="M24.686,355.34c.066-.222.182-.45.43-.295.477.3.666,2.175.745,2.695.328,2.141.834,4.2,1.351,6.3.043.176.086.354.129.533l.119.159a.088.088,0,0,1-.1.036c-.007-.017-.01-.036-.017-.053-.053-.07-.109-.142-.159-.215v0a13.623,13.623,0,0,1-1.933-3.767,12.892,12.892,0,0,1-.569-2.625,7.509,7.509,0,0,1,0-2.761m2.506,9.01c.023.036.049.069.073.106-.023-.073-.046-.143-.066-.216a38.522,38.522,0,0,1-1.2-4.873c-.142-.837-.232-1.681-.4-2.512-.073-.351-.245-1.354-.536-1.516s-.285.228-.315.454c-.02.162-.02.457-.023.609a13.458,13.458,0,0,0,2.466,7.948" transform="translate(-5.386 -338.883)" fill="#fff"/>
                <path id="Trazado_162057" data-name="Trazado 162057" d="M4.616,359.679h.391c.007-.344.013-.688.023-1.03.046-1.386.1-2.774.185-4.161.046-.791.1-1.576.185-2.354a.58.58,0,0,0,.007-.079c.01-.063.017-.126.023-.192s.016-.136.026-.205a16.792,16.792,0,0,1,1.341-5.1c.248-.54.52-1.066.8-1.589.027-.05.057-.1.083-.149a.263.263,0,0,1,.023-.04c.027-.053.056-.1.086-.156s.043-.076.066-.116c.9-1.589,1.936-3.108,2.916-4.638.282-.437.563-.877.838-1.317a.551.551,0,0,0,.05-.08,1,1,0,0,0,.062-.1c1.231-1.943,2.443-3.9,3.721-5.81.049-.069-.067-.132-.113-.063-.864,1.265-1.758,2.509-2.645,3.76-.119.166-.235.334-.354.5-.235.331-.467.659-.7.99-.464.662-.92,1.324-1.367,2a56.03,56.03,0,0,0-3.595,5.816c-.076.152-.149.3-.222.46-.046.1-.092.192-.132.288s-.1.222-.152.334a18.008,18.008,0,0,0-1.314,6.15c-.01.145-.02.295-.027.444,0,.066-.01.135-.013.205,0,.036,0,.072-.007.109s0,.093-.007.143v0c0,.033,0,.069,0,.106-.007.126-.01.252-.017.381-.056,1.387-.093,2.774-.122,4.157-.01.441-.027.884-.043,1.328" transform="translate(16.999 -328.095)" fill="#6b8dfc"/>
                <path id="Trazado_162058" data-name="Trazado 162058" d="M5.076,330.52c1.069-1.438,2.439-4.4.864-5.945a1.678,1.678,0,0,0-2.233-.165,4.874,4.874,0,0,0-1.475,2.682c-.722,2.515-1.2,5.078-2.1,7.542-.016.015-.077.21-.1.265s.063.073.082.023c.03-.08.059-.16.089-.241a21.506,21.506,0,0,0,4.874-4.16" transform="translate(28.193 -324.061)" fill="#6b8dfc"/>
                <path id="Trazado_162059" data-name="Trazado 162059" d="M3.438,336.648c.009-.013.016-.03.026-.043a17.717,17.717,0,0,0,1-1.86A35.7,35.7,0,0,0,6,330.627c.172-.54.94-3.181,1.884-2.129a2.368,2.368,0,0,1,.278,1.771,6.642,6.642,0,0,1-.821,2.476,12.109,12.109,0,0,1-3.548,3.707c-.063.049-.126.1-.189.142-.013.023-.027.043-.04.067a.318.318,0,0,1-.027.043.044.044,0,0,1-.023.02.059.059,0,0,1-.083-.037.041.041,0,0,1,.007-.04m.417-.291a14.146,14.146,0,0,0,3.009-3.019,7.47,7.47,0,0,0,.98-2,6.071,6.071,0,0,0,.212-.97,4.25,4.25,0,0,0,.043-.742c-.017-.543-.242-1.135-.563-1.191-.4-.073-.529.159-.791.615a4.368,4.368,0,0,0-.235.477,13.032,13.032,0,0,0-.443,1.251c-.222.7-.447,1.394-.7,2.082-.169.467-.351.93-.549,1.383a18.539,18.539,0,0,1-1.172,2.278c.069-.053.139-.109.208-.166" transform="translate(24.87 -326.07)" fill="#fff"/>
                <path id="Trazado_162060" data-name="Trazado 162060" d="M34.585,343.115c.679,1.265,1.443,2.482,2.219,3.689.439.685.888,1.365,1.327,2.052a5.8,5.8,0,0,1,1.149,2.411l0,0a.513.513,0,0,0,.035.118.049.049,0,0,0,.015.01.107.107,0,0,0,.16-.1c0-.021-.005-.041-.007-.06s0-.015.006-.022a3.5,3.5,0,0,0,.02-.8,18.748,18.748,0,0,0-.084-2.176,17.785,17.785,0,0,0-.941-4.349,15.032,15.032,0,0,0-1.816-3.542,7.861,7.861,0,0,0-2.51-2.642c-.91-.414-1.039.865-1.017,1.479a9.521,9.521,0,0,0,1.448,3.927" transform="translate(-21.917 -330.562)" fill="#6b8dfc"/>
                <path id="Trazado_162061" data-name="Trazado 162061" d="M33.329,341.849c.484-.188,1.443,1.241,1.877,1.85a14.481,14.481,0,0,1,1.676,3.1,18.721,18.721,0,0,1,1.24,6.179c0,.084.009.171.01.255,0,.008,0,.016-.005.023s0,.037,0,.059a.107.107,0,0,1-.16.1c-.033-.176-.07-.345-.115-.516-.039-.155-.08-.306-.127-.455a24.779,24.779,0,0,0-2.153-4.679c-.952-1.762-2.888-5.662-2.247-5.913m4.61,10.869c.059.225.107.452.148.677-.01-.173-.02-.347-.034-.519a20.705,20.705,0,0,0-1.065-5.463,14.822,14.822,0,0,0-1.344-2.838,13.708,13.708,0,0,0-.968-1.382c-.149-.183-1.008-1.356-1.282-1.175-.192.128.216,1.326.222,1.352.079.24.17.477.266.714.2.485.418.96.646,1.429.5,1.017,1.058,2.007,1.591,3.008a19.549,19.549,0,0,1,1.821,4.2" transform="translate(-20.563 -332.576)" fill="#fff"/>
                <path id="Trazado_162062" data-name="Trazado 162062" d="M31.155,359.2a13.529,13.529,0,0,0,5.563,2.679c1.066.289,2.144.527,3.215.79a14.66,14.66,0,0,1,2.836.835c.039.017.079.036.118.058a3.856,3.856,0,0,1,.695.449.057.057,0,0,0,.052.011.862.862,0,0,0,.059.065.019.019,0,0,0,.031-.021c-.012-.027-.03-.055-.043-.082l0-.007a.059.059,0,0,0-.021-.069.161.161,0,0,0-.027-.021c-.014-.027-.028-.055-.044-.081-1.04-1.931-3.252-3.431-5.056-4.528a11.563,11.563,0,0,0-5.948-1.9c-.535,0-1.785-.082-2.112.48-.3.513.353,1.047.684,1.342" transform="translate(-24.696 -340.025)" fill="#6b8dfc"/>
                <path id="Trazado_162063" data-name="Trazado 162063" d="M30.5,359.634c.259-.587,1.907-.025,2.314.1a22.3,22.3,0,0,1,3.544,1.506,19.883,19.883,0,0,1,5.129,3.484l0,0,.065.039c.018.029.032.055.046.082a.118.118,0,0,1,.026.022.059.059,0,0,1,.02.07c-.031-.016-.059-.034-.09-.047-.228-.132-.464-.254-.7-.371-.04-.02-.08-.04-.118-.057a42.957,42.957,0,0,0-5.165-1.908,20.553,20.553,0,0,1-3.527-1.5c-.285-.159-1.762-.929-1.545-1.422m.749.779c1.723,1.334,4.034,1.9,6.069,2.573a22.5,22.5,0,0,1,4.006,1.647,21.152,21.152,0,0,0-4.7-3.1,28.442,28.442,0,0,0-2.923-1.342,11.624,11.624,0,0,0-1.662-.524,4.569,4.569,0,0,0-1.038-.131c-.656.056-.051.648.244.878" transform="translate(-22.666 -340.98)" fill="#fff"/>
                <path id="Trazado_162064" data-name="Trazado 162064" d="M24.591,365.931a.114.114,0,0,0,.11.016c0,.015-.007.027-.01.041a.033.033,0,0,0,.022.041.031.031,0,0,0,.043-.017,18.8,18.8,0,0,0,1.754-7.49,9.817,9.817,0,0,0-.543-3.146c-.246-.69-.742-2.078-1.518-2.35-1.563-.544-.991,4.113-.9,4.814.16,1.279.428,2.541.613,3.815.2,1.4.3,2.8.4,4.209a.093.093,0,0,0,.029.067" transform="translate(-3.822 -337.919)" fill="#6b8dfc"/>
                <path id="Trazado_162065" data-name="Trazado 162065" d="M25.156,367.514c.023-.133.043-.265.058-.4a21.193,21.193,0,0,0-.09-6.518,19.507,19.507,0,0,1-.368-3.269c0-.272-.052-1.29.514-.984a7.42,7.42,0,0,1,.88,2.41,13.447,13.447,0,0,1,.175,3.283,22.137,22.137,0,0,1-1,5.42c-.015.052-.03.1-.047.153a.032.032,0,0,1-.023-.041.242.242,0,0,0,.009-.04.115.115,0,0,1-.109-.018m.974-4.569a15.586,15.586,0,0,0,.035-3.265,11.039,11.039,0,0,0-.214-1.284,7,7,0,0,0-.286-.979c-.306-.772-.446-.949-.586-.927-.086.016-.165.142-.214.693a5.476,5.476,0,0,0,.034,1.069c.057.5.13,1,.21,1.505.157,1,.328,2,.41,3.012a16.38,16.38,0,0,1-.2,4.339,25.283,25.283,0,0,0,.808-4.164" transform="translate(-4.387 -339.503)" fill="#fff"/>
                <path id="Trazado_162066" data-name="Trazado 162066" d="M26.085,372.066a6.239,6.239,0,0,0,1.947,1.825c1.5.97,3.18,1.607,4.739,2.468.232.128.463.261.691.4.024.017.256.25.245.227,0-.005-.062-.1-.167-.272h0a25.518,25.518,0,0,0-3.355-4.412,12.76,12.76,0,0,0-2.5-1.834c-.434-.225-1.431-.689-1.9-.321-.508.4.057,1.521.306,1.918" transform="translate(-12.164 -346.078)" fill="#6b8dfc"/>
                <path id="Trazado_162067" data-name="Trazado 162067" d="M25.6,372.171c.433-.577,2.925,1.483,3.254,1.746a17.951,17.951,0,0,1,3.232,3.359c.107.139.208.281.31.426.1.169.167.266.169.272s-.222-.208-.247-.227-.079-.048-.117-.072c-.19-.115-.382-.225-.571-.329-1.009-.709-2.034-1.4-3.031-2.134a16.527,16.527,0,0,1-2.035-1.725c-.141-.144-1.154-1.065-.964-1.316m.451.677c1.7,1.973,4.053,3.133,6.105,4.675l.1.075c-.041-.052-.08-.107-.122-.159a20.444,20.444,0,0,0-2.636-2.82,19.551,19.551,0,0,0-1.859-1.445,9.824,9.824,0,0,0-1.083-.706c-.168-.084-.636-.3-.728-.194-.132.144.111.443.222.574" transform="translate(-11.018 -347.065)" fill="#fff"/>
                <path id="Trazado_162068" data-name="Trazado 162068" d="M42.689,339.858c3.206,3.241,8.362,3.332,11.747,6.343l.017.016c.1.092.2.187.3.284a.085.085,0,0,0,.136-.03.061.061,0,0,0-.018-.067c-.023-.024-.048-.047-.073-.069a21.794,21.794,0,0,0-5.025-5.9A11.054,11.054,0,0,0,43.9,337.62c-.546-.058-1.626-.208-1.986.377-.383.619.375,1.462.771,1.861" transform="translate(-41.813 -330.529)" fill="#6b8dfc"/>
                <path id="Trazado_162069" data-name="Trazado 162069" d="M41.864,340.994c.154-.244.556-.176.779-.152a7,7,0,0,1,1.628.381,11.525,11.525,0,0,1,3,1.646,23.773,23.773,0,0,1,4.32,3.968c.281.342.548.693.8,1.058.032.045.06.091.092.135a.087.087,0,0,1-.137.032c-.095-.1-.192-.184-.292-.277a.217.217,0,0,0-.027-.025,13.927,13.927,0,0,0-2.071-1.754,32.757,32.757,0,0,0-3.707-2.029c-.494-.249-4.914-2.147-4.379-2.983m.621.8a15.658,15.658,0,0,0,2.958,1.662c1.009.515,2.023,1.017,3.023,1.545a15.919,15.919,0,0,1,2.27,1.453,12.386,12.386,0,0,1,1.656,1.517,17.251,17.251,0,0,0-1.419-1.694.054.054,0,0,0-.02-.017,31.175,31.175,0,0,0-2.915-2.641L48,343.584a14.448,14.448,0,0,0-2.892-1.894,8.286,8.286,0,0,0-1.777-.618c-.7-.145-1.277-.19-1.346.043-.045.159.241.467.5.676" transform="translate(-39.396 -332.089)" fill="#fff"/>
                <path id="Trazado_162070" data-name="Trazado 162070" d="M24.97,346.259c.935.9,1.854,1.827,2.768,2.758q.648.655,1.284,1.309c.011.01.021.017.028.025.153.157.31.316.464.473a37.347,37.347,0,0,1,4.032,4.5,17.068,17.068,0,0,1,1.542,2.771c.042.1.088.2.133.3l0,0c.021.056.046.11.068.166.015.03.027.06.039.091.362.843.682,1.706.99,2.545.429,1.172.777,2.365,1.112,3.559a.563.563,0,0,1,.03.105c.017.054.031.109.048.162.008.029.015.055.022.084.016.051.029.1.045.153.106.385.216.768.33,1.154l.355-.137a24.8,24.8,0,0,0-.9-3.6.57.57,0,0,0-.024-.072c-.034-.115-.072-.231-.111-.344-.045-.143-.091-.281-.142-.421q-.175-.507-.356-1a26.184,26.184,0,0,0-2.633-5.59l-.1-.14a.619.619,0,0,0-.04-.059c-.021-.034-.044-.068-.068-.1l-.114-.158c-.069-.094-.14-.187-.21-.277l-.064-.082a40.054,40.054,0,0,0-3.793-3.973c-.239-.231-.476-.458-.716-.684l-.4-.377c-.2-.187-.412-.376-.616-.564a.055.055,0,0,0-.021-.017c-.968-.885-1.952-1.75-2.915-2.641-.044-.04-.115.034-.07.077" transform="translate(-16.399 -334.655)" fill="#6b8dfc"/>
              </g>
            </g>
            <g id="Grupo_169730" data-name="Grupo 169730" transform="translate(10.505 -32.466)">
              <g id="Grupo_170480" data-name="Grupo 170480" transform="translate(24.873 36.584)">
                <path id="Trazado_162165" data-name="Trazado 162165" d="M93.019,161.481s-4.135-1.728-4.754-2.7-3.306-5.056-4.249-5.215c-3.543-.6-13.217-.235-16.466,1.512-1.778.956.1,8.026,1.729,9.685s13.3,2,15.179,1.622a6.337,6.337,0,0,0,3.275-2.316l4.641,1.292Z" transform="translate(-66.829 -126.628)" fill="#6b8dfc"/>
                <path id="Trazado_162166" data-name="Trazado 162166" d="M115.872,159.435s-3.143.456-3.9,1.115-3.143,5.93-2.99,7.755,2.078,3.7,2.078,3.7Z" transform="translate(-88.538 -129.788)" fill="#3c3fa7"/>
                <path id="Trazado_162168" data-name="Trazado 162168" d="M439.521,161.481s4.135-1.728,4.754-2.7,3.306-5.056,4.249-5.215c3.543-.6,13.217-.235,16.466,1.512,1.778.956-.1,8.026-1.729,9.685s-13.3,2-15.179,1.622a6.337,6.337,0,0,1-3.275-2.316l-4.641,1.292Z" transform="translate(-258.809 -126.628)" fill="#6b8dfc"/>
                <path id="Trazado_162169" data-name="Trazado 162169" d="M437.161,159.435s3.142.456,3.9,1.115,3.142,5.93,2.99,7.755-2.078,3.7-2.078,3.7Z" transform="translate(-257.594 -129.788)" fill="#3c3fa7"/>
                <path id="Trazado_162171" data-name="Trazado 162171" d="M95.9,319.481H77.079a5.457,5.457,0,0,1-5.457-5.457v-51.1a5.457,5.457,0,0,1,5.457-5.457H95.9a5.457,5.457,0,0,1,5.457,5.457v51.1a5.457,5.457,0,0,1-5.457,5.457" transform="translate(-69.298 -180.286)" fill="#263238"/>
                <path id="Trazado_162172" data-name="Trazado 162172" d="M82.086,220.513s-6.893,3.515-8.515,6.758,0,36.761,0,39.329,4.993,19.327,5.943,21.084,14.059,3.784,14.059,3.784Z" transform="translate(-69.931 -161.25)" fill="#ffc727"/>
                <g id="Grupo_169692" data-name="Grupo 169692" transform="translate(2.92 59.263)">
                  <g id="Grupo_169691" data-name="Grupo 169691">
                    <g id="Grupo_169690" data-name="Grupo 169690" clip-path="url(#clip-path)">
                      <path id="Trazado_162173" data-name="Trazado 162173" d="M82.086,220.513s-6.893,3.515-8.515,6.758,0,36.761,0,39.329,4.993,19.327,5.943,21.084,14.059,3.784,14.059,3.784Z" transform="translate(-72.851 -220.513)" fill="#3c3fa7"/>
                    </g>
                  </g>
                </g>
                <path id="Trazado_162174" data-name="Trazado 162174" d="M432.882,319.481H451.7a5.457,5.457,0,0,0,5.457-5.457v-51.1a5.457,5.457,0,0,0-5.457-5.457H432.882a5.457,5.457,0,0,0-5.457,5.457v51.1a5.457,5.457,0,0,0,5.457,5.457" transform="translate(-252.578 -180.286)" fill="#263238"/>
                <path id="Trazado_162175" data-name="Trazado 162175" d="M456.265,220.513s6.893,3.515,8.514,6.758,0,36.761,0,39.329-4.993,19.327-5.943,21.084-14.059,3.784-14.059,3.784Z" transform="translate(-261.517 -161.25)" fill="#ffc727"/>
                <g id="Grupo_169695" data-name="Grupo 169695" transform="translate(183.26 59.263)">
                  <g id="Grupo_169694" data-name="Grupo 169694">
                    <g id="Grupo_169693" data-name="Grupo 169693" clip-path="url(#clip-path-2)">
                      <path id="Trazado_162176" data-name="Trazado 162176" d="M456.265,220.513s6.893,3.515,8.514,6.758,0,36.761,0,39.329-4.993,19.327-5.943,21.084-14.059,3.784-14.059,3.784Z" transform="translate(-444.777 -220.513)" fill="#3c3fa7"/>
                    </g>
                  </g>
                </g>
                <path id="Trazado_162177" data-name="Trazado 162177" d="M274.32,213.306c-.067.878-3.042,13.449-4.261,14.729s-25.544,2.3-27.032,2.3S236.882,227.7,236,227.5s-49.691-.067-55.66-.067-54.782-.14-55.66.067-5.542,2.835-7.029,2.835-25.812-1.012-27.031-2.3-4.188-13.851-4.255-14.729.878-3.987.878-4.664-.726-47.759-.525-48.674,2.128-7.3,2.994-8.663,8.565-11.1,8.766-11.711c4.737-14.217,17.991-35.017,20.021-36.846a13.286,13.286,0,0,1,6.742-3.194c2.024-.25,29.445-1.262,55.1-1.262s53.075,1.012,55.1,1.262a13.309,13.309,0,0,1,6.742,3.194c2.024,1.829,15.278,22.629,20.021,36.846.2.61,7.907,10.34,8.767,11.711s2.786,7.754,2.987,8.663-.518,48-.518,48.674.945,3.785.878,4.664" transform="translate(-76.892 -98.292)" fill="#6b8dfc"/>
                <g id="Grupo_169698" data-name="Grupo 169698" transform="translate(15.377 96.552)" opacity="0.1">
                  <g id="Grupo_169697" data-name="Grupo 169697">
                    <g id="Grupo_169696" data-name="Grupo 169696" clip-path="url(#clip-path-3)">
                      <path id="Trazado_162178" data-name="Trazado 162178" d="M274.692,307.5c0,.811-1.1,7.121-1.811,7.3-19.576,4.871-66.591,8.962-86.264,8.638-19.673.323-66.688-3.767-86.264-8.638-.713-.177-1.811-6.487-1.811-7.3s.811-9.8,1.811-10.065,21.709,3.45,39.12,5.761a368.171,368.171,0,0,0,47.144,2.92,368.212,368.212,0,0,0,47.143-2.92c17.4-2.311,38.114-6.036,39.12-5.761s1.811,9.254,1.811,10.065" transform="translate(-98.543 -297.417)"/>
                    </g>
                  </g>
                </g>
                <g id="Grupo_169701" data-name="Grupo 169701" transform="translate(34.506 99.097)" opacity="0.5">
                  <g id="Grupo_169700" data-name="Grupo 169700">
                    <g id="Grupo_169699" data-name="Grupo 169699" clip-path="url(#clip-path-4)">
                      <path id="Trazado_162179" data-name="Trazado 162179" d="M275.886,302.664l-6.663,18.96c-21.7,2.829-48.607,4.737-62.287,4.511-13.68.225-40.577-1.683-62.281-4.511l-6.663-18.96c6.73,1.061,14.552,2.268,21.8,3.231a368.167,368.167,0,0,0,47.144,2.92,368.208,368.208,0,0,0,47.143-2.92c7.249-.963,15.076-2.17,21.807-3.231" transform="translate(-137.992 -302.664)" fill="#fff"/>
                    </g>
                  </g>
                </g>
                <path id="Trazado_162180" data-name="Trazado 162180" d="M277.241,309.284c.1.451-3.646,7.889-6.468,12.315-.841,1.317-4.889,4.359-5.828,4.56s-12.613,3.365-34.847,3.365-33.9-3.164-34.847-3.365-4.987-3.243-5.828-4.56c-2.823-4.426-6.566-11.864-6.468-12.315s14.04,2.92,47.143,2.92,47.058-3.371,47.143-2.92" transform="translate(-126.647 -206.956)" fill="#263238"/>
                <path id="Trazado_162181" data-name="Trazado 162181" d="M119.67,313.639a4.105,4.105,0,1,1-4.105-4.105,4.105,4.105,0,0,1,4.105,4.105" transform="translate(-89.819 -207.106)" fill="#fff"/>
                <path id="Trazado_162182" data-name="Trazado 162182" d="M112.573,310.648a4.432,4.432,0,0,1,7.531,2.9,4.48,4.48,0,0,1-4.628,4.631,4.433,4.433,0,0,1-2.9-7.534m0,0a3.812,3.812,0,1,0,5.591.214,3.83,3.83,0,0,0-5.591-.214" transform="translate(-89.73 -207.018)" fill="#dbdbdb"/>
                <path id="Trazado_162183" data-name="Trazado 162183" d="M431.054,313.639a4.105,4.105,0,1,0,4.105-4.105,4.106,4.106,0,0,0-4.105,4.105" transform="translate(-254.448 -207.106)" fill="#fff"/>
                <path id="Trazado_162184" data-name="Trazado 162184" d="M437.5,310.648a3.812,3.812,0,1,0-.217,5.589,3.832,3.832,0,0,0,.217-5.589m0,0a4.433,4.433,0,0,1-2.9,7.534,4.479,4.479,0,0,1-4.628-4.631,4.432,4.432,0,0,1,7.531-2.9" transform="translate(-253.882 -207.018)" fill="#dbdbdb"/>
                <path id="Trazado_162185" data-name="Trazado 162185" d="M275.309,141.7s-36.627,1.6-78.162,1.6-78.162-1.6-78.162-1.6c7.5-18.789,17.3-33.317,18.381-34.127a28.27,28.27,0,0,1,6.011-2.5c4.6-1.152,37.505-1.353,53.77-1.353s49.161.2,53.764,1.353a28.2,28.2,0,0,1,6.017,2.5c1.079.811,10.882,15.338,18.38,34.127" transform="translate(-93.696 -101.09)" fill="#455a64"/>
                <path id="Trazado_162186" data-name="Trazado 162186" d="M275.309,176.548s-36.627,1.6-78.162,1.6-78.162-1.6-78.162-1.6c.707-1.768,1.433-3.5,2.165-5.182,8.431.336,40.413,1.512,76,1.512s67.566-1.176,76-1.512c.731,1.682,1.457,3.414,2.164,5.182" transform="translate(-93.696 -135.934)" fill="#263238"/>
                <g id="Grupo_169704" data-name="Grupo 169704" transform="translate(35.927 15.608)" opacity="0.7">
                  <g id="Grupo_169703" data-name="Grupo 169703">
                    <g id="Grupo_169702" data-name="Grupo 169702" clip-path="url(#clip-path-5)">
                      <path id="Trazado_162187" data-name="Trazado 162187" d="M196.343,150.215H145.2a2.97,2.97,0,0,0-2.933,2.5l-1.309,8.252a2.97,2.97,0,0,0,2.933,3.435h53.758a2.97,2.97,0,0,0,2.933-3.435l-1.309-8.252a2.97,2.97,0,0,0-2.933-2.5" transform="translate(-140.923 -140.647)" fill="#263238"/>
                      <path id="Trazado_162188" data-name="Trazado 162188" d="M199.486,143.252h-32.5a1.868,1.868,0,0,1-1.868-1.868v-9.035a1.868,1.868,0,0,1,1.868-1.868h32.5a1.868,1.868,0,0,1,1.868,1.868v9.035a1.868,1.868,0,0,1-1.868,1.868" transform="translate(-153.387 -130.482)" fill="#263238"/>
                    </g>
                  </g>
                </g>
                <g id="Grupo_169707" data-name="Grupo 169707" transform="translate(111.276 15.608)" opacity="0.7">
                  <g id="Grupo_169706" data-name="Grupo 169706">
                    <g id="Grupo_169705" data-name="Grupo 169705" clip-path="url(#clip-path-5)">
                      <path id="Trazado_162189" data-name="Trazado 162189" d="M351.739,150.215H300.6a2.97,2.97,0,0,0-2.933,2.5l-1.309,8.252a2.97,2.97,0,0,0,2.933,3.435h53.759a2.97,2.97,0,0,0,2.933-3.435l-1.309-8.252a2.97,2.97,0,0,0-2.933-2.5" transform="translate(-296.32 -140.647)" fill="#263238"/>
                      <path id="Trazado_162190" data-name="Trazado 162190" d="M354.883,143.252h-32.5a1.868,1.868,0,0,1-1.868-1.868v-9.035a1.868,1.868,0,0,1,1.868-1.868h32.5a1.868,1.868,0,0,1,1.868,1.868v9.035a1.868,1.868,0,0,1-1.868,1.868" transform="translate(-308.784 -130.482)" fill="#263238"/>
                    </g>
                  </g>
                </g>
                <path id="Trazado_162191" data-name="Trazado 162191" d="M356.3,169.881H305.617l4.851-6.9,20.49-1.089,20.49,1.089Z" transform="translate(-189.833 -131.053)" fill="#263238"/>
                <path id="Trazado_162192" data-name="Trazado 162192" d="M345.3,142.511a11.841,11.841,0,0,0-11.352,15.2,11.736,11.736,0,0,0,3.189,5.206c1.39-.024,2.749-.055,4.09-.085a9.472,9.472,0,0,1-4.725-5.17,9.37,9.37,0,0,1,.89-8.382,9.237,9.237,0,0,1,1.573-1.872,9.4,9.4,0,1,1,10.791,15.229c1.408-.037,2.78-.073,4.1-.11a11.836,11.836,0,0,0-8.559-20.02" transform="translate(-204.173 -121.07)" fill="#263238"/>
                <path id="Trazado_162193" data-name="Trazado 162193" d="M348.951,160.3l-8.877-7.038,1.515-1.911,7.362,5.837,7.362-5.837,1.515,1.911Z" transform="translate(-207.583 -125.623)" fill="#263238"/>
                <g id="Grupo_169710" data-name="Grupo 169710" transform="translate(29.848 2.67)" opacity="0.1">
                  <g id="Grupo_169709" data-name="Grupo 169709">
                    <g id="Grupo_169708" data-name="Grupo 169708" clip-path="url(#clip-path-7)">
                      <path id="Trazado_162194" data-name="Trazado 162194" d="M202.177,103.8l-38.815,38.816c-3.39-.085-6.523-.177-9.364-.262l38.468-38.468c3.286-.036,6.566-.067,9.712-.085" transform="translate(-141.58 -103.799)" fill="#fff"/>
                      <path id="Trazado_162195" data-name="Trazado 162195" d="M359.654,111.028,325.7,144.978c-3.17.043-6.432.085-9.754.122L353.68,107.37a24,24,0,0,1,4.706,2.085,11.1,11.1,0,0,1,1.268,1.573" transform="translate(-225.003 -105.638)" fill="#fff"/>
                      <path id="Trazado_162196" data-name="Trazado 162196" d="M417.7,161.55l-6.944,6.944c-2.81.1-6.157.208-9.949.317l13.8-13.8c1.03,2.079,2.066,4.262,3.091,6.542" transform="translate(-268.713 -130.178)" fill="#fff"/>
                      <path id="Trazado_162197" data-name="Trazado 162197" d="M184.743,104.051l-38.334,38.334c-.494-.012-.969-.031-1.439-.043l38.273-38.273Z" transform="translate(-136.929 -103.929)" fill="#fff"/>
                      <path id="Trazado_162198" data-name="Trazado 162198" d="M279.3,103.918l-39.383,39.376-1.463-.018L277.826,103.9c.488.006.976.006,1.469.018" transform="translate(-185.082 -103.851)" fill="#fff"/>
                      <path id="Trazado_162199" data-name="Trazado 162199" d="M405.2,146.535l-17.57,17.57c-.5.013-1.012.024-1.524.043l18.582-18.582q.256.476.512.969" transform="translate(-261.143 -125.314)" fill="#fff"/>
                      <path id="Trazado_162200" data-name="Trazado 162200" d="M155.241,105.182l-26.855,26.855c1.11-2.335,2.225-4.548,3.31-6.621l20.021-20.02c1.018-.079,2.2-.152,3.524-.213" transform="translate(-128.387 -104.511)" fill="#fff"/>
                      <path id="Trazado_162201" data-name="Trazado 162201" d="M304.135,104.25,264.85,143.535c-1.1,0-2.2-.006-3.292-.013l39.328-39.334c1.1.018,2.188.043,3.249.061" transform="translate(-196.986 -104)" fill="#fff"/>
                    </g>
                  </g>
                </g>
                <g id="Grupo_169713" data-name="Grupo 169713" transform="translate(17.688 40.614)" opacity="0.1">
                  <g id="Grupo_169712" data-name="Grupo 169712">
                    <g id="Grupo_169711" data-name="Grupo 169711" clip-path="url(#clip-path-8)">
                      <path id="Trazado_162202" data-name="Trazado 162202" d="M110.91,182.053a74.5,74.5,0,0,1-6.414,11.315c-.065.1-.192.288-.252.386-.128.416.352,1.279.606,1.725.361.647.787,1.27,1.2,1.911-1.023-.812-3.4-2.812-2.574-4.269a60.585,60.585,0,0,1,7.43-11.068" transform="translate(-103.309 -182.053)"/>
                    </g>
                  </g>
                </g>
                <g id="Grupo_169716" data-name="Grupo 169716" transform="translate(181.613 40.614)" opacity="0.1">
                  <g id="Grupo_169715" data-name="Grupo 169715">
                    <g id="Grupo_169714" data-name="Grupo 169714" clip-path="url(#clip-path-8)">
                      <path id="Trazado_162203" data-name="Trazado 162203" d="M441.38,182.053a60.569,60.569,0,0,1,7.43,11.068c.827,1.46-1.547,3.452-2.574,4.269.418-.64.844-1.264,1.2-1.911.253-.443.735-1.31.607-1.725-.061-.1-.188-.289-.253-.386a74.513,74.513,0,0,1-6.414-11.315" transform="translate(-441.38 -182.053)"/>
                    </g>
                  </g>
                </g>
                <g id="Grupo_169719" data-name="Grupo 169719" transform="translate(11.055 58.644)" opacity="0.1">
                  <g id="Grupo_169718" data-name="Grupo 169718">
                    <g id="Grupo_169717" data-name="Grupo 169717" clip-path="url(#clip-path-10)">
                      <path id="Trazado_162204" data-name="Trazado 162204" d="M274.422,231.854c0,.86-.037,5.786-.707,6.188-1.872,1.122-10.133,3.737-15.284,4.688-24.117,4.45-59.177,6.956-76.406,6.67-17.228.287-52.288-2.219-76.406-6.67-5.151-.951-13.412-3.566-15.284-4.688-.671-.4-.707-5.328-.707-6.188s5.737-12.321,6.8-12.607,12.973,6.487,32.926,10.077c20.46,3.682,52.667,3.78,52.667,3.78s32.207-.1,52.667-3.78c19.953-3.591,31.859-9.76,32.926-9.467s6.8,11.138,6.8,12" transform="translate(-89.629 -219.237)"/>
                    </g>
                  </g>
                </g>
                <g id="Grupo_169722" data-name="Grupo 169722" transform="translate(11.762 77.448)" opacity="0.5">
                  <g id="Grupo_169721" data-name="Grupo 169721">
                    <g id="Grupo_169720" data-name="Grupo 169720" clip-path="url(#clip-path-11)">
                      <path id="Trazado_162205" data-name="Trazado 162205" d="M274.466,258.018c-6.882,3.671-14.538,5.588-22.185,6.9q-11.459,2.09-23.018,3.562c-15.42,1.931-30.92,3.491-46.487,3.468-25.258-.213-50.447-3.37-75.22-8.146a63.662,63.662,0,0,1-16.469-5.787,68.641,68.641,0,0,0,16.631,4.885c24.844,3.586,49.941,6.476,75.058,6.61,15.449.088,30.892-1.39,46.266-2.912,7.7-.826,15.385-1.743,23.047-2.849a98.753,98.753,0,0,0,11.4-2,71.319,71.319,0,0,0,10.974-3.733" transform="translate(-91.087 -258.018)" fill="#fff"/>
                    </g>
                  </g>
                </g>
                <path id="Trazado_162206" data-name="Trazado 162206" d="M100.806,214.534c4.158.385,23.905,12.647,24.737,13.656s2.834,11.149,1.59,12.143-16.168.486-20.663-.237-13.786-3.24-15.877-4.849-.487-12.945,1.566-15.215c2.639-2.918,5.98-5.744,8.647-5.5" transform="translate(-78.566 -158.163)" fill="#fff"/>
                <path id="Trazado_162207" data-name="Trazado 162207" d="M100.535,214.55a13.517,13.517,0,0,1,3.1,1.021c3,1.308,5.874,2.886,8.743,4.456,4.286,2.4,8.584,4.8,12.668,7.558a2.5,2.5,0,0,1,1,1.494,31.079,31.079,0,0,1,.86,3.2,31.4,31.4,0,0,1,.87,6.589c-.033,1.27-.244,2.112-1.636,2.283a65.8,65.8,0,0,1-10.737.264,77.547,77.547,0,0,1-9.85-.848,67.622,67.622,0,0,1-14.165-4.312,5.454,5.454,0,0,1-1.47-.96c-1.211-1.947-.778-4.452-.641-6.611.433-2.934.826-6.1,2.515-8.609,2.3-2.341,5.225-5.57,8.746-5.525m0,0c-3.352,0-5.918,2.77-8.113,4.993a6.386,6.386,0,0,0-1.588,2.786,28.723,28.723,0,0,0-1.176,6.391,18.082,18.082,0,0,0,.157,4.818,2.185,2.185,0,0,0,1.149,1.763c3.65,1.754,7.678,2.608,11.6,3.538a64.905,64.905,0,0,0,12.881,1.359c2.17.084,4.344.133,6.509.1a20.142,20.142,0,0,0,4.56-.375c-.014.063.1-.146.134-.369a25.861,25.861,0,0,0-.559-7.114,21.172,21.172,0,0,0-.99-3.86c-.065-.192-.27-.3-.452-.472-3.96-2.866-8.15-5.427-12.351-7.94a90.149,90.149,0,0,0-8.669-4.581,13.392,13.392,0,0,0-3.09-1.042" transform="translate(-78.294 -158.178)" fill="#dbdbdb"/>
                <path id="Trazado_162208" data-name="Trazado 162208" d="M121.687,239.651a5.733,5.733,0,1,1-9.631-4.207,5.749,5.749,0,0,1,9.631,4.207m0,0a5.119,5.119,0,1,0-8.889,3.465,5.131,5.131,0,0,0,8.889-3.465" transform="translate(-89.197 -168.155)" fill="#dbdbdb"/>
                <path id="Trazado_162209" data-name="Trazado 162209" d="M146.215,247.943a4.912,4.912,0,1,1-8.227-3.625,4.93,4.93,0,0,1,8.227,3.625m0,0a4.3,4.3,0,1,0-4.6,4.3,4.3,4.3,0,0,0,4.6-4.3" transform="translate(-102.678 -172.849)" fill="#dbdbdb"/>
                <path id="Trazado_162210" data-name="Trazado 162210" d="M98.993,224.583c-.637,1.845-1.314,10.834-.976,12.019a6.466,6.466,0,0,0,1.174,1.84c-3.726-1.011-7.382-2.254-8.6-3.194C88.5,233.641,90.1,222.3,92.16,220.033c2.634-2.92,5.98-5.747,8.644-5.5a18.213,18.213,0,0,1,4.824,1.822s-6,6.378-6.635,8.223" transform="translate(-78.564 -158.164)" fill="#ffc727"/>
                <g id="Grupo_169725" data-name="Grupo 169725" transform="translate(11.046 56.356)">
                  <g id="Grupo_169724" data-name="Grupo 169724">
                    <g id="Grupo_169723" data-name="Grupo 169723" clip-path="url(#clip-path-12)">
                      <path id="Trazado_162211" data-name="Trazado 162211" d="M98.993,224.58c-.637,1.846-1.314,10.834-.976,12.02a6.473,6.473,0,0,0,1.174,1.84c-3.726-1.01-7.382-2.255-8.6-3.195C88.5,233.639,90.1,222.3,92.16,220.031c2.634-2.92,5.98-5.747,8.644-5.5a18.216,18.216,0,0,1,4.824,1.822s-6,6.378-6.635,8.224" transform="translate(-89.61 -214.519)" fill="#3c3fa7"/>
                    </g>
                  </g>
                </g>
                <path id="Trazado_162212" data-name="Trazado 162212" d="M419.279,214.534c-4.158.385-23.905,12.647-24.737,13.656s-2.834,11.149-1.59,12.143,16.168.486,20.663-.237,13.786-3.24,15.878-4.849.486-12.945-1.567-15.215c-2.639-2.918-5.98-5.744-8.647-5.5" transform="translate(-234.616 -158.163)" fill="#fff"/>
                <path id="Trazado_162213" data-name="Trazado 162213" d="M418.74,214.55a13.492,13.492,0,0,0-3.09,1.042,90.107,90.107,0,0,0-8.669,4.581c-4.2,2.514-8.392,5.075-12.352,7.94-.183.17-.387.279-.452.472a21.215,21.215,0,0,0-.99,3.86,25.859,25.859,0,0,0-.559,7.114c.031.223.147.432.134.369a2.593,2.593,0,0,0,.572.145,74.03,74.03,0,0,0,10.5.125,64.892,64.892,0,0,0,12.881-1.359c3.923-.929,7.951-1.784,11.6-3.538a2.18,2.18,0,0,0,1.149-1.763,18.1,18.1,0,0,0,.157-4.818,28.751,28.751,0,0,0-1.176-6.391,6.384,6.384,0,0,0-1.588-2.785c-2.193-2.225-4.762-5-8.113-4.994m0,0c3.525-.046,6.445,3.184,8.746,5.524,1.69,2.506,2.08,5.677,2.515,8.61.138,2.174.57,4.645-.641,6.611a5.443,5.443,0,0,1-1.47.96,67.569,67.569,0,0,1-14.165,4.313,100.024,100.024,0,0,1-16.423.907,29.265,29.265,0,0,1-4.164-.322,2.8,2.8,0,0,1-.983-.331,1.554,1.554,0,0,1-.57-1.057,24.594,24.594,0,0,1,.786-7.484,30.957,30.957,0,0,1,.86-3.2,2.5,2.5,0,0,1,1-1.494c4.083-2.757,8.382-5.156,12.667-7.558,2.87-1.57,5.743-3.147,8.743-4.456a13.415,13.415,0,0,1,3.1-1.021" transform="translate(-234.077 -158.178)" fill="#dbdbdb"/>
                <path id="Trazado_162214" data-name="Trazado 162214" d="M426.532,239.651a5.119,5.119,0,1,0,8.887-3.464,5.132,5.132,0,0,0-8.887,3.464m0,0a5.733,5.733,0,1,1,9.629,4.2,5.75,5.75,0,0,1-9.629-4.2" transform="translate(-252.118 -168.155)" fill="#dbdbdb"/>
                <path id="Trazado_162215" data-name="Trazado 162215" d="M403.748,247.943a4.307,4.307,0,1,0,4.6-4.3,4.33,4.33,0,0,0-4.6,4.3m0,0a4.912,4.912,0,1,1,8.225,3.624,4.931,4.931,0,0,1-8.225-3.624" transform="translate(-240.381 -172.848)" fill="#dbdbdb"/>
                <path id="Trazado_162216" data-name="Trazado 162216" d="M444.358,224.583c.637,1.845,1.314,10.834.975,12.019a6.459,6.459,0,0,1-1.173,1.84c3.726-1.011,7.382-2.254,8.6-3.194,2.091-1.606.485-12.943-1.571-15.214-2.634-2.92-5.98-5.747-8.643-5.5a18.215,18.215,0,0,0-4.824,1.822s6,6.378,6.635,8.223" transform="translate(-257.883 -158.164)" fill="#ffc727"/>
                <g id="Grupo_169728" data-name="Grupo 169728" transform="translate(179.84 56.356)">
                  <g id="Grupo_169727" data-name="Grupo 169727">
                    <g id="Grupo_169726" data-name="Grupo 169726" clip-path="url(#clip-path-13)">
                      <path id="Trazado_162217" data-name="Trazado 162217" d="M444.358,224.58c.637,1.846,1.314,10.834.975,12.02a6.466,6.466,0,0,1-1.173,1.84c3.726-1.01,7.382-2.255,8.6-3.195,2.091-1.606.485-12.943-1.571-15.215-2.634-2.92-5.98-5.747-8.643-5.5a18.218,18.218,0,0,0-4.824,1.822s6,6.378,6.635,8.224" transform="translate(-437.723 -214.519)" fill="#3c3fa7"/>
                    </g>
                  </g>
                </g>
                <path id="Trazado_162218" data-name="Trazado 162218" d="M276.9,239.989c.1.451-4.914,11.242-5.829,12.565s-5.267,3.6-6.285,3.8-16.619,3.365-40.553,3.365-39.541-3.164-40.56-3.365-5.371-2.482-6.279-3.8-5.932-12.114-5.828-12.565,15.1,2.475,24.172,2.829c4.463.177,18.448.951,28.495.951s24.031-.774,28.494-.951c9.072-.353,24.075-3.28,24.173-2.829" transform="translate(-120.78 -171.258)" fill="#37474f"/>
                <path id="Trazado_162219" data-name="Trazado 162219" d="M181.916,242.679c2.042.292,4.231.6,6.4.853H172.863c-.14-.311-.262-.6-.366-.853Zm85.593,0c-2.042.292-4.231.6-6.4.853h15.454c.14-.311.262-.6.366-.853Zm-33.475,2.341c-3.219.091-6.431.159-9.321.159s-6.1-.067-9.321-.159H173.515c.122.274.25.555.384.848H275.525c.134-.293.262-.573.384-.848Zm-59.452,2.335c.128.287.262.567.4.848h99.468c.134-.28.268-.561.4-.848Zm1.1,2.335c.14.292.28.579.415.853h97.237c.134-.274.275-.561.415-.853Zm1.14,2.335c.159.311.311.6.439.853h94.909c.128-.256.28-.543.439-.853Zm1.4,2.335a8.489,8.489,0,0,0,1.055.853h90.885a8.485,8.485,0,0,0,1.055-.853Zm3.53,2.341a18.4,18.4,0,0,0,1.774.847H265.9a18.416,18.416,0,0,0,1.78-.847Zm10.272,2.335c2.042.28,4.45.573,7.2.848h50.99c2.75-.274,5.158-.567,7.2-.848Z" transform="translate(-121.261 -172.668)" fill="#455a64"/>
                <rect id="Rectángulo_42725" data-name="Rectángulo 42725" width="39.965" height="10.677" transform="translate(83.47 95.855)" fill="#fff"/>
              </g>
            </g>
            <g id="Grupo_170485" data-name="Grupo 170485" transform="translate(11.593 116.391)">
              <g id="Grupo_170476-2" data-name="Grupo 170476" transform="translate(0 0)">
                <path id="Trazado_162049-2" data-name="Trazado 162049" d="M10.076,348.539c-1.81.064-3.828.167-5.327-1.006-1.383-1.083-2.618-2.7-2.435-4.552.053-.529.174-.855.741-.63a6.761,6.761,0,0,1,2.126,1.965,18.294,18.294,0,0,0,2.51,2.381c.644.494,1.338.921,1.994,1.4.083.059.165.12.246.183.03.022.063.045.093.07h.052a.09.09,0,0,1,.075.039.081.081,0,0,1,.014.031.1.1,0,0,1-.089.119" transform="translate(-1.295 -334.237)" fill="#6b8dfc"/>
                <path id="Trazado_162050-2" data-name="Trazado 162050" d="M11.747,350.524c-1.59-.027-3.308.045-4.58-1.035a7.386,7.386,0,0,1-1.477-1.8c-.184-.3-.735-1.192-.507-1.547.414-.643,2.31,1.977,2.572,2.228a7.766,7.766,0,0,0,3.513,1.825q.125.087.246.183a8.687,8.687,0,0,1-2.638-1.014,12.968,12.968,0,0,1-2.641-2.6c-.191-.2-.766-.878-.983-.457-.143.277.389,1.151.5,1.338a7.344,7.344,0,0,0,1.4,1.706c1.269,1.108,2.978,1.069,4.581,1.135a.083.083,0,0,1,.014.031" transform="translate(-2.877 -336.341)" fill="#fff"/>
                <path id="Trazado_162051-2" data-name="Trazado 162051" d="M19.542,345.014c-.016.069-.029.139-.044.21a.011.011,0,0,1,0,.006.049.049,0,0,1-.032.037.076.076,0,0,1-.095-.037.055.055,0,0,1,0-.044c0-.009.005-.018.009-.029l.02-.061,0-.005c0-.006,0-.014-.005-.02-.32-1.2-.445-2.443-.783-3.641-.322-1.143-.723-2.265-.956-3.432-.147-.736-.658-4.428.969-3.968.721.2,1.215,1.248,1.488,1.872a7.615,7.615,0,0,1,.6,2.653c.119,2.252-.706,4.3-1.163,6.459" transform="translate(-9.763 -329.607)" fill="#6b8dfc"/>
                <path id="Trazado_162052-2" data-name="Trazado 162052" d="M21.409,343.342a8.881,8.881,0,0,0-.261-2.505c-.073-.283-.426-1.641-.887-1.608-.3.019-.348.606-.373.8a7.82,7.82,0,0,0,.323,2.461,33.994,33.994,0,0,1,.6,4.932c-.014.1-.031.211-.042.314-.014.087-.022.174-.034.261,0,.031-.008.059-.011.09s-.006.045-.008.07a.077.077,0,0,0,.1.036c.008-.067.019-.135.028-.2,0,.056,0,.109.006.166,0,0,0,0,0-.006.011-.059.023-.115.034-.171,0-.014.005-.025.008-.039,0-.093,0-.185-.006-.275a36.939,36.939,0,0,0,.528-4.323m-.55,3.728c-.045-.968-.14-1.933-.278-2.892-.109-.774-.256-1.54-.418-2.3a7.9,7.9,0,0,1-.207-1.308c-.014-.336.034-1.582.676-.81a5.057,5.057,0,0,1,.631,2.441,12.546,12.546,0,0,1-.045,2.292c-.087.864-.23,1.722-.359,2.581" transform="translate(-11.109 -332.533)" fill="#fff"/>
                <path id="Trazado_162053-2" data-name="Trazado 162053" d="M15.457,363.411h0a.455.455,0,0,1-.067.008c-1.654-.083-3.859.072-5.235-1.023-1.017-.809-2.016-2.407-1.695-3.763.366-1.529,2.43.305,2.976.748a50.473,50.473,0,0,1,4.055,3.945c.007.011.015.019.021.03l0,.005c.015.027-.02.041-.057.049" transform="translate(-4.704 -343.039)" fill="#6b8dfc"/>
                <path id="Trazado_162054-2" data-name="Trazado 162054" d="M17.075,365.335c-.1-.059-.191-.118-.286-.179-1.089-.685-2.149-1.417-3.167-2.2-.258-.2-2.121-1.854-2.4-1.263-.168.359.446,1.089.642,1.335a5.1,5.1,0,0,0,1.257,1.122,13.089,13.089,0,0,0,3.689,1.167c.059.011.118.028.177.045a.184.184,0,0,0,.031.019h0c.037-.008.07-.022.057-.048m-3.274-.943a5.134,5.134,0,0,1-1.428-.965c-.278-.264-1.257-1.254-1-1.661.137-.216.252-.1.516.028a3.336,3.336,0,0,1,.351.2c.278.182.533.4.791.6.454.365.915.715,1.386,1.057.769.561,1.56,1.089,2.368,1.591a24.978,24.978,0,0,1-2.988-.853" transform="translate(-6.264 -345.011)" fill="#fff"/>
                <path id="Trazado_162055-2" data-name="Trazado 162055" d="M27.484,355.648a9.786,9.786,0,0,1-2.836,4.953.073.073,0,0,1-.031.018.074.074,0,0,1-.085-.031.071.071,0,0,1,.008-.1c.028-.027.056-.056.084-.084.274-2.25.576-4.486.808-6.742.054-.532.471-3.915,1.51-3.365.642.341.685,1.727.74,2.35a9.861,9.861,0,0,1-.2,3" transform="translate(-13.708 -338.685)" fill="#6b8dfc"/>
                <path id="Trazado_162056-2" data-name="Trazado 162056" d="M26.9,355.287c-.056-.188-.154-.381-.365-.25-.4.252-.564,1.843-.631,2.284-.278,1.815-.707,3.56-1.145,5.335-.037.149-.073.3-.109.452l-.1.135a.074.074,0,0,0,.084.031c.006-.014.008-.031.014-.045.045-.059.092-.12.135-.182v0a11.546,11.546,0,0,0,1.638-3.192,10.926,10.926,0,0,0,.482-2.225,6.364,6.364,0,0,0,0-2.34m-2.124,7.636c-.02.031-.042.059-.062.09.02-.062.039-.121.056-.183a32.648,32.648,0,0,0,1.013-4.13c.121-.71.2-1.425.342-2.129.062-.3.207-1.148.454-1.285s.241.193.267.384c.017.137.017.387.02.516a11.406,11.406,0,0,1-2.09,6.736" transform="translate(-13.726 -341.34)" fill="#fff"/>
                <path id="Trazado_162057-2" data-name="Trazado 162057" d="M13.805,355.531h-.331c-.006-.292-.011-.583-.019-.873-.039-1.175-.087-2.351-.157-3.526-.039-.671-.087-1.335-.157-1.995a.491.491,0,0,1-.006-.067c-.008-.053-.014-.107-.02-.163s-.014-.115-.022-.174a14.231,14.231,0,0,0-1.136-4.32c-.211-.457-.441-.9-.682-1.347-.023-.042-.048-.084-.07-.126a.223.223,0,0,0-.02-.034c-.023-.045-.048-.087-.073-.132s-.037-.065-.056-.1c-.766-1.347-1.641-2.634-2.472-3.93-.239-.37-.477-.743-.71-1.116a.468.468,0,0,1-.042-.068.843.843,0,0,1-.053-.081c-1.044-1.647-2.071-3.308-3.154-4.924-.042-.059.057-.112.1-.053.732,1.072,1.49,2.127,2.242,3.187.1.14.2.283.3.424.2.28.4.558.592.839.393.561.78,1.122,1.159,1.692a47.486,47.486,0,0,1,3.047,4.929c.064.129.126.258.188.39.039.081.078.162.112.244s.087.188.129.283A15.262,15.262,0,0,1,13.6,349.7c.008.123.017.25.023.376,0,.056.008.115.011.174,0,.031,0,.061.006.092s0,.079.006.121v0c0,.028,0,.059,0,.09.006.107.009.213.014.323.048,1.175.079,2.351.1,3.523.008.373.023.749.037,1.125" transform="translate(-2.591 -328.763)" fill="#6b8dfc"/>
                <path id="Trazado_162058-2" data-name="Trazado 162058" d="M1.366,329.535C.46,328.317-.7,325.8.634,324.5a1.422,1.422,0,0,1,1.893-.14,4.13,4.13,0,0,1,1.25,2.273c.612,2.131,1.017,4.3,1.782,6.392.014.013.065.178.083.224s-.053.062-.069.019c-.026-.068-.05-.136-.075-.2a18.229,18.229,0,0,1-4.131-3.526" transform="translate(-0.029 -324.061)" fill="#6b8dfc"/>
                <path id="Trazado_162059-2" data-name="Trazado 162059" d="M7.47,335.368c-.008-.011-.014-.025-.022-.036a15.019,15.019,0,0,1-.848-1.577,30.26,30.26,0,0,1-1.3-3.49c-.146-.457-.8-2.7-1.6-1.8a2.007,2.007,0,0,0-.235,1.5,5.629,5.629,0,0,0,.7,2.1A10.263,10.263,0,0,0,7.17,335.2c.053.042.106.081.16.121.011.02.023.037.034.056a.269.269,0,0,0,.023.036.037.037,0,0,0,.019.017.05.05,0,0,0,.07-.031.035.035,0,0,0-.006-.033m-.353-.247a11.989,11.989,0,0,1-2.55-2.558,6.331,6.331,0,0,1-.83-1.695,5.145,5.145,0,0,1-.18-.822,3.6,3.6,0,0,1-.037-.629c.014-.46.2-.962.477-1.01.336-.062.448.135.671.521a3.7,3.7,0,0,1,.2.4,11.042,11.042,0,0,1,.376,1.06c.188.592.379,1.181.592,1.765.143.4.3.788.465,1.172a15.714,15.714,0,0,0,.993,1.93c-.059-.045-.118-.093-.177-.14" transform="translate(-1.928 -326.403)" fill="#fff"/>
                <path id="Trazado_162060-2" data-name="Trazado 162060" d="M37.318,342.278c-.576,1.072-1.223,2.1-1.88,3.126-.372.58-.752,1.156-1.124,1.739a4.917,4.917,0,0,0-.974,2.043l0,0a.434.434,0,0,1-.03.1.041.041,0,0,1-.012.009.091.091,0,0,1-.136-.082c0-.018,0-.034.006-.051s0-.013-.005-.019a2.963,2.963,0,0,1-.017-.678,15.889,15.889,0,0,1,.071-1.844,15.073,15.073,0,0,1,.8-3.685,12.741,12.741,0,0,1,1.539-3,6.663,6.663,0,0,1,2.128-2.239c.772-.351.88.733.862,1.254a8.069,8.069,0,0,1-1.227,3.328" transform="translate(-18.521 -331.639)" fill="#6b8dfc"/>
                <path id="Trazado_162061-2" data-name="Trazado 162061" d="M37.272,341.847c-.411-.159-1.223,1.052-1.591,1.568a12.273,12.273,0,0,0-1.42,2.627,15.867,15.867,0,0,0-1.051,5.237c0,.071-.007.145-.008.216,0,.007,0,.014,0,.02s0,.032,0,.05a.09.09,0,0,0,.136.083c.028-.149.06-.293.1-.437s.068-.26.107-.386a21,21,0,0,1,1.824-3.965c.807-1.493,2.448-4.8,1.9-5.011m-3.907,9.212c-.05.191-.091.383-.126.574.009-.147.017-.294.029-.44a17.548,17.548,0,0,1,.9-4.63,12.562,12.562,0,0,1,1.139-2.4,11.615,11.615,0,0,1,.821-1.171c.126-.155.854-1.149,1.087-1,.162.108-.183,1.123-.188,1.145-.067.2-.144.4-.225.6-.166.411-.354.814-.547,1.211-.424.862-.9,1.7-1.348,2.549a16.569,16.569,0,0,0-1.543,3.557" transform="translate(-18.559 -333.988)" fill="#fff"/>
                <path id="Trazado_162062-2" data-name="Trazado 162062" d="M41.049,358.924a11.466,11.466,0,0,1-4.715,2.271c-.9.245-1.817.447-2.725.67a12.425,12.425,0,0,0-2.4.708c-.033.015-.067.031-.1.049a3.267,3.267,0,0,0-.589.381.048.048,0,0,1-.044.009.732.732,0,0,1-.05.055.016.016,0,0,1-.026-.018c.011-.022.026-.047.036-.069l0-.006a.05.05,0,0,1,.018-.058.136.136,0,0,1,.023-.018c.012-.023.024-.046.037-.068a11.686,11.686,0,0,1,4.285-3.838,9.8,9.8,0,0,1,5.041-1.611c.454,0,1.513-.07,1.79.407.253.435-.3.888-.58,1.137" transform="translate(-16.99 -342.671)" fill="#6b8dfc"/>
                <path id="Trazado_162063-2" data-name="Trazado 162063" d="M39.93,359.594c-.22-.5-1.616-.021-1.961.083a18.9,18.9,0,0,0-3,1.277,16.851,16.851,0,0,0-4.347,2.953v0l-.055.033c-.015.024-.027.047-.039.069a.1.1,0,0,0-.022.019.05.05,0,0,0-.017.06c.026-.014.05-.029.076-.04.193-.112.393-.215.594-.315.034-.017.068-.034.1-.049a36.409,36.409,0,0,1,4.378-1.617,17.419,17.419,0,0,0,2.989-1.27c.242-.135,1.493-.787,1.309-1.205m-.635.66a16.88,16.88,0,0,1-5.143,2.181,19.076,19.076,0,0,0-3.4,1.4,17.927,17.927,0,0,1,3.981-2.628,24.113,24.113,0,0,1,2.477-1.137,9.852,9.852,0,0,1,1.409-.445,3.872,3.872,0,0,1,.879-.111c.556.047.043.549-.207.744" transform="translate(-17.039 -343.785)" fill="#fff"/>
                <path id="Trazado_162064-2" data-name="Trazado 162064" d="M25,363.957a.1.1,0,0,1-.093.013c0,.013.006.023.009.034a.028.028,0,0,1-.019.035.026.026,0,0,1-.037-.015,15.937,15.937,0,0,1-1.487-6.348,8.321,8.321,0,0,1,.46-2.666c.208-.584.629-1.761,1.287-1.991,1.324-.461.84,3.485.765,4.08-.136,1.084-.363,2.153-.52,3.233-.171,1.183-.256,2.376-.341,3.567a.079.079,0,0,1-.025.057" transform="translate(-13.067 -340.216)" fill="#6b8dfc"/>
                <path id="Trazado_162065-2" data-name="Trazado 162065" d="M25.772,365.8c-.019-.113-.036-.225-.049-.338a17.961,17.961,0,0,1,.076-5.524,16.533,16.533,0,0,0,.312-2.77c0-.23.044-1.093-.435-.834a6.288,6.288,0,0,0-.746,2.043,11.4,11.4,0,0,0-.148,2.783,18.761,18.761,0,0,0,.848,4.594c.013.044.026.088.04.13a.027.027,0,0,0,.019-.034.206.206,0,0,1-.008-.034.1.1,0,0,0,.093-.015m-.825-3.873a13.209,13.209,0,0,1-.03-2.767,9.357,9.357,0,0,1,.181-1.088,5.93,5.93,0,0,1,.243-.829c.26-.655.378-.8.5-.785.073.013.139.12.181.588a4.641,4.641,0,0,1-.029.906c-.048.427-.11.851-.178,1.276-.133.848-.278,1.7-.347,2.552a13.882,13.882,0,0,0,.167,3.677,21.427,21.427,0,0,1-.685-3.529" transform="translate(-13.841 -342.062)" fill="#fff"/>
                <path id="Trazado_162066-2" data-name="Trazado 162066" d="M32.033,371.753a5.288,5.288,0,0,1-1.65,1.546c-1.269.822-2.695,1.362-4.016,2.092-.2.109-.392.222-.585.341-.02.014-.217.212-.207.192s.053-.089.142-.231h0a21.626,21.626,0,0,1,2.844-3.739,10.815,10.815,0,0,1,2.12-1.554c.368-.191,1.213-.584,1.613-.272.43.336-.049,1.289-.26,1.625" transform="translate(-14.297 -349.728)" fill="#6b8dfc"/>
                <path id="Trazado_162067-2" data-name="Trazado 162067" d="M31.475,372.155c-.367-.489-2.479,1.257-2.758,1.48a15.214,15.214,0,0,0-2.739,2.847c-.091.118-.177.238-.263.361-.089.143-.142.225-.143.23s.188-.177.21-.192l.1-.061c.161-.1.324-.191.484-.279.855-.6,1.724-1.189,2.569-1.809a14.006,14.006,0,0,0,1.725-1.462c.12-.122.978-.9.817-1.115m-.382.574c-1.439,1.672-3.435,2.656-5.174,3.962l-.085.064c.035-.044.068-.091.1-.135a17.329,17.329,0,0,1,2.234-2.39,16.574,16.574,0,0,1,1.575-1.225,8.327,8.327,0,0,1,.918-.6c.142-.072.539-.252.617-.164.112.122-.094.376-.188.486" transform="translate(-14.297 -350.878)" fill="#fff"/>
                <path id="Trazado_162068-2" data-name="Trazado 162068" d="M52.159,339.507c-2.717,2.747-7.087,2.824-9.956,5.376l-.014.013c-.087.078-.173.158-.258.241a.072.072,0,0,1-.116-.026.052.052,0,0,1,.015-.057c.019-.02.041-.04.062-.059a18.47,18.47,0,0,1,4.259-5,9.368,9.368,0,0,1,4.977-2.384c.463-.049,1.378-.176,1.684.32.324.524-.318,1.239-.653,1.577" transform="translate(-23.368 -331.601)" fill="#6b8dfc"/>
                <path id="Trazado_162069-2" data-name="Trazado 162069" d="M50.813,340.967c-.131-.207-.471-.149-.66-.129a5.935,5.935,0,0,0-1.38.323,9.768,9.768,0,0,0-2.541,1.4,20.148,20.148,0,0,0-3.661,3.363c-.238.29-.465.587-.675.9-.027.038-.051.077-.078.114a.074.074,0,0,0,.116.027c.08-.083.163-.156.248-.235a.185.185,0,0,1,.023-.021,11.8,11.8,0,0,1,1.755-1.486A27.759,27.759,0,0,1,47.1,343.5c.419-.211,4.165-1.82,3.711-2.528m-.526.675a13.267,13.267,0,0,1-2.507,1.409c-.855.436-1.714.862-2.562,1.309a13.492,13.492,0,0,0-1.924,1.232,10.5,10.5,0,0,0-1.4,1.285,14.613,14.613,0,0,1,1.2-1.435.046.046,0,0,1,.017-.014,26.422,26.422,0,0,1,2.471-2.238l.031-.027a12.246,12.246,0,0,1,2.451-1.6,7.021,7.021,0,0,1,1.506-.524c.592-.123,1.082-.161,1.141.036.038.135-.2.4-.423.573" transform="translate(-23.372 -333.42)" fill="#fff"/>
                <path id="Trazado_162070-2" data-name="Trazado 162070" d="M36.222,346.246c-.792.764-1.571,1.549-2.346,2.337q-.549.555-1.089,1.11c-.009.008-.018.015-.023.021l-.393.4a31.65,31.65,0,0,0-3.417,3.815,14.465,14.465,0,0,0-1.307,2.349c-.036.085-.075.169-.113.254v0c-.018.047-.039.093-.057.14-.013.025-.023.051-.033.077-.307.715-.578,1.446-.839,2.157-.364.994-.659,2-.942,3.017a.478.478,0,0,0-.026.089c-.015.045-.026.092-.041.138-.007.024-.012.046-.019.071-.014.043-.025.086-.038.129-.09.326-.183.651-.279.978l-.3-.117a21.018,21.018,0,0,1,.763-3.05.482.482,0,0,1,.021-.061c.029-.1.061-.2.094-.291.038-.121.077-.238.121-.357q.148-.43.3-.849a22.191,22.191,0,0,1,2.232-4.737l.082-.119a.528.528,0,0,1,.034-.05c.018-.029.038-.058.058-.086l.1-.134c.058-.08.119-.158.178-.235l.054-.069a33.945,33.945,0,0,1,3.214-3.367c.2-.2.4-.388.607-.58l.34-.32.522-.478a.046.046,0,0,1,.018-.015c.82-.75,1.654-1.483,2.47-2.238.037-.034.1.029.059.065" transform="translate(-13.953 -336.411)" fill="#6b8dfc"/>
              </g>
            </g>
          </g>
        </g>
      </g>
    </g>
  </g>
</svg>
