<svg xmlns="http://www.w3.org/2000/svg" width="710" height="111.329" viewBox="0 0 710 111.329">
  <g id="_11" data-name="11" transform="translate(-587 -3213)">
    <path id="Trazado_170525" data-name="Trazado 170525" d="M6.855-8.066h3.33v2.822H6.855v3.818H3.779V-5.244H.439V-8.066h3.34v-3.711H6.855Z" transform="translate(737 3275)" fill="#12263f"/>
    <g id="Grupo_170857" data-name="Grupo 170857" transform="translate(-17 -1)">
      <rect id="Rectángulo_41039" data-name="Rectángulo 41039" width="124.013" height="92" rx="10" transform="translate(773 3223)" fill="#ffd947"/>
      <path id="Trazado_170526" data-name="Trazado 170526" d="M18.055,14.656H14.086L12.914,17H10.391L16.469,5.625h2.117L20.75,17H18.414Zm-3.031-1.9h2.742l-.641-4.234ZM26.9,16.125a2.919,2.919,0,0,1-2.328,1.031,2.172,2.172,0,0,1-1.844-.875,3.2,3.2,0,0,1-.484-2.266l.914-5.469h2.2l-.93,5.492a2.17,2.17,0,0,0-.008.484.8.8,0,0,0,.867.8,2.014,2.014,0,0,0,1.7-.789l1.055-5.992h2.219L28.789,17H26.734Zm7.6-5.07,1.773-2.508H38.75L35.688,12.8,37.4,17H35.164l-1.039-2.641L32.258,17H29.766l3.188-4.422L31.32,8.547h2.234ZM40.734,17H38.516l1.469-8.453H42.2ZM40.242,6.4a1.1,1.1,0,0,1,.344-.867,1.323,1.323,0,0,1,1.734-.039,1.1,1.1,0,0,1,.383.828,1.132,1.132,0,0,1-.324.844,1.215,1.215,0,0,1-.887.375,1.235,1.235,0,0,1-.863-.3A1.091,1.091,0,0,1,40.242,6.4ZM44.93,17H42.711L44.8,5h2.211Zm4.2,0H46.906l1.469-8.453h2.219ZM48.633,6.4a1.1,1.1,0,0,1,.344-.867,1.323,1.323,0,0,1,1.734-.039,1.1,1.1,0,0,1,.383.828,1.132,1.132,0,0,1-.324.844,1.215,1.215,0,0,1-.887.375,1.235,1.235,0,0,1-.863-.3A1.091,1.091,0,0,1,48.633,6.4ZM55.883,17a2.281,2.281,0,0,1-.086-.766,2.863,2.863,0,0,1-2.156.922,2.594,2.594,0,0,1-1.84-.723,2.186,2.186,0,0,1-.684-1.746,2.527,2.527,0,0,1,1.16-2.121,5.266,5.266,0,0,1,2.965-.738l1.031.016.109-.508a1.764,1.764,0,0,0,.023-.492.846.846,0,0,0-.277-.574.955.955,0,0,0-.629-.215,1.345,1.345,0,0,0-.875.254,1.231,1.231,0,0,0-.461.777l-2.211.008a2.457,2.457,0,0,1,1.113-1.965,4.312,4.312,0,0,1,2.613-.738,3.117,3.117,0,0,1,2.25.855,2.5,2.5,0,0,1,.68,2.121l-.648,4.047-.039.5a2.412,2.412,0,0,0,.133.938L58.047,17Zm-1.7-1.555a2.017,2.017,0,0,0,1.664-.828l.273-1.461-.766-.008a2.139,2.139,0,0,0-1.758.742,1.292,1.292,0,0,0-.242.633.75.75,0,0,0,.176.668A.891.891,0,0,0,54.188,15.445ZM65.18,10.664a4.548,4.548,0,0,0-.742-.078,2.136,2.136,0,0,0-1.867.883L61.594,17h-2.2l1.469-8.453,2.07-.008-.2,1.031a2.325,2.325,0,0,1,1.969-1.2,3.214,3.214,0,0,1,.766.109Zm3.539,3.117,2.414-5.234h2.453l-4.945,9.727a4.231,4.231,0,0,1-1.246,1.641,2.723,2.723,0,0,1-1.652.523,5.035,5.035,0,0,1-1.062-.164l.164-1.719.3.016a1.651,1.651,0,0,0,1.578-.789l.484-.9L65.828,8.547h2.281Zm8.8,4.2H75.789l6.2-12.352h1.742ZM28.168,38.031H23.4L22.332,41H20.785l4.344-11.375h1.313L30.793,41H29.254ZM23.855,36.8h3.867l-1.937-5.32ZM37.23,40.164a3.07,3.07,0,0,1-2.477.992,2.628,2.628,0,0,1-2.059-.785,3.4,3.4,0,0,1-.715-2.324v-5.5h1.445v5.461q0,1.922,1.563,1.922a2.163,2.163,0,0,0,2.2-1.234V32.547h1.445V41H37.262Zm6.438-4.531,1.875-3.086H47.23l-2.766,4.18L47.316,41H45.645l-1.953-3.164L41.738,41h-1.68l2.852-4.273-2.766-4.18h1.672ZM50.332,41H48.887V32.547h1.445ZM48.77,30.3a.863.863,0,0,1,.215-.594.807.807,0,0,1,.637-.242.819.819,0,0,1,.641.242.854.854,0,0,1,.219.594.826.826,0,0,1-.219.586.834.834,0,0,1-.641.234.821.821,0,0,1-.637-.234A.834.834,0,0,1,48.77,30.3ZM54.215,41H52.77V29h1.445ZM58.1,41H56.652V32.547H58.1ZM56.535,30.3a.863.863,0,0,1,.215-.594.807.807,0,0,1,.637-.242.819.819,0,0,1,.641.242.854.854,0,0,1,.219.594.826.826,0,0,1-.219.586.834.834,0,0,1-.641.234.821.821,0,0,1-.637-.234A.834.834,0,0,1,56.535,30.3ZM65.629,41a3.036,3.036,0,0,1-.2-.891,3.225,3.225,0,0,1-2.406,1.047,2.984,2.984,0,0,1-2.051-.707,2.287,2.287,0,0,1-.8-1.793,2.39,2.39,0,0,1,1-2.051A4.733,4.733,0,0,1,64,35.875H65.4v-.664A1.623,1.623,0,0,0,64.949,34a1.821,1.821,0,0,0-1.336-.449,2.107,2.107,0,0,0-1.3.391,1.151,1.151,0,0,0-.523.945H60.34a2,2,0,0,1,.449-1.223,3.066,3.066,0,0,1,1.219-.934,4.1,4.1,0,0,1,1.691-.344,3.342,3.342,0,0,1,2.289.73,2.635,2.635,0,0,1,.859,2.012v3.891a4.757,4.757,0,0,0,.3,1.852V41Zm-2.4-1.1a2.54,2.54,0,0,0,1.289-.352,2.127,2.127,0,0,0,.883-.914V36.9H64.27q-2.656,0-2.656,1.555a1.316,1.316,0,0,0,.453,1.063A1.742,1.742,0,0,0,63.23,39.9ZM73.2,33.844a4.331,4.331,0,0,0-.711-.055A1.9,1.9,0,0,0,70.559,35v6H69.113V32.547H70.52l.023.977a2.251,2.251,0,0,1,2.016-1.133,1.477,1.477,0,0,1,.641.109ZM33.84,63l2.7-6.453H38L34.145,65H33l-.875-6.391L29.074,65H27.926l-.914-8.453h1.352l.516,6.3,3-6.3H33.02Zm8.852-6.609a3.047,3.047,0,0,1,1.82.578,3.285,3.285,0,0,1,1.121,1.551,4.8,4.8,0,0,1,.246,2.16l-.016.172a5.685,5.685,0,0,1-.734,2.23,4.309,4.309,0,0,1-1.516,1.551,3.7,3.7,0,0,1-2.039.523,3.052,3.052,0,0,1-1.816-.578,3.21,3.21,0,0,1-1.113-1.531,4.931,4.931,0,0,1-.25-2.133,5.76,5.76,0,0,1,.711-2.359,4.409,4.409,0,0,1,1.527-1.621A3.652,3.652,0,0,1,42.691,56.391Zm-2.875,4.531a4.8,4.8,0,0,0,0,1.023,2.507,2.507,0,0,0,.551,1.469,1.653,1.653,0,0,0,1.262.57,2.253,2.253,0,0,0,1.3-.348,2.919,2.919,0,0,0,1-1.121,4.721,4.721,0,0,0,.523-1.664,7.494,7.494,0,0,0,.023-1.211,2.6,2.6,0,0,0-.57-1.492,1.69,1.69,0,0,0-1.266-.578,2.3,2.3,0,0,0-1.859.859,4.245,4.245,0,0,0-.945,2.313Zm12.477,3.242a3.265,3.265,0,0,1-2.523.992,2.107,2.107,0,0,1-1.793-.867,3.317,3.317,0,0,1-.434-2.281l.906-5.461h1.414l-.914,5.484a3.642,3.642,0,0,0-.016.672,1.4,1.4,0,0,0,.336.883,1.146,1.146,0,0,0,.828.344A2.537,2.537,0,0,0,52.441,62.7L53.5,56.547h1.414L53.449,65H52.113Zm4.8.836H55.684l2.078-12h1.414Zm2.719-4.242a6.578,6.578,0,0,1,.711-2.328,4.03,4.03,0,0,1,1.367-1.555,3.127,3.127,0,0,1,1.789-.492,2.64,2.64,0,0,1,2.172,1.031L66.66,53h1.414L66,65H64.707l.148-.906a3.116,3.116,0,0,1-2.469,1.063,2.335,2.335,0,0,1-1.867-.918,4,4,0,0,1-.75-2.379A7.6,7.6,0,0,1,59.809,60.758Zm1.359.813a2.936,2.936,0,0,0,.4,1.734,1.437,1.437,0,0,0,1.234.633A2.554,2.554,0,0,0,64.98,62.7l.672-3.906a1.754,1.754,0,0,0-1.7-1.187,2.142,2.142,0,0,0-1.473.5,3.26,3.26,0,0,0-.969,1.477A6.1,6.1,0,0,0,61.168,61.57Z" transform="translate(788 3236)" fill="#12263f"/>
    </g>
    <g id="Grupo_170859" data-name="Grupo 170859" transform="translate(-17 -1)">
      <rect id="Rectángulo_42983" data-name="Rectángulo 42983" width="175" height="111.329" rx="10" transform="translate(1139 3214)" fill="#3c3fa7"/>
      <path id="Trazado_170530" data-name="Trazado 170530" d="M39.449,13.2a4.254,4.254,0,0,1-.8,2.09,4.375,4.375,0,0,1-1.75,1.4,5.329,5.329,0,0,1-2.328.465,3.936,3.936,0,0,1-1.961-.52A3.443,3.443,0,0,1,31.289,15.2a5.312,5.312,0,0,1-.543-2.168,10.634,10.634,0,0,1,.2-2.391A7.578,7.578,0,0,1,31.852,8.1,5.666,5.666,0,0,1,33.4,6.344a4.679,4.679,0,0,1,2.891-.875,3.839,3.839,0,0,1,2.8,1.09A4.384,4.384,0,0,1,40.23,9.5l-2.281-.008a2.391,2.391,0,0,0-.43-1.578,1.752,1.752,0,0,0-1.336-.531,2.319,2.319,0,0,0-1.926.836,5.027,5.027,0,0,0-1.012,2.555,14.155,14.155,0,0,0-.219,2.445,2.434,2.434,0,0,0,.461,1.52,1.543,1.543,0,0,0,1.18.512,2.356,2.356,0,0,0,1.676-.5,2.625,2.625,0,0,0,.832-1.535Zm5.656-4.812a3.39,3.39,0,0,1,1.926.574A3.234,3.234,0,0,1,48.219,10.5a4.762,4.762,0,0,1,.27,2.176,5.143,5.143,0,0,1-1.4,3.262,3.96,3.96,0,0,1-3.02,1.215,3.38,3.38,0,0,1-1.906-.566,3.222,3.222,0,0,1-1.187-1.527,4.657,4.657,0,0,1-.273-2.156,5.3,5.3,0,0,1,1.422-3.328A3.878,3.878,0,0,1,45.105,8.391Zm-2.227,5.32a1.956,1.956,0,0,0,.352,1.184,1.168,1.168,0,0,0,.945.449,1.712,1.712,0,0,0,1.594-.934,4.659,4.659,0,0,0,.539-2.535,2.127,2.127,0,0,0-.363-1.2A1.148,1.148,0,0,0,45,10.211a1.714,1.714,0,0,0-1.574.926A4.611,4.611,0,0,0,42.879,13.711Zm9.758-5.172-.18.961a3.112,3.112,0,0,1,2.477-1.109,2.379,2.379,0,0,1,1.3.359,1.679,1.679,0,0,1,.7.93,3.255,3.255,0,0,1,2.625-1.289,2.126,2.126,0,0,1,1.754.8,3.271,3.271,0,0,1,.5,2.234l-.016.2L60.887,17H58.676l.9-5.4a3.9,3.9,0,0,0,.023-.539.837.837,0,0,0-.937-.844,1.86,1.86,0,0,0-1.555.969l-.023.18L56.1,17h-2.2l.9-5.383a3.9,3.9,0,0,0,.023-.539.836.836,0,0,0-.93-.852,1.867,1.867,0,0,0-1.508.789L51.324,17h-2.2l1.461-8.453ZM70.754,12.8a6.981,6.981,0,0,1-.7,2.359,3.826,3.826,0,0,1-1.32,1.531,3.058,3.058,0,0,1-1.75.477,2.44,2.44,0,0,1-1.937-.914l-.773,4h-2.2L64.1,8.547l2.031-.008-.148.852a2.7,2.7,0,0,1,2.156-1,2.4,2.4,0,0,1,1.93.9,3.922,3.922,0,0,1,.734,2.363A9.133,9.133,0,0,1,70.754,12.8Zm-2.187-.164.047-.75a2.084,2.084,0,0,0-.277-1.2,1,1,0,0,0-.855-.461,1.819,1.819,0,0,0-1.586.813l-.633,3.484a1.233,1.233,0,0,0,1.242.82,1.591,1.591,0,0,0,1.328-.617A4.223,4.223,0,0,0,68.566,12.633ZM73.777,17H71.559L73.645,5h2.211Zm5.883.156a3.677,3.677,0,0,1-1.965-.543,3.292,3.292,0,0,1-1.277-1.469,4.093,4.093,0,0,1-.328-2.059l.023-.312a5.465,5.465,0,0,1,.719-2.266,4.341,4.341,0,0,1,1.547-1.59,3.827,3.827,0,0,1,2.094-.527,2.926,2.926,0,0,1,2.473,1.2,4.105,4.105,0,0,1,.637,2.957l-.125.961h-5.18a1.814,1.814,0,0,0,.4,1.313,1.521,1.521,0,0,0,1.172.508,2.712,2.712,0,0,0,2.109-.93l1.008,1.25A3.135,3.135,0,0,1,81.59,16.77,4.5,4.5,0,0,1,79.66,17.156Zm.7-6.945a1.565,1.565,0,0,0-1.082.383,3.363,3.363,0,0,0-.848,1.383h3.031l.047-.2a2.071,2.071,0,0,0,.008-.594,1.134,1.134,0,0,0-.383-.707A1.2,1.2,0,0,0,80.363,10.211Zm7.266-1.672-.18.961a3.112,3.112,0,0,1,2.477-1.109,2.379,2.379,0,0,1,1.3.359,1.679,1.679,0,0,1,.7.93,3.255,3.255,0,0,1,2.625-1.289,2.126,2.126,0,0,1,1.754.8,3.271,3.271,0,0,1,.5,2.234l-.016.2L95.879,17H93.668l.9-5.4a3.9,3.9,0,0,0,.023-.539.837.837,0,0,0-.937-.844,1.86,1.86,0,0,0-1.555.969l-.023.18L91.09,17h-2.2l.9-5.383a3.9,3.9,0,0,0,.023-.539.836.836,0,0,0-.93-.852,1.867,1.867,0,0,0-1.508.789L86.316,17h-2.2l1.461-8.453Zm14.016,8.617a3.677,3.677,0,0,1-1.965-.543A3.292,3.292,0,0,1,98.4,15.145a4.093,4.093,0,0,1-.328-2.059l.023-.312a5.465,5.465,0,0,1,.719-2.266,4.341,4.341,0,0,1,1.547-1.59,3.827,3.827,0,0,1,2.094-.527,2.926,2.926,0,0,1,2.473,1.2,4.105,4.105,0,0,1,.637,2.957l-.125.961h-5.18a1.814,1.814,0,0,0,.4,1.313,1.521,1.521,0,0,0,1.172.508,2.712,2.712,0,0,0,2.109-.93l1.008,1.25a3.135,3.135,0,0,1-1.375,1.121A4.5,4.5,0,0,1,101.645,17.156Zm.7-6.945a1.565,1.565,0,0,0-1.082.383,3.363,3.363,0,0,0-.848,1.383h3.031l.047-.2a2.071,2.071,0,0,0,.008-.594,1.134,1.134,0,0,0-.383-.707A1.2,1.2,0,0,0,102.348,10.211Zm7.234-1.672-.187,1a3.042,3.042,0,0,1,2.461-1.148,2.028,2.028,0,0,1,1.766.875,3.526,3.526,0,0,1,.414,2.359L113.145,17h-2.2l.906-5.4a2.528,2.528,0,0,0,.016-.555.9.9,0,0,0-1-.82,1.9,1.9,0,0,0-1.555.8L108.254,17h-2.2l1.469-8.453Zm9.758-2.07-.367,2.078h1.406L120.09,10.2h-1.406l-.719,4.234a1.077,1.077,0,0,0,.063.609q.109.211.531.227.125.008.672-.039l-.156,1.727a3.706,3.706,0,0,1-1.266.18,1.985,1.985,0,0,1-1.617-.68,2.456,2.456,0,0,1-.437-1.8l.727-4.461h-1.2l.289-1.656h1.2l.359-2.078Zm5.375,11.508H122.98l6.2-12.352h1.742ZM39.477,37.391a4.185,4.185,0,0,1-1.332,2.785,4.365,4.365,0,0,1-2.98.98,4.008,4.008,0,0,1-3.23-1.445,5.815,5.815,0,0,1-1.215-3.867V34.75a6.481,6.481,0,0,1,.566-2.789,4.231,4.231,0,0,1,1.605-1.848,4.47,4.47,0,0,1,2.406-.645A4.11,4.11,0,0,1,38.2,30.48a4.235,4.235,0,0,1,1.273,2.8H37.969a3.254,3.254,0,0,0-.848-1.969A2.569,2.569,0,0,0,35.3,30.7a2.685,2.685,0,0,0-2.254,1.063,4.875,4.875,0,0,0-.816,3.023v1.1A5.011,5.011,0,0,0,33,38.836a2.5,2.5,0,0,0,2.164,1.094,2.886,2.886,0,0,0,1.918-.566,3.143,3.143,0,0,0,.887-1.973Zm1.438-.7a4.993,4.993,0,0,1,.488-2.234,3.643,3.643,0,0,1,1.359-1.531,3.7,3.7,0,0,1,1.988-.539,3.565,3.565,0,0,1,2.793,1.2,4.6,4.6,0,0,1,1.066,3.18v.1a5.036,5.036,0,0,1-.473,2.215,3.589,3.589,0,0,1-1.352,1.527,3.743,3.743,0,0,1-2.02.547,3.556,3.556,0,0,1-2.785-1.2A4.575,4.575,0,0,1,40.914,36.8Zm1.453.172a3.616,3.616,0,0,0,.652,2.258,2.211,2.211,0,0,0,3.5-.012,3.955,3.955,0,0,0,.648-2.418,3.61,3.61,0,0,0-.66-2.254,2.1,2.1,0,0,0-1.754-.863,2.075,2.075,0,0,0-1.727.852A3.925,3.925,0,0,0,42.367,36.867Zm9.414-4.32.039.938a3.122,3.122,0,0,1,2.508-1.094,2.417,2.417,0,0,1,2.414,1.359,3.2,3.2,0,0,1,1.1-.984,3.242,3.242,0,0,1,1.6-.375q2.781,0,2.828,2.945V41H60.82V35.422a1.941,1.941,0,0,0-.414-1.355,1.823,1.823,0,0,0-1.391-.449,1.916,1.916,0,0,0-1.336.48,1.949,1.949,0,0,0-.617,1.293V41H55.609V35.461a1.613,1.613,0,0,0-1.8-1.844,1.934,1.934,0,0,0-1.945,1.211V41H50.414V32.547Zm19.8,4.32a5.062,5.062,0,0,1-.883,3.109,2.829,2.829,0,0,1-2.391,1.18,3.1,3.1,0,0,1-2.422-.977v4.07H64.445v-11.7h1.32l.07.938a2.977,2.977,0,0,1,2.453-1.094,2.882,2.882,0,0,1,2.41,1.148,5.117,5.117,0,0,1,.887,3.2ZM70.141,36.7a3.735,3.735,0,0,0-.609-2.258,1.963,1.963,0,0,0-1.672-.828,2.125,2.125,0,0,0-1.969,1.164V38.82a2.129,2.129,0,0,0,1.984,1.156,1.954,1.954,0,0,0,1.652-.824A4.077,4.077,0,0,0,70.141,36.7ZM74.992,41H73.547V29h1.445Zm5.82.156a3.693,3.693,0,0,1-2.8-1.129,4.19,4.19,0,0,1-1.078-3.02v-.266a5.073,5.073,0,0,1,.48-2.246,3.748,3.748,0,0,1,1.344-1.547,3.378,3.378,0,0,1,1.871-.559A3.166,3.166,0,0,1,83.2,33.477a4.7,4.7,0,0,1,.914,3.109v.6H78.383a3,3,0,0,0,.73,2.02,2.3,2.3,0,0,0,1.777.77,2.517,2.517,0,0,0,1.3-.312,3.259,3.259,0,0,0,.93-.828l.883.688A3.55,3.55,0,0,1,80.813,41.156Zm-.18-7.578a1.928,1.928,0,0,0-1.469.637A3.1,3.1,0,0,0,78.43,36h4.234v-.109a2.753,2.753,0,0,0-.594-1.707A1.815,1.815,0,0,0,80.633,33.578Zm6.508-1.031.039.938a3.122,3.122,0,0,1,2.508-1.094A2.417,2.417,0,0,1,92.1,33.75a3.2,3.2,0,0,1,1.1-.984,3.242,3.242,0,0,1,1.6-.375q2.781,0,2.828,2.945V41H96.18V35.422a1.941,1.941,0,0,0-.414-1.355,1.823,1.823,0,0,0-1.391-.449,1.916,1.916,0,0,0-1.336.48,1.949,1.949,0,0,0-.617,1.293V41H90.969V35.461a1.613,1.613,0,0,0-1.8-1.844,1.934,1.934,0,0,0-1.945,1.211V41H85.773V32.547Zm16.172,8.609a3.693,3.693,0,0,1-2.8-1.129,4.19,4.19,0,0,1-1.078-3.02v-.266a5.073,5.073,0,0,1,.48-2.246,3.748,3.748,0,0,1,1.344-1.547,3.378,3.378,0,0,1,1.871-.559,3.166,3.166,0,0,1,2.563,1.086,4.7,4.7,0,0,1,.914,3.109v.6h-5.727a3,3,0,0,0,.73,2.02,2.3,2.3,0,0,0,1.777.77,2.517,2.517,0,0,0,1.3-.312,3.259,3.259,0,0,0,.93-.828l.883.688A3.55,3.55,0,0,1,103.313,41.156Zm-.18-7.578a1.928,1.928,0,0,0-1.469.637A3.1,3.1,0,0,0,100.93,36h4.234v-.109a2.753,2.753,0,0,0-.594-1.707A1.815,1.815,0,0,0,103.133,33.578Zm6.516-1.031.047,1.063a3.08,3.08,0,0,1,2.531-1.219q2.68,0,2.7,3.023V41h-1.445V35.406a1.946,1.946,0,0,0-.418-1.352,1.675,1.675,0,0,0-1.277-.437,2.086,2.086,0,0,0-1.234.375,2.546,2.546,0,0,0-.828.984V41h-1.445V32.547ZM119.07,30.5v2.047h1.578v1.117H119.07v5.242a1.171,1.171,0,0,0,.211.762.888.888,0,0,0,.719.254,3.5,3.5,0,0,0,.688-.094V41a4.19,4.19,0,0,1-1.109.156,1.8,1.8,0,0,1-1.461-.586,2.517,2.517,0,0,1-.492-1.664V33.664h-1.539V32.547h1.539V30.5Zm2.727,6.2a4.993,4.993,0,0,1,.488-2.234,3.643,3.643,0,0,1,1.359-1.531,3.7,3.7,0,0,1,1.988-.539,3.565,3.565,0,0,1,2.793,1.2,4.6,4.6,0,0,1,1.066,3.18v.1a5.036,5.036,0,0,1-.473,2.215,3.589,3.589,0,0,1-1.352,1.527,3.743,3.743,0,0,1-2.02.547,3.556,3.556,0,0,1-2.785-1.2A4.575,4.575,0,0,1,121.8,36.8Zm1.453.172a3.616,3.616,0,0,0,.652,2.258,2.211,2.211,0,0,0,3.5-.012,3.955,3.955,0,0,0,.648-2.418,3.61,3.61,0,0,0-.66-2.254,2.1,2.1,0,0,0-1.754-.863,2.075,2.075,0,0,0-1.727.852A3.925,3.925,0,0,0,123.25,36.867ZM15.516,63.359a.846.846,0,0,1,.633.234.807.807,0,0,1,.242.625.844.844,0,0,1-.258.621.929.929,0,0,1-.625.254.788.788,0,0,1-.859-.828.874.874,0,0,1,.867-.906Zm3.313,0a.846.846,0,0,1,.633.234.807.807,0,0,1,.242.625.844.844,0,0,1-.258.621.929.929,0,0,1-.625.254.788.788,0,0,1-.859-.828.874.874,0,0,1,.867-.906Zm3.141,0a.846.846,0,0,1,.633.234.807.807,0,0,1,.242.625.844.844,0,0,1-.258.621.929.929,0,0,1-.625.254.788.788,0,0,1-.859-.828.874.874,0,0,1,.867-.906Zm5.727-6.82-.18.945a3.305,3.305,0,0,1,2.57-1.094,2.608,2.608,0,0,1,1.363.367,1.8,1.8,0,0,1,.77.992,3.49,3.49,0,0,1,2.8-1.359,2.235,2.235,0,0,1,1.867.852,3.042,3.042,0,0,1,.445,2.2L36.406,65H35l.922-5.57a2.943,2.943,0,0,0,0-.742q-.148-1.062-1.391-1.086a2.136,2.136,0,0,0-1.4.48,2.222,2.222,0,0,0-.809,1.3L31.359,65H29.938l.938-5.562a1.786,1.786,0,0,0-.262-1.336,1.377,1.377,0,0,0-1.129-.484,2.315,2.315,0,0,0-2.1,1.2L26.313,65H24.9l1.469-8.453Zm15.586-.148a3.047,3.047,0,0,1,1.82.578,3.285,3.285,0,0,1,1.121,1.551,4.8,4.8,0,0,1,.246,2.16l-.016.172a5.685,5.685,0,0,1-.734,2.23A4.309,4.309,0,0,1,44.2,64.633a3.7,3.7,0,0,1-2.039.523,3.052,3.052,0,0,1-1.816-.578,3.21,3.21,0,0,1-1.113-1.531,4.931,4.931,0,0,1-.25-2.133,5.76,5.76,0,0,1,.711-2.359,4.409,4.409,0,0,1,1.527-1.621A3.652,3.652,0,0,1,43.281,56.391Zm-2.875,4.531a4.8,4.8,0,0,0,0,1.023,2.507,2.507,0,0,0,.551,1.469,1.653,1.653,0,0,0,1.262.57,2.253,2.253,0,0,0,1.3-.348,2.919,2.919,0,0,0,1-1.121,4.721,4.721,0,0,0,.523-1.664,7.494,7.494,0,0,0,.023-1.211,2.6,2.6,0,0,0-.57-1.492,1.69,1.69,0,0,0-1.266-.578,2.3,2.3,0,0,0-1.859.859,4.245,4.245,0,0,0-.945,2.313Zm12.367-3.086-.664-.07a2.42,2.42,0,0,0-2.141,1.227L48.93,65H47.516l1.469-8.453,1.367-.008-.211.984a2.527,2.527,0,0,1,2.117-1.148,2.594,2.594,0,0,1,.672.117Zm3.727,7.32a3.048,3.048,0,0,1-2.469-1.164,4.006,4.006,0,0,1-.75-2.9l.039-.336a5.624,5.624,0,0,1,.746-2.3,4.339,4.339,0,0,1,1.5-1.566,3.491,3.491,0,0,1,1.906-.5,2.688,2.688,0,0,1,2.047.867,3.566,3.566,0,0,1,.813,2.266,6.621,6.621,0,0,1-.031,1.016l-.086.648H54.688a2.856,2.856,0,0,0,.379,1.953,1.8,1.8,0,0,0,1.551.836,3.007,3.007,0,0,0,2.313-1.125l.813.688a3.718,3.718,0,0,1-1.371,1.2A3.886,3.886,0,0,1,56.5,65.156Zm.9-7.586a2.066,2.066,0,0,0-1.527.594A4.22,4.22,0,0,0,54.836,60l4.109.008.031-.125a2.313,2.313,0,0,0-.316-1.637A1.488,1.488,0,0,0,57.4,57.57Zm9.2,7.43H65.188l1.469-8.453h1.406Zm1.164-11.539a.774.774,0,0,1,.6.215.8.8,0,0,1,.238.605.834.834,0,0,1-.836.852.779.779,0,0,1-.6-.211.764.764,0,0,1-.227-.594.886.886,0,0,1,.234-.609A.826.826,0,0,1,67.758,53.461Zm3.953,3.078-.2,1.07A3.333,3.333,0,0,1,74.1,56.391a2.1,2.1,0,0,1,1.766.828,3.217,3.217,0,0,1,.422,2.242L75.367,65H73.953l.93-5.562a2.968,2.968,0,0,0,.008-.711A1.168,1.168,0,0,0,73.6,57.609a2.661,2.661,0,0,0-2.234,1.359L70.32,65H68.906l1.469-8.453ZM78.234,65l1.281-7.336h-1.3l.2-1.117h1.3l.141-1a3.318,3.318,0,0,1,.984-1.992,2.926,2.926,0,0,1,2.094-.734,4.914,4.914,0,0,1,1.008.133l-.172,1.18A4.637,4.637,0,0,0,83,54.039a1.611,1.611,0,0,0-1.191.457,2.083,2.083,0,0,0-.566,1.215l-.125.836h1.75l-.2,1.117h-1.75L79.648,65Zm9.477-8.609a3.047,3.047,0,0,1,1.82.578,3.285,3.285,0,0,1,1.121,1.551,4.8,4.8,0,0,1,.246,2.16l-.016.172a5.685,5.685,0,0,1-.734,2.23,4.309,4.309,0,0,1-1.516,1.551,3.7,3.7,0,0,1-2.039.523,3.052,3.052,0,0,1-1.816-.578,3.21,3.21,0,0,1-1.113-1.531,4.931,4.931,0,0,1-.25-2.133,5.76,5.76,0,0,1,.711-2.359,4.409,4.409,0,0,1,1.527-1.621A3.652,3.652,0,0,1,87.711,56.391Zm-2.875,4.531a4.8,4.8,0,0,0,0,1.023,2.507,2.507,0,0,0,.551,1.469,1.653,1.653,0,0,0,1.262.57,2.253,2.253,0,0,0,1.3-.348,2.919,2.919,0,0,0,1-1.121,4.721,4.721,0,0,0,.523-1.664,7.5,7.5,0,0,0,.023-1.211,2.6,2.6,0,0,0-.57-1.492,1.69,1.69,0,0,0-1.266-.578,2.3,2.3,0,0,0-1.859.859,4.245,4.245,0,0,0-.945,2.313ZM97.2,57.836l-.664-.07A2.42,2.42,0,0,0,94.4,58.992L93.359,65H91.945l1.469-8.453,1.367-.008-.211.984a2.527,2.527,0,0,1,2.117-1.148,2.594,2.594,0,0,1,.672.117Zm2.859-1.3-.18.945a3.305,3.305,0,0,1,2.57-1.094,2.608,2.608,0,0,1,1.363.367,1.8,1.8,0,0,1,.77.992,3.49,3.49,0,0,1,2.8-1.359,2.235,2.235,0,0,1,1.867.852,3.042,3.042,0,0,1,.445,2.2L108.773,65h-1.406l.922-5.57a2.943,2.943,0,0,0,0-.742q-.148-1.062-1.391-1.086a2.136,2.136,0,0,0-1.4.48,2.222,2.222,0,0,0-.809,1.3L103.727,65H102.3l.938-5.562a1.786,1.786,0,0,0-.262-1.336,1.377,1.377,0,0,0-1.129-.484,2.315,2.315,0,0,0-2.1,1.2L98.68,65H97.266l1.469-8.453ZM116.125,65a1.893,1.893,0,0,1-.055-.445l.023-.445a3.465,3.465,0,0,1-2.469,1.047,2.526,2.526,0,0,1-1.816-.707,2.14,2.14,0,0,1-.637-1.73,2.6,2.6,0,0,1,1.176-2.1,5.005,5.005,0,0,1,2.887-.754l1.477.008.094-.672a1.545,1.545,0,0,0-.293-1.2,1.414,1.414,0,0,0-1.113-.457,2.181,2.181,0,0,0-1.285.355,1.513,1.513,0,0,0-.684.98l-1.422.008a2.266,2.266,0,0,1,.578-1.316,3.363,3.363,0,0,1,1.3-.891,4.215,4.215,0,0,1,1.648-.3,2.8,2.8,0,0,1,2.055.8,2.484,2.484,0,0,1,.617,2.043l-.687,4.188-.039.6a2.949,2.949,0,0,0,.094.852l-.016.133Zm-2.219-1.094a2.466,2.466,0,0,0,1.285-.324,3.254,3.254,0,0,0,1.043-.941l.3-1.742-1.07-.008a4.054,4.054,0,0,0-2.047.422,1.554,1.554,0,0,0-.8,1.2,1.21,1.21,0,0,0,.277.988A1.321,1.321,0,0,0,113.906,63.906Zm9.3-9.406-.359,2.047h1.539l-.2,1.117h-1.531l-.883,5.258a1.833,1.833,0,0,0-.008.375.6.6,0,0,0,.664.609,4.05,4.05,0,0,0,.688-.078l-.109,1.18a3.847,3.847,0,0,1-1.031.141,1.476,1.476,0,0,1-1.266-.621,2.4,2.4,0,0,1-.328-1.629l.859-5.234h-1.492l.2-1.117h1.492L121.8,54.5ZM126.156,65H124.75l1.469-8.453h1.406Zm1.164-11.539a.774.774,0,0,1,.6.215.8.8,0,0,1,.238.605.834.834,0,0,1-.836.852.779.779,0,0,1-.6-.211.764.764,0,0,1-.227-.594.886.886,0,0,1,.234-.609A.826.826,0,0,1,127.32,53.461Zm5.844,2.93a3.047,3.047,0,0,1,1.82.578,3.285,3.285,0,0,1,1.121,1.551,4.8,4.8,0,0,1,.246,2.16l-.016.172a5.685,5.685,0,0,1-.734,2.23,4.309,4.309,0,0,1-1.516,1.551,3.7,3.7,0,0,1-2.039.523,3.052,3.052,0,0,1-1.816-.578,3.21,3.21,0,0,1-1.113-1.531,4.931,4.931,0,0,1-.25-2.133,5.76,5.76,0,0,1,.711-2.359,4.409,4.409,0,0,1,1.527-1.621A3.652,3.652,0,0,1,133.164,56.391Zm-2.875,4.531a4.8,4.8,0,0,0,0,1.023,2.507,2.507,0,0,0,.551,1.469,1.653,1.653,0,0,0,1.262.57,2.253,2.253,0,0,0,1.3-.348,2.919,2.919,0,0,0,1-1.121,4.721,4.721,0,0,0,.523-1.664,7.493,7.493,0,0,0,.023-1.211,2.6,2.6,0,0,0-.57-1.492,1.69,1.69,0,0,0-1.266-.578,2.3,2.3,0,0,0-1.859.859,4.245,4.245,0,0,0-.945,2.313Zm9.914-4.383-.2,1.07a3.333,3.333,0,0,1,2.594-1.219,2.1,2.1,0,0,1,1.766.828,3.217,3.217,0,0,1,.422,2.242L143.859,65h-1.414l.93-5.562a2.968,2.968,0,0,0,.008-.711,1.168,1.168,0,0,0-1.289-1.117,2.661,2.661,0,0,0-2.234,1.359L138.813,65H137.4l1.469-8.453ZM16.965,87.359a.846.846,0,0,1,.633.234.807.807,0,0,1,.242.625.844.844,0,0,1-.258.621.929.929,0,0,1-.625.254.788.788,0,0,1-.859-.828.874.874,0,0,1,.867-.906Zm3.313,0a.846.846,0,0,1,.633.234.807.807,0,0,1,.242.625.844.844,0,0,1-.258.621.929.929,0,0,1-.625.254.788.788,0,0,1-.859-.828.874.874,0,0,1,.867-.906Zm3.141,0a.846.846,0,0,1,.633.234.807.807,0,0,1,.242.625.844.844,0,0,1-.258.621.929.929,0,0,1-.625.254.788.788,0,0,1-.859-.828.874.874,0,0,1,.867-.906Zm5.727-6.82-.18.945a3.305,3.305,0,0,1,2.57-1.094,2.608,2.608,0,0,1,1.363.367,1.8,1.8,0,0,1,.77.992,3.49,3.49,0,0,1,2.8-1.359,2.235,2.235,0,0,1,1.867.852,3.042,3.042,0,0,1,.445,2.2L37.855,89H36.449l.922-5.57a2.943,2.943,0,0,0,0-.742q-.148-1.063-1.391-1.086a2.136,2.136,0,0,0-1.4.48,2.222,2.222,0,0,0-.809,1.3L32.809,89H31.387l.938-5.562a1.786,1.786,0,0,0-.262-1.336,1.377,1.377,0,0,0-1.129-.484,2.315,2.315,0,0,0-2.1,1.2L27.762,89H26.348l1.469-8.453ZM45.207,89a1.894,1.894,0,0,1-.055-.445l.023-.445a3.465,3.465,0,0,1-2.469,1.047,2.526,2.526,0,0,1-1.816-.707,2.14,2.14,0,0,1-.637-1.73,2.6,2.6,0,0,1,1.176-2.1,5.005,5.005,0,0,1,2.887-.754l1.477.008.094-.672a1.545,1.545,0,0,0-.293-1.2,1.414,1.414,0,0,0-1.113-.457A2.181,2.181,0,0,0,43.2,81.9a1.513,1.513,0,0,0-.684.98l-1.422.008a2.266,2.266,0,0,1,.578-1.316,3.363,3.363,0,0,1,1.3-.891,4.215,4.215,0,0,1,1.648-.3,2.8,2.8,0,0,1,2.055.8,2.484,2.484,0,0,1,.617,2.043l-.687,4.188-.039.6a2.949,2.949,0,0,0,.094.852L46.645,89Zm-2.219-1.094a2.466,2.466,0,0,0,1.285-.324,3.254,3.254,0,0,0,1.043-.941l.3-1.742-1.07-.008a4.054,4.054,0,0,0-2.047.422,1.554,1.554,0,0,0-.8,1.2,1.21,1.21,0,0,0,.277.988A1.321,1.321,0,0,0,42.988,87.906ZM46.074,77h1.8l-2.391,2.3H44.246Zm7.719,9.711q.117-.875-.961-1.234l-1.469-.43q-1.859-.641-1.8-2.125a2.341,2.341,0,0,1,1.02-1.832,3.631,3.631,0,0,1,2.27-.7,3.027,3.027,0,0,1,2.082.746,2.363,2.363,0,0,1,.77,1.9L54.3,83.031A1.319,1.319,0,0,0,53.9,82a1.576,1.576,0,0,0-1.1-.414,2.059,2.059,0,0,0-1.266.359,1.316,1.316,0,0,0-.57.922q-.1.734.9,1.07l.711.2a4.578,4.578,0,0,1,2.063.977A1.865,1.865,0,0,1,55.2,86.6a2.37,2.37,0,0,1-.516,1.375,2.948,2.948,0,0,1-1.25.895,4.18,4.18,0,0,1-1.664.285,3.3,3.3,0,0,1-2.219-.785,2.427,2.427,0,0,1-.844-1.98l1.414.008a1.5,1.5,0,0,0,.453,1.141,1.732,1.732,0,0,0,1.242.43,2.436,2.436,0,0,0,1.336-.324A1.247,1.247,0,0,0,53.793,86.711ZM62.09,89H60.684l1.469-8.453h1.406Zm1.164-11.539a.774.774,0,0,1,.6.215.8.8,0,0,1,.238.605.834.834,0,0,1-.836.852.779.779,0,0,1-.6-.211.764.764,0,0,1-.227-.594.886.886,0,0,1,.234-.609A.826.826,0,0,1,63.254,77.461Zm3.953,3.078-.2,1.07A3.333,3.333,0,0,1,69.6,80.391a2.1,2.1,0,0,1,1.766.828,3.217,3.217,0,0,1,.422,2.242L70.863,89H69.449l.93-5.562a2.968,2.968,0,0,0,.008-.711A1.168,1.168,0,0,0,69.1,81.609a2.661,2.661,0,0,0-2.234,1.359L65.816,89H64.4l1.469-8.453ZM73.73,89l1.281-7.336h-1.3l.2-1.117h1.3l.141-1a3.318,3.318,0,0,1,.984-1.992,2.926,2.926,0,0,1,2.094-.734,4.914,4.914,0,0,1,1.008.133l-.172,1.18a4.636,4.636,0,0,0-.758-.094A1.611,1.611,0,0,0,77.3,78.5a2.083,2.083,0,0,0-.566,1.215l-.125.836h1.75l-.2,1.117h-1.75L75.145,89Zm9.477-8.609a3.047,3.047,0,0,1,1.82.578,3.285,3.285,0,0,1,1.121,1.551,4.8,4.8,0,0,1,.246,2.16l-.016.172a5.685,5.685,0,0,1-.734,2.23,4.309,4.309,0,0,1-1.516,1.551,3.7,3.7,0,0,1-2.039.523,3.052,3.052,0,0,1-1.816-.578,3.21,3.21,0,0,1-1.113-1.531,4.931,4.931,0,0,1-.25-2.133,5.76,5.76,0,0,1,.711-2.359,4.409,4.409,0,0,1,1.527-1.621A3.652,3.652,0,0,1,83.207,80.391Zm-2.875,4.531a4.8,4.8,0,0,0,0,1.023,2.507,2.507,0,0,0,.551,1.469,1.653,1.653,0,0,0,1.262.57,2.253,2.253,0,0,0,1.3-.348,2.919,2.919,0,0,0,1-1.121,4.721,4.721,0,0,0,.523-1.664,7.5,7.5,0,0,0,.023-1.211,2.6,2.6,0,0,0-.57-1.492,1.69,1.69,0,0,0-1.266-.578,2.3,2.3,0,0,0-1.859.859,4.245,4.245,0,0,0-.945,2.313ZM92.7,81.836l-.664-.07a2.42,2.42,0,0,0-2.141,1.227L88.855,89H87.441l1.469-8.453,1.367-.008-.211.984a2.527,2.527,0,0,1,2.117-1.148,2.594,2.594,0,0,1,.672.117Zm2.859-1.3-.18.945a3.305,3.305,0,0,1,2.57-1.094,2.608,2.608,0,0,1,1.363.367,1.8,1.8,0,0,1,.77.992,3.49,3.49,0,0,1,2.8-1.359,2.235,2.235,0,0,1,1.867.852,3.042,3.042,0,0,1,.445,2.2L104.27,89h-1.406l.922-5.57a2.943,2.943,0,0,0,0-.742q-.148-1.063-1.391-1.086a2.136,2.136,0,0,0-1.4.48,2.222,2.222,0,0,0-.809,1.3L99.223,89H97.8l.938-5.562a1.786,1.786,0,0,0-.262-1.336,1.377,1.377,0,0,0-1.129-.484,2.315,2.315,0,0,0-2.1,1.2L94.176,89H92.762l1.469-8.453ZM111.621,89a1.893,1.893,0,0,1-.055-.445l.023-.445a3.465,3.465,0,0,1-2.469,1.047,2.526,2.526,0,0,1-1.816-.707,2.14,2.14,0,0,1-.637-1.73,2.6,2.6,0,0,1,1.176-2.1,5.005,5.005,0,0,1,2.887-.754l1.477.008.094-.672a1.545,1.545,0,0,0-.293-1.2,1.414,1.414,0,0,0-1.113-.457,2.181,2.181,0,0,0-1.285.355,1.513,1.513,0,0,0-.684.98l-1.422.008a2.266,2.266,0,0,1,.578-1.316,3.363,3.363,0,0,1,1.3-.891,4.215,4.215,0,0,1,1.648-.3,2.8,2.8,0,0,1,2.055.8,2.484,2.484,0,0,1,.617,2.043l-.687,4.188-.039.6a2.949,2.949,0,0,0,.094.852l-.016.133ZM109.4,87.906a2.466,2.466,0,0,0,1.285-.324,3.254,3.254,0,0,0,1.043-.941l.3-1.742-1.07-.008a4.054,4.054,0,0,0-2.047.422,1.554,1.554,0,0,0-.8,1.2,1.21,1.21,0,0,0,.277.988A1.321,1.321,0,0,0,109.4,87.906Zm9.141.078a2.145,2.145,0,0,0,1.367-.441,2.1,2.1,0,0,0,.8-1.2l1.336-.008a3.014,3.014,0,0,1-.637,1.453,3.68,3.68,0,0,1-2.926,1.367,3.017,3.017,0,0,1-1.785-.551,3.084,3.084,0,0,1-1.074-1.492,4.972,4.972,0,0,1-.234-2.152l.039-.391a5.605,5.605,0,0,1,.711-2.18,4.11,4.11,0,0,1,1.469-1.5,3.648,3.648,0,0,1,2-.5,2.857,2.857,0,0,1,2.125.891,3.08,3.08,0,0,1,.8,2.18l-1.32-.008a2.029,2.029,0,0,0-.461-1.34,1.607,1.607,0,0,0-1.2-.543,2.254,2.254,0,0,0-1.832.82,4.3,4.3,0,0,0-.91,2.359l-.023.2a6.776,6.776,0,0,0-.016,1.031,2.355,2.355,0,0,0,.516,1.445A1.656,1.656,0,0,0,118.543,87.984ZM124.707,89H123.3l1.469-8.453h1.406Zm1.164-11.539a.774.774,0,0,1,.6.215.8.8,0,0,1,.238.605.834.834,0,0,1-.836.852.779.779,0,0,1-.6-.211.764.764,0,0,1-.227-.594.886.886,0,0,1,.234-.609A.826.826,0,0,1,125.871,77.461Zm5.844,2.93a3.047,3.047,0,0,1,1.82.578,3.285,3.285,0,0,1,1.121,1.551,4.8,4.8,0,0,1,.246,2.16l-.016.172a5.685,5.685,0,0,1-.734,2.23,4.309,4.309,0,0,1-1.516,1.551,3.7,3.7,0,0,1-2.039.523,3.052,3.052,0,0,1-1.816-.578,3.21,3.21,0,0,1-1.113-1.531,4.931,4.931,0,0,1-.25-2.133,5.76,5.76,0,0,1,.711-2.359,4.409,4.409,0,0,1,1.527-1.621A3.652,3.652,0,0,1,131.715,80.391Zm-2.875,4.531a4.8,4.8,0,0,0,0,1.023,2.507,2.507,0,0,0,.551,1.469,1.653,1.653,0,0,0,1.262.57,2.253,2.253,0,0,0,1.3-.348,2.919,2.919,0,0,0,1-1.121,4.721,4.721,0,0,0,.523-1.664,7.493,7.493,0,0,0,.023-1.211,2.6,2.6,0,0,0-.57-1.492,1.69,1.69,0,0,0-1.266-.578,2.3,2.3,0,0,0-1.859.859,4.245,4.245,0,0,0-.945,2.313ZM132.918,77h1.8l-2.391,2.3H131.09Zm5.836,3.539-.2,1.07a3.333,3.333,0,0,1,2.594-1.219,2.1,2.1,0,0,1,1.766.828,3.217,3.217,0,0,1,.422,2.242L142.41,89H141l.93-5.562a2.968,2.968,0,0,0,.008-.711,1.168,1.168,0,0,0-1.289-1.117,2.661,2.661,0,0,0-2.234,1.359L137.363,89h-1.414l1.469-8.453Z" transform="translate(1147 3224)" fill="#fff"/>
    </g>
    <path id="Trazado_170527" data-name="Trazado 170527" d="M6.855-8.066h3.33v2.822H6.855v3.818H3.779V-5.244H.439V-8.066h3.34v-3.711H6.855Z" transform="translate(887 3275)" fill="#12263f"/>
    <path id="Trazado_170529" data-name="Trazado 170529" d="M6.855-8.066h3.33v2.822H6.855v3.818H3.779V-5.244H.439V-8.066h3.34v-3.711H6.855Z" transform="translate(1103 3275)" fill="#12263f"/>
    <g id="Grupo_170856" data-name="Grupo 170856" transform="translate(16 8)">
      <rect id="Rectángulo_41038" data-name="Rectángulo 41038" width="142" height="87" rx="10" transform="translate(571 3217)" fill="#ff9fa3"/>
      <path id="Trazado_170524" data-name="Trazado 170524" d="M14.254,13.961q.164-.93-.914-1.422l-1.508-.6Q9.207,10.766,9.34,8.711a2.964,2.964,0,0,1,.625-1.687,3.758,3.758,0,0,1,1.6-1.152,5.67,5.67,0,0,1,2.227-.4,3.857,3.857,0,0,1,2.664.98,3.267,3.267,0,0,1,1,2.543H15.176a1.628,1.628,0,0,0-.34-1.2,1.531,1.531,0,0,0-1.176-.445A2.37,2.37,0,0,0,12.3,7.7a1.458,1.458,0,0,0-.687,1.02q-.148.852,1.141,1.352l1.031.391.594.273q2.3,1.141,2.156,3.2a3.09,3.09,0,0,1-.645,1.738A3.633,3.633,0,0,1,14.328,16.8a5.565,5.565,0,0,1-2.176.367A4.873,4.873,0,0,1,10,16.656a3.349,3.349,0,0,1-1.437-1.367,3.54,3.54,0,0,1-.43-1.875l2.289.008q-.109,1.852,1.82,1.883a2.392,2.392,0,0,0,1.375-.367A1.43,1.43,0,0,0,14.254,13.961Zm8.453,2.164a2.919,2.919,0,0,1-2.328,1.031,2.172,2.172,0,0,1-1.844-.875,3.2,3.2,0,0,1-.484-2.266l.914-5.469h2.2l-.93,5.492a2.17,2.17,0,0,0-.008.484.8.8,0,0,0,.867.8,2.014,2.014,0,0,0,1.7-.789l1.055-5.992h2.219L24.6,17H22.543ZM34.363,12.8A6.061,6.061,0,0,1,33.145,16,3.033,3.033,0,0,1,30.6,17.164a2.357,2.357,0,0,1-2.031-1.078l-.32.914H26.238L28.316,5h2.211l-.852,4.32a2.634,2.634,0,0,1,2.063-.93,2.385,2.385,0,0,1,1.926.879,3.89,3.89,0,0,1,.746,2.387A9.132,9.132,0,0,1,34.363,12.8Zm-2.187-.164a6.515,6.515,0,0,0,.047-1.031q-.086-1.359-1.125-1.383a1.834,1.834,0,0,0-1.617.883l-.609,3.359a1.257,1.257,0,0,0,1.266.875q1.625.047,1.992-2.359Zm6.68-4.086L37.34,17.461a3.516,3.516,0,0,1-1.02,2.2,2.984,2.984,0,0,1-2.168.773,6.8,6.8,0,0,1-1.172-.148l.18-1.8a4.309,4.309,0,0,0,.68.1,1.2,1.2,0,0,0,1.266-1.125l1.531-8.922ZM36.848,6.4a1.1,1.1,0,0,1,.328-.855,1.328,1.328,0,0,1,1.77-.035,1.108,1.108,0,0,1,.363.813,1.113,1.113,0,0,1-.328.863,1.257,1.257,0,0,1-.883.355,1.235,1.235,0,0,1-.863-.3A1.091,1.091,0,0,1,36.848,6.4Zm6.328,10.758a3.677,3.677,0,0,1-1.965-.543,3.292,3.292,0,0,1-1.277-1.469,4.093,4.093,0,0,1-.328-2.059l.023-.312a5.465,5.465,0,0,1,.719-2.266,4.341,4.341,0,0,1,1.547-1.59,3.827,3.827,0,0,1,2.094-.527,2.926,2.926,0,0,1,2.473,1.2,4.105,4.105,0,0,1,.637,2.957l-.125.961h-5.18a1.814,1.814,0,0,0,.4,1.313,1.521,1.521,0,0,0,1.172.508,2.712,2.712,0,0,0,2.109-.93l1.008,1.25a3.135,3.135,0,0,1-1.375,1.121A4.5,4.5,0,0,1,43.176,17.156Zm.7-6.945a1.565,1.565,0,0,0-1.082.383,3.363,3.363,0,0,0-.848,1.383H44.98l.047-.2a2.071,2.071,0,0,0,.008-.594,1.134,1.134,0,0,0-.383-.707A1.2,1.2,0,0,0,43.879,10.211Zm7.453,5.133a1.447,1.447,0,0,0,1.016-.332,1.632,1.632,0,0,0,.531-.926l2.07-.008a3.037,3.037,0,0,1-.559,1.6,3.394,3.394,0,0,1-1.344,1.109,3.847,3.847,0,0,1-1.77.375A3.123,3.123,0,0,1,48.84,16.1a3.965,3.965,0,0,1-.867-2.766l.023-.43L48,12.82a5.284,5.284,0,0,1,1.391-3.27,3.761,3.761,0,0,1,2.914-1.16,3.047,3.047,0,0,1,2.27.934A3.3,3.3,0,0,1,55.4,11.7H53.348a1.73,1.73,0,0,0-.3-1.07,1.128,1.128,0,0,0-.891-.422q-1.578-.047-1.914,2.3a7.782,7.782,0,0,0-.086,1.438Q50.238,15.32,51.332,15.344ZM60.27,6.469,59.9,8.547h1.406L61.02,10.2H59.613l-.719,4.234a1.077,1.077,0,0,0,.063.609q.109.211.531.227.125.008.672-.039L60,16.961a3.706,3.706,0,0,1-1.266.18,1.985,1.985,0,0,1-1.617-.68,2.456,2.456,0,0,1-.437-1.8L57.41,10.2h-1.2L56.5,8.547h1.2l.359-2.078Zm5.375,11.508H63.91l6.2-12.352h1.742ZM79.535,11.93a7.053,7.053,0,0,1-2.809-1.363,2.6,2.6,0,0,1-.879-2,2.751,2.751,0,0,1,1.074-2.223,4.269,4.269,0,0,1,2.793-.879,4.66,4.66,0,0,1,2.09.453,3.436,3.436,0,0,1,1.422,1.25,3.2,3.2,0,0,1,.5,1.742H82.223a2.069,2.069,0,0,0-.656-1.621,2.675,2.675,0,0,0-1.852-.59,2.736,2.736,0,0,0-1.73.488,1.628,1.628,0,0,0-.621,1.355,1.465,1.465,0,0,0,.59,1.176,5.79,5.79,0,0,0,2.008.879,9.3,9.3,0,0,1,2.219.879A3.367,3.367,0,0,1,83.367,12.6a2.861,2.861,0,0,1,.387,1.508,2.658,2.658,0,0,1-1.078,2.215,4.6,4.6,0,0,1-2.883.832,5.347,5.347,0,0,1-2.187-.449,3.681,3.681,0,0,1-1.566-1.23,3,3,0,0,1-.551-1.773H77a1.959,1.959,0,0,0,.762,1.629,3.207,3.207,0,0,0,2.035.6,2.948,2.948,0,0,0,1.82-.484,1.573,1.573,0,0,0,.633-1.32,1.545,1.545,0,0,0-.586-1.293A6.755,6.755,0,0,0,79.535,11.93Zm11.133,4.234a3.07,3.07,0,0,1-2.477.992,2.628,2.628,0,0,1-2.059-.785,3.4,3.4,0,0,1-.715-2.324v-5.5h1.445v5.461q0,1.922,1.563,1.922a2.163,2.163,0,0,0,2.2-1.234V8.547h1.445V17H90.7Zm5.094-7.617v9.43q0,2.438-2.211,2.438a2.682,2.682,0,0,1-.883-.141V19.117a2.794,2.794,0,0,0,.656.063.982.982,0,0,0,.738-.262,1.294,1.294,0,0,0,.254-.91V8.547ZM94.168,6.3a.867.867,0,0,1,.215-.59.79.79,0,0,1,.629-.246.819.819,0,0,1,.641.242.854.854,0,0,1,.219.594.826.826,0,0,1-.219.586.834.834,0,0,1-.641.234.808.808,0,0,1-.633-.234A.843.843,0,0,1,94.168,6.3Zm7.43,10.852a3.693,3.693,0,0,1-2.8-1.129,4.19,4.19,0,0,1-1.078-3.02v-.266A5.073,5.073,0,0,1,98.2,10.5a3.748,3.748,0,0,1,1.344-1.547,3.378,3.378,0,0,1,1.871-.559,3.166,3.166,0,0,1,2.563,1.086,4.7,4.7,0,0,1,.914,3.109v.6H99.168a3,3,0,0,0,.73,2.02,2.3,2.3,0,0,0,1.777.77,2.517,2.517,0,0,0,1.3-.312,3.259,3.259,0,0,0,.93-.828l.883.688A3.55,3.55,0,0,1,101.6,17.156Zm-.18-7.578a1.928,1.928,0,0,0-1.469.637A3.1,3.1,0,0,0,99.215,12h4.234v-.109a2.753,2.753,0,0,0-.594-1.707A1.815,1.815,0,0,0,101.418,9.578ZM108.527,6.5V8.547h1.578V9.664h-1.578v5.242a1.171,1.171,0,0,0,.211.762.888.888,0,0,0,.719.254,3.5,3.5,0,0,0,.688-.094V17a4.19,4.19,0,0,1-1.109.156,1.8,1.8,0,0,1-1.461-.586,2.517,2.517,0,0,1-.492-1.664V9.664h-1.539V8.547h1.539V6.5Zm2.727,6.2a4.993,4.993,0,0,1,.488-2.234A3.643,3.643,0,0,1,113.1,8.93a3.7,3.7,0,0,1,1.988-.539,3.565,3.565,0,0,1,2.793,1.2,4.6,4.6,0,0,1,1.066,3.18v.1a5.036,5.036,0,0,1-.473,2.215,3.589,3.589,0,0,1-1.352,1.527,3.743,3.743,0,0,1-2.02.547,3.556,3.556,0,0,1-2.785-1.2,4.575,4.575,0,0,1-1.066-3.164Zm1.453.172a3.616,3.616,0,0,0,.652,2.258,2.211,2.211,0,0,0,3.5-.012A3.955,3.955,0,0,0,117.5,12.7a3.61,3.61,0,0,0-.66-2.254,2.1,2.1,0,0,0-1.754-.863,2.075,2.075,0,0,0-1.727.852A3.925,3.925,0,0,0,112.707,12.867ZM4.895,41H3.434L5.41,29.625H6.871Zm6.586.977H10.2l6.75-12.352h1.273ZM29.309,39,32,32.547h1.461L29.613,41H28.465l-.875-6.391L24.543,41H23.395l-.914-8.453h1.352l.516,6.3,3-6.3h1.141Zm7.813,2.156a3.048,3.048,0,0,1-2.469-1.164,4.006,4.006,0,0,1-.75-2.9l.039-.336a5.624,5.624,0,0,1,.746-2.3,4.339,4.339,0,0,1,1.5-1.566,3.491,3.491,0,0,1,1.906-.5,2.688,2.688,0,0,1,2.047.867,3.566,3.566,0,0,1,.813,2.266,6.621,6.621,0,0,1-.031,1.016l-.086.648H35.309a2.856,2.856,0,0,0,.379,1.953,1.8,1.8,0,0,0,1.551.836,3.007,3.007,0,0,0,2.313-1.125l.813.688a3.718,3.718,0,0,1-1.371,1.2A3.886,3.886,0,0,1,37.121,41.156Zm.9-7.586a2.066,2.066,0,0,0-1.527.594A4.22,4.22,0,0,0,35.457,36l4.109.008.031-.125a2.313,2.313,0,0,0-.316-1.637A1.488,1.488,0,0,0,38.02,33.57Zm7.82,8.406H44.559l6.75-12.352h1.273Zm13.273-3.109,3.008-6.32h1.563l-5.016,9.859q-1.047,2.055-2.687,2.031a4.6,4.6,0,0,1-.852-.141l.125-1.172.367.039a1.853,1.853,0,0,0,1.16-.3,2.772,2.772,0,0,0,.863-1.074l.508-.969-1.461-8.273h1.477ZM68.2,32.391a3.047,3.047,0,0,1,1.82.578,3.285,3.285,0,0,1,1.121,1.551,4.8,4.8,0,0,1,.246,2.16l-.016.172a5.685,5.685,0,0,1-.734,2.23,4.309,4.309,0,0,1-1.516,1.551,3.7,3.7,0,0,1-2.039.523,3.052,3.052,0,0,1-1.816-.578,3.21,3.21,0,0,1-1.113-1.531,4.931,4.931,0,0,1-.25-2.133,5.76,5.76,0,0,1,.711-2.359,4.409,4.409,0,0,1,1.527-1.621A3.652,3.652,0,0,1,68.2,32.391Zm-2.875,4.531a4.8,4.8,0,0,0,0,1.023,2.507,2.507,0,0,0,.551,1.469,1.653,1.653,0,0,0,1.262.57,2.253,2.253,0,0,0,1.3-.348,2.919,2.919,0,0,0,1-1.121,4.721,4.721,0,0,0,.523-1.664,7.5,7.5,0,0,0,.023-1.211,2.6,2.6,0,0,0-.57-1.492,1.69,1.69,0,0,0-1.266-.578,2.3,2.3,0,0,0-1.859.859,4.245,4.245,0,0,0-.945,2.313ZM77.8,40.164a3.265,3.265,0,0,1-2.523.992,2.107,2.107,0,0,1-1.793-.867,3.317,3.317,0,0,1-.434-2.281l.906-5.461h1.414l-.914,5.484a3.643,3.643,0,0,0-.016.672,1.4,1.4,0,0,0,.336.883,1.146,1.146,0,0,0,.828.344A2.537,2.537,0,0,0,77.949,38.7l1.063-6.156h1.414L78.957,41H77.621Zm7.344,1.813H83.863l6.75-12.352h1.273ZM99.121,30.5l-.359,2.047H100.3l-.2,1.117H98.574l-.883,5.258a1.833,1.833,0,0,0-.008.375.6.6,0,0,0,.664.609,4.05,4.05,0,0,0,.688-.078l-.109,1.18a3.847,3.847,0,0,1-1.031.141,1.476,1.476,0,0,1-1.266-.621A2.4,2.4,0,0,1,96.3,38.9l.859-5.234H95.668l.2-1.117h1.492l.359-2.047Zm4.055,3.078a3.275,3.275,0,0,1,2.555-1.18,2.058,2.058,0,0,1,1.762.816,3.217,3.217,0,0,1,.426,2.246L107,41h-1.414l.93-5.562a2.968,2.968,0,0,0,.008-.711,1.168,1.168,0,0,0-1.289-1.117A2.6,2.6,0,0,0,103,34.969L101.949,41h-1.414l2.086-12h1.414Zm9.641,7.578a3.048,3.048,0,0,1-2.469-1.164,4.006,4.006,0,0,1-.75-2.9l.039-.336a5.624,5.624,0,0,1,.746-2.3,4.339,4.339,0,0,1,1.5-1.566,3.491,3.491,0,0,1,1.906-.5,2.688,2.688,0,0,1,2.047.867,3.566,3.566,0,0,1,.813,2.266,6.62,6.62,0,0,1-.031,1.016l-.086.648H111a2.856,2.856,0,0,0,.379,1.953,1.8,1.8,0,0,0,1.551.836,3.007,3.007,0,0,0,2.313-1.125l.813.688a3.718,3.718,0,0,1-1.371,1.2A3.886,3.886,0,0,1,112.816,41.156Zm.9-7.586a2.066,2.066,0,0,0-1.527.594A4.22,4.22,0,0,0,111.152,36l4.109.008.031-.125a2.313,2.313,0,0,0-.316-1.637A1.488,1.488,0,0,0,113.715,33.57Zm6.773,5.3,3.008-6.32h1.563l-5.016,9.859q-1.047,2.055-2.687,2.031a4.6,4.6,0,0,1-.852-.141l.125-1.172.367.039a1.853,1.853,0,0,0,1.16-.3,2.772,2.772,0,0,0,.863-1.074l.508-.969-1.461-8.273h1.477ZM26.855,57.578A3.275,3.275,0,0,1,29.41,56.4a2.058,2.058,0,0,1,1.762.816,3.217,3.217,0,0,1,.426,2.246L30.676,65H29.262l.93-5.562a2.968,2.968,0,0,0,.008-.711,1.168,1.168,0,0,0-1.289-1.117,2.6,2.6,0,0,0-2.234,1.359L25.629,65H24.215L26.3,53h1.414ZM36.5,65.156a3.048,3.048,0,0,1-2.469-1.164,4.006,4.006,0,0,1-.75-2.9l.039-.336a5.624,5.624,0,0,1,.746-2.3,4.339,4.339,0,0,1,1.5-1.566,3.491,3.491,0,0,1,1.906-.5,2.688,2.688,0,0,1,2.047.867,3.566,3.566,0,0,1,.813,2.266,6.621,6.621,0,0,1-.031,1.016l-.086.648H34.684a2.856,2.856,0,0,0,.379,1.953,1.8,1.8,0,0,0,1.551.836,3.007,3.007,0,0,0,2.313-1.125l.813.688a3.718,3.718,0,0,1-1.371,1.2A3.886,3.886,0,0,1,36.5,65.156Zm.9-7.586a2.066,2.066,0,0,0-1.527.594A4.22,4.22,0,0,0,34.832,60l4.109.008.031-.125a2.313,2.313,0,0,0-.316-1.637A1.488,1.488,0,0,0,37.395,57.57Zm7.82,8.406H43.934l6.75-12.352h1.273Zm15.477-3.266q.117-.875-.961-1.234l-1.469-.43q-1.859-.641-1.8-2.125a2.341,2.341,0,0,1,1.02-1.832,3.631,3.631,0,0,1,2.27-.7,3.027,3.027,0,0,1,2.082.746,2.363,2.363,0,0,1,.77,1.9L61.2,59.031A1.319,1.319,0,0,0,60.8,58a1.576,1.576,0,0,0-1.1-.414,2.059,2.059,0,0,0-1.266.359,1.316,1.316,0,0,0-.57.922q-.1.734.9,1.07l.711.2a4.577,4.577,0,0,1,2.063.977A1.865,1.865,0,0,1,62.1,62.6a2.37,2.37,0,0,1-.516,1.375,2.948,2.948,0,0,1-1.25.895,4.18,4.18,0,0,1-1.664.285,3.3,3.3,0,0,1-2.219-.785,2.427,2.427,0,0,1-.844-1.98l1.414.008a1.5,1.5,0,0,0,.453,1.141,1.732,1.732,0,0,0,1.242.43,2.436,2.436,0,0,0,1.336-.324A1.247,1.247,0,0,0,60.691,62.711Zm5.484-5.133A3.275,3.275,0,0,1,68.73,56.4a2.058,2.058,0,0,1,1.762.816,3.217,3.217,0,0,1,.426,2.246L70,65H68.582l.93-5.562a2.968,2.968,0,0,0,.008-.711,1.168,1.168,0,0,0-1.289-1.117A2.6,2.6,0,0,0,66,58.969L64.949,65H63.535l2.086-12h1.414Zm9.641,7.578a3.048,3.048,0,0,1-2.469-1.164,4.006,4.006,0,0,1-.75-2.9l.039-.336a5.624,5.624,0,0,1,.746-2.3,4.339,4.339,0,0,1,1.5-1.566,3.491,3.491,0,0,1,1.906-.5,2.688,2.688,0,0,1,2.047.867,3.566,3.566,0,0,1,.813,2.266,6.62,6.62,0,0,1-.031,1.016l-.086.648H74a2.856,2.856,0,0,0,.379,1.953,1.8,1.8,0,0,0,1.551.836,3.007,3.007,0,0,0,2.313-1.125l.813.688a3.718,3.718,0,0,1-1.371,1.2A3.886,3.886,0,0,1,75.816,65.156Zm.9-7.586a2.066,2.066,0,0,0-1.527.594A4.22,4.22,0,0,0,74.152,60l4.109.008.031-.125a2.313,2.313,0,0,0-.316-1.637A1.488,1.488,0,0,0,76.715,57.57Zm7.82,8.406H83.254L90,53.625h1.273ZM96.309,65H94.9l1.469-8.453h1.406Zm1.164-11.539a.774.774,0,0,1,.6.215.8.8,0,0,1,.238.605.834.834,0,0,1-.836.852.779.779,0,0,1-.6-.211.764.764,0,0,1-.227-.594.886.886,0,0,1,.234-.609A.826.826,0,0,1,97.473,53.461Zm4.883,1.039L102,56.547h1.539l-.2,1.117h-1.531l-.883,5.258a1.833,1.833,0,0,0-.008.375.6.6,0,0,0,.664.609,4.05,4.05,0,0,0,.688-.078l-.109,1.18a3.847,3.847,0,0,1-1.031.141,1.476,1.476,0,0,1-1.266-.621,2.4,2.4,0,0,1-.328-1.629l.859-5.234H98.9l.2-1.117h1.492l.359-2.047Z" transform="translate(578 3227)" fill="#12263f"/>
      <line id="Línea_646" data-name="Línea 646" x2="126" transform="translate(580.5 3274.5)" fill="none" stroke="#12263f" stroke-width="1"/>
    </g>
    <g id="Grupo_170858" data-name="Grupo 170858" transform="translate(-21 9)">
      <rect id="Rectángulo_41041" data-name="Rectángulo 41041" width="189.375" height="101" rx="10" transform="translate(927 3209)" fill="#6b8dfc"/>
      <path id="Trazado_170528" data-name="Trazado 170528" d="M35.641,14.156l3.828-8.531h2.625L36.477,17H34.086L32.039,5.625H34.5Zm9.531,3a3.677,3.677,0,0,1-1.965-.543,3.292,3.292,0,0,1-1.277-1.469,4.093,4.093,0,0,1-.328-2.059l.023-.312a5.465,5.465,0,0,1,.719-2.266,4.341,4.341,0,0,1,1.547-1.59,3.827,3.827,0,0,1,2.094-.527,2.926,2.926,0,0,1,2.473,1.2,4.105,4.105,0,0,1,.637,2.957l-.125.961h-5.18a1.814,1.814,0,0,0,.4,1.313,1.521,1.521,0,0,0,1.172.508,2.712,2.712,0,0,0,2.109-.93l1.008,1.25A3.135,3.135,0,0,1,47.1,16.77,4.5,4.5,0,0,1,45.172,17.156Zm.7-6.945a1.565,1.565,0,0,0-1.082.383,3.363,3.363,0,0,0-.848,1.383h3.031l.047-.2a2.071,2.071,0,0,0,.008-.594,1.134,1.134,0,0,0-.383-.707A1.2,1.2,0,0,0,45.875,10.211Zm9.539.453a4.548,4.548,0,0,0-.742-.078,2.136,2.136,0,0,0-1.867.883L51.828,17h-2.2l1.469-8.453,2.07-.008-.2,1.031a2.325,2.325,0,0,1,1.969-1.2,3.214,3.214,0,0,1,.766.109ZM63.492,12.8A6.061,6.061,0,0,1,62.273,16a3.033,3.033,0,0,1-2.547,1.164A2.357,2.357,0,0,1,57.7,16.086l-.32.914H55.367L57.445,5h2.211L58.8,9.32a2.634,2.634,0,0,1,2.063-.93,2.385,2.385,0,0,1,1.926.879,3.89,3.89,0,0,1,.746,2.387A9.132,9.132,0,0,1,63.492,12.8ZM61.3,12.633a6.515,6.515,0,0,0,.047-1.031q-.086-1.359-1.125-1.383a1.834,1.834,0,0,0-1.617.883L58,14.461a1.257,1.257,0,0,0,1.266.875q1.625.047,1.992-2.359Zm7.4,5.344H66.969l6.2-12.352h1.742Zm14.3-2.969,3.25-9.383H87.9L83.68,17H82.352L78.141,5.625h1.633Zm9.7,2.148a3.693,3.693,0,0,1-2.8-1.129,4.19,4.19,0,0,1-1.078-3.02v-.266a5.073,5.073,0,0,1,.48-2.246,3.748,3.748,0,0,1,1.344-1.547,3.378,3.378,0,0,1,1.871-.559,3.166,3.166,0,0,1,2.563,1.086A4.7,4.7,0,0,1,96,12.586v.6H90.273a3,3,0,0,0,.73,2.02,2.3,2.3,0,0,0,1.777.77,2.517,2.517,0,0,0,1.3-.312,3.259,3.259,0,0,0,.93-.828l.883.688A3.55,3.55,0,0,1,92.7,17.156Zm-.18-7.578a1.928,1.928,0,0,0-1.469.637A3.1,3.1,0,0,0,90.32,12h4.234v-.109a2.753,2.753,0,0,0-.594-1.707A1.815,1.815,0,0,0,92.523,9.578Zm9.234.266a4.331,4.331,0,0,0-.711-.055A1.9,1.9,0,0,0,99.117,11v6H97.672V8.547h1.406l.023.977a2.251,2.251,0,0,1,2.016-1.133,1.477,1.477,0,0,1,.641.109Zm8.484,3.023a5.026,5.026,0,0,1-.891,3.113,2.846,2.846,0,0,1-2.391,1.176,2.947,2.947,0,0,1-2.477-1.133l-.07.977h-1.328V5h1.445V9.477a2.93,2.93,0,0,1,2.414-1.086,2.863,2.863,0,0,1,2.418,1.164,5.177,5.177,0,0,1,.879,3.188ZM108.8,12.7a3.906,3.906,0,0,0-.57-2.281,1.888,1.888,0,0,0-1.641-.8,2.122,2.122,0,0,0-2.055,1.328V14.6a2.181,2.181,0,0,0,2.07,1.328,1.878,1.878,0,0,0,1.617-.8A4.153,4.153,0,0,0,108.8,12.7Zm2.883-.008a4.993,4.993,0,0,1,.488-2.234,3.643,3.643,0,0,1,1.359-1.531,3.7,3.7,0,0,1,1.988-.539,3.565,3.565,0,0,1,2.793,1.2,4.6,4.6,0,0,1,1.066,3.18v.1a5.036,5.036,0,0,1-.473,2.215,3.589,3.589,0,0,1-1.352,1.527,3.743,3.743,0,0,1-2.02.547,3.556,3.556,0,0,1-2.785-1.2A4.575,4.575,0,0,1,111.68,12.8Zm1.453.172a3.616,3.616,0,0,0,.652,2.258,2.211,2.211,0,0,0,3.5-.012,3.955,3.955,0,0,0,.648-2.418,3.61,3.61,0,0,0-.66-2.254,2.1,2.1,0,0,0-1.754-.863,2.075,2.075,0,0,0-1.727.852A3.925,3.925,0,0,0,113.133,12.867Zm-95,26.125,4.617-9.367H24.4L18.527,41h-1.3l-2.3-11.375h1.539ZM27.5,41.156a3.048,3.048,0,0,1-2.469-1.164,4.006,4.006,0,0,1-.75-2.9l.039-.336a5.624,5.624,0,0,1,.746-2.3,4.339,4.339,0,0,1,1.5-1.566,3.491,3.491,0,0,1,1.906-.5,2.688,2.688,0,0,1,2.047.867,3.566,3.566,0,0,1,.813,2.266,6.621,6.621,0,0,1-.031,1.016l-.086.648H25.684a2.856,2.856,0,0,0,.379,1.953,1.8,1.8,0,0,0,1.551.836,3.007,3.007,0,0,0,2.313-1.125l.813.688a3.718,3.718,0,0,1-1.371,1.2A3.886,3.886,0,0,1,27.5,41.156Zm.9-7.586a2.066,2.066,0,0,0-1.527.594A4.22,4.22,0,0,0,25.832,36l4.109.008.031-.125a2.313,2.313,0,0,0-.316-1.637A1.488,1.488,0,0,0,28.395,33.57Zm9,.266-.664-.07a2.42,2.42,0,0,0-2.141,1.227L33.551,41H32.137l1.469-8.453,1.367-.008-.211.984a2.527,2.527,0,0,1,2.117-1.148,2.594,2.594,0,0,1,.672.117Zm7.742,2.977a6.586,6.586,0,0,1-.711,2.336,3.982,3.982,0,0,1-1.344,1.539,3.058,3.058,0,0,1-1.75.477,2.61,2.61,0,0,1-2.273-1.148L38.77,41h-1.3l2.086-12h1.414l-.852,4.484a3.107,3.107,0,0,1,2.469-1.094,2.358,2.358,0,0,1,1.9.9A3.954,3.954,0,0,1,45.2,35.68a7.363,7.363,0,0,1-.047.969Zm-1.344-.82a3.015,3.015,0,0,0-.383-1.746,1.464,1.464,0,0,0-1.242-.637,2.573,2.573,0,0,0-2.234,1.328l-.633,3.68a1.8,1.8,0,0,0,1.758,1.32,2.053,2.053,0,0,0,1.449-.492,3.216,3.216,0,0,0,.941-1.465A6.594,6.594,0,0,0,43.793,35.992ZM51.707,41H50.3l1.469-8.453h1.406Zm1.164-11.539a.774.774,0,0,1,.6.215.8.8,0,0,1,.238.605.834.834,0,0,1-.836.852.779.779,0,0,1-.6-.211.764.764,0,0,1-.227-.594.886.886,0,0,1,.234-.609A.826.826,0,0,1,52.871,29.461Zm3.953,3.078-.2,1.07a3.333,3.333,0,0,1,2.594-1.219,2.1,2.1,0,0,1,1.766.828,3.217,3.217,0,0,1,.422,2.242L60.48,41H59.066L60,35.438A2.968,2.968,0,0,0,60,34.727a1.168,1.168,0,0,0-1.289-1.117,2.661,2.661,0,0,0-2.234,1.359L55.434,41H54.02l1.469-8.453Zm17.43,4.273a6.586,6.586,0,0,1-.711,2.336A3.982,3.982,0,0,1,72.2,40.688a3.058,3.058,0,0,1-1.75.477,2.61,2.61,0,0,1-2.273-1.148L67.887,41h-1.3l2.086-12h1.414l-.852,4.484A3.107,3.107,0,0,1,71.7,32.391a2.358,2.358,0,0,1,1.9.9,3.954,3.954,0,0,1,.719,2.391,7.362,7.362,0,0,1-.047.969Zm-1.344-.82a3.015,3.015,0,0,0-.383-1.746,1.464,1.464,0,0,0-1.242-.637,2.573,2.573,0,0,0-2.234,1.328l-.633,3.68a1.8,1.8,0,0,0,1.758,1.32,2.053,2.053,0,0,0,1.449-.492,3.216,3.216,0,0,0,.941-1.465A6.594,6.594,0,0,0,72.91,35.992ZM80.543,41a1.893,1.893,0,0,1-.055-.445l.023-.445a3.465,3.465,0,0,1-2.469,1.047,2.526,2.526,0,0,1-1.816-.707,2.14,2.14,0,0,1-.637-1.73,2.6,2.6,0,0,1,1.176-2.1,5.005,5.005,0,0,1,2.887-.754l1.477.008.094-.672A1.545,1.545,0,0,0,80.93,34a1.414,1.414,0,0,0-1.113-.457,2.181,2.181,0,0,0-1.285.355,1.513,1.513,0,0,0-.684.98l-1.422.008A2.266,2.266,0,0,1,77,33.574a3.363,3.363,0,0,1,1.3-.891,4.215,4.215,0,0,1,1.648-.3,2.8,2.8,0,0,1,2.055.8,2.484,2.484,0,0,1,.617,2.043l-.687,4.188-.039.6a2.949,2.949,0,0,0,.094.852L81.98,41Zm-2.219-1.094a2.466,2.466,0,0,0,1.285-.324,3.254,3.254,0,0,0,1.043-.941l.3-1.742-1.07-.008a4.054,4.054,0,0,0-2.047.422,1.554,1.554,0,0,0-.8,1.2,1.21,1.21,0,0,0,.277.988A1.321,1.321,0,0,0,78.324,39.906Zm10.8-1.2q.117-.875-.961-1.234l-1.469-.43q-1.859-.641-1.8-2.125a2.341,2.341,0,0,1,1.02-1.832,3.631,3.631,0,0,1,2.27-.7,3.027,3.027,0,0,1,2.082.746,2.363,2.363,0,0,1,.77,1.9l-1.406-.008a1.319,1.319,0,0,0-.4-1.031,1.576,1.576,0,0,0-1.1-.414,2.059,2.059,0,0,0-1.266.359,1.316,1.316,0,0,0-.57.922q-.1.734.9,1.07l.711.2a4.577,4.577,0,0,1,2.063.977,1.865,1.865,0,0,1,.563,1.492,2.37,2.37,0,0,1-.516,1.375,2.948,2.948,0,0,1-1.25.895,4.18,4.18,0,0,1-1.664.285,3.3,3.3,0,0,1-2.219-.785,2.427,2.427,0,0,1-.844-1.98l1.414.008a1.5,1.5,0,0,0,.453,1.141,1.732,1.732,0,0,0,1.242.43,2.436,2.436,0,0,0,1.336-.324A1.247,1.247,0,0,0,89.129,38.711Zm6.5,2.445a3.048,3.048,0,0,1-2.469-1.164,4.006,4.006,0,0,1-.75-2.9l.039-.336a5.624,5.624,0,0,1,.746-2.3,4.339,4.339,0,0,1,1.5-1.566,3.491,3.491,0,0,1,1.906-.5,2.688,2.688,0,0,1,2.047.867,3.566,3.566,0,0,1,.813,2.266,6.62,6.62,0,0,1-.031,1.016l-.086.648H93.816a2.856,2.856,0,0,0,.379,1.953,1.8,1.8,0,0,0,1.551.836,3.007,3.007,0,0,0,2.313-1.125l.813.688a3.718,3.718,0,0,1-1.371,1.2A3.886,3.886,0,0,1,95.629,41.156Zm.9-7.586A2.066,2.066,0,0,0,95,34.164,4.22,4.22,0,0,0,93.965,36l4.109.008.031-.125a2.313,2.313,0,0,0-.316-1.637A1.488,1.488,0,0,0,96.527,33.57ZM104.879,41l1.281-7.336h-1.3l.2-1.117h1.3l.141-1a3.318,3.318,0,0,1,.984-1.992,2.926,2.926,0,0,1,2.094-.734,4.914,4.914,0,0,1,1.008.133l-.172,1.18a4.636,4.636,0,0,0-.758-.094,1.611,1.611,0,0,0-1.191.457,2.083,2.083,0,0,0-.566,1.215l-.125.836h1.75l-.2,1.117h-1.75L106.293,41Zm9.477-8.609a3.047,3.047,0,0,1,1.82.578A3.285,3.285,0,0,1,117.3,34.52a4.8,4.8,0,0,1,.246,2.16l-.016.172a5.685,5.685,0,0,1-.734,2.23,4.309,4.309,0,0,1-1.516,1.551,3.7,3.7,0,0,1-2.039.523,3.052,3.052,0,0,1-1.816-.578,3.21,3.21,0,0,1-1.113-1.531,4.931,4.931,0,0,1-.25-2.133,5.76,5.76,0,0,1,.711-2.359,4.409,4.409,0,0,1,1.527-1.621A3.652,3.652,0,0,1,114.355,32.391Zm-2.875,4.531a4.8,4.8,0,0,0,0,1.023,2.507,2.507,0,0,0,.551,1.469,1.653,1.653,0,0,0,1.262.57,2.253,2.253,0,0,0,1.3-.348,2.919,2.919,0,0,0,1-1.121,4.721,4.721,0,0,0,.523-1.664,7.5,7.5,0,0,0,.023-1.211,2.6,2.6,0,0,0-.57-1.492,1.69,1.69,0,0,0-1.266-.578,2.3,2.3,0,0,0-1.859.859,4.245,4.245,0,0,0-.945,2.313Zm12.367-3.086-.664-.07a2.42,2.42,0,0,0-2.141,1.227L120,41H118.59l1.469-8.453,1.367-.008-.211.984a2.527,2.527,0,0,1,2.117-1.148,2.594,2.594,0,0,1,.672.117Zm2.859-1.3-.18.945a3.305,3.305,0,0,1,2.57-1.094,2.608,2.608,0,0,1,1.363.367,1.8,1.8,0,0,1,.77.992,3.49,3.49,0,0,1,2.8-1.359,2.235,2.235,0,0,1,1.867.852,3.042,3.042,0,0,1,.445,2.2L135.418,41h-1.406l.922-5.57a2.943,2.943,0,0,0,0-.742q-.148-1.062-1.391-1.086a2.136,2.136,0,0,0-1.4.48,2.222,2.222,0,0,0-.809,1.3L130.371,41h-1.422l.938-5.562a1.786,1.786,0,0,0-.262-1.336,1.377,1.377,0,0,0-1.129-.484,2.315,2.315,0,0,0-2.1,1.2L125.324,41H123.91l1.469-8.453ZM7.176,62.992l4.617-9.367h1.656L7.574,65h-1.3l-2.3-11.375H5.512Zm9.367,2.164a3.048,3.048,0,0,1-2.469-1.164,4.006,4.006,0,0,1-.75-2.9l.039-.336a5.624,5.624,0,0,1,.746-2.3,4.339,4.339,0,0,1,1.5-1.566,3.491,3.491,0,0,1,1.906-.5,2.688,2.688,0,0,1,2.047.867,3.566,3.566,0,0,1,.813,2.266,6.621,6.621,0,0,1-.031,1.016l-.086.648H14.73a2.856,2.856,0,0,0,.379,1.953,1.8,1.8,0,0,0,1.551.836,3.007,3.007,0,0,0,2.313-1.125l.813.688a3.718,3.718,0,0,1-1.371,1.2A3.886,3.886,0,0,1,16.543,65.156Zm.9-7.586a2.066,2.066,0,0,0-1.527.594A4.22,4.22,0,0,0,14.879,60l4.109.008.031-.125a2.313,2.313,0,0,0-.316-1.637A1.488,1.488,0,0,0,17.441,57.57Zm9,.266-.664-.07a2.42,2.42,0,0,0-2.141,1.227L22.6,65H21.184l1.469-8.453,1.367-.008-.211.984a2.527,2.527,0,0,1,2.117-1.148,2.594,2.594,0,0,1,.672.117Zm7.742,2.977a6.586,6.586,0,0,1-.711,2.336,3.982,3.982,0,0,1-1.344,1.539,3.058,3.058,0,0,1-1.75.477,2.61,2.61,0,0,1-2.273-1.148L27.816,65h-1.3L28.6,53h1.414l-.852,4.484a3.107,3.107,0,0,1,2.469-1.094,2.358,2.358,0,0,1,1.9.9,3.954,3.954,0,0,1,.719,2.391,7.363,7.363,0,0,1-.047.969Zm-1.344-.82a3.015,3.015,0,0,0-.383-1.746,1.464,1.464,0,0,0-1.242-.637,2.573,2.573,0,0,0-2.234,1.328l-.633,3.68a1.8,1.8,0,0,0,1.758,1.32,2.053,2.053,0,0,0,1.449-.492A3.216,3.216,0,0,0,32.5,61.98,6.594,6.594,0,0,0,32.84,59.992ZM40,56.391a3.047,3.047,0,0,1,1.82.578,3.285,3.285,0,0,1,1.121,1.551,4.8,4.8,0,0,1,.246,2.16l-.016.172a5.685,5.685,0,0,1-.734,2.23,4.309,4.309,0,0,1-1.516,1.551,3.7,3.7,0,0,1-2.039.523,3.052,3.052,0,0,1-1.816-.578,3.21,3.21,0,0,1-1.113-1.531,4.931,4.931,0,0,1-.25-2.133,5.76,5.76,0,0,1,.711-2.359,4.409,4.409,0,0,1,1.527-1.621A3.652,3.652,0,0,1,40,56.391Zm-2.875,4.531a4.8,4.8,0,0,0,0,1.023,2.507,2.507,0,0,0,.551,1.469,1.653,1.653,0,0,0,1.262.57,2.253,2.253,0,0,0,1.3-.348,2.919,2.919,0,0,0,1-1.121,4.721,4.721,0,0,0,.523-1.664,7.494,7.494,0,0,0,.023-1.211,2.6,2.6,0,0,0-.57-1.492,1.69,1.69,0,0,0-1.266-.578,2.3,2.3,0,0,0-1.859.859,4.245,4.245,0,0,0-.945,2.313Zm14.688,4.234a3.048,3.048,0,0,1-2.469-1.164,4.006,4.006,0,0,1-.75-2.9l.039-.336a5.624,5.624,0,0,1,.746-2.3,4.339,4.339,0,0,1,1.5-1.566,3.491,3.491,0,0,1,1.906-.5,2.688,2.688,0,0,1,2.047.867,3.566,3.566,0,0,1,.813,2.266,6.621,6.621,0,0,1-.031,1.016l-.086.648H50a2.856,2.856,0,0,0,.379,1.953,1.8,1.8,0,0,0,1.551.836,3.007,3.007,0,0,0,2.313-1.125l.813.688a3.718,3.718,0,0,1-1.371,1.2A3.886,3.886,0,0,1,51.809,65.156Zm.9-7.586a2.066,2.066,0,0,0-1.527.594A4.22,4.22,0,0,0,50.145,60l4.109.008.031-.125a2.313,2.313,0,0,0-.316-1.637A1.488,1.488,0,0,0,52.707,57.57Zm6.547-1.031-.2,1.07a3.333,3.333,0,0,1,2.594-1.219,2.1,2.1,0,0,1,1.766.828,3.217,3.217,0,0,1,.422,2.242L62.91,65H61.5l.93-5.562a2.968,2.968,0,0,0,.008-.711,1.168,1.168,0,0,0-1.289-1.117,2.661,2.661,0,0,0-2.234,1.359L57.863,65H56.449l1.469-8.453ZM69.7,65l1.281-7.336h-1.3l.2-1.117h1.3l.141-1a3.318,3.318,0,0,1,.984-1.992,2.926,2.926,0,0,1,2.094-.734,4.914,4.914,0,0,1,1.008.133l-.172,1.18a4.637,4.637,0,0,0-.758-.094,1.611,1.611,0,0,0-1.191.457,2.083,2.083,0,0,0-.566,1.215l-.125.836h1.75l-.2,1.117h-1.75L71.113,65Zm9.477-8.609a3.047,3.047,0,0,1,1.82.578,3.285,3.285,0,0,1,1.121,1.551,4.8,4.8,0,0,1,.246,2.16l-.016.172a5.685,5.685,0,0,1-.734,2.23A4.309,4.309,0,0,1,80.1,64.633a3.7,3.7,0,0,1-2.039.523,3.052,3.052,0,0,1-1.816-.578,3.21,3.21,0,0,1-1.113-1.531,4.931,4.931,0,0,1-.25-2.133,5.76,5.76,0,0,1,.711-2.359,4.409,4.409,0,0,1,1.527-1.621A3.652,3.652,0,0,1,79.176,56.391ZM76.3,60.922a4.8,4.8,0,0,0,0,1.023,2.507,2.507,0,0,0,.551,1.469,1.653,1.653,0,0,0,1.262.57,2.253,2.253,0,0,0,1.3-.348,2.919,2.919,0,0,0,1-1.121,4.721,4.721,0,0,0,.523-1.664,7.5,7.5,0,0,0,.023-1.211,2.6,2.6,0,0,0-.57-1.492,1.69,1.69,0,0,0-1.266-.578,2.3,2.3,0,0,0-1.859.859,4.245,4.245,0,0,0-.945,2.313Zm12.367-3.086L88,57.766a2.42,2.42,0,0,0-2.141,1.227L84.824,65H83.41l1.469-8.453,1.367-.008-.211.984a2.527,2.527,0,0,1,2.117-1.148,2.594,2.594,0,0,1,.672.117Zm2.859-1.3-.18.945a3.305,3.305,0,0,1,2.57-1.094,2.608,2.608,0,0,1,1.363.367,1.8,1.8,0,0,1,.77.992,3.49,3.49,0,0,1,2.8-1.359,2.235,2.235,0,0,1,1.867.852,3.042,3.042,0,0,1,.445,2.2L100.238,65H98.832l.922-5.57a2.943,2.943,0,0,0,0-.742q-.148-1.062-1.391-1.086a2.136,2.136,0,0,0-1.4.48,2.222,2.222,0,0,0-.809,1.3L95.191,65H93.77l.938-5.562a1.786,1.786,0,0,0-.262-1.336,1.377,1.377,0,0,0-1.129-.484,2.315,2.315,0,0,0-2.1,1.2L90.145,65H88.73L90.2,56.547ZM107.59,65a1.893,1.893,0,0,1-.055-.445l.023-.445a3.465,3.465,0,0,1-2.469,1.047,2.526,2.526,0,0,1-1.816-.707,2.14,2.14,0,0,1-.637-1.73,2.6,2.6,0,0,1,1.176-2.1,5.005,5.005,0,0,1,2.887-.754l1.477.008.094-.672a1.545,1.545,0,0,0-.293-1.2,1.414,1.414,0,0,0-1.113-.457,2.181,2.181,0,0,0-1.285.355,1.513,1.513,0,0,0-.684.98l-1.422.008a2.266,2.266,0,0,1,.578-1.316,3.363,3.363,0,0,1,1.3-.891,4.215,4.215,0,0,1,1.648-.3,2.8,2.8,0,0,1,2.055.8,2.484,2.484,0,0,1,.617,2.043l-.687,4.188-.039.6a2.949,2.949,0,0,0,.094.852l-.016.133Zm-2.219-1.094a2.466,2.466,0,0,0,1.285-.324,3.254,3.254,0,0,0,1.043-.941L108,60.9l-1.07-.008a4.054,4.054,0,0,0-2.047.422,1.554,1.554,0,0,0-.8,1.2,1.21,1.21,0,0,0,.277.988A1.321,1.321,0,0,0,105.371,63.906Zm17.164-3.094a6.586,6.586,0,0,1-.711,2.336,3.982,3.982,0,0,1-1.344,1.539,3.058,3.058,0,0,1-1.75.477,2.61,2.61,0,0,1-2.273-1.148l-.289.984h-1.3l2.086-12h1.414l-.852,4.484a3.107,3.107,0,0,1,2.469-1.094,2.358,2.358,0,0,1,1.9.9,3.954,3.954,0,0,1,.719,2.391,7.362,7.362,0,0,1-.047.969Zm-1.344-.82a3.015,3.015,0,0,0-.383-1.746,1.464,1.464,0,0,0-1.242-.637,2.573,2.573,0,0,0-2.234,1.328l-.633,3.68a1.8,1.8,0,0,0,1.758,1.32,2.053,2.053,0,0,0,1.449-.492,3.216,3.216,0,0,0,.941-1.465A6.594,6.594,0,0,0,121.191,59.992ZM128.824,65a1.894,1.894,0,0,1-.055-.445l.023-.445a3.465,3.465,0,0,1-2.469,1.047,2.526,2.526,0,0,1-1.816-.707,2.14,2.14,0,0,1-.637-1.73,2.6,2.6,0,0,1,1.176-2.1,5.005,5.005,0,0,1,2.887-.754l1.477.008.094-.672a1.545,1.545,0,0,0-.293-1.2,1.414,1.414,0,0,0-1.113-.457,2.181,2.181,0,0,0-1.285.355,1.513,1.513,0,0,0-.684.98l-1.422.008a2.266,2.266,0,0,1,.578-1.316,3.363,3.363,0,0,1,1.3-.891,4.215,4.215,0,0,1,1.648-.3,2.8,2.8,0,0,1,2.055.8,2.484,2.484,0,0,1,.617,2.043l-.687,4.188-.039.6a2.949,2.949,0,0,0,.094.852l-.016.133Zm-2.219-1.094a2.466,2.466,0,0,0,1.285-.324,3.254,3.254,0,0,0,1.043-.941l.3-1.742-1.07-.008a4.054,4.054,0,0,0-2.047.422,1.554,1.554,0,0,0-.8,1.2,1.21,1.21,0,0,0,.277.988A1.321,1.321,0,0,0,126.605,63.906Zm10.8-1.2q.117-.875-.961-1.234l-1.469-.43q-1.859-.641-1.8-2.125a2.341,2.341,0,0,1,1.02-1.832,3.631,3.631,0,0,1,2.27-.7,3.027,3.027,0,0,1,2.082.746,2.363,2.363,0,0,1,.77,1.9l-1.406-.008a1.319,1.319,0,0,0-.4-1.031,1.576,1.576,0,0,0-1.1-.414,2.059,2.059,0,0,0-1.266.359,1.316,1.316,0,0,0-.57.922q-.1.734.9,1.07l.711.2a4.577,4.577,0,0,1,2.063.977,1.865,1.865,0,0,1,.563,1.492,2.37,2.37,0,0,1-.516,1.375,2.948,2.948,0,0,1-1.25.895,4.18,4.18,0,0,1-1.664.285,3.3,3.3,0,0,1-2.219-.785,2.427,2.427,0,0,1-.844-1.98l1.414.008a1.5,1.5,0,0,0,.453,1.141,1.732,1.732,0,0,0,1.242.43,2.436,2.436,0,0,0,1.336-.324A1.247,1.247,0,0,0,137.41,62.711Zm6.5,2.445a3.048,3.048,0,0,1-2.469-1.164,4.006,4.006,0,0,1-.75-2.9l.039-.336a5.624,5.624,0,0,1,.746-2.3,4.339,4.339,0,0,1,1.5-1.566,3.491,3.491,0,0,1,1.906-.5,2.688,2.688,0,0,1,2.047.867,3.566,3.566,0,0,1,.813,2.266,6.621,6.621,0,0,1-.031,1.016l-.086.648H142.1a2.855,2.855,0,0,0,.379,1.953,1.8,1.8,0,0,0,1.551.836,3.007,3.007,0,0,0,2.313-1.125l.813.688a3.718,3.718,0,0,1-1.371,1.2A3.886,3.886,0,0,1,143.91,65.156Zm.9-7.586a2.066,2.066,0,0,0-1.527.594A4.22,4.22,0,0,0,142.246,60l4.109.008.031-.125a2.313,2.313,0,0,0-.316-1.637A1.488,1.488,0,0,0,144.809,57.57Z" transform="translate(946 3226)" fill="#12263f"/>
      <line id="Línea_647" data-name="Línea 647" x2="156" transform="translate(941.5 3273.5)" fill="none" stroke="#12263f" stroke-width="1"/>
    </g>
  </g>
</svg>
