<svg id="_11" data-name="11" xmlns="http://www.w3.org/2000/svg" xmlns:xlink="http://www.w3.org/1999/xlink" width="494.594" height="143.43" viewBox="0 0 494.594 143.43">
  <defs>
    <clipPath id="clip-path">
      <path id="Trazado_165776" data-name="Trazado 165776" d="M0,0H494.594V143.429H0Z" fill="#ffbfc1"/>
    </clipPath>
    <clipPath id="clip-path-2">
      <rect id="Rectángulo_43146" data-name="Rectángulo 43146" width="235.488" height="313.469" fill="none"/>
    </clipPath>
    <clipPath id="clip-path-4">
      <path id="Trazado_165782" data-name="Trazado 165782" d="M172.332,361.147a8.747,8.747,0,0,1,.518,3.279c-.172,1.381-1.433,2.433-1.036,3.625.346,1.035,2.261,1.3,4.717,1.15,2.328-.144,3.971-.748,4.315-1.784.495-1.482-1.266-2.818-1.438-4.027a27.941,27.941,0,0,1-.173-3.107Z" transform="translate(-171.738 -360.284)" fill="none"/>
    </clipPath>
    <linearGradient id="linear-gradient" x1="-14.378" y1="1.486" x2="-14.294" y2="1.486" gradientUnits="objectBoundingBox">
      <stop offset="0" stop-color="#ffb7a7"/>
      <stop offset="1" stop-color="#ff9595"/>
    </linearGradient>
    <clipPath id="clip-path-5">
      <path id="Trazado_165783" data-name="Trazado 165783" d="M125.527,359.212s.346,2.761-.689,3.969-8.989,3.719-8.989,3.719c.215,2.7,16.41,2.724,17.446-2.684A38.689,38.689,0,0,1,135.365,358Z" transform="translate(-115.848 -358.003)" fill="none"/>
    </clipPath>
    <linearGradient id="linear-gradient-2" x1="-4.942" y1="1.323" x2="-4.9" y2="1.323" xlink:href="#linear-gradient"/>
    <clipPath id="clip-path-7">
      <path id="Trazado_165792" data-name="Trazado 165792" d="M139.687,168.63c-7.594,2.3-17.713,5.353-27.01,6.847-9.061,3.279-16.2,2.246-16.087,4.087.067,1.087,2.823.863,5.094.639,1.575-.155,2.917-.311,2.964-.028.055.325-1.825.554-4.094.808-2.554.286-4.411.374-4.244,1.514.16,1.094,2.892.867,5.275.639,1.878-.179,3.54-.358,3.556.108.028.806-6.415.575-6.333,1.59.156,1.943,8.778.309,17.086-.56,8.918-.933,12.863.006,27.36-2.755s23.127-5.293,32.562-9.55l2.992-20.826c-4.373,3.913-31.526,15.188-39.12,17.489" transform="translate(-96.299 -151.141)" fill="none"/>
    </clipPath>
    <linearGradient id="linear-gradient-3" x1="-0.868" y1="3.638" x2="-0.858" y2="3.638" xlink:href="#linear-gradient"/>
    <clipPath id="clip-path-9">
      <path id="Trazado_165796" data-name="Trazado 165796" d="M207.385,128.286c2.206,5.428-5.2,10.074-11.637,16.246,0,0,6.075,10.028,18.572,8.963s20.739-15.764,20.739-15.764c-7.677-4.421-14.629-5.7-16.666-10.983-1.679-4.351-1.319-9.172-.346-13.791,0,0-9.371,9.079-10.662,15.328" transform="translate(-195.748 -112.958)" fill="none"/>
    </clipPath>
    <linearGradient id="linear-gradient-4" x1="-3.777" y1="4.934" x2="-3.757" y2="4.934" xlink:href="#linear-gradient"/>
    <clipPath id="clip-path-11">
      <path id="Trazado_165798" data-name="Trazado 165798" d="M184.6,90.586c.022,25.177,12.6,33.774,16.369,33.536,5.712-.36,15.068-5.556,18.464-18.283a6.968,6.968,0,0,0,6.917-5.82c.624-3.13-.784-6.707-4.547-6.172-2.172.216-3.31,4.321-3.31,4.321-3.8,0-4.488-5.868-4.488-5.868-18.2-2.225-22.267-14.315-22.267-14.315a15.518,15.518,0,0,0-7.137,12.6" transform="translate(-184.602 -77.985)" fill="#fd9595"/>
    </clipPath>
    <clipPath id="clip-path-13">
      <rect id="Rectángulo_43122" data-name="Rectángulo 43122" width="11.263" height="2.149" fill="none"/>
    </clipPath>
    <clipPath id="clip-path-14">
      <path id="Trazado_165813" data-name="Trazado 165813" d="M229.655,196.9a218.737,218.737,0,0,0,6.213,47.288h18.985s.69-3.279-11.736-6.559c0,0,.346-17.6,1.381-39s8.975-51.085-2.416-52.466a4.991,4.991,0,0,0-.605-.037c-9.176,0-12.159,26.114-11.821,50.779" transform="translate(-229.629 -146.122)" fill="none"/>
    </clipPath>
    <linearGradient id="linear-gradient-5" x1="-7.278" y1="1.956" x2="-7.247" y2="1.956" xlink:href="#linear-gradient"/>
    <clipPath id="clip-path-16">
      <path id="Trazado_165826" data-name="Trazado 165826" d="M137.393,129.06c-1.275,1.864-17.61,15.713-21.925,14.85-3.324-.664-5.624-13.957-5.624-13.957l-15.259,4.235s6.144,23.73,19.1,24.392c15.763.805,27.324-23.466,27.869-24.174s4.887-.265,6.411-1.262c.77-.5,3.41-5.406,2.884-7.3s-7.37-2.849-7.37-2.849l1.1-2.685c-6.261,1.047-5.91,6.888-7.184,8.752" transform="translate(-94.585 -120.308)" fill="none"/>
    </clipPath>
    <linearGradient id="linear-gradient-6" x1="-1.387" y1="5.458" x2="-1.372" y2="5.458" xlink:href="#linear-gradient"/>
    <clipPath id="clip-path-18">
      <path id="Trazado_165841" data-name="Trazado 165841" d="M86.038,62.452c-3.68,4.3-10.661,3.192-19.373,4.8,0,0,5.077,11.4,16.5,16.571s18.294,2.94,18.294,2.94C97.449,78.8,92.016,71.951,95.9,67.569c.865-6.322-4.943-18.005-4.943-18.005-.623,4.679-1.889,9.344-4.923,12.888" transform="translate(-66.665 -49.564)" fill="none"/>
    </clipPath>
    <linearGradient id="linear-gradient-7" x1="-0.95" y1="5.764" x2="-0.934" y2="5.764" xlink:href="#linear-gradient"/>
    <clipPath id="clip-path-20">
      <path id="Trazado_165843" data-name="Trazado 165843" d="M100.355,31.729s-3.1,7.455-5.72,4.981c0,0,.831-4.475-1.146-5.4-3.37-1.758-5.889,1.146-6.344,4.3A6.969,6.969,0,0,0,91.727,43.4c-1.038,13.131,6.052,21.148,11.316,23.391,3.479,1.481,18.2-2.434,26.609-26.166a15.515,15.515,0,0,0-2.531-14.258s-8.866,9.324-26.766,5.358" transform="translate(-87.065 -26.371)" fill="none"/>
    </clipPath>
    <linearGradient id="linear-gradient-8" x1="-1.33" y1="5.446" x2="-1.314" y2="5.446" xlink:href="#linear-gradient"/>
    <clipPath id="clip-path-22">
      <rect id="Rectángulo_43131" data-name="Rectángulo 43131" width="10.21" height="4.936" fill="none"/>
    </clipPath>
    <clipPath id="clip-path-23">
      <path id="Trazado_165868" data-name="Trazado 165868" d="M51.948,123.719s8.232,18.6,20.831,30.164A86.667,86.667,0,0,0,99.7,170.566c1.5.69,1.726,2.531,3.337,5.868,1.853,3.838,2.694,4.3,3.8,4.142,1.61-.23-.287-2.474.143-2.733.213-.127.517.679,1,1.485.491.825,1.165,1.651,2.113,1.473,1.84-.345-.519-3.246-.087-3.39.2-.065.583.7,1.1,1.464.615.913,1.412,1.825,2.29,1.324,1.9-1.082-1.4-3.347-2.595-6.866-1.138-3.343-.677-4.383-.677-4.383l4-.941c-1.757-3.2-7.855-1.931-7.855-1.931a222.331,222.331,0,0,1-22.782-21.4C72.433,132.6,67.135,117.334,67.135,117.334Z" transform="translate(-51.948 -117.334)" fill="none"/>
    </clipPath>
    <linearGradient id="linear-gradient-9" x1="-0.683" y1="3.39" x2="-0.67" y2="3.39" xlink:href="#linear-gradient"/>
    <clipPath id="clip-path-25">
      <path id="Trazado_165881" data-name="Trazado 165881" d="M148.8,122.618c-1.525,1.817-1.725,4.315-2.53,5.983,2.992,1.381,4.774-1.554,4.526-3.769.345-1.036,3.285-3.4,2.148-4.76a.442.442,0,0,0-.359-.146c-.926,0-2.933,1.677-3.785,2.691" transform="translate(-146.266 -119.927)" fill="none"/>
    </clipPath>
    <linearGradient id="linear-gradient-10" x1="-15.592" y1="21.242" x2="-15.485" y2="21.242" xlink:href="#linear-gradient"/>
  </defs>
  <path id="Trazado_156666" data-name="Trazado 156666" d="M0,0H494.594V143.429H0Z" fill="#e1e8ff"/>
  <g id="Enmascarar_grupo_249" data-name="Enmascarar grupo 249" clip-path="url(#clip-path)">
    <g id="Grupo_170629" data-name="Grupo 170629" transform="translate(-8.689 -240.274)">
      <rect id="Rectángulo_43083" data-name="Rectángulo 43083" width="519.746" height="349.477" rx="11" transform="translate(35.299 146.409)" fill="#a6bbff"/>
      <g id="Grupo_170486" data-name="Grupo 170486" transform="translate(0 0)">
        <path id="Trazado_165206" data-name="Trazado 165206" d="M493.427,128.944C489.672,65.2,445.106,4.333,384.748.558,315.424-5.269,251.792,36.443,182.737,36.884,147.525,40.2,114.5,25.4,80.186,20.627,2.682,17.506-9.127,117.435,5.328,181.847,66.287,485.51,497.647,444.195,493.427,128.944Z" transform="translate(533.588 190.886) rotate(132)" fill="#a6bbff"/>
        <path id="Trazado_165207" data-name="Trazado 165207" d="M.018,77.647C2.2,39.26,28.163,2.609,63.319.336,103.7-3.173,140.76,21.945,180.982,22.21c20.51,1.994,39.744-6.913,59.732-9.79,45.143-1.88,52.021,58.3,43.6,97.083C248.81,292.36-2.441,267.481.018,77.647Z" transform="translate(203.811 532.462) rotate(-81)" fill="#a6bbff" opacity="0.388" style="mix-blend-mode: multiply;isolation: isolate"/>
        <path id="Trazado_165208" data-name="Trazado 165208" d="M.026,112.166C3.185,56.714,40.683,3.769,91.468.485c58.33-5.069,111.87,31.215,169.973,31.6,29.628,2.881,57.413-9.987,86.287-14.142,65.212-2.715,75.148,84.211,62.986,140.242C359.422,422.334-3.526,386.394.026,112.166Z" transform="matrix(0.695, -0.719, 0.719, 0.695, 232.726, 371.691)" fill="#a6bbff" opacity="0.388" style="mix-blend-mode: multiply;isolation: isolate"/>
        <path id="Trazado_165209" data-name="Trazado 165209" d="M.026,112.166C3.185,56.714,40.683,3.769,91.468.485c58.33-5.069,111.87,31.215,169.973,31.6,29.628,2.881,57.413-9.987,86.287-14.142,65.212-2.715,75.148,84.211,62.986,140.242C359.422,422.334-3.526,386.394.026,112.166Z" transform="translate(224.016 231.237) rotate(90)" fill="#a6bbff" opacity="0.388" style="mix-blend-mode: multiply;isolation: isolate"/>
      </g>
    </g>
    <g id="Grupo_170628" data-name="Grupo 170628" transform="translate(137 -20.846)">
      <g id="Grupo_170627" data-name="Grupo 170627" clip-path="url(#clip-path-2)">
        <g id="Grupo_170578" data-name="Grupo 170578">
          <g id="Grupo_170577" data-name="Grupo 170577" clip-path="url(#clip-path-2)">
            <path id="Trazado_165777" data-name="Trazado 165777" d="M176.4,75.031c-4.56,6.308-6.774,15.587-3.831,23.019,3.3,8.346,12.016,13.431,16.623,21.028a.439.439,0,0,0,.758-.444c-2.542-5.587-7.2-9.135-11.271-13.575-8.316-9.06-7.3-19.472-1.837-29.77a.256.256,0,0,0-.442-.258" transform="translate(-28.657 -12.537)" fill="#b97953"/>
            <rect id="Rectángulo_43111" data-name="Rectángulo 43111" width="96.303" height="89.975" transform="translate(133.926 219.504)" fill="#d4def1"/>
            <path id="Trazado_165778" data-name="Trazado 165778" d="M238.4,263.624H160.845v43.4c4.634,22.486,8.284,36.678,8.284,36.678a8.857,8.857,0,0,0,5.608,2.353,6.592,6.592,0,0,1,.2,2.192,3.27,3.27,0,0,1-.211.789c-.011.03-.026.061-.037.092-.094.228-.2.449-.314.665-.744,1.326-2.052,2.58-2.152,3.8h11.719a8.18,8.18,0,0,0-1.682-4.808,4.544,4.544,0,0,1-.764-1.578,22.636,22.636,0,0,1-.162-2.366,23.072,23.072,0,0,0,2.75-1.373s2.531-23.7.69-46.023-6.444-33.6-6.444-33.6h59.831s.086-.077.24-.23" transform="translate(-26.919 -44.12)" fill="#a5adbc"/>
            <path id="Trazado_165779" data-name="Trazado 165779" d="M255.81,279.732H160.656a4.372,4.372,0,0,1-4.371-4.372V268a4.372,4.372,0,0,1,4.371-4.372H255.81A4.372,4.372,0,0,1,260.182,268v7.364a4.372,4.372,0,0,1-4.372,4.372" transform="translate(-26.156 -44.12)" fill="#626376"/>
            <rect id="Rectángulo_43112" data-name="Rectángulo 43112" width="96.303" height="6.903" transform="translate(133.926 235.613)" fill="#a5adbc"/>
            <path id="Trazado_165780" data-name="Trazado 165780" d="M172.309,366.081c-.563,1.627-2.418,3.137-2.5,4.6-.074,1.266-.258,3.236,5.537,3.236,4.432,0,5.835-1.309,6.113-2.7.56-2.819-1.9-5.761-1.9-5.761Z" transform="translate(-28.415 -61.162)" fill="#363344"/>
            <path id="Trazado_165781" data-name="Trazado 165781" d="M131.436,366.019c-.346,2.186.805,4.948-.115,6.559s-25.09,2.258-25.2-.618c-.072-1.928,9.669-4.1,9.669-4.1Z" transform="translate(-17.761 -61.256)" fill="#363344"/>
          </g>
        </g>
        <g id="Grupo_170580" data-name="Grupo 170580" transform="translate(142.996 299.987)">
          <g id="Grupo_170579" data-name="Grupo 170579" clip-path="url(#clip-path-4)">
            <rect id="Rectángulo_43114" data-name="Rectángulo 43114" width="9.923" height="9.069" transform="translate(-0.32)" fill="url(#linear-gradient)"/>
          </g>
        </g>
        <g id="Grupo_170582" data-name="Grupo 170582" transform="translate(96.46 298.088)">
          <g id="Grupo_170581" data-name="Grupo 170581" clip-path="url(#clip-path-5)">
            <rect id="Rectángulo_43115" data-name="Rectángulo 43115" width="19.517" height="11.622" transform="translate(0 0)" fill="url(#linear-gradient-2)"/>
          </g>
        </g>
        <g id="Grupo_170584" data-name="Grupo 170584">
          <g id="Grupo_170583" data-name="Grupo 170583" clip-path="url(#clip-path-2)">
            <path id="Trazado_165784" data-name="Trazado 165784" d="M185.388,222.445s-43.837,9.32-48.67,17.6-7.594,31.066-10.01,49.705-4.833,44.873-4.833,44.873,6.213,6.213,15.878,1.726c0,0,10.7-25.2,12.082-46.253s5.523-34.518,5.523-34.518l35.207-27.959Z" transform="translate(-20.397 -37.228)" fill="#e7c9ce"/>
            <path id="Trazado_165785" data-name="Trazado 165785" d="M187.006,222.445s-43.837,9.32-48.67,17.6a28.293,28.293,0,0,0-2.214,5.154c4.17,9.459,8.312,23.61,8.657,50.535.235,18.339-8.675,35.67-13.238,42.212a15.925,15.925,0,0,0,7.83-1.6s10.7-25.2,12.082-46.253,5.523-34.517,5.523-34.517l35.207-27.959Z" transform="translate(-22.014 -37.228)" fill="#d7b5bb"/>
            <path id="Trazado_165786" data-name="Trazado 165786" d="M191.575,225.9S151.3,233.727,146.7,239.71s1.611,31.066,6.674,56.148,9.2,41.192,9.2,41.192,5.063,5.522,14.958-.231c0,0,2.531-23.7.69-46.023s-6.444-33.6-6.444-33.6h59.83a34.1,34.1,0,0,0,9.9-24.162c-.23-14.958-49.935-7.134-49.935-7.134" transform="translate(-24.282 -37.465)" fill="#f9e5e8"/>
            <path id="Trazado_165787" data-name="Trazado 165787" d="M195.858,225.9s-.687.133-1.889.379c3.689,12.874,30.654,13.888,30.654,13.888L226,251.215s-54.077-.92-55.227,1.151,8.974,19.1,9.9,39.81c.794,17.865-3.035,40.866-4.1,46.849a20.122,20.122,0,0,0,5.253-2.207s2.531-23.7.69-46.023-6.444-33.6-6.444-33.6H235.9a34.1,34.1,0,0,0,9.9-24.162c-.23-14.957-49.935-7.133-49.935-7.133" transform="translate(-28.566 -37.464)" fill="#e7c9ce"/>
            <path id="Trazado_165788" data-name="Trazado 165788" d="M187.591,65.255s-14.65-1.644-13.764,22.261c.46,12.426,9.9,16.569,14.727,29.685,2.918,7.919,0,18.467,5.868,26.233s22.092,4.66,22.092,4.66,22.091,8.974,37.278-3.452S260,113.232,260,113.232s5.868-5.523,1.208-16.051-12.332-5.973-19.58-10.633-13.384-30.961-36.856-30.961c-14.328,0-17.186,9.668-17.186,9.668" transform="translate(-29.085 -9.303)" fill="#b97953"/>
            <path id="Trazado_165789" data-name="Trazado 165789" d="M192.2,122.95c1.726,7.594,10.01,10.182,9.838,12.081s-6.4,7.013-8.4,8.32a28.938,28.938,0,0,0,1.285,6.163c4.438-2.05,14.015-6.888,14.015-6.888l1.553-15.533s-19.565-9.737-18.294-4.142" transform="translate(-32.156 -20.287)" fill="#985d3f"/>
            <path id="Trazado_165790" data-name="Trazado 165790" d="M190.958,77.986s-10.294,1.658-10.984,14.774c-.782,14.853,8.92,17.492,10.758,24.277,8.12-9.342,4.833-23.9.226-39.052" transform="translate(-30.113 -13.052)" fill="#985d3f"/>
            <path id="Trazado_165791" data-name="Trazado 165791" d="M244.667,135.044c-6.558-11.908-21.746-7.249-24.507-14.152-2.575-6.435,2.244-13.117,2.244-13.117s4.142-.172,6.386-6.731a6.673,6.673,0,0,0-3.8-8.8,8.1,8.1,0,0,0,4.833-6.213s-3.107,4.487-15.36,2.934-21.29-10.978-21.29-10.978l30.668,75.174c4.978,1.354,13.805,2.962,22.49.644.974-.26,2.1-11.927-1.666-18.759" transform="translate(-32.329 -13.052)" fill="#985d3f"/>
          </g>
        </g>
        <g id="Grupo_170586" data-name="Grupo 170586" transform="translate(80.183 125.846)">
          <g id="Grupo_170585" data-name="Grupo 170585" clip-path="url(#clip-path-7)">
            <rect id="Rectángulo_43117" data-name="Rectángulo 43117" width="88.733" height="54.107" transform="translate(-8.316 1.978) rotate(-13.627)" fill="url(#linear-gradient-3)"/>
          </g>
        </g>
        <g id="Grupo_170588" data-name="Grupo 170588">
          <g id="Grupo_170587" data-name="Grupo 170587" clip-path="url(#clip-path-2)">
            <path id="Trazado_165793" data-name="Trazado 165793" d="M157.113,164.343c-3.254,1.369-6.444,2.659-9.249,3.744-1.805,5.054,1.877,11.613,1.877,11.613s-3.566,1.61-11.851,2.761-15.506,1.83-16.684-.23a9.646,9.646,0,0,1-1.5-5.638l-1.956.345-5.293,8.744s-11.178,1.781-12.923,1.473c-.137-.024-.216-.062-.226-.113.156,1.943,8.779.309,17.086-.56,8.918-.933,12.863.006,27.36-2.756,6-1.142,11-2.246,15.458-3.449Z" transform="translate(-16.621 -27.504)" fill="#d27a84"/>
            <path id="Trazado_165794" data-name="Trazado 165794" d="M159.964,164.01c-1.381,4.315,3.107,16.4,6.9,16.913,2.987.407,21.056-5.7,22.092-7.421s-2.59-8.974-3.624-12.771,0-7.421-1.726-7.939-8.8,3.8-12.426,5.7-10.535,3.386-11.218,5.523" transform="translate(-26.729 -25.564)" fill="#363344"/>
            <path id="Trazado_165795" data-name="Trazado 165795" d="M195.1,148.885c-1.1-.964-2.171,1.458-2.171,1.458-3.531-1.732-3.376,2.143-3.376,2.143s-1.012,11.932,6.294,17.915Z" transform="translate(-31.715 -24.879)" fill="#6b80af"/>
          </g>
        </g>
        <g id="Grupo_170590" data-name="Grupo 170590" transform="translate(162.988 94.054)">
          <g id="Grupo_170589" data-name="Grupo 170589" clip-path="url(#clip-path-9)">
            <rect id="Rectángulo_43119" data-name="Rectángulo 43119" width="42.705" height="44.794" transform="translate(-3.523 0.301) rotate(-4.876)" fill="url(#linear-gradient-4)"/>
          </g>
        </g>
        <g id="Grupo_170592" data-name="Grupo 170592">
          <g id="Grupo_170591" data-name="Grupo 170591" clip-path="url(#clip-path-2)">
            <path id="Trazado_165797" data-name="Trazado 165797" d="M220.751,126.729c-1.9-6.087.852-8.174,2.158-14.032,0,0-13.705,7.832-15,14.082,1.257,1.233,1.769,5.042.187,7.794,5.494,7.6,20.579,8.544,28.016,2.393-6.554-4.007-13.761-5.095-15.366-10.237" transform="translate(-34.796 -18.861)" fill="#d27a84"/>
          </g>
        </g>
        <g id="Grupo_170594" data-name="Grupo 170594" transform="translate(153.707 64.934)">
          <g id="Grupo_170593" data-name="Grupo 170593" clip-path="url(#clip-path-11)">
            <rect id="Rectángulo_43121" data-name="Rectángulo 43121" width="46.944" height="50.313" transform="translate(-4.751 0.442) rotate(-5.599)" fill="#fd9595"/>
          </g>
        </g>
        <g id="Grupo_170599" data-name="Grupo 170599">
          <g id="Grupo_170598" data-name="Grupo 170598" clip-path="url(#clip-path-2)">
            <path id="Trazado_165799" data-name="Trazado 165799" d="M231.476,103.86c-.316,1.513-1.5,2.545-2.649,2.306s-1.823-1.659-1.507-3.172,1.5-2.545,2.649-2.306,1.823,1.66,1.507,3.172" transform="translate(-38.031 -16.845)" fill="#d27a84"/>
            <path id="Trazado_165800" data-name="Trazado 165800" d="M197.958,103.2a8.51,8.51,0,0,0-2.3-7.091,7.629,7.629,0,0,1,2.755,3.118,7.539,7.539,0,0,1,.848,4.056,10.305,10.305,0,0,1-3.835,6.65,8.187,8.187,0,0,0,4.2,2.289c-2.9.147-4.725-.871-6.791-2.348,2.566-1.689,4.744-3.824,5.122-6.674" transform="translate(-32.273 -16.085)" fill="#d27a84"/>
            <path id="Trazado_165801" data-name="Trazado 165801" d="M202.258,93.347c-.212,1.12,2.993,1.813,6.129,1.905,2.628.077,5.456-.364,5.433-.814-.027-.51-2.514-.511-5.018-.939-3.181-.543-6.346-1.192-6.544-.152" transform="translate(-33.848 -15.53)" fill="#985d3f"/>
            <path id="Trazado_165802" data-name="Trazado 165802" d="M191.068,95.266c.469,1.019-1.419,2.455-3.437,3.3-1.692.709-3.669.969-3.786.533-.133-.494,1.49-1.1,3-2.108,1.916-1.286,3.79-2.669,4.226-1.724" transform="translate(-30.767 -15.891)" fill="#985d3f"/>
            <path id="Trazado_165803" data-name="Trazado 165803" d="M206.953,120.18a29.935,29.935,0,0,0-6.667-.5,13.116,13.116,0,0,0-4.6,1.729,5.288,5.288,0,0,0,5.345,2.644,9.115,9.115,0,0,0,5.918-3.875" transform="translate(-32.75 -20.019)" fill="#d87b7c"/>
            <g id="Grupo_170597" data-name="Grupo 170597" transform="translate(162.94 99.546)" opacity="0.3" style="mix-blend-mode: multiply;isolation: isolate">
              <g id="Grupo_170596" data-name="Grupo 170596">
                <g id="Grupo_170595" data-name="Grupo 170595" clip-path="url(#clip-path-13)">
                  <path id="Trazado_165804" data-name="Trazado 165804" d="M200.725,121.594a16.357,16.357,0,0,1-5.018-.164l-.017-.03a10.713,10.713,0,0,1,4.789-1.754,20.4,20.4,0,0,1,6.474.523,39.323,39.323,0,0,1-6.228,1.425" transform="translate(-195.69 -119.555)" fill="#80689c"/>
                </g>
              </g>
            </g>
            <path id="Trazado_165805" data-name="Trazado 165805" d="M213.07,99.923a16.7,16.7,0,0,1-1.244,1.144,7.256,7.256,0,0,1-2.926,1.575,3.572,3.572,0,0,1-.4.085,3.7,3.7,0,0,1-.473.041,3.415,3.415,0,0,1-.749-.065,3.251,3.251,0,0,1-1.338-.614,6.051,6.051,0,0,1-1.172-1.163,3.188,3.188,0,0,0,.6,1.693,3.5,3.5,0,0,0,1.54,1.244,3.328,3.328,0,0,0,1.173.237,4.714,4.714,0,0,0,.53-.019,4.2,4.2,0,0,0,.6-.094,5.263,5.263,0,0,0,3.2-2.417,4.675,4.675,0,0,0,.654-1.645" transform="translate(-34.27 -16.723)" fill="#4e3a5e"/>
            <path id="Trazado_165806" data-name="Trazado 165806" d="M212.8,102.547s1.684.739,1.784.574-1.3-1.18-1.3-1.18Z" transform="translate(-35.614 -17.061)" fill="#4e3a5e"/>
            <path id="Trazado_165807" data-name="Trazado 165807" d="M213.523,101.627a9.74,9.74,0,0,0,1.955.174,8.65,8.65,0,0,0-1.641-.887Z" transform="translate(-35.735 -16.889)" fill="#4e3a5e"/>
            <path id="Trazado_165808" data-name="Trazado 165808" d="M186.722,103.907a2.444,2.444,0,0,0,.36,1.533,2.686,2.686,0,0,0,1.346,1.153,2.918,2.918,0,0,0,1.015.186,3.245,3.245,0,0,0,.535-.035,3.051,3.051,0,0,0,.464-.087,4.529,4.529,0,0,0,2.692-2.291,4.288,4.288,0,0,0,.495-1.456l-1.1.973a8.975,8.975,0,0,1-1.121.828,4.783,4.783,0,0,1-1.273.6,2.57,2.57,0,0,1-2.454-.366,4.453,4.453,0,0,1-.955-1.039" transform="translate(-31.247 -17.223)" fill="#4e3a5e"/>
            <path id="Trazado_165809" data-name="Trazado 165809" d="M188.036,106.8s-1.656.775-1.762.613,1.258-1.208,1.258-1.208Z" transform="translate(-31.174 -17.774)" fill="#4e3a5e"/>
            <path id="Trazado_165810" data-name="Trazado 165810" d="M187.246,105.894a9.625,9.625,0,0,1-1.948.217,8.531,8.531,0,0,1,1.607-.921Z" transform="translate(-31.011 -17.604)" fill="#4e3a5e"/>
            <path id="Trazado_165811" data-name="Trazado 165811" d="M201.378,143.168l-6.672,4.694s-5.382,24.527-3.311,29.36,5.548,5.113,10.381,9.6-2.071,12.082-4.833,22.667c0,0,1.611,8.974,20.711,11.736s31.525-2.3,31.525-2.3c1.381-9.9-3.126-16.593-4.142-33.137-1.611-26.233,2.071-39.12-14.441-46.253,0,0-10.412,17.258-23.529,15.187-9.885-1.56-5.691-11.553-5.691-11.553" transform="translate(-31.952 -23.352)" fill="#8a9ecb"/>
            <path id="Trazado_165812" data-name="Trazado 165812" d="M245.08,188.668c-.866-14.106-.2-24.351-1.97-31.92,0,0-9.306,26.858-37.38,27.548-10.145.249-13.529-3.75-14.557-5.1a4.6,4.6,0,0,0,.264.908c2.072,4.832,5.549,5.113,10.381,9.6s-2.072,12.082-4.833,22.667c0,0,1.61,8.974,20.71,11.736s31.526-2.3,31.526-2.3c1.381-9.9-3.127-16.593-4.142-33.137" transform="translate(-31.994 -26.233)" fill="#6b80af"/>
          </g>
        </g>
        <g id="Grupo_170601" data-name="Grupo 170601" transform="translate(191.199 121.667)">
          <g id="Grupo_170600" data-name="Grupo 170600" clip-path="url(#clip-path-14)">
            <rect id="Rectángulo_43124" data-name="Rectángulo 43124" width="26.227" height="98.069" transform="translate(-0.313 -0.002)" fill="url(#linear-gradient-5)"/>
          </g>
        </g>
        <g id="Grupo_170603" data-name="Grupo 170603">
          <g id="Grupo_170602" data-name="Grupo 170602" clip-path="url(#clip-path-2)">
            <path id="Trazado_165814" data-name="Trazado 165814" d="M188.183,66.264c3.8-14.823,29.233-16.178,33.871-1.356a.408.408,0,0,0,.786-.217c-2.257-16.63-34.039-14.257-35.328,1.483-.032.388.577.459.671.091" transform="translate(-31.381 -8.912)" fill="#b97953"/>
            <path id="Trazado_165815" data-name="Trazado 165815" d="M243.977,79.733a20.372,20.372,0,0,0,7.551,7.343c3.675,2.241,15.88,5.207,14.535,11.276a.536.536,0,0,0,1.033.285c1.587-4.223-2.129-6.632-5.528-8.14C254.931,87.549,249,85.452,244.493,79.43a.3.3,0,0,0-.516.3" transform="translate(-40.824 -13.271)" fill="#b97953"/>
            <path id="Trazado_165816" data-name="Trazado 165816" d="M278,119.764c1.047,3.576,2.705,6.633,2.873,10.45.186,4.264-1.2,7.941-3.021,11.724a.354.354,0,0,0,.61.357c4.979-6.509,4.4-16.092,0-22.726a.254.254,0,0,0-.461.195" transform="translate(-46.493 -19.992)" fill="#b97953"/>
            <path id="Trazado_165817" data-name="Trazado 165817" d="M167.259,103.759l-.174-.346.077-.038.174.346Z" transform="translate(-27.963 -17.301)" fill="#b97953"/>
            <path id="Trazado_165818" data-name="Trazado 165818" d="M243.218,242.231s.345-17.6,1.381-39c.43-8.88,2.047-19.186,2.981-28.3l-16.531-1.315c-.341,2.731-.609,5.611-.813,8.585a45.151,45.151,0,0,0,12.178,1.7c-2.7,29.135-2.037,56.894-1.208,59.657.518,1.726,6.731,2.934,6.731,5.236h7.018s.69-3.28-11.736-6.559" transform="translate(-38.532 -29.055)" fill="#d27a84"/>
            <path id="Trazado_165819" data-name="Trazado 165819" d="M228.831,171.709s10.7,4.143,19.675,1.381c0,0,4.487-20.71-3.8-27.614s-14.842,13.807-15.878,26.232" transform="translate(-38.297 -24.117)" fill="#8a9ecb"/>
            <path id="Trazado_165820" data-name="Trazado 165820" d="M184.645,169.091c.945-1.4-1.565-7.291-2.177-10.375-.449-2.257,0-4.437-.268-5.61-2.859.95-7.927,3.945-10.818,5.44-2.846,1.472-7.291,2.669-9.651,4.142-.445,4.178,1.8,12.056,4.522,12.43,2.4.331,17.447-4.626,18.392-6.028" transform="translate(-27.058 -25.624)" fill="#474557"/>
            <path id="Trazado_165821" data-name="Trazado 165821" d="M83.425,25.363c-1.984-2.394-5.929-2.18-8.27-.453-1.986,1.466-3.74,4.826-1.489,6.836.442.394,1.094-.249.654-.654-2.075-1.908.162-4.956,2.068-5.962,2.417-1.276,4.529-.54,6.853.47a.152.152,0,0,0,.183-.238" transform="translate(-12.152 -3.948)" fill="#80545a"/>
            <path id="Trazado_165822" data-name="Trazado 165822" d="M70.98,45.79c-.476,5.153,2.966,8.971,7.566,10.82,3.356,1.349,10.173,2.329,11.591-2.256a.384.384,0,0,0-.636-.37c-6.518,5.827-17.934.659-17.954-8.195a.284.284,0,0,0-.567,0" transform="translate(-11.872 -7.618)" fill="#80545a"/>
            <path id="Trazado_165823" data-name="Trazado 165823" d="M136.041,13.555c6.512,2.112,10.189,8.243,10,14.959-.22,7.738-5.316,13.254-12.764,14.971-.535.123-.432,1.033.133.977,15.955-1.609,19.155-28.237,2.851-31.7a.412.412,0,0,0-.218.794" transform="translate(-22.246 -2.134)" fill="#926466"/>
            <path id="Trazado_165824" data-name="Trazado 165824" d="M82.686,227.645l1.333-.131L82.9,216.761l-11.824,1.214-.01-.1-9.255,1.047,1.177,10.647,1.684-.165,1.791,12.7a5.285,5.285,0,0,0,.862,2.51,5.348,5.348,0,0,0,.655.8c.061.061.123.121.187.179q.191.175.4.331a5.276,5.276,0,0,0,3.747,1.03l6.658-.716a5.248,5.248,0,0,0,4.793-5.667Z" transform="translate(-10.345 -36.277)" fill="#626376"/>
            <path id="Trazado_165825" data-name="Trazado 165825" d="M110.168,83.81a.691.691,0,0,1-.248-1.336c17.76-6.8,14.61-39.684,14.577-40.014a.691.691,0,0,1,.615-.757.665.665,0,0,1,.757.615c.145,1.4,3.292,34.262-15.453,41.446a.724.724,0,0,1-.248.045" transform="translate(-18.322 -6.978)" fill="#d4def1"/>
          </g>
        </g>
        <g id="Grupo_170605" data-name="Grupo 170605" transform="translate(78.755 100.173)">
          <g id="Grupo_170604" data-name="Grupo 170604" clip-path="url(#clip-path-16)">
            <rect id="Rectángulo_43126" data-name="Rectángulo 43126" width="56.789" height="39.078" transform="translate(0 0)" fill="url(#linear-gradient-6)"/>
          </g>
        </g>
        <g id="Grupo_170607" data-name="Grupo 170607">
          <g id="Grupo_170606" data-name="Grupo 170606" clip-path="url(#clip-path-2)">
            <path id="Trazado_165827" data-name="Trazado 165827" d="M141.582,136.316s-15.241,24.318-28.53,22.592c-8.19-1.063-11.736-19.157-11.736-19.157a37.728,37.728,0,0,0,9.569-3.068c-.665-2.626-1.04-4.791-1.04-4.791l-15.259,4.235s6.144,23.73,19.1,24.392c15.764.805,27.324-23.466,27.87-24.174a.3.3,0,0,1,.027-.029" transform="translate(-15.83 -22.073)" fill="#d27a84"/>
            <path id="Trazado_165828" data-name="Trazado 165828" d="M86.519,132.176l24.371-14.6s-2.531-17.719-6.421-24.708C94.937,97.6,80.53,124.758,86.519,132.176" transform="translate(-14.243 -15.542)" fill="#474557"/>
            <path id="Trazado_165829" data-name="Trazado 165829" d="M80.754,128.737c10.127-2.863,20.3-5.072,30.443-7.2l1.636,7.877a118.918,118.918,0,0,1-29.9,7.133Z" transform="translate(-13.515 -20.34)" fill="#a5adbc"/>
            <path id="Trazado_165830" data-name="Trazado 165830" d="M21.714,363.028c-.518,3.452,2.934,5.868,2.761,8.8s-15.015,2.934-15.361-.172,5.524-4.833,5.7-8.284,6.9-.346,6.9-.346" transform="translate(-1.523 -60.541)" fill="#363344"/>
            <path id="Trazado_165831" data-name="Trazado 165831" d="M68.689,362.381c.1,3.452-2.137,6.095-1.212,8.972,1.065,3.312,23.684,2.877,24.375.46,1.151-4.027-13.64-4.354-15.291-7.683-.858-1.729.271-4.051.271-4.051Z" transform="translate(-11.255 -60.262)" fill="#363344"/>
            <path id="Trazado_165832" data-name="Trazado 165832" d="M73.447,169.494a36.467,36.467,0,0,0-1.067,8.172c0,8.227,6.269,71.052,6.9,76.629,1.726,15.187,2.072,58.334.691,64.893s-4.142,11.736-12.426,12.426-10.562-7.337-11.736-12.426c-2.071-8.975-2.416-52.122-3.8-61.786s-11.391-58.68-11.391-58.68l7.939-29.341Z" transform="translate(-6.799 -28.348)" fill="#474557"/>
            <path id="Trazado_165833" data-name="Trazado 165833" d="M45.884,167.706l-2.531,23.7-5.523,3.451s-3.452,46.369-3.8,63.282-2.071,50.05-3.8,58.68S23.678,328.9,17.81,329.247,6.419,324.069,6.074,315.785s1.381-48.67,1.036-61.1S1.995,205.7,3.657,184.274c.883-11.361,8.8-28.822,9.972-29.033,2.455.038,32.255,12.465,32.255,12.465" transform="translate(-0.553 -25.981)" fill="#626376"/>
            <path id="Trazado_165834" data-name="Trazado 165834" d="M8.836,323.968c-1.841-13.346,2.387-49.916,1.841-64.663-.46-12.426-5.888-46.769-7.259-64.112-.838,21.716,3.369,54.542,3.692,66.183.346,12.426-1.381,52.811-1.035,61.1.261,6.281,3.5,10.973,7.607,12.725-2.074-1.78-3.923-4.541-4.846-11.23" transform="translate(-0.554 -32.667)" fill="#474557"/>
            <path id="Trazado_165835" data-name="Trazado 165835" d="M69.276,165.841c-17.3,5-41.953-.116-53.572-11.886l1.421-6.4c13.694,12.308,31.62,16.131,53.571,11.886Z" transform="translate(-2.628 -24.694)" fill="#363344"/>
            <path id="Trazado_165836" data-name="Trazado 165836" d="M86.948,49.907c-2.58,3.846-15.52,2.261-17.358-8.669-2.222-13.2,11.378-16.779,14.337-13.432,7,7.918,4.818,19.421,3.021,22.1" transform="translate(-11.606 -4.456)" fill="#80545a"/>
            <path id="Trazado_165837" data-name="Trazado 165837" d="M91.609,47.963A22.837,22.837,0,0,1,81.917,26.1C83.906,9.569,95.859-1.219,109.83.111c14.441,1.374,17.934,10.838,17.934,10.838A11.726,11.726,0,0,1,136.7,21.615c1.224,11.383-9.484,18.174-9.484,18.174Z" transform="translate(-13.678 0)" fill="#926466"/>
            <path id="Trazado_165838" data-name="Trazado 165838" d="M127.89,26.17c-12.581,7.684-33.712,2.059-36.223-1a7.491,7.491,0,0,0,2.591,5.937l-1.612,8.46,7.413,5.429,24.8-11.883Z" transform="translate(-15.34 -4.212)" fill="#80545a"/>
            <path id="Trazado_165839" data-name="Trazado 165839" d="M135.172,26.371a7.3,7.3,0,0,1,6.318,6.391c.917,5.868-5.33,11.44-5.33,11.44Z" transform="translate(-22.622 -4.413)" fill="#80545a"/>
            <path id="Trazado_165840" data-name="Trazado 165840" d="M95.056,52.615l-.184-8.329-3.5-12.621s-6.688-.286-5.814,7.974c.374,3.535,4.1,6.106,4.1,6.106a10.948,10.948,0,0,1-.57,4.852l3.054,2.941Z" transform="translate(-14.305 -5.299)" fill="#80545a"/>
          </g>
        </g>
        <g id="Grupo_170609" data-name="Grupo 170609" transform="translate(55.508 41.269)">
          <g id="Grupo_170608" data-name="Grupo 170608" clip-path="url(#clip-path-18)">
            <rect id="Rectángulo_43128" data-name="Rectángulo 43128" width="50.265" height="47.954" transform="translate(-14.805 32.732) rotate(-65.662)" fill="url(#linear-gradient-7)"/>
          </g>
        </g>
        <g id="Grupo_170611" data-name="Grupo 170611">
          <g id="Grupo_170610" data-name="Grupo 170610" clip-path="url(#clip-path-2)">
            <path id="Trazado_165842" data-name="Trazado 165842" d="M85.961,62.135c3.819-5.106,1.92-7.991,2.639-13.949,0,0,10.314,11.951,9.448,18.274-1.6.744-3.512,4.976-2.545,6.959-2.519,1.777-11.468,6.418-21.59-.683a20.048,20.048,0,0,1-5.852-6.069c7.515-1.595,14.673-.218,17.9-4.532" transform="translate(-11.391 -8.064)" fill="#d27a84"/>
          </g>
        </g>
        <g id="Grupo_170613" data-name="Grupo 170613" transform="translate(72.494 21.958)">
          <g id="Grupo_170612" data-name="Grupo 170612" clip-path="url(#clip-path-20)">
            <rect id="Rectángulo_43130" data-name="Rectángulo 43130" width="51.91" height="54.717" transform="translate(-10.419 39.353) rotate(-75.712)" fill="url(#linear-gradient-8)"/>
          </g>
        </g>
        <g id="Grupo_170618" data-name="Grupo 170618">
          <g id="Grupo_170617" data-name="Grupo 170617" clip-path="url(#clip-path-2)">
            <path id="Trazado_165844" data-name="Trazado 165844" d="M89.415,37.826c-.206,1.531.567,2.9,1.729,3.057s2.271-.958,2.477-2.489-.567-2.9-1.729-3.057-2.271.958-2.476,2.489" transform="translate(-14.959 -5.911)" fill="#d27a84"/>
            <path id="Trazado_165845" data-name="Trazado 165845" d="M120.327,48.614a8.507,8.507,0,0,1,4.53-5.919,7.633,7.633,0,0,0-3.638,2.022,7.539,7.539,0,0,0-2.15,3.542,10.309,10.309,0,0,0,1.4,7.548,8.19,8.19,0,0,1-4.723.758c2.686,1.1,4.746.754,7.187.05-1.858-2.447-3.2-5.187-2.605-8" transform="translate(-19.371 -7.145)" fill="#d27a84"/>
            <path id="Trazado_165846" data-name="Trazado 165846" d="M113.354,44.8a2.815,2.815,0,0,1-3.09.657,1.377,1.377,0,0,1-.517-2.286,2.811,2.811,0,0,1,3.089-.658,1.378,1.378,0,0,1,.518,2.287" transform="translate(-18.298 -7.08)" fill="#4e3a5e"/>
            <path id="Trazado_165847" data-name="Trazado 165847" d="M106.474,42.314a5.679,5.679,0,0,1,6.285-1.755,2.528,2.528,0,0,1,1.315,3.544,3.283,3.283,0,0,0-2.132-2.037c-1.631-.444-5.467.248-5.467.248" transform="translate(-17.819 -6.737)" fill="#4e3a5e"/>
            <path id="Trazado_165848" data-name="Trazado 165848" d="M109.591,40.536s-1.017-1.482-1.2-1.386.416,1.676.416,1.676Z" transform="translate(-18.134 -6.551)" fill="#4e3a5e"/>
            <path id="Trazado_165849" data-name="Trazado 165849" d="M108.348,41.017s-1.472-1.211-1.582-1.116.9,1.594.9,1.594Z" transform="translate(-17.867 -6.677)" fill="#4e3a5e"/>
            <path id="Trazado_165850" data-name="Trazado 165850" d="M130.425,53.009a2.609,2.609,0,0,1-2.822.707,1.262,1.262,0,0,1-.333-2.123,2.607,2.607,0,0,1,2.822-.705,1.26,1.26,0,0,1,.333,2.122" transform="translate(-21.228 -8.488)" fill="#4e3a5e"/>
            <path id="Trazado_165851" data-name="Trazado 165851" d="M124.949,51.232a4.4,4.4,0,0,1,5.266-2.062c1.569.573,1.722,3.017,1.046,3.828a3,3,0,0,0-1.829-2.376c-1.818-.627-4.483.609-4.483.609" transform="translate(-20.911 -8.184)" fill="#4e3a5e"/>
            <path id="Trazado_165852" data-name="Trazado 165852" d="M131.993,51.558s1.7-.259,1.739-.062-1.474.823-1.474.823Z" transform="translate(-22.09 -8.606)" fill="#4e3a5e"/>
            <path id="Trazado_165853" data-name="Trazado 165853" d="M132.393,52.718a7.819,7.819,0,0,1,1.773.4,7.41,7.41,0,0,1-1.705.421Z" transform="translate(-22.157 -8.823)" fill="#4e3a5e"/>
            <path id="Trazado_165854" data-name="Trazado 165854" d="M118.929,39.115c-.445,1.05-3.5-.153-6.156-1.817-2.229-1.394-4.336-3.331-4.067-3.693.3-.409,2.376.97,4.7,2,2.948,1.314,5.942,2.532,5.528,3.506" transform="translate(-18.189 -5.612)" fill="#80545a"/>
            <path id="Trazado_165855" data-name="Trazado 165855" d="M129.171,43.768c-.428,1.037,1.515,2.4,3.566,3.16,1.719.639,3.7.821,3.8.381.113-.5-1.533-1.035-3.08-1.987-1.964-1.209-3.893-2.516-4.291-1.554" transform="translate(-21.608 -7.269)" fill="#80545a"/>
            <path id="Trazado_165856" data-name="Trazado 165856" d="M105.95,60.915a29.931,29.931,0,0,1,6.451,1.753,13.1,13.1,0,0,1,3.758,3.161,5.287,5.287,0,0,1-5.919.712,9.116,9.116,0,0,1-4.29-5.625" transform="translate(-17.732 -10.195)" fill="#d85d8e"/>
            <g id="Grupo_170616" data-name="Grupo 170616" transform="translate(88.218 50.72)" opacity="0.3" style="mix-blend-mode: multiply;isolation: isolate">
              <g id="Grupo_170615" data-name="Grupo 170615">
                <g id="Grupo_170614" data-name="Grupo 170614" clip-path="url(#clip-path-22)">
                  <path id="Trazado_165857" data-name="Trazado 165857" d="M111.348,64.334a16.34,16.34,0,0,0,4.786,1.517l.026-.022a10.7,10.7,0,0,0-3.931-3.249,20.392,20.392,0,0,0-6.278-1.664,39.267,39.267,0,0,0,5.4,3.419" transform="translate(-105.95 -60.915)" fill="#65529c"/>
                </g>
              </g>
            </g>
            <path id="Trazado_165858" data-name="Trazado 165858" d="M66.8,69.186s-12.657-.805-21.515,3.451S31.016,85.869,24.573,99.216c-5.869,12.158-11.046,28.764-9.435,33.367s14.51,13.254,27.844,15.187c17.486,2.536,26.923-.23,30.145-2.762s6.443-15.647,10.125-24.162S94.341,96.68,93.576,91.4c-.659-4.551-4.341-9.038-4.341-9.038l-9.123-.734Z" transform="translate(-2.484 -11.569)" fill="#626376"/>
            <rect id="Rectángulo_43132" data-name="Rectángulo 43132" width="7.492" height="9.641" transform="translate(52.747 94.119) rotate(-70.947)" fill="#8e92a5"/>
            <path id="Trazado_165859" data-name="Trazado 165859" d="M41.949,78.752a44.932,44.932,0,0,0-7.489,9.515c-3.517,30.509,13.742,52.255,27.528,62.052,6.1-.283,10.27-1.432,12.759-2.707-14.776-17.955-29.945-60.607-32.8-68.86" transform="translate(-5.69 -13.18)" fill="#474557"/>
            <path id="Trazado_165860" data-name="Trazado 165860" d="M62.176,153.085l-.338-.6c4.912-2.728,14.185-27.056,18.144-37.444,5.431-14.262,5.671-22.756,5.671-22.839l.691.013c0,.086-.239,8.683-5.719,23.07-6.586,17.285-13.927,35.291-18.449,37.8" transform="translate(-10.349 -15.43)" fill="#474557"/>
            <path id="Trazado_165861" data-name="Trazado 165861" d="M76.865,69.146l-1.346-.008,6.816,20.5,4.306-3.046,1.267,2.544,2.508-1.505,1.8,6.021L99.39,82.362l-.5-.6-8.627-.134Z" transform="translate(-12.639 -11.571)" fill="#474557"/>
            <path id="Trazado_165862" data-name="Trazado 165862" d="M82.782,65.746,90.5,81.06l-7.087,5.032L76.905,68.071Z" transform="translate(-12.871 -11.003)" fill="#a5adbc"/>
            <path id="Trazado_165863" data-name="Trazado 165863" d="M93.232,82.95l2.912,9.326,6.167-9.583-2.082-5.658Z" transform="translate(-15.603 -12.892)" fill="#a5adbc"/>
            <path id="Trazado_165864" data-name="Trazado 165864" d="M42.339,112.151l22.718-10.212c-2.18-5.724-3.791-32.394-16.591-27.889s-11.419,29.587-6.127,38.1" transform="translate(-6.443 -12.307)" fill="#626376"/>
            <path id="Trazado_165865" data-name="Trazado 165865" d="M56.629,94.969a7.623,7.623,0,1,1-7.623-7.738,7.681,7.681,0,0,1,7.623,7.738" transform="translate(-6.926 -14.599)" fill="#474557"/>
            <path id="Trazado_165866" data-name="Trazado 165866" d="M55.881,94.48a7.249,7.249,0,1,1-7.249-7.249,7.249,7.249,0,0,1,7.249,7.249" transform="translate(-6.926 -14.599)" fill="#8a9ecb"/>
            <path id="Trazado_165867" data-name="Trazado 165867" d="M48.76,101.223a6.616,6.616,0,1,1,6.616-6.616,6.623,6.623,0,0,1-6.616,6.616m0-12.54a5.924,5.924,0,1,0,5.924,5.924,5.931,5.931,0,0,0-5.924-5.924" transform="translate(-7.053 -14.726)" fill="#bfcee2"/>
            <rect id="Rectángulo_43133" data-name="Rectángulo 43133" width="1.241" height="6.51" transform="translate(41.086 76.626)" fill="#bfcee2"/>
            <rect id="Rectángulo_43134" data-name="Rectángulo 43134" width="6.666" height="1.243" transform="matrix(0.819, -0.574, 0.574, 0.819, 38.619, 81.284)" fill="#bfcee2"/>
            <rect id="Rectángulo_43135" data-name="Rectángulo 43135" width="1.243" height="6.666" transform="translate(38.619 78.478) rotate(-54.98)" fill="#bfcee2"/>
          </g>
        </g>
        <g id="Grupo_170620" data-name="Grupo 170620" transform="translate(43.254 97.697)">
          <g id="Grupo_170619" data-name="Grupo 170619" clip-path="url(#clip-path-23)">
            <rect id="Rectángulo_43137" data-name="Rectángulo 43137" width="63.335" height="63.646" transform="translate(0 0)" fill="url(#linear-gradient-9)"/>
          </g>
        </g>
        <g id="Grupo_170622" data-name="Grupo 170622">
          <g id="Grupo_170621" data-name="Grupo 170621" clip-path="url(#clip-path-2)">
            <path id="Trazado_165869" data-name="Trazado 165869" d="M154.068,131.17l-2.16-.948a1.035,1.035,0,0,1-.533-1.364l.948-2.16,4.057,1.779-.948,2.16a1.035,1.035,0,0,1-1.364.532" transform="translate(-25.319 -21.204)" fill="#363344"/>
            <path id="Trazado_165870" data-name="Trazado 165870" d="M161.1,114.1l-2.739-1.2-1.275,2.905a11.335,11.335,0,0,0-2.719,6.2l-1.276,2.91,2.739,1.2c1.775.778,4.4-1.285,5.85-4.6s1.2-6.637-.58-7.416" transform="translate(-25.62 -18.894)" fill="#363344"/>
            <path id="Trazado_165871" data-name="Trazado 165871" d="M158.631,120.276c-1.455,3.317-4.073,5.375-5.848,4.6s-2.035-4.1-.58-7.416,4.072-5.375,5.848-4.6,2.034,4.1.58,7.416" transform="translate(-25.315 -18.861)" fill="#474557"/>
            <path id="Trazado_165872" data-name="Trazado 165872" d="M157.865,120.1c-1.187,2.706-3.265,4.411-4.64,3.807s-1.53-3.286-.342-5.993,3.264-4.41,4.64-3.806,1.529,3.286.342,5.992" transform="translate(-25.452 -19.076)" fill="#f9e5e8"/>
            <path id="Trazado_165873" data-name="Trazado 165873" d="M156.323,120.025c-.187.425-.513.693-.729.6s-.24-.515-.054-.941.513-.693.729-.6.241.516.054.941" transform="translate(-26.01 -19.927)" fill="#474557"/>
            <path id="Trazado_165874" data-name="Trazado 165874" d="M158.281,115.286c-.11.25-.3.407-.428.351s-.142-.3-.032-.553.3-.407.428-.351.142.3.032.553" transform="translate(-26.4 -19.2)" fill="#474557"/>
            <path id="Trazado_165875" data-name="Trazado 165875" d="M154.128,124.755c-.11.25-.3.407-.428.351s-.142-.3-.032-.553.3-.407.428-.351.142.3.032.553" transform="translate(-25.705 -20.784)" fill="#474557"/>
            <path id="Trazado_165876" data-name="Trazado 165876" d="M153.775,118.955c-.11.25-.3.407-.428.351s-.142-.3-.032-.553.3-.407.429-.351.142.3.032.553" transform="translate(-25.646 -19.814)" fill="#474557"/>
            <path id="Trazado_165877" data-name="Trazado 165877" d="M158.741,121.133c-.11.25-.3.407-.428.351s-.142-.3-.032-.553.3-.407.428-.351.142.3.032.553" transform="translate(-26.477 -20.178)" fill="#474557"/>
            <path id="Trazado_165878" data-name="Trazado 165878" d="M155.875,120.884a.144.144,0,0,1-.14-.147l.142-4.888a.144.144,0,0,1,.288.008l-.142,4.888a.144.144,0,0,1-.148.14" transform="translate(-26.064 -19.365)" fill="#474557"/>
            <path id="Trazado_165879" data-name="Trazado 165879" d="M148.916,165.517a13.817,13.817,0,0,1-6.537-1.445,9.922,9.922,0,0,1-4.952-6.781c-1.713-7.114,3.95-14.763,8.5-20.909a51.564,51.564,0,0,0,4.029-5.928.829.829,0,1,1,1.47.765,52.54,52.54,0,0,1-4.166,6.148c-4.346,5.87-9.753,13.175-8.22,19.538a8.326,8.326,0,0,0,4.125,5.708c5.268,2.829,13.346-.05,13.426-.08a.828.828,0,1,1,.566,1.557,26.807,26.807,0,0,1-8.239,1.428" transform="translate(-22.947 -21.758)" fill="#363344"/>
            <path id="Trazado_165880" data-name="Trazado 165880" d="M157.753,133.715c-.356.241-1.5-.313-2.708-.732-1.649-.574-3.282-.9-2.761-1.754.868-1.419,4.987.324,5.132-.195.064-.225-1.076-1.056-2.371-1.56-1.693-.658-3.616-1.075-3.1-2.077.908-1.771,6.588,1.035,6.822.526.108-.235-.843-.728-1.965-1.145-1.313-.489-2.892-.618-2.664-1.56.362-1.5,5.022-.483,5.956.629,2.129,2.531-.937,6.921-2.339,7.868" transform="translate(-25.415 -20.83)" fill="#ffb7a7"/>
          </g>
        </g>
        <g id="Grupo_170624" data-name="Grupo 170624" transform="translate(121.787 99.856)">
          <g id="Grupo_170623" data-name="Grupo 170623" clip-path="url(#clip-path-25)">
            <rect id="Rectángulo_43139" data-name="Rectángulo 43139" width="7.811" height="10.056" transform="translate(0 0)" fill="url(#linear-gradient-10)"/>
          </g>
        </g>
        <g id="Grupo_170626" data-name="Grupo 170626">
          <g id="Grupo_170625" data-name="Grupo 170625" clip-path="url(#clip-path-2)">
            <path id="Trazado_165882" data-name="Trazado 165882" d="M107.411,88.3a.724.724,0,0,1-.248-.045c-6.839-2.622-11.53-8.981-13.945-18.9a.689.689,0,1,1,1.34-.326c2.3,9.451,6.709,15.486,13.1,17.935a.691.691,0,0,1-.247,1.336" transform="translate(-15.598 -11.463)" fill="#a5adbc"/>
            <path id="Trazado_165883" data-name="Trazado 165883" d="M110.14,88.433a.829.829,0,0,1-.3-1.6c6.314-2.42,10.681-8.376,12.985-17.705a.816.816,0,0,1,1-.606.827.827,0,0,1,.6,1c-2.44,9.886-7.147,16.23-14,18.854a.827.827,0,0,1-.3.056" transform="translate(-18.294 -11.463)" fill="#363344"/>
            <path id="Trazado_165884" data-name="Trazado 165884" d="M93.538,65.393a.69.69,0,0,1-.67-.527A76.472,76.472,0,0,1,91.36,42.319a.68.68,0,0,1,.757-.615.689.689,0,0,1,.615.757,75.131,75.131,0,0,0,1.475,22.079.688.688,0,0,1-.506.834.643.643,0,0,1-.163.019" transform="translate(-15.248 -6.979)" fill="#d4def1"/>
            <path id="Trazado_165885" data-name="Trazado 165885" d="M107.378,88.387a.835.835,0,0,1-.3-.056c-6.907-2.648-11.636-9.072-14.057-19.092a.829.829,0,0,1,1.612-.39c2.281,9.46,6.67,15.495,13.038,17.936a.829.829,0,0,1-.3,1.6" transform="translate(-15.565 -11.417)" fill="#363344"/>
            <path id="Trazado_165886" data-name="Trazado 165886" d="M110.1,97.209h-.6a1.51,1.51,0,0,1-1.51-1.51V91.816a1.51,1.51,0,0,1,1.51-1.51h.6a1.51,1.51,0,0,1,1.51,1.51V95.7a1.51,1.51,0,0,1-1.51,1.51" transform="translate(-18.073 -15.113)" fill="#363344"/>
            <path id="Trazado_165887" data-name="Trazado 165887" d="M142.85,163.231c-6.82,0-15.81-1.885-22.821-10.032-12.839-14.925-10.684-53.893-10.585-55.544a.829.829,0,0,1,1.655.1c-.024.4-2.216,39.948,10.188,54.365,12.243,14.232,30.988,8.2,31.179,8.141a.828.828,0,0,1,.525,1.571,35.794,35.794,0,0,1-10.142,1.4" transform="translate(-18.284 -16.213)" fill="#363344"/>
            <path id="Trazado_165888" data-name="Trazado 165888" d="M93.651,40.361c0,1.4-.8,2.531-1.779,2.531s-1.779-1.133-1.779-2.531.8-2.531,1.779-2.531,1.779,1.133,1.779,2.531" transform="translate(-15.078 -6.331)" fill="#d4def1"/>
            <path id="Trazado_165889" data-name="Trazado 165889" d="M77.267,155.091c-12.254-10.528-18.294-27.615-18.294-27.615a51.984,51.984,0,0,0,10.173-5.228c-1.346-3-2.01-4.915-2.01-4.915l-15.188,6.386s8.232,18.6,20.832,30.164a85.855,85.855,0,0,0,25.984,16.295,133.53,133.53,0,0,1-21.5-15.087" transform="translate(-8.694 -19.637)" fill="#d27a84"/>
            <path id="Trazado_165890" data-name="Trazado 165890" d="M42.153,117.554c8.432-4.079,18-8.187,25.17-11.134l3.107,7.421c-5.865,4.2-15.315,8.324-24.652,10.962Z" transform="translate(-7.055 -17.81)" fill="#a5adbc"/>
            <path id="Trazado_165891" data-name="Trazado 165891" d="M49.553,163.225l-1.213,7.918,12.319,1.028,1.213-7.918Zm9.482,7.192-8.582-.717.724-4.722,8.582.717Z" transform="translate(-8.09 -27.317)" fill="#a5adbc"/>
            <rect id="Rectángulo_43140" data-name="Rectángulo 43140" width="9.274" height="3.624" transform="matrix(0.23, -0.973, 0.973, 0.23, 29.625, 141.401)" fill="#626376"/>
            <rect id="Rectángulo_43141" data-name="Rectángulo 43141" width="9.274" height="3.624" transform="translate(58.056 144.796) rotate(-83.086)" fill="#474557"/>
            <rect id="Rectángulo_43142" data-name="Rectángulo 43142" width="9.274" height="3.624" transform="translate(15.432 134.202) rotate(-71.128)" fill="#626376"/>
            <path id="Trazado_165892" data-name="Trazado 165892" d="M2.345,230.708l18.113-.159-.013,13.22a5.25,5.25,0,0,1-5.252,5.244l-6.694.153a5.3,5.3,0,0,1-5.419-5.328Z" transform="translate(-0.392 -38.584)" fill="#8e92a5"/>
            <path id="Trazado_165893" data-name="Trazado 165893" d="M2.506,233.6l17.949-.24,0-2.816-18.115.16Z" transform="translate(-0.392 -38.584)" fill="#626376"/>
            <path id="Trazado_165894" data-name="Trazado 165894" d="M8.33,244.117l-.69-13.434-5.3.047.734,13.131a5.3,5.3,0,0,0,5.42,5.327l3.317-.076a5.289,5.289,0,0,1-3.485-5" transform="translate(-0.392 -38.607)" fill="#626376"/>
            <path id="Trazado_165895" data-name="Trazado 165895" d="M0,218.219l21.2-.384.209,10.809-21.127.282Z" transform="translate(0 -36.456)" fill="#8e92a5"/>
            <path id="Trazado_165896" data-name="Trazado 165896" d="M0,218.242l9.31-.266.209,10.81-9.241.163Z" transform="translate(0 -36.48)" fill="#626376"/>
            <rect id="Rectángulo_43143" data-name="Rectángulo 43143" width="7.493" height="9.641" transform="translate(75.528 102.058) rotate(-70.947)" fill="#8e92a5"/>
            <rect id="Rectángulo_43144" data-name="Rectángulo 43144" width="2.781" height="5.737" transform="matrix(0.326, -0.945, 0.945, 0.326, 81.06, 94.703)" fill="#f9e5e8"/>
            <path id="Trazado_165897" data-name="Trazado 165897" d="M99.658,26.632c1.948,14.276,24.287,8.127,29.958-.124.291-.425-.357-.912-.708-.546-6.295,6.576-25.2,14.273-28.726.526-.09-.35-.57-.192-.525.144" transform="translate(-16.678 -4.323)" fill="#80545a"/>
            <path id="Trazado_165898" data-name="Trazado 165898" d="M70.016,73.564a70.42,70.42,0,0,0-17.789,3.46l-1.366-5.033c4.918-2.334,10.9-3.429,17.787-3.46Z" transform="translate(-8.512 -11.469)" fill="#474557"/>
          </g>
        </g>
      </g>
    </g>
  </g>
</svg>
