<svg xmlns="http://www.w3.org/2000/svg" xmlns:xlink="http://www.w3.org/1999/xlink" width="143" height="116" viewBox="0 0 143 116">
  <defs>
    <clipPath id="clip-path">
      <rect id="Rect치ngulo_43446" data-name="Rect치ngulo 43446" width="111.249" height="89.883" transform="translate(0 0)" fill="none"/>
    </clipPath>
  </defs>
  <g id="_12" data-name="12" transform="translate(-729 -3339.374)">
    <rect id="Rect치ngulo_43276" data-name="Rect치ngulo 43276" width="143" height="116" rx="10" transform="translate(729 3339.374)" fill="#ffdfe0"/>
    <g id="_12-2" data-name="12" transform="translate(748 3354.374)">
      <g id="Grupo_171213" data-name="Grupo 171213" clip-path="url(#clip-path)">
        <path id="Trazado_168124" data-name="Trazado 168124" d="M1.105,41.049A1.637,1.637,0,0,1,0,39.372c.057-.945.787-1.29,1.52-1.619.084-.084.168-.169.251-.254a43.765,43.765,0,0,1,7.194-1.987A66.742,66.742,0,0,1,15.8,34.286c.963-.116,1.243-.564,1.3-1.48.111-1.91.327-3.814.556-5.714.181-1.5.009-1.665-1.469-1.314A113.571,113.571,0,0,0,3.263,30.565c-.545.234-1.088.641-1.737.268A1.657,1.657,0,0,1,.008,29.249c-.045-.935.556-1.39,1.36-1.733,5.381-2.3,10.777-4.548,16.532-5.759.544-.115.577-.374.618-.791q.723-7.456,1.465-14.911c.135-1.368.279-2.736.411-4.1.143-1.489.63-1.943,2.16-1.944Q30.051,0,37.547,0c1.232,0,2.463-.012,3.694,0,1.366.016,1.886.515,2.01,1.872.355,3.856.727,7.711,1.056,11.569.052.612.2.721.782.525a96.976,96.976,0,0,1,14.08-3.486,1.07,1.07,0,0,0,.988-.915c.339-1.329.749-2.64,1.081-3.971A1.748,1.748,0,0,1,63.1,4.123c2.933-.011,5.867-.006,8.8,0A1.837,1.837,0,0,1,73.825,5.8c.358,1.659.808,3.3,1.085,4.975.148.894.461,1.107,1.307.883a39.137,39.137,0,0,1,13.031-1.044,84.7,84.7,0,0,1,20.56,4.166,4.043,4.043,0,0,1,1.441,1.031v1.3a1.551,1.551,0,0,1-1.225,1.119,4.443,4.443,0,0,1-2.129-.29A81.775,81.775,0,0,0,89.529,14.19a44.945,44.945,0,0,0-16.5,1.89,175.356,175.356,0,0,0-19.593,7.1,4.54,4.54,0,0,0-1.093.481c.07.371.422.335.654.441,3.317,1.52,6.512,3.273,9.726,4.994,4.108,2.2,8.233,4.376,12.953,5.024,2,.275,2.293.04,2.227-2.1.115-1.874.212-3.748.464-5.607a1.814,1.814,0,0,1,1.952-1.783q6.495-.1,12.993,0c1.143.017,1.558.455,1.927,1.68a28.275,28.275,0,0,1,.007,3.255,1.922,1.922,0,0,1-3.839.16,1.543,1.543,0,0,0-2.295-1.1c-.433.246-.324.687-.38,1.064A1.869,1.869,0,0,1,86.5,31.5a1.791,1.791,0,0,1-1.582-1.559c-.3-1.4-.3-1.405-1.767-1.43-.834-.032-1.108.4-1.142,1.2-.052,1.224-.19,2.445-.266,3.669-.044.717.237.99.913,1,1.119.014,2.238.008,3.357.008q8.771,0,17.543,0c1.319,0,1.357-.063,1.311-1.32.038-1.192-.226-2.366-.236-3.554-.006-.768-.389-.972-1.081-.991-1.467-.042-1.52-.025-1.815,1.4a1.84,1.84,0,0,1-1.985,1.6,1.78,1.78,0,0,1-1.8-1.674,22.148,22.148,0,0,1-.026-3.456c.344-1.309.8-1.731,2.085-1.763,2.06-.05,4.122-.054,6.181,0a1.9,1.9,0,0,1,2.113,1.982c.384,3.737.6,7.487.9,11.231.262,3.305.428,6.616.764,9.914.347,5.337.959,10.656,1.09,16.01a13.493,13.493,0,0,0,.193,2.9v2.608a2.671,2.671,0,0,1-2.414,1.065c-4.92.041-9.842-.186-14.759.21A50.84,50.84,0,0,0,75.819,75.6c-4.866,2.36-9.529,5.129-14.555,7.172a50.032,50.032,0,0,1-17.5,3.7c-1.051.031-1.655.142-1.444,1.465.189,1.186-.556,1.89-1.79,1.924-1.41.038-2.823.01-4.234.011H2.638c-2.335,0-2.771-.533-2.58-2.862.572-7,1.107-13.992,1.652-20.989.022-.286-.006-.577-.01-.865a1.689,1.689,0,0,1-.023-.958C1.85,59.12,2.28,54.06,2.7,49a16.189,16.189,0,0,1,.275-3.124,1.822,1.822,0,0,1,1.811-1.691,2.714,2.714,0,0,1,.325-.02q9.531-.029,19.063.006c1.334.007,1.755.378,2.18,1.662a30.675,30.675,0,0,1,.008,3.252,1.857,1.857,0,0,1-1.854,1.991,1.783,1.783,0,0,1-1.967-1.848c-.058-1.005-.56-1.168-1.4-1.169-.821,0-1.253.209-1.316,1.137a1.8,1.8,0,0,1-1.942,1.88,1.781,1.781,0,0,1-1.86-1.852c-.062-1-.563-1.148-1.4-1.171-.927-.026-1.27.305-1.327,1.236a1.752,1.752,0,0,1-1.8,1.792,1.836,1.836,0,0,1-1.981-1.617c-.268-1.373-.268-1.373-1.788-1.392-.764,0-1.076.366-1.105,1.135-.044,1.19-.166,2.38-.291,3.564-.094.894.267,1.192,1.081,1.165.253-.008.506,0,.759,0H34.092c.217,0,.434,0,.651,0,1.236-.035,1.271-.073,1.241-1.3.04-1.229-.218-2.44-.247-3.664a.8.8,0,0,0-.837-.892c-1.488-.151-1.707-.014-2.065,1.485a1.832,1.832,0,0,1-1.956,1.509,1.779,1.779,0,0,1-1.814-1.664,22.185,22.185,0,0,1-.028-3.459c.34-1.309.8-1.737,2.078-1.769q3.09-.076,6.181,0a1.9,1.9,0,0,1,2.119,1.975c.389,3.736.593,7.487.907,11.23.127,1.511.169,3.029.38,4.532.064,1.588.061,1.493,1.69,1.449A50.938,50.938,0,0,0,55.2,61.341c1.531-.442,3-1.041,4.5-1.589,1.4-.514,2.232-.142,2.853,1.25a20.287,20.287,0,0,1,.048,4.323,1.894,1.894,0,0,1-1.85,1.788,2,2,0,0,1-1.9-1.624c-.1-.391.158-1.04-.622-1.037-.88,0-1.949.661-2.047,1.284-.08.5-.013,1.011-.054,1.515a2,2,0,0,1-1.9,1.984A2.034,2.034,0,0,1,52.3,67.38c-.079-.474.164-1.167-.759-1.124-1.391.066-1.862.37-1.911,1.348a7.507,7.507,0,0,1-.066,1.081,1.893,1.893,0,0,1-3.755-.033,7.049,7.049,0,0,1,0-1.748c-.52.394-1.116.243-1.682.286-3.119-.086-3.11-.022-2.833,3.024.282,3.092.491,6.193.712,9.292.059.831.235,1.65.228,2.482-.006.772.347.938,1.081.927A47,47,0,0,0,61.4,78.864c4.521-1.957,8.752-4.491,13.194-6.606a53.786,53.786,0,0,1,19.467-5.277c1.3-.092,2.592-.2,3.9-.194,1.411.008,1.562-.17,1.464-1.565a4.3,4.3,0,0,0-.12-.528c-.418-4.135-.7-8.283-1.149-12.416-.045-.411.058-.969-.5-1.087a2.914,2.914,0,0,0-2.118.1c-.484.291-.246.932-.282,1.42-.091,1.229-.663,1.937-1.689,2.042A1.889,1.889,0,0,1,91.4,52.862c-.063-.518.184-1.238-.816-1.166-1.391.1-1.783.336-1.842,1.3-.019.325,0,.652-.042.975a1.989,1.989,0,0,1-1.868,1.791,2.066,2.066,0,0,1-1.915-1.627c-.1-.391.187-1.047-.592-1.06-.977-.016-2.01.646-2.086,1.344-.055.5.008,1.014-.061,1.517a1.985,1.985,0,0,1-1.823,1.84,1.832,1.832,0,0,1-1.9-1.592c-.155-.958-.553-.877-1.242-.581-1.418.608-1.49.675-1.511,2.243a7.851,7.851,0,0,1-.032.868,1.924,1.924,0,0,1-1.7,1.825,1.815,1.815,0,0,1-2.014-1.433c-.179-.636-.378-.691-.971-.463-1.3.5-2.07,1.258-1.808,2.762a3.384,3.384,0,0,1-.047,1.189,1.99,1.99,0,0,1-1.9,1.635,1.944,1.944,0,0,1-1.857-1.672,24.424,24.424,0,0,1-.052-3.144c-.206-1.649.6-2.616,2.043-3.3,2.781-1.313,5.487-2.782,8.306-4.02.33-.145.689-.3.683-.748,0-.384-.286-.459-.6-.472A35.762,35.762,0,0,1,64.265,47.83c-2.27-.959-4.443-2.114-6.643-3.214-1.319-.66-1.557-1.226-1.281-2.727.96-1.2,1.529-1.361,2.874-.691,2.777,1.384,5.55,2.775,8.451,3.888A30.4,30.4,0,0,0,75.309,47c1.319.142,1.471.008,1.53-1.227.219-2.193.323-4.4.531-6.589.075-.8-.083-1.18-.935-1.129a11.4,11.4,0,0,1-2.473-.3c-.54-.087-.839.077-.887.64a2.726,2.726,0,0,1-.127.637,1.875,1.875,0,0,1-1.855,1.388,1.9,1.9,0,0,1-1.761-1.508,6.286,6.286,0,0,1-.106-1.4,2.512,2.512,0,0,0-2.314-1.944c-.341.054-.321.339-.4.567-.469,1.312-1.135,1.819-2.175,1.66-.962-.146-1.557-.977-1.616-2.261-.011-.253,0-.506-.008-.759a2.5,2.5,0,0,0-2.14-2.441c-.406-.062-.473.19-.6.457-.548,1.107-1.3,1.594-2.155,1.423-1.04-.207-1.571-.948-1.614-2.251-.008-.253,0-.507,0-.76a2.545,2.545,0,0,0-2.209-2.36c-.576-.032-.445.466-.557.764a1.949,1.949,0,0,1-2.05,1.426,1.768,1.768,0,0,1-1.633-1.859c.267-2.1-.839-2.85-2.613-3.146-.241-.075-.475-.173-.72-.235-.5-.126-.651.081-.6.566.27,2.836.519,5.673.776,8.51a1.2,1.2,0,0,0,.909,1.073c1.414.545,2.856,1.023,4.234,1.658a1.974,1.974,0,0,1,1.259,2.77c-.97,1.147-1.506,1.3-2.935.711A48.622,48.622,0,0,0,37.756,37.6a74.529,74.529,0,0,0-14.294-.2,93.094,93.094,0,0,0-17.016,2.71c-1.089.273-2.17.575-3.232.935a2.762,2.762,0,0,1-2.109,0"/>
        <path id="Trazado_168125" data-name="Trazado 168125" d="M1.105,41.049c1.5.139,2.8-.6,4.181-.966A93.832,93.832,0,0,1,34.242,36.92a45.707,45.707,0,0,1,15.9,3.866c1.414.607,1.812.494,2.715-.617a7.568,7.568,0,0,1,3.658,1.757c-.216,1.478-.041,1.844,1.259,2.5,4.539,2.271,9.068,4.573,14.1,5.594,1.3.265,2.632.41,3.949.61.243.527-.221.626-.51.764-5.838,2.8-11.451,6.077-17.589,8.225a48.574,48.574,0,0,1-12.4,2.578,31.172,31.172,0,0,1-3.678.2,1.713,1.713,0,0,1-1.232-.3q-.439-5.235-.876-10.47c-.154-1.873-.282-3.747-.442-5.619a1.567,1.567,0,0,0-1.7-1.592c-2.1-.02-4.193,0-6.289-.007a1.687,1.687,0,0,0-1.823,1.614,3.587,3.587,0,0,1-3.189,0A1.776,1.776,0,0,0,24.067,44.4c-6.278.019-12.556,0-18.834.013-1.387,0-1.889.5-1.995,1.851-.073.935-.159,1.868-.239,2.8a2.793,2.793,0,0,0-.94,2.592c.075,4.223-.07,8.443-.3,12.66-.019.28-.038.561-.056.841-.343-.371-.18-.827-.18-1.24q0-10.766.027-21.532c0-.49.126-1.03-.442-1.335" fill="#93cbd3"/>
        <path id="Trazado_168126" data-name="Trazado 168126" d="M1.526,30.833A51.388,51.388,0,0,0,6.957,28.7a78.709,78.709,0,0,1,9.105-3.123c.637-.182.647.27.619.664-.146,2.048-.359,4.091-.559,6.135-.082.833-.734,1-1.393,1.1-1.889.293-3.77.62-5.633,1.056-1.686.394-3.36.833-5.038,1.256-1.111.28-2.052.669-2.324,1.92l-.21.041q0-3.461,0-6.921" fill="#f3d9a6"/>
        <path id="Trazado_168127" data-name="Trazado 168127" d="M6.943,57.508c.359-.023.719-.065,1.079-.065,9.2,0,18.4.012,27.594-.026.888,0,1.137.225,1.2,1.1.515,7.112,1.088,14.219,1.635,21.329.1,1.37.17,2.743.254,4.114.333,1.023-.213,1.245-1.022,1.284-.326.015-.651.014-.977.014H7.732c-.217,0-.434,0-.651-.005-1.659-.054-2.522-.9-2.388-2.526.407-4.935.739-9.875,1.169-14.808.267-3.06.432-6.128.728-9.186a2.053,2.053,0,0,1,.353-1.227" fill="#f7e6c6"/>
        <path id="Trazado_168128" data-name="Trazado 168128" d="M44.091,66.916A1,1,0,0,1,44.2,66.9c1.693-.126,1.693-.126,1.866,1.578a1.663,1.663,0,0,0,1.623,1.579,1.684,1.684,0,0,0,1.632-1.575c.092-.725-.368-1.662.263-2.129.522-.385,1.4-.241,2.083-.462.859-.279.994.077.921.8a2.924,2.924,0,0,0,.035.971,1.547,1.547,0,0,0,1.538,1.286,1.572,1.572,0,0,0,1.617-1.189,1.543,1.543,0,0,0,.055-.319c.093-.85-.391-2.009.195-2.488A10.111,10.111,0,0,1,59.1,63.808c0,.519-.019.949,0,1.377a1.634,1.634,0,0,0,1.6,1.692,1.592,1.592,0,0,0,1.637-1.65c.026-1.443-.026-2.887-.044-4.331-.021-.072-.049-.173-.007-.2a5.472,5.472,0,0,1,3.291-1.434c.011.976.01,1.953.038,2.929a1.66,1.66,0,0,0,1.636,1.786,1.541,1.541,0,0,0,1.579-1.8c-.457-2.414.725-3.569,2.8-4.212a4.677,4.677,0,0,0,.5-.244c0,.425-.027.736.005,1.042a1.657,1.657,0,0,0,1.644,1.559c.845-.015,1.745-.736,1.558-1.6-.593-2.73,1.25-3.328,3.313-3.979,0,.442-.032.856.006,1.263a1.622,1.622,0,0,0,3.235.039,2.509,2.509,0,0,0,.012-.325C82,53.34,82,53.34,84.378,52.719c.237-.062.476-.118.8-.2a14.491,14.491,0,0,0,.008,1.466A1.578,1.578,0,0,0,86.753,55.5a1.648,1.648,0,0,0,1.68-1.52c.118-.757-.409-1.742.274-2.223.557-.393,1.469-.252,2.2-.434.626-.154.865-.015.79.645a5.237,5.237,0,0,0,0,1.084,1.625,1.625,0,0,0,3.24.037c.017-.106-.007-.219.011-.325.1-.618-.349-1.592.235-1.8a9.307,9.307,0,0,1,2.9-.166c.363,0,.308.335.328.575q.564,6.646,1.124,13.295c.293.923-.366.91-.956.983-1.9.237-3.821.219-5.728.422a52.419,52.419,0,0,0-16.062,4.35c-3.7,1.665-7.226,3.659-10.832,5.5a53.03,53.03,0,0,1-18.881,5.778,14.571,14.571,0,0,1-1.736.03c-1.558-.028-2.093-.426-2.291-2-.293-2.329-.373-4.68-.556-7.02-.107-1.369-.18-2.742-.32-4.106-.17-1.659.031-1.728,1.381-1.621a.991.991,0,0,0,.531-.072" fill="#f3d9a6"/>
        <path id="Trazado_168129" data-name="Trazado 168129" d="M110.135,18.014c-.569.307-.443.848-.442,1.339q.03,14,.062,27.992a2.8,2.8,0,0,1-.06.425c-.206-2.411-.423-4.821-.614-7.232-.372-4.689-.725-9.38-1.094-14.069a1.567,1.567,0,0,0-1.685-1.61c-2.135-.023-4.271-.017-6.407,0a1.654,1.654,0,0,0-1.72,1.607,3.582,3.582,0,0,1-3.188,0,1.774,1.774,0,0,0-2.037-1.623c-4.113.022-8.226,0-12.339.013-1.368,0-1.863.507-1.971,1.875-.147,1.869-.3,3.737-.457,5.606-.031.948-.693.98-1.372.9a29.84,29.84,0,0,1-7.375-1.722,110.236,110.236,0,0,1-12-6.055c-1.148-.616-2.318-1.186-3.471-1.791-.293-.154-.739-.18-.729-.675A149.257,149.257,0,0,1,70.02,16.677a57.44,57.44,0,0,1,12.765-2.813,59.64,59.64,0,0,1,16.147,1.392,76.415,76.415,0,0,1,9.715,2.6,4.2,4.2,0,0,0,1.488.157" fill="#93cbd3"/>
        <path id="Trazado_168130" data-name="Trazado 168130" d="M35.4,13.036a1.822,1.822,0,0,0,1.346-1.567,5.335,5.335,0,0,1,4.067,0c.444,4.66.9,9.32,1.327,13.982.238,2.58.435,5.165.65,7.747a1.42,1.42,0,0,1-1.341.165,58.291,58.291,0,0,0-14.015-1.129c-.832.021-1.647.213-2.483.216-2.285.009-2.96-.617-2.906-2.874.04-1.661.266-3.312.43-4.965.321-3.236.6-6.475.945-9.708.192-1.807.229-1.789,2.009-1.806,3.324-.031,6.648.088,9.971-.061" fill="#f7e6c6"/>
        <path id="Trazado_168131" data-name="Trazado 168131" d="M82.346,37.951c.323-.022.647-.064.97-.065,7.1,0,14.2.012,21.295-.023.795,0,1.019.2,1.077.994.523,7.184,1.1,14.365,1.65,21.547.1,1.334.169,2.671.253,4.006.277.911-.152,1.312-1.011,1.273-1.2-.054-2.437.335-3.578-.326q-.547-5.718-1.1-11.437c-.153-1.619-.275-3.241-.441-4.858-.111-1.079-.725-1.556-1.943-1.56A58.259,58.259,0,0,0,81.9,50.043a3.673,3.673,0,0,1-.418.081A1.464,1.464,0,0,1,81.2,48.8c.35-3.235.48-6.488.814-9.724a1.915,1.915,0,0,1,.334-1.122" fill="#f7e6c6"/>
        <path id="Trazado_168132" data-name="Trazado 168132" d="M47.151,25.78c.245.055.495.092.733.169,2.075.676,2.074.678,2.087,2.712.008,1.361.581,2.126,1.6,2.142s1.618-.734,1.656-2.093c0-.143.016-.286.029-.5a22.266,22.266,0,0,1,2.925,1.371c.331.152.31.442.307.736-.007.579-.01,1.158,0,1.737.019,1.175.633,1.92,1.592,1.944s1.589-.689,1.667-1.872c.009-.143.023-.286.047-.571,1.008.543,1.943,1.066,2.9,1.552.339.173.315.438.315.725,0,.652-.017,1.3,0,1.955a1.623,1.623,0,0,0,1.634,1.768c.954-.005,1.566-.676,1.619-1.786.012-.25,0-.5,0-.829.975.387,1.866.764,2.776,1.092.43.155.506.43.49.831a15.727,15.727,0,0,0,.005,1.737,1.59,1.59,0,0,0,1.615,1.563,1.487,1.487,0,0,0,1.593-1.554c-.131-1.374.409-1.409,1.5-1.13a14.229,14.229,0,0,0,2.8.306c.551.029.758.179.7.771-.237,2.411-.431,4.827-.64,7.241a1.421,1.421,0,0,1-1.231.242,38.815,38.815,0,0,1-12.637-3.7c-4.124-1.93-8.111-4.144-12.3-5.942-.7-.3-1.434-.5-2.113-.85a2.266,2.266,0,0,1-1.309-1.859c-.268-2.187-.373-4.39-.639-6.578a1.464,1.464,0,0,1,.275-1.33" fill="#f3d9a6"/>
        <path id="Trazado_168133" data-name="Trazado 168133" d="M44.756,18.311c-.21-.652.218-.874.856-1.09a101.907,101.907,0,0,1,15.444-3.765,2.044,2.044,0,0,0,1.853-1.674c.295-1.19.679-2.358.966-3.549.147-.608.359-.9,1.069-.876,1.7.063,3.4.046,5.1.006.575-.014.844.164.959.725q.4,1.961.882,3.907c.135.547-.051.753-.572.9a185.377,185.377,0,0,0-23.974,9.034c-1.353.6-2.271,0-2.37-1.467-.046-.685-.132-1.367-.211-2.154" fill="#efc77d"/>
        <path id="Trazado_168134" data-name="Trazado 168134" d="M44.091,66.916c-.472.472-1.313-.182-1.657.472-.3.576.127,1.191.161,1.8.2,3.622.423,7.244.829,10.852a1.391,1.391,0,0,0,1.65,1.406A43.671,43.671,0,0,0,59.98,78.266a116.506,116.506,0,0,0,12.146-5.935,57.437,57.437,0,0,1,18.412-6.3c2.669-.4,5.367-.483,8.056-.657.51-.033.956-.021.947-.7.539,2.377.539,2.383-1.741,2.406-9.8.1-18.837,2.923-27.387,7.588-4.974,2.713-9.994,5.35-15.511,6.862a53.929,53.929,0,0,1-12.2,1.781c-.568.022-.738-.149-.778-.713q-.522-7.307-1.114-14.608c-.064-.771.141-1.026.9-1,.792.031,1.589-.045,2.383-.075" fill="#efc77e"/>
        <path id="Trazado_168135" data-name="Trazado 168135" d="M26.1,46.022h3.188c.013,1.046.008,2.092.041,3.137A1.607,1.607,0,0,0,31,50.881a1.624,1.624,0,0,0,1.585-1.7c.084-1.515.084-1.515,1.643-1.515,1.75,0,1.751,0,1.859,1.747q.1,1.563.188,3.127a1.96,1.96,0,0,1-1.437.347q-12.459.009-24.918,0c-1.993,0-2.663-.694-2.667-2.69a3.186,3.186,0,0,1,.555-2.463,3.9,3.9,0,0,1,.426-.061c1.489-.045,1.489-.044,1.535,1.4a1.642,1.642,0,0,0,1.583,1.815A1.555,1.555,0,0,0,13,49.053c-.124-1.253.351-1.6,1.48-1.4a1.579,1.579,0,0,0,.54,0c1.015-.183,1.385.165,1.3,1.246-.1,1.25.59,1.985,1.608,1.981s1.7-.743,1.6-1.994c-.092-1.1.32-1.4,1.312-1.233a1.585,1.585,0,0,0,.541,0c1.153-.215,1.587.179,1.465,1.407a1.549,1.549,0,0,0,1.55,1.816c1,.028,1.651-.674,1.677-1.828.023-1.01.026-2.021.038-3.031" fill="#f7e6c6"/>
        <path id="Trazado_168136" data-name="Trazado 168136" d="M6.943,57.508c-.091,2.73-.4,5.443-.6,8.164-.15,2.079-.318,4.156-.485,6.234C5.576,75.412,5.316,78.921,5,82.425c-.128,1.4.442,2.539,2.1,2.527,10.124-.074,20.247-.04,30.371-.03.7,0,1.345.032,1.242-.96.582,2.652.582,2.652-2.018,2.652-10.7,0-21.411-.015-32.117.025-.987,0-1.2-.247-1.121-1.2.584-7.062,1.117-14.127,1.665-21.191.145-1.875.342-3.747.413-5.624.039-1.044.386-1.448,1.415-1.117" fill="#f3d9a7"/>
        <path id="Trazado_168137" data-name="Trazado 168137" d="M94.987,26.465h3.188c.013,1.046.009,2.092.041,3.137a1.61,1.61,0,0,0,1.669,1.724,1.627,1.627,0,0,0,1.585-1.7c.084-1.516.084-1.516,1.642-1.516,1.751,0,1.752,0,1.86,1.747.065,1.042.125,2.085.188,3.128a1.961,1.961,0,0,1-1.436.344q-9.2.01-18.4,0c-1.989-.006-2.658-.694-2.661-2.69a3.185,3.185,0,0,1,.553-2.462c.215-.021.432-.028.644-.067,1.07-.2,1.442.189,1.345,1.307a1.589,1.589,0,0,0,1.569,1.917c1.029.02,1.728-.711,1.636-1.96-.077-1.051.235-1.464,1.284-1.267a1.56,1.56,0,0,0,.541,0c1.111-.19,1.626.11,1.493,1.389a1.553,1.553,0,0,0,1.643,1.836A1.638,1.638,0,0,0,94.949,29.5c.023-1.012.026-2.025.038-3.038" fill="#f7e6c6"/>
        <path id="Trazado_168138" data-name="Trazado 168138" d="M47.151,25.78c.051,2.738.469,5.446.676,8.171.066.874.783,1.273,1.521,1.524a45.726,45.726,0,0,1,5.445,2.409c3.07,1.513,6.123,3.063,9.232,4.49A34.4,34.4,0,0,0,77.1,45.8c.027,1.65.024,1.68-1.63,1.513A37.444,37.444,0,0,1,62.864,43.3c-1.232-.6-2.475-1.18-3.675-1.838a1.885,1.885,0,0,0-2.673.466l-3.658-1.757c.216-1.259-.041-1.8-1.224-2.281-1.5-.611-3.025-1.162-4.54-1.74-.363-.138-.741-.2-.786-.741-.278-3.344-.585-6.684-.891-10.114a4.076,4.076,0,0,1,1.734.487" fill="#efc77e"/>
        <path id="Trazado_168139" data-name="Trazado 168139" d="M35.4,13.036c-.343.3-.76.17-1.144.172-3.072.011-6.144.021-9.215-.005-.745-.006-1.1.071-1.195,1.012-.375,3.675-.718,7.352-1.057,11.031a50.347,50.347,0,0,0-.419,5.042A1.6,1.6,0,0,0,24.238,32.1c2.159-.05,4.311-.249,6.478-.226a51.356,51.356,0,0,1,11.11,1.247,6.2,6.2,0,0,0,.967.074,3.741,3.741,0,0,1,.129,1.75c-7.143-1.786-14.356-1.588-21.58-.991-.867.072-.765-.313-.713-.849q.606-6.207,1.2-12.414c.224-2.3.475-4.6.672-6.908.051-.592.25-.777.854-.772,4.015.029,8.03.019,12.045.022" fill="#f3d9a6"/>
        <path id="Trazado_168140" data-name="Trazado 168140" d="M65.583,59.257A16.049,16.049,0,0,0,62.3,60.9c-.73-1.145-1.268-1.363-2.52-.856a50.692,50.692,0,0,1-17.7,3.681c-1.686.05-1.684.107-1.659-1.627a50.109,50.109,0,0,0,22.153-4.783c4.366-2.067,8.692-4.219,13.031-6.344.105-.051.148-.227.22-.344.37.012.849-.172.9.455a1,1,0,0,1-.655,1.182c-2.97,1.222-5.773,2.8-8.673,4.169-1.263.6-1.98,1.386-1.808,2.826" fill="#61a9b7"/>
        <path id="Trazado_168141" data-name="Trazado 168141" d="M7.809,47.727a12.678,12.678,0,0,0-.219,2.792c.024,1.486.531,2.017,2,2.017q13.343,0,26.683,0c.036.176.06.356.111.528.268.914-.07,1.144-1,1.141q-14.2-.051-28.408,0c-.915,0-1.178-.2-1.036-1.14.205-1.354.256-2.732.342-4.1s.069-1.377,1.523-1.235" fill="#f0d7a4"/>
        <path id="Trazado_168142" data-name="Trazado 168142" d="M26.883,3.426c.019.5.021,1.01.061,1.513a1.625,1.625,0,0,0,3.246.025c.182-1.715.187-1.637,1.9-1.742,1.141-.071,1.479.277,1.394,1.4a1.575,1.575,0,0,0,1.6,1.88c1.007,0,1.6-.682,1.633-1.876.035-1.38.035-1.38,1.469-1.38,1.861,0,1.873,0,2.087,1.874.089.788.113,1.583.166,2.375.214.585-.025.893-.6.994a1.968,1.968,0,0,1-.322.04c-4.365.024-8.73.093-13.092-.036A2.1,2.1,0,0,1,24.3,5.934c.016-.215.057-.429.078-.644.217-2.2.243-2.224,2.509-1.864" fill="#f7e6c6"/>
        <path id="Trazado_168143" data-name="Trazado 168143" d="M83.212,28.17a12.669,12.669,0,0,0-.219,2.791c.024,1.487.529,2.018,2,2.018q10.083,0,20.166,0c.036.176.06.356.111.528.267.912-.068,1.146-1,1.141q-10.947-.057-21.894,0c-.919.005-1.172-.2-1.028-1.142.206-1.353.254-2.731.339-4.1s.069-1.376,1.523-1.234" fill="#f0d7a4"/>
        <path id="Trazado_168144" data-name="Trazado 168144" d="M26.883,3.426c-.144,0-.289.008-.433.008-1.617.008-1.615.007-1.69,1.659a4.057,4.057,0,0,1-.08.64c-.332,1.589.376,2.464,2.054,2.47,3.5.014,7,0,10.5,0,.794,0,1.589-.028,2.381.01.546.026.816-.171.82-.719a26.181,26.181,0,0,1,.379,3.971H36.749c-.338-1.324-.767-1.691-2.1-1.7-3.582-.012-7.164-.03-10.745.014-.816.011-1.045-.155-.922-1.008.234-1.608.328-3.236.482-4.856.026-.275-.038-.665.378-.651a8.622,8.622,0,0,1,3.042.154" fill="#f3d9a6"/>
        <path id="Trazado_168145" data-name="Trazado 168145" d="M53.234,22.992c4.348,2.281,8.685,4.584,13.049,6.836a30.515,30.515,0,0,0,10.4,3.129c.593.072,1.244.171,1.5-.622-.268,2.693.31,2.369-2.5,2.059a29.156,29.156,0,0,1-9.891-3.362c-4.754-2.4-9.286-5.234-14.325-7.27a5.507,5.507,0,0,1,1.772-.77" fill="#61a9b7"/>
        <path id="Trazado_168146" data-name="Trazado 168146" d="M1.734,37.712c-.274-1.244.421-1.723,1.492-2.014A82.445,82.445,0,0,1,14.767,33.19c.729-.09,1.087-.366,1.12-1.228.072-1.893.3-3.782.511-5.667.041-.369.126-.638-.336-.718,2.52-.815,2.044-.681,1.884,1.44-.155,2.052-.427,4.1-.571,6.149-.062.883-.278,1.276-1.286,1.407A85.087,85.087,0,0,0,1.734,37.712" fill="#efc77e"/>
        <path id="Trazado_168147" data-name="Trazado 168147" d="M82.346,37.951c-.1,2.746-.335,5.482-.624,8.216-.138,1.313-.164,2.637-.24,3.957a3.378,3.378,0,0,1-1.411.435c.213-2.848.421-5.654.634-8.459.076-1.01.228-2.019.229-3.029,0-1.048.381-1.452,1.412-1.12" fill="#f2d9a6"/>
        <path id="Trazado_168148" data-name="Trazado 168148" d="M1.756,64.316c-.01-4.773,0-9.546-.046-14.319-.011-1.064.934-.528,1.289-.933q-.56,7.422-1.123,14.843a2,2,0,0,1-.12.409" fill="#67acb9"/>
        <path id="Trazado_168149" data-name="Trazado 168149" d="M103,65.357c1.188,0,2.38-.048,3.564.019.767.044,1.049-.255,1.024-.966a.765.765,0,0,1,.089.194c.379,2.455.378,2.455-2.076,2.455h-.97c-1.65,0-1.65,0-1.631-1.7" fill="#efd6a4"/>
        <path id="Trazado_168150" data-name="Trazado 168150" d="M9.773,70.289c0-.507-.024-1.015,0-1.52a1.638,1.638,0,0,1,1.642-1.664,1.609,1.609,0,0,1,1.6,1.595c.044,1.121.049,2.246,0,3.366a1.586,1.586,0,0,1-1.633,1.548,1.613,1.613,0,0,1-1.6-1.588c-.038-.576-.007-1.158-.008-1.737" fill="#010100"/>
        <path id="Trazado_168151" data-name="Trazado 168151" d="M16.3,70.315a14.353,14.353,0,0,1,.012-1.736,1.516,1.516,0,0,1,1.6-1.458,1.479,1.479,0,0,1,1.6,1.445,25.475,25.475,0,0,1,0,3.581A1.477,1.477,0,0,1,17.924,73.6a1.507,1.507,0,0,1-1.608-1.442,14.913,14.913,0,0,1-.015-1.844" fill="#010100"/>
        <path id="Trazado_168152" data-name="Trazado 168152" d="M26.065,70.451c0,.507.025,1.015-.006,1.52A1.62,1.62,0,0,1,24.4,73.613a1.6,1.6,0,0,1-1.581-1.6c-.043-1.084-.041-2.173,0-3.257a1.619,1.619,0,1,1,3.238-.041c.037.577.008,1.158.008,1.737" fill="#010100"/>
        <path id="Trazado_168153" data-name="Trazado 168153" d="M32.582,70.436c0,.543.035,1.089-.008,1.628a1.61,1.61,0,0,1-1.636,1.55,1.592,1.592,0,0,1-1.6-1.586c-.045-1.12-.048-2.246,0-3.366a1.6,1.6,0,0,1,1.631-1.557,1.628,1.628,0,0,1,1.6,1.594c.039.576.008,1.158.007,1.737" fill="#010100"/>
        <path id="Trazado_168154" data-name="Trazado 168154" d="M33.471,21.1a7.224,7.224,0,0,1,.013-1.3,1.616,1.616,0,0,1,3.21.117,16.184,16.184,0,0,1,.01,2.278,1.621,1.621,0,1,1-3.242-.01c-.025-.36,0-.723,0-1.085h.013" fill="#010101"/>
        <path id="Trazado_168155" data-name="Trazado 168155" d="M30.192,21.1c0,.4.032.8-.008,1.193a1.613,1.613,0,0,1-1.668,1.519,1.56,1.56,0,0,1-1.56-1.513,16.976,16.976,0,0,1-.008-2.278,1.621,1.621,0,0,1,3.241-.006c.026.36.005.723,0,1.085" fill="#010101"/>
      </g>
    </g>
  </g>
</svg>
