<svg id="_13" data-name="13" xmlns="http://www.w3.org/2000/svg" xmlns:xlink="http://www.w3.org/1999/xlink" width="494.594" height="143.43" viewBox="0 0 494.594 143.43">
  <defs>
    <clipPath id="clip-path">
      <path id="Trazado_165776" data-name="Trazado 165776" d="M0,0H494.594V143.429H0Z" fill="#a6bbff"/>
    </clipPath>
    <clipPath id="clip-path-2">
      <rect id="Rectángulo_43147" data-name="Rectángulo 43147" width="48.802" height="40.835" fill="none"/>
    </clipPath>
    <clipPath id="clip-path-3">
      <rect id="Rectángulo_43148" data-name="Rectángulo 43148" width="130.199" height="181.956" fill="none"/>
    </clipPath>
    <clipPath id="clip-path-4">
      <rect id="Rectángulo_43149" data-name="Rectángulo 43149" width="27.098" height="52.152" fill="none"/>
    </clipPath>
    <clipPath id="clip-path-5">
      <rect id="Rectángulo_43152" data-name="Rectángulo 43152" width="534.91" height="399.391" fill="none"/>
    </clipPath>
  </defs>
  <path id="Trazado_156666" data-name="Trazado 156666" d="M0,0H494.594V143.429H0Z" fill="#a6bbff"/>
  <g id="Enmascarar_grupo_249" data-name="Enmascarar grupo 249" clip-path="url(#clip-path)">
    <g id="Grupo_170629" data-name="Grupo 170629" transform="translate(-8.689 -240.274)">
      <g id="Grupo_170486" data-name="Grupo 170486" transform="translate(-48 -17)">
        <path id="Trazado_165206" data-name="Trazado 165206" d="M493.427,128.944C489.672,65.2,445.106,4.333,384.748.558,315.424-5.269,251.792,36.443,182.737,36.884,147.525,40.2,114.5,25.4,80.186,20.627,2.682,17.506-9.127,117.435,5.328,181.847,66.287,485.51,497.647,444.195,493.427,128.944Z" transform="translate(533.588 190.886) rotate(132)" fill="#c4d1ff"/>
        <path id="Trazado_165207" data-name="Trazado 165207" d="M.018,77.647C2.2,39.26,28.163,2.609,63.319.336,103.7-3.173,140.76,21.945,180.982,22.21c20.51,1.994,39.744-6.913,59.732-9.79,45.143-1.88,52.021,58.3,43.6,97.083C248.81,292.36-2.441,267.481.018,77.647Z" transform="translate(203.811 532.462) rotate(-81)" fill="#c4d1ff" opacity="0.388" style="mix-blend-mode: multiply;isolation: isolate"/>
        <path id="Trazado_165208" data-name="Trazado 165208" d="M.026,112.166C3.185,56.714,40.683,3.769,91.468.485c58.33-5.069,111.87,31.215,169.973,31.6,29.628,2.881,57.413-9.987,86.287-14.142,65.212-2.715,75.148,84.211,62.986,140.242C359.422,422.334-3.526,386.394.026,112.166Z" transform="matrix(0.695, -0.719, 0.719, 0.695, 267.726, 427.691)" fill="#c4d1ff" opacity="0.388" style="mix-blend-mode: multiply;isolation: isolate"/>
        <path id="Trazado_165209" data-name="Trazado 165209" d="M.026,112.166C3.185,56.714,40.683,3.769,91.468.485c58.33-5.069,111.87,31.215,169.973,31.6,29.628,2.881,57.413-9.987,86.287-14.142,65.212-2.715,75.148,84.211,62.986,140.242C359.422,422.334-3.526,386.394.026,112.166Z" transform="translate(224.016 231.237) rotate(90)" fill="#c4d1ff" opacity="0.388" style="mix-blend-mode: multiply;isolation: isolate"/>
      </g>
    </g>
    <g id="Grupo_170632" data-name="Grupo 170632" transform="translate(117.476 -77.421) rotate(30)">
      <g id="Grupo_170646" data-name="Grupo 170646" transform="translate(-28.919 -4.088)">
        <g id="Grupo_170642" data-name="Grupo 170642">
          <g id="Grupo_170647" data-name="Grupo 170647">
            <path id="Trazado_165899" data-name="Trazado 165899" d="M111.138,89.11s3.221,37.693,43.169,66.365c0,0,102.682-67.408,116.857-80.294s35.847-37.294,32.625-65.645c0,0-17.712-25.659-90.181,7.2A63.682,63.682,0,0,0,202.666,23.1Z" transform="translate(-34.308 0)" fill="#6b8dfc"/>
            <path id="Trazado_165900" data-name="Trazado 165900" d="M299.849,65.449c0,14.331-11.939,25.949-26.666,25.949S246.516,79.78,246.516,65.449,258.455,39.5,273.183,39.5s26.666,11.617,26.666,25.949" transform="translate(-76.099 -12.194)" fill="#3c3fa7"/>
            <path id="Trazado_165901" data-name="Trazado 165901" d="M104.624,102.336l42.419-33.4s-24.78-20-32.754-21.692-8.94-4.832-18.847,0S74.9,58.845,74.9,58.845Z" transform="translate(-23.123 -13.79)" fill="#3c3fa7"/>
            <path id="Trazado_165902" data-name="Trazado 165902" d="M223.3,170.727l-48.082,32.86,28.511,33.827,17.639-12.806S232,220.984,229.579,201.9s-6.282-31.169-6.282-31.169" transform="translate(-54.088 -52.703)" fill="#3c3fa7"/>
            <path id="Trazado_165903" data-name="Trazado 165903" d="M138.216,164.488l-4.655-6.516,49.268-31.921a3.151,3.151,0,1,1,3.426,5.288Z" transform="translate(-41.23 -38.755)" fill="#3c3fa7"/>
            <path id="Trazado_165904" data-name="Trazado 165904" d="M293.917,68.953a17.759,17.759,0,1,1-17.759-17.759,17.759,17.759,0,0,1,17.759,17.759" transform="translate(-79.767 -15.803)" fill="#9ddaf8"/>
            <path id="Trazado_165905" data-name="Trazado 165905" d="M328.337,1.251S335.683,32.88,360.51,49.61c0,0,14.517-21.607,10.329-40.051,0,0-8.409-13.474-42.5-8.307" transform="translate(-101.357 -0.022)" fill="#3c3fa7"/>
            <path id="Trazado_165906" data-name="Trazado 165906" d="M64.346,164.058q-10.805.18-21.571,1.261c-1.82.183-3.808.468-5.039,1.82-1.835,2.014-.913,5.472,1.186,7.211s4.941,2.209,7.639,2.591a5.294,5.294,0,0,1,2.49.788,1.8,1.8,0,0,1,.606,2.315,2.658,2.658,0,0,1-2.082.834l-10.246.877c-2.586.221-5.882,1.107-6.094,3.694-.2,2.429,2.655,3.936,5.08,4.182a6.48,6.48,0,0,1,3.059.722c.877.595,1.257,2.045.418,2.691a2.478,2.478,0,0,1-1.392.369l-7.622.469a4.6,4.6,0,0,0-2.113.475c-1.728,1.039-1.224,3.92.429,5.076s3.835,1.094,5.849.987A7.5,7.5,0,0,1,33.4,207a24.264,24.264,0,0,1-5.265,4.6c-9.248,6.724-17.791,14.358-26.316,21.978-1.072.958-2.249,2.347-1.656,3.657.436.964,1.618,1.3,2.664,1.466a31.9,31.9,0,0,0,20.915-4.37,45.551,45.551,0,0,0,15.175-15.352c1.2-1.927,2.933-4.233,5.146-3.723,2.12.488,2.765,3.252,2.4,5.4s-1.306,4.32-.724,6.416c3.513-.343,5.8-3.9,6.791-7.287s1.294-7.093,3.3-9.994c1.564,1.272,2.031,3.463,2.05,5.479s-.306,4.058.1,6.032a1.46,1.46,0,0,0,2.415,1.183c4.887-2.547,6.2-8.777,7.32-14.172a1.66,1.66,0,0,1,.428-.953,1.406,1.406,0,0,1,1.543.031,6.059,6.059,0,0,1,2.733,4.287c.351,1.717.324,3.494.685,5.208a2.044,2.044,0,0,0,.632,1.259,2.107,2.107,0,0,0,2.041-.05c6.273-2.605,9.871-9.089,12.993-15.122a2.629,2.629,0,0,0-.207-3.509c-8.155-11.41-19.468-19.038-22.529-32.725Z" transform="translate(0 -50.644)" fill="#ff9807"/>
            <path id="Trazado_165907" data-name="Trazado 165907" d="M90.862,181.05q-4.741.079-9.464.553a3.338,3.338,0,0,0-2.211.8,2.311,2.311,0,0,0,.52,3.164A6.557,6.557,0,0,0,83.06,186.7a2.32,2.32,0,0,1,1.092.346.792.792,0,0,1,.265,1.016,1.166,1.166,0,0,1-.914.366l-4.5.384c-1.134.1-2.58.486-2.673,1.621-.088,1.066,1.165,1.726,2.229,1.835a2.844,2.844,0,0,1,1.343.317c.384.261.552.9.183,1.181a1.087,1.087,0,0,1-.61.162l-3.344.206a2.015,2.015,0,0,0-.927.208c-.758.456-.537,1.72.188,2.227a4.05,4.05,0,0,0,2.566.433,3.286,3.286,0,0,1-.679,2.885,10.651,10.651,0,0,1-2.31,2.021,149.507,149.507,0,0,0-11.546,9.642c-.471.421-.987,1.03-.727,1.6a1.44,1.44,0,0,0,1.168.644,14,14,0,0,0,9.176-1.918,19.986,19.986,0,0,0,6.658-6.736c.527-.845,1.287-1.857,2.258-1.633.93.214,1.214,1.427,1.053,2.368A6.591,6.591,0,0,0,82.7,208.7c1.541-.151,2.545-1.711,2.98-3.2s.568-3.112,1.45-4.385a3.068,3.068,0,0,1,.9,2.4,13.691,13.691,0,0,0,.045,2.647.641.641,0,0,0,1.06.519c2.144-1.118,2.72-3.851,3.212-6.218a.727.727,0,0,1,.187-.418.616.616,0,0,1,.677.014,2.655,2.655,0,0,1,1.2,1.88c.154.754.142,1.533.3,2.285a.9.9,0,0,0,.277.552.924.924,0,0,0,.9-.021c2.752-1.143,4.331-3.988,5.7-6.634a1.154,1.154,0,0,0-.091-1.54c-3.578-5.006-8.542-8.353-9.885-14.358Z" transform="translate(-19.334 -55.89)" fill="#ffd236"/>
            <path id="Trazado_165908" data-name="Trazado 165908" d="M108.719,151.209l-17.737,1.73s0,27.71,32.618,50.422l9.541-13.887s-18.481-18.732-24.423-38.265" transform="translate(-28.086 -46.678)" fill="#959595"/>
            <path id="Trazado_165909" data-name="Trazado 165909" d="M273.241,51.906l-7.82,29.209s5.939,7.982,18.02,4.761l8.626-28.205s-7.338-9.326-18.826-5.765" transform="translate(-81.935 -15.773)" fill="#cbecfb"/>
            <g id="Grupo_170634" data-name="Grupo 170634" transform="translate(75.118 47.712)" opacity="0.26">
              <g id="Grupo_170633" data-name="Grupo 170633">
                <g id="Grupo_170632-2" data-name="Grupo 170632" clip-path="url(#clip-path-2)">
                  <path id="Trazado_165910" data-name="Trazado 165910" d="M147.844,69.017,108.66,100.51l6.383,9.342,42.42-33.4Z" transform="translate(-108.661 -69.017)"/>
                </g>
              </g>
            </g>
            <g id="Grupo_170637" data-name="Grupo 170637" transform="translate(139.752 2.756)" opacity="0.26">
              <g id="Grupo_170636" data-name="Grupo 170636">
                <g id="Grupo_170635" data-name="Grupo 170635" clip-path="url(#clip-path-3)">
                  <path id="Trazado_165911" data-name="Trazado 165911" d="M321.668,3.986S319.4,55.064,258.8,89.777l-39.263,26.095s6.765,28.028,5.074,33.344-2.416,11.84-8.457,15.222a128.713,128.713,0,0,0-13.993,9.775l9.886,11.729,17.639-12.806s7.878-3.389,8.53-19.091l-5.389-30.508L280.5,90.582S301.041,77.615,314.571,60.3c2.632-3.368,5.431-6.3,6.988-9.481,5.409-11.055,4.288-4.774,9.523-22.815,1.338-4.611,1.651-9.461.805-17.236-.292-2.684-10.219-6.781-10.219-6.781" transform="translate(-202.157 -3.986)"/>
                </g>
              </g>
            </g>
            <g id="Grupo_170640" data-name="Grupo 170640" transform="translate(77.957 104.531)" opacity="0.26">
              <g id="Grupo_170639" data-name="Grupo 170639">
                <g id="Grupo_170638" data-name="Grupo 170638" clip-path="url(#clip-path-4)">
                  <path id="Trazado_165912" data-name="Trazado 165912" d="M112.769,151.209s8.054,21.627,20.3,34.191l-9.48,13.6,6.742,4.359,9.541-13.887s-20.62-22.844-24.423-38.265Z" transform="translate(-112.769 -151.209)"/>
                </g>
              </g>
            </g>
          </g>
        </g>
      </g>
    </g>
    <g id="Grupo_170644" data-name="Grupo 170644" transform="translate(189.191 34.109)">
      <g id="Grupo_170644-2" data-name="Grupo 170644" clip-path="url(#clip-path-5)">
        <path id="Trazado_165913" data-name="Trazado 165913" d="M523.613,71.251C565.955,155.7,485.594,281.657,344.123,352.6S53.64,412.585,11.3,328.141C-27.539,250.688,36.85,138.308,156.941,65.493c8.7-5.273,4.186-17.986,13.448-22.816,2.283-1.191,18.077-11.5,20.393-12.657,18.738-9.4,28.73-9.983,47.467-16.525,3.909-1.365,16.7,6.738,20.59,5.5C377.233-18.753,488.048.325,523.613,71.251" transform="translate(0 0)" fill="#959595"/>
        <path id="Trazado_165914" data-name="Trazado 165914" d="M294.748,19.292c1.166,2.563-14.848,12.36-35.771,21.883s-38.828,15.165-39.994,12.6,14.848-12.36,35.771-21.883,38.828-15.165,39.994-12.6" transform="translate(-53.75 -4.585)" fill="#6b6b6b"/>
        <path id="Trazado_165915" data-name="Trazado 165915" d="M183.328,142.8c1.106,2.43-10.235,9.97-25.332,16.841s-28.23,10.471-29.336,8.041,10.235-9.97,25.331-16.841,28.231-10.471,29.337-8.041" transform="translate(-31.57 -34.874)" fill="#6b6b6b"/>
        <path id="Trazado_165916" data-name="Trazado 165916" d="M454.307,8.208,328.155,34.445c-1.95.406-4.08.923-5.255,2.531-1.755,2.4-.27,6.048,2.257,7.616s5.674,1.635,8.649,1.654l32.546.212c-7.763,4.55-16.725,6.489-25.406,8.856s-17.53,5.394-24.09,11.554S306.63,83.093,310.322,91.3c4.934,10.966,19.766,13.339,31.5,10.712,18.9-4.23,34.785-16.925,53.09-23.241A82.727,82.727,0,0,1,437.045,75.7c10.972,2.076,21.444,6.368,32.455,8.227s23.3.886,31.8-6.361c7.2-6.147,10.517-15.964,10.556-25.434a45.987,45.987,0,0,0-56.1-45.056" transform="translate(-75.83 -1.472)" fill="#6b6b6b"/>
      </g>
    </g>
  </g>
</svg>
