<svg xmlns="http://www.w3.org/2000/svg" xmlns:xlink="http://www.w3.org/1999/xlink" width="506.371" height="247" viewBox="0 0 506.371 247">
  <defs>
    <clipPath id="clip-path">
      <rect id="Rectángulo_43084" data-name="Rectángulo 43084" width="506.371" height="247" rx="11" transform="translate(0 0)" fill="#a6bbff"/>
    </clipPath>
    <clipPath id="clip-path-2">
      <rect id="Rectángulo_43103" data-name="Rectángulo 43103" width="179.716" height="237.77" fill="none"/>
    </clipPath>
  </defs>
  <g id="_14" data-name="14" transform="translate(-179.815 -404)">
    <g id="Enmascarar_grupo_247" data-name="Enmascarar grupo 247" transform="translate(179.815 404)" clip-path="url(#clip-path)">
      <g id="Grupo_170487" data-name="Grupo 170487" transform="translate(-140.641 -230.876)">
        <rect id="Rectángulo_43083" data-name="Rectángulo 43083" width="527.215" height="257.001" rx="11" transform="translate(127.702 225.714)" fill="#6b8dfc"/>
        <g id="Grupo_170486" data-name="Grupo 170486" transform="translate(0 0)">
          <path id="Trazado_165206" data-name="Trazado 165206" d="M422.823,222.7c-3.217,54.625-41.406,106.78-93.128,110.015-59.4,4.993-113.932-30.75-173.106-31.128-30.174-2.838-58.472,9.838-87.877,13.931C2.3,318.191-7.821,232.56,4.565,177.365,56.8-82.847,426.44-47.443,422.823,222.7Z" transform="translate(445.471 0) rotate(48)" fill="#3c3fa7"/>
          <path id="Trazado_165207" data-name="Trazado 165207" d="M.023,200.824c2.806,49.259,36.117,96.292,81.231,99.21,51.816,4.5,99.378-27.73,150.993-28.071,26.32-2.559,51,8.872,76.652,12.563,57.931,2.412,66.757-74.808,55.953-124.582C319.287-74.71-3.132-42.784.023,200.824Z" transform="translate(262.897 596.348) rotate(-99)" fill="#3c3fa7" opacity="0.388" style="mix-blend-mode: multiply;isolation: isolate"/>
          <path id="Trazado_165208" data-name="Trazado 165208" d="M.024,211.917C2.986,263.9,38.136,313.527,85.742,316.606c54.679,4.751,104.867-29.261,159.333-29.621,27.773-2.7,53.82,9.362,80.885,13.257C387.091,302.787,396.4,221.3,385,168.778,336.923-78.836-3.305-45.147.024,211.917Z" transform="matrix(-0.695, -0.719, 0.719, -0.695, 270.365, 713.068)" fill="#3c3fa7" opacity="0.388" style="mix-blend-mode: multiply;isolation: isolate"/>
          <path id="Trazado_165209" data-name="Trazado 165209" d="M.019,166.248c2.323,40.778,29.9,79.713,67.245,82.128,42.9,3.727,82.268-22.955,125-23.238,21.788-2.119,42.221,7.344,63.454,10.4,47.956,2,55.263-61.928,46.319-103.132C264.315-61.847-2.593-35.417.019,166.248Z" transform="matrix(-0.545, 0.839, -0.839, -0.545, 761.496, 508.657)" fill="#3c3fa7" opacity="0.388" style="mix-blend-mode: multiply;isolation: isolate"/>
        </g>
      </g>
    </g>
    <g id="Grupo_170563" data-name="Grupo 170563" transform="translate(180 17)">
      <path id="Trazado_165634" data-name="Trazado 165634" d="M6.977,12.031a1.33,1.33,0,0,0-.457-1.055,4.592,4.592,0,0,0-1.605-.75,9.124,9.124,0,0,1-2.988-1.4,2.646,2.646,0,0,1-1.02-2.2A2.761,2.761,0,0,1,2.055,4.348a4.654,4.654,0,0,1,2.93-.887,4.621,4.621,0,0,1,3.043.953,2.982,2.982,0,0,1,1.113,2.5l-.016.047H6.914A1.657,1.657,0,0,0,6.4,5.652,2.106,2.106,0,0,0,4.953,5.2a1.91,1.91,0,0,0-1.3.406,1.323,1.323,0,0,0-.461,1.039,1.135,1.135,0,0,0,.5.949,6.689,6.689,0,0,0,1.727.785A7.429,7.429,0,0,1,8.273,9.762a2.841,2.841,0,0,1,.984,2.254,2.713,2.713,0,0,1-1.141,2.3,4.952,4.952,0,0,1-3.016.844,5.388,5.388,0,0,1-3.152-.914A3.015,3.015,0,0,1,.672,11.523l.016-.047H2.9a1.79,1.79,0,0,0,.594,1.484,2.5,2.5,0,0,0,1.609.477A2.2,2.2,0,0,0,6.5,13.055,1.242,1.242,0,0,0,6.977,12.031ZM10.414,10.7a4.536,4.536,0,0,1,1.055-3.1,3.676,3.676,0,0,1,2.922-1.207,3.715,3.715,0,0,1,2.938,1.2,4.512,4.512,0,0,1,1.063,3.1v.164a4.519,4.519,0,0,1-1.059,3.105,3.7,3.7,0,0,1-2.926,1.2,3.709,3.709,0,0,1-2.934-1.2,4.519,4.519,0,0,1-1.059-3.105Zm2.273.164a3.677,3.677,0,0,0,.406,1.855,1.4,1.4,0,0,0,1.313.7,1.389,1.389,0,0,0,1.293-.7,3.653,3.653,0,0,0,.41-1.852V10.7A3.616,3.616,0,0,0,15.7,8.859a1.4,1.4,0,0,0-1.3-.711,1.384,1.384,0,0,0-1.293.715,3.648,3.648,0,0,0-.41,1.832ZM22.18,14.9l-1.242,2.461H19.414l.547-2.531V13.047H22.18Zm8.18-4.445V15H28.078V3.625h3.938a4.716,4.716,0,0,1,3.043.887,3,3,0,0,1,1.1,2.473A2.494,2.494,0,0,1,35.691,8.5a3.238,3.238,0,0,1-1.355,1.027,2.448,2.448,0,0,1,1.449.992,3.146,3.146,0,0,1,.441,1.719v.836a4.135,4.135,0,0,0,.129,1,1.37,1.37,0,0,0,.441.77V15H34.445a1.263,1.263,0,0,1-.4-.828,7.275,7.275,0,0,1-.09-1.117v-.8a1.808,1.808,0,0,0-.465-1.324,1.763,1.763,0,0,0-1.316-.473Zm0-1.758h1.617a2.139,2.139,0,0,0,1.43-.406,1.506,1.506,0,0,0,.469-1.2A1.655,1.655,0,0,0,33.4,5.844a1.909,1.909,0,0,0-1.387-.461H30.359ZM40.5,15H38.219V6.547H40.5Zm0-10.477H38.219V2.813H40.5Zm1.539,6.32a5.474,5.474,0,0,1,.867-3.227,2.813,2.813,0,0,1,2.438-1.227,2.4,2.4,0,0,1,1.25.32,2.806,2.806,0,0,1,.922.914l.18-1.078h1.961v8.414a3.142,3.142,0,0,1-1.078,2.551,4.552,4.552,0,0,1-3.008.9,5.73,5.73,0,0,1-1.359-.176,6.313,6.313,0,0,1-1.328-.48l.383-1.7a5.235,5.235,0,0,0,1.082.379,5.362,5.362,0,0,0,1.207.129,2.042,2.042,0,0,0,1.379-.391,1.546,1.546,0,0,0,.441-1.219v-.766a2.552,2.552,0,0,1-.883.727,2.6,2.6,0,0,1-1.164.25,2.869,2.869,0,0,1-2.422-1.141,4.855,4.855,0,0,1-.867-3.016Zm2.281.164a3.473,3.473,0,0,0,.371,1.746,1.3,1.3,0,0,0,1.215.637,1.883,1.883,0,0,0,.887-.191,1.462,1.462,0,0,0,.582-.559V8.977a1.559,1.559,0,0,0-.582-.6,1.706,1.706,0,0,0-.871-.211,1.279,1.279,0,0,0-1.219.742,4.231,4.231,0,0,0-.383,1.938Zm9.313-3.391a2.9,2.9,0,0,1,.977-.9,2.815,2.815,0,0,1,3.355.555,4.1,4.1,0,0,1,.754,2.715V15H56.438V9.969a2.336,2.336,0,0,0-.316-1.395,1.124,1.124,0,0,0-.949-.41,2.271,2.271,0,0,0-.91.168,1.571,1.571,0,0,0-.629.48V15H51.352V2.813h2.281Zm9.539-3.141v2.07H64.6v1.6h-1.43v4.3a.982.982,0,0,0,.207.7.727.727,0,0,0,.543.211,2.178,2.178,0,0,0,.313-.02,2.632,2.632,0,0,0,.3-.066l.188,1.648a4.618,4.618,0,0,1-.668.176,3.982,3.982,0,0,1-.707.059,2.431,2.431,0,0,1-1.816-.648,2.843,2.843,0,0,1-.637-2.055V8.148H59.664v-1.6H60.9V4.477ZM68.391,14.9l-1.242,2.461H65.625l.547-2.531V13.047h2.219Zm14.875-3.555h.047L84.82,3.625h2.352L84.516,15H82.4L80.3,7.508h-.047L78.172,15H76.055L73.4,3.625H75.75l1.516,7.711h.047l2.047-7.711H81.2Zm8.367,3.82A3.8,3.8,0,0,1,88.68,14a4.252,4.252,0,0,1-1.062-2.988V10.7a4.628,4.628,0,0,1,1.031-3.109,3.506,3.506,0,0,1,2.836-1.2A3.282,3.282,0,0,1,94.1,7.434a4.122,4.122,0,0,1,.91,2.809v1.18H89.969l-.023.047a2.284,2.284,0,0,0,.527,1.406,1.766,1.766,0,0,0,1.4.539,4.692,4.692,0,0,0,1.3-.156,5.307,5.307,0,0,0,1.105-.477l.617,1.406a4.234,4.234,0,0,1-1.375.7A6.1,6.1,0,0,1,91.633,15.164Zm-.148-7.016a1.267,1.267,0,0,0-1.059.473,2.371,2.371,0,0,0-.449,1.254l.016.039h2.781V9.742a1.974,1.974,0,0,0-.3-1.168A1.127,1.127,0,0,0,91.484,8.148ZM98.734,15H96.453V2.813h2.281Zm4.273,0h-2.281V2.813h2.281Zm4.258-.1-1.242,2.461H104.5l.547-2.531V13.047h2.219Zm15.1-4.562a4.776,4.776,0,0,1-1.32,3.465,4.991,4.991,0,0,1-6.859,0,4.8,4.8,0,0,1-1.312-3.461V8.289a4.807,4.807,0,0,1,1.309-3.457,4.5,4.5,0,0,1,3.41-1.371,4.583,4.583,0,0,1,3.445,1.371,4.768,4.768,0,0,1,1.328,3.457Zm-2.273-2.062a3.44,3.44,0,0,0-.664-2.18,2.2,2.2,0,0,0-1.836-.852,2.129,2.129,0,0,0-1.8.852,3.512,3.512,0,0,0-.645,2.18v2.063a3.537,3.537,0,0,0,.648,2.2,2.148,2.148,0,0,0,1.813.852,2.177,2.177,0,0,0,1.828-.852,3.507,3.507,0,0,0,.656-2.2Zm6.766,3.188h-.578V15H124V2.813h2.281V9.727h.508l2.023-3.18h2.641L128.7,10.4l3.125,4.6H129.2Zm8.094,3.438-1.242,2.461h-1.523l.547-2.531V13.047h2.219Zm11.828-2.352h-3.687L142.328,15h-2.383l3.836-11.375h2.336L149.938,15h-2.383Zm-3.125-1.789h2.57L144.969,6.75h-.047Zm8.914-4.211.1,1.211a3.092,3.092,0,0,1,1.039-1.008,2.7,2.7,0,0,1,1.383-.359,2.513,2.513,0,0,1,2,.824,3.908,3.908,0,0,1,.719,2.605V15h-2.289V9.828a2.024,2.024,0,0,0-.316-1.285,1.166,1.166,0,0,0-.949-.379,1.992,1.992,0,0,0-.895.191,1.746,1.746,0,0,0-.637.527V15h-2.281V6.547Zm9.992,4.906.094.469h.047l1.617-5.375h2.453l-3.43,9.719a4.474,4.474,0,0,1-.977,1.527,2.505,2.505,0,0,1-1.852.621,2.863,2.863,0,0,1-.535-.047q-.246-.047-.6-.133l.266-1.664.219.031a1.611,1.611,0,0,0,.211.016,1.243,1.243,0,0,0,.867-.277,1.83,1.83,0,0,0,.469-.691l.266-.656-3-8.445h2.453Zm12.477.406h.047l1.023-5.312h2.219L176.18,15h-1.906l-1.57-4.875h-.047L171.086,15h-1.9l-2.148-8.453h2.219l1.039,5.289h.047l1.578-5.289h1.523ZM184.445,15a4.8,4.8,0,0,1-.215-.609,4.24,4.24,0,0,1-.129-.656,3.127,3.127,0,0,1-.93,1.023,2.33,2.33,0,0,1-1.375.406,2.855,2.855,0,0,1-2.047-.684,2.449,2.449,0,0,1-.719-1.863,2.229,2.229,0,0,1,.957-1.926,4.78,4.78,0,0,1,2.793-.684h1.281V9.336a1.315,1.315,0,0,0-.32-.945,1.257,1.257,0,0,0-.953-.336,1.239,1.239,0,0,0-.855.27.941.941,0,0,0-.3.738h-2.2l-.016-.047a2.144,2.144,0,0,1,.934-1.848,4.055,4.055,0,0,1,2.582-.777,3.784,3.784,0,0,1,2.465.766,2.667,2.667,0,0,1,.941,2.2v3.492a6.605,6.605,0,0,0,.09,1.117A5.606,5.606,0,0,0,186.719,15Zm-2.086-1.523a1.944,1.944,0,0,0,1.063-.3,1.6,1.6,0,0,0,.641-.687V11.3h-1.281a1.519,1.519,0,0,0-1.1.359,1.181,1.181,0,0,0-.371.883.881.881,0,0,0,.277.684A1.1,1.1,0,0,0,182.359,13.477Zm8.625-2.023.094.469h.047l1.617-5.375H195.2l-3.43,9.719a4.474,4.474,0,0,1-.977,1.527,2.505,2.505,0,0,1-1.852.621,2.863,2.863,0,0,1-.535-.047q-.246-.047-.6-.133l.266-1.664.219.031a1.611,1.611,0,0,0,.211.016,1.243,1.243,0,0,0,.867-.277,1.83,1.83,0,0,0,.469-.691l.266-.656-3-8.445h2.453ZM3.258,39.9,2.016,42.359H.492l.547-2.531V38.047H3.258ZM15.8,35.273H11.438V40H9.156V28.625H16.6v1.758H11.438v3.133H15.8ZM20.281,40H18V31.547h2.281Zm0-10.477H18V27.813h2.281Zm6.32,3.984-.836-.023a1.519,1.519,0,0,0-.836.211,1.337,1.337,0,0,0-.5.594V40H22.156V31.547h2.117l.1,1.25a2.667,2.667,0,0,1,.77-1.035,1.8,1.8,0,0,1,1.406-.344q.145.027.293.066Zm5.758,4.148A.787.787,0,0,0,32,37.012a3.69,3.69,0,0,0-1.348-.473,5.375,5.375,0,0,1-2.254-.9,1.962,1.962,0,0,1-.77-1.633,2.329,2.329,0,0,1,.922-1.852A3.717,3.717,0,0,1,31,31.391a4.011,4.011,0,0,1,2.566.766,2.237,2.237,0,0,1,.926,1.906l-.016.047h-2.2a1.106,1.106,0,0,0-.328-.828,1.534,1.534,0,0,0-1.812-.047.85.85,0,0,0-.32.672.759.759,0,0,0,.332.637,3.7,3.7,0,0,0,1.348.441,5.484,5.484,0,0,1,2.316.918,2.014,2.014,0,0,1,.762,1.668,2.231,2.231,0,0,1-.977,1.867,4.215,4.215,0,0,1-2.578.727,3.918,3.918,0,0,1-2.668-.855,2.392,2.392,0,0,1-.934-1.949l.016-.047h2.086a1.186,1.186,0,0,0,.445.984,1.838,1.838,0,0,0,1.1.3,1.567,1.567,0,0,0,.965-.254A.824.824,0,0,0,32.359,37.656Zm6.414-8.18v2.07H40.2v1.6h-1.43v4.3a.982.982,0,0,0,.207.7.727.727,0,0,0,.543.211,2.178,2.178,0,0,0,.313-.02,2.632,2.632,0,0,0,.3-.066l.188,1.648a4.618,4.618,0,0,1-.668.176,3.982,3.982,0,0,1-.707.059,2.431,2.431,0,0,1-1.816-.648,2.843,2.843,0,0,1-.637-2.055V33.148H35.266v-1.6H36.5v-2.07ZM43.992,39.9,42.75,42.359H41.227l.547-2.531V38.047h2.219ZM57.82,30.383H54.57V40H52.289V30.383h-3.2V28.625H57.82Zm3.3,2.234a2.9,2.9,0,0,1,.977-.9,2.815,2.815,0,0,1,3.355.555,4.1,4.1,0,0,1,.754,2.715V40H63.93V34.969a2.336,2.336,0,0,0-.316-1.395,1.124,1.124,0,0,0-.949-.41,2.271,2.271,0,0,0-.91.168,1.571,1.571,0,0,0-.629.48V40H58.844V27.813h2.281Zm10.469,7.547A3.8,3.8,0,0,1,68.641,39a4.252,4.252,0,0,1-1.062-2.988V35.7a4.628,4.628,0,0,1,1.031-3.109,3.506,3.506,0,0,1,2.836-1.2,3.282,3.282,0,0,1,2.613,1.043,4.122,4.122,0,0,1,.91,2.809v1.18H69.93l-.023.047a2.284,2.284,0,0,0,.527,1.406,1.766,1.766,0,0,0,1.4.539,4.692,4.692,0,0,0,1.3-.156,5.307,5.307,0,0,0,1.105-.477l.617,1.406a4.234,4.234,0,0,1-1.375.7A6.1,6.1,0,0,1,71.594,40.164Zm-.148-7.016a1.267,1.267,0,0,0-1.059.473,2.371,2.371,0,0,0-.449,1.254l.016.039h2.781v-.172a1.974,1.974,0,0,0-.3-1.168A1.127,1.127,0,0,0,71.445,33.148Zm6.938-1.6.1,1.211a3.092,3.092,0,0,1,1.039-1.008,2.7,2.7,0,0,1,1.383-.359,2.513,2.513,0,0,1,2,.824,3.908,3.908,0,0,1,.719,2.605V40H81.336V34.828a2.024,2.024,0,0,0-.316-1.285,1.166,1.166,0,0,0-.949-.379,1.992,1.992,0,0,0-.895.191,1.746,1.746,0,0,0-.637.527V40H76.258V31.547ZM87.711,39.9l-1.242,2.461H84.945l.547-2.531V38.047h2.219Zm11.828-2.352H95.852L95.086,40H92.7l3.836-11.375h2.336L102.7,40h-2.383Zm-3.125-1.789h2.57L97.727,31.75H97.68Zm7.8,4.242V33.148h-1.258v-1.6h1.258v-.937a2.859,2.859,0,0,1,.82-2.191,3.239,3.239,0,0,1,2.3-.77,4.168,4.168,0,0,1,.59.043q.3.043.66.121l-.2,1.7q-.187-.031-.363-.055a3.144,3.144,0,0,0-.41-.023,1.1,1.1,0,0,0-.84.3,1.234,1.234,0,0,0-.285.875v.938h1.625v1.6h-1.625V40Zm7.719-10.523v2.07h1.43v1.6h-1.43v4.3a.982.982,0,0,0,.207.7.727.727,0,0,0,.543.211,2.178,2.178,0,0,0,.313-.02,2.632,2.632,0,0,0,.3-.066l.188,1.648a4.618,4.618,0,0,1-.668.176,3.982,3.982,0,0,1-.707.059,2.431,2.431,0,0,1-1.816-.648,2.843,2.843,0,0,1-.637-2.055V33.148h-1.234v-1.6h1.234v-2.07Zm6.5,10.688A3.8,3.8,0,0,1,115.477,39a4.252,4.252,0,0,1-1.062-2.988V35.7a4.628,4.628,0,0,1,1.031-3.109,3.506,3.506,0,0,1,2.836-1.2,3.282,3.282,0,0,1,2.613,1.043,4.122,4.122,0,0,1,.91,2.809v1.18h-5.039l-.023.047a2.284,2.284,0,0,0,.527,1.406,1.766,1.766,0,0,0,1.4.539,4.692,4.692,0,0,0,1.3-.156,5.307,5.307,0,0,0,1.105-.477l.617,1.406a4.234,4.234,0,0,1-1.375.7A6.1,6.1,0,0,1,118.43,40.164Zm-.148-7.016a1.267,1.267,0,0,0-1.059.473,2.371,2.371,0,0,0-.449,1.254l.016.039h2.781v-.172a1.974,1.974,0,0,0-.3-1.168A1.127,1.127,0,0,0,118.281,33.148Zm9.3.359-.836-.023a1.519,1.519,0,0,0-.836.211,1.337,1.337,0,0,0-.5.594V40h-2.273V31.547h2.117l.1,1.25a2.667,2.667,0,0,1,.77-1.035,1.8,1.8,0,0,1,1.406-.344q.145.027.293.066ZM129.8,39.9l-1.242,2.461h-1.523l.547-2.531V38.047H129.8Zm15.094.1h-2.281l-4.586-7.672-.047.008V40H135.7V28.625h2.281l4.586,7.664.047-.008V28.625h2.281Zm5.586.164A3.8,3.8,0,0,1,147.523,39a4.252,4.252,0,0,1-1.062-2.988V35.7a4.628,4.628,0,0,1,1.031-3.109,3.506,3.506,0,0,1,2.836-1.2,3.282,3.282,0,0,1,2.613,1.043,4.122,4.122,0,0,1,.91,2.809v1.18h-5.039l-.023.047a2.284,2.284,0,0,0,.527,1.406,1.766,1.766,0,0,0,1.4.539,4.692,4.692,0,0,0,1.3-.156,5.307,5.307,0,0,0,1.105-.477l.617,1.406a4.234,4.234,0,0,1-1.375.7A6.1,6.1,0,0,1,150.477,40.164Zm-.148-7.016a1.267,1.267,0,0,0-1.059.473,2.371,2.371,0,0,0-.449,1.254l.016.039h2.781v-.172a1.974,1.974,0,0,0-.3-1.168A1.127,1.127,0,0,0,150.328,33.148Zm8.031,1.086h.047l1.3-2.687h2.578l-2.547,4.18L162.367,40H159.8l-1.383-2.8L157.031,40h-2.578l2.633-4.273-2.555-4.18h2.563Zm7.727-4.758v2.07h1.43v1.6h-1.43v4.3a.982.982,0,0,0,.207.7.727.727,0,0,0,.543.211,2.178,2.178,0,0,0,.313-.02,2.631,2.631,0,0,0,.3-.066l.188,1.648a4.619,4.619,0,0,1-.668.176,3.982,3.982,0,0,1-.707.059,2.431,2.431,0,0,1-1.816-.648,2.843,2.843,0,0,1-.637-2.055V33.148h-1.234v-1.6h1.234v-2.07Z" transform="translate(236 513)" fill="#fff"/>
      <path id="Trazado_165633" data-name="Trazado 165633" d="M33.547,3.27a15.491,15.491,0,0,1,4.941,5.264,14.27,14.27,0,0,1,1.719,7.08,24.658,24.658,0,0,1-.635,5.791,19.971,19.971,0,0,1-1.748,4.717,15.375,15.375,0,0,1-2.607,3.6,13.99,13.99,0,0,1-3.193,2.451,9.8,9.8,0,0,1-2.1.859,7.071,7.071,0,0,1-1.787.254,4.622,4.622,0,0,1-2.178-.469A4.316,4.316,0,0,1,24.6,31.775a2.007,2.007,0,0,1-.508-1.064q-.039-.488.371-.527.625-.059.752-.371a1.419,1.419,0,0,0-.088-.937,18.156,18.156,0,0,1-.752-3.691q-.264-2.266-.312-5t.137-5.752q.186-3.018.6-5.967a1.55,1.55,0,0,0-.068-.85q-.146-.342-.361-.381a2.52,2.52,0,0,1-.986-.371,1.21,1.21,0,0,1-.479-.605,1.433,1.433,0,0,1-.02-.781,3.211,3.211,0,0,1,.371-.9A4.665,4.665,0,0,1,24.26,3.367a5.5,5.5,0,0,1,1.309-.83,6.481,6.481,0,0,1,1.523-.469,9.152,9.152,0,0,1,1.631-.146,9.514,9.514,0,0,1,2.617.361A7.8,7.8,0,0,1,33.547,3.27ZM28.156,28.133a1.931,1.931,0,0,0,.264.771.559.559,0,0,0,.479.225,1.585,1.585,0,0,0,.361-.049,4.667,4.667,0,0,0,.479-.146,6.2,6.2,0,0,0,2.393-1.67A13.021,13.021,0,0,0,34.289,24.1a20.431,20.431,0,0,0,1.553-4.355,22.068,22.068,0,0,0,.6-5.225,10.865,10.865,0,0,0-.4-2.988,8.052,8.052,0,0,0-1.191-2.51,6.849,6.849,0,0,0-1.992-1.846,7.273,7.273,0,0,0-2.8-.977,1.943,1.943,0,0,0-.205-.029q-.107-.01-.225-.01a.624.624,0,0,0-.4.117.755.755,0,0,0-.225.3,1.576,1.576,0,0,0-.107.4,3.039,3.039,0,0,0-.029.41q-.059,1.133-.2,2.813t-.273,3.633q-.137,1.953-.264,4.014t-.186,3.994q-.059,1.934-.02,3.564A18.4,18.4,0,0,0,28.156,28.133Zm13.4-1.719q0-.684-.029-1.816t-.02-2.422q.01-1.289.1-2.607a19.535,19.535,0,0,1,.293-2.383,5.769,5.769,0,0,1,.586-1.738,1.124,1.124,0,0,1,.986-.674A2.49,2.49,0,0,1,44.631,15a1.435,1.435,0,0,1,.6,1.025,8.869,8.869,0,0,1,.127.986q.049.6.049,1.436,0,.449.02,1.523t.029,2.441q.01,1.367.02,2.861t-.01,2.822q-.02,1.328-.078,2.3a6.669,6.669,0,0,1-.156,1.289.629.629,0,0,1-.312.361,2.312,2.312,0,0,1-.479.2,2.565,2.565,0,0,1-.469.088q-.225.02-.3.02a1.174,1.174,0,0,1-.918-.459,3.729,3.729,0,0,1-.654-1.27,10.355,10.355,0,0,1-.4-1.895A18.523,18.523,0,0,1,41.555,26.414ZM41.945,7.02a3.755,3.755,0,0,1,.146-1.064,2.545,2.545,0,0,1,.439-.869,1.973,1.973,0,0,1,.742-.576A2.469,2.469,0,0,1,44.309,4.3a2.872,2.872,0,0,1,.811.117,1.866,1.866,0,0,1,.713.391,2.038,2.038,0,0,1,.508.7,2.6,2.6,0,0,1,.2,1.074,2.987,2.987,0,0,1-.215,1.172,2.319,2.319,0,0,1-.586.84,2.479,2.479,0,0,1-.85.5,2.988,2.988,0,0,1-.986.166,2,2,0,0,1-.986-.215,1.707,1.707,0,0,1-.6-.537,1.967,1.967,0,0,1-.293-.723A4.028,4.028,0,0,1,41.945,7.02ZM47.16,29.266a1.9,1.9,0,0,1,.332-1.143.929.929,0,0,1,.742-.459.847.847,0,0,1,.557.225q.264.225.615.488a4.393,4.393,0,0,0,.859.488,3.144,3.144,0,0,0,1.27.225q.117,0,.42-.029a1.752,1.752,0,0,0,.615-.186,1.55,1.55,0,0,0,.547-.469,1.477,1.477,0,0,0,.234-.9,1.838,1.838,0,0,0-.4-1.221,4.169,4.169,0,0,0-1.016-.859q-.615-.381-1.328-.732a7.381,7.381,0,0,1-1.328-.84,4.355,4.355,0,0,1-1.035-1.191,3.69,3.69,0,0,1-.459-1.777,5.609,5.609,0,0,1,.381-2.109,5.761,5.761,0,0,1,1.182-1.895,5.933,5.933,0,0,1,1.924-1.357,6.156,6.156,0,0,1,2.568-.518,6.29,6.29,0,0,1,1.035.088,3.364,3.364,0,0,1,.957.3,1.86,1.86,0,0,1,.7.605,1.734,1.734,0,0,1,.273,1.016,3.791,3.791,0,0,1-.049.557,2.521,2.521,0,0,1-.186.635,1.544,1.544,0,0,1-.371.527.861.861,0,0,1-.605.215,1.175,1.175,0,0,1-.449-.088q-.215-.088-.43-.2t-.439-.2a1.356,1.356,0,0,0-.5-.088,2.115,2.115,0,0,0-.771.166,2.815,2.815,0,0,0-.771.459,2.676,2.676,0,0,0-.586.684,1.571,1.571,0,0,0-.234.82,1.483,1.483,0,0,0,.42,1.025,6.752,6.752,0,0,0,1.045.908q.625.449,1.348.947a8.947,8.947,0,0,1,1.348,1.143,5.855,5.855,0,0,1,1.045,1.494,4.47,4.47,0,0,1,.42,2,4.092,4.092,0,0,1-.557,2.227,4.335,4.335,0,0,1-1.4,1.4,5.648,5.648,0,0,1-1.816.723,8.793,8.793,0,0,1-1.8.205,5.314,5.314,0,0,1-1.992-.332,4.148,4.148,0,0,1-1.338-.83,3.136,3.136,0,0,1-.752-1.074A2.884,2.884,0,0,1,47.16,29.266Zm10.977-4.98a14.443,14.443,0,0,1,.508-3.867A11.207,11.207,0,0,1,60.07,17.2a7.4,7.4,0,0,1,2.236-2.217,5.37,5.37,0,0,1,2.92-.83,3.432,3.432,0,0,1,1.816.5,5.32,5.32,0,0,1,1.406,1.23,5.929,5.929,0,0,1,.908,1.563,4.223,4.223,0,0,1,.322,1.514,5.349,5.349,0,0,1-.088.869,11.222,11.222,0,0,1-.625,2.217,8.239,8.239,0,0,1-.479,1.016,3.2,3.2,0,0,1-.547.732.872.872,0,0,1-.605.283,1.142,1.142,0,0,1-.518-.146,2.07,2.07,0,0,1-.537-.41,2.543,2.543,0,0,1-.43-.605,1.579,1.579,0,0,1-.176-.732,2.8,2.8,0,0,1,.1-.732q.1-.361.205-.752t.205-.8a3.787,3.787,0,0,0,.1-.879,3.971,3.971,0,0,0-.029-.449,1.8,1.8,0,0,0-.127-.488.936.936,0,0,0-.3-.391.863.863,0,0,0-.537-.156,1.668,1.668,0,0,0-1.2.605,5.473,5.473,0,0,0-1.016,1.631,11.777,11.777,0,0,0-.7,2.373,14.621,14.621,0,0,0-.264,2.813,9.576,9.576,0,0,0,.225,2.256,4.272,4.272,0,0,0,.605,1.445,2.177,2.177,0,0,0,.889.762,2.626,2.626,0,0,0,1.074.225,4.237,4.237,0,0,0,1.709-.381,10.69,10.69,0,0,0,1.729-.967q.859-.586,1.65-1.25t1.455-1.25q.664-.586,1.162-.967a1.5,1.5,0,0,1,.752-.381q.7,0,.889.449a3.174,3.174,0,0,1,.186,1.191,2.584,2.584,0,0,1-.41,1.24A8.129,8.129,0,0,1,72.893,28.8a14.2,14.2,0,0,1-1.67,1.5,15.212,15.212,0,0,1-2.051,1.338A12.212,12.212,0,0,1,66.9,32.6a7.952,7.952,0,0,1-2.334.361,5.521,5.521,0,0,1-2.734-.664,6.009,6.009,0,0,1-2.012-1.836,8.762,8.762,0,0,1-1.25-2.754A13,13,0,0,1,58.137,24.285ZM78.41,14.617a4.8,4.8,0,0,1,2.686.771,6.959,6.959,0,0,1,2.012,2.031,9.98,9.98,0,0,1,1.27,2.842,11.986,11.986,0,0,1,.439,3.223,9.916,9.916,0,0,1-.625,3.594,8.986,8.986,0,0,1-1.65,2.773,7.374,7.374,0,0,1-2.363,1.787,6.336,6.336,0,0,1-2.744.635,4.519,4.519,0,0,1-2.52-.674,5.3,5.3,0,0,1-1.67-1.729,7.715,7.715,0,0,1-.918-2.354,11.942,11.942,0,0,1-.283-2.549,13.365,13.365,0,0,1,.225-2.4,14.964,14.964,0,0,1,.635-2.373,13.841,13.841,0,0,1,.986-2.158,9.3,9.3,0,0,1,1.289-1.777,5.964,5.964,0,0,1,1.533-1.2A3.554,3.554,0,0,1,78.41,14.617Zm.332,3.711a1.339,1.339,0,0,0-.967.615,6.526,6.526,0,0,0-.908,1.6,12.662,12.662,0,0,0-.674,2.227,11.944,11.944,0,0,0-.264,2.49q0,.2.02.762a5.838,5.838,0,0,0,.166,1.172A3,3,0,0,0,76.6,28.27a1.126,1.126,0,0,0,.967.469,1.91,1.91,0,0,0,1.23-.508,5.1,5.1,0,0,0,1.084-1.309,7.668,7.668,0,0,0,.771-1.816,7.3,7.3,0,0,0,.293-2.031q0-.332-.02-.82a9.538,9.538,0,0,0-.1-1.016,8.3,8.3,0,0,0-.225-1.045,4.052,4.052,0,0,0-.391-.937,2.1,2.1,0,0,0-.605-.674A1.473,1.473,0,0,0,78.742,18.328ZM90.52,32.293a3.752,3.752,0,0,1-1.787-.4,3.8,3.8,0,0,1-1.279-1.113,5.824,5.824,0,0,1-.84-1.67,13.309,13.309,0,0,1-.488-2.09,22.382,22.382,0,0,1-.234-2.383q-.059-1.25-.059-2.52,0-.313.02-.957t.1-1.436q.078-.791.234-1.631a8.329,8.329,0,0,1,.43-1.533,3.569,3.569,0,0,1,.693-1.143,1.329,1.329,0,0,1,1.006-.449,1.572,1.572,0,0,1,.693.166,1.918,1.918,0,0,1,.6.449,2.282,2.282,0,0,1,.41.664,2.115,2.115,0,0,1,.156.811q0,.84-.078,1.719t-.166,1.768q-.088.889-.166,1.787t-.078,1.777q0,.293.01.732t.068.938a8.872,8.872,0,0,0,.176,1,3.947,3.947,0,0,0,.322.9,1.9,1.9,0,0,0,.518.645,1.2,1.2,0,0,0,.762.244,1.731,1.731,0,0,0,1.367-.635,5.059,5.059,0,0,0,.9-1.621,11.973,11.973,0,0,0,.537-2.178q.186-1.191.264-2.314t.088-2.031q.01-.908.01-1.318a6.321,6.321,0,0,1,.1-1.113,3.441,3.441,0,0,1,.313-.967,1.9,1.9,0,0,1,.557-.674,1.321,1.321,0,0,1,.811-.254,1.287,1.287,0,0,1,.85.283,2.123,2.123,0,0,1,.557.732,3.886,3.886,0,0,1,.313.986,5.837,5.837,0,0,1,.1,1.045q0,1.582-.059,3.008t-.117,2.832Q98.059,25.75,98,27.186t-.059,3.037a4.043,4.043,0,0,1-.488,2.295,1.5,1.5,0,0,1-1.27.674,2.39,2.39,0,0,1-1.035-.176,1.094,1.094,0,0,1-.5-.449,1.413,1.413,0,0,1-.166-.586q-.02-.313-.02-.586a1.254,1.254,0,0,0-.068-.449.288.288,0,0,0-.3-.176.826.826,0,0,0-.527.234q-.273.234-.664.527a4.387,4.387,0,0,1-.957.527A3.751,3.751,0,0,1,90.52,32.293ZM99.719,31a5.3,5.3,0,0,1-.137-.947q-.059-.693-.088-1.641t-.039-2.041q-.01-1.094-.01-2.129t.01-1.924q.01-.889.01-1.416a11.321,11.321,0,0,1,.1-1.387,6.513,6.513,0,0,1,.352-1.465,3.687,3.687,0,0,1,.674-1.162,1.376,1.376,0,0,1,1.084-.479,1.045,1.045,0,0,1,.771.264,1.989,1.989,0,0,1,.41.586q.146.322.244.586t.293.264a.8.8,0,0,0,.469-.293q.273-.273.625-.6a5.883,5.883,0,0,1,.791-.605,4.864,4.864,0,0,1,.977-.479,3.435,3.435,0,0,1,1.182-.2,3.593,3.593,0,0,1,1.533.322,3.735,3.735,0,0,1,1.182.85,3.958,3.958,0,0,1,.762,1.191,3.511,3.511,0,0,1,.273,1.348,4.389,4.389,0,0,1-.059.723,1.976,1.976,0,0,1-.215.635,1.237,1.237,0,0,1-.439.459,1.413,1.413,0,0,1-.752.176,1.272,1.272,0,0,1-.889-.264,2.735,2.735,0,0,1-.479-.586,4.489,4.489,0,0,0-.42-.586.861.861,0,0,0-.693-.264,2.025,2.025,0,0,0-1.445.732,6.8,6.8,0,0,0-1.24,1.914,13.508,13.508,0,0,0-.869,2.7,14.406,14.406,0,0,0-.332,3.1,9.28,9.28,0,0,1-.156,1.836,4.369,4.369,0,0,1-.43,1.25,1.862,1.862,0,0,1-.625.7,1.434,1.434,0,0,1-.762.215,1.379,1.379,0,0,1-.625-.137,1.825,1.825,0,0,1-.479-.342,2.051,2.051,0,0,1-.342-.449A3.156,3.156,0,0,1,99.719,31Zm12.129-1.738a1.9,1.9,0,0,1,.332-1.143.929.929,0,0,1,.742-.459.847.847,0,0,1,.557.225q.264.225.615.488a4.393,4.393,0,0,0,.859.488,3.144,3.144,0,0,0,1.27.225q.117,0,.42-.029a1.752,1.752,0,0,0,.615-.186,1.55,1.55,0,0,0,.547-.469,1.477,1.477,0,0,0,.234-.9,1.838,1.838,0,0,0-.4-1.221,4.169,4.169,0,0,0-1.016-.859q-.615-.381-1.328-.732a7.381,7.381,0,0,1-1.328-.84,4.355,4.355,0,0,1-1.035-1.191,3.69,3.69,0,0,1-.459-1.777,5.609,5.609,0,0,1,.381-2.109,5.761,5.761,0,0,1,1.182-1.895,5.933,5.933,0,0,1,1.924-1.357,6.156,6.156,0,0,1,2.568-.518,6.29,6.29,0,0,1,1.035.088,3.364,3.364,0,0,1,.957.3,1.86,1.86,0,0,1,.7.605,1.734,1.734,0,0,1,.273,1.016,3.79,3.79,0,0,1-.049.557,2.521,2.521,0,0,1-.186.635,1.544,1.544,0,0,1-.371.527.861.861,0,0,1-.605.215,1.175,1.175,0,0,1-.449-.088q-.215-.088-.43-.2t-.439-.2a1.356,1.356,0,0,0-.5-.088,2.115,2.115,0,0,0-.771.166,2.815,2.815,0,0,0-.771.459,2.676,2.676,0,0,0-.586.684,1.571,1.571,0,0,0-.234.82,1.483,1.483,0,0,0,.42,1.025,6.752,6.752,0,0,0,1.045.908q.625.449,1.348.947a8.946,8.946,0,0,1,1.348,1.143,5.855,5.855,0,0,1,1.045,1.494,4.47,4.47,0,0,1,.42,2,4.092,4.092,0,0,1-.557,2.227,4.335,4.335,0,0,1-1.4,1.4,5.648,5.648,0,0,1-1.816.723,8.793,8.793,0,0,1-1.8.205,5.314,5.314,0,0,1-1.992-.332,4.148,4.148,0,0,1-1.338-.83,3.136,3.136,0,0,1-.752-1.074A2.884,2.884,0,0,1,111.848,29.266Zm22.7-9.375a6.322,6.322,0,0,1-.312,2.012,7.241,7.241,0,0,1-.83,1.719,7.387,7.387,0,0,1-1.182,1.387,9.876,9.876,0,0,1-1.338,1.035,7.225,7.225,0,0,1-1.318.674,3.684,3.684,0,0,1-1.133.264.932.932,0,0,0-.684.225.688.688,0,0,0-.176.459,1.2,1.2,0,0,0,.117.508,3.79,3.79,0,0,0,.215.41,2.294,2.294,0,0,0,.811.742,3.448,3.448,0,0,0,1.631.293,9.292,9.292,0,0,0,1.318-.117,7.443,7.443,0,0,0,1.719-.5,9.438,9.438,0,0,0,3.916-3.1.777.777,0,0,1,.293-.234.818.818,0,0,1,1.113.342,3.493,3.493,0,0,1-.059,3.105,5.011,5.011,0,0,1-1.064,1.289,8.6,8.6,0,0,1-1.562,1.084,11.826,11.826,0,0,1-1.895.83,13.779,13.779,0,0,1-2.07.527,12.1,12.1,0,0,1-2.08.186,8.2,8.2,0,0,1-3.1-.557,6.2,6.2,0,0,1-2.324-1.611,7.216,7.216,0,0,1-1.455-2.578,10.908,10.908,0,0,1-.508-3.457,15.249,15.249,0,0,1,.2-2.412,14.809,14.809,0,0,1,.586-2.383,11.987,11.987,0,0,1,.977-2.178,8,8,0,0,1,1.377-1.777,6.119,6.119,0,0,1,1.787-1.2,5.36,5.36,0,0,1,2.188-.439,4.628,4.628,0,0,1,2.314.527A4.45,4.45,0,0,1,133.5,16.3a5.375,5.375,0,0,1,.8,1.768A7.47,7.47,0,0,1,134.543,19.891Zm-7.7,3.3q0,.078.01.215a.649.649,0,0,0,.078.264.586.586,0,0,0,.205.215.723.723,0,0,0,.391.088,2.164,2.164,0,0,0,1.26-.5,6.118,6.118,0,0,0,1.23-1.23,7.8,7.8,0,0,0,.928-1.572,3.785,3.785,0,0,0,.371-1.5,2.572,2.572,0,0,0-.059-.518,2.357,2.357,0,0,0-.186-.547,1.224,1.224,0,0,0-.352-.439.907.907,0,0,0-.576-.176,1.655,1.655,0,0,0-1.074.557A6.147,6.147,0,0,0,128,19.451a10.007,10.007,0,0,0-.82,1.855A6.03,6.03,0,0,0,126.848,23.191Zm21.074,5.156q-.117-.684-.225-1.758t-.205-2.441q-.1-1.367-.156-2.969t-.059-3.359q0-.508.01-1.377t.049-1.953q.039-1.084.127-2.295t.225-2.4q.137-1.191.361-2.275a13.778,13.778,0,0,1,.527-1.914,4.371,4.371,0,0,1,.713-1.318,1.2,1.2,0,0,1,.938-.488,2.126,2.126,0,0,1,.557.1,2.007,2.007,0,0,1,.654.332,2.034,2.034,0,0,1,.537.625,1.935,1.935,0,0,1,.225.977,27.225,27.225,0,0,1-.146,2.842q-.146,1.4-.264,2.5a13.914,13.914,0,0,0-.1,1.787q.02.684.352.684.078,0,.215-.488t.332-1.279q.2-.791.479-1.807T153.723,8q.371-1.055.83-2.07A9.813,9.813,0,0,1,155.6,4.119a5.671,5.671,0,0,1,1.279-1.279,2.6,2.6,0,0,1,1.533-.488,2.157,2.157,0,0,1,1.484.537,4.046,4.046,0,0,1,1,1.426,9.35,9.35,0,0,1,.605,2.021q.215,1.133.332,2.3t.166,2.3q.049,1.133.088,2.021t.117,1.426q.078.537.273.537.117,0,.381-.713t.693-1.777q.43-1.064,1.016-2.3a15.878,15.878,0,0,1,1.328-2.3,8.317,8.317,0,0,1,1.641-1.777,3.052,3.052,0,0,1,1.934-.713,2.325,2.325,0,0,1,2.217,1.787,16.729,16.729,0,0,1,.674,5.518q0,1.719-.1,3.945t-.137,4.746q-.039,2.52.059,5.244a53.858,53.858,0,0,0,.469,5.42.929.929,0,0,1-.059.518.825.825,0,0,1-.283.332,1.155,1.155,0,0,1-.439.176,2.787,2.787,0,0,1-.527.049,2.4,2.4,0,0,1-1.641-.547,3.661,3.661,0,0,1-.977-1.426,7.951,7.951,0,0,1-.488-1.963,20.285,20.285,0,0,1-.156-2.178q-.02-1.094.029-2.07t.049-1.621q0-1.074.049-2.256t.107-2.334q.059-1.152.1-2.2t.01-1.836a7.879,7.879,0,0,0-.127-1.26q-.1-.469-.332-.469-.273,0-.742.684a15.451,15.451,0,0,0-1.006,1.748q-.537,1.064-1.113,2.363t-1.055,2.539q-.479,1.24-.83,2.275a11.884,11.884,0,0,0-.449,1.582,3.838,3.838,0,0,1-.107.479,3.56,3.56,0,0,1-.254.654,2.517,2.517,0,0,1-.4.586.743.743,0,0,1-.566.254.938.938,0,0,1-.605-.244,3.127,3.127,0,0,1-.527-.566,4.411,4.411,0,0,1-.381-.615l-.186-.371a5.8,5.8,0,0,1-.332-1.182q-.156-.791-.3-1.836t-.293-2.246q-.146-1.2-.283-2.393t-.264-2.295q-.127-1.1-.254-1.943t-.254-1.348q-.127-.508-.264-.508-.156,0-.488.693t-.771,1.885q-.439,1.191-.947,2.764t-1.016,3.311q-.508,1.738-.967,3.564t-.791,3.506q-.332,1.68-.518,3.125a13.46,13.46,0,0,0-.127,2.441q.02.234.02.586a2.851,2.851,0,0,1-.078.674,1.34,1.34,0,0,1-.264.547.657.657,0,0,1-.537.225,1.518,1.518,0,0,1-.928-.352,3.58,3.58,0,0,1-.869-1.055,8.875,8.875,0,0,1-.742-1.729A15.862,15.862,0,0,1,147.922,28.348Zm39.609,1.289A4.54,4.54,0,0,1,187.59,31a2.729,2.729,0,0,1-.283.957,1.432,1.432,0,0,1-.518.557,1.28,1.28,0,0,1-.664.186,1.161,1.161,0,0,1-.811-.312,2.688,2.688,0,0,1-.576-.771,5.664,5.664,0,0,1-.391-1q-.156-.537-.273-1t-.205-.771q-.088-.313-.205-.312a.785.785,0,0,0-.518.283,7.513,7.513,0,0,0-.615.713q-.332.43-.732.928a7.1,7.1,0,0,1-.9.928,4.782,4.782,0,0,1-1.1.713,3.1,3.1,0,0,1-1.328.283,3.2,3.2,0,0,1-1.816-.547,4.889,4.889,0,0,1-1.406-1.465,7.564,7.564,0,0,1-.908-2.109,9.458,9.458,0,0,1-.322-2.48,12.329,12.329,0,0,1,.254-2.393A15.809,15.809,0,0,1,175,20.857a14.074,14.074,0,0,1,1.191-2.412,10.347,10.347,0,0,1,1.641-2.041,7.6,7.6,0,0,1,2.061-1.416,5.759,5.759,0,0,1,2.461-.527,4.439,4.439,0,0,1,1.875.361,3.837,3.837,0,0,1,1.318.986,4.939,4.939,0,0,1,.859,1.465,10.054,10.054,0,0,1,.5,1.807,16.35,16.35,0,0,1,.234,2q.059,1.035.059,2.051,0,1,.029,1.973t.068,1.846q.039.869.107,1.563T187.531,29.637ZM177.9,26.551A2.7,2.7,0,0,0,178.225,28q.322.508.6.508a1.766,1.766,0,0,0,1.055-.391,5.677,5.677,0,0,0,1.035-1.025,10.227,10.227,0,0,0,.947-1.426,15.513,15.513,0,0,0,.771-1.592,12.812,12.812,0,0,0,.527-1.514,4.694,4.694,0,0,0,.2-1.2q0-.02-.01-.215t-.049-.479q-.039-.283-.117-.615a2.575,2.575,0,0,0-.234-.625,1.5,1.5,0,0,0-.391-.479.884.884,0,0,0-.566-.186,1.58,1.58,0,0,0-1.006.41,4.938,4.938,0,0,0-.947,1.084,11.373,11.373,0,0,0-.84,1.514,15.257,15.257,0,0,0-.674,1.709,15.416,15.416,0,0,0-.449,1.68A7.113,7.113,0,0,0,177.9,26.551ZM189.113,31a5.306,5.306,0,0,1-.137-.947q-.059-.693-.088-1.641t-.039-2.041q-.01-1.094-.01-2.129t.01-1.924q.01-.889.01-1.416a11.32,11.32,0,0,1,.1-1.387,6.514,6.514,0,0,1,.352-1.465,3.687,3.687,0,0,1,.674-1.162,1.376,1.376,0,0,1,1.084-.479,1.045,1.045,0,0,1,.771.264,1.989,1.989,0,0,1,.41.586q.146.322.244.586t.293.264a.8.8,0,0,0,.469-.293q.273-.273.625-.6a5.883,5.883,0,0,1,.791-.605,4.864,4.864,0,0,1,.977-.479,3.435,3.435,0,0,1,1.182-.2,3.593,3.593,0,0,1,1.533.322,3.735,3.735,0,0,1,1.182.85,3.958,3.958,0,0,1,.762,1.191,3.511,3.511,0,0,1,.273,1.348,4.389,4.389,0,0,1-.059.723,1.975,1.975,0,0,1-.215.635,1.237,1.237,0,0,1-.439.459,1.413,1.413,0,0,1-.752.176,1.272,1.272,0,0,1-.889-.264,2.735,2.735,0,0,1-.479-.586,4.489,4.489,0,0,0-.42-.586.861.861,0,0,0-.693-.264,2.025,2.025,0,0,0-1.445.732,6.8,6.8,0,0,0-1.24,1.914,13.508,13.508,0,0,0-.869,2.7,14.405,14.405,0,0,0-.332,3.1,9.279,9.279,0,0,1-.156,1.836,4.369,4.369,0,0,1-.43,1.25,1.862,1.862,0,0,1-.625.7,1.434,1.434,0,0,1-.762.215,1.379,1.379,0,0,1-.625-.137,1.825,1.825,0,0,1-.479-.342,2.05,2.05,0,0,1-.342-.449A3.156,3.156,0,0,1,189.113,31Zm12.52-8.32a3.35,3.35,0,0,1,.107-.918q.107-.371.254-.85a12.038,12.038,0,0,0,.283-1.172,13.7,13.7,0,0,0,.2-1.885q.059-1.211.1-2.725t.078-3.086q.039-1.572.078-3.086t.117-2.725l.117-2.168a3.044,3.044,0,0,1,.127-.615,2.7,2.7,0,0,1,.313-.684,2.364,2.364,0,0,1,.488-.557,1,1,0,0,1,.654-.234,1.577,1.577,0,0,1,.752.205,2.917,2.917,0,0,1,.684.508,2.524,2.524,0,0,1,.488.684,1.324,1.324,0,0,1,.146.732q-.02.137-.039.781T206.535,6.5q-.02.967-.049,2.148t-.049,2.422q-.02,1.24-.039,2.432t-.02,2.158v1.631q0,.664.02.84a.9.9,0,0,0,.215.576.6.6,0,0,0,.43.166,1.521,1.521,0,0,0,.732-.225,5.032,5.032,0,0,0,.713-.479q.723-.586,1.475-1.25t1.426-1.24a12.41,12.41,0,0,1,1.24-.947,1.841,1.841,0,0,1,.918-.371,2.011,2.011,0,0,1,1.445.469,1.781,1.781,0,0,1,.488,1.348,1.335,1.335,0,0,1-.137.605,2.4,2.4,0,0,1-.342.508,4.292,4.292,0,0,1-.459.449q-.254.215-.469.43-.41.41-1.191,1.074t-1.7,1.406q-.918.742-1.846,1.5t-1.631,1.367a1.578,1.578,0,0,0-.439.586,1.308,1.308,0,0,0-.107.586.974.974,0,0,0,.166.488.847.847,0,0,0,.381.313q.488.2,1.152.439t1.4.508q.732.264,1.484.527t1.387.508q.635.244,1.1.459a4.636,4.636,0,0,1,.664.352,2.33,2.33,0,0,1,.459.479,6.237,6.237,0,0,1,.459.7,6.067,6.067,0,0,1,.361.752,1.8,1.8,0,0,1,.146.645,1.233,1.233,0,0,1-.215.791.936.936,0,0,1-.762.264,3.952,3.952,0,0,1-.85-.166q-.615-.166-1.436-.43t-1.738-.6q-.918-.332-1.738-.635t-1.465-.566q-.645-.264-.9-.4a1.04,1.04,0,0,0-.469-.117.789.789,0,0,0-.5.176.724.724,0,0,0-.244.566q-.02.469-.088,1.191a7.986,7.986,0,0,1-.264,1.416,3.613,3.613,0,0,1-.557,1.182,1.143,1.143,0,0,1-.967.488,1.091,1.091,0,0,1-.723-.244,2,2,0,0,1-.488-.615,4.378,4.378,0,0,1-.322-.8q-.127-.43-.205-.781a5.322,5.322,0,0,1-.127-1.152q-.01-.664.02-1.367t.068-1.387q.039-.684.039-1.172a4.215,4.215,0,0,0-.117-1.006q-.117-.479-.264-.947t-.264-.928A3.814,3.814,0,0,1,201.633,22.684Zm27.109-2.793a6.322,6.322,0,0,1-.312,2.012,7.241,7.241,0,0,1-.83,1.719,7.387,7.387,0,0,1-1.182,1.387,9.876,9.876,0,0,1-1.338,1.035,7.225,7.225,0,0,1-1.318.674,3.684,3.684,0,0,1-1.133.264.932.932,0,0,0-.684.225.688.688,0,0,0-.176.459,1.2,1.2,0,0,0,.117.508,3.788,3.788,0,0,0,.215.41,2.294,2.294,0,0,0,.811.742,3.448,3.448,0,0,0,1.631.293,9.292,9.292,0,0,0,1.318-.117,7.443,7.443,0,0,0,1.719-.5,9.438,9.438,0,0,0,3.916-3.1.777.777,0,0,1,.293-.234.818.818,0,0,1,1.113.342,3.493,3.493,0,0,1-.059,3.105,5.011,5.011,0,0,1-1.064,1.289,8.6,8.6,0,0,1-1.562,1.084,11.826,11.826,0,0,1-1.895.83,13.779,13.779,0,0,1-2.07.527,12.1,12.1,0,0,1-2.08.186,8.2,8.2,0,0,1-3.1-.557,6.2,6.2,0,0,1-2.324-1.611,7.216,7.216,0,0,1-1.455-2.578,10.907,10.907,0,0,1-.508-3.457,15.25,15.25,0,0,1,.2-2.412,14.807,14.807,0,0,1,.586-2.383,11.988,11.988,0,0,1,.977-2.178,8,8,0,0,1,1.377-1.777,6.119,6.119,0,0,1,1.787-1.2,5.36,5.36,0,0,1,2.188-.439,4.628,4.628,0,0,1,2.314.527A4.45,4.45,0,0,1,227.7,16.3a5.375,5.375,0,0,1,.8,1.768A7.47,7.47,0,0,1,228.742,19.891Zm-7.7,3.3q0,.078.01.215a.649.649,0,0,0,.078.264.586.586,0,0,0,.205.215.723.723,0,0,0,.391.088,2.164,2.164,0,0,0,1.26-.5,6.118,6.118,0,0,0,1.23-1.23,7.8,7.8,0,0,0,.928-1.572,3.785,3.785,0,0,0,.371-1.5,2.572,2.572,0,0,0-.059-.518,2.357,2.357,0,0,0-.186-.547,1.224,1.224,0,0,0-.352-.439.907.907,0,0,0-.576-.176,1.655,1.655,0,0,0-1.074.557,6.147,6.147,0,0,0-1.074,1.406,10.008,10.008,0,0,0-.82,1.855A6.029,6.029,0,0,0,221.047,23.191ZM231.574,31a5.306,5.306,0,0,1-.137-.947q-.059-.693-.088-1.641t-.039-2.041q-.01-1.094-.01-2.129t.01-1.924q.01-.889.01-1.416a11.32,11.32,0,0,1,.1-1.387,6.514,6.514,0,0,1,.352-1.465,3.687,3.687,0,0,1,.674-1.162,1.376,1.376,0,0,1,1.084-.479,1.045,1.045,0,0,1,.771.264,1.989,1.989,0,0,1,.41.586q.146.322.244.586t.293.264a.8.8,0,0,0,.469-.293q.273-.273.625-.6a5.883,5.883,0,0,1,.791-.605,4.864,4.864,0,0,1,.977-.479,3.435,3.435,0,0,1,1.182-.2,3.593,3.593,0,0,1,1.533.322,3.735,3.735,0,0,1,1.182.85,3.958,3.958,0,0,1,.762,1.191,3.511,3.511,0,0,1,.273,1.348,4.389,4.389,0,0,1-.059.723,1.975,1.975,0,0,1-.215.635,1.237,1.237,0,0,1-.439.459,1.413,1.413,0,0,1-.752.176,1.272,1.272,0,0,1-.889-.264,2.735,2.735,0,0,1-.479-.586,4.489,4.489,0,0,0-.42-.586.861.861,0,0,0-.693-.264,2.025,2.025,0,0,0-1.445.732,6.8,6.8,0,0,0-1.24,1.914,13.508,13.508,0,0,0-.869,2.7,14.405,14.405,0,0,0-.332,3.1,9.279,9.279,0,0,1-.156,1.836,4.369,4.369,0,0,1-.43,1.25,1.862,1.862,0,0,1-.625.7,1.434,1.434,0,0,1-.762.215,1.379,1.379,0,0,1-.625-.137,1.825,1.825,0,0,1-.479-.342,2.05,2.05,0,0,1-.342-.449A3.156,3.156,0,0,1,231.574,31ZM243.7,29.266a1.9,1.9,0,0,1,.332-1.143.929.929,0,0,1,.742-.459.847.847,0,0,1,.557.225q.264.225.615.488a4.393,4.393,0,0,0,.859.488,3.144,3.144,0,0,0,1.27.225q.117,0,.42-.029a1.752,1.752,0,0,0,.615-.186,1.551,1.551,0,0,0,.547-.469,1.477,1.477,0,0,0,.234-.9,1.838,1.838,0,0,0-.4-1.221,4.169,4.169,0,0,0-1.016-.859q-.615-.381-1.328-.732a7.381,7.381,0,0,1-1.328-.84,4.355,4.355,0,0,1-1.035-1.191,3.69,3.69,0,0,1-.459-1.777,5.609,5.609,0,0,1,.381-2.109,5.761,5.761,0,0,1,1.182-1.895,5.933,5.933,0,0,1,1.924-1.357,6.156,6.156,0,0,1,2.568-.518,6.29,6.29,0,0,1,1.035.088,3.364,3.364,0,0,1,.957.3,1.86,1.86,0,0,1,.7.605,1.734,1.734,0,0,1,.273,1.016,3.791,3.791,0,0,1-.049.557,2.521,2.521,0,0,1-.186.635,1.544,1.544,0,0,1-.371.527.861.861,0,0,1-.605.215,1.175,1.175,0,0,1-.449-.088q-.215-.088-.43-.2t-.439-.2a1.356,1.356,0,0,0-.5-.088,2.115,2.115,0,0,0-.771.166,2.815,2.815,0,0,0-.771.459,2.676,2.676,0,0,0-.586.684,1.571,1.571,0,0,0-.234.82,1.483,1.483,0,0,0,.42,1.025,6.752,6.752,0,0,0,1.045.908q.625.449,1.348.947a8.947,8.947,0,0,1,1.348,1.143,5.855,5.855,0,0,1,1.045,1.494,4.47,4.47,0,0,1,.42,2,4.092,4.092,0,0,1-.557,2.227,4.335,4.335,0,0,1-1.4,1.4,5.648,5.648,0,0,1-1.816.723,8.793,8.793,0,0,1-1.8.205,5.314,5.314,0,0,1-1.992-.332,4.148,4.148,0,0,1-1.338-.83,3.136,3.136,0,0,1-.752-1.074A2.884,2.884,0,0,1,243.7,29.266Z" transform="translate(196 464)" fill="#ffd947"/>
    </g>
    <g id="Grupo_170562" data-name="Grupo 170562" transform="translate(225.5 413)">
      <g id="Grupo_170561" data-name="Grupo 170561" clip-path="url(#clip-path-2)">
        <path id="Trazado_165595" data-name="Trazado 165595" d="M125.1,122.615s-21.806,12.467-34.891,10.78-38.105-69.88-28.49-71.352,51.752,2.916,63.381,60.572" transform="translate(52.657 54.643)" fill="#2d3339"/>
        <path id="Trazado_165596" data-name="Trazado 165596" d="M43.886,16.3s-11.9,4.866-14.86,20.1c-2.249,11.561,5.829,19.1-2.347,33.427S21.992,102.017,43.986,99.1c13.651-1.812,22.09,6.95,33.418,1.782s11.04-6.825,22.546-8.69c13.447-2.18,19.349-6.366,21.838-16.083,4.137-16.173-10.041-20.945-12.53-34.177C106.655,28.088,89.58-9.137,43.886,16.3" transform="translate(20.009 6.737)" fill="#352b4c"/>
        <path id="Trazado_165597" data-name="Trazado 165597" d="M66.463,38.728s.857,33.7.1,38.689S26.2,86.844,16.005,95.572s31.056,27.022,50.533,39.544c14.93,9.6,56.482-48.736,43.987-49.71S95.561,80.718,91.8,72.395c-3.792-8.387,1.658-17.488,1.658-17.488S68.22,40.2,66.463,38.728" transform="translate(12.737 34.231)" fill="#eaac90"/>
        <path id="Trazado_165598" data-name="Trazado 165598" d="M34.349,31.487s2.3,56.156,33.638,52.251C89.548,81.054,93.68,43.392,85.364,27.252S45.078,16.166,34.349,31.487" transform="translate(30.36 15.308)" fill="#eaac90"/>
        <path id="Trazado_165599" data-name="Trazado 165599" d="M57.319,35.956c.168,1.351,1.159,2.342,2.214,2.212a2.247,2.247,0,0,0,1.607-2.685c-.168-1.351-1.159-2.34-2.214-2.208a2.244,2.244,0,0,0-1.607,2.681" transform="translate(50.642 29.401)" fill="#2e1f35"/>
        <path id="Trazado_165600" data-name="Trazado 165600" d="M43.67,39.173c.168,1.351,1.159,2.34,2.214,2.21A2.246,2.246,0,0,0,47.491,38.7c-.168-1.353-1.159-2.342-2.214-2.21a2.245,2.245,0,0,0-1.607,2.683" transform="translate(38.578 32.243)" fill="#2e1f35"/>
        <path id="Trazado_165601" data-name="Trazado 165601" d="M62.545,37.652s2.236-10.808,7.424-6.88,1.637,17.013-2.8,17.518-6.177-6.145-4.621-10.638" transform="translate(54.787 26.439)" fill="#eaac90"/>
        <path id="Trazado_165602" data-name="Trazado 165602" d="M33.6,45.39s-4.323-10.154,2.18-9.883S46.819,48.551,43.458,51.5s-8.579-1.526-9.86-6.108" transform="translate(28.451 31.379)" fill="#eaac90"/>
        <path id="Trazado_165603" data-name="Trazado 165603" d="M41.007,18.243S26.893,29.072,30.628,46.9c1.454,6.938,26.233,3.939,29.388-2.419s.524-21.793.524-21.793,3.463,18.383,11.4,21.8,26.476-2.519,24.375-4.4S86.442,11.527,68.492,9.155s-27.486,9.088-27.486,9.088" transform="translate(26.515 7.807)" fill="#352b4c"/>
        <path id="Trazado_165604" data-name="Trazado 165604" d="M59.33,55.542a14.959,14.959,0,0,0,6.358-3.235l-1.511-1.573c-.271.258-6.708,6.236-15.51.656L47.5,53.232a15.053,15.053,0,0,0,11.831,2.31" transform="translate(41.983 44.843)" fill="#e1916e"/>
        <path id="Trazado_165605" data-name="Trazado 165605" d="M40.667,45.7a5.669,5.669,0,1,0,4.93-6.324,5.671,5.671,0,0,0-4.93,6.324" transform="translate(35.906 34.763)" fill="#e1916e"/>
        <path id="Trazado_165606" data-name="Trazado 165606" d="M56.37,42.366a5.669,5.669,0,1,0,4.93-6.322,5.671,5.671,0,0,0-4.93,6.322" transform="translate(49.786 31.819)" fill="#e1916e"/>
        <path id="Trazado_165607" data-name="Trazado 165607" d="M104.8,61.663s3.389,20.129-5.054,22.307c-11.1,2.863-30.771-23.051-30.771-23.051-12.417-.224-47.15,1.277-57.694,16.638-8.752,12.754-5.3,42.753,1.684,44.763,8.016,2.308,132.776,7.705,137.127,4.661S143.179,77.233,132.984,70.2A50.052,50.052,0,0,0,104.8,61.663" transform="translate(5.368 53.828)" fill="#2d3339"/>
        <path id="Trazado_165608" data-name="Trazado 165608" d="M53.5,12.758A16.55,16.55,0,1,1,33.591.445,16.551,16.551,0,0,1,53.5,12.758" transform="translate(18.414 0)" fill="#352b4c"/>
        <path id="Trazado_165609" data-name="Trazado 165609" d="M107.055,82.444h0c-8.112.5-27.375,6.8-29.505,15.1S61.929,158.436,94.923,146.2c36.864-13.668,12.132-63.76,12.132-63.76" transform="translate(64.543 72.87)" fill="#eaac90"/>
        <path id="Trazado_165610" data-name="Trazado 165610" d="M125.448,73.88s7.283,23.185,8.1,41.2,14.551,52.833,9.035,51.972S14.641,177.293,14.58,169.935C13.507,38.723,102.957,90.014,125.448,73.88" transform="translate(12.879 65.301)" fill="#2d3339"/>
        <path id="Trazado_165611" data-name="Trazado 165611" d="M41.263,43.784c4.58-7.142-1.6-30.517-1.869-31.51l-2.108.563c1.739,6.5,5.512,24.511,2.142,29.769Z" transform="translate(32.956 10.849)" fill="#443965"/>
        <path id="Trazado_165612" data-name="Trazado 165612" d="M65.348,34.935c.019-.164,1.571-16.527-20.267-24.264l-.729,2.055C64.581,19.893,63.2,34.549,63.179,34.7Z" transform="translate(39.202 9.432)" fill="#443965"/>
        <path id="Trazado_165613" data-name="Trazado 165613" d="M76.476,32.76l1.9-1.07c-.518-.921-12.914-22.556-31.084-22.079l.057,2.18c16.872-.443,29.006,20.757,29.127,20.969" transform="translate(41.801 8.488)" fill="#443965"/>
        <path id="Trazado_165614" data-name="Trazado 165614" d="M34.027,42.1l1.9-1.076c-.075-.134-7.417-13.421.175-25.673l-1.858-1.149c-8.282,13.372-.55,27.312-.215,27.9" transform="translate(26.894 12.556)" fill="#443965"/>
        <path id="Trazado_165615" data-name="Trazado 165615" d="M66.03,59.492c.222-.235,5.41-5.917,1.667-19.261l-2.1.59c3.412,12.166-1.108,17.123-1.153,17.172Z" transform="translate(56.962 35.559)" fill="#443965"/>
        <path id="Trazado_165616" data-name="Trazado 165616" d="M28.28,43.117c-.154.284-3.711,7.108,3.327,19.044l1.88-1.108C27.069,50.17,30.164,44.219,30.2,44.161Z" transform="translate(24.082 38.11)" fill="#443965"/>
        <path id="Trazado_165617" data-name="Trazado 165617" d="M32.4,44.62c-.038.322-.816,7.976,10.143,16.458l1.336-1.724c-9.992-7.733-9.321-14.408-9.312-14.476Z" transform="translate(28.616 39.439)" fill="#443965"/>
        <path id="Trazado_165618" data-name="Trazado 165618" d="M72.454,58.933c.358-.217,8.639-5.527-2.509-24.8L68.059,35.23c9.926,17.158,3.334,21.795,3.267,21.838Z" transform="translate(60.156 30.173)" fill="#443965"/>
        <path id="Trazado_165619" data-name="Trazado 165619" d="M41.742,16.307C40.112,4.09,27.942,3.589,27.82,3.587l-.066,2.18c.426.015,10.444.471,11.827,10.829Z" transform="translate(24.531 3.17)" fill="#443965"/>
        <path id="Trazado_165620" data-name="Trazado 165620" d="M35.087,20.872a13.8,13.8,0,0,0,4.538-1.982l1.322-.98-1.417-.836c-4.587-2.709-10.943-11.1-11.006-11.188L26.783,7.2c.245.324,5.488,7.249,10.15,10.749a9.072,9.072,0,0,1-11.411-2.336l-1.63,1.449c3.843,4.327,8.084,4.542,11.194,3.811" transform="translate(21.118 5.202)" fill="#443965"/>
        <path id="Trazado_165621" data-name="Trazado 165621" d="M29.321,47.471a23.8,23.8,0,0,0,2.455-15.642l-2.123.5a21.97,21.97,0,0,1-2.247,14.1Z" transform="translate(24.223 28.133)" fill="#443965"/>
        <path id="Trazado_165622" data-name="Trazado 165622" d="M62.573,33.586c-.9-.514-3.809-1.833-5.275-1.162l-.846-1.833c2.669-1.234,6.676.983,7.123,1.241Z" transform="translate(49.897 26.711)" fill="#261e35"/>
        <path id="Trazado_165623" data-name="Trazado 165623" d="M42.828,37.071,41.558,35.5c.4-.326,4-3.167,6.831-2.364l-.541,1.944c-1.556-.424-4.212,1.334-5.021,1.989" transform="translate(36.732 29.164)" fill="#261e35"/>
        <path id="Trazado_165624" data-name="Trazado 165624" d="M13.006,56.345S.288,36.413,6.642,36.4C8.975,36.4,17.013,47.747,17.013,47.747s-6.84-17.788-2.76-15.555S27.459,48.08,27.459,48.08s-3.242-19.219-.369-17.833,7.211,15.2,8.425,34.06c.516,8.018,18.935,91.131,3.583,109.442-8.634,10.3-25.046,11.262-33.77-4.444s8.941-99.553,5.934-102.89S-2.314,50.256.459,47.325c1.464-1.55,12.547,9.02,12.547,9.02" transform="translate(0 26.672)" fill="#eaac90"/>
        <path id="Trazado_165625" data-name="Trazado 165625" d="M13.57,57.684c-.19-.456-4.629-11.294-1.258-16.173a5.843,5.843,0,0,1,5.41-2.362l-.066,2.018a3.927,3.927,0,0,0-3.681,1.49c-2.281,3.3.281,11.409,1.46,14.257Z" transform="translate(9.769 34.596)" fill="#261e35"/>
        <path id="Trazado_165626" data-name="Trazado 165626" d="M52.362,35.163s7.471,7.82,5.416,9.416S51.614,48.79,51.054,47.3s-1.023-14.785,1.307-12.134" transform="translate(44.724 30.771)" fill="#e1916e"/>
        <path id="Trazado_165627" data-name="Trazado 165627" d="M50.023,45.1S62.9,40.8,62.89,43.548,58.143,54.335,56.517,53.93,43.861,47.756,50.023,45.1" transform="translate(42.575 37.679)" fill="#f7ece9"/>
        <path id="Trazado_165628" data-name="Trazado 165628" d="M52.887,104.081c-19.769,0-23.434-14.355-23.469-14.508l1.963-.471c.143.584,3.753,14.3,24.436,12.854l.143,2.014q-1.6.113-3.073.111" transform="translate(26.002 78.755)" fill="#261e35"/>
        <path id="Trazado_165629" data-name="Trazado 165629" d="M68.356,108.3c-.173,0-.283,0-.318,0l.075-2.02c.083,0,8.138.22,12.4-5.186,3.033-3.845,3.51-9.632,1.415-17.2l1.946-.541c2.278,8.231,1.677,14.623-1.786,19-4.45,5.627-12.066,5.947-13.735,5.947" transform="translate(60.137 73.672)" fill="#261e35"/>
        <path id="Trazado_165630" data-name="Trazado 165630" d="M65.331,83.613c-10.207,0-21.6-13.888-22.113-14.519l1.567-1.274c.126.158,12.8,15.578,22.271,13.6A8.208,8.208,0,0,0,72.541,77.9c2.432-3.788,1.258-9.161,1.245-9.218l1.969-.446c.058.252,1.379,6.232-1.507,10.742A10.141,10.141,0,0,1,67.473,83.4a10.472,10.472,0,0,1-2.142.217" transform="translate(38.199 59.944)" fill="#261e35"/>
        <path id="Trazado_165631" data-name="Trazado 165631" d="M37.989,44.822a14.693,14.693,0,0,0-3.962-4.629l1.215-1.613A16.619,16.619,0,0,1,39.835,44Z" transform="translate(30.076 34.101)" fill="#e1916e"/>
        <path id="Trazado_165632" data-name="Trazado 165632" d="M65.914,39.4l-2-.277a30.328,30.328,0,0,1,1.647-5.783l1.876.742A29.1,29.1,0,0,0,65.914,39.4" transform="translate(56.493 29.464)" fill="#e1916e"/>
      </g>
    </g>
  </g>
</svg>
