<svg xmlns="http://www.w3.org/2000/svg" xmlns:xlink="http://www.w3.org/1999/xlink" width="120" height="117" viewBox="0 0 120 117">
  <defs>
    <clipPath id="clip-path">
      <rect id="Rect치ngulo_43104" data-name="Rect치ngulo 43104" width="103.468" height="103.492" fill="none"/>
    </clipPath>
  </defs>
  <g id="_15" data-name="15" transform="translate(-352 -4319)">
    <g id="Grupo_158812" data-name="Grupo 158812" transform="translate(352 4319)">
      <g id="Grupo_158146" data-name="Grupo 158146">
        <rect id="Rect치ngulo_36141" data-name="Rect치ngulo 36141" width="120" height="117" fill="#e1e8ff"/>
      </g>
      <g id="Grupo_170569" data-name="Grupo 170569" transform="translate(8 7)">
        <g id="Grupo_170569-2" data-name="Grupo 170569" transform="translate(0 0)" clip-path="url(#clip-path)">
          <path id="Trazado_165635" data-name="Trazado 165635" d="M0,44.9V43.684C.528,40.6,2.008,37.86,3.151,35,5.158,29.977,7.232,24.979,9.279,19.97c1.246-3.049,2.453-6.115,3.776-9.132a5.158,5.158,0,0,1,3.133-2.954C23.67,5.34,31.174,2.859,38.677.379A8.224,8.224,0,0,1,41.054.007a1.576,1.576,0,0,1,.593,1.008,8.409,8.409,0,0,0,7.179,7.173A14.055,14.055,0,0,0,56.081,7.8a8.135,8.135,0,0,0,5.693-6.583A1.869,1.869,0,0,1,62.389,0c2.093.011,3.985.851,5.916,1.487C72.677,2.926,77.035,4.406,81.4,5.871c1.752.588,3.493,1.206,5.262,1.739A6.469,6.469,0,0,1,90.85,11.8c2.219,5.559,4.512,11.088,6.771,16.63,1.155,2.834,2.3,5.672,3.465,8.5a2.215,2.215,0,0,1,.311,1.737,8.927,8.927,0,0,1-3.055,1.686C94.52,42.086,90.721,43.867,86.9,45.61a2.352,2.352,0,0,1-1.731.34.823.823,0,0,1-.53-.433c-.449-1.2-1.323-2.245-1.272-3.618.38-.827.006-1.661.01-2.491.024-4.844.013-9.688.011-14.532a12.53,12.53,0,0,0-.033-1.411,1.418,1.418,0,0,0-1.293-1.431c-.681-.016-1.19.512-1.336,1.391a3.478,3.478,0,0,0-.042.6c.026,3.428-.11,6.858.09,10.286A2.889,2.889,0,0,0,80.615,36a7.135,7.135,0,0,1,.068,1.511q0,27.425-.009,54.852a3.671,3.671,0,0,1-.326,2.349,3.41,3.41,0,0,1-2.148.355q-12.467.017-24.932.007-13.981,0-27.96-.006a3.7,3.7,0,0,1-2.161-.322,1.307,1.307,0,0,1-.35-1.016c-.029-.471-.026-.942-.026-1.413q0-27.4-.017-54.8c0-1.061.414-2.139-.075-3.188.2-3.421.074-6.848.081-10.272,0-1.306-.518-2.019-1.348-2.018s-1.336.7-1.342,2.009q-.033,7.561.008,15.122c.005.9-.362,1.8-.015,2.693a1.666,1.666,0,0,1-.176,1.262c-1.025,2.3-1.934,4.653-2.908,6.974-.852,2.029-1.933,2.5-3.972,1.631-3.894-1.659-7.722-3.465-11.619-5.116A2.339,2.339,0,0,1,0,44.9" transform="translate(0 0)" fill="#e54c3c"/>
          <path id="Trazado_165636" data-name="Trazado 165636" d="M29.8,119.586a4.162,4.162,0,0,1-2.678-4.653c.121-1.4.054-2.824.072-4.236H84.136c.012,1.884.083,3.769.017,5.65-.059,1.684-1.239,2.572-2.624,3.24Z" transform="translate(-3.94 -16.094)" fill="#bf3a2b"/>
          <path id="Trazado_165637" data-name="Trazado 165637" d="M62.236,33.419c1.953,0,3.906-.005,5.859,0,2.251.006,2.962,1.105,2.043,3.186-1.618,3.662-3.259,7.314-4.878,10.976-.636,1.437-.317,1.919,1.235,1.934.606.006,1.212,0,1.818,0,.441,0,.89-.005,1.135.476.269.528-.038.9-.343,1.267q-2.807,3.379-5.621,6.751a6.925,6.925,0,0,0-.51.625c-.514.793-.2,1.476.755,1.563.6.056,1.211.023,1.817.024.522,0,1.048.015,1.222.639s-.247.919-.679,1.217q-7.021,4.848-14.038,9.7c-1.855,1.282-3.715,2.557-5.568,3.844-.653.454-1.317.946-2.09.3-.79-.659-.5-1.433-.125-2.2Q47.137,67.944,50,62.15c.744-1.51.487-1.89-1.2-1.937-.767-.022-1.752.353-2.2-.556s.475-1.455.908-2.076c1.885-2.707,3.818-5.38,5.742-8.059.285-.4.562-.783.332-1.288-.242-.531-.739-.507-1.217-.506-1.077,0-2.155.021-3.232-.01-1.031-.03-1.419-.616-.963-1.538,1.92-3.892,3.873-7.768,5.817-11.648a2.015,2.015,0,0,1,1.992-1.115c2.087.007,4.175,0,6.263,0" transform="translate(-6.381 -4.858)" fill="#f2d45b"/>
          <path id="Trazado_165638" data-name="Trazado 165638" d="M47.989.1C49.967.085,51.943.049,53.921.052Q61.668.062,69.414.1A9.441,9.441,0,0,1,65.9,6.885C62.276,9.719,53.65,9.958,50.126,5.561A10.664,10.664,0,0,1,47.989.1" transform="translate(-6.977 -0.008)" fill="#802f34"/>
          <path id="Trazado_165639" data-name="Trazado 165639" d="M115.711,45.19c.712,1.7,1.455,3.378,2.123,5.091a1.617,1.617,0,0,1-.906,2.186q-6.46,2.9-12.958,5.727a1.572,1.572,0,0,1-2.133-.8,46.667,46.667,0,0,1-2.076-5.107,13.734,13.734,0,0,0,3.409-1.434c3.765-1.668,7.484-3.442,11.225-5.166.424-.2.876-.331,1.315-.493" transform="translate(-14.504 -6.57)" fill="#bf3a2b"/>
          <path id="Trazado_165640" data-name="Trazado 165640" d="M26.4,37.89l-3.284,7.834a1.686,1.686,0,0,1-.179-1.075q-.005-8.635-.008-17.271a2.182,2.182,0,0,1,.6-1.749,1.722,1.722,0,0,1,2.831.592,3,3,0,0,1,.208,1.184c0,3.13,0,6.262-.009,9.393A7.508,7.508,0,0,1,26.4,37.89" transform="translate(-3.333 -3.652)" fill="#bf3a2b"/>
          <path id="Trazado_165641" data-name="Trazado 165641" d="M97.319,45.722l-3.284-7.835a4.028,4.028,0,0,1-.173-1.395c0-2.929,0-5.858.006-8.785a5.148,5.148,0,0,1,.084-1.1,1.769,1.769,0,0,1,1.878-1.48,1.892,1.892,0,0,1,1.66,1.749c.018.2.009.4.01.606q0,8.534,0,17.067a1.867,1.867,0,0,1-.177,1.175" transform="translate(-13.646 -3.652)" fill="#bf3a2b"/>
        </g>
      </g>
    </g>
  </g>
</svg>
