<svg id="_16" data-name="16" xmlns="http://www.w3.org/2000/svg" xmlns:xlink="http://www.w3.org/1999/xlink" width="120" height="117" viewBox="0 0 120 117">
  <defs>
    <clipPath id="clip-path">
      <rect id="Rect치ngulo_43105" data-name="Rect치ngulo 43105" width="94.8" height="96.78" fill="none"/>
    </clipPath>
  </defs>
  <g id="Grupo_170571" data-name="Grupo 170571">
    <g id="Grupo_158146" data-name="Grupo 158146">
      <rect id="Rect치ngulo_36141" data-name="Rect치ngulo 36141" width="120" height="117" fill="#e1e8ff"/>
    </g>
    <g id="Grupo_170570" data-name="Grupo 170570" transform="translate(13 10)">
      <g id="Grupo_170570-2" data-name="Grupo 170570" clip-path="url(#clip-path)">
        <path id="Trazado_165642" data-name="Trazado 165642" d="M124.391,87.761c-4.253,2.2-8.5,4.405-12.76,6.588q-16.743,8.577-33.493,17.142c-.271.139-.6.206-.782.494h-.379a1.309,1.309,0,0,0-.029-.169,3.754,3.754,0,0,1-.094-1.033q.014-22.642.007-45.284a8.735,8.735,0,0,1,.072-1.7c.188-.66.782-.878,1.308-1.133,3.314-1.606,6.533-3.4,9.84-5.015,1.895-.927,3.707-2.01,5.616-2.907.37-.173.755-.537,1.2-.126a3.048,3.048,0,0,1,.151,1.4c.009,2.833,0,5.667.008,8.668,1.751-2.109,3.381-4.1,5-6.108,1.244-1.543,1.235-1.55,3.062-.824.616.244,1.229.5,1.855.717,1.107.389,1.107.4,1.108-.827,0-2.526,0-5.053,0-7.578a4.547,4.547,0,0,1,.1-1.412.941.941,0,0,1,.3-.393c1.1-.679,2.268-1.248,3.415-1.837q6.273-3.222,12.526-6.482c.167-.088.338-.171.508-.254,1.414-.691,1.5-.638,1.5.919q0,23.012,0,46.024a5.074,5.074,0,0,1-.042,1.132" transform="translate(-29.761 -15.205)" fill="#a57e4f"/>
        <path id="Trazado_165643" data-name="Trazado 165643" d="M47.468,63.483q0,23.727,0,47.455c0,.3.1.643-.216.875-3.93-1.991-7.866-3.969-11.789-5.974Q17.889,96.855.321,87.855c-.224-.281-.109-.608-.109-.911Q.2,63.647.205,40.35c0-1.214.141-1.327,1.21-.783,6.778,3.445,13.556,6.892,20.3,10.412,2.49,1.3,5,2.556,7.5,3.835,5.7,2.917,11.368,5.906,17.1,8.775.436.218.974.338,1.159.894" transform="translate(-0.071 -15.202)" fill="#916e43"/>
        <path id="Trazado_165644" data-name="Trazado 165644" d="M47.4,57.684q-9.09-4.66-18.18-9.321L6.5,36.707c-1.823-.936-3.653-1.858-5.46-2.825-.659-.353-.849-.248-.843.512C.218,38.057.2,41.721.2,45.385q0,17.721,0,35.441c0,.41.029.819.045,1.229C-.118,81.85.03,81.495.03,81.2Q.018,57.726.007,34.248A1.239,1.239,0,0,1,.833,32.97q8.521-4.306,17.016-8.663a1.78,1.78,0,0,1,1.24.357c8.219,4.107,16.332,8.42,24.529,12.57q6,3.037,11.949,6.169c2.909,1.523,5.89,2.905,8.743,4.535a1.749,1.749,0,0,1,.745.563.252.252,0,0,1-.043.267A21.439,21.439,0,0,0,61.7,50.349Q54.537,54,47.4,57.684" transform="translate(0 -9.402)" fill="#d8ab7f"/>
        <path id="Trazado_165645" data-name="Trazado 165645" d="M113.54,72.557c-.012-.441-.036-.882-.036-1.324q0-22.955,0-45.91c0-1.234-.008-1.247-1.127-.668q-7.888,4.081-15.77,8.172c-.306.159-.625.295-.938.442q-6.8-3.42-13.54-6.954c-2.259-1.191-4.541-2.339-6.817-3.494C69.349,19.8,63.429,16.7,57.48,13.648c-2.692-1.379-5.452-2.634-8.052-4.191-.273-.164-.787-.235-.521-.785C54.29,5.909,59.687,3.171,65.044.358a2.439,2.439,0,0,1,2.58.021q21.2,10.993,42.5,21.77c.9.453,1.769.98,2.694,1.375a1.315,1.315,0,0,1,.886,1.44q-.036,19.983-.017,39.964c0,2.21.006,4.42-.006,6.629,0,.333.121.7-.143,1" transform="translate(-18.911 0)" fill="#d8ab7f"/>
        <path id="Trazado_165646" data-name="Trazado 165646" d="M41.277,14.154c.359.754,1.168.9,1.8,1.231,3.85,2.016,7.738,3.958,11.6,5.942q9.874,5.067,19.738,10.156,6.3,3.243,12.594,6.491c.385.2.836.317,1.027.776l-.207.2a1.767,1.767,0,0,1-.738.567c-3.238,1.6-6.4,3.363-9.661,4.919-.347.165-.687.5-1.129.214L62.346,37.461q-9.668-4.976-19.336-9.952-6.938-3.566-13.88-7.124a13.462,13.462,0,0,1,2.313-1.246c3.271-1.674,6.555-3.325,9.834-4.985" transform="translate(-11.281 -5.481)" fill="#f1d2b9"/>
        <path id="Trazado_165647" data-name="Trazado 165647" d="M106.108,60.314c2.368-1,4.632-2.211,6.9-3.408,1.523-.8,3.039-1.618,4.626-2.292.009,3.313,0,6.626.037,9.939.006.6-.221.612-.663.438-1.2-.473-2.4-.932-3.6-1.407a.838.838,0,0,0-1.173.3c-1.941,2.463-3.957,4.868-6.137,7.525V60.514l.009-.2" transform="translate(-41.087 -21.149)" fill="#d6b9a3"/>
      </g>
    </g>
  </g>
</svg>
