<svg id="_17" data-name="17" xmlns="http://www.w3.org/2000/svg" xmlns:xlink="http://www.w3.org/1999/xlink" width="120" height="117" viewBox="0 0 120 117">
  <defs>
    <clipPath id="clip-path">
      <rect id="Rect치ngulo_43106" data-name="Rect치ngulo 43106" width="94.962" height="100.91" fill="none"/>
    </clipPath>
  </defs>
  <g id="Grupo_158146" data-name="Grupo 158146">
    <rect id="Rect치ngulo_36141" data-name="Rect치ngulo 36141" width="120" height="117" fill="#e1e8ff"/>
  </g>
  <g id="Grupo_170572" data-name="Grupo 170572" transform="translate(13 8)">
    <g id="Grupo_170572-2" data-name="Grupo 170572" clip-path="url(#clip-path)">
      <path id="Trazado_165648" data-name="Trazado 165648" d="M35.864,47.674c-.657-3.031-1.4-6.046-1.892-9.11-1.133-7.016-1.513-14.014.769-20.893C37.073,10.642,41.886,5.9,48.6,2.992A34.4,34.4,0,0,1,59.662.191c.163-.013.33-.019.421-.191h7.094C68.484.2,69.8.373,71.1.6A42.97,42.97,0,0,1,81.552,3.568c-.273.679-.877.415-1.345.433a36.716,36.716,0,0,0-12.12,2.282c-9.1,3.579-14.222,10.353-15.573,19.944a27.751,27.751,0,0,0,1.526,14.508c.144.356.344.723.124,1.128a7.978,7.978,0,0,1-3.185.91c-3.087.627-6.189,1.187-9.314,1.583-.9.114-1.3.472-1.212,1.378a1.48,1.48,0,0,1-.183.952,10.94,10.94,0,0,1-4.405.986" transform="translate(-12.998)" fill="#975e33"/>
      <path id="Trazado_165649" data-name="Trazado 165649" d="M66.359,43.941a27.435,27.435,0,0,1-2.106-14.295A24.557,24.557,0,0,1,72.3,12.926a26.177,26.177,0,0,1,11.323-5.8,39.637,39.637,0,0,1,9.284-1.195c.285,0,.6.086.834-.173a9.071,9.071,0,0,0,2.619-.123c5.581-.318,10.883.516,15.5,3.936,4.129,3.063,6.174,7.389,7.116,12.308,1.077,5.627.632,11.238-.293,16.837a113.725,113.725,0,0,1-2.86,12.144,1.209,1.209,0,0,1-.8.313,4.379,4.379,0,0,0-3.332,2.305c-.115.215-.209.567-.518.5-.35-.075-.327-.451-.331-.731-.032-1.86,0-3.72-.019-5.581a1.9,1.9,0,0,0-.154-1.141,1.067,1.067,0,0,0-.6-.319C104.761,45.015,101.1,41.661,98.3,37.2a27.766,27.766,0,0,1-2.531-5.106c-.224-.605-.459-.606-.887-.209-4.651,4.307-10.3,6.809-16.166,8.917A102.02,102.02,0,0,1,67.658,44a2.212,2.212,0,0,1-1.064.124.44.44,0,0,1-.234-.18" transform="translate(-25.191 -2.19)" fill="#b06e3d"/>
      <path id="Trazado_165650" data-name="Trazado 165650" d="M67.824,60.517c7.355-1.7,14.562-3.834,21.246-7.447a32.428,32.428,0,0,0,6.986-4.894,1.823,1.823,0,0,1,.83-.569,29.027,29.027,0,0,0,4.711,8.546,16.989,16.989,0,0,0,10.172,6.4,2.885,2.885,0,0,1,.372.126,7.363,7.363,0,0,1,.1,2.333c-.032,4.517.313,9.026.225,13.543a6.143,6.143,0,0,1-.059,1.47c-.258.957-.063,1.643.951,1.956-1.464-.055-1.781.927-2.181,2.1-2.588,7.616-7.862,12.379-15.648,14.329a14.03,14.03,0,0,1-4.555.486c-.672-.056-.911.168-.913.87a8.271,8.271,0,0,1-.143,2.906l-.121-.1a7.008,7.008,0,0,1-.158-2.528c-.015-.625-.249-.88-.878-.886a21.615,21.615,0,0,1-20.7-16.376,1.892,1.892,0,0,1,.01-1.161c.326-.56.976-.73,1.409-1.174a1.869,1.869,0,0,0-.2-3.011c-.561-.449-1.36-.486-1.805-1.107-.215-.81-.209-1.529.762-1.849a3.91,3.91,0,0,0,2.075-3.558,7.093,7.093,0,0,0-.316-3.11,2.815,2.815,0,0,0-2-1.985.683.683,0,0,1-.537-.39,21.233,21.233,0,0,1-.094-4.147.779.779,0,0,1,.469-.781" transform="translate(-26.45 -18.71)" fill="#fecabd"/>
      <path id="Trazado_165651" data-name="Trazado 165651" d="M90.349,139.511c1.443.01,2.89.084,4.33.017a12.561,12.561,0,0,1,12.818,10.6c.263,1.479.5,2.969.881,4.419.232.882-.05.991-.82.989-8.894-.019-17.786-.008-26.68-.014-4.2,0-8.4-.025-12.6-.039a1.285,1.285,0,0,1-.229-1.116,62.859,62.859,0,0,1,1.136-7.656,12.74,12.74,0,0,1,3.037-5.638,4.414,4.414,0,0,1,2.335-1.415,10.877,10.877,0,0,1-3.9.05.27.27,0,0,1-.219-.284.434.434,0,0,1,.3-.237,14.482,14.482,0,0,1,5.325.163c.475.4.432,1,.545,1.533a6.737,6.737,0,0,0,8.738,5.017,6.607,6.607,0,0,0,4.574-5.612c.041-.3-.021-.687.426-.779" transform="translate(-26.732 -54.639)" fill="#8fdec2"/>
      <path id="Trazado_165652" data-name="Trazado 165652" d="M21.132,114.829a3.614,3.614,0,0,1-4.914-2.7q-3.4-12.156-6.8-24.312c-.714-2.548.251-4.3,2.795-5.021q6.18-1.75,12.366-3.477c.281-.078.575-.107.864-.16a3.377,3.377,0,0,1,3.776,2.679c.917,3.082,1.751,6.187,2.616,9.283,1.315,4.707,2.623,9.417,3.959,14.118.117.41.213.827.337,1.234a4.1,4.1,0,0,1-1.484,4.734,6.115,6.115,0,0,1-2.736.778c-.408-.2-.48-.6-.572-.98-.385-1.559-.809-3.108-1.167-4.675-.11-2.426-.065-4.853-.038-7.278a4.883,4.883,0,0,0-3.137-4.868,6.491,6.491,0,0,0-3.857-.2,4.821,4.821,0,0,0-3.873,4.988c-.029,2.418-.033,4.837.014,7.255.57,2.444,1.229,4.865,1.856,7.294.11.423.351.87,0,1.3" transform="translate(-3.61 -31.099)" fill="#617880"/>
      <path id="Trazado_165653" data-name="Trazado 165653" d="M39.424,123.8q.6,2.257,1.2,4.515A2.212,2.212,0,0,0,41,129.3a1.925,1.925,0,0,1,.456,1.069c1.082,4.265,2.259,8.5,3.3,12.78a3.521,3.521,0,0,0,.345.916c.271,1.411.614,2.8,1.016,4.183.106.364.283.747.033,1.13l-7.311.006a1.96,1.96,0,0,1-.426-.978c-1.984-7.851-4.113-15.664-6.09-23.516-.109-.433-.327-.9.18-1.249a37.4,37.4,0,0,1,6.412-.1.818.818,0,0,1,.514.259" transform="translate(-12.646 -48.518)" fill="#8fdec2"/>
      <path id="Trazado_165654" data-name="Trazado 165654" d="M45.054,110.139c1.691-1.46,1.767-3.221,1.183-5.252-2.3-7.987-4.514-16-6.77-24a3.67,3.67,0,0,0-3.505-2.648L37,77.853a28.881,28.881,0,0,1,4.316-.994c1.282-.307,2.1.427,2.833,1.3a4.423,4.423,0,0,1,.749,1.7c2.242,7.882,4.408,15.786,6.648,23.669.35,1.232.768,2.47.015,3.711a4.219,4.219,0,0,1-2.68,2.121c-.976.26-1.939.571-2.917.827-.3.078-.622.266-.91-.042" transform="translate(-14.134 -30.179)" fill="#738a94"/>
      <path id="Trazado_165655" data-name="Trazado 165655" d="M54.3,155.682a29.458,29.458,0,0,1-1.235-5.346,2.876,2.876,0,0,1,.265-2.181,12.683,12.683,0,0,1,9.973-8.589,1.3,1.3,0,0,1,1.214.16h4.5c-4.263,2.121-5.442,5.926-6.038,10.024a48.478,48.478,0,0,0-.634,5.92l-8.046.013" transform="translate(-20.803 -54.822)" fill="#66b39c"/>
      <path id="Trazado_165656" data-name="Trazado 165656" d="M29.64,123.855q2.816,10.818,5.622,21.639a22.247,22.247,0,0,1,.885,3.894c-1.083.007-2.169-.034-3.249.038-.715.048-.933-.245-1.1-.891-1.348-5.291-2.736-10.572-4.117-15.855a2.49,2.49,0,0,0-.2-.429l-2.143-8.467a8.655,8.655,0,0,1,4.046-.171.5.5,0,0,1,.258.242" transform="translate(-9.957 -48.521)" fill="#66b39c"/>
      <path id="Trazado_165657" data-name="Trazado 165657" d="M142.23,91.744c-1.627-.057-1.621-.056-1.291-1.641a4.768,4.768,0,0,0,.086-.971q0-8.345-.01-16.69c.341.286.178.674.18,1.013.016,2.2.008,4.394.008,6.89a4.785,4.785,0,0,1,4.751-3.205c3.32.347,4.541,2.923,4.3,6.248a9.089,9.089,0,0,1-7.056,8.223,9.316,9.316,0,0,1-.969.133" transform="translate(-55.323 -28.471)" fill="#e9ab9c"/>
      <path id="Trazado_165658" data-name="Trazado 165658" d="M98.413,139.029a9.456,9.456,0,0,1-1.307,3.908,6.616,6.616,0,0,1-3.6,2.663,1.647,1.647,0,0,1-1.374-.333,7.616,7.616,0,0,1-3.6-6.406c-.022-.571.194-.993.81-1.008,2.813-.064,5.627-.093,8.44.015a.734.734,0,0,1,.433.214l.044.042a1.325,1.325,0,0,0,.149.9" transform="translate(-34.796 -54.156)" fill="#fecabd"/>
      <path id="Trazado_165659" data-name="Trazado 165659" d="M6.341,56.118a1.652,1.652,0,0,1,1.3.593c1.3,1.3,2.605,2.589,3.891,3.9a1.577,1.577,0,0,1,.177,2.345c-.67.672-1.509.618-2.328-.189-1.354-1.335-2.693-2.687-4.034-4.035a1.455,1.455,0,0,1-.388-1.705,1.371,1.371,0,0,1,1.386-.908" transform="translate(-1.895 -22.054)" fill="#f3dc45"/>
      <path id="Trazado_165660" data-name="Trazado 165660" d="M7.3,70.747a1.45,1.45,0,0,1-1.916,1.466c-1.512-.514-3-1.1-4.475-1.72a1.436,1.436,0,0,1-.775-1.958,1.479,1.479,0,0,1,1.95-.8c1.411.506,2.806,1.06,4.2,1.6A1.43,1.43,0,0,1,7.3,70.747" transform="translate(0 -26.576)" fill="#f3dc45"/>
      <path id="Trazado_165661" data-name="Trazado 165661" d="M17.861,51.271a1.325,1.325,0,0,1,1.371.773c.625,1.511,1.233,3.032,1.759,4.579a1.435,1.435,0,0,1-.982,1.874,1.417,1.417,0,0,1-1.84-.891c-.58-1.389-1.143-2.788-1.63-4.211a1.488,1.488,0,0,1,1.323-2.124" transform="translate(-6.455 -20.15)" fill="#f3dc45"/>
      <path id="Trazado_165662" data-name="Trazado 165662" d="M81.024,110.961c-2.854,0-5.707.014-8.562.012-.491,0-.927-.021-.88.69a7.469,7.469,0,0,0,4.356,6.7,2.318,2.318,0,0,0,.375.11,6.911,6.911,0,0,1-7.674-2.134,7.6,7.6,0,0,1-1.618-4.433c-.493-.927-.206-1.925-.24-2.889-.052-1.5-.016-1.481-1.546-1.514a20.415,20.415,0,0,1-9.885-2.878.906.906,0,0,1-.515-.56c.842-1.851-.092-3.527-.561-5.226-2.024-7.346-4.112-14.674-6.133-22.021a3.8,3.8,0,0,0-3.36-3.108c0-2.522.013-2.413,2.524-2.765a98.624,98.624,0,0,0,11.46-2.165l.207.055c-.414.977-.128,2-.192,3-.044.684,0,1.374,0,2.061-1.8,1.314-2.238,3.148-2.126,5.259a3.534,3.534,0,0,0,2.7,3.678.46.46,0,0,1,.215.191c-1.066.212-.769,1.042-.785,1.731a6.039,6.039,0,0,1-2.212.058,6.04,6.04,0,0,0-2.466.543c-.88.417-1.717.96-1.718,2.057,0,1.144.865,1.7,1.789,2.106a7.475,7.475,0,0,0,4.138.4c.349-.05.7-.212,1.051-.026a13.764,13.764,0,0,0,2,6.09,21.036,21.036,0,0,0,9.8,9.255,19.544,19.544,0,0,0,8.794,1.969c.866-.016,1.175.215,1.1,1.1s-.025,1.769-.029,2.654" transform="translate(-17.6 -27.034)" fill="#e9ab9c"/>
      <path id="Trazado_165663" data-name="Trazado 165663" d="M89.284,100.021a11.945,11.945,0,0,1,3.429.51,3.37,3.37,0,0,1,2.4,3.346,5.721,5.721,0,1,1-11.389-.682c.223-1.55,1.431-2.634,3.361-2.953.773-.127,1.562-.159,2.2-.22" transform="translate(-32.881 -39.31)" fill="#544f57"/>
      <path id="Trazado_165664" data-name="Trazado 165664" d="M118.286,94.782a6.2,6.2,0,0,1,3.559.788A2.325,2.325,0,0,1,123.2,97.6a2.354,2.354,0,0,1-1.425,2.074,6.676,6.676,0,0,1-6.9-.126c-1.782-1.1-1.713-2.914.1-3.967a5.32,5.32,0,0,1,3.306-.8" transform="translate(-44.638 -37.238)" fill="#e38fb6"/>
      <path id="Trazado_165665" data-name="Trazado 165665" d="M64.081,100.092a7.19,7.19,0,0,1-5.714-.324,2.377,2.377,0,0,1-1.576-2.183,2.449,2.449,0,0,1,1.554-2.1,7.26,7.26,0,0,1,5.154-.529,4.991,4.991,0,0,1,1.442.575c1.853,1.2,1.825,3.026-.076,4.163-.251.15-.523.266-.785.4" transform="translate(-22.32 -37.229)" fill="#e38fb6"/>
      <path id="Trazado_165666" data-name="Trazado 165666" d="M118.809,81.87a5.909,5.909,0,0,1-.971,3.443,2,2,0,0,1-3.555.016,6.73,6.73,0,0,1-.066-6.908c1.079-1.579,2.689-1.551,3.727.066a6.585,6.585,0,0,1,.864,3.384" transform="translate(-44.527 -30.362)" fill="#454045"/>
      <path id="Trazado_165667" data-name="Trazado 165667" d="M67.036,86.341a2.6,2.6,0,0,1-2.809-2.085,7.1,7.1,0,0,1,.039-5,3.086,3.086,0,0,1,1.984-2.038,2.359,2.359,0,0,1,2.127,1.18,6.939,6.939,0,0,1,0,6.836,2.885,2.885,0,0,1-1.34,1.112" transform="translate(-25.071 -30.345)" fill="#454045"/>
      <path id="Trazado_165668" data-name="Trazado 165668" d="M90.427,88.941c.884,0,1.769-.02,2.653,0a1.5,1.5,0,0,1,1.59,1.408,1.373,1.373,0,0,1-1.3,1.55,20.249,20.249,0,0,1-6.432-.037c-.841-.14-.983-.887-.923-1.613a1.385,1.385,0,0,1,1.462-1.3c.978-.063,1.964-.015,2.947-.016" transform="translate(-33.802 -34.949)" fill="#e9ab9d"/>
      <path id="Trazado_165669" data-name="Trazado 165669" d="M39.338,115.911l-7.1.053,0-.053a1.765,1.765,0,0,1-.273-1.213c-.005-2.154.015-4.307-.007-6.461a5.309,5.309,0,0,1,2.222-4.364,1.855,1.855,0,0,1,1.822-.4,4.762,4.762,0,0,1,3.341,4.382c.034,2.683,0,5.368-.007,8.052" transform="translate(-12.561 -40.631)" fill="#fecabd"/>
      <path id="Trazado_165670" data-name="Trazado 165670" d="M33.4,103.286a4.618,4.618,0,0,0-3.745,4.379c-.021,2.685-.014,5.37-.019,8.055l-4.3-.017c0-2.487-.015-4.975,0-7.463a5.136,5.136,0,0,1,5.4-5.332,4.979,4.979,0,0,1,2.669.378" transform="translate(-9.952 -40.44)" fill="#e9ab9c"/>
      <path id="Trazado_165671" data-name="Trazado 165671" d="M145.315,86.355c.756.151,1.857-.01,2.339,1.207.361.912-.257,2.063-1.217,1.9a4.09,4.09,0,0,0-4.1,1.68c-.144.174-.331.359-.585.277-.285-.091-.223-.364-.228-.585-.008-.393,0-.785,0-1.178,0-2.223.764-3.068,2.992-3.3.194-.02.393,0,.8,0" transform="translate(-55.62 -33.936)" fill="#de9380"/>
    </g>
  </g>
</svg>
