<svg id="_18" data-name="18" xmlns="http://www.w3.org/2000/svg" xmlns:xlink="http://www.w3.org/1999/xlink" width="120" height="117" viewBox="0 0 120 117">
  <defs>
    <clipPath id="clip-path">
      <rect id="Rect치ngulo_43107" data-name="Rect치ngulo 43107" width="93.258" height="93.169" fill="none"/>
    </clipPath>
  </defs>
  <g id="Grupo_158146" data-name="Grupo 158146">
    <rect id="Rect치ngulo_36141" data-name="Rect치ngulo 36141" width="120" height="117" fill="#e1e8ff"/>
  </g>
  <g id="Grupo_170573" data-name="Grupo 170573" transform="translate(13 12)">
    <g id="Grupo_170573-2" data-name="Grupo 170573" clip-path="url(#clip-path)">
      <path id="Trazado_165672" data-name="Trazado 165672" d="M31.69,143.159a4.081,4.081,0,0,1,2.614-2.417c.438-.427,1-.305,1.513-.306,5.033-.011,10.067,0,15.1-.016.438,0,1.066.229,1.266-.292.21-.547-.277-.98-.656-1.353a3.222,3.222,0,0,0-2.437-.757q-7.832,0-15.663,0c-1.719,0-3.439.006-5.158,0a1.705,1.705,0,0,1-1.247-.286,3.608,3.608,0,0,1,1.87-4.056c.3-.154.6-.293.907-.439.437-.427,1-.308,1.512-.309q9.379-.015,18.756-.006a9.337,9.337,0,0,0,.937-.006c.412-.041.992.194,1.177-.294.2-.515-.247-.928-.594-1.289a2.649,2.649,0,0,0-1.756-.789c-.437-.037-.875-.028-1.313-.028q-12.942,0-25.884-.006a2.283,2.283,0,0,1-1.621-.287c-.689-2.274,1.436-4.5,3.494-4.51,1.407-.009,2.813,0,4.219-.008.3,0,.632.119.882-.166a.9.9,0,0,1,.707-.161c6.872.082,13.745.018,20.618.026.438,0,1.074.223,1.258-.308s-.3-.977-.679-1.349a3.254,3.254,0,0,0-2.44-.746q-8.387,0-16.776,0c-1.343,0-2.687.007-4.03,0a1.707,1.707,0,0,1-1.246-.285c-.7-2.3,1.5-4.534,3.588-4.519,3.344.024,6.688.01,10.033,0,.328,0,.693.131.98-.159a.865.865,0,0,1,.7-.171c5.229.1,10.459-.025,15.686.065a1.617,1.617,0,0,0,1.092-2.315,2.554,2.554,0,0,0-1.724-1.582c-2.189-.718-4.372-1.457-6.558-2.187a2.608,2.608,0,0,1-1.168-.555.872.872,0,0,1-.117-.578,3.76,3.76,0,0,1,3.439-2.7,37.432,37.432,0,0,1,5.2,1.174c2.94.67,5.849,1.461,8.779,2.17a17.9,17.9,0,0,1,3.184,1.048c3.415,2.149,6.844,4.275,10.257,6.427a3.946,3.946,0,0,0,2.213.609q9.853-.021,19.707,0a2.031,2.031,0,0,1,1.441.255q0,11.274,0,22.548a2.125,2.125,0,0,1-1.529.281c-5.942.008-11.884.041-17.825-.014a27.273,27.273,0,0,0-6.4.734,95.112,95.112,0,0,1-9.74,1.983,34.419,34.419,0,0,1-4.2.313q-14.166-.022-28.333,0a4.5,4.5,0,0,1-3.481-1.323,1.56,1.56,0,0,1-.553-1.05" transform="translate(-10.651 -55.091)" fill="#fec9b6"/>
      <path id="Trazado_165673" data-name="Trazado 165673" d="M125.132,79.924a54.841,54.841,0,0,1,7.678,1.987c2.16.816,3.972,2.338,5.948,3.531,1.763,1.065,3.512,2.157,5.225,3.3a4.319,4.319,0,0,0,2.567.621c.955,0,2.186-.426,2.794.191.564.572.16,1.786.164,2.717.012,3.033-.01,6.066-.018,9.1a1.557,1.557,0,0,1-1.157.259c-6.28.005-12.561,0-18.841.011a3.778,3.778,0,0,1-2.11-.648c-1.948-1.246-3.976-2.362-5.911-3.628a21.055,21.055,0,0,0-7.307-3.277,1.715,1.715,0,0,1-.895-.9c-.817-1.43-1.6-2.88-2.427-4.3-.178-.3-.453-.626-.183-1.026h11.432l.048-.156q-2.2-.953-4.406-1.907c-.887-.386-1.793-.736-2.651-1.18A3.509,3.509,0,0,1,113.5,80.34a3.55,3.55,0,0,1,4-2.332,16.1,16.1,0,0,1,2.529.638c.32.509.081,1.037.007,1.538-.1.7.159.832.771.684,1.121-.271,2.23-.586,3.342-.889.32-.087.644-.276.986-.057" transform="translate(-56.387 -39.756)" fill="#fcb9ac"/>
      <path id="Trazado_165674" data-name="Trazado 165674" d="M31.541,18.03a9.075,9.075,0,0,0-7.236-8.815,12.125,12.125,0,0,0-2.138-.174c-7.037,0-14.074-.012-21.11.019C.246,9.064-.021,8.879,0,8.028.062,5.684.043,3.337.009.992,0,.3.127.009.921.013,8.427.044,15.935-.065,23.438.071A16.78,16.78,0,0,1,34.611,4.679a17.769,17.769,0,0,1,5.672,10.194,15.037,15.037,0,0,1,.3,3.158,1.352,1.352,0,0,1-1.124.32q-3.4.022-6.8,0a1.346,1.346,0,0,1-1.123-.321" transform="translate(0 0)" fill="#bfc7dc"/>
      <path id="Trazado_165675" data-name="Trazado 165675" d="M42.579,178.787a4.894,4.894,0,0,0,4.4,2.1c9.533-.069,19.067-.01,28.6-.045a38.9,38.9,0,0,0,8.377-1.164q4-.9,8-1.792a3.052,3.052,0,0,1,.654-.033q11.018,0,22.036.007c.007.688-.028,1.38.034,2.063.066.734-.179.955-.931.95-4.879-.034-9.758-.017-14.637-.017-.751,0-1.507.059-2.251-.01-3.994-.368-7.8.682-11.61,1.583a50.563,50.563,0,0,1-12.115,1.454c-9.038-.077-18.078-.06-27.117,0-2.47.016-4.664-3.008-3.441-5.1" transform="translate(-21.54 -90.719)" fill="#f6b29e"/>
      <path id="Trazado_165676" data-name="Trazado 165676" d="M80.361,79.013c-1.771-.285-3.455-.973-5.253-1.128-.514-.285-.505-.868-.746-1.309-.366-.917-.65-1.863-1.019-2.779a1.211,1.211,0,0,1-.124-.98L64.948,50.3q-.273-.744-.549-1.486a1.331,1.331,0,0,1,1.121-.325q3.4-.022,6.8,0a1.289,1.289,0,0,1,1.117.334l3.353,5.967a1.559,1.559,0,0,1-.748.363,3.209,3.209,0,0,0-2.078,4.481c1.616,4.4,3.283,8.78,4.891,13.182.625,1.764,1.371,3.485,1.917,5.276.107.351.454.942-.408.921" transform="translate(-32.848 -24.727)" fill="#c4ebf6"/>
      <path id="Trazado_165677" data-name="Trazado 165677" d="M88.047,79.388c-1.017-2.268-1.772-4.637-2.653-6.957-.784-2.065-1.532-4.143-2.332-6.2a3.444,3.444,0,0,1,3.1-4.867q4.692,8.255,9.381,16.512c.277.489.512,1,.766,1.5a1.292,1.292,0,0,1-1.042.306q-3.083.024-6.166,0a1.462,1.462,0,0,1-1.053-.3" transform="translate(-42.221 -31.299)" fill="#d9f3fa"/>
      <path id="Trazado_165678" data-name="Trazado 165678" d="M117.519,110.42a18.546,18.546,0,0,1,7.4,3.15c2.161,1.357,4.362,2.648,6.521,4.008a2.47,2.47,0,0,0,1.41.353q10.072,0,20.145,0l0,2.983q-10.954.006-21.906.02a2.013,2.013,0,0,1-1.125-.356c-3.317-2.082-6.645-4.147-9.967-6.223-.262-.164-.5-.373-.742-.561a12.278,12.278,0,0,1-1.734-2.763.523.523,0,0,1-.007-.617" transform="translate(-59.893 -56.322)" fill="#eea096"/>
      <path id="Trazado_165679" data-name="Trazado 165679" d="M21.152,153.341q14.307,0,28.614,0a2.962,2.962,0,0,1,2.995,2.215c.179.6.014.8-.591.792-1.407-.019-2.814-.007-4.222-.005l-18.012.016c-1.814-.005-3.629,0-5.443-.022a3.645,3.645,0,0,1-3.341-2.992" transform="translate(-10.789 -78.212)" fill="#f6b29e"/>
      <path id="Trazado_165680" data-name="Trazado 165680" d="M33.413,168.668q11.3,0,22.607,0a2.947,2.947,0,0,1,2.963,2.127c.24.706.038.888-.653.883-2.845-.02-5.691-.01-8.536-.008q-4.55,0-9.1.016c-1.314-.005-2.628,0-3.941-.021a3.653,3.653,0,0,1-3.341-2.992" transform="translate(-17.043 -86.03)" fill="#f6b29e"/>
      <path id="Trazado_165681" data-name="Trazado 165681" d="M33.413,138.014q11.336,0,22.671,0a2.948,2.948,0,0,1,2.89,2.092c.272.767.013.92-.7.917-4.934-.018-9.868-.009-14.8-.009-2.03,0-4.06-.012-6.089.009A8.039,8.039,0,0,1,36,140.839a3.389,3.389,0,0,1-2.588-2.825" transform="translate(-17.043 -70.394)" fill="#f6b29e"/>
      <path id="Trazado_165682" data-name="Trazado 165682" d="M71.848,42.854l-9.035-.009c-1.494-.068-1.494-.068-1.494-1.576,0-1.154.063-2.312-.021-3.46-.062-.856.238-1.132,1.04-1a2.264,2.264,0,0,0,.466-.018h9.044c1.485.056,1.485.056,1.485,1.577,0,1.153-.064,2.311.021,3.457.063.861-.244,1.126-1.041,1a2.11,2.11,0,0,0-.464.03" transform="translate(-31.263 -18.758)" fill="#989898"/>
      <path id="Trazado_165683" data-name="Trazado 165683" d="M105.332,104.154c.4,1.22,1.306,2.178,1.741,3.38-3.834-1.294-7.789-2.128-11.716-3.07-.052-.013-.092-.079-.138-.121.61-.119.3-.5.2-.78q-.825-2.314-1.683-4.617a1.764,1.764,0,0,1-.2-.8l8.261-.01c.062,0,.124.011.187.019a52.422,52.422,0,0,0,3.353,6" transform="translate(-47.705 -50.056)" fill="#d8dee2"/>
      <path id="Trazado_165684" data-name="Trazado 165684" d="M68.479,113.133c0,.189,0,.378,0,.568a4.848,4.848,0,0,0,1.547,3.439c.252.226.31.557-.149.709a16.756,16.756,0,0,1-2.986.091c-2.586.015-5.173.01-7.759,0a1.814,1.814,0,0,1-1.334-.291c-.682-2.252,1.4-4.494,3.5-4.509,1.407-.01,2.813,0,4.219-.008.3,0,.632.121.88-.169a2.469,2.469,0,0,1,2.081.17" transform="translate(-29.415 -57.54)" fill="#fcb9ac"/>
      <path id="Trazado_165685" data-name="Trazado 165685" d="M57.938,122.559l12.369-.009c.308-.242.6-.053.872.061,1.861.775,3.712,1.574,5.561,2.378.239.1.555.18.508.561q-7.719,0-15.437,0a10.377,10.377,0,0,1-1.286-.158,3.425,3.425,0,0,1-2.586-2.832" transform="translate(-29.553 -62.449)" fill="#eea096"/>
      <path id="Trazado_165686" data-name="Trazado 165686" d="M35.787,63.745c-1.875-.17-3.577-.564-4.4-2.495a3.331,3.331,0,0,1,1.129-3.917,3.628,3.628,0,0,1,3.958.005,5.872,5.872,0,0,1,1.886,2.268c.519,1.067,1.051,2.127,1.583,3.187.211.42.243.74-.369.72a21.663,21.663,0,0,0-3.789.232" transform="translate(-15.885 -28.946)" fill="#c1e9f7"/>
      <path id="Trazado_165687" data-name="Trazado 165687" d="M134.631,74.925q-2.32.645-4.64,1.291c-.684.192-.926-.052-.781-.746.125-.6.212-1.214.315-1.821a8.475,8.475,0,0,1,1.158-3.879,3.475,3.475,0,0,1,3.72-1.532,3,3,0,0,1,2.4,2.355,3.356,3.356,0,0,1-1.369,3.694c-.277.2-.533.425-.8.639" transform="translate(-65.886 -34.758)" fill="#c1e9f7"/>
      <path id="Trazado_165688" data-name="Trazado 165688" d="M76.039,98.152a35.494,35.494,0,0,1,1.327,3.748.862.862,0,0,1-.562.3,23.491,23.491,0,0,1-5.6.741,1.693,1.693,0,0,1-1.144-.275c-.678-2.23,1.367-4.465,3.461-4.508.839-.018,1.678,0,2.517,0" transform="translate(-35.668 -50.062)" fill="#fcb9ac"/>
      <path id="Trazado_165689" data-name="Trazado 165689" d="M70.2,106.57a23.186,23.186,0,0,0,6.468-.7,6.246,6.246,0,0,1,.837-.064c.325.381.338.9.562,1.32a3.756,3.756,0,0,0-3.2,2.435,6.371,6.371,0,0,1-2.081-.17A3.388,3.388,0,0,1,70.2,106.57" transform="translate(-35.807 -53.97)" fill="#eea096"/>
      <path id="Trazado_165690" data-name="Trazado 165690" d="M119.512,42.226c0,.25.016.5,0,.75a1.5,1.5,0,0,1-2.99.023,14.737,14.737,0,0,1,0-1.5,1.5,1.5,0,1,1,3-.023c.011.25,0,.5,0,.751" transform="translate(-59.422 -20.361)" fill="#9adbf3"/>
      <path id="Trazado_165691" data-name="Trazado 165691" d="M109.565,49.109c1.576,0,2.241.428,2.268,1.46.028,1.075-.664,1.544-2.28,1.543h-.281c-1.277,0-1.943-.523-1.94-1.508s.666-1.492,1.951-1.5h.281" transform="translate(-54.747 -25.049)" fill="#9adbf3"/>
      <path id="Trazado_165692" data-name="Trazado 165692" d="M124.955,52.1c-.281,0-.564.017-.844,0a1.5,1.5,0,0,1,.046-2.993c.5-.024,1-.024,1.5,0a1.5,1.5,0,1,1-.046,3c-.219.011-.438,0-.657,0" transform="translate(-62.564 -25.035)" fill="#9adbf3"/>
      <path id="Trazado_165693" data-name="Trazado 165693" d="M119.515,57.544c0,.219.009.438,0,.657a1.5,1.5,0,1,1-3,.041c-.023-.468-.017-.938,0-1.407a1.5,1.5,0,1,1,3-.042c.012.25,0,.5,0,.751" transform="translate(-59.424 -28.178)" fill="#9adbf3"/>
      <path id="Trazado_165694" data-name="Trazado 165694" d="M42.882,91.271c0,.25.016.5,0,.75a1.5,1.5,0,0,1-2.99.025,14.874,14.874,0,0,1-.005-1.5,1.5,1.5,0,1,1,3-.025c.011.25,0,.5,0,.751" transform="translate(-20.335 -45.378)" fill="#9adbf3"/>
      <path id="Trazado_165695" data-name="Trazado 165695" d="M32.95,101.155c-1.568,0-2.235-.438-2.25-1.479-.015-1.057.66-1.524,2.2-1.524.25,0,.5-.009.751,0a1.5,1.5,0,1,1,.046,3c-.249.015-.5,0-.751,0" transform="translate(-15.659 -50.063)" fill="#9adbf3"/>
      <path id="Trazado_165696" data-name="Trazado 165696" d="M48.3,101.159c-1.609,0-2.306-.475-2.273-1.55.031-1.031.693-1.454,2.274-1.454h.188c1.372,0,2.04.493,2.04,1.5s-.669,1.5-2.04,1.5H48.3" transform="translate(-23.476 -50.066)" fill="#9adbf3"/>
      <path id="Trazado_165697" data-name="Trazado 165697" d="M39.891,106.476a7.452,7.452,0,0,1,0-.844,1.46,1.46,0,0,1,1.535-1.336,1.408,1.408,0,0,1,1.442,1.329,9.742,9.742,0,0,1,.011,1.687,1.5,1.5,0,0,1-2.992.008c-.019-.28,0-.563,0-.844Z" transform="translate(-20.342 -53.198)" fill="#9adbf3"/>
      <path id="Trazado_165698" data-name="Trazado 165698" d="M88.252,121.569c-1.444-.835-3.035-1.341-4.542-2.037-.781-.361-1.6-.644-2.4-.962-.574-.827-1.517-1.375-1.72-2.494a2.8,2.8,0,0,1,.033-1.446c2.7.885,5.4,1.748,8.084,2.663a2.608,2.608,0,0,1,1.48,3.469,1.131,1.131,0,0,1-.937.807" transform="translate(-40.558 -58.47)" fill="#f6b29e"/>
    </g>
  </g>
</svg>
