<svg xmlns="http://www.w3.org/2000/svg" xmlns:xlink="http://www.w3.org/1999/xlink" width="505" height="671.583" viewBox="0 0 505 671.583">
  <defs>
    <clipPath id="clip-path">
      <rect id="Rect치ngulo_42953" data-name="Rect치ngulo 42953" width="505" height="671.256" rx="11" transform="translate(1004 952.72)" fill="#a6bbff"/>
    </clipPath>
  </defs>
  <g id="_20" data-name="20" transform="translate(-180 -1463)">
    <g id="Enmascarar_grupo_243" data-name="Enmascarar grupo 243" transform="translate(-824 510.279)" clip-path="url(#clip-path)">
      <g id="Grupo_170223" data-name="Grupo 170223" transform="translate(663.599 646.09)">
        <rect id="Rect치ngulo_42952" data-name="Rect치ngulo 42952" width="547.086" height="698.437" rx="11" transform="translate(320.36 292.602)" fill="#fff7da"/>
        <g id="Grupo_170222" data-name="Grupo 170222" transform="translate(0 0)">
          <path id="Trazado_165129" data-name="Trazado 165129" d="M779.208,203.626C773.279,102.959,702.9,6.843,607.586.881,498.11-8.32,397.624,57.55,288.574,58.247c-55.607,5.23-107.756-18.13-161.946-25.674C4.235,27.644-14.413,185.451,8.413,287.169,104.679,766.706,785.873,701.462,779.208,203.626Z" transform="matrix(-0.602, 0.799, -0.799, -0.602, 959.354, 369.532)" fill="#ffe891"/>
          <path id="Trazado_165130" data-name="Trazado 165130" d="M.036,155.178C4.406,78.463,56.284,5.215,126.544.672c80.7-7.012,154.769,43.185,235.153,43.717,40.99,3.986,79.43-13.817,119.375-19.565,90.22-3.756,103.966,116.5,87.139,194.021C497.251,584.288-4.878,534.567.036,155.178Z" transform="translate(407.32 1064.136) rotate(-81)" fill="#ffd947" opacity="0.388" style="mix-blend-mode: multiply;isolation: isolate"/>
        </g>
      </g>
    </g>
    <g id="Grupo_169825" data-name="Grupo 169825" transform="translate(208.022 1399.548)">
      <g id="Grupo_157493" data-name="Grupo 157493" transform="translate(-6.022 90.452)">
        <g id="Grupo_158989" data-name="Grupo 158989" transform="translate(0 0)">
          <g id="Layer_3" data-name="Layer 3">
            <path id="Trazado_115817" data-name="Trazado 115817" d="M724.027,1136.4c-.229-7.226-.466-14.455-.792-21.681-.657-14.615-1.678-29.229-3.731-43.722-3.438-24.261-12.476-45.852-18.8-69.277a270.2,270.2,0,0,1-5.976-28.2,323.332,323.332,0,0,1-3.768-53.409c.151-17.534,1.42-35.235,7.577-51.809,3.344-9.01,7.054-20.3,14.378-26.919,1.159-1.045,3.217-2.2,4.172-3.176,0-.008,0-.017,0-.025.362-.277.715-.563,1.05-.865.251-1.622.555-3.236.8-4.878.02-.123.036-.25.053-.374-3.783-.3-7.961,2.43-11.289,3.875-7.929,3.449-16.069,6.4-23.971,9.921-3.636,1.622-7.328,3.324-10.88,5.05-3.467,1.686-6.191,4.526-9.675,6.221-3.894,1.9-7.8,3.772-11.755,5.544-2.992,1.341-6,2.667-8.979,4.038a83.092,83.092,0,0,0,8.254,16.407c-.106.37-.212.741-.328,1.109-2.939,9.344-8.671,17.415-12.582,26.331-.959,2.188-1.764,4.421-2.559,6.638l.008,0c1.792.976,1.865,3.16,2.474,5.046,5.05,15.643-3.229,24.682-5.5,39.317-1.825,11.72,2.56,22.318,2.074,33.761-.314,7.385-4.413,13.709-6.311,20.681a76.814,76.814,0,0,0-1.89,9.507c-4.241,30.544-11.112,60.928-17.093,91.228-1.433,7.258-2.674,15.1-4.548,22.767l.017,0c1.927,23.437,2.176,47.408,2,71.094h117.44c.514-10.585.9-21.179.935-31.777C724.872,1164.576,724.48,1150.619,724.027,1136.4Zm-25.935-41.01c-1.694-3.788.535-8.851,4.94-9.157,2.029-.143,3.282-.069,4.981,1.254,3.625,2.833,2.1,7.466-.433,10.471C705.069,1100.945,699.432,1098.386,698.092,1095.394Zm13.627,70.75c-2.515,2.98-8.148.425-9.487-2.568-1.694-3.792.535-8.851,4.935-9.157,2.029-.143,3.287-.07,4.98,1.253C715.777,1158.506,714.25,1163.14,711.719,1166.144Z" transform="translate(-508.152 -567.417)" fill="#8284d2"/>
            <path id="Trazado_115818" data-name="Trazado 115818" d="M650.5,399.982a1.955,1.955,0,0,1,.216,3.141,4.843,4.843,0,0,1-3.922.9c-1.952-.266-3.986-.395-5.942-.491-2.31-.115-4.628-.128-6.943-.206-1.68-.06-4.642.257-5.992-.974-1.713-1.565-.248-3.095,1.557-3.471a20.588,20.588,0,0,1,4.986.078c1.19.046,2.4.106,3.6.147,2.567.087,5.139.046,7.705.069C647.349,399.183,649.117,399.1,650.5,399.982Z" transform="translate(-522.622 -291.492)" fill="#ffbc3b"/>
            <path id="Trazado_115819" data-name="Trazado 115819" d="M619.623,299.629c2.186.138,2.025,2.539.693,3.623-.184.73-1.332.932-1.919,1.373-.882.657-5.694,4.385-6.443,5.184a13.8,13.8,0,0,1-2.273,1.648c-1.047.749-4.523,3.4-5.639,1.341a2.084,2.084,0,0,1,.225-1.956,8.277,8.277,0,0,1,3.288-2.714,10.383,10.383,0,0,0,3.214-2.424c.767-.955,5.657-4.348,6.589-5.1A3.4,3.4,0,0,1,619.623,299.629Z" transform="translate(-507.8 -228.382)" fill="#ffbc3b"/>
            <path id="Trazado_115820" data-name="Trazado 115820" d="M616.157,482.909a1.955,1.955,0,0,1-2.057,2.383,4.841,4.841,0,0,1-3.421-2.121c-1.2-1.561-2.549-3.086-3.871-4.532-1.561-1.708-3.2-3.347-4.784-5.032-1.153-1.226-3.481-3.081-3.573-4.909-.119-2.319,2-2.374,3.545-1.369a20.492,20.492,0,0,1,3.49,3.559c.812.877,1.634,1.768,2.456,2.645,1.763,1.869,3.618,3.646,5.427,5.473C614.477,480.122,615.785,481.316,616.157,482.909Z" transform="translate(-504.339 -334.779)" fill="#ffbc3b"/>
            <path id="Trazado_115821" data-name="Trazado 115821" d="M570.085,407.265c.533,3.343-3.32,3.228-5.758,3.086a12.21,12.21,0,0,1,2.888-3.857C568.414,405.456,569.791,405.41,570.085,407.265Z" transform="translate(-482.612 -295.979)" fill="#ffbc3b"/>
            <path id="Trazado_115822" data-name="Trazado 115822" d="M535.262,513.766c0,.1-.344-.051-.532-.115-.359-.115-.735-.252-1.079-.395a14.5,14.5,0,0,0-2.259-.79c-3.963-.937-7.907-2.355-11.783-3.591h-.11c0-1.106.055-2.232-.018-3.324-.046-.7-.308-1.5-.335-2.25l.059,0c0,.368,7.131,2.8,7.8,3a45.373,45.373,0,0,1,7.664,2.521c.308.156.716.56,1.024.454h.133a27.594,27.594,0,0,1-.344,4.528Z" transform="translate(-453.841 -358.078)" fill="#dedede"/>
            <path id="Trazado_115823" data-name="Trazado 115823" d="M535.349,523.432c.188.064.532.216.532.115l.216.037c-.064.39-.142.78-.234,1.166a12.685,12.685,0,0,1-1.061,3.38,9.212,9.212,0,0,1-.551.863l-.041-.028c-1.047-.422-2.117-1.028-3.223-1.391-3.453-1.13-6.938-2.645-10.281-4.064l-.363,0a24.467,24.467,0,0,0-.11-3.021,14.4,14.4,0,0,1-.115-1.837h.111c3.875,1.235,7.82,2.654,11.782,3.591a14.488,14.488,0,0,1,2.259.79C534.614,523.18,534.991,523.318,535.349,523.432Z" transform="translate(-454.46 -367.859)" fill="#dedede"/>
            <path id="Trazado_115824" data-name="Trazado 115824" d="M521.929,438.811h-.051c-.275-3.981-1.524-7.833-2.13-11.792-.758-4.968-1.212-10.244-2.948-14.992a22.122,22.122,0,0,0-.955-2.232c.294-.018.57-.032.813-.046a10.6,10.6,0,0,0,2.838-.712,8.093,8.093,0,0,0,2.631-1.749,12,12,0,0,0,2.186-2.1c.059-.092.119-.188.179-.284a10.707,10.707,0,0,0,5.317,4.132,10.517,10.517,0,0,0,2.838.712c.243.014.514.028.808.046a21.178,21.178,0,0,0-.95,2.232c-1.74,4.748-2.195,10.024-2.953,14.992-.546,3.582-1.832,7.241-1.859,10.878,0,.335.051.675.055,1.01C525.8,438.922,523.844,438.867,521.929,438.811Z" transform="translate(-451.739 -295.424)" fill="#ffbc3b"/>
            <path id="Trazado_115825" data-name="Trazado 115825" d="M534.6,537.475l.042.028a8.581,8.581,0,0,1-1.607,1.713c-1.488,1.208-3.861,1.373-5.68,1.139a7.5,7.5,0,0,1-5.276-3.485,8.472,8.472,0,0,1-1.212-3.1,11.612,11.612,0,0,1-.133-1.74l.363,0c3.343,1.419,6.828,2.934,10.281,4.064C532.488,536.447,533.558,537.052,534.6,537.475Z" transform="translate(-454.855 -376.368)" fill="#dedede"/>
            <path id="Trazado_115826" data-name="Trazado 115826" d="M537.5,382.749a11.143,11.143,0,0,1-1.327,5.887,12,12,0,0,1-1.864-4.6c-.244-1.332-.244-3.779,1.171-4.559C536.907,378.69,537.482,382,537.5,382.749Z" transform="translate(-463.416 -279.154)" fill="#ffbc3b"/>
            <path id="Trazado_115827" data-name="Trazado 115827" d="M535.211,254.748c.459.592-.087,1.621-.105,2.356-.023,1.1-.055,7.186.115,8.265a13.743,13.743,0,0,1-.1,2.81c-.055,1.286-.11,5.652-2.42,5.267a2.072,2.072,0,0,1-1.4-1.382,8.226,8.226,0,0,1-.11-4.261,10.5,10.5,0,0,0,.069-4.022c-.28-1.194.064-7.14.046-8.334a3.4,3.4,0,0,1,.625-2.388C533.388,251.424,535.174,253.031,535.211,254.748Z" transform="translate(-461.366 -198.297)" fill="#ffbc3b"/>
            <path id="Trazado_115828" data-name="Trazado 115828" d="M532.508,498.253c-.014.05.009.078-.042.129,0-.041,0-.087-.009-.129Z" transform="translate(-462.317 -354.866)" fill="#8cc295"/>
            <path id="Trazado_115829" data-name="Trazado 115829" d="M482.371,387.042l-.427.216-.106-.322a19.862,19.862,0,0,0-2.025-4.137c-2.1-3.219-5.607-4.707-8.467-7.053a33.047,33.047,0,0,1-11.617-23.491c-.744-14.469,10.295-28.143,25.131-28.478,6.479-.147,13.753,1.244,19.019,5.12a29.4,29.4,0,0,1,10.409,34,31.487,31.487,0,0,1-4.638,8.513c-2.122,2.774-5.271,4.459-7.439,7.1-1.97,2.392-4.721,4.8-4.991,8.09l-.037.349-.2.078c-1.64.147-3.311.2-5,.211,0-.335-.055-.675-.055-1.01.027-3.637,1.313-7.3,1.859-10.878.758-4.969,1.212-10.244,2.953-14.992a21.162,21.162,0,0,1,.95-2.232c2.438.142,6.29.257,5.758-3.086-.294-1.855-1.672-1.809-2.87-.771a12.208,12.208,0,0,0-2.888,3.857c-.294-.018-.565-.032-.808-.046a10.517,10.517,0,0,1-2.838-.712,10.707,10.707,0,0,1-5.317-4.132,11.145,11.145,0,0,0,1.327-5.887c-.014-.753-.588-4.059-2.021-3.274-1.414.781-1.414,3.228-1.171,4.559a12,12,0,0,0,1.864,4.6c-.06.1-.12.193-.179.284a12,12,0,0,1-2.185,2.1,8.093,8.093,0,0,1-2.631,1.749,10.6,10.6,0,0,1-2.838.712c-.243.014-.519.028-.813.046a12.211,12.211,0,0,0-2.888-3.857c-1.2-1.038-2.572-1.084-2.87.771-.533,3.343,3.32,3.228,5.758,3.086a22.175,22.175,0,0,1,.955,2.232c1.736,4.748,2.19,10.024,2.948,14.992.606,3.958,1.855,7.811,2.131,11.791C484.85,387.106,483.6,387.065,482.371,387.042Z" transform="translate(-415.983 -243.756)" fill="#ffbc3b"/>
            <path id="Trazado_115830" data-name="Trazado 115830" d="M519.2,499.747l-.06,0a2.029,2.029,0,0,1,.657-1.722l.427-.216c1.226.023,2.479.064,3.751.1.005.042.005.087.009.129.05-.051.027-.078.041-.129,1.915.055,3.871.111,5.818.1,1.685-.009,3.356-.064,5-.211l.2-.078c.753.482.79,1.584.79,2.383,0,1.089-.06,2.163-.037,3.26.018.785.032,1.575.027,2.36h-.133c-.308.106-.716-.3-1.024-.455A45.373,45.373,0,0,0,527,502.75C526.33,502.548,519.2,500.114,519.2,499.747Z" transform="translate(-453.835 -354.528)" fill="#dedede"/>
            <path id="Trazado_115831" data-name="Trazado 115831" d="M502.775,406.494a12.21,12.21,0,0,1,2.888,3.857c-2.438.142-6.291.257-5.758-3.086C500.2,405.41,501.577,405.456,502.775,406.494Z" transform="translate(-441.557 -295.979)" fill="#ffbc3b"/>
            <path id="Trazado_115832" data-name="Trazado 115832" d="M440.363,467.329c1.547-1.005,3.664-.951,3.549,1.369-.092,1.827-2.42,3.682-3.572,4.909-1.589,1.685-3.223,3.325-4.789,5.032-1.318,1.447-2.672,2.971-3.871,4.532a4.843,4.843,0,0,1-3.416,2.121,1.958,1.958,0,0,1-2.062-2.383c.372-1.593,1.685-2.787,2.792-3.9,1.809-1.828,3.664-3.6,5.427-5.473.822-.877,1.644-1.768,2.457-2.645A20.438,20.438,0,0,1,440.363,467.329Z" transform="translate(-394.624 -334.779)" fill="#ffbc3b"/>
            <path id="Trazado_115833" data-name="Trazado 115833" d="M421.336,315.087c1.272,1.336,1.6,3.43-.7,3.738-1.814.239-4.064-1.708-5.478-2.617-1.947-1.254-3.857-2.562-5.822-3.788-1.662-1.038-3.407-2.089-5.161-2.98a4.865,4.865,0,0,1-2.714-2.975,1.959,1.959,0,0,1,1.97-2.456c1.635.073,3.049,1.143,4.348,2.029,2.126,1.447,4.211,2.944,6.373,4.335,1.01.652,2.039,1.295,3.044,1.933A20.739,20.739,0,0,1,421.336,315.087Z" transform="translate(-378.857 -231.173)" fill="#ffbc3b"/>
            <path id="Trazado_115834" data-name="Trazado 115834" d="M401.511,398.875c1.809.377,3.274,1.906,1.557,3.471-1.35,1.231-4.307.914-5.988.974-2.314.078-4.633.092-6.947.206-1.956.1-3.986.225-5.937.491a4.853,4.853,0,0,1-3.926-.9,1.959,1.959,0,0,1,.216-3.141c1.387-.877,3.159-.8,4.734-.813,2.567-.023,5.138.018,7.705-.069,1.2-.042,2.411-.1,3.6-.147A20.554,20.554,0,0,1,401.511,398.875Z" transform="translate(-364.969 -291.492)" fill="#ffbc3b"/>
            <path id="Trazado_115835" data-name="Trazado 115835" d="M951.69,761.96l.008-.237c10.606-.351,22.991-6.519,32.107-13.615l.192.241c-.388,3.066-.2,6.434-.433,9.186a103.788,103.788,0,0,0-.323,16.4c-6.3.38-12.394,2-18.913,1.474a79.647,79.647,0,0,1-21.86-5.115c-5.993-2.331-11.321-6.2-16.419-10.047-3.482-2.629-6.217-5.76-9.2-8.9-.531-.559-1.09-1.3-1.682-2.057,3.462,1.943,6.989,3.789,10.573,5.666a68.394,68.394,0,0,0,13.9,5.135A52.551,52.551,0,0,0,951.69,761.96Z" transform="translate(-706.022 -513.97)" fill="#e39476"/>
            <path id="Trazado_115836" data-name="Trazado 115836" d="M871.213,1533.047c3.625,2.833,2.1,7.467-.432,10.471-2.511,2.984-8.149.425-9.488-2.568-1.694-3.788.535-8.85,4.939-9.157C868.261,1531.65,869.515,1531.724,871.213,1533.047Z" transform="translate(-671.353 -1012.973)" fill="#37628f"/>
            <path id="Trazado_115837" data-name="Trazado 115837" d="M1210.537,1210.729h-96.1c.135-14.726.327-29.556-.984-44.155a317.94,317.94,0,0,1-1.433-36.933c.274-10.128-.531-20.4-.188-30.6.379-11.41,2.833-22.759,3.3-34.218a146.919,146.919,0,0,1,3.629-25.168c2.074-9.585,1.944-19.461,4.564-29.021,2.649-9.655,5.458-19.252,7.372-29.139,1.743-8.994,2.817-18.064,4.658-27.013a168.232,168.232,0,0,0,.968-61.247c-.963-5.964-1.38-11.9-2.858-17.791-2.895-11.533-8.152-22.779-17.162-30.8-3.331-2.964-7.891-4.4-11.145-7.152-.3-1.613-.657-3.217-.951-4.85-.024-.123-.045-.249-.065-.372,3.772-.425,8.034,2.176,11.406,3.515,8.034,3.2,16.264,5.883,24.273,9.156,3.686,1.507,7.43,3.091,11.034,4.7,3.519,1.576,6.332,4.327,9.867,5.911,3.952,1.771,7.912,3.523,11.924,5.168,8.532,3.5,17.158,6.879,25.155,11.52,10.614,6.156,20.591,12.312,29.042,21.44,7.9,8.532,14.178,19.791,19.635,29.985,6.051,11.283,10.614,23.9,14.7,36.006.988,2.935,2.442,5.891,3.013,8.932,1.073,5.724,1.461,11.7,2.327,17.485q1.47,9.816,2.682,19.673c1.654,13.357,3,26.751,4.156,40.158,1.478,17.1,1.294,34.3,3.127,51.367,1.792,16.721,8.315,31.724,11.132,48.131,1.825,10.643-.3,21.318-1,31.957-.375,5.731,1.736,11.271,1.666,16.974-.065,5.491-1.54,10.859-1.69,16.37Z" transform="translate(-826.36 -567.538)" fill="#8284d2"/>
            <path id="Trazado_115838" data-name="Trazado 115838" d="M528.455,755.517c-.576-2.714-.927-5.45-1.437-8.213-.539-2.919-1.2-5.817-1.853-8.712-2.747-12.092-4.817-23.371-1-35.487,3.425-10.88,9.365-20.857,11.966-32.014,1.784-7.651,1.359-15.337,1.11-23.134-.31-9.557.188-19.146.245-28.7.041-6.691-.743-16.415,5.891-20.477a4.5,4.5,0,0,1,5.034-.265c5.736,2.592,6.814,11.071,7.063,16.5.694,15.211.123,30.364.061,45.587,0,.824.151,1.335.184,2.086a18.859,18.859,0,0,1,6.184.755c8.871,2.674,14.9,10.557,20.346,17.677,1.237-5.2,4.123-11.5,9.561-13.325,1.653-.555,3.07-.943,4.711-.343a10.328,10.328,0,0,1,5.985,4.915c2.572,5.258-.086,11.81-1.245,17.1-.8,3.65-1.776,7.234-1.755,11.035.016,4.143.706,8.246.808,12.386.082,3.364.065,6.756-.188,10.128a53.526,53.526,0,0,1-2.2,12.1c-2.939,9.345-8.671,17.415-12.582,26.331-.96,2.188-1.764,4.421-2.559,6.638-2.311,6.426-4.564,12.688-10.435,17.187-7.732,5.931-18.077,3.984-25.931-.625a39.863,39.863,0,0,1-11.157-9.748,12.57,12.57,0,0,1-2.78-6.348c-.641-3.437-2.307-6.727-3.286-10.079C528.9,757.489,528.663,756.5,528.455,755.517Z" transform="translate(-455.706 -418.3)" fill="#f5b49b"/>
            <path id="Trazado_115839" data-name="Trazado 115839" d="M995.044,609.777c1.82,4.482-2.135,9.524-5.095,12.569-4.915,5.05-11.337,7.977-18.48,7.055a23.455,23.455,0,0,1-10.643-3.67,31.868,31.868,0,0,1-8.234-7.467c-1.731-2.343-3.1-6.6-1.155-9.234,1.608-2.18,4.694-2.935,7.283-2.666,2.384.245,4.833.282,7.226.453a57.476,57.476,0,0,0,6.707-.033c2.927-.135,5.874.012,8.785-.367,2.658-.347,5.258-1.449,7.965-.861C991.892,606.095,994.036,607.3,995.044,609.777Z" transform="translate(-728.511 -423.087)" fill="#fff"/>
            <path id="Trazado_115840" data-name="Trazado 115840" d="M738.8,255.078c-.412-2.894-.739-5.8-1.082-8.679a50.517,50.517,0,0,0-1.617-9.438c-1.964-6.144-5.76-11.5-7.85-17.591a24.2,24.2,0,0,1-1.5-8.508c.049-3.3.486-6.585.772-9.875a110.9,110.9,0,0,1,2.911-16.288c1.694-7.062,4.238-14.362,3.474-21.7-.09-.849-.2-1.694-.306-2.543-.7-5.536,1.167-9.638,3.7-14.394,3.907-7.352,9.732-14.17,17.2-18.089,8.21-4.307,18.235-5.76,26.813-9.483a74.28,74.28,0,0,0,10.61-5.7c1.384-.894,2.437-2.045,3.894-2.8,2.2-1.139,4.524-2.066,6.781-3.033a39.366,39.366,0,0,1,8.491-2.584,60.98,60.98,0,0,1,27.057,1.441c8.463,2.429,17.252,7.609,19.346,16.819.539,2.368,2.311,2.143,4.462,2.143,6.356-1.445,13.178,0,18.832,3.1,8.23,4.507,11.01,12.333,15.439,19.967,3.932,6.781,9.435,12.447,14.252,18.579,6.127,7.805,10.794,16.619,9.275,26.841a77.753,77.753,0,0,0-1.29,14.015c.147,4.862-2.172,10.369-3.384,15.031-.788,3.017-1.078,6.291-2.258,9.136-2.829,6.805-3.29,13.978-2.968,21.22.021.527.045,1.053.078,1.584a47.636,47.636,0,0,1-.163,5.809,14.906,14.906,0,0,1-.714,4.046c-.413,1.139-1.368,2.89-2.756,3.1-4.536.669-3.666-12.5-3.735-14.929-.229-8.005-1.645-16.958-6.254-23.735a37.075,37.075,0,0,1-4.842-12.1,56.651,56.651,0,0,1-1.372-13.565c.008-7.271.535-14.611-3.36-21.22-3.56-6.042-10.872-8.712-17.546-9.21-1.6-.123-2.617-.021-4.184-.114-10.794-.649-21.424.094-31.463,4.311a24.751,24.751,0,0,1-10.051,1.808c-8.8-.159-17.121-3.674-25.641-5.462a44.1,44.1,0,0,0-12.415-.8c-4.392.3-8.8.575-12.447,3.384a20.68,20.68,0,0,0-6.813,10.092,39.686,39.686,0,0,0-1.662,8.357c-.355,3.548.67,6.923.375,10.438-.51,6.123-1.637,12-4.6,17.435-.767,1.417-1.294,2.931-1.943,4.4a24.567,24.567,0,0,1-2.266,3.511,49.121,49.121,0,0,0-4.866,8.152c-2.744,6.724-1.013,14.088-.915,21.085.041,2.861.016,5.972-1.866,8.324-1.943,2.425-4.54,1.755-6.393-.425-1.935-2.266-2.147-5.152-2.637-7.957C739.176,257.687,738.976,256.385,738.8,255.078Z" transform="translate(-586.038 -103.484)" fill="#1e244a"/>
            <path id="Trazado_115841" data-name="Trazado 115841" d="M1103.754,832.359c.021.123.041.249.065.372-.126-.078-.249-.061-.289-.343C1103.6,832.375,1103.68,832.367,1103.754,832.359Z" transform="translate(-825.967 -567.619)" fill="#8cc295"/>
            <path id="Trazado_115842" data-name="Trazado 115842" d="M1087.231,481.919a10.241,10.241,0,0,1-1.739,7.4c-1.564,2.359-5.013,2.666-7.577,1.96a7.531,7.531,0,0,1-3.4-12.614c2.139-2.274,5.764-3.891,8.757-2.307A9.044,9.044,0,0,1,1087.231,481.919Z" transform="translate(-806.092 -340.518)" fill="#2b1a0f"/>
            <path id="Trazado_115843" data-name="Trazado 115843" d="M882.606,1720.766c3.629,2.833,2.1,7.467-.429,10.471-2.514,2.98-8.148.425-9.487-2.568-1.694-3.792.535-8.85,4.935-9.157C879.654,1719.37,880.911,1719.443,882.606,1720.766Z" transform="translate(-678.61 -1132.51)" fill="#37628f"/>
            <path id="Trazado_115844" data-name="Trazado 115844" d="M468.9,1049.517c5.05,15.644-3.229,24.682-5.5,39.317-1.825,11.72,2.56,22.318,2.074,33.76-.314,7.385-4.413,13.709-6.311,20.682a76.886,76.886,0,0,0-1.89,9.508c-4.241,30.544-11.112,60.929-17.093,91.228-1.433,7.258-2.674,15.1-4.547,22.767-2.372,9.724-5.756,19.167-11.814,26.784-14.382,18.081-48.964,25.1-67.223,8.438-10.9-9.949-15.093-25.78-16.578-39.954-3.3-31.421,6.16-65.076,16.684-94.322,3.682-10.23,8.65-19.942,12.4-30.148a118.826,118.826,0,0,0,6.911-29.4,54.766,54.766,0,0,1,5.895-20.66c4.049-7.512,11.051-12.913,13.525-21.314,3.364-11.426,1.2-24.669,12.847-32.042,1.3-.825,2.8-1.237,3.821-2.258.208.988.449,1.972.735,2.952.98,3.352,2.645,6.642,3.286,10.079a12.565,12.565,0,0,0,2.78,6.348,39.854,39.854,0,0,0,11.157,9.748c7.854,4.609,18.2,6.556,25.931.625,5.87-4.5,8.124-10.76,10.434-17.186l.008,0C468.223,1045.447,468.3,1047.631,468.9,1049.517Z" transform="translate(-339.35 -694.685)" fill="#8284d2"/>
            <path id="Trazado_115845" data-name="Trazado 115845" d="M910.791,779.528c0-.257.008-.51.021-.763a148.172,148.172,0,0,0,.02-15.415c-.151-2.568-.4-5.128-.78-7.667-.163-1.078-.51-2.151-.7-3.176-.175-.959.09-2.437-.576-3.229l.474-.82q.919.532,1.849,1.057c.592.755,1.151,1.5,1.682,2.057,2.98,3.139,5.715,6.271,9.2,8.9,5.1,3.85,10.426,7.716,16.419,10.047a79.653,79.653,0,0,0,21.86,5.115c6.52.523,12.615-1.094,18.913-1.474q.1,1.409.27,2.8c.082.665.184,1.318.3,1.972-.073.008-.151.016-.224.029.041.282.163.265.29.343.294,1.633.649,3.237.951,4.849a28.4,28.4,0,0,1,.588,6.74,31.4,31.4,0,0,1-3.315,12.284A34.956,34.956,0,0,1,959.754,820.1c-1.56.608-3.1,1.307-4.683,1.858a24.286,24.286,0,0,1-9.063,1.22,45.851,45.851,0,0,1-9.157-1.539c-4.866-1.294-8.928-2.625-13.059-5.658a34.418,34.418,0,0,1-13.015-18.791,16.556,16.556,0,0,1-.237-8.108,20.766,20.766,0,0,0,.343-4.1C910.885,783.162,910.758,781.325,910.791,779.528Z" transform="translate(-701.95 -514.192)" fill="#f5b49b"/>
            <path id="Trazado_115846" data-name="Trazado 115846" d="M1085.5,404.259a2.825,2.825,0,0,1-2.1,4.429c-2.041.306-4.033-.584-5.915-1.237-.857-.3-1.78-.657-2.65-.87a14.965,14.965,0,0,0-3.225.041c-3.131-.1-5.9,1.106-8.822,2.037a3.278,3.278,0,0,1-2.555-.115c-2.678-1.543-.584-4.16,1.029-5.6a10.535,10.535,0,0,1,3.543-2.155,30.49,30.49,0,0,1,5.809-1.731,19.312,19.312,0,0,1,5.041-.192C1079.081,399.246,1083.625,401.222,1085.5,404.259Z" transform="translate(-797.579 -291.524)" fill="#1e244a"/>
            <path id="Trazado_115847" data-name="Trazado 115847" d="M895.021,404.259a2.823,2.823,0,0,1-2.1,4.429c-2.041.306-4.029-.584-5.911-1.237-.858-.3-1.78-.657-2.65-.87a15.006,15.006,0,0,0-3.229.041c-3.131-.1-5.895,1.106-8.822,2.037a3.269,3.269,0,0,1-2.551-.115c-2.678-1.543-.584-4.16,1.029-5.6a10.5,10.5,0,0,1,3.543-2.155,30.544,30.544,0,0,1,5.806-1.731,19.326,19.326,0,0,1,5.041-.192C888.6,399.246,893.152,401.222,895.021,404.259Z" transform="translate(-676.289 -291.524)" fill="#1e244a"/>
            <path id="Trazado_115848" data-name="Trazado 115848" d="M899.7,481.919a10.246,10.246,0,0,1-1.743,7.4c-1.563,2.359-5.013,2.666-7.577,1.96a7.534,7.534,0,0,1-3.4-12.614c2.143-2.274,5.764-3.891,8.756-2.307A9.05,9.05,0,0,1,899.7,481.919Z" transform="translate(-686.675 -340.518)" fill="#2b1a0f"/>
            <path id="Trazado_115849" data-name="Trazado 115849" d="M786.73,459.047q-.931-.527-1.849-1.057c-3.544-2.033-7.022-4.2-10.43-6.609-6.715-4.756-13.908-10.193-18.864-16.839-2.936-3.931-5.973-7.7-9.043-11.541-2.731-3.421-4.495-7.495-7.14-10.973-2.813-3.707-5.981-4.295-9.887-6.507a32.589,32.589,0,0,1-10.39-9.075,23.233,23.233,0,0,1-2.874-4.2,35.875,35.875,0,0,1-2.07-5.429,18.145,18.145,0,0,1,.474-11.553,9.522,9.522,0,0,1,7.605-5.617c4.335-.433,5.825,2.706,8.079,5.67.18,1.307.38,2.609.608,3.911.49,2.8.7,5.691,2.637,7.957,1.853,2.18,4.45,2.849,6.393.425,1.882-2.351,1.906-5.462,1.866-8.324-.1-7-1.829-14.362.914-21.085a49.146,49.146,0,0,1,4.866-8.152,24.56,24.56,0,0,0,2.266-3.511c.649-1.469,1.176-2.984,1.943-4.4,2.964-5.438,4.09-11.312,4.6-17.435.294-3.515-.731-6.891-.376-10.438a39.656,39.656,0,0,1,1.662-8.357,20.681,20.681,0,0,1,6.813-10.092c3.65-2.809,8.055-3.082,12.447-3.384a44.1,44.1,0,0,1,12.414.8c8.52,1.788,16.844,5.3,25.641,5.462a24.752,24.752,0,0,0,10.051-1.808c10.039-4.217,20.669-4.96,31.463-4.311,1.568.094,2.584-.008,4.184.115,6.675.5,13.986,3.168,17.546,9.21,3.894,6.609,3.368,13.949,3.36,21.22a56.664,56.664,0,0,0,1.371,13.565,37.1,37.1,0,0,0,4.842,12.1c4.609,6.777,6.025,15.729,6.254,23.735.069,2.425-.8,15.6,3.735,14.929,1.388-.208,2.343-1.96,2.755-3.1a14.9,14.9,0,0,0,.714-4.046,47.683,47.683,0,0,0,.163-5.809c-.033-.531-.057-1.057-.078-1.584l.212-.008c3.846-5.752,12.133-2.776,14.419,2.723a18.718,18.718,0,0,1,.485,11.924,37.16,37.16,0,0,1-2.135,5.605,24.263,24.263,0,0,1-2.964,4.335,33.654,33.654,0,0,1-10.733,9.365c-3.029,1.719-6.229,3.1-9.332,4.678l-.22-.1c-3.931,8.973-8.786,18.273-14.807,25.539a206.787,206.787,0,0,1-15.791,16.435,65.747,65.747,0,0,1-5.168,4.454c-9.115,7.1-21.5,13.264-32.107,13.615l-.008.237a52.542,52.542,0,0,1-12.051-1.865,68.4,68.4,0,0,1-13.9-5.136C793.719,462.835,790.191,460.99,786.73,459.047ZM863.4,340.888a2.824,2.824,0,0,0,2.1-4.429c-1.873-3.037-6.417-5.013-9.842-5.389a19.319,19.319,0,0,0-5.042.192,30.5,30.5,0,0,0-5.809,1.731,10.538,10.538,0,0,0-3.543,2.155c-1.613,1.437-3.707,4.054-1.029,5.6a3.279,3.279,0,0,0,2.556.114c2.923-.931,5.691-2.135,8.822-2.037a14.972,14.972,0,0,1,3.225-.041c.869.212,1.792.567,2.65.87C859.37,340.3,861.363,341.194,863.4,340.888Zm-6.421,31.634a10.241,10.241,0,0,0,1.739-7.4,9.044,9.044,0,0,0-3.964-5.564c-2.992-1.584-6.618.033-8.757,2.306a7.531,7.531,0,0,0,3.4,12.615C851.969,375.187,855.419,374.881,856.982,372.522ZM839.02,422.983c2.959-3.045,6.915-8.087,5.095-12.569-1.008-2.478-3.152-3.682-5.642-4.221-2.707-.588-5.307.514-7.965.862-2.911.38-5.858.233-8.785.367a57.478,57.478,0,0,1-6.708.033c-2.392-.171-4.841-.208-7.226-.453-2.588-.269-5.674.486-7.283,2.666-1.943,2.629-.576,6.891,1.155,9.234a31.865,31.865,0,0,0,8.234,7.467,23.452,23.452,0,0,0,10.643,3.67C827.683,430.96,834.1,428.033,839.02,422.983Zm-44.8-82.1a2.823,2.823,0,0,0,2.1-4.429c-1.87-3.037-6.417-5.013-9.842-5.389a19.333,19.333,0,0,0-5.042.192,30.553,30.553,0,0,0-5.805,1.731,10.492,10.492,0,0,0-3.543,2.155c-1.613,1.437-3.707,4.054-1.029,5.6a3.269,3.269,0,0,0,2.552.114c2.927-.931,5.691-2.135,8.822-2.037a15.011,15.011,0,0,1,3.229-.041c.87.212,1.792.567,2.65.87C790.187,340.3,792.176,341.194,794.217,340.888Zm-5.352,31.634a10.245,10.245,0,0,0,1.743-7.4,9.049,9.049,0,0,0-3.968-5.564c-2.992-1.584-6.614.033-8.757,2.306a7.534,7.534,0,0,0,3.4,12.615C783.852,375.187,787.3,374.881,788.865,372.522Z" transform="translate(-577.583 -223.724)" fill="#f5b49b"/>
            <path id="Trazado_115850" data-name="Trazado 115850" d="M492.1,357.027c-1.87.79-3.892,2.288-4.25,3.929-.194.886.078,1.831-.157,2.707-.391,1.463-1.975,2.191-3.107,3.2a6.489,6.489,0,0,0-1.709,6.987c.727,1.9,2.37,3.467,2.584,5.493.181,1.718-.641,3.74.519,5.02.984,1.085,2.731.836,4.105,1.342,1.767.651,2.823,2.53,4.538,3.307,2.486,1.127,5.32-.386,8.047-.508a30.153,30.153,0,0,1,4.921.573,6.523,6.523,0,0,0,4.754-.9c1.443-1.1,1.97-3,3.044-4.463a21.852,21.852,0,0,1,3.981-3.536,6.737,6.737,0,0,0,2.785-4.385c.182-2.411-1.755-4.425-2.448-6.742a25.946,25.946,0,0,1-.531-4.708c-.159-1.475-.645-3.415-2.175-3.992a24.15,24.15,0,0,0-2.611-.549c-2.735-.7-4.562-3.325-7.166-4.412a9.273,9.273,0,0,0-5.351-.36c-1.677.332-3.375,1.422-5.067,1.45C495.13,356.508,493.718,356.344,492.1,357.027Z" transform="translate(-430.496 -263.52)" fill="#fff"/>
            <path id="Trazado_115851" data-name="Trazado 115851" d="M1140.195,1270.507c-.706,13.175-12.487,22.71-18.328,34.54-5.1,10.335-5.546,22.266-5.892,33.787" transform="translate(-833.892 -846.624)" fill="none"/>
            <path id="Trazado_115852" data-name="Trazado 115852" d="M936.824,1599.02c-1.287-3.86-1.2-7.767-1.88-11.794-1.643-9.675-2.725-19.436-3.587-29.209-.412-4.665-.161-9.873-1.2-14.431a63.716,63.716,0,0,1-1.289-10.8,238.65,238.65,0,0,0-9.233-53.2c.208,1.247.405,2.5.584,3.76,1.972,13.919,2.99,27.951,3.65,41.988.027.578.055,1.156.081,1.733.326,7.226.563,14.456.792,21.681.453,14.215.845,28.172.8,42.428-.032,10.6-.42,21.191-.935,31.776h15.473c-.238-3.185-.672-6.374-1.11-9.523C938.32,1608.816,938.3,1603.438,936.824,1599.02Z" transform="translate(-708.864 -979.763)" fill="#ededed"/>
            <path id="Trazado_115853" data-name="Trazado 115853" d="M969.789,902.474c-.963-5.964-1.38-11.9-2.857-17.791-2.895-11.533-8.153-22.779-17.162-30.8-3.331-2.964-7.891-4.4-11.145-7.153a28.411,28.411,0,0,1,.588,6.74,31.392,31.392,0,0,1-3.315,12.284,34.954,34.954,0,0,1-18.272,16.925c-1.559.608-3.1,1.306-4.683,1.858a24.286,24.286,0,0,1-9.062,1.22,45.872,45.872,0,0,1-9.157-1.539c-4.866-1.294-8.928-2.625-13.059-5.658a34.418,34.418,0,0,1-13.014-18.791,16.561,16.561,0,0,1-.237-8.108,20.756,20.756,0,0,0,.343-4.1c-.955.98-3.013,2.131-4.172,3.176-7.323,6.614-11.035,17.909-14.378,26.919-6.156,16.574-7.425,34.275-7.576,51.809a323.31,323.31,0,0,0,3.768,53.409,270.182,270.182,0,0,0,5.976,28.2c5.995,22.207,14.426,42.768,18.216,65.517a238.631,238.631,0,0,1,9.233,53.2,63.719,63.719,0,0,0,1.289,10.8c1.042,4.558.792,9.766,1.2,14.431.862,9.773,1.944,19.535,3.587,29.21.684,4.026.592,7.934,1.88,11.794,1.474,4.418,1.5,9.8,2.139,14.41.439,3.15.873,6.339,1.11,9.524H947.9c.135-14.725.326-29.556-.984-44.155a318,318,0,0,1-1.433-36.933c.274-10.128-.531-20.4-.188-30.6.379-11.41,2.833-22.759,3.3-34.218a146.981,146.981,0,0,1,3.629-25.168c2.074-9.585,1.943-19.46,4.564-29.021,2.649-9.655,5.458-19.252,7.373-29.139,1.743-8.994,2.817-18.065,4.657-27.013A168.229,168.229,0,0,0,969.789,902.474Z" transform="translate(-659.821 -576.773)" fill="#fffbf2"/>
          </g>
          <g id="Layer_2" data-name="Layer 2" transform="translate(57.152 30.406)">
            <g id="Grupo_82948" data-name="Grupo 82948" transform="translate(196.009 5.72)">
              <path id="Trazado_115854" data-name="Trazado 115854" d="M1037.365,231.541a1.021,1.021,0,0,1-.727-1.737c7.426-7.525,10.846-17.419,13.212-26.105a1.021,1.021,0,0,1,1.97.536c-4.341,15.935-9.376,22.592-13.728,27A1.018,1.018,0,0,1,1037.365,231.541Z" transform="translate(-1036.345 -202.946)"/>
            </g>
            <g id="Grupo_82949" data-name="Grupo 82949" transform="translate(212.405 24.083)">
              <path id="Trazado_115855" data-name="Trazado 115855" d="M1082.507,264.128a1.021,1.021,0,0,1-.338-1.984,43.7,43.7,0,0,0,14.471-8.387,1.021,1.021,0,1,1,1.347,1.534,45.742,45.742,0,0,1-15.143,8.779A1.018,1.018,0,0,1,1082.507,264.128Z" transform="translate(-1081.486 -253.503)"/>
            </g>
            <g id="Grupo_82950" data-name="Grupo 82950" transform="translate(148.61)">
              <path id="Trazado_115856" data-name="Trazado 115856" d="M923.818,212.017a1.021,1.021,0,0,1-1-.805c-2.293-10.624-8.251-18.662-16.345-22.052a1.021,1.021,0,1,1,.789-1.883c8.718,3.652,15.116,12.219,17.552,23.5a1.022,1.022,0,0,1-1,1.236Z" transform="translate(-905.85 -187.197)"/>
            </g>
            <g id="Grupo_82951" data-name="Grupo 82951" transform="translate(112.997 17.953)">
              <path id="Trazado_115857" data-name="Trazado 115857" d="M827.023,243.007a1.015,1.015,0,0,1-.5-.129c-6.161-3.427-12.071-4.773-17.565-4a1.021,1.021,0,0,1-.284-2.022c5.945-.835,12.284.59,18.841,4.238a1.021,1.021,0,0,1-.5,1.913Z" transform="translate(-807.799 -236.626)"/>
            </g>
            <g id="Grupo_82952" data-name="Grupo 82952" transform="translate(180.46 99.912)">
              <path id="Trazado_115858" data-name="Trazado 115858" d="M1001.92,501.871a8.487,8.487,0,0,1-3.39-.774,15.366,15.366,0,0,1-4.683-2.965,1.021,1.021,0,1,1,1.421-1.465,13.43,13.43,0,0,0,4.079,2.56,5.864,5.864,0,0,0,3.259.55,8.466,8.466,0,0,0,2.233-.694c.967-.447,3.9-1.8,1.975-8.143-.637-2.093-1.389-4.194-2.117-6.226-.664-1.856-1.351-3.776-1.955-5.7a14.743,14.743,0,0,1-.534-3.24c-.043-.5-.084-.974-.151-1.455a43.621,43.621,0,0,1,.231-11.147,1.021,1.021,0,1,1,2.027.242,41.819,41.819,0,0,0-.237,10.622c.075.535.12,1.058.164,1.563a12.95,12.95,0,0,0,.447,2.8c.592,1.885,1.272,3.786,1.93,5.623.735,2.055,1.5,4.179,2.147,6.319,2.023,6.645-.553,9.426-3.069,10.59a10.541,10.541,0,0,1-2.769.858A6.412,6.412,0,0,1,1001.92,501.871Z" transform="translate(-993.537 -462.272)" fill="#ab684d"/>
            </g>
            <g id="Grupo_82953" data-name="Grupo 82953" transform="translate(83.369 124.308)">
              <path id="Trazado_115859" data-name="Trazado 115859" d="M741.55,550.875a1.02,1.02,0,0,1-.913-.563,7.056,7.056,0,0,0-2.593-2.448,7.856,7.856,0,0,1-3.29-3.433,6.412,6.412,0,0,1,.2-4.55,11.107,11.107,0,0,0,.428-1.668,3.366,3.366,0,0,0-.326-1.653c-.108-.3-.22-.605-.314-.946a3.938,3.938,0,0,0-1.2-2.261c-1.626-1.333-3.08-1.991-4.092-1.854a1.992,1.992,0,0,0-1.37.926,1.021,1.021,0,1,1-1.668-1.177,3.973,3.973,0,0,1,2.764-1.771c1.628-.219,3.53.552,5.661,2.3a5.921,5.921,0,0,1,1.874,3.3c.071.259.164.515.263.785a5.177,5.177,0,0,1,.428,2.648,12.9,12.9,0,0,1-.5,1.979,4.551,4.551,0,0,0-.253,3.188,6.042,6.042,0,0,0,2.537,2.5,8.831,8.831,0,0,1,3.275,3.225,1.021,1.021,0,0,1-.912,1.478Z" transform="translate(-726.227 -529.439)" fill="#ab684d"/>
            </g>
            <g id="Grupo_82954" data-name="Grupo 82954" transform="translate(262.589 124.895)">
              <path id="Trazado_115860" data-name="Trazado 115860" d="M1220.674,553.12a1.021,1.021,0,0,1-.912-1.478,9.09,9.09,0,0,1,3.37-3.316,6.265,6.265,0,0,0,2.632-2.595,4.792,4.792,0,0,0-.261-3.313,13.258,13.258,0,0,1-.514-2.037,5.306,5.306,0,0,1,.44-2.716c.1-.28.2-.544.272-.814a6.082,6.082,0,0,1,1.924-3.391c2.19-1.8,4.149-2.593,5.817-2.365a4.067,4.067,0,0,1,2.831,1.815,1.021,1.021,0,0,1-1.668,1.177,2.086,2.086,0,0,0-1.437-.969c-1.052-.141-2.563.539-4.249,1.922a4.092,4.092,0,0,0-1.249,2.351c-.1.351-.211.668-.323.974a3.5,3.5,0,0,0-.338,1.722,11.638,11.638,0,0,0,.443,1.727,6.594,6.594,0,0,1,.208,4.675,7.967,7.967,0,0,1-3.385,3.529,7.31,7.31,0,0,0-2.688,2.54A1.021,1.021,0,0,1,1220.674,553.12Z" transform="translate(-1219.654 -531.055)" fill="#ab684d"/>
            </g>
            <g id="Grupo_82955" data-name="Grupo 82955" transform="translate(64.345 231.716)">
              <path id="Trazado_115861" data-name="Trazado 115861" d="M675.479,858.937a1.613,1.613,0,0,1-.565-.106.356.356,0,0,0-.12-.027,1.02,1.02,0,1,1,.16-2.035,2.269,2.269,0,0,1,.562.111,1.038,1.038,0,0,1,.3-.023c2.709.2,5.068-3.176,5.92-5.346a24.6,24.6,0,0,0,1.178-12.419c-.537-3.92-1.24-7.978-3.37-10.732q-.6-.775-1.205-1.568a1.021,1.021,0,0,1,1.62-1.241q.6.789,1.2,1.56c2.438,3.152,3.2,7.51,3.777,11.7a26.608,26.608,0,0,1-1.3,13.443,13.31,13.31,0,0,1-2.887,4.424,6.678,6.678,0,0,1-4.921,2.22A1.819,1.819,0,0,1,675.479,858.937Z" transform="translate(-673.853 -825.151)" fill="#ab684d"/>
            </g>
            <g id="Grupo_82956" data-name="Grupo 82956" transform="translate(29.58 213.019)">
              <path id="Trazado_115862" data-name="Trazado 115862" d="M579.159,779.985a1.02,1.02,0,0,1-.614-1.836,23.146,23.146,0,0,1,11.774-4.468,1.021,1.021,0,0,1,.177,2.034,21.075,21.075,0,0,0-10.723,4.065A1.018,1.018,0,0,1,579.159,779.985Z" transform="translate(-578.138 -773.677)" fill="#ab684d"/>
            </g>
            <g id="Grupo_82957" data-name="Grupo 82957" transform="translate(33.524 237.104)">
              <path id="Trazado_115863" data-name="Trazado 115863" d="M606.854,883.894a4.751,4.751,0,0,1-3.61-1.365,2.6,2.6,0,0,0-.481-.258,2.231,2.231,0,0,1-1.568-1.752,1.021,1.021,0,0,1,2.013-.309,4.187,4.187,0,0,0,.413.209,3.383,3.383,0,0,1,1.114.716c1.531,1.639,5.848.151,7.733-1.106,5.269-3.516,9.075-12.243,5.751-21.491a14.5,14.5,0,0,0-1.925-3.254c-.294-.413-.6-.841-.877-1.267-4.436-6.758-8.818-10.638-13.024-11.533a31.629,31.629,0,0,0-12.168.345,1.02,1.02,0,0,1-.415-2,33.682,33.682,0,0,1,13.008-.344c4.818,1.025,9.5,5.084,14.306,12.409.258.394.538.788.834,1.2a15.95,15.95,0,0,1,2.182,3.747c2.743,7.63,1.383,18.593-6.539,23.88A13.723,13.723,0,0,1,606.854,883.894Z" transform="translate(-588.996 -839.986)" fill="#ab684d"/>
            </g>
            <g id="Grupo_82958" data-name="Grupo 82958" transform="translate(25.977 256.613)">
              <path id="Trazado_115864" data-name="Trazado 115864" d="M579.908,928.934a6.117,6.117,0,0,1-4.9-2.546,8.976,8.976,0,0,1-1.841-4.551,11.608,11.608,0,0,1,.068-1.908,5.23,5.23,0,0,0-.158-2.581,12.811,12.811,0,0,0-3.952-4.305l-.534-.433a1.021,1.021,0,1,1,1.291-1.581l.526.426a14.544,14.544,0,0,1,4.521,5.034,6.881,6.881,0,0,1,.34,3.624,10.067,10.067,0,0,0-.065,1.573,6.971,6.971,0,0,0,1.427,3.461,4.112,4.112,0,0,0,5.936.868c3.745-2.5,5.256-7.721,5.422-11.779a20.007,20.007,0,0,0-.951-6.659c-.749-2.44-2.751-4.469-4.687-6.431l-.465-.473a20.605,20.605,0,0,0-7.459-5,1.02,1.02,0,1,1,.715-1.912,22.631,22.631,0,0,1,8.2,5.481l.461.468c2.011,2.038,4.29,4.348,5.186,7.266a22.036,22.036,0,0,1,1.04,7.341c-.241,5.906-2.607,10.914-6.33,13.395A6.839,6.839,0,0,1,579.908,928.934Z" transform="translate(-568.219 -893.698)" fill="#ab684d"/>
            </g>
            <g id="Grupo_82959" data-name="Grupo 82959" transform="translate(48.904 276.228)">
              <path id="Trazado_115865" data-name="Trazado 115865" d="M632.361,965.413a1.021,1.021,0,0,1-.977-1.317,36.917,36.917,0,0,1,5.758-11.929c.444-.593.846-1.141,1.241-1.68.578-.788,1.125-1.532,1.775-2.383a1.021,1.021,0,0,1,1.622,1.24c-.639.835-1.179,1.571-1.751,2.351-.4.544-.8,1.1-1.253,1.7a34.979,34.979,0,0,0-5.439,11.3A1.022,1.022,0,0,1,632.361,965.413Z" transform="translate(-631.339 -947.703)" fill="#ab684d"/>
            </g>
            <g id="Grupo_82960" data-name="Grupo 82960" transform="translate(38.298 318.358)">
              <path id="Trazado_115866" data-name="Trazado 115866" d="M603.162,1287.275a1.043,1.043,0,0,1-.237-.028,1.021,1.021,0,0,1-.756-1.229c1.2-5.019,2.139-10.123,3.051-15.058.441-2.391.858-4.649,1.3-6.9,1.48-7.5,3.039-15.126,4.548-22.5,4.594-22.471,9.345-45.708,12.536-68.665a76.855,76.855,0,0,1,1.916-9.637,69.7,69.7,0,0,1,2.736-7.653c1.721-4.277,3.348-8.317,3.538-12.8a76.809,76.809,0,0,0-1.23-14.564c-.924-6.187-1.879-12.586-.834-19.31a79.25,79.25,0,0,1,3.642-13.51c2.762-8.2,5.148-15.281,1.9-25.337-.153-.471-.271-.949-.385-1.411-.336-1.353-.625-2.521-1.608-3.055a1.021,1.021,0,0,1,.976-1.793c1.771.964,2.218,2.766,2.612,4.356.111.448.216.871.347,1.275,3.455,10.7.85,18.43-1.908,26.616a77.624,77.624,0,0,0-3.559,13.172c-1,6.417-.066,12.659.835,18.694a78.348,78.348,0,0,1,1.251,14.953c-.2,4.833-1.973,9.227-3.683,13.475a68.169,68.169,0,0,0-2.661,7.426,74.839,74.839,0,0,0-1.864,9.382c-3.2,23.023-7.957,46.291-12.557,68.794-1.508,7.375-3.066,15-4.545,22.49-.443,2.242-.859,4.494-1.3,6.879-.916,4.961-1.864,10.091-3.072,15.161A1.021,1.021,0,0,1,603.162,1287.275Z" transform="translate(-602.141 -1063.693)" fill="#2e5378"/>
            </g>
            <g id="Grupo_82961" data-name="Grupo 82961" transform="translate(11.166 355.985)">
              <path id="Trazado_115867" data-name="Trazado 115867" d="M553.754,1199.351a1.017,1.017,0,0,1-.723-.3c-8.685-8.716-16.429-18.347-25.383-30.126a1.02,1.02,0,1,1,1.625-1.235c8.9,11.713,16.6,21.284,25.2,29.92a1.02,1.02,0,0,1-.723,1.741Z" transform="translate(-527.44 -1167.287)" fill="#2e5378"/>
            </g>
            <g id="Grupo_82962" data-name="Grupo 82962" transform="translate(4.703 406.441)">
              <path id="Trazado_115868" data-name="Trazado 115868" d="M525.911,1310.924a50.532,50.532,0,0,1-15.555-2.731,1.02,1.02,0,1,1,.627-1.942c8.633,2.785,15.845,3.341,22.7,1.748a1.021,1.021,0,0,1,.462,1.989A36.113,36.113,0,0,1,525.911,1310.924Z" transform="translate(-509.648 -1306.201)" fill="#2e5378"/>
            </g>
            <g id="Grupo_82963" data-name="Grupo 82963" transform="translate(313.361 330.092)">
              <path id="Trazado_115869" data-name="Trazado 115869" d="M1373.1,1380.082h-.009a1.02,1.02,0,0,1-1.011-1.03c.064-7.012-.552-14.251-1.149-21.251-.518-6.08-1.053-12.367-1.139-18.472-.159-11.247-.728-22.684-1.278-33.744-.2-3.984-.4-8.1-.586-12.155-1.083-23.985-2.721-46.8-5.01-69.738-2.411-24.183-4.455-47.839-2.992-71.389,1.058-17.039,4.812-35.227,11.475-55.6a1.021,1.021,0,0,1,1.94.635c-6.608,20.208-10.33,38.23-11.378,55.094-1.453,23.4.583,46.964,2.986,71.059,2.292,22.98,3.933,45.828,5.018,69.849.183,4.047.388,8.164.586,12.146.552,11.078,1.121,22.534,1.281,33.817.085,6.033.617,12.283,1.132,18.328.6,7.047,1.22,14.334,1.156,21.443A1.02,1.02,0,0,1,1373.1,1380.082Z" transform="translate(-1359.436 -1095.997)" fill="#2e5378"/>
            </g>
            <g id="Grupo_82964" data-name="Grupo 82964" transform="translate(357.17 545.329)">
              <path id="Trazado_115870" data-name="Trazado 115870" d="M1481.071,1718a1.021,1.021,0,0,1-.658-1.8c10.812-9.112,18.388-18.206,22.515-27.03a1.021,1.021,0,1,1,1.849.865c-4.254,9.094-12.008,18.423-23.048,27.726A1.018,1.018,0,0,1,1481.071,1718Z" transform="translate(-1480.051 -1688.584)" fill="#2e5378"/>
            </g>
            <g id="Grupo_82965" data-name="Grupo 82965" transform="translate(7.944 124.099)">
              <path id="Trazado_115871" data-name="Trazado 115871" d="M533.222,536.614a1.151,1.151,0,0,1-.429-.083c-.449-.181-.9-.391-1.328-.594a16.518,16.518,0,0,0-1.822-.772c-3.192-1.047-6.388-2.4-9.48-3.718l-.893-.379a1.148,1.148,0,1,1,.9-2.114l.895.38c3.048,1.295,6.2,2.633,9.3,3.65a18.348,18.348,0,0,1,2.082.875c.422.2.821.385,1.21.542a1.148,1.148,0,0,1-.429,2.213Z" transform="translate(-518.57 -528.862)" fill="#a19086"/>
            </g>
            <g id="Grupo_82966" data-name="Grupo 82966" transform="translate(7.467 119.242)">
              <path id="Trazado_115872" data-name="Trazado 115872" d="M534.03,522.711a2.246,2.246,0,0,1-.768-.168l-.1-.034c-.445-.148-.822-.286-1.154-.422l-.26-.107a11.266,11.266,0,0,0-1.828-.632c-3.033-.715-6.064-1.713-8.995-2.678-.962-.316-1.919-.632-2.873-.936a1.148,1.148,0,0,1,.7-2.187c.96.307,1.925.624,2.893.943,2.885.95,5.867,1.932,8.8,2.624a13.38,13.38,0,0,1,2.173.744l.255.1c.285.116.616.237,1.012.369l.1.034a1.154,1.154,0,0,1,1.151.77,1.179,1.179,0,0,1-.284,1.238A1.139,1.139,0,0,1,534.03,522.711Zm-1.059-.826h0Z" transform="translate(-517.257 -515.492)" fill="#a19086"/>
            </g>
            <g id="Grupo_82967" data-name="Grupo 82967" transform="translate(7.873 114.128)">
              <path id="Trazado_115873" data-name="Trazado 115873" d="M535.094,509.24a2.318,2.318,0,0,1-1.272-.488,1.913,1.913,0,0,0-.165-.107,27.611,27.611,0,0,0-5.341-1.845c-.7-.19-1.42-.386-2.135-.6-.5-.151-5.144-1.725-7.116-2.586a1.148,1.148,0,0,1,.918-2.1c1.856.81,6.4,2.352,6.862,2.493.684.206,1.39.4,2.073.584A29.779,29.779,0,0,1,534.7,506.6a3.829,3.829,0,0,1,.409.25c.034.023.077.053.117.078a1.148,1.148,0,0,1,.349,2.234A1.469,1.469,0,0,1,535.094,509.24Z" transform="translate(-518.376 -501.412)" fill="#a19086"/>
            </g>
            <g id="Grupo_82968" data-name="Grupo 82968" transform="translate(0 69.819)">
              <path id="Trazado_115874" data-name="Trazado 115874" d="M515.5,423.986h-.009a1.148,1.148,0,0,1-1.139-1.156,33.876,33.876,0,0,1,1.089-7.173c.3-1.337.588-2.6.782-3.868.155-1.012.3-2.037.439-3.067a58.63,58.63,0,0,1,2.569-12.147q.158-.43.322-.836a15.5,15.5,0,0,1-2.32-.675,11.765,11.765,0,0,1-4.955-3.347c-.331.325-.68.615-1.007.886-.2.162-.389.322-.571.485a9.214,9.214,0,0,1-3.019,1.976,15.492,15.492,0,0,1-2.321.675q.164.407.322.837a58.608,58.608,0,0,1,2.569,12.147c.143,1.03.284,2.055.439,3.067.236,1.546.583,3.119.918,4.641a57.41,57.41,0,0,1,1.137,6.269,1.148,1.148,0,1,1-2.283.242,55.538,55.538,0,0,0-1.1-6.017c-.343-1.558-.7-3.168-.945-4.787-.156-1.023-.3-2.058-.444-3.1a56.921,56.921,0,0,0-2.451-11.673q-.28-.766-.581-1.44c-1.876.074-4.172-.026-5.423-1.4a3.5,3.5,0,0,1-.762-3.046,2.679,2.679,0,0,1,1.643-2.319,3.165,3.165,0,0,1,3.111.855,12.725,12.725,0,0,1,2.811,3.54l.08,0a9.806,9.806,0,0,0,2.515-.649,7.158,7.158,0,0,0,2.25-1.522c.2-.181.418-.36.635-.54a9.887,9.887,0,0,0,1.106-1.011,13.307,13.307,0,0,1-1.607-4.37c-.371-2.014-.135-4.735,1.749-5.772a1.908,1.908,0,0,1,1.912-.007c1.641.949,1.807,4.233,1.807,4.266a12.924,12.924,0,0,1-1.127,5.825,9.5,9.5,0,0,0,4.347,3.131,9.811,9.811,0,0,0,2.515.649l.08,0a12.733,12.733,0,0,1,2.81-3.539,3.166,3.166,0,0,1,3.112-.856,2.681,2.681,0,0,1,1.643,2.319,3.5,3.5,0,0,1-.762,3.046c-1.25,1.379-3.546,1.48-5.423,1.4q-.3.676-.581,1.44a56.909,56.909,0,0,0-2.45,11.673c-.144,1.041-.288,2.076-.444,3.1-.206,1.347-.514,2.709-.811,4.027a32.214,32.214,0,0,0-1.033,6.683A1.147,1.147,0,0,1,515.5,423.986ZM525.7,391.3a1.747,1.747,0,0,0-.8.45,9.75,9.75,0,0,0-1.669,1.889,3.75,3.75,0,0,0,2.462-.66c.08-.088.321-.354.2-1.141a1,1,0,0,0-.186-.537Zm-26.51.014a1.516,1.516,0,0,0-.161.523c-.126.787.116,1.054.2,1.141a3.749,3.749,0,0,0,2.462.66,9.751,9.751,0,0,0-1.67-1.89A1.466,1.466,0,0,0,499.19,391.313Zm12.762-9.444a4.507,4.507,0,0,0-.389,3.171,11.336,11.336,0,0,0,.6,2.107,12.327,12.327,0,0,0,.319-3.16A6.345,6.345,0,0,0,511.952,381.869Z" transform="translate(-496.699 -379.422)" fill="#a84216"/>
            </g>
            <g id="Grupo_82969" data-name="Grupo 82969" transform="translate(121.605 415.06)">
              <path id="Trazado_115875" data-name="Trazado 115875" d="M849.387,1390.359a1.021,1.021,0,0,1-1.009-.872c-1.579-10.729-4.7-20.986-7.541-29.6-.985-2.986-2.173-6.058-3.323-9.029-2.477-6.4-5.039-13.018-6-19.758a1.021,1.021,0,1,1,2.021-.29c.933,6.51,3.452,13.017,5.887,19.311,1.159,2.995,2.358,6.091,3.358,9.126,2.87,8.7,6.019,19.065,7.622,29.947a1.022,1.022,0,0,1-.861,1.159A1.153,1.153,0,0,1,849.387,1390.359Z" transform="translate(-831.499 -1329.93)" fill="#2e5378"/>
            </g>
            <g id="Grupo_82970" data-name="Grupo 82970" transform="translate(330.08 303.223)">
              <path id="Trazado_115876" data-name="Trazado 115876" d="M1406.488,1042.8a1.02,1.02,0,0,1-.944-1.406,72.676,72.676,0,0,1,6.286-11.343c1.54-2.424,3.132-4.929,4.461-7.482a1.02,1.02,0,0,1,1.81.942c-1.368,2.63-2.986,5.174-4.549,7.634a71.2,71.2,0,0,0-6.119,11.019A1.021,1.021,0,0,1,1406.488,1042.8Z" transform="translate(-1405.468 -1022.024)" fill="#2e5378"/>
            </g>
          </g>
        </g>
      </g>
    </g>
  </g>
</svg>
