<svg xmlns="http://www.w3.org/2000/svg" xmlns:xlink="http://www.w3.org/1999/xlink" width="120" height="117" viewBox="0 0 120 117">
  <defs>
    <clipPath id="clip-path">
      <rect id="Rect치ngulo_43108" data-name="Rect치ngulo 43108" width="108.368" height="72.863" fill="none"/>
    </clipPath>
  </defs>
  <g id="_21" data-name="21" transform="translate(-352 -4319)">
    <g id="Grupo_158812" data-name="Grupo 158812" transform="translate(352 4319)">
      <g id="Grupo_158146" data-name="Grupo 158146">
        <rect id="Rect치ngulo_36141" data-name="Rect치ngulo 36141" width="120" height="117" fill="#e1e8ff"/>
      </g>
      <g id="Grupo_170574" data-name="Grupo 170574" transform="translate(6 22)">
        <g id="Grupo_170574-2" data-name="Grupo 170574" transform="translate(0 0)" clip-path="url(#clip-path)">
          <path id="Trazado_165699" data-name="Trazado 165699" d="M75.692.047c2.959,0,5.922-.109,8.876.01A84.847,84.847,0,0,1,99.653,2.045,66.269,66.269,0,0,1,117.3,8.5c5.511,3.03,10.448,6.759,13.868,12.175a19.26,19.26,0,0,1,3.141,8.413,1.128,1.128,0,0,0,.188.359v5.925c-.188,1.1-.079,2.234-.261,3.331a29.968,29.968,0,0,1-5.427,13.241,24.866,24.866,0,0,1-10.241,7.884,35.757,35.757,0,0,1-11.35,2.561,54.1,54.1,0,0,1-8.093-.052,1.54,1.54,0,0,1-.993-.269c-.108-.8.566-.675.972-.744a33.015,33.015,0,0,0,7.489-2.094,24.608,24.608,0,0,0,8.667-6.023,7.513,7.513,0,0,1,2.119-1.157,17.968,17.968,0,0,0,8.715-11.327,28.972,28.972,0,0,0,1.115-10.244,14.2,14.2,0,0,0-4.084-8.516,31.8,31.8,0,0,0-9.077-6.99,1.875,1.875,0,0,1-.826-.637,3.562,3.562,0,0,0-1.076-1.143A58.059,58.059,0,0,0,92.126,3.431,91.36,91.36,0,0,0,78.763.8c-.6-.08-1.2.008-1.791-.1C76.5.6,75.886.714,75.692.047" transform="translate(-26.126 0)" fill="#d7c9b7"/>
          <path id="Trazado_165700" data-name="Trazado 165700" d="M130.764,78.149a29.382,29.382,0,0,0,6.666-4.2,25.2,25.2,0,0,0,6.58-9.293,31.457,31.457,0,0,0,2.42-10.178,1.631,1.631,0,0,1,.192-.469V66.282a18.7,18.7,0,0,0-.614,3.389,27.393,27.393,0,0,1-21.367,21.164,60.692,60.692,0,0,1-12.94.583c-.259-.175-.646.1-.869-.252.231-.481.715-.387,1.1-.458a26.979,26.979,0,0,0,12.779-5.863,27.5,27.5,0,0,0,5.067-5.473,12.454,12.454,0,0,1,.985-1.223" transform="translate(-38.255 -18.642)" fill="#b98470"/>
          <path id="Trazado_165701" data-name="Trazado 165701" d="M49.57.052c1.215.733,2.606.409,3.9.574A78.81,78.81,0,0,1,74.065,5.959a51.986,51.986,0,0,1,12.268,7.114c.367.289.895.528.883,1.141-.456.174-.822-.09-1.193-.269A68.977,68.977,0,0,0,63.338,7.687c-2.942-.325-5.9-.28-8.838-.543-1.249-.111-2.517.249-3.787.169A81.467,81.467,0,0,0,33.786,9.65a61.317,61.317,0,0,0-10.244,3.343c-4.5,2-8.8,4.327-12.3,7.886A13.66,13.66,0,0,0,7.48,27.271a3.92,3.92,0,0,0,1.395,4.241,16.768,16.768,0,0,0,7.948,3.5,41.135,41.135,0,0,0,10.919.791c2.733-.2,5.465-.514,8.221-.522a21.429,21.429,0,0,1,11.815,3.76,69.389,69.389,0,0,1,8.857,7.347,40,40,0,0,0,8.389,6.381,21.6,21.6,0,0,0,8.157,1.994c1.163-.033,2.306.2,3.471.208a35.387,35.387,0,0,0,11.336-1.577,1.709,1.709,0,0,1,1.331-.1,19.449,19.449,0,0,1-6.2,4.949,28.533,28.533,0,0,1-10.55,3.386,2.948,2.948,0,0,0-.593.2c-.427.381-.923.232-1.409.191a26.552,26.552,0,0,1-14.878-6.475c-2.6-2.157-5.057-4.486-7.585-6.729a25.032,25.032,0,0,0-8.082-5.289,15.6,15.6,0,0,0-6.89-.576c-7.375.729-14.7.74-21.821-1.67a19.948,19.948,0,0,1-8.2-4.862,9.812,9.812,0,0,1-3.055-6.3c-.384-5.266,1.718-9.591,5.165-13.356C10.18,11.348,16.431,7.933,23.2,5.321A81.317,81.317,0,0,1,39.032,1.153,62.889,62.889,0,0,1,47.589.245,8.318,8.318,0,0,1,49.57.052" transform="translate(-0.004 -0.006)" fill="#f2e7d5"/>
          <path id="Trazado_165702" data-name="Trazado 165702" d="M.052,45.993C1.667,52.751,6.882,55.5,12.829,57.342a42.921,42.921,0,0,0,11.113,1.583,105.754,105.754,0,0,0,10.92-.506c4.149-.265,7.611,1.359,10.766,3.833,3.544,2.779,6.689,6.018,10.158,8.886a26.974,26.974,0,0,0,13.247,6.3c.969.147,1.957.178,2.936.263a10.8,10.8,0,0,0,3.5.361,39.905,39.905,0,0,0,17.04-2.68,11.741,11.741,0,0,1-2.357,3.456,27.821,27.821,0,0,1-16.632,9.419c-.138.024-.282.007-.422.018-.09.007-.178.031-.349.062l.7.315C66.935,88.313,60.712,87,55.064,83.508a65.051,65.051,0,0,1-9.346-7.229c-1.961-1.771-3.987-3.47-5.927-5.263-2.029-1.875-4.357-2.03-6.971-1.718-7.6.908-15.173.54-22.37-2.209C4.568,64.843,1.216,60.259.232,54.014-.188,51.352.1,48.667.052,45.993" transform="translate(0 -15.875)" fill="#dca47f"/>
          <path id="Trazado_165703" data-name="Trazado 165703" d="M115.993,56.949A36.318,36.318,0,0,1,99.7,58.668c-.514-.141-.623-.373-.074-.6a17.933,17.933,0,0,1,2.345-.637,18.45,18.45,0,0,0,7.214-3.64,19.063,19.063,0,0,0,6.238-10.665,36,36,0,0,0,.9-6.588,13.992,13.992,0,0,0-2.936-9.384c-3.713-4.911-8.76-7.984-14.241-10.474a64.59,64.59,0,0,0-16.511-4.775c-1.388-.225-2.786-.426-4.192-.544-.465-.039-1.027.019-1.155-.651,11.934-.559,23.468,1.145,34.424,6.106.733.332,1.45.7,2.175,1.053a39.679,39.679,0,0,1,6.93,4.589c3.072,2.652,5.781,5.575,6.861,9.646a20.511,20.511,0,0,1,.141,7.857,24.534,24.534,0,0,1-2.762,9,17.1,17.1,0,0,1-8.521,7.692,6,6,0,0,0-.544.3" transform="translate(-26.678 -3.662)" fill="#98322c"/>
          <path id="Trazado_165704" data-name="Trazado 165704" d="M54.319,10.74c.752.729,1.761.419,2.62.529a73.419,73.419,0,0,1,11.709,2.4c6.516,1.942,12.639,4.647,17.914,9.062a19.547,19.547,0,0,1,6.331,8.5,14.91,14.91,0,0,1,.627,6.52,38.12,38.12,0,0,1-1.341,7.419A18.35,18.35,0,0,1,77.408,58.131c-.739.153-.775.213-.676.566a20.556,20.556,0,0,1-12.875-5.148c-3.372-2.835-6.5-5.947-9.913-8.733a24.219,24.219,0,0,0-19.442-5.3,36.1,36.1,0,0,1-18.6-1.947,14.043,14.043,0,0,1-3.346-1.987c-1.851-1.439-2.164-3.23-1.494-5.368a15.73,15.73,0,0,1,5.067-7.14c4.876-4.232,10.633-6.819,16.718-8.747a78.154,78.154,0,0,1,18.527-3.441,14.3,14.3,0,0,1,2.945-.147" transform="translate(-3.707 -3.692)" fill="#a94035"/>
          <path id="Trazado_165705" data-name="Trazado 165705" d="M42.856,34.331a5.96,5.96,0,0,1-5.951,6,6.043,6.043,0,0,1-6.1-6A6.108,6.108,0,0,1,36.9,28.3a6.023,6.023,0,0,1,5.953,6.027" transform="translate(-10.632 -9.77)" fill="#f2e7d5"/>
        </g>
      </g>
    </g>
  </g>
</svg>
