<svg xmlns="http://www.w3.org/2000/svg" xmlns:xlink="http://www.w3.org/1999/xlink" width="120" height="117" viewBox="0 0 120 117">
  <defs>
    <clipPath id="clip-path">
      <rect id="Rect치ngulo_43109" data-name="Rect치ngulo 43109" width="100.543" height="101.739" fill="none"/>
    </clipPath>
  </defs>
  <g id="_22" data-name="22" transform="translate(-352 -4319)">
    <g id="Grupo_158812" data-name="Grupo 158812" transform="translate(352 4319)">
      <g id="Grupo_158146" data-name="Grupo 158146">
        <rect id="Rect치ngulo_36141" data-name="Rect치ngulo 36141" width="120" height="117" fill="#e1e8ff"/>
      </g>
      <g id="Grupo_170575" data-name="Grupo 170575" transform="translate(10 8)">
        <g id="Grupo_170575-2" data-name="Grupo 170575" clip-path="url(#clip-path)">
          <path id="Trazado_165706" data-name="Trazado 165706" d="M50.518,68.651c1.119,0,2.239.025,3.358,0a2.351,2.351,0,0,1,2.573,1.692,8.7,8.7,0,0,1,.295,2.7c-.014,2.842.046,5.686-.028,8.526A4.74,4.74,0,0,0,57.9,85.013a13.27,13.27,0,0,1,2.691,5.194,11.091,11.091,0,0,1,.347,3.65A6.555,6.555,0,0,1,59.754,97.5a5.292,5.292,0,0,0-1.244,3.548c.054,7.733-.007,15.468.022,23.2,0,.935-.245,1.175-1.175,1.17-8.12-.044-16.241-.036-24.361-.043a2.375,2.375,0,0,1-.324-1.712c-.038-4.872.054-9.745-.057-14.615.142-1.535.029-3.073.066-4.61a4.807,4.807,0,0,1,.113-1.351c.292-.62.78-.3,1.178-.2a5.592,5.592,0,0,0,4.03-.239,13.13,13.13,0,0,1-5.085-2.9,12.21,12.21,0,0,1-2.284-5.116A12.97,12.97,0,0,1,33.9,84.627a3.878,3.878,0,0,0,.916-2.688c-.039-3.435-.018-6.871-.011-10.307a2.158,2.158,0,0,1,.3-1.511,2.472,2.472,0,0,1,2.548-1.473c1.12.03,2.243.012,3.364.014.477.545.267,1.21.321,1.829-.034,2.81-.051,5.621.018,8.43a4.374,4.374,0,0,0,2.412,4.043,4.15,4.15,0,0,0,4.488-.288A4.731,4.731,0,0,0,50.2,78.453c.036-2.775,0-5.55.031-8.326a2.82,2.82,0,0,1,.157-1.346l.129-.131" transform="translate(-10.582 -23.779)" fill="#96bdf6"/>
          <path id="Trazado_165707" data-name="Trazado 165707" d="M130.439,30.272a21.678,21.678,0,0,0,2.5,10.482,2.755,2.755,0,0,1,.46,1.967c-1.392.933-2.76.558-4.07-.152a8.814,8.814,0,0,1-2.785-2.538c-.415-.548-.719-1.51-1.38-1.462-.678.049-.558,1.08-.818,1.663a2.715,2.715,0,0,1-3.036,1.9c-1.371-.218-2.021-1.124-2.154-2.811-.41-5.179-.588-10.373-1-15.552-.1-1.258.173-1.571,1.451-1.6a32.412,32.412,0,0,0,5.364-.235,4.632,4.632,0,0,0,2.265-.815c-3.466-.364-6.935-.176-10.4-.244q-2.131.058-4.261,0c-3.252.034-6.507-.023-9.982.039a2.647,2.647,0,0,0,1.713.847,27.98,27.98,0,0,0,6.391.4c.649.01,1.346-.165,1.917.335a8.381,8.381,0,0,1,.22,3.078c.033.793.039,1.591-.007,2.386.039,4.019.011,8.037.016,12.056a4.144,4.144,0,0,1-.1,1.143c-.341.763-1.08.692-1.716.765-3.186.363-5.446-1.182-7.262-3.6a15.368,15.368,0,0,1-1.3-2.163c-.1-.186-.223-.405-.461-.37s-.293.28-.348.481a21.07,21.07,0,0,0-.522,2.47c-.235,1.59-1.4,2.185-2.741,1.3A6.786,6.786,0,0,1,95.215,36a1.983,1.983,0,0,0-.221-.875,31.206,31.206,0,0,1,2.761-13.1c.361-.871.654-1.635-.076-2.492a2.058,2.058,0,0,1-.369-1.5,2.39,2.39,0,0,1,0-1.48,2.878,2.878,0,0,1,2.533-2.533,1.7,1.7,0,0,1,.928-.1q14.16-.007,28.32,0a1.7,1.7,0,0,1,.927.1c2.548.414,3.385,3.047,2,5.395a11.346,11.346,0,0,0-1.367,4.984,17.05,17.05,0,0,0-.216,3.128,7.3,7.3,0,0,0,0,2.742" transform="translate(-32.901 -4.818)" fill="#f3f2f6"/>
          <path id="Trazado_165708" data-name="Trazado 165708" d="M33.366,26.54a15.589,15.589,0,0,1-3.88-8.235,1.626,1.626,0,0,1-.39-.77,9.42,9.42,0,0,1-.081-1.909,15.855,15.855,0,0,1,2.752-8.7c.855-1.05,1.492-2.31,2.791-2.941A19.208,19.208,0,0,1,41.432.462a15.93,15.93,0,0,1,19.56,13.362,16.165,16.165,0,0,1-3.969,12.864.652.652,0,0,1-.573.517c-.31-.092-.394-.379-.527-.62a2.771,2.771,0,0,0-1.877-1.41c-5.16-1.223-8.286-4.751-10.494-9.3a22.6,22.6,0,0,1-1.287-3.339c-.328-1.088-.409-1.129-1.445-.546a13.006,13.006,0,0,0-6.213,8.15,19.257,19.257,0,0,0-.391,5.127,3.155,3.155,0,0,1-.191,1.651c-.448.271-.587,0-.658-.38" transform="translate(-10.047 0)" fill="#feb955"/>
          <path id="Trazado_165709" data-name="Trazado 165709" d="M35.638,32.888c.113-2.337-.248-4.7.446-7a13.384,13.384,0,0,1,6.867-8.49c.792-.405.961-.175,1.176.58a21.058,21.058,0,0,0,5.389,9.487,11.964,11.964,0,0,0,5.692,3.219A3.84,3.84,0,0,1,58.233,33.1c.614,1.447.316,2.946.191,4.418a9.656,9.656,0,0,1-.873,3.16c.786.371,1.718-.186,2.4.46-.759.389-1.573.1-2.357.186-.3.033-.645-.073-.839.276a13.7,13.7,0,0,1-5.089,4.811,4.025,4.025,0,0,1-2.212.9,11.855,11.855,0,0,1-6.235-.324,2.243,2.243,0,0,1-.99-.577,13.58,13.58,0,0,1-5.009-4.648c-.22-.39-.6-.408-1-.437-.757-.052-1.54.2-2.27-.177.414-.45.969-.318,1.475-.329.627-.014.836-.282.609-.855a14.5,14.5,0,0,1-.676-5.775,1.924,1.924,0,0,1,.284-1.3" transform="translate(-11.759 -5.957)" fill="#fec6b2"/>
          <path id="Trazado_165710" data-name="Trazado 165710" d="M21.775,15.972q.023,1.087.046,2.175c.178.337-.126.541-.22.8-1.167,3.207-2.712,6.165-5.473,8.325A12.369,12.369,0,0,1,8.5,29.859c-.412.007-.882.056-1.118-.4s.156-.709.378-1c1.061-1.414,1-3.1,1.145-4.732.35-3.98.358-7.992,1.076-11.939a21.567,21.567,0,0,1,1.42-4.5A9.31,9.31,0,0,1,27.043,4.434L24.5,7.356c-.352.235-.673,0-1-.068a4.313,4.313,0,0,0-2.644,8.2,2.559,2.559,0,0,1,.92.484" transform="translate(-2.532 -0.453)" fill="#fb9d22"/>
          <path id="Trazado_165711" data-name="Trazado 165711" d="M16.955,141.339a5.18,5.18,0,0,1-1.41-6.616c.272-.6.827-1.32.677-1.808-.171-.556-1.146-.434-1.763-.624a51.041,51.041,0,0,1-6.625-2.678c-2.052-.961-2.994-2.555-1.158-4.739A6.107,6.107,0,0,1,8.494,122.6a20.831,20.831,0,0,1,5.576-4.09,4.427,4.427,0,0,1,4.331.858c1.465,1.182,2.515,2.74,3.882,4a.974.974,0,0,1,.329.857c-.024,3.681,0,7.361-.01,11.04a7.882,7.882,0,0,1-.837,3.759,4.716,4.716,0,0,1-3.9,2.5,1.533,1.533,0,0,1-.912-.186" transform="translate(-1.973 -40.971)" fill="#96bdf6"/>
          <path id="Trazado_165712" data-name="Trazado 165712" d="M29.035,70.9c-.005,4.22-.021,8.439-.005,12.659a2.216,2.216,0,0,1-.6,1.6,13.3,13.3,0,0,0-3.6,10.43c-.441.183-.724-.127-1.022-.346-.787-.576-1.61-1.1-2.426-1.631-2.15-1.669-4.432-3.151-6.645-4.731A4.714,4.714,0,0,1,13.022,87.4q2.954-4.3,5.909-8.6c.971-1.407,1.887-2.86,2.955-4.191A10.062,10.062,0,0,1,29.035,70.9" transform="translate(-4.511 -24.56)" fill="#f1f1f1"/>
          <path id="Trazado_165713" data-name="Trazado 165713" d="M112.962,97.342a12.055,12.055,0,0,1-.2-3.122,3.025,3.025,0,0,1,1.745-2.883,3.1,3.1,0,0,1,3.45.34c.2.156.379.623.739.169.83-1.473,3.109-2.316,4.4-1.629,3.041,1.009,4.014,2.358,4.015,5.569,0,1.684,0,3.368,0,5.052a4.7,4.7,0,0,1-4.009,5.006c-.356.469-.835.416-1.326.318a6.191,6.191,0,0,1-2.571-1.075,5.383,5.383,0,0,1-1.873-4.684c.052-.775-.059-1.108-1.014-.946a2.863,2.863,0,0,1-3.356-2.114" transform="translate(-39.057 -31.166)" fill="#96bdf6"/>
          <path id="Trazado_165714" data-name="Trazado 165714" d="M74.4,94.9a13.459,13.459,0,0,0-3.671-9.654,2.114,2.114,0,0,1-.572-1.5c.022-4.171.012-8.342.014-12.514.227.295.345.654.754.819a9.721,9.721,0,0,1,4.211,3.7c2.8,3.982,5.541,8,8.35,11.979.524.741.571,1.16-.3,1.618a16.75,16.75,0,0,0-1.877,1.329,67.79,67.79,0,0,1-5.958,3.969c-.279.186-.561.461-.956.253" transform="translate(-24.301 -24.676)" fill="#f1f1f1"/>
          <path id="Trazado_165715" data-name="Trazado 165715" d="M126.03,71.309a5.453,5.453,0,0,0-4.4,1.629q-.01-9.751-.022-19.5c0-.527-.015-1.054-.023-1.58a3.285,3.285,0,0,1-.005-2.982q.024-6.74.046-13.482c1.692.317,3.388.625,4.644,1.977.21,1.954.067,3.913.093,5.869.025,1.923.013,3.846,0,5.769a1.98,1.98,0,0,1-.292,1.4q-.021,10.451-.041,20.9" transform="translate(-41.991 -12.259)" fill="#febe8d"/>
          <path id="Trazado_165716" data-name="Trazado 165716" d="M12.066,111.948A23.976,23.976,0,0,0,5.1,117.739a2.858,2.858,0,0,1-.4.336c-.945-.831-1.93-1.622-2.829-2.5A5.844,5.844,0,0,1,1.016,108c2.088-3.148,4.273-6.232,6.416-9.344,1.093.571,1.679,1.66,2.493,2.507,1.358,1.412,2.6,2.939,3.97,4.348a1.123,1.123,0,0,1,.379.617c-.181.772-.865,1.169-1.329,1.72a3.606,3.606,0,0,0-.849,3.6.569.569,0,0,1-.031.5" transform="translate(0 -34.173)" fill="#fec6b2"/>
          <path id="Trazado_165717" data-name="Trazado 165717" d="M93.156,117.251c-1.192.669-2.366,1.371-3.578,2a5.616,5.616,0,0,1-7.6-1.811c-1.252-1.686-2.532-3.349-3.8-5.023a12.435,12.435,0,0,0,1.748-4.1.9.9,0,0,1,.421-.583,50.728,50.728,0,0,1,5.037-2.95c.471.82.935,1.643,1.414,2.457,1.161,1.972,2.071,2.343,4.265,1.732.335-.093.652-.247.978-.373.379.192.364.573.413.908.331,2.251.614,4.509.913,6.765a.983.983,0,0,1-.213.976" transform="translate(-27.081 -36.298)" fill="#fec6b2"/>
          <path id="Trazado_165718" data-name="Trazado 165718" d="M100.479,116.24q-.556-4.325-1.113-8.648a3.535,3.535,0,0,1,2.666-4.07c1.805-.56,3.616-1.1,5.424-1.653.366.328.242.78.3,1.186a3.032,3.032,0,0,0,1.748,2.578,1.672,1.672,0,0,1,1.065,1.309,6.922,6.922,0,0,0,1.454,3.01c.192.231.467.458.309.83-1.871,1.741-3.975,3.2-5.939,4.824-.727.6-1.5,1.154-2.231,1.748-1.695,1.369-3.03.969-3.684-1.114" transform="translate(-34.404 -35.287)" fill="#96bdf6"/>
          <path id="Trazado_165719" data-name="Trazado 165719" d="M128.435,46.5q-.026-6.67-.052-13.339a2.293,2.293,0,0,1-.329-1.307c0-2.178-.009-4.356.005-6.535a1.6,1.6,0,0,1,.314-1.19q5-.013,10.01-.023c.378,0,.856-.075.936.442.09.573-.441.662-.82.78a23.748,23.748,0,0,1-7.395.668c-1.267-.012-1.437.107-1.2,1.277a45.211,45.211,0,0,1,.333,4.705c.3,2.99.316,6.008.5,9.011.046.764.186,1.522.2,2.3a2.146,2.146,0,0,0,1.722,2.1,2.326,2.326,0,0,0,2.65-1.237,15.136,15.136,0,0,0,.648-1.992c.086-.307.076-.655.474-.728.379-.07.561.222.752.474a17.745,17.745,0,0,0,2.937,3.4,5.126,5.126,0,0,0,4.734.946,3.022,3.022,0,0,1-4.284,2.477,7.4,7.4,0,0,1-1.809-1.064c-.525-.4-1.026-.839-1.586-1.3a10.01,10.01,0,0,1-.884,1.36c-1.834,2.033-3.987,1.781-6.4.111a13.963,13.963,0,0,1-1.457-1.338" transform="translate(-44.356 -8.347)" fill="#c5c2d7"/>
          <path id="Trazado_165720" data-name="Trazado 165720" d="M126.161,129.735c0,5.056-.02,10.112.026,15.168.008.912-.293,1.172-1.14,1.078-1.067-.119-2.456.458-3.13-.249-.62-.65-.173-2.01-.175-3.056-.009-4.88.009-9.76.018-14.64a12.626,12.626,0,0,1,4.4,1.7" transform="translate(-42.118 -44.351)" fill="#febe8e"/>
          <path id="Trazado_165721" data-name="Trazado 165721" d="M112.543,52.747q0,1.491.005,2.982a8.2,8.2,0,0,1-7.993-.848c-.566-.4-1.062-1.264-1.586-1.261s-1,.871-1.549,1.3a2.468,2.468,0,0,1-3.173-.325,10.867,10.867,0,0,1-3-6.876c-.056-.254-.305-.575.216-.631a6.562,6.562,0,0,0,3.586,4.276c.946.5,1.8-.145,1.878-1.369a17.447,17.447,0,0,1,.546-2.665c.073-.331.156-.751.6-.75.361,0,.491.35.629.633a14.571,14.571,0,0,0,1.978,3.086,7.384,7.384,0,0,0,7.856,2.454" transform="translate(-32.957 -16.133)" fill="#c5c2d7"/>
          <path id="Trazado_165722" data-name="Trazado 165722" d="M46.616,69.342l-.049-1.9c.016-.154.032-.308.048-.463a1.642,1.642,0,0,1,.946-.416q3.771-.706,7.548-1.376a1.029,1.029,0,0,1,.906.1l.051,2.144.008-.011a3.343,3.343,0,0,0-.108,1.546,4.534,4.534,0,0,1-4.746,4.643,4.582,4.582,0,0,1-4.6-4.271" transform="translate(-16.131 -22.562)" fill="#fec6b2"/>
          <path id="Trazado_165723" data-name="Trazado 165723" d="M22.923,144.385c3.775-.218,5.205-2.228,5.3-5.7.1-3.507.018-7.018.029-10.528,0-.367-.147-.782.208-1.088a2.87,2.87,0,0,1,1.712,2.078,2.618,2.618,0,0,1,.2,1.02q-.018,7.723-.02,15.446c-1.469.007-2.938.048-4.406.008a4.418,4.418,0,0,1-3.025-1.241" transform="translate(-7.94 -44.017)" fill="#6f9dd7"/>
          <path id="Trazado_165724" data-name="Trazado 165724" d="M126.22,124.477a26.6,26.6,0,0,1-4.4-1.7l-.055-9.288c-.042-.479.278-.584.653-.633,1.2.588,2.382,1.25,3.8.912q0,5.355,0,10.709" transform="translate(-42.177 -39.093)" fill="#e99266"/>
          <path id="Trazado_165725" data-name="Trazado 165725" d="M33.755,41c.041,2.583-.2,5.2.911,7.654.191.419.037.579-.393.58-.737,0-1.473.014-2.21.024a4.246,4.246,0,0,1-3.548-4.422,4.313,4.313,0,0,1,4.093-4.052.8.8,0,0,0,.586-.175c.188.13.263.422.561.392" transform="translate(-9.876 -14.065)" fill="#f19a86"/>
          <path id="Trazado_165726" data-name="Trazado 165726" d="M72.152,49.326H69.181c1.433-2.648,1.293-5.35,1.257-8.038a.869.869,0,0,1,.5-.459,4.328,4.328,0,0,1,4.3,2.458,4.219,4.219,0,0,1-3.084,6.039" transform="translate(-23.964 -14.142)" fill="#f19986"/>
          <path id="Trazado_165727" data-name="Trazado 165727" d="M84.365,103.47a23.251,23.251,0,0,1-4.319,2.748,2.22,2.22,0,0,0-1.126,1.633,5.316,5.316,0,0,1-1.761,3.25l-1.926-2.4a21.149,21.149,0,0,0,.922-3.5c1.94-1.221,3.876-2.448,5.824-3.657.345-.214.631-.563,1.09-.564l1.3,2.484" transform="translate(-26.06 -34.981)" fill="#f19a86"/>
          <path id="Trazado_165728" data-name="Trazado 165728" d="M18.153,105.2a37.545,37.545,0,0,1-3.842-4.009c-1.054-1.063-1.965-2.267-2.94-3.408L12.45,96.14q3.987,2.781,7.97,5.568a3.582,3.582,0,0,1,.5.521,6.564,6.564,0,0,1-2.764,2.97" transform="translate(-3.939 -33.303)" fill="#f19a86"/>
          <path id="Trazado_165729" data-name="Trazado 165729" d="M118.948,108.835l-.653.633c-.642.233-.987.913-1.66,1.1a8.177,8.177,0,0,1-2.124-4.216.485.485,0,0,0-.341-.463c-2.056-.7-2.515-2.305-2.412-4.233l.854-.407a3.469,3.469,0,0,0,4.674,1.55c-.2,2.293-.042,4.4,1.661,6.037" transform="translate(-38.709 -35.072)" fill="#6f9dd7"/>
          <path id="Trazado_165730" data-name="Trazado 165730" d="M56.03,64.166l-9.4,1.692q-.009-1.985-.018-3.97a17.054,17.054,0,0,0,5.4.867,29.527,29.527,0,0,0,4.039-.862q-.01,1.137-.019,2.274" transform="translate(-16.146 -21.438)" fill="#f19a86"/>
          <path id="Trazado_165731" data-name="Trazado 165731" d="M132.6,13.962H102.422c.313-.341.724-.2,1.093-.2q13.994-.012,27.989,0c.369,0,.78-.138,1.093.2" transform="translate(-35.479 -4.757)" fill="#f7f6f9"/>
          <path id="Trazado_165732" data-name="Trazado 165732" d="M149.1,37.491a3.787,3.787,0,0,1,0-2.742v2.742" transform="translate(-51.557 -12.037)" fill="#f4f3f7"/>
          <path id="Trazado_165733" data-name="Trazado 165733" d="M95.411,47.014c-.251.149-.188.406-.216.631-.355-.378-.145-.844-.2-1.27l.416.639" transform="translate(-32.902 -16.064)" fill="#dddbe7"/>
          <path id="Trazado_165734" data-name="Trazado 165734" d="M98.417,17.959q0,.74,0,1.48a1.237,1.237,0,0,1,0-1.48" transform="translate(-34.006 -6.221)" fill="#f6f6f9"/>
          <path id="Trazado_165735" data-name="Trazado 165735" d="M29.174,27.874q.11-.4.22-.8c.233.159.184.386.15.61l-.371.193" transform="translate(-10.106 -9.377)" fill="#fee2bc"/>
          <path id="Trazado_165736" data-name="Trazado 165736" d="M46.617,70.555c.907,2.747,2.458,4.037,4.814,3.992,2.454-.046,4.671-2.263,4.456-4.5-.044-.458-.193-.984.188-1.409-.008,3.369,0,6.737-.027,10.106a4.8,4.8,0,0,1-3.432,4.864A4.705,4.705,0,0,1,46.6,79.186c-.077-2.875,0-5.753.014-8.63" transform="translate(-16.132 -23.776)" fill="#f1f1f1"/>
          <path id="Trazado_165737" data-name="Trazado 165737" d="M34.378,119.268q0-1.571,0-3.142c1.21.656,2.173,1.727,3.552,2.1.469.127.929.282,1.394.421.3.088.508.252.458.592-.041.282-.256.39-.515.44a7.643,7.643,0,0,1-4.889-.412" transform="translate(-11.908 -40.226)" fill="#6f9ed8"/>
          <path id="Trazado_165738" data-name="Trazado 165738" d="M70.411,116.1a20.765,20.765,0,0,0,.015,2.232c.116.982-.354,1.328-1.236,1.352a11.72,11.72,0,0,1-3.126-.228c-.325-.08-.605-.244-.641-.6-.029-.3.239-.438.471-.484a12.333,12.333,0,0,0,4.516-2.271" transform="translate(-22.662 -40.217)" fill="#6f9ed8"/>
          <path id="Trazado_165739" data-name="Trazado 165739" d="M126.036,24.138l.01,9.033-4.393-1.678-.053-5.484a1.485,1.485,0,0,1,.063-1.861l4.373-.009" transform="translate(-42.019 -8.361)" fill="#e99366"/>
          <path id="Trazado_165740" data-name="Trazado 165740" d="M116.291,24.134q-.031.931-.062,1.862a66.919,66.919,0,0,1-7.148-.188,16.671,16.671,0,0,1-2.642-.654c-.346-.112-.714-.276-.631-.7.076-.39.471-.351.786-.35q4.848.014,9.7.033" transform="translate(-36.648 -8.348)" fill="#c6c3d8"/>
          <path id="Trazado_165741" data-name="Trazado 165741" d="M27.311,18.914a4.327,4.327,0,0,1-3.777-3.175,4.3,4.3,0,0,1,1.244-4.692,4.468,4.468,0,0,1,4.872-.9c.131.046.259.1.39.152a17.271,17.271,0,0,0-2.728,8.617" transform="translate(-8.069 -3.395)" fill="#3b434f"/>
          <path id="Trazado_165742" data-name="Trazado 165742" d="M60.472,42.869A1.191,1.191,0,0,1,59.1,43.982a1.178,1.178,0,0,1-1.13-1.367A1.153,1.153,0,0,1,59.34,41.5a1.193,1.193,0,0,1,1.132,1.367" transform="translate(-20.079 -14.373)" fill="#2f3441"/>
          <path id="Trazado_165743" data-name="Trazado 165743" d="M45.841,42.711A1.172,1.172,0,0,1,47.114,41.5a1.141,1.141,0,0,1,1.228,1.18,1.251,1.251,0,1,1-2.5.035" transform="translate(-15.879 -14.374)" fill="#2f3441"/>
        </g>
      </g>
    </g>
  </g>
</svg>
