<svg xmlns="http://www.w3.org/2000/svg" xmlns:xlink="http://www.w3.org/1999/xlink" width="120" height="117" viewBox="0 0 120 117">
  <defs>
    <clipPath id="clip-path">
      <rect id="Rect치ngulo_43110" data-name="Rect치ngulo 43110" width="49.83" height="96.401" transform="translate(0 0)" fill="none"/>
    </clipPath>
  </defs>
  <g id="_23" data-name="23" transform="translate(-352 -4319)">
    <g id="Grupo_158812" data-name="Grupo 158812" transform="translate(352 4319)">
      <g id="Grupo_158146" data-name="Grupo 158146">
        <rect id="Rect치ngulo_36141" data-name="Rect치ngulo 36141" width="120" height="117" fill="#e1e8ff"/>
      </g>
      <g id="Grupo_170576" data-name="Grupo 170576" transform="translate(35 10)">
        <g id="Grupo_170576-2" data-name="Grupo 170576" clip-path="url(#clip-path)">
          <path id="Trazado_165744" data-name="Trazado 165744" d="M45.814,0a14.8,14.8,0,0,1,1.6.741,4.688,4.688,0,0,1,2.372,3.832c.027.375.034.752.034,1.128q0,42.5.011,85a5.535,5.535,0,0,1-1.387,4.152,4.9,4.9,0,0,1-3.62,1.541q-19.905.012-39.812,0A4.9,4.9,0,0,1,.029,91.546c-.014-.282-.014-.564-.014-.847q0-42.5-.015-85A5.474,5.474,0,0,1,2.02.982a14.37,14.37,0,0,1,2-.982Z" fill="#707383"/>
          <path id="Trazado_165745" data-name="Trazado 165745" d="M24.949,5.087c1.6,0,3.195-.005,4.793,0A1.641,1.641,0,0,1,31.5,6.543,1.634,1.634,0,0,1,30.136,8.2a3.522,3.522,0,0,1-.834.079q-4.371.008-8.74,0a3.992,3.992,0,0,1-.657-.02,1.721,1.721,0,0,1-1.569-1.689,1.64,1.64,0,0,1,1.82-1.485c1.6,0,3.195,0,4.793,0" fill="#464655"/>
          <path id="Trazado_165746" data-name="Trazado 165746" d="M21.719,89.727a3.091,3.091,0,0,1,3.18-3.216,3.152,3.152,0,0,1,3.23,3.367A3.252,3.252,0,0,1,24.936,93a3.19,3.19,0,0,1-3.217-3.276" fill="#464655"/>
          <path id="Trazado_165747" data-name="Trazado 165747" d="M3.293,13.933c-.092-.5.038-.8.619-.742a4.605,4.605,0,0,0,.47,0q20.5,0,41-.02c.924,0,1.209.189,1.207,1.174q-.052,23.935-.026,47.872c0,.345-.014.69-.022,1.034a1,1,0,0,1-.307.2,3.353,3.353,0,0,1-1.115.1q-5.251.006-10.5,0a2.317,2.317,0,0,1-1.366-.224.218.218,0,0,1-.014-.324,2.381,2.381,0,0,1,1.459-.238c3.358-.009,6.714,0,10.072-.007,1.22,0,1.3-.075,1.3-1.265q.01-23.3,0-46.594c0-1.142-.089-1.229-1.24-1.23q-19.951-.009-39.907,0a2.413,2.413,0,0,0-1.277.249.4.4,0,0,1-.352.009" fill="#80b9db"/>
          <path id="Trazado_165748" data-name="Trazado 165748" d="M3.293,13.933h.159c.463.54.3,1.2.3,1.805q.015,21.775.008,43.55c0,.784-.015,1.568,0,2.351.026,1.013.123,1.119,1.162,1.123,3.385.014,6.771,0,10.157.009a2.748,2.748,0,0,1,1.47.207.235.235,0,0,1,.071.324,1.287,1.287,0,0,1-.88.25c-3.9.014-7.794.03-11.691-.007a1.462,1.462,0,0,1-.457-.086.965.965,0,0,1-.309-.207c-.007-2.29-.022-4.58-.022-6.87q0-20.613,0-41.226c0-.408.016-.815.025-1.223" fill="#80b9db"/>
          <path id="Trazado_165749" data-name="Trazado 165749" d="M46.551,83.027c-.269.329-.642.185-.966.185q-20.667.012-41.336,0c-.324,0-.7.145-.965-.185a1.08,1.08,0,0,1,.317-.2,4.642,4.642,0,0,1,1.4-.1q19.915,0,39.833,0a4.706,4.706,0,0,1,1.4.1,1.111,1.111,0,0,1,.317.2" fill="#809cb5"/>
          <path id="Trazado_165750" data-name="Trazado 165750" d="M11.743,6.647A1.46,1.46,0,0,1,13.25,5.09a1.665,1.665,0,0,1,1.632,1.5,1.83,1.83,0,0,1-1.618,1.661,1.707,1.707,0,0,1-1.521-1.609" fill="#464655"/>
          <path id="Trazado_165751" data-name="Trazado 165751" d="M3.461,83.025l-.089,0H3.283q0-9.887.008-19.775c.056.006.113.011.17.014a1.719,1.719,0,0,1,.3,1.246q.009,8.634,0,17.267a1.713,1.713,0,0,1-.3,1.246" fill="#6b9fc6"/>
          <path id="Trazado_165752" data-name="Trazado 165752" d="M46.551,83.027h-.089l-.089,0a1.709,1.709,0,0,1-.3-1.246q-.01-8.634,0-17.267a1.71,1.71,0,0,1,.3-1.246c.057,0,.113-.008.17-.014q0,9.888.007,19.775" fill="#6b9fc6"/>
          <path id="Trazado_165753" data-name="Trazado 165753" d="M16.6,63.077l-11.855,0c-1.285,0-1.286,0-1.286-1.248V15.156c0-.408,0-.816,0-1.224,0-.308.054-.57.452-.561.219.005.439,0,.658,0q20.316,0,40.63-.02c.928,0,1.212.2,1.21,1.179q-.051,23.7-.005,47.406c0,.884-.2,1.176-1.129,1.164-4.012-.054-8.025-.028-12.038-.031-1.391-1.833-1.9-1.816-3.259.108a.748.748,0,0,1-.372.275,8.694,8.694,0,0,1-2.834-.019c-.322-.137-.408-.453-.532-.733a1.424,1.424,0,0,0-2.618-.03c-.125.279-.206.6-.521.749A6.151,6.151,0,0,1,19.92,63.3a2.009,2.009,0,0,1-.436-.7,1.333,1.333,0,0,0-2.356-.147c-.165.219-.24.513-.531.625" fill="#63aeda"/>
          <path id="Trazado_165754" data-name="Trazado 165754" d="M26.64,63.266l3.174-.009c.237.066.321.279.446.456a1.447,1.447,0,0,0,2.673-.088.792.792,0,0,1,.3-.351l13.145-.008V83.025H3.461V63.266L16.6,63.249c.254.1.339.353.493.544a1.335,1.335,0,0,0,2.48-.277c.08-.165.108-.364.313-.438,1.083.4,2.206.079,3.305.188.227.083.309.3.434.474a1.431,1.431,0,0,0,2.579,0c.125-.177.207-.39.433-.474" fill="#468bbd"/>
          <path id="Trazado_165755" data-name="Trazado 165755" d="M33.229,63.274a1.557,1.557,0,0,1-1.5,1.508c-.979.084-1.394-.252-1.916-1.524a2.02,2.02,0,0,1,1.1-1.646c1.049-.446,2.032.187,2.315,1.455,0,.069,0,.138,0,.207" fill="#fdfefe"/>
          <path id="Trazado_165756" data-name="Trazado 165756" d="M19.889,63.078a1.6,1.6,0,0,1-1.439,1.677c-.836.129-1.428-.386-1.847-1.506a.274.274,0,0,0-.006-.172c.434-1.19.9-1.6,1.808-1.514a1.555,1.555,0,0,1,1.484,1.515" fill="#464655"/>
          <path id="Trazado_165757" data-name="Trazado 165757" d="M24.9,56.5c-1,0-2,.01-3.007,0-1.289-.016-1.954-.569-1.991-1.852q-.09-3.147,0-6.3c.039-1.254.742-1.826,2.031-1.834q3.008-.02,6.015,0a1.752,1.752,0,0,1,1.993,1.876q.085,3.1,0,6.2c-.034,1.327-.7,1.889-2.039,1.9-1,.01-2,0-3.007,0" fill="#fedb69"/>
          <path id="Trazado_165758" data-name="Trazado 165758" d="M43.189,38.268c0,1,.01,2,0,3-.015,1.27-.593,1.939-1.872,1.972q-3.1.081-6.2,0c-1.3-.032-1.9-.728-1.908-2.058q-.018-2.958,0-5.916c.009-1.347.557-2.011,1.9-2.054q3.142-.1,6.29,0c1.236.039,1.764.706,1.79,1.948,0,.062,0,.125,0,.188v2.911" fill="#fe9f55"/>
          <path id="Trazado_165759" data-name="Trazado 165759" d="M24.98,19.954c.972,0,1.944-.007,2.917,0,1.314.011,1.986.543,2.023,1.816.062,2.1.065,4.2-.008,6.3-.046,1.305-.7,1.845-2,1.854q-3.01.023-6.021,0c-1.224-.01-1.89-.506-1.939-1.7-.091-2.191-.094-4.39-.019-6.581.04-1.175.727-1.677,1.943-1.69,1.035-.01,2.07,0,3.1,0" fill="#fe6469"/>
          <path id="Trazado_165760" data-name="Trazado 165760" d="M6.647,24.931c0-1.065-.016-2.13.005-3.194a1.612,1.612,0,0,1,1.726-1.776q3.241-.029,6.482,0a1.652,1.652,0,0,1,1.761,1.775q.039,3.2,0,6.389a1.7,1.7,0,0,1-1.847,1.8q-3.147.03-6.294,0a1.67,1.67,0,0,1-1.828-1.8c-.025-1.064-.006-2.129-.005-3.194" fill="#fedb69"/>
          <path id="Trazado_165761" data-name="Trazado 165761" d="M43.184,51.543c0,1.1.018,2.192,0,3.288a1.555,1.555,0,0,1-1.634,1.656q-3.334.036-6.669,0a1.58,1.58,0,0,1-1.663-1.649c-.032-2.191-.028-4.384,0-6.575a1.66,1.66,0,0,1,1.709-1.743q3.288-.048,6.575,0a1.642,1.642,0,0,1,1.689,1.738c.02,1.1,0,2.192,0,3.288h0" fill="#fefefe"/>
          <path id="Trazado_165762" data-name="Trazado 165762" d="M11.632,46.689c.97,0,1.946.06,2.91-.014,1.477-.114,2,.68,2.058,1.942.093,1.968.068,3.945.01,5.916a1.84,1.84,0,0,1-2.051,1.941q-3,.05-6.01,0A1.717,1.717,0,0,1,6.667,54.6q-.052-3,0-6.011c.026-1.431.544-1.9,1.961-1.9,1,0,2,0,3.005,0" fill="#468bbd"/>
          <path id="Trazado_165763" data-name="Trazado 165763" d="M20,38.139c0-1.064-.021-2.129.007-3.193a1.5,1.5,0,0,1,1.643-1.635q3.286-.036,6.573,0a1.494,1.494,0,0,1,1.611,1.665q.035,3.239,0,6.48a1.52,1.52,0,0,1-1.691,1.684q-3.239.035-6.479,0A1.526,1.526,0,0,1,20,41.426c-.021-1.095,0-2.191,0-3.287" fill="#464655"/>
          <path id="Trazado_165764" data-name="Trazado 165764" d="M6.651,38.214c0-.972,0-1.944,0-2.915.007-1.408.553-2.078,1.927-2.118,2.036-.06,4.076-.055,6.112,0a1.812,1.812,0,0,1,1.937,2.045q.02,3.009,0,6.019a1.814,1.814,0,0,1-1.956,2.028q-3.008.073-6.018,0c-1.427-.032-2-.691-2-2.144,0-.971,0-1.943,0-2.915" fill="#9fd678"/>
          <path id="Trazado_165765" data-name="Trazado 165765" d="M43.178,25.019c0,.941.009,1.882,0,2.823-.016,1.377-.608,2.041-1.994,2.074-1.975.047-3.952.041-5.927,0a1.841,1.841,0,0,1-2.035-2.058q-.051-2.916,0-5.834a1.862,1.862,0,0,1,2.114-2.067q2.871-.015,5.74,0c1.474.01,2.09.645,2.1,2.142.007.972,0,1.945,0,2.917" fill="#00dbcc"/>
          <path id="Trazado_165766" data-name="Trazado 165766" d="M26.64,63.266c-.243.883-.7,1.533-1.723,1.533s-1.479-.65-1.723-1.533c.265-1.282.752-1.761,1.77-1.74.967.02,1.421.491,1.676,1.74" fill="#fdfefe"/>
          <path id="Trazado_165767" data-name="Trazado 165767" d="M38.281,68.154c1.064,0,2.129-.018,3.193.006a1.589,1.589,0,0,1,1.7,1.7q.039,3.24,0,6.481a1.642,1.642,0,0,1-1.75,1.78q-3.194.041-6.386,0A1.689,1.689,0,0,1,33.216,76.3q-.046-3.193,0-6.387a1.662,1.662,0,0,1,1.778-1.759c1.1-.023,2.191,0,3.287,0" fill="#fe6469"/>
          <path id="Trazado_165768" data-name="Trazado 165768" d="M6.654,73.159c0-1.034-.011-2.068,0-3.1a1.721,1.721,0,0,1,1.936-1.9q3.054-.018,6.108,0a1.708,1.708,0,0,1,1.913,1.834c.04,2.067.049,4.137,0,6.2a1.817,1.817,0,0,1-2.052,1.931q-2.913.021-5.826,0c-1.442-.01-2.069-.642-2.078-2.054-.006-.972,0-1.943,0-2.914" fill="#00dbcc"/>
          <path id="Trazado_165769" data-name="Trazado 165769" d="M24.924,68.156h3.1c1.2,0,1.93.57,1.962,1.744q.087,3.237,0,6.478c-.03,1.18-.754,1.757-1.977,1.758q-3.1.006-6.2,0A1.733,1.733,0,0,1,19.84,76.27c-.039-2.065-.034-4.132,0-6.2a1.743,1.743,0,0,1,1.988-1.917h3.1" fill="#63aeda"/>
          <path id="Trazado_165770" data-name="Trazado 165770" d="M38.28,53.13c-.626,0-1.256.04-1.878-.01a1.609,1.609,0,0,1-.042-3.207,35.4,35.4,0,0,1,3.757.008,1.541,1.541,0,0,1,1.38,1.626,1.51,1.51,0,0,1-1.434,1.564c-.589.056-1.188.01-1.783.01v.009" fill="#fe6469"/>
          <path id="Trazado_165771" data-name="Trazado 165771" d="M11.667,49.883c.594,0,1.191-.041,1.78.01a1.524,1.524,0,0,1,1.481,1.419,1.481,1.481,0,0,1-1.167,1.77,9.882,9.882,0,0,1-4.356-.02,1.44,1.44,0,0,1-1.069-1.74A1.454,1.454,0,0,1,9.7,49.907a17.409,17.409,0,0,1,1.966-.015v-.009" fill="#fefefe"/>
          <path id="Trazado_165772" data-name="Trazado 165772" d="M24.875,39.917c-.562,0-1.125.024-1.685-.005a1.741,1.741,0,0,1-1.655-1.707,1.717,1.717,0,0,1,1.6-1.668c1.184-.048,2.373-.047,3.558,0A1.718,1.718,0,0,1,28.3,38.195a1.737,1.737,0,0,1-1.644,1.716c-.592.031-1.186.006-1.779.006" fill="#468cbd"/>
          <path id="Trazado_165773" data-name="Trazado 165773" d="M14.939,38.23a3.3,3.3,0,1,1-3.3-3.386,3.352,3.352,0,0,1,3.3,3.386" fill="#fedb69"/>
          <path id="Trazado_165774" data-name="Trazado 165774" d="M38.191,28.242a3.312,3.312,0,1,1,3.338-3.314,3.267,3.267,0,0,1-3.338,3.314" fill="#fe6469"/>
          <path id="Trazado_165775" data-name="Trazado 165775" d="M24.878,76.441a3.308,3.308,0,1,1,3.4-3.293,3.344,3.344,0,0,1-3.4,3.293" fill="#fedb69"/>
        </g>
      </g>
    </g>
  </g>
</svg>
