<svg xmlns="http://www.w3.org/2000/svg" xmlns:xlink="http://www.w3.org/1999/xlink" width="120" height="117" viewBox="0 0 120 117">
  <defs>
    <clipPath id="clip-path">
      <rect id="Rect치ngulo_38036" data-name="Rect치ngulo 38036" width="99.764" height="102.503" fill="none"/>
    </clipPath>
  </defs>
  <g id="_24" data-name="24" transform="translate(-352 -4319)">
    <g id="Grupo_158812" data-name="Grupo 158812" transform="translate(352 4319)">
      <g id="Grupo_158146" data-name="Grupo 158146">
        <rect id="Rect치ngulo_36141" data-name="Rect치ngulo 36141" width="120" height="117" fill="#e1e8ff"/>
      </g>
      <g id="Grupo_158811" data-name="Grupo 158811" transform="translate(9.849 7.113)">
        <g id="Grupo_158810" data-name="Grupo 158810" clip-path="url(#clip-path)">
          <path id="Trazado_134908" data-name="Trazado 134908" d="M21.589,85.8q-1.08,5.234-2.158,10.469c-.167.813-.329,1.628-.457,2.449-.1.666-.426.857-1.114.853q-8.452-.05-16.9,0c-.688,0-.988-.115-.955-.895.172-4.1.464-8.182.795-12.266.227-2.8.431-5.605.689-8.4.3-3.211.613-6.421.973-9.626.41-3.65.825-7.3,1.329-10.939,1.384-10.014,2.961-20,6.087-29.647,1.942-6,6.11-9.865,12.038-11.9q6.382-2.187,12.756-4.393c.361-.079.4.224.46.432,1.052,3.494,3.629,5.585,6.683,7.209,2.026,1.078,4.184,1.875,6.272,2.824.8.466,1.691.845,1.953,1.876a7.977,7.977,0,0,0-.5,4.377c.289,2.27.354,4.569.64,6.843a15.346,15.346,0,0,1-.185,2.381c-.009,2.993-.43,5.955-.691,8.926q-.46,5.238-.934,10.475-.566,6.274-1.128,12.55c-.4,4.391-.781,8.783-1.211,13.17-.119,1.066-.163,2.142-.279,3.208-.158,1.45-.478,1.659-1.9,1.389-3.135-.594-6.267-1.2-9.4-1.8-3.781-.723-7.558-1.471-11.341-2.183a2.845,2.845,0,0,1-1.456-.5,6.219,6.219,0,0,1-.392-2.552c0-2.33-.182-4.65-.277-6.973-.175-4.3-.274-8.6-.57-12.9-.121-1.766-.133-3.54-.19-5.307-.132-4.06-.383-8.114-.489-12.175a17.94,17.94,0,0,0-1.555-6.767c-.907-2.069-1.8-4.143-2.663-6.232a3.223,3.223,0,0,0-.438-.826.914.914,0,0,0-1.12-.3c-.395.151-.425.518-.411.874a3.955,3.955,0,0,0,.405,1.393c.86,2.014,1.736,4.02,2.572,6.044a19.985,19.985,0,0,1,1.379,6.9c.175,4.125.245,8.255.555,12.375.136,1.8.111,3.608.181,5.411.094,2.392.2,4.788.305,7.18.19,4.3.237,8.6.568,12.9a1.511,1.511,0,0,0,1.3,1.607,2.621,2.621,0,0,1,.789,2.467" transform="translate(0 -5.201)" fill="#4483df"/>
          <path id="Trazado_134909" data-name="Trazado 134909" d="M90.312,37.5c.308-3.431-.338-6.8-.648-10.2a5.894,5.894,0,0,1,.821-3.569c.294-.934,1.179-1.207,1.88-1.688A72.777,72.777,0,0,0,99.07,19c2.782-1.511,5.1-3.449,6.09-6.612.107-.34.194-.787.746-.668,4.82,1.671,9.731,3.092,14.438,5.068a17.26,17.26,0,0,1,9.99,10.723,126.133,126.133,0,0,1,4.591,19.318c1.425,8.139,2.47,16.333,3.309,24.549.733,7.185,1.382,14.38,1.766,21.6.118,2.219.381,4.431.35,6.658a1.748,1.748,0,0,1-1.365.363q-8,.012-16.006,0a1.83,1.83,0,0,1-1.365-.379c-.9-4.58-1.73-9.173-2.779-13.721a2.492,2.492,0,0,1,.741-2.457c.944-.182,1.248-.774,1.308-1.706.2-3.086.23-6.179.414-9.263.243-4.091.25-8.193.567-12.28.134-1.731.129-3.473.182-5.205.077-2.534.274-5.064.3-7.6.018-1.836.141-3.678.282-5.512.211-2.763,1.4-5.219,2.467-7.713.518-1.216,1.075-2.416,1.541-3.651.226-.6.539-1.309-.219-1.768-.544-.329-1.092.073-1.5,1.052-.894,2.152-1.825,4.288-2.744,6.429a21.283,21.283,0,0,0-1.55,7.614c-.18,4.2-.262,8.4-.563,12.593-.127,1.767-.131,3.543-.187,5.31-.08,2.534-.189,5.071-.308,7.6-.193,4.127-.209,8.263-.581,12.382a2.216,2.216,0,0,1-.215,1.009,2.48,2.48,0,0,1-1.435.533c-6.9,1.376-13.825,2.637-20.726,4.02a1.827,1.827,0,0,1-1.6-.12c-.53-1.425-.34-2.952-.623-4.413-.43-5.289-.952-10.57-1.429-15.854-.453-5.01-.879-10.022-1.334-15.031-.314-3.454-.6-6.911-.957-10.362-.1-1-.089-2.008-.177-3.01-.029-.337.093-.7-.178-.994" transform="translate(-40.589 -5.299)" fill="#5b9de7"/>
          <path id="Trazado_134910" data-name="Trazado 134910" d="M71.37,141.086a33.5,33.5,0,0,1,.43,4.4,1.73,1.73,0,0,1,.2,2.086c-2.814,0-5.628.015-8.441-.022-.764-.01-1.215.057-1.229,1.016-.018,1.236-.305,2.467-.347,3.7-.071,2.092-.824,2.776-2.891,2.335-3.811-.813-7.611-1.679-11.414-2.526-1.749-.39-3.492-.815-5.248-1.173a2.179,2.179,0,0,1-1.731-1.591c-.589-1.7-1.2-3.387-1.81-5.08q-.341-1.155-.682-2.31c.133-.408.308-.779.791-.868q6.371,1.211,12.742,2.423,4.993.956,9.982,1.939c.544.107.889.132.929-.619.066-1.241.264-2.474.406-3.711.486-.434,1.111-.321,1.678-.4a22.091,22.091,0,0,1,5.98.111,1.192,1.192,0,0,1,.653.284" transform="translate(-17.301 -63.636)" fill="#fec4b7"/>
          <path id="Trazado_134911" data-name="Trazado 134911" d="M99.8,148.016a15.777,15.777,0,0,0-.2-2.086c2.593-.243,5.11-.914,7.663-1.382,5.314-.975,10.617-2.015,15.924-3.029.528.055.692.45.821.878q-.329,1.141-.658,2.283c-.836,1.68-1.261,3.512-1.942,5.251a2.087,2.087,0,0,1-1.614,1.428c-5.632,1.23-11.258,2.487-16.892,3.707-1.613.349-2.554-.238-2.636-1.785-.095-1.763-.34-3.506-.462-5.263" transform="translate(-45.097 -64.081)" fill="#fedfd6"/>
          <path id="Trazado_134912" data-name="Trazado 134912" d="M148.076,172.371l18.736.014c-.421,2.305-.812,4.616-1.278,6.912a1.507,1.507,0,0,1-1.587,1.25q-5.473.014-10.946,0a1.9,1.9,0,0,1-1.736-1.288c-1.07-2.293-2.127-4.591-3.189-6.887" transform="translate(-67.05 -78.051)" fill="#fedfd6"/>
          <path id="Trazado_134913" data-name="Trazado 134913" d="M67.183,2.12A42.107,42.107,0,0,1,76.067.211,40.341,40.341,0,0,1,82.19.044,39.394,39.394,0,0,1,93.45,2.123c.04.44-.35.467-.6.581a30.823,30.823,0,0,0-6.637,3.962,1.93,1.93,0,0,1-1.127.472,38.364,38.364,0,0,0-9.508,0,1.773,1.773,0,0,1-1.048-.4,29.456,29.456,0,0,0-6.836-4.081c-.23-.094-.565-.151-.51-.541" transform="translate(-30.418 0)" fill="#fec4b7"/>
          <path id="Trazado_134914" data-name="Trazado 134914" d="M97.466,8.667a41.607,41.607,0,0,1,5.373-3.437c.926-.429,1.833-.9,2.749-1.35a2.265,2.265,0,0,1,2.1,2.364,4.1,4.1,0,0,0,.181,1.936.517.517,0,0,0-.4.417c-.919,3.355-3.305,5.435-6.2,7.044a62.888,62.888,0,0,1-6.9,3.111c-.616-.95-.327-2.01-.282-3.008a10.957,10.957,0,0,1,1.452-5.126,4.573,4.573,0,0,1,1.928-1.95" transform="translate(-42.555 -1.757)" fill="#fedfd6"/>
          <path id="Trazado_134915" data-name="Trazado 134915" d="M65.445,3.875a38.423,38.423,0,0,1,8.126,4.79c1.738.889,2.356,2.576,2.9,4.251a13.756,13.756,0,0,1,.509,4.933,1.024,1.024,0,0,1-.3.85,46.435,46.435,0,0,1-8.469-4.057,11.6,11.6,0,0,1-4.866-6.59c0-.65-.027-1.3.008-1.95a2.228,2.228,0,0,1,2.089-2.228" transform="translate(-28.68 -1.755)" fill="#fedfd6"/>
          <path id="Trazado_134916" data-name="Trazado 134916" d="M91.933,103.887a42.827,42.827,0,0,0-8.312,0c.154-1.968.293-3.938.465-5.9.239-2.727.5-5.452.755-8.178q.488-5.278.976-10.555c.238-2.624.457-5.249.694-7.872.322-3.555.658-7.107.975-10.662.062-.691.069-1.387.1-2.081.138-.082.315-.559.365.062q.308,3.785.65,7.568c.385,4.248.787,8.5,1.173,12.743.31,3.42.6,6.842.912,10.261.391,4.317.795,8.634,1.184,12.951.05.552.043,1.109.062,1.664" transform="translate(-37.864 -26.437)" fill="#fea698"/>
          <path id="Trazado_134917" data-name="Trazado 134917" d="M32.579,96.414c-.213.336-.381.712-.791.869-1.5.016-1.6-.129-1.7-1.655-.234-3.46-.294-6.926-.438-10.388q-.2-4.882-.414-9.763c-.147-3.428-.276-6.856-.42-10.284-.128-3.045-.279-6.09-.411-9.136a18.646,18.646,0,0,0-1.939-6.749c-.735-1.646-1.44-3.306-2.146-4.965a3.224,3.224,0,0,1-.259-.9c-.067-.6-.083-1.255.676-1.435a1.3,1.3,0,0,1,1.7.784c.763,1.86,1.515,3.727,2.359,5.551a24.739,24.739,0,0,1,2.2,10.373c.031,3.39.247,6.786.395,10.179.142,3.254.271,6.509.413,9.762.15,3.428.241,6.86.437,10.283.142,2.489.078,4.987.341,7.469" transform="translate(-10.881 -18.993)" fill="#345aac"/>
          <path id="Trazado_134918" data-name="Trazado 134918" d="M85.151,22.327c.086-2.714.005-5.383-1.365-7.863-.467-.846-1.236-1.393-1.746-2.172a31,31,0,0,1,10.02,0c-2.943,2.774-3.3,6.342-3.1,10.084a11.283,11.283,0,0,0-1.916,1.442,9.5,9.5,0,0,0-1.894-1.491" transform="translate(-37.148 -5.382)" fill="#fea698"/>
          <path id="Trazado_134919" data-name="Trazado 134919" d="M48.573,103.193c-.363,2.584-.739,5.261-1.117,7.938q-.378,2.677-.759,5.353c-.039.274-.083.548-.138.82a1.175,1.175,0,0,1-1.394,1.085,1.2,1.2,0,0,1-1.047-1.52c.32-2.3.622-4.6.946-6.9.329-2.334.681-4.664,1.009-7,.112-.8.535-1.338,1.343-1.3s1.21.6,1.157,1.524" transform="translate(-19.968 -46.036)" fill="#fedfd6"/>
          <path id="Trazado_134920" data-name="Trazado 134920" d="M143.521,97.277c-.415-.16-.585-.549-.82-.878.212-5.442.381-10.887.654-16.327.158-3.153.3-6.3.4-9.46.163-4.922.365-9.844.631-14.762a22.264,22.264,0,0,1,2.3-7.941c.715-1.58,1.374-3.186,2.042-4.787.451-1.08,1.022-1.444,1.871-1.147.68.238.888,1.008.451,2.075-1.012,2.473-2.085,4.92-3.1,7.391a15.726,15.726,0,0,0-1.091,5.471c-.207,5.686-.383,11.374-.661,17.058q-.222,4.521-.393,9.042c-.171,4.365-.405,8.729-.609,13.093-.053,1.127-.806,1.232-1.68,1.171" transform="translate(-64.616 -18.962)" fill="#345aac"/>
          <path id="Trazado_134921" data-name="Trazado 134921" d="M134.539,116.7c.08,1.076-.3,1.558-.99,1.678a1.141,1.141,0,0,1-1.41-1.048c-.287-1.743-.531-3.494-.781-5.243q-.589-4.116-1.161-8.235a8.228,8.228,0,0,1-.091-.826,1.176,1.176,0,0,1,1.113-1.375,1.246,1.246,0,0,1,1.367,1.166c.373,2.5.712,5.008,1.064,7.514.312,2.231.624,4.462.89,6.369" transform="translate(-58.912 -46.026)" fill="#fedfd6"/>
          <path id="Trazado_134922" data-name="Trazado 134922" d="M96.421,42.477a1.836,1.836,0,0,1-1.794-1.788,1.774,1.774,0,0,1,3.549-.032,1.836,1.836,0,0,1-1.754,1.819" transform="translate(-42.848 -17.623)" fill="#fdf3ef"/>
          <path id="Trazado_134923" data-name="Trazado 134923" d="M105.234,117.273a1.811,1.811,0,0,1-3.621.066,1.812,1.812,0,0,1,3.621-.066" transform="translate(-46.011 -52.321)" fill="#fdf2ef"/>
          <path id="Trazado_134924" data-name="Trazado 134924" d="M99.662,80.693a1.661,1.661,0,0,1-1.688-1.812,1.758,1.758,0,0,1,1.8-1.74,1.876,1.876,0,0,1,1.747,1.853,1.835,1.835,0,0,1-1.864,1.7" transform="translate(-44.363 -34.93)" fill="#fdf2ef"/>
          <path id="Trazado_134925" data-name="Trazado 134925" d="M108.566,157.306a1.774,1.774,0,0,1-.02-3.546,1.774,1.774,0,1,1,.02,3.546" transform="translate(-48.375 -69.624)" fill="#fefefe"/>
        </g>
      </g>
    </g>
  </g>
</svg>
