<svg xmlns="http://www.w3.org/2000/svg" xmlns:xlink="http://www.w3.org/1999/xlink" width="507.478" height="338.258" viewBox="0 0 507.478 338.258">
  <defs>
    <clipPath id="clip-path">
      <rect id="Rectángulo_43098" data-name="Rectángulo 43098" width="507.478" height="338.257" rx="5" transform="translate(1004 952.72)" fill="#a6bbff"/>
    </clipPath>
    <filter id="Unión_65" x="19.568" y="136" width="207.432" height="71.877" filterUnits="userSpaceOnUse">
      <feOffset dy="3" input="SourceAlpha"/>
      <feGaussianBlur stdDeviation="3" result="blur"/>
      <feFlood flood-opacity="0.161"/>
      <feComposite operator="in" in2="blur"/>
      <feComposite in="SourceGraphic"/>
    </filter>
    <clipPath id="clip-path-2">
      <rect id="Rectángulo_43095" data-name="Rectángulo 43095" width="60.956" height="61.009" fill="none"/>
    </clipPath>
  </defs>
  <g id="_25" data-name="25" transform="translate(-180 -404)">
    <g id="Enmascarar_grupo_248" data-name="Enmascarar grupo 248" transform="translate(-824 -548.721)" clip-path="url(#clip-path)">
      <g id="Grupo_170543" data-name="Grupo 170543" transform="translate(832.466 798.204)">
        <rect id="Rectángulo_43097" data-name="Rectángulo 43097" width="524.686" height="351.954" rx="11" transform="translate(161.435 147.447)" fill="#fff0f1"/>
        <g id="Grupo_170542" data-name="Grupo 170542" transform="translate(0 0)">
          <path id="Trazado_165487" data-name="Trazado 165487" d="M592.926,154.945C588.414,78.345,534.862,5.207,462.333.67c-83.3-7-159.767,43.121-242.747,43.651-42.313,3.98-82-13.8-123.23-19.536C3.223,21.036-10.967,141.116,6.4,218.517,79.654,583.413,598,533.766,592.926,154.945Z" transform="translate(721.121 177.972) rotate(132)" fill="#ffdfe0"/>
          <path id="Trazado_165488" data-name="Trazado 165488" d="M.037,160.556C4.559,81.182,58.235,5.4,130.929.695c83.495-7.255,160.133,44.682,243.3,45.232,42.41,4.124,82.183-14.3,123.513-20.243C591.092,21.8,605.314,146.225,587.9,226.429,514.485,604.538-5.047,553.094.037,160.556Z" transform="translate(386.324 835.227) rotate(-111)" fill="#ffdfe0" opacity="0.388" style="mix-blend-mode: multiply;isolation: isolate"/>
        </g>
      </g>
    </g>
    <path id="Trazado_166117" data-name="Trazado 166117" d="M5.645,10.992V15H3.3V3.625H7.738a5.134,5.134,0,0,1,2.254.469,3.454,3.454,0,0,1,1.5,1.332,3.714,3.714,0,0,1,.523,1.965,3.266,3.266,0,0,1-1.145,2.637,4.767,4.767,0,0,1-3.168.965Zm0-1.9H7.738a2.059,2.059,0,0,0,1.418-.437,1.591,1.591,0,0,0,.488-1.25,1.876,1.876,0,0,0-.492-1.352,1.839,1.839,0,0,0-1.359-.531H5.645Zm13.008,3.563H14.543L13.762,15H11.27L15.5,3.625h2.172L21.934,15H19.441Zm-3.477-1.9H18.02L16.59,6.5Zm13.719,1.258A1.2,1.2,0,0,0,28.426,11a6.148,6.148,0,0,0-1.687-.75,11.963,11.963,0,0,1-1.93-.777,3.153,3.153,0,0,1-1.937-2.82A2.747,2.747,0,0,1,23.391,5a3.389,3.389,0,0,1,1.492-1.129,5.616,5.616,0,0,1,2.184-.406,5.112,5.112,0,0,1,2.172.441,3.458,3.458,0,0,1,1.48,1.246,3.261,3.261,0,0,1,.527,1.828H28.9A1.534,1.534,0,0,0,28.41,5.77a2.023,2.023,0,0,0-1.383-.434,2.162,2.162,0,0,0-1.336.363,1.146,1.146,0,0,0-.477.957,1.1,1.1,0,0,0,.559.93,6.311,6.311,0,0,0,1.645.7,7.106,7.106,0,0,1,2.914,1.492A2.972,2.972,0,0,1,31.246,12a2.737,2.737,0,0,1-1.117,2.316,4.891,4.891,0,0,1-3.008.84,5.808,5.808,0,0,1-2.391-.48,3.783,3.783,0,0,1-1.645-1.316,3.371,3.371,0,0,1-.566-1.937h2.352q0,1.883,2.25,1.883a2.189,2.189,0,0,0,1.3-.34A1.106,1.106,0,0,0,28.895,12.016Zm12.5-6.492H37.91V15H35.566V5.523H32.129v-1.9h9.266Z" transform="translate(205 442)" fill="#12263f"/>
    <path id="Trazado_166119" data-name="Trazado 166119" d="M16.891,10.352h-4.5V15H10.047V3.625h7.406v1.9H12.391V8.461h4.5ZM27.422,3.625v7.492a3.836,3.836,0,0,1-1.168,2.953,4.5,4.5,0,0,1-3.191,1.086A4.553,4.553,0,0,1,19.9,14.1a3.77,3.77,0,0,1-1.2-2.9V3.625h2.344v7.508a2.167,2.167,0,0,0,.535,1.629,2.054,2.054,0,0,0,1.48.512q1.977,0,2.008-2.078V3.625Zm10.484,1.9H34.422V15H32.078V5.523H28.641v-1.9h9.266Zm9.945-1.9v7.492a3.836,3.836,0,0,1-1.168,2.953,4.5,4.5,0,0,1-3.191,1.086A4.553,4.553,0,0,1,40.328,14.1a3.77,3.77,0,0,1-1.2-2.9V3.625h2.344v7.508a2.167,2.167,0,0,0,.535,1.629,2.054,2.054,0,0,0,1.48.512q1.977,0,2.008-2.078V3.625Zm6.133,7.211H52.117V15H49.773V3.625H54a4.778,4.778,0,0,1,3.109.9A3.1,3.1,0,0,1,58.2,7.063,3.5,3.5,0,0,1,57.7,9a3.437,3.437,0,0,1-1.527,1.238l2.461,4.648V15H56.117Zm-1.867-1.9h1.891a1.936,1.936,0,0,0,1.367-.449,1.606,1.606,0,0,0,.484-1.238A1.719,1.719,0,0,0,55.4,5.984,1.9,1.9,0,0,0,54,5.523H52.117ZM66.828,10.07h-4.5v3.047h5.281V15H59.984V3.625h7.609v1.9H62.328V8.234h4.5Z" transform="translate(600 442)" fill="#12263f"/>
    <g id="Grupo_170538" data-name="Grupo 170538" transform="translate(-7.432 53)">
      <g transform="matrix(1, 0, 0, 1, 187.43, 351)" filter="url(#Unión_65)">
        <path id="Unión_65-2" data-name="Unión 65" d="M-102.042,53.877a16,16,0,0,1-16-16V16a16,16,0,0,1,16-16H46.635a16,16,0,0,1,16,16v5.494l8.754,5.231-8.754,5.232v5.919a16,16,0,0,1-16,16Z" transform="translate(146.61 142)" fill="#fff"/>
      </g>
      <path id="Trazado_165486" data-name="Trazado 165486" d="M9.016,15H6.734V3.625H9.016Zm8.3-7.383a2.9,2.9,0,0,1,.977-.9,2.815,2.815,0,0,1,3.355.555A4.1,4.1,0,0,1,22.4,9.984V15H20.117V9.969A2.336,2.336,0,0,0,19.8,8.574a1.124,1.124,0,0,0-.949-.41,2.271,2.271,0,0,0-.91.168,1.571,1.571,0,0,0-.629.48V15H15.031V2.813h2.281ZM29.1,15a4.8,4.8,0,0,1-.215-.609,4.239,4.239,0,0,1-.129-.656,3.127,3.127,0,0,1-.93,1.023,2.33,2.33,0,0,1-1.375.406,2.855,2.855,0,0,1-2.047-.684,2.449,2.449,0,0,1-.719-1.863,2.229,2.229,0,0,1,.957-1.926,4.78,4.78,0,0,1,2.793-.684h1.281V9.336a1.315,1.315,0,0,0-.32-.945,1.257,1.257,0,0,0-.953-.336,1.239,1.239,0,0,0-.855.27.941.941,0,0,0-.3.738h-2.2l-.016-.047a2.144,2.144,0,0,1,.934-1.848,4.055,4.055,0,0,1,2.582-.777,3.784,3.784,0,0,1,2.465.766A2.667,2.667,0,0,1,31,9.352v3.492a6.6,6.6,0,0,0,.09,1.117A5.606,5.606,0,0,0,31.375,15Zm-2.086-1.523a1.944,1.944,0,0,0,1.063-.3,1.6,1.6,0,0,0,.641-.687V11.3H27.438a1.519,1.519,0,0,0-1.1.359,1.181,1.181,0,0,0-.371.883.881.881,0,0,0,.277.684A1.1,1.1,0,0,0,27.016,13.477Zm8.633-1.625.148.781h.047L36,11.852l1.391-5.3h2.383L36.9,15h-2.18L31.844,6.547h2.383Zm8.68,3.313A3.8,3.8,0,0,1,41.375,14a4.252,4.252,0,0,1-1.062-2.988V10.7a4.628,4.628,0,0,1,1.031-3.109,3.506,3.506,0,0,1,2.836-1.2,3.282,3.282,0,0,1,2.613,1.043,4.122,4.122,0,0,1,.91,2.809v1.18H42.664l-.023.047a2.284,2.284,0,0,0,.527,1.406,1.766,1.766,0,0,0,1.4.539,4.692,4.692,0,0,0,1.3-.156,5.307,5.307,0,0,0,1.105-.477l.617,1.406a4.234,4.234,0,0,1-1.375.7A6.1,6.1,0,0,1,44.328,15.164ZM44.18,8.148a1.267,1.267,0,0,0-1.059.473,2.371,2.371,0,0,0-.449,1.254l.016.039h2.781V9.742a1.974,1.974,0,0,0-.3-1.168A1.127,1.127,0,0,0,44.18,8.148Zm16.461,2.859a4.945,4.945,0,0,1-.844,3.023,2.854,2.854,0,0,1-2.437,1.133,2.576,2.576,0,0,1-1.293-.312,2.672,2.672,0,0,1-.934-.914L54.945,15h-1.93V2.813h2.273V7.445a2.582,2.582,0,0,1,.879-.781,2.457,2.457,0,0,1,1.176-.273A2.8,2.8,0,0,1,59.8,7.605a5.577,5.577,0,0,1,.844,3.238Zm-2.273-.164A4.4,4.4,0,0,0,58,8.887a1.275,1.275,0,0,0-1.238-.723,1.7,1.7,0,0,0-.9.223,1.543,1.543,0,0,0-.578.637V12.6a1.449,1.449,0,0,0,.582.586,1.874,1.874,0,0,0,.91.2,1.3,1.3,0,0,0,1.234-.621,3.618,3.618,0,0,0,.352-1.762Zm7.344,4.32A3.8,3.8,0,0,1,62.758,14,4.252,4.252,0,0,1,61.7,11.016V10.7a4.628,4.628,0,0,1,1.031-3.109,3.506,3.506,0,0,1,2.836-1.2,3.282,3.282,0,0,1,2.613,1.043,4.122,4.122,0,0,1,.91,2.809v1.18H64.047l-.023.047a2.284,2.284,0,0,0,.527,1.406,1.766,1.766,0,0,0,1.4.539,4.692,4.692,0,0,0,1.3-.156,5.307,5.307,0,0,0,1.105-.477l.617,1.406a4.234,4.234,0,0,1-1.375.7A6.1,6.1,0,0,1,65.711,15.164Zm-.148-7.016a1.267,1.267,0,0,0-1.059.473,2.371,2.371,0,0,0-.449,1.254l.016.039h2.781V9.742a1.974,1.974,0,0,0-.3-1.168A1.127,1.127,0,0,0,65.563,8.148Zm8.516,7.016A3.8,3.8,0,0,1,71.125,14a4.252,4.252,0,0,1-1.062-2.988V10.7a4.628,4.628,0,0,1,1.031-3.109,3.506,3.506,0,0,1,2.836-1.2,3.282,3.282,0,0,1,2.613,1.043,4.122,4.122,0,0,1,.91,2.809v1.18H72.414l-.023.047a2.284,2.284,0,0,0,.527,1.406,1.766,1.766,0,0,0,1.4.539,4.692,4.692,0,0,0,1.3-.156,5.307,5.307,0,0,0,1.105-.477l.617,1.406a4.234,4.234,0,0,1-1.375.7A6.1,6.1,0,0,1,74.078,15.164ZM73.93,8.148a1.267,1.267,0,0,0-1.059.473,2.371,2.371,0,0,0-.449,1.254l.016.039h2.781V9.742a1.974,1.974,0,0,0-.3-1.168A1.127,1.127,0,0,0,73.93,8.148Zm6.938-1.6.1,1.211A3.092,3.092,0,0,1,82.008,6.75a2.7,2.7,0,0,1,1.383-.359,2.513,2.513,0,0,1,2,.824,3.908,3.908,0,0,1,.719,2.605V15H83.82V9.828A2.024,2.024,0,0,0,83.5,8.543a1.166,1.166,0,0,0-.949-.379,1.992,1.992,0,0,0-.895.191,1.746,1.746,0,0,0-.637.527V15H78.742V6.547Zm18.281,5.313H99.2l1.023-5.312h2.219L100.289,15H98.383l-1.57-4.875h-.047L95.2,15H93.3L91.148,6.547h2.219l1.039,5.289h.047l1.578-5.289h1.523ZM108.555,15a4.8,4.8,0,0,1-.215-.609,4.238,4.238,0,0,1-.129-.656,3.127,3.127,0,0,1-.93,1.023,2.33,2.33,0,0,1-1.375.406,2.855,2.855,0,0,1-2.047-.684,2.449,2.449,0,0,1-.719-1.863,2.229,2.229,0,0,1,.957-1.926,4.78,4.78,0,0,1,2.793-.684h1.281V9.336a1.315,1.315,0,0,0-.32-.945,1.257,1.257,0,0,0-.953-.336,1.239,1.239,0,0,0-.855.27.941.941,0,0,0-.3.738h-2.2l-.016-.047a2.144,2.144,0,0,1,.934-1.848,4.055,4.055,0,0,1,2.582-.777,3.784,3.784,0,0,1,2.465.766,2.667,2.667,0,0,1,.941,2.2v3.492a6.6,6.6,0,0,0,.09,1.117A5.606,5.606,0,0,0,110.828,15Zm-2.086-1.523a1.944,1.944,0,0,0,1.063-.3,1.6,1.6,0,0,0,.641-.687V11.3h-1.281a1.519,1.519,0,0,0-1.1.359,1.181,1.181,0,0,0-.371.883.881.881,0,0,0,.277.684A1.1,1.1,0,0,0,106.469,13.477ZM114.563,15h-2.281V6.547h2.281Zm0-10.477h-2.281V2.813h2.281Zm4.609-.047v2.07h1.43v1.6h-1.43v4.3a.982.982,0,0,0,.207.7.727.727,0,0,0,.543.211,2.178,2.178,0,0,0,.313-.02,2.632,2.632,0,0,0,.3-.066l.188,1.648a4.618,4.618,0,0,1-.668.176,3.982,3.982,0,0,1-.707.059,2.431,2.431,0,0,1-1.816-.648,2.843,2.843,0,0,1-.637-2.055V8.148h-1.234v-1.6H116.9V4.477ZM124.406,15h-2.281V6.547h2.281Zm0-10.477h-2.281V2.813h2.281Zm3.961,2.023.1,1.211a3.092,3.092,0,0,1,1.039-1.008,2.7,2.7,0,0,1,1.383-.359,2.513,2.513,0,0,1,2,.824,3.908,3.908,0,0,1,.719,2.605V15H131.32V9.828A2.024,2.024,0,0,0,131,8.543a1.166,1.166,0,0,0-.949-.379,1.992,1.992,0,0,0-.895.191,1.746,1.746,0,0,0-.637.527V15h-2.281V6.547Zm6.609,4.3a5.474,5.474,0,0,1,.867-3.227,2.813,2.813,0,0,1,2.438-1.227,2.4,2.4,0,0,1,1.25.32,2.806,2.806,0,0,1,.922.914l.18-1.078h1.961v8.414a3.142,3.142,0,0,1-1.078,2.551,4.552,4.552,0,0,1-3.008.9,5.73,5.73,0,0,1-1.359-.176,6.313,6.313,0,0,1-1.328-.48l.383-1.7a5.235,5.235,0,0,0,1.082.379,5.362,5.362,0,0,0,1.207.129,2.042,2.042,0,0,0,1.379-.391,1.546,1.546,0,0,0,.441-1.219v-.766a2.552,2.552,0,0,1-.883.727,2.6,2.6,0,0,1-1.164.25,2.869,2.869,0,0,1-2.422-1.141,4.855,4.855,0,0,1-.867-3.016Zm2.281.164a3.473,3.473,0,0,0,.371,1.746,1.3,1.3,0,0,0,1.215.637,1.883,1.883,0,0,0,.887-.191,1.462,1.462,0,0,0,.582-.559V8.977a1.559,1.559,0,0,0-.582-.6,1.706,1.706,0,0,0-.871-.211,1.279,1.279,0,0,0-1.219.742,4.231,4.231,0,0,0-.383,1.938ZM41.039,34V27.148H39.781v-1.6h1.258v-.937a2.859,2.859,0,0,1,.82-2.191,3.239,3.239,0,0,1,2.3-.77,4.168,4.168,0,0,1,.59.043q.3.043.66.121l-.2,1.7q-.187-.031-.363-.055a3.144,3.144,0,0,0-.41-.023,1.1,1.1,0,0,0-.84.3,1.234,1.234,0,0,0-.285.875v.938h1.625v1.6H43.32V34Zm4.633-4.3a4.536,4.536,0,0,1,1.055-3.1,3.676,3.676,0,0,1,2.922-1.207,3.715,3.715,0,0,1,2.938,1.2,4.512,4.512,0,0,1,1.063,3.1v.164a4.519,4.519,0,0,1-1.059,3.105,4.178,4.178,0,0,1-5.859,0,4.519,4.519,0,0,1-1.059-3.105Zm2.273.164a3.677,3.677,0,0,0,.406,1.855,1.561,1.561,0,0,0,2.605,0,3.653,3.653,0,0,0,.41-1.852V29.7a3.616,3.616,0,0,0-.414-1.836,1.4,1.4,0,0,0-1.3-.711,1.384,1.384,0,0,0-1.293.715,3.648,3.648,0,0,0-.41,1.832ZM59.5,27.508l-.836-.023a1.519,1.519,0,0,0-.836.211,1.337,1.337,0,0,0-.5.594V34H55.055V25.547h2.117l.1,1.25a2.667,2.667,0,0,1,.77-1.035,1.8,1.8,0,0,1,1.406-.344q.145.027.293.066Zm7.4-.891a2.9,2.9,0,0,1,.977-.9,2.815,2.815,0,0,1,3.355.555,4.1,4.1,0,0,1,.754,2.715V34H69.7V28.969a2.336,2.336,0,0,0-.316-1.395,1.124,1.124,0,0,0-.949-.41,2.271,2.271,0,0,0-.91.168,1.571,1.571,0,0,0-.629.48V34H64.617V21.813H66.9ZM73.352,29.7a4.536,4.536,0,0,1,1.055-3.1,3.676,3.676,0,0,1,2.922-1.207,3.715,3.715,0,0,1,2.938,1.2,4.512,4.512,0,0,1,1.063,3.1v.164a4.519,4.519,0,0,1-1.059,3.105,4.178,4.178,0,0,1-5.859,0,4.519,4.519,0,0,1-1.059-3.105Zm2.273.164a3.677,3.677,0,0,0,.406,1.855,1.561,1.561,0,0,0,2.605,0,3.653,3.653,0,0,0,.41-1.852V29.7a3.616,3.616,0,0,0-.414-1.836,1.4,1.4,0,0,0-1.3-.711,1.384,1.384,0,0,0-1.293.715,3.648,3.648,0,0,0-.41,1.832ZM87.914,32.75a2.87,2.87,0,0,1-.992,1.047,2.63,2.63,0,0,1-1.4.367,2.57,2.57,0,0,1-2.09-.906,4.347,4.347,0,0,1-.754-2.812v-4.9h2.273v4.914a2.729,2.729,0,0,0,.3,1.52,1.081,1.081,0,0,0,.934.41,2.273,2.273,0,0,0,.938-.176,1.58,1.58,0,0,0,.641-.52V25.547h2.281V34H88.156Zm8.3-5.242-.836-.023a1.519,1.519,0,0,0-.836.211,1.337,1.337,0,0,0-.5.594V34H91.766V25.547h2.117l.1,1.25a2.667,2.667,0,0,1,.77-1.035,1.8,1.8,0,0,1,1.406-.344q.145.027.293.066Zm5.758,4.148a.787.787,0,0,0-.363-.645,3.69,3.69,0,0,0-1.348-.473,5.375,5.375,0,0,1-2.254-.9,1.962,1.962,0,0,1-.77-1.633,2.329,2.329,0,0,1,.922-1.852,3.717,3.717,0,0,1,2.453-.766,4.011,4.011,0,0,1,2.566.766,2.237,2.237,0,0,1,.926,1.906l-.016.047h-2.2a1.106,1.106,0,0,0-.328-.828,1.534,1.534,0,0,0-1.812-.047.85.85,0,0,0-.32.672.759.759,0,0,0,.332.637,3.7,3.7,0,0,0,1.348.441,5.484,5.484,0,0,1,2.316.918,2.014,2.014,0,0,1,.762,1.668,2.231,2.231,0,0,1-.977,1.867,4.215,4.215,0,0,1-2.578.727,3.918,3.918,0,0,1-2.668-.855,2.392,2.392,0,0,1-.934-1.949l.016-.047h2.086a1.186,1.186,0,0,0,.445.984,1.838,1.838,0,0,0,1.1.3,1.567,1.567,0,0,0,.965-.254A.824.824,0,0,0,101.969,31.656ZM108.18,34H105.9V32h2.281Z" transform="translate(230.432 504)" fill="#3c3fa7"/>
    </g>
    <g id="Grupo_170539" data-name="Grupo 170539" transform="translate(-8.399 -35.512)">
      <g id="Grupo_165287" data-name="Grupo 165287" transform="translate(406.399 487.012)">
        <path id="Trazado_131858" data-name="Trazado 131858" d="M49.313,284.1c0,4.267,44.071,7.726,98.437,7.726s98.436-3.458,98.436-7.726-44.071-7.726-98.436-7.726-98.437,3.458-98.437,7.726" transform="translate(-38.602 -6.116)" fill="#a6bbff"/>
        <path id="Trazado_131843" data-name="Trazado 131843" d="M52.222,160a1.929,1.929,0,1,1,1.929,1.929A1.929,1.929,0,0,1,52.222,160" transform="translate(122.561 7.113)" fill="#3c3fa7"/>
        <path id="Trazado_131844" data-name="Trazado 131844" d="M2.722,209.691a2.756,2.756,0,1,1,2.756,2.756,2.756,2.756,0,0,1-2.756-2.756" transform="translate(215.7 0.688)" fill="#3c3fa7"/>
        <path id="Trazado_131845" data-name="Trazado 131845" d="M35.088,86.558a4.96,4.96,0,1,1,4.961,4.961,4.962,4.962,0,0,1-4.961-4.961" transform="translate(150.815 17.17)" fill="#3c3fa7"/>
        <path id="Trazado_131846" data-name="Trazado 131846" d="M155.666,101.254a2.2,2.2,0,1,1,2.2,2.2,2.2,2.2,0,0,1-2.2-2.2" transform="translate(-76.103 14.875)" fill="#3c3fa7"/>
        <path id="Trazado_131847" data-name="Trazado 131847" d="M239.436,204.806a3.583,3.583,0,1,1,3.583,3.583,3.583,3.583,0,0,1-3.583-3.583" transform="translate(-239.436 1.439)" fill="#3c3fa7"/>
        <path id="Trazado_131848" data-name="Trazado 131848" d="M196.6,154.052a1.378,1.378,0,1,1,1.378,1.378,1.378,1.378,0,0,1-1.378-1.378" transform="translate(-152.77 7.823)" fill="#3c3fa7"/>
        <path id="Trazado_131854" data-name="Trazado 131854" d="M53.975,139a2.492,2.492,0,1,1,2.492,2.492A2.492,2.492,0,0,1,53.975,139" transform="translate(118.066 9.948)" fill="#6b8dfc"/>
        <path id="Trazado_131855" data-name="Trazado 131855" d="M61.147,34.673a4.672,4.672,0,1,1,4.673,4.673,4.672,4.672,0,0,1-4.673-4.673" transform="translate(99.911 23.955)" fill="#6b8dfc"/>
        <path id="Trazado_131856" data-name="Trazado 131856" d="M192.406,123.631a2.18,2.18,0,1,1,2.18,2.18,2.18,2.18,0,0,1-2.18-2.18" transform="translate(-146.414 11.929)" fill="#6b8dfc"/>
        <path id="Trazado_131857" data-name="Trazado 131857" d="M173.4,30.793a1.869,1.869,0,1,1,1.869,1.869,1.869,1.869,0,0,1-1.869-1.869" transform="translate(-109.365 24.097)" fill="#6b8dfc"/>
        <g id="Grupo_165286" data-name="Grupo 165286" transform="translate(5.587 239.095)">
          <g id="Grupo_165285" data-name="Grupo 165285" transform="translate(0 0)">
            <path id="Trazado_131828" data-name="Trazado 131828" d="M180.4,256.99c-11.336-6.17-17.485-13.807-21.512-26.266-.954-2.954-1.474-6.658.754-8.779,2.387-2.273,6.263-1.174,9.137.4a41.513,41.513,0,0,1,13.507,11.89c4.607,6.311,8.469,14.678,16.058,16.059a3.065,3.065,0,0,0,2.061-.173c1.857-1.051.651-3.907-.524-5.714a26.625,26.625,0,0,1-4.061-11.068,4.116,4.116,0,0,1,.129-2.123,3.29,3.29,0,0,1,2.428-1.712c3.633-.8,7.175,1.517,10.066,3.9,7.364,6.079,17.593,16.165,22.664,24.331" transform="translate(-158.069 -220.651)" fill="#3c3fa7"/>
            <path id="Trazado_131837" data-name="Trazado 131837" d="M187.986,243.524a14.5,14.5,0,0,1,8.969-9.571c-2.773-2.155-6.077-4.072-9.46-3.343a3.283,3.283,0,0,0-2.428,1.676,3.947,3.947,0,0,0-.129,2.077,25.735,25.735,0,0,0,3.049,9.16" transform="translate(-147.186 -221.655)" fill="#5465d4"/>
            <path id="Trazado_131838" data-name="Trazado 131838" d="M234.425,252.633a94.091,94.091,0,0,1-11.353-15.627c-2.043-3.715-4.3-8.507-2.905-12.846a7.509,7.509,0,0,1,1.442-2.628c-2.571-1.053-5.494-1.434-7.434.414-2.227,2.122-1.707,5.827-.753,8.782,4.026,12.463,10.175,20.1,21.512,26.276l3.344.05c-1.339-1.465-2.615-2.983-3.852-4.421" transform="translate(-212.602 -220.651)" fill="#5465d4"/>
          </g>
          <g id="Grupo_165283" data-name="Grupo 165283" transform="translate(131.879 0)">
            <path id="Trazado_148874" data-name="Trazado 148874" d="M208.776,256.99c11.336-6.17,17.485-13.808,21.512-26.266.954-2.954,1.474-6.658-.754-8.779-2.387-2.273-6.263-1.174-9.137.4a41.512,41.512,0,0,0-13.507,11.89c-4.607,6.311-8.469,14.678-16.058,16.059a3.065,3.065,0,0,1-2.061-.173c-1.857-1.051-.651-3.907.524-5.714a26.626,26.626,0,0,0,4.061-11.068,4.117,4.117,0,0,0-.129-2.123,3.291,3.291,0,0,0-2.428-1.712c-3.633-.8-7.176,1.517-10.066,3.9-7.364,6.079-17.593,16.165-22.664,24.331" transform="translate(-158.069 -220.651)" fill="#3c3fa7"/>
            <path id="Trazado_148875" data-name="Trazado 148875" d="M193.83,243.524a14.5,14.5,0,0,0-8.969-9.571c2.773-2.155,6.077-4.072,9.461-3.343a3.283,3.283,0,0,1,2.428,1.676,3.947,3.947,0,0,1,.129,2.077,25.736,25.736,0,0,1-3.049,9.16" transform="translate(-161.592 -221.655)" fill="#5465d4"/>
            <path id="Trazado_148876" data-name="Trazado 148876" d="M216.455,252.634a94.088,94.088,0,0,0,11.353-15.627c2.043-3.715,4.3-8.507,2.905-12.846a7.508,7.508,0,0,0-1.442-2.628c2.571-1.053,5.494-1.434,7.434.414,2.227,2.122,1.707,5.827.753,8.782-4.026,12.464-10.175,20.1-21.512,26.277l-3.344.05c1.339-1.465,2.615-2.983,3.852-4.421" transform="translate(-165.24 -220.651)" fill="#5465d4"/>
          </g>
          <line id="Línea_280" data-name="Línea 280" x1="201.291" transform="translate(5.83 36.832)" fill="none" stroke="#3c3fa7" stroke-linecap="round" stroke-miterlimit="10" stroke-width="2.053"/>
        </g>
        <g id="Grupo_165282" data-name="Grupo 165282" transform="translate(22.961 0)">
          <path id="Trazado_148827" data-name="Trazado 148827" d="M36.765,108.393,47.817,284.559H41.079L30.026,108.393Z" transform="translate(95.14 -9.885)" fill="#917756"/>
          <g id="Grupo_165281" data-name="Grupo 165281" transform="translate(0 0)">
            <g id="Grupo_165284" data-name="Grupo 165284">
              <path id="Trazado_148828" data-name="Trazado 148828" d="M7.459,31.368H73.93a.909.909,0,0,1,.907.853l4.2,68.451a.908.908,0,0,1-.907.964H11.66a.909.909,0,0,1-.907-.853l-4.2-68.451a.909.909,0,0,1,.907-.964" transform="translate(87.381 -2.86)" fill="#d2e1f1"/>
              <path id="Trazado_148829" data-name="Trazado 148829" d="M70.747,91.891H63.625l-.359-5.972H27.323l.449,6.421H20.314L17.708,52.084s-.7-10.334,9.076-10.334h32.8c5.391,0,8.446,4.493,9.031,10.154s2.706,39.863,2.706,39.863Z" transform="translate(84.971 -3.807)" fill="#293754"/>
              <path id="Trazado_148830" data-name="Trazado 148830" d="M27.152,76.687A4.088,4.088,0,1,0,31.241,72.6a4.088,4.088,0,0,0-4.089,4.089" transform="translate(110.566 -6.62)" fill="#f8f9fa"/>
              <path id="Trazado_148831" data-name="Trazado 148831" d="M58.2,76.687A4.089,4.089,0,1,0,62.286,72.6,4.088,4.088,0,0,0,58.2,76.687" transform="translate(49.244 -6.62)" fill="#f8f9fa"/>
              <path id="Trazado_148832" data-name="Trazado 148832" d="M67.086,67.253H25.3s-.673-14.153-.719-15.545S24.9,46,30.2,46H59.763c2.381,0,5.436,2.651,5.93,5.706s1.393,15.545,1.393,15.545" transform="translate(82.949 -4.195)" fill="#f8f9fa"/>
              <path id="Trazado_148833" data-name="Trazado 148833" d="M51.368,77.182l-.162-2.337h-8.39l.165,2.337Z" transform="translate(79.243 -6.825)" fill="#f8f9fa"/>
              <path id="Trazado_148834" data-name="Trazado 148834" d="M51.368,81.039,51.206,78.7h-8.39l.165,2.337Z" transform="translate(79.243 -7.177)" fill="#f8f9fa"/>
              <path id="Trazado_148835" data-name="Trazado 148835" d="M172.373,306.073l-.457-3.71c-.009-.071-.112-.127-.235-.127H.236c-.137,0-.245.067-.235.146l.457,3.71c.009.071.112.127.235.127H172.138c.137,0,.245-.067.235-.146" transform="translate(0 -27.562)" fill="#8c939c"/>
              <path id="Trazado_148836" data-name="Trazado 148836" d="M50.355,26.4a18.308,18.308,0,0,1,1.068,2.209,4.346,4.346,0,0,1,.505,2.134.222.222,0,0,1-.369.1,5.36,5.36,0,0,1-.7-1.769c-.273-.823-.563-1.641-.9-2.438-.114-.264.251-.5.4-.233" transform="translate(71.854 -2.397)" fill="#e05d54"/>
              <path id="Trazado_148837" data-name="Trazado 148837" d="M44.159,15.466c.581,2.323-2.965,4.569-8.22,4.3s-11.675-.778-13.225-1.12-2.661-3.184-.623-3.184,21.848-.884,22.069,0" transform="translate(109.083 -1.374)" fill="#fff7f5"/>
              <path id="Trazado_148838" data-name="Trazado 148838" d="M21.944,18.073c3,.51,5.984,1.1,9.026,1.317,3.539.254,7.539.444,10.61-1.61a.116.116,0,0,1,.133.189c-2.735,2.252-6.346,2.267-9.73,2.128a33.867,33.867,0,0,1-10.122-1.771c-.146-.053-.063-.276.083-.252" transform="translate(110.818 -1.619)" fill="#e4ad9d"/>
              <path id="Trazado_148839" data-name="Trazado 148839" d="M32.842,2.991c1.56-.685,4.485-.663,5.8.829.706.8,4.632,6.224,5.24,6.4,7.919,2.3,21.73,12.788,21.155,13.5-.862,1.071-4.5-.405-5.963-.7-4.543-.929-5.687-3.782-9.048-6.25,4.766,11.972-6.641,9.778-9.462,8.939-5.237-1.557-5.3-6.657-6.268-11.266-.3-1.41-1.357-1.818-2.155-3.026a10.255,10.255,0,0,1-1.559-3.483c-.365-1.525.463-4.155,2.255-4.941" transform="translate(77.146 -0.233)" fill="#fff7f5"/>
              <path id="Trazado_148840" data-name="Trazado 148840" d="M66.723.029a19.237,19.237,0,0,1,2.963,2.547c1.057.959,2.108,1.927,3.174,2.875.164.146-.055.435-.238.308a41.1,41.1,0,0,1-3.294-2.506A13.614,13.614,0,0,1,66.421.331a.222.222,0,0,1,.3-.3" transform="translate(34.758 0)" fill="#e05d54"/>
              <path id="Trazado_148841" data-name="Trazado 148841" d="M67.389,1.879c2.268.683,4.435,2.816,6.09,4.437.206.2-.1.493-.312.312-1.036-.873-2.1-1.709-3.219-2.479A20.435,20.435,0,0,1,67.2,2.2a.194.194,0,0,1,.187-.323" transform="translate(33.394 -0.171)" fill="#e05d54"/>
              <path id="Trazado_148842" data-name="Trazado 148842" d="M62.93,5.56c.281.149.305.492.331.777a3.066,3.066,0,0,1,0,.474c.007.018.023.029.025.051.048.445.227,1.707-.463,1.8-.718.092-.666-1.326-.678-1.74-.011-.387.029-1.757.782-1.358" transform="translate(48.601 -0.5)" fill="#293754"/>
              <path id="Trazado_148843" data-name="Trazado 148843" d="M30.707,14.3c.655.947,1.005,2.118,1.586,3.12a7.016,7.016,0,0,0,.906,1.375.938.938,0,0,0,1.623-.513,2.832,2.832,0,0,0-.106-1.435c-.068-.224.258-.3.342-.094a3.851,3.851,0,0,1,.234.86A28.5,28.5,0,0,0,39.04,22.2a4.838,4.838,0,0,0,1.44.985c1.824.424,1.587-1.124,1.608-2.14a33.6,33.6,0,0,0-.1-3.605c-.048-.067-.1-.132-.148-.2-.086-.125.095-.234.2-.151,2.216,1.814,4.081,3.935,6.554,5.442a14.644,14.644,0,0,0,8.7,2.258c.162-.011.2.263.039.287-5.8.882-11.61-2.684-15.05-7.241.344,1.825,1.146,6.272-1.2,6.123-1.235-.078-2.623-1.48-3.4-2.323a15.888,15.888,0,0,1-2.363-3.31,1.915,1.915,0,0,1-.4,1.036,1.279,1.279,0,0,1-1.626.37,5.616,5.616,0,0,1-1.739-2.286,7.78,7.78,0,0,1-1.19-3.051c-.015-.2.247-.229.342-.093" transform="translate(85.042 -1.296)" fill="#e4ad9d"/>
              <path id="Trazado_148844" data-name="Trazado 148844" d="M48.007,25.211a23.63,23.63,0,0,1,1.685,5.307c.031.264-.384.364-.5.135a29.684,29.684,0,0,1-1.577-5.336.2.2,0,0,1,.389-.107" transform="translate(76.372 -2.286)" fill="#e05d54"/>
              <path id="Trazado_148846" data-name="Trazado 148846" d="M123.993,270.963c.063-.053-.055-1.337.016-1.348a27.549,27.549,0,0,1,5.465-7.029c2.18-1.837,5.112-1.938,7.974-1.889,6.766.117,11.226,3.818,12.532,9.408a5.893,5.893,0,0,1-1.3,1.925.5.5,0,0,1-.721-.267c-.03-.027-.705-.04-.708-.085-.287-5.456-5.675-8.051-10.724-7.855-2.641.1-4.673.4-6.6,2.166-1.583,1.456-3.06,4.645-4.317,6.316a.464.464,0,0,1-.071.064.479.479,0,0,1-.583.161c-.065-.028-.106-.077-.168-.108a2.983,2.983,0,0,1-1.361-1.307c-.259-.512.045.284.565-.152" transform="translate(-100.876 -23.773)" fill="#54383e"/>
              <path id="Trazado_148847" data-name="Trazado 148847" d="M100.691,275.76c.074-1.076.146-2.158.323-3.23a12.8,12.8,0,0,1,.274-1.322,2.493,2.493,0,0,1,.962-1.648,5.228,5.228,0,0,1,1.968-.725,47.187,47.187,0,0,1,9.633-.876c.174,0,.355,0,.529,0q2.642-.011,5.285.075c6.109.184,12.206.618,18.3.554,1.484-.015,2.968-.059,4.46-.144.378-.028.764-.05,1.143-.078a29.325,29.325,0,0,1,7.644-.013,8.989,8.989,0,0,1,3.6,1.537,10.157,10.157,0,0,1,2.162,2.7,15.144,15.144,0,0,1,1.52,4.15c.44,1.481.817,2.979,1.147,4.477.52,2.326.93,4.66,1.347,7,.39,2.176.773,4.359,1.006,6.552a5.124,5.124,0,0,1-.253,2.806c-.88,1.848-3.473,2.481-5.735,2.755-3.79.45-7.618.567-11.43.649l-.75.015q-2.724.053-5.44.086-7.792.091-15.589.017c-1.287-.009-2.566-.025-3.854-.055q-2.691-.03-5.38-.1c-.237,0-.483,0-.719-.014-1.636-.036-3.279-.081-4.915-.132-.838-.032-1.676-.056-2.513-.082-.91-.037-1.893.163-2.25-.76a27.128,27.128,0,0,1-1.038-4.152q-.507-2.287-.865-4.613a69.54,69.54,0,0,1-.573-15.42" transform="translate(-92.218 -24.436)" fill="#54383e"/>
              <path id="Trazado_148848" data-name="Trazado 148848" d="M121.092,284.376c.012-3.376-.039-6.758-.232-10.13-.106-1.772-.129-3.72-.38-5.614,1.485-.015,2.968-.059,4.46-.144.778,6.23,1.155,12.5,1.35,18.766.137,4.572.205,9.188.051,13.779q-2.724.054-5.439.087c-.094-5.578.166-11.171.19-16.745" transform="translate(-71.438 -24.484)" fill="#d9ad6c"/>
              <path id="Trazado_148849" data-name="Trazado 148849" d="M147.891,289.163c.286-7.083.028-14.135-.08-21.211,1.761-.007,3.523.021,5.285.075.254,2.866.123,5.793.1,8.65q-.03,5.687-.194,11.379-.191,6.491-.628,12.975-2.69-.03-5.38-.1c.4-3.911.738-7.827.9-11.767" transform="translate(-125.649 -24.436)" fill="#d9ad6c"/>
              <path id="Trazado_148850" data-name="Trazado 148850" d="M65.047,294.782s11.091,2.065,12.6,3.06a4.035,4.035,0,0,1,1.65,3.14s-6.362,1.49-18.037,1.651c-5.169.071-6.362-1.49-6.362-1.49s-.724-5.4.483-5.878,8.107-.724,9.662-.484" transform="translate(39.305 -26.874)" fill="#784e48"/>
              <path id="Trazado_148851" data-name="Trazado 148851" d="M79.065,301.615v.912s-10.4,1.679-16.615,1.664c-4.65-.01-7.2-.523-7.764-1.087v-1.329a18.328,18.328,0,0,0,6.885,1.208,148,148,0,0,0,17.494-1.369" transform="translate(39.547 -27.505)" fill="#f7c174"/>
              <path id="Trazado_148852" data-name="Trazado 148852" d="M94.158,294.068s11.091,2.065,12.6,3.06a4.037,4.037,0,0,1,1.65,3.141s-6.362,1.49-18.037,1.65c-5.169.071-6.362-1.49-6.362-1.49s-.724-5.4.484-5.878,8.107-.724,9.662-.483" transform="translate(-18.429 -26.809)" fill="#784e48"/>
              <path id="Trazado_148853" data-name="Trazado 148853" d="M108.176,300.9v.976S97.123,303.061,91.54,303.2c-4.649.117-6.816-.357-7.743-.813V301.06a23.963,23.963,0,0,0,6.834.9,149.017,149.017,0,0,0,17.544-1.059" transform="translate(-18.183 -27.44)" fill="#f7c174"/>
              <path id="Trazado_148854" data-name="Trazado 148854" d="M68.5,182.794c.778-.633,10.886-.2,16.64-.737,3.517-.329,7.027-.769,10.513-1.343,2.389-.393,7.353-1.538,7.394-1.436,3.246,8.058,9.031,45.133,9.96,53.487.954,8.576,2.754,42.295,2.754,51.4,0,1.531-9.749,2.209-12.526,1.251-.632-.539-3.193-16.17-4.1-20.778-1.184-6.014-2.322-12.036-3.492-18.052-1.865-9.593-3.883-21.428-7.277-30.53.174,3.023,1.876,27.375,2.107,33.434.441,11.524.3,22.5-.138,34.026-.819,2.61-13.336,1.6-13.558,1.041-.277-.7-2.937-32.256-3.356-36.428-.184-1.818-.614-9.96-1.777-25.144-.478-6.244-2.907-16.131-3.306-21.521-.655-8.858-.267-17.879.16-18.669" transform="translate(-11.264 -16.348)" fill="#254358"/>
              <path id="Trazado_148855" data-name="Trazado 148855" d="M71.3,160.119c-.274-1.535-1.818-6.493-2.373-8.019,3.154-4.358,6.223-4.885,8.673-9.421q.568,1.4,1.141,2.8a44.009,44.009,0,0,1,2.96,14.336c0,3.524-8.884,22.786-12.168,27.313-.41.567-3.435-2.418-3.435-6.219-.015-.147,5.659-18.229,5.2-20.792" transform="translate(25.98 -13.011)" fill="#ffae80"/>
              <path id="Trazado_148856" data-name="Trazado 148856" d="M67.547,178.924c13.332,1.372,35.38-2.508,35.925-5.071.091-5.353-.055-10.133-.2-14.286a70.732,70.732,0,0,1-.073-10.379c.109.291.191.527.273.727a9.36,9.36,0,0,0,1.209,2.245c.763-.073,9.315-4.835,11.769-9.37a28.07,28.07,0,0,0-1.381-2.89c-.727-1.354-1.518-2.681-2.272-4.017-1.254-2.236-7.979-14.614-12.505-15.713-7.489-1.818-23.865-2.645-23.874-2.645a50.875,50.875,0,0,0-7.089.482c1.3,20.057-1.127,40.733-1.781,60.917" transform="translate(-11.577 -10.717)" fill="#e8a64a"/>
              <path id="Trazado_148857" data-name="Trazado 148857" d="M111.364,112.354c-1.6,2.261-4.238,1.9-6.91,1.649a10.965,10.965,0,0,1-2.955-.713,14.6,14.6,0,0,1-3.064-1.679c-3.559-2.507-5.6-6.162-7.031-10.17a10.917,10.917,0,0,1,2.37-11.216,10.38,10.38,0,0,1,4.4-2.7,11.185,11.185,0,0,1,9.557,1.646c2.261,1.74,2.166,1.391,3.5,4.013,2,3.936,1.889,16.68.134,19.169" transform="translate(-29.45 -7.943)" fill="#ffae80"/>
              <path id="Trazado_148858" data-name="Trazado 148858" d="M108.12,113.733s-.055.862-.125,1.6c-.017.328-.053.643-.058.831-.007.063-.016.111-.023.174-.2,1.766-.309,2.274-.309,2.274a21.5,21.5,0,0,1-6.342.1,18.673,18.673,0,0,1-4.888-1.215l-.012-5.836Z" transform="translate(-29.877 -10.182)" fill="#ffae80"/>
              <path id="Trazado_148859" data-name="Trazado 148859" d="M90.125,94.4c.5-2.72,2.816-4.609,4.348-6.777,1.41-2,3.263-2.327,5.591-1.777,1.057.25,1.736.554,2.784-.127.381-.248.549-.654,1-.865a3.075,3.075,0,0,1,2.453.054,9.783,9.783,0,0,1,2.508,1.977,11.9,11.9,0,0,0,2.635,1.461,2.16,2.16,0,0,1,.623.4c.314.36.222.537.345.925a6.4,6.4,0,0,0,.343,1.47c.194.313.633.513.872.8a3.965,3.965,0,0,1,.956,2.92,5.54,5.54,0,0,1-2.665,4.37c-.356,1.19-.165,2.359-.734,2.458s-1.075.115-1.288-.4c-.1-.249-.126-1.338-.584-1.75-1.028-.425-1.568.932-1.63,1.7a5.97,5.97,0,0,0,.025,1.035,5.783,5.783,0,0,0,.826,2.66c.052.075-2.455,6.7-11.487,5.085-2.642-.473-4.162-4.607-5.1-6.909-1.114-2.732-2.367-5.7-1.813-8.708" transform="translate(-30.693 -7.717)" fill="#54383e"/>
              <path id="Trazado_148860" data-name="Trazado 148860" d="M91.532,110.763c.176-2.221.067-4.609.152-6.64.006-.162.444-.269.605-.265a.919.919,0,0,1,.985.506c.132.217.631,1.771.744,2.013a14.316,14.316,0,0,0,1.456,1.932c.533.96.662,4.263.477,5.342-.464,2.725-2.464,3.059-4.861,2.446-.158-.041-.852-.234-.8-.377a12.534,12.534,0,0,0,1.238-4.957" transform="translate(-11.617 -9.471)" fill="#54383e"/>
              <path id="Trazado_148861" data-name="Trazado 148861" d="M89.463,102.855c.33.73.648,1.462.921,2.216a4.676,4.676,0,0,1,.511,1.635c-.064.7-1.1.974-1.643.724a38.127,38.127,0,0,1,.212-4.575" transform="translate(-5.303 -9.379)" fill="#ffae80"/>
              <path id="Trazado_148862" data-name="Trazado 148862" d="M87.137,96.673c.1-.2.191-.4.291-.591a4.243,4.243,0,0,1-1.072-2.554c.045-1.309,1.109-2.8,1.718-3.926a22.85,22.85,0,0,1,3.181-4.68c2.054-2.217,5.117-3.981,8.234-3.535a8.42,8.42,0,0,1,2.508.791c.491-.173.982-.327,1.49-.464,3.626-.991,6.843-1.481,10.479-.436,2.526.718,4.635,4.753,4.771,7.17.254,4.635-2.781,9.433-6.207,12.751a26.66,26.66,0,0,1-20.23,7.489c-2.69-.227-5.489-1.272-6.453-4.035-.9-2.608.109-5.489,1.291-7.979" transform="translate(-30.873 -7.359)" fill="#784e48"/>
              <path id="Trazado_148863" data-name="Trazado 148863" d="M81.412,169.166a25.886,25.886,0,0,1,2.7-2.893,17.762,17.762,0,0,1,3.79-2.666c1.364-.583.274,5.538.261,5.594-.172.78-3.436,4.638-4.745,5.415-.116.069-.22-.054-.24-.167-1.286-.194-1.724-2.967-1.607-4.5a.527.527,0,0,1-.159-.782" transform="translate(4.532 -14.916)" fill="#7d5f1e"/>
              <path id="Trazado_148864" data-name="Trazado 148864" d="M83.089,119.786a.959.959,0,0,1,.288-.605,2.813,2.813,0,0,1,1.8-.56,4.859,4.859,0,0,1,4.649,1.712c.2.2.737,1.146.514.98-1.828-1.36-3.494-1.6-5.127-.649a.116.116,0,0,1-.083.129,2.325,2.325,0,0,1-1.457-.2.855.855,0,0,1-.587-.811" transform="translate(0.978 -10.815)" fill="#7d5f1e"/>
              <path id="Trazado_148865" data-name="Trazado 148865" d="M86.169,147.936c.191-7.843.882-15.677,1.445-23.5a54.529,54.529,0,0,1,.318-6.453c.027-.154.055-.309.091-.454a5.621,5.621,0,0,1,.927-2.154c.9-1.218,2.6-1.863,4.362-2.317.254-.073.509-.127.763-.191a.448.448,0,0,1,.118-.036,12.056,12.056,0,0,1,2.272-.573c.227-.045.445-.073.663-.1.073-.018.136-.027.2-.045a.1.1,0,0,1,.1.009,15.072,15.072,0,0,1,1.9-.064c2.018.045,3.953.591,5.989.582a45.613,45.613,0,0,0,5.562-.473l.863-.109c.5-.064,1.127-.136,1.845-.209.173-.018.364-.027.545-.045,3.108-.264,7.579-.327,9.788,1.29a4.8,4.8,0,0,1,2.317,3.326c.045.191.082.391.118.582.064.345.109.7.145,1.054.027.245.055.491.073.736.018.209.036.418.055.618.309,3.49.373,7.025.545,10.515q.627,12.392,1.118,24.8c0,.064.009.118.009.182,0,.118.009.245.009.363.018.364.036.727.045,1.091.009.2.018.391.027.591.127,3.317.264,6.634.373,9.951.1,2.608.645,6.062-.863,8.434-1.245,1.963-4.262,2.39-6.643,2.708-.2.073-.4.145-.609.2-.291.091-.582.164-.872.227-1.154.254-2.354.382-3.544.554a67.847,67.847,0,0,1-7.434.818,42.416,42.416,0,0,1-14.45-2.536c-.427-.145-.845-.291-1.263-.436-.154-.064-.309-.118-.463-.173-.045-.018-.082-.045-.118-.064-.5-.164-1-.345-1.481-.536-2.49-1.009-3.008-2.69-3.426-5.053a104.717,104.717,0,0,1-1.381-14.086c-.009-.245-.018-.491-.018-.736s-.018-.509-.018-.772-.018-.536-.018-.809q-.068-3.354.018-6.707" transform="translate(-42.221 -10.182)" fill="#b89549"/>
              <path id="Trazado_148866" data-name="Trazado 148866" d="M88.69,156.475a11.052,11.052,0,0,1-1.945-1.009c-.009-.264-.018-.536-.018-.809a9.365,9.365,0,0,0,1.109.782,9.874,9.874,0,0,0,1.481.673c.264.1.563.145.809.254a.79.79,0,0,0,.209.055.066.066,0,0,1,.082-.055c.218-9.588.518-19.321,1.627-28.836q-1.213-.232-2.4-.518a.185.185,0,0,1-.109-.273,20.055,20.055,0,0,1,1.181-8.107A10.557,10.557,0,0,1,88.508,118c.027-.154.055-.309.091-.454a22.687,22.687,0,0,0,5.853.709,5.432,5.432,0,0,1-.563-5.18c.254-.073.509-.127.763-.191a.45.45,0,0,1,.118-.036,4.386,4.386,0,0,0,.382,5.344.519.519,0,0,1,.036.064c.254,0,.509.009.772,0,.191,0,.391.009.582.009-1.727-1.4-.981-4.162.5-5.989.227-.045.445-.073.663-.1a5.326,5.326,0,0,0-.991,1.327c-.718,1.363-1.2,3.835.636,4.58a.322.322,0,0,1,.182.182c2.636,0,5.262.036,7.9.109,2.054.055,4.108.154,6.162.254a7.067,7.067,0,0,1-.136-6.443l.863-.109a7.215,7.215,0,0,0-.972,2.808,6.667,6.667,0,0,0,.927,3.79c.672.036,1.345.064,2.018.109a5.253,5.253,0,0,1-.963-4.617,8.551,8.551,0,0,1,.836-2.3c.173-.018.364-.027.545-.045a7.651,7.651,0,0,0-.918,2.472,5.1,5.1,0,0,0,1.254,4.526c.309.018,6.58.454,9.288.709a1.858,1.858,0,0,0,.266.019,4.366,4.366,0,0,0,2.551-.737c.018.209.036.418.055.618a5.414,5.414,0,0,1-3.444.473c-1.327-.1-2.645-.191-3.962-.282-.136,11.251-1,22.484-1.054,33.753,0,1.4.009,2.808.009,4.217,3.7-.227,6.743-1.372,10.124-2.663,0,.118.009.245.009.364a21,21,0,0,1-10.124,2.772v.918a36.156,36.156,0,0,0,10.17-2.6c.009.2.018.391.027.591a25.979,25.979,0,0,1-10.188,2.463c.018,3.535.055,7.07.136,10.606.064,2.7-.364,6.244,2.072,8.061a2.175,2.175,0,0,0,.236.164c-.291.091-.582.164-.872.227-.082-.073-.155-.136-.227-.209a6.246,6.246,0,0,1-1.681-4.235c-.391-4.826-.336-9.761-.3-14.632a.248.248,0,0,1,.009-.318c0-1.009.009-2.018.009-3.026.009-12.078-.109-24.456,1.227-36.479-1.036-.064-2.081-.109-3.117-.164a20.7,20.7,0,0,1-.309,4.371c-.2,1.527-.245,3.39-1.045,4.717a.09.09,0,0,1-.045.036.247.247,0,0,1-.2.127c-3.572.1-7.27.155-10.978.045-.082.954-.191,1.9-.282,2.854-.073.691.036,1.709-.654,2.1a6.977,6.977,0,0,1-3.326.009c-.682-.155-1.045-.427-1.045-.727,0-.709.236-3.135.409-4.508-2.1-.173-4.18-.445-6.216-.818-.427,8.743-1.227,17.458-1.5,26.219a101.3,101.3,0,0,0,.1,12.651c.327,3.408.809,8.5,3.744,10.824-.427-.145-.845-.291-1.263-.436a12.366,12.366,0,0,1-2.181-4.989,52.6,52.6,0,0,1-1.081-13.4,7.389,7.389,0,0,1-2.036-.809c-.5-.227-1.045-.445-1.572-.718-.009-.245-.018-.491-.018-.736.573.273,1.136.618,1.69.882a15.679,15.679,0,0,1,1.945.836c.009-.345.018-.7.027-1.045a4.192,4.192,0,0,1-1.736-.436m13.369-23.22c.673-.009.682-.6.754-1.127.036-.418.082-.782.127-1.118a40.571,40.571,0,0,0,.354-4.217,7.75,7.75,0,0,0-3.49-.273c-.327.245-.654,2.626-.663,2.935-.036.718-.136,2.563-.164,3.281,0,.345,1.372.518,3.081.518m-3.172-5.7c.064-.627.164-1.263.754-1.563a4.358,4.358,0,0,1,4.008.463c.154.145.118.427.118.782-.009.227-.018.464-.027.691q5.439.3,10.9.227c.218-1.481.554-2.945.745-4.435.191-1.427.2-2.908.491-4.317l-1.027-.055c-3.617-.182-7.189-.336-10.769-.4-3.235-.064-6.462-.036-9.688-.064a23.935,23.935,0,0,1-3.244-.191,30.227,30.227,0,0,0-1.018,7.961c2.917.191,5.835.591,8.761.9" transform="translate(-42.813 -10.197)" fill="#7d5f1e"/>
              <path id="Trazado_148867" data-name="Trazado 148867" d="M88.973,116.891a1.362,1.362,0,0,0,1.109,1.372,3.123,3.123,0,0,0,2.826-1.045c-.036-.191-.073-.391-.118-.582a3.139,3.139,0,0,1-2.072,1.1c-2.018.145-.782-2.517-.845-3.544a.141.141,0,0,0-.236-.1,4.01,4.01,0,0,0-.663,2.8" transform="translate(-7.129 -10.401)" fill="#7d5f1e"/>
              <path id="Trazado_148868" data-name="Trazado 148868" d="M105.3,166.413c5.945.085,11.93,1.01,17.875,1.33.259.014.263.411,0,.4-5.9-.138-12.132-.146-17.923-1.386a.178.178,0,0,1,.047-.349" transform="translate(-54.009 -15.176)" fill="#7d5f1e"/>
              <path id="Trazado_148869" data-name="Trazado 148869" d="M67.547,152.161a9.358,9.358,0,0,0,1.209,2.245c.763-.073,9.315-4.835,11.769-9.37a28.074,28.074,0,0,0-1.381-2.89c-1.8,2.045-7.116,7.816-11.6,10.015" transform="translate(25.83 -12.963)" fill="#cf8e34"/>
              <path id="Trazado_148870" data-name="Trazado 148870" d="M96.143,99.406c5.02-2.321,11.126-6.147,12-12.207-2.741-1.933-5.6-3.463-8.478-5.165a.121.121,0,0,1,.093-.221c3.3.657,6.2,3.235,8.79,5.243.126.1.014.282-.12.29.376,2.625-2.176,5.64-3.856,7.408a16.575,16.575,0,0,1-8.287,4.977c-.185.038-.331-.235-.137-.324" transform="translate(-30.085 -7.461)" fill="#613b35"/>
              <path id="Trazado_148871" data-name="Trazado 148871" d="M116.529,98.217c.982,1.181,2.108,2.281,3.117,3.3.145.154.4-.045.254-.218-.872-1.009-1.745-2.027-2.6-3.063-.164-.2-.327-.4-.482-.609-.1.191-.191.391-.291.591" transform="translate(-60.98 -8.903)" fill="#613b35"/>
              <path id="Trazado_148872" data-name="Trazado 148872" d="M80.977,143.109c1.736,3.147,3.463,6.452,4.922,9.736a.146.146,0,0,1-.252.146,39.862,39.862,0,0,1-4.93-9.773c-.053-.153.183-.249.26-.109" transform="translate(7.85 -13.044)" fill="#cf8e34"/>
              <path id="Trazado_148873" data-name="Trazado 148873" d="M98.593,199.53a47.762,47.762,0,0,0,3.678,9.9,90.932,90.932,0,0,0,5.537,8.453c.172.243-.218.455-.392.23-3.939-5.114-9.37-11.669-9.27-18.527a.228.228,0,0,1,.446-.06" transform="translate(-31.257 -18.181)" fill="#193142"/>
            </g>
          </g>
        </g>
      </g>
      <path id="Trazado_165467" data-name="Trazado 165467" d="M1.442,10.024V1.905H4.1a3.861,3.861,0,0,1,2.236.56,1.9,1.9,0,0,1,.8,1.664A1.724,1.724,0,0,1,6,5.792a1.749,1.749,0,0,1,1.143.658,1.975,1.975,0,0,1,.385,1.21,2.1,2.1,0,0,1-.769,1.765,3.478,3.478,0,0,1-2.18.6ZM3.071,6.433V8.775H4.582a1.513,1.513,0,0,0,.987-.282,1.02,1.02,0,0,0,.34-.834,1.194,1.194,0,0,0-.335-.909,1.417,1.417,0,0,0-1.009-.318Zm0-1.126H4.158a1.629,1.629,0,0,0,1-.268.921.921,0,0,0,.351-.781.974.974,0,0,0-.354-.831A1.739,1.739,0,0,0,4.1,3.16H3.071Zm12.083-3.4V7.219a2.67,2.67,0,0,1-.909,2.147,3.508,3.508,0,0,1-2.359.775,3.467,3.467,0,0,1-2.345-.775,2.682,2.682,0,0,1-.9-2.147V1.905h1.634V7.219a1.671,1.671,0,0,0,.435,1.243,1.6,1.6,0,0,0,1.177.429,1.636,1.636,0,0,0,1.193-.429,1.658,1.658,0,0,0,.44-1.243V1.905Zm5.643,6a.95.95,0,0,0-.326-.753,3.278,3.278,0,0,0-1.146-.535,6.512,6.512,0,0,1-2.133-1,1.889,1.889,0,0,1-.728-1.567,1.97,1.97,0,0,1,.82-1.631,3.322,3.322,0,0,1,2.091-.633,3.3,3.3,0,0,1,2.172.68,2.128,2.128,0,0,1,.795,1.784l-.011.033H20.752a1.182,1.182,0,0,0-.368-.934,1.5,1.5,0,0,0-1.032-.326,1.363,1.363,0,0,0-.931.29.944.944,0,0,0-.329.742.81.81,0,0,0,.357.677,4.774,4.774,0,0,0,1.232.56,5.3,5.3,0,0,1,2.041.99,2.027,2.027,0,0,1,.7,1.609,1.936,1.936,0,0,1-.814,1.645,3.534,3.534,0,0,1-2.152.6,3.846,3.846,0,0,1-2.25-.652A2.152,2.152,0,0,1,16.3,7.542l.011-.033h1.578a1.277,1.277,0,0,0,.424,1.059,1.784,1.784,0,0,0,1.149.34,1.568,1.568,0,0,0,1-.273A.886.886,0,0,0,20.8,7.9Z" transform="translate(550.031 532.929)" fill="#12263f"/>
    </g>
    <path id="Línea_636" data-name="Línea 636" d="M412.848.5H0v-1H412.848Z" transform="translate(225.652 437.5)" fill="#3c3fa7"/>
    <path id="Línea_637" data-name="Línea 637" d="M210,.5H200v-1h10Zm-20,0H180v-1h10Zm-20,0H160v-1h10Zm-20,0H140v-1h10Zm-20,0H120v-1h10Zm-20,0H100v-1h10ZM90,.5H80v-1H90ZM70,.5H60v-1H70ZM50,.5H40v-1H50ZM30,.5H20v-1H30ZM10,.5H0v-1H10Z" transform="translate(327.5 485.5)" fill="#3c3fa7"/>
    <g id="Grupo_170541" data-name="Grupo 170541" transform="translate(404 404)">
      <g id="Grupo_170540" data-name="Grupo 170540" transform="translate(0 0)" clip-path="url(#clip-path-2)">
        <path id="Trazado_165468" data-name="Trazado 165468" d="M9.619,51.472c-.669.391-.964.364-1.457-.173A29.811,29.811,0,0,1,.2,34.072,30.2,30.2,0,0,1,17.152,3.1,30.456,30.456,0,0,1,60.127,23.435a27.956,27.956,0,0,1,.719,4.576c.007.094-.015.2.11.244V32.9a30.405,30.405,0,0,1-.539,4.163,30.242,30.242,0,0,1-6.405,13.059A30.928,30.928,0,0,1,46.1,56.89a29.946,29.946,0,0,1-11.316,3.962c-.681.094-1.375.037-2.055.155H28.2a12.786,12.786,0,0,0-2.311-.347A30.589,30.589,0,0,1,11.1,54.069c-.493-.4-.534-.743-.21-1.352a.843.843,0,0,1,1.313-.226c.589.4,1.131.87,1.716,1.282a28.363,28.363,0,0,0,13.187,5.071A27.926,27.926,0,0,0,43.7,55.815,28.276,28.276,0,0,0,54.652,45.664a21.183,21.183,0,0,0,1.77-3.3,26.566,26.566,0,0,0,2.439-9.036,28.022,28.022,0,0,0-4.125-17.815A28.366,28.366,0,0,0,42.613,4.679a27.953,27.953,0,0,0-9.962-2.6A27.951,27.951,0,0,0,17.344,5.171,28.329,28.329,0,0,0,5.745,16.24a27.772,27.772,0,0,0-3.55,10.29,28.619,28.619,0,0,0,.877,12.012A31.267,31.267,0,0,0,4.487,42.33,26.35,26.35,0,0,0,8.049,48.2c.5.637,1.04,1.245,1.585,1.847.488.541.471.986-.014,1.421" transform="translate(0 0)"/>
        <path id="Trazado_165469" data-name="Trazado 165469" d="M58.533,61.674a22.647,22.647,0,0,1-3.089,5.262A27.986,27.986,0,0,1,38.035,77.9a28.254,28.254,0,0,1-23.357-5.609q-.237-.181-.47-.366a.91.91,0,0,0-1.328.042l-1.272-1.246a1.055,1.055,0,0,0-.217-1.476,28.089,28.089,0,0,1-4.849-7.13c-.067-.14-.112-.292-.168-.438.29-.041.365.2.468.376A29.611,29.611,0,0,0,21.791,75.008a29.347,29.347,0,0,0,7.728,1.856A29.406,29.406,0,0,0,50.11,71.105a30.121,30.121,0,0,0,7.9-8.95c.122-.208.177-.51.524-.482" transform="translate(-1.989 -19.246)" fill="#e5485d"/>
        <path id="Trazado_165470" data-name="Trazado 165470" d="M57.336,43.217a5.606,5.606,0,0,0-.9,1.378,28.225,28.225,0,0,1-5.4,6.507,28.8,28.8,0,0,1-12.014,6.547,33.134,33.134,0,0,1-5.581.956,28.626,28.626,0,0,1-8.757-.645A29.4,29.4,0,0,1,8.421,47.868a29.779,29.779,0,0,1-3.034-4.449.993.993,0,0,0-.209-.2A25.946,25.946,0,0,1,2.815,35.16,27.509,27.509,0,0,1,4.1,22.028c3.2-8.9,9.261-15.022,18.25-17.966A27.505,27.505,0,0,1,46.885,7.268,27.752,27.752,0,0,1,59.5,26.278,28.023,28.023,0,0,1,57.5,42.9c-.047.107-.111.208-.167.312" transform="translate(-0.793 -0.789)" fill="#fe5876"/>
        <path id="Trazado_165471" data-name="Trazado 165471" d="M50.9,16.1c.349.475.876.8,1.136,1.35a2.807,2.807,0,0,0,.791,2.015A23.256,23.256,0,0,1,57.24,30.921a23.535,23.535,0,0,1-2,12.4,2,2,0,0,1-.256.468c-.617.677-1.039,1.493-1.585,2.221a24.614,24.614,0,0,1-16.173,9.848,26.348,26.348,0,0,1-2.952.286c-.231.012-.591.135-.649-.3a2.084,2.084,0,0,0,.574-1.686c-.022-.435,0-.872,0-1.308a2.271,2.271,0,0,0-.06-.59c-.105-.387-.273-.72-.745-.711-.439.008-.6.32-.7.687a2.446,2.446,0,0,0-.068.648c0,.475.01.951,0,1.427a1.956,1.956,0,0,0,.552,1.517c.01.437-.343.325-.552.317a24.909,24.909,0,0,1-2.958-.275,24.821,24.821,0,0,1-16.843-10.7,9.221,9.221,0,0,0-.965-1.355A18.5,18.5,0,0,1,10.1,39.022a22.343,22.343,0,0,1-.664-5.832,24.231,24.231,0,0,1,2.077-9.4A23.98,23.98,0,0,1,30.4,9.729,23.667,23.667,0,0,1,44.519,12.26a22.02,22.02,0,0,1,4.69,3.235A1.818,1.818,0,0,0,50.9,16.1" transform="translate(-2.942 -2.973)" fill="#e3edf8"/>
        <path id="Trazado_165472" data-name="Trazado 165472" d="M50.142,15.37a1.036,1.036,0,0,1-1.436-.169A23,23,0,0,0,36.139,9.222,23.207,23.207,0,0,0,17.311,14.6,23.059,23.059,0,0,0,9.126,29.19,22.786,22.786,0,0,0,11.21,43a29.579,29.579,0,0,0,5.014,6.756,23.637,23.637,0,0,0,13.321,6.434,23.621,23.621,0,0,0,23.183-10.96c.462-.739.926-1.476,1.363-2.231a21.779,21.779,0,0,0,2.163-7.3,23.448,23.448,0,0,0-2.712-14.358,21.9,21.9,0,0,0-2.164-3.266,1.024,1.024,0,0,1-.1-1.356c.669-.43,1.021-.378,1.515.258A24.831,24.831,0,0,1,58.157,30.9,25.478,25.478,0,0,1,42.686,56.3,23.994,23.994,0,0,1,29.6,58.138C19.578,56.718,12.572,51.261,8.781,41.922A25.313,25.313,0,0,1,14.769,14.46,24.725,24.725,0,0,1,29.022,7.434a25.183,25.183,0,0,1,20.844,6.4c.629.557.669.825.275,1.539" transform="translate(-2.187 -2.24)"/>
        <path id="Trazado_165473" data-name="Trazado 165473" d="M28.354,33.206a.917.917,0,0,1-1.326-.126c-1.641-1.468-3.3-2.922-4.929-4.4a2.686,2.686,0,1,1,3.583-3.995q5.074,4.5,10.134,9.025a1.671,1.671,0,0,0,2.152-.051c1.63-1.653,3.244-3.323,4.894-4.956a2.664,2.664,0,0,1,4.488,1.209,2.622,2.622,0,0,1-.729,2.621c-1.759,1.777-3.5,3.576-5.276,5.332-.534.527-.382,1.261-.709,1.842-.088.157.188.272.319.382q4.441,3.733,8.886,7.461a6.134,6.134,0,0,1,.491.433.886.886,0,0,1-1.165,1.335c-.193-.138-.369-.3-.551-.453q-4.4-3.693-8.789-7.392a.581.581,0,0,0-.806-.083,3.918,3.918,0,0,1-5.793-2.452,1.372,1.372,0,0,0-.444-.739c-.913-.794-1.813-1.6-2.715-2.41-.6-.538-.647-.781-.3-1.5a.856.856,0,0,1,1.279-.191c.6.389,1.05.964,1.63,1.381.245.173.389.641.72.5s.517-.573.74-.894c.076-.109-.008-.227-.088-.32-.129-.149-.279-.279-.419-.418q-2.516-2.222-5.016-4.462c-1.266-1.14-2.565-2.243-3.806-3.411a3.692,3.692,0,0,0-.5-.422.754.754,0,0,0-1.03.049.744.744,0,0,0,.048,1.073c.418.42.87.81,1.319,1.2,1.231,1.06,2.426,2.161,3.65,3.228.691.6.687,1.161.059,1.6" transform="translate(-6.587 -7.465)"/>
        <path id="Trazado_165474" data-name="Trazado 165474" d="M56,59.253a21.967,21.967,0,0,1-4.877,6.821,23.6,23.6,0,0,1-14.1,6.615A23.918,23.918,0,0,1,13.157,59.424a.77.77,0,0,1-.039-.171,18.4,18.4,0,0,1,1.543,2.155,25.178,25.178,0,0,0,4.913,5.011,24.3,24.3,0,0,0,9.8,4.542,29.178,29.178,0,0,0,4.382.555c.188.012.4.064.563-.1a.309.309,0,0,1,.478,0,1.382,1.382,0,0,0,.978.1A27.147,27.147,0,0,0,42.537,70.2a24.938,24.938,0,0,0,8.1-4.674A27.47,27.47,0,0,0,55.694,59.6c.085-.131.138-.29.3-.349" transform="translate(-4.094 -18.492)" fill="#d4dff1"/>
        <path id="Trazado_165475" data-name="Trazado 165475" d="M33.439,36.44c-.476-.41-.964-.807-1.425-1.233a1.014,1.014,0,0,0-1.429-.1c-.5-.33-.815-.889-1.412-1.088.469-.619.457-.94-.137-1.474-1.546-1.389-3.106-2.763-4.665-4.138-.33-.292-.687-.573-.643-1.07a.892.892,0,0,1,1.52-.552c.838.694,1.636,1.436,2.449,2.161q3.3,2.943,6.6,5.889a3.334,3.334,0,0,1,.238.263,2.049,2.049,0,0,1-1.1,1.338" transform="translate(-7.404 -8.282)" fill="#405b6c"/>
        <path id="Trazado_165476" data-name="Trazado 165476" d="M44.114,74.869h-.478a.953.953,0,0,1-.656-1c-.009-.854-.016-1.707,0-2.56.014-.626.348-.98.877-.988.554-.009.9.354.909,1.017.017.833,0,1.668.007,2.5a1.053,1.053,0,0,1-.661,1.027" transform="translate(-13.411 -21.947)" fill="#020202"/>
        <path id="Trazado_165477" data-name="Trazado 165477" d="M44.764,14.108c0,.454.023.91-.006,1.362a.884.884,0,0,1-1.769-.01q-.043-1.391,0-2.784a.826.826,0,0,1,.859-.87.869.869,0,0,1,.916.88,1.134,1.134,0,0,1,0,.118q0,.652,0,1.3h-.006" transform="translate(-13.41 -3.684)" fill="#020202"/>
        <path id="Trazado_165478" data-name="Trazado 165478" d="M14.052,43.056c.435,0,.87-.022,1.3.006a.867.867,0,0,1,.909.889.856.856,0,0,1-.9.891q-1.362.043-2.726,0a.859.859,0,0,1-.909-.887.885.885,0,0,1,.905-.9,1.134,1.134,0,0,1,.118,0h1.3v0" transform="translate(-3.659 -13.434)" fill="#020202"/>
        <path id="Trazado_165479" data-name="Trazado 165479" d="M72.511,43.056c.454,0,.91-.022,1.363.006a.868.868,0,0,1,.911.887.859.859,0,0,1-.9.892c-.907.03-1.817.029-2.725,0a.856.856,0,0,1-.91-.885.866.866,0,0,1,.9-.894c.453-.029.909-.006,1.363-.006" transform="translate(-21.923 -13.434)" fill="#020202"/>
        <path id="Trazado_165480" data-name="Trazado 165480" d="M48.775,36.677c1.318-1.341,2.633-2.686,3.958-4.02a.921.921,0,0,1,1.28-.074.9.9,0,0,1,0,1.284c-1.374,1.4-2.769,2.773-4.156,4.156a2.724,2.724,0,0,1-1.087-1.346" transform="translate(-15.222 -10.098)" fill="#405b6b"/>
        <path id="Trazado_165481" data-name="Trazado 165481" d="M41.19,43.506a2.133,2.133,0,1,1,4.256,0,2.888,2.888,0,0,1-4.256,0" transform="translate(-12.854 -12.869)" fill="#fe5875"/>
        <path id="Trazado_165482" data-name="Trazado 165482" d="M41.191,44.536a5.491,5.491,0,0,0,1.582.733,3.047,3.047,0,0,0,2.366-.562,2.8,2.8,0,0,1,.309-.17,2.13,2.13,0,0,1-4.256,0" transform="translate(-12.855 -13.899)" fill="#e5485d"/>
        <path id="Trazado_165483" data-name="Trazado 165483" d="M37.846,40.325l1.1-1.338c.134.114.262.236.4.338.347.248.33.485,0,.734a1.245,1.245,0,0,0-.2.216c-.615.777-.615.777-1.307.05" transform="translate(-11.811 -12.167)" fill="#2d4355"/>
        <path id="Trazado_165484" data-name="Trazado 165484" d="M48.506,38.636a12.527,12.527,0,0,1,1.086,1.346c-.582.684-.582.684-1.155.065L48.4,40c-.662-.7-.662-.7.109-1.369" transform="translate(-14.953 -12.058)" fill="#2d4355"/>
      </g>
    </g>
    <path id="Trazado_166118" data-name="Trazado 166118" d="M4.691,10.992V15H2.348V3.625H6.785a5.134,5.134,0,0,1,2.254.469,3.454,3.454,0,0,1,1.5,1.332,3.714,3.714,0,0,1,.523,1.965,3.266,3.266,0,0,1-1.145,2.637,4.767,4.767,0,0,1-3.168.965Zm0-1.9H6.785A2.059,2.059,0,0,0,8.2,8.656a1.591,1.591,0,0,0,.488-1.25A1.876,1.876,0,0,0,8.2,6.055,1.839,1.839,0,0,0,6.84,5.523H4.691Zm12.188,1.742H15.012V15H12.668V3.625h4.227a4.778,4.778,0,0,1,3.109.9A3.1,3.1,0,0,1,21.1,7.063,3.5,3.5,0,0,1,20.594,9a3.437,3.437,0,0,1-1.527,1.238l2.461,4.648V15H19.012Zm-1.867-1.9H16.9a1.936,1.936,0,0,0,1.367-.449,1.606,1.606,0,0,0,.484-1.238A1.719,1.719,0,0,0,18.3,5.984a1.9,1.9,0,0,0-1.4-.461H15.012ZM29.723,10.07h-4.5v3.047H30.5V15H22.879V3.625h7.609v1.9H25.223V8.234h4.5Zm8.055,1.945A1.2,1.2,0,0,0,37.309,11a6.148,6.148,0,0,0-1.687-.75,11.963,11.963,0,0,1-1.93-.777,3.153,3.153,0,0,1-1.937-2.82A2.747,2.747,0,0,1,32.273,5a3.389,3.389,0,0,1,1.492-1.129,5.616,5.616,0,0,1,2.184-.406,5.112,5.112,0,0,1,2.172.441A3.458,3.458,0,0,1,39.6,5.156a3.261,3.261,0,0,1,.527,1.828H37.785a1.534,1.534,0,0,0-.492-1.215,2.023,2.023,0,0,0-1.383-.434,2.162,2.162,0,0,0-1.336.363,1.146,1.146,0,0,0-.477.957,1.1,1.1,0,0,0,.559.93,6.311,6.311,0,0,0,1.645.7,7.106,7.106,0,0,1,2.914,1.492A2.972,2.972,0,0,1,40.129,12a2.737,2.737,0,0,1-1.117,2.316,4.891,4.891,0,0,1-3.008.84,5.808,5.808,0,0,1-2.391-.48,3.783,3.783,0,0,1-1.645-1.316,3.371,3.371,0,0,1-.566-1.937h2.352q0,1.883,2.25,1.883a2.189,2.189,0,0,0,1.3-.34A1.106,1.106,0,0,0,37.777,12.016ZM48.559,10.07h-4.5v3.047H49.34V15H41.715V3.625h7.609v1.9H44.059V8.234h4.5ZM59.965,15H57.621L53.059,7.516V15H50.715V3.625h2.344l4.57,7.5v-7.5h2.336ZM70.348,5.523H66.863V15H64.52V5.523H61.082v-1.9h9.266Z" transform="translate(398 466)" fill="#12263f"/>
    <path id="Polígono_59" data-name="Polígono 59" d="M6,0l6,10H0Z" transform="translate(544 479) rotate(90)" fill="#3c3fa7"/>
    <path id="Trazado_165485" data-name="Trazado 165485" d="M2669.261-11146.85c-19.046-1.37-32.716-7.794-40.628-19.093a41.7,41.7,0,0,1-6.348-14.53,56.913,56.913,0,0,1-1.39-13.973,64.186,64.186,0,0,1,1.924-14.692l.962.273a63.177,63.177,0,0,0-1.887,14.468,55.883,55.883,0,0,0,1.369,13.717,40.688,40.688,0,0,0,6.192,14.169c7.732,11.037,21.148,17.316,39.877,18.663Z" transform="translate(-2194 11700)" fill="#3c3fa7"/>
    <circle id="Elipse_4824" data-name="Elipse 4824" cx="4.5" cy="4.5" r="4.5" transform="translate(223 433)" fill="#3c3fa7"/>
    <circle id="Elipse_4825" data-name="Elipse 4825" cx="4.5" cy="4.5" r="4.5" transform="translate(634 433)" fill="#3c3fa7"/>
  </g>
</svg>
