<svg xmlns="http://www.w3.org/2000/svg" width="295" height="284.182" viewBox="0 0 295 284.182">
  <g id="_28" data-name="28" transform="translate(-2.435 -1.751)">
    <path id="Trazado_162003" data-name="Trazado 162003" d="M77.95,3.56c19.926,7.973,40.59,18.73,48.615,36.721,8.906,19.966-.416,42.327-.192,63.789.178,17,6.408,33.422,11.31,49.863s8.5,33.91,3.444,50.314c-3.386,10.982-10.577,20.918-19.861,28.8-16.349,13.884-39.9,21.4-62.284,18.221S16.27,233.629,9.727,214.437c-9.27-27.191,8.838-56.216,4.989-84.411-1.505-11.032-6.325-21.465-9.593-32.2A117.588,117.588,0,0,1,0,62.8c.122-18.1,5.309-37.408,20.576-49.46C35.979,1.185,58.9-4.064,77.95,3.56Z" transform="matrix(-0.719, 0.695, -0.695, -0.719, 288.752, 183.021)" fill="#c4d1ff"/>
    <g id="Grupo_169818" data-name="Grupo 169818" transform="translate(2.435 19.358)">
      <path id="Trazado_117089" data-name="Trazado 117089" d="M1116.943,283.918c-12.01.005-12.689-17.326-9.971-25.141,0,0-15.632-10.195-6.116-29.565s23.787-1.02,25.826,3.4,20.729-16.652,31.264-15.632,10.874,12.234,13.252,12.234,17.958-4.078,26.989,2.039,2.563,12.233,4.438,15.292,15.808,6.457,5.614,16.991c0,0,16.991-1.7,18.69,6.8s-4.078,11.894-3.4,14.952,15.292,20.722-15.292,26.5c0,0-.892,46.56-39.356,28.209S1116.943,283.918,1116.943,283.918Z" transform="translate(-985.58 -216.942)" fill="#a56a42"/>
      <path id="Trazado_117090" data-name="Trazado 117090" d="M1031.265,480.653,1040,567.775h52.184c-5.734-15.157-21.833-57.48-26.832-68.3-6.117-13.253-18.01-14.273-18.01-14.273C1043.343,483.293,1037.51,481.807,1031.265,480.653Z" transform="translate(-811.09 -325.785)" fill="#3bad96"/>
      <path id="Trazado_117091" data-name="Trazado 117091" d="M1264.439,568.173h67.121V481.617a121.459,121.459,0,0,0-13.189,3.7,37.268,37.268,0,0,0-19.773,15.915C1293.118,510.623,1273.331,550.275,1264.439,568.173Z" transform="translate(-1187.4 -326.183)" fill="#3bad96"/>
      <path id="Trazado_117092" data-name="Trazado 117092" d="M1107.623,565.142h110.74V482.565c-4-1.9-9.834-3.391-16.078-4.545a283.214,283.214,0,0,0-32.234-3.611,166.926,166.926,0,0,0-43.78,4.177,121.487,121.487,0,0,0-13.189,3.7l-3.129,47.455-.843,12.877Z" transform="translate(-982.11 -323.152)" fill="#3bad96"/>
      <path id="Trazado_117093" data-name="Trazado 117093" d="M1392.345,486.721l.127,5.763,1.735,76.814h37.373c-4.2-12.51-20.043-60.071-24.184-78.272-.771-3.377-1.14-5.742-.949-6.683Z" transform="translate(-1362.534 -327.307)" fill="#ffaf82"/>
      <path id="Trazado_117094" data-name="Trazado 117094" d="M955.653,629.321h274.8a1.084,1.084,0,0,0,0-2.124h-274.8a1.084,1.084,0,0,0,0,2.124Z" transform="translate(-936.317 -386.269)" fill="#6a2810"/>
      <path id="Trazado_117095" data-name="Trazado 117095" d="M1064.575,605.777c-14.495.319-25.556,17.064-10.782,37.076a2.746,2.746,0,0,0,4.931-1.426,15.727,15.727,0,0,0-.266-4.386s3.738,4.248,6.117-.17c0,0,1.529,3.738,5.778.51,0,0,1.7,4.757,6.626,1.869s9.685-19.03,4.758-27.016S1064.575,605.777,1064.575,605.777Z" transform="translate(-811.841 -377.379)" fill="#ffaf82"/>
      <path id="Trazado_117096" data-name="Trazado 117096" d="M1060.874,648.406a1.062,1.062,0,0,0,.9-.493c4.52-7.128,4.907-16.612,4.921-17.012a1.062,1.062,0,1,0-2.122-.076c0,.092-.387,9.318-4.593,15.951a1.062,1.062,0,0,0,.9,1.63Z" transform="translate(-802.364 -387.344)" fill="#fe976a"/>
      <path id="Trazado_117097" data-name="Trazado 117097" d="M1076.915,646.105a1.063,1.063,0,0,0,1.04-.854,62.375,62.375,0,0,0,.742-18.875,1.062,1.062,0,0,0-2.1.294,61.405,61.405,0,0,1-.722,18.165,1.062,1.062,0,0,0,.834,1.25A1.046,1.046,0,0,0,1076.915,646.105Z" transform="translate(-824.18 -385.552)" fill="#fe976a"/>
      <path id="Trazado_117098" data-name="Trazado 117098" d="M1090.918,646.634a1.063,1.063,0,0,0,.949-1.537c-2.707-5.415-1.1-17.441-1.087-17.562a1.062,1.062,0,0,0-2.1-.288c-.071.52-1.709,12.8,1.291,18.8A1.061,1.061,0,0,0,1090.918,646.634Z" transform="translate(-844.3 -385.911)" fill="#fe976a"/>
      <g id="Grupo_83492" data-name="Grupo 83492" transform="translate(127 206.585)">
        <path id="Trazado_117099" data-name="Trazado 117099" d="M1107.623,581.595a324.953,324.953,0,0,0,71.929,8.318,251.335,251.335,0,0,0,37.324-2.619V574.346c-16.92,2.668-56.772,6.385-108.41-5.628Z" transform="translate(-1107.623 -568.717)" fill="#0091cc"/>
      </g>
      <path id="Trazado_117100" data-name="Trazado 117100" d="M1160.86,399.6v47.724s2.159,13.253,17.112,12.233a17.9,17.9,0,0,0,16.991-14.612V399.6Z" transform="translate(-989.974 -292.333)" fill="#ffaf82"/>
      <path id="Trazado_117101" data-name="Trazado 117101" d="M1160.86,399.6v44.276c20.432-.864,29.14-17.763,34.1-33.728V399.6Z" transform="translate(-989.974 -292.333)" fill="#fe976a"/>
      <path id="Trazado_117102" data-name="Trazado 117102" d="M1161.227,276.451c-15.292,26.761-21.409,94.046,21.409,94.046s55.051-35.172,45.111-75.7S1161.227,276.451,1161.227,276.451Z" transform="translate(-1019.488 -239.005)" fill="#ffaf82"/>
      <path id="Trazado_117103" data-name="Trazado 117103" d="M1118.723,380.479c4.376,13.506,28.369,9.568,29.817-5.6,1.406-14.71-15.338-20.988-26.336-11.308S1118.723,380.479,1118.723,380.479Z" transform="translate(-917.416 -275.547)" fill="#ffaf82"/>
      <path id="Trazado_117104" data-name="Trazado 117104" d="M1137.542,384.486a1.062,1.062,0,0,0,.854-1.692c-.043-.058-4.33-5.992-2.018-10.434a1.062,1.062,0,0,0-1.885-.981c-2.924,5.62,1.983,12.389,2.193,12.674A1.06,1.06,0,0,0,1137.542,384.486Z" transform="translate(-917.585 -280.447)" fill="#fe976a"/>
      <path id="Trazado_117105" data-name="Trazado 117105" d="M1144.309,383.373a14.4,14.4,0,0,0,4.575-.661,1.062,1.062,0,0,0-.686-2.011c-3.639,1.24-8.781-.012-8.833-.025a1.062,1.062,0,0,0-.514,2.061A24.84,24.84,0,0,0,1144.309,383.373Z" transform="translate(-931.217 -284.507)" fill="#fe976a"/>
      <path id="Trazado_117106" data-name="Trazado 117106" d="M1233.549,405.293a21.834,21.834,0,0,0,10.682-3.218,1.062,1.062,0,0,0-1.175-1.769c-.476.315-11.7,7.566-19.05-2.088a1.062,1.062,0,1,0-1.689,1.287A13.6,13.6,0,0,0,1233.549,405.293Z" transform="translate(-1075.681 -291.588)" fill="#6a2810"/>
      <path id="Trazado_117107" data-name="Trazado 117107" d="M1191.572,380.226a6.7,6.7,0,0,0,3.093-.785,4.991,4.991,0,0,0,2.887-4.305,5.657,5.657,0,0,0-2.427-4.858,3.041,3.041,0,0,0-3.112-.192,1.061,1.061,0,1,0,1,1.874.9.9,0,0,1,.984.116,3.54,3.54,0,0,1,1.435,2.973,2.878,2.878,0,0,1-1.744,2.508,4.017,4.017,0,0,1-4.97-.688,6.093,6.093,0,0,1-.732-7.216,5.6,5.6,0,0,1,5.413-3.287,5.235,5.235,0,0,1,4.561,3.468,1.062,1.062,0,0,0,2-.7,7.358,7.358,0,0,0-6.406-4.883,7.727,7.727,0,0,0-7.448,4.409,8.206,8.206,0,0,0,1.1,9.707A6.091,6.091,0,0,0,1191.572,380.226Z" transform="translate(-1009.223 -277.731)" fill="#fe976a"/>
      <path id="Trazado_117108" data-name="Trazado 117108" d="M1269.063,368.992a6.7,6.7,0,0,0,3.093-.785,4.994,4.994,0,0,0,2.888-4.305,5.66,5.66,0,0,0-2.429-4.859,3.042,3.042,0,0,0-3.112-.192,1.062,1.062,0,1,0,1,1.874.9.9,0,0,1,.984.116,3.542,3.542,0,0,1,1.435,2.973,2.879,2.879,0,0,1-1.743,2.507,4.021,4.021,0,0,1-4.971-.688,6.1,6.1,0,0,1-.733-7.217,5.6,5.6,0,0,1,5.414-3.287,5.234,5.234,0,0,1,4.56,3.468,1.062,1.062,0,0,0,2.005-.7,7.359,7.359,0,0,0-6.405-4.882,7.722,7.722,0,0,0-7.449,4.409,8.2,8.2,0,0,0,1.1,9.708A6.087,6.087,0,0,0,1269.063,368.992Z" transform="translate(-1132.22 -273.094)" fill="#fe976a"/>
      <path id="Trazado_117109" data-name="Trazado 117109" d="M1251.524,369.879a1.062,1.062,0,0,0,.6-1.936l-8.392-5.778,8.664-12.549a1.062,1.062,0,0,0-1.749-1.206l-9.267,13.423a1.062,1.062,0,0,0,.272,1.478l9.268,6.381A1.057,1.057,0,0,0,1251.524,369.879Z" transform="translate(-1094.777 -271.014)" fill="#6a2810"/>
      <path id="Trazado_117110" data-name="Trazado 117110" d="M1197.785,342.911c0,2.856,1.149,4.463,2.566,4.463s2.566-1.607,2.566-4.463-1.148-4.387-2.566-4.387S1197.785,340.056,1197.785,342.911Z" transform="translate(-1019.613 -267.123)" fill="#6a2810"/>
      <path id="Trazado_117111" data-name="Trazado 117111" d="M1256.863,335.376c0,2.856,1.149,4.463,2.566,4.463s2.566-1.607,2.566-4.463-1.149-4.387-2.566-4.387S1256.863,332.52,1256.863,335.376Z" transform="translate(-1113.385 -264.013)" fill="#6a2810"/>
      <path id="Trazado_117112" data-name="Trazado 117112" d="M1135.96,283.5c8.3-10.921,13.54-6.117,17.247,0s8.464,1.3,13.9-3.256,15.465-3.2,14.359,3.6,4.752,9.515,12.867,4.417,17.63,6.117,12.873,11.554S1201.8,315,1212.488,316.92s13.1-7.767,12.063-22.124-4.712-40.864-41.782-43.242-44.654,13.593-46.809,19.37S1135.96,283.5,1135.96,283.5Z" transform="translate(-1004.596 -231.129)" fill="#a56a42"/>
      <path id="Trazado_117113" data-name="Trazado 117113" d="M1142.678,282.751c3.207-3.6,5.9-4.642,8.192-4.2,2.722.532,4.885,3.153,6.663,6.1,1.49,2.452,3.153,3.059,4.966,2.614h.007c2.492-.613,5.269-3.206,8.259-5.713a11.436,11.436,0,0,1,8.172-2.486c3.4.324,6.077,2.318,5.49,5.909-.74,4.554,1.806,7.182,6.071,6.65a15.6,15.6,0,0,0,6.177-2.446,7.676,7.676,0,0,1,5.181-1.165c5.9.788,10.591,8.138,7.068,12.16-4.527,5.174-5.147,14.458,5.026,16.284a12.192,12.192,0,0,0,3.361.181c7.317-.66,8.981-9.229,8.118-21.235-.984-13.663-4.487-38.887-39.762-41.15q-3.193-.2-6.1-.223h-.1c-28.215.418-34.441,13.616-36.327,18.655A19.45,19.45,0,0,0,1142.678,282.751Z" transform="translate(-1009.708 -232.252)" fill="#fe976a"/>
      <path id="Trazado_117114" data-name="Trazado 117114" d="M1139.09,281.5c.248,1.239.489,2,.489,2,3.108-4.092,5.792-5.975,8.121-6.414,3.893-.722,6.811,2.591,9.126,6.414a5.58,5.58,0,0,0,3.093,2.747h.007c3.13.885,6.782-2.627,10.8-6a11.921,11.921,0,0,1,6.463-2.613c4.474-.41,8.623,1.707,7.894,6.209-.644,3.972,1.083,6.549,4.255,6.987,2.259.319,5.239-.453,8.616-2.57a8.314,8.314,0,0,1,3.32-1.224c7.1-.949,13.664,8.078,9.551,12.778-4.757,5.438-5.408,15.193,5.282,17.112.488.085.956.149,1.409.191,7.688-.694,9.437-9.7,8.531-22.315-1.033-14.357-4.715-40.864-41.785-43.242q-3.355-.213-6.407-.234h-.106c-29.649.439-36.191,14.308-38.173,19.6C1138.149,274.766,1138.616,279.049,1139.09,281.5Z" transform="translate(-1008.218 -231.133)" fill="#a56a42"/>
      <path id="Trazado_117115" data-name="Trazado 117115" d="M1425.4,450.744c3.405,6.287,13.771,9.855,18.018,10.2s10.309,2.371,10.365,4.927l.127,5.763,14.924-1.458c-.772-3.377-1.14-5.742-.949-6.683,0,0,.171-5.777,4.588-12.913s.51-13.763-2.888-10.7-3.4,9.516-7.306,10.025-11.554-2.378-18.011-7.476-11.214-12.063-14.1-6.627c0,0-6.287-.849-4.418,6.287C1425.746,442.079,1421.994,444.458,1425.4,450.744Z" transform="translate(-1423.971 -306.453)" fill="#ffaf82"/>
      <path id="Trazado_117116" data-name="Trazado 117116" d="M1486.685,452.788a1.062,1.062,0,0,0,.3-2.08c-14.64-4.343-16.228-14.324-16.241-14.424a1.062,1.062,0,0,0-2.1.3c.067.464,1.809,11.433,17.74,16.16A1.061,1.061,0,0,0,1486.685,452.788Z" transform="translate(-1463.5 -307.096)" fill="#fe976a"/>
      <path id="Trazado_117117" data-name="Trazado 117117" d="M1495.163,459.926a1.062,1.062,0,0,0,.128-2.116c-10.293-1.267-14.747-11-14.791-11.1a1.062,1.062,0,0,0-1.941.861c.2.446,4.964,10.932,16.474,12.348A1.076,1.076,0,0,0,1495.163,459.926Z" transform="translate(-1477.755 -311.515)" fill="#fe976a"/>
      <path id="Trazado_117118" data-name="Trazado 117118" d="M1106.878,597.437a1.062,1.062,0,0,0,1.062-1.062V551.01a1.062,1.062,0,0,0-2.125,0v45.366A1.063,1.063,0,0,0,1106.878,597.437Z" transform="translate(-870.625 -354.385)" fill="#6a2810"/>
      <path id="Trazado_117119" data-name="Trazado 117119" d="M1289.671,593.107a1.062,1.062,0,0,0,1.059-.992l3.392-51.527a1.062,1.062,0,1,0-2.12-.14l-3.393,51.527a1.064,1.064,0,0,0,.991,1.13Z" transform="translate(-1164.157 -350.055)" fill="#6a2810"/>
    </g>
  </g>
</svg>
