<svg xmlns="http://www.w3.org/2000/svg" xmlns:xlink="http://www.w3.org/1999/xlink" width="293.682" height="315" viewBox="0 0 293.682 315">
  <defs>
    <clipPath id="clip-path">
      <rect id="Rectángulo_40910" data-name="Rectángulo 40910" width="293.682" height="241.256" fill="none"/>
    </clipPath>
  </defs>
  <g id="_31" data-name="31" transform="translate(4.581 -0.001)">
    <path id="Trazado_141266" data-name="Trazado 141266" d="M314.98,75.021c-2.4-37.088-30.846-72.5-69.375-74.7C201.352-3.065,160.732,21.2,116.651,21.46,94.173,23.387,73.092,14.78,51.187,12,1.712,10.185-5.826,68.325,3.4,105.8,42.315,282.475,317.674,258.437,314.98,75.021Z" transform="translate(252.725 0.001) rotate(90)" fill="#ffdfe0"/>
    <path id="Trazado_114646" data-name="Trazado 114646" d="M71.033,170.157c1.808,27.971,23.263,54.677,52.321,56.334,33.375,2.557,64.009-15.746,97.254-15.939,16.952-1.453,32.85,5.038,49.371,7.134,37.313,1.37,43-42.478,36.039-70.741C276.67,13.7,69,31.83,71.033,170.157Z" transform="translate(-31.926 -29.552)" fill="#6b8dff"/>
    <g id="Grupo_165562" data-name="Grupo 165562" transform="translate(-4.581 54.338)">
      <g id="Grupo_165562-2" data-name="Grupo 165562" clip-path="url(#clip-path)">
        <path id="Trazado_150188" data-name="Trazado 150188" d="M169.612,24.952c.305-.074,1.8,1.081,2.1,1.273,2.22,1.441,4.569,3.3,5.155,6.025.218,1.016.28,2.062.519,3.073.6,2.535,2.929,4.571,2.781,7.222a4.685,4.685,0,0,1-2.1,3.49c-2.828,2.067-6.793,2.574-10.18,2.92-1.657.169-3.32.256-4.983.313-2.008.067-5.867.395-7.263-1.488-2.377-3.2,2.487-16.212,5.472-18.646s8.507-4.182,8.508-4.182" transform="translate(7.639 1.23)" fill="#2b244a"/>
        <path id="Trazado_150189" data-name="Trazado 150189" d="M168.232,34.624a6.414,6.414,0,0,0,1.217,6.266,23.945,23.945,0,0,0,2.845,2.3,6.09,6.09,0,0,1,1.943,3.4c.161.656,1.172.379,1.013-.279a7.472,7.472,0,0,0-1.477-3.141,19.674,19.674,0,0,0-2.777-2.262,5.4,5.4,0,0,1-1.751-6.008c.224-.639-.79-.914-1.011-.279" transform="translate(8.274 1.689)" fill="#8c75b5"/>
        <path id="Trazado_150190" data-name="Trazado 150190" d="M146.659,26.392l-5.681,20.545s6.708,4.776,18.592,1.4L162.352,36.8Z" transform="translate(6.948 1.301)" fill="#ffa58f"/>
        <path id="Trazado_150191" data-name="Trazado 150191" d="M293.335,177.269a25.79,25.79,0,0,0-8.59-15.2c-4.728-4.182-10.632-7.008-16.655-9.2a127.926,127.926,0,0,0-21.266-5.581c-14.675-2.612-29.664-3.121-44.566-3.239-15.181-.121-30.383.174-45.54-.813-.722-.047-.717,1,0,1.049.265.018,1.081,1.184,2.272,3.134h-24.21c1.19-1.951,2.006-3.116,2.272-3.134.717-.046.722-1.1,0-1.049-15.157.987-30.359.693-45.54.813-14.9.119-29.891.627-44.566,3.239a127.911,127.911,0,0,0-21.267,5.581c-6.022,2.188-11.927,5.013-16.655,9.2a25.788,25.788,0,0,0-8.589,15.2C-.492,183-.009,191.377,2.609,196.624c5.3,10.625,19.078,15.049,33.423,15.867,1.553.088,72.094-.514,73.949-.551h73.808c1.855.037,75.624.2,77.177.113,12.271-.652,24.441-7.247,29.742-17.872a27.983,27.983,0,0,0,2.628-16.912" transform="translate(0 7.059)" fill="#2b244a"/>
        <path id="Trazado_150192" data-name="Trazado 150192" d="M153.024,171.241a273.3,273.3,0,0,0-1.731,30.545q-.016,4.146.113,8.29c.022.674,1.071.677,1.049,0a273.154,273.154,0,0,1,.816-30.582q.329-4.133.8-8.253c.078-.669-.972-.664-1.049,0" transform="translate(7.456 8.414)" fill="#8c75b5"/>
        <path id="Trazado_150193" data-name="Trazado 150193" d="M130.077,171.379a151.946,151.946,0,0,1,8.024,24.836c.152.658,1.164.38,1.012-.278a151.925,151.925,0,0,0-8.024-24.838c-.258-.613-1.274-.343-1.012.279" transform="translate(6.408 8.415)" fill="#8c75b5"/>
        <path id="Trazado_150194" data-name="Trazado 150194" d="M118.753,170.089a151.945,151.945,0,0,1,8.024,24.837c.152.658,1.164.38,1.013-.279a152.051,152.051,0,0,0-8.025-24.837c-.258-.613-1.274-.343-1.012.279" transform="translate(5.85 8.352)" fill="#8c75b5"/>
        <path id="Trazado_150195" data-name="Trazado 150195" d="M45.244,160.677l35.038,4.554,34.778,4.519,19.725,2.563c.667.087.661-.963,0-1.049L99.748,166.71,64.97,162.191l-19.725-2.563c-.667-.087-.661.963,0,1.049" transform="translate(2.205 7.866)" fill="#8c75b5"/>
        <path id="Trazado_150196" data-name="Trazado 150196" d="M242.957,122.6a104.062,104.062,0,0,0-3.041-10.013q-1.786-4.958-3.952-9.819a152.988,152.988,0,0,0-9.729-18.367,155.525,155.525,0,0,0-12.428-17.334,64.953,64.953,0,0,0-14.283-13.328A38.779,38.779,0,0,0,190.6,49.4a47.485,47.485,0,0,0-11.621-2.063c-8.458-.6-16.961-.749-25.421-1.051-8.342-.3-16.82-.863-25.1-.264a52.6,52.6,0,0,0-20.065,5.439C96.257,57.589,87.2,67.348,78.669,76.819Q71.252,85.055,64.448,93.7c-4.462,5.668-8.9,11.427-12.752,17.447-3.393,5.31-5.882,11.179-4.916,17.517a24.178,24.178,0,0,0,8.872,14.908c5.219,4.2,12.17,6.39,19.037,6.678,7.133.3,18.685-1.134,27.479-2.725,9.047-1.636,18.068-3.815,28.391-3.338q17.2.8,34.41,1.709,8.631.458,17.262.949a107.8,107.8,0,0,0,42.558,9.755c13.388.2,25.03-6.567,18.168-34" transform="translate(2.295 2.255)" fill="#ffeae0"/>
        <path id="Trazado_150197" data-name="Trazado 150197" d="M131.632,46.571c-3.094,3.048-2.34,7.733-2.371,11.663a11.758,11.758,0,0,1-1.37,6.188c-1.339,2.18-3.327,3.8-3.993,6.373a17.685,17.685,0,0,0,.173,7.317,22.028,22.028,0,0,1,.375,7.984c-.516,2.612-1.611,5.062-2.214,7.65a14.112,14.112,0,0,0-.41,3.79,21.184,21.184,0,0,0,.652,3.984,26.3,26.3,0,0,1,.88,4.745,15.15,15.15,0,0,1-.583,4.52c-.734,2.851-1.819,5.671-1.616,8.666.045.669,1.1.675,1.049,0-.182-2.669.707-5.2,1.4-7.734a16.62,16.62,0,0,0,.509-7.7c-.507-2.685-1.464-5.286-1.2-8.061.249-2.635,1.325-5.111,2.058-7.631a17.9,17.9,0,0,0,.585-7.483c-.329-2.536-.995-5.063-.929-7.636a8.45,8.45,0,0,1,.871-3.693,19.844,19.844,0,0,1,2.227-3.075,11.09,11.09,0,0,0,2.447-5.757c.288-2.366.04-4.753.094-7.128.051-2.271.423-4.583,2.107-6.242.482-.474-.26-1.216-.742-.742" transform="translate(5.969 2.288)" fill="#dec6bd"/>
        <path id="Trazado_150198" data-name="Trazado 150198" d="M107.462,50.6c-6.9,4.144-3.455,14.29-8.919,19.505-1.745,1.666-3.918,2.831-5.356,4.815a12.467,12.467,0,0,0-2.043,5.966c-.27,2.326-.2,4.674-.365,7.007a17.514,17.514,0,0,1-1.747,6.679c-1.193,2.4-2.761,4.589-3.94,6.995a16.583,16.583,0,0,0-1.315,3.537,18.741,18.741,0,0,0-.357,4.739.525.525,0,0,0,1.049,0,15.948,15.948,0,0,1,1.44-7.563c.994-2.077,2.293-3.986,3.406-6a18.691,18.691,0,0,0,2.295-6.36,66.4,66.4,0,0,0,.406-6.666,16.226,16.226,0,0,1,1.29-6.5c1.059-2.146,2.971-3.436,4.788-4.886a11.727,11.727,0,0,0,3.622-4.578,25.2,25.2,0,0,0,1.47-5.3c.717-3.761,1.2-8.317,4.806-10.485a.525.525,0,0,0-.53-.906" transform="translate(4.11 2.49)" fill="#dec6bd"/>
        <path id="Trazado_150199" data-name="Trazado 150199" d="M75.588,77.431c-2.482,3.133-2.007,7.193-2.21,10.936a14.336,14.336,0,0,1-1.438,5.728c-.9,1.813-2.049,3.491-2.944,5.307a14.054,14.054,0,0,0-1.4,7.01c.026.673,1.076.677,1.049,0a12.841,12.841,0,0,1,1.128-6.207c.837-1.768,1.937-3.394,2.844-5.126A15.08,15.08,0,0,0,74.3,89.865c.233-1.9.155-3.823.249-5.733a10.122,10.122,0,0,1,1.781-5.959c.414-.524-.323-1.272-.742-.742" transform="translate(3.33 3.807)" fill="#dec6bd"/>
        <path id="Trazado_150200" data-name="Trazado 150200" d="M48.058,131.359c2.479,2.165,5.771,2.067,8.86,1.782,3.385-.312,6.9-.829,9.952,1.04,1.616.992,3.053,2.26,4.891,2.844a11.7,11.7,0,0,0,5.5.162c1.936-.331,3.819-.907,5.742-1.3a16.047,16.047,0,0,1,6.2-.117c2.287.417,4.508,1.152,6.812,1.484a15.528,15.528,0,0,0,6.913-.647c.645-.2.37-1.21-.278-1.013a14.489,14.489,0,0,1-6.154.676c-2.029-.255-3.995-.87-5.989-1.3a17.4,17.4,0,0,0-5.789-.418,49.315,49.315,0,0,0-5.585,1.175,16.526,16.526,0,0,1-5.6.612,11.131,11.131,0,0,1-5.074-2.354,11.179,11.179,0,0,0-4.585-2.035,19.526,19.526,0,0,0-4.786-.058c-3.362.283-7.5,1.174-10.3-1.271-.507-.443-1.252.3-.742.742" transform="translate(2.36 6.43)" fill="#dec6bd"/>
        <path id="Trazado_150201" data-name="Trazado 150201" d="M49.5,112.585c2.481,2.165,5.771,2.067,8.86,1.782,3.385-.313,6.9-.829,9.952,1.04,1.616.992,3.053,2.26,4.891,2.844a11.7,11.7,0,0,0,5.5.162c1.936-.331,3.819-.907,5.742-1.3a16.046,16.046,0,0,1,6.2-.116c2.287.417,4.508,1.152,6.812,1.484a15.535,15.535,0,0,0,6.914-.647c.644-.2.369-1.209-.279-1.013a14.487,14.487,0,0,1-6.154.676c-2.029-.255-3.995-.87-5.989-1.3a17.4,17.4,0,0,0-5.789-.418,49.086,49.086,0,0,0-5.585,1.175,16.527,16.527,0,0,1-5.6.612,11.131,11.131,0,0,1-5.074-2.354,11.179,11.179,0,0,0-4.585-2.035,19.579,19.579,0,0,0-4.786-.059c-3.362.284-7.5,1.175-10.3-1.27-.507-.443-1.252.3-.742.742" transform="translate(2.431 5.505)" fill="#dec6bd"/>
        <path id="Trazado_150202" data-name="Trazado 150202" d="M237.337,134.5c-2.46,2.147-5.97,1.683-8.968,1.393-3.229-.312-6.546-.565-9.45,1.154-1.6.95-3.017,2.274-4.821,2.847a11.24,11.24,0,0,1-5.59.043c-1.894-.374-3.746-.937-5.645-1.287a16.626,16.626,0,0,0-5.643-.106c-2.262.35-4.447,1.072-6.7,1.47a14.649,14.649,0,0,1-7.039-.538c-.647-.2-.923.816-.278,1.013a15.267,15.267,0,0,0,6.2.739,51.339,51.339,0,0,0,5.927-1.239,17.339,17.339,0,0,1,6.226-.489c1.967.256,3.875.834,5.807,1.268a15.685,15.685,0,0,0,5.573.456,11.729,11.729,0,0,0,5.082-2.333,10.7,10.7,0,0,1,4.8-2.091,22.962,22.962,0,0,1,5.071.1c3.478.331,7.338.83,10.184-1.656.51-.445-.235-1.185-.742-.742" transform="translate(9.01 6.621)" fill="#dec6bd"/>
        <path id="Trazado_150203" data-name="Trazado 150203" d="M234.557,115.72c-2.46,2.148-5.97,1.683-8.969,1.393-3.228-.312-6.545-.565-9.449,1.154-1.6.95-3.017,2.275-4.821,2.848a11.252,11.252,0,0,1-5.59.042c-1.894-.374-3.746-.937-5.645-1.287a16.626,16.626,0,0,0-5.643-.106c-2.262.35-4.447,1.072-6.7,1.471a14.675,14.675,0,0,1-7.039-.538c-.647-.2-.923.815-.278,1.011a15.267,15.267,0,0,0,6.2.739,51.339,51.339,0,0,0,5.927-1.239,17.339,17.339,0,0,1,6.226-.489c1.967.256,3.875.834,5.807,1.268a15.686,15.686,0,0,0,5.573.456,11.729,11.729,0,0,0,5.082-2.333,10.7,10.7,0,0,1,4.8-2.091,23.029,23.029,0,0,1,5.071.1c3.478.331,7.338.83,10.184-1.656.51-.445-.235-1.185-.742-.742" transform="translate(8.873 5.696)" fill="#dec6bd"/>
        <path id="Trazado_150204" data-name="Trazado 150204" d="M115.8,47.561c-3.168,3.1-2.305,7.894-2.375,11.885a10.984,10.984,0,0,1-1.717,6.361c-.733,1.041-1.62,1.965-2.344,3.014a8.792,8.792,0,0,0-1.465,3.571c-.516,3.117.375,6.253.793,9.328.091.666,1.1.383,1.013-.279-.366-2.688-1.107-5.4-.872-8.133a8.012,8.012,0,0,1,1.318-3.783c.665-1,1.494-1.883,2.214-2.847,2.7-3.607,1.971-7.985,2.069-12.2.052-2.253.43-4.537,2.107-6.177.484-.473-.258-1.214-.742-.742" transform="translate(5.31 2.336)" fill="#dec6bd"/>
        <path id="Trazado_150205" data-name="Trazado 150205" d="M144.1,58.443c-3,3.252-1.962,7.948-1.828,11.944a11.335,11.335,0,0,1-1.283,6.427c-1.288,2.125-3.057,3.851-3.52,6.39-.937,5.127,2.1,10.04,1.289,15.2-.413,2.637-1.4,5.141-1.857,7.769a13.756,13.756,0,0,0-.186,3.858,22.672,22.672,0,0,0,.847,3.855,25.622,25.622,0,0,1,1.075,4.583,14.789,14.789,0,0,1-.333,4.381c-.6,2.933-1.593,5.852-1.242,8.883.077.662,1.127.671,1.049,0-.309-2.669.459-5.242,1.036-7.819a16.561,16.561,0,0,0,.167-7.625c-.615-2.606-1.694-5.126-1.612-7.85.081-2.658,1.026-5.191,1.654-7.749a17.993,17.993,0,0,0,.337-7.38c-.416-2.522-1.216-5-1.335-7.565a9.118,9.118,0,0,1,.516-3.68,13.7,13.7,0,0,1,1.934-3.14,13.614,13.614,0,0,0,1.784-2.972,10.765,10.765,0,0,0,.68-3.043,60.074,60.074,0,0,0-.217-7.243c-.068-2.305.153-4.707,1.788-6.479.457-.5-.282-1.239-.742-.742" transform="translate(6.734 2.872)" fill="#dec6bd"/>
        <path id="Trazado_150206" data-name="Trazado 150206" d="M157.644,56.508c-2.424,3.717-.546,8.266.243,12.187a11.1,11.1,0,0,1-.314,6.625c-.974,2.32-2.349,4.327-2.321,6.944a19.4,19.4,0,0,0,1.831,6.894,21.346,21.346,0,0,1,1.968,7.492c.057,2.763-.537,5.491-.536,8.252a16.7,16.7,0,0,0,1.972,7.384,27.324,27.324,0,0,1,1.719,4.032,14.291,14.291,0,0,1,.477,4.514c-.087,3.05-.6,6.134.264,9.125a.525.525,0,0,0,1.011-.279c-.772-2.662-.383-5.427-.254-8.146a16.161,16.161,0,0,0-1.185-7.371c-1.031-2.4-2.466-4.67-2.834-7.3-.376-2.688.161-5.406.349-8.086a18.055,18.055,0,0,0-1.046-7.592,57.3,57.3,0,0,1-2.42-6.765,9.036,9.036,0,0,1-.152-3.616,13.728,13.728,0,0,1,1.431-3.615,11.485,11.485,0,0,0,1.412-6.319,63.763,63.763,0,0,0-1.433-7.153c-.452-2.274-.6-4.653.721-6.674.37-.568-.537-1.094-.906-.53" transform="translate(7.651 2.773)" fill="#dec6bd"/>
        <path id="Trazado_150207" data-name="Trazado 150207" d="M174.574,47.9c-2.5,3.658-.719,8.258-.018,12.191a11.034,11.034,0,0,1-.485,6.655c-1.036,2.277-2.423,4.256-2.452,6.854a19.425,19.425,0,0,0,1.681,6.932,21.322,21.322,0,0,1,1.8,7.534c0,2.765-.658,5.478-.718,8.239a16.688,16.688,0,0,0,1.813,7.424,27.4,27.4,0,0,1,1.626,4.071,14.318,14.318,0,0,1,.375,4.523c-.155,3.049-.737,6.117.065,9.128a.525.525,0,0,0,1.011-.279c-.712-2.676-.259-5.436-.07-8.15a16.09,16.09,0,0,0-1.058-7.473c-1-2.418-2.366-4.733-2.645-7.38-.283-2.67.293-5.336.538-7.984a18.055,18.055,0,0,0-.881-7.613,57.485,57.485,0,0,1-2.27-6.817,9.017,9.017,0,0,1-.065-3.618,13.789,13.789,0,0,1,1.513-3.581,11.487,11.487,0,0,0,1.547-6.287,64.02,64.02,0,0,0-1.278-7.182c-.4-2.285-.485-4.664.878-6.656.382-.559-.527-1.084-.907-.53" transform="translate(8.458 2.349)" fill="#dec6bd"/>
        <path id="Trazado_150208" data-name="Trazado 150208" d="M187.575,51.125c-1.429,3.493.406,7.069,1.834,10.233a18.828,18.828,0,0,1,1.8,5.438c.269,2.3-.7,4.344-1.113,6.555-.766,4.079,1.535,7.447,3.621,10.722a19.505,19.505,0,0,1,2.693,5.6,54.813,54.813,0,0,1,.9,6.99,16.223,16.223,0,0,0,2.444,7.089c1.384,2.137,3.088,4.087,4.138,6.428.276.615,1.18.082.906-.53a36.487,36.487,0,0,0-3.585-5.605,15.292,15.292,0,0,1-2.676-6.173c-.393-2.253-.418-4.552-.774-6.81a16.8,16.8,0,0,0-2.115-5.85c-1.858-3.217-4.812-6.457-4.671-10.4.081-2.261,1.22-4.336,1.334-6.6a12.751,12.751,0,0,0-1.091-5.286c-1.408-3.546-4.236-7.588-2.628-11.517.256-.624-.759-.9-1.012-.279" transform="translate(9.219 2.502)" fill="#dec6bd"/>
        <path id="Trazado_150209" data-name="Trazado 150209" d="M200.671,61.431a7.608,7.608,0,0,0,1.754,4.324,38.338,38.338,0,0,0,3.264,3.116,8.666,8.666,0,0,1,2.555,4.041c.623,2.4-.085,4.909.5,7.317.9,3.724,4.207,6.139,6.812,8.67a16.708,16.708,0,0,1,3.569,4.744c.967,2.016,1.557,4.186,2.408,6.25a15.742,15.742,0,0,0,4.01,5.8c1.855,1.694,3.96,3.143,5.539,5.118.422.528,1.159-.219.742-.742A35.76,35.76,0,0,0,227,105.582a15.246,15.246,0,0,1-4.005-4.969c-.953-1.983-1.537-4.116-2.368-6.149a16.876,16.876,0,0,0-3.066-5.009c-2.418-2.685-5.821-4.786-7.348-8.173-1.019-2.261-.487-4.667-.688-7.05a8.792,8.792,0,0,0-1.862-4.765,37.565,37.565,0,0,0-3.59-3.488,7.05,7.05,0,0,1-2.347-4.549c-.055-.668-1.1-.675-1.049,0" transform="translate(9.889 3.003)" fill="#dec6bd"/>
        <path id="Trazado_150210" data-name="Trazado 150210" d="M140.977,46.085s1.19,6.968,9.7,6.968c7.753,0,9.073-6.321,9.073-6.321L151.6,43.675Z" transform="translate(6.948 2.152)" fill="#ffa58f"/>
        <path id="Trazado_150211" data-name="Trazado 150211" d="M65.349,105.591a254.868,254.868,0,0,1,32.773,5.347c2.789.638,5.565,1.332,8.311,2.134a.525.525,0,0,0,.279-1.012c-5.152-1.507-10.407-2.659-15.672-3.688q-8.539-1.67-17.166-2.837c-2.835-.383-5.677-.725-8.525-.994-.672-.063-.667.986,0,1.049" transform="translate(3.196 5.152)" fill="#2b244a"/>
        <path id="Trazado_150212" data-name="Trazado 150212" d="M212.554,106.143a185.7,185.7,0,0,0-27.289,3.3q-3.9.768-7.772,1.705c-.656.157-.379,1.17.279,1.012a184.689,184.689,0,0,1,27.016-4.447q3.877-.343,7.766-.52c.673-.031.676-1.081,0-1.049" transform="translate(8.729 5.231)" fill="#2b244a"/>
        <path id="Trazado_150213" data-name="Trazado 150213" d="M184.517,81.633q1.969,14.335,3.1,28.767c.052.668,1.1.675,1.049,0q-1.147-14.565-3.141-29.046c-.091-.666-1.1-.382-1.012.279" transform="translate(9.093 3.991)" fill="#2b244a"/>
        <path id="Trazado_150214" data-name="Trazado 150214" d="M108.348,79.86q-1.988,14.475-3.139,29.046c-.054.673,1,.669,1.049,0q1.136-14.425,3.1-28.767c.091-.661-.92-.946-1.012-.279" transform="translate(5.185 3.917)" fill="#2b244a"/>
        <path id="Trazado_150215" data-name="Trazado 150215" d="M88.109,102.7,93.238,175.3H194.365l5.113-72.6a1.214,1.214,0,0,0-1.211-1.3H89.319a1.214,1.214,0,0,0-1.21,1.307" transform="translate(4.342 4.997)" fill="#d9a389"/>
        <path id="Trazado_150216" data-name="Trazado 150216" d="M141.746,145.2c-5.734,0-10.4-3.68-10.4-8.2s4.666-8.2,10.4-8.2,10.4,3.679,10.4,8.2-4.666,8.2-10.4,8.2m0-15.353c-5.156,0-9.351,3.209-9.351,7.152s4.2,7.152,9.351,7.152S151.1,140.941,151.1,137s-4.2-7.152-9.351-7.152" transform="translate(6.473 6.347)" fill="#2b244a"/>
        <path id="Trazado_150217" data-name="Trazado 150217" d="M155.5,184.374c-2.6-.049-13.687-.1-16.261.161a9.341,9.341,0,0,0-5.421,2.38c-4.007,3.547-14.443,14.607-18.2,18.411-3.35,3.388-6.726,6.767-9.753,10.453-2.884,3.512-6.485,7.5-5.469,12.394a4.626,4.626,0,0,0,3.814,3.969,11.724,11.724,0,0,0,4.477-.858c1.489-.443,31.76-17.739,38.516-21.252,2.446-.036,5.246-.058,7.881-.115,0,0-.169-8.34-.141-12.031.02-2.695.558-13.511.558-13.511" transform="translate(4.939 9.084)" fill="#ffeae0"/>
        <path id="Trazado_150218" data-name="Trazado 150218" d="M138.017,184.537a9.3,9.3,0,0,0-5.425,2.382c-1.7,1.511-4.564,4.375-7.586,7.46a16.983,16.983,0,0,0,20.681-7.639,16.745,16.745,0,0,0,1.133-2.4c-3.631.01-7.429.063-8.8.2" transform="translate(6.16 9.085)" fill="#dec6bd"/>
        <path id="Trazado_150219" data-name="Trazado 150219" d="M117.508,222.172a20.709,20.709,0,0,0-8.447-10.377c-.2-.126-.4-.252-.609-.357-.881.976-1.752,1.983-2.592,3-2.886,3.515-6.485,7.5-5.467,12.4a4.622,4.622,0,0,0,3.809,3.966,11.813,11.813,0,0,0,4.48-.86c.514-.147,4.407-2.287,9.58-5.162v-.01a18.9,18.9,0,0,0-.755-2.6" transform="translate(4.939 10.42)" fill="#dec6bd"/>
        <path id="Trazado_150220" data-name="Trazado 150220" d="M163.964,169.783a289.287,289.287,0,0,0-1.817,32.169c-.013,2.9.019,5.8.114,8.706.022.674,1.071.677,1.049,0a289.43,289.43,0,0,1,.865-32.209c.23-2.894.5-5.784.838-8.666.078-.669-.972-.664-1.049,0" transform="translate(7.991 8.343)" fill="#8c75b5"/>
        <path id="Trazado_150221" data-name="Trazado 150221" d="M243.008,159.627l-35.038,4.554L173.192,168.7l-19.725,2.563c-.66.086-.668,1.136,0,1.049l35.038-4.554,34.778-4.519,19.725-2.563c.66-.086.668-1.136,0-1.049" transform="translate(7.539 7.866)" fill="#8c75b5"/>
        <path id="Trazado_150222" data-name="Trazado 150222" d="M130.858,15.85C129.764,4.57,138.608.264,149.232.589s14.076,4.1,17.356,12.588,6.4,18.694,6.763,21.565c.454,3.565-1.653,9.679-9.877,8.885a40.055,40.055,0,0,1-19.107-7.212c-3.211-2.219-12.414-9.286-13.508-20.566" transform="translate(6.444 0.028)" fill="#ffa58f"/>
        <path id="Trazado_150223" data-name="Trazado 150223" d="M166.083,11.833s-.089-5.57-6.409-9.215c-4.8-2.767-15.64-3.781-23.285.232s-8.99,15.858-1.283,25.089c5.771,6.912,6.332,7.54,6.332,7.54s8.654-3.024,6.735-14a6.424,6.424,0,0,0,5.644-4.722c.916-4.535,1.727-7.553,4.452-8.438,1.89-.614,3.622-.714,4.935.327a21.478,21.478,0,0,1,2.878,3.189" transform="translate(6.404 0.009)" fill="#2b244a"/>
        <path id="Trazado_150224" data-name="Trazado 150224" d="M131.011,17.107c.758-1.774,3.091-1.9,4.613-2.707a8.961,8.961,0,0,0,3.655-3.654c.469-.869.825-1.794,1.343-2.636a11.557,11.557,0,0,1,1.748-2.157,13.474,13.474,0,0,1,4.691-3.024c.627-.234.356-1.249-.279-1.013a14.726,14.726,0,0,0-4.845,3,14.928,14.928,0,0,0-3.244,4.668,8.367,8.367,0,0,1-3.964,4.093c-1.66.776-3.811,1-4.623,2.9-.262.614.641,1.15.906.53" transform="translate(6.409 0.093)" fill="#8c75b5"/>
        <path id="Trazado_150225" data-name="Trazado 150225" d="M147.982,20.582s6.285,14.373-6.511,16.942c0,0-8.12-6.194-7.592-7.423s7.1-11.745,7.1-11.745Z" transform="translate(6.597 0.905)" fill="#2b244a"/>
        <path id="Trazado_150226" data-name="Trazado 150226" d="M124.345,45.371a4.978,4.978,0,0,0,3.34,4.365,11.241,11.241,0,0,0,4.608.358c2.487-.193,4.863-.563,7.278.237,2.17.72,4.249,1.961,6.594,1.974a6.546,6.546,0,0,0,6.288-5.247c.571-3.314-1.578-6.45-1.68-9.743-.086-2.765.27-6.134-2.5-7.771,0,0-10.96-8.679-12.231-6.625-.8,1.286-.7,2.895-1.685,4.089-1.363,1.652-3.274,2.361-4.211,4.41-.892,1.953-1.049,4.157-1.986,6.1-1.251,2.585-4.065,4.727-3.811,7.858" transform="translate(6.127 1.114)" fill="#2b244a"/>
        <path id="Trazado_150227" data-name="Trazado 150227" d="M142.469,51.285c2.712-2.506,2.895-6.51,3-9.95a23.373,23.373,0,0,1,.794-6.181,17.451,17.451,0,0,0,1.235-5.669c-.023-.674-1.073-.677-1.049,0a16.678,16.678,0,0,1-1.2,5.39,22.055,22.055,0,0,0-.808,5.724c-.118,3.367-.027,7.459-2.718,9.945-.5.46.247,1.2.742.742" transform="translate(6.976 1.428)" fill="#8c75b5"/>
        <path id="Trazado_150228" data-name="Trazado 150228" d="M135.05,27.244a11.779,11.779,0,0,0,4.5-4.275c1.057-2.048.955-4.478,2.179-6.459a6.82,6.82,0,0,1,2.288-2.282,19.76,19.76,0,0,1,3.314-1.335,17.688,17.688,0,0,0,4.276-2.356,14.357,14.357,0,0,0,4.355-4.826c.311-.6-.595-1.129-.906-.529a15.156,15.156,0,0,1-8.11,6.737c-2.012.738-3.966,1.347-5.391,3.052a8.625,8.625,0,0,0-1.453,2.492,35.264,35.264,0,0,0-.887,3.416c-.685,2.545-2.534,4.11-4.694,5.456-.572.357-.045,1.265.53.907" transform="translate(6.617 0.242)" fill="#8c75b5"/>
        <path id="Trazado_150229" data-name="Trazado 150229" d="M128.553,49.225a20.547,20.547,0,0,1,1.239-6.346,11.017,11.017,0,0,1,3.739-4.362,40.424,40.424,0,0,0,4.424-3.459,16.746,16.746,0,0,0,2.958-4.461c.933-1.845,1.858-3.823,3.56-5.09.535-.4.013-1.309-.53-.906-3.182,2.369-3.79,6.54-6.393,9.365-2.685,2.914-6.753,4.338-8.53,8.089a20.81,20.81,0,0,0-1.516,7.17c-.06.673.991.668,1.049,0" transform="translate(6.283 1.207)" fill="#8c75b5"/>
        <path id="Trazado_150230" data-name="Trazado 150230" d="M153.972,25.622a5.968,5.968,0,1,1-6.657-5.189,5.968,5.968,0,0,1,6.657,5.189" transform="translate(7.002 1.005)" fill="#ffa58f"/>
        <path id="Trazado_150231" data-name="Trazado 150231" d="M122.6.286a8.327,8.327,0,0,0-5.9,5.995,8.578,8.578,0,0,0,4.109,9.021c2.82,1.6,6.6,1.491,9.859.127a6.76,6.76,0,0,0,3.841-5.217,8.6,8.6,0,0,0-1.18-6.146,9.321,9.321,0,0,0-4.94-3.4A9.633,9.633,0,0,0,122.6.286" transform="translate(5.742 0)" fill="#2b244a"/>
        <path id="Trazado_150232" data-name="Trazado 150232" d="M130.152,14.792a11.844,11.844,0,0,1,3.087-9.14c.466-.489-.275-1.232-.742-.742a12.861,12.861,0,0,0-3.394,9.882c.05.669,1.1.675,1.049,0" transform="translate(6.36 0.234)" fill="#8c75b5"/>
        <path id="Trazado_150233" data-name="Trazado 150233" d="M166.994,17.7a4.7,4.7,0,0,1-.536.046c-1.889.079-2.788,1.643-3.83.275-.752-1-.443-2.135,1.685-2.836a5.752,5.752,0,0,1,1.641-.3h.009a2.027,2.027,0,0,1,1.03,2.817" transform="translate(7.996 0.733)" fill="#2b244a"/>
        <path id="Trazado_150234" data-name="Trazado 150234" d="M158.908,19.021c.093,1.715-1.6,1.106-3.1,2.263-1.381,1.063-2.485,1.333-2.826.456-.411-1.058.6-2.9,2.811-3.8,2.073-.839,3.047-.172,3.115,1.079" transform="translate(7.535 0.866)" fill="#2b244a"/>
        <path id="Trazado_150235" data-name="Trazado 150235" d="M153.687,40.35a16.944,16.944,0,0,0,2.987,1.382,23.2,23.2,0,0,0,3.284.8.539.539,0,0,0,.645-.366.53.53,0,0,0-.367-.645,23.4,23.4,0,0,1-3.2-.771,15.439,15.439,0,0,1-2.82-1.3.525.525,0,0,0-.53.906" transform="translate(7.561 1.94)" fill="#2b244a"/>
        <path id="Trazado_150236" data-name="Trazado 150236" d="M147.406,28.982a3.127,3.127,0,0,1-1.718-2.561,2.589,2.589,0,0,1,1.4-2.586.541.541,0,0,0,.366-.645.527.527,0,0,0-.645-.366,3.619,3.619,0,0,0-2.174,3.513,4.191,4.191,0,0,0,2.243,3.552c.6.3,1.134-.6.53-.906" transform="translate(7.128 1.123)" fill="#2b244a"/>
        <path id="Trazado_150237" data-name="Trazado 150237" d="M134.834,46a16.946,16.946,0,0,0,9.107,13.442,14.556,14.556,0,0,0,16.43-2.556,21.538,21.538,0,0,0,5.3-9.369.525.525,0,0,0-1.013-.279,20.983,20.983,0,0,1-4.173,7.994,13.129,13.129,0,0,1-7.413,4.366,14.113,14.113,0,0,1-13.678-5.1,16.4,16.4,0,0,1-3.509-8.5c-.078-.663-1.127-.67-1.049,0" transform="translate(6.645 2.242)" fill="#2b244a"/>
        <path id="Trazado_150238" data-name="Trazado 150238" d="M163.821,27.213a3.2,3.2,0,0,0,2.13-1.083,1.351,1.351,0,0,0,.359-1.258,2.264,2.264,0,0,0-.794-.991,20.035,20.035,0,0,1-2.822-2.759.541.541,0,0,0-.718-.189.528.528,0,0,0-.188.718A13.773,13.773,0,0,0,163,23.059c.367.364.765.7,1.158,1.031q.382.326.759.656c.145.128.471.325.359.545a1.968,1.968,0,0,1-1.451.873.542.542,0,0,0-.525.525.527.527,0,0,0,.525.525" transform="translate(7.969 1.028)" fill="#2b244a"/>
        <path id="Trazado_150239" data-name="Trazado 150239" d="M194.628,172.279H93.411l-8.345-7.423a1.239,1.239,0,0,1,.8-2.189H202.822a1.239,1.239,0,0,1,.789,2.2Z" transform="translate(4.17 8.017)" fill="#d9a389"/>
        <path id="Trazado_150240" data-name="Trazado 150240" d="M190.04,162.935q-.275,4.416-.553,8.834c-.042.674,1.007.672,1.049,0q.277-4.418.553-8.834c.042-.675-1.007-.672-1.049,0" transform="translate(9.338 8.005)" fill="#2b244a"/>
        <path id="Trazado_150241" data-name="Trazado 150241" d="M91.319,162.935q.277,4.416.553,8.834c.041.67,1.091.675,1.049,0q-.277-4.418-.553-8.834c-.042-.67-1.091-.676-1.049,0" transform="translate(4.5 8.005)" fill="#2b244a"/>
        <path id="Trazado_150242" data-name="Trazado 150242" d="M162.453,30.529a4.9,4.9,0,0,0,5.509-1.745.529.529,0,0,0-.188-.718.536.536,0,0,0-.718.189,3.847,3.847,0,0,1-4.324,1.262.529.529,0,0,0-.645.366.535.535,0,0,0,.366.645" transform="translate(7.987 1.38)" fill="#2b244a"/>
        <path id="Trazado_150243" data-name="Trazado 150243" d="M158.673,22.334a1.259,1.259,0,0,0-1.188-.208,1.191,1.191,0,0,0-.661,1.153,4.137,4.137,0,0,0,.334,1.434,2.636,2.636,0,0,0,1.023,1.364c.851.461,1.563-.222,1.62-1.047a3.649,3.649,0,0,0-1.128-2.7" transform="translate(7.729 1.087)" fill="#2b244a"/>
        <path id="Trazado_150244" data-name="Trazado 150244" d="M166.731,19.524a1.259,1.259,0,0,0-1.188-.208,1.19,1.19,0,0,0-.661,1.153,4.137,4.137,0,0,0,.334,1.434,2.637,2.637,0,0,0,1.023,1.364c.851.461,1.563-.222,1.62-1.047a3.649,3.649,0,0,0-1.128-2.7" transform="translate(8.126 0.948)" fill="#2b244a"/>
        <path id="Trazado_150245" data-name="Trazado 150245" d="M140.072,2.124a52.789,52.789,0,0,1,10.522,1.583A16.865,16.865,0,0,1,158.636,8c.463.494,1.2-.249.742-.742a17.7,17.7,0,0,0-8.307-4.5,53.64,53.64,0,0,0-11-1.676c-.675-.044-.672,1.005,0,1.049" transform="translate(6.878 0.053)" fill="#8c75b5"/>
      </g>
    </g>
  </g>
</svg>
