<svg xmlns="http://www.w3.org/2000/svg" xmlns:xlink="http://www.w3.org/1999/xlink" width="120" height="117" viewBox="0 0 120 117">
  <defs>
    <clipPath id="clip-path">
      <rect id="Rect치ngulo_43099" data-name="Rect치ngulo 43099" width="93.143" height="92.477" fill="none"/>
    </clipPath>
  </defs>
  <g id="_41" data-name="41" transform="translate(-0.444 -0.193)">
    <g id="Grupo_158812" data-name="Grupo 158812">
      <g id="Grupo_158146" data-name="Grupo 158146" transform="translate(0.444 0.193)">
        <rect id="Rect치ngulo_36141" data-name="Rect치ngulo 36141" width="120" height="117" fill="#e1e8ff"/>
      </g>
      <g id="Grupo_170545" data-name="Grupo 170545" transform="translate(13.444 12.193)">
        <g id="Grupo_170545-2" data-name="Grupo 170545" clip-path="url(#clip-path)">
          <path id="Trazado_165489" data-name="Trazado 165489" d="M0,147.937c1.007-1.543,1.676-3.262,2.547-4.875.341-.631.7-1.2,1.559-1.149a1.293,1.293,0,0,1,1.246,1.675,49.046,49.046,0,0,1-2.888,5.732,1.354,1.354,0,0,1-1.858.24c-.214-.161-.4-.353-.606-.531v-1.092" transform="translate(0 -76.949)" fill="#97befc"/>
          <path id="Trazado_165490" data-name="Trazado 165490" d="M75.716,2.128a7.227,7.227,0,0,1,3.316,1.747,12.79,12.79,0,0,1,4.714,7.414c.211.875.757.721,1.315.428a9.9,9.9,0,0,1,4.524-1.086,9.539,9.539,0,0,1,9.25,7.472,8.389,8.389,0,0,1-.888,6.194,1.726,1.726,0,0,1-1.214.269c-12.763-.021-25.526.026-38.29-.008a4.782,4.782,0,0,1-4.3-1.915,4.057,4.057,0,0,1,1.374-5.816,5.192,5.192,0,0,1,2.532-.628c1.607,0,3.214.007,4.821,0,1.236-.008,1.33-.106,1.126-1.306a8.151,8.151,0,0,1,3.3-8.233A7.021,7.021,0,0,1,71.766,5.1c.333,0,.667,0,1,0,1.306-.009,1.287-.017,1.769-1.227.263-.66.4-1.425,1.181-1.747" transform="translate(-28.982 -1.154)" fill="#b8d2fc"/>
          <path id="Trazado_165491" data-name="Trazado 165491" d="M122.391,53.39c.074.268.326.345.523.473a11.946,11.946,0,0,1,4.974,6.394.894.894,0,0,0,1.2.714,7.634,7.634,0,0,1,8.576,6.312,8.172,8.172,0,0,1-.149,3.145c-.212.882-.045,1.1.87,1.107,1.818.015,3.636-.005,5.453.01a3.619,3.619,0,0,1,3.82,3.53,3.736,3.736,0,0,1-3.668,3.746c-.755.044-1.514.012-2.272.012l-28.444-.011c-.181-.647-.056-1.318-.19-1.98a7.3,7.3,0,0,0-9.06-5.8,5.98,5.98,0,0,1-1.247.237,2.186,2.186,0,0,1-2.239-2.033,2,2,0,0,1,2.058-2.084c3.638-.038,7.276-.011,10.914-.015a8.782,8.782,0,0,0,7.78-13.162c-.186-.34-.469-.646-.423-1.078.684-.391,1.083.119,1.527.484" transform="translate(-54.514 -28.611)" fill="#5595fa"/>
          <path id="Trazado_165492" data-name="Trazado 165492" d="M108.253,51.755a9.755,9.755,0,0,1,1.826,5.86,9.129,9.129,0,0,1-8.777,8.679c-3.664.005-7.328.014-10.992-.008-.839-.005-1.571.112-1.975.946a1.755,1.755,0,0,0,.206,2.021,1.892,1.892,0,0,0,2.281.573,7.5,7.5,0,0,1,7.09,1.246,7.149,7.149,0,0,1,2.879,6.058,2.185,2.185,0,0,1-.175.6c-5.18.006-10.36.076-15.539,0-3.368-.051-7.093-3.618-7.726-7.174a9,9,0,0,1,9.3-10.781A8.017,8.017,0,0,1,90.6,60.947c.7.424.965.189,1.1-.521a11.9,11.9,0,0,1,1.842-4.3,2.486,2.486,0,0,1,.9-1.527,11.538,11.538,0,0,1,8.669-3.858A19.478,19.478,0,0,1,106.9,51c.516.111,1.1.161,1.355.759" transform="translate(-41.858 -27.513)" fill="#2476ec"/>
          <path id="Trazado_165493" data-name="Trazado 165493" d="M77.124,24.242a11.929,11.929,0,0,0-12.035,1.579,11.794,11.794,0,0,0-2.671,2.792c-.318-.361-.741-.19-1.111-.19q-18.646-.015-37.291-.01A3.984,3.984,0,0,1,20,25.747a3.733,3.733,0,0,1,3.456-4.985c1.97-.033,3.941-.007,5.912-.013,1.21,0,1.363-.176,1.071-1.322-1.367-5.369,3.506-10.916,9.155-9.8.705.139.875-.32,1.057-.838a12.509,12.509,0,0,1,6.88-7.578A11.913,11.913,0,0,1,57.464.974a6.8,6.8,0,0,0-1.1,2.374,1.02,1.02,0,0,1-1.214.892,10.82,10.82,0,0,0-4.113.438c-3.23,1.155-5.816,5.286-5.058,8.678.435,1.949.368,1.964-1.659,1.964-1.637,0-3.275-.029-4.911.006a3.93,3.93,0,0,0-3.72,5.311c.609,1.566,2.219,2.5,4.351,2.5q17.144,0,34.288,0,2.683,0,5.366,0a3.325,3.325,0,0,1-1.089,1.634l-1.482-.536" transform="translate(-10.729 0)" fill="#96befc"/>
          <path id="Trazado_165494" data-name="Trazado 165494" d="M18.786,115.571a1.326,1.326,0,0,1-1.277-1.951c.834-1.781,1.751-3.525,2.681-5.26a1.367,1.367,0,0,1,2.422,1.263c-.827,1.752-1.71,3.479-2.611,5.194a1.173,1.173,0,0,1-1.215.753" transform="translate(-9.411 -58.383)" fill="#97befc"/>
          <path id="Trazado_165495" data-name="Trazado 165495" d="M36.1,81.366a1.3,1.3,0,0,1-1.323-1.794c.769-1.91,1.827-3.681,2.78-5.5a1.373,1.373,0,0,1,2.42,1.243c-.871,1.828-1.795,3.632-2.726,5.431a1.089,1.089,0,0,1-1.15.62" transform="translate(-18.799 -39.828)" fill="#97befc"/>
          <path id="Trazado_165496" data-name="Trazado 165496" d="M54.514,149.745a1.309,1.309,0,0,1-1.246-1.923c.846-1.808,1.784-3.574,2.739-5.327a1.319,1.319,0,0,1,1.9-.419,1.238,1.238,0,0,1,.511,1.723c-.846,1.709-1.7,3.412-2.59,5.1a1.294,1.294,0,0,1-1.318.846" transform="translate(-28.803 -76.911)" fill="#97befc"/>
          <path id="Trazado_165497" data-name="Trazado 165497" d="M62.827,81.38A1.306,1.306,0,0,1,61.6,79.392c.8-1.726,1.67-3.417,2.569-5.092a1.392,1.392,0,1,1,2.458,1.3c-.84,1.706-1.712,3.395-2.6,5.078a1.169,1.169,0,0,1-1.207.7" transform="translate(-33.31 -39.843)" fill="#97befc"/>
          <path id="Trazado_165498" data-name="Trazado 165498" d="M30.494,141.92a1.31,1.31,0,0,1,1.352,1.887c-.851,1.8-1.773,3.564-2.7,5.324a1.387,1.387,0,0,1-1.891.511,1.216,1.216,0,0,1-.568-1.7c.863-1.827,1.8-3.621,2.728-5.414a1.049,1.049,0,0,1,1.08-.605" transform="translate(-14.389 -76.951)" fill="#97befc"/>
          <path id="Trazado_165499" data-name="Trazado 165499" d="M74.674,107.73a1.315,1.315,0,0,1,1.28,1.891q-1.241,2.576-2.582,5.1a1.41,1.41,0,1,1-2.483-1.294c.827-1.65,1.685-3.284,2.537-4.922a1.211,1.211,0,0,1,1.249-.779" transform="translate(-38.318 -58.411)" fill="#97befc"/>
          <path id="Trazado_165500" data-name="Trazado 165500" d="M49.371,109.037a1.687,1.687,0,0,1-.173.834c-.818,1.614-1.609,3.243-2.454,4.842a1.409,1.409,0,1,1-2.492-1.272c.819-1.647,1.679-3.273,2.514-4.912a1.355,1.355,0,0,1,1.737-.747,1.094,1.094,0,0,1,.869,1.254" transform="translate(-23.879 -58.402)" fill="#97befc"/>
          <path id="Trazado_165501" data-name="Trazado 165501" d="M148.934,120.366a1.321,1.321,0,0,1,1.267,1.889c-.809,1.724-1.693,3.415-2.6,5.092a1.3,1.3,0,0,1-1.8.557,1.317,1.317,0,0,1-.628-1.844c.823-1.685,1.7-3.345,2.559-5.009a1.265,1.265,0,0,1,1.2-.683" transform="translate(-78.635 -65.267)" fill="#2476ec"/>
          <path id="Trazado_165502" data-name="Trazado 165502" d="M113.162,192.835a1.307,1.307,0,0,1-1.257-1.76c.831-1.811,1.747-3.587,2.7-5.337a1.234,1.234,0,0,1,1.757-.428,1.174,1.174,0,0,1,.657,1.6c-.866,1.829-1.807,3.624-2.759,5.41a1.138,1.138,0,0,1-1.1.516" transform="translate(-60.623 -100.381)" fill="#2476ec"/>
          <path id="Trazado_165503" data-name="Trazado 165503" d="M108.511,154.187a7.919,7.919,0,0,1-.319.831q-1.094,2.188-2.216,4.363c-.489.948-1.307,1.281-2.066.869-.726-.394-.893-1.191-.416-2.142.773-1.539,1.552-3.074,2.353-4.6a1.319,1.319,0,0,1,1.587-.753,1.45,1.45,0,0,1,1.077,1.429" transform="translate(-55.973 -82.804)" fill="#2476ec"/>
          <path id="Trazado_165504" data-name="Trazado 165504" d="M175.735,121.692a1.712,1.712,0,0,1-.262.867c-.772,1.508-1.54,3.018-2.329,4.518-.468.89-1.182,1.181-1.927.827a1.4,1.4,0,0,1-.557-2.084c.788-1.568,1.6-3.125,2.409-4.681a1.342,1.342,0,0,1,1.681-.722,1.365,1.365,0,0,1,.985,1.274" transform="translate(-92.41 -65.258)" fill="#2476ec"/>
          <path id="Trazado_165505" data-name="Trazado 165505" d="M83.2,154.059a1.852,1.852,0,0,1-.287.95c-.749,1.483-1.492,2.968-2.256,4.443a1.437,1.437,0,0,1-2.012.8,1.409,1.409,0,0,1-.474-2.042q1.171-2.354,2.38-4.688a1.317,1.317,0,0,1,1.581-.764,1.368,1.368,0,0,1,1.068,1.3" transform="translate(-42.26 -82.803)" fill="#2476ec"/>
          <path id="Trazado_165506" data-name="Trazado 165506" d="M129.832,160.388a1.317,1.317,0,0,1-1.286-1.866c.823-1.75,1.707-3.473,2.639-5.168a1.23,1.23,0,0,1,1.731-.51,1.292,1.292,0,0,1,.694,1.751c-.834,1.745-1.739,3.457-2.64,5.169a1.2,1.2,0,0,1-1.138.623" transform="translate(-69.633 -82.79)" fill="#2476ec"/>
          <path id="Trazado_165507" data-name="Trazado 165507" d="M138.622,192.854c-1.244-.015-1.937-1-1.495-1.933.813-1.722,1.71-3.406,2.617-5.082a1.35,1.35,0,0,1,1.815-.533,1.335,1.335,0,0,1,.619,1.778c-.838,1.712-1.718,3.4-2.607,5.088a1.237,1.237,0,0,1-.95.681" transform="translate(-74.284 -100.396)" fill="#2476ec"/>
          <path id="Trazado_165508" data-name="Trazado 165508" d="M99.616,121.787a39.117,39.117,0,0,1-3.082,5.9,1.134,1.134,0,0,1-1.648.086,1.219,1.219,0,0,1-.491-1.59c.84-1.739,1.7-3.468,2.6-5.176a1.276,1.276,0,0,1,1.652-.58,1.418,1.418,0,0,1,.965,1.363" transform="translate(-51.114 -65.248)" fill="#2476ec"/>
          <path id="Trazado_165509" data-name="Trazado 165509" d="M65.359,185.2a1.3,1.3,0,0,1,1.284,1.794c-.815,1.783-1.706,3.533-2.641,5.256a1.237,1.237,0,0,1-1.739.485,1.3,1.3,0,0,1-.671-1.759c.832-1.744,1.727-3.458,2.623-5.17a1.169,1.169,0,0,1,1.143-.607" transform="translate(-33.327 -100.42)" fill="#2476ec"/>
          <path id="Trazado_165510" data-name="Trazado 165510" d="M124.991,121.922a2.229,2.229,0,0,1-.287.723c-.741,1.454-1.475,2.911-2.227,4.36-.493.95-1.208,1.266-1.968.9-.81-.388-1-1.167-.509-2.154q1.158-2.311,2.343-4.607a1.335,1.335,0,0,1,1.676-.724c.624.168.932.631.971,1.5" transform="translate(-64.923 -65.261)" fill="#2476ec"/>
          <path id="Trazado_165511" data-name="Trazado 165511" d="M155.034,160.394a1.332,1.332,0,0,1-1.2-1.939c.806-1.693,1.68-3.355,2.574-5a1.311,1.311,0,0,1,1.862-.573,1.344,1.344,0,0,1,.565,1.867c-.8,1.627-1.648,3.235-2.482,4.847a1.36,1.36,0,0,1-1.318.8" transform="translate(-83.336 -82.797)" fill="#2476ec"/>
          <path id="Trazado_165512" data-name="Trazado 165512" d="M91.963,186.533a1.6,1.6,0,0,1-.243.869c-.752,1.482-1.5,2.964-2.272,4.438-.49.943-1.215,1.255-1.977.883-.805-.393-.987-1.164-.485-2.162q1.16-2.309,2.346-4.605a1.329,1.329,0,0,1,1.684-.71,1.288,1.288,0,0,1,.948,1.288" transform="translate(-47.016 -100.407)" fill="#2476ec"/>
        </g>
      </g>
    </g>
  </g>
</svg>
