<svg xmlns="http://www.w3.org/2000/svg" xmlns:xlink="http://www.w3.org/1999/xlink" width="120" height="117" viewBox="0 0 120 117">
  <defs>
    <clipPath id="clip-path">
      <rect id="Rect치ngulo_43100" data-name="Rect치ngulo 43100" width="89.181" height="100.088" fill="none"/>
    </clipPath>
  </defs>
  <g id="_42" data-name="42" transform="translate(0 0.131)">
    <g id="Grupo_158812" data-name="Grupo 158812">
      <g id="Grupo_158146" data-name="Grupo 158146" transform="translate(0 -0.131)">
        <rect id="Rect치ngulo_36141" data-name="Rect치ngulo 36141" width="120" height="117" fill="#e1e8ff"/>
      </g>
      <g id="Grupo_170546" data-name="Grupo 170546" transform="translate(15 8.869)">
        <g id="Grupo_170546-2" data-name="Grupo 170546" clip-path="url(#clip-path)">
          <path id="Trazado_165513" data-name="Trazado 165513" d="M53.776,1.756a11.478,11.478,0,0,1,6.052-.1,23.8,23.8,0,0,1,6.873,2.7c.358.2.668.54,1.138.49.128.217-.017.373-.132.522-1.679,2.19-3.253,4.483-5.7,5.941-.543.324-.37.6.073.836a2.148,2.148,0,0,0,1.122.294c2.236-.138,4.294-.665,5.776-2.55a23.587,23.587,0,0,0,2.929-5.159c.472-1.073.98-2.128,1.553-3.148C73.849.9,74.327.259,75.273.352c1.183,1.113,1.261,2.568,1.2,4.038a16.53,16.53,0,0,1-.206,1.734A3.2,3.2,0,0,0,76.118,7c-.182.758.177,1.071.9,1.145A2.237,2.237,0,0,0,79.478,6.52a23.852,23.852,0,0,1,2.364-4.568A4.244,4.244,0,0,1,84.272,0h.782c2.37.933,2.131,2.558,1.867,4.565a23.717,23.717,0,0,1-.887,3.252.6.6,0,0,1-.224.8c2.326-.323,3.969-1.944,5.765-3.285.648-.484,1.272-1,1.965-1.419a2.073,2.073,0,0,1,1.469-.359,2.952,2.952,0,0,1,.69,3.057A19.339,19.339,0,0,1,92.2,13.5c-1.215,1.728-2.694,3.236-4.022,4.869a1.652,1.652,0,0,1-.455.738c-3.258,3.135-6.716,5.992-11.156,7.281a29.9,29.9,0,0,1-21.127-1.42A10.119,10.119,0,0,1,53.582,23.9c-1.18-.682-2.169-1.624-3.272-2.412a11.943,11.943,0,0,1-1.928-8.067,19.578,19.578,0,0,1,2.347-8.48,7.554,7.554,0,0,1,3.047-3.183" transform="translate(-21.12 0)" fill="#f3dc45"/>
          <path id="Trazado_165514" data-name="Trazado 165514" d="M85.071.455a2.8,2.8,0,0,0-1.566,1.5c-1.241,2.32-2.154,4.8-3.551,7.049a7.877,7.877,0,0,1-5.982,3.689,3.241,3.241,0,0,1-2.339-.479c-.358-.243-.731-.607-.069-.947,2.278-1.169,3.718-3.194,5.258-5.118.342-.428.674-.865,1.011-1.3A14.221,14.221,0,0,1,82.733,0h1.759c.171.18.58.055.579.454" transform="translate(-31.113 0)" fill="#ebc22e"/>
          <path id="Trazado_165515" data-name="Trazado 165515" d="M105.581,0c-2.294,1.363-3.255,3.688-4.3,5.954a5.82,5.82,0,0,1-.954,1.773,2.484,2.484,0,0,1-2.42.625c-.776-.124-.948-.628-.732-1.324.159-.222.138-.519.3-.74A12.266,12.266,0,0,1,102.553.464,13.594,13.594,0,0,1,104.213,0Z" transform="translate(-42.428)" fill="#ebc22e"/>
          <path id="Trazado_165516" data-name="Trazado 165516" d="M11.805,98.1c0-1.2.048-2.4-.009-3.6a4.876,4.876,0,0,1,2.951-5.012,4,4,0,0,1,3.379-.3c3.245.665,6.481,1.379,9.718,2.085,5.3,1.156,10.6,2.288,15.9,3.453a3.713,3.713,0,0,1,1.9.689,2.2,2.2,0,0,1,.3,1.406q.011,20.3,0,40.6c0,1.227-.106,1.35-.919,1.353q-8.9-1.915-17.8-3.83c-3.776-.813-7.549-1.642-11.328-2.442a4.693,4.693,0,0,1-4.084-5.01q-.007-8.636,0-17.272c.208-.367.609-.467.936-.667a3.9,3.9,0,0,0,2.142-3.656c-.046-1.167-.035-2.338,0-3.506a3.9,3.9,0,0,0-2.371-3.8c-.257-.132-.551-.209-.7-.492" transform="translate(-5.151 -38.875)" fill="#c22430"/>
          <path id="Trazado_165517" data-name="Trazado 165517" d="M120.053,110.227q0,8.6,0,17.193c0,2.838-1.323,4.478-4.116,5.086q-14.24,3.1-28.485,6.19c-.253.055-.516.065-.774.1-.443.167-.591-.122-.683-.459a3.968,3.968,0,0,1-.082-1.067q0-20.161,0-40.322a2.481,2.481,0,0,1,.283-1.507,2.073,2.073,0,0,1,1.225-.536q13.19-2.911,26.4-5.725a3.871,3.871,0,0,1,3.286.306,4.889,4.889,0,0,1,2.952,5.014c-.055,1.2,0,2.4,0,3.6a1.579,1.579,0,0,1-.727.462,4.108,4.108,0,0,0-2.455,3.375,18.027,18.027,0,0,0-.008,4.358,4,4,0,0,0,2.57,3.491,1.046,1.046,0,0,1,.614.446" transform="translate(-37.541 -38.874)" fill="#d94a54"/>
          <path id="Trazado_165518" data-name="Trazado 165518" d="M57.08,37.911a25.063,25.063,0,0,0,10.158,3.447c7.558.882,14.629-.247,20.656-5.382,1.285-1.1,2.51-2.252,3.788-3.353a21.6,21.6,0,0,1,.55,4.2c.288,2.951.431,5.916.633,8.875a1.407,1.407,0,0,1,.3.905c.025,3.009.015,6.017.006,9.026a2.294,2.294,0,0,1-.095.475,1.807,1.807,0,0,0-.207,1.225,25.6,25.6,0,0,1-.586,5.992c-.2.46-.654.5-1.057.591C85.31,65.189,79.426,66.6,73.48,67.7a26.04,26.04,0,0,1-8.642-.008c-2.406-.37-4.777-.976-7.156-1.512-.334-.075-.739-.061-.857-.511a23.4,23.4,0,0,0-.328-3.682,42.3,42.3,0,0,1,.033-6.714c.192-.379.539-.3.855-.269a1.648,1.648,0,0,0,1.723-1.022,4.006,4.006,0,0,0,.069-3.666,1.7,1.7,0,0,0-1.84-1.148c-.324.035-.665.074-.828-.327a42.163,42.163,0,0,1-.039-6.8c.062-1.036.073-2.072.131-3.107.021-.384-.1-.883.48-1.022" transform="translate(-24.625 -14.256)" fill="#f0cfa4"/>
          <path id="Trazado_165519" data-name="Trazado 165519" d="M79.838,100.127a1.7,1.7,0,0,0-.2,1.128q0,20.571.009,41.141c0,.4-.251.962.439,1.119a1.012,1.012,0,0,1-.74.163q-3.894.005-7.787.007a1.036,1.036,0,0,1-.735-.184c.341-.028.662-.07.617-.544-.019-.194,0-.391,0-.586q0-20.518,0-41.036a1.738,1.738,0,0,0-.212-1.221,1.4,1.4,0,0,1,1.167-.334q3.144-.024,6.289,0a1.34,1.34,0,0,1,1.16.347" transform="translate(-30.948 -43.597)" fill="#dc636e"/>
          <path id="Trazado_165520" data-name="Trazado 165520" d="M43.882,3.118C43.5,3.91,42.622,4.182,42.1,4.87a16.256,16.256,0,0,0-3.031,7.164,15.714,15.714,0,0,0,.337,8.4c.314.841.775,1.628,1.168,2.439a.773.773,0,0,1,.153.734c-.838,3.2-2.077,6.158-4.921,8.153a6.369,6.369,0,0,1-2.675,1.116,20.926,20.926,0,0,0-3.96.988c-.36.132-.749.27-1.1-.05A79.165,79.165,0,0,1,26.1,24.207a44.167,44.167,0,0,1-.4-7.286,16.544,16.544,0,0,1,.725-4.6c1.338-4.308,4.677-6.225,9.053-5.191.909.215,1.9.9,2.658.685.688-.2,1.062-1.372,1.647-2.054a7.631,7.631,0,0,1,4.1-2.647" transform="translate(-11.227 -1.363)" fill="#ebc22e"/>
          <path id="Trazado_165521" data-name="Trazado 165521" d="M28.366,49.146c2.213-.562,4.458-1.023,6.626-1.724a6.357,6.357,0,0,0,3.054-2.483A14.971,14.971,0,0,0,40.87,38.2c.683.042,1.011.618,1.485.979.53.4,1.082.78,1.624,1.168a.614.614,0,0,0-.186.528c-.052,3.566-.331,7.127-.177,10.7a.708.708,0,0,1-.137.457,4.145,4.145,0,0,0,.016,5.005.6.6,0,0,1,.114.46c.014,3.332-.223,6.677.528,9.97.073.319.059.592-.353.647-.309.292-.668.19-1.012.113-3.229-.726-6.472-1.39-9.7-2.121-.435-.1-.935-.137-.972-.757a38.635,38.635,0,0,1-.423-6.119c.008-.406-.06-.652-.562-.7a4.921,4.921,0,0,1-4.439-3.557,5.006,5.006,0,0,1,1.388-5.446,4.6,4.6,0,0,0,.3-.378" transform="translate(-11.525 -16.694)" fill="#f0b885"/>
          <path id="Trazado_165522" data-name="Trazado 165522" d="M28.023,85.535c.474.613,1.214.519,1.848.659,3.274.723,6.557,1.408,9.836,2.106,3.737.721,7.371,1.88,11.247,1.991a47.1,47.1,0,0,0,11.722-1.585c3.952-.886,7.917-1.713,11.875-2.57a4.82,4.82,0,0,0,.551-.189c2.3-.461,4.6-.935,6.9-1.377a4.068,4.068,0,0,1,4.707,2.315l.307.605c-1.915-.623-3.735.07-5.556.461-8.379,1.794-16.748,3.636-25.121,5.461L47.722,93.4Q33.829,90.38,19.934,87.364a5.763,5.763,0,0,0-2.889.129,4.532,4.532,0,0,1,3.62-3.047,8.345,8.345,0,0,1,2.958.418c1.21.2,2.4.518,3.6.8.3.07.571.153.8-.129" transform="translate(-7.449 -36.881)" fill="#dee9ee"/>
          <path id="Trazado_165523" data-name="Trazado 165523" d="M146.336,105.022c3.5-.89,6.78,1.239,6.478,4.654-.126,1.419.176,2.861-.151,4.269a3.946,3.946,0,0,1-3.579,3.2,4.135,4.135,0,0,1-3.38-4.133c-.044-1.295-.07-2.6.008-3.888a4.388,4.388,0,0,1,2.411-3.884,2.35,2.35,0,0,1-1.786-.22" transform="translate(-63.653 -45.805)" fill="#f0cfa4"/>
          <path id="Trazado_165524" data-name="Trazado 165524" d="M8.839,105.182a4.16,4.16,0,0,1,3.37,4.394c.01,1.04.005,2.081,0,3.122-.009,2.495-.979,3.818-3.372,4.609H8.456a3.8,3.8,0,0,1-3.223-3.413,15.448,15.448,0,0,1,.049-5.606c.289-1.509,1.906-3.227,3.191-3.113l.367.008" transform="translate(-2.185 -45.958)" fill="#f0cfa4"/>
          <path id="Trazado_165525" data-name="Trazado 165525" d="M121.4,66.249c-.3-.247-.2-.593-.205-.9q-.008-4.75,0-9.5a5.186,5.186,0,0,1,5.26,4.523,5.238,5.238,0,0,1-3.8,5.736,4.777,4.777,0,0,1-1.251.146" transform="translate(-52.955 -24.4)" fill="#f0b886"/>
          <path id="Trazado_165526" data-name="Trazado 165526" d="M143.964,105.178h2.544c-.592.5-1.192.673-1.609,1.121a4.537,4.537,0,0,0-1.307,3.148c-.012,1.236-.04,2.473.006,3.708a4.441,4.441,0,0,0,3.114,4.148l-2.92.011a4.171,4.171,0,0,1-3.459-4.036,17.962,17.962,0,0,1,.115-4.753,4.119,4.119,0,0,1,3.351-3.343,1.144,1.144,0,0,1,.164,0" transform="translate(-61.28 -45.961)" fill="#f0b885"/>
          <path id="Trazado_165527" data-name="Trazado 165527" d="M6.287,105.1c-2.394.984-3.271,2.853-3.148,5.332.046.94-.049,1.889.042,2.823a4.614,4.614,0,0,0,3.09,3.978c-.716.011-1.432.045-2.147.028a4.1,4.1,0,0,1-4.112-4.181c-.014-1.335-.019-2.67,0-4.005a4.1,4.1,0,0,1,3.689-3.981,8.584,8.584,0,0,1,2.572.008Z" transform="translate(0 -45.885)" fill="#f0b886"/>
          <path id="Trazado_165528" data-name="Trazado 165528" d="M124.07,5.782c-1.972.549-3.288,2.1-4.89,3.215a10.457,10.457,0,0,1-3.359,1.877c-.315.078-.7.3-.911.057s.064-.6.185-.888c.405.023.522-.335.735-.562a16.118,16.118,0,0,1,4.99-3.975,2.683,2.683,0,0,1,3.25.276" transform="translate(-50.181 -2.225)" fill="#ebc22e"/>
          <path id="Trazado_165529" data-name="Trazado 165529" d="M9.154,105.012,6.582,105a3.971,3.971,0,0,1,2.572.008" transform="translate(-2.876 -45.794)" fill="#f0cfa4"/>
          <path id="Trazado_165530" data-name="Trazado 165530" d="M97.408,11.052c.068.073.135.147.2.219-.066.231-.111.476-.369.587a1.081,1.081,0,0,1,.167-.806" transform="translate(-42.491 -4.83)" fill="#fcf7dc"/>
          <path id="Trazado_165531" data-name="Trazado 165531" d="M121.534,120.6c.006,1.1-.769,1.406-1.641,1.6q-4.043.888-8.088,1.761c-2.6.56-5.206,1.109-7.809,1.665-1.167.249-1.873-.111-2.134-1.094-.221-.83.358-1.615,1.43-1.849q8.133-1.779,16.273-3.53a1.522,1.522,0,0,1,1.969,1.45" transform="translate(-44.492 -52.046)" fill="#454045"/>
          <path id="Trazado_165532" data-name="Trazado 165532" d="M103.614,115.763c-1.048,0-1.71-.53-1.8-1.281a1.524,1.524,0,0,1,1.312-1.668q4.895-1.089,9.8-2.144c2.189-.474,4.379-.945,6.571-1.4,1.106-.229,1.852.2,2.018,1.1s-.343,1.6-1.441,1.837q-6.8,1.489-13.608,2.95c-1.015.22-2.031.43-2.845.6" transform="translate(-44.485 -47.724)" fill="#454045"/>
          <path id="Trazado_165533" data-name="Trazado 165533" d="M73.573,86.3a6.892,6.892,0,0,1-6.059-3.54,1.562,1.562,0,0,1,.413-2.372c.807-.452,1.552-.173,2.181.816a3.9,3.9,0,0,0,6.925-.029c.608-.968,1.391-1.243,2.193-.767a1.535,1.535,0,0,1,.4,2.295,6.83,6.83,0,0,1-6.049,3.6" transform="translate(-29.348 -35.035)" fill="#c22430"/>
          <path id="Trazado_165534" data-name="Trazado 165534" d="M56.032,67.692a4.168,4.168,0,0,1,.007-5.922,1.822,1.822,0,0,1,2.655.944,4.3,4.3,0,0,1,.042,3.941,1.859,1.859,0,0,1-2.7,1.037" transform="translate(-23.947 -26.891)" fill="#454045"/>
          <path id="Trazado_165535" data-name="Trazado 165535" d="M98.8,64.867a3.479,3.479,0,0,1-.816,2.362,1.636,1.636,0,0,1-2.682.006,4.3,4.3,0,0,1,0-5.087,1.642,1.642,0,0,1,2.683,0,4.078,4.078,0,0,1,.814,2.723" transform="translate(-41.283 -26.854)" fill="#454045"/>
        </g>
      </g>
    </g>
  </g>
</svg>
