<svg xmlns="http://www.w3.org/2000/svg" xmlns:xlink="http://www.w3.org/1999/xlink" width="120" height="117" viewBox="0 0 120 117">
  <defs>
    <clipPath id="clip-path">
      <rect id="Rect치ngulo_43101" data-name="Rect치ngulo 43101" width="98.51" height="93.88" fill="none"/>
    </clipPath>
  </defs>
  <g id="_43" data-name="43" transform="translate(0 0.131)">
    <g id="Grupo_158812" data-name="Grupo 158812">
      <g id="Grupo_158146" data-name="Grupo 158146" transform="translate(0 -0.131)">
        <rect id="Rect치ngulo_36141" data-name="Rect치ngulo 36141" width="120" height="117" fill="#e1e8ff"/>
      </g>
      <g id="Grupo_170547" data-name="Grupo 170547" transform="translate(11 11.869)">
        <g id="Grupo_170547-2" data-name="Grupo 170547" clip-path="url(#clip-path)">
          <path id="Trazado_165536" data-name="Trazado 165536" d="M138.649,18.629c-.51,1.366-1.094,2.711-1.513,4.1-.792,2.638-2.719,4.562-5.88,4.173a5.131,5.131,0,0,0-.67,0,18.838,18.838,0,0,1-3.913-1.278c-5.73-2.053-11.456-4.117-17.193-6.151a1.159,1.159,0,0,1-.417-.231c-.64-.745-1.6-1.117-2.147-2.006a5.042,5.042,0,0,1-.573-4.313c.469-1.524,1.008-3.029,1.568-4.523a5.134,5.134,0,0,1,6.607-3.042c4.127,1.409,8.219,2.916,12.326,4.384,2.338.835,4.657,1.725,7.016,2.495,2.314.755,4.111,1.989,4.788,4.464Z" transform="translate(-40.139 -1.913)" fill="#b8ebc1"/>
          <path id="Trazado_165537" data-name="Trazado 165537" d="M120.421,53.2q-2.794,7.844-5.585,15.689c-.16.451-.305.906-.457,1.36a.777.777,0,0,1-.712-.166,6.314,6.314,0,0,0-6.938.1,14.369,14.369,0,0,0-2.782,3.147,9.7,9.7,0,0,1-2.867,2.356,4.884,4.884,0,0,1-5.727-.61c-2.557-1.961-2.956-4.216-1.34-6.989a10.247,10.247,0,0,0,.671-1.271,3.129,3.129,0,0,0-.962-3.789c-.262-.216-.633-.344-.663-.763q3.548-9.931,7.1-19.862c.711-1.981,1.455-3.95,2.184-5.925.789.154,1,.924,1.421,1.427a24.583,24.583,0,0,0,7.657,6.007,20.249,20.249,0,0,1,8.252,7.547,4.265,4.265,0,0,1,.749,1.747" transform="translate(-35.203 -13.799)" fill="#73d98b"/>
          <path id="Trazado_165538" data-name="Trazado 165538" d="M44.005,112.068c-.1-.552-.452-.786-.983-.939-1.2-.347-2.387-.774-3.578-1.169a19.882,19.882,0,0,1-6.75-3.826c-.685-.554-1.286-1.2-1.961-1.764a5.745,5.745,0,0,0-1.159-2.055c-2.656-4.02-2.2-8.588,1.234-11.74A8.636,8.636,0,0,1,37.875,88.3c1.683.182,3.379.238,5.07.351A7.668,7.668,0,0,1,45.684,90.2c3.626,2.643,6.989,5.622,10.579,8.314a71.119,71.119,0,0,0,11.4,7.116c.4.194.968.251,1.03.87-.27.43-.744.461-1.164.594a27.445,27.445,0,0,0-7.417,3.1,10.189,10.189,0,0,0-3.218,3.371.887.887,0,0,1-.377.421c-1.013-.217-1.979-.774-3.07-.422-2.757-.475-5.519-.921-8.24-1.582a1.7,1.7,0,0,0-1.2.087" transform="translate(-10.541 -33.381)" fill="#6b7d8d"/>
          <path id="Trazado_165539" data-name="Trazado 165539" d="M77.852,102.468A92.624,92.624,0,0,1,68.89,97.3c-4.382-2.959-8.37-6.423-12.528-9.669-1.363-1.064-2.8-2.019-4.24-2.967,1.809-.206,3.626-.022,5.445-.233a35.968,35.968,0,0,0,15.906-5.575,4.787,4.787,0,0,1,4.1-1,9.211,9.211,0,0,1,1.355,1.048,3.418,3.418,0,0,1,.223,4.188,9.179,9.179,0,0,0-1.33,3.246c-.449,2.967,4.01,6.58,7.28,4.948A10.727,10.727,0,0,0,89,87.841a8.4,8.4,0,0,1,2.077-2.224,5.9,5.9,0,0,1,.728,2.839,16.948,16.948,0,0,1-.085,5.636,6.891,6.891,0,0,1-4.05,5.167,69.048,69.048,0,0,1-9.384,3.385.511.511,0,0,1-.431-.176" transform="translate(-19.719 -29.402)" fill="#f8ed80"/>
          <path id="Trazado_165540" data-name="Trazado 165540" d="M86.112,111.308l.336.054a15.562,15.562,0,0,1,3.118.924,14.636,14.636,0,0,0,14.53-3.827,26.266,26.266,0,0,0,4.976-6.439c.2-.353.344-.773.779-.938.451,9.06-1.939,17.088-8.6,23.542a11.618,11.618,0,0,1-3.278,2.13,9.45,9.45,0,0,0-1.116.709c-3.854,1.057-7.033-.2-9.8-2.864a9.751,9.751,0,0,0-2.89-1.93,1.918,1.918,0,0,1-1.071-.352,33.171,33.171,0,0,0-7.936-2.937,1.862,1.862,0,0,1-1.181-.555l-.021.02a7.286,7.286,0,0,1,2.727-3.48c2.443-1.9,5.353-2.779,8.257-3.659.395-.12.782-.265,1.172-.4" transform="translate(-27.979 -38.241)" fill="#546370"/>
          <path id="Trazado_165541" data-name="Trazado 165541" d="M33.951.017a21.952,21.952,0,0,1,9.433,1.849,2.371,2.371,0,0,1,.494.809C44.9,5.73,46.045,8.743,47.062,11.8a1.428,1.428,0,0,1,.071.374,13.743,13.743,0,0,1-2.918,3.131q-1.512,1.4-2.986,2.843a1.826,1.826,0,0,1-1.115.694c-2.964-.42-5.9-1.025-8.844-1.534a1.339,1.339,0,0,1-.523-.223,35.536,35.536,0,0,1-2.738-5.32,12.929,12.929,0,0,1-1.327-3.041,5.723,5.723,0,0,1,1.58-2.252c1.609-1.95,3.263-3.862,4.858-5.823a2.149,2.149,0,0,1,.831-.631" transform="translate(-10.094 -0.004)" fill="#2edcd9"/>
          <path id="Trazado_165542" data-name="Trazado 165542" d="M17.314,13.71l3.934,8.3a.673.673,0,0,1-.08.722c-1.323,2.449-2.672,4.884-3.951,7.357a1.6,1.6,0,0,1-.485.589,7.08,7.08,0,0,1-2.519.509c-2.15.29-4.288.676-6.456.826-.433-.06-.633-.4-.837-.724q-2.406-3.875-4.815-7.748A3.748,3.748,0,0,1,1.615,22.4a24.609,24.609,0,0,1,4.4-8.5,13.611,13.611,0,0,1,3.9-.3c2.018.091,4.021-.183,6.033-.191.469,0,.971-.088,1.363.3" transform="translate(-0.611 -5.071)" fill="#afefee"/>
          <path id="Trazado_165543" data-name="Trazado 165543" d="M9.193,42.168c2.195-.293,4.391-.578,6.583-.886a8.956,8.956,0,0,0,2.6-.46,17.763,17.763,0,0,1,2.664,2.6c1.1,1.257,2.295,2.407,3.45,3.6A2.011,2.011,0,0,1,25.2,48.14a44.777,44.777,0,0,1-.849,5.1,20.478,20.478,0,0,1-.827,3.927,6.288,6.288,0,0,1-2.078.666c-2.3.53-4.588,1.128-6.881,1.7a4.559,4.559,0,0,1-1.321.125A22.037,22.037,0,0,1,6.1,52.376a1.328,1.328,0,0,1,.026-1.112c.863-2.707,1.624-5.446,2.513-8.145.117-.354.14-.771.558-.952" transform="translate(-2.263 -15.444)" fill="#76e6e6"/>
          <path id="Trazado_165544" data-name="Trazado 165544" d="M48.494,26.083l6.7-6.363a.518.518,0,0,1,.543-.007c3,1.158,5.972,2.4,8.947,3.626.146.06.244.205.4.252a23.714,23.714,0,0,1,1.251,10.18,16.671,16.671,0,0,1-2.851,2.368c-1.573,1.243-3.159,2.471-4.769,3.665a1.532,1.532,0,0,1-.834.432A62.231,62.231,0,0,1,52.111,37.2a9.49,9.49,0,0,1-2.561-1.451c-.392-2.885-.809-5.766-1.164-8.655-.042-.343-.147-.7.108-1.015" transform="translate(-18.284 -7.43)" fill="#76e6e6"/>
          <path id="Trazado_165545" data-name="Trazado 165545" d="M44.273,45.672a5.889,5.889,0,0,1,2.165.934c2.043,1.081,4.063,2.209,6.091,3.319a2.522,2.522,0,0,1,.247,1.941c-.164,2.073-.259,4.149-.327,6.226a5.218,5.218,0,0,1-.3,1.876,22.5,22.5,0,0,1-9.837,4.752,5.744,5.744,0,0,1-1.881-1.113c-1.914-1.346-3.855-2.652-5.751-4.023-.251-.181-.584-.3-.616-.683q.522-3.033,1.043-6.065c.174-1.026.333-2.055.5-3.083a5.857,5.857,0,0,1,2.2-1.282c1.851-.845,3.663-1.766,5.489-2.66.3-.147.61-.383.976-.139" transform="translate(-12.887 -17.239)" fill="#afefee"/>
          <path id="Trazado_165546" data-name="Trazado 165546" d="M126.075,49.952a25.2,25.2,0,0,0-3.448-4.921,21.973,21.973,0,0,0-5.689-4.171A25,25,0,0,1,108,33.225c.422-1.838,1.279-3.531,1.785-5.341A11.76,11.76,0,0,1,113.413,29c5.731,2.014,11.44,4.088,17.156,6.142.265.1.568.127.737.4q-2.512,6.992-5.026,13.982a4.53,4.53,0,0,1-.2.426" transform="translate(-40.858 -10.549)" fill="#29cd69"/>
          <path id="Trazado_165547" data-name="Trazado 165547" d="M117.452,96.335a23.841,23.841,0,0,1-8.095,9.558c-4.944,3.209-10.077,3.193-15.308.724,2.728-.992,5.452-1.994,8.184-2.973a7.518,7.518,0,0,0,5.343-7.377,30.685,30.685,0,0,0-.64-6.555,6.593,6.593,0,0,1,7.821.237,7.166,7.166,0,0,1,2.577,5.153c.052.41.079.822.117,1.233" transform="translate(-35.581 -33.496)" fill="#edda00"/>
          <path id="Trazado_165548" data-name="Trazado 165548" d="M19.991,8.639Q14.747,8.806,9.5,8.97c-.276.008-.576.108-.814-.134A24.32,24.32,0,0,1,21.729.667,19.366,19.366,0,0,1,27.144.013L19.991,8.639" transform="translate(-3.288 0)" fill="#6b7d8d"/>
          <path id="Trazado_165549" data-name="Trazado 165549" d="M67.062,17.294a11.508,11.508,0,0,1-3.092-1.105c-2.278-.893-4.535-1.84-6.8-2.766C55.952,9.95,54.624,6.516,53.547,2.994a23.489,23.489,0,0,1,12.872,12.6c.249.551.431,1.132.643,1.7" transform="translate(-20.258 -1.133)" fill="#6b7d8e"/>
          <path id="Trazado_165550" data-name="Trazado 165550" d="M6.931,37.272,3.833,47.48A22.062,22.062,0,0,1,.289,38.191,22.792,22.792,0,0,1,1,27.88q2.8,4.46,5.6,8.92c.1.161.214.315.323.472" transform="translate(0 -10.548)" fill="#6b7d8d"/>
          <path id="Trazado_165551" data-name="Trazado 165551" d="M27.859,67.014c2.753,1.935,5.575,3.773,8.248,5.82a23.161,23.161,0,0,1-13.216-.7,21.152,21.152,0,0,1-5.228-2.577c3.363-.989,6.779-1.77,10.2-2.546" transform="translate(-6.682 -25.353)" fill="#6b7d8d"/>
          <path id="Trazado_165552" data-name="Trazado 165552" d="M63.118,58.759a24.422,24.422,0,0,1,.047-3.675c.072-2.124.218-4.245.333-6.368q3.959-3.038,7.918-6.073a3.7,3.7,0,0,1,.5-.272A25.164,25.164,0,0,1,70.239,49.2a22.881,22.881,0,0,1-7.121,9.556" transform="translate(-23.856 -16.03)" fill="#6b7d8d"/>
          <path id="Trazado_165553" data-name="Trazado 165553" d="M73.988,129.622a36.174,36.174,0,0,1,9.383,3.35c.276.15.537.328.8.493-1.366,1.307-2.718,2.629-4.1,3.917a3.179,3.179,0,0,1-5.365-1.944q-.356-2.909-.72-5.816" transform="translate(-27.991 -49.039)" fill="#3d4751"/>
          <path id="Trazado_165554" data-name="Trazado 165554" d="M32.482,114.028c.065-.181.125-.41.355-.143a21.711,21.711,0,0,0,8.063,5.5,1.424,1.424,0,0,1,.292.237c-.892.868-1.744,1.782-2.684,2.594a3.125,3.125,0,0,1-5.253-1.908c-.319-2.083-.52-4.184-.774-6.277" transform="translate(-12.289 -43.039)" fill="#3d4751"/>
          <path id="Trazado_165555" data-name="Trazado 165555" d="M53.829,126.231c.076-.282-.007-.673.543-.53a85.307,85.307,0,0,0,8.623,1.681c.192.029.246.18.277.343-1.2,1.152-2.4,2.31-3.608,3.454a3.084,3.084,0,0,1-3.351.8,3.047,3.047,0,0,1-2.128-2.7q-.176-1.525-.355-3.05" transform="translate(-20.365 -47.544)" fill="#3d4751"/>
          <path id="Trazado_165556" data-name="Trazado 165556" d="M95.022,138.908c1.154.652,2.16,1.531,3.378,2.1a8.486,8.486,0,0,0,5.629.7c.283-.066.548-.2.793.068-1.311,1.258-2.6,2.535-3.937,3.769a3.169,3.169,0,0,1-5.313-1.89c-.195-1.58-.368-3.162-.55-4.744" transform="translate(-35.949 -52.552)" fill="#3d4751"/>
          <path id="Trazado_165557" data-name="Trazado 165557" d="M41.192,38.739q-3.807,1.815-7.614,3.627c-.344.164-.7.3-1.053.453q-2.961-3.117-5.92-6.237c-.259-.274-.6-.493-.684-.9l4.521-8.442,9.574,1.717c.435,3.079.873,6.156,1.3,9.236a1.637,1.637,0,0,1-.121.544" transform="translate(-9.807 -10.306)" fill="#6b7d8d"/>
        </g>
      </g>
    </g>
  </g>
</svg>
