<svg xmlns="http://www.w3.org/2000/svg" xmlns:xlink="http://www.w3.org/1999/xlink" width="120" height="117" viewBox="0 0 120 117">
  <defs>
    <clipPath id="clip-path">
      <rect id="Rect치ngulo_43102" data-name="Rect치ngulo 43102" width="91" height="91.045" fill="none"/>
    </clipPath>
  </defs>
  <g id="_44" data-name="44" transform="translate(0 0.446)">
    <g id="Grupo_158812" data-name="Grupo 158812">
      <g id="Grupo_158146" data-name="Grupo 158146" transform="translate(0 -0.446)">
        <rect id="Rect치ngulo_36141" data-name="Rect치ngulo 36141" width="120" height="117" fill="#e1e8ff"/>
      </g>
      <g id="Grupo_170548" data-name="Grupo 170548" transform="translate(15 12.554)">
        <g id="Grupo_170548-2" data-name="Grupo 170548" clip-path="url(#clip-path)">
          <path id="Trazado_165558" data-name="Trazado 165558" d="M36.323,97.588c-6.141-.527-12.295-.419-18.446-.352-2.123.023-4.247.192-6.367.34-1.96.137-3.093,1.52-3.3,3.737a100.918,100.918,0,0,0-.34,11.429,44.735,44.735,0,0,0,.494,6.349,3.3,3.3,0,0,0,3.471,3c4.311.224,8.622.442,12.941.362a2.369,2.369,0,0,1,2.082,1.1,26.474,26.474,0,0,0,5.471,5.267,1.4,1.4,0,0,0,1.656.15,1.425,1.425,0,0,0,.741-1.4c-.014-1.036-.005-2.073,0-3.109.005-1.591.622-2.256,2.186-2.36a.684.684,0,0,0,.491-.161c1.171-1.651,1.269-3.577,1.38-5.489a73.774,73.774,0,0,0,.156-10.182c-.152-1.913-.2-3.834-.415-5.744a3.253,3.253,0,0,0-2.2-2.937" transform="translate(-3.187 -39.493)" fill="#f8f5f5"/>
          <path id="Trazado_165559" data-name="Trazado 165559" d="M123.121,95.8q.017,6.507.039,13.015c0,.312-.112.652.125.937.407.368.094.813.134,1.22-.04.969.008,1.939-.028,2.909a6.217,6.217,0,0,1-.434,3.216,24.581,24.581,0,0,1-1.586,3.933,13.793,13.793,0,0,1-10.112,6.924,1.908,1.908,0,0,0-.394.158h-4.623a12.385,12.385,0,0,1-7.494-3.254,13.572,13.572,0,0,1-4.83-10.011c-.04-1.093-.01-2.189,0-3.284a1.867,1.867,0,0,1,.161-1.036.537.537,0,0,1,.492-.107,1.432,1.432,0,0,0,1.806-1.083,4.633,4.633,0,0,0-.1-3.278,1.243,1.243,0,0,0-1.589-.889c-.286.075-.593.161-.724-.248a3.94,3.94,0,0,1-.095-1.146q0-5.187,0-10.373a2.657,2.657,0,0,1,.179-1.3c.42-.43.827-.148,1.207.055a16.316,16.316,0,0,1,2.516,1.822,13,13,0,0,0,2.9,1.886c3.35,1.479,6.358.72,9.133-1.445.911-.711,1.8-1.451,2.759-2.1a5.973,5.973,0,0,1,5.429-.782,8.816,8.816,0,0,1,5.129,4.26" transform="translate(-38.147 -37.067)" fill="#c28859"/>
          <path id="Trazado_165560" data-name="Trazado 165560" d="M83.968,110.474c.073,2.525-.281,5.065.482,7.561a13.937,13.937,0,0,0,6.638,8.349,20.7,20.7,0,0,0,4.955,1.756H86.8c-1.134-.384-2.328-.547-3.439-1.033a13.823,13.823,0,0,1-8.11-9.166c-.155-.528-.321-.806-.979-.838a5.939,5.939,0,0,1-5.361-7.142,2.872,2.872,0,0,1,2.624-2.389,3.4,3.4,0,0,1,3.214,1.859V95.951a8.568,8.568,0,0,1,7.665-4.666,4.142,4.142,0,0,1,1.532.4.422.422,0,0,1,.234.329c-.3.207-.222.525-.222.81q0,6.206,0,12.412c.061.444-.248.771-.376,1.154a4.072,4.072,0,0,0,.166,3.252,1.217,1.217,0,0,1,.218.833" transform="translate(-27.948 -37.095)" fill="#b07a4a"/>
          <path id="Trazado_165561" data-name="Trazado 165561" d="M0,52.442c.309-.738.336-1.592,1.072-2.149,1.765-1.334,3.606-.881,4.958,1.46v-9.77c.288-.357.7-.262,1.07-.274,1.417-.043,2.834.033,4.252-.15a12.406,12.406,0,0,0,2.916-.726c.29-.112.588-.319.917-.083a2.051,2.051,0,0,1,.2,1.195c.009,1.672,0,3.343.012,5.014a1.142,1.142,0,0,1-.179.67,4.327,4.327,0,0,0-.028,4.377,1.4,1.4,0,0,1,.149.505,6.618,6.618,0,0,1-.083,2.1c-.293.411-.585.083-.852-.024a4.484,4.484,0,0,0-3.622-.034c-.55.244-1.081.55-1.09,1.263s.491,1.032,1.049,1.291a4.188,4.188,0,0,0,3.527.015c.288-.121.548-.382.91-.235a1.42,1.42,0,0,1,.351.976A13.543,13.543,0,0,0,25.212,69.3a3.007,3.007,0,0,1,1.483.618c-.146.285-.347.207-.506.207q-3.418.009-6.835,0a.53.53,0,0,1-.336-.08A12.885,12.885,0,0,1,10.7,66.61a13.641,13.641,0,0,1-4.266-6.9c-.09-.337-.2-.483-.563-.527C2.821,58.818.8,57.262.115,54.171.1,54.122.04,54.085,0,54.042v-1.6" transform="translate(0 -16.517)" fill="#fecabd"/>
          <path id="Trazado_165562" data-name="Trazado 165562" d="M25.451,52.205q.016-1.194.031-2.388a.3.3,0,0,1,.17-.035c1.406.28,1.917-.058,2.281-1.494a4.046,4.046,0,0,0,.1-1.659c-.254-1.559-.8-2.03-2.37-2.058-.3-.213-.2-.53-.2-.812,0-1.853,0-3.706,0-5.559.046-.345.341-.473.583-.623a9.445,9.445,0,0,0,2.67-2.568c.216-.3.4-.687.881-.635a13.419,13.419,0,0,1,1.467,1.264,9.2,9.2,0,0,0,4.708,1.85c2.894.156,5.787.072,8.679.036a21.658,21.658,0,0,0,6.387-.827,24.941,24.941,0,0,0,2.881-1.139c.283-.131.55-.377.905-.2q-.005,6.364-.008,12.728c0,.254-.085.539.172.738.3.49-.011,1.015.092,1.517,0,.994.024,1.987-.012,2.979a8.475,8.475,0,0,1-.18,1.832c-.1.617.012,1.095.651,1.334-.974.075-1.243.746-1.534,1.569-1.907,5.385-5.735,8.683-11.368,9.358a91.743,91.743,0,0,1-12.767.245c-.1,0-.205-.1-.307-.151h7.457a18.4,18.4,0,0,1-5.623-2.641,13.428,13.428,0,0,1-5.566-9.654c-.031-.291-.113-.576-.172-.864a3.228,3.228,0,0,0,0-2.136" transform="translate(-10.34 -13.967)" fill="#fedccd"/>
          <path id="Trazado_165563" data-name="Trazado 165563" d="M101.131,5.772c6.141-.527,12.295-.419,18.446-.352,2.123.023,4.247.192,6.367.34,1.96.137,3.093,1.52,3.3,3.737a100.921,100.921,0,0,1,.34,11.429,44.738,44.738,0,0,1-.494,6.349,3.3,3.3,0,0,1-3.471,3c-4.311.224-8.622.442-12.941.362a2.369,2.369,0,0,0-2.082,1.1A26.474,26.474,0,0,1,105.122,37a1.4,1.4,0,0,1-1.656.15,1.425,1.425,0,0,1-.741-1.4c.014-1.036.005-2.073,0-3.109-.005-1.591-.622-2.256-2.186-2.36a.685.685,0,0,1-.491-.161c-1.171-1.651-1.269-3.577-1.38-5.489a73.777,73.777,0,0,1-.156-10.182c.152-1.913.2-3.834.415-5.744a3.253,3.253,0,0,1,2.2-2.937" transform="translate(-39.985 -2.18)" fill="#9cc5fa"/>
          <path id="Trazado_165564" data-name="Trazado 165564" d="M61.232,21.39A19,19,0,0,1,51.544,23.8c-2.753,0-5.506.023-8.259.024a1.909,1.909,0,0,1-1.124-.141.819.819,0,0,1,.725-.255c1.831,0,3.662-.068,5.185.026a8.369,8.369,0,0,1-4.342-3.119,8.5,8.5,0,0,1-1.876-4.82,38.664,38.664,0,0,1,.14-8.068A9.116,9.116,0,0,1,47.666.436,9.742,9.742,0,0,1,49.655.042Q59.592.028,69.528.011c.325,0,.581.018.57.456-.09,3.388.3,6.8-.627,10.142A17.842,17.842,0,0,1,61.232,21.39" transform="translate(-16.952 -0.004)" fill="#a97a63"/>
          <path id="Trazado_165565" data-name="Trazado 165565" d="M94.389,83.138l-.229-.174a.543.543,0,0,1-.173-.3c-.137-3.164-.383-6.343,1.625-9.131a8.92,8.92,0,0,1,6.549-4.04c4.113,0,8.231-.135,12.336.036a9.31,9.31,0,0,1,8.642,8.993c.061,2.81,0,5.621-.008,8.433a18,18,0,0,0-2.729-2.766c-3.068-2.187-5.706-2.136-8.678.163-1,.776-1.98,1.6-3.049,2.279-3.259,2.063-6.841,1.831-10.08-.584-1.018-.759-2.018-1.542-3.037-2.3a3.221,3.221,0,0,0-1.171-.61" transform="translate(-38.16 -28.22)" fill="#365e7d"/>
          <path id="Trazado_165566" data-name="Trazado 165566" d="M44.193.039A10.669,10.669,0,0,0,39.1,2.854,9.073,9.073,0,0,0,36.577,9c-.088,1.859-.034,3.725-.014,5.588A9.117,9.117,0,0,0,42.849,23.3a1.192,1.192,0,0,1,.618.381H36.7a8.522,8.522,0,0,1-6.006-3.227c-.439-.118-.648-.473-.887-.816A10.414,10.414,0,0,1,28.315,13.8a37.378,37.378,0,0,1,.17-5.921A1.883,1.883,0,0,1,28.9,6.742,8.974,8.974,0,0,1,36.308.1,13.844,13.844,0,0,1,38.783.013c1.8,0,3.607.016,5.41.026" transform="translate(-11.49 0)" fill="#976b54"/>
          <path id="Trazado_165567" data-name="Trazado 165567" d="M21.272,11.116a36.679,36.679,0,0,0-.329,7.313,9.687,9.687,0,0,0,2.119,6.4c-.306.055-.394.332-.535.545a10.591,10.591,0,0,1-3.549,3.237c-2.28,1.19-4.754,1.213-7.234,1.206-.618,0-1.236.018-1.855.028l-.395-.179c.562-.5,1.244-.255,1.873-.284,1.039-.048,1.114-.083,1.117-1.119q.012-5.378,0-10.755a6.714,6.714,0,0,1,3.327-6,6.436,6.436,0,0,1,2.086-.7,8.324,8.324,0,0,1,3.375.313" transform="translate(-3.858 -4.374)" fill="#a97a63"/>
          <path id="Trazado_165568" data-name="Trazado 165568" d="M95.99,69.511a12.754,12.754,0,0,0-4.149,1.871,9.358,9.358,0,0,0-3.836,7.253c-.066,1.447-.014,2.9-.016,4.35-3.489-1.175-6.637.845-8.686,3.52-.159.208-.344.395-.517.592a81.2,81.2,0,0,1,.153-9.751,9.383,9.383,0,0,1,8.884-7.839c2.722-.038,5.445,0,8.167,0" transform="translate(-31.988 -28.24)" fill="#2b4d66"/>
          <path id="Trazado_165569" data-name="Trazado 165569" d="M16.024,10.815c-.732.43-1.574.621-2.28,1.125a6.314,6.314,0,0,0-2.867,5.374c-.007,3.779-.021,7.56.014,11.339.007.753-.153,1.079-.971,1.007a22.883,22.883,0,0,0-2.3.013A3.006,3.006,0,0,1,5,26.857a101.514,101.514,0,0,1,.04-10.481,6.5,6.5,0,0,1,6.1-5.575c1.628-.024,3.257.007,4.886.014" transform="translate(-1.985 -4.386)" fill="#976b54"/>
          <path id="Trazado_165570" data-name="Trazado 165570" d="M25.428,113.2q5.421,0,10.843,0a3.666,3.666,0,0,1,.8.028,1.288,1.288,0,0,1,1.086,1.329,1.256,1.256,0,0,1-1.077,1.327,5.6,5.6,0,0,1-1.063.046q-10.577,0-21.152,0a6.94,6.94,0,0,1-.976-.031,1.286,1.286,0,0,1-1.177-1.334,1.327,1.327,0,0,1,1.254-1.357c.264-.026.533-.011.8-.011H25.428" transform="translate(-5.164 -46.002)" fill="#2b4d66"/>
          <path id="Trazado_165571" data-name="Trazado 165571" d="M25.44,106.021q-5.421,0-10.842,0a3.831,3.831,0,0,1-.8-.032,1.273,1.273,0,0,1-1.082-1.327,1.256,1.256,0,0,1,1.078-1.326,5.6,5.6,0,0,1,1.063-.044q10.575,0,21.151,0c.237,0,.474-.007.711.006a1.363,1.363,0,1,1,0,2.721c-.236.011-.474,0-.711,0H25.44" transform="translate(-5.169 -41.975)" fill="#2b4d66"/>
          <path id="Trazado_165572" data-name="Trazado 165572" d="M11.1,97.794c-.034.266-.262.378-.43.53a3.462,3.462,0,0,0-1.205,2.286,22.913,22.913,0,0,0-.283,4.2,20.814,20.814,0,0,1-.271,2.263c-.04,1.129.258,2.227.2,3.353a19.092,19.092,0,0,0-.175,3.352c.267,2.12.155,4.275.556,6.377a3.736,3.736,0,0,0,1.477,2.262c-1.291.391-2.829-.7-3.282-2.218a12.923,12.923,0,0,1-.321-2.622A108.074,108.074,0,0,1,7.2,105.1a24.2,24.2,0,0,1,.509-4.9,3.146,3.146,0,0,1,3.4-2.4" transform="translate(-2.886 -39.721)" fill="#e6ebf5"/>
          <path id="Trazado_165573" data-name="Trazado 165573" d="M100.108,6.05c-.731.7-1.666,1.242-1.881,2.363a10.721,10.721,0,0,0-.188,1.657c-.033,1.032-.177,2.052-.244,3.078a71.42,71.42,0,0,0-.141,7.339c.094,2.493.311,4.983.544,7.469a3.011,3.011,0,0,0,1.048,2c.448.39.125.431-.219.449A3.31,3.31,0,0,1,96.4,27.539c-.133-1.26-.255-2.522-.346-3.786A85.544,85.544,0,0,1,96.4,8.989a3.474,3.474,0,0,1,3.712-2.939" transform="translate(-38.963 -2.457)" fill="#80b3fa"/>
          <path id="Trazado_165574" data-name="Trazado 165574" d="M142.873,128.27a30.057,30.057,0,0,0,.184-3.219,5.347,5.347,0,0,0,1.269-.951,1.985,1.985,0,0,1,1.18-.548c.745-.164,1.109-.632,1.022-1.22-.083-.567-.6-.887-1.362-.833a3.429,3.429,0,0,0-1.193.322c-.287.132-.56.355-.914.227.038-.375.264-.727.141-1.122a2.93,2.93,0,0,1,5.707.095,5.92,5.92,0,0,1-6.034,7.25" transform="translate(-58.063 -48.24)" fill="#b07a4a"/>
          <path id="Trazado_165575" data-name="Trazado 165575" d="M75.121,65.15c-.7.068-1.167-.017-.923-.955a12.759,12.759,0,0,0,.2-2.082c.363-.389.818-.673,1.193-1.049a1.627,1.627,0,0,1,1.526-.506.972.972,0,0,0,1.254-.807c.142-.685-.312-1.042-.9-1.215a3.178,3.178,0,0,0-2.078.149c-.319.122-.614.379-1,.239a3.791,3.791,0,0,1,.168-1.435,2.915,2.915,0,0,1,3.131-1.77A2.751,2.751,0,0,1,80.19,58.1a5.837,5.837,0,0,1-5.069,7.046" transform="translate(-30.127 -22.637)" fill="#fecabd"/>
          <path id="Trazado_165576" data-name="Trazado 165576" d="M18.126,123.108c1.27,0,2.539-.008,3.809,0,1.018.008,1.593.512,1.593,1.369,0,.832-.54,1.352-1.511,1.358q-3.9.028-7.8,0a1.372,1.372,0,1,1,.007-2.725c1.3-.015,2.6,0,3.9,0" transform="translate(-5.16 -50.029)" fill="#2b4d66"/>
          <path id="Trazado_165577" data-name="Trazado 165577" d="M108.355,137.758a3.684,3.684,0,0,1-2.987-1.014c-.833-.711-1.023-1.321-.563-1.956s1.28-.661,2.1-.06a2.333,2.333,0,0,0,3.067.005c.094-.071.171-.165.266-.234a1.256,1.256,0,0,1,1.625,1.889,4.15,4.15,0,0,1-3.511,1.37" transform="translate(-42.493 -54.551)" fill="#dc636e"/>
          <path id="Trazado_165578" data-name="Trazado 165578" d="M126.67,117.131a3.506,3.506,0,0,1-.665,2.344,1.271,1.271,0,0,1-2.219.011,4.342,4.342,0,0,1,0-4.689,1.244,1.244,0,0,1,2.153-.068,3.267,3.267,0,0,1,.726,2.4" transform="translate(-50.027 -46.386)" fill="#2b4d66"/>
          <path id="Trazado_165579" data-name="Trazado 165579" d="M93.76,119.785a4.3,4.3,0,0,1-.008-5.239c1.1-.636,1.8-.438,2.32.718a4.479,4.479,0,0,1,.053,3.676c-.5,1.2-1.216,1.425-2.365.845" transform="translate(-37.74 -46.405)" fill="#2b4d66"/>
          <path id="Trazado_165580" data-name="Trazado 165580" d="M143.185,123.787a4.131,4.131,0,0,1,2.563-.776c.692.1,1.143.4,1.168,1.184a1.163,1.163,0,0,1-1.08,1.295,2.281,2.281,0,0,0-1.632.91,1.039,1.039,0,0,1-1.021.392q0-1.5,0-3" transform="translate(-58.189 -49.981)" fill="#8f6239"/>
          <path id="Trazado_165581" data-name="Trazado 165581" d="M76.469,125.345c0,.265.013.531,0,.794-.015.221.106.517-.168.632a.64.64,0,0,1-.765-.3,2.7,2.7,0,0,0-1.577-1.035,1.144,1.144,0,0,1-.834-1.367,1.1,1.1,0,0,1,1.18-.966c1.59-.093,2.169.5,2.169,2.237" transform="translate(-29.708 -50.026)" fill="#8f6239"/>
          <path id="Trazado_165582" data-name="Trazado 165582" d="M21.55,63.849a1.4,1.4,0,0,1,0,2.136,4.351,4.351,0,0,1-4.891.211,1.36,1.36,0,0,1-.139-2.425,4.4,4.4,0,0,1,5.027.077" transform="translate(-6.439 -25.612)" fill="#e9a497"/>
          <path id="Trazado_165583" data-name="Trazado 165583" d="M25.135,51.386a1.4,1.4,0,0,1,2.17.726,4.258,4.258,0,0,1,.058,3.848c-.542,1.183-1.309,1.376-2.405.672a4.284,4.284,0,0,1,.177-5.246" transform="translate(-9.814 -20.782)" fill="#2b4d66"/>
          <path id="Trazado_165584" data-name="Trazado 165584" d="M7.156,62.4c-.1.42.238,1.085-.17,1.3-.546.281-.756-.49-1.153-.745-.461-.3-.831-.667-1.513-.436A1.178,1.178,0,0,1,2.8,61.642c-.256-.728.21-1.2.769-1.51a3.308,3.308,0,0,1,3.188.395c.578.509.344,1.207.4,1.87" transform="translate(-1.107 -24.336)" fill="#e9ac9d"/>
          <path id="Trazado_165585" data-name="Trazado 165585" d="M39.749,74.824a5.01,5.01,0,0,1-3.464-1.458,1.179,1.179,0,0,1-.113-1.678,1.123,1.123,0,0,1,1.662-.234,2.562,2.562,0,0,0,3.726-.007,1.1,1.1,0,0,1,1.6.184,1.117,1.117,0,0,1,.028,1.666,4.958,4.958,0,0,1-3.433,1.527" transform="translate(-14.579 -28.928)" fill="#dc636e"/>
          <path id="Trazado_165586" data-name="Trazado 165586" d="M61.36,66.884a4.394,4.394,0,0,1-2.558-.933,1.4,1.4,0,0,1,0-2.047,4.421,4.421,0,0,1,5.038-.183c1.1.837.965,1.921-.294,2.6a5.458,5.458,0,0,1-2.184.562" transform="translate(-23.716 -25.611)" fill="#e9a598"/>
          <path id="Trazado_165587" data-name="Trazado 165587" d="M58,54.029a4.017,4.017,0,0,1-.8,2.474,1.24,1.24,0,0,1-2.052.011,4.335,4.335,0,0,1,0-4.9,1.238,1.238,0,0,1,2.051,0,3.927,3.927,0,0,1,.8,2.411" transform="translate(-22.105 -20.756)" fill="#2b4d66"/>
          <path id="Trazado_165588" data-name="Trazado 165588" d="M74.588,60.617a3.745,3.745,0,0,1,3.348-.544,1.226,1.226,0,0,1,.871,1.59c-.3.637-.768,1.125-1.613.8-.561-.215-.948.138-1.314.494s-.707.8-1.294.848q0-1.595,0-3.189" transform="translate(-30.311 -24.331)" fill="#e9ab9c"/>
          <path id="Trazado_165589" data-name="Trazado 165589" d="M114.37,14.373c-3.729,0-7.457.008-11.187-.005-1.241,0-1.942-1.019-1.407-1.993a1.511,1.511,0,0,1,1.508-.719c4.054.011,8.108,0,12.162,0,3.344,0,6.688-.006,10.033,0,1.055,0,1.621.573,1.544,1.492-.067.794-.575,1.211-1.555,1.213-3.7.008-7.4,0-11.1,0" transform="translate(-41.287 -4.736)" fill="#2b4d66"/>
          <path id="Trazado_165590" data-name="Trazado 165590" d="M114.3,24.278c-3.7,0-7.4-.006-11.1.006a1.444,1.444,0,0,1-1.422-.708,1.286,1.286,0,0,1,.082-1.425,1.514,1.514,0,0,1,1.4-.583q7.146.015,14.293.005,3.906,0,7.812,0c1.111,0,1.675.48,1.659,1.386-.016.879-.538,1.313-1.631,1.315q-5.548.009-11.1,0" transform="translate(-41.292 -8.765)" fill="#2b4d66"/>
          <path id="Trazado_165591" data-name="Trazado 165591" d="M106.952,34.185c-1.273,0-2.545.014-3.818-.005A1.386,1.386,0,0,1,101.6,32.82a1.408,1.408,0,0,1,1.554-1.354q3.863-.017,7.725,0c.968,0,1.534.51,1.548,1.329.015.886-.518,1.374-1.568,1.387-1.3.017-2.6,0-3.907,0" transform="translate(-41.289 -12.784)" fill="#2b4d66"/>
        </g>
      </g>
    </g>
  </g>
</svg>
