<svg xmlns="http://www.w3.org/2000/svg" xmlns:xlink="http://www.w3.org/1999/xlink" width="105" height="105" viewBox="0 0 105 105">
  <defs>
    <clipPath id="clip-path">
      <rect id="Rectángulo_43085" data-name="Rectángulo 43085" width="61.929" height="76.737" fill="none"/>
    </clipPath>
  </defs>
  <g id="_46" data-name="46" transform="translate(-433.326 -839)">
    <path id="Trazado_160852" data-name="Trazado 160852" d="M52.5,0A52.5,52.5,0,1,1,0,52.5,52.5,52.5,0,0,1,52.5,0Z" transform="translate(433.326 839)" fill="#ff9fa3"/>
    <g id="Grupo_170494" data-name="Grupo 170494" transform="translate(454.326 853)">
      <g id="Grupo_170493" data-name="Grupo 170493" clip-path="url(#clip-path)">
        <path id="Trazado_165210" data-name="Trazado 165210" d="M56.128,32.237c-.878-.217-1.131-.5-1.138-1.392-.013-1.524-.03-3.048.011-4.572a.893.893,0,0,0-.6-.964c-.9-.422-1.779-.894-2.664-1.351a3.108,3.108,0,0,1-1.611-4.246A3.149,3.149,0,0,1,54.475,18.4c.09.041.183.075.395.162,0-.6-.006-1.161,0-1.717a3.828,3.828,0,0,1,4.1-4.062,6.479,6.479,0,0,1,1.859.152A3.892,3.892,0,0,1,63.7,16.846c.013,3.548,0,7.1,0,10.643q0,9.668,0,19.337c0,2.485-.894,3.546-3.312,4-3.457.643-6.911,1.3-10.368,1.946-.48.089-.741.188-.66.826.611,4.853,1.168,9.714,1.743,14.572.349,2.95.691,5.9,1.061,8.847a1.541,1.541,0,0,1-.677,1.377h-.9a1.362,1.362,0,0,1-.756-.782c-.049-.192-.117-.379-.16-.574-.853-7.161-1.681-14.324-2.554-21.482-.091-.743-.186-1.486-.25-2.232a2.568,2.568,0,0,1,2.023-2.83c.654-.162,1.319-.275,1.984-.387,1.039-.175,1.076-.235.929-1.335-.148-.963-.331-1.92-.465-2.884-.08-.573-.344-.777-.9-.7-3.04.434-6.091.789-9.136,1.194a1.442,1.442,0,0,0-1.084.812,7.443,7.443,0,0,1-5.446,3.822,7.191,7.191,0,0,1-7.285-3.129,1.794,1.794,0,0,0-1.608-.974,2.6,2.6,0,0,1-1.7-.694c-1.645-1.38-3.221-2.839-4.831-4.258-.6-.533-.638-.544-1.181.065-.6.671-1.281,1.261-1.831,1.978-.47.612-.491.68.107,1.207.824.726,1.655,1.444,2.473,2.178a5.555,5.555,0,0,1,1.849,3.733c.384,3.849.834,7.692,1.248,11.539.372,3.448.767,6.894,1.137,10.343.152,1.413.355,2.823.42,4.245a1.207,1.207,0,0,1-.868,1.143h-.75A1.545,1.545,0,0,1,21.095,77q-.612-5.773-1.246-11.543-.773-7.112-1.545-14.224a3.339,3.339,0,0,0-1.232-2.225C13.244,45.648,9.454,42.24,5.61,38.894a5.911,5.911,0,0,1-1.849-6.988c2.168-6.364,4.259-12.754,6.369-19.138.241-.731.585-1.269,1.452-1.224a1.113,1.113,0,0,1,1.043,1.4,5.1,5.1,0,0,1-.237.789C10.3,20.02,8.219,26.3,6.1,32.578a3.744,3.744,0,0,0,1.136,4.511c2.055,1.707,4,3.545,6.023,5.284.391.335.656.341.989-.066.633-.772,1.4-1.425,2.028-2.2.3-.367.349-.59-.04-.919-1.448-1.226-2.845-2.51-4.283-3.748a3.5,3.5,0,0,1-1.226-4.456c1.58-4.766,3.2-9.521,4.751-14.3a2.863,2.863,0,0,1,2.655-2.246c.943-.086,1.869-.325,2.812-.439a1.818,1.818,0,0,0,.366-.078c.338-.115.59-.312.53-.706a.636.636,0,0,0-.753-.568c-.472.037-.936.151-1.406.217A1.769,1.769,0,0,1,17.594,10.4c.263-.834.575-1.652.81-2.495a1.44,1.44,0,0,0-1-2.012,5.4,5.4,0,0,0-.783-.256,1.429,1.429,0,0,0-1.845.97c-.2.511-.319,1.055-.559,1.55a1.118,1.118,0,0,1-1.563.656c-.793-.568-.9-.863-.6-1.763.153-.474.3-.951.472-1.418a3.826,3.826,0,0,1,4.724-2.377c.407.116.811.246,1.206.4a3.807,3.807,0,0,1,2.353,4.789c-.178.591-.374,1.177-.581,1.825a5.886,5.886,0,0,1,1.685-.016,3.08,3.08,0,0,1,2.473,3.13,3.037,3.037,0,0,1-2.591,2.944c-1.129.205-2.261.4-3.4.565a.587.587,0,0,0-.552.48Q15.4,24.739,12.931,32.1A.991.991,0,0,0,13.25,33.3Q19.4,38.732,25.533,44.184a1.728,1.728,0,0,0,1.335.285c1.891.012,1.864,0,1.905-1.854a1.265,1.265,0,0,0-.779-1.391,6.987,6.987,0,0,1-3.162-3.289.714.714,0,0,0-.791-.479c-.648.033-1.3.02-1.948,0a2.558,2.558,0,0,1-2.6-2.313,8.223,8.223,0,0,1,.047-3.5c.685-1.966.413-3.939.445-5.908A12.6,12.6,0,0,1,31.963,13.482c2.549-.086,5.116-.151,7.513.935A12.413,12.413,0,0,1,47.248,25.8c.051.947.008,1.9.013,2.849A9.574,9.574,0,0,0,47.6,31.2a9.985,9.985,0,0,1,.042,4.382,2.461,2.461,0,0,1-2.421,1.876q-1.048.034-2.1,0a.629.629,0,0,0-.686.412,7.6,7.6,0,0,1-3.582,3.585.621.621,0,0,0-.4.692,9.444,9.444,0,0,1,0,1.349c-.061.61.156.792.762.706,2.051-.29,4.108-.541,6.162-.809,2.92-.382,5.838-.785,8.762-1.138.628-.075.9-.233.867-.938-.063-1.547-.025-3.1-.017-4.647.005-.941.224-1.211,1.143-1.479.777-.05,1.209.337,1.254,1.186.049.922.014,1.846.016,2.77,0,.948.012,1.9,0,2.845a2.4,2.4,0,0,1-2.064,2.547c-1.458.346-1.456.346-1.221,1.806.1.64.244,1.275.309,1.921.267,1.092.271,1.11,1.335.907,1.4-.267,2.8-.506,4.192-.8,1.055-.221,1.2-.375,1.2-1.447q.013-6.366,0-12.73,0-8.425,0-16.849c0-1.743-.748-2.368-2.5-2.1-1.025.339-1.245.622-1.261,1.664-.012.824.029,1.65-.015,2.473-.1,1.821-1.4,2.553-3.023,1.711a5.735,5.735,0,0,0-1.073-.528c-.371-.1-.716-.078-.881.326a.626.626,0,0,0,.354.812c.666.4,1.378.705,2.066,1.06a13.109,13.109,0,0,1,1.51.827,2.227,2.227,0,0,1,1.051,1.883c.015,1.849.031,3.7-.007,5.545-.02.955-.446,1.332-1.25,1.212" transform="translate(-1.774 -1.652)"/>
        <path id="Trazado_165211" data-name="Trazado 165211" d="M15.211,11.4a1.266,1.266,0,0,0,1.532-1.075,10.5,10.5,0,0,1,.39-1.129,2.735,2.735,0,0,1,.282-.6c.565-.806,1.5-.864,2.921-.2a1.522,1.522,0,0,1,.881,1.912c-.275.956-.618,1.893-.916,2.843a1.539,1.539,0,0,0,1.771,2.139c.495-.06.981-.183,1.475-.249.556-.074,1.02.083,1.119.7.092.578-.245.883-.791.974-1.107.183-2.211.388-3.324.53a2.473,2.473,0,0,0-2.25,1.864q-2.4,7.35-4.893,14.668a3.315,3.315,0,0,0,1.071,3.948c1.705,1.463,3.37,2.973,5.082,4.49-1,1.081-1.987,2.134-2.951,3.208-.239.267-.384.188-.6,0-2.274-2.027-4.571-4.029-6.826-6.076a3.392,3.392,0,0,1-.8-3.915q3.254-9.7,6.477-19.419c.343-1.031.2-1.4-.721-1.873A15.767,15.767,0,0,0,15.211,11.4" transform="translate(-4.329 -4.239)" fill="#fecdbe"/>
        <path id="Trazado_165212" data-name="Trazado 165212" d="M110.125,61.962c-.176-1.08-.334-2.164-.538-3.238-.069-.366.014-.5.38-.516,2.628-.112,3.3-1.169,3.179-3.7-.064-1.367-.034-2.741,0-4.11a1.28,1.28,0,0,0-1.111-1.5q0-1.476,0-2.952a1.178,1.178,0,0,0,1.109-1.334q-.015-2.619,0-5.238a2.145,2.145,0,0,0-1.249-2.046c-1.06-.55-2.127-1.087-3.188-1.635-.676-.349-.93-.821-.645-1.289.367-.6.88-.539,1.425-.234.39.218.789.422,1.193.615a1.533,1.533,0,0,0,2.339-1.426c.031-1-.012-2,.02-2.993A1.458,1.458,0,0,1,114.4,28.8c.658-.2.981.147,1.171.716a3.7,3.7,0,0,1,.146,1.185q0,14.17,0,28.339c0,1.693-.507,2.288-2.149,2.63-.856.179-1.713.353-2.574.506-.308.055-.654.173-.867-.209" transform="translate(-57.674 -15.356)" fill="#fecdbe"/>
        <path id="Trazado_165213" data-name="Trazado 165213" d="M96.679,2.414c0,2.342.01,4.606,0,6.871A3.671,3.671,0,0,1,90.2,11.758,3.655,3.655,0,0,1,93.558,5.78c.267.043.532.107.872.176,0-1.366-.006-2.7,0-4.042C94.44.424,95.32-.254,96.78.087A5.2,5.2,0,0,1,100.361,2.9a1.156,1.156,0,0,1-.351,1.688A1.134,1.134,0,0,1,98.4,3.976a3.14,3.14,0,0,0-1.724-1.562" transform="translate(-47.732 0)"/>
        <path id="Trazado_165214" data-name="Trazado 165214" d="M7.322,114.165c0,1.148.057,2.3-.014,3.444a3.515,3.515,0,0,1-2.566,3.161,3.622,3.622,0,0,1-3.858-1.138A3.549,3.549,0,0,1,.4,115.638a3.6,3.6,0,0,1,4.212-1.908c.452.1.5,0,.5-.391-.015-1.148-.013-2.3,0-3.446.013-1.624.9-2.316,2.481-1.906a5.2,5.2,0,0,1,3.482,2.831,1.136,1.136,0,0,1-.425,1.661,1.1,1.1,0,0,1-1.545-.607,3.571,3.571,0,0,0-1.242-1.364c-.372-.235-.517-.181-.509.286.018,1.123.006,2.247.006,3.371h-.03" transform="translate(0 -57.638)"/>
        <path id="Trazado_165215" data-name="Trazado 165215" d="M64.038,121.422c-.228-.373-.6-.29-.941-.29l-24.585-.007c-.35,0-.7-.015-1.049-.024-.923-8.432-1.9-16.859-2.731-25.3a6.919,6.919,0,0,0-2.777-5.284c-.739-.549-1.381-1.225-2.086-1.822-.267-.225-.3-.36-.037-.633.868-.9,1.719-1.811,2.54-2.751.3-.349.482-.349.822-.04,1.589,1.443,3.221,2.84,4.806,4.287a3.138,3.138,0,0,0,2.5.948c.447-.044.64.164.853.521a7.286,7.286,0,0,0,12.852-.369,1.017,1.017,0,0,1,.868-.646q4.862-.616,9.718-1.284c.559-.077.73.086.784.635.1,1.04.292,2.071.446,3.106-.008.547-.468.519-.8.59-1.489.316-2.983.6-4.475.906-1.288.26-1.547.622-1.377,1.982.3,2.376.6,4.751.887,7.129.67,5.521,1.368,11.039,2.046,16.56.121.981.121.983,1.147,1.141a1.034,1.034,0,0,1,.479.195.573.573,0,0,1,.112.451" transform="translate(-15.843 -45.441)" fill="#d7ebfd"/>
        <path id="Trazado_165216" data-name="Trazado 165216" d="M52.53,55.694c0-1.522.015-3.045-.008-4.567-.007-.5.061-.659.6-.429a33.194,33.194,0,0,0,8.741,2.461,18.3,18.3,0,0,0,4.849.112c.466-.064.59.047.583.524-.029,2.071.01,4.143-.024,6.214a5.512,5.512,0,0,1-5.295,5.364,23.627,23.627,0,0,1-5-.115,5.417,5.417,0,0,1-4.419-5.147c-.059-1.47-.011-2.944-.011-4.416H52.53" transform="translate(-28.063 -27.034)" fill="#fecdbe"/>
        <path id="Trazado_165217" data-name="Trazado 165217" d="M43.932,41.226a10.18,10.18,0,0,1,3.118-8.14,9.669,9.669,0,0,1,6.265-2.869,15.251,15.251,0,0,1,6.8.647,10.35,10.35,0,0,1,6.576,9.367c.024.974-.018,1.95.019,2.924.019.5-.141.688-.634.625a3.2,3.2,0,0,0-.674,0c-.356.031-.485-.109-.475-.469.02-.724.016-1.45,0-2.174-.017-.875-.473-1.367-1.313-1.228-5.7.939-10.915-.7-16.008-2.99a1.349,1.349,0,0,0-1.48-.021,1.254,1.254,0,0,0-.445,1.133c0,1.674-.044,3.35.02,5.022.031.8-.4.731-.924.733-.5,0-.954.067-.861-.695a17.067,17.067,0,0,0,.013-1.861" transform="translate(-23.461 -16.095)" fill="#7ca0b0"/>
        <path id="Trazado_165218" data-name="Trazado 165218" d="M112.634,61.924a9.453,9.453,0,0,0,2.61-.37c.367-.036.726-.163,1.091-.23a1.712,1.712,0,0,0,1.654-1.934q.01-14.581,0-29.163c0-.988-.305-1.367-1.077-1.47a3.7,3.7,0,0,1,1.627,0,1.566,1.566,0,0,1,1.3,1.442,6.631,6.631,0,0,1,.017.674q0,14.769,0,29.536c0,1.47-.1,1.6-1.528,1.88-1.542.3-3.1.524-4.629.884-.754.177-1.012-.008-.992-.739a2.934,2.934,0,0,0-.075-.514" transform="translate(-60.183 -15.318)" fill="#feaf9d"/>
        <path id="Trazado_165219" data-name="Trazado 165219" d="M97.716,129.489c-1.562.034-1.606.04-1.834-1.5-.287-1.933-.489-3.878-.736-5.817-.278-2.184-.574-4.367-.848-6.552-.228-1.818-.428-3.639-.651-5.457s-.446-3.636-.7-5.45a5.436,5.436,0,0,1-.035-1.34,1.133,1.133,0,0,1,1.034-1.018c1.775-.343,3.546-.705,5.322-1.042a.648.648,0,0,0,.541-.33c.167.242.074.543.169.793.184.486,0,.657-.478.727-.837.122-1.666.3-2.5.453a2.257,2.257,0,0,0-2.037,2.77q1.262,10.729,2.537,21.457c.09.766.14,1.536.209,2.3" transform="translate(-49.633 -53.959)" fill="#b2d9fd"/>
        <path id="Trazado_165220" data-name="Trazado 165220" d="M66.957,90.622a3.68,3.68,0,0,0,1,.641,5,5,0,0,1-8.061.556c-.127-.167-.337-.317,0-.515a2.71,2.71,0,0,0,1.249-2.691c-.03-1.417,0-1.42,1.433-1.416.9,0,1.8.016,2.694.024a1.268,1.268,0,0,1,.2,1.07,1.94,1.94,0,0,0,1.486,2.33" transform="translate(-31.904 -46.592)" fill="#fecdbe"/>
        <path id="Trazado_165221" data-name="Trazado 165221" d="M45.07,66.108a2.286,2.286,0,0,1,0,.3c-.062.462.25,1.188-.087,1.334a4.5,4.5,0,0,1-1.838.075c-.313-.011-.374-.29-.376-.553,0-.823,0-1.647,0-2.469,0-.393.17-.568.583-.6,1.722-.131,1.721-.142,1.722,1.914" transform="translate(-22.85 -34.274)" fill="#fcae9c"/>
        <path id="Trazado_165222" data-name="Trazado 165222" d="M89.061,66.013v-.224c0-1.618,0-1.6,1.612-1.556.472.014.682.163.668.653-.022.8-.017,1.594,0,2.391.008.455-.2.593-.634.61-1.646.062-1.645.075-1.645-1.574v-.3" transform="translate(-47.587 -34.314)" fill="#feaf9d"/>
        <path id="Trazado_165223" data-name="Trazado 165223" d="M73.337,90.587a1.49,1.49,0,0,1-1.681-1.615c-.011-.595,0-1.189-.006-1.784a3.861,3.861,0,0,0,.521-.033c.5-.1.58.149.558.579a3.978,3.978,0,0,0,.607,2.854" transform="translate(-38.284 -46.557)" fill="#feb09e"/>
        <path id="Trazado_165224" data-name="Trazado 165224" d="M94.189,18.531a1.414,1.414,0,0,1,1.422-1.423,1.464,1.464,0,0,1,1.407,1.458,1.414,1.414,0,0,1-1.4,1.363,1.376,1.376,0,0,1-1.425-1.4" transform="translate(-50.328 -9.142)" fill="#8278bf"/>
        <path id="Trazado_165225" data-name="Trazado 165225" d="M6.291,125.011A1.4,1.4,0,0,1,7.7,126.439a1.4,1.4,0,0,1-2.8.01,1.4,1.4,0,0,1,1.4-1.438" transform="translate(-2.615 -66.796)" fill="#fc75a7"/>
      </g>
    </g>
  </g>
</svg>
