<svg xmlns="http://www.w3.org/2000/svg" xmlns:xlink="http://www.w3.org/1999/xlink" width="105" height="105" viewBox="0 0 105 105">
  <defs>
    <clipPath id="clip-path">
      <rect id="Rectángulo_43086" data-name="Rectángulo 43086" width="70.674" height="77.033" fill="none"/>
    </clipPath>
  </defs>
  <g id="_47" data-name="47" transform="translate(-748.326 -839)">
    <path id="Trazado_160852" data-name="Trazado 160852" d="M52.5,0A52.5,52.5,0,1,1,0,52.5,52.5,52.5,0,0,1,52.5,0Z" transform="translate(748.326 839)" fill="#ff9fa3"/>
    <g id="Grupo_170497" data-name="Grupo 170497" transform="translate(765.326 853)">
      <g id="Grupo_170496" data-name="Grupo 170496" clip-path="url(#clip-path)">
        <path id="Trazado_165226" data-name="Trazado 165226" d="M46.319,116.022a1.414,1.414,0,0,1,.715,1.236,33.482,33.482,0,0,1-1.243,13.065,4.363,4.363,0,0,1-3.374,3.009H7.97a8.846,8.846,0,0,1-2.945-1.213,6.82,6.82,0,0,1-2.9-6.016c.011-.479,0-.78-.613-.961a2.094,2.094,0,0,1-1.491-2.12c-.029-1.176-.033-2.353,0-3.529a2.236,2.236,0,0,1,1.885-2.207c.387-.072.538-.2.6-.569a33.379,33.379,0,0,1,3.3-9.274,1.346,1.346,0,0,1,1.676-.866,1.164,1.164,0,0,1,.692,1.638c-.239.633-.591,1.216-.882,1.827a31.928,31.928,0,0,0-2.143,6.006c-.223.893-.158.969.731.97q4.208.006,8.417,0c.889,0,.941-.032,1.138-.942a32.459,32.459,0,0,1,2.571-7.359,3.026,3.026,0,0,1,.424-.707,1.325,1.325,0,0,1,1.579-.3,1.2,1.2,0,0,1,.65,1.446,14.6,14.6,0,0,1-.774,1.873,30.624,30.624,0,0,0-1.735,5.2,1.012,1.012,0,0,0,.456,1.271,2.529,2.529,0,0,1,1.156,2.24q.01,1.54,0,3.081A2.577,2.577,0,0,1,18.25,125.3a.908.908,0,0,0-.586.937,7.192,7.192,0,0,1-1.124,4.069c-.273.44-.131.576.331.551.175-.009.351,0,.526,0q11.386,0,22.774,0c.4.012.8,0,1.2,0a1.919,1.919,0,0,0,2.116-1.541,29.3,29.3,0,0,0,1.117-5.975,21.575,21.575,0,0,0,.007-4.948,6.386,6.386,0,0,1-.009-.9c.017-1.4.333-1.673,1.714-1.466" transform="translate(0 -56.299)"/>
        <path id="Trazado_165227" data-name="Trazado 165227" d="M111.645,114.828a1.722,1.722,0,0,1-.747-1.662c.016-8.821.005-17.641.023-26.462a.953.953,0,0,0-.606-1.043,3.756,3.756,0,0,1-.589-.328,5.239,5.239,0,0,0-3.653-.977,6.257,6.257,0,0,1-6.616-5.384,6.444,6.444,0,0,1,12.459-3.106,1.637,1.637,0,0,0,.816.983q2.968,1.681,5.911,3.407a4.369,4.369,0,0,1,2.252,4.68.465.465,0,0,0,.272.587c.484.261.961.536,1.422.835a1.1,1.1,0,0,1,.461,1.544,1.055,1.055,0,0,1-1.552.389,2.442,2.442,0,0,0-3.262-.116,3.673,3.673,0,0,1-3.8-.132c-.393-.206-.775-.43-1.179-.655a1.628,1.628,0,0,0-.084.847q-.007,12.516.008,25.034a1.556,1.556,0,0,1-.779,1.562Z" transform="translate(-52.531 -37.795)"/>
        <path id="Trazado_165228" data-name="Trazado 165228" d="M45.426,121.052q-5.486.012-10.972.023-6.651.006-13.3,0c-.1-.229.1-.319.194-.442A6.988,6.988,0,0,0,22.7,116.05c-.02-.466.041-.728.6-.9a2.1,2.1,0,0,0,1.506-2.111c.031-1.177.028-2.355,0-3.532a2.136,2.136,0,0,0-1.371-2.059c-.435-.176-.413-.367-.339-.729a30.545,30.545,0,0,1,2.257-6.655c.1-.227.226-.446.318-.678a1.136,1.136,0,0,0-.484-1.546,1.116,1.116,0,0,0-1.557.6,34.679,34.679,0,0,0-1.825,4.429,28.868,28.868,0,0,0-1.017,3.915c-.05.268-.068.459-.428.458-3.455-.012-6.909-.007-10.4-.007a31.292,31.292,0,0,1,3.128-8.771c.466-.908.4-1.213-.339-1.888a13.432,13.432,0,0,0,1.55-2.6,2.126,2.126,0,0,0,2.121-1.192,29.185,29.185,0,0,1,4.171-4.819c.562-.528.755-.493,1.128.18a20.359,20.359,0,0,0,7.595,7.52,12.616,12.616,0,0,0,4,1.666A2.449,2.449,0,0,0,35.941,96.3a11.229,11.229,0,0,0,1.765-5.054c.058-.32.09-.645.174-.96.116-.436.35-.45.636-.157.244.25.473.519.7.786a15.279,15.279,0,0,0,4.15,3.533.967.967,0,0,1,.318.316,36.709,36.709,0,0,1,3.534,10.946,31.952,31.952,0,0,1-.711,13.376c-.2.725-.268,1.559-1.078,1.965" transform="translate(-5.264 -46.299)" fill="#dcdaed"/>
        <path id="Trazado_165229" data-name="Trazado 165229" d="M45.586,48.44A19.032,19.032,0,0,1,40.2,43.618a25.5,25.5,0,0,1-.77,3.975A7.69,7.69,0,0,1,38.1,50.257a2.567,2.567,0,0,1-2.663.97A15.872,15.872,0,0,1,29.189,48.1a18.108,18.108,0,0,1-5.66-6.411c-.254-.507-.4-.233-.621-.022a40.361,40.361,0,0,0-4.652,5.494c-.578.808-.934.9-1.846.516a1.32,1.32,0,0,1,.005-1.828A41.294,41.294,0,0,1,22.141,39.3a.934.934,0,0,0,.366-.962,3.884,3.884,0,0,1-.026-1.566,6,6,0,0,0-.186-3.153c-.148-.544-.275-.714-.877-.595a6.274,6.274,0,0,1-7.32-4.691,5.493,5.493,0,0,1,1.729-5.388,1.9,1.9,0,0,0,.591-1.154c.193-1.133.442-2.257.683-3.381.077-.358.157-.625-.332-.8a1.512,1.512,0,0,1-.956-1.565,8.215,8.215,0,0,1,2.034-5.351,1.369,1.369,0,0,1,.595-.441,2.133,2.133,0,0,0,1.538-1.959c.052-.317.207-.617.276-.933a7.843,7.843,0,0,1,5.4-5.835A23.171,23.171,0,0,1,42.1,1.489a8.516,8.516,0,0,1,5.721,6.743,2.263,2.263,0,0,0,1.553,2.03,2.342,2.342,0,0,1,1.16,1.138,9.284,9.284,0,0,1,1.4,3.687c.268,1.882-.224,2.532-2.1,2.737a39.272,39.272,0,0,1,2.29,8.373,24.142,24.142,0,0,1-.069,9.477,7.923,7.923,0,0,1-2.4,4.243.616.616,0,0,0-.2.712,9.643,9.643,0,0,1,.036,4.9c-.106.373.1.621.256.9A42.064,42.064,0,0,1,53.271,55a1.307,1.307,0,0,1-.634,1.706c-.724.3-1.29.054-1.618-.781-.392-1-.639-2.049-1.03-3.052-.5-1.281-1.039-2.544-1.6-3.8-.216-.481-.464-.7-1.038-.431a1.589,1.589,0,0,1-1.763-.207" transform="translate(-7.376 0)"/>
        <path id="Trazado_165230" data-name="Trazado 165230" d="M120.85,27.811V21.076c-2.362.49-4.686.97-7.009,1.455a12.626,12.626,0,0,1-1.687.35c-.6.041-.652.333-.649.828.018,3.333.011,6.667.008,10A4.161,4.161,0,0,1,109.5,37.5a4.11,4.11,0,0,1-5.05-.565,4.155,4.155,0,0,1-.709-5.041,4.048,4.048,0,0,1,4.7-1.9c.747.237.837.062.826-.633-.037-2.331-.018-4.662-.012-6.993,0-.944.247-1.23,1.18-1.426q5.544-1.163,11.089-2.323c1.028-.215,1.6.234,1.6,1.283q.008,5.79,0,11.58a4.15,4.15,0,1,1-2.7-3.836c.116.04.23.087.423.162" transform="translate(-54.54 -9.814)"/>
        <path id="Trazado_165231" data-name="Trazado 165231" d="M81.043,102.373a2.262,2.262,0,0,0,2.2-.224c.363-.3.4.124.494.3a37.163,37.163,0,0,1,2.777,7c.289,1.03.563,1.223,1.578,1.192.123.785.272,1.566.361,2.355.051.455.439.468.7.658-1.256-.105-1.638.267-1.518,1.549a31.231,31.231,0,0,1-1,11.5c-.453,1.6-.951,2-2.586,2-.349,0-.7-.015-1.048-.022a9.826,9.826,0,0,0,1.337-4.012,29.152,29.152,0,0,0,.6-8.038,34.478,34.478,0,0,0-1.447-8.065,47.919,47.919,0,0,0-2.437-6.2" transform="translate(-42.833 -53.933)" fill="#bec4ea"/>
        <path id="Trazado_165232" data-name="Trazado 165232" d="M12.341,134.019c2.279,0,4.557.018,6.836-.013.537-.008.683.149.654.669-.044.8-.024,1.6-.006,2.4.008.356-.052.542-.481.541q-7.023-.02-14.046,0c-.407,0-.513-.144-.5-.524.021-.826.04-1.654-.006-2.478-.029-.523.177-.612.643-.607,2.3.022,4.607.01,6.911.01" transform="translate(-2.529 -70.824)" fill="#5fa6ed"/>
        <path id="Trazado_165233" data-name="Trazado 165233" d="M14.619,146.41c1.6,0,3.209.013,4.813-.009.436-.006.6.081.606.569.061,3.282-1.767,5.184-5.031,5.181a12.5,12.5,0,0,1-1.951-.057,4.669,4.669,0,0,1-3.845-5.338c.064-.459.352-.339.6-.341,1.6-.009,3.209,0,4.813,0" transform="translate(-4.842 -77.375)" fill="#dfada1"/>
        <path id="Trazado_165234" data-name="Trazado 165234" d="M112.5,80.477a4.157,4.157,0,0,1-4.181,4.212,4.2,4.2,0,1,1,4.181-4.212" transform="translate(-55.024 -40.322)" fill="#6a61b1"/>
        <path id="Trazado_165235" data-name="Trazado 165235" d="M121.924,91.542a6.6,6.6,0,0,0,2.068-3.345c.072-.283.126-.4.43-.224,1.767,1.04,3.567,2.027,5.3,3.116a2.045,2.045,0,0,1,.607,2.8,2.177,2.177,0,0,1-2.8.882,4.16,4.16,0,0,1-.4-.208c-1.709-.989-3.417-1.979-5.207-3.017" transform="translate(-64.439 -46.45)" fill="#76d0b2"/>
        <path id="Trazado_165236" data-name="Trazado 165236" d="M52.817,51.19a16.306,16.306,0,0,1-.434,3.917A6.26,6.26,0,0,1,49.129,59.3a17.027,17.027,0,0,1-6.966,1.909,22.664,22.664,0,0,1-9.185-1.044,8.3,8.3,0,0,1-5.735-6.293c-.2-.8-.364-1.609-.529-2.417-.262-1.29-.818-1.593-2.015-1.074a4.444,4.444,0,0,1-3.008.236,3.716,3.716,0,0,1-2.9-3.859A3.846,3.846,0,0,1,22.129,43.4a4.654,4.654,0,0,1,2.433.272c1.184.477,1.783.076,1.92-1.214a30.412,30.412,0,0,1,.765-4.206.646.646,0,0,1,.745-.593q10.676.029,21.353,0c.471,0,.629.189.795.576A35.063,35.063,0,0,1,52.817,51.19" transform="translate(-9.927 -19.903)" fill="#dfada1"/>
        <path id="Trazado_165237" data-name="Trazado 165237" d="M52.4,26.48c-1.277.008-2.554.023-3.831.024q-12.438,0-24.875,0h-.822A3.98,3.98,0,0,1,25.4,22.679a27.88,27.88,0,0,1,8.2-1.67,53,53,0,0,1,15.32.827,10.481,10.481,0,0,1,2.436.712,7.884,7.884,0,0,1,1.2,3.313.665.665,0,0,1-.168.62" transform="translate(-12.086 -10.993)" fill="#5391f8"/>
        <path id="Trazado_165238" data-name="Trazado 165238" d="M52.586,10.885a63.123,63.123,0,0,0-12.214-.641,43.821,43.821,0,0,0-8.186,1.016c-.213.049-.432.072-.67.111a6.019,6.019,0,0,1,3.521-4.9A20.283,20.283,0,0,1,45.014,4.91a15.179,15.179,0,0,1,5.79,1.4c1.4.977,1.608,2.572,2.076,4.027.066.207.1.528-.294.548" transform="translate(-16.657 -2.555)" fill="#9dc7fb"/>
        <path id="Trazado_165239" data-name="Trazado 165239" d="M37.981,84.433a13.782,13.782,0,0,0,5.8,3.005,22.774,22.774,0,0,0,6.154.819c.537,0,.664.109.571.668a13.386,13.386,0,0,1-1.16,4.089.939.939,0,0,1-1.336.535,18.317,18.317,0,0,1-9.889-8.414,2.859,2.859,0,0,1-.186-.488c-.013-.039.017-.092.044-.214" transform="translate(-20.049 -44.624)" fill="#62a3fa"/>
        <path id="Trazado_165240" data-name="Trazado 165240" d="M75.028,89.711a20.172,20.172,0,0,0,4.576-1.57,6.1,6.1,0,0,1-.391,4.271c-.232.432-.477.55-.938.243a17.839,17.839,0,0,1-3.248-2.944" transform="translate(-39.654 -46.584)" fill="#5ea6ed"/>
        <path id="Trazado_165241" data-name="Trazado 165241" d="M26.571,37.676c1.4,0,1.388,0,1.071,1.395-.132.583-.238,1.173-.331,1.764-.049.309-.144.378-.485.347a11.44,11.44,0,0,0-2.1-.006c-.391.037-.512,0-.42-.4q.3-1.311.585-2.628a.521.521,0,0,1,.625-.479c.348.029.7.006,1.051.006" transform="translate(-12.833 -19.907)" fill="#774132"/>
        <path id="Trazado_165242" data-name="Trazado 165242" d="M74.206,12.539c.394-.406.06-.823-.058-1.173a8.581,8.581,0,0,0-1.724-3.4c2.461.771,3.62,2.584,4.047,5.082l-2.265-.507" transform="translate(-38.277 -4.209)" fill="#61a3f9"/>
        <path id="Trazado_165243" data-name="Trazado 165243" d="M84.337,28.44a9.248,9.248,0,0,0-.868-3.368c-.072-.182-.112-.376-.166-.565a3.868,3.868,0,0,1,3.023,3.6c.035.335-.08.375-.349.366-.546-.018-1.092-.02-1.638-.028" transform="translate(-44.027 -12.952)" fill="#4880f6"/>
        <path id="Trazado_165244" data-name="Trazado 165244" d="M136.465,44.019a1.913,1.913,0,0,1-1.944,1.86,1.893,1.893,0,0,1-1.827-1.969,1.85,1.85,0,0,1,1.9-1.8,1.871,1.871,0,0,1,1.873,1.913" transform="translate(-70.131 -22.254)" fill="#e074a4"/>
        <path id="Trazado_165245" data-name="Trazado 165245" d="M109.892,51a1.891,1.891,0,0,1-1.9-1.9,1.87,1.87,0,0,1,1.845-1.868,1.886,1.886,0,1,1,.05,3.771" transform="translate(-57.078 -24.964)" fill="#e074a4"/>
        <path id="Trazado_165246" data-name="Trazado 165246" d="M63.529,64.084a21.149,21.149,0,0,0,5.534,0c1.989-.166,3,.9,2.916,2.879a5.87,5.87,0,0,1-11.739-.011c-.058-2.065.893-2.983,3.289-2.864" transform="translate(-31.837 -33.858)"/>
        <path id="Trazado_165247" data-name="Trazado 165247" d="M52.835,46.136a2.423,2.423,0,0,1,1.688.7,6.48,6.48,0,0,1,1.442,2.175,1.126,1.126,0,1,1-2.02.992c-.254-.43-.49-.87-.755-1.293-.195-.309-.433-.318-.633,0-.251.4-.49.812-.726,1.223a1.159,1.159,0,0,1-1.558.618,1.142,1.142,0,0,1-.462-1.612,6.377,6.377,0,0,1,1.466-2.158,2.384,2.384,0,0,1,1.558-.652" transform="translate(-26.248 -24.384)"/>
        <path id="Trazado_165248" data-name="Trazado 165248" d="M78.377,46.137a2.371,2.371,0,0,1,1.556.661,6.421,6.421,0,0,1,1.521,2.3,1.114,1.114,0,0,1-.544,1.465,1.1,1.1,0,0,1-1.476-.505c-.2-.32-.345-.667-.543-.984-.5-.795-.637-.791-1.146.028-.171.275-.3.574-.465.856a1.134,1.134,0,1,1-2.014-1.023,6.539,6.539,0,0,1,1.42-2.1,2.436,2.436,0,0,1,1.691-.694" transform="translate(-39.699 -24.384)"/>
        <path id="Trazado_165249" data-name="Trazado 165249" d="M66.285,68.895a17.522,17.522,0,0,0,5.236-.055c.481-.058.749.035.7.62a3.967,3.967,0,0,1-3.488,3.556,3.871,3.871,0,0,1-3.7-3.125c-.188-1.006-.1-1.1,1.253-1" transform="translate(-34.331 -36.375)" fill="#e074a4"/>
      </g>
    </g>
  </g>
</svg>
