<svg xmlns="http://www.w3.org/2000/svg" xmlns:xlink="http://www.w3.org/1999/xlink" width="105" height="105" viewBox="0 0 105 105">
  <defs>
    <clipPath id="clip-path">
      <rect id="Rectángulo_43087" data-name="Rectángulo 43087" width="52.586" height="62.063" fill="none"/>
    </clipPath>
  </defs>
  <g id="_48" data-name="48" transform="translate(-1063.326 -839)">
    <path id="Trazado_165117" data-name="Trazado 165117" d="M52.5,0A52.5,52.5,0,1,1,0,52.5,52.5,52.5,0,0,1,52.5,0Z" transform="translate(1063.326 839)" fill="#ff9fa3"/>
    <g id="Grupo_170500" data-name="Grupo 170500" transform="translate(1089.326 860)">
      <g id="Grupo_170499" data-name="Grupo 170499" clip-path="url(#clip-path)">
        <path id="Trazado_165250" data-name="Trazado 165250" d="M52.563,60.375Q52.1,51.6,51.646,42.829q-.576-11.376-1.127-22.753a1.345,1.345,0,0,0-.172-.634q-1.554-2.593-3.121-5.177a1.122,1.122,0,0,0-1.053-.585c-.544.012-1.088,0-1.687,0,.229-.978.45-1.914.668-2.851.222-.956-.049-1.4-1.012-1.623C41.28,8.533,38.419,7.849,35.55,7.2a.761.761,0,0,1-.658-.637,8.861,8.861,0,0,0-4.565-5.6A14.369,14.369,0,0,0,27.379,0h-2.3c-.062.146-.2.106-.312.127A8.157,8.157,0,0,0,19.78,2.872a3.024,3.024,0,0,1-2.442,1.222c-.462.011-.923.093-1.384.147-2.866.335-5.732.663-8.6,1.011-.933.113-1.23.557-1.115,1.5.262,2.144.5,4.289.77,6.433.048.388-.035.561-.458.506a1.262,1.262,0,0,0-1.317.757c-.973,1.648-1.972,3.282-2.961,4.92a1.53,1.53,0,0,0-.221.741q-.35,7.141-.712,14.28Q.679,47.424.007,60.463c-.064,1.258.257,1.6,1.508,1.6H51.088c.162,0,.324.009.484,0a1.05,1.05,0,0,0,1.008-1.015,5.659,5.659,0,0,0-.016-.666M43.352,18.522c.2-.777.369-1.561.54-2.344.065-.3.216-.388.532-.424a1.562,1.562,0,0,1,1.855.985,21.565,21.565,0,0,0,1.272,2.171c-1.392,0-2.658-.008-3.924.005-.331,0-.347-.114-.276-.393m-4.6-8.419c1.236.289,2.468.6,3.709.861.4.086.456.226.362.613q-.836,3.437-1.61,6.887c-.076.335-.189.471-.55.467-1.737-.017-3.474-.023-5.21,0-.418.007-.494-.193-.572-.521-.555-2.353-1.127-4.7-1.69-7.054-.28-1.169-.673-1.407-1.86-1.116-.369.091-.74.17-1.218.28.169-.752.309-1.4.46-2.043.079-.34.311-.215.527-.165q3.825.9,7.653,1.787m-6.413,8.828c-2.462-.015-4.924-.007-7.387-.007-2.442,0-4.884-.012-7.326.011-.424,0-.6-.111-.68-.534a19.087,19.087,0,0,0-.457-1.877c-.111-.385-.041-.552.385-.651,2.315-.536,4.621-1.108,6.932-1.663s4.625-1.09,6.93-1.666c.45-.112.581-.015.681.43q.616,2.74,1.317,5.461c.109.425.01.5-.395.5M28.147,2.377a6.827,6.827,0,0,1,4.545,4.146L30.4,5.988c-.963-.225-1.4.035-1.634,1-.294,1.214-.571,2.432-.86,3.647a1.039,1.039,0,0,1-1.027.671c-.223-.051-.179-.246-.2-.387-.257-2.144-.513-4.288-.753-6.434-.114-1.021-.5-1.35-1.506-1.232-.361.042-.721.087-1.082.127a6.834,6.834,0,0,1-1.005.053,6.485,6.485,0,0,1,5.81-1.052M9.006,7.161Q16.156,6.339,23.3,5.473c.474-.057.658.019.707.556.159,1.746.369,3.488.611,5.225.069.5-.075.642-.534.749-3,.7-5.993,1.43-8.988,2.155-.9.218-1.154.639-.947,1.539.217.942.425,1.886.674,2.82.092.346.01.419-.32.411-.726-.017-1.453-.005-2.18-.005-.666,0-1.333-.029-2,.011-.415.025-.555-.119-.6-.516-.245-2.2-.511-4.406-.772-6.607-.156-1.321-.3-2.644-.483-3.962-.062-.455.058-.633.535-.687M6.8,15.938a.3.3,0,0,1,.36-.15c.138.037.177.154.19.277.092.837.181,1.674.273,2.511.025.223-.048.337-.293.334-.734-.007-1.468,0-2.311,0,.632-1.055,1.205-2.013,1.781-2.97M49.516,59.97h-23.2q-11.754,0-23.507.014c-.55,0-.668-.143-.639-.67q.486-8.83.931-17.661.333-6.472.65-12.945c.121-2.4.253-4.8.359-7.2.016-.371.135-.481.5-.475,1.05.02,2.1.007,3.15.007q19.963,0,39.926-.016c.646,0,.777.191.8.8.243,5.2.525,10.4.794,15.606q.26,5.051.516,10.1.3,5.746.592,11.493c.048.946.045.946-.872.946" transform="translate(0)"/>
        <path id="Trazado_165251" data-name="Trazado 165251" d="M53.574,84.278q-.26-5.051-.517-10.1c-.269-5.2-.551-10.4-.793-15.606-.028-.607-.159-.8-.805-.8q-19.963.032-39.926.016c-1.05,0-2.1.013-3.15-.007-.363-.007-.482.1-.5.475-.106,2.4-.238,4.8-.359,7.2Q7.2,71.925,6.875,78.4q-.455,8.831-.931,17.661c-.029.527.089.672.639.67q11.754-.031,23.507-.014h23.2c.917,0,.92,0,.872-.946q-.294-5.746-.592-11.493M39.5,65.769a.84.84,0,0,0-.5.886,26.928,26.928,0,0,1-.2,5.073,8.932,8.932,0,0,1-17.612-.8c-.162-1.471-.053-2.945-.074-4.418a.665.665,0,0,0-.406-.694,3.085,3.085,0,0,1-1.6-3.519,3.149,3.149,0,1,1,4.523,3.532c-.186.1-.417.141-.405.447a31.842,31.842,0,0,0,.149,4.955,6.816,6.816,0,0,0,13.5-1.16c.016-.545,0-1.09,0-1.636h.007c0-.283-.011-.566,0-.848A2,2,0,0,0,35.95,65.4a2.862,2.862,0,0,1-.906-3.58,3.156,3.156,0,0,1,6.009.613A3.094,3.094,0,0,1,39.5,65.769" transform="translate(-3.778 -36.746)" fill="#faac4a"/>
        <path id="Trazado_165252" data-name="Trazado 165252" d="M23.734,21.348c.261,2.2.527,4.4.772,6.608.044.4.183.541.6.516.664-.04,1.332-.011,2-.011.727,0,1.454-.012,2.18.005.329.008.412-.066.32-.411-.25-.934-.457-1.878-.675-2.82-.207-.9.048-1.321.947-1.539,2.994-.725,5.987-1.455,8.987-2.155.459-.107.6-.252.534-.749-.241-1.737-.452-3.479-.611-5.225-.049-.538-.233-.614-.706-.556q-7.144.863-14.293,1.687c-.476.055-.6.233-.535.688.179,1.318.326,2.641.483,3.962" transform="translate(-14.78 -9.538)" fill="#2a8de5"/>
        <path id="Trazado_165253" data-name="Trazado 165253" d="M83.195,22.9c-.15.645-.291,1.291-.46,2.043.479-.11.85-.19,1.218-.28,1.186-.292,1.58-.053,1.86,1.116.563,2.351,1.135,4.7,1.69,7.054.078.329.154.527.572.521,1.736-.027,3.473-.021,5.21,0,.361,0,.474-.133.55-.468q.78-3.449,1.61-6.887c.094-.386.037-.527-.362-.613-1.241-.266-2.473-.573-3.709-.861q-3.826-.894-7.653-1.787c-.215-.051-.447-.175-.527.165" transform="translate(-52.624 -14.42)" fill="#82d716"/>
        <path id="Trazado_165254" data-name="Trazado 165254" d="M59.464,34.392c-2.305.575-4.62,1.111-6.93,1.666s-4.617,1.127-6.932,1.663c-.426.1-.5.266-.385.651a19.112,19.112,0,0,1,.457,1.877c.076.423.256.538.68.534,2.442-.022,4.884-.011,7.326-.011,2.462,0,4.925-.007,7.387.008.4,0,.5-.071.395-.5q-.7-2.721-1.317-5.461c-.1-.445-.231-.542-.681-.43" transform="translate(-28.731 -21.848)" fill="#ec5480"/>
        <path id="Trazado_165255" data-name="Trazado 165255" d="M119.336,46.409c1.266-.013,2.532-.005,3.924-.005a21.559,21.559,0,0,1-1.272-2.171,1.562,1.562,0,0,0-1.855-.985c-.316.036-.467.126-.532.424-.172.784-.343,1.567-.541,2.344-.071.279-.055.4.276.393" transform="translate(-75.707 -27.494)" fill="#8b6a3b"/>
        <path id="Trazado_165256" data-name="Trazado 165256" d="M16.112,46.481c.244,0,.318-.111.293-.334-.092-.837-.181-1.674-.273-2.511-.013-.123-.052-.24-.19-.277a.3.3,0,0,0-.36.15c-.576.957-1.149,1.915-1.781,2.97.844,0,1.577,0,2.311,0" transform="translate(-8.778 -27.571)" fill="#8b6a3a"/>
        <path id="Trazado_165257" data-name="Trazado 165257" d="M61.166,63.6A3.183,3.183,0,0,0,57.9,65.525a2.862,2.862,0,0,0,.906,3.58,2,2,0,0,1,.946,2.187c-.013.282,0,.565,0,.848h-.007c0,.545.013,1.091,0,1.636a6.816,6.816,0,0,1-13.5,1.16,31.842,31.842,0,0,1-.15-4.955c-.012-.306.22-.344.405-.447A3.149,3.149,0,1,0,41.978,66a3.085,3.085,0,0,0,1.6,3.519.665.665,0,0,1,.406.694c.021,1.473-.087,2.947.074,4.418a8.932,8.932,0,0,0,17.612.8,26.9,26.9,0,0,0,.2-5.073.84.84,0,0,1,.5-.886,3.1,3.1,0,0,0,1.551-3.332A3.2,3.2,0,0,0,61.166,63.6M44.122,67.176a.9.9,0,0,1,.247-1.229.939.939,0,0,1,1.273-.046.994.994,0,0,1,.333,1.283c-.842-.6-1.059-.6-1.854-.008m17.615.049a1.242,1.242,0,0,0-1.851-.119.87.87,0,0,1,.3-1.185.94.94,0,0,1,1.275.008.983.983,0,0,1,.28,1.3" transform="translate(-26.639 -40.446)"/>
        <path id="Trazado_165258" data-name="Trazado 165258" d="M49.3,69.544a.939.939,0,0,0-1.273.046.9.9,0,0,0-.247,1.229c.8-.588,1.012-.587,1.855.008a1,1,0,0,0-.334-1.283" transform="translate(-30.3 -44.09)" fill="#89683a"/>
        <path id="Trazado_165259" data-name="Trazado 165259" d="M92.709,69.575a.94.94,0,0,0-1.276-.008.87.87,0,0,0-.295,1.185,1.242,1.242,0,0,1,1.851.119.984.984,0,0,0-.28-1.3" transform="translate(-57.89 -44.092)" fill="#886839"/>
      </g>
    </g>
  </g>
</svg>
