<svg xmlns="http://www.w3.org/2000/svg" xmlns:xlink="http://www.w3.org/1999/xlink" width="105" height="105" viewBox="0 0 105 105">
  <defs>
    <clipPath id="clip-path">
      <rect id="Rectángulo_43088" data-name="Rectángulo 43088" width="74.924" height="74.949" fill="none"/>
    </clipPath>
  </defs>
  <g id="_49" data-name="49" transform="translate(-8506 10861)">
    <path id="Trazado_165118" data-name="Trazado 165118" d="M52.5,0A52.5,52.5,0,1,1,0,52.5,52.5,52.5,0,0,1,52.5,0Z" transform="translate(8506 -10861)" fill="#ff9fa3"/>
    <g id="Grupo_170503" data-name="Grupo 170503" transform="translate(8521 -10846)">
      <g id="Grupo_170502" data-name="Grupo 170502" clip-path="url(#clip-path)">
        <path id="Trazado_165260" data-name="Trazado 165260" d="M74.924,40.371a14.335,14.335,0,0,0-.411,2.619C71.862,57.785,63.519,68.013,49.362,72.9a37.052,37.052,0,0,1-45.6-19.166,37.423,37.423,0,0,1,23.6-52.363A35.025,35.025,0,0,1,34.182.144c.134-.011.3.041.371-.144H38.21a3.651,3.651,0,0,0,1.609,0h.439c.813.133,1.642.069,2.453.179A36.845,36.845,0,0,1,59.778,7.126c1.079.792,1.209,1.255.759,2.271a1.375,1.375,0,0,1-2.028-.008,34.59,34.59,0,0,0-6.187-3.721A33.864,33.864,0,0,0,41.905,2.673,34.8,34.8,0,0,0,23.685,5.2,35.073,35.073,0,0,0,11.53,13.878a30.6,30.6,0,0,0-4.081,5.505,33.446,33.446,0,0,0-4.1,10.038,34.169,34.169,0,0,0-.907,9.5A35.352,35.352,0,0,0,5.215,51.186,34.669,34.669,0,0,0,13.94,63.407,34.266,34.266,0,0,0,33.235,72.23,34.852,34.852,0,0,0,53.96,68.4a15.323,15.323,0,0,0,1.575-.922A34.836,34.836,0,0,0,69.112,52.574a34.372,34.372,0,0,0,3.307-12.416,34.78,34.78,0,0,0-1.372-12.843,34.034,34.034,0,0,0-6.887-12.6c-.718-.832-1.511-1.587-2.248-2.4a1.4,1.4,0,0,1-.1-2.026c.752-.473,1.059-.5,1.7.061a29,29,0,0,1,4.661,5.312,37.1,37.1,0,0,1,6.546,16.4c.119.862.049,1.739.2,2.6Z" transform="translate(0)"/>
        <path id="Trazado_165261" data-name="Trazado 165261" d="M81.754,0a1.938,1.938,0,0,1-1.609,0Z" transform="translate(-41.935)" fill="#434343"/>
        <path id="Trazado_165262" data-name="Trazado 165262" d="M64.649,11.753c.634.154.869.877,1.493,1.046-.508.807-.464,1.174.276,1.9A33.616,33.616,0,0,1,76,31.679c2.8,12.87-.468,24.066-9.73,33.461a28.325,28.325,0,0,1-6.348,4.871,30.849,30.849,0,0,1-12.4,3.352,35.948,35.948,0,0,1-18.08-3.213A36.49,36.49,0,0,1,9.835,48.064,36.292,36.292,0,0,1,8.224,34.211,30.679,30.679,0,0,1,11.58,21.666,33.264,33.264,0,0,1,19.635,12.4,33.983,33.983,0,0,1,36.753,4.967,34.714,34.714,0,0,1,62.337,11.26c.179.127.366.246.53.389a1.278,1.278,0,0,0,1.782.1" transform="translate(-4.255 -2.414)" fill="#c0e3f9"/>
        <path id="Trazado_165263" data-name="Trazado 165263" d="M9.708,40.382c-.4,1.065-.8,2.127-1.192,3.195A36.877,36.877,0,0,0,6.78,50.761a39.29,39.29,0,0,0-.236,7.567A31.875,31.875,0,0,0,8.024,66.3,36.5,36.5,0,0,0,36.288,91.429a37.768,37.768,0,0,0,9.936.374,33.975,33.975,0,0,0,7.947-1.638c1.082-.355,2.133-.8,3.2-1.213.224-.086.418-.258.682-.224a31.276,31.276,0,0,1-9.129,3.919A35.189,35.189,0,0,1,6.164,68.886,34.577,34.577,0,0,1,9.486,40.662a2.325,2.325,0,0,1,.222-.28" transform="translate(-2.382 -21.13)" fill="#90b4f8"/>
        <path id="Trazado_165264" data-name="Trazado 165264" d="M33.245,19.2c-.158-.954.081-1.328,1.009-1.607a8.119,8.119,0,0,1,3.107-.3,1.021,1.021,0,0,0,.9-.318,8.911,8.911,0,0,1,10.89-1.338.969.969,0,0,0,.876.076,8.919,8.919,0,0,1,10.334,3.527,1.1,1.1,0,0,0,.808.512,8.928,8.928,0,0,1,7.745,7.786.817.817,0,0,0,.364.654c3.709,2.38,4.873,6.881,3.3,11.171a1.629,1.629,0,0,0-.021,1.3,4.323,4.323,0,0,1,.248,2.72c-.1.415.066.534.4.685a5.251,5.251,0,0,1,.037,9.648c-.358.168-.507.283-.426.732a5.111,5.111,0,0,1-5.4,6.022c-.572-.036-.859.063-1.077.619a4.326,4.326,0,0,1-1.677,1.977c-.282.19-.372.324-.229.684a4.989,4.989,0,0,1-1.113,5.722,5.042,5.042,0,0,1-5.72,1.16c-.317-.118-.472-.115-.7.184a5.139,5.139,0,0,1-7.944.738c-.2-.188-.328-.277-.607-.111a4.938,4.938,0,0,1-3.717.629c-.474-.106-.444.257-.55.488a5.257,5.257,0,0,1-7.314,2.517,5.028,5.028,0,0,1-2.347-2.6c-.141-.353-.278-.436-.684-.362a5.165,5.165,0,0,1-5.574-2.837,1.066,1.066,0,0,0-.838-.656,7.944,7.944,0,0,1-5.012-3.622A13.957,13.957,0,0,1,20.6,61.057a1.206,1.206,0,0,1,.679-1.447,1.047,1.047,0,0,1,1.484.551,10.657,10.657,0,0,1,.5,1.37,8.814,8.814,0,0,0,1.767,3.084,5.432,5.432,0,0,0,8.1-.01,9.184,9.184,0,0,0,1.893-3.512,23.338,23.338,0,0,1,2.806-5.847A32.766,32.766,0,0,0,40.353,50.3,16.538,16.538,0,0,0,41.2,46.98a1.167,1.167,0,0,0-.247-.958,5.687,5.687,0,0,1-1.027-4.84,1.413,1.413,0,0,0-.326-1.148,11.864,11.864,0,0,0-6.1-4.557,13.463,13.463,0,0,0-9.718.359,11.246,11.246,0,0,0-4.607,3.5,9.889,9.889,0,0,0-2.013,8.292,23.19,23.19,0,0,0,3.053,7.3c.263.465.553.919.786,1.4a1.086,1.086,0,0,1-.579,1.647,1.117,1.117,0,0,1-1.425-.4,30.7,30.7,0,0,1-4.016-8.7A12.687,12.687,0,0,1,21.451,34.35a.911.911,0,0,0,.564-1.056,8.9,8.9,0,0,1,5.612-9.37.942.942,0,0,0,.6-.642,8.495,8.495,0,0,1,1.655-2.9c.631-.736,1.041-.8,1.894-.293a.987.987,0,0,1,.191,1.45c-.309.548-.806.965-1.074,1.542a6.193,6.193,0,0,0-.568,1.5,1.847,1.847,0,0,1-1.412,1.411,6.464,6.464,0,0,0-4.2,4.065,5.821,5.821,0,0,0-.333,2.224c.01.434.174.573.588.447.279-.085.564-.154.85-.216a15.85,15.85,0,0,1,12.87,2.861,12.085,12.085,0,0,1,2.483,2.462c.339.448.636.585,1.146.238a4.975,4.975,0,0,1,3.358-.749.86.86,0,0,0,.98-.53,5.472,5.472,0,0,1,9.738-.051.935.935,0,0,0,1.035.572,5.16,5.16,0,0,1,4.8,2.091c.376.49.611.4.947,0a6.223,6.223,0,0,1,4.107-2.295,4.58,4.58,0,0,1,2.623.442c.48.23.725.147.8-.395.425-2.887-.15-5.47-3.165-7.232a1.7,1.7,0,0,1-.966-1.514,6.65,6.65,0,0,0-6.412-6.369,1.641,1.641,0,0,1-1.455-.929,6.547,6.547,0,0,0-8.345-2.987,2.163,2.163,0,0,1-2.186-.27,6.593,6.593,0,0,0-8.617,1.182,1.869,1.869,0,0,1-1.73.714,8.734,8.734,0,0,0-3.05.147c-.882.22-1.323-.016-1.541-.7" transform="translate(-7.636 -7.515)"/>
        <path id="Trazado_165265" data-name="Trazado 165265" d="M42.828,25.412a3.247,3.247,0,0,1,.789-1.205,1.3,1.3,0,0,0,.213-1.717,4.648,4.648,0,0,1,1.465-.893,1.255,1.255,0,0,0,1.587.508,6.218,6.218,0,0,1,3.037-.166,1.452,1.452,0,0,0,1.482-.524,6.72,6.72,0,0,1,9.2-1.158,1.519,1.519,0,0,0,1.569.17,6.72,6.72,0,0,1,8.766,3.007,1.468,1.468,0,0,0,1.34.825,6.733,6.733,0,0,1,6.534,6.493,1.621,1.621,0,0,0,.987,1.473,6.711,6.711,0,0,1,2.887,8.269c-3.317-1.791-5.822-.494-8,2.189A5.405,5.405,0,0,0,71.194,40a4.881,4.881,0,0,0-2.1-.055c-.426.086-.522-.063-.673-.39a5.256,5.256,0,0,0-9.677.036c-.135.3-.227.43-.623.362a5.1,5.1,0,0,0-4.074.954c-.218.164-.348.267-.574-.026C49.516,35.754,44.254,34.094,38,35.073a.684.684,0,0,1-.145-.009,1.986,1.986,0,0,1-.15-1.555,6.4,6.4,0,0,1,3.976-5.132,1.071,1.071,0,0,0,.812-1.187,5.611,5.611,0,0,1,.333-1.778" transform="translate(-19.685 -9.913)" fill="#feefae"/>
        <path id="Trazado_165266" data-name="Trazado 165266" d="M22.79,85.24c.7-.657.747-1,.257-1.846a31.322,31.322,0,0,1-3.414-7.156A10.46,10.46,0,0,1,20.919,67.1c.149-.218.338-.41.509-.614.206.181.127.406.078.612a14.484,14.484,0,0,0,1.483,9.833c.75,1.559,1.646,3.039,2.513,4.535a19.073,19.073,0,0,1,1.8,4.061,9.345,9.345,0,0,0,3.171,5.043,5.668,5.668,0,0,0,3.662,1.23,2.2,2.2,0,0,1,1.486.177,5.559,5.559,0,0,1-8.05.361,9.814,9.814,0,0,1-2.435-4.41c-.272-.881-.546-1.062-1.481-1.043L22.79,85.24" transform="translate(-10.011 -34.786)" fill="#b0705b"/>
        <path id="Trazado_165267" data-name="Trazado 165267" d="M37.644,86.881a11,11,0,0,1-3.463-.264,6.787,6.787,0,0,1-4.356-4.405c-1.209-3.878-3.5-7.188-5.222-10.787a15.188,15.188,0,0,1-1.554-7.975,18.931,18.931,0,0,1,.4-2.06A11.4,11.4,0,0,1,30.3,57.135,13.085,13.085,0,0,1,43.1,60.776a8.339,8.339,0,0,1,.7.838,2.409,2.409,0,0,1,.633,2.293A4.708,4.708,0,0,0,45.5,68.076a1.419,1.419,0,0,1,.281,1.2A19.137,19.137,0,0,1,43.268,76c-.548.975-1.113,1.941-1.684,2.9a18.94,18.94,0,0,0-1.959,4.378,8.136,8.136,0,0,1-1.981,3.6" transform="translate(-12.032 -29.695)" fill="#c28678"/>
        <path id="Trazado_165268" data-name="Trazado 165268" d="M103.077,79.916a12.379,12.379,0,0,1,3.673-4.923,6.694,6.694,0,0,0,2.668-4.367.6.6,0,0,1,.152-.319c.77-.814,1.5-1.671,2.334-2.416a2.947,2.947,0,0,1,3.937-.272,3.076,3.076,0,0,1,.745,3.946c-.472.98-.077,1.708.982,1.807a3.067,3.067,0,0,1,2.951,3.031,3.1,3.1,0,0,1-2.906,3.094c-1.17.125-1.511.781-.977,1.879a3.073,3.073,0,0,1-.707,3.783,2.971,2.971,0,0,1-3.776.015,8.2,8.2,0,0,1-1.346-1.334,16.6,16.6,0,0,0-4.193-3.49,1.237,1.237,0,0,0-1.76.194,1.581,1.581,0,0,1-1.777-.627" transform="translate(-53.935 -35.051)" fill="#97c990"/>
        <path id="Trazado_165269" data-name="Trazado 165269" d="M85.135,74.88a25.9,25.9,0,0,0-.977,2.865,2.362,2.362,0,0,1-1.072,1.485A3.8,3.8,0,0,0,81.9,80.571c-.779.338-1.268.242-1.639-.321a1.269,1.269,0,0,0-.34-1.463,2.363,2.363,0,0,1-.654-1.2A15.362,15.362,0,0,0,74.052,69.5a5.378,5.378,0,0,1-1.364-1.6A2.835,2.835,0,0,1,73.1,64.52a3.085,3.085,0,0,1,3.424-.734c.09.038.175.084.263.127,1.133.557,1.786.2,1.892-1.034a3.061,3.061,0,0,1,5.6-1.479,3.286,3.286,0,0,1,.529,1.573c.1,1.089.8,1.481,1.773,1.005a3.059,3.059,0,0,1,3.951.722,3.012,3.012,0,0,1-.247,3.946c-.139.169-.3.32-.444.484-.37.416-.629.573-1.052-.047a3.119,3.119,0,0,0-3.513-1.132,3.3,3.3,0,0,0-2.341,2.956c-.013.195-.015.39-.022.585a4.819,4.819,0,0,0-.091.939,1.965,1.965,0,0,0,1.661,2.076c.245.052.618-.07.646.374" transform="translate(-37.839 -31.412)" fill="#c1e3a0"/>
        <path id="Trazado_165270" data-name="Trazado 165270" d="M93.724,100.758a2.536,2.536,0,0,1-1.253.691,1.1,1.1,0,0,0-.526,1.893,3.045,3.045,0,0,1-.042,4.279,3.076,3.076,0,0,1-4.281.063c-.861-.676-1.59-.415-1.971.7a3.034,3.034,0,0,1-4.535,1.713c-.537-.358-.842-.692-.494-1.47a5.5,5.5,0,0,0-1.91-6.379,1.19,1.19,0,0,0-1.538.132c-.437-.252-.891-.489-.91-1.089a1.326,1.326,0,0,0-.127-1.726,11.3,11.3,0,0,1-2.087-4.285,4.8,4.8,0,0,0-1.623-2.694.477.477,0,0,1-.158-.678c.251-.551.458-1.121.684-1.683.365-.041.494.258.671.475a12.855,12.855,0,0,1,2.393,4.707,3.783,3.783,0,0,0,4.473,3c.481-.054.855-.017.944.6.254,1.768.769,2.183,2.538,2.11a.914.914,0,0,0,.5-.06c1.961-.075,3.142-.9,3.57-2.495a3.442,3.442,0,0,0-.512-2.777c.273-.24.278-.25.6-.077a9.359,9.359,0,0,1,1.944,1.415,18.8,18.8,0,0,1,2.275,2.367c.382.514,1.046.715,1.385,1.271" transform="translate(-37.773 -47.209)" fill="#97c990"/>
        <path id="Trazado_165271" data-name="Trazado 165271" d="M63.573,105.838l.91,1.089a1.276,1.276,0,0,0,.337,1.752,4.362,4.362,0,0,1,.754.887,2.918,2.918,0,0,1-.186,3.646,3.074,3.074,0,0,1-3.672.684c-.088-.042-.17-.1-.258-.136a1.093,1.093,0,0,0-1.68.933,3.07,3.07,0,0,1-6.14.028c-.1-1-.844-1.38-1.792-.913a3.04,3.04,0,0,1-3.752-.521.349.349,0,0,1-.146-.361,8.376,8.376,0,0,0,5.551-3.978,7.662,7.662,0,0,0,2.225-.03c2.315-.135,3.707-1.482,3.62-3.505-.066-1.528-1.073-2.62-2.929-3.136l1.96-3.371a2.387,2.387,0,0,1,.849,1.477,14.151,14.151,0,0,0,2.438,5.016c.646.849.967.924,1.912.438" transform="translate(-25.083 -51.753)" fill="#c1e3a0"/>
        <path id="Trazado_165272" data-name="Trazado 165272" d="M85.3,98.68a2.1,2.1,0,0,1-3.211-1.8c.047-.6-.167-.786-.749-.683a3.926,3.926,0,0,1-4.6-2.833A13.362,13.362,0,0,0,74.1,88.149a2.648,2.648,0,0,0-.319-.3L74.4,85.69c.27-.032.373.2.508.349a12.231,12.231,0,0,1,2.953,5.353,5.025,5.025,0,0,0,1.152,2.239c.713.779,1.26.789,2.022.041a2.362,2.362,0,0,0,1.639.321A3.369,3.369,0,0,0,85.3,98.68" transform="translate(-38.608 -44.835)" fill="#68b080"/>
        <path id="Trazado_165273" data-name="Trazado 165273" d="M109.088,102.789a6.308,6.308,0,0,1-1.715-1.4,16.271,16.271,0,0,0-4.12-3.6c-.146-.083-.254-.13-.364.029-.173-.167-.316-.4-.522-.489-1.143-.464-.846-1.264-.526-2.082.148-.379.293-.759.439-1.138a3.906,3.906,0,0,0,1.776.626,1.139,1.139,0,0,0,.5,1.612,15.286,15.286,0,0,1,4.238,3.62,7.942,7.942,0,0,0,.6.631c.785.75.8,1.034.07,1.867a3.45,3.45,0,0,1-.381.328" transform="translate(-53.136 -49.239)" fill="#68b080"/>
        <path id="Trazado_165274" data-name="Trazado 165274" d="M41.212,32.508c.045.826-.236,1.631-.154,2.462.029.291-.171.4-.431.493a6.289,6.289,0,0,0-4.317,4.956,11.09,11.09,0,0,0-.069,1.742c-1.738.584-1.869.52-1.6-1.29a6.536,6.536,0,0,1,4.635-5.55A1.7,1.7,0,0,0,40.6,33.965a3.338,3.338,0,0,1,.61-1.457" transform="translate(-18.07 -17.01)" fill="#fedf7c"/>
        <path id="Trazado_165275" data-name="Trazado 165275" d="M97.547,103.7a1.1,1.1,0,0,1,0,2.191,1.1,1.1,0,1,1,0-2.191" transform="translate(-50.467 -54.263)" fill="#fbbf4f"/>
        <path id="Trazado_165276" data-name="Trazado 165276" d="M100.331,83.142a1.126,1.126,0,0,1-1.128-1.1,1.083,1.083,0,0,1,1.067-1.072,1.06,1.06,0,0,1,1.112,1.012,1.1,1.1,0,0,1-1.052,1.165" transform="translate(-51.907 -42.365)" fill="#fbbf4f"/>
        <path id="Trazado_165277" data-name="Trazado 165277" d="M64.863,111.789a1.1,1.1,0,0,1-1.07,1.075,1.118,1.118,0,0,1-1.113-1.113,1.086,1.086,0,0,1,1.151-1.056,1.062,1.062,0,0,1,1.032,1.095" transform="translate(-32.797 -57.92)" fill="#fcc04f"/>
        <path id="Trazado_165278" data-name="Trazado 165278" d="M96.422,87.455c-.173-.245-.434-.152-.665-.171a2.14,2.14,0,0,1-1.552-3.218,3.574,3.574,0,0,0,2.262,2.73c.514.2,0,.437-.045.658" transform="translate(-49.125 -43.987)" fill="#97c890"/>
        <path id="Trazado_165279" data-name="Trazado 165279" d="M61.827,119.21a2.061,2.061,0,0,1-2.225.03c.18-.7.509-.864,1.145-.408a4.009,4.009,0,0,0,1.08.378" transform="translate(-31.186 -62.044)" fill="#95c68e"/>
        <path id="Trazado_165280" data-name="Trazado 165280" d="M70.818,52.075a3.243,3.243,0,0,1-3.269-3.3A3.282,3.282,0,0,1,70.8,45.508a3.319,3.319,0,0,1,3.324,3.284,3.284,3.284,0,0,1-3.306,3.283" transform="translate(-35.345 -23.812)"/>
        <path id="Trazado_165281" data-name="Trazado 165281" d="M114.435,50.962a3.24,3.24,0,0,1-3.276,3.294,3.282,3.282,0,1,1,3.276-3.294" transform="translate(-56.441 -24.955)"/>
        <path id="Trazado_165282" data-name="Trazado 165282" d="M35.653,87.248q-3.584,0-7.167,0c-.92,0-1.426-.4-1.416-1.095s.517-1.1,1.437-1.1q7.167-.006,14.334,0c1.078,0,1.686.72,1.322,1.542a1.145,1.145,0,0,1-1.2.653c-2.438-.009-4.876,0-7.313,0" transform="translate(-14.164 -44.504)"/>
        <path id="Trazado_165283" data-name="Trazado 165283" d="M36.691,71.339q-3.1,0-6.209,0a1.074,1.074,0,0,1-1.153-.812,1.024,1.024,0,0,1,.484-1.193,1.314,1.314,0,0,1,.769-.186c4.091,0,8.181-.009,12.271,0,.872,0,1.335.425,1.328,1.118s-.458,1.065-1.355,1.068c-2.045.007-4.091,0-6.136,0" transform="translate(-15.322 -36.18)" fill="#010000"/>
        <path id="Trazado_165284" data-name="Trazado 165284" d="M40.916,101.806c1.071,0,2.143-.008,3.214,0,.827.008,1.266.4,1.263,1.083,0,.67-.462,1.1-1.269,1.1q-3.251.021-6.5,0a1.15,1.15,0,0,1-1.282-1.108c0-.643.5-1.071,1.289-1.077,1.1-.009,2.192,0,3.287,0" transform="translate(-19.015 -53.268)"/>
        <path id="Trazado_165285" data-name="Trazado 165285" d="M73.255,52.291a1.056,1.056,0,0,1-1.1-1.023A1.094,1.094,0,0,1,73.22,50.12a1.125,1.125,0,0,1,1.117,1.114,1.091,1.091,0,0,1-1.081,1.057" transform="translate(-37.754 -26.225)" fill="#fcbf4f"/>
        <path id="Trazado_165286" data-name="Trazado 165286" d="M113.6,54.468a1.081,1.081,0,0,1-1.117-1.088,1.1,1.1,0,0,1,1.07-1.076,1.072,1.072,0,0,1,1.1,1.1,1.045,1.045,0,0,1-1.053,1.064" transform="translate(-58.854 -27.367)" fill="#fcc04f"/>
      </g>
    </g>
  </g>
</svg>
