<svg xmlns="http://www.w3.org/2000/svg" xmlns:xlink="http://www.w3.org/1999/xlink" width="105" height="105" viewBox="0 0 105 105">
  <defs>
    <clipPath id="clip-path">
      <rect id="Rectángulo_43089" data-name="Rectángulo 43089" width="77.02" height="68.643" fill="none"/>
    </clipPath>
  </defs>
  <g id="_50" data-name="50" transform="translate(-8821 10861)">
    <path id="Trazado_165119" data-name="Trazado 165119" d="M52.5,0A52.5,52.5,0,1,1,0,52.5,52.5,52.5,0,0,1,52.5,0Z" transform="translate(8821 -10861)" fill="#ff9fa3"/>
    <g id="Grupo_170506" data-name="Grupo 170506" transform="translate(8835 -10843)">
      <g id="Grupo_170505" data-name="Grupo 170505" clip-path="url(#clip-path)">
        <path id="Trazado_165287" data-name="Trazado 165287" d="M21.852,75.985a1.156,1.156,0,0,1-1.4.734c-4.819-1.024-9.495-.29-14.119,1.123-.644.2-1.294.389-1.953.524A3.565,3.565,0,0,1,.277,76.236c-.068-.146-.056-.359-.277-.4V74.175c.33-2.514,1.264-4.885,1.731-7.368a21.978,21.978,0,0,0,.143-8.215,30.583,30.583,0,0,1,0-11.419,23.524,23.524,0,0,0-.732-10.7A35.337,35.337,0,0,1,0,31.592V30.237a1.653,1.653,0,0,0,.132-.255A3.572,3.572,0,0,1,4.59,27.474c2.4.585,4.746,1.377,7.192,1.777a22.857,22.857,0,0,0,5.01.247,1.33,1.33,0,0,1,1.576,1.039c.158.786-.275,1.354-1.192,1.392a31.381,31.381,0,0,1-4.279-.04,46,46,0,0,1-7.477-1.643A11.557,11.557,0,0,0,3.956,29.9c-1.045-.137-1.6.43-1.4,1.457.174.859.433,1.7.677,2.541A34.27,34.27,0,0,1,4.885,44.1a37.1,37.1,0,0,1-.554,4.847,23.6,23.6,0,0,0,.03,8.145,26.659,26.659,0,0,1-.284,11.62c-.52,1.859-1.009,3.726-1.5,5.594-.3,1.149.355,1.847,1.516,1.582C5.612,75.54,7.1,75.1,8.606,74.7a27.384,27.384,0,0,1,11.481-.548,3.86,3.86,0,0,1,1.162.3,1.1,1.1,0,0,1,.6,1.54" transform="translate(0 -14.726)"/>
        <path id="Trazado_165288" data-name="Trazado 165288" d="M6.562,70.4c.244-1.454.543-2.9.665-4.373a25.123,25.123,0,0,0-.313-6.511,26.572,26.572,0,0,1-.02-9.642A27.4,27.4,0,0,0,6.084,37.1c-.365-1.273-.691-2.558-1.027-3.84-.377-1.44.433-2.221,1.894-1.846,2.155.552,4.281,1.218,6.468,1.644a27.147,27.147,0,0,0,6.436.39c.77-.035,1.091-.509,1.187-1.207l2.884-.459a2.865,2.865,0,0,0,2.689.239,60.3,60.3,0,0,1,10.029-1.386c2.129-.126,4.255-.137,6.38-.109a57.49,57.49,0,0,1,12.728,1.49,53.976,53.976,0,0,0,6.787,1.268,6.834,6.834,0,0,0,1.924.1c.58.009.851.253.716.827a12.028,12.028,0,0,1-.552,2.676,1.369,1.369,0,0,1-1,.221c-.726.019-1.456-.041-2.18.033-.662.067-1.087.436-1.02.883.088.587.549.723,1.051.771.225.021.451.012.677.012.877,0,1.755-.008,2.631,0,.317,0,.732-.095.9.229s-.165.6-.367.837c-1.223,1.426-2.424,2.872-3.643,4.3a20.072,20.072,0,0,0-1.382,1.684c-.572.839-.3,1.512.687,1.714a20.89,20.89,0,0,0,3.3.11c.367.016.761-.077,1.071.224a10.061,10.061,0,0,1,.069,3.28c-.1,1.2-.374,2.374-.521,3.567a26.681,26.681,0,0,0,1.013,10.99c.394,1.32.771,2.647,1.05,4a2.594,2.594,0,0,1-2.828,3.338,4.7,4.7,0,0,1-1.11-.177c-1.255-.347-2.508-.7-3.771-1.024-.35-.089-.767-.125-.862-.6.03-.46.374-.754.6-1.1a8.317,8.317,0,0,0,1.557-4.86,4.309,4.309,0,0,0-1.5-3.318,1.671,1.671,0,0,1-.61-1.382c.009-2.056,0-4.112,0-6.168A12.433,12.433,0,0,0,45.925,41.934H36.6A12.512,12.512,0,0,0,24.155,52.545,6.661,6.661,0,0,0,24.1,53.6c0,2.282-.006,4.563,0,6.845a1.626,1.626,0,0,1-.575,1.4A4.51,4.51,0,0,0,21.9,66.424c.442,2.543,1.529,4.722,4.039,5.881a.775.775,0,0,1,.5.966c-.184.458-.579.411-.953.389a65.836,65.836,0,0,1-12.808-1.95,22.891,22.891,0,0,0-5.341-.735c-.347-.007-.9.125-.778-.575" transform="translate(-2.674 -16.433)" fill="#e4ebf0"/>
        <path id="Trazado_165289" data-name="Trazado 165289" d="M81.989,31.1a55.321,55.321,0,0,1-8.4-1.563,68.407,68.407,0,0,0-16.611-1.1,55.644,55.644,0,0,0-11.951,1.7,1.286,1.286,0,0,1-1.673-.727c.024-.94.274-1.26,1.156-1.478a70.742,70.742,0,0,1,22.321-1.583A64.317,64.317,0,0,1,77.7,28.171a24.575,24.575,0,0,0,13.064-.354c1.295-.38,2.6-.736,3.913-1.048a3.556,3.556,0,0,1,4.339,4.311c-.559,2.36-1.279,4.682-1.789,7.051a23.149,23.149,0,0,0-.073,9.11,26.106,26.106,0,0,1,.035,9.645A26.263,26.263,0,0,0,98,69.5q.548,1.832.989,3.695a3.578,3.578,0,0,1-4.515,4.427c-2.3-.578-4.561-1.337-6.912-1.725a24.977,24.977,0,0,0-10.211.449c-1.552.387-3.121.71-4.688,1.034a1.206,1.206,0,0,0-.7.369A15.281,15.281,0,0,1,48.27,76.3a.585.585,0,0,0-.112-.094,9.829,9.829,0,0,1-2.418-5.445c.059-.363-.128-.507-.451-.647a7.807,7.807,0,0,1-4.116-8.183,4.089,4.089,0,0,1,1.585-2.553,1.134,1.134,0,0,0,.5-1.064c-.006-2.406-.076-4.817.052-7.216A12.6,12.6,0,0,1,55.632,39.356q5.036-.047,10.075,0A12.655,12.655,0,0,1,78.075,51.694c.032,2.255.006,4.512.014,6.767,0,.261-.085.539.2.753,2.013,1.516,2.185,3.565,1.651,5.807a9.265,9.265,0,0,1-2.021,3.8,2.017,2.017,0,0,1-1.16,1.118,1.858,1.858,0,0,0-1.044,1.37,15.482,15.482,0,0,1-1.12,3.077,1.841,1.841,0,0,0,.918-.13,30.7,30.7,0,0,1,8.841-1.133,29.45,29.45,0,0,1,7.25,1.184c1.038.291,2.082.559,3.124.834,1.534.4,2.15-.249,1.768-1.775-.664-2.648-1.532-5.244-1.932-7.96a26.079,26.079,0,0,1,.178-8.749,25.7,25.7,0,0,0-.089-9.49,26.579,26.579,0,0,1,.721-11.9c.4-1.475.8-2.953,1.178-4.434.3-1.172-.3-1.815-1.5-1.579-1.378.27-2.725.676-4.076,1.053a24.615,24.615,0,0,1-5.1.928c-1.288.08-2.589-.109-3.885-.138" transform="translate(-22.1 -14.056)"/>
        <path id="Trazado_165290" data-name="Trazado 165290" d="M26.3,119.675a18.652,18.652,0,0,0,2.418,5.445l-4.207-.887c.043-1.025-.205-1.319-1.224-1.518a28.569,28.569,0,0,0-14.013.975c-.836.255-1.683.482-2.534.682a1.349,1.349,0,0,1-1.726-1.8c.5-1.88,1.021-3.755,1.533-5.632.039.333.268.371.543.367a31.484,31.484,0,0,1,7.725,1.215,61.416,61.416,0,0,0,7.727,1.227,18.04,18.04,0,0,1,2.976.242c.265.073.683.18.78-.317" transform="translate(-2.661 -62.974)" fill="#d5e3e9"/>
        <path id="Trazado_165291" data-name="Trazado 165291" d="M136.428,15.68c1.181,0,2.175.006,3.168,0,.555-.005,1.034.1,1.046.778s-.441.823-1.007.822c-1.628,0-3.255,0-4.884,0-.412,0-.828-.031-1.021-.47a1.075,1.075,0,0,1,.308-1.226c1.221-1.32,2.438-2.643,3.768-4.086-.989,0-1.847-.012-2.706,0-.587.01-1.1-.111-1.108-.806s.519-.827,1.1-.826q2.178,0,4.357,0c.445,0,.858.043,1.058.527a1.027,1.027,0,0,1-.315,1.153c-1.211,1.333-2.424,2.665-3.763,4.136" transform="translate(-71.968 -5.312)"/>
        <path id="Trazado_165292" data-name="Trazado 165292" d="M119.3,1.2h-2.111c-.432,0-.756-.158-.737-.642.018-.445.342-.563.736-.562q1.652,0,3.3,0c.329,0,.653-.017.82.367a.769.769,0,0,1-.234.881c-.887.983-1.781,1.959-2.812,3.09.863,0,1.565,0,2.267,0,.406,0,.859-.028.882.55.024.611-.429.65-.877.652-1.152,0-2.3,0-3.455,0-.334,0-.661-.024-.823-.384a.811.811,0,0,1,.265-.941L119.3,1.2" transform="translate(-62.572 0)" fill="#010101"/>
        <path id="Trazado_165293" data-name="Trazado 165293" d="M120.606,34.427c4.409.31,8.584-.854,12.762-2.016,1.633-.454,2.4.334,1.973,1.984-.6,2.322-1.335,4.614-1.776,6.976a25.39,25.39,0,0,0-.043,9.34,25.987,25.987,0,0,1,.013,9.567,27.339,27.339,0,0,0,.838,12.844c.356,1.224.665,2.462.988,3.7.4,1.534-.4,2.3-1.956,1.9-2.057-.533-4.087-1.174-6.174-1.583a27.781,27.781,0,0,0-13.007.665c-.45.126-.913.209-1.473.335a15.808,15.808,0,0,0,1.558-4.307.522.522,0,0,1,.376-.425,6.471,6.471,0,0,0,1.85-1.25c.016.352.325.358.544.418,1.49.411,2.981.825,4.482,1.192a2.475,2.475,0,0,0,3.324-2,2.9,2.9,0,0,0-.171-1.308c-.532-2.36-1.329-4.653-1.779-7.032a24.164,24.164,0,0,1-.243-7.227,39.293,39.293,0,0,0,.624-7.365c.326-.268.717-.165,1.085-.183a7.371,7.371,0,0,0,1.794-.112c.436-.13.812-.343.758-.877s-.453-.688-.916-.7c-1.228-.03-2.456,0-3.684-.019-.408-.008-.956.172-1.163-.285-.192-.423.3-.7.54-.994,1.491-1.79,3-3.565,4.5-5.352.1-.115.2-.224.288-.347.294-.417.586-.846.314-1.381-.261-.512-.76-.509-1.243-.512-.727-.005-1.454.007-2.18-.006-.294-.005-.611.049-.843-.212.151-.928.284-1.859.461-2.782.09-.467-.1-.515-.5-.522a4.829,4.829,0,0,1-1.913-.119" transform="translate(-60.717 -17.385)" fill="#d5e3e9"/>
        <path id="Trazado_165294" data-name="Trazado 165294" d="M128.444,44.345q1.54.015,3.08.03c.556,0,1.147-.034,1.417.595a1.5,1.5,0,0,1-.4,1.649q-2.5,2.95-4.986,5.92c-.151.18-.386.318-.4.658h3.895c.3,0,.6-.007.9.012.741.048,1.158.417,1.163,1.009s-.393.987-1.143,1.037c-.649.043-1.3.012-1.954.023-.274,0-.547.029-.821.044-1.248-.015-2.5-.022-3.745-.05-.615-.013-1.312.085-1.644-.617-.342-.722.037-1.282.5-1.824,1.768-2.07,3.521-4.153,5.393-6.363-1.366,0-2.6,0-3.829,0a4.255,4.255,0,0,1-.9-.041.981.981,0,0,1-.88-.969.956.956,0,0,1,.833-1,11.257,11.257,0,0,1,2.167-.079c.449-.019.9-.022,1.348-.032" transform="translate(-66.601 -23.88)"/>
        <path id="Trazado_165295" data-name="Trazado 165295" d="M70.161,77.315A1.212,1.212,0,0,0,71.09,78.4c1.409.152,1.668.376,1.706,1.852.066,2.531.026,5.064.015,7.6a.98.98,0,0,1-.274.826,2.194,2.194,0,0,0-1.581,1.109,1.4,1.4,0,0,1-2.35.079,5.219,5.219,0,0,0-.54-.719.788.788,0,0,0-.894-.206.873.873,0,0,0-.545.752,1.713,1.713,0,0,0,.361,1.2,3.339,3.339,0,0,0,4.533.954,3.271,3.271,0,0,1,.963-.568c.3.12.278.391.294.635a14.594,14.594,0,0,1-9.841,15.148,5.146,5.146,0,0,1-2.859.373,12.616,12.616,0,0,1-7.99-6.006,11.918,11.918,0,0,1-1.633-4.634A1.243,1.243,0,0,0,49.2,95.55a2.195,2.195,0,0,1-1.439-.728,6.018,6.018,0,0,1-1.793-3.71c-.213-1.976.73-3.062,2.736-3.242,1.421-.127,1.607-.329,1.607-1.745,0-1.278,0-2.556,0-3.833a3.581,3.581,0,0,1,3.936-3.9q5.637-.008,11.274,0c.7,0,1.235-.179,1.377-.956.057-.082.115-.194.2-.21a5.409,5.409,0,0,1,3.063.087" transform="translate(-24.735 -41.492)" fill="#fecabd"/>
        <path id="Trazado_165296" data-name="Trazado 165296" d="M72.723,67.966a13.177,13.177,0,0,0-3.268.123c-.061-.932-.423-1.3-1.36-1.3-3.907-.007-7.814-.061-11.719.022a5.631,5.631,0,0,0-5.362,3.679c-.086.2-.079.449-.28.6A10.453,10.453,0,0,1,59.3,59.838,13.36,13.36,0,0,1,61.7,59.69q4.695.017,9.389.027A8.336,8.336,0,0,1,74.2,61.874a11.365,11.365,0,0,1,2.675,4.286c.16.481.156.483-.087.772a14.609,14.609,0,0,0-2.693-.145c-.858.032-1.18.314-1.367,1.18" transform="translate(-27.298 -32.143)" fill="#a54c31"/>
        <path id="Trazado_165297" data-name="Trazado 165297" d="M76.585,108.97a12.878,12.878,0,0,0,7.5-3.232,14.573,14.573,0,0,0,4.891-12.882c-.159-.223.042-.364.129-.523.545-1.007.521-1.191-.271-1.975a.2.2,0,0,1-.053-.2c.36-.059.3-.338.3-.583,0-2.6.009-5.208-.01-7.813a6.345,6.345,0,0,0-.216-1.1.634.634,0,0,0-.78-.6.508.508,0,0,1-.489-.121,11.905,11.905,0,0,1,2.4.077,3.438,3.438,0,0,1,2.9,3.351c.046,1.5.012,3.009.019,4.513.006,1.126.279,1.423,1.379,1.528,2.224.212,3.177,1.539,2.691,3.737A6.343,6.343,0,0,1,95.331,96.3a2.157,2.157,0,0,1-1.267.759c-.9.092-1.2.63-1.342,1.439a12.7,12.7,0,0,1-7.641,9.829,11.962,11.962,0,0,1-8.5.641" transform="translate(-41.242 -43.038)" fill="#fcac9c"/>
        <path id="Trazado_165298" data-name="Trazado 165298" d="M100.581,66.964a5,5,0,0,0-.866-2.464,11.306,11.306,0,0,0-4.632-4.535c-.082-.042-.134-.143-.2-.216a10.087,10.087,0,0,1,8.569,5.229,9.291,9.291,0,0,1,1.307,5.883,6.11,6.11,0,0,0-4.177-3.9" transform="translate(-51.095 -32.175)" fill="#893e25"/>
        <path id="Trazado_165299" data-name="Trazado 165299" d="M78.143,122.661a6.01,6.01,0,0,1-3.815-1.333A1.11,1.11,0,0,1,74,119.694a1.148,1.148,0,0,1,1.665-.162,4.125,4.125,0,0,0,5.138.013,1.149,1.149,0,0,1,1.668.132,1.108,1.108,0,0,1-.294,1.64,6.034,6.034,0,0,1-4.038,1.343" transform="translate(-39.726 -64.219)"/>
        <path id="Trazado_165300" data-name="Trazado 165300" d="M96.121,102.1c.956.53,1.115,1.034.618,2-.124.241-.282.464-.424.7a3.555,3.555,0,0,1-5.512-.138,2.78,2.78,0,0,1-.563-1.132,1.055,1.055,0,0,1,.687-1.328,1.029,1.029,0,0,1,1.379.562,1.764,1.764,0,0,0,.739.9,1.239,1.239,0,0,0,1.728-.7,1.322,1.322,0,0,1,1.346-.869" transform="translate(-48.577 -54.981)"/>
        <path id="Trazado_165301" data-name="Trazado 165301" d="M65.853,106.043a3.5,3.5,0,0,1-3.243-2.133,1.174,1.174,0,0,1,.476-1.666c.616-.295,1.185-.048,1.553.711a1.291,1.291,0,0,0,2.418,0c.365-.759.941-1,1.558-.705a1.176,1.176,0,0,1,.485,1.664,3.505,3.505,0,0,1-3.247,2.133" transform="translate(-33.635 -54.994)"/>
      </g>
    </g>
  </g>
</svg>
