<svg xmlns="http://www.w3.org/2000/svg" xmlns:xlink="http://www.w3.org/1999/xlink" width="105" height="105" viewBox="0 0 105 105">
  <defs>
    <clipPath id="clip-path">
      <rect id="Rectángulo_43090" data-name="Rectángulo 43090" width="62.214" height="62.227" fill="none"/>
    </clipPath>
  </defs>
  <g id="_51" data-name="51" transform="translate(-9136 10861)">
    <path id="Trazado_165120" data-name="Trazado 165120" d="M52.5,0A52.5,52.5,0,1,1,0,52.5,52.5,52.5,0,0,1,52.5,0Z" transform="translate(9136 -10861)" fill="#ff9fa3"/>
    <g id="Grupo_170509" data-name="Grupo 170509" transform="translate(9157 -10840)">
      <g id="Grupo_170508" data-name="Grupo 170508" clip-path="url(#clip-path)">
        <path id="Trazado_165302" data-name="Trazado 165302" d="M0,41.57a18.951,18.951,0,0,0,.473-2.457A21.87,21.87,0,0,1,9.319,25.38a26.663,26.663,0,0,1,15.489-5.03,15.923,15.923,0,0,1,6.3,1.081c.6.244.77.064,1-.433a44.961,44.961,0,0,1,4.243-7.47,14.133,14.133,0,0,1,4.2-4.233c3.081-1.8,5.938-.277,6.273,3.291a22.093,22.093,0,0,1-.929,7.486A98.774,98.774,0,0,1,42.6,29.691a7.284,7.284,0,0,0,.046,5.674c.784,1.723,2.118,2.038,3.613.885a11.5,11.5,0,0,0,3.14-4.4,41.766,41.766,0,0,0,2-5.514c.1-.306.091-.479-.239-.665a6.549,6.549,0,0,1,3.989-12.278c.489.061.612-.1.752-.487,1.415-3.93,2.849-7.853,4.27-11.781A1.82,1.82,0,0,1,61.015,0H61.5c.773.485.86.759.532,1.66C60.585,5.641,59.147,9.626,57.677,13.6a.615.615,0,0,0,.291.9A6.549,6.549,0,0,1,53.8,26.424c-.394-.035-.477.129-.564.429a36.092,36.092,0,0,1-2.468,6.561,13.336,13.336,0,0,1-3.07,4.175c-2.339,2-5.05,1.606-6.573-.982a7.467,7.467,0,0,1-.935-3.6,12.749,12.749,0,0,1,1.061-5.247,58.833,58.833,0,0,0,3.283-10.311,14.115,14.115,0,0,0,.328-5,3.941,3.941,0,0,0-.12-.531,1.791,1.791,0,0,0-2.682-1.253,8.9,8.9,0,0,0-3.318,2.863,37.342,37.342,0,0,0-3.864,6.149c-1.313,2.479-2.557,4.993-3.784,7.516-.367.756-.6.87-1.439.758-.5-.057-.591-.43-.63-.828a1.931,1.931,0,0,1,.386-1.193c.382-.624.668-1.3,1.016-1.936.208-.383.11-.581-.3-.718a15.011,15.011,0,0,0-3.435-.739,24.748,24.748,0,0,0-13,2.561,1.437,1.437,0,0,0-.888,1.371,9.155,9.155,0,0,0,8.223,9.614,15.308,15.308,0,0,0,2.294-.071,1.382,1.382,0,0,0,1.24-.829c.7-1.392,1.467-2.751,2.16-4.148a10.009,10.009,0,0,1,.883-1.522.857.857,0,0,1,1.336-.262c.614.585.642.834.183,1.706Q23.7,41.281,18.276,51.6c-.1.191-.19.389-.312.638,1.753.095,3.443.2,5.134.27.561.024,1.25.33,1.645.012.356-.287.353-1,.559-1.5a10.2,10.2,0,0,1,5.925-5.9c.841-.327,1.461.123,1.466,1.069.009,1.965.014,3.93-.007,5.894a.806.806,0,0,0,.411.781,91.744,91.744,0,0,1,9.2,6.939c.37.318.709.634.584,1.171-.131.561-.571.707-1.085.8a19.264,19.264,0,0,1-10.923-.763,11.263,11.263,0,0,1-4.144-2.784.663.663,0,0,0-.876-.173,24.34,24.34,0,0,1-10.4,1.969C8.082,59.624,1.793,54.807.342,47.149A7.652,7.652,0,0,0,0,45.338Z"/>
        <path id="Trazado_165303" data-name="Trazado 165303" d="M45.679,58.762c-.769-.171-1.064-.046-1.429.645-.971,1.84-1.947,3.679-2.891,5.533a1.167,1.167,0,0,1-.951.7,9.239,9.239,0,0,1-10.815-7.16,8.846,8.846,0,0,1-.118-3.257.478.478,0,0,1,.272-.418,23.8,23.8,0,0,1,15.246-2.685,14.813,14.813,0,0,1,2.276.624c.335.114.374.247.2.553-.469.849-.912,1.712-1.356,2.574a1.062,1.062,0,0,0,.273,1.6l-.712,1.3" transform="translate(-16.735 -29.508)" fill="#fecf42"/>
        <path id="Trazado_165304" data-name="Trazado 165304" d="M102.005,112.232a4.807,4.807,0,0,1-3.233-1.5,37.421,37.421,0,0,1-4.941-5.421.948.948,0,0,1,.476-1.558,34.546,34.546,0,0,1,8.134-1.541,4.972,4.972,0,0,1,4.836,5.808,5.081,5.081,0,0,1-5.272,4.208" transform="translate(-53.318 -58.231)"/>
        <path id="Trazado_165305" data-name="Trazado 165305" d="M9.591,17.195a5.048,5.048,0,0,1,5.045,3.669,40.446,40.446,0,0,1,1.709,6.985c.143.877-.425,1.38-1.3,1.177a30.7,30.7,0,0,1-7.8-2.539A4.818,4.818,0,0,1,4.8,21.663a5.049,5.049,0,0,1,3.432-4.219,4.539,4.539,0,0,1,1.363-.249" transform="translate(-2.716 -9.794)"/>
        <path id="Trazado_165306" data-name="Trazado 165306" d="M61.733,5.376A4.424,4.424,0,0,1,64.5,1.57a4.84,4.84,0,0,1,5.405.588,4.929,4.929,0,0,1,.919,6.731,31.249,31.249,0,0,1-6.087,5.625.949.949,0,0,1-1.578-.536,35.251,35.251,0,0,1-1.424-8.6" transform="translate(-35.167 -0.571)"/>
        <path id="Trazado_165307" data-name="Trazado 165307" d="M4.689,81.572a14.5,14.5,0,0,1-.071-5.008A20.061,20.061,0,0,1,13.235,62.1,11.21,11.21,0,0,0,16.9,70.652a10.986,10.986,0,0,0,8.7,2.881,1.372,1.372,0,0,1-.276.719Q21.849,80.88,18.362,87.5c-.066.125-.131.251-.191.379a1.006,1.006,0,0,0,.94,1.584c1.172.071,2.343.135,3.515.2,1.717.1,3.434.2,5.153.282.883.042,1.2-.232,1.357-1.1a4.548,4.548,0,0,1,.37-1.33.729.729,0,0,1,.292.952.515.515,0,0,0,.243.712,4.227,4.227,0,0,1,.693.758,11.489,11.489,0,0,0,6.887,3.376c.3.046.581.124.883.186a8.9,8.9,0,0,0-2.165-1.671c-.673-.424-1.214-1-1.862-1.452a.4.4,0,0,1-.105-.627,59.678,59.678,0,0,1,6,4.325c-.205.232-.486.182-.739.173a14.3,14.3,0,0,1-7.738-2.354,7.82,7.82,0,0,1-1.849-1.656.709.709,0,0,0-.988-.253A24.975,24.975,0,0,1,21.574,92,15.9,15.9,0,0,1,8.107,87.538a12.483,12.483,0,0,1-3.418-5.967" transform="translate(-2.527 -35.378)" fill="#fe9840"/>
        <path id="Trazado_165308" data-name="Trazado 165308" d="M5.025,107.349A8.456,8.456,0,0,1,5.732,109a13.987,13.987,0,0,0,7.87,7.536,16.271,16.271,0,0,0,5.581,1.173,23.173,23.173,0,0,0,6.83-.92,20.123,20.123,0,0,0,3.631-1.324c.321-.156.5-.016.672.2a11.546,11.546,0,0,0,7.385,3.961,12.406,12.406,0,0,0,3,.227l1.929,1.453a18.043,18.043,0,0,1-5.674-.167,10.739,10.739,0,0,1-6.572-3.7c-.522-.63-.821-.661-1.658-.3a22.225,22.225,0,0,1-10.849,2.1c-6.51-.592-11.554-4.756-12.818-11.408a4.271,4.271,0,0,1-.038-.482" transform="translate(-2.863 -61.156)" fill="#f4760f"/>
        <path id="Trazado_165309" data-name="Trazado 165309" d="M67.554,117.287c0,.2-.011.391.185.543a38.722,38.722,0,0,0,3.273,2.342c.324.2.477.6.893.679.116.022.159.185.048.3s-.24.222-.366.11c-.421-.378-.96-.248-1.439-.351A11.107,11.107,0,0,1,63.332,117a1.388,1.388,0,0,0-.436-.315c-.2-.111-.273-.3-.159-.454.309-.421.127-.793-.048-1.178a8.019,8.019,0,0,1,3.669-4.609c.2.14.117.315.117.46.007,1.394.062,2.792-.015,4.182a2.02,2.02,0,0,0,1.093,2.2" transform="translate(-35.71 -62.919)" fill="#fe9840"/>
        <path id="Trazado_165310" data-name="Trazado 165310" d="M119.327,40.594c2.255.938,4.508,1.879,6.767,2.807.268.111.3.255.248.514-.281,1.424-.416,1.506-1.744.942q-2.952-1.253-5.9-2.519c-.309-.609.008-1.121.266-1.636a.254.254,0,0,1,.361-.108" transform="translate(-67.549 -23.106)" fill="#fe9840"/>
        <path id="Trazado_165311" data-name="Trazado 165311" d="M119.292,49.964l5.434,2.234a4.476,4.476,0,0,1-3.615.673,4.543,4.543,0,0,1-1.9-2.39c-.11-.263-.1-.269.082-.516" transform="translate(-67.873 -28.464)" fill="#fdcf42"/>
        <path id="Trazado_165312" data-name="Trazado 165312" d="M127.973,38.367l-6-2.528a4.432,4.432,0,0,1,6,2.528" transform="translate(-69.484 -20.171)" fill="#fdce41"/>
        <path id="Trazado_165313" data-name="Trazado 165313" d="M117.239,49.016a3.473,3.473,0,0,0,.991,2.035c.251.311.55.582.828.871a4.461,4.461,0,0,1-3.521-3.623,10.4,10.4,0,0,1,1.7.716" transform="translate(-65.82 -27.516)" fill="#fdc212"/>
        <path id="Trazado_165314" data-name="Trazado 165314" d="M117.741,39.994c-.587.445-.572,1.107-.627,1.744a2.634,2.634,0,0,1-.558-.207c-.262-.17-.8-.1-.766-.5a2.5,2.5,0,0,1,.756-1.47c.148-.153.337.046.5.1.241.088.466.216.7.327" transform="translate(-65.964 -22.506)" fill="#f2750f"/>
        <path id="Trazado_165315" data-name="Trazado 165315" d="M43.133,55.9a2.5,2.5,0,0,1,2.511,2.488,2.541,2.541,0,0,1-2.476,2.485,2.514,2.514,0,0,1-2.5-2.511A2.468,2.468,0,0,1,43.133,55.9" transform="translate(-23.169 -31.845)"/>
        <path id="Trazado_165316" data-name="Trazado 165316" d="M101.395,107.6a23.64,23.64,0,0,1,5.222-.9,2.906,2.906,0,0,1,3.183,2.552,1.29,1.29,0,0,1-.65,1.488,4,4,0,0,1-4.511.119,20.537,20.537,0,0,1-3.11-2.877.378.378,0,0,1-.134-.381" transform="translate(-57.756 -60.784)" fill="#64dce2"/>
        <path id="Trazado_165317" data-name="Trazado 165317" d="M100.392,108.8a21.317,21.317,0,0,0,3.334,3.131,3.881,3.881,0,0,0,4.5-.232,1.333,1.333,0,0,0,.567-1.246,3.014,3.014,0,0,1-1.192,3.016,2.973,2.973,0,0,1-3.4.141,20.443,20.443,0,0,1-3.4-3.262c-.387-.432-.752-.884-1.179-1.389l.77-.158" transform="translate(-56.754 -61.981)" fill="#37c8d3"/>
        <path id="Trazado_165318" data-name="Trazado 165318" d="M12.038,22.045A2.962,2.962,0,0,1,16.183,23.2a22.334,22.334,0,0,1,1.566,5.12c.056.254.083.514.123.771-.1.1-.215.068-.337.038a15.471,15.471,0,0,1-4.28-1.623,4.062,4.062,0,0,1-1.726-4.739,1.215,1.215,0,0,1,.509-.724" transform="translate(-6.45 -12.32)" fill="#64dce2"/>
        <path id="Trazado_165319" data-name="Trazado 165319" d="M10.827,22.6a3.974,3.974,0,0,0,1.855,5.658,24.42,24.42,0,0,0,3.98,1.39c.148.248.015.293-.191.24a22.943,22.943,0,0,1-5.928-2.078,3.037,3.037,0,0,1,.285-5.211" transform="translate(-5.239 -12.875)" fill="#37c8d3"/>
        <path id="Trazado_165320" data-name="Trazado 165320" d="M71.409,5.912a3,3,0,0,1,1.692,4.6A20.079,20.079,0,0,1,69.2,14.3c-.192.012-.242-.142-.269-.271a13.765,13.765,0,0,1-.461-5.1,3.687,3.687,0,0,1,2.938-3.022" transform="translate(-38.953 -3.368)" fill="#64dce2"/>
        <path id="Trazado_165321" data-name="Trazado 165321" d="M70.169,5.7a4.442,4.442,0,0,0-2.485,2.155,5.286,5.286,0,0,0-.341,2.519,27.282,27.282,0,0,0,.518,3.507.9.9,0,0,0,.1.211l-.732.649a26.141,26.141,0,0,1-.7-3.217c-.137-.876-.247-1.758-.321-2.642A3.02,3.02,0,0,1,70.169,5.7" transform="translate(-37.713 -3.151)" fill="#37c8d3"/>
        <path id="Trazado_165322" data-name="Trazado 165322" d="M30.39,97.474a3.219,3.219,0,0,1-2.67-1.853A3.364,3.364,0,0,1,27.927,92a.947.947,0,1,1,1.62.976,1.992,1.992,0,0,0-.3.969,1.464,1.464,0,0,0,.88,1.465,1.608,1.608,0,0,0,1.713-.22c.127-.1.227-.232.351-.336a.945.945,0,0,1,1.34,1.332,3.69,3.69,0,0,1-3.139,1.288" transform="translate(-15.546 -52.118)"/>
        <path id="Trazado_165323" data-name="Trazado 165323" d="M13.084,101.1a3.48,3.48,0,0,1,.688-2.018.938.938,0,0,1,1.595.988,1.868,1.868,0,0,0-.257,1.609,1.563,1.563,0,0,0,2.427.747c.145-.108.264-.25.4-.37a.945.945,0,0,1,1.355-.015.934.934,0,0,1-.018,1.358,3.5,3.5,0,0,1-6.191-2.3" transform="translate(-7.454 -56.2)"/>
        <path id="Trazado_165324" data-name="Trazado 165324" d="M13.86,86.775A3.274,3.274,0,0,1,11.075,84.9a3.376,3.376,0,0,1,.225-3.614.938.938,0,0,1,1.306-.374.948.948,0,0,1,.311,1.36,2.023,2.023,0,0,0-.306.965,1.478,1.478,0,0,0,.869,1.469,1.6,1.6,0,0,0,1.71-.2,1.5,1.5,0,0,0,.131-.126c.608-.564,1.163-.628,1.574-.182s.319.963-.236,1.533a3.548,3.548,0,0,1-2.8,1.041" transform="translate(-6.07 -46.021)"/>
        <path id="Trazado_165325" data-name="Trazado 165325" d="M46.28,60.932c-.058.37-.254.587-.61.563a.51.51,0,0,1-.5-.57.5.5,0,0,1,.592-.529.522.522,0,0,1,.521.535" transform="translate(-25.731 -34.407)" fill="#8f8a83"/>
        <path id="Trazado_165326" data-name="Trazado 165326" d="M113.955,111.747a1.217,1.217,0,1,1,1.291-1.213,1.209,1.209,0,0,1-1.291,1.213" transform="translate(-64.205 -62.276)" fill="#88eaef"/>
        <path id="Trazado_165327" data-name="Trazado 165327" d="M16.517,23.727a1.309,1.309,0,0,1,1.3,1.228A1.37,1.37,0,0,1,16.6,26.241a1.344,1.344,0,0,1-1.331-1.3,1.323,1.323,0,0,1,1.248-1.219" transform="translate(-8.699 -13.517)" fill="#88eaef"/>
        <path id="Trazado_165328" data-name="Trazado 165328" d="M74.759,11.9a1.3,1.3,0,0,1-1.282-1.255,1.394,1.394,0,0,1,1.288-1.279,1.291,1.291,0,0,1,1.248,1.288A1.207,1.207,0,0,1,74.759,11.9" transform="translate(-41.859 -5.334)" fill="#88eaef"/>
      </g>
    </g>
  </g>
</svg>
