<svg xmlns="http://www.w3.org/2000/svg" xmlns:xlink="http://www.w3.org/1999/xlink" width="105" height="105" viewBox="0 0 105 105">
  <defs>
    <clipPath id="clip-path">
      <rect id="Rectángulo_43091" data-name="Rectángulo 43091" width="67.859" height="67.874" fill="none"/>
    </clipPath>
  </defs>
  <g id="_52" data-name="52" transform="translate(-9451 10861)">
    <path id="Trazado_165121" data-name="Trazado 165121" d="M52.5,0A52.5,52.5,0,1,1,0,52.5,52.5,52.5,0,0,1,52.5,0Z" transform="translate(9451 -10861)" fill="#ff9fa3"/>
    <g id="Grupo_170512" data-name="Grupo 170512" transform="translate(9470 -10842)">
      <g id="Grupo_170511" data-name="Grupo 170511" transform="translate(0 0)" clip-path="url(#clip-path)">
        <path id="Trazado_165329" data-name="Trazado 165329" d="M20.9,90.248a1.848,1.848,0,0,1-1.037-1.877q.026-10.868.01-21.735c0-1.34.5-1.836,1.832-1.836H28.2a4.152,4.152,0,0,1,3.455,1.631c.219.281.34.264.617.08a12.774,12.774,0,0,0,5.03-6.134c.814-2.09,1.8-4.114,2.712-6.164a3.559,3.559,0,0,1,5.772-1.445,7.057,7.057,0,0,1,2.611,7.878c-.342,1.208-.66,2.424-1.038,3.62-.147.463-.053.546.408.544,3.313-.017,6.628.062,9.938-.028a4.258,4.258,0,0,1,4.161,6.051.323.323,0,0,0,.124.484,4.212,4.212,0,0,1-.016,6.77c-.214.153-.2.293-.1.5a4.172,4.172,0,0,1-1.233,5.11.41.41,0,0,0-.159.591A4.141,4.141,0,0,1,57.4,90.143c-.024.006-.036.069-.053.105H36.539a9.627,9.627,0,0,1-4.1-1.523.447.447,0,0,0-.684.086,3.634,3.634,0,0,1-2.769,1.437Z" transform="translate(-8.574 -22.374)"/>
        <path id="Trazado_165330" data-name="Trazado 165330" d="M0,4.515c.239-.117.2-.368.263-.564A5.611,5.611,0,0,1,5.523.021q8.613-.038,17.227,0a5.5,5.5,0,0,1,5.482,5.362q.087,8.746,0,17.493a5.434,5.434,0,0,1-5.386,5.372c-5.808.055-11.617.043-17.425,0a5.518,5.518,0,0,1-5.17-3.942C.192,24.11.23,23.86,0,23.735Z" transform="translate(0 0)"/>
        <path id="Trazado_165331" data-name="Trazado 165331" d="M83.738,28.275c-2.849,0-5.7.035-8.547-.01a5.541,5.541,0,0,1-5.424-4.549,7.38,7.38,0,0,1-.1-1.45q-.01-8.117,0-16.235a5.639,5.639,0,0,1,6-6.015q8.117,0,16.234,0a5.667,5.667,0,0,1,6.031,6.056q0,8.118,0,16.235a5.64,5.64,0,0,1-5.973,5.974c-2.739.006-5.477,0-8.216,0Z" transform="translate(-30.069 -0.007)"/>
        <path id="Trazado_165332" data-name="Trazado 165332" d="M47.176,69.675a15.038,15.038,0,0,0,4.433-6.228c.825-2.015,1.758-3.988,2.648-5.977.41-.917.75-1,1.55-.387a4.2,4.2,0,0,1,1.585,4.695c-.533,1.909-1.032,3.83-1.668,5.705a1.583,1.583,0,0,0,1.709,2.251c3.973-.069,7.949-.025,11.923-.023.9,0,1.44.311,1.661.934a1.425,1.425,0,0,1-1.461,1.908c-1.633.025-3.268.007-4.9.007-1.082,0-2.164-.01-3.246,0a1.375,1.375,0,0,0-1.532,1.368,1.4,1.4,0,0,0,1.536,1.442c3.18.008,6.359,0,9.539,0a1.425,1.425,0,0,1,1.579,1.108,1.375,1.375,0,0,1-1.428,1.7c-1.744.021-3.489.007-5.234.008-1.479,0-2.959,0-4.438,0a1.442,1.442,0,0,0-1.414.8,1.354,1.354,0,0,0,.072,1.388,1.6,1.6,0,0,0,1.5.666q3.908-.009,7.817,0a2.807,2.807,0,0,1,.847.093,1.4,1.4,0,0,1-.494,2.712c-1.435.021-2.87.007-4.305.007-1.325,0-2.65,0-3.975,0a1.419,1.419,0,0,0-1.6,1.378c-.017.886.577,1.431,1.6,1.434,2.208.009,4.417.023,6.624-.007.846-.011,1.734.6,1.6,1.435a1.2,1.2,0,0,1-.879.2c-5.05,0-10.1.02-15.151-.007a8.113,8.113,0,0,1-5.226-1.964,3.848,3.848,0,0,1-1.465-3c-.027-4.279-.011-8.558-.01-12.837a1.481,1.481,0,0,1,.2-.822" transform="translate(-20.273 -24.469)" fill="#feddc6"/>
        <path id="Trazado_165333" data-name="Trazado 165333" d="M45.144,79.537c0,4.46.007,8.92,0,13.38A4.069,4.069,0,0,0,47.124,96.5a9,9,0,0,0,5.18,1.479c5.122-.035,10.244-.012,15.366-.012a1.3,1.3,0,0,1-1.141,1.382,4.465,4.465,0,0,1-.791.043c-5.826,0-11.653-.034-17.478.02a8.836,8.836,0,0,1-5.732-2.015.691.691,0,0,1-.271-.623q.007-7.35,0-14.7a.668.668,0,0,1,.274-.623c.876-.628,1.742-1.271,2.612-1.909" transform="translate(-18.24 -34.331)" fill="#f5cbae"/>
        <path id="Trazado_165334" data-name="Trazado 165334" d="M32.771,79.7a1.351,1.351,0,0,1,1.148,1.517q.009,3.405,0,6.81-.007,4.858-.021,9.716c-.359.246-.689.05-1-.1a5.61,5.61,0,0,1-3.4-5.129c-.088-4.016-.031-8.035-.02-12.053,0-.771.059-.815.843-.8a22.473,22.473,0,0,1,2.444.043" transform="translate(-12.714 -34.377)" fill="#81bbf3"/>
        <path id="Trazado_165335" data-name="Trazado 165335" d="M30.8,79.677c-.837.009-1.675.034-2.512.018-.407-.008-.591.085-.589.544.015,4.123-.04,8.246.027,12.368a5.436,5.436,0,0,0,4.2,5.113,1.437,1.437,0,0,1-1.561,1.687c-1.656.02-3.313-.007-4.969.015-.422.006-.513-.147-.512-.536q.015-9.376.009-18.753c0-.252-.08-.546.359-.542,1.789.013,3.577.007,5.366.013a.562.562,0,0,1,.181.073" transform="translate(-10.74 -34.354)" fill="#6faae5"/>
        <path id="Trazado_165336" data-name="Trazado 165336" d="M27.244,5.082a2.737,2.737,0,0,1,2.363,2.883q.006,8.35,0,16.7a2.4,2.4,0,0,1-.4,1.5,1.569,1.569,0,0,1-.953.213c-4.767,0-9.535.009-14.3,0a4.306,4.306,0,0,1-4.3-4.3C9.631,17.591,9.65,13.11,9.65,8.628c0-.971-.014-1.943.009-2.913.01-.415.106-.7.643-.7,5.562.015,11.125.009,16.687.009a.534.534,0,0,1,.255.055" transform="translate(-4.162 -2.166)" fill="#f16674"/>
        <path id="Trazado_165337" data-name="Trazado 165337" d="M25.216,5.052,8.73,5.068c-.9,0-.9,0-.9.884,0,5.319.05,10.64-.024,15.958a4.414,4.414,0,0,0,4.212,4.259c5.052-.1,10.108-.032,15.162-.033a2.562,2.562,0,0,1-2.415,1.45q-8.479.026-16.957,0a2.833,2.833,0,0,1-2.86-3.061c-.009-3.8,0-7.6,0-11.395,0-1.7-.007-3.4,0-5.1A2.872,2.872,0,0,1,8.014,4.956c5.542-.014,11.084-.005,16.626,0a.9.9,0,0,1,.576.1" transform="translate(-2.135 -2.136)" fill="#da5669"/>
        <path id="Trazado_165338" data-name="Trazado 165338" d="M96.76,5.076A2.742,2.742,0,0,1,99.2,7.963c.018,2.34.006,4.68.006,7.02q0,4.736,0,9.472a2.908,2.908,0,0,1-.4,1.71,1.468,1.468,0,0,1-.949.215c-4.788,0-9.577.011-14.365-.005a4.3,4.3,0,0,1-4.175-3.415,7.937,7.937,0,0,1-.177-1.709q.005-7.514,0-15.028c0-.11,0-.221,0-.331.026-.806.082-.863.872-.863q8.076,0,16.152,0a1.518,1.518,0,0,1,.589.045" transform="translate(-34.16 -2.169)" fill="#81bbf3"/>
        <path id="Trazado_165339" data-name="Trazado 165339" d="M94.806,5.038c-1.632.009-3.265.022-4.9.024q-5.926.005-11.851-.007c-.454,0-.67.066-.667.6.019,5.363-.013,10.726.024,16.089a4.259,4.259,0,0,0,3.232,4.3,2.849,2.849,0,0,0,.716.088l15.492,0a2.6,2.6,0,0,1-2.421,1.452q-8.513.027-17.026,0a2.774,2.774,0,0,1-2.783-2.788q-.021-8.514,0-17.028a2.752,2.752,0,0,1,2.322-2.736A5.974,5.974,0,0,1,78,4.952q7.983-.008,15.966,0a1.58,1.58,0,0,1,.842.086" transform="translate(-32.206 -2.131)" fill="#6faae5"/>
        <path id="Trazado_165340" data-name="Trazado 165340" d="M26.215,20.648a5.645,5.645,0,0,1-11.29-.069,5.645,5.645,0,1,1,11.29.069" transform="translate(-6.442 -6.45)"/>
        <path id="Trazado_165341" data-name="Trazado 165341" d="M37.643,11.395a1.42,1.42,0,0,1-2.84,0A1.413,1.413,0,0,1,36.257,10a1.393,1.393,0,0,1,1.386,1.391" transform="translate(-15.022 -4.318)" fill="#010000"/>
        <path id="Trazado_165342" data-name="Trazado 165342" d="M90.227,22.939c0,.839.014,1.678,0,2.516a1.405,1.405,0,1,1-2.805,0c-.014-1.59-.048-3.181.015-4.767.029-.725-.217-.926-.876-.83a2.887,2.887,0,0,1-.66-.008,1.349,1.349,0,0,1-1.289-1.337,1.377,1.377,0,0,1,1.25-1.45,6.514,6.514,0,0,1,1.124-.008c.355.026.451-.106.439-.447a7.842,7.842,0,0,1,.259-2.686A5.617,5.617,0,0,1,92.806,10c.573-.02,1.148-.029,1.72,0a1.386,1.386,0,0,1,1.365,1.345,1.41,1.41,0,0,1-1.338,1.45c-.462.031-.927.005-1.39.01a2.84,2.84,0,0,0-2.933,2.854c-.055,1.387-.055,1.387,1.349,1.387.442,0,.883-.006,1.325,0a1.4,1.4,0,0,1,1.556,1.422,1.369,1.369,0,0,1-1.512,1.389c-.684.014-1.371.043-2.052-.009-.577-.044-.709.177-.68.709.043.793.011,1.589.011,2.384Z" transform="translate(-36.519 -4.308)"/>
        <path id="Trazado_165343" data-name="Trazado 165343" d="M20.032,22.366a2.747,2.747,0,0,1,2.731-2.454A2.859,2.859,0,0,1,25.6,22.452a2.751,2.751,0,0,1-2.2,3,1.634,1.634,0,0,1-1.375-.315,3.68,3.68,0,0,1-1.994-2.775" transform="translate(-8.647 -8.595)" fill="#eceaf1"/>
        <path id="Trazado_165344" data-name="Trazado 165344" d="M19.995,24.23a4.706,4.706,0,0,0,2.544,2.888,2.364,2.364,0,0,0,.826.2,2.728,2.728,0,0,1-3.37-3.09" transform="translate(-8.609 -10.459)" fill="#d7d4e2"/>
      </g>
    </g>
  </g>
</svg>
