<svg xmlns="http://www.w3.org/2000/svg" width="105" height="105" viewBox="0 0 105 105">
  <g id="_53" data-name="53" transform="translate(-9766 10861)">
    <path id="Trazado_165122" data-name="Trazado 165122" d="M52.5,0A52.5,52.5,0,1,1,0,52.5,52.5,52.5,0,0,1,52.5,0Z" transform="translate(9766 -10861)" fill="#ff9fa3"/>
    <g id="Grupo_170514" data-name="Grupo 170514" transform="translate(179.302 333.034)">
      <path id="Trazado_165380" data-name="Trazado 165380" d="M46.985,222.612a3.938,3.938,0,0,1,3.927,4.219q.011,6.413-.007,12.827a.9.9,0,0,0,.476.887,4.316,4.316,0,0,1,2.131,3.418c.24,2.912.427,5.828.627,8.743.186,2.72.377,5.439.534,8.16.087,1.528-.6,2.221-2.117,2.221q-20.386,0-40.771,0a1.865,1.865,0,0,1-2.076-2.269c.3-4.2.564-8.4.852-12.6.1-1.522.179-3.049.366-4.561a4.243,4.243,0,0,1,2.12-3.143.778.778,0,0,0,.417-.776q-.016-6.283-.007-12.565c0-2.667,1.023-3.959,3.653-4.577a5.09,5.09,0,0,1-.943-4.066,4.621,4.621,0,0,1,1.155-2.3,1.3,1.3,0,0,0,.368-.99c0-1.57-.051-3.146.054-4.71a11.266,11.266,0,0,1,10.958-10.5,21.353,21.353,0,0,1,4.635.127,6.206,6.206,0,0,1,3.691,2.19.551.551,0,0,0,.757.179,6.535,6.535,0,0,1,8.908,6.132c.025,2.312,0,4.625.006,6.937a1.073,1.073,0,0,0,.159.74,4.993,4.993,0,0,1,.127,6.279" transform="translate(9607 -11373)"/>
      <path id="Trazado_165381" data-name="Trazado 165381" d="M64.476,239.848a42.036,42.036,0,0,1-.114,4.927,9.684,9.684,0,0,1-19,.62,9.2,9.2,0,0,1-.247-1.942c-.006-2.6,0-5.191-.012-7.786,0-.463.041-.591.6-.515,4.191.568,7.9-.375,10.823-3.627.236-.263.36-.25.614-.037a10.93,10.93,0,0,0,6.275,2.406c1.058.09,1.06.075,1.06,1.141,0,1.418,0,2.835,0,4.813" transform="translate(9584.238 -11393.163)" fill="#f8c0a7"/>
      <path id="Trazado_165382" data-name="Trazado 165382" d="M62.029,213.667c0,1.068-.017,2.137.008,3.2.011.463-.124.527-.515.331a3.58,3.58,0,0,0-1.384-.335c-.391-.025-.455-.185-.464-.525-.034-1.2-.424-1.546-1.642-1.587a10.368,10.368,0,0,1-5.908-1.947,5.372,5.372,0,0,1-.457-.366,1.226,1.226,0,0,0-1.985.062,10.467,10.467,0,0,1-3.956,2.914,11.656,11.656,0,0,1-6.525.474,1.036,1.036,0,0,0-1.168.356c-.5.978-1.527.518-2.218.93-.156.093-.211-.1-.211-.23-.015-2.872-.177-5.774,1.435-8.362a9.806,9.806,0,0,1,7.575-4.838,19.192,19.192,0,0,1,5.01.022A4.914,4.914,0,0,1,53,205.921c.5.715.659.758,1.451.371a5.216,5.216,0,0,1,7.582,4.759q0,1.308,0,2.616" transform="translate(9590.352 -11375.332)" fill="#414344"/>
      <path id="Trazado_165383" data-name="Trazado 165383" d="M112.608,330.469c0-.937,0-1.874,0-2.811a4.418,4.418,0,0,1,.4-1.911,3.157,3.157,0,0,0-.2-3.227,1.064,1.064,0,0,1-.2-.662c0-2.681.008-5.361,0-8.042,0-.39.04-.559.5-.424.917.27,1.858.456,2.776.721a3.173,3.173,0,0,1,2.481,2.869c.206,2.058.317,4.126.458,6.19q.357,5.216.7,10.433c.067,1.056.039,1.064-1.017,1.065-1.787,0-3.574-.015-5.361.01-.44.006-.546-.131-.537-.55.026-1.22.009-2.44.009-3.661" transform="translate(9540.845 -11445.893)" fill="#70d5f8"/>
      <path id="Trazado_165384" data-name="Trazado 165384" d="M13.914,325.564q.28-4.175.559-8.35a3.4,3.4,0,0,1,2.42-3.089c.981-.285,1.982-.5,2.968-.768.359-.1.4.054.4.352-.007,2.747,0,5.494,0,8.241a.729.729,0,0,1-.089.437,3.267,3.267,0,0,0-.013,3.838.838.838,0,0,1,.1.5c0,2.485,0,4.971.009,7.456,0,.352-.065.492-.457.488q-2.878-.031-5.755,0c-.6.005-.743-.277-.7-.816.2-2.76.38-5.522.568-8.284" transform="translate(9604.658 -11445.88)" fill="#70d5f8"/>
      <path id="Trazado_165385" data-name="Trazado 165385" d="M99.836,276.005c0,2.138-.007,4.276.007,6.415,0,.42-.052.595-.539.437a20.829,20.829,0,0,0-2.152-.544.494.494,0,0,1-.475-.557c-.057-1.592-.728-2.215-2.329-2.216-.567,0-1.135.018-1.7,0a2.145,2.145,0,0,0-1.673.588c-.089.087-.166.235-.319.143-.1-.062-.082-.184-.06-.3a.65.65,0,0,0-.377-.757.583.583,0,0,0-.76.185c-.189.232-.33.112-.489-.018a2.784,2.784,0,0,1-1.083-1.944c-.025-.26.011-.527-.029-.783a1.326,1.326,0,0,1,.71-1.429,10.67,10.67,0,0,0,4.544-7.134c.065-.357.177-.469.53-.475a2.563,2.563,0,0,0,1.022-.182,5.236,5.236,0,0,1,2.364-.332,2.6,2.6,0,0,1,2.806,2.818c.009,2.029,0,4.058,0,6.087" transform="translate(9556.765 -11416.159)" fill="#528fda"/>
      <path id="Trazado_165386" data-name="Trazado 165386" d="M23.871,276.027c0-2.028,0-4.055,0-6.083a2.692,2.692,0,0,1,2.9-2.891,24.051,24.051,0,0,1,2.413.427c.9.047,1.107.455,1.288,1.253a10.522,10.522,0,0,0,4.852,6.771A1.1,1.1,0,0,1,35.9,276.6a3.229,3.229,0,0,1-1.064,2.693c-.206.174-.385.345-.635.015a.533.533,0,0,0-.714-.109.634.634,0,0,0-.352.645c.006.14.1.331-.093.4s-.239-.147-.359-.225c-.018-.012-.032-.03-.049-.043-.8-.646-4.016-.69-4.83-.065a1.867,1.867,0,0,0-.771,1.648c.029.5-.15.688-.625.774a17.607,17.607,0,0,0-2.025.505c-.426.131-.522.021-.519-.4.017-2.137.008-4.273.008-6.41" transform="translate(9597.893 -11416.129)" fill="#528fda"/>
      <path id="Trazado_165387" data-name="Trazado 165387" d="M55.337,311.832a8.954,8.954,0,0,0,12.4-.015l-2.616,12.994c-.8-1.52-2.092-1.755-3.578-1.754-1.463,0-2.739.214-3.586,1.754l-2.618-12.979" transform="translate(9577.658 -11444.909)" fill="#70d5f8"/>
      <path id="Trazado_165388" data-name="Trazado 165388" d="M57.436,293.247a11.339,11.339,0,0,0,8.192-.146c0,.3,0,.553,0,.8a3.979,3.979,0,0,0,1.707,3.292c.355.259.433.4.149.782a7.447,7.447,0,0,1-11.97-.031c-.128-.178-.43-.355-.036-.616a4.218,4.218,0,0,0,1.922-3.847,1.65,1.65,0,0,1,.036-.236" transform="translate(9577.692 -11432.877)" fill="#f8c0a7"/>
      <path id="Trazado_165389" data-name="Trazado 165389" d="M62.168,360.567q-2.29,0-4.58,0c-.878,0-1.13-.252-1.131-1.115q0-2.355,0-4.711c0-.861.254-1.111,1.133-1.111q4.678,0,9.356,0c.83,0,1.118.27,1.123,1.08q.016,2.388,0,4.776c-.005.81-.294,1.077-1.125,1.08-1.592,0-3.184,0-4.776,0" transform="translate(9576.938 -11471.789)" fill="#528fda"/>
      <path id="Trazado_165390" data-name="Trazado 165390" d="M102.344,311.383c0,1.658-.014,3.316.01,4.973.006.408-.11.519-.512.506-.893-.03-1.789-.024-2.683,0-.358.009-.491-.08-.489-.466.015-3.315.011-6.631.006-9.946,0-.6.265-.878.877-.858.653.022,1.309.018,1.963,0,.577-.015.836.236.832.82-.013,1.658,0,3.316,0,4.973" transform="translate(9549.799 -11440.904)" fill="#f4c74c"/>
      <path id="Trazado_165391" data-name="Trazado 165391" d="M40.022,311.385c0,1.658-.014,3.316.01,4.973.006.41-.115.517-.514.5-.893-.03-1.789-.024-2.683,0-.36.009-.489-.084-.488-.468q.021-4.973.006-9.946c0-.6.267-.877.878-.857.653.022,1.309.018,1.963,0,.578-.015.835.238.83.821-.013,1.658,0,3.316,0,4.973" transform="translate(9589.865 -11440.904)" fill="#f4c74c"/>
      <path id="Trazado_165392" data-name="Trazado 165392" d="M51.189,331.188c-.9.061-.9.061-.9-.8,0-2.311,0-4.621,0-6.932a1.278,1.278,0,0,1,.256-.84,3.665,3.665,0,0,0,.01-3.474,1.04,1.04,0,0,1-.268-.638q.012-5.261.005-10.517c.242-.041.21.129.233.243q1.436,7.1,2.874,14.2c.076.372.073.548-.42.563a1.938,1.938,0,0,0-1.792,1.769c-.09,2.129-.071,4.261,0,6.428" transform="translate(9580.905 -11442.441)" fill="#6fd5f7"/>
      <path id="Trazado_165393" data-name="Trazado 165393" d="M89.375,307.937v5.618c0,1.243,0,2.486,0,3.73a4.935,4.935,0,0,1-.421,2.241,3.026,3.026,0,0,0,.232,3.112,1.072,1.072,0,0,1,.193.666q-.005,3.7,0,7.395a.56.56,0,0,1-.826.486c-.146-.075-.07-.165-.062-.265.167-2.024.073-4.051.054-6.076a2.036,2.036,0,0,0-1.912-1.9c-.245-.019-.46.049-.375-.365q1.468-7.166,2.9-14.338c.02-.1.06-.2.09-.3l.129-.013" transform="translate(9557.794 -11442.415)" fill="#70d5f8"/>
      <path id="Trazado_165394" data-name="Trazado 165394" d="M36.352,354.973c0-1.134.021-2.268-.01-3.4-.013-.443.135-.551.555-.536.893.03,1.788.023,2.681,0,.336-.008.45.082.447.434q-.022,3.5,0,7c0,.35-.108.444-.446.436-.916-.021-1.833-.032-2.747,0-.44.017-.494-.167-.487-.536.02-1.134.007-2.268.007-3.4" transform="translate(9589.871 -11470.122)" fill="#f4c74c"/>
      <path id="Trazado_165395" data-name="Trazado 165395" d="M102.347,355.042c0,1.134-.015,2.268.009,3.4.008.379-.119.477-.481.468-.915-.023-1.832-.019-2.747,0-.33.006-.456-.079-.454-.434q.021-3.5,0-7c0-.356.125-.44.454-.434.916.018,1.832.021,2.747,0,.363-.009.487.09.48.468-.023,1.177-.009,2.355-.009,3.532" transform="translate(9549.797 -11470.126)" fill="#f4c74c"/>
      <path id="Trazado_165396" data-name="Trazado 165396" d="M103.032,248.154c0-1.067.009-2.134-.005-3.2,0-.33.052-.446.434-.4a3.63,3.63,0,0,1,3.238,3.507,3.685,3.685,0,0,1-3.076,3.737c-.435.071-.622,0-.6-.509.041-1.044.012-2.09.012-3.136" transform="translate(9547.004 -11401.659)" fill="#f8c0a7"/>
      <path id="Trazado_165397" data-name="Trazado 165397" d="M34.85,248.145c0,1.067-.025,2.134.012,3.2.015.454-.166.494-.532.446a3.659,3.659,0,0,1,.168-7.266c.418-.039.351.191.351.421q0,1.6,0,3.2" transform="translate(9593.188 -11401.644)" fill="#f8c0a7"/>
      <path id="Trazado_165398" data-name="Trazado 165398" d="M36.918,343.144c-.545,0-1.09,0-1.634,0a.883.883,0,0,1-.444-.059c-.683-.452-.342-1.151-.352-1.742-.008-.449.381-.563.8-.558,1.111.014,2.223.019,3.334,0,.591-.01.808.25.815.827.017,1.536.032,1.535-1.475,1.535H36.918" transform="translate(9591.111 -11463.53)" fill="#f4c74c"/>
      <path id="Trazado_165399" data-name="Trazado 165399" d="M99.337,343.143c-.567,0-1.133-.011-1.7,0s-.8-.262-.791-.8c0-.022,0-.044,0-.065-.04-1.463,0-1.5,1.457-1.5.893,0,1.787.016,2.68-.006.57-.013.835.2.845.8.028,1.566.043,1.566-1.51,1.566h-.981" transform="translate(9550.979 -11463.53)" fill="#f4c74c"/>
      <path id="Trazado_165400" data-name="Trazado 165400" d="M66.041,348.06a1.472,1.472,0,0,1,1.312-1.027,20.269,20.269,0,0,1,2.089-.006,1.506,1.506,0,0,1,.619.181c.31.16.694.4.624.742-.049.241-.495.1-.76.1-1.262.014-2.525.006-3.883.006" transform="translate(9570.776 -11467.53)" fill="#518fd9"/>
      <path id="Trazado_165401" data-name="Trazado 165401" d="M66.028,273.317a7.85,7.85,0,0,1-3.1-.657c-.387-.18-.7-.421-.517-.9.2-.5.594-.5,1.029-.313a6.4,6.4,0,0,0,5.244-.011c.407-.175.795-.17.983.293s-.068.74-.475.923a8.024,8.024,0,0,1-3.165.66" transform="translate(9573.146 -11418.883)" fill="#010100"/>
      <path id="Trazado_165402" data-name="Trazado 165402" d="M81.63,250.249a2.355,2.355,0,0,1,2.359,2.228c0,.4-.134.7-.543.764a.626.626,0,0,1-.754-.627c-.072-.636-.4-1.033-1.031-1.042-.681-.01-1,.438-1.079,1.077a.6.6,0,0,1-.709.6c-.444-.052-.6-.381-.585-.8a2.382,2.382,0,0,1,2.341-2.193" transform="translate(9562.261 -11405.327)" fill="#010101"/>
      <path id="Trazado_165403" data-name="Trazado 165403" d="M55.275,250.249a2.356,2.356,0,0,1,2.316,2.205c.01.429-.133.744-.583.792a.616.616,0,0,1-.708-.609c-.076-.662-.4-1.073-1.077-1.065-.647.009-.953.444-1.033,1.054-.059.444-.317.686-.753.611s-.575-.42-.541-.836a2.383,2.383,0,0,1,2.38-2.152" transform="translate(9579.231 -11405.327)" fill="#010101"/>
      <path id="Trazado_165404" data-name="Trazado 165404" d="M67.015,354.6a3.123,3.123,0,1,1,.024,6.246,3.123,3.123,0,1,1-.024-6.246" transform="translate(9572.165 -11472.413)"/>
      <path id="Trazado_165405" data-name="Trazado 165405" d="M59.467,355.029c.342,0,.719-.059.917.319a.576.576,0,0,1-.147.811,1.558,1.558,0,0,1-1.542.036.548.548,0,0,1-.235-.78c.209-.458.623-.382,1.007-.387" transform="translate(9575.696 -11472.688)" fill="#010203"/>
      <path id="Trazado_165406" data-name="Trazado 165406" d="M71.206,360.1a1.793,1.793,0,0,1-1.84,1.792,1.816,1.816,0,1,1,.049-3.631,1.793,1.793,0,0,1,1.791,1.839" transform="translate(9569.803 -11474.768)" fill="#6fd5f8"/>
    </g>
  </g>
</svg>
