<svg xmlns="http://www.w3.org/2000/svg" xmlns:xlink="http://www.w3.org/1999/xlink" width="105" height="105" viewBox="0 0 105 105">
  <defs>
    <clipPath id="clip-path">
      <rect id="Rectángulo_43093" data-name="Rectángulo 43093" width="56.808" height="56.803" fill="none"/>
    </clipPath>
  </defs>
  <g id="_54" data-name="54" transform="translate(-10081 10861)">
    <path id="Trazado_165123" data-name="Trazado 165123" d="M52.5,0A52.5,52.5,0,1,1,0,52.5,52.5,52.5,0,0,1,52.5,0Z" transform="translate(10081 -10861)" fill="#ff9fa3"/>
    <g id="Grupo_170524" data-name="Grupo 170524" transform="translate(10105 -10837)">
      <g id="Grupo_170523" data-name="Grupo 170523" clip-path="url(#clip-path)">
        <path id="Trazado_165452" data-name="Trazado 165452" d="M56.8,13.275a.923.923,0,0,0-1.035-.962c-.77-.011-1.54-.027-2.308.008-.384.018-.453-.114-.444-.464.024-.986-.023-1.973.016-2.958A4.313,4.313,0,0,0,51.65,5.567,11.28,11.28,0,0,0,47.937,3.2C43.057,1.154,37.893.478,32.669.135A68.816,68.816,0,0,0,22.8.23,52.213,52.213,0,0,0,11.767,2.15,16.99,16.99,0,0,0,5.65,5.114,4.566,4.566,0,0,0,3.778,9.058c.055.943,0,1.893.018,2.839.008.337-.091.433-.424.422-.729-.025-1.459-.01-2.189-.007C.335,12.315,0,12.644,0,13.491q0,2.189,0,4.378a28.228,28.228,0,0,0,3.56,13.853,1.754,1.754,0,0,1,.232.891c-.01,2.6-.005,5.206-.005,7.809,0,2.5.026,5.009-.011,7.513a4.4,4.4,0,0,0,1.358,3.282A10.264,10.264,0,0,0,8.094,53.24a38.193,38.193,0,0,0,12.067,3.08,68.8,68.8,0,0,0,12.1.37,54.769,54.769,0,0,0,12.746-2.026,17.117,17.117,0,0,0,6.123-2.953,4.814,4.814,0,0,0,1.9-3.992c-.052-5.009-.015-10.018-.026-15.026a2.1,2.1,0,0,1,.278-1.058,28.5,28.5,0,0,0,3.188-9.387,61.356,61.356,0,0,0,.32-8.973M3.788,26.908v.631a21.822,21.822,0,0,1-1.539-5.277,46.6,46.6,0,0,1-.362-7.713c0-.3.1-.344.371-.353,1.529-.052,1.529-.06,1.529,1.433Zm50.07-1.589c-.229.747-.48,1.485-.721,2.228l-.119-.005q0-6.5-.006-12.99c0-.294.1-.346.369-.356,1.531-.054,1.508-.061,1.536,1.49a30.72,30.72,0,0,1-1.059,9.633" transform="translate(0 0)"/>
        <path id="Trazado_165453" data-name="Trazado 165453" d="M37.325,55.044c2.99-.145,5.047-1.687,5.729-4.3a6.1,6.1,0,0,0,.186-1.578q-.009-2.691,0-5.382a2.844,2.844,0,1,1,5.682,0,12.482,12.482,0,0,0,.209,3.29,5.674,5.674,0,0,0,11.144-1.4c.014-.69-.008-1.38.008-2.07a2.843,2.843,0,0,1,2.747-2.782,4.739,4.739,0,0,0,4.823-5.013c0-.828.013-1.656-.006-2.484-.007-.315.057-.484.4-.6a16.907,16.907,0,0,0,5.183-2.58c.154.07.105.183.105.269q0,7.687,0,15.376c0,.078-.012.157-.018.235a5.318,5.318,0,0,1-1.027,1.778A26.8,26.8,0,0,1,62.7,56.178c-.543.277-1.109.512-1.666.762A1.754,1.754,0,0,1,60,57.107a5.048,5.048,0,0,0-.827-.022c-5.479,0-10.958-.053-16.436.036a7.71,7.71,0,0,1-3.866-1c-.365-.194-.74-.372-1.1-.584-.195-.116-.442-.2-.447-.5" transform="translate(-22.409 -18.105)" fill="#fcb52f"/>
        <path id="Trazado_165454" data-name="Trazado 165454" d="M28.418,45.623c0-2.662.008-5.325-.008-7.987,0-.428.034-.583.529-.432a51.605,51.605,0,0,0,10.973,1.924,71.461,71.461,0,0,0,11.64-.036,51.978,51.978,0,0,0,8.508-1.354c.415-.105.594-.092.56.42-.048.727,0,1.459-.016,2.188a2.849,2.849,0,0,1-2.749,2.785,4.747,4.747,0,0,0-4.826,5.017,11.221,11.221,0,0,1-.093,2.417,3.782,3.782,0,0,1-7.478-.723,17.212,17.212,0,0,0-.1-2.891,4.724,4.724,0,0,0-9.36.8c-.026,1.873,0,3.747-.008,5.62a3.79,3.79,0,1,1-7.572,0q-.005-3.875,0-7.751" transform="translate(-17.056 -22.302)" fill="#fe421d"/>
        <path id="Trazado_165455" data-name="Trazado 165455" d="M30.4,17.644a37.186,37.186,0,0,1-13.019-3.089,8.089,8.089,0,0,1-2.332-1.589,2.014,2.014,0,0,1,.022-3.277A10.258,10.258,0,0,1,18.592,7.58,39.4,39.4,0,0,1,28.676,5.21a69.243,69.243,0,0,1,12.577-.353A50.039,50.039,0,0,1,53.678,6.986c.224.072.441.166.662.249.166.081.189.235.072.331-.532.437-.956,1.055-1.741,1.092A35.636,35.636,0,0,0,46.189,7.34c-1.82-.206-3.646-.332-5.475-.446-1.814-.112-3.626-.13-5.436-.084A62.708,62.708,0,0,0,23.711,8a14.425,14.425,0,0,0-3.85,1.318,5.013,5.013,0,0,0-.974.666,1.7,1.7,0,0,0-.118,2.646,4.691,4.691,0,0,0,1.677,1.083,27.377,27.377,0,0,0,6.716,1.594c2.012.265,4.032.429,6.062.518,1.28.056,2.559.08,3.84.1a.888.888,0,0,1,.565.133c.081.256-.135.311-.282.35a29.81,29.81,0,0,1-6.893,1.258c-.078,0,.023-.012-.055-.02" transform="translate(-8.534 -2.835)" fill="#f9dab6"/>
        <path id="Trazado_165456" data-name="Trazado 165456" d="M23.481,78.9a20.756,20.756,0,0,0,3.778,1.909c.206.088.494-.029.745-.029,5.975,0,11.951-.036,17.925.029a6.15,6.15,0,0,0,2.844-.936,25.6,25.6,0,0,0,4.847-3.116A27.556,27.556,0,0,0,59.3,70.424c.119-.18.245-.354.368-.531q0,1.659,0,3.319a5.693,5.693,0,0,1-1.306,1.8,28.524,28.524,0,0,1-11.11,7.758,1.3,1.3,0,0,0-.817.827c-3.068.006-6.136.018-9.2.018-3.245,0-6.49-.012-9.735-.018-.141-.533-.546-.722-1.027-.917a27.528,27.528,0,0,1-8.953-5.7A34.72,34.72,0,0,1,14.961,74.3a3.36,3.36,0,0,1-.694-1.085q0-1.659,0-3.318c.309.028.387.306.519.507A30.266,30.266,0,0,0,18,74.465c.053.057.1.123.183.133a5.717,5.717,0,0,0,4.145,4.1c.376.1.771.137,1.156.2" transform="translate(-8.565 -41.961)" fill="#f19606"/>
        <path id="Trazado_165457" data-name="Trazado 165457" d="M18.15,50.578c-.5.033-.644-.42-.886-.689a34.341,34.341,0,0,1-3.029-4.015q-.01-6.89-.019-13.779c0-.7,0-1.406,0-2.21A14.362,14.362,0,0,0,17.754,31.9c.349.14.245.41.245.645q.007,7.777,0,15.555a12.522,12.522,0,0,0,.148,2.473" transform="translate(-8.534 -17.941)" fill="#fcb52f"/>
        <path id="Trazado_165458" data-name="Trazado 165458" d="M54.711,21.419a57.887,57.887,0,0,0,6.821-1.353,3.066,3.066,0,0,0,.425-.182.534.534,0,0,1,.48-.175c1.694-.011,3.384-.118,5.07-.255a37.893,37.893,0,0,0,9.686-1.744,6.744,6.744,0,0,0,1.832-.944,1.865,1.865,0,0,0-.06-3.308,12.583,12.583,0,0,0-1.4-.758c-.181-.1-.432-.123-.465-.4.526-.116,1.517-.941,1.556-1.295a13.1,13.1,0,0,1,4.021,2.052,4.83,4.83,0,0,1,.716.7,1.9,1.9,0,0,1-.076,2.8,8.521,8.521,0,0,1-2.758,1.893,32.969,32.969,0,0,1-9.232,2.569,66.691,66.691,0,0,1-12.2.7,33.023,33.023,0,0,1-4.413-.309" transform="translate(-32.846 -6.61)" fill="#f3bf8d"/>
        <path id="Trazado_165459" data-name="Trazado 165459" d="M59.549,87.688A27.405,27.405,0,0,1,48.7,96.335a1.874,1.874,0,0,0-1.394,2.233c.122,1.041-.256,1.339-1.293,1.339H27.853c-1.075,0-1.345-.277-1.346-1.373a7.253,7.253,0,0,1,.009-1c.065-.462-.155-.645-.549-.806a27.718,27.718,0,0,1-8.176-5.214A30.312,30.312,0,0,1,14.2,87.567c0,4.406.013,8.645-.011,12.884a2.729,2.729,0,0,0,.89,2.1,10.563,10.563,0,0,0,3.535,2.092,44.857,44.857,0,0,0,13.738,2.695,67.062,67.062,0,0,0,15.328-.693,32.844,32.844,0,0,0,8.33-2.335,9.136,9.136,0,0,0,2.855-1.86,2.591,2.591,0,0,0,.786-1.905c-.017-4.121-.007-8.243-.013-12.364,0-.157.089-.346-.09-.492" transform="translate(-8.518 -52.572)" fill="#fcb52f"/>
        <path id="Trazado_165460" data-name="Trazado 165460" d="M57.863,110.842c-2.6.008-5.2.012-7.8.028-.274,0-.362-.071-.376-.359-.077-1.539-.087-1.541,1.437-1.539q4.547.008,9.095.02a.265.265,0,0,1-.107.309,8.717,8.717,0,0,1-2.253,1.541" transform="translate(-29.817 -65.423)" fill="#6cbac6"/>
        <path id="Trazado_165461" data-name="Trazado 165461" d="M14.233,78.2a28.957,28.957,0,0,0,2.672,3.048,26.821,26.821,0,0,0,3.5,2.968,27.67,27.67,0,0,0,6.537,3.474.71.71,0,0,1,.528.9c-.237.038-.521.083-.624.29-.265.533-.586.308-.939.143A26.575,26.575,0,0,1,14.426,78.906a.849.849,0,0,1-.193-.71" transform="translate(-8.531 -46.946)" fill="#fcb52f"/>
        <path id="Trazado_165462" data-name="Trazado 165462" d="M94.747,88.583a.7.7,0,0,1,.538-.869,27.736,27.736,0,0,0,7.878-4.535A31.823,31.823,0,0,0,107.98,78.2a.807.807,0,0,1-.161.661A26.518,26.518,0,0,1,96.095,89.112c-.278.126-.468.187-.643-.151a.885.885,0,0,0-.7-.378" transform="translate(-56.875 -46.947)" fill="#fcb52f"/>
        <path id="Trazado_165463" data-name="Trazado 165463" d="M70.179,110.836c.679-.508,1.359-1.014,2.034-1.527a3.406,3.406,0,0,0,.327-.323c2.047-.007,4.095-.01,6.142-.024.269,0,.367.068.384.359.091,1.539.1,1.541-1.446,1.538q-3.72-.008-7.44-.023" transform="translate(-42.133 -65.417)" fill="#56949e"/>
        <path id="Trazado_165464" data-name="Trazado 165464" d="M58.471,11.376a13.69,13.69,0,0,1,1.928.994c1.548,1.1,1.56,2.622-.014,3.69a12.722,12.722,0,0,1-4.619,1.69A63.08,63.08,0,0,1,44.1,18.929c-.255.006-.511.018-.766.027-2.305-.021-4.61-.06-6.908-.255a38.894,38.894,0,0,1-9.843-1.776,6.376,6.376,0,0,1-2.013-1.089,1.936,1.936,0,0,1,.022-3.259,9.147,9.147,0,0,1,3.466-1.569,49.479,49.479,0,0,1,10.1-1.413,79.337,79.337,0,0,1,12.222.244,37.6,37.6,0,0,1,8.1,1.538" transform="translate(-14.221 -5.682)"/>
        <path id="Trazado_165465" data-name="Trazado 165465" d="M52.812,19.539a59.4,59.4,0,0,1-8.024.358A58.589,58.589,0,0,1,32.179,18.6a11.282,11.282,0,0,1-2.993-1.06c-.217-.121-.551-.215-.553-.474,0-.3.343-.4.579-.524a12.731,12.731,0,0,1,3.409-1.12A66.184,66.184,0,0,1,48.848,14.3a53.194,53.194,0,0,1,10.129,1.22c.191.045.38.1.569.153.035.279-.2.364-.367.476a48.643,48.643,0,0,1-5.754,3.2c-.2.095-.42.094-.613.193" transform="translate(-17.19 -8.541)" fill="#6cbac6"/>
        <path id="Trazado_165466" data-name="Trazado 165466" d="M89.135,21.709c.936-.484,1.886-.944,2.805-1.457a27.741,27.741,0,0,0,3.929-2.411,10.5,10.5,0,0,1,2.329.8c.272.134.673.249.672.574,0,.285-.382.418-.639.552a12.7,12.7,0,0,1-3.111,1.056,36.115,36.115,0,0,1-5.986.886" transform="translate(-53.513 -10.711)" fill="#56949e"/>
      </g>
    </g>
  </g>
</svg>
