<svg xmlns="http://www.w3.org/2000/svg" width="105" height="105" viewBox="0 0 105 105">
  <g id="_55" data-name="55" transform="translate(-10396 10861)">
    <path id="Trazado_165124" data-name="Trazado 165124" d="M52.5,0A52.5,52.5,0,1,1,0,52.5,52.5,52.5,0,0,1,52.5,0Z" transform="translate(10396 -10861)" fill="#ff9fa3"/>
    <g id="Grupo_170516" data-name="Grupo 170516" transform="translate(663.535 536)">
      <path id="Trazado_165345" data-name="Trazado 165345" d="M199.055,36.736c.609.066.8.453.8,1.01-.005,1.774,0,3.548,0,5.321,0,.761-.286,1.042-1.057,1.045-1.979.007-3.958,0-5.937,0h-.609c-.005.062-.024.112-.008.127,1.693,1.582,2.271,3.665,2.642,5.846.156.912.173.91,1.088.91h9.97c.941,0,1.167.248,1.194,1.192a5.08,5.08,0,0,1-.8,3.3,4.35,4.35,0,0,1-3.684,1.882q-5.91.009-11.819,0-15.88,0-31.759,0A4.394,4.394,0,0,1,154.6,53.9a7.324,7.324,0,0,1-.073-2.175c.037-.492.393-.725,1.016-.726q3.865,0,7.73,0c.971,0,1.942-.01,2.913.006.3.005.426-.074.471-.388.067-.473.113-.985.658-1.209.952-.129,1.364.282,1.217,1.224-.054.35-.126.7-.208,1.042-.212.885-.534,1.154-1.441,1.163-1.342.013-2.685,0-4.028,0-.837,0-.856.021-.859.833,0,.429.012.858,0,1.286-.014.406.16.571.563.566.783-.009,1.566,0,2.35,0,1.548,0,3.1.006,4.643,0,1.093-.005,1.469-.373,1.511-1.479.026-.671-.006-1.343.013-2.014s.368-1.115.9-1.149a1.115,1.115,0,0,1,1.078,1.077c.064.612,0,1.23.036,1.845a5.13,5.13,0,0,1-.1,1.223c-.057.333.078.495.417.491.13,0,.261,0,.391,0h14.091c.824,0,.819-.008.719-.811a16.69,16.69,0,0,1-.033-2.68,1.42,1.42,0,0,1,.141-.538,1,1,0,0,1,1.031-.606.975.975,0,0,1,.808.88c.057.65.018,1.3.022,1.956a3.837,3.837,0,0,0,.114,1.107,1.078,1.078,0,0,0,1.067.677c2.462.031,4.924.013,7.386.013.358,0,.5-.175.509-.512.014-.578,0-1.156.006-1.734,0-.434-.3-.448-.616-.448-1.53,0-3.059.009-4.588,0a1.137,1.137,0,0,1-1.086-1.024c-.207-.986-.425-1.969-.625-2.956a6.139,6.139,0,0,0-6.1-4.987,1.05,1.05,0,0,1-.168,0c-.7-.114-1.054.13-1.362.836a4.664,4.664,0,0,1-7.591,1.5,4.164,4.164,0,0,1-1.1-1.735.734.734,0,0,0-.9-.6,6.143,6.143,0,0,0-5.1,1.94,11.005,11.005,0,0,0-1.117,1.6c-.351.53-.734.628-1.206.35-.534-.46-.6-.752-.3-1.358a8.44,8.44,0,0,1,1.686-2.248c-.244-.012-.4-.025-.557-.025q-2.912,0-5.824,0c-1.134,0-1.32-.19-1.32-1.345q0-5.573.006-11.145a1.06,1.06,0,0,0-.366-.863A5.492,5.492,0,0,1,159.8,25a2.852,2.852,0,0,1,1.617-1.9.576.576,0,0,0,.378-.632c0-2.109-.037-4.22.024-6.328A16.954,16.954,0,0,1,175.517.311,5.912,5.912,0,0,0,177.067,0h.785a.857.857,0,0,0,.672,0h4.595a.857.857,0,0,0,.672,0h.672c.754.147,1.511.277,2.261.444a16.981,16.981,0,0,1,12.888,13.636,32.744,32.744,0,0,1,.238,5.19c.01,1.1.005,2.2,0,3.3,0,.219.021.38.26.483a3.184,3.184,0,0,1,1.927,2.8,5.544,5.544,0,0,1-1.8,4.893,1.062,1.062,0,0,0-.388.911c.029.727-.023,1.457.017,2.182a1.034,1.034,0,0,1-.825,1.237.892.892,0,0,1-1-.8,7.943,7.943,0,0,1-.07-1.281c-.021-.248.148-.6-.247-.7a.855.855,0,0,0-.934.54,13.328,13.328,0,0,1-.7,1.645,12.171,12.171,0,0,1-9.869,6.811,1.508,1.508,0,0,0-.222.028c-.175.048-.413.056-.4.3.012.263.259.243.432.234a10.464,10.464,0,0,1,3.372.411,2.5,2.5,0,0,0,.668.044q3.58,0,7.161,0c.716,0,.746-.033.748-.766,0-1.175,0-2.35,0-3.525a1.566,1.566,0,0,1,.258-1.011c.205-.26.457-.452.819-.273" transform="translate(9604.541 -11373)"/>
      <path id="Trazado_165346" data-name="Trazado 165346" d="M228.918,0a.509.509,0,0,1-.672,0Z" transform="translate(9559.414 -11373)" fill="#212121"/>
      <path id="Trazado_165347" data-name="Trazado 165347" d="M215.35,0a.509.509,0,0,1-.672,0Z" transform="translate(9567.715 -11373)" fill="#212121"/>
      <path id="Trazado_165348" data-name="Trazado 165348" d="M184.518,122.631c-.012-.6-.02-1.191-.039-1.786-.02-.613-.337-.99-.828-1-.508-.012-.842.38-.849,1.026-.009.765.009,1.531-.005,2.3a1.218,1.218,0,0,1-1.385,1.37c-2.482,0-4.964-.006-7.446.01-.374,0-.529-.071-.507-.483a17.079,17.079,0,0,0,0-1.958c-.028-.453.089-.606.57-.6,1.53.032,3.061.014,4.591.011.739,0,.952-.175,1.108-.9.078-.364.151-.729.225-1.095.191-.955-.079-1.291-1.029-1.28a.7.7,0,0,0,.587-.739,5.125,5.125,0,0,1,.2-.92.991.991,0,0,0,1.243-.644,6.255,6.255,0,0,1,6.156-3.395c.135.209-.01.356-.124.5a8.353,8.353,0,0,0-1.614,4.294c-.219,1.589-.366,3.187-.569,4.778-.025.2.047.471-.279.514" transform="translate(9592.936 -11441.843)" fill="#c5cfd9"/>
      <path id="Trazado_165349" data-name="Trazado 165349" d="M247.707,87.236c-.688.126-.9.37-.9,1.108-.007,1.345-.016,2.69.006,4.034.006.414-.076.59-.547.586-2.633-.023-5.267-.01-7.9-.013a1.715,1.715,0,0,1-.5-.06,9.932,9.932,0,0,0-3.318-.385c-.245.009-.519.086-.542-.349s.227-.466.51-.486a11.408,11.408,0,0,0,2.952-.579,12.119,12.119,0,0,0,7.847-7.928,1.574,1.574,0,0,1,1.349-.6c.17.065.132.209.133.33.006.5,0,1.009.005,1.513.012.711.192.943.882,1.17q.01.829.019,1.658" transform="translate(9555.889 -11423.5)" fill="#544f57"/>
      <path id="Trazado_165350" data-name="Trazado 165350" d="M270.77,7.981a.824.824,0,0,1-.823.816c-.5.022-1.007.022-1.51,0-.274-.01-.357.088-.347.353.017.466.016.933,0,1.4-.019.6-.36.95-.881.932-.5-.018-.783-.352-.8-.946a9.261,9.261,0,0,1,.006-1.118c.048-.47-.068-.689-.595-.623A7.6,7.6,0,0,1,264.6,8.8a.831.831,0,1,1-.066-1.66,13.505,13.505,0,0,1,1.51-.01c.292.01.393-.083.379-.379-.023-.465-.015-.933,0-1.4a.825.825,0,0,1,.8-.9.855.855,0,0,1,.876.89,9.7,9.7,0,0,1,0,1.23c-.033.415.065.607.531.557a7.723,7.723,0,0,1,1.285,0,.861.861,0,0,1,.867.847" transform="translate(9537.703 -11375.727)"/>
      <path id="Trazado_165351" data-name="Trazado 165351" d="M280.687,97.995c-1.1,0-1.1,0-1.1,1.11a7,7,0,0,1-.016.783.8.8,0,0,1-.85.783.784.784,0,0,1-.8-.823c-.024-.484-.027-.971,0-1.455.016-.329-.111-.417-.422-.4-.465.022-.933.018-1.4,0a.8.8,0,0,1-.859-.827.82.82,0,0,1,.857-.841,8.179,8.179,0,0,1,1.286,0c.475.05.568-.153.537-.569a10.412,10.412,0,0,1,0-1.231.833.833,0,1,1,1.665-.026,10.859,10.859,0,0,1,0,1.4c-.026.364.111.445.443.424.427-.027.859-.017,1.287,0,.6.019.961.363.942.875s-.352.783-.948.8c-.205.007-.411,0-.616,0" transform="translate(9530.667 -11430.289)"/>
      <path id="Trazado_165352" data-name="Trazado 165352" d="M154.816,43.826c0,1.034,0,1.034,1.054,1.034.28,0,.561-.016.839.009a.818.818,0,0,1,.78.855.806.806,0,0,1-.821.811c-.484.019-.971.025-1.455,0-.328-.018-.417.1-.4.412.022.465.019.933,0,1.4a.833.833,0,1,1-1.665.022c-.028-.5-.019-1.008-.005-1.511.006-.24-.069-.328-.316-.319-.484.016-.97.014-1.455,0a.828.828,0,0,1-.9-.851.836.836,0,0,1,.88-.823c.485-.017.971-.021,1.455,0,.28.013.351-.085.34-.35-.02-.447-.015-.9,0-1.344.016-.609.342-.987.833-.993s.824.374.844.975c.007.224,0,.448,0,.672" transform="translate(9607 -11398.806)"/>
      <path id="Trazado_165353" data-name="Trazado 165353" d="M201.108,43.487c1.874-.476,3.77-.868,5.619-1.446a32.872,32.872,0,0,0,9.085-4.072c.816-.564.811-.57,1.351.24a15.6,15.6,0,0,0,5.225,5.2,4.216,4.216,0,0,0,.956.453c.538.14.634.448.627.964-.031,2.314-.01,4.629-.014,6.943a10.512,10.512,0,0,1-8.875,10.614,7.939,7.939,0,0,1-.834.064c-1.413.09-2.827.015-4.24.039a2.567,2.567,0,0,0-.391,0c-1.794.314-3.182-.537-4.462-1.608a11.33,11.33,0,0,1-3.855-6.138.99.99,0,0,1-.042-.549c.1-.2.305-.256.475-.361.951-.588.934-1.463-.033-2.038-.245-.146-.582-.173-.7-.5a.846.846,0,0,1,.049-.61c.18-.2.405-.14.627-.116a3.853,3.853,0,0,0,3.892-1.891,1.2,1.2,0,0,0,.2-.575.649.649,0,0,0-.381-.736.66.66,0,0,0-.8.233c-.16.184-.26.409-.4.606a2.535,2.535,0,0,1-2.69.908c-.262-.086-.482-.207-.535-.51-.073-1.535-.025-3.07-.027-4.6a.752.752,0,0,1,.17-.516" transform="translate(9576.129 -11395.985)" fill="#fecabd"/>
      <path id="Trazado_165354" data-name="Trazado 165354" d="M208.273,4.306a55.673,55.673,0,0,1,6.544.112,14.743,14.743,0,0,1,7.705,3.312,15.1,15.1,0,0,1,5.295,8.661,11.546,11.546,0,0,1,.3,2.491c0,2.017,0,4.033.006,6.05a.718.718,0,0,1-.751.731c-.252-.018-.163-.213-.164-.336-.01-.691-.005-1.382-.005-2.073a.9.9,0,0,0-.674-.978c-2.563-.7-4.273-2.495-5.805-4.515a17.307,17.307,0,0,1-1.433-2.269c-.443-.823-.927-.9-1.635-.269a21.054,21.054,0,0,1-6.378,3.646,52.433,52.433,0,0,1-7.321,2.219,1.473,1.473,0,0,1-.279.014,3.3,3.3,0,0,1-.134-1.859c.119-1.521.09-3.05.308-4.566a24.913,24.913,0,0,1,2.332-8.239,12.984,12.984,0,0,1,.934-1.458,1.409,1.409,0,0,1,1.153-.672" transform="translate(9574.566 -11375.609)" fill="#544f57"/>
      <path id="Trazado_165355" data-name="Trazado 165355" d="M201.552,122.589a12.922,12.922,0,0,0,.341-2.389c.277-1.973.3-3.993,1.127-5.86a4.765,4.765,0,0,1,.9-1.457.532.532,0,0,0,.215-.375c.576-.148.849.016,1.049.649a4.525,4.525,0,0,0,8.579-.1c.151-.489.362-.586.841-.6a6.81,6.81,0,0,1,4.789,1.512,7.086,7.086,0,0,1,2.328,4.517c.12.716.306,1.421.43,2.136a.93.93,0,0,0,.809.865c1.6.083,3.206.016,4.809.036.623.008.623,0,.624.641,0,.41-.015.821,0,1.231.015.315-.139.439-.42.472a4.185,4.185,0,0,1-.5.022q-3.722,0-7.444,0a1.272,1.272,0,0,1-.856-.185,12.206,12.206,0,0,1-.1-2.616c-.027-.866-.26-1.27-.814-1.289-.582-.019-.894.41-.867,1.292a11.594,11.594,0,0,0,.172,3.168c.05.163.009.247-.175.233-.074-.006-.149,0-.224,0h-15.5c-.111,0-.221-.012-.382-.022a6.742,6.742,0,0,0,.255-1.883" transform="translate(9575.901 -11441.8)" fill="#e6ebf0"/>
      <path id="Trazado_165356" data-name="Trazado 165356" d="M192.455,4.371c-1.025.337-1.416,1.271-1.878,2.093a20.4,20.4,0,0,0-2.147,6.768,34.749,34.749,0,0,0-.481,5.148c-.016.926-.075,1.856-.086,2.786a28.675,28.675,0,0,1-3.92.777,34.1,34.1,0,0,1-4.489.463.845.845,0,0,0-.884.938c-.013.634.008,1.269-.011,1.9,0,.162.137.5-.188.445-.258-.045-.682.005-.717-.455,0-.056,0-.112,0-.168,0-2.22-.087-4.445.038-6.658a14.4,14.4,0,0,1,3.216-8.245,15.158,15.158,0,0,1,7.066-5,14.326,14.326,0,0,1,4.483-.8" transform="translate(9590.385 -11375.674)" fill="#454045"/>
      <path id="Trazado_165357" data-name="Trazado 165357" d="M191.214,63.468a11.269,11.269,0,0,0,5.2,7.538,4.686,4.686,0,0,0,2.844.76c1.621-.057,3.246,0,4.869,0a2.579,2.579,0,0,1-1,.083c-2.689,0-5.379.01-8.068-.008A10.494,10.494,0,0,1,184.552,63.1a9.291,9.291,0,0,1-.157-1.669c-.017-2.428-.009-4.856-.007-7.284,0-.208-.082-.453.284-.476,2.125-.136,4.215-.533,6.314-.861q0,2.64,0,5.281c-.48.12-.613-.322-.867-.552a4.888,4.888,0,0,1-.4-.6.665.665,0,0,0-.927-.238.672.672,0,0,0-.259.929,3.732,3.732,0,0,0,1.765,1.87c.248.123.593.132.7.474l-.006.691c-.242.21-.526.132-.8.114a3.265,3.265,0,0,0-1.978.44.982.982,0,0,0-.005,1.84,3.462,3.462,0,0,0,2.362.435c.215-.033.429-.144.651-.026" transform="translate(9586.251 -11405.311)" fill="#e9ab9c"/>
      <path id="Trazado_165358" data-name="Trazado 165358" d="M188.127,92.606a12.845,12.845,0,0,1-2.674.442c-2.405-.042-4.812-.025-7.217,0-.447,0-.567-.13-.564-.569q.026-4.672,0-9.343c0-.418.075-.5.539-.451.7.077.9.455,1.128,1.046a12.008,12.008,0,0,0,8.413,7.659.535.535,0,0,1,.137.09c.247.342.12.761.235,1.13" transform="translate(9590.355 -11423.576)" fill="#454045"/>
      <path id="Trazado_165359" data-name="Trazado 165359" d="M218.32,110.579a2.827,2.827,0,0,1-3.393-2.533c-.031-.5.005-1.009-.021-1.511-.016-.307.1-.372.387-.37q2.492.017,4.984,0c.276,0,.422.052.389.365-.028.258-.019.521-.027.781a.942.942,0,0,1-.691.157c-.877,0-1.754,0-2.631,0-.612.006-.722.131-.628.743a2.824,2.824,0,0,0,1.633,2.363" transform="translate(9567.576 -11437.951)" fill="#e9ab9c"/>
      <path id="Trazado_165360" data-name="Trazado 165360" d="M220.814,112.364a1.093,1.093,0,0,1-1-.479,3.826,3.826,0,0,1-.831-2.2c-.03-.451.1-.618.58-.6,1.188.034,2.378.012,3.568.013a2.836,2.836,0,0,1-2.318,3.267" transform="translate(9565.082 -11439.737)" fill="#fecabd"/>
      <path id="Trazado_165361" data-name="Trazado 165361" d="M175.122,69a3.963,3.963,0,0,1-3.084-5.076,1.548,1.548,0,0,1,2.95.371,2.929,2.929,0,0,0-1.757-.1c-.578.184-.875.584-.75,1.059.131.5.545.71,1.148.588a1.062,1.062,0,0,1,1.392,1.092,14.075,14.075,0,0,0,.1,2.065" transform="translate(9593.936 -11411.537)" fill="#e9ab9c"/>
      <path id="Trazado_165362" data-name="Trazado 165362" d="M264.468,64.29a1.551,1.551,0,0,1,1.583-1.3,1.5,1.5,0,0,1,1.476,1.28,4.033,4.033,0,0,1-2.774,4.686c-.347.1-.439.036-.378-.31a9.9,9.9,0,0,0,.072-1.675,1.061,1.061,0,0,1,1.415-1.118.868.868,0,0,0,1.027-.36.76.76,0,0,0-.095-.98,1.693,1.693,0,0,0-1.183-.416,4.2,4.2,0,0,0-1.142.193" transform="translate(9537.32 -11411.537)" fill="#e9ab9c"/>
      <path id="Trazado_165363" data-name="Trazado 165363" d="M247.363,137.9c2.874,0,5.749-.006,8.623.012.421,0,.579-.119.529-.537-.061-.512.224-1.173-.122-1.505-.316-.3-.962-.084-1.462-.09-1.082-.013-2.165,0-3.248-.007-.18,0-.377.058-.535-.089,1.7-.007,3.4-.007,5.093-.026.313,0,.374.122.368.4-.017.765-.023,1.53-.01,2.295,0,.275-.094.345-.356.344-2.594-.009-5.188,0-7.781-.011a1.074,1.074,0,0,1-1.1-.782" transform="translate(9547.718 -11455.998)" fill="#c5cfd9"/>
      <path id="Trazado_165364" data-name="Trazado 165364" d="M159.045,137.036a3.031,3.031,0,0,1-.142-.349c-.251-.924-.192-1,.759-1,.912,0,1.825.012,2.737-.006.308-.006.43.074.414.4-.031.612-.027,1.226-.037,1.839a3.852,3.852,0,0,1-3.482-.665,1.247,1.247,0,0,0-.248-.219" transform="translate(9601.915 -11456.009)" fill="#fecabd"/>
      <path id="Trazado_165365" data-name="Trazado 165365" d="M275.5,137.924c-.011-.649-.018-1.3-.036-1.948-.006-.217.078-.291.294-.29,1.135.007,2.269.01,3.4,0,.26,0,.317.106.3.333a1.838,1.838,0,0,1-.247,1.009,3.773,3.773,0,0,1-3.715.9" transform="translate(9530.525 -11456.013)" fill="#fecabd"/>
      <path id="Trazado_165366" data-name="Trazado 165366" d="M159.469,139.173c.493.153.874.517,1.368.686a7.87,7.87,0,0,0,2.363.2c.069.784.068.761-.7.789a2.806,2.806,0,0,1-3.033-1.673" transform="translate(9601.491 -11458.146)" fill="#e8ab9c"/>
      <path id="Trazado_165367" data-name="Trazado 165367" d="M275.509,140.04a5.382,5.382,0,0,0,3.715-.9,2.539,2.539,0,0,1-2.289,1.67,6.025,6.025,0,0,1-.726.009c-.774,0-.774,0-.7-.782" transform="translate(9530.517 -11458.129)" fill="#e8ab9c"/>
      <path id="Trazado_165368" data-name="Trazado 165368" d="M204.19,106.488c-.5-.29-.113-.762-.235-1.13.719.075,1.424.257,2.153.267.319,0,.433.177.424.507-.011.392-.262.331-.5.334q-.922.012-1.843.021" transform="translate(9574.292 -11437.458)" fill="#524e55"/>
      <path id="Trazado_165369" data-name="Trazado 165369" d="M234.53,65.826A4.069,4.069,0,0,1,230.9,63.6c-.307-.573-.2-1.076.249-1.319s.917-.066,1.223.509a2.362,2.362,0,0,0,4.259-.012c.3-.569.775-.747,1.233-.494a.873.873,0,0,1,.262,1.27,4.069,4.069,0,0,1-3.594,2.275" transform="translate(9557.897 -11411.035)"/>
      <path id="Trazado_165370" data-name="Trazado 165370" d="M197.169,65.7a4.312,4.312,0,0,1-2.528-2.12c-.288-.582-.188-1.069.266-1.307s.917-.054,1.223.512a2.049,2.049,0,0,0,1.033,1.034,2.283,2.283,0,0,0,3.035-.726c.086-.143.159-.293.245-.436a.851.851,0,0,1,1.139-.393.84.84,0,0,1,.358,1.153,4,4,0,0,1-2.832,2.3,5.168,5.168,0,0,1-1.937-.02" transform="translate(9580.072 -11411.037)"/>
      <path id="Trazado_165371" data-name="Trazado 165371" d="M216.341,81.541a3.99,3.99,0,0,1-3.593-2.251A.862.862,0,0,1,213.055,78c.455-.226.877-.054,1.177.509a2.37,2.37,0,0,0,4.261.017c.316-.592.754-.765,1.219-.509a.878.878,0,0,1,.261,1.311,4,4,0,0,1-3.631,2.218" transform="translate(9568.994 -11420.658)"/>
      <path id="Trazado_165372" data-name="Trazado 165372" d="M195.963,75.754a3.5,3.5,0,0,1-3.155-.316,1.115,1.115,0,0,1,.074-2.07,3.228,3.228,0,0,1,2.182-.431,4.374,4.374,0,0,0,.67.014c.275.143.563.267.823.434a1.176,1.176,0,0,1-.037,2.132,4.338,4.338,0,0,1-.556.237" transform="translate(9581.502 -11417.597)" fill="#e38fb6"/>
      <path id="Trazado_165373" data-name="Trazado 165373" d="M241.887,75.974a3.259,3.259,0,0,1-1.933-.6,1.116,1.116,0,0,1,.018-1.911,3.711,3.711,0,0,1,3.835-.083,1.137,1.137,0,0,1-.055,2.116,3.475,3.475,0,0,1-1.866.477" transform="translate(9552.575 -11417.593)" fill="#e38fb6"/>
      <path id="Trazado_165374" data-name="Trazado 165374" d="M218.663,68.072c.485,0,.97-.012,1.455,0a.8.8,0,0,1,.857.773.81.81,0,0,1-.805.889q-1.537.044-3.077,0a.831.831,0,1,1,.06-1.661c.5-.016,1.007,0,1.51,0" transform="translate(9566.729 -11414.645)" fill="#010100"/>
    </g>
  </g>
</svg>
