<svg xmlns="http://www.w3.org/2000/svg" width="105" height="105" viewBox="0 0 105 105">
  <g id="_56" data-name="56" transform="translate(-10711 10861)">
    <path id="Trazado_165125" data-name="Trazado 165125" d="M52.5,0A52.5,52.5,0,1,1,0,52.5,52.5,52.5,0,0,1,52.5,0Z" transform="translate(10711 -10861)" fill="#ff9fa3"/>
    <g id="Grupo_170521" data-name="Grupo 170521" transform="translate(379 256.069)">
      <path id="Trazado_165430" data-name="Trazado 165430" d="M17.837,50.353c-.659-.7-1.229-1.323-1.811-1.93-.356-.372-.5-.776-.081-1.156.4-.358.773-.169,1.1.181.654.705,1.335,1.387,1.966,2.113a.711.711,0,0,0,.967.238c1.15-.575,2.336-1.089,3.445-1.735a3.282,3.282,0,0,0,1.558-3.178.646.646,0,0,0-.37-.543,11.381,11.381,0,0,1-4.9-7.652c-.061-.348-.215-.386-.506-.412a5.2,5.2,0,0,1-3.475-8.719,1.233,1.233,0,0,0,.308-.879,56.762,56.762,0,0,1,.122-5.833A11.912,11.912,0,0,1,26.432,10.784,33.671,33.671,0,0,1,31.5,10.71a6.538,6.538,0,0,1,4.821,2.425.564.564,0,0,0,.758.189,6.851,6.851,0,0,1,9.362,6.319c.052,2.438.019,4.878,0,7.318a1.611,1.611,0,0,0,.334,1.023,5.194,5.194,0,0,1-3.745,8.28c-.427.038-.546.182-.613.553A11.278,11.278,0,0,1,37.9,44.088a.875.875,0,0,0-.381.762A3.473,3.473,0,0,0,39.651,48.4c.932.435,1.846.91,2.769,1.363a.779.779,0,0,0,1.095-.216c.611-.74,1.3-1.413,1.96-2.117.331-.355.712-.507,1.1-.137s.254.759-.077,1.11c-.578.613-1.154,1.226-1.823,1.938,1.179.3,2.269.583,3.36.862.7.18,1.407.361,2.112.532a8.033,8.033,0,0,1,4.079,2.352.666.666,0,0,0,.789.213c.536-.165,1.082-.3,1.625-.445a.7.7,0,1,1,.372,1.337,8.408,8.408,0,0,1-1.08.306c-.477.073-.467.244-.286.635,1.732,3.739,3.821,7.291,5.732,10.936a9.048,9.048,0,0,1,1.04,2.887A7.135,7.135,0,0,1,55.4,78.213q-24.155.037-48.311,0A7.174,7.174,0,0,1,.868,67.567c1.617-3.113,3.308-6.188,4.95-9.289.394-.743.7-1.533,1.089-2.277.191-.362.057-.42-.256-.489-.41-.09-.813-.219-1.215-.345a.688.688,0,1,1,.335-1.336c.726.169,1.516.625,2.152.463S9.017,53.33,9.64,52.9a14.692,14.692,0,0,1,4.8-1.7c1.084-.286,2.174-.546,3.393-.851" transform="translate(10353 -11108.721)"/>
      <path id="Trazado_165433" data-name="Trazado 165433" d="M29.329,88.023a.733.733,0,0,1,.616.277c.558.6,1.121,1.2,1.681,1.8a.663.663,0,0,1,.021,1.048.686.686,0,0,1-1.052-.1c-.578-.615-1.158-1.229-1.73-1.849a.652.652,0,0,1-.143-.775.639.639,0,0,1,.608-.4" transform="translate(10336.437 -11153.45)" fill="#010101"/>
      <path id="Trazado_165434" data-name="Trazado 165434" d="M115.026,88.6a.792.792,0,0,1-.248.633l-1.683,1.8a.69.69,0,0,1-1.052.108.658.658,0,0,1,.013-1.046q.864-.926,1.728-1.852a.712.712,0,0,1,.838-.176.639.639,0,0,1,.4.536" transform="translate(10288.371 -11153.438)" fill="#010101"/>
      <path id="Trazado_165437" data-name="Trazado 165437" d="M11.444,108.982a6.032,6.032,0,0,1,2.8-1.623c2.035-.547,4.088-1.031,6.127-1.566a.82.82,0,0,1,.9.332q2.2,2.376,4.425,4.73c.529.562,1.13.532,1.35-.051.152-.4-.092-.668-.336-.929q-1.879-2-3.76-4c-.174-.185-.342-.375-.538-.591a6.219,6.219,0,0,1,1.947-.9c.7-.051.887.869,1.326,1.334a10.156,10.156,0,0,0,15.708-.991c.292-.4.491-.516.932-.24.474.3,1,.508,1.579.794-.982,1.052-1.934,2.074-2.889,3.094q-.745.8-1.5,1.588c-.334.351-.463.735-.068,1.1s.77.207,1.1-.144c1.508-1.61,3.024-3.212,4.521-4.833a.807.807,0,0,1,.91-.3c1.993.527,3.995,1.019,5.99,1.537a6.632,6.632,0,0,1,2.932,1.66c-1.418.4-2.755.774-4.094,1.146-.857.238-1.713.48-2.575.7-.5.129-.842.39-.679.938.151.507.571.555,1.033.427,2.234-.617,4.473-1.22,6.7-1.856.464-.132.728-.072.937.392,1.795,3.973,4.039,7.713,6.035,11.582a5.791,5.791,0,0,1-5.255,8.656c-3.052.009-6.1-.014-9.157.016-.55.006-.647-.162-.641-.667.027-2.369.032-4.739,0-7.108-.01-.685.239-.9.9-.9,3.311.021,6.621.01,9.932.009a6.088,6.088,0,0,0,.633-.013c.429-.046.706-.267.689-.727a.646.646,0,0,0-.683-.656c-.187-.015-.375-.011-.563-.011-2.371,0-4.743-.014-7.114.01-.5.005-.742-.077-.671-.641.081-.642-.272-1.508.143-1.879.356-.319,1.2-.106,1.832-.1.528,0,.986-.115.972-.733-.012-.572-.451-.706-.951-.679a1.123,1.123,0,0,1-.141,0c-.6-.043-1.4.262-1.746-.128-.3-.333-.089-1.113-.1-1.7-.005-.281,0-.563,0-.845,0-.494-.206-.845-.729-.833-.481.011-.681.348-.68.812,0,.68-.034,1.363.011,2.04.034.509-.091.674-.64.665-2.16-.037-4.32-.012-6.48-.019a.827.827,0,0,0-.835.4.622.622,0,0,0,.026.666.876.876,0,0,0,.861.351c2.16-.005,4.32.01,6.48-.012.447,0,.662.1.578.57a1.256,1.256,0,0,0,0,.211c-.006.562.171,1.224-.067,1.661-.259.477-.983.092-1.494.216a1.573,1.573,0,0,0-1.068.616c-.445.764-1.06.583-1.7.414a1.515,1.515,0,0,1-.724-.416c-1.185-1.266-2.718-1.244-4.256-1.125a1.3,1.3,0,0,0-1.234,1.088c-.092.547-.351.625-.8.585a6.193,6.193,0,0,0-.915,0,2.5,2.5,0,0,0-2.412,2.243,24.979,24.979,0,0,0,.024,4.566,4.211,4.211,0,0,0,.917,2.007H31.064c1.075-1.2,1.075-2.6,1.048-4.015-.013-.7.017-1.408-.008-2.111a2.616,2.616,0,0,0-2.791-2.7,5.013,5.013,0,0,0-.563,0c-.478.05-.734-.054-.849-.622a1.38,1.38,0,0,0-1.4-1.074c-1.532-.092-3-.007-4.168,1.214a2.1,2.1,0,0,1-1.713.481.359.359,0,0,1-.344-.184,2,2,0,0,0-2.156-1c-.645.067-.825-.169-.753-.774a5.558,5.558,0,0,0,0-1.264c-.059-.521.159-.6.629-.6,2.089.025,4.179.007,6.269.014.545,0,1.131,0,1.115-.725s-.619-.689-1.153-.687c-2.09.005-4.18-.009-6.269.011-.435,0-.627-.075-.594-.564.046-.677,0-1.36.014-2.04.007-.513-.159-.916-.729-.906-.525.009-.691.392-.685.878.01.68-.022,1.361.011,2.04.021.437-.075.638-.564.592s-.985,0-1.478-.012c-.512-.011-.917.153-.907.725.009.526.391.694.877.687.54-.008,1.08.013,1.62-.008.316-.012.471.053.452.416a13.026,13.026,0,0,0,0,1.688c.038.478-.181.526-.575.523-2.418-.014-4.836-.008-7.255-.005a3.69,3.69,0,0,0-.7.044.6.6,0,0,0-.5.594.61.61,0,0,0,.458.7,3.01,3.01,0,0,0,.766.067q4.966.006,9.932,0c.941,0,.988.05.989,1,0,2.346-.014,4.692.012,7.038.005.486-.111.626-.612.622-3.1-.024-6.2,0-9.3-.016a5.759,5.759,0,0,1-5.206-8.5c1.617-3.169,3.343-6.283,5.006-9.429.393-.744.74-1.514,1.075-2.286.209-.482.494-.562.988-.42,2.183.628,4.378,1.213,6.566,1.825.383.107.741.178,1.027-.177.351-.436.12-.959-.538-1.144-2.028-.571-4.062-1.123-6.093-1.685-.176-.049-.348-.112-.572-.184" transform="translate(10351.092 -11162.883)" fill="#70d5f8"/>
      <path id="Trazado_165438" data-name="Trazado 165438" d="M69.915,46.785c-.053,1.46.092,3.244-.075,5.023a10.116,10.116,0,0,1-19.872,1.507,9.286,9.286,0,0,1-.308-2.364c.006-2.7.015-5.4-.011-8.092-.005-.529.124-.575.627-.508,4.376.588,8.242-.4,11.3-3.773.15-.165.238-.4.539-.14A11.931,11.931,0,0,0,69.3,41.1c.559.039.629.249.621.724-.027,1.547-.01,3.1-.01,4.965" transform="translate(10324.297 -11124.719)" fill="#f8cfb3"/>
      <path id="Trazado_165439" data-name="Trazado 165439" d="M68.922,28.349a6.125,6.125,0,0,0-2.008-.57c-.3-.027-.379-.145-.406-.432-.133-1.423-.371-1.616-1.75-1.723a11.066,11.066,0,0,1-6.833-2.591c-.7-.627-1.43-.486-2.115.356a9.6,9.6,0,0,1-4.861,3.191,11.372,11.372,0,0,1-5.49.248c-.8-.159-1.562-.163-1.961.753a.289.289,0,0,1-.281.176,10.322,10.322,0,0,0-1.883.382c0-2.954-.33-5.905,1.214-8.608A10.343,10.343,0,0,1,51.643,14a20.709,20.709,0,0,1,4.212.088,5.366,5.366,0,0,1,3.626,2.32c.513.731.634.761,1.438.361a5.476,5.476,0,0,1,8,4.874c.021,2.2,0,4.4,0,6.711" transform="translate(10329.121 -11110.618)" fill="#5b5d60"/>
      <path id="Trazado_165440" data-name="Trazado 165440" d="M48.086,154.935c-1.174,0-2.348-.014-3.521.008-.387.008-.525-.089-.521-.5q.03-3.237,0-6.474c0-.423.152-.5.529-.5a3.209,3.209,0,0,0,2.418-.964c.836-.858,1.873-.725,2.9-.723.267,0,.257.214.308.39a1.549,1.549,0,0,0,1.726,1.306c2.265.033,2.332.1,2.332,2.354,0,.727.016,1.455,0,2.182a2.791,2.791,0,0,1-2.995,2.919c-1.057.005-2.113,0-3.17,0" transform="translate(10327.538 -11186.839)" fill="#f8cfb3"/>
      <path id="Trazado_165441" data-name="Trazado 165441" d="M86.08,154.914c-1.1,0-2.207.008-3.31,0a2.746,2.746,0,0,1-2.887-2.73c-.051-1.147-.036-2.3-.005-3.447.023-.845.491-1.254,1.356-1.274.352-.008.7,0,1.056,0A1.492,1.492,0,0,0,83.9,146.2c.082-.346.22-.432.561-.448a3.5,3.5,0,0,1,2.9.927,2.877,2.877,0,0,0,2.2.773c.41-.015.507.134.5.521q-.025,3.237,0,6.474c0,.368-.1.484-.473.478-1.174-.021-2.348-.008-3.521-.008" transform="translate(10306.838 -11186.818)" fill="#f8cfb3"/>
      <path id="Trazado_165442" data-name="Trazado 165442" d="M56.695,96.933a4.7,4.7,0,0,0,2.42-3.7c.032-.341.153-.371.45-.254a11.407,11.407,0,0,0,8.887-.124c.357-.15.442-.081.469.277a4.492,4.492,0,0,0,2.151,3.592c.306.2.2.33.045.529a8.78,8.78,0,0,1-14.422-.324" transform="translate(10320.224 -11156.204)" fill="#f8cfb3"/>
      <path id="Trazado_165443" data-name="Trazado 165443" d="M41.125,53.871c0,1.1-.014,2.2.008,3.3.008.38-.062.535-.494.494a3.827,3.827,0,0,1,.08-7.595c.385-.029.415.132.411.436-.012,1.122,0,2.245,0,3.367" transform="translate(10331.423 -11131.506)" fill="#f8cfb3"/>
      <path id="Trazado_165444" data-name="Trazado 165444" d="M101,53.838c0-1.1.019-2.2-.009-3.3-.012-.444.159-.5.539-.44a3.823,3.823,0,0,1,.138,7.544c-.5.094-.71.008-.682-.574.051-1.074.015-2.152.015-3.229" transform="translate(10294.617 -11131.515)" fill="#f8cfb3"/>
      <path id="Trazado_165445" data-name="Trazado 165445" d="M71.77,123.455a3.585,3.585,0,0,1-.986,2.369c-1.33,1.357-2.668,2.706-4.028,4.034a1.542,1.542,0,0,1-2.368-.034c-1.307-1.281-2.608-2.568-3.881-3.883a3.729,3.729,0,0,1,4.577-5.819.872.872,0,0,0,1.052-.03,3.762,3.762,0,0,1,5.634,3.362" transform="translate(10318.658 -11171.693)"/>
      <path id="Trazado_165446" data-name="Trazado 165446" d="M93.594,124.16c-.548.013-.819-.135-.9-.513a.62.62,0,0,1,.4-.8q2.06-.7,4.135-1.358a.627.627,0,0,1,.8.41.6.6,0,0,1-.276.846c-1.429.514-2.875.981-4.156,1.412" transform="translate(10299.429 -11172.781)" fill="#000101"/>
      <path id="Trazado_165447" data-name="Trazado 165447" d="M47.25,124.19c-.118-.034-.3-.081-.476-.138-1.18-.382-2.356-.774-3.539-1.148-.487-.154-.733-.464-.564-.949.156-.445.519-.545.975-.393,1.266.421,2.538.822,3.807,1.236a.7.7,0,0,1,.568.84c-.068.379-.33.545-.772.552" transform="translate(10328.361 -11172.803)" fill="#000101"/>
      <path id="Trazado_165448" data-name="Trazado 165448" d="M68.387,75.818a8.408,8.408,0,0,1-3.478-.726c-.438-.193-.732-.5-.533-.985.218-.528.651-.5,1.122-.3a7.263,7.263,0,0,0,5.868,0c.439-.186.855-.232,1.087.248.247.513-.049.836-.516,1.042a8.39,8.39,0,0,1-3.549.723" transform="translate(10315.82 -11145.156)" fill="#010000"/>
      <path id="Trazado_165449" data-name="Trazado 165449" d="M63.2,58.831a1.4,1.4,0,1,1-2.8-.053,1.4,1.4,0,0,1,2.8.053" transform="translate(10318.084 -11135.759)" fill="#010101"/>
      <path id="Trazado_165450" data-name="Trazado 165450" d="M82.5,60.217a1.415,1.415,0,0,1-1.4-1.381,1.4,1.4,0,1,1,1.4,1.381" transform="translate(10306.114 -11135.759)" fill="#010101"/>
      <path id="Trazado_165451" data-name="Trazado 165451" d="M62.738,125.247a2.289,2.289,0,0,1,1.234-2.049,2.339,2.339,0,0,1,2.582.211c.94.672.982.678,1.939-.013a2.393,2.393,0,0,1,3.19.283,2.276,2.276,0,0,1-.067,3.177c-1.235,1.281-2.516,2.518-3.763,3.788-.265.27-.432.24-.683-.015-1.247-1.269-2.514-2.52-3.769-3.782a2.4,2.4,0,0,1-.664-1.6" transform="translate(10316.73 -11173.617)" fill="#fb657d"/>
    </g>
  </g>
</svg>
