<svg xmlns="http://www.w3.org/2000/svg" xmlns:xlink="http://www.w3.org/1999/xlink" width="105" height="105" viewBox="0 0 105 105">
  <defs>
    <clipPath id="clip-path">
      <rect id="Rectángulo_43092" data-name="Rectángulo 43092" width="67.773" height="75.807" fill="none"/>
    </clipPath>
  </defs>
  <g id="_57" data-name="57" transform="translate(-11026 10861)">
    <path id="Trazado_165126" data-name="Trazado 165126" d="M52.5,0A52.5,52.5,0,1,1,0,52.5,52.5,52.5,0,0,1,52.5,0Z" transform="translate(11026 -10861)" fill="#ff9fa3"/>
    <g id="Grupo_170519" data-name="Grupo 170519" transform="translate(11045 -10846)">
      <g id="Grupo_170518" data-name="Grupo 170518" clip-path="url(#clip-path)">
        <path id="Trazado_165407" data-name="Trazado 165407" d="M61.772,63.864A1.155,1.155,0,0,1,62.85,65.2a10.73,10.73,0,0,1-.1,2.135,4.3,4.3,0,0,1-3.373,3.517c-5.4,1.217-10.805,2.371-16.21,3.545-1.921.418-3.847.816-5.766,1.243a6.624,6.624,0,0,1-.951.1,40.055,40.055,0,0,1-12.11-1.384c-5.15-1.187-10.327-2.258-15.5-3.362a4.613,4.613,0,0,1-3.953-4.849c0-3.548-.011-7.1.009-10.645,0-.568-.029-.829-.753-.849a4.169,4.169,0,0,1-4.138-4.3c-.01-.912-.019-1.824,0-2.735a4.139,4.139,0,0,1,4.07-4.127c.7-.013.865-.226.822-.873A7.33,7.33,0,0,1,4.978,40.7a4.466,4.466,0,0,1,5.367-3.608c1.706.343,3.4.718,5.215,1.1a13.835,13.835,0,0,1-.691-4.7.715.715,0,0,0-.557-.783,4.89,4.89,0,0,1-2.356-7.646,1.067,1.067,0,0,0,.185-1,45.28,45.28,0,0,1-1.492-10.87c0-.443.027-.886.047-1.33a1.19,1.19,0,0,1,1.146-1.289c.791-.05,1.15.237,1.213,1.008.044.539.021,1.082.014,1.623a41.934,41.934,0,0,0,1.151,9.131c.111.529.327.809.906.606a1.214,1.214,0,0,1,.438-.056c2.542.089,3.969-1.415,4.966-3.5a10.1,10.1,0,0,0,.837-2.516,1.805,1.805,0,0,1,.72-1.241,1.4,1.4,0,0,1,1.7.3A16.337,16.337,0,0,0,33.336,19.8a19.908,19.908,0,0,0,8.52-.892,16.378,16.378,0,0,0,5.408-3.256,29.7,29.7,0,0,0,5.88-6.683,9.588,9.588,0,0,0,1.468-3.286c.17-.867-.1-1.132-.975-.981a8.961,8.961,0,0,0-2.993,2.263,9.717,9.717,0,0,1-1.13,1.258A1.282,1.282,0,0,1,47.8,8.55a1.339,1.339,0,0,1-.434-1.758,13.188,13.188,0,0,0,.852-2.811c.2-1.363-.374-1.857-1.674-1.411a5.617,5.617,0,0,0-.736.333,7.539,7.539,0,0,0-2.756,3.1c-.262.446-.463.925-.689,1.391-.54.706-1.109.931-1.691.67a1.374,1.374,0,0,1-.722-1.684,21.173,21.173,0,0,0,.335-2.414A2.591,2.591,0,0,0,40,2.614c-.552-.465-.933.011-1.275.294a14.077,14.077,0,0,0-2.178,2.4,31.413,31.413,0,0,1-3.109,3.743A8.1,8.1,0,0,1,31.492,10.5a2.6,2.6,0,0,1-.679.281,1.285,1.285,0,0,1-1.389-.618,1.225,1.225,0,0,1,.194-1.492,2.652,2.652,0,0,1,.723-.5A8.923,8.923,0,0,0,33.1,5.545c.179-.233.216-.434-.1-.592a11.4,11.4,0,0,0-7.024-1.439A4.94,4.94,0,0,0,22.44,6.16c-.79,1.223-1.146,1.353-2.5.848a7.408,7.408,0,0,0-3.117-.441A3.4,3.4,0,0,0,14.372,7.9a2.11,2.11,0,0,1-.679.667c-.4.184-.826.379-1.187-.091-.681-.643-.743-1.051-.238-1.79a5.924,5.924,0,0,1,6.488-2.451,2.53,2.53,0,0,0,2.86-.914C23.561,1.068,26.235.686,29.052,1.1a16.341,16.341,0,0,1,5.532,1.95c.367.2.562.194.838-.165A7.751,7.751,0,0,1,39.049,0H40.38a2.384,2.384,0,0,1,2.027,1.6c.184.46.374.392.685.106a5.675,5.675,0,0,1,3.5-1.7h1.627a3.243,3.243,0,0,1,2.473,3.612c.417-.265.754-.485,1.1-.7a4.365,4.365,0,0,1,2.573-.774,3.026,3.026,0,0,1,2.664,3.89,15.072,15.072,0,0,1-2.843,5.7,24.976,24.976,0,0,1-2.248,2.739,1.043,1.043,0,0,0-.3.927c.3,2.421.507,4.849.6,7.287a.567.567,0,0,0,.466.612,4.94,4.94,0,0,1,.082,9.45c-.4.141-.436.344-.447.687a14.179,14.179,0,0,1-.758,4.9c1.583-.344,3.083-.681,4.589-.995a6.942,6.942,0,0,1,3.131-.255,4.533,4.533,0,0,1,3.543,4.273,5.528,5.528,0,0,0,.056,1.829c.275.637,1.081.2,1.643.374a4.184,4.184,0,0,1,3.139,3.615,19.429,19.429,0,0,1,0,3.763,4.119,4.119,0,0,1-4.165,3.722c-.558.014-.693.146-.679.693.039,1.6.016,3.2.013,4.8,0,.985-.181,1.22-1.137,1.534-.8.027-1.22-.354-1.266-1.249-.057-1.082-.013-2.167-.02-3.251,0-.271-.019-.543,0-.813a2.745,2.745,0,0,0-1.117-2.809,3.7,3.7,0,0,1-1.4-3.2c.007-.863,0-1.725,0-2.587a4.357,4.357,0,0,1,1.838-3.688,1.444,1.444,0,0,0,.679-1.371c-.024-.344,0-.69-.01-1.034a2.161,2.161,0,0,0-2.808-2.168q-3.323.713-6.644,1.44Q45.085,42.244,39.2,43.516c-.933.2-.967.228-.967,1.152q0,13.635,0,27.271c0,.991.019,1.006,1.007.8,6.339-1.339,12.662-2.75,19-4.1,1.648-.352,2.18-1.043,2.193-2.73a6.088,6.088,0,0,1,.043-1.106,1.055,1.055,0,0,1,1.3-.932" transform="translate(0 0)"/>
        <path id="Trazado_165408" data-name="Trazado 165408" d="M89.426,92.41c-.864.167-1.176.474-1.128,1.338.165,3.011-.943,3.369-3.1,3.818-6.333,1.32-12.651,2.711-18.968,4.1-.543.12-.617-.017-.616-.5q.014-14.232,0-28.465c0-.445.113-.632.579-.732,6.445-1.382,12.883-2.8,19.328-4.181a2.288,2.288,0,0,1,2.754,2.1c.02.22-.009.444.013.665a2.374,2.374,0,0,1-1.1,2.586,3.459,3.459,0,0,0-1.409,3.034c-.009.912,0,1.824,0,2.735A4.111,4.111,0,0,0,87.838,82.6a.821.821,0,0,1,.459.815c-.021,1.774.017,3.549-.02,5.323a1.31,1.31,0,0,0,1.091,1.5q.03,1.087.058,2.173" transform="translate(-27.654 -28.547)" fill="#d94a54"/>
        <path id="Trazado_165409" data-name="Trazado 165409" d="M21.132,12.872a1.117,1.117,0,0,0,1.487-.409c1.1-1.689,2.722-1.939,4.528-1.663a7.423,7.423,0,0,1,1.341.375c1.516.536,1.542.535,2.458-.752.291.329.069.653-.028.964a14.122,14.122,0,0,0-.526,7.236c.107.507.351.963.448,1.468a1.836,1.836,0,0,0-.632,1.119,10.865,10.865,0,0,1-1.42,3.688,4.828,4.828,0,0,1-4.414,2.576,1.431,1.431,0,0,0-.583.056c-.853.373-1.007-.064-1.163-.808a39.26,39.26,0,0,1-1.095-10.448c.048-.811-.216-1.1-1.066-1.312q.335-1.046.666-2.091" transform="translate(-8.625 -4.393)" fill="#ebc22e"/>
        <path id="Trazado_165410" data-name="Trazado 165410" d="M34.937,86.992c0,4.656-.012,9.313.014,13.969,0,.649-.091.828-.8.673-6.625-1.462-13.259-2.884-19.889-4.32a2.323,2.323,0,0,1-1.982-2.4c-.013-3.843,0-7.687-.011-11.53a.767.767,0,0,1,.419-.764,4.137,4.137,0,0,0,2.094-3.744c0-.862.005-1.725,0-2.587a4.079,4.079,0,0,0-2-3.642.915.915,0,0,1-.509-.945c.032-.565-.011-1.134.014-1.7a2.3,2.3,0,0,1,2.789-2.212c6.417,1.38,12.827,2.789,19.246,4.163.54.116.629.361.628.849-.016,4.73-.01,9.46-.01,14.191" transform="translate(-5.17 -28.547)" fill="#c22430"/>
        <path id="Trazado_165411" data-name="Trazado 165411" d="M42.811,32.124a22.683,22.683,0,0,0,10.656,2.524,19.159,19.159,0,0,0,13.356-5.006c.143-.13.294-.25.5-.427a10.274,10.274,0,0,1,.277,2.3A116.063,116.063,0,0,1,67.82,47.6a8.634,8.634,0,0,1-.888,3.175.982.982,0,0,1-.774.581q-5.625,1.2-11.246,2.419a20.368,20.368,0,0,1-2.649.1c-3.05.26-5.952-.53-8.872-1.212-.355-.179-.409-.539-.5-.864a16.93,16.93,0,0,1-.6-4.154c-.027-1.058-.01-2.118,0-3.176a1.564,1.564,0,0,1,.172-.927.544.544,0,0,1,.324-.156,1.918,1.918,0,0,0,1.807-2.392,2.1,2.1,0,0,0-1.025-1.85c-.359-.182-.8.069-1.125-.252a.485.485,0,0,1-.091-.2,31.594,31.594,0,0,1,.1-6.1c.03-.2.051-.462.364-.467" transform="translate(-17.807 -12.313)" fill="#f0cfa4"/>
        <path id="Trazado_165412" data-name="Trazado 165412" d="M37.723,17.315c-.436-.216-.5-.668-.585-1.054a14.119,14.119,0,0,1,.588-8.047,1.178,1.178,0,0,0,.1-.568A5.321,5.321,0,0,1,43.086,4.81,14.146,14.146,0,0,1,49.219,6.7a10.63,10.63,0,0,1-3.468,3.356c-.775.377-1.043.974-.739,1.591.282.575.893.738,1.652.441.113-.044.229-.082.343-.122.617-.167,1.26-.135,1.883-.259a5.614,5.614,0,0,0,3.677-2.825c.885-1.395,1.408-2.969,2.208-4.405.17-.307.293-.727.8-.492a2.195,2.195,0,0,1,.4,1.792,11.725,11.725,0,0,1-.29,2.1c-.159.686-.172,1.276.533,1.64.561.289,1.053.066,1.574-.665,1.224-.24,1.685-1.174,2.079-2.212A5.592,5.592,0,0,1,61.2,4.4a2.568,2.568,0,0,1,1.488-.549c1-.1,1.372.268,1.3,1.268a10.373,10.373,0,0,1-.88,3.251c-.338.8-.237,1.349.307,1.681s1.054.175,1.647-.495c.34-.385.7-.75,1.054-1.125.952-.783,1.925-1.538,2.93-2.252,1.014-.391,1.485-.051,1.317,1A8.3,8.3,0,0,1,69.1,10.222a28.176,28.176,0,0,1-9,9.215,17.326,17.326,0,0,1-10.8,2.223,17.314,17.314,0,0,1-8.788-2.9,9.425,9.425,0,0,1-1.258-1.022,1.423,1.423,0,0,0-1.537-.425" transform="translate(-15.509 -1.616)" fill="#f3dc45"/>
        <path id="Trazado_165413" data-name="Trazado 165413" d="M37.386,33.572a3.08,3.08,0,0,0-.278,1.481c-.06,1.645-.025,3.294-.027,4.941a.452.452,0,0,0,.147.4c.045.138-.039.23-.113.328a2.875,2.875,0,0,0-.021,3.838.53.53,0,0,1,.166.394c-.054.078-.157.157-.156.235.019,1.689-.1,3.376.072,5.068a16.982,16.982,0,0,0,.79,3.859c-2.3-.489-4.61-.982-6.917-1.462a.848.848,0,0,1-.646-.526,8.486,8.486,0,0,1-.853-3.108c-.2-3.146-.194-6.3-.139-9.447.005-.278-.077-.573.369-.669,2.676-.573,4.231-2.424,5.357-4.757.25-.518.289-1.4.73-1.485.424-.08.98.539,1.477.853.019.012.028.04.041.061" transform="translate(-12.382 -13.761)" fill="#f0b885"/>
        <path id="Trazado_165414" data-name="Trazado 165414" d="M59.041,90.6c0,4.658-.017,9.316.019,13.974.005.71-.218.87-.867.828-.81-.053-1.626-.026-2.439-.007-.346.008-.51-.1-.472-.46a4.192,4.192,0,0,0,0-.443c0-9.316.012-18.632-.021-27.948,0-.781.223-.968.943-.9a14.013,14.013,0,0,0,2.142,0c.549-.037.711.124.706.689-.027,3.327-.013,6.654-.013,9.981V90.6" transform="translate(-23.29 -31.872)" fill="#dc626d"/>
        <path id="Trazado_165415" data-name="Trazado 165415" d="M106.917,78.987c.415-.012.832-.05,1.246-.031a1.967,1.967,0,0,1,1.993,2.019c.028.882.023,1.766,0,2.649a2,2,0,0,1-2,2.1,3.255,3.255,0,0,1-1.382-.071,2.174,2.174,0,0,1-.7-1.5,11.085,11.085,0,0,1,.132-4.182,1.326,1.326,0,0,1,.716-.976" transform="translate(-44.647 -33.273)" fill="#f0cfa4"/>
        <path id="Trazado_165416" data-name="Trazado 165416" d="M6.558,78.987c.393-.014.786-.051,1.178-.038a1.978,1.978,0,0,1,2.076,2.1c.014.887.019,1.775,0,2.661a1.894,1.894,0,0,1-1.73,1.947.525.525,0,0,1-.141.043c-1.767.1-2.178-.279-2.191-2.057-.007-1.007-.023-2.013.009-3.019a1.737,1.737,0,0,1,.8-1.634" transform="translate(-2.417 -33.272)" fill="#f0cfa4"/>
        <path id="Trazado_165417" data-name="Trazado 165417" d="M63.013,3.98c-.4-.056-.486.251-.613.514-.574,1.195-1.133,2.4-1.726,3.582a9.275,9.275,0,0,1-1.685,2.393,5.281,5.281,0,0,1-4.549,1.492,17.368,17.368,0,0,0,4.586-4.708A15.562,15.562,0,0,1,61.59,4.327c.4-.316.827-.738,1.424-.347" transform="translate(-22.944 -1.611)" fill="#ebc22e"/>
        <path id="Trazado_165418" data-name="Trazado 165418" d="M5.752,79.017a3.447,3.447,0,0,0-.6,2.362c.041.833.006,1.669.01,2.5.007,1.435.318,1.748,1.746,1.776.122,0,.244.018.366.028a3.842,3.842,0,0,1-1.677.034,1.946,1.946,0,0,1-1.747-1.964c-.031-.934-.034-1.871,0-2.8a1.9,1.9,0,0,1,1.9-1.934" transform="translate(-1.612 -33.301)" fill="#efb885"/>
        <path id="Trazado_165419" data-name="Trazado 165419" d="M106.219,79.013a3.731,3.731,0,0,0-.728,2.344,15.818,15.818,0,0,0,.115,3.012c.1.472.429.832.469,1.307a1.846,1.846,0,0,1-1.764-1.81c-.04-1-.042-2.014,0-3.019a1.88,1.88,0,0,1,1.909-1.834" transform="translate(-43.948 -33.3)" fill="#f0b885"/>
        <path id="Trazado_165420" data-name="Trazado 165420" d="M90.592,49.18V44.344a2.3,2.3,0,0,1,1.59,2.019,2.637,2.637,0,0,1-1.59,2.817" transform="translate(-38.18 -18.689)" fill="#edb684"/>
        <path id="Trazado_165421" data-name="Trazado 165421" d="M24.357,44.285c0,1.6,0,3.192,0,4.781a2.378,2.378,0,0,1-1.6-2.2,2.556,2.556,0,0,1,1.6-2.579" transform="translate(-9.588 -18.664)" fill="#efb785"/>
        <path id="Trazado_165422" data-name="Trazado 165422" d="M76.5,4.81a32,32,0,0,0-1.681,3.5,1.557,1.557,0,0,1-1.732.956A8.608,8.608,0,0,1,76.5,4.81" transform="translate(-30.8 -2.027)" fill="#eac12e"/>
        <path id="Trazado_165423" data-name="Trazado 165423" d="M90.4,7.885a12.18,12.18,0,0,1-2.93,2.252A7.752,7.752,0,0,1,90.4,7.885" transform="translate(-36.865 -3.323)" fill="#e1bb2d"/>
        <path id="Trazado_165424" data-name="Trazado 165424" d="M89.205,81.165c-.016.627-.493.908-1.125,1.044q-3.426.741-6.852,1.486-2.236.483-4.475.956c-.216.046-.432.1-.651.13a1.1,1.1,0,0,1-1.345-.845,1.076,1.076,0,0,1,.9-1.3c1.435-.343,2.879-.649,4.322-.962q3.75-.816,7.5-1.623c1.066-.23,1.723.156,1.72,1.112" transform="translate(-31.494 -33.711)"/>
        <path id="Trazado_165425" data-name="Trazado 165425" d="M88.078,87.06a1.03,1.03,0,0,1,1.1.885,1.014,1.014,0,0,1-.827,1.276c-1.509.351-3.024.679-4.538,1.009q-3.6.785-7.213,1.56c-.144.031-.289.065-.434.083-.772.1-1.278-.205-1.419-.841a1.123,1.123,0,0,1,.987-1.322c1.173-.277,2.354-.52,3.532-.776q4.074-.885,8.15-1.767c.216-.047.437-.072.657-.107" transform="translate(-31.493 -36.691)"/>
        <path id="Trazado_165426" data-name="Trazado 165426" d="M54.628,63.746a5.1,5.1,0,0,1-4.443-2.677A1.135,1.135,0,0,1,50.5,59.4c.583-.338,1.173-.134,1.607.555a2.854,2.854,0,0,0,5.1,0c.437-.69,1.029-.9,1.6-.558a1.114,1.114,0,0,1,.316,1.668,5.1,5.1,0,0,1-4.494,2.678" transform="translate(-21.056 -24.966)"/>
        <path id="Trazado_165427" data-name="Trazado 165427" d="M42.206,50.531a2.953,2.953,0,0,1-.032-4.56,1.362,1.362,0,0,1,1.8.809,3.16,3.16,0,0,1,.057,2.83,1.422,1.422,0,0,1-1.826.921" transform="translate(-17.327 -19.342)"/>
        <path id="Trazado_165428" data-name="Trazado 165428" d="M69.5,48.189a2.662,2.662,0,0,1,.609-1.847,1.2,1.2,0,0,1,1.962.015,3.218,3.218,0,0,1,.01,3.714,1.214,1.214,0,0,1-2.013-.021,2.723,2.723,0,0,1-.569-1.862" transform="translate(-29.291 -19.319)"/>
      </g>
    </g>
  </g>
</svg>
