<svg xmlns="http://www.w3.org/2000/svg" xmlns:xlink="http://www.w3.org/1999/xlink" width="190" height="177" viewBox="0 0 190 177">
  <defs>
    <clipPath id="clip-path">
      <rect id="Rectángulo_43445" data-name="Rectángulo 43445" width="153" height="177" transform="translate(825 5964)" fill="#fff" stroke="#707070" stroke-width="1"/>
    </clipPath>
    <clipPath id="clip-path-2">
      <rect id="Rectángulo_43444" data-name="Rectángulo 43444" width="126.902" height="293.196" fill="none"/>
    </clipPath>
  </defs>
  <g id="_9" data-name="9" transform="translate(-180 -2873)">
    <rect id="Rectángulo_43291" data-name="Rectángulo 43291" width="190" height="137" transform="translate(180 2913)" fill="#f0f4ff"/>
    <g id="Enmascarar_grupo_223" data-name="Enmascarar grupo 223" transform="translate(-626 -3091)" clip-path="url(#clip-path)">
      <g id="Grupo_171211" data-name="Grupo 171211" transform="translate(843.83 5967.958)">
        <g id="Grupo_171210" data-name="Grupo 171210" clip-path="url(#clip-path-2)">
          <path id="Trazado_168095" data-name="Trazado 168095" d="M174.61,1.973c-2.723.364-4.454,3.088-5.406,5.665-3.177,8.6-1.95,18.3-4.788,27.022a55.484,55.484,0,0,1-6.145,12.056c-1.979,3.16-4.093,6.617-3.7,10.325.528,4.985,5.378,8.366,10.11,10.021,6.188,2.164,12.846,2.567,19.4,2.556,4.267-.007,8.63-.2,12.6-1.764s7.534-4.731,8.522-8.883c1.259-5.289-1.777-10.518-3.237-15.755-1.714-6.149-1.251-12.661-1.659-19.032a69.072,69.072,0,0,0-1.7-11.439,21.1,21.1,0,0,0-3.1-7.682A12.754,12.754,0,0,0,181.369.651a17.178,17.178,0,0,1-3.981,1.283c-.923.085-1.858-.084-2.777.038" transform="translate(-138.643 0)" fill="#945661"/>
          <path id="Trazado_168096" data-name="Trazado 168096" d="M67.471,634.664l5.507,16.291s-4.588,8.26-3.9,11.472c0,0,5.277,1.836,7.113,4.13s3.671,7.113,10.554,7.572,8.719-.459,8.719-.459l.8-.115c-.641-2.69-3.427-4.74-6.048-5.624A5.978,5.978,0,0,1,87.2,666.1c-1.377-2.065-6.883-14.914-6.883-14.914l-4.359-24.092Z" transform="translate(4.42 -383.435)" fill="#fca19f"/>
          <path id="Trazado_168097" data-name="Trazado 168097" d="M128.387,720.326l.153,8.872h-3.671l-1.988-11.166Z" transform="translate(-49.383 -439.04)" fill="#1a1a1a"/>
          <path id="Trazado_168098" data-name="Trazado 168098" d="M66.782,717.638s5.354,1.147,7.572,4.283,4.742,7.725,11.855,7.725,8.489-.612,8.489-.612" transform="translate(6.256 -438.799)" fill="none" stroke="#1a1a1a" stroke-linecap="round" stroke-linejoin="round" stroke-width="2.362"/>
          <path id="Trazado_168099" data-name="Trazado 168099" d="M94.385,723.534l-1.224,6.425a27.168,27.168,0,0,1-5.507-.842,17.716,17.716,0,0,1-3.748-2.371l6.052-8.346s2.744,4.9,4.426,5.134" transform="translate(-0.085 -439.265)" fill="#1a1a1a"/>
          <path id="Trazado_168100" data-name="Trazado 168100" d="M208.93,603.232l.636,32.98s-4.429,10.512-3.741,13.724c0,0,5.277,1.836,7.113,4.13s3.671,7.113,10.554,7.572,8.719-.459,8.719-.459l.8-.115c-.641-2.69-3.427-4.74-6.048-5.624a5.978,5.978,0,0,1-3.015-1.833c-.65-.975-2.221-4.355-3.7-7.651A26.836,26.836,0,0,1,218.2,631.05l3.228-21.8Z" transform="translate(-186.057 -368.846)" fill="#fca19f"/>
          <path id="Trazado_168101" data-name="Trazado 168101" d="M266.669,725.728l.153,8.872h-3.671l-1.988-11.166Z" transform="translate(-241.395 -442.343)" fill="#1a1a1a"/>
          <path id="Trazado_168102" data-name="Trazado 168102" d="M232.667,728.936l-1.224,6.424a27.158,27.158,0,0,1-5.507-.841,17.7,17.7,0,0,1-3.748-2.371l6.052-8.346s2.744,4.9,4.426,5.134" transform="translate(-192.097 -442.568)" fill="#1a1a1a"/>
          <path id="Trazado_168103" data-name="Trazado 168103" d="M118.341,278.27s-8.566,10.056-11.319,18.754-9.761,133.14-9.761,133.14,6.09,8.74,29.646,1.4l8.553-117.927s.229-1.087,1.147,0,2.231,117.111,2.231,117.111,18.937,6.264,33.316-3.249c0,0-10.983-122.323-15.878-133.467s-8.566-15.764-8.566-15.764Z" transform="translate(-83.043 -170.148)" fill="#c3e6ff"/>
          <path id="Trazado_168104" data-name="Trazado 168104" d="M251.583,282.6s-7.342,11.013-9.637,19.273-9.339,132.936-9.339,132.936" transform="translate(-215.06 -172.796)" fill="none" stroke="#242638" stroke-linecap="round" stroke-linejoin="round" stroke-width="0.857"/>
          <path id="Trazado_168105" data-name="Trazado 168105" d="M176.8,316.119l.159-2.526.687-30.4h4.474l-.344,24.551L176.97,313.9" transform="translate(-123.918 -173.157)" fill="none" stroke="#242638" stroke-linecap="round" stroke-linejoin="round" stroke-width="0.857"/>
          <line id="Línea_649" data-name="Línea 649" x1="16.864" y2="23.862" transform="translate(25.968 110.608)" fill="none" stroke="#242638" stroke-linecap="round" stroke-linejoin="round" stroke-width="0.857"/>
          <path id="Trazado_168106" data-name="Trazado 168106" d="M10.732,170.44l5.914,18.836s26.282-16.646,28.473-17.3,8.761-2.628,14.894-2.19l-3.723,2.409,7.009,3.285,5.256-2.847-.657,2.628,1.314-.438-4.161,3.5,3.5-.657-8.542,5.038-13.8-7.009s-26.721,27.816-33.291,25.625S0,178.106,0,178.106Z" transform="translate(57.692 -103.775)" fill="#fca19f"/>
          <path id="Trazado_168107" data-name="Trazado 168107" d="M272.844,172.425l-7.086,41.8.354,36.491-8.857,14.179-1.771,7.086,1.417,1.771,1.771-1.417,2.126,2.48,3.543-8.5,3.543-4.96-2.835,8.857a18.211,18.211,0,0,0,5.669-16.651s6.377-33.657,6.023-40.388l6.377-32.24Z" transform="translate(-255.484 -105.429)" fill="#fca19f"/>
          <line id="Línea_650" data-name="Línea 650" x2="11.128" y2="19.962" transform="translate(63.023 110.837)" fill="none" stroke="#242638" stroke-linecap="round" stroke-linejoin="round" stroke-width="0.857"/>
          <path id="Trazado_168108" data-name="Trazado 168108" d="M154.327,164.769l-2.247-6.241L150,165.435a90.582,90.582,0,0,1-13.647-1.414s3.26-22.921,6.243-25.215,19.044-6.2,19.044-6.2l10.988.312,15.4,3.818,8.031,19.732-3.671,1.606s.018-3.124-.029-.133c-.083,5.243-5.159,7.323-5.159,7.323l.141,20.8,1.835,6.425c-10.784,4.818-34.493.076-34.493.076l3.641-7.082a1.313,1.313,0,0,0,.1-.883c-.429-6.44-4.09-19.837-4.09-19.837" transform="translate(-122.135 -81.084)" fill="#37374f"/>
          <path id="Trazado_168109" data-name="Trazado 168109" d="M186.174,82.365s.217,16.234-.28,17.512-7.714,4.352-7.714,4.352,14.853,7.637,27.031-.2c0,0-6.795-2.976-7.227-3.937s-1.9-11.4-1.9-11.4Z" transform="translate(-147.54 -50.362)" fill="#fca19f"/>
          <path id="Trazado_168110" data-name="Trazado 168110" d="M201.237,86.093l2.63,1.68,5.144,4.115c.167,1.159.472,3.254.791,5.281a14.389,14.389,0,0,1-10.792-7.853c0-1-.012-1.9-.018-2.643Z" transform="translate(-160.218 -52.642)" fill="#f97070"/>
          <path id="Trazado_168111" data-name="Trazado 168111" d="M201.044,21.557c2.28,14.636-4.664,21.336-7.989,21.819-4.292.622-12.024-2.236-14.15-8.658,0,0-5.32.246-5.866-2.646-1.006-5.326,3.359-2.746,3.359-2.746s-8.317-18.113,6.079-22.908c9.4-3.132,16.381,1.108,18.567,15.139" transform="translate(-141.769 -3.327)" fill="#fca19f"/>
          <path id="Trazado_168112" data-name="Trazado 168112" d="M203.4,49.082c.122-.338.791-.447,1.085-.556a5.291,5.291,0,0,1,1.886-.341,11.034,11.034,0,0,1,1.517.128c.34.048.938.213,1.214-.082a.528.528,0,0,0-.057-.687c-.4-.427-1.266-.42-1.8-.441-1.556-.062-3.259.33-3.846,1.98" transform="translate(-161.339 -28.797)" fill="#242638"/>
          <path id="Trazado_168113" data-name="Trazado 168113" d="M180.669,45.732c-.18-.311-.858-.3-1.167-.355a5.3,5.3,0,0,0-1.916,0,11.013,11.013,0,0,0-1.47.4c-.326.107-.885.376-1.209.135a.528.528,0,0,1-.066-.686c.317-.491,1.171-.638,1.692-.753,1.52-.337,3.266-.253,4.137,1.266" transform="translate(-121.664 -27.09)" fill="#242638"/>
          <path id="Trazado_168114" data-name="Trazado 168114" d="M206.113,67.577c-.041-.677,1.008-1.292,2.344-1.373s2.452.4,2.493,1.08-1.008,1.292-2.344,1.373-2.451-.4-2.493-1.08" transform="translate(-164.133 -40.475)" fill="#f97070"/>
          <path id="Trazado_168115" data-name="Trazado 168115" d="M174.259,64.711c-.041-.677.886-1.284,2.071-1.356s2.179.419,2.22,1.1-.887,1.284-2.071,1.356-2.179-.419-2.22-1.1" transform="translate(-119.358 -38.734)" fill="#f97070"/>
          <path id="Trazado_168116" data-name="Trazado 168116" d="M191.621,62.038a2.5,2.5,0,0,0,1.718-1.168.2.2,0,0,0,.006-.2,12.359,12.359,0,0,1-1.238-6.318.2.2,0,0,0-.183-.225.209.209,0,0,0-.225.182,12.606,12.606,0,0,0,1.227,6.443,2.007,2.007,0,0,1-1.33.88l-.07,0a.2.2,0,0,0,.014.41l.082,0" transform="translate(-140.81 -33.094)" fill="#242638"/>
          <path id="Trazado_168117" data-name="Trazado 168117" d="M174.864,28.054a7.169,7.169,0,0,0,1.033.617c.109-.014,7.737-11.529,10.309-17.369l14.142,9.8s-.769-10.749-4.776-13.369-6.251-6.123-13.917-3.354-10.788,9.488-9.469,15.866,2.678,7.813,2.678,7.813" transform="translate(-140.234 -2.056)" fill="#945661"/>
          <path id="Trazado_168118" data-name="Trazado 168118" d="M205.7,55.916c-.154-1.221.352-2.29,1.13-2.388s1.534.812,1.689,2.032-.352,2.29-1.131,2.388-1.534-.812-1.688-2.032" transform="translate(-161.562 -32.725)" fill="#242638"/>
          <path id="Trazado_168119" data-name="Trazado 168119" d="M178.5,52.8c-.154-1.221.352-2.29,1.13-2.388s1.534.812,1.689,2.032-.352,2.29-1.131,2.388-1.534-.812-1.688-2.032" transform="translate(-123.787 -30.817)" fill="#242638"/>
          <path id="Trazado_168120" data-name="Trazado 168120" d="M186.133,79.394l3.206-1.266,1.221.936,1.073-.994,2.549,1.191s-.914,3.981-3.795,4.17c-3.33.218-4.253-4.038-4.253-4.038" transform="translate(-139.601 -47.736)" fill="#f97070"/>
          <path id="Trazado_168121" data-name="Trazado 168121" d="M186.133,81.268l8.048-.132s-3.664,5.569-8.048.132" transform="translate(-139.601 -49.611)" fill="#fff"/>
          <path id="Trazado_168122" data-name="Trazado 168122" d="M192.4,207.9s8.508,6.137,15.343-.7c0,0-7.95,11.437-15.343.7" transform="translate(-155.596 -126.691)" fill="#242638"/>
          <path id="Trazado_168123" data-name="Trazado 168123" d="M205.738,722.505s5.354,1.147,7.572,4.283,4.742,7.725,11.855,7.725,8.489-.612,8.489-.612" transform="translate(-186.691 -441.775)" fill="none" stroke="#1a1a1a" stroke-linecap="round" stroke-linejoin="round" stroke-width="2.362"/>
        </g>
      </g>
    </g>
  </g>
</svg>
