<svg id="ana" xmlns="http://www.w3.org/2000/svg" xmlns:xlink="http://www.w3.org/1999/xlink" width="90" height="90" viewBox="0 0 90 90">
  <defs>
    <clipPath id="clip-path">
      <rect id="Rectángulo_42765" data-name="Rectángulo 42765" width="43.353" height="67.001" fill="none"/>
    </clipPath>
  </defs>
  <g id="Grupo_159043" data-name="Grupo 159043" transform="translate(0 0)">
    <circle id="Elipse_4780" data-name="Elipse 4780" cx="45" cy="45" r="45" transform="translate(0 0)" fill="#c4d1ff"/>
  </g>
  <g id="Grupo_169819" data-name="Grupo 169819" transform="translate(19.175 11.5)">
    <g id="Grupo_169819-2" data-name="Grupo 169819" clip-path="url(#clip-path)">
      <path id="Trazado_162688" data-name="Trazado 162688" d="M29.794,6.353c-.1-.173-.194-.336-.283-.488a5.489,5.489,0,0,0-1.8-2.389,9.252,9.252,0,0,0-4.006-1.554c-3.058-4.389-12.7-.594-12.774,4.684a9.842,9.842,0,0,0-1.674,2.48A8.47,8.47,0,0,0,8.434,12.4a4.059,4.059,0,0,0,1.839,3.776,5.818,5.818,0,0,0,4.237.521,4.636,4.636,0,0,0,2.36.938,6.655,6.655,0,0,0,3.73-1.046,27.326,27.326,0,0,1,2.967-1.771c1.668-.683,2.062-.226,3.3-.586,1.825-.525,5.127-2.986,4.867-5.2C31.6,7.793,30.42,7.381,29.794,6.353" transform="translate(-3.232 0)" fill="#301c15"/>
      <path id="Trazado_162689" data-name="Trazado 162689" d="M29.794,7.318c-.1-.173-.194-.336-.283-.488a10.09,10.09,0,0,1-1.572,2.02,7.562,7.562,0,0,1-1.655,1.233c-1.362-3.562-4.917-7.326-8.708-7.565-.714-.045-.942,1.06-.221,1.1,3.472.218,6.662,3.676,7.9,6.927a11.462,11.462,0,0,1-2.868.579A16.653,16.653,0,0,0,19.14,5.814c-.485-.537-1.218.319-.738.851a15.127,15.127,0,0,1,2.829,4.553c-.621.04-1.256.076-1.909.135-2.592.23-4.422,1.479-6.8,2.27a5.162,5.162,0,0,1-4.083-.261,4.059,4.059,0,0,0,1.839,3.776,5.818,5.818,0,0,0,4.237.521,4.636,4.636,0,0,0,2.36.938A6.655,6.655,0,0,0,20.6,17.55a27.326,27.326,0,0,1,2.967-1.771c1.668-.683,2.062-.226,3.3-.586,1.825-.525,5.127-2.986,4.867-5.2C31.6,8.758,30.42,8.346,29.794,7.318" transform="translate(-3.232 -0.965)" fill="#4a2f26"/>
      <path id="Trazado_162690" data-name="Trazado 162690" d="M39.826,29.826a39.455,39.455,0,0,1-2.884-4.536,8.538,8.538,0,0,0-2.414-2.823,12.691,12.691,0,0,0-13.091-.934,17.54,17.54,0,0,0-7.883.774,13.512,13.512,0,0,0-2.974,1.811c-1.4,1-2.992,1.35-4.345,2.371C2.37,29.406-1.267,35.581.426,40.531c2.171,6.347,8.734,2.147,13.1,1.153,3.634-.828,7.368-.83,11.011-1.664a69.208,69.208,0,0,1,6.946-1.394c2.109-.26,5.3-.8,7.307.2-.007.568.932.7,1.117.069.751-2.583,1.6-6.669-.083-9.069" transform="translate(0 -7.722)" fill="#301c15"/>
      <path id="Trazado_162691" data-name="Trazado 162691" d="M43.312,78.957c-7.433,3.032-18.241-3.788-21.566-9.083s-2.585-25.623.319-30.946c2.32-4.245,15.357-6.24,20.661-5.7,1.361.139,2.382,3.146,2.382,3.146s1.7,4.8,3.274,10.888l.048.2c.219.842.427,1.708.636,2.585.019.1.049.2.068.311.507,2.2.964,4.481,1.293,6.716,1.668,11.171-1.787,19.705-7.116,21.879" transform="translate(-7.496 -12.703)" fill="#bf613d"/>
      <path id="Trazado_162692" data-name="Trazado 162692" d="M41.928,66.657a1.318,1.318,0,0,0-.717-.781,4.649,4.649,0,0,0-1.64-.072,4.226,4.226,0,0,0-2.832,1.444.577.577,0,0,0,.67.9,7.249,7.249,0,0,1,4.054-.532c.662.157.692-.423.464-.957" transform="translate(-14.034 -25.206)" fill="#301c15"/>
      <path id="Trazado_162693" data-name="Trazado 162693" d="M63.559,65.111a1.318,1.318,0,0,0-.717-.781,4.649,4.649,0,0,0-1.64-.072A4.226,4.226,0,0,0,58.37,65.7a.577.577,0,0,0,.67.9,7.249,7.249,0,0,1,4.054-.532c.662.157.693-.423.464-.957" transform="translate(-22.325 -24.614)" fill="#301c15"/>
      <path id="Trazado_162694" data-name="Trazado 162694" d="M39.778,56.3c-1.592.406-3.047,1.29-4.654,1.653a3.558,3.558,0,0,0-.983.3,1.034,1.034,0,0,0-.1,1.732,2.287,2.287,0,0,0,.954.368,7.737,7.737,0,0,0,4.926-.671,3.45,3.45,0,0,0,2.011-2.243,1.191,1.191,0,0,0-.08-.773c-.289-.543-1.052-.578-1.656-.461q-.21.042-.417.094" transform="translate(-12.886 -21.52)" fill="#301c15"/>
      <path id="Trazado_162695" data-name="Trazado 162695" d="M63.608,58.465c-.21-.877-.418-1.743-.636-2.585a30.033,30.033,0,0,0-3.418-.749c-.147-.012-.284-.025-.43-.026-.612-.035-1.359.109-1.577.689a1.221,1.221,0,0,0,.033.777A3.438,3.438,0,0,0,59.9,58.5a7.628,7.628,0,0,0,3.779.272c-.019-.112-.049-.211-.067-.311" transform="translate(-22.037 -21.119)" fill="#301c15"/>
      <path id="Trazado_162696" data-name="Trazado 162696" d="M54.26,66.079c-.294-.656-1.359-.287-1.062.376.863,1.925,3.409,5.726,1.3,7.537-.544.467.085,1.4.636.93,2.8-2.4.3-6.242-.87-8.843" transform="translate(-20.37 -25.195)" fill="#85391b"/>
      <path id="Trazado_162697" data-name="Trazado 162697" d="M48.581,87.236c2.524.209,5.065.044,7.172-1.5.583-.427-.049-1.36-.636-.93A9.04,9.04,0,0,1,48.8,86.131c-.715-.059-.943,1.045-.221,1.1" transform="translate(-18.451 -32.462)" fill="#85391b"/>
      <path id="Trazado_162698" data-name="Trazado 162698" d="M36.883,28.241c-2.019-3.208-5.726-4.329-9.331-4.448A36.01,36.01,0,0,0,16.288,25.3a18.444,18.444,0,0,0-8.873,5.657.618.618,0,0,0-.049.091A11.737,11.737,0,0,0,6.333,32.2C4.077,35.086.811,35.834.517,39.474-.139,47.6,6.413,58,12.555,62.784a.57.57,0,0,0,.931-.466,20.715,20.715,0,0,1-.047-4.731c.2-1.375.863-2.559,1.185-3.887.648-2.672-.495-5.8.425-8.275.58-1.563,1.894-2.7,2.485-4.312a22.18,22.18,0,0,0,1.29-6,.906.906,0,0,1,.119-.468.892.892,0,0,1,.374-.26,13.734,13.734,0,0,1,6.012-1.315c1.09,0,10.151-.777,11.236-.689.913.075,1.9,2.413,1.9,2.413-.133-1.314-.314-2.63-.564-3.926a7.569,7.569,0,0,0-1.02-2.626" transform="translate(-0.181 -9.113)" fill="#301c15"/>
      <path id="Trazado_162699" data-name="Trazado 162699" d="M21.84,63.219a.44.44,0,0,0-.311-.347c-1.054-2.272-3.674-4.462-6.214-2.728-2.649,1.808-1.748,6.073-.558,8.441.9,1.8,3.79,5.64,6.286,4.066,2.712-1.71,1.355-7.054.8-9.432" transform="translate(-5.21 -22.813)" fill="#bf613d"/>
      <path id="Trazado_162700" data-name="Trazado 162700" d="M24.921,36.262a13.141,13.141,0,0,1-5.235-7.481c-.187-.7-1.248-.322-1.062.376a14.073,14.073,0,0,0,5.559,7.956c.588.413,1.331-.434.738-.851" transform="translate(-7.13 -10.889)" fill="#4a2f26"/>
      <path id="Trazado_162701" data-name="Trazado 162701" d="M28.762,34.821c-1.082-.912-2.046-1.977-3.043-2.978-.512-.514-1.247.34-.738.851,1,1,1.961,2.067,3.043,2.978.554.467,1.293-.383.738-.851" transform="translate(-9.509 -12.144)" fill="#4a2f26"/>
      <path id="Trazado_162702" data-name="Trazado 162702" d="M41.862,22.237c-.7-.193-.916.913-.221,1.1a14.181,14.181,0,0,1,4.038,1.8c1.152.754,2.955,1.987,3.251,3.417.144.7,1.27.628,1.123-.08-.688-3.326-5.262-5.431-8.191-6.238" transform="translate(-15.797 -8.514)" fill="#4a2f26"/>
      <path id="Trazado_162703" data-name="Trazado 162703" d="M16.219,45.868A14.353,14.353,0,0,1,12.6,31.152c.218-.691-.889-.906-1.1-.221a15.471,15.471,0,0,0,3.984,15.789c.517.509,1.253-.344.738-.851" transform="translate(-4.129 -11.695)" fill="#4a2f26"/>
      <path id="Trazado_162704" data-name="Trazado 162704" d="M20.991,67.658a5.154,5.154,0,0,0-.073,4.252c.285.661,1.35.292,1.061-.376A4.038,4.038,0,0,1,22,68.156c.3-.659-.707-1.156-1.011-.5" transform="translate(-7.855 -25.813)" fill="#85391b"/>
    </g>
  </g>
</svg>
