<svg xmlns="http://www.w3.org/2000/svg" xmlns:xlink="http://www.w3.org/1999/xlink" width="1328" height="594" viewBox="0 0 1328 594">
  <defs>
    <clipPath id="clip-path">
      <rect id="Rectángulo_42981" data-name="Rectángulo 42981" width="1328" height="594" transform="translate(136 768)" fill="#c4d1ff"/>
    </clipPath>
  </defs>
  <g id="bg-card" transform="translate(-136 -768)">
    <rect id="bg-card-2" data-name="bg-card" width="1328" height="594" transform="translate(136 768)" fill="#c4d1ff"/>
    <g id="Enmascarar_grupo_244" data-name="Enmascarar grupo 244" clip-path="url(#clip-path)">
      <g id="Grupo_170305" data-name="Grupo 170305" transform="translate(193.861 745.326) rotate(-30)">
        <g id="Grupo_82657" data-name="Grupo 82657" transform="translate(160.998 212.86)" style="mix-blend-mode: overlay;isolation: isolate">
          <path id="Trazado_115694" data-name="Trazado 115694" d="M998.751,653.183C937,716.372,873.18,777.241,808.145,837.034c28.121-63.574,58.434-126.135,85.132-190.376,30.262-72.828,65.445-172.1,27.288-248.489-86.953-174.123-306.757-3.268-387.646,84.376-8.614,9.344-16.842,19.1-25.173,28.736,28.9-70.777,54.922-143.5,48.052-219.97-9.446-105.14-105.832-130.365-188.811-81.505C277.88,262.255,206.308,353.014,146.553,435.442,95.8,505.45,211.935,572.1,262.294,503.092a910.453,910.453,0,0,1,90.477-105.833q-7.21,13.208-14.573,26.365c-32.466,58-64.535,116.227-90.99,177.276-50.654,116.881-125.571,278.7-61.844,401.643,32.12,61.959,107.435,68.252,164.138,43.04,76.225-33.889,129.019-108.7,179.917-172.021,53.128-66.112,99.924-136.312,149.1-205.295,20.546-28.826,41.079-58.062,64.612-84.568.538-.615,1.1-1.179,1.64-1.782l-.589,1.859c-13.061,40.605-29.852,79.57-46.86,118.637C665.693,775.1,624.883,851.607,613.3,930.69c-10.241,69.931,18.073,148.309,102.18,143.234,79.07-4.768,142.439-80.928,195.3-131.788,64.01-61.6,126.878-124.418,189.76-187.171C1166.2,689.443,1063.619,586.827,998.751,653.183Z" transform="translate(-121.026 -172.991)" fill="#3c384f"/>
          <path id="Trazado_115695" data-name="Trazado 115695" d="M719.9,1098.821c-31.031,0-57.37-10.895-76.532-31.761-26.634-29.006-38.144-76.25-30.8-126.379,9.575-65.356,38.08-127.955,65.638-188.478,6.6-14.5,13.138-28.852,19.315-43.053,5.858-13.471,12.023-27.621,18.137-42.259q-5.614,7.825-11.113,15.56l-3.64,5.114q-19.168,26.878-37.991,53.91c-35.389,50.5-71.982,102.731-111.562,151.975-5.781,7.19-11.587,14.535-17.457,21.956-45.386,57.4-96.822,122.443-167.24,153.743-62.779,27.878-145,20.072-180.711-48.847-64.176-123.8,5.114-283.109,55.717-399.426l5.742-13.228c14.881-34.363,31.569-67.906,49.27-101.3q-6.152,8.017-12.074,16.15C253.47,565.16,198.945,564.519,164.2,539.243c-28.736-20.905-44.861-59.767-16.073-99.475,63.792-87.991,135.12-176.661,224.316-229.161,49.5-29.134,103.679-33.863,144.964-12.651,36.35,18.675,58.768,55.627,63.112,104.064,5.1,56.806-7.165,111.177-24.942,163.049,65.817-64.3,187.543-155.5,285.2-141.682,44.861,6.37,79.583,33.594,103.2,80.9,38.862,77.8,8.2,174.661-26.916,259.14-16.714,40.221-35.094,80.339-52.871,119.15L857.9,796.307c52.9-49.6,100.219-95.809,143.643-140.234v.013c21.469-21.982,48.744-30.056,76.724-22.789,30.723,8,56.986,34.055,65.343,64.868,7.665,28.262-.167,55.87-22.071,77.724l-7.152,7.126c-59.536,59.421-121.1,120.867-182.775,180.2-7.6,7.319-15.406,15.15-23.456,23.225-47.885,48-107.473,107.755-179.955,112.126C725.4,1098.745,722.635,1098.821,719.9,1098.821ZM756.678,581.5a12.1,12.1,0,0,1,6.2,1.654c5.153,3.05,7.9,8.857,6.05,14.547l-.6,1.871c-13.689,42.579-31.544,83.607-47.3,119.8-6.242,14.343-12.843,28.826-19.5,43.438-26.814,58.908-54.55,119.816-63.6,181.583-6.14,41.938,3.178,82.3,24.314,105.32,15.676,17.073,37.311,24.8,64.394,23.263,62.753-3.794,116.2-57.37,163.357-104.653,8.177-8.19,16.111-16.15,23.827-23.584,61.51-59.178,122.995-120.534,182.454-179.878l7.139-7.126c19.38-19.329,19.085-39.413,15.445-52.859-5.934-21.879-25.288-41.105-47.052-46.771-13.266-3.461-33.017-3.486-51.936,15.881V674C963.78,731.387,901.27,791.68,828.762,858.317a12.818,12.818,0,0,1-20.392-14.624C819,819.66,829.941,795.782,840.887,771.9c17.675-38.606,35.965-78.519,52.5-118.316,32.9-79.134,61.908-169.278,27.66-237.838-19.905-39.887-47.347-61.792-83.889-66.97-91.042-12.894-219.073,85.184-282.865,154.32-6.806,7.357-13.356,15-19.918,22.635l-4.96,5.781A12.817,12.817,0,0,1,507.842,518.3c27.519-67.419,53.833-139.478,47.142-214-3.589-39.926-20.636-68.816-49.3-83.543-33.427-17.175-78.378-12.7-120.252,11.933C300.3,282.82,231.04,369.068,168.876,454.816c-19.636,27.1-7.511,50.68,10.395,63.7,24.25,17.624,62.138,19.7,84.62-11.125A928.215,928.215,0,0,1,355.637,400.06a12.822,12.822,0,0,1,20.341,15.188q-7.248,13.266-14.65,26.48c-32.864,58.729-64.522,116.394-90.4,176.11l-5.755,13.253C216.62,742.692,150.15,895.539,208.7,1008.5c28.442,54.871,95.758,60.228,147.553,37.221C420.89,1017,468.121,957.267,513.79,899.5c5.909-7.46,11.766-14.868,17.6-22.11,39.041-48.59,75.379-100.462,110.536-150.629q18.957-27.07,38.106-54.076l3.64-5.1C702.96,640.5,722.9,612.507,745.5,587.039l1.141-1.243A13.993,13.993,0,0,1,756.678,581.5Zm254.039,83.531h0Z" transform="translate(-132.979 -184.841)" fill="#3c384f"/>
          <path id="Trazado_115696" data-name="Trazado 115696" d="M191.6,229.284c-47.219,94.9-73.866,206.154-32.377,308.154,6.127,15.086,30.928,8.485,24.712-6.819-38.939-95.771-14.612-199.143,29.8-288.4C221.07,227.5,198.96,214.493,191.6,229.284Z" transform="translate(-65.832 263.327)" fill="#3c384f"/>
          <path id="Trazado_115697" data-name="Trazado 115697" d="M182.131,308.376c-.218-.025-.423-.09-.628-.128-.359-.692-.679-1.448-.795-1.653l-.064-.077c-.026-.1.013-.026-.026-.179-1.653-5.729-2.833-11.523-4.089-17.355q-4.345-20.284-8.7-40.567c-1.41-6.563-9.446-11-15.765-8.946a13.117,13.117,0,0,0-8.959,15.765q4.922,22.936,9.856,45.886c2.73,12.727,7.1,29.429,22.353,31.979,6.588,1.1,14.125-1.73,15.765-8.96C192.487,317.951,189.206,309.556,182.131,308.376Z" transform="translate(-17.433 454.77)" fill="#3c384f"/>
          <path id="Trazado_115698" data-name="Trazado 115698" d="M224.532,203.224c-14.548-7.767-27.506,14.355-12.933,22.135,20.123,10.741,26.263,32.607,27.057,54.089.923,24.391-1.82,49.462-5.78,73.482a487.692,487.692,0,0,1-44.489,137.683c-7.319,14.727,14.778,27.724,22.136,12.933a512.963,512.963,0,0,0,49.757-162.152C266.316,295.2,273.545,229.384,224.532,203.224Z" transform="translate(504.473 13.162)" fill="#3c384f"/>
        </g>
        <g id="Grupo_82660" data-name="Grupo 82660" transform="translate(130.608 182.47)">
          <g id="Grupo_82659" data-name="Grupo 82659">
            <g id="Grupo_82658" data-name="Grupo 82658">
              <path id="Trazado_115699" data-name="Trazado 115699" d="M996.39,650.815C934.637,714,870.819,774.874,805.771,834.654c28.121-63.561,58.447-126.135,85.145-190.362,30.262-72.828,65.432-172.1,27.288-248.489-86.953-174.123-306.757-3.281-387.647,84.376-8.626,9.331-16.842,19.085-25.173,28.737,28.89-70.777,54.909-143.5,48.052-219.971C543.991,183.8,447.6,158.579,364.625,207.426,275.506,259.887,203.947,350.647,144.18,433.075c-50.756,70.008,65.394,136.658,115.753,67.65A911.482,911.482,0,0,1,350.4,394.879q-7.21,13.208-14.561,26.378c-32.466,58-64.535,116.227-90.99,177.263C194.181,715.415,119.276,877.22,183,1000.177c32.12,61.959,107.422,68.252,164.138,43.04,76.224-33.889,129.019-108.7,179.916-172.021C580.187,805.085,626.97,734.884,676.15,665.9c20.559-28.826,41.092-58.062,64.612-84.581.538-.6,1.115-1.166,1.654-1.782l-.59,1.871c-13.061,40.605-29.864,79.57-46.86,118.637-31.646,72.674-72.443,149.181-84.03,228.276-10.254,69.931,18.073,148.309,102.18,143.233,79.057-4.768,142.426-80.928,195.285-131.787,64.022-61.6,126.891-124.43,189.773-187.184C1163.823,687.075,1061.246,584.46,996.39,650.815Z" transform="translate(-118.666 -170.623)" fill="#a6bbff"/>
              <path id="Trazado_115700" data-name="Trazado 115700" d="M717.521,1096.438c-31.031,0-57.358-10.882-76.519-31.748-26.634-29.006-38.144-76.25-30.8-126.392,9.562-65.343,38.068-127.942,65.638-188.479,6.588-14.5,13.125-28.839,19.316-43.04,5.857-13.471,12.022-27.621,18.136-42.259-3.743,5.2-7.447,10.408-11.113,15.56l-3.64,5.1c-12.779,17.919-25.391,35.927-38,53.91C625.159,789.6,588.566,841.835,548.986,891.067q-8.671,10.8-17.457,21.969c-45.386,57.383-96.822,122.431-167.24,153.743-62.792,27.878-145,20.059-180.711-48.859-64.176-123.79,5.114-283.1,55.7-399.426l5.755-13.215c14.881-34.363,31.569-67.906,49.257-101.3Q288.16,512,282.219,520.121c-31.12,42.669-85.645,42.028-120.393,16.752-28.736-20.905-44.861-59.767-16.073-99.475,63.792-87.991,135.12-176.661,224.3-229.173,49.513-29.121,103.679-33.85,144.977-12.638,36.35,18.675,58.755,55.615,63.112,104.051,5.1,56.806-7.165,111.19-24.955,163.049,65.83-64.292,187.543-155.487,285.2-141.67,44.861,6.37,79.6,33.594,103.218,80.9,38.849,77.8,8.19,174.649-26.916,259.141C897.976,701.268,879.6,741.4,861.818,780.2l-6.293,13.727c52.9-49.59,100.218-95.8,143.644-140.221h0c21.469-21.982,48.744-30.044,76.724-22.776,30.723,8,56.986,34.056,65.33,64.868,7.677,28.262-.154,55.858-22.058,77.711l-7.152,7.139c-59.536,59.421-121.1,120.854-182.775,180.2-7.6,7.319-15.407,15.15-23.469,23.225-47.873,48-107.46,107.755-179.942,112.126C723.02,1096.361,720.264,1096.438,717.521,1096.438Zm36.773-517.319a12.081,12.081,0,0,1,6.2,1.666c5.166,3.051,7.908,8.844,6.063,14.548l-.6,1.871c-13.689,42.566-31.543,83.607-47.3,119.8-6.242,14.33-12.843,28.813-19.5,43.438-26.827,58.908-54.563,119.816-63.612,181.57-6.139,41.938,3.179,82.3,24.327,105.333,15.663,17.06,37.311,24.8,64.394,23.263,62.754-3.794,116.2-57.37,163.344-104.653,8.178-8.2,16.124-16.163,23.84-23.584C972.97,883.2,1034.454,821.84,1093.914,762.5l7.139-7.139c19.367-19.316,19.085-39.4,15.432-52.858-5.934-21.866-25.276-41.105-47.052-46.758-13.253-3.461-33-3.486-51.923,15.881h0C961.409,729,898.9,789.3,826.391,855.947A12.818,12.818,0,0,1,806,841.323c10.625-24.032,21.572-47.911,32.5-71.8,17.688-38.593,35.965-78.506,52.513-118.3,32.889-79.134,61.908-169.278,27.66-237.851-19.918-39.874-47.36-61.779-83.889-66.97-91.041-12.881-219.086,85.2-282.878,154.32-6.793,7.37-13.343,15.009-19.905,22.635l-4.973,5.793a12.821,12.821,0,0,1-21.572-13.227C532.99,448.51,559.3,376.439,552.613,301.932c-3.589-39.939-20.636-68.829-49.3-83.556-33.44-17.162-78.378-12.689-120.252,11.946C297.921,280.437,228.669,366.7,166.5,452.445c-19.649,27.1-7.511,50.667,10.395,63.689,24.25,17.637,62.138,19.713,84.62-11.113A925.9,925.9,0,0,1,353.266,397.69a12.813,12.813,0,0,1,20.328,15.176q-7.248,13.285-14.637,26.493c-32.876,58.729-64.522,116.394-90.413,176.11l-5.755,13.253c-48.539,111.6-115.01,264.447-56.46,377.393,28.442,54.884,95.758,60.241,147.553,37.234,64.638-28.724,111.87-88.465,157.538-146.22q8.863-11.209,17.585-22.123C568.058,826.429,604.4,774.557,639.553,724.39c12.638-18.047,25.289-36.106,38.106-54.089l3.64-5.089c19.29-27.083,39.234-55.089,61.818-80.544l1.154-1.243A13.977,13.977,0,0,1,754.294,579.119Zm254.039,83.543h0Z" transform="translate(-130.608 -182.47)"/>
            </g>
            <path id="Trazado_115701" data-name="Trazado 115701" d="M189.238,226.915c-47.232,94.9-73.866,206.141-32.39,308.154,6.14,15.073,30.941,8.485,24.725-6.819-38.952-95.784-14.624-199.142,29.8-288.4C218.692,225.121,196.6,212.124,189.238,226.915Z" transform="translate(-63.467 265.697)"/>
            <path id="Trazado_115702" data-name="Trazado 115702" d="M179.759,306.005c-.218-.026-.423-.09-.628-.128-.359-.7-.692-1.448-.808-1.653l-.051-.077c-.026-.1.013-.038-.026-.192-1.654-5.717-2.846-11.523-4.089-17.342q-4.364-20.283-8.7-40.567c-1.41-6.562-9.446-11-15.778-8.946-6.908,2.23-10.459,8.729-8.947,15.765l9.844,45.873c2.743,12.74,7.114,29.441,22.366,31.992,6.588,1.09,14.125-1.73,15.765-8.959C190.116,315.58,186.822,307.185,179.759,306.005Z" transform="translate(-15.062 457.142)"/>
            <path id="Trazado_115703" data-name="Trazado 115703" d="M222.165,200.853c-14.548-7.767-27.519,14.355-12.933,22.135,20.123,10.741,26.25,32.607,27.057,54.076.923,24.391-1.82,49.475-5.781,73.494A487.684,487.684,0,0,1,186.02,488.243c-7.331,14.727,14.778,27.724,22.135,12.933a513.49,513.49,0,0,0,49.757-162.152C263.949,292.817,271.178,227,222.165,200.853Z" transform="translate(506.841 15.533)"/>
          </g>
        </g>
      </g>
      <g id="Grupo_170306" data-name="Grupo 170306" transform="translate(113.234 2044.895) rotate(-150)">
        <g id="Grupo_82657-2" data-name="Grupo 82657" transform="translate(30.39 0)" style="mix-blend-mode: overlay;isolation: isolate">
          <path id="Trazado_115694-2" data-name="Trazado 115694" d="M864.76,420.975c-61.754-63.189-125.571-124.059-190.606-183.851C702.275,300.7,732.588,363.259,759.286,427.5c30.262,72.828,65.445,172.1,27.288,248.489-86.952,174.123-306.757,3.268-387.646-84.376-8.614-9.344-16.842-19.1-25.173-28.736,28.9,70.777,54.922,143.5,48.052,219.97-9.446,105.14-105.832,130.365-188.811,81.505C143.889,811.9,72.317,721.144,12.562,638.715c-50.756-70.008,65.381-136.658,115.74-67.65A910.458,910.458,0,0,0,218.78,676.9q-7.21-13.208-14.573-26.365c-32.466-58-64.535-116.227-90.99-177.276C62.563,356.376-12.354,194.557,51.373,71.614,83.494,9.655,158.808,3.362,215.512,28.573c76.225,33.889,129.019,108.7,179.917,172.021,53.128,66.112,99.924,136.312,149.1,205.295,20.546,28.826,41.079,58.062,64.612,84.568.538.615,1.1,1.179,1.64,1.782l-.589-1.859c-13.061-40.605-29.852-79.57-46.86-118.637C531.7,299.057,490.892,222.55,479.3,143.468,469.064,73.536,497.378-4.841,581.484.234,660.555,5,723.923,81.163,776.782,132.022c64.01,61.6,126.878,124.418,189.76,187.171C1032.2,384.715,929.628,487.33,864.76,420.975Z" transform="translate(12.965 12.814)" fill="#3c384f"/>
          <path id="Trazado_115695-2" data-name="Trazado 115695" d="M586.925,0c-31.031,0-57.37,10.895-76.532,31.761-26.634,29.006-38.144,76.25-30.8,126.379,9.575,65.356,38.08,127.955,65.638,188.478,6.6,14.5,13.138,28.852,19.315,43.053,5.858,13.471,12.023,27.621,18.137,42.259q-5.614-7.825-11.113-15.56l-3.64-5.114q-19.168-26.878-37.991-53.91c-35.389-50.5-71.982-102.731-111.562-151.975-5.781-7.19-11.587-14.535-17.457-21.956C355.535,126.02,304.1,60.972,233.68,29.672,170.9,1.794,88.678,9.6,52.969,78.519c-64.176,123.8,5.114,283.109,55.717,399.426l5.742,13.228c14.881,34.363,31.569,67.906,49.27,101.3q-6.152-8.017-12.074-16.15C120.491,533.661,65.966,534.3,31.218,559.578c-28.736,20.905-44.861,59.767-16.073,99.475,63.792,87.991,135.12,176.661,224.316,229.161,49.5,29.134,103.679,33.863,144.964,12.651,36.35-18.675,58.768-55.627,63.112-104.064,5.1-56.806-7.165-111.177-24.942-163.049,65.817,64.3,187.543,155.5,285.2,141.682,44.861-6.37,79.583-33.594,103.2-80.9,38.862-77.8,8.2-174.661-26.916-259.14-16.714-40.221-35.094-80.339-52.871-119.15l-6.293-13.727c52.9,49.6,100.219,95.809,143.643,140.234v-.013c21.469,21.982,48.744,30.056,76.724,22.789,30.723-8,56.986-34.055,65.343-64.868,7.665-28.262-.167-55.87-22.071-77.724l-7.152-7.126c-59.536-59.421-121.1-120.867-182.775-180.2-7.6-7.319-15.406-15.15-23.456-23.225C727.288,64.381,667.7,4.627,595.218.256,592.424.077,589.656,0,586.925,0ZM623.7,517.319a12.1,12.1,0,0,0,6.2-1.654c5.153-3.05,7.9-8.857,6.05-14.547l-.6-1.871c-13.689-42.579-31.544-83.607-47.3-119.8-6.242-14.343-12.843-28.826-19.5-43.438-26.814-58.908-54.55-119.816-63.6-181.583-6.14-41.938,3.178-82.3,24.314-105.32,15.676-17.073,37.311-24.8,64.394-23.263,62.753,3.794,116.2,57.37,163.357,104.653,8.177,8.19,16.111,16.15,23.827,23.584,61.51,59.178,122.995,120.534,182.454,179.878l7.139,7.126c19.38,19.329,19.085,39.413,15.445,52.859-5.934,21.879-25.288,41.105-47.052,46.771-13.266,3.461-33.017,3.486-51.936-15.881v-.013C830.8,367.434,768.29,307.141,695.783,240.5a12.818,12.818,0,0,0-20.392,14.624c10.626,24.032,21.572,47.911,32.518,71.79,17.675,38.606,35.965,78.519,52.5,118.316,32.9,79.134,61.908,169.278,27.66,237.838-19.905,39.887-47.347,61.792-83.889,66.97-91.042,12.894-219.073-85.184-282.865-154.32-6.806-7.357-13.356-15-19.918-22.635l-4.96-5.781a12.817,12.817,0,0,0-21.571,13.215C402.382,647.94,428.7,720,422,794.519c-3.589,39.926-20.636,68.816-49.3,83.543-33.427,17.175-78.378,12.7-120.252-11.933C167.325,816,98.06,729.753,35.9,644.005c-19.636-27.1-7.511-50.68,10.395-63.7,24.25-17.624,62.138-19.7,84.62,11.125a928.219,928.219,0,0,0,91.746,107.332A12.822,12.822,0,0,0,243,683.572q-7.248-13.266-14.65-26.48c-32.864-58.729-64.522-116.394-90.4-176.11l-5.755-13.253C83.641,356.129,17.17,203.282,75.72,90.323,104.162,35.453,171.478,30.1,223.273,53.1c64.638,28.723,111.869,88.452,157.537,146.22,5.909,7.46,11.766,14.868,17.6,22.11,39.041,48.59,75.379,100.462,110.536,150.629q18.957,27.07,38.106,54.076l3.64,5.1c19.29,27.083,39.234,55.076,61.831,80.544l1.141,1.243A13.993,13.993,0,0,0,623.7,517.319Zm254.039-83.531h0Z" transform="translate(0 0)" fill="#3c384f"/>
          <path id="Trazado_115696-2" data-name="Trazado 115696" d="M52.942,316.68C5.723,221.78-20.924,110.526,20.565,8.526,26.692-6.56,51.494.041,45.277,15.345c-38.939,95.771-14.612,199.143,29.8,288.4C82.409,318.461,60.3,331.471,52.942,316.68Z" transform="translate(72.83 104.69)" fill="#3c384f"/>
          <path id="Trazado_115697-2" data-name="Trazado 115697" d="M39.373,24.955c-.218.025-.423.09-.628.128-.359.692-.679,1.448-.795,1.653l-.064.077c-.026.1.013.026-.026.179-1.653,5.729-2.833,11.523-4.089,17.355q-4.345,20.284-8.7,40.567c-1.41,6.563-9.446,11-15.765,8.946A13.117,13.117,0,0,1,.345,78.1Q5.266,55.159,10.2,32.21C12.931,19.482,17.3,2.781,32.555.23c6.588-1.1,14.125,1.73,15.765,8.96C49.73,15.38,46.449,23.776,39.373,24.955Z" transform="translate(125.324 125.879)" fill="#3c384f"/>
          <path id="Trazado_115698-2" data-name="Trazado 115698" d="M37.61,306.843C23.063,314.61,10.1,292.488,24.678,284.708,44.8,273.967,50.94,252.1,51.735,230.619c.923-24.391-1.82-49.462-5.78-73.482A487.691,487.691,0,0,0,1.465,19.454C-5.853,4.727,16.244-8.27,23.6,6.521A512.962,512.962,0,0,1,73.358,168.673C79.395,214.866,86.623,280.683,37.61,306.843Z" transform="translate(691.395 390.751)" fill="#3c384f"/>
        </g>
        <g id="Grupo_82660-2" data-name="Grupo 82660" transform="translate(0 30.403)">
          <g id="Grupo_82659-2" data-name="Grupo 82659">
            <g id="Grupo_82658-2" data-name="Grupo 82658">
              <path id="Trazado_115699-2" data-name="Trazado 115699" d="M864.771,420.975C803.018,357.786,739.2,296.916,674.153,237.137,702.274,300.7,732.6,363.271,759.3,427.5c30.262,72.828,65.432,172.1,27.288,248.489-86.953,174.123-306.757,3.281-387.647-84.376-8.626-9.331-16.842-19.085-25.173-28.737,28.89,70.777,54.909,143.5,48.052,219.971-9.446,105.14-105.833,130.365-188.812,81.518C143.888,811.9,72.328,721.144,12.561,638.716c-50.756-70.008,65.394-136.658,115.753-67.65a911.479,911.479,0,0,0,90.465,105.845q-7.21-13.208-14.561-26.378c-32.466-58-64.535-116.227-90.99-177.263C62.562,356.376-12.342,194.57,51.385,71.614,83.505,9.655,158.807,3.362,215.524,28.573c76.224,33.889,129.019,108.7,179.916,172.021,53.128,66.112,99.911,136.312,149.091,205.295,20.559,28.826,41.092,58.062,64.612,84.581.538.6,1.115,1.166,1.654,1.782l-.59-1.871c-13.061-40.605-29.864-79.57-46.86-118.637C531.7,299.07,490.9,222.563,479.317,143.467,469.063,73.536,497.389-4.842,581.5.234,660.553,5,723.922,81.163,776.781,132.022c64.022,61.6,126.891,124.43,189.773,187.184C1032.2,384.715,929.627,487.33,864.771,420.975Z" transform="translate(12.953 12.801)" fill="#a6bbff"/>
              <path id="Trazado_115700-2" data-name="Trazado 115700" d="M586.913,0c-31.031,0-57.358,10.882-76.519,31.748-26.634,29.006-38.144,76.25-30.8,126.392,9.562,65.343,38.068,127.942,65.638,188.479,6.588,14.5,13.125,28.839,19.316,43.04,5.857,13.471,12.022,27.621,18.136,42.259-3.743-5.2-7.447-10.408-11.113-15.56l-3.64-5.1c-12.779-17.919-25.391-35.927-38-53.91C494.551,306.833,457.958,254.6,418.378,205.372q-8.671-10.8-17.457-21.969C355.534,126.02,304.1,60.972,233.68,29.659,170.888,1.782,88.678,9.6,52.969,78.519c-64.176,123.79,5.114,283.1,55.7,399.426l5.755,13.215c14.881,34.363,31.569,67.906,49.257,101.3q-6.133-8.017-12.074-16.137c-31.12-42.669-85.645-42.028-120.393-16.752C2.482,580.47-13.642,619.332,15.145,659.041c63.792,87.991,135.12,176.661,224.3,229.173,49.513,29.121,103.679,33.85,144.977,12.638,36.35-18.675,58.755-55.615,63.112-104.051,5.1-56.806-7.165-111.19-24.955-163.049,65.83,64.292,187.543,155.487,285.2,141.669,44.861-6.37,79.6-33.594,103.218-80.9,38.849-77.8,8.19-174.649-26.916-259.14-16.714-40.208-35.094-80.339-52.871-119.137l-6.293-13.727c52.9,49.59,100.218,95.8,143.643,140.221h0c21.469,21.982,48.744,30.044,76.724,22.776,30.723-8,56.986-34.056,65.33-64.868,7.677-28.262-.154-55.858-22.058-77.711l-7.152-7.139c-59.536-59.421-121.1-120.854-182.775-180.2-7.6-7.319-15.407-15.15-23.469-23.225C727.288,64.368,667.7,4.614,595.218.244,592.411.077,589.656,0,586.913,0Zm36.773,517.319a12.081,12.081,0,0,0,6.2-1.666c5.166-3.051,7.908-8.844,6.063-14.548l-.6-1.871c-13.689-42.566-31.543-83.607-47.3-119.8-6.242-14.33-12.843-28.813-19.5-43.438C541.732,277.085,514,216.177,504.946,154.423c-6.139-41.938,3.179-82.3,24.327-105.333,15.663-17.06,37.311-24.8,64.394-23.263,62.754,3.794,116.2,57.37,163.344,104.653,8.178,8.2,16.124,16.163,23.84,23.584,61.51,59.177,122.995,120.534,182.454,179.878l7.139,7.139c19.367,19.316,19.085,39.4,15.432,52.858-5.934,21.866-25.276,41.105-47.052,46.758-13.253,3.461-33,3.486-51.923-15.881h0C830.8,367.434,768.29,307.141,695.783,240.491a12.818,12.818,0,0,0-20.392,14.625c10.625,24.032,21.572,47.911,32.5,71.8,17.688,38.593,35.965,78.506,52.512,118.3,32.889,79.134,61.908,169.278,27.66,237.851-19.918,39.874-47.36,61.779-83.889,66.97-91.041,12.881-219.086-85.2-282.878-154.32-6.793-7.37-13.343-15.009-19.905-22.635l-4.973-5.793a12.821,12.821,0,0,0-21.572,13.227C402.382,647.928,428.7,720,422,794.507c-3.589,39.939-20.636,68.829-49.3,83.556-33.44,17.162-78.378,12.689-120.252-11.946C167.312,816,98.06,729.741,35.9,643.993c-19.649-27.1-7.511-50.667,10.395-63.689,24.25-17.637,62.138-19.713,84.62,11.113a925.893,925.893,0,0,0,91.746,107.332,12.813,12.813,0,0,0,20.328-15.176q-7.248-13.285-14.637-26.493c-32.876-58.729-64.522-116.394-90.413-176.11l-5.755-13.253C83.641,356.116,17.17,203.27,75.72,90.324c28.441-54.884,95.758-60.241,147.553-37.234,64.638,28.724,111.869,88.465,157.537,146.22q8.863,11.209,17.585,22.123c39.055,48.578,75.391,100.449,110.549,150.616,12.638,18.047,25.289,36.106,38.106,54.089l3.64,5.089c19.29,27.083,39.234,55.088,61.818,80.544l1.154,1.243A13.977,13.977,0,0,0,623.685,517.319Zm254.039-83.543h0Z"/>
            </g>
            <path id="Trazado_115701-2" data-name="Trazado 115701" d="M52.949,316.674C5.717,221.775-20.918,110.534,20.559,8.52,26.7-6.553,51.5.036,45.284,15.339c-38.952,95.784-14.625,199.142,29.8,288.4C82.4,318.468,60.305,331.465,52.949,316.674Z" transform="translate(72.823 104.682)"/>
            <path id="Trazado_115702-2" data-name="Trazado 115702" d="M39.373,24.951c-.218.026-.423.09-.628.128-.359.7-.692,1.448-.808,1.653l-.051.077c-.026.1.013.038-.026.192-1.654,5.717-2.846,11.523-4.089,17.342q-4.364,20.283-8.7,40.567c-1.41,6.562-9.446,11-15.778,8.946C2.383,91.627-1.168,85.128.345,78.091l9.844-45.873C12.932,19.478,17.3,2.777,32.555.226c6.588-1.09,14.125,1.73,15.765,8.959C49.73,15.376,46.436,23.772,39.373,24.951Z" transform="translate(125.324 125.871)"/>
            <path id="Trazado_115703-2" data-name="Trazado 115703" d="M37.614,306.843c-14.548,7.767-27.519-14.355-12.933-22.135C44.8,273.967,50.931,252.1,51.739,230.632c.923-24.391-1.82-49.475-5.781-73.494A487.684,487.684,0,0,0,1.469,19.454C-5.862,4.727,16.248-8.27,23.6,6.521A513.489,513.489,0,0,1,73.362,168.673C79.4,214.879,86.628,280.7,37.614,306.843Z" transform="translate(691.391 390.739)"/>
          </g>
        </g>
      </g>
    </g>
  </g>
</svg>
