<svg xmlns="http://www.w3.org/2000/svg" width="288" height="115" viewBox="0 0 288 115">
  <g id="c3" transform="translate(-292 -1287)">
    <rect id="Rectángulo_43025" data-name="Rectángulo 43025" width="288" height="115" transform="translate(292 1287)" fill="#ff9fa3"/>
    <g id="Grupo_170332" data-name="Grupo 170332" transform="translate(6929 11799)">
      <path id="Trazado_165145" data-name="Trazado 165145" d="M10.777,11.008a4.855,4.855,0,0,1-.867,3.016,2.869,2.869,0,0,1-2.422,1.141,2.707,2.707,0,0,1-1.18-.246,2.423,2.423,0,0,1-.883-.723V18.25H3.152V6.547H5.207l.133,1a2.709,2.709,0,0,1,.9-.855,2.441,2.441,0,0,1,1.23-.3A2.813,2.813,0,0,1,9.91,7.617a5.474,5.474,0,0,1,.867,3.227ZM8.5,10.844a4.09,4.09,0,0,0-.4-1.937,1.3,1.3,0,0,0-1.219-.742A1.722,1.722,0,0,0,6,8.375a1.505,1.505,0,0,0-.574.6v3.7A1.4,1.4,0,0,0,6,13.227a1.935,1.935,0,0,0,.895.188,1.312,1.312,0,0,0,1.215-.648A3.423,3.423,0,0,0,8.5,11.008ZM17.168,15a4.8,4.8,0,0,1-.215-.609,4.239,4.239,0,0,1-.129-.656,3.127,3.127,0,0,1-.93,1.023,2.33,2.33,0,0,1-1.375.406,2.855,2.855,0,0,1-2.047-.684,2.449,2.449,0,0,1-.719-1.863,2.229,2.229,0,0,1,.957-1.926,4.78,4.78,0,0,1,2.793-.684h1.281V9.336a1.315,1.315,0,0,0-.32-.945,1.257,1.257,0,0,0-.953-.336,1.239,1.239,0,0,0-.855.27.941.941,0,0,0-.3.738h-2.2l-.016-.047a2.144,2.144,0,0,1,.934-1.848,4.055,4.055,0,0,1,2.582-.777,3.784,3.784,0,0,1,2.465.766,2.667,2.667,0,0,1,.941,2.2v3.492a6.6,6.6,0,0,0,.09,1.117A5.606,5.606,0,0,0,19.441,15Zm-2.086-1.523a1.944,1.944,0,0,0,1.063-.3,1.6,1.6,0,0,0,.641-.687V11.3H15.5a1.519,1.519,0,0,0-1.1.359,1.181,1.181,0,0,0-.371.883.881.881,0,0,0,.277.684A1.1,1.1,0,0,0,15.082,13.477Zm10.266-.82a.787.787,0,0,0-.363-.645,3.69,3.69,0,0,0-1.348-.473,5.375,5.375,0,0,1-2.254-.9,1.962,1.962,0,0,1-.77-1.633,2.329,2.329,0,0,1,.922-1.852,3.717,3.717,0,0,1,2.453-.766,4.011,4.011,0,0,1,2.566.766,2.237,2.237,0,0,1,.926,1.906l-.016.047h-2.2a1.106,1.106,0,0,0-.328-.828,1.534,1.534,0,0,0-1.812-.047.85.85,0,0,0-.32.672.759.759,0,0,0,.332.637,3.7,3.7,0,0,0,1.348.441A5.484,5.484,0,0,1,26.8,10.9a2.014,2.014,0,0,1,.762,1.668,2.231,2.231,0,0,1-.977,1.867A4.215,4.215,0,0,1,24,15.164a3.918,3.918,0,0,1-2.668-.855,2.392,2.392,0,0,1-.934-1.949l.016-.047H22.5a1.186,1.186,0,0,0,.445.984,1.838,1.838,0,0,0,1.1.3,1.567,1.567,0,0,0,.965-.254A.824.824,0,0,0,25.348,12.656Zm6.414-8.18v2.07h1.43v1.6h-1.43v4.3a.982.982,0,0,0,.207.7.727.727,0,0,0,.543.211,2.178,2.178,0,0,0,.313-.02,2.632,2.632,0,0,0,.3-.066l.188,1.648a4.618,4.618,0,0,1-.668.176,3.982,3.982,0,0,1-.707.059,2.431,2.431,0,0,1-1.816-.648,2.843,2.843,0,0,1-.637-2.055V8.148H28.254v-1.6h1.234V4.477Z" transform="translate(-6620 -10427)" fill="#12263f"/>
      <path id="Trazado_165144" data-name="Trazado 165144" d="M8.543,6.547l.1,1.211A3.092,3.092,0,0,1,9.684,6.75a2.7,2.7,0,0,1,1.383-.359,2.513,2.513,0,0,1,2,.824,3.908,3.908,0,0,1,.719,2.605V15H11.5V9.828a2.024,2.024,0,0,0-.316-1.285,1.166,1.166,0,0,0-.949-.379,1.992,1.992,0,0,0-.895.191,1.746,1.746,0,0,0-.637.527V15H6.418V6.547ZM15.137,10.7a4.536,4.536,0,0,1,1.055-3.1,3.676,3.676,0,0,1,2.922-1.207,3.715,3.715,0,0,1,2.938,1.2,4.512,4.512,0,0,1,1.063,3.1v.164a4.519,4.519,0,0,1-1.059,3.105,3.7,3.7,0,0,1-2.926,1.2,3.709,3.709,0,0,1-2.934-1.2,4.519,4.519,0,0,1-1.059-3.105Zm2.273.164a3.677,3.677,0,0,0,.406,1.855,1.561,1.561,0,0,0,2.605,0,3.653,3.653,0,0,0,.41-1.852V10.7a3.616,3.616,0,0,0-.414-1.836,1.4,1.4,0,0,0-1.3-.711,1.384,1.384,0,0,0-1.293.715,3.648,3.648,0,0,0-.41,1.832Zm14.461,1h.047l1.023-5.312H35.16L33.012,15H31.105l-1.57-4.875h-.047L27.918,15h-1.9L23.871,6.547H26.09l1.039,5.289h.047l1.578-5.289h1.523Z" transform="translate(-6463.789 -10427)" fill="#12263f"/>
      <g id="Rectángulo_43024" data-name="Rectángulo 43024" transform="translate(-6547 -10477)" fill="#fff" stroke="#3c3fa7" stroke-width="1">
        <rect width="105" height="25" stroke="none"/>
        <rect x="0.5" y="0.5" width="104" height="24" fill="none"/>
      </g>
      <path id="Trazado_165147" data-name="Trazado 165147" d="M9.1,10.273H4.73V15H2.449V3.625H9.895V5.383H4.73V8.516H9.1ZM13.574,15H11.293V6.547h2.281Zm0-10.477H11.293V2.813h2.281Zm3.961,2.023.1,1.211A3.092,3.092,0,0,1,18.676,6.75a2.7,2.7,0,0,1,1.383-.359,2.513,2.513,0,0,1,2,.824,3.908,3.908,0,0,1,.719,2.605V15H20.488V9.828a2.024,2.024,0,0,0-.316-1.285,1.166,1.166,0,0,0-.949-.379,1.992,1.992,0,0,0-.895.191,1.746,1.746,0,0,0-.637.527V15H15.41V6.547ZM26.879,15H24.6V6.547h2.281Zm0-10.477H24.6V2.813h2.281Zm6.445,8.133a.787.787,0,0,0-.363-.645,3.69,3.69,0,0,0-1.348-.473,5.375,5.375,0,0,1-2.254-.9,1.962,1.962,0,0,1-.77-1.633,2.329,2.329,0,0,1,.922-1.852,3.717,3.717,0,0,1,2.453-.766,4.011,4.011,0,0,1,2.566.766,2.237,2.237,0,0,1,.926,1.906l-.016.047h-2.2a1.106,1.106,0,0,0-.328-.828A1.534,1.534,0,0,0,31.1,8.234a.85.85,0,0,0-.32.672.759.759,0,0,0,.332.637,3.7,3.7,0,0,0,1.348.441,5.484,5.484,0,0,1,2.316.918,2.014,2.014,0,0,1,.762,1.668,2.231,2.231,0,0,1-.977,1.867,4.215,4.215,0,0,1-2.578.727,3.918,3.918,0,0,1-2.668-.855,2.392,2.392,0,0,1-.934-1.949l.016-.047H30.48a1.186,1.186,0,0,0,.445.984,1.838,1.838,0,0,0,1.1.3,1.567,1.567,0,0,0,.965-.254A.824.824,0,0,0,33.324,12.656ZM39.23,7.617a2.9,2.9,0,0,1,.977-.9,2.815,2.815,0,0,1,3.355.555,4.1,4.1,0,0,1,.754,2.715V15H42.035V9.969a2.336,2.336,0,0,0-.316-1.395,1.124,1.124,0,0,0-.949-.41,2.271,2.271,0,0,0-.91.168,1.571,1.571,0,0,0-.629.48V15H36.949V2.813H39.23ZM49.7,15.164A3.8,3.8,0,0,1,46.746,14a4.252,4.252,0,0,1-1.062-2.988V10.7a4.628,4.628,0,0,1,1.031-3.109,3.506,3.506,0,0,1,2.836-1.2,3.282,3.282,0,0,1,2.613,1.043,4.122,4.122,0,0,1,.91,2.809v1.18H48.035l-.023.047a2.284,2.284,0,0,0,.527,1.406,1.766,1.766,0,0,0,1.4.539,4.692,4.692,0,0,0,1.3-.156,5.307,5.307,0,0,0,1.105-.477l.617,1.406a4.234,4.234,0,0,1-1.375.7A6.1,6.1,0,0,1,49.7,15.164Zm-.148-7.016a1.267,1.267,0,0,0-1.059.473,2.371,2.371,0,0,0-.449,1.254l.016.039H50.84V9.742a1.974,1.974,0,0,0-.3-1.168A1.127,1.127,0,0,0,49.551,8.148Zm4.5,2.7a5.493,5.493,0,0,1,.863-3.227,2.8,2.8,0,0,1,2.434-1.227,2.367,2.367,0,0,1,1.141.273,2.744,2.744,0,0,1,.891.781V2.813h2.289V15H59.723l-.2-1.039a2.826,2.826,0,0,1-.945.895,2.5,2.5,0,0,1-1.25.309,2.858,2.858,0,0,1-2.418-1.141,4.871,4.871,0,0,1-.863-3.016Zm2.273.164a3.443,3.443,0,0,0,.375,1.746,1.306,1.306,0,0,0,1.219.637,1.775,1.775,0,0,0,.859-.2,1.589,1.589,0,0,0,.6-.582v-3.6a1.756,1.756,0,0,0-.6-.621,1.589,1.589,0,0,0-.848-.223,1.287,1.287,0,0,0-1.223.742,4.194,4.194,0,0,0-.387,1.938ZM70.152,4.477v2.07h1.43v1.6h-1.43v4.3a.982.982,0,0,0,.207.7.727.727,0,0,0,.543.211,2.178,2.178,0,0,0,.313-.02,2.632,2.632,0,0,0,.3-.066l.188,1.648a4.618,4.618,0,0,1-.668.176,3.982,3.982,0,0,1-.707.059,2.431,2.431,0,0,1-1.816-.648,2.843,2.843,0,0,1-.637-2.055V8.148H66.645v-1.6h1.234V4.477ZM75.387,15H73.105V6.547h2.281Zm0-10.477H73.105V2.813h2.281Zm3.992,2.023.094,1.117a2.84,2.84,0,0,1,1.02-.941,2.932,2.932,0,0,1,1.418-.332A2.582,2.582,0,0,1,83.3,6.75a2.217,2.217,0,0,1,.875,1.086,2.93,2.93,0,0,1,1.016-1.062,2.756,2.756,0,0,1,1.469-.383,2.408,2.408,0,0,1,1.973.887,4.233,4.233,0,0,1,.723,2.707V15H87.074V9.977a2.369,2.369,0,0,0-.312-1.414,1.109,1.109,0,0,0-.93-.4,1.592,1.592,0,0,0-.84.215,1.565,1.565,0,0,0-.566.6q0,.148.008.254t.008.215V15H82.168V9.977a2.376,2.376,0,0,0-.312-1.4,1.1,1.1,0,0,0-.937-.41,1.769,1.769,0,0,0-.809.176,1.551,1.551,0,0,0-.574.5V15H77.262V6.547ZM94.77,15.164A3.8,3.8,0,0,1,91.816,14a4.252,4.252,0,0,1-1.062-2.988V10.7a4.628,4.628,0,0,1,1.031-3.109,3.506,3.506,0,0,1,2.836-1.2,3.282,3.282,0,0,1,2.613,1.043,4.122,4.122,0,0,1,.91,2.809v1.18H93.105l-.023.047a2.284,2.284,0,0,0,.527,1.406,1.766,1.766,0,0,0,1.4.539,4.692,4.692,0,0,0,1.3-.156,5.307,5.307,0,0,0,1.105-.477l.617,1.406a4.234,4.234,0,0,1-1.375.7A6.1,6.1,0,0,1,94.77,15.164Zm-.148-7.016a1.267,1.267,0,0,0-1.059.473,2.371,2.371,0,0,0-.449,1.254l.016.039H95.91V9.742a1.974,1.974,0,0,0-.3-1.168A1.127,1.127,0,0,0,94.621,8.148Z" transform="translate(-6543 -10501)" fill="#12263f"/>
      <line id="Línea_631" data-name="Línea 631" x2="223" transform="translate(-6608.5 -10432.5)" fill="none" stroke="#3c3fa7" stroke-width="1"/>
      <line id="Línea_632" data-name="Línea 632" y2="53" transform="translate(-6546.5 -10485.5)" fill="none" stroke="#3c3fa7" stroke-width="1" stroke-dasharray="4"/>
      <path id="Trazado_166188" data-name="Trazado 166188" d="M.548.346V53.322" transform="translate(-6443 -10485.5)" fill="none" stroke="#3c3fa7" stroke-width="1"/>
      <path id="Trazado_166189" data-name="Trazado 166189" d="M5.508-.088A3.421,3.421,0,0,1,3.962.183q-2.446,0-2.446-2.542V-5.793H.3V-7.5H1.516V-9.119l2.307-.659V-7.5H5.508v1.707H3.823v3.032q0,1.172.93,1.172A1.568,1.568,0,0,0,5.508-1.8Zm4.819.271A4.032,4.032,0,0,1,7.379-.868,3.81,3.81,0,0,1,6.306-3.721,3.811,3.811,0,0,1,7.419-6.632a4.207,4.207,0,0,1,3.01-1.051,3.983,3.983,0,0,1,2.93,1.051,3.736,3.736,0,0,1,1.062,2.78A3.966,3.966,0,0,1,13.326-.9,4.076,4.076,0,0,1,10.327.183Zm.059-6.094a1.544,1.544,0,0,0-1.274.564,2.487,2.487,0,0,0-.454,1.6q0,2.161,1.743,2.161,1.663,0,1.663-2.219Q12.063-5.911,10.386-5.911ZM23.262,0H20.947V-1.033h-.029A2.6,2.6,0,0,1,18.6.183a2.843,2.843,0,0,1-2.263-.992,4.108,4.108,0,0,1-.857-2.772,4.471,4.471,0,0,1,.945-2.981A3.082,3.082,0,0,1,18.9-7.683a2.106,2.106,0,0,1,2.021,1.04h.029V-11.1h2.314ZM20.991-3.647v-.564a1.775,1.775,0,0,0-.425-1.216,1.4,1.4,0,0,0-1.106-.483,1.394,1.394,0,0,0-1.2.6,2.806,2.806,0,0,0-.432,1.659,2.428,2.428,0,0,0,.417,1.523,1.386,1.386,0,0,0,1.157.535,1.392,1.392,0,0,0,1.146-.564A2.351,2.351,0,0,0,20.991-3.647ZM31.45,0H29.26V-1.077h-.029A2.444,2.444,0,0,1,27,.183,2.337,2.337,0,0,1,25.28-.436a2.218,2.218,0,0,1-.626-1.652q0-2.183,2.585-2.52l2.036-.271q0-1.23-1.333-1.23a4.55,4.55,0,0,0-2.549.8V-7.053a5.734,5.734,0,0,1,1.322-.439,6.949,6.949,0,0,1,1.527-.19q3.208,0,3.208,3.2ZM29.275-3.047v-.505l-1.362.176q-1.128.146-1.128,1.018a.841.841,0,0,0,.275.648,1.055,1.055,0,0,0,.743.253,1.37,1.37,0,0,0,1.062-.45A1.627,1.627,0,0,0,29.275-3.047ZM40.422-7.5,37.375.6q-1.1,2.922-3.311,2.922a4.241,4.241,0,0,1-1.384-.19V1.487a1.946,1.946,0,0,0,1,.271A1.253,1.253,0,0,0,34.929.916l.4-.93L32.278-7.5h2.563l1.4,4.563a5.93,5.93,0,0,1,.205,1h.029a7,7,0,0,1,.242-.989L38.13-7.5Z" transform="translate(-6513 -10459)" fill="#12263f"/>
    </g>
  </g>
</svg>
