<svg xmlns="http://www.w3.org/2000/svg" xmlns:xlink="http://www.w3.org/1999/xlink" width="90" height="90" viewBox="0 0 90 90">
  <defs>
    <clipPath id="clip-path">
      <rect id="Rectángulo_37368" data-name="Rectángulo 37368" width="4.799" height="3.078" fill="none"/>
    </clipPath>
  </defs>
  <g id="david" transform="translate(-0.326 0.143)">
    <circle id="Elipse_4780" data-name="Elipse 4780" cx="45" cy="45" r="45" transform="translate(0.326 -0.143)" fill="#c4d1ff"/>
    <g id="Grupo_170532" data-name="Grupo 170532" transform="translate(-7348.409 9215.854)">
      <path id="Trazado_128800" data-name="Trazado 128800" d="M51.577,24.224s1.218-6.2-.371-11.348c-1.564-5.064-1.564-8.09-.589-8.988,3.071-2.829,5.958,4.053,5.958,4.053s-.81-6.4,1.847-6.577,4.515,6.02,4.515,6.02-.5-9.081,2.984-7.1,4.761,8.039,4.761,8.039,11.946,1.99,16.34,10c0,0,3.6-3.83,5.936-1.571s-2.521,6-2.521,6,3.736,2.458,3.16,5.987-5.015,1.111-5.015,1.111.747,18.889-15.3,24.079S51.577,24.224,51.577,24.224" transform="translate(7323.127 -9203.997)" fill="#d65900"/>
      <path id="Trazado_128801" data-name="Trazado 128801" d="M56.242,56.862l-.77,5.718a16.976,16.976,0,0,0,1.706,1.673c8.5,7.213,19.532,1.183,19.532,1.183l2.666-19.822L59,55.521Z" transform="translate(7322.944 -9205.511)" fill="#ff9568"/>
      <path id="Trazado_128802" data-name="Trazado 128802" d="M56.242,57.146l-.77,5.718a16.98,16.98,0,0,0,1.706,1.673C65.551,62.255,72.51,54.162,72.51,54.162L59,55.8Z" transform="translate(7322.944 -9205.795)" fill="#36251f"/>
      <path id="Trazado_128803" data-name="Trazado 128803" d="M52.561,34.3s-2.559-4-4.763-.64S45.938,44.483,50.73,43.916Z" transform="translate(7323.242 -9205.069)" fill="#e0693e"/>
      <path id="Trazado_128804" data-name="Trazado 128804" d="M48.079,43.42s-1.246,11.2,10.28,12.725a30.442,30.442,0,0,0,20.262-4.456l.014-.009.438-2.312,2.277-12,1.217-6.412s3.027-11.433-7.74-15.042C66.959,13.281,59.207,13.6,54.818,17.3c-.142.119-.28.243-.412.37A10.024,10.024,0,0,0,51.5,22.8L49.585,34.351l-.47,2.832Z" transform="translate(7323.19 -9204.468)" fill="#ff9568"/>
      <path id="Trazado_128805" data-name="Trazado 128805" d="M65.294,41.839s-1.662,4.808-5.66,5.465c-4.552.748-5.382-4.941-5.382-4.941Z" transform="translate(7322.984 -9205.385)" fill="#f4ece1"/>
      <path id="Trazado_128806" data-name="Trazado 128806" d="M58.044,49.192a2.42,2.42,0,0,1-.266-.1.37.37,0,0,1,.3-.675,2.371,2.371,0,0,0,2.336-.3.37.37,0,1,1,.462.578,3.054,3.054,0,0,1-2.837.489" transform="translate(7322.874 -9205.592)" fill="#e0693e"/>
      <path id="Trazado_128807" data-name="Trazado 128807" d="M65.743,33.859c-.149,1.108.233,2.074.853,2.157s1.242-.747,1.392-1.855-.233-2.073-.853-2.157-1.243.747-1.392,1.855" transform="translate(7322.604 -9205.059)" fill="#36251f"/>
      <path id="Trazado_128808" data-name="Trazado 128808" d="M54.407,32.334c-.149,1.108.233,2.074.853,2.157s1.242-.747,1.392-1.855-.233-2.073-.853-2.156-1.243.746-1.392,1.854" transform="translate(7322.98 -9205.008)" fill="#36251f"/>
      <path id="Trazado_128809" data-name="Trazado 128809" d="M59.326,38.706a3.93,3.93,0,0,1-3.386-2.458A.461.461,0,0,1,56,35.858c2.366-3.568,4.769-7.238,4.792-7.274a.46.46,0,0,1,.77.5c-.023.037-2.338,3.569-4.66,7.073a3.154,3.154,0,0,0,2.55,1.634.46.46,0,1,1-.123.912" transform="translate(7322.929 -9204.938)" fill="#36251f"/>
      <path id="Trazado_128810" data-name="Trazado 128810" d="M70.592,20.013a2.7,2.7,0,0,1,2.264,2.53,4.364,4.364,0,0,0,1.833,3.19c3.242,2.727,2.191,5.736,1.035,8.194s3.341,7.891,7.341,1.935,2.91-19.788-6.455-21.7-22.272-.523-23.892,3.612a21.557,21.557,0,0,0-1.466,7.883,5.088,5.088,0,0,0,1.943-3.8c.241-2.7,2.244-3.51,5.426-3.51a111.193,111.193,0,0,1,11.97,1.666" transform="translate(7323.083 -9204.438)" fill="#d65900"/>
      <g id="Grupo_157541" data-name="Grupo 157541" transform="translate(7372.304 -9170.117)" opacity="0.8">
        <g id="Grupo_157540" data-name="Grupo 157540" transform="translate(0)">
          <g id="Grupo_157539" data-name="Grupo 157539" clip-path="url(#clip-path)">
            <path id="Trazado_128811" data-name="Trazado 128811" d="M49.151,37.875c.282.067.581.122.888.163,2.047.276,3.8-.156,3.9-.962s-1.465-1.685-3.512-1.961q-.416-.055-.811-.073Z" transform="translate(-49.151 -35.043)" fill="#e0693e"/>
          </g>
        </g>
      </g>
      <path id="Trazado_128812" data-name="Trazado 128812" d="M64.984,38.573c-.108.806,1.465,1.684,3.514,1.96s3.8-.155,3.907-.961-1.465-1.684-3.514-1.96-3.8.155-3.907.961" transform="translate(7322.628 -9205.242)" fill="#e0693e"/>
      <path id="Trazado_128813" data-name="Trazado 128813" d="M72.542,28.858h0a2.629,2.629,0,0,1-3.581.865,14.635,14.635,0,0,0-2.494-1.208A2.415,2.415,0,0,1,65.055,25.3s5.432.23,7.487,3.556" transform="translate(7322.632 -9204.837)" fill="#d65900"/>
      <path id="Trazado_128814" data-name="Trazado 128814" d="M51.253,26.022h0A2.629,2.629,0,0,0,54.479,27.8,14.661,14.661,0,0,1,57.2,27.3a2.415,2.415,0,0,0,2.21-2.726s-5.3-1.213-8.16,1.451" transform="translate(7323.083 -9204.803)" fill="#d65900"/>
      <path id="Trazado_128815" data-name="Trazado 128815" d="M76.565,47.826c.036.13,1.039,3.708,3,4.98l.013-.01.438-2.312a8.023,8.023,0,0,1-3.453-2.659" transform="translate(7322.244 -9205.584)" fill="#36251f"/>
      <path id="Trazado_128816" data-name="Trazado 128816" d="M79.692,40.066s5.229-5.354,7.846-.242c2.156,4.212-4.25,13.572-9.08,9.421Z" transform="translate(7322.181 -9205.245)" fill="#ff9568"/>
      <path id="Trazado_128817" data-name="Trazado 128817" d="M79.319,47.642l-.05-.009a.461.461,0,0,1-.335-.558,8.607,8.607,0,0,1,5.919-6.213.46.46,0,0,1,.224.891A7.684,7.684,0,0,0,79.826,47.3a.46.46,0,0,1-.507.345" transform="translate(7322.166 -9205.353)" fill="#36251f"/>
      <path id="Trazado_128818" data-name="Trazado 128818" d="M84.011,45.53a.455.455,0,0,1-.274-.14c-.353-.375-1.448-1.325-2.261-1.23a.46.46,0,0,1-.107-.914c1.415-.166,2.877,1.341,3.039,1.513a.46.46,0,0,1-.4.771" transform="translate(7322.098 -9205.432)" fill="#36251f"/>
    </g>
  </g>
</svg>
