<svg xmlns="http://www.w3.org/2000/svg" width="50" height="49.405" viewBox="0 0 50 49.405">
  <g id="numero3" transform="translate(-610 -2831)">
    <path id="Trazado_130370" data-name="Trazado 130370" d="M25,0A24.853,24.853,0,0,1,50,24.7,24.853,24.853,0,0,1,25,49.4,24.853,24.853,0,0,1,0,24.7,24.853,24.853,0,0,1,25,0Z" transform="translate(610 2831)" fill="#fc5f65"/>
    <path id="Trazado_165133" data-name="Trazado 165133" d="M-4.172-8.861a.985.985,0,0,1,.281-.584,7.026,7.026,0,0,1,.73-.736q.449-.4,1.028-.837t1.174-.876L.2-12.747q.567-.416,1-.781a6.144,6.144,0,0,0,.679-.651q.247-.286.2-.466a.423.423,0,0,0-.067-.14.756.756,0,0,0-.163-.168,1.012,1.012,0,0,0-.27-.146,1.093,1.093,0,0,0-.387-.062A5.029,5.029,0,0,0,.55-15.1q-.432.062-.921.174t-.96.27a3.335,3.335,0,0,0-.764.348,1.647,1.647,0,0,1-.432.2,1.627,1.627,0,0,1-.444.062,1.679,1.679,0,0,1-.545-.09,1.512,1.512,0,0,1-.466-.253,1.32,1.32,0,0,1-.326-.382.934.934,0,0,1-.124-.466.174.174,0,0,1,.034-.124l.146-.146a3.887,3.887,0,0,1,.915-.674A7.336,7.336,0,0,1-2.24-16.66a8.515,8.515,0,0,1,1.157-.309q.584-.112,1.112-.174t.96-.084q.432-.022.691-.022.292,0,.578.022a3.127,3.127,0,0,1,.511.079,1.879,1.879,0,0,1,.747.4,3.163,3.163,0,0,1,.567.64,3.17,3.17,0,0,1,.365.73,2.091,2.091,0,0,1,.129.668,1.332,1.332,0,0,1-.09.489,2.391,2.391,0,0,1-.208.416,2.28,2.28,0,0,1-.225.3q-.107.118-.152.163-.64.64-1.275,1.19t-1.19,1q-.556.449-1.016.809t-.747.623A1.73,1.73,0,0,0-.7-9.288a.161.161,0,0,0,.1.247A9.973,9.973,0,0,0,.41-8.7q.562.157,1.151.343t1.157.427a4.119,4.119,0,0,1,1.011.606,2.882,2.882,0,0,1,.713.865,2.512,2.512,0,0,1,.27,1.207,1.94,1.94,0,0,1-.292.983,5.062,5.062,0,0,1-.781.994,9.779,9.779,0,0,1-1.123.966q-.635.472-1.32.9T-.163-.6q-.674.376-1.247.674L-2.4.59q-.421.219-.59.32a1.074,1.074,0,0,1-.562.18A.7.7,0,0,1-3.948.971a1,1,0,0,1-.3-.3A1.6,1.6,0,0,1-4.43.247,1.71,1.71,0,0,1-4.5-.225q0-.157.006-.32a.341.341,0,0,1,.129-.264,5.085,5.085,0,0,1,.539-.376q.382-.241.893-.55L-1.825-2.4q.6-.359,1.2-.736T.528-3.88q.556-.365.983-.685A6.488,6.488,0,0,0,2.2-5.144a.707.707,0,0,0,.258-.416q0-.2-.326-.382a4.491,4.491,0,0,0-.837-.337Q.781-6.435.146-6.57t-1.252-.258l-1.157-.23q-.539-.107-.865-.2A1.249,1.249,0,0,1-3.583-7.5a1.534,1.534,0,0,1-.326-.387,1.874,1.874,0,0,1-.2-.472A1.934,1.934,0,0,1-4.172-8.861Z" transform="translate(634.822 2862)" fill="#fff"/>
  </g>
</svg>
