<svg xmlns="http://www.w3.org/2000/svg" width="400" height="327" viewBox="0 0 400 327">
  <g id="Grupo_170833" data-name="Grupo 170833" transform="translate(-285 -1008)">
    <g id="Rectángulo_43265" data-name="Rectángulo 43265" transform="translate(285 1008)" fill="#fff0f1" stroke="#12263f" stroke-width="1">
      <rect width="400" height="327" stroke="none"/>
      <rect x="0.5" y="0.5" width="399" height="326" fill="none"/>
    </g>
    <g id="Rectángulo_43266" data-name="Rectángulo 43266" transform="translate(285 1008)" fill="#e1e8ff" stroke="#12263f" stroke-width="1">
      <rect width="200" height="327" stroke="none"/>
      <rect x="0.5" y="0.5" width="199" height="326" fill="none"/>
    </g>
    <path id="Trazado_170520" data-name="Trazado 170520" d="M19.254,17h-1.5V5.625h1.5ZM9.766,50.336l2.969-5.711h1.7l-3.922,7.133V56h-1.5V51.758L5.094,44.625H6.813ZM14.789,51.7a4.993,4.993,0,0,1,.488-2.234,3.643,3.643,0,0,1,1.359-1.531,3.7,3.7,0,0,1,1.988-.539,3.565,3.565,0,0,1,2.793,1.2,4.6,4.6,0,0,1,1.066,3.18v.1a5.036,5.036,0,0,1-.473,2.215,3.589,3.589,0,0,1-1.352,1.527,3.743,3.743,0,0,1-2.02.547,3.556,3.556,0,0,1-2.785-1.2A4.575,4.575,0,0,1,14.789,51.8Zm1.453.172a3.616,3.616,0,0,0,.652,2.258,2.211,2.211,0,0,0,3.5-.012,3.955,3.955,0,0,0,.648-2.418,3.61,3.61,0,0,0-.66-2.254,2.1,2.1,0,0,0-1.754-.863,2.075,2.075,0,0,0-1.727.852A3.925,3.925,0,0,0,16.242,51.867Zm13.273,3.3a3.07,3.07,0,0,1-2.477.992,2.628,2.628,0,0,1-2.059-.785,3.4,3.4,0,0,1-.715-2.324v-5.5h1.445v5.461q0,1.922,1.563,1.922a2.163,2.163,0,0,0,2.2-1.234V47.547h1.445V56H29.547ZM9.781,89.93a7.053,7.053,0,0,1-2.809-1.363,2.6,2.6,0,0,1-.879-2,2.751,2.751,0,0,1,1.074-2.223,4.269,4.269,0,0,1,2.793-.879,4.66,4.66,0,0,1,2.09.453,3.436,3.436,0,0,1,1.422,1.25,3.2,3.2,0,0,1,.5,1.742H12.469a2.069,2.069,0,0,0-.656-1.621,2.675,2.675,0,0,0-1.852-.59,2.736,2.736,0,0,0-1.73.488,1.628,1.628,0,0,0-.621,1.355,1.465,1.465,0,0,0,.59,1.176,5.79,5.79,0,0,0,2.008.879,9.3,9.3,0,0,1,2.219.879A3.367,3.367,0,0,1,13.613,90.6,2.861,2.861,0,0,1,14,92.109a2.658,2.658,0,0,1-1.078,2.215,4.6,4.6,0,0,1-2.883.832,5.347,5.347,0,0,1-2.187-.449,3.681,3.681,0,0,1-1.566-1.23A3,3,0,0,1,5.734,91.7H7.242A1.959,1.959,0,0,0,8,93.332a3.207,3.207,0,0,0,2.035.6,2.948,2.948,0,0,0,1.82-.484,1.573,1.573,0,0,0,.633-1.32,1.545,1.545,0,0,0-.586-1.293A6.755,6.755,0,0,0,9.781,89.93Zm7.359-2.359a3.073,3.073,0,0,1,2.5-1.18q2.68,0,2.7,3.023V95H20.9V89.406a1.946,1.946,0,0,0-.418-1.352,1.675,1.675,0,0,0-1.277-.437,2.086,2.086,0,0,0-1.234.375,2.546,2.546,0,0,0-.828.984V95H15.7V83h1.445Zm10.875,7.586a3.693,3.693,0,0,1-2.8-1.129,4.19,4.19,0,0,1-1.078-3.02v-.266a5.073,5.073,0,0,1,.48-2.246,3.748,3.748,0,0,1,1.344-1.547,3.378,3.378,0,0,1,1.871-.559A3.166,3.166,0,0,1,30.4,87.477a4.7,4.7,0,0,1,.914,3.109v.6H25.586a3,3,0,0,0,.73,2.02,2.3,2.3,0,0,0,1.777.77,2.517,2.517,0,0,0,1.3-.312,3.259,3.259,0,0,0,.93-.828l.883.688A3.55,3.55,0,0,1,28.016,95.156Zm-.18-7.578a1.928,1.928,0,0,0-1.469.637A3.1,3.1,0,0,0,25.633,90h4.234v-.109a2.753,2.753,0,0,0-.594-1.707A1.815,1.815,0,0,0,27.836,87.578ZM18.621,134H17.113v-5.258H11.379V134h-1.5V122.625h1.5v4.891h5.734v-4.891h1.508Zm5.945.156a3.693,3.693,0,0,1-2.8-1.129,4.19,4.19,0,0,1-1.078-3.02v-.266a5.073,5.073,0,0,1,.48-2.246,3.748,3.748,0,0,1,1.344-1.547,3.378,3.378,0,0,1,1.871-.559,3.166,3.166,0,0,1,2.563,1.086,4.7,4.7,0,0,1,.914,3.109v.6H22.137a3,3,0,0,0,.73,2.02,2.3,2.3,0,0,0,1.777.77,2.517,2.517,0,0,0,1.3-.312,3.258,3.258,0,0,0,.93-.828l.883.688A3.55,3.55,0,0,1,24.566,134.156Zm-.18-7.578a1.928,1.928,0,0,0-1.469.637A3.1,3.1,0,0,0,22.184,129h4.234v-.109a2.753,2.753,0,0,0-.594-1.707A1.815,1.815,0,0,0,24.387,126.578ZM16.641,173h-1.5V161.625h1.5Zm4.477-10.5v2.047H22.7v1.117H21.117v5.242a1.171,1.171,0,0,0,.211.762.888.888,0,0,0,.719.254,3.5,3.5,0,0,0,.688-.094V173a4.19,4.19,0,0,1-1.109.156,1.8,1.8,0,0,1-1.461-.586,2.517,2.517,0,0,1-.492-1.664v-5.242H18.133v-1.117h1.539V162.5Zm-10.18,45.914.219,1.5.32-1.352,2.25-7.937h1.266l2.2,7.938.313,1.375.242-1.531,1.766-7.781h1.508L18.258,212H16.891l-2.344-8.289-.18-.867-.18.867L11.758,212H10.391l-2.75-11.375h1.5Zm15.023,3.742a3.693,3.693,0,0,1-2.8-1.129,4.19,4.19,0,0,1-1.078-3.02v-.266a5.073,5.073,0,0,1,.48-2.246,3.748,3.748,0,0,1,1.344-1.547,3.379,3.379,0,0,1,1.871-.559,3.166,3.166,0,0,1,2.563,1.086,4.7,4.7,0,0,1,.914,3.109v.6H23.531a3,3,0,0,0,.73,2.02,2.3,2.3,0,0,0,1.777.77,2.517,2.517,0,0,0,1.3-.312,3.258,3.258,0,0,0,.93-.828l.883.688A3.55,3.55,0,0,1,25.961,212.156Zm-.18-7.578a1.928,1.928,0,0,0-1.469.637A3.1,3.1,0,0,0,23.578,207h4.234v-.109a2.753,2.753,0,0,0-.594-1.707A1.815,1.815,0,0,0,25.781,204.578Zm-15.3,36.281H6.82V251H5.328V240.859H1.68v-1.234h8.8Zm2.906,2.711a3.073,3.073,0,0,1,2.5-1.18q2.68,0,2.7,3.023V251H17.141v-5.594a1.946,1.946,0,0,0-.418-1.352,1.675,1.675,0,0,0-1.277-.437,2.086,2.086,0,0,0-1.234.375,2.546,2.546,0,0,0-.828.984V251H11.938V239h1.445Zm10.875,7.586a3.693,3.693,0,0,1-2.8-1.129,4.19,4.19,0,0,1-1.078-3.02v-.266a5.073,5.073,0,0,1,.48-2.246,3.748,3.748,0,0,1,1.344-1.547,3.379,3.379,0,0,1,1.871-.559,3.166,3.166,0,0,1,2.563,1.086,4.7,4.7,0,0,1,.914,3.109v.6H21.828a3,3,0,0,0,.73,2.02,2.3,2.3,0,0,0,1.777.77,2.517,2.517,0,0,0,1.3-.312,3.258,3.258,0,0,0,.93-.828l.883.688A3.55,3.55,0,0,1,24.258,251.156Zm-.18-7.578a1.928,1.928,0,0,0-1.469.637A3.1,3.1,0,0,0,21.875,246h4.234v-.109a2.753,2.753,0,0,0-.594-1.707A1.815,1.815,0,0,0,24.078,243.578Zm7.914,5.3,1.969-6.336h1.547l-3.4,9.758q-.789,2.109-2.508,2.109l-.273-.023-.539-.1v-1.172l.391.031a1.923,1.923,0,0,0,1.145-.3A2.148,2.148,0,0,0,31,251.766l.32-.859L28.3,242.547h1.578Z" transform="translate(303 1071)" fill="#12263f"/>
    <path id="Trazado_170522" data-name="Trazado 170522" d="M19.254,17h-1.5V5.625h1.5ZM9.766,50.336l2.969-5.711h1.7l-3.922,7.133V56h-1.5V51.758L5.094,44.625H6.813ZM14.789,51.7a4.993,4.993,0,0,1,.488-2.234,3.643,3.643,0,0,1,1.359-1.531,3.7,3.7,0,0,1,1.988-.539,3.565,3.565,0,0,1,2.793,1.2,4.6,4.6,0,0,1,1.066,3.18v.1a5.036,5.036,0,0,1-.473,2.215,3.589,3.589,0,0,1-1.352,1.527,3.743,3.743,0,0,1-2.02.547,3.556,3.556,0,0,1-2.785-1.2A4.575,4.575,0,0,1,14.789,51.8Zm1.453.172a3.616,3.616,0,0,0,.652,2.258,2.211,2.211,0,0,0,3.5-.012,3.955,3.955,0,0,0,.648-2.418,3.61,3.61,0,0,0-.66-2.254,2.1,2.1,0,0,0-1.754-.863,2.075,2.075,0,0,0-1.727.852A3.925,3.925,0,0,0,16.242,51.867Zm13.273,3.3a3.07,3.07,0,0,1-2.477.992,2.628,2.628,0,0,1-2.059-.785,3.4,3.4,0,0,1-.715-2.324v-5.5h1.445v5.461q0,1.922,1.563,1.922a2.163,2.163,0,0,0,2.2-1.234V47.547h1.445V56H29.547ZM9.781,89.93a7.053,7.053,0,0,1-2.809-1.363,2.6,2.6,0,0,1-.879-2,2.751,2.751,0,0,1,1.074-2.223,4.269,4.269,0,0,1,2.793-.879,4.66,4.66,0,0,1,2.09.453,3.436,3.436,0,0,1,1.422,1.25,3.2,3.2,0,0,1,.5,1.742H12.469a2.069,2.069,0,0,0-.656-1.621,2.675,2.675,0,0,0-1.852-.59,2.736,2.736,0,0,0-1.73.488,1.628,1.628,0,0,0-.621,1.355,1.465,1.465,0,0,0,.59,1.176,5.79,5.79,0,0,0,2.008.879,9.3,9.3,0,0,1,2.219.879A3.367,3.367,0,0,1,13.613,90.6,2.861,2.861,0,0,1,14,92.109a2.658,2.658,0,0,1-1.078,2.215,4.6,4.6,0,0,1-2.883.832,5.347,5.347,0,0,1-2.187-.449,3.681,3.681,0,0,1-1.566-1.23A3,3,0,0,1,5.734,91.7H7.242A1.959,1.959,0,0,0,8,93.332a3.207,3.207,0,0,0,2.035.6,2.948,2.948,0,0,0,1.82-.484,1.573,1.573,0,0,0,.633-1.32,1.545,1.545,0,0,0-.586-1.293A6.755,6.755,0,0,0,9.781,89.93Zm7.359-2.359a3.073,3.073,0,0,1,2.5-1.18q2.68,0,2.7,3.023V95H20.9V89.406a1.946,1.946,0,0,0-.418-1.352,1.675,1.675,0,0,0-1.277-.437,2.086,2.086,0,0,0-1.234.375,2.546,2.546,0,0,0-.828.984V95H15.7V83h1.445Zm10.875,7.586a3.693,3.693,0,0,1-2.8-1.129,4.19,4.19,0,0,1-1.078-3.02v-.266a5.073,5.073,0,0,1,.48-2.246,3.748,3.748,0,0,1,1.344-1.547,3.378,3.378,0,0,1,1.871-.559A3.166,3.166,0,0,1,30.4,87.477a4.7,4.7,0,0,1,.914,3.109v.6H25.586a3,3,0,0,0,.73,2.02,2.3,2.3,0,0,0,1.777.77,2.517,2.517,0,0,0,1.3-.312,3.259,3.259,0,0,0,.93-.828l.883.688A3.55,3.55,0,0,1,28.016,95.156Zm-.18-7.578a1.928,1.928,0,0,0-1.469.637A3.1,3.1,0,0,0,25.633,90h4.234v-.109a2.753,2.753,0,0,0-.594-1.707A1.815,1.815,0,0,0,27.836,87.578ZM18.621,134H17.113v-5.258H11.379V134h-1.5V122.625h1.5v4.891h5.734v-4.891h1.508Zm5.945.156a3.693,3.693,0,0,1-2.8-1.129,4.19,4.19,0,0,1-1.078-3.02v-.266a5.073,5.073,0,0,1,.48-2.246,3.748,3.748,0,0,1,1.344-1.547,3.378,3.378,0,0,1,1.871-.559,3.166,3.166,0,0,1,2.563,1.086,4.7,4.7,0,0,1,.914,3.109v.6H22.137a3,3,0,0,0,.73,2.02,2.3,2.3,0,0,0,1.777.77,2.517,2.517,0,0,0,1.3-.312,3.258,3.258,0,0,0,.93-.828l.883.688A3.55,3.55,0,0,1,24.566,134.156Zm-.18-7.578a1.928,1.928,0,0,0-1.469.637A3.1,3.1,0,0,0,22.184,129h4.234v-.109a2.753,2.753,0,0,0-.594-1.707A1.815,1.815,0,0,0,24.387,126.578ZM16.641,173h-1.5V161.625h1.5Zm4.477-10.5v2.047H22.7v1.117H21.117v5.242a1.171,1.171,0,0,0,.211.762.888.888,0,0,0,.719.254,3.5,3.5,0,0,0,.688-.094V173a4.19,4.19,0,0,1-1.109.156,1.8,1.8,0,0,1-1.461-.586,2.517,2.517,0,0,1-.492-1.664v-5.242H18.133v-1.117h1.539V162.5Zm-10.18,45.914.219,1.5.32-1.352,2.25-7.937h1.266l2.2,7.938.313,1.375.242-1.531,1.766-7.781h1.508L18.258,212H16.891l-2.344-8.289-.18-.867-.18.867L11.758,212H10.391l-2.75-11.375h1.5Zm15.023,3.742a3.693,3.693,0,0,1-2.8-1.129,4.19,4.19,0,0,1-1.078-3.02v-.266a5.073,5.073,0,0,1,.48-2.246,3.748,3.748,0,0,1,1.344-1.547,3.379,3.379,0,0,1,1.871-.559,3.166,3.166,0,0,1,2.563,1.086,4.7,4.7,0,0,1,.914,3.109v.6H23.531a3,3,0,0,0,.73,2.02,2.3,2.3,0,0,0,1.777.77,2.517,2.517,0,0,0,1.3-.312,3.258,3.258,0,0,0,.93-.828l.883.688A3.55,3.55,0,0,1,25.961,212.156Zm-.18-7.578a1.928,1.928,0,0,0-1.469.637A3.1,3.1,0,0,0,23.578,207h4.234v-.109a2.753,2.753,0,0,0-.594-1.707A1.815,1.815,0,0,0,25.781,204.578Zm-15.3,36.281H6.82V251H5.328V240.859H1.68v-1.234h8.8Zm2.906,2.711a3.073,3.073,0,0,1,2.5-1.18q2.68,0,2.7,3.023V251H17.141v-5.594a1.946,1.946,0,0,0-.418-1.352,1.675,1.675,0,0,0-1.277-.437,2.086,2.086,0,0,0-1.234.375,2.546,2.546,0,0,0-.828.984V251H11.938V239h1.445Zm10.875,7.586a3.693,3.693,0,0,1-2.8-1.129,4.19,4.19,0,0,1-1.078-3.02v-.266a5.073,5.073,0,0,1,.48-2.246,3.748,3.748,0,0,1,1.344-1.547,3.379,3.379,0,0,1,1.871-.559,3.166,3.166,0,0,1,2.563,1.086,4.7,4.7,0,0,1,.914,3.109v.6H21.828a3,3,0,0,0,.73,2.02,2.3,2.3,0,0,0,1.777.77,2.517,2.517,0,0,0,1.3-.312,3.258,3.258,0,0,0,.93-.828l.883.688A3.55,3.55,0,0,1,24.258,251.156Zm-.18-7.578a1.928,1.928,0,0,0-1.469.637A3.1,3.1,0,0,0,21.875,246h4.234v-.109a2.753,2.753,0,0,0-.594-1.707A1.815,1.815,0,0,0,24.078,243.578Zm7.914,5.3,1.969-6.336h1.547l-3.4,9.758q-.789,2.109-2.508,2.109l-.273-.023-.539-.1v-1.172l.391.031a1.923,1.923,0,0,0,1.145-.3A2.148,2.148,0,0,0,31,251.766l.32-.859L28.3,242.547h1.578Z" transform="translate(519 1071)" fill="#12263f"/>
    <path id="Trazado_170521" data-name="Trazado 170521" d="M6.828,13.414l.219,1.5.32-1.352,2.25-7.937h1.266l2.2,7.938.313,1.375.242-1.531L15.4,5.625h1.508L14.148,17H12.781L10.438,8.711l-.18-.867-.18.867L7.648,17H6.281L3.531,5.625h1.5ZM23.3,17a3.036,3.036,0,0,1-.2-.891A3.225,3.225,0,0,1,20.7,17.156a2.984,2.984,0,0,1-2.051-.707,2.287,2.287,0,0,1-.8-1.793,2.39,2.39,0,0,1,1-2.051,4.733,4.733,0,0,1,2.824-.73h1.406v-.664A1.623,1.623,0,0,0,22.625,10a1.821,1.821,0,0,0-1.336-.449,2.107,2.107,0,0,0-1.3.391,1.151,1.151,0,0,0-.523.945H18.016a2,2,0,0,1,.449-1.223,3.066,3.066,0,0,1,1.219-.934,4.1,4.1,0,0,1,1.691-.344,3.342,3.342,0,0,1,2.289.73,2.635,2.635,0,0,1,.859,2.012v3.891a4.757,4.757,0,0,0,.3,1.852V17Zm-2.4-1.1a2.54,2.54,0,0,0,1.289-.352,2.127,2.127,0,0,0,.883-.914V12.9H21.945q-2.656,0-2.656,1.555a1.316,1.316,0,0,0,.453,1.063A1.742,1.742,0,0,0,20.906,15.9Zm10.8-1.141a1.064,1.064,0,0,0-.441-.91,4.249,4.249,0,0,0-1.539-.559,7.277,7.277,0,0,1-1.742-.562,2.479,2.479,0,0,1-.953-.781,1.869,1.869,0,0,1-.309-1.078,2.193,2.193,0,0,1,.879-1.758,3.432,3.432,0,0,1,2.246-.719,3.532,3.532,0,0,1,2.332.742,2.357,2.357,0,0,1,.895,1.9H31.625a1.3,1.3,0,0,0-.5-1.023,1.888,1.888,0,0,0-1.27-.43,1.976,1.976,0,0,0-1.234.344,1.082,1.082,0,0,0-.445.9.877.877,0,0,0,.414.789,5.1,5.1,0,0,0,1.5.508,7.8,7.8,0,0,1,1.754.578,2.558,2.558,0,0,1,1,.809,1.988,1.988,0,0,1,.324,1.152,2.163,2.163,0,0,1-.906,1.816,3.8,3.8,0,0,1-2.352.684,4.257,4.257,0,0,1-1.8-.359,2.922,2.922,0,0,1-1.223-1,2.42,2.42,0,0,1-.441-1.395h1.445a1.5,1.5,0,0,0,.582,1.152,2.258,2.258,0,0,0,1.434.426,2.331,2.331,0,0,0,1.316-.332A1.02,1.02,0,0,0,31.711,14.758ZM3.992,52.414l.219,1.5.32-1.352,2.25-7.937H8.047l2.2,7.938.313,1.375.242-1.531,1.766-7.781H14.07L11.313,56H9.945L7.6,47.711l-.18-.867-.18.867L4.813,56H3.445L.7,44.625H2.2Zm15.023,3.742a3.693,3.693,0,0,1-2.8-1.129,4.19,4.19,0,0,1-1.078-3.02v-.266a5.073,5.073,0,0,1,.48-2.246,3.748,3.748,0,0,1,1.344-1.547,3.378,3.378,0,0,1,1.871-.559A3.166,3.166,0,0,1,21.4,48.477a4.7,4.7,0,0,1,.914,3.109v.6H16.586a3,3,0,0,0,.73,2.02,2.3,2.3,0,0,0,1.777.77,2.517,2.517,0,0,0,1.3-.312,3.259,3.259,0,0,0,.93-.828l.883.688A3.55,3.55,0,0,1,19.016,56.156Zm-.18-7.578a1.928,1.928,0,0,0-1.469.637A3.1,3.1,0,0,0,16.633,51h4.234v-.109a2.753,2.753,0,0,0-.594-1.707A1.815,1.815,0,0,0,18.836,48.578Zm9.234.266a4.331,4.331,0,0,0-.711-.055A1.9,1.9,0,0,0,25.43,50v6H23.984V47.547h1.406l.023.977a2.251,2.251,0,0,1,2.016-1.133,1.477,1.477,0,0,1,.641.109Zm4.836,7.313a3.693,3.693,0,0,1-2.8-1.129,4.19,4.19,0,0,1-1.078-3.02v-.266a5.073,5.073,0,0,1,.48-2.246,3.748,3.748,0,0,1,1.344-1.547,3.378,3.378,0,0,1,1.871-.559,3.166,3.166,0,0,1,2.563,1.086,4.7,4.7,0,0,1,.914,3.109v.6H30.477a3,3,0,0,0,.73,2.02,2.3,2.3,0,0,0,1.777.77,2.517,2.517,0,0,0,1.3-.312,3.258,3.258,0,0,0,.93-.828l.883.688A3.55,3.55,0,0,1,32.906,56.156Zm-.18-7.578a1.928,1.928,0,0,0-1.469.637A3.1,3.1,0,0,0,30.523,51h4.234v-.109a2.753,2.753,0,0,0-.594-1.707A1.815,1.815,0,0,0,32.727,48.578ZM6.828,91.414l.219,1.5.32-1.352,2.25-7.937h1.266l2.2,7.938.313,1.375.242-1.531L15.4,83.625h1.508L14.148,95H12.781l-2.344-8.289-.18-.867-.18.867L7.648,95H6.281L3.531,83.625h1.5ZM23.3,95a3.036,3.036,0,0,1-.2-.891A3.225,3.225,0,0,1,20.7,95.156a2.984,2.984,0,0,1-2.051-.707,2.287,2.287,0,0,1-.8-1.793,2.39,2.39,0,0,1,1-2.051,4.733,4.733,0,0,1,2.824-.73h1.406v-.664A1.623,1.623,0,0,0,22.625,88a1.821,1.821,0,0,0-1.336-.449,2.108,2.108,0,0,0-1.3.391,1.151,1.151,0,0,0-.523.945H18.016a2,2,0,0,1,.449-1.223,3.066,3.066,0,0,1,1.219-.934,4.1,4.1,0,0,1,1.691-.344,3.342,3.342,0,0,1,2.289.73,2.635,2.635,0,0,1,.859,2.012v3.891a4.757,4.757,0,0,0,.3,1.852V95Zm-2.4-1.1a2.54,2.54,0,0,0,1.289-.352,2.127,2.127,0,0,0,.883-.914V90.9H21.945q-2.656,0-2.656,1.555a1.316,1.316,0,0,0,.453,1.063A1.742,1.742,0,0,0,20.906,93.9Zm10.8-1.141a1.064,1.064,0,0,0-.441-.91,4.249,4.249,0,0,0-1.539-.559,7.277,7.277,0,0,1-1.742-.562,2.478,2.478,0,0,1-.953-.781,1.869,1.869,0,0,1-.309-1.078,2.193,2.193,0,0,1,.879-1.758,3.432,3.432,0,0,1,2.246-.719,3.532,3.532,0,0,1,2.332.742,2.357,2.357,0,0,1,.895,1.9H31.625a1.3,1.3,0,0,0-.5-1.023,1.888,1.888,0,0,0-1.27-.43,1.976,1.976,0,0,0-1.234.344,1.082,1.082,0,0,0-.445.9.877.877,0,0,0,.414.789,5.1,5.1,0,0,0,1.5.508,7.8,7.8,0,0,1,1.754.578,2.558,2.558,0,0,1,1,.809,1.988,1.988,0,0,1,.324,1.152,2.163,2.163,0,0,1-.906,1.816,3.8,3.8,0,0,1-2.352.684,4.257,4.257,0,0,1-1.8-.359,2.922,2.922,0,0,1-1.223-1,2.42,2.42,0,0,1-.441-1.395h1.445a1.5,1.5,0,0,0,.582,1.152,2.258,2.258,0,0,0,1.434.426,2.331,2.331,0,0,0,1.316-.332A1.02,1.02,0,0,0,31.711,92.758ZM6.828,130.414l.219,1.5.32-1.352,2.25-7.937h1.266l2.2,7.938.313,1.375.242-1.531,1.766-7.781h1.508L14.148,134H12.781l-2.344-8.289-.18-.867-.18.867L7.648,134H6.281l-2.75-11.375h1.5ZM23.3,134a3.036,3.036,0,0,1-.2-.891,3.225,3.225,0,0,1-2.406,1.047,2.984,2.984,0,0,1-2.051-.707,2.288,2.288,0,0,1-.8-1.793,2.39,2.39,0,0,1,1-2.051,4.733,4.733,0,0,1,2.824-.73h1.406v-.664A1.623,1.623,0,0,0,22.625,127a1.821,1.821,0,0,0-1.336-.449,2.108,2.108,0,0,0-1.3.391,1.151,1.151,0,0,0-.523.945H18.016a2,2,0,0,1,.449-1.223,3.066,3.066,0,0,1,1.219-.934,4.1,4.1,0,0,1,1.691-.344,3.342,3.342,0,0,1,2.289.73,2.635,2.635,0,0,1,.859,2.012v3.891a4.757,4.757,0,0,0,.3,1.852V134Zm-2.4-1.1a2.54,2.54,0,0,0,1.289-.352,2.127,2.127,0,0,0,.883-.914V129.9H21.945q-2.656,0-2.656,1.555a1.316,1.316,0,0,0,.453,1.063A1.742,1.742,0,0,0,20.906,132.9Zm10.8-1.141a1.064,1.064,0,0,0-.441-.91,4.249,4.249,0,0,0-1.539-.559,7.277,7.277,0,0,1-1.742-.562,2.479,2.479,0,0,1-.953-.781,1.869,1.869,0,0,1-.309-1.078,2.193,2.193,0,0,1,.879-1.758,3.432,3.432,0,0,1,2.246-.719,3.532,3.532,0,0,1,2.332.742,2.357,2.357,0,0,1,.895,1.9H31.625a1.3,1.3,0,0,0-.5-1.023,1.888,1.888,0,0,0-1.27-.43,1.976,1.976,0,0,0-1.234.344,1.082,1.082,0,0,0-.445.9.877.877,0,0,0,.414.789,5.1,5.1,0,0,0,1.5.508,7.8,7.8,0,0,1,1.754.578,2.558,2.558,0,0,1,1,.809,1.988,1.988,0,0,1,.324,1.152,2.163,2.163,0,0,1-.906,1.816,3.8,3.8,0,0,1-2.352.684,4.257,4.257,0,0,1-1.8-.359,2.922,2.922,0,0,1-1.223-1,2.42,2.42,0,0,1-.441-1.395h1.445a1.5,1.5,0,0,0,.582,1.152,2.258,2.258,0,0,0,1.434.426,2.331,2.331,0,0,0,1.316-.332A1.02,1.02,0,0,0,31.711,131.758ZM6.828,169.414l.219,1.5.32-1.352,2.25-7.937h1.266l2.2,7.938.313,1.375.242-1.531,1.766-7.781h1.508L14.148,173H12.781l-2.344-8.289-.18-.867-.18.867L7.648,173H6.281l-2.75-11.375h1.5ZM23.3,173a3.036,3.036,0,0,1-.2-.891,3.225,3.225,0,0,1-2.406,1.047,2.984,2.984,0,0,1-2.051-.707,2.288,2.288,0,0,1-.8-1.793,2.39,2.39,0,0,1,1-2.051,4.733,4.733,0,0,1,2.824-.73h1.406v-.664A1.623,1.623,0,0,0,22.625,166a1.821,1.821,0,0,0-1.336-.449,2.107,2.107,0,0,0-1.3.391,1.151,1.151,0,0,0-.523.945H18.016a2,2,0,0,1,.449-1.223,3.066,3.066,0,0,1,1.219-.934,4.1,4.1,0,0,1,1.691-.344,3.342,3.342,0,0,1,2.289.73,2.635,2.635,0,0,1,.859,2.012v3.891a4.757,4.757,0,0,0,.3,1.852V173Zm-2.4-1.1a2.54,2.54,0,0,0,1.289-.352,2.127,2.127,0,0,0,.883-.914V168.9H21.945q-2.656,0-2.656,1.555a1.316,1.316,0,0,0,.453,1.063A1.742,1.742,0,0,0,20.906,171.9Zm10.8-1.141a1.064,1.064,0,0,0-.441-.91,4.249,4.249,0,0,0-1.539-.559,7.277,7.277,0,0,1-1.742-.562,2.479,2.479,0,0,1-.953-.781,1.869,1.869,0,0,1-.309-1.078,2.193,2.193,0,0,1,.879-1.758,3.432,3.432,0,0,1,2.246-.719,3.532,3.532,0,0,1,2.332.742,2.357,2.357,0,0,1,.895,1.9H31.625a1.3,1.3,0,0,0-.5-1.023,1.888,1.888,0,0,0-1.27-.43,1.976,1.976,0,0,0-1.234.344,1.082,1.082,0,0,0-.445.9.877.877,0,0,0,.414.789,5.1,5.1,0,0,0,1.5.508,7.8,7.8,0,0,1,1.754.578,2.558,2.558,0,0,1,1,.809,1.988,1.988,0,0,1,.324,1.152,2.163,2.163,0,0,1-.906,1.816,3.8,3.8,0,0,1-2.352.684,4.257,4.257,0,0,1-1.8-.359,2.922,2.922,0,0,1-1.223-1,2.42,2.42,0,0,1-.441-1.395h1.445a1.5,1.5,0,0,0,.582,1.152,2.258,2.258,0,0,0,1.434.426,2.331,2.331,0,0,0,1.316-.332A1.02,1.02,0,0,0,31.711,170.758ZM3.992,208.414l.219,1.5.32-1.352,2.25-7.937H8.047l2.2,7.938.313,1.375.242-1.531,1.766-7.781H14.07L11.313,212H9.945L7.6,203.711l-.18-.867-.18.867L4.813,212H3.445L.7,200.625H2.2Zm15.023,3.742a3.693,3.693,0,0,1-2.8-1.129,4.19,4.19,0,0,1-1.078-3.02v-.266a5.073,5.073,0,0,1,.48-2.246,3.748,3.748,0,0,1,1.344-1.547,3.379,3.379,0,0,1,1.871-.559,3.166,3.166,0,0,1,2.563,1.086,4.7,4.7,0,0,1,.914,3.109v.6H16.586a3,3,0,0,0,.73,2.02,2.3,2.3,0,0,0,1.777.77,2.517,2.517,0,0,0,1.3-.312,3.258,3.258,0,0,0,.93-.828l.883.688A3.55,3.55,0,0,1,19.016,212.156Zm-.18-7.578a1.928,1.928,0,0,0-1.469.637A3.1,3.1,0,0,0,16.633,207h4.234v-.109a2.753,2.753,0,0,0-.594-1.707A1.815,1.815,0,0,0,18.836,204.578Zm9.234.266a4.332,4.332,0,0,0-.711-.055A1.9,1.9,0,0,0,25.43,206v6H23.984v-8.453h1.406l.023.977a2.251,2.251,0,0,1,2.016-1.133,1.476,1.476,0,0,1,.641.109Zm4.836,7.313a3.693,3.693,0,0,1-2.8-1.129,4.19,4.19,0,0,1-1.078-3.02v-.266a5.073,5.073,0,0,1,.48-2.246,3.748,3.748,0,0,1,1.344-1.547,3.379,3.379,0,0,1,1.871-.559,3.166,3.166,0,0,1,2.563,1.086,4.7,4.7,0,0,1,.914,3.109v.6H30.477a3,3,0,0,0,.73,2.02,2.3,2.3,0,0,0,1.777.77,2.517,2.517,0,0,0,1.3-.312,3.258,3.258,0,0,0,.93-.828l.883.688A3.55,3.55,0,0,1,32.906,212.156Zm-.18-7.578a1.928,1.928,0,0,0-1.469.637A3.1,3.1,0,0,0,30.523,207h4.234v-.109a2.753,2.753,0,0,0-.594-1.707A1.815,1.815,0,0,0,32.727,204.578ZM3.992,247.414l.219,1.5.32-1.352,2.25-7.937H8.047l2.2,7.938.313,1.375.242-1.531,1.766-7.781H14.07L11.313,251H9.945L7.6,242.711l-.18-.867-.18.867L4.813,251H3.445L.7,239.625H2.2Zm15.023,3.742a3.693,3.693,0,0,1-2.8-1.129,4.19,4.19,0,0,1-1.078-3.02v-.266a5.073,5.073,0,0,1,.48-2.246,3.748,3.748,0,0,1,1.344-1.547,3.379,3.379,0,0,1,1.871-.559,3.166,3.166,0,0,1,2.563,1.086,4.7,4.7,0,0,1,.914,3.109v.6H16.586a3,3,0,0,0,.73,2.02,2.3,2.3,0,0,0,1.777.77,2.517,2.517,0,0,0,1.3-.312,3.258,3.258,0,0,0,.93-.828l.883.688A3.55,3.55,0,0,1,19.016,251.156Zm-.18-7.578a1.928,1.928,0,0,0-1.469.637A3.1,3.1,0,0,0,16.633,246h4.234v-.109a2.753,2.753,0,0,0-.594-1.707A1.815,1.815,0,0,0,18.836,243.578Zm9.234.266a4.332,4.332,0,0,0-.711-.055A1.9,1.9,0,0,0,25.43,245v6H23.984v-8.453h1.406l.023.977a2.251,2.251,0,0,1,2.016-1.133,1.476,1.476,0,0,1,.641.109Zm4.836,7.313a3.693,3.693,0,0,1-2.8-1.129,4.19,4.19,0,0,1-1.078-3.02v-.266a5.073,5.073,0,0,1,.48-2.246,3.748,3.748,0,0,1,1.344-1.547,3.379,3.379,0,0,1,1.871-.559,3.166,3.166,0,0,1,2.563,1.086,4.7,4.7,0,0,1,.914,3.109v.6H30.477a3,3,0,0,0,.73,2.02,2.3,2.3,0,0,0,1.777.77,2.517,2.517,0,0,0,1.3-.312,3.258,3.258,0,0,0,.93-.828l.883.688A3.55,3.55,0,0,1,32.906,251.156Zm-.18-7.578a1.928,1.928,0,0,0-1.469.637A3.1,3.1,0,0,0,30.523,246h4.234v-.109a2.753,2.753,0,0,0-.594-1.707A1.815,1.815,0,0,0,32.727,243.578Z" transform="translate(411 1071)" fill="#12263f"/>
    <path id="Trazado_170523" data-name="Trazado 170523" d="M3.992,13.414l.219,1.5.32-1.352,2.25-7.937H8.047l2.2,7.938.313,1.375.242-1.531,1.766-7.781H14.07L11.313,17H9.945L7.6,8.711l-.18-.867-.18.867L4.813,17H3.445L.7,5.625H2.2Zm15.023,3.742a3.693,3.693,0,0,1-2.8-1.129,4.19,4.19,0,0,1-1.078-3.02v-.266a5.073,5.073,0,0,1,.48-2.246,3.748,3.748,0,0,1,1.344-1.547,3.378,3.378,0,0,1,1.871-.559A3.166,3.166,0,0,1,21.4,9.477a4.7,4.7,0,0,1,.914,3.109v.6H16.586a3,3,0,0,0,.73,2.02,2.3,2.3,0,0,0,1.777.77,2.517,2.517,0,0,0,1.3-.312,3.259,3.259,0,0,0,.93-.828l.883.688A3.55,3.55,0,0,1,19.016,17.156Zm-.18-7.578a1.928,1.928,0,0,0-1.469.637A3.1,3.1,0,0,0,16.633,12h4.234v-.109a2.753,2.753,0,0,0-.594-1.707A1.815,1.815,0,0,0,18.836,9.578Zm9.234.266a4.331,4.331,0,0,0-.711-.055A1.9,1.9,0,0,0,25.43,11v6H23.984V8.547h1.406l.023.977A2.251,2.251,0,0,1,27.43,8.391a1.477,1.477,0,0,1,.641.109Zm4.836,7.313a3.693,3.693,0,0,1-2.8-1.129,4.19,4.19,0,0,1-1.078-3.02v-.266a5.073,5.073,0,0,1,.48-2.246,3.748,3.748,0,0,1,1.344-1.547,3.378,3.378,0,0,1,1.871-.559,3.166,3.166,0,0,1,2.563,1.086,4.7,4.7,0,0,1,.914,3.109v.6H30.477a3,3,0,0,0,.73,2.02,2.3,2.3,0,0,0,1.777.77,2.517,2.517,0,0,0,1.3-.312,3.259,3.259,0,0,0,.93-.828l.883.688A3.55,3.55,0,0,1,32.906,17.156Zm-.18-7.578a1.928,1.928,0,0,0-1.469.637A3.1,3.1,0,0,0,30.523,12h4.234v-.109a2.753,2.753,0,0,0-.594-1.707A1.815,1.815,0,0,0,32.727,9.578ZM3.992,52.414l.219,1.5.32-1.352,2.25-7.937H8.047l2.2,7.938.313,1.375.242-1.531,1.766-7.781H14.07L11.313,56H9.945L7.6,47.711l-.18-.867-.18.867L4.813,56H3.445L.7,44.625H2.2Zm15.023,3.742a3.693,3.693,0,0,1-2.8-1.129,4.19,4.19,0,0,1-1.078-3.02v-.266a5.073,5.073,0,0,1,.48-2.246,3.748,3.748,0,0,1,1.344-1.547,3.378,3.378,0,0,1,1.871-.559A3.166,3.166,0,0,1,21.4,48.477a4.7,4.7,0,0,1,.914,3.109v.6H16.586a3,3,0,0,0,.73,2.02,2.3,2.3,0,0,0,1.777.77,2.517,2.517,0,0,0,1.3-.312,3.259,3.259,0,0,0,.93-.828l.883.688A3.55,3.55,0,0,1,19.016,56.156Zm-.18-7.578a1.928,1.928,0,0,0-1.469.637A3.1,3.1,0,0,0,16.633,51h4.234v-.109a2.753,2.753,0,0,0-.594-1.707A1.815,1.815,0,0,0,18.836,48.578Zm9.234.266a4.331,4.331,0,0,0-.711-.055A1.9,1.9,0,0,0,25.43,50v6H23.984V47.547h1.406l.023.977a2.251,2.251,0,0,1,2.016-1.133,1.477,1.477,0,0,1,.641.109Zm4.836,7.313a3.693,3.693,0,0,1-2.8-1.129,4.19,4.19,0,0,1-1.078-3.02v-.266a5.073,5.073,0,0,1,.48-2.246,3.748,3.748,0,0,1,1.344-1.547,3.378,3.378,0,0,1,1.871-.559,3.166,3.166,0,0,1,2.563,1.086,4.7,4.7,0,0,1,.914,3.109v.6H30.477a3,3,0,0,0,.73,2.02,2.3,2.3,0,0,0,1.777.77,2.517,2.517,0,0,0,1.3-.312,3.258,3.258,0,0,0,.93-.828l.883.688A3.55,3.55,0,0,1,32.906,56.156Zm-.18-7.578a1.928,1.928,0,0,0-1.469.637A3.1,3.1,0,0,0,30.523,51h4.234v-.109a2.753,2.753,0,0,0-.594-1.707A1.815,1.815,0,0,0,32.727,48.578ZM3.992,91.414l.219,1.5.32-1.352,2.25-7.937H8.047l2.2,7.938.313,1.375.242-1.531,1.766-7.781H14.07L11.313,95H9.945L7.6,86.711l-.18-.867-.18.867L4.813,95H3.445L.7,83.625H2.2Zm15.023,3.742a3.693,3.693,0,0,1-2.8-1.129,4.19,4.19,0,0,1-1.078-3.02v-.266a5.073,5.073,0,0,1,.48-2.246,3.748,3.748,0,0,1,1.344-1.547,3.378,3.378,0,0,1,1.871-.559A3.166,3.166,0,0,1,21.4,87.477a4.7,4.7,0,0,1,.914,3.109v.6H16.586a3,3,0,0,0,.73,2.02,2.3,2.3,0,0,0,1.777.77,2.517,2.517,0,0,0,1.3-.312,3.259,3.259,0,0,0,.93-.828l.883.688A3.55,3.55,0,0,1,19.016,95.156Zm-.18-7.578a1.928,1.928,0,0,0-1.469.637A3.1,3.1,0,0,0,16.633,90h4.234v-.109a2.753,2.753,0,0,0-.594-1.707A1.815,1.815,0,0,0,18.836,87.578Zm9.234.266a4.331,4.331,0,0,0-.711-.055A1.9,1.9,0,0,0,25.43,89v6H23.984V86.547h1.406l.023.977a2.251,2.251,0,0,1,2.016-1.133,1.477,1.477,0,0,1,.641.109Zm4.836,7.313a3.693,3.693,0,0,1-2.8-1.129,4.19,4.19,0,0,1-1.078-3.02v-.266a5.073,5.073,0,0,1,.48-2.246,3.748,3.748,0,0,1,1.344-1.547,3.378,3.378,0,0,1,1.871-.559,3.166,3.166,0,0,1,2.563,1.086,4.7,4.7,0,0,1,.914,3.109v.6H30.477a3,3,0,0,0,.73,2.02,2.3,2.3,0,0,0,1.777.77,2.517,2.517,0,0,0,1.3-.312,3.259,3.259,0,0,0,.93-.828l.883.688A3.55,3.55,0,0,1,32.906,95.156Zm-.18-7.578a1.928,1.928,0,0,0-1.469.637A3.1,3.1,0,0,0,30.523,90h4.234v-.109a2.753,2.753,0,0,0-.594-1.707A1.815,1.815,0,0,0,32.727,87.578ZM3.992,130.414l.219,1.5.32-1.352,2.25-7.937H8.047l2.2,7.938.313,1.375.242-1.531,1.766-7.781H14.07L11.313,134H9.945L7.6,125.711l-.18-.867-.18.867L4.813,134H3.445L.7,122.625H2.2Zm15.023,3.742a3.693,3.693,0,0,1-2.8-1.129,4.19,4.19,0,0,1-1.078-3.02v-.266a5.073,5.073,0,0,1,.48-2.246,3.748,3.748,0,0,1,1.344-1.547,3.378,3.378,0,0,1,1.871-.559,3.166,3.166,0,0,1,2.563,1.086,4.7,4.7,0,0,1,.914,3.109v.6H16.586a3,3,0,0,0,.73,2.02,2.3,2.3,0,0,0,1.777.77,2.517,2.517,0,0,0,1.3-.312,3.258,3.258,0,0,0,.93-.828l.883.688A3.55,3.55,0,0,1,19.016,134.156Zm-.18-7.578a1.928,1.928,0,0,0-1.469.637A3.1,3.1,0,0,0,16.633,129h4.234v-.109a2.753,2.753,0,0,0-.594-1.707A1.815,1.815,0,0,0,18.836,126.578Zm9.234.266a4.331,4.331,0,0,0-.711-.055A1.9,1.9,0,0,0,25.43,128v6H23.984v-8.453h1.406l.023.977a2.251,2.251,0,0,1,2.016-1.133,1.477,1.477,0,0,1,.641.109Zm4.836,7.313a3.693,3.693,0,0,1-2.8-1.129,4.19,4.19,0,0,1-1.078-3.02v-.266a5.073,5.073,0,0,1,.48-2.246,3.748,3.748,0,0,1,1.344-1.547,3.378,3.378,0,0,1,1.871-.559,3.166,3.166,0,0,1,2.563,1.086,4.7,4.7,0,0,1,.914,3.109v.6H30.477a3,3,0,0,0,.73,2.02,2.3,2.3,0,0,0,1.777.77,2.517,2.517,0,0,0,1.3-.312,3.258,3.258,0,0,0,.93-.828l.883.688A3.55,3.55,0,0,1,32.906,134.156Zm-.18-7.578a1.928,1.928,0,0,0-1.469.637A3.1,3.1,0,0,0,30.523,129h4.234v-.109a2.753,2.753,0,0,0-.594-1.707A1.815,1.815,0,0,0,32.727,126.578ZM3.992,169.414l.219,1.5.32-1.352,2.25-7.937H8.047l2.2,7.938.313,1.375.242-1.531,1.766-7.781H14.07L11.313,173H9.945L7.6,164.711l-.18-.867-.18.867L4.813,173H3.445L.7,161.625H2.2Zm15.023,3.742a3.693,3.693,0,0,1-2.8-1.129,4.19,4.19,0,0,1-1.078-3.02v-.266a5.073,5.073,0,0,1,.48-2.246,3.748,3.748,0,0,1,1.344-1.547,3.379,3.379,0,0,1,1.871-.559,3.166,3.166,0,0,1,2.563,1.086,4.7,4.7,0,0,1,.914,3.109v.6H16.586a3,3,0,0,0,.73,2.02,2.3,2.3,0,0,0,1.777.77,2.517,2.517,0,0,0,1.3-.312,3.258,3.258,0,0,0,.93-.828l.883.688A3.55,3.55,0,0,1,19.016,173.156Zm-.18-7.578a1.928,1.928,0,0,0-1.469.637A3.1,3.1,0,0,0,16.633,168h4.234v-.109a2.753,2.753,0,0,0-.594-1.707A1.815,1.815,0,0,0,18.836,165.578Zm9.234.266a4.332,4.332,0,0,0-.711-.055A1.9,1.9,0,0,0,25.43,167v6H23.984v-8.453h1.406l.023.977a2.251,2.251,0,0,1,2.016-1.133,1.476,1.476,0,0,1,.641.109Zm4.836,7.313a3.693,3.693,0,0,1-2.8-1.129,4.19,4.19,0,0,1-1.078-3.02v-.266a5.073,5.073,0,0,1,.48-2.246,3.748,3.748,0,0,1,1.344-1.547,3.379,3.379,0,0,1,1.871-.559,3.166,3.166,0,0,1,2.563,1.086,4.7,4.7,0,0,1,.914,3.109v.6H30.477a3,3,0,0,0,.73,2.02,2.3,2.3,0,0,0,1.777.77,2.517,2.517,0,0,0,1.3-.312,3.258,3.258,0,0,0,.93-.828l.883.688A3.55,3.55,0,0,1,32.906,173.156Zm-.18-7.578a1.928,1.928,0,0,0-1.469.637A3.1,3.1,0,0,0,30.523,168h4.234v-.109a2.753,2.753,0,0,0-.594-1.707A1.815,1.815,0,0,0,32.727,165.578ZM3.992,208.414l.219,1.5.32-1.352,2.25-7.937H8.047l2.2,7.938.313,1.375.242-1.531,1.766-7.781H14.07L11.313,212H9.945L7.6,203.711l-.18-.867-.18.867L4.813,212H3.445L.7,200.625H2.2Zm15.023,3.742a3.693,3.693,0,0,1-2.8-1.129,4.19,4.19,0,0,1-1.078-3.02v-.266a5.073,5.073,0,0,1,.48-2.246,3.748,3.748,0,0,1,1.344-1.547,3.379,3.379,0,0,1,1.871-.559,3.166,3.166,0,0,1,2.563,1.086,4.7,4.7,0,0,1,.914,3.109v.6H16.586a3,3,0,0,0,.73,2.02,2.3,2.3,0,0,0,1.777.77,2.517,2.517,0,0,0,1.3-.312,3.258,3.258,0,0,0,.93-.828l.883.688A3.55,3.55,0,0,1,19.016,212.156Zm-.18-7.578a1.928,1.928,0,0,0-1.469.637A3.1,3.1,0,0,0,16.633,207h4.234v-.109a2.753,2.753,0,0,0-.594-1.707A1.815,1.815,0,0,0,18.836,204.578Zm9.234.266a4.332,4.332,0,0,0-.711-.055A1.9,1.9,0,0,0,25.43,206v6H23.984v-8.453h1.406l.023.977a2.251,2.251,0,0,1,2.016-1.133,1.476,1.476,0,0,1,.641.109Zm4.836,7.313a3.693,3.693,0,0,1-2.8-1.129,4.19,4.19,0,0,1-1.078-3.02v-.266a5.073,5.073,0,0,1,.48-2.246,3.748,3.748,0,0,1,1.344-1.547,3.379,3.379,0,0,1,1.871-.559,3.166,3.166,0,0,1,2.563,1.086,4.7,4.7,0,0,1,.914,3.109v.6H30.477a3,3,0,0,0,.73,2.02,2.3,2.3,0,0,0,1.777.77,2.517,2.517,0,0,0,1.3-.312,3.258,3.258,0,0,0,.93-.828l.883.688A3.55,3.55,0,0,1,32.906,212.156Zm-.18-7.578a1.928,1.928,0,0,0-1.469.637A3.1,3.1,0,0,0,30.523,207h4.234v-.109a2.753,2.753,0,0,0-.594-1.707A1.815,1.815,0,0,0,32.727,204.578ZM3.992,247.414l.219,1.5.32-1.352,2.25-7.937H8.047l2.2,7.938.313,1.375.242-1.531,1.766-7.781H14.07L11.313,251H9.945L7.6,242.711l-.18-.867-.18.867L4.813,251H3.445L.7,239.625H2.2Zm15.023,3.742a3.693,3.693,0,0,1-2.8-1.129,4.19,4.19,0,0,1-1.078-3.02v-.266a5.073,5.073,0,0,1,.48-2.246,3.748,3.748,0,0,1,1.344-1.547,3.379,3.379,0,0,1,1.871-.559,3.166,3.166,0,0,1,2.563,1.086,4.7,4.7,0,0,1,.914,3.109v.6H16.586a3,3,0,0,0,.73,2.02,2.3,2.3,0,0,0,1.777.77,2.517,2.517,0,0,0,1.3-.312,3.258,3.258,0,0,0,.93-.828l.883.688A3.55,3.55,0,0,1,19.016,251.156Zm-.18-7.578a1.928,1.928,0,0,0-1.469.637A3.1,3.1,0,0,0,16.633,246h4.234v-.109a2.753,2.753,0,0,0-.594-1.707A1.815,1.815,0,0,0,18.836,243.578Zm9.234.266a4.332,4.332,0,0,0-.711-.055A1.9,1.9,0,0,0,25.43,245v6H23.984v-8.453h1.406l.023.977a2.251,2.251,0,0,1,2.016-1.133,1.476,1.476,0,0,1,.641.109Zm4.836,7.313a3.693,3.693,0,0,1-2.8-1.129,4.19,4.19,0,0,1-1.078-3.02v-.266a5.073,5.073,0,0,1,.48-2.246,3.748,3.748,0,0,1,1.344-1.547,3.379,3.379,0,0,1,1.871-.559,3.166,3.166,0,0,1,2.563,1.086,4.7,4.7,0,0,1,.914,3.109v.6H30.477a3,3,0,0,0,.73,2.02,2.3,2.3,0,0,0,1.777.77,2.517,2.517,0,0,0,1.3-.312,3.258,3.258,0,0,0,.93-.828l.883.688A3.55,3.55,0,0,1,32.906,251.156Zm-.18-7.578a1.928,1.928,0,0,0-1.469.637A3.1,3.1,0,0,0,30.523,246h4.234v-.109a2.753,2.753,0,0,0-.594-1.707A1.815,1.815,0,0,0,32.727,243.578Z" transform="translate(627 1071)" fill="#12263f"/>
    <path id="Trazado_170518" data-name="Trazado 170518" d="M15.688,12.992V17H13.344V5.625h4.438a5.134,5.134,0,0,1,2.254.469,3.454,3.454,0,0,1,1.5,1.332,3.714,3.714,0,0,1,.523,1.965,3.266,3.266,0,0,1-1.145,2.637,4.767,4.767,0,0,1-3.168.965Zm0-1.9h2.094a2.059,2.059,0,0,0,1.418-.437,1.591,1.591,0,0,0,.488-1.25A1.876,1.876,0,0,0,19.2,8.055a1.839,1.839,0,0,0-1.359-.531H15.688ZM28.328,17a2.507,2.507,0,0,1-.227-.758,2.732,2.732,0,0,1-2.133.914,3,3,0,0,1-2.059-.719,2.312,2.312,0,0,1-.816-1.812,2.389,2.389,0,0,1,1-2.062,4.915,4.915,0,0,1,2.879-.727h1.039v-.484a1.393,1.393,0,0,0-.3-.937,1.183,1.183,0,0,0-.949-.352,1.345,1.345,0,0,0-.895.273.929.929,0,0,0-.324.75H23.281a2.268,2.268,0,0,1,.453-1.359,3,3,0,0,1,1.281-.98,4.669,4.669,0,0,1,1.859-.355,3.689,3.689,0,0,1,2.48.785,2.747,2.747,0,0,1,.918,2.207v3.664a4.041,4.041,0,0,0,.336,1.82V17Zm-1.867-1.57a1.945,1.945,0,0,0,.922-.223,1.462,1.462,0,0,0,.625-.6V13.156h-.844q-1.7,0-1.8,1.172l-.008.133a.9.9,0,0,0,.3.7A1.153,1.153,0,0,0,26.461,15.43Zm10.125-.766a.727.727,0,0,0-.41-.652,4.659,4.659,0,0,0-1.316-.426q-3.016-.633-3.016-2.562a2.323,2.323,0,0,1,.934-1.879,3.766,3.766,0,0,1,2.441-.754,4.053,4.053,0,0,1,2.574.758,2.388,2.388,0,0,1,.965,1.969H36.5a1.092,1.092,0,0,0-.312-.8A1.322,1.322,0,0,0,35.211,10a1.351,1.351,0,0,0-.883.258.814.814,0,0,0-.312.656.7.7,0,0,0,.355.605,3.657,3.657,0,0,0,1.2.4,9.8,9.8,0,0,1,1.422.379,2.336,2.336,0,0,1,1.789,2.273,2.2,2.2,0,0,1-.992,1.871,4.28,4.28,0,0,1-2.562.715,4.47,4.47,0,0,1-1.887-.379,3.166,3.166,0,0,1-1.293-1.039,2.414,2.414,0,0,1-.469-1.426h2.141a1.179,1.179,0,0,0,.445.922,1.766,1.766,0,0,0,1.109.32,1.635,1.635,0,0,0,.98-.246A.766.766,0,0,0,36.586,14.664Zm6.352-8.2V8.547h1.445V10.2H42.938v4.219a1.007,1.007,0,0,0,.18.672.9.9,0,0,0,.688.2,3.6,3.6,0,0,0,.664-.055v1.711a4.648,4.648,0,0,1-1.367.2,2.156,2.156,0,0,1-2.422-2.4V10.2H39.445V8.547H40.68V6.469Zm14.93,1.055H54.383V17H52.039V7.523H48.6v-1.9h9.266Zm5.078,9.633a4.15,4.15,0,0,1-3.027-1.141,4.054,4.054,0,0,1-1.168-3.039v-.219a5.106,5.106,0,0,1,.492-2.277,3.612,3.612,0,0,1,1.395-1.547A3.914,3.914,0,0,1,62.7,8.391a3.508,3.508,0,0,1,2.73,1.094,4.444,4.444,0,0,1,1,3.1v.922H61.039a2.1,2.1,0,0,0,.66,1.328,2,2,0,0,0,1.395.5,2.437,2.437,0,0,0,2.039-.945l1.109,1.242a3.389,3.389,0,0,1-1.375,1.121A4.511,4.511,0,0,1,62.945,17.156Zm-.258-6.937a1.414,1.414,0,0,0-1.09.453,2.341,2.341,0,0,0-.535,1.3H64.2v-.18a1.669,1.669,0,0,0-.406-1.16A1.459,1.459,0,0,0,62.688,10.219Zm7.094-1.672.07.977a2.951,2.951,0,0,1,2.43-1.133,2.453,2.453,0,0,1,2,.789,3.682,3.682,0,0,1,.672,2.359V17H72.7V11.594a1.465,1.465,0,0,0-.312-1.043,1.4,1.4,0,0,0-1.039-.324,1.553,1.553,0,0,0-1.43.813V17H67.656V8.547Zm11.461,6.117a.727.727,0,0,0-.41-.652,4.659,4.659,0,0,0-1.316-.426Q76.5,12.953,76.5,11.023a2.323,2.323,0,0,1,.934-1.879,3.766,3.766,0,0,1,2.441-.754,4.053,4.053,0,0,1,2.574.758,2.388,2.388,0,0,1,.965,1.969H81.156a1.092,1.092,0,0,0-.312-.8A1.322,1.322,0,0,0,79.867,10a1.351,1.351,0,0,0-.883.258.814.814,0,0,0-.312.656.7.7,0,0,0,.355.605,3.657,3.657,0,0,0,1.2.4,9.8,9.8,0,0,1,1.422.379,2.336,2.336,0,0,1,1.789,2.273,2.2,2.2,0,0,1-.992,1.871,4.28,4.28,0,0,1-2.562.715A4.47,4.47,0,0,1,78,16.777,3.166,3.166,0,0,1,76.7,15.738a2.414,2.414,0,0,1-.469-1.426h2.141a1.179,1.179,0,0,0,.445.922,1.766,1.766,0,0,0,1.109.32,1.635,1.635,0,0,0,.98-.246A.766.766,0,0,0,81.242,14.664Zm7.539,2.492a4.15,4.15,0,0,1-3.027-1.141,4.054,4.054,0,0,1-1.168-3.039v-.219a5.106,5.106,0,0,1,.492-2.277,3.612,3.612,0,0,1,1.395-1.547,3.914,3.914,0,0,1,2.059-.543,3.508,3.508,0,0,1,2.73,1.094,4.444,4.444,0,0,1,1,3.1v.922H86.875a2.1,2.1,0,0,0,.66,1.328,2,2,0,0,0,1.395.5,2.437,2.437,0,0,0,2.039-.945l1.109,1.242A3.389,3.389,0,0,1,90.7,16.754,4.511,4.511,0,0,1,88.781,17.156Zm-.258-6.937a1.414,1.414,0,0,0-1.09.453,2.341,2.341,0,0,0-.535,1.3h3.141v-.18a1.669,1.669,0,0,0-.406-1.16A1.459,1.459,0,0,0,88.523,10.219Z" transform="translate(330 1026)" fill="#12263f"/>
    <path id="Trazado_170519" data-name="Trazado 170519" d="M12.891,14.016A1.2,1.2,0,0,0,12.422,13a6.148,6.148,0,0,0-1.687-.75,11.963,11.963,0,0,1-1.93-.777,3.153,3.153,0,0,1-1.937-2.82A2.747,2.747,0,0,1,7.387,7,3.389,3.389,0,0,1,8.879,5.875a5.616,5.616,0,0,1,2.184-.406,5.112,5.112,0,0,1,2.172.441,3.458,3.458,0,0,1,1.48,1.246,3.261,3.261,0,0,1,.527,1.828H12.9a1.534,1.534,0,0,0-.492-1.215,2.023,2.023,0,0,0-1.383-.434A2.162,2.162,0,0,0,9.688,7.7a1.146,1.146,0,0,0-.477.957,1.1,1.1,0,0,0,.559.93,6.311,6.311,0,0,0,1.645.7,7.106,7.106,0,0,1,2.914,1.492A2.972,2.972,0,0,1,15.242,14a2.737,2.737,0,0,1-1.117,2.316,4.891,4.891,0,0,1-3.008.84,5.808,5.808,0,0,1-2.391-.48,3.783,3.783,0,0,1-1.645-1.316,3.371,3.371,0,0,1-.566-1.937H8.867q0,1.883,2.25,1.883a2.189,2.189,0,0,0,1.3-.34A1.106,1.106,0,0,0,12.891,14.016Zm7.68,3.141a4.15,4.15,0,0,1-3.027-1.141,4.054,4.054,0,0,1-1.168-3.039v-.219a5.106,5.106,0,0,1,.492-2.277,3.612,3.612,0,0,1,1.395-1.547,3.914,3.914,0,0,1,2.059-.543,3.508,3.508,0,0,1,2.73,1.094,4.444,4.444,0,0,1,1,3.1v.922H18.664a2.1,2.1,0,0,0,.66,1.328,2,2,0,0,0,1.395.5,2.437,2.437,0,0,0,2.039-.945l1.109,1.242a3.389,3.389,0,0,1-1.375,1.121A4.511,4.511,0,0,1,20.57,17.156Zm-.258-6.937a1.414,1.414,0,0,0-1.09.453,2.341,2.341,0,0,0-.535,1.3h3.141v-.18a1.669,1.669,0,0,0-.406-1.16A1.459,1.459,0,0,0,20.313,10.219Zm8.531,5.117a1.481,1.481,0,0,0,1.016-.344,1.2,1.2,0,0,0,.406-.914h2.117a2.9,2.9,0,0,1-.469,1.574,3.093,3.093,0,0,1-1.262,1.109,3.949,3.949,0,0,1-1.77.395A3.67,3.67,0,0,1,26.023,16a4.56,4.56,0,0,1-1.047-3.184v-.148a4.508,4.508,0,0,1,1.039-3.117,3.627,3.627,0,0,1,2.852-1.164,3.555,3.555,0,0,1,2.543.9,3.2,3.2,0,0,1,.973,2.4H30.266a1.539,1.539,0,0,0-.406-1.066,1.513,1.513,0,0,0-2.223.164,3.324,3.324,0,0,0-.4,1.863v.234a3.366,3.366,0,0,0,.4,1.875A1.378,1.378,0,0,0,28.844,15.336ZM33.32,12.7a5.013,5.013,0,0,1,.484-2.242A3.546,3.546,0,0,1,35.2,8.93a4.069,4.069,0,0,1,2.113-.539,3.849,3.849,0,0,1,2.793,1.047,4.2,4.2,0,0,1,1.207,2.844l.016.578a4.418,4.418,0,0,1-1.086,3.121,4.209,4.209,0,0,1-5.832,0A4.5,4.5,0,0,1,33.32,12.8Zm2.258.164a3.151,3.151,0,0,0,.453,1.84,1.629,1.629,0,0,0,2.578.008A3.448,3.448,0,0,0,39.07,12.7a3.12,3.12,0,0,0-.461-1.828,1.5,1.5,0,0,0-1.3-.648,1.475,1.475,0,0,0-1.281.645A3.506,3.506,0,0,0,35.578,12.859ZM44.8,8.547l.07.977A2.951,2.951,0,0,1,47.3,8.391a2.453,2.453,0,0,1,2,.789,3.682,3.682,0,0,1,.672,2.359V17H47.711V11.594a1.465,1.465,0,0,0-.312-1.043,1.4,1.4,0,0,0-1.039-.324,1.553,1.553,0,0,0-1.43.813V17H42.672V8.547Zm6.531,4.164a5.094,5.094,0,0,1,.887-3.148,2.877,2.877,0,0,1,2.426-1.172,2.589,2.589,0,0,1,2.039.922V5h2.266V17H56.906l-.109-.9a2.657,2.657,0,0,1-2.172,1.055A2.869,2.869,0,0,1,52.23,15.98,5.258,5.258,0,0,1,51.328,12.711Zm2.258.164A3.328,3.328,0,0,0,54,14.7a1.349,1.349,0,0,0,1.2.633,1.511,1.511,0,0,0,1.477-.883V11.109a1.489,1.489,0,0,0-1.461-.883Q53.586,10.227,53.586,12.875Zm20.172.336A4.025,4.025,0,0,1,72.4,16.1a4.76,4.76,0,0,1-3.223,1.055,4.28,4.28,0,0,1-3.441-1.473,6.038,6.038,0,0,1-1.254-4.043v-.7a6.819,6.819,0,0,1,.578-2.891,4.332,4.332,0,0,1,1.652-1.918,5.164,5.164,0,0,1,5.668.387,4.326,4.326,0,0,1,1.391,2.961H71.43a2.376,2.376,0,0,0-.613-1.6,2.271,2.271,0,0,0-1.605-.5,1.991,1.991,0,0,0-1.754.84,4.707,4.707,0,0,0-.6,2.605V11.7a5.038,5.038,0,0,0,.559,2.7,1.954,1.954,0,0,0,1.762.852,2.314,2.314,0,0,0,1.621-.5,2.241,2.241,0,0,0,.613-1.535ZM74.8,12.7a5.013,5.013,0,0,1,.484-2.242A3.546,3.546,0,0,1,76.676,8.93a4.069,4.069,0,0,1,2.113-.539,3.849,3.849,0,0,1,2.793,1.047,4.2,4.2,0,0,1,1.207,2.844l.016.578a4.418,4.418,0,0,1-1.086,3.121,4.209,4.209,0,0,1-5.832,0A4.5,4.5,0,0,1,74.8,12.8Zm2.258.164a3.151,3.151,0,0,0,.453,1.84,1.629,1.629,0,0,0,2.578.008,3.448,3.448,0,0,0,.461-2.012,3.12,3.12,0,0,0-.461-1.828,1.5,1.5,0,0,0-1.3-.648,1.475,1.475,0,0,0-1.281.645A3.506,3.506,0,0,0,77.055,12.859Zm9.219-4.312.07.977a2.951,2.951,0,0,1,2.43-1.133,2.453,2.453,0,0,1,2,.789,3.682,3.682,0,0,1,.672,2.359V17H89.188V11.594a1.465,1.465,0,0,0-.312-1.043,1.4,1.4,0,0,0-1.039-.324,1.553,1.553,0,0,0-1.43.813V17H84.148V8.547ZM92.8,12.711a5.094,5.094,0,0,1,.887-3.148,2.877,2.877,0,0,1,2.426-1.172,2.589,2.589,0,0,1,2.039.922V5h2.266V17H98.383l-.109-.9A2.657,2.657,0,0,1,96.1,17.156a2.869,2.869,0,0,1-2.395-1.176A5.258,5.258,0,0,1,92.8,12.711Zm2.258.164a3.328,3.328,0,0,0,.414,1.82,1.349,1.349,0,0,0,1.2.633,1.511,1.511,0,0,0,1.477-.883V11.109a1.489,1.489,0,0,0-1.461-.883Q95.063,10.227,95.063,12.875ZM104.555,17h-2.266V8.547h2.266Zm-2.4-10.641a1.112,1.112,0,0,1,.34-.836,1.465,1.465,0,0,1,1.848,0,1.105,1.105,0,0,1,.344.836,1.108,1.108,0,0,1-.348.844,1.448,1.448,0,0,1-1.836,0A1.108,1.108,0,0,1,102.156,6.359Zm6.961.109V8.547h1.445V10.2h-1.445v4.219a1.007,1.007,0,0,0,.18.672.9.9,0,0,0,.688.2,3.6,3.6,0,0,0,.664-.055v1.711a4.648,4.648,0,0,1-1.367.2,2.156,2.156,0,0,1-2.422-2.4V10.2h-1.234V8.547h1.234V6.469ZM114.2,17h-2.266V8.547H114.2ZM111.8,6.359a1.112,1.112,0,0,1,.34-.836,1.465,1.465,0,0,1,1.848,0,1.105,1.105,0,0,1,.344.836,1.108,1.108,0,0,1-.348.844,1.448,1.448,0,0,1-1.836,0A1.108,1.108,0,0,1,111.8,6.359Zm3.906,6.336a5.013,5.013,0,0,1,.484-2.242A3.546,3.546,0,0,1,117.59,8.93a4.069,4.069,0,0,1,2.113-.539A3.849,3.849,0,0,1,122.5,9.438a4.2,4.2,0,0,1,1.207,2.844l.016.578a4.418,4.418,0,0,1-1.086,3.121,4.209,4.209,0,0,1-5.832,0,4.5,4.5,0,0,1-1.09-3.187Zm2.258.164a3.151,3.151,0,0,0,.453,1.84,1.629,1.629,0,0,0,2.578.008,3.448,3.448,0,0,0,.461-2.012A3.12,3.12,0,0,0,121,10.867a1.5,1.5,0,0,0-1.3-.648,1.475,1.475,0,0,0-1.281.645A3.506,3.506,0,0,0,117.969,12.859Zm9.219-4.312.07.977a2.951,2.951,0,0,1,2.43-1.133,2.453,2.453,0,0,1,2,.789,3.682,3.682,0,0,1,.672,2.359V17H130.1V11.594a1.465,1.465,0,0,0-.312-1.043,1.4,1.4,0,0,0-1.039-.324,1.553,1.553,0,0,0-1.43.813V17h-2.258V8.547ZM138.969,17a2.507,2.507,0,0,1-.227-.758,2.732,2.732,0,0,1-2.133.914,3,3,0,0,1-2.059-.719,2.312,2.312,0,0,1-.816-1.812,2.389,2.389,0,0,1,1-2.062,4.915,4.915,0,0,1,2.879-.727h1.039v-.484a1.393,1.393,0,0,0-.3-.937,1.183,1.183,0,0,0-.949-.352,1.345,1.345,0,0,0-.895.273.929.929,0,0,0-.324.75h-2.258a2.268,2.268,0,0,1,.453-1.359,3,3,0,0,1,1.281-.98,4.669,4.669,0,0,1,1.859-.355,3.689,3.689,0,0,1,2.48.785,2.747,2.747,0,0,1,.918,2.207v3.664a4.041,4.041,0,0,0,.336,1.82V17ZM137.1,15.43a1.945,1.945,0,0,0,.922-.223,1.462,1.462,0,0,0,.625-.6V13.156H137.8q-1.7,0-1.8,1.172l-.008.133a.9.9,0,0,0,.3.7A1.153,1.153,0,0,0,137.1,15.43Zm7.93,1.57h-2.266V5h2.266Z" transform="translate(512 1026)" fill="#12263f"/>
    <line id="Línea_639" data-name="Línea 639" x2="400" transform="translate(285 1058)" fill="none" stroke="#12263f" stroke-width="1"/>
    <line id="Línea_640" data-name="Línea 640" x2="400" transform="translate(285 1097)" fill="none" stroke="#12263f" stroke-width="1"/>
    <line id="Línea_641" data-name="Línea 641" x2="400" transform="translate(285 1139)" fill="none" stroke="#12263f" stroke-width="1"/>
    <line id="Línea_642" data-name="Línea 642" x2="400" transform="translate(285 1178)" fill="none" stroke="#12263f" stroke-width="1"/>
    <line id="Línea_643" data-name="Línea 643" x2="400" transform="translate(285 1217)" fill="none" stroke="#12263f" stroke-width="1"/>
    <line id="Línea_644" data-name="Línea 644" x2="400" transform="translate(285 1256)" fill="none" stroke="#12263f" stroke-width="1"/>
    <line id="Línea_645" data-name="Línea 645" x2="400" transform="translate(285 1295)" fill="none" stroke="#12263f" stroke-width="1"/>
  </g>
</svg>
