<svg xmlns="http://www.w3.org/2000/svg" xmlns:xlink="http://www.w3.org/1999/xlink" width="88" height="88" viewBox="0 0 88 88">
  <defs>
    <clipPath id="clip-path">
      <rect id="Rectángulo_43548" data-name="Rectángulo 43548" width="65.257" height="65.314" fill="none"/>
    </clipPath>
  </defs>
  <g id="Grupo_171382" data-name="Grupo 171382" transform="translate(-232 -1727)">
    <circle id="Elipse_4777" data-name="Elipse 4777" cx="44" cy="44" r="44" transform="translate(232 1727)" fill="#ff9fa3"/>
    <g id="Grupo_171309" data-name="Grupo 171309" transform="translate(243 1738)">
      <g id="Grupo_171308" data-name="Grupo 171308" transform="translate(0 0)" clip-path="url(#clip-path)">
        <path id="Trazado_168946" data-name="Trazado 168946" d="M10.3,55.1c-.717.419-1.032.39-1.56-.185A31.914,31.914,0,0,1,.216,36.476,32.334,32.334,0,0,1,18.362,3.315,32.6,32.6,0,0,1,64.369,25.089a29.928,29.928,0,0,1,.77,4.9c.007.1-.016.217.118.261v4.973a32.551,32.551,0,0,1-.577,4.457,32.375,32.375,0,0,1-6.857,13.981A33.11,33.11,0,0,1,49.352,60.9a32.059,32.059,0,0,1-12.115,4.242c-.729.1-1.472.04-2.2.166H30.191a13.689,13.689,0,0,0-2.474-.372,32.747,32.747,0,0,1-15.832-7.057c-.527-.429-.571-.8-.225-1.447a.9.9,0,0,1,1.406-.242c.63.431,1.211.931,1.837,1.372A30.364,30.364,0,0,0,29.02,63a29.9,29.9,0,0,0,17.759-3.243A30.271,30.271,0,0,0,58.508,48.886,22.677,22.677,0,0,0,60.4,45.358a28.441,28.441,0,0,0,2.611-9.673A30,30,0,0,0,58.6,16.613,30.368,30.368,0,0,0,45.62,5.009,29.925,29.925,0,0,0,34.956,2.223,29.923,29.923,0,0,0,18.568,5.536,30.328,30.328,0,0,0,6.15,17.386,29.732,29.732,0,0,0,2.349,28.4a30.638,30.638,0,0,0,.939,12.86A33.474,33.474,0,0,0,4.8,45.317,28.21,28.21,0,0,0,8.616,51.6c.538.682,1.114,1.333,1.7,1.977.523.579.5,1.056-.015,1.522" transform="translate(0 0)"/>
        <path id="Trazado_168947" data-name="Trazado 168947" d="M62.213,61.674a24.245,24.245,0,0,1-3.307,5.633A29.961,29.961,0,0,1,40.268,79.042a30.248,30.248,0,0,1-25-6.005q-.254-.193-.5-.392a.974.974,0,0,0-1.421.045l-1.362-1.334a1.13,1.13,0,0,0-.233-1.58,30.071,30.071,0,0,1-5.191-7.633c-.071-.15-.12-.312-.18-.468.31-.044.391.21.5.4a31.7,31.7,0,0,0,16,13.872,31.418,31.418,0,0,0,8.273,1.987A31.48,31.48,0,0,0,53.2,71.771a32.246,32.246,0,0,0,8.456-9.581c.13-.222.189-.546.561-.516" transform="translate(-1.68 -16.253)" fill="#e5485d"/>
        <path id="Trazado_168948" data-name="Trazado 168948" d="M61.2,46.088a6,6,0,0,0-.963,1.475,30.217,30.217,0,0,1-5.78,6.966A30.837,30.837,0,0,1,41.6,61.538a35.472,35.472,0,0,1-5.975,1.023,30.646,30.646,0,0,1-9.375-.691,31.48,31.48,0,0,1-17.413-10.8A31.88,31.88,0,0,1,5.587,46.3a1.063,1.063,0,0,0-.224-.217,27.777,27.777,0,0,1-2.529-8.625A29.45,29.45,0,0,1,4.215,23.4C7.639,13.879,14.129,7.322,23.753,4.171A29.446,29.446,0,0,1,50.014,7.6a29.71,29.71,0,0,1,13.5,20.351,30,30,0,0,1-2.133,17.8c-.051.115-.119.223-.179.334" transform="translate(-0.669 -0.666)" fill="#fe5876"/>
        <path id="Trazado_168949" data-name="Trazado 168949" d="M53.823,16.566c.373.508.938.856,1.217,1.445a3.005,3.005,0,0,0,.847,2.157,24.9,24.9,0,0,1,4.727,12.263A25.2,25.2,0,0,1,58.472,45.7a2.136,2.136,0,0,1-.274.5c-.661.725-1.112,1.6-1.7,2.378A26.35,26.35,0,0,1,39.188,59.126a28.207,28.207,0,0,1-3.16.306c-.247.013-.633.144-.694-.321a2.231,2.231,0,0,0,.614-1.805c-.024-.466,0-.934-.005-1.4a2.431,2.431,0,0,0-.064-.632c-.113-.415-.292-.77-.8-.761-.47.008-.646.342-.753.735a2.619,2.619,0,0,0-.073.694c0,.509.011,1.019,0,1.527a2.094,2.094,0,0,0,.591,1.624c.011.468-.367.348-.591.34a26.665,26.665,0,0,1-3.167-.295A26.572,26.572,0,0,1,13.052,47.679a9.871,9.871,0,0,0-1.033-1.45A19.805,19.805,0,0,1,10.143,41.1a23.919,23.919,0,0,1-.711-6.244A25.94,25.94,0,0,1,11.655,24.8,25.672,25.672,0,0,1,31.884,9.743,25.337,25.337,0,0,1,47,12.453a23.574,23.574,0,0,1,5.02,3.464,1.946,1.946,0,0,0,1.807.65" transform="translate(-2.484 -2.51)" fill="#e3edf8"/>
        <path id="Trazado_168950" data-name="Trazado 168950" d="M53.185,15.948a1.109,1.109,0,0,1-1.537-.18,24.622,24.622,0,0,0-13.453-6.4,24.845,24.845,0,0,0-20.157,5.756A24.686,24.686,0,0,0,9.276,30.743a24.394,24.394,0,0,0,2.231,14.786,31.666,31.666,0,0,0,5.367,7.233A25.3,25.3,0,0,0,31.135,59.65,25.288,25.288,0,0,0,55.954,47.917c.494-.791.991-1.58,1.459-2.388a23.316,23.316,0,0,0,2.316-7.816,25.1,25.1,0,0,0-2.9-15.371,23.449,23.449,0,0,0-2.317-3.5,1.1,1.1,0,0,1-.107-1.452c.717-.46,1.093-.4,1.622.276a26.583,26.583,0,0,1,5.743,14.909A27.276,27.276,0,0,1,45.2,59.769a25.687,25.687,0,0,1-14.01,1.966C20.465,60.213,12.965,54.371,8.906,44.373a27.1,27.1,0,0,1,6.411-29.4A26.469,26.469,0,0,1,30.576,7.453,26.959,26.959,0,0,1,52.891,14.3c.674.6.717.883.295,1.647" transform="translate(-1.847 -1.891)"/>
        <path id="Trazado_168951" data-name="Trazado 168951" d="M28.866,33.861a.982.982,0,0,1-1.419-.135c-1.757-1.572-3.528-3.128-5.277-4.709a2.875,2.875,0,1,1,3.836-4.277q5.432,4.822,10.849,9.661a1.789,1.789,0,0,0,2.3-.054c1.745-1.77,3.472-3.557,5.239-5.305a2.852,2.852,0,0,1,4.8,1.294,2.807,2.807,0,0,1-.781,2.806c-1.883,1.9-3.743,3.828-5.649,5.708-.571.564-.409,1.35-.759,1.971-.094.168.2.292.341.409q4.755,4,9.513,7.988a6.567,6.567,0,0,1,.526.463.949.949,0,0,1-1.247,1.429c-.207-.147-.395-.322-.59-.485q-4.708-3.954-9.41-7.914a.622.622,0,0,0-.862-.088A4.194,4.194,0,0,1,34.084,40a1.468,1.468,0,0,0-.476-.791c-.977-.85-1.941-1.717-2.907-2.58-.643-.576-.693-.837-.325-1.6a.916.916,0,0,1,1.369-.2c.645.417,1.124,1.032,1.745,1.478.262.185.417.686.77.533s.553-.613.792-.957c.081-.116-.008-.243-.094-.342-.138-.16-.3-.3-.448-.448q-2.693-2.378-5.369-4.777c-1.356-1.22-2.746-2.4-4.074-3.652a3.953,3.953,0,0,0-.533-.452.808.808,0,0,0-1.1.052.8.8,0,0,0,.052,1.149c.448.449.931.867,1.413,1.281,1.318,1.135,2.6,2.313,3.908,3.456.74.645.736,1.242.063,1.718" transform="translate(-5.562 -6.304)"/>
        <path id="Trazado_168952" data-name="Trazado 168952" d="M59.023,59.253a23.516,23.516,0,0,1-5.221,7.3,25.269,25.269,0,0,1-15.091,7.082,25.605,25.605,0,0,1-25.551-14.2.825.825,0,0,1-.042-.183A19.7,19.7,0,0,1,14.77,61.56a26.954,26.954,0,0,0,5.26,5.365,26.015,26.015,0,0,0,10.491,4.862,31.237,31.237,0,0,0,4.691.594c.2.013.429.068.6-.11a.331.331,0,0,1,.512,0,1.48,1.48,0,0,0,1.047.1,29.062,29.062,0,0,0,7.239-1.4,26.7,26.7,0,0,0,8.675-5A29.409,29.409,0,0,0,58.7,59.627c.091-.14.147-.31.326-.374" transform="translate(-3.457 -15.616)" fill="#d4dff1"/>
        <path id="Trazado_168953" data-name="Trazado 168953" d="M34.124,37.139c-.51-.439-1.032-.864-1.526-1.32a1.085,1.085,0,0,0-1.53-.1c-.531-.353-.873-.952-1.512-1.164.5-.663.49-1.007-.147-1.577-1.656-1.487-3.325-2.958-4.994-4.43-.353-.313-.736-.613-.688-1.146a.955.955,0,0,1,1.628-.591c.9.743,1.751,1.538,2.622,2.313q3.536,3.151,7.069,6.3a3.568,3.568,0,0,1,.255.281,2.194,2.194,0,0,1-1.177,1.432" transform="translate(-6.252 -6.994)" fill="#405b6c"/>
        <path id="Trazado_168954" data-name="Trazado 168954" d="M44.194,75.19h-.512a1.02,1.02,0,0,1-.7-1.067c-.01-.914-.017-1.828,0-2.741.015-.67.373-1.049.939-1.058.593-.01.959.379.973,1.089.018.892-.005,1.785.007,2.677a1.128,1.128,0,0,1-.708,1.1" transform="translate(-11.325 -18.534)" fill="#020202"/>
        <path id="Trazado_168955" data-name="Trazado 168955" d="M44.891,14.271c0,.486.025.974-.007,1.458a.947.947,0,0,1-1.893-.01q-.046-1.489,0-2.98a.884.884,0,0,1,.919-.932.931.931,0,0,1,.981.942,1.214,1.214,0,0,1,.005.127q0,.7,0,1.4h-.007" transform="translate(-11.324 -3.111)" fill="#020202"/>
        <path id="Trazado_168956" data-name="Trazado 168956" d="M14.216,43.057c.465,0,.932-.024,1.395.006a.928.928,0,0,1,.973.951.917.917,0,0,1-.968.954q-1.458.046-2.918,0a.919.919,0,0,1-.973-.95.948.948,0,0,1,.969-.96,1.215,1.215,0,0,1,.127-.005h1.4v0" transform="translate(-3.09 -11.345)" fill="#020202"/>
        <path id="Trazado_168957" data-name="Trazado 168957" d="M72.671,43.057c.486,0,.974-.024,1.459.006a.929.929,0,0,1,.975.949.92.92,0,0,1-.968.955c-.971.032-1.946.031-2.917,0a.917.917,0,0,1-.974-.948.927.927,0,0,1,.966-.957c.485-.031.973-.007,1.459-.007" transform="translate(-18.513 -11.345)" fill="#020202"/>
        <path id="Trazado_168958" data-name="Trazado 168958" d="M48.775,36.981c1.411-1.435,2.818-2.876,4.237-4.3a.986.986,0,0,1,1.371-.08.969.969,0,0,1,.005,1.375c-1.471,1.495-2.964,2.969-4.449,4.45a2.916,2.916,0,0,1-1.164-1.441" transform="translate(-12.855 -8.528)" fill="#405b6b"/>
        <path id="Trazado_168959" data-name="Trazado 168959" d="M41.19,43.666a2.283,2.283,0,1,1,4.556,0,3.092,3.092,0,0,1-4.556,0" transform="translate(-10.855 -10.867)" fill="#fe5875"/>
        <path id="Trazado_168960" data-name="Trazado 168960" d="M41.191,44.536a5.878,5.878,0,0,0,1.693.784,3.262,3.262,0,0,0,2.533-.6,3,3,0,0,1,.331-.182,2.281,2.281,0,0,1-4.556,0" transform="translate(-10.856 -11.737)" fill="#e5485d"/>
        <path id="Trazado_168961" data-name="Trazado 168961" d="M37.846,40.419l1.177-1.432c.144.122.281.253.433.362.371.265.354.519,0,.786a1.333,1.333,0,0,0-.214.231c-.658.831-.658.832-1.4.054" transform="translate(-9.974 -10.275)" fill="#2d4355"/>
        <path id="Trazado_168962" data-name="Trazado 168962" d="M48.548,38.636a13.411,13.411,0,0,1,1.163,1.441c-.623.733-.623.733-1.237.07l-.043-.046c-.708-.75-.708-.75.117-1.466" transform="translate(-12.628 -10.182)" fill="#2d4355"/>
      </g>
    </g>
  </g>
</svg>
