<svg xmlns="http://www.w3.org/2000/svg" xmlns:xlink="http://www.w3.org/1999/xlink" width="88" height="88" viewBox="0 0 88 88">
  <defs>
    <clipPath id="clip-path">
      <rect id="Rectángulo_43551" data-name="Rectángulo 43551" width="63.766" height="56.876" fill="none"/>
    </clipPath>
  </defs>
  <g id="Grupo_171318" data-name="Grupo 171318" transform="translate(-861 -1727)">
    <circle id="Elipse_4780" data-name="Elipse 4780" cx="44" cy="44" r="44" transform="translate(861 1727)" fill="#ff9fa3"/>
    <g id="Grupo_171317" data-name="Grupo 171317" transform="translate(873 1743)">
      <g id="Grupo_171316" data-name="Grupo 171316" transform="translate(0 0)" clip-path="url(#clip-path)">
        <path id="Trazado_169015" data-name="Trazado 169015" d="M0,46.854V10.026a9.54,9.54,0,0,1,1.935-5.22A10.848,10.848,0,0,1,10.985.03C24.9-.021,38.806.009,52.717.011A11.441,11.441,0,0,1,63.567,8.74a9.838,9.838,0,0,1,.193,2.1q0,17.508-.006,35.016c-.007,4.346-2.138,7.47-5.81,9.608a10.9,10.9,0,0,1-5.6,1.415q-20.586-.017-41.172-.006A11.445,11.445,0,0,1,.3,48.8c-.2-.64-.149-1.309-.3-1.95" transform="translate(0 0)"/>
        <path id="Trazado_169016" data-name="Trazado 169016" d="M17.737,34.811a25.883,25.883,0,0,0,.668-4.411c.015-.3.1-.415.434-.414Q26.208,30,33.577,30c.181,0,.454-.1.412.269a17,17,0,0,1-.61,3.663,1.289,1.289,0,0,1-.644.194A2.751,2.751,0,0,0,30.321,36.7a2.831,2.831,0,0,0,5.435,1.353,2.762,2.762,0,0,0-.173-2.616,2.273,2.273,0,0,1-.29-.612,24.8,24.8,0,0,0,.687-4.465c.017-.3.107-.373.4-.373q7.386.013,14.773,0c.245,0,.372.026.344.336a17.712,17.712,0,0,1-.585,3.6,1.564,1.564,0,0,1-.646.2,2.74,2.74,0,0,0-2.436,2.634,2.791,2.791,0,0,0,2.021,2.918,2.851,2.851,0,0,0,3.3-1.331,2.735,2.735,0,0,0,.037-2.73,2.593,2.593,0,0,1-.373-.777,25.51,25.51,0,0,0,.67-4.41c.015-.329.113-.447.47-.445q4.26.025,8.52,0c.4,0,.47.129.47.493q-.015,12.966,0,25.931c0,.408-.135.458-.493.465a28.974,28.974,0,0,0-4.282.1,6.036,6.036,0,0,0-5.013,5.677c-.043,1.056-.031,2.114-.016,3.171,0,.352-.1.5-.457.455a1.87,1.87,0,0,0-.249,0q-19.589,0-39.177,0A9.558,9.558,0,0,1,3.724,59.4a10.1,10.1,0,0,1-.373-2.885q0-12.966-.012-25.931c0-.5.143-.6.616-.6q5.938.028,11.877,0c.5,0,.606.114.555.613a18.5,18.5,0,0,1-.552,3.3,1.618,1.618,0,0,1-.7.238A2.809,2.809,0,0,0,12.812,37.4a2.849,2.849,0,0,0,5.645-.763,6.084,6.084,0,0,0-.72-1.827" transform="translate(-1.295 -11.628)" fill="#fefefe"/>
        <path id="Trazado_169017" data-name="Trazado 169017" d="M50.78,13.023a19.906,19.906,0,0,1,.691,4.276c.021.283-.059.383-.329.361-.1-.008-.206,0-.31,0q-7.113,0-14.224.008c-.441,0-.639-.064-.667-.58a23.391,23.391,0,0,0-.781-4.889,3.4,3.4,0,0,1,.362-.646A2.857,2.857,0,1,0,32.193,12.7c.346.138.743.1,1.058.326a20.1,20.1,0,0,1,.718,4.327c.021.208-.051.313-.268.307-.124,0-.248,0-.372,0-4.759,0-9.518-.01-14.276.013-.514,0-.682-.146-.7-.64a23.453,23.453,0,0,0-.738-4.768,3.882,3.882,0,0,1,.341-.661,2.851,2.851,0,1,0-5.193-1.35,2.971,2.971,0,0,0,2.288,2.566c.217.056.461.034.642.2a20.483,20.483,0,0,1,.692,4.282c.036.44-.233.351-.465.351q-2.893,0-5.785,0-3.141,0-6.281,0c-.23,0-.524.09-.515-.326a39.814,39.814,0,0,1,.119-5.652,9.463,9.463,0,0,1,9.7-8.061q15.861-.014,31.721,0c3.171,0,6.347-.134,9.513.077a9.419,9.419,0,0,1,8.468,8.6c.086,1.634.031,3.275.058,4.912.006.354-.109.459-.46.457-2.84-.012-5.681-.018-8.521.006-.44,0-.46-.225-.477-.528a26.323,26.323,0,0,0-.781-4.958,2.628,2.628,0,0,1,.359-.648,2.849,2.849,0,1,0-3.321,1.16,3.807,3.807,0,0,1,1.059.325" transform="translate(-1.278 -1.389)" fill="#29abe1"/>
        <path id="Trazado_169018" data-name="Trazado 169018" d="M88.011,82.459a12.731,12.731,0,0,1,.084-1.881,3.983,3.983,0,0,1,3.754-3.289c1.115-.049,2.234-.011,3.352-.026.31,0,.368.076.3.4a9.291,9.291,0,0,1-7.046,6.761c-.345.054-.481.012-.456-.373.032-.495.008-.993.008-1.589" transform="translate(-34.129 -29.965)" fill="#29abe1"/>
        <path id="Trazado_169019" data-name="Trazado 169019" d="M50.244,15.165a3.024,3.024,0,0,1-3.121-2.681,2.993,2.993,0,0,1,2.619-3.348,3.041,3.041,0,0,1,3.112,1.7,2.946,2.946,0,0,1-.7,3.507,11,11,0,0,0-.866-2.239,1.014,1.014,0,1,0-1.791.922,7.73,7.73,0,0,1,.75,2.143" transform="translate(-18.271 -3.531)" fill="#fefefe"/>
        <path id="Trazado_169020" data-name="Trazado 169020" d="M78.857,15.166a3.026,3.026,0,1,1,2.593-4.343,2.921,2.921,0,0,1-.69,3.505,13.1,13.1,0,0,0-.846-2.181,1.024,1.024,0,1,0-1.791.936,8.181,8.181,0,0,1,.734,2.083" transform="translate(-29.355 -3.532)" fill="#fefefe"/>
        <path id="Trazado_169021" data-name="Trazado 169021" d="M21.573,15.173a3.031,3.031,0,1,1,1.923-.76,12.172,12.172,0,0,0-.892-2.3,1.013,1.013,0,1,0-1.791.916,8.721,8.721,0,0,1,.76,2.145" transform="translate(-7.157 -3.538)" fill="#fefefe"/>
        <path id="Trazado_169022" data-name="Trazado 169022" d="M23.608,37.29a2.952,2.952,0,0,1,.484,3.684,3.026,3.026,0,0,1-5.6-1.875,2.988,2.988,0,0,1,2.539-2.664c.225-.031.452-.042.678-.061a9.928,9.928,0,0,1-.9,2.482.98.98,0,0,0,.4,1.459,1,1,0,0,0,1.39-.513,15.868,15.868,0,0,0,1.013-2.512" transform="translate(-7.166 -14.107)" fill="#29abe1"/>
        <path id="Trazado_169023" data-name="Trazado 169023" d="M52.255,37.324a2.983,2.983,0,0,1,.286,3.9,3.027,3.027,0,1,1-2.2-4.8A8.246,8.246,0,0,1,49.5,38.8c-.348.692-.223,1.228.347,1.53s1.085.079,1.459-.6a15.363,15.363,0,0,0,.949-2.406" transform="translate(-18.257 -14.127)" fill="#29abe1"/>
        <path id="Trazado_169024" data-name="Trazado 169024" d="M80.889,37.34a2.983,2.983,0,0,1,.381,3.748,3.034,3.034,0,0,1-3.6,1.183,3,3,0,0,1-1.929-3.192,2.941,2.941,0,0,1,2.687-2.64c.182-.02.369-.007.553-.01a9.539,9.539,0,0,1-.875,2.425.987.987,0,0,0,.361,1.471c.545.294,1.062.1,1.429-.533a16.4,16.4,0,0,0,.992-2.451" transform="translate(-29.366 -14.128)" fill="#29abe1"/>
        <path id="Trazado_169025" data-name="Trazado 169025" d="M33.343,58.463c0-1.281.013-2.562-.008-3.843-.006-.383.066-.557.5-.526a16.505,16.505,0,0,0,1.74,0c.306-.01.432.053.43.4q-.021,4.477,0,8.955c0,.341-.122.37-.421.41a2.2,2.2,0,0,1-2.657-1.418,19.441,19.441,0,0,0-2.459-3.716c-.179.185-.1.378-.1.549-.008,1.389-.014,2.778,0,4.166,0,.341-.078.484-.446.468-.621-.027-1.243-.018-1.865,0-.293.008-.395-.088-.394-.391q.015-4.509,0-9.017c0-.265.069-.37.347-.36.5.018,1,.026,1.492,0,.309-.018.435.179.6.362,1.128,1.267,2.17,2.6,3.24,3.963" transform="translate(-10.73 -20.978)"/>
        <path id="Trazado_169026" data-name="Trazado 169026" d="M53.57,59.08c-.1,3.9-3.305,5.515-6.5,4.557-1.939-.582-3.077-2.346-3.109-4.664a4.819,4.819,0,1,1,9.606.107" transform="translate(-17.05 -20.877)"/>
        <path id="Trazado_169027" data-name="Trazado 169027" d="M60.143,54.107c.905,0,1.773.01,2.64,0,.37-.006.366.29.44.5.6,1.717,1.185,3.439,1.775,5.158.026.074.057.146.142.364.235-.623.435-1.121.612-1.628.455-1.308.915-2.614,1.336-3.933a.556.556,0,0,1,.657-.467c.641.029,1.285.013,1.928.006.283,0,.463-.019.328.39-1.016,3.062-2.212,6.053-3.518,9a.447.447,0,0,1-.526.316.348.348,0,0,0-.062,0c-1.936.047-1.945.051-2.73-1.718a80.5,80.5,0,0,1-2.928-7.636c-.031-.094-.051-.193-.092-.35" transform="translate(-23.325 -20.98)"/>
        <path id="Trazado_169028" data-name="Trazado 169028" d="M52.523,60.4a2.749,2.749,0,0,1-.256,1.445,1.811,1.811,0,0,1-1.859,1.167,1.9,1.9,0,0,1-1.8-1.684,3.54,3.54,0,0,1,.045-1.958,1.894,1.894,0,0,1,2.171-1.5,1.949,1.949,0,0,1,1.693,1.974c.013.185,0,.372,0,.558" transform="translate(-18.808 -22.435)" fill="#fefefe"/>
      </g>
    </g>
  </g>
</svg>
