<svg xmlns="http://www.w3.org/2000/svg" xmlns:xlink="http://www.w3.org/1999/xlink" width="88" height="88" viewBox="0 0 88 88">
  <defs>
    <clipPath id="clip-path">
      <rect id="Rectángulo_43553" data-name="Rectángulo 43553" width="57.213" height="57.245" fill="none"/>
    </clipPath>
  </defs>
  <g id="Grupo_171323" data-name="Grupo 171323" transform="translate(-1281 -1727)">
    <circle id="Elipse_4782" data-name="Elipse 4782" cx="44" cy="44" r="44" transform="translate(1281 1727)" fill="#ff9fa3"/>
    <g id="Grupo_171322" data-name="Grupo 171322" transform="translate(1296 1742)">
      <g id="Grupo_171321" data-name="Grupo 171321" clip-path="url(#clip-path)">
        <path id="Trazado_169045" data-name="Trazado 169045" d="M52.374,33.553c1.223,0,2.394,0,3.563,0,.82,0,1.285.368,1.275,1-.009.614-.464,1.022-1.239.957-.649-.055-.755.176-.748.769a15.78,15.78,0,0,1-.2,3.989A7.8,7.8,0,0,1,51.7,45.054c-.374.251-.518.34-.031.67a7.784,7.784,0,0,1,3.567,6.659c.013.74.034,1.482-.009,2.219-.029.508.068.784.645.667a1.4,1.4,0,0,1,.43,0,.984.984,0,0,1,.035,1.957,2.29,2.29,0,0,1-.431.01H36.792c-.1,0-.206.006-.309,0a.986.986,0,0,1,.006-1.971c.988-.076.977-.077.991-1.048a18.252,18.252,0,0,1,.13-3.275,26.409,26.409,0,0,1-18.9,1.122A25.819,25.819,0,0,1,3.871,40.451,26.622,26.622,0,0,1,36.966,2.107,26.108,26.108,0,0,1,50.539,14.936a26.354,26.354,0,0,1,1.835,18.617" transform="translate(0 0)"/>
        <path id="Trazado_169046" data-name="Trazado 169046" d="M19.8,49.127a5.518,5.518,0,0,0,.814-.612.928.928,0,0,0-.007-1.333.971.971,0,0,0-1.386-.042c-.251.2-.451.663-.719.592s-.482-.474-.7-.745a20.7,20.7,0,0,1-4.63-11.653c-.028-.352.036-.493.4-.451a2.847,2.847,0,0,0,.616,0,.987.987,0,0,0,.912-.988,1,1,0,0,0-.927-.978c-.336-.041-.809.169-.975-.118-.144-.247.022-.675.049-1.023A20.6,20.6,0,0,1,18.626,19.89a5.54,5.54,0,0,0,.564.735.947.947,0,0,0,1.382.023.969.969,0,0,0,.034-1.386c-.636-.78-.636-.779.16-1.422a20.735,20.735,0,0,1,11.656-4.625c.362-.029.486.053.445.409a2.892,2.892,0,0,0,0,.555.991.991,0,0,0,1,.968,1.009,1.009,0,0,0,.972-.935c.042-.334-.17-.8.121-.97.251-.142.676.017,1.024.053a20.489,20.489,0,0,1,11.495,5c.232.2.308.334.038.555a2.719,2.719,0,0,0-.506.536.9.9,0,0,0,.1,1.234.92.92,0,0,0,1.233.145c.035-.021.066-.049.1-.072.28-.2.485-.711.765-.617.319.106.538.536.782.84a20.737,20.737,0,0,1,4.547,11.561c.029.367-.063.481-.413.442a2.855,2.855,0,0,0-.555,0,.988.988,0,0,0-.964,1,1.009,1.009,0,0,0,.935.97c.335.042.791-.17.972.123.139.224-.022.634-.049.962a21.765,21.765,0,0,1-.9,4.392c-.109.365-.287.455-.649.453-3-.014-6-.01-9-.007-.725,0-1.167.381-1.17.98a1,1,0,0,0,1.1.992c.872.028.864.028.874.919A14.889,14.889,0,0,0,45,47.866a7.575,7.575,0,0,0,1.065,2.272c.182.255.167.388-.1.576a20.972,20.972,0,0,1-10.806,3.878c-.237.018-.344-.03-.329-.284a4.773,4.773,0,0,0,0-.739.986.986,0,0,0-.984-.915,1,1,0,0,0-.98.925c-.041.337.165.811-.113.979-.243.146-.675-.015-1.022-.051A20.748,20.748,0,0,1,19.8,49.127" transform="translate(-7.228 -7.255)" fill="#e8edf1"/>
        <path id="Trazado_169047" data-name="Trazado 169047" d="M29.026,53.754a24.665,24.665,0,1,1,23.812-31,24.254,24.254,0,0,1-.012,12.785c-.086.324-.194.5-.568.463-.509-.043-1.237.167-1.478-.094-.266-.289.163-.93.283-1.418A22.708,22.708,0,1,0,24.71,51.363a22.344,22.344,0,0,0,17.594-3.9,1.071,1.071,0,0,1,1.438.262c.1.161-.006.218-.11.282a8.414,8.414,0,0,0-2.572,2.531,1.5,1.5,0,0,1-.558.367,24.745,24.745,0,0,1-11.478,2.846" transform="translate(-2.383 -2.436)" fill="#feb532"/>
        <path id="Trazado_169048" data-name="Trazado 169048" d="M94.626,78.974c2.117,0,4.234.011,6.35-.009.41,0,.58.066.55.523a30.055,30.055,0,0,1-.11,3.444,5.666,5.666,0,0,1-2.961,4.163,1.438,1.438,0,0,0-.89,1.569,4.107,4.107,0,0,1,0,.678,1.087,1.087,0,0,0,.632,1.1,5.942,5.942,0,0,1,3.319,5.735c-.011.719-.013,1.439,0,2.158.007.286-.064.426-.371.382a2.269,2.269,0,0,0-.308,0,3.139,3.139,0,0,1-1.158-.036c-.336-.145-.182-.65-.313-.984a4.189,4.189,0,0,0-1.671-2,5.631,5.631,0,0,0-6.317.088,3.729,3.729,0,0,0-1.7,2.6c0,.02,0,.047-.006.061-.469.594-1.107.122-1.652.259-.347.088-.343-.167-.331-.408a17.725,17.725,0,0,1,.223-4.107,5.678,5.678,0,0,1,2.858-3.613,1.391,1.391,0,0,0,.873-1.518,6.024,6.024,0,0,1,0-.8,1.031,1.031,0,0,0-.6-.995A5.971,5.971,0,0,1,87.7,81.426c.014-.6.036-1.194-.008-1.787-.038-.513.073-.694.647-.682,2.1.043,4.192.017,6.288.017" transform="translate(-48.249 -43.447)" fill="#d9dbdd"/>
        <path id="Trazado_169049" data-name="Trazado 169049" d="M99.472,120.47c-.861,0-1.723-.013-2.584.006-.372.008-.427-.116-.277-.425a2.882,2.882,0,0,1,2.2-1.486,3.446,3.446,0,0,1,3.395,1.228c.118.189.295.409.179.615-.085.151-.34.057-.517.058-.8.007-1.6,0-2.4,0" transform="translate(-53.119 -65.204)" fill="#98c6e7"/>
        <path id="Trazado_169050" data-name="Trazado 169050" d="M54.572,34.1c-.384.352-.683.6-1.117.54a.969.969,0,0,1-.616-1.6c.656-.734,1.366-1.423,2.088-2.095a.921.921,0,0,1,1.377.092c.609.582,1.2,1.183,1.79,1.785a1.008,1.008,0,0,1,.139,1.519c-.406.416-.908.4-1.477-.061-.043-.035-.09-.065-.211-.151v2.926c0,.822.025,1.646-.008,2.466-.029.712-.051,1.359.8,1.666a1.252,1.252,0,0,1,.7.755c.191.571.583.607,1.089.6,3.227-.017,6.454-.009,9.7-.009.03-.226-.183-.3-.266-.439a.936.936,0,0,1,.132-1.238.85.85,0,0,1,1.226-.109,28.969,28.969,0,0,1,2.222,2.219.907.907,0,0,1-.163,1.323c-.594.6-1.185,1.2-1.788,1.787a1,1,0,0,1-1.474.143c-.432-.4-.425-.912.017-1.476.044-.056.147-.091.077-.235H61.631c-.945,0-1.891.009-2.837-.006a.569.569,0,0,0-.615.351,2.926,2.926,0,0,1-3.061,1.6,3.01,3.01,0,0,1-2.491-2.482A2.965,2.965,0,0,1,54.212,40.9c.2-.11.371-.178.368-.476-.016-2.071-.008-4.142-.008-6.328" transform="translate(-28.937 -16.881)"/>
        <path id="Trazado_169051" data-name="Trazado 169051" d="M102.2,85.075a3.921,3.921,0,0,1-2.609,3.981c-.278.112-.382.244-.357.533a4.07,4.07,0,0,1,0,.8.972.972,0,0,1-1.008.885c-.54-.04-.983-.369-.922-.882.11-.935-.33-1.3-1.091-1.705a3.6,3.6,0,0,1-1.9-3.3c-.045-1.887.074-2,1.94-2H100.5c1.517,0,1.7.182,1.7,1.69" transform="translate(-51.888 -45.883)"/>
        <path id="Trazado_169052" data-name="Trazado 169052" d="M102.86,106.342a.986.986,0,1,1-.944-1.012,1,1,0,0,1,.944,1.012" transform="translate(-55.515 -57.958)" fill="#020202"/>
        <path id="Trazado_169053" data-name="Trazado 169053" d="M58.973,58.049a.986.986,0,1,1-.96-1,1,1,0,0,1,.96,1" transform="translate(-31.365 -31.394)" fill="#fcb431"/>
        <path id="Trazado_169054" data-name="Trazado 169054" d="M100.735,87.766c.533,0,1.066.015,1.6-.006.3-.011.336.111.293.365a1.986,1.986,0,0,1-3.9.006c-.06-.326.067-.379.35-.37.553.017,1.106,0,1.66,0" transform="translate(-54.316 -48.29)" fill="#98c6e6"/>
      </g>
    </g>
  </g>
</svg>
