<svg xmlns="http://www.w3.org/2000/svg" xmlns:xlink="http://www.w3.org/1999/xlink" width="88" height="88" viewBox="0 0 88 88">
  <defs>
    <clipPath id="clip-path">
      <rect id="Rectángulo_43559" data-name="Rectángulo 43559" width="65.943" height="66" fill="none"/>
    </clipPath>
  </defs>
  <g id="Grupo_171346" data-name="Grupo 171346" transform="translate(-651 -2414)">
    <circle id="Elipse_4785" data-name="Elipse 4785" cx="44" cy="44" r="44" transform="translate(651 2414)" fill="#6b8dfc"/>
    <g id="Grupo_171345" data-name="Grupo 171345" transform="translate(662 2425)">
      <g id="Grupo_171344" data-name="Grupo 171344" transform="translate(0 0)" clip-path="url(#clip-path)">
        <path id="Trazado_169139" data-name="Trazado 169139" d="M10.406,55.683c-.724.423-1.043.394-1.576-.187A32.25,32.25,0,0,1,.218,36.859,32.674,32.674,0,0,1,18.555,3.35a32.948,32.948,0,0,1,46.491,22,30.242,30.242,0,0,1,.778,4.95c.007.1-.016.219.119.263v5.025a32.892,32.892,0,0,1-.583,4.5A32.716,32.716,0,0,1,58.43,54.223a33.458,33.458,0,0,1-8.56,7.322,32.4,32.4,0,0,1-12.242,4.287c-.737.1-1.488.04-2.224.168h-4.9a13.832,13.832,0,0,0-2.5-.376,33.092,33.092,0,0,1-16-7.132c-.533-.433-.577-.8-.227-1.462a.912.912,0,0,1,1.421-.244c.637.435,1.223.941,1.856,1.386a30.683,30.683,0,0,0,14.266,5.486A30.211,30.211,0,0,0,47.27,60.382,30.59,30.59,0,0,0,59.123,49.4a22.916,22.916,0,0,0,1.915-3.565,28.74,28.74,0,0,0,2.638-9.775,30.315,30.315,0,0,0-4.463-19.272A30.687,30.687,0,0,0,46.1,5.062,30.24,30.24,0,0,0,35.323,2.246a30.238,30.238,0,0,0-16.56,3.348A30.647,30.647,0,0,0,6.215,17.569,30.044,30.044,0,0,0,2.374,28.7a30.961,30.961,0,0,0,.949,13,33.826,33.826,0,0,0,1.531,4.1,28.506,28.506,0,0,0,3.853,6.354c.543.689,1.125,1.347,1.715,2,.528.585.509,1.067-.016,1.537" transform="translate(0 0)"/>
        <path id="Trazado_169140" data-name="Trazado 169140" d="M62.8,61.674a24.5,24.5,0,0,1-3.341,5.692A30.276,30.276,0,0,1,40.625,79.225a30.566,30.566,0,0,1-25.268-6.068q-.257-.2-.508-.4a.984.984,0,0,0-1.436.045l-1.376-1.348a1.142,1.142,0,0,0-.235-1.6,30.387,30.387,0,0,1-5.246-7.714c-.072-.152-.121-.316-.182-.473.313-.045.4.212.506.407A32.034,32.034,0,0,0,23.052,76.1a31.749,31.749,0,0,0,8.36,2.008,31.811,31.811,0,0,0,22.276-6.23A32.585,32.585,0,0,0,62.233,62.2c.132-.225.191-.552.567-.521" transform="translate(-1.631 -15.775)" fill="#e5485d"/>
        <path id="Trazado_169141" data-name="Trazado 169141" d="M61.819,46.546a6.064,6.064,0,0,0-.973,1.491,30.534,30.534,0,0,1-5.84,7.039,31.161,31.161,0,0,1-13,7.083,35.845,35.845,0,0,1-6.038,1.034,30.968,30.968,0,0,1-9.474-.7A31.811,31.811,0,0,1,8.9,51.578a32.215,32.215,0,0,1-3.283-4.813,1.074,1.074,0,0,0-.226-.219A28.069,28.069,0,0,1,2.838,37.83,29.759,29.759,0,0,1,4.232,23.623C7.693,14,14.251,7.372,23.976,4.188A29.756,29.756,0,0,1,50.514,7.656,30.023,30.023,0,0,1,64.155,28.221,30.316,30.316,0,0,1,62,46.208c-.051.116-.121.225-.181.338" transform="translate(-0.65 -0.647)" fill="#fe5876"/>
        <path id="Trazado_169142" data-name="Trazado 169142" d="M54.29,16.64c.377.513.948.865,1.229,1.46a3.037,3.037,0,0,0,.856,2.18,25.159,25.159,0,0,1,4.776,12.392,25.46,25.46,0,0,1-2.163,13.413,2.159,2.159,0,0,1-.277.506c-.668.732-1.124,1.615-1.715,2.4A26.627,26.627,0,0,1,39.5,59.647a28.5,28.5,0,0,1-3.193.31c-.25.013-.639.146-.7-.324a2.255,2.255,0,0,0,.621-1.824c-.024-.471,0-.944-.005-1.415a2.457,2.457,0,0,0-.065-.639c-.114-.419-.3-.778-.806-.77-.475.008-.653.346-.761.743a2.646,2.646,0,0,0-.074.7c0,.514.011,1.029,0,1.543a2.116,2.116,0,0,0,.6,1.641c.011.473-.371.351-.6.343a26.947,26.947,0,0,1-3.2-.3A26.852,26.852,0,0,1,13.09,48.08a9.975,9.975,0,0,0-1.044-1.465,20.014,20.014,0,0,1-1.9-5.18,24.17,24.17,0,0,1-.718-6.309,26.213,26.213,0,0,1,2.247-10.169A25.942,25.942,0,0,1,32.12,9.745a25.6,25.6,0,0,1,15.27,2.738,23.821,23.821,0,0,1,5.073,3.5,1.967,1.967,0,0,0,1.826.657" transform="translate(-2.411 -2.436)" fill="#e3edf8"/>
        <path id="Trazado_169143" data-name="Trazado 169143" d="M53.671,16.04a1.121,1.121,0,0,1-1.553-.182A24.881,24.881,0,0,0,38.523,9.389a25.106,25.106,0,0,0-20.369,5.817A24.945,24.945,0,0,0,9.3,30.991a24.65,24.65,0,0,0,2.254,14.942,32,32,0,0,0,5.424,7.309A25.571,25.571,0,0,0,31.389,60.2,25.554,25.554,0,0,0,56.468,48.345c.5-.8,1-1.6,1.474-2.413a23.561,23.561,0,0,0,2.34-7.9A25.367,25.367,0,0,0,57.349,22.5a23.7,23.7,0,0,0-2.341-3.533A1.108,1.108,0,0,1,54.9,17.5c.724-.465,1.1-.409,1.639.279a26.863,26.863,0,0,1,5.8,15.065A27.563,27.563,0,0,1,45.6,60.322a25.957,25.957,0,0,1-14.157,1.986c-10.841-1.537-18.42-7.44-22.522-17.544A27.384,27.384,0,0,1,15.4,15.056a26.748,26.748,0,0,1,15.419-7.6,27.243,27.243,0,0,1,22.55,6.92c.681.6.724.892.3,1.665" transform="translate(-1.792 -1.836)"/>
        <path id="Trazado_169144" data-name="Trazado 169144" d="M28.947,33.966a.992.992,0,0,1-1.434-.136c-1.776-1.588-3.565-3.161-5.332-4.758a2.906,2.906,0,1,1,3.877-4.322q5.489,4.873,10.963,9.763a1.808,1.808,0,0,0,2.329-.055c1.763-1.788,3.509-3.594,5.294-5.361A2.882,2.882,0,0,1,49.5,30.4a2.837,2.837,0,0,1-.789,2.835c-1.9,1.922-3.783,3.868-5.708,5.768-.577.57-.413,1.364-.767,1.992-.1.17.2.295.345.413q4.8,4.039,9.614,8.072a6.636,6.636,0,0,1,.531.468.959.959,0,0,1-1.26,1.444c-.209-.149-.4-.325-.6-.49q-4.758-4-9.509-8a.628.628,0,0,0-.871-.089,4.238,4.238,0,0,1-6.267-2.653,1.484,1.484,0,0,0-.481-.8c-.988-.859-1.961-1.735-2.937-2.607-.65-.582-.7-.845-.328-1.618a.926.926,0,0,1,1.383-.206c.652.421,1.136,1.043,1.763,1.494.265.187.421.694.778.539s.559-.62.8-.967c.082-.118-.008-.246-.1-.346-.139-.161-.3-.3-.453-.452q-2.722-2.4-5.426-4.827c-1.37-1.233-2.775-2.426-4.117-3.69a3.994,3.994,0,0,0-.539-.457.816.816,0,0,0-1.115.053.8.8,0,0,0,.052,1.161c.452.454.941.876,1.427,1.295,1.332,1.147,2.624,2.338,3.949,3.493.748.652.743,1.255.064,1.736" transform="translate(-5.399 -6.119)"/>
        <path id="Trazado_169145" data-name="Trazado 169145" d="M59.506,59.253a23.763,23.763,0,0,1-5.276,7.379,25.534,25.534,0,0,1-15.25,7.156,25.874,25.874,0,0,1-25.82-14.35.833.833,0,0,1-.042-.185,19.906,19.906,0,0,1,1.669,2.331A27.237,27.237,0,0,0,20.1,67.006a26.289,26.289,0,0,0,10.6,4.913,31.564,31.564,0,0,0,4.741.6c.2.013.433.069.609-.111a.335.335,0,0,1,.517,0,1.5,1.5,0,0,0,1.058.1,29.368,29.368,0,0,0,7.315-1.419,26.978,26.978,0,0,0,8.767-5.056,29.718,29.718,0,0,0,5.466-6.406c.092-.141.149-.313.329-.378" transform="translate(-3.356 -15.157)" fill="#d4dff1"/>
        <path id="Trazado_169146" data-name="Trazado 169146" d="M34.233,37.25c-.515-.444-1.043-.873-1.542-1.334a1.1,1.1,0,0,0-1.546-.1c-.537-.357-.882-.962-1.528-1.177.508-.67.495-1.017-.148-1.594-1.673-1.5-3.36-2.989-5.046-4.476-.357-.316-.743-.62-.7-1.158a.965.965,0,0,1,1.645-.6c.906.751,1.77,1.554,2.649,2.338q3.573,3.184,7.144,6.37a3.606,3.606,0,0,1,.257.284,2.217,2.217,0,0,1-1.189,1.447" transform="translate(-6.069 -6.789)" fill="#405b6c"/>
        <path id="Trazado_169147" data-name="Trazado 169147" d="M44.207,75.241H43.69a1.031,1.031,0,0,1-.709-1.078c-.01-.924-.017-1.847,0-2.77.015-.677.377-1.06.949-1.069.6-.01.969.383.983,1.1.018.9-.005,1.8.007,2.705a1.14,1.14,0,0,1-.715,1.111" transform="translate(-10.992 -17.989)" fill="#020202"/>
        <path id="Trazado_169148" data-name="Trazado 169148" d="M44.911,14.3c0,.491.025.985-.007,1.474a.957.957,0,0,1-1.913-.01q-.047-1.5,0-3.012a.894.894,0,0,1,.929-.941.94.94,0,0,1,.991.952,1.228,1.228,0,0,1,.005.128q0,.705,0,1.41h-.007" transform="translate(-10.992 -3.02)" fill="#020202"/>
        <path id="Trazado_169149" data-name="Trazado 169149" d="M14.243,43.057c.47,0,.941-.024,1.41.006a.938.938,0,0,1,.983.962.926.926,0,0,1-.979.964q-1.474.047-2.948,0a.929.929,0,0,1-.983-.96.958.958,0,0,1,.979-.97,1.225,1.225,0,0,1,.128-.005h1.41v0" transform="translate(-2.999 -11.012)" fill="#020202"/>
        <path id="Trazado_169150" data-name="Trazado 169150" d="M72.7,43.057c.491,0,.985-.024,1.474.006a.939.939,0,0,1,.985.959.929.929,0,0,1-.978.965c-.982.032-1.966.031-2.948,0a.926.926,0,0,1-.985-.958.936.936,0,0,1,.976-.967c.49-.031.983-.007,1.474-.007" transform="translate(-17.969 -11.012)" fill="#020202"/>
        <path id="Trazado_169151" data-name="Trazado 169151" d="M48.775,37.03c1.426-1.45,2.848-2.906,4.281-4.349a1,1,0,0,1,1.385-.08.979.979,0,0,1,.005,1.389c-1.487,1.511-3,3-4.5,4.5a2.946,2.946,0,0,1-1.176-1.456" transform="translate(-12.477 -8.277)" fill="#405b6b"/>
        <path id="Trazado_169152" data-name="Trazado 169152" d="M41.19,43.692a2.307,2.307,0,1,1,4.6,0,3.124,3.124,0,0,1-4.6,0" transform="translate(-10.536 -10.548)" fill="#fe5875"/>
        <path id="Trazado_169153" data-name="Trazado 169153" d="M41.191,44.536a5.94,5.94,0,0,0,1.711.793,3.3,3.3,0,0,0,2.559-.608,3.024,3.024,0,0,1,.334-.184,2.3,2.3,0,0,1-4.6,0" transform="translate(-10.537 -11.392)" fill="#e5485d"/>
        <path id="Trazado_169154" data-name="Trazado 169154" d="M37.846,40.434l1.189-1.447c.145.123.284.255.438.365.375.268.357.525,0,.794a1.347,1.347,0,0,0-.217.234c-.665.84-.665.841-1.414.054" transform="translate(-9.681 -9.973)" fill="#2d4355"/>
        <path id="Trazado_169155" data-name="Trazado 169155" d="M48.555,38.636a13.553,13.553,0,0,1,1.175,1.456c-.63.74-.63.74-1.25.071l-.044-.046c-.716-.758-.716-.758.118-1.481" transform="translate(-12.256 -9.883)" fill="#2d4355"/>
      </g>
    </g>
  </g>
</svg>
