<svg xmlns="http://www.w3.org/2000/svg" xmlns:xlink="http://www.w3.org/1999/xlink" width="88" height="88" viewBox="0 0 88 88">
  <defs>
    <clipPath id="clip-path">
      <rect id="Rectángulo_43560" data-name="Rectángulo 43560" width="72.951" height="51.318" fill="none"/>
    </clipPath>
  </defs>
  <g id="Grupo_171348" data-name="Grupo 171348" transform="translate(-861 -2414)">
    <circle id="Elipse_4786" data-name="Elipse 4786" cx="44" cy="44" r="44" transform="translate(861 2414)" fill="#6b8dfc"/>
    <g id="Grupo_171347" data-name="Grupo 171347" transform="translate(869 2432)">
      <g id="Grupo_171347-2" data-name="Grupo 171347" transform="translate(0 0)" clip-path="url(#clip-path)">
        <path id="Trazado_169156" data-name="Trazado 169156" d="M0,13.538a11.36,11.36,0,0,1,1.072-3.052A8.218,8.218,0,0,1,8.42,6.274c1.828-.017,3.657-.02,5.485.008.5.008.651-.142.639-.641-.031-1.328-.015-2.659-.009-3.989A1.461,1.461,0,0,1,16.2,0Q19.375,0,22.544,0c1.148,0,1.674.542,1.676,1.715,0,1.282.027,2.566-.012,3.847-.016.554.134.724.707.72,3.467-.027,6.934-.014,10.4-.014q14.569,0,29.136.007a8.114,8.114,0,0,1,7.879,5.163,7.141,7.141,0,0,1,.613,2.971q.007,14.354,0,28.709a8.254,8.254,0,0,1-6.977,8.054,10.677,10.677,0,0,1-1.627.119c-18.569,0-37.139-.033-55.708.024A8.431,8.431,0,0,1,.108,44.206C.1,44.143.037,44.087,0,44.029V13.538" transform="translate(0 0)"/>
        <path id="Trazado_169157" data-name="Trazado 169157" d="M37.639,52.355q-14.034,0-28.068,0a5.425,5.425,0,0,1-5.5-5.489q0-14.176,0-28.353a5.4,5.4,0,0,1,5.5-5.481q28.14,0,56.279,0a5.411,5.411,0,0,1,5.469,5.447q0,14.212,0,28.425a5.42,5.42,0,0,1-5.47,5.451q-14.106,0-28.21,0" transform="translate(-1.221 -3.91)" fill="#b2e8f7"/>
        <path id="Trazado_169158" data-name="Trazado 169158" d="M26.643,7.49c-.512-.073-1.319.282-1.727-.15-.37-.391-.1-1.178-.111-1.79-.014-1.479,0-1.479,1.492-1.479.664,0,1.329.013,1.993,0,.358-.01.514.1.505.486-.02.83-.016,1.662,0,2.492.006.344-.139.46-.467.45-.521-.015-1.044,0-1.683,0" transform="translate(-7.417 -1.22)" fill="#d6f3fa"/>
        <path id="Trazado_169159" data-name="Trazado 169159" d="M40.028,49.255c-9.117,0-18.234-.01-27.352.018-.74,0-.895-.206-.892-.911q.037-13.391,0-26.782c0-.641.151-.836.82-.836q27.386.028,54.774,0c.7,0,.857.2.857.873q-.035,13.392,0,26.782c0,.678-.163.874-.857.873q-13.676-.036-27.352-.016" transform="translate(-3.536 -6.225)" fill="#fefefe"/>
        <path id="Trazado_169160" data-name="Trazado 169160" d="M57.63,39.77q.821-2.858,1.642-5.716c.318-1.114.622-2.233.953-3.343a1.727,1.727,0,0,1,1.739-1.394,1.765,1.765,0,0,1,1.7,1.545c.836,4.365,1.634,8.737,2.5,13.1a1.566,1.566,0,0,1-1.02,1.717,1.357,1.357,0,0,1-1.729-1.063c-.418-1.941-.769-3.9-1.147-5.845a16.824,16.824,0,0,0-.638-2.553c-.384,1.322-.771,2.644-1.15,3.967-.4,1.41-.8,2.821-1.2,4.231a1.828,1.828,0,0,1-1.655,1.429,1.8,1.8,0,0,1-1.766-1.382c-.771-2.585-1.522-5.175-2.283-7.764-.052-.18-.114-.358-.241-.754-.227,1.22-.424,2.237-.606,3.256-.3,1.676-.585,3.353-.886,5.029-.175.968-.673,1.466-1.447,1.479a1.442,1.442,0,0,1-1.438-1.137,2.464,2.464,0,0,1,.092-1.051q1.111-6.286,2.266-12.564a1.763,1.763,0,0,1,3.5-.132q1.19,4.053,2.374,8.107c.085.29.194.573.292.86l.15-.019" transform="translate(-14.679 -8.797)"/>
        <path id="Trazado_169161" data-name="Trazado 169161" d="M30.566,37.582c0-2.158,0-4.316,0-6.473,0-1.223.566-1.811,1.779-1.787a29.863,29.863,0,0,1,4.468.118A5.253,5.253,0,0,1,36,39.872c-.522.008-1.044,0-1.565,0-1.021,0-1.022,0-1.022.987,0,1.139.006,2.277,0,3.415-.008.962-.531,1.55-1.363,1.559a1.483,1.483,0,0,1-1.482-1.569c0-.047,0-.094,0-.142V37.582" transform="translate(-9.171 -8.791)"/>
        <path id="Trazado_169162" data-name="Trazado 169162" d="M84.775,40.164A2.18,2.18,0,0,1,82.5,42.424a2.28,2.28,0,1,1,.05-4.559,2.147,2.147,0,0,1,2.228,2.3" transform="translate(-24.066 -11.362)" fill="#fef19f"/>
        <path id="Trazado_169163" data-name="Trazado 169163" d="M17.5,40.164a2.244,2.244,0,0,1,2.268-2.3,2.279,2.279,0,0,1,.041,4.558,2.253,2.253,0,0,1-2.308-2.26" transform="translate(-5.25 -11.362)" fill="#fef1a0"/>
        <path id="Trazado_169164" data-name="Trazado 169164" d="M34.634,35.772c0-.616.016-1.232-.007-1.847-.013-.386.1-.561.519-.542.638.027,1.279-.007,1.917.011a2.58,2.58,0,0,1,2.512,2.49,2.532,2.532,0,0,1-2.53,2.367c-.64.008-1.279-.011-1.919.007-.365.01-.509-.128-.5-.5.018-.663.006-1.326.006-1.989" transform="translate(-10.39 -10.016)" fill="#fcfdfe"/>
      </g>
    </g>
  </g>
</svg>
