<svg xmlns="http://www.w3.org/2000/svg" xmlns:xlink="http://www.w3.org/1999/xlink" width="88" height="88" viewBox="0 0 88 88">
  <defs>
    <clipPath id="clip-path">
      <rect id="Rectángulo_43561" data-name="Rectángulo 43561" width="46.023" height="65.104" fill="none"/>
    </clipPath>
  </defs>
  <g id="Grupo_171351" data-name="Grupo 171351" transform="translate(-1071 -2414)">
    <circle id="Elipse_4787" data-name="Elipse 4787" cx="44" cy="44" r="44" transform="translate(1071 2414)" fill="#6b8dfc"/>
    <g id="Grupo_171350" data-name="Grupo 171350" transform="translate(1092 2425)">
      <g id="Grupo_171349" data-name="Grupo 171349" transform="translate(0 0)" clip-path="url(#clip-path)">
        <path id="Trazado_169165" data-name="Trazado 169165" d="M8.342,83.206a1.286,1.286,0,0,1-.692-1.3c.015-2.9,0-5.806.013-8.709a1.436,1.436,0,0,0-.335-.983A21.211,21.211,0,0,1,4.358,50.287a21.084,21.084,0,0,1,11.05-11.038,20.6,20.6,0,0,1,9.332-1.733,20.808,20.808,0,0,1,12.236,4.479,20.561,20.561,0,0,1,7.58,11.625A20.807,20.807,0,0,1,40.7,71.888a2.509,2.509,0,0,0-.584,1.658c.036,2.776,0,5.552.025,8.327a1.375,1.375,0,0,1-.649,1.333H35.8c-.535-.1-.733-.532-.916-.962-.463-1.091-.937-2.178-1.4-3.269-.32-.755-.362-.755-1.124-.413a20.683,20.683,0,0,1-6.426,1.646,21.2,21.2,0,0,1-10.716-1.732c-.511-.221-.711-.057-.9.4-.5,1.212-1.006,2.424-1.556,3.616a1.1,1.1,0,0,1-.738.716Z" transform="translate(-1.236 -18.102)"/>
        <path id="Trazado_169166" data-name="Trazado 169166" d="M76.012,33.844c0,1.878-1.027,3.3-1.98,4.745-.335.506-.813.508-1.461.115q-2.846-1.723-5.684-3.46c-.848-.517-1.7-1.03-2.542-1.553-.771-.478-.9-.927-.437-1.68a10.826,10.826,0,0,1,2.215-2.989A6.021,6.021,0,0,1,75.965,32.8a2.715,2.715,0,0,1,.047,1.04" transform="translate(-30.723 -13.311)"/>
        <path id="Trazado_169167" data-name="Trazado 169167" d="M0,33.793a6.109,6.109,0,0,1,4-5.821A6.1,6.1,0,0,1,10.746,29.9a21.354,21.354,0,0,1,1.439,2.237.982.982,0,0,1-.377,1.514q-4.241,2.6-8.5,5.173a.873.873,0,0,1-1.291-.206c-1.009-1.465-2-2.947-2.018-4.83" transform="translate(0 -13.342)"/>
        <path id="Trazado_169168" data-name="Trazado 169168" d="M80.47,1.91c-.756,0-1.37.012-1.983,0a.974.974,0,0,1-1.06-.948.973.973,0,0,1,1.06-.951c1.27-.016,2.541,0,3.812-.008a1,1,0,0,1,.993.545.965.965,0,0,1-.173,1.116l-2.7,3.37A10.209,10.209,0,0,0,82.2,5.09c.751.024,1.183.356,1.2.941.013.608-.431.969-1.214.972-1.207,0-2.415-.006-3.622,0a1.015,1.015,0,0,1-1.007-.519.984.984,0,0,1,.19-1.168c.884-1.1,1.764-2.206,2.727-3.411" transform="translate(-37.378 0)"/>
        <path id="Trazado_169169" data-name="Trazado 169169" d="M66.585,12.968c.717,0,1.3-.01,1.886,0,.723.015,1.163.41,1.139,1-.023.561-.445.905-1.149.909-1.228.008-2.456,0-3.684.005a1.007,1.007,0,0,1-1.037-.571.979.979,0,0,1,.212-1.111c.881-1.1,1.764-2.206,2.732-3.415-.715,0-1.315.007-1.915,0-.7-.011-1.122-.374-1.127-.94s.427-.956,1.112-.963c1.27-.013,2.541,0,3.811,0a.972.972,0,0,1,.935.534.949.949,0,0,1-.159,1.117c-.883,1.108-1.771,2.213-2.755,3.441" transform="translate(-30.723 -3.801)"/>
        <path id="Trazado_169170" data-name="Trazado 169170" d="M52.767,17.66c-.611,0-1.215.009-1.819,0-.661-.012-1.062-.357-1.083-.907a.958.958,0,0,1,1.071-.994c1.29-.018,2.581-.007,3.871,0a.964.964,0,0,1,.919.562.922.922,0,0,1-.153,1.061c-.891,1.119-1.785,2.237-2.771,3.471.764,0,1.406-.021,2.047.007a.939.939,0,0,1,.955.775.908.908,0,0,1-.483,1.012.986.986,0,0,1-.551.112c-1.29,0-2.581,0-3.871,0a.972.972,0,0,1-.756-1.648c.78-.973,1.561-1.945,2.333-2.925.11-.14.29-.247.291-.523" transform="translate(-24.07 -7.602)"/>
        <path id="Trazado_169171" data-name="Trazado 169171" d="M6.278,60.56A19.41,19.41,0,1,1,25.637,80.012,19.382,19.382,0,0,1,6.278,60.56" transform="translate(-3.031 -19.874)" fill="#cfdf5e"/>
        <path id="Trazado_169172" data-name="Trazado 169172" d="M68.534,109.269c0,2.169-.009,4.2.008,6.23,0,.361-.114.422-.458.464a1.147,1.147,0,0,1-1.425-.916,28.43,28.43,0,0,0-1.206-2.856c-.162-.352-.147-.558.206-.767a23.263,23.263,0,0,0,2.874-2.156" transform="translate(-31.55 -52.75)" fill="#baa6d9"/>
        <path id="Trazado_169173" data-name="Trazado 169173" d="M16.082,109.263a25.543,25.543,0,0,0,3,2.252c.222.138.249.277.141.521-.53,1.2-1.012,2.418-1.564,3.6-.288.619-.9.25-1.356.276-.4.023-.206-.394-.208-.6-.018-1.969-.011-3.938-.011-6.057" transform="translate(-7.746 -52.747)" fill="#baa6d9"/>
        <path id="Trazado_169174" data-name="Trazado 169174" d="M72.932,37.129Q70.656,35.765,68.38,34.4c-.129-.078-.317-.118-.188-.373A4.31,4.31,0,0,1,73.15,31.45c.019,0,.034.024.051.037a3.364,3.364,0,0,1,.821,2.377,4.95,4.95,0,0,1-.612,2.8c-.111.2-.222.411-.478.469" transform="translate(-32.899 -15.121)" fill="#baa6d9"/>
        <path id="Trazado_169175" data-name="Trazado 169175" d="M77.4,37.283a5.339,5.339,0,0,0,.269-5.642,4.081,4.081,0,0,1,2.773,5.571c-.688,1.543-.689,1.544-2.093.688-.322-.2-.634-.412-.95-.618" transform="translate(-37.363 -15.275)" fill="#af97d3"/>
        <path id="Trazado_169176" data-name="Trazado 169176" d="M8.147,31.62A4.214,4.214,0,0,1,13.6,33.977c.132.268-.047.338-.2.433q-2.358,1.419-4.718,2.832a.242.242,0,0,1-.273-.107C7.241,35.594,7.11,32.93,8.147,31.62" transform="translate(-3.593 -15.11)" fill="#baa6d9"/>
        <path id="Trazado_169177" data-name="Trazado 169177" d="M6.325,31.918A9.134,9.134,0,0,0,5.8,34.492a5.6,5.6,0,0,0,1.05,3.048c-.586.371-1.173.74-1.756,1.116-.166.107-.273.12-.408-.066-2.062-2.851-.7-5.683,1.452-6.632a.973.973,0,0,1,.184-.041" transform="translate(-1.771 -15.409)" fill="#af97d3"/>
        <path id="Trazado_169178" data-name="Trazado 169178" d="M37.273,49.14l1.936.914c-.018.95.695,1.368,1.329,1.859a15.24,15.24,0,0,1,6.083,10.73c.085.754-.052.887-.82.908-.423.012-.847-.011-1.27.012a.747.747,0,0,0-.783.687c-.051.431.241.652.612.773a5.743,5.743,0,0,0,1.578.1c.689.028.771.113.7.793A15.162,15.162,0,0,1,42.7,74.686a15.465,15.465,0,0,1-9.332,4.973c-1.278.2-1.33.151-1.332-1.145,0-.233.009-.466-.009-.7-.035-.445-.145-.863-.649-.976-.52-.116-.768.233-.951.647-.268.677-.311.719-1.026.489A16.552,16.552,0,0,1,18.257,65.971a1.081,1.081,0,0,1-.021-.8,1.145,1.145,0,0,1,.111-.148c.622-.724.574-.985-.3-1.619-.421-.474-.264-1.052-.238-1.58a17.717,17.717,0,0,1,1.438-6.327,15.489,15.489,0,0,0,1.008-2.04,11.521,11.521,0,0,1,3.407-2.69,15.346,15.346,0,0,1,5.747-1.881c.873-.1,1.053.051,1.066.935.006.38-.019.761.016,1.141.041.449.241.782.741.781s.715-.32.777-.763a11.121,11.121,0,0,0,.027-1.267c.02-.754.188-.909.912-.828a10.9,10.9,0,0,1,2.241.406,2.123,2.123,0,0,0,2.087-.147" transform="translate(-8.572 -23.586)" fill="#f3eff8"/>
        <path id="Trazado_169179" data-name="Trazado 169179" d="M26.734,75.792c.209-.682.567-.983,1.1-.885a.988.988,0,0,1,.819,1.114c.007.487.025.976,0,1.461-.019.351.1.392.43.37A15.414,15.414,0,0,0,42.267,67.381a17.669,17.669,0,0,0,.706-3.408c.036-.354-.04-.446-.378-.433-.507.02-1.017.023-1.524,0a1,1,0,0,1-1.076-1c.025-.533.441-.882,1.1-.9.508-.013,1.017-.014,1.525,0,.3.009.392-.061.357-.4A15.144,15.144,0,0,0,36.7,50.178c-.17-.126-.337-.257-.513-.374a1.1,1.1,0,0,1-.509-1.461c.675-.559.942-.589,1.682-.053,5.8,4.2,8.363,9.862,7.338,16.974A17.034,17.034,0,0,1,30.249,79.624a17.238,17.238,0,0,1-7.7-33.506,16.874,16.874,0,0,1,10.308,0c.748.233.91.48.881,1.309a1.1,1.1,0,0,1-1.455.511,15.548,15.548,0,0,0-3.161-.628c-.342-.044-.5.012-.471.406a13.217,13.217,0,0,1,0,1.522.952.952,0,0,1-.971,1.026c-.563-.008-.912-.393-.93-1.052a13.718,13.718,0,0,1,.006-1.459c.034-.423-.13-.49-.507-.449a15,15,0,0,0-9.4,4.474c-.611,1.038-1.488,1.879-2.116,2.912A15.617,15.617,0,0,0,12.6,60.933c-.053.421.1.582.516.578a4.067,4.067,0,0,1,1.564.143c.9.5.942,1.176.127,1.824-.475.4-1.045.248-1.583.271-.618.026-.667.067-.583.663a15.017,15.017,0,0,0,8.227,11.722,14.238,14.238,0,0,0,4.7,1.49c.89.129.99.047,1.023-.833.013-.339.132-.661.14-1" transform="translate(-5.035 -21.875)"/>
        <path id="Trazado_169180" data-name="Trazado 169180" d="M36.218,74.156a2.875,2.875,0,0,1-2.529-1.549.819.819,0,0,0-.884-.493c-1.059.024-2.118.009-3.177.007a3.675,3.675,0,0,1-.507-.017.916.916,0,0,1-.907-1.013.887.887,0,0,1,.977-.868c1.228-.015,2.456-.022,3.684,0a.719.719,0,0,0,.773-.455A2.876,2.876,0,0,1,37.2,68.347a.627.627,0,0,0,.754-.216q2.212-2.235,4.445-4.45a2.885,2.885,0,0,1,.53-.448.868.868,0,0,1,1.152.146.856.856,0,0,1,.106,1.159,3.393,3.393,0,0,1-.417.475c-1.481,1.484-2.96,2.971-4.451,4.445a.692.692,0,0,0-.211.821,2.98,2.98,0,0,1-2.891,3.878" transform="translate(-13.618 -30.452)"/>
        <path id="Trazado_169181" data-name="Trazado 169181" d="M28.576,92.746c0,.55-.011,1.1.02,1.648.022.381-.113.447-.471.412A15.406,15.406,0,0,1,14.258,81.065c-.049-.432.018-.6.5-.577a8.2,8.2,0,0,0,1.9-.056,4.42,4.42,0,0,0,.377,1.89,16.281,16.281,0,0,0,7.886,9.557,14.183,14.183,0,0,0,2.972,1.242c.386.111.614.034.689-.376" transform="translate(-6.877 -38.829)" fill="#e7e1f2"/>
        <path id="Trazado_169182" data-name="Trazado 169182" d="M16.518,67.688c-.612-.005-1.226-.028-1.837-.009-.354.012-.483-.075-.441-.458a15.1,15.1,0,0,1,4.447-9.408,1.722,1.722,0,0,1-.341.872A14.994,14.994,0,0,0,16.382,65.2c-.041.628-.136,1.252-.124,1.885a.658.658,0,0,0,.26.6" transform="translate(-6.871 -27.909)" fill="#e7e1f1"/>
        <path id="Trazado_169183" data-name="Trazado 169183" d="M43.891,77.687a1.1,1.1,0,0,1-1.017,1.092,1.064,1.064,0,0,1-1.124-1.033,1.04,1.04,0,0,1,1-1.083,1.072,1.072,0,0,1,1.138,1.025" transform="translate(-20.155 -37.009)" fill="#fcd97d"/>
      </g>
    </g>
  </g>
</svg>
