<svg xmlns="http://www.w3.org/2000/svg" xmlns:xlink="http://www.w3.org/1999/xlink" width="88" height="88" viewBox="0 0 88 88">
  <defs>
    <clipPath id="clip-path">
      <rect id="Rectángulo_43562" data-name="Rectángulo 43562" width="60.814" height="60.813" fill="none"/>
    </clipPath>
  </defs>
  <g id="Grupo_171354" data-name="Grupo 171354" transform="translate(-1281 -2414)">
    <circle id="Elipse_4788" data-name="Elipse 4788" cx="44" cy="44" r="44" transform="translate(1281 2414)" fill="#6b8dfc"/>
    <g id="Grupo_171353" data-name="Grupo 171353" transform="translate(1295 2428)">
      <g id="Grupo_171352" data-name="Grupo 171352" clip-path="url(#clip-path)">
        <path id="Trazado_169184" data-name="Trazado 169184" d="M28.148,60.813a14.034,14.034,0,0,0-2.188-.328c-11.292-1.947-19.195-8.221-23.748-18.7A28.392,28.392,0,0,1,0,30.816c-.019-1.194.385-1.6,1.6-1.6q1.99,0,3.979,0c1.132,0,1.518.4,1.551,1.539a23,23,0,0,0,6.818,16.07,22.606,22.606,0,0,0,13.1,6.595,22.557,22.557,0,0,0,16.408-3.782,22.714,22.714,0,0,0,9.63-14.093A22.568,22.568,0,0,0,51.6,20.84a23.012,23.012,0,0,0-10-10.831,22.757,22.757,0,0,0-7.754-2.617,23.242,23.242,0,0,0-10.072.7c.146.265.29.493.4.737a1.166,1.166,0,0,1-1.04,1.73q-4.72.038-9.441.015A1.165,1.165,0,0,1,12.738,8.7c1.186-2.1,2.394-4.18,3.592-6.269.314-.548.617-1.1.943-1.644A1.2,1.2,0,0,1,19.485.749c.643,1.027.644,1.031,1.813.665A30.363,30.363,0,0,1,58.469,18.675,29.281,29.281,0,0,1,60.7,27.963c.008.108-.042.245.11.3v.356a2.959,2.959,0,0,0,0,1.307v.95a2.959,2.959,0,0,0,0,1.307v.475c-.151,1.031-.124,2.075-.311,3.106a30.183,30.183,0,0,1-6.614,14.188A30.594,30.594,0,0,1,44.5,57.547a29.608,29.608,0,0,1-9.9,3.126c-.717.095-1.45.036-2.17.139h-.356a2.371,2.371,0,0,0-1.188,0h-.95a2.959,2.959,0,0,0-1.307,0Z" transform="translate(0 0)"/>
        <path id="Trazado_169185" data-name="Trazado 169185" d="M106.7,51.58a1.52,1.52,0,0,1,0-1.307Z" transform="translate(-45.889 -21.651)" fill="#343434"/>
        <path id="Trazado_169186" data-name="Trazado 169186" d="M106.7,55.544a1.52,1.52,0,0,1,0-1.307Z" transform="translate(-45.889 -23.358)" fill="#343434"/>
        <path id="Trazado_169187" data-name="Trazado 169187" d="M50.273,106.7a1.52,1.52,0,0,1,1.307,0Z" transform="translate(-21.651 -45.888)" fill="#343434"/>
        <path id="Trazado_169188" data-name="Trazado 169188" d="M54.238,106.706a1.322,1.322,0,0,1,1.188,0Z" transform="translate(-23.358 -45.893)" fill="#343434"/>
        <path id="Trazado_169189" data-name="Trazado 169189" d="M51.714,24.8c.854.335,1.705.677,2.564,1a1.911,1.911,0,0,1,.508.282c.126.193-.047.331-.1.488A1.011,1.011,0,0,0,55.883,27.9c.188-.038.363-.174.57-.077l1.479,1.847a2.164,2.164,0,0,0,.2,2.368,17.621,17.621,0,0,1,2.176,9.425A18.5,18.5,0,0,1,49.149,57.639a18.828,18.828,0,0,1-5.561,1.4,18.355,18.355,0,0,1-8.332-1.13,16.565,16.565,0,0,1-4.726-2.691,1.227,1.227,0,0,1-.315-.352,20.844,20.844,0,0,1-2.338-4.448A19.557,19.557,0,0,1,26.621,42.8a1.932,1.932,0,0,1,.215-.914c.2-.206.479-.149.728-.187.744-.115,1.08-.437,1.069-1.033s-.348-.919-1.078-1.013a.862.862,0,0,1-.4-.106c-.165-.239.006-.457.057-.673a19.017,19.017,0,0,1,3.677-7.52c.164-.207.313-.473.654-.418a2.815,2.815,0,0,0,1.068,2.018q3.946,3.905,7.85,7.854a2.788,2.788,0,0,0,2.256.931c1.5-.064,3.008-.017,4.513-.018a4.29,4.29,0,0,0,.593-.017,1.018,1.018,0,0,0,.022-2.033,3.752,3.752,0,0,0-.593-.02c-1.385,0-2.772-.015-4.157.007a1.687,1.687,0,0,1-1.313-.548c-2.51-2.529-5.042-5.036-7.547-7.569a2.807,2.807,0,0,0-2.214-1.151c-.132-.239.06-.371.186-.5a18.26,18.26,0,0,1,5.327-3.909,21.459,21.459,0,0,1,2.627-1.094c.256-.085.525-.221.781.011a6.314,6.314,0,0,0-.058,1.7.964.964,0,0,0,1.261.827.953.953,0,0,0,.533-.352,2.039,2.039,0,0,0-.3-2.325c-.127-.1-.414-.138-.206-.414a18.791,18.791,0,0,1,7.429-.147.918.918,0,0,0,.232.026c.642.139,1.234.445,1.876.588" transform="translate(-11.461 -10.285)" fill="#ace4fe"/>
        <path id="Trazado_169190" data-name="Trazado 169190" d="M47.607,21.889c-.679.171-1.188-.27-1.76-.485-.9-.182-1.7-.628-2.569-.885a17.777,17.777,0,0,0-16.56,2.921,17.2,17.2,0,0,0-6.931,12.19,17.667,17.667,0,0,0,5.07,14.859,14.653,14.653,0,0,1,1.378,1.461,18.276,18.276,0,0,0,20.937,1.488A18.271,18.271,0,0,0,53.9,29.182c-.1-.192-.214-.378-.314-.57a1.3,1.3,0,0,1,.244-1.855c.989-.3,1.359-.13,1.878.781a20.608,20.608,0,0,1-2.377,23.811,20.252,20.252,0,0,1-9.288,6.115,19.979,19.979,0,0,1-9.612.691A20.249,20.249,0,0,1,19.575,47.562a19.567,19.567,0,0,1-2.183-13.139A20.218,20.218,0,0,1,28.514,19.3a19.614,19.614,0,0,1,10.737-2.118,20.957,20.957,0,0,1,8.3,2.394,1.317,1.317,0,0,1,.857,1.173,1.207,1.207,0,0,1-.8,1.136" transform="translate(-7.354 -7.374)"/>
        <path id="Trazado_169191" data-name="Trazado 169191" d="M77.534,29.233a1.228,1.228,0,0,1-1.566-.011c-.506-.42-.537-1.007-.1-1.729.712-.452,1.254-.444,1.707.028s.434.986-.04,1.713" transform="translate(-32.542 -11.697)" fill="#020202"/>
        <path id="Trazado_169192" data-name="Trazado 169192" d="M22.808,9.971h-5.22L20.2,5.41c.589.989,1.348.865,2.2.539A27.109,27.109,0,0,1,33.509,4.188a27.9,27.9,0,0,1,26.011,21.8c2.245,10.475-.657,19.507-8.41,26.868A26.591,26.591,0,0,1,35.6,60.005,28.039,28.039,0,0,1,4.966,38.741a31.129,31.129,0,0,1-.738-4.978c-.022-.283.042-.4.34-.385.415.018.831,0,1.247,0,.8,0,.8,0,.858.778a25.62,25.62,0,0,0,50.008,5.68c2.736-8.93,1.012-17.151-5.007-24.332A24.679,24.679,0,0,0,36,6.814,25.28,25.28,0,0,0,23.554,8.057c-.843.3-1.033.8-.746,1.914" transform="translate(-1.819 -1.789)" fill="#36d18e"/>
        <path id="Trazado_169193" data-name="Trazado 169193" d="M35.167,35.766l.5-.537a1.4,1.4,0,0,1,1.7.446c2.75,2.762,5.513,5.512,8.261,8.278a1.173,1.173,0,0,0,.927.388c1.583-.022,3.166-.02,4.749,0a1.183,1.183,0,0,1,1.251,1.6,1.163,1.163,0,0,1-1.16.765c-1.939.009-3.878,0-5.818,0a1.459,1.459,0,0,1-1.042-.5q-4.47-4.471-8.942-8.939a1.4,1.4,0,0,1-.418-1.5" transform="translate(-15.114 -15.114)"/>
        <path id="Trazado_169194" data-name="Trazado 169194" d="M26.125,53.687a1.714,1.714,0,0,1-.865-.328,1.126,1.126,0,0,1-.379-1.161,1.14,1.14,0,0,1,.921-.879,4.592,4.592,0,0,1,.584-.051c.2.009.391.009.585.028a1.154,1.154,0,0,1,1.1,1.1,1.111,1.111,0,0,1-.951,1.213,8.042,8.042,0,0,1-.99.079" transform="translate(-10.698 -22.079)" fill="#010101"/>
        <path id="Trazado_169195" data-name="Trazado 169195" d="M78.053,53.7c-1.194,0-1.712-.362-1.748-1.107a1.349,1.349,0,0,1,.05-.466c.191-.6.772-.851,1.844-.8a1.244,1.244,0,0,1,1.3.972,1.166,1.166,0,0,1-.974,1.377,3.057,3.057,0,0,1-.474.027" transform="translate(-32.86 -22.101)" fill="#000101"/>
        <path id="Trazado_169196" data-name="Trazado 169196" d="M51.3,77.878c0-1.022.359-1.535,1.1-1.582s1.246.478,1.272,1.361c.036,1.229-.379,1.875-1.2,1.869-.767-.006-1.175-.578-1.174-1.648" transform="translate(-22.093 -32.857)" fill="#000101"/>
        <path id="Trazado_169197" data-name="Trazado 169197" d="M51.546,25.289a1.444,1.444,0,0,1,1.2-.454,1.967,1.967,0,0,1,.711,2.749,1.1,1.1,0,0,1-1.134.459,1.033,1.033,0,0,1-.913-.8,2.794,2.794,0,0,1,.14-1.953" transform="translate(-22.09 -10.691)" fill="#000101"/>
      </g>
    </g>
  </g>
</svg>
