<svg xmlns="http://www.w3.org/2000/svg" xmlns:xlink="http://www.w3.org/1999/xlink" width="88" height="88" viewBox="0 0 88 88">
  <defs>
    <clipPath id="clip-path">
      <rect id="Rectángulo_43552" data-name="Rectángulo 43552" width="53.348" height="55.242" fill="none"/>
    </clipPath>
  </defs>
  <g id="Grupo_171331" data-name="Grupo 171331" transform="translate(-651 -907)">
    <circle id="Elipse_4714" data-name="Elipse 4714" cx="44" cy="44" r="44" transform="translate(651 907)" fill="#6b8dfc"/>
    <g id="Grupo_171330" data-name="Grupo 171330" transform="translate(668 923)">
      <g id="Grupo_171319" data-name="Grupo 171319" clip-path="url(#clip-path)">
        <path id="Trazado_169029" data-name="Trazado 169029" d="M43.375,55.242H3.939A4.547,4.547,0,0,1,.087,51.478a3.974,3.974,0,0,1-.08-.964q0-21.849-.008-43.7A4.766,4.766,0,0,1,4.8,2.051c.394.017.79,0,1.185,0,.3,0,.468-.1.491-.428A1.645,1.645,0,0,1,8.651.046,1.533,1.533,0,0,1,9.9,1.412c.1.633.1.639.735.64,1.472,0,2.945-.006,4.417.006.395,0,.611-.058.643-.544A1.621,1.621,0,0,1,17.459.006a1.526,1.526,0,0,1,1.7,1.481c.044.447.236.574.649.57q2.236-.018,4.471,0c.4,0,.6-.09.651-.555a1.552,1.552,0,0,1,1.71-1.5A1.568,1.568,0,0,1,28.414,1.5c.053.454.242.564.652.56q2.235-.02,4.471,0c.42,0,.6-.142.657-.575A1.532,1.532,0,0,1,35.909.006a1.634,1.634,0,0,1,1.755,1.527c.041.445.225.528.608.525q2.262-.019,4.524,0c.409,0,.611-.1.655-.56A1.515,1.515,0,0,1,45.091.006a1.552,1.552,0,0,1,1.782,1.408c.076.534.022.633.793.643a7.849,7.849,0,0,1,2.3.173,4.75,4.75,0,0,1,3.374,4.512q.008,18.939.011,37.878a1.867,1.867,0,0,1-.6,1.429q-4.358,4.328-8.688,8.683a2.605,2.605,0,0,1-.688.511" transform="translate(0 0)"/>
        <path id="Trazado_169030" data-name="Trazado 169030" d="M29.1,21.29q-11.687,0-23.373.01c-.452,0-.6-.076-.6-.574.028-3.053.013-6.106.014-9.159A2.188,2.188,0,0,1,7.61,9.084H50.694a2.187,2.187,0,0,1,2.469,2.487c0,3.053-.014,6.106.015,9.158,0,.5-.155.572-.6.571Q40.836,21.28,29.1,21.29" transform="translate(-2.477 -4.39)" fill="#81bbf3"/>
        <path id="Trazado_169031" data-name="Trazado 169031" d="M42.124,59.744a7.974,7.974,0,0,1-.758,3.62A3.878,3.878,0,0,1,38.1,65.492a5.6,5.6,0,0,1-1.926-.118,3.787,3.787,0,0,1-2.755-2.418,8.08,8.08,0,0,1-.137-5.635,4.269,4.269,0,0,1,4.443-2.855,4.35,4.35,0,0,1,4.295,4.072c.069.46.084.928.108,1.206" transform="translate(-15.872 -26.323)" fill="#fefefe"/>
        <path id="Trazado_169032" data-name="Trazado 169032" d="M71.913,62.648c.983-.1,1.912-.185,2.837-.294a.375.375,0,0,1,.423.213,1.527,1.527,0,1,0,2.626-1.56,1.515,1.515,0,0,0-2.248-.312.758.758,0,0,1-.615.22c-.735-.033-1.471-.068-2.207-.072-.307,0-.352-.122-.3-.386.321-1.8.643-3.6.943-5.4.044-.266.151-.3.38-.3q3.1.009,6.195,0c.234,0,.359.026.349.313-.022.646-.023,1.293,0,1.939.011.316-.134.339-.385.338-1.275-.009-2.55.009-3.824-.012-.359-.006-.514.1-.55.461a10.688,10.688,0,0,1-.226,1.1A4.436,4.436,0,0,1,79,58.626a2.952,2.952,0,0,1,2.077,2.511,3.548,3.548,0,0,1-1.321,3.59c-1.525,1.169-5.038,1.355-6.62-.1a4.23,4.23,0,0,1-1.22-1.976" transform="translate(-34.759 -26.463)" fill="#fefefe"/>
        <path id="Trazado_169033" data-name="Trazado 169033" d="M18.366,62.7c1.431,0,2.862.012,4.293-.008.363-.005.509.073.486.467-.035.573-.022,1.15,0,1.724.01.287-.047.409-.375.408q-4.148-.019-8.295,0c-.294,0-.346-.092-.33-.369A4.649,4.649,0,0,1,16.3,61.485c.809-.623,1.671-1.176,2.5-1.768a3.248,3.248,0,0,0,.925-.963c.435-.722.342-1.375-.261-1.733a1.474,1.474,0,0,0-1.99.453,1.775,1.775,0,0,0-.257.922c0,.314-.086.484-.468.463-.68-.037-1.364-.027-2.046,0-.324.011-.378-.1-.353-.4.221-2.728,1.875-4.14,4.687-4a5.18,5.18,0,0,1,2.8.8,3.155,3.155,0,0,1,.321,4.875,14.263,14.263,0,0,1-2.447,1.649c-.457.278-.915.552-1.373.827.009.034.018.067.027.1" transform="translate(-6.835 -26.315)" fill="#fefefe"/>
        <path id="Trazado_169034" data-name="Trazado 169034" d="M60.132,59.883c0,1.652-.009,3.3.007,4.957,0,.336-.061.465-.431.45-.771-.032-1.544-.028-2.316,0-.34.012-.414-.092-.411-.418.017-1.778-.006-3.557.018-5.334.006-.406-.1-.532-.506-.5-.536.037-1.077,0-1.615.015-.272.01-.384-.054-.368-.351a12.786,12.786,0,0,0,0-1.4c-.017-.32.07-.42.409-.439a2.658,2.658,0,0,0,2.733-2.131.36.36,0,0,1,.424-.292c.539.009,1.078.023,1.616,0,.347-.018.455.078.451.442-.021,1.67-.009,3.341-.009,5.011" transform="translate(-26.347 -26.308)" fill="#fefefe"/>
        <path id="Trazado_169035" data-name="Trazado 169035" d="M64.694,21.509c-.635-.167-1.367.342-1.977-.331a2.479,2.479,0,0,1-1.815.448,1.313,1.313,0,0,1-1.3-1.191,1.247,1.247,0,0,1,1.021-1.377c.48-.131.988-.159,1.477-.266.228-.05.529-.031.611-.344a.264.264,0,0,0-.2-.334c-.278-.076-.6-.156-.81.088-.5.58-1.136.162-1.7.258-.164.028-.114-.193-.095-.3a1.133,1.133,0,0,1,.758-.9,4.517,4.517,0,0,1,3-.06,1.112,1.112,0,0,1,.787,1.044c.089.806.039,1.612.056,2.418a1.281,1.281,0,0,0,.19.85" transform="translate(-28.804 -8.202)"/>
        <path id="Trazado_169036" data-name="Trazado 169036" d="M32.08,21.5c-.644-.129-1.37.32-1.968-.322a2.342,2.342,0,0,1-2.474.238A1.094,1.094,0,0,1,27,20.324a1.133,1.133,0,0,1,.622-1.1,4.926,4.926,0,0,1,1.551-.394,2.576,2.576,0,0,0,.32-.036c.23-.072.527-.051.62-.346a.269.269,0,0,0-.21-.331c-.275-.081-.6-.164-.808.084-.5.585-1.135.158-1.7.262-.175.033-.121-.172-.1-.29a1.142,1.142,0,0,1,.8-.935,4.623,4.623,0,0,1,2.9-.068,1.138,1.138,0,0,1,.857,1.163c.018.717.018,1.434.025,2.151a1.52,1.52,0,0,0,.2,1.012" transform="translate(-13.052 -8.203)"/>
        <path id="Trazado_169037" data-name="Trazado 169037" d="M52.279,21a1.845,1.845,0,0,1-1.527.747,1.459,1.459,0,0,1-1.621-1.484c-.054-.929-.014-1.864-.028-2.8,0-.221.088-.286.286-.262a.311.311,0,0,0,.054,0c1.405-.065,1.4-.065,1.406,1.345,0,.376-.006.753.009,1.129.016.4.158.721.624.71.443-.01.629-.317.644-.713.025-.662.047-1.328.01-1.989-.024-.425.127-.5.513-.491,1.262.019,1.263,0,1.263,1.291,0,.879-.018,1.758.008,2.636.011.38-.057.58-.488.51a2.09,2.09,0,0,0-.59,0c-.392.049-.672-.013-.561-.631" transform="translate(-23.734 -8.308)"/>
        <path id="Trazado_169038" data-name="Trazado 169038" d="M20.88,16.436a10.9,10.9,0,0,1-.114,2.228,1.926,1.926,0,0,1-1.726,1.525,4.108,4.108,0,0,1-1.178-.017A2.14,2.14,0,0,1,16.1,17.643c.031-.163.09-.209.239-.205a5.005,5.005,0,0,0,.752,0c.539-.069.873.046.839.692-.015.285.09.616.46.61.422-.007.505-.365.51-.7.017-1.166.036-2.332,0-3.5-.015-.469.132-.588.564-.537.457.055,1.064-.192,1.341.094s.061.885.079,1.347c.011.287,0,.574,0,.989" transform="translate(-7.761 -6.747)"/>
        <path id="Trazado_169039" data-name="Trazado 169039" d="M77.708,17.2c.611,0,1.252-.182,1.656.051s.363.956.525,1.461c.115.356.216.718.352,1.171.241-.835.474-1.579.663-2.334.071-.282.181-.4.469-.366a3.515,3.515,0,0,0,.43,0c.9,0,.9,0,.616.823-.441,1.266-.875,2.536-1.331,3.8a1.6,1.6,0,0,1-1.836,1.3c-.2,0-.4-.017-.592,0-.27.019-.4-.07-.376-.362a3.225,3.225,0,0,0,0-.538c-.019-.244.06-.337.326-.358.654-.05.707-.144.488-.766-.452-1.279-.916-2.554-1.391-3.878" transform="translate(-37.56 -8.28)"/>
        <path id="Trazado_169040" data-name="Trazado 169040" d="M39.891,17.741a1.854,1.854,0,0,1,1.5-.735,1.487,1.487,0,0,1,1.6,1.469c.053.93.022,1.866.039,2.8,0,.213-.073.3-.278.27a.746.746,0,0,0-.107,0c-1.367.036-1.367.036-1.367-1.33,0-.359,0-.718,0-1.077-.01-.394-.127-.719-.6-.734-.49-.015-.665.3-.678.721-.02.681-.028,1.364-.007,2.045.01.312-.094.378-.39.381-1.36.015-1.36.025-1.36-1.344,0-.9.011-1.795-.006-2.692-.006-.292.056-.434.379-.4a5.588,5.588,0,0,0,.645.005c.557,0,.557,0,.632.617" transform="translate(-18.481 -8.219)"/>
        <path id="Trazado_169041" data-name="Trazado 169041" d="M72.517,17.967a1.476,1.476,0,0,1,1.209-.955c.26-.022.414.016.377.33a3.326,3.326,0,0,0,0,.645c.037.467.049.833-.634.794-.509-.029-.726.415-.764.878a12.728,12.728,0,0,0-.026,1.506c.013.316-.1.38-.4.385-1.373.023-1.373.032-1.373-1.341,0-.861.018-1.723-.008-2.583-.01-.378.059-.588.489-.508a1.766,1.766,0,0,0,.322,0c.762,0,.762,0,.806.846" transform="translate(-34.269 -8.22)" fill="#010101"/>
        <path id="Trazado_169042" data-name="Trazado 169042" d="M41.928,62.366a7.887,7.887,0,0,1-.3,2.041,1.237,1.237,0,0,1-1.217.951,1.163,1.163,0,0,1-1.176-.989,8.133,8.133,0,0,1,.008-4.3,1.214,1.214,0,0,1,1.213-1.028A1.322,1.322,0,0,1,41.718,60.1a7.278,7.278,0,0,1,.21,2.27" transform="translate(-18.827 -28.538)"/>
        <path id="Trazado_169043" data-name="Trazado 169043" d="M64.409,22.078c.009.76-.311,1.125-.864,1.041-.207-.031-.391-.114-.418-.346a.384.384,0,0,1,.282-.407,1.228,1.228,0,0,1,.144-.07c.274-.073.55-.141.857-.218" transform="translate(-30.511 -10.671)" fill="#81bbf3"/>
        <path id="Trazado_169044" data-name="Trazado 169044" d="M31.814,22.032c.013.756-.294,1.124-.844,1.066-.2-.021-.393-.081-.434-.318a.368.368,0,0,1,.287-.444c.32-.1.642-.2.991-.3" transform="translate(-14.756 -10.649)" fill="#81bbf3"/>
      </g>
    </g>
  </g>
</svg>
