<svg xmlns="http://www.w3.org/2000/svg" xmlns:xlink="http://www.w3.org/1999/xlink" width="90" height="90" viewBox="0 0 90 90">
  <defs>
    <clipPath id="clip-path">
      <rect id="Rectángulo_43331" data-name="Rectángulo 43331" width="49.617" height="68.094" fill="none"/>
    </clipPath>
  </defs>
  <g id="Grupo_170701" data-name="Grupo 170701" transform="translate(0.082)">
    <circle id="Elipse_4780" data-name="Elipse 4780" cx="45" cy="45" r="45" transform="translate(-0.082 0)" fill="#c4d1ff"/>
    <g id="Grupo_170960" data-name="Grupo 170960" transform="translate(19.918 11)">
      <g id="Grupo_170960-2" data-name="Grupo 170960" transform="translate(0 0)" clip-path="url(#clip-path)">
        <path id="Trazado_166718" data-name="Trazado 166718" d="M6.652,55.917c2.181.817,4.384,1.561,6.6,2.249A62,62,0,0,0,29.971,56.95c-.148-.7-.294-1.434-.428-2.2a29.778,29.778,0,0,1-.529-7.476v-.009a6.477,6.477,0,0,1,.738-2.689L5.321,30.838c.018.082.028.154.046.237.33,1.932,2.514,15.135,1.285,24.841" transform="translate(1.692 9.808)" fill="#fa9778"/>
        <path id="Trazado_166719" data-name="Trazado 166719" d="M28.586,52.546C15.3,54.224,8.575,38.361,8.33,37.768a15.66,15.66,0,0,0,9.481,6.8,26.016,26.016,0,0,0,10.164.519c.028-.008.055-.008.083-.017a29.768,29.768,0,0,0,.529,7.475" transform="translate(2.649 12.012)" fill="#450d20"/>
        <path id="Trazado_166720" data-name="Trazado 166720" d="M40.106,12.364C36.915,4.159,21.873.969,11.389,10.085,6.518,14.321,5.494,22,5.784,29.009a3.911,3.911,0,0,0-.63-.258A4.365,4.365,0,0,0,.236,31.835a5.777,5.777,0,0,0,.749,4.811A7.262,7.262,0,0,0,4.29,39.407a9.344,9.344,0,0,0,2.844.282,21.18,21.18,0,0,0,6.984,11.886A19.154,19.154,0,0,0,30.4,55.7c4.539-.942,11.258-3.851,12.925-8.562a11.942,11.942,0,0,0,.489-3.853c.123-9.929-.063-21.538-3.712-30.919" transform="translate(0 1.453)" fill="#fa9778"/>
        <path id="Trazado_166721" data-name="Trazado 166721" d="M27.456,23.64c0,1.522.6,2.756,1.346,2.756s1.347-1.234,1.347-2.756-.6-2.756-1.347-2.756-1.346,1.234-1.346,2.756" transform="translate(8.733 6.642)" fill="#450d20"/>
        <path id="Trazado_166722" data-name="Trazado 166722" d="M21.3,23.64c0,1.522-.6,2.756-1.346,2.756s-1.346-1.234-1.346-2.756.6-2.756,1.346-2.756S21.3,22.118,21.3,23.64" transform="translate(5.92 6.642)" fill="#450d20"/>
        <path id="Trazado_166723" data-name="Trazado 166723" d="M30.328,29.3a6.579,6.579,0,0,1-2.03,2.307,5.142,5.142,0,0,1-3.013,1,5.222,5.222,0,0,1-3-1.035,9.891,9.891,0,0,1-1.163-1.033c-.316-.409-.626-.817-.9-1.239.415.3.795.629,1.176.942.423.257.8.573,1.231.79a5.552,5.552,0,0,0,2.661.757,5.431,5.431,0,0,0,2.673-.721A11.624,11.624,0,0,0,30.328,29.3" transform="translate(6.431 9.319)" fill="#450d20"/>
        <path id="Trazado_166724" data-name="Trazado 166724" d="M25.815,33.007a2.208,2.208,0,0,1-1.417.48,2.314,2.314,0,0,1-1.418-.48,7.364,7.364,0,0,0,1.418.159,6.1,6.1,0,0,0,1.417-.159" transform="translate(7.309 10.498)" fill="#450d20"/>
        <path id="Trazado_166725" data-name="Trazado 166725" d="M23.356,15.91a3.19,3.19,0,0,0-2.085-.772,6.447,6.447,0,0,0-2.222.315,5.46,5.46,0,0,0-1.956,1.12,5.688,5.688,0,0,0-1.335,1.712.645.645,0,0,0,1,.788l.055-.051a7.9,7.9,0,0,1,1.329-1.054,4.651,4.651,0,0,1,1.468-.6,5.741,5.741,0,0,1,1.59-.154,6.065,6.065,0,0,0,1.7-.1l.17-.041a.674.674,0,0,0,.287-1.16" transform="translate(4.986 4.814)" fill="#450d20"/>
        <path id="Trazado_166726" data-name="Trazado 166726" d="M26.663,15.91a3.185,3.185,0,0,1,2.085-.772,6.444,6.444,0,0,1,2.221.315,5.46,5.46,0,0,1,1.956,1.12,5.688,5.688,0,0,1,1.335,1.712.644.644,0,0,1-1,.788l-.055-.051a7.962,7.962,0,0,0-1.33-1.054,4.651,4.651,0,0,0-1.468-.6,5.736,5.736,0,0,0-1.59-.154,6.068,6.068,0,0,1-1.7-.1l-.17-.041a.674.674,0,0,1-.494-.816.662.662,0,0,1,.208-.344" transform="translate(8.408 4.814)" fill="#450d20"/>
        <path id="Trazado_166727" data-name="Trazado 166727" d="M26.689,19.78c.237,1.039.413,2.069.6,3.091s.388,2.035.677,3c.066.244.141.481.228.712a2.54,2.54,0,0,1,.233.89,1.792,1.792,0,0,1-.966,1.634,2.176,2.176,0,0,1-1.757.094,4.264,4.264,0,0,1-1.391-.833c.966.364,2.094.647,2.775.133a1.062,1.062,0,0,0,.477-.982,1.954,1.954,0,0,0-.2-.612q-.156-.388-.273-.779a14.691,14.691,0,0,1-.5-3.171,16.839,16.839,0,0,1,.1-3.177" transform="translate(7.735 6.291)" fill="#450d20"/>
        <path id="Trazado_166728" data-name="Trazado 166728" d="M11.356,37.785c.091-.017.183-.037.274-.055a1.525,1.525,0,0,0,.236-2.893l-.04-.016c-4.719-1.956-.216-9.2,1.38-14.29s5.881-3.917,5.881-3.917c12.381,3.764,18.968-4.128,18.968-4.128a22.068,22.068,0,0,1,2.616,5.6S57.736,6.706,42.385,1.222,8.051,10.5,8.051,10.5C2.2,7.091.884,20.469,4.937,30.1A20.47,20.47,0,0,1,6.2,34.076a4.5,4.5,0,0,0,5.154,3.709" transform="translate(0.825 0)" fill="#450d20"/>
      </g>
    </g>
  </g>
</svg>
