<svg xmlns="http://www.w3.org/2000/svg" xmlns:xlink="http://www.w3.org/1999/xlink" width="105" height="105" viewBox="0 0 105 105">
  <defs>
    <clipPath id="clip-path">
      <rect id="Rectángulo_43343" data-name="Rectángulo 43343" width="64.155" height="59.953" fill="none"/>
    </clipPath>
  </defs>
  <g id="Grupo_170742" data-name="Grupo 170742" transform="translate(-748.326 -839)">
    <path id="Trazado_160852" data-name="Trazado 160852" d="M52.5,0A52.5,52.5,0,1,1,0,52.5,52.5,52.5,0,0,1,52.5,0Z" transform="translate(748.326 839)" fill="#a6bbff"/>
    <g id="Grupo_170986" data-name="Grupo 170986" transform="translate(768.327 862)">
      <g id="Grupo_170986-2" data-name="Grupo 170986" transform="translate(0 0)" clip-path="url(#clip-path)">
        <path id="Trazado_167025" data-name="Trazado 167025" d="M0,23.594v-1a2.363,2.363,0,0,1,.939-1.626,1.24,1.24,0,0,0,.372-1.135c0-3.608-.011-7.216,0-10.824A4.856,4.856,0,0,1,5.081,4.232a5.446,5.446,0,0,1,1.243-.1q5.224,0,10.448,0c.871,0,.909,0,1.015-.874A3.637,3.637,0,0,1,21.584,0a10.285,10.285,0,0,1,4.889,1.366,15.865,15.865,0,0,1,2.7,1.7,1.616,1.616,0,0,0,1.214.356,21.537,21.537,0,0,1,3.25,0,1.817,1.817,0,0,0,1.327-.394A18.112,18.112,0,0,1,39.384.582,8.006,8.006,0,0,1,42.563,0a3.619,3.619,0,0,1,3.724,3.262c.1.864.135.863,1.014.863q5.224,0,10.448,0a4.819,4.819,0,0,1,5.012,5q.014,5.286-.006,10.573a1.632,1.632,0,0,0,.609,1.48,2.675,2.675,0,0,1-.041,3.838,1.52,1.52,0,0,0-.564,1.432q.009,14.139.007,28.278a5.021,5.021,0,0,1-1.624,3.915A4.844,4.844,0,0,1,58.1,59.947c-.124.008-.25,0-.375,0H6.362A4.859,4.859,0,0,1,2.3,57.985a5.027,5.027,0,0,1-.992-3.164q.012-6.163,0-12.325,0-8.008.008-16.016a1.608,1.608,0,0,0-.641-1.522A2,2,0,0,1,0,23.594" transform="translate(0 0)"/>
        <path id="Trazado_167026" data-name="Trazado 167026" d="M51.7,25.158c-.867-.01-1.049.12-1.342.985Q44.968,42.124,39.575,58.1c-.063.187-.137.37-.262.7L22.529,9.118h2.916c.106,0,.224,0,.258.122.168.586.635,1.074.3,1.8a6.766,6.766,0,0,0-.716,3.814,3.288,3.288,0,0,0,3.084,2.929,9.167,9.167,0,0,0,4.87-1.1,17.439,17.439,0,0,0,3.377-2.121,1.013,1.013,0,0,1,.9-.188,11.566,11.566,0,0,0,3.611,0,1.1,1.1,0,0,1,.953.228,15.254,15.254,0,0,0,6.391,3.113,5.677,5.677,0,0,0,2.116.022,3.359,3.359,0,0,0,2.824-3.808,9.647,9.647,0,0,0-.794-3A2.372,2.372,0,0,1,52.976,9.2a.364.364,0,0,1,.221-.075c.954,0,1.907,0,2.92,0-.831,2.469-1.639,4.87-2.448,7.269-.577,1.714-1.147,3.429-1.738,5.138a1.006,1.006,0,0,0,.506,1.41,3.789,3.789,0,0,1-.733,2.222" transform="translate(-7.287 -2.949)" fill="#e9e9f0"/>
        <path id="Trazado_167027" data-name="Trazado 167027" d="M60.408,26.128l.733-2.222c.89-.005,1.024-.1,1.307-.935q1.732-5.116,3.464-10.231c.066-.193.138-.384.225-.622.252.143.293.381.382.57a36.474,36.474,0,0,0,6.5,9.5,38.6,38.6,0,0,0,4.741,4.247c.6.457.593.694-.028,1.13a20.051,20.051,0,0,1-9.324,3.456,27.1,27.1,0,0,1-3.925.212.921.921,0,0,0-.953.559.849.849,0,0,0,.277,1.06A14.507,14.507,0,0,0,68.3,35.508a21.815,21.815,0,0,0,2.794.884c.766.2.884.505.4,1.145q-4,5.319-8.012,10.625-4.93,6.534-9.851,13.075a1.192,1.192,0,0,1-1.128.581c-.81-.047-1.626-.012-2.439-.013-.727,0-.729,0-.487-.716q2.642-7.806,5.284-15.61,3.011-8.9,6.018-17.8c.273-.807.2-1.026-.473-1.547" transform="translate(-15.991 -3.919)" fill="#4d5561"/>
        <path id="Trazado_167028" data-name="Trazado 167028" d="M18.772,51.409a1.069,1.069,0,0,0,.009-1.517c-3-3.969-5.988-7.953-9.005-11.911-.762-1-.974-1.358.578-1.731a16.875,16.875,0,0,0,6.194-2.869,7.336,7.336,0,0,0,.569-.488.875.875,0,0,0,.3-1.107,1.046,1.046,0,0,0-1.075-.593A21.736,21.736,0,0,1,4.594,28.445c-.488-.278-.956-.593-1.419-.912-.559-.385-.566-.645-.026-1.051a38.315,38.315,0,0,0,3.243-2.742A36.333,36.333,0,0,0,14.357,12.86c.115-.239.233-.478.357-.734.259.164.258.413.327.617q4.119,12.183,8.231,24.368,4.045,11.977,8.093,23.953c.25.741.25.742-.51.743-.835,0-1.67-.024-2.5.01a1,1,0,0,1-.937-.457q-2.935-3.929-5.9-7.838c-.366-.486-.723-1.016-1.477-.72a.357.357,0,0,1-.49-.117c-.3-.4-.763-.7-.78-1.276" transform="translate(-0.89 -3.922)" fill="#4d5561"/>
        <path id="Trazado_167029" data-name="Trazado 167029" d="M23.382,71.723c-5.233.005-10.466.022-15.7.008A2.78,2.78,0,0,1,5,68.854q-.006-7.849,0-15.7,0-5.16.015-10.32a3.472,3.472,0,0,1,1.934.688c.335.192.077.52-.092.756a4.5,4.5,0,0,0-.628,4.049,5.349,5.349,0,0,0,1,1.718c5.237,6.965,10.507,13.905,15.738,20.876.179.238.463.438.417.8" transform="translate(-1.615 -13.854)" fill="#39444d"/>
        <path id="Trazado_167030" data-name="Trazado 167030" d="M80.906,42.826q.008,4.222.015,8.442,0,8.725,0,17.45a2.809,2.809,0,0,1-3,3.011q-7.692,0-15.385-.015c-.046-.363.237-.563.417-.8Q70.833,60.45,78.735,50a4.874,4.874,0,0,0,.968-4.51,4.659,4.659,0,0,0-.7-1.316c-.288-.431-.25-.641.244-.8.555-.181,1.011-.672,1.663-.547" transform="translate(-20.226 -13.846)" fill="#39444d"/>
        <path id="Trazado_167031" data-name="Trazado 167031" d="M23.38,70.614Q19.2,65.075,15.027,59.537c-2.661-3.525-5.284-7.081-8-10.561a4.822,4.822,0,0,1-.189-6.03c.235-.284.147-.441-.151-.559l-1.678-.661c0-.647,0-1.294-.02-1.939-.014-.4.1-.472.463-.294A22.025,22.025,0,0,0,11.655,41.5c.818.131,1.637.251,2.526.386a15.708,15.708,0,0,1-3.91,1.459,2.581,2.581,0,0,0-2.215,2,2.812,2.812,0,0,0,.791,2.4q4.564,6.046,9.14,12.084a1.068,1.068,0,0,0,1.509.408c.419.468.592,1.161,1.271,1.393-.647.532-.689.963-.178,1.64q2.674,3.542,5.341,7.089c.046.061.084.127.17.259Z" transform="translate(-1.613 -12.745)" fill="#2f393b"/>
        <path id="Trazado_167032" data-name="Trazado 167032" d="M79.6,41.726c-.516.216-1.024.455-1.551.643-.421.151-.516.269-.2.681a4.51,4.51,0,0,1,.133,5.3c-.38.568-.8,1.11-1.212,1.657q-3.529,4.7-7.064,9.4-4.234,5.61-8.481,11.21H58.495c.687-.927,1.327-1.8,1.979-2.666q2.439-3.235,4.885-6.462,5.19-6.856,10.379-13.712c.6-.791,1.17-1.6.727-2.68a2.781,2.781,0,0,0-1.854-1.637,22.324,22.324,0,0,1-4.22-1.573,31.739,31.739,0,0,0,5.291-1.022,25.166,25.166,0,0,0,3.476-1.37c.369-.175.476-.1.462.3-.022.645-.015,1.292-.02,1.938" transform="translate(-18.921 -12.745)" fill="#2f393b"/>
        <path id="Trazado_167033" data-name="Trazado 167033" d="M31.343,13.966c-1.576.009-2.252-.781-2.047-2.238A7.756,7.756,0,0,1,30.162,9.2a1.372,1.372,0,0,0,0-1.361A8.272,8.272,0,0,1,29.3,5.122,1.614,1.614,0,0,1,31.065,3.06a8.119,8.119,0,0,1,3.527.935,17.075,17.075,0,0,1,2.621,1.569c.268.188.276.3.087.578a3.933,3.933,0,0,0,.006,4.772c.126.185.25.311-.016.5a13.508,13.508,0,0,1-5.383,2.513,4.533,4.533,0,0,1-.565.043" transform="translate(-9.465 -0.989)" fill="#ef484a"/>
        <path id="Trazado_167034" data-name="Trazado 167034" d="M59.241,13.955A9.287,9.287,0,0,1,55.6,12.72a20.85,20.85,0,0,1-2.06-1.292c-.219-.151-.242-.26-.081-.49a3.9,3.9,0,0,0-.011-4.864c-.179-.253-.093-.348.1-.486A13.162,13.162,0,0,1,58.936,3.1c.082-.014.165-.024.248-.031C61,2.9,61.7,3.635,61.442,5.437a7.159,7.159,0,0,1-.769,2.295,1.562,1.562,0,0,0,.016,1.592,6.965,6.965,0,0,1,.791,2.416c.185,1.5-.474,2.248-2.238,2.215" transform="translate(-17.258 -0.984)" fill="#ef484a"/>
        <path id="Trazado_167035" data-name="Trazado 167035" d="M5.009,19.039C5,16.627,4.986,14.214,5,11.8A2.75,2.75,0,0,1,7.636,9.155c1.373-.022,2.745,0,4.118,0,.217.276.027.516-.079.752A32,32,0,0,1,7.2,17c-.526.647-1.133,1.216-1.682,1.839-.128.145-.248.367-.507.2" transform="translate(-1.616 -2.958)" fill="#39444d"/>
        <path id="Trazado_167036" data-name="Trazado 167036" d="M79.678,9.154c1.373,0,2.745-.022,4.117,0A2.758,2.758,0,0,1,86.43,11.8c.015,2.413,0,4.824-.008,7.236-.26.173-.371-.055-.509-.194a33.249,33.249,0,0,1-5.644-7.8c-.235-.44-.392-.917-.614-1.364a.429.429,0,0,1,.022-.524" transform="translate(-25.74 -2.957)" fill="#39444d"/>
        <path id="Trazado_167037" data-name="Trazado 167037" d="M5.016,19.04A10.8,10.8,0,0,0,6.672,17.4a31.066,31.066,0,0,0,3.582-5.061A12.151,12.151,0,0,0,11.76,9.155c.645,0,1.289,0,1.934-.008.349-.005.511.061.343.465a33.764,33.764,0,0,1-4.5,7.721,40.965,40.965,0,0,1-3.994,4.36c-.144.139-.3.27-.528.48Z" transform="translate(-1.623 -2.958)" fill="#2f393b"/>
        <path id="Trazado_167038" data-name="Trazado 167038" d="M78.6,9.156a12.882,12.882,0,0,0,1.5,3.188,34.468,34.468,0,0,0,4.968,6.573.791.791,0,0,0,.273.123v3.021c-.065-.011-.137,0-.172-.032A35.218,35.218,0,0,1,76.406,9.79c-.267-.629-.255-.637.442-.639.584,0,1.168,0,1.752.005" transform="translate(-24.662 -2.96)" fill="#2f393b"/>
        <path id="Trazado_167039" data-name="Trazado 167039" d="M45.661,12.26a9.823,9.823,0,0,1-1.146-.073,2.1,2.1,0,0,1,.229-4.178c.748-.033,1.5-.033,2.248,0A2.117,2.117,0,0,1,48.98,9.98a2.141,2.141,0,0,1-1.726,2.206,12.015,12.015,0,0,1-1.593.073" transform="translate(-13.824 -2.582)" fill="#fc6064"/>
        <path id="Trazado_167040" data-name="Trazado 167040" d="M48.2,41.153A1.622,1.622,0,1,1,46.593,39.5,1.64,1.64,0,0,1,48.2,41.153" transform="translate(-14.542 -12.777)" fill="#010101"/>
        <path id="Trazado_167041" data-name="Trazado 167041" d="M46.574,52.254A1.616,1.616,0,0,1,48.2,53.875a1.621,1.621,0,0,1-3.243.012,1.615,1.615,0,0,1,1.615-1.633" transform="translate(-14.543 -16.902)" fill="#010101"/>
        <path id="Trazado_167042" data-name="Trazado 167042" d="M48.2,28.382a1.621,1.621,0,1,1-3.243-.028,1.621,1.621,0,0,1,3.243.028" transform="translate(-14.543 -8.655)" fill="#010101"/>
      </g>
    </g>
  </g>
</svg>
