<svg xmlns="http://www.w3.org/2000/svg" xmlns:xlink="http://www.w3.org/1999/xlink" width="105" height="105" viewBox="0 0 105 105">
  <defs>
    <clipPath id="clip-path">
      <rect id="Rectángulo_43344" data-name="Rectángulo 43344" width="56.873" height="56.844" fill="none"/>
    </clipPath>
  </defs>
  <g id="Grupo_170751" data-name="Grupo 170751" transform="translate(-1063.326 -839)">
    <path id="Trazado_165117" data-name="Trazado 165117" d="M52.5,0A52.5,52.5,0,1,1,0,52.5,52.5,52.5,0,0,1,52.5,0Z" transform="translate(1063.326 839)" fill="#a6bbff"/>
    <g id="Grupo_170987" data-name="Grupo 170987" transform="translate(1087.326 863)">
      <g id="Grupo_170987-2" data-name="Grupo 170987" transform="translate(0 0)" clip-path="url(#clip-path)">
        <path id="Trazado_167043" data-name="Trazado 167043" d="M28.872,0a6.923,6.923,0,0,1,2.951,1.652,3.519,3.519,0,0,0,3.745.746,9.932,9.932,0,0,1,1.941-.432,3.3,3.3,0,0,1,3.248,1.36,21.526,21.526,0,0,1,1.413,2.247A2.78,2.78,0,0,0,44.35,7c.5.059.985.157,1.48.22,2.408.308,3.488,1.388,3.806,3.792.082.622.2,1.239.3,1.858a2.348,2.348,0,0,0,1.153,1.678c.642.4,1.3.78,1.929,1.194a3.472,3.472,0,0,1,1.751,4.242.5.5,0,0,0,.333.67,3,3,0,0,1,1.746,2.8c.024,1.627-.007,3.254.014,4.881a.97.97,0,0,1-.785,1.1.768.768,0,0,1-.975-.55,2.353,2.353,0,0,1-.091-.823c0-1.369,0-2.738,0-4.108s-.431-1.787-1.8-1.787q-21.511,0-43.021,0c-.3,0-.592.015-.887-.015q-2.8,0-5.6,0c-1.215,0-1.622.324-1.864,1.514a1.075,1.075,0,0,1-.946,1A.853.853,0,0,1,0,23.986v-1.11a3.069,3.069,0,0,1,1.608-2.314.592.592,0,0,0,.3-.695,4.737,4.737,0,0,1-.093-1.594,3.68,3.68,0,0,1,1.39-2.261A16.748,16.748,0,0,1,5.264,14.7a2.931,2.931,0,0,0,1.6-2.255c.082-.64.154-1.285.294-1.917a3.883,3.883,0,0,1,3.766-3.447c.567-.076,1.133-.173,1.7-.256A2.712,2.712,0,0,0,14.59,5.438c.44-.706.822-1.447,1.331-2.11a3.482,3.482,0,0,1,3.522-1.49,15.926,15.926,0,0,1,2.271.505,2.987,2.987,0,0,0,2.949-.614c.446-.359.912-.693,1.383-1.021A3.794,3.794,0,0,1,27.984,0Z" transform="translate(0 0)"/>
        <path id="Trazado_167044" data-name="Trazado 167044" d="M0,52.175a.484.484,0,0,0,.1-.023.894.894,0,0,1,.188.726q.01,2.629,0,5.258a.888.888,0,0,1-.189.725.2.2,0,0,0-.1-.024Z" transform="translate(0 -24.857)" fill="#050505"/>
        <path id="Trazado_167045" data-name="Trazado 167045" d="M17.451,42.007c.147-.007.295-.021.442-.021H61.6c1,0,1.547.337,1.756,1.1a2.567,2.567,0,0,1,.065.656c.005,1.535,0,3.069,0,4.6,0,.726.17.931.887,1.1q0,1.094,0,2.189a1.807,1.807,0,0,0-.734,1.674,1.668,1.668,0,0,1-1.863,1.744c-3.275.01-6.55,0-9.825,0H28.963a6.809,6.809,0,0,1-1-.032,20.767,20.767,0,0,1-4.886-2.276c-.2-.13-.417-.255-.373-.553.064-.206.251-.315.382-.468a2.47,2.47,0,0,0,0-3.377.7.7,0,0,1-.153-.849,2.225,2.225,0,0,0-2.182-3.141,16.5,16.5,0,0,1-1.665.006.8.8,0,0,0-.863.55c-.174.417.087.923-.236,1.313a.518.518,0,0,1-.328-.387,8.986,8.986,0,0,1-.349-3.542.487.487,0,0,1,.14-.294" transform="translate(-8.234 -20.011)" fill="#fdf4e5"/>
        <path id="Trazado_167046" data-name="Trazado 167046" d="M19.636,59.2c.277.008.554.023.83.023,10.875,0,21.75-.018,32.625.021,1.745.006,2.3-.713,2.2-2.189-.05-.726.186-.962.879-1.089A.935.935,0,0,1,56.956,57c.052,1.261-.106,2.509-1.252,3.185a1.41,1.41,0,0,0-.734,1.781A3.115,3.115,0,0,1,53.616,65.1a23.577,23.577,0,0,1-2.3,1.446,2.742,2.742,0,0,0-1.367,2.1c-.084.623-.169,1.246-.289,1.862-.444,2.259-1.405,3.153-3.689,3.465-.531.073-1.059.162-1.591.233a2.69,2.69,0,0,0-2.093,1.376c-.35.608-.714,1.209-1.1,1.795a3.489,3.489,0,0,1-4.257,1.739c-.739-.161-1.476-.334-2.211-.512a2.35,2.35,0,0,0-2,.383c-.648.46-1.285.935-1.933,1.395a3.593,3.593,0,0,1-4.52.009c-.633-.449-1.259-.908-1.888-1.362a2.534,2.534,0,0,0-2.1-.425c-.94.193-1.853.5-2.81.625A3.262,3.262,0,0,1,16.15,77.8c-.5-.708-.952-1.451-1.39-2.2a2.737,2.737,0,0,0-2.139-1.4c-.6-.078-1.21-.161-1.808-.277-2.307-.447-3.2-1.425-3.506-3.776-.079-.6-.2-1.2-.292-1.805a2.393,2.393,0,0,0-1.191-1.718c-.645-.4-1.3-.777-1.932-1.193a3.462,3.462,0,0,1-1.718-4.211.5.5,0,0,0-.323-.676,2.815,2.815,0,0,1-1.661-2.2q0-3.355,0-6.71c.074-.37.382-.449.677-.545a.786.786,0,0,1,.99.609,2.737,2.737,0,0,1,.073.825c0,1.59,0,3.181,0,4.771.006,1.277.468,1.737,1.744,1.738q7.184,0,14.367,0a6.1,6.1,0,0,1,1.59.169" transform="translate(-0.092 -24.341)"/>
        <path id="Trazado_167047" data-name="Trazado 167047" d="M48.152,17.149a17.67,17.67,0,0,1,6.5,2.079A19.58,19.58,0,0,1,63.007,27.7c.092.178.159.37.238.556a.132.132,0,0,1-.106.165,2.782,2.782,0,0,1-.443.012q-13.183,0-26.365,0c-.292,0-.7.114-.558-.446.118-.311.375-.231.608-.21a3.518,3.518,0,0,0,2.409-.6,2.073,2.073,0,0,0,.285-3.36c-.116-.116-.262-.207-.308-.38a.719.719,0,0,1,.592-.553c.176.025.276.178.423.253a.7.7,0,0,0,1.065-.714,7.979,7.979,0,0,1-.158-.815,1.376,1.376,0,0,1,.644-.865,20.548,20.548,0,0,1,5.6-3.328,2.392,2.392,0,0,1,1.224-.259" transform="translate(-17.036 -8.167)" fill="#f8f19c"/>
        <path id="Trazado_167048" data-name="Trazado 167048" d="M42.823,5.608A25.647,25.647,0,0,0,45.475,3.8a2.037,2.037,0,0,1,2.921,0c.531.368,1.049.758,1.566,1.148a4.311,4.311,0,0,0,3.83.746c.806-.2,1.6-.437,2.429-.557a1.679,1.679,0,0,1,1.665.651A8.511,8.511,0,0,1,58.9,7.371a5,5,0,0,0,4.446,2.916,13.183,13.183,0,0,1,1.477.236,1.8,1.8,0,0,1,1.544,1.593c.151.874.287,1.751.448,2.622a3.889,3.889,0,0,0,1.762,2.646c.681.444,1.393.842,2.073,1.285,1.316.858,1.25,1.46.924,2.918-.048.212-.188.239-.371.238-1.406,0-2.813-.014-4.219.007-.365.005-.407-.242-.509-.471a20.666,20.666,0,0,0-7.626-9.1A21.068,21.068,0,0,0,39.353,9.991c-.173.061-.346.119-.52.178.006-.547.468-.815.76-1.167.845-1.022,1.75-1.994,2.671-2.95a6.487,6.487,0,0,1,.559-.445" transform="translate(-18.509 -1.516)" fill="#8fd9a9"/>
        <path id="Trazado_167049" data-name="Trazado 167049" d="M20.252,54.872c-.387.008-.775.023-1.161.023q-7.427,0-14.853,0c-1.336,0-1.862-.534-1.863-1.884q0-2.577,0-5.154c0-.73-.18-.945-.888-1.095q0-1.1,0-2.191a.9.9,0,0,0,.9-.971,1.613,1.613,0,0,1,1.729-1.612c1.936,0,3.872.013,5.808.02a9.917,9.917,0,0,0,.5,4.135c.136-.481-.076-.947.139-1.368.266.227.193.542.195.826.008,1.917,0,3.835.005,5.752,0,.986.146,1.129,1.112,1.134.645,0,1.292-.023,1.935.007.512.024.931-.363,1.446-.272.285.543.863.7,1.336.982a29.267,29.267,0,0,0,3.66,1.666" transform="translate(-0.708 -20.013)" fill="#faeace"/>
        <path id="Trazado_167050" data-name="Trazado 167050" d="M27.59,7.358c-.7.758-1.4,1.511-2.084,2.278A23.882,23.882,0,0,0,23.6,11.92a23.4,23.4,0,0,0-5.647,3.463,21.027,21.027,0,0,0-5.761,7.7.7.7,0,0,1-.778.5c-1.257-.027-2.516-.024-3.773,0-.376.006-.544-.081-.632-.483-.319-1.464-.13-1.986,1.138-2.782.532-.334,1.071-.656,1.614-.973a4.377,4.377,0,0,0,2.181-3.417c.086-.659.213-1.312.313-1.969a1.868,1.868,0,0,1,1.689-1.711c.838-.136,1.676-.275,2.512-.426A3.933,3.933,0,0,0,19.182,10c.476-.748.936-1.506,1.416-2.251a1.73,1.73,0,0,1,2-.833c.575.133,1.159.238,1.727.4a5.385,5.385,0,0,0,3.269.049" transform="translate(-3.276 -3.267)" fill="#5ec682"/>
        <path id="Trazado_167051" data-name="Trazado 167051" d="M28.484,27.637c-.152.431-.005.548.449.547q13.155-.02,26.309-.013c.195,0,.413.07.571-.12.084.068.126.169.01.209a1.222,1.222,0,0,1-.385.015l-34.866,0H20.15a9.974,9.974,0,0,1,1-1.954,19.563,19.563,0,0,1,14.993-9.489,15.067,15.067,0,0,1,4.582.117,19.443,19.443,0,0,0-6.777,3.728c-.232.189-.522.366-.578.713-.251.048-.294-.183-.4-.315a2.13,2.13,0,0,0-2.269-.81,2.07,2.07,0,0,0-1.652,1.677,2.733,2.733,0,0,1-.187.693c-.428.337-.989.368-1.45.662a2.136,2.136,0,0,0,.011,3.77,5.041,5.041,0,0,1,1.062.573" transform="translate(-9.604 -7.964)" fill="#f8f19c"/>
        <path id="Trazado_167052" data-name="Trazado 167052" d="M67.445,51.215c0-1.351,0-2.588,0-3.824a2.043,2.043,0,0,1,.035-.55.77.77,0,0,1,.86-.621.728.728,0,0,1,.752.737q.067,3.355.084,6.711a.884.884,0,0,1-.663.919.92.92,0,0,1-1.085-.456q-1.462-2.114-2.923-4.234c-.2.11-.114.275-.115.4-.007,1.128,0,2.256-.007,3.383-.006.666-.307,1.015-.839,1.014s-.82-.338-.822-1.02c-.005-2.145,0-4.289,0-6.434,0-.442.1-.827.556-.977a.885.885,0,0,1,1.071.462c1,1.476,2.028,2.939,3.1,4.486" transform="translate(-29.894 -22.028)"/>
        <path id="Trazado_167053" data-name="Trazado 167053" d="M23.507,54.228a3.7,3.7,0,0,1-2.232.462c-.5-.017-1,.01-1.5,0-.679-.013-.98-.3-.981-.985,0-2.308.01-4.617.017-6.925a.906.906,0,0,1,.964-.586c.609.015,1.219-.008,1.828.008A2.386,2.386,0,0,1,23.8,49.594c-.08.186-.173.3.016.522a2.651,2.651,0,0,1-.307,4.112" transform="translate(-8.959 -22.017)"/>
        <path id="Trazado_167054" data-name="Trazado 167054" d="M34.593,51.856c0,.743.009,1.327,0,1.912s-.306.91-.808.917a.81.81,0,0,1-.848-.89q-.02-3.354,0-6.708a.808.808,0,0,1,.909-.886c.646-.013,1.294-.019,1.94.009a2.637,2.637,0,0,1,2.456,2.04,2.518,2.518,0,0,1-1.45,2.873c-.368.172-.431.268-.128.578.478.487.918,1.013,1.359,1.535A.819.819,0,0,1,38,54.5c-.409.341-.826.282-1.25-.194-.686-.771-1.364-1.549-2.159-2.453" transform="translate(-15.693 -22.016)"/>
        <path id="Trazado_167055" data-name="Trazado 167055" d="M77.927,50.681c0-1.016-.007-2.032,0-3.049.007-.774.3-1.063,1.083-1.077.5-.008,1-.013,1.5,0a3.39,3.39,0,0,1,3.51,2.9,5.052,5.052,0,0,1-.305,3.354,3.269,3.269,0,0,1-3.149,2.037c-.517,0-1.034.013-1.552.012-.754,0-1.073-.308-1.083-1.076-.013-1.035,0-2.069,0-3.1" transform="translate(-37.14 -22.186)"/>
        <path id="Trazado_167056" data-name="Trazado 167056" d="M53.261,53.82a.786.786,0,0,1-.577.842.735.735,0,0,1-.916-.319,2.8,2.8,0,0,1-.192-.4c-.366-.923-.365-.923-1.332-.923a4.845,4.845,0,0,1-.775-.006,1.235,1.235,0,0,0-1.646,1.068.777.777,0,0,1-1.08.571.852.852,0,0,1-.432-1.2c.622-1.654,1.257-3.3,1.886-4.957.2-.534.4-1.07.607-1.6a.939.939,0,0,1,.909-.683.954.954,0,0,1,.975.67q1.254,3.306,2.5,6.615a2.034,2.034,0,0,1,.074.322" transform="translate(-22.032 -22.026)"/>
        <path id="Trazado_167057" data-name="Trazado 167057" d="M63.234,70.056a18.143,18.143,0,0,1-4.364,6.012,19.715,19.715,0,0,1-10.18,5.048,5.5,5.5,0,0,1-.551.045,3.843,3.843,0,0,1-1.83-.521,16.7,16.7,0,0,1-3.38-1.868c-.175-.127-.587-.232-.258-.607a2.35,2.35,0,0,1,.821-.07q3.231,0,6.462,0c.2,0,.405.007.607-.011.372-.033.7-.148.782-.565s-.158-.655-.526-.79a1.735,1.735,0,0,0-.765-.087c-3.011,0-6.023-.014-9.035.009a1.678,1.678,0,0,1-1.447-.646c-.389-.493-.856-.922-1.216-1.438-.3-.433-.207-.632.312-.674.2-.017.406-.007.609-.007q7.538,0,15.077,0a1.52,1.52,0,0,0,.812-.113.646.646,0,0,0,.416-.757c-.08-.339-.354-.451-.654-.518a4.491,4.491,0,0,0-.995-.059q-8.044,0-16.088,0a1.869,1.869,0,0,1-.978-.128,6.964,6.964,0,0,1-1.094-1.98c-.122-.275-.032-.473.321-.45.111.007.222,0,.333,0q13.1,0,26.2.009c.2,0,.489-.187.6.167" transform="translate(-17.026 -33.288)" fill="#f8f19c"/>
        <path id="Trazado_167058" data-name="Trazado 167058" d="M45.308,82.558a22.247,22.247,0,0,0,4.9.469c8.935-.386,15.333-4.643,19.232-12.668a.792.792,0,0,1,.858-.546c1.258.029,2.516.02,3.775,0,.33,0,.477.073.558.428.346,1.513.147,2.043-1.172,2.869a9.856,9.856,0,0,1-.953.566,4.955,4.955,0,0,0-2.9,4.452c-.033.458-.145.911-.22,1.367a1.822,1.822,0,0,1-1.627,1.639c-.856.144-1.713.284-2.567.438A3.926,3.926,0,0,0,62.471,83.4c-.416.655-.8,1.33-1.223,1.981a1.949,1.949,0,0,1-2.525,1.044c-.469-.1-.94-.2-1.4-.345a4.632,4.632,0,0,0-4.374.611.919.919,0,0,1-.842-.111,59.051,59.051,0,0,1-6.372-3.428,1.824,1.824,0,0,1-.52-.406c-.062-.085-.123-.213.089-.193" transform="translate(-21.525 -33.274)" fill="#8fd9a9"/>
        <path id="Trazado_167059" data-name="Trazado 167059" d="M27.053,82.56c.071.344.405.409.637.559a58.04,58.04,0,0,0,6.171,3.318,2.044,2.044,0,0,0,.836.261c-.562.418-1.124.834-1.684,1.255a2.016,2.016,0,0,1-2.649-.012c-.445-.331-.909-.639-1.337-.989a4.618,4.618,0,0,0-4.466-.931,17.362,17.362,0,0,1-2.1.488,1.653,1.653,0,0,1-1.744-.7,11.491,11.491,0,0,1-.98-1.542,5.011,5.011,0,0,0-4.505-2.912,12.589,12.589,0,0,1-1.366-.224,1.8,1.8,0,0,1-1.586-1.553c-.163-.89-.291-1.786-.458-2.675a3.876,3.876,0,0,0-1.764-2.643c-.683-.44-1.391-.842-2.073-1.285-1.333-.868-1.24-1.5-.919-2.917.048-.211.194-.237.375-.237,1.406,0,2.812.013,4.217-.006.364-.005.407.247.508.476a21.11,21.11,0,0,0,5.807,7.738,20.74,20.74,0,0,0,8.938,4.454.622.622,0,0,1,.144.075" transform="translate(-3.27 -33.277)" fill="#5ec682"/>
        <path id="Trazado_167060" data-name="Trazado 167060" d="M55.8,70.007c-.159-.19-.377-.12-.572-.12q-13.155,0-26.311,0c-.609,0-.61,0-.333.564q.441.89.887,1.779c-.211.194-.485.148-.736.187-.622.1-.876.321-.825.758.064.547.491.527.879.53,1.256.01,2.512,0,3.768,0q7.148,0,14.3,0c.319,0,.674-.094.934.2-.2.149-.429.08-.644.081Q39.268,74,31.4,74c-.176,0-.424-.1-.517.072-.109.2.152.3.259.43.346.429.709.845,1.055,1.274a1.692,1.692,0,0,0,1.469.673c3.066-.039,6.133-.019,9.2-.015.2,0,.409-.063.587.083-.228.266-.542.195-.827.2-3.063.007-6.127,0-9.19,0a5.584,5.584,0,0,0-.719.022.586.586,0,0,0-.595.6.613.613,0,0,0,.56.649,10.2,10.2,0,0,0,1.491.049c.323.016.671-.081.952.173a6.9,6.9,0,0,0,1.888,1.309,16.286,16.286,0,0,0,3.69,1.588,13.658,13.658,0,0,1-4.03.175,19.633,19.633,0,0,1-14.756-8.341,15.733,15.733,0,0,1-1.8-3.16h.552q17.349,0,34.7.008c.132,0,.477-.227.43.212" transform="translate(-9.588 -33.239)" fill="#f4e972"/>
        <path id="Trazado_167061" data-name="Trazado 167061" d="M33.944,33.021A2.61,2.61,0,0,1,31.6,30.486a2.519,2.519,0,0,1,1.843-2.252c.278-.1.569-.152.855-.226.1-.013.166.054.236.114.461.391.665.405,1.156.072a.548.548,0,0,1,.241-.122,1.15,1.15,0,0,1,.9.494,2.247,2.247,0,0,1,.286,3.747,3.578,3.578,0,0,1-3.174.71" transform="translate(-15.064 -13.348)" fill="#f8f19c"/>
        <path id="Trazado_167062" data-name="Trazado 167062" d="M68.513,28a9.777,9.777,0,0,1,1.252.409A2.327,2.327,0,0,1,71.2,30.306a2.2,2.2,0,0,1-1.143,2.228,3.637,3.637,0,0,1-3.932.072,2.264,2.264,0,0,1-.013-4.1c.248-.153.519-.269.779-.4.124-.02.2.071.284.131a.739.739,0,0,0,1.067-.084c.073-.077.144-.165.271-.151" transform="translate(-30.895 -13.347)" fill="#f8f19c"/>
        <path id="Trazado_167063" data-name="Trazado 167063" d="M67.576,25.66c-.488.775-1.052.811-1.621.1a3.64,3.64,0,0,0-.07-.492.688.688,0,0,0-1.332-.008c-.021.07-.029.144-.044.217-.115.566-.452.834-.954.759a.859.859,0,0,1-.692-1.028,2.367,2.367,0,0,1,4.719.116c.007.11,0,.221-.006.332" transform="translate(-29.959 -11.003)" fill="#f8f19c"/>
        <path id="Trazado_167064" data-name="Trazado 167064" d="M38.378,25.754c-.574.7-1.128.662-1.618-.108a2.374,2.374,0,0,1,1.687-2.488,2.424,2.424,0,0,1,2.836,1.252q.075.293.148.585a.894.894,0,0,1-.453,1.17.857.857,0,0,1-1.126-.418c-.136-.094-.141-.251-.184-.389a.561.561,0,0,0-1.1.013c-.043.137-.043.3-.189.384" transform="translate(-17.521 -10.986)" fill="#f8f19c"/>
        <path id="Trazado_167065" data-name="Trazado 167065" d="M52.036,31.8a2.88,2.88,0,0,1-2.092-.907.833.833,0,1,1,1.121-1.227,1.321,1.321,0,0,0,2.053-.011.831.831,0,1,1,1.136,1.212,2.936,2.936,0,0,1-2.217.934" transform="translate(-23.656 -14.02)" fill="#f8f19c"/>
        <path id="Trazado_167066" data-name="Trazado 167066" d="M39.852,27.29a3.718,3.718,0,0,1,.051-.434.7.7,0,0,1,1.374-.007,3.22,3.22,0,0,1,.049.433l-.562.456-.912-.449" transform="translate(-18.995 -12.522)" fill="#f8f19c"/>
        <path id="Trazado_167067" data-name="Trazado 167067" d="M21.992,55.438a4.217,4.217,0,0,1,1.674-.039.993.993,0,0,1-.121,1.962,6.17,6.17,0,0,1-1.531-.038,7.424,7.424,0,0,1-.022-1.885" transform="translate(-10.459 -26.374)" fill="#fcf3e5"/>
        <path id="Trazado_167068" data-name="Trazado 167068" d="M22.612,50.853c-.176-.05-.554.135-.6-.092a5.129,5.129,0,0,1,0-1.31c0-.027.159-.063.244-.065.294-.007.589-.011.883,0a.683.683,0,0,1,.714.747.692.692,0,0,1-.7.714c-.164.015-.331,0-.544,0" transform="translate(-10.469 -23.536)" fill="#fdf4e5"/>
        <path id="Trazado_167069" data-name="Trazado 167069" d="M21.986,55.533l.022,1.885a6.668,6.668,0,0,1-.022-1.885" transform="translate(-10.453 -26.469)" fill="#e9dac0"/>
        <path id="Trazado_167070" data-name="Trazado 167070" d="M36.678,49.321a5.925,5.925,0,0,1,.63.039.913.913,0,0,1,.821.837.891.891,0,0,1-.674.953,3.5,3.5,0,0,1-1.092.082c-.244.012-.257-.144-.255-.324a6.59,6.59,0,0,0-.008-.881c-.072-.569.1-.853.579-.707" transform="translate(-17.199 -23.49)" fill="#faf2e3"/>
        <path id="Trazado_167071" data-name="Trazado 167071" d="M81.963,54.7c-.841.014-.841.014-.843-.739,0-1.256.007-2.512-.019-3.767-.008-.371.105-.465.466-.466,1.3,0,1.847.269,2.205,1.167a3.377,3.377,0,0,1-.494,3.384,1.659,1.659,0,0,1-1.317.421" transform="translate(-38.655 -23.7)" fill="#fdf4e5"/>
        <path id="Trazado_167072" data-name="Trazado 167072" d="M53.03,53.973H51.336c.274-.724.538-1.424.843-2.23l.85,2.23" transform="translate(-24.468 -24.662)" fill="#faf1e3"/>
        <path id="Trazado_167073" data-name="Trazado 167073" d="M54.633,76.185q-9.549.006-19.1.012c-.675,0-1.034-.285-1.047-.8-.014-.538.36-.842,1.057-.863.257-.008.515-.023.772-.035.22.012.441.035.66.035q8.421,0,16.842,0c.148,0,.3,0,.443,0,.463.008.848.148.955.658a.816.816,0,0,1-.585.993" transform="translate(-16.438 -35.508)" fill="#010100"/>
        <path id="Trazado_167074" data-name="Trazado 167074" d="M45.847,84.394c-.74-.008-1.479-.012-2.218-.024-.658-.011-1.016-.311-1.017-.841s.344-.821,1.016-.822L54.174,82.7a.808.808,0,0,1,.675.98c-.092.535-.49.693-.98.693q-3.708,0-7.415,0c-.2,0-.4.015-.607.023" transform="translate(-20.311 -39.416)"/>
      </g>
    </g>
  </g>
</svg>
