<svg xmlns="http://www.w3.org/2000/svg" xmlns:xlink="http://www.w3.org/1999/xlink" width="105" height="105" viewBox="0 0 105 105">
  <defs>
    <clipPath id="clip-path">
      <rect id="Rectángulo_43345" data-name="Rectángulo 43345" width="75.904" height="78.15" fill="none"/>
    </clipPath>
  </defs>
  <g id="Grupo_170746" data-name="Grupo 170746" transform="translate(-433.326 -839)">
    <path id="Trazado_160852" data-name="Trazado 160852" d="M52.5,0A52.5,52.5,0,1,1,0,52.5,52.5,52.5,0,0,1,52.5,0Z" transform="translate(433.326 839)" fill="#a6bbff"/>
    <g id="Grupo_170988" data-name="Grupo 170988" transform="translate(448.326 852)">
      <g id="Grupo_170988-2" data-name="Grupo 170988" clip-path="url(#clip-path)">
        <path id="Trazado_167075" data-name="Trazado 167075" d="M75.137.055a24.008,24.008,0,0,1,2.425.018C78.4.159,79.008,1.205,79.6,1.187c.7-.022,1.443-.575,2.287-.5A5.646,5.646,0,0,1,87.2,6.322a10.949,10.949,0,0,1-.257,4.109c-.067.177-.067.512.042.6.832.678.891,1.8,1.554,2.576a4.261,4.261,0,0,1,.516,4.828,5.406,5.406,0,0,0-.765,1.618,3.093,3.093,0,0,0,.945,2.924,4.359,4.359,0,0,1,1.593,2.872,2.974,2.974,0,0,1-1.745,3.128.786.786,0,0,0-.514.668,1.193,1.193,0,0,1-1.358,1.116c-.481-.043-.492.2-.481.551.078,2.663.145,5.327.218,7.991.021.757.1,1.517.063,2.271a16.669,16.669,0,0,0,1.2,7.114,8,8,0,0,1,.192,3.567A1.576,1.576,0,0,1,86.726,53.6c-.515.008-.675.214-.747.651-.085.514-.228,1.02-.3,1.536-.082.612-.415.828-1.008.84-1.4.026-1.4.042-1.578,1.416-.375,2.951-.893,5.879-1.44,8.8-.258,1.379.281,2.676.424,4.014a8.012,8.012,0,0,0,.215.911,1.973,1.973,0,0,1-1.99,2.593c-.677,0-.633.254-.476.728.657,1.978-.136,3.054-2.239,3.056-.941,0-1.882.02-2.822-.007a2.008,2.008,0,0,1-1.926-2.595c.277-1.246.514-2.5.689-3.768a11.252,11.252,0,0,0-.49-3.628c-.655-3.464-1.055-6.963-1.522-10.452-.106-.793-.288-1.257-1.209-1.089-.568.1-.876-.247-.962-.788-.461-2.907-1.374-5.734-1.51-8.7a7.566,7.566,0,0,0-.693-2.4,4.749,4.749,0,0,1,.2-4.293,1.089,1.089,0,0,0-.234-1.5c-1.393-1.449-2.733-2.951-4.077-4.447a2.776,2.776,0,0,1,.025-4.011c.173-.2.343-.394.517-.589.313-.35.753-.651.91-1.06.173-.451-.467-.656-.626-1.064a3.91,3.91,0,0,1,.645-4.041,8.948,8.948,0,0,1,.646-.683,2.971,2.971,0,0,0,.52-4.042,4.544,4.544,0,0,1,.757-5.962,2.613,2.613,0,0,0,.855-2.7,13.566,13.566,0,0,1,.079-5.068A6.554,6.554,0,0,1,73.8,0c.444-.007.888,0,1.333,0V.055" transform="translate(-38.89 0)" fill="#1d1d1b"/>
        <path id="Trazado_167076" data-name="Trazado 167076" d="M0,92.328c0-2.246,0-4.492,0-6.738a1.984,1.984,0,0,1,1.657-2.217c.408-.114.375-.341.384-.629.043-1.28.368-1.592,1.663-1.6.862,0,1.724-.012,2.586,0,.964.017,1.394.429,1.379,1.393-.008.519.09.769.666.894a1.9,1.9,0,0,1,1.382,1.88,20.1,20.1,0,0,1-.007,2.114c-.048.625.1.923.791.827a7.09,7.09,0,0,1,1.252-.006,1.692,1.692,0,0,0,1.6-.541,1.528,1.528,0,0,1,1.235-.387c1.619,0,3.239-.012,4.857.007a1.752,1.752,0,0,1,1.919,1.889q.03,2.9,0,5.8a1.7,1.7,0,0,1-1.9,1.885c-1.645.017-3.291,0-4.936.006a1.46,1.46,0,0,1-1.228-.4c-.466-.609-1.061-.552-1.685-.5-.182.015-.363.042-.545.047-1.349.039-1.349.038-1.349,1.428,0,.548.011,1.1,0,1.645a2,2,0,0,1-1.99,2.092q-2.857.078-5.719,0A2.011,2.011,0,0,1,.008,99.065c-.014-2.246,0-4.492,0-6.737" transform="translate(0 -50.744)" fill="#1d1d1b"/>
        <path id="Trazado_167077" data-name="Trazado 167077" d="M166.914,24.749c0,2.195,0,4.389,0,6.583a2.09,2.09,0,0,1-2.29,2.363q-2.586.036-5.172,0a2.064,2.064,0,0,1-2.259-2.31c0-.731-.031-1.464.009-2.194.029-.527-.106-.768-.68-.714a10.455,10.455,0,0,1-1.33-.021,1.645,1.645,0,0,0-1.6.535,1.374,1.374,0,0,1-1.15.391c-1.7-.007-3.4.012-5.094-.009a1.668,1.668,0,0,1-1.791-1.758q-.042-3.016,0-6.034a1.686,1.686,0,0,1,1.786-1.769c1.7-.023,3.4,0,5.094-.008a1.27,1.27,0,0,1,1.023.3c.622.817,1.466.621,2.277.614,1.459-.013,1.458-.017,1.459-1.479,0-.47-.01-.941,0-1.41a1.945,1.945,0,0,1,1.485-1.963c.428-.118.571-.279.566-.734-.012-1.157.4-1.539,1.559-1.554.862-.011,1.725-.016,2.586,0,1.049.022,1.475.442,1.472,1.492,0,.448.087.675.579.8a1.932,1.932,0,0,1,1.469,2.053c.011,2.272,0,4.545,0,6.818" transform="translate(-91.012 -8.487)" fill="#1d1d1b"/>
        <path id="Trazado_167078" data-name="Trazado 167078" d="M41.315,20.081c0,.19-.131.273-.263.361a8.385,8.385,0,0,0-2.974,3.249c-.269.54-.578.443-.832-.038a8.286,8.286,0,0,0-2.921-3.193c-.394-.25-.358-.5-.031-.72a8.148,8.148,0,0,0,3.024-3.4c.182-.394.471-.274.665,0,.238.341.4.732.642,1.071a7.114,7.114,0,0,0,2.164,2.114,1.056,1.056,0,0,1,.526.551" transform="translate(-21.287 -10.062)" fill="#fee992"/>
        <path id="Trazado_167079" data-name="Trazado 167079" d="M154.784,101.5a.834.834,0,0,1-.415.449,8.151,8.151,0,0,0-2.77,3.024c-.317.6-.585.589-.913-.012a7.905,7.905,0,0,0-2.771-3.02c-.578-.359-.471-.636.043-.959a7.836,7.836,0,0,0,2.716-2.968c.335-.613.589-.64.913-.055a8.3,8.3,0,0,0,2.895,3.115.526.526,0,0,1,.3.427" transform="translate(-92.26 -60.999)" fill="#fee991"/>
        <path id="Trazado_167080" data-name="Trazado 167080" d="M133.763,175.477c.27-.005.336.232.426.4a6.386,6.386,0,0,0,1.988,2.16c.332.236.5.451.029.752a5.806,5.806,0,0,0-2.068,2.283c-.257.505-.523.446-.751-.026a6,6,0,0,0-2.018-2.23c-.34-.245-.46-.49-.017-.772a5.7,5.7,0,0,0,2.069-2.284.428.428,0,0,1,.343-.284" transform="translate(-81.965 -109.74)" fill="#fee992"/>
        <path id="Trazado_167081" data-name="Trazado 167081" d="M62.847,144.419c-.028.173-.16.253-.292.342a6.126,6.126,0,0,0-2.074,2.286c-.279.537-.5.4-.736-.038a5.8,5.8,0,0,0-2.02-2.231c-.388-.242-.473-.466-.04-.746a5.79,5.79,0,0,0,2.072-2.288c.208-.413.481-.493.717-.029a6.1,6.1,0,0,0,2.124,2.347c.255.169.26.23.249.358" transform="translate(-35.894 -88.428)" fill="#fee992"/>
        <path id="Trazado_167082" data-name="Trazado 167082" d="M22.645,73.561c-.129.45-.237.908-.394,1.347a.462.462,0,1,1-.889-.241,12.947,12.947,0,0,1,.375-1.353A.44.44,0,0,1,22.291,73c.269.078.346.294.354.565" transform="translate(-13.348 -45.637)" fill="#6edddd"/>
        <path id="Trazado_167083" data-name="Trazado 167083" d="M28.615,87.988c.263.074.747.186,1.211.35a.425.425,0,0,1,.233.59.411.411,0,0,1-.5.285,14.464,14.464,0,0,1-1.431-.384.41.41,0,0,1-.293-.555c.092-.274.3-.341.777-.287" transform="translate(-17.391 -55.015)" fill="#70dddd"/>
        <path id="Trazado_167084" data-name="Trazado 167084" d="M169.243,21.646c-.262-.032-.453-.108-.512-.341a.423.423,0,0,1,.282-.56c.466-.147.942-.266,1.415-.39a.423.423,0,0,1,.544.311.427.427,0,0,1-.285.56c-.486.167-.987.291-1.443.421" transform="translate(-105.508 -12.717)" fill="#71dede"/>
        <path id="Trazado_167085" data-name="Trazado 167085" d="M29.2,79.217a.554.554,0,0,1-.291.561c-.356.212-.717.415-1.074.625a.418.418,0,0,1-.618-.084.458.458,0,0,1,.121-.685,10.616,10.616,0,0,1,1.27-.745c.336-.161.532.041.592.328" transform="translate(-16.957 -49.3)" fill="#6edddd"/>
        <path id="Trazado_167086" data-name="Trazado 167086" d="M179.125,7.12a.544.544,0,0,1-.3.65.392.392,0,0,1-.556-.271,11.41,11.41,0,0,1-.379-1.423.416.416,0,0,1,.325-.536.432.432,0,0,1,.547.317c.145.442.26.894.365,1.264" transform="translate(-111.24 -3.455)" fill="#6edddd"/>
        <path id="Trazado_167087" data-name="Trazado 167087" d="M171.991,12.481c-.022.509-.338.572-.654.439a8.949,8.949,0,0,1-1.221-.684.457.457,0,0,1-.154-.621.349.349,0,0,1,.448-.219,5.308,5.308,0,0,1,1.48.846c.069.055.079.184.1.239" transform="translate(-106.255 -7.113)" fill="#6ddddd"/>
        <path id="Trazado_167088" data-name="Trazado 167088" d="M89.072,101.177q-3.134,0-6.268,0c-.341,0-.686.055-.777-.426C81.6,98.5,81,96.267,80.772,94a15.191,15.191,0,0,1,2.955-10.446,1.807,1.807,0,0,0,.215-1.876c-.785-2.124-1.5-4.274-2.237-6.417a7.663,7.663,0,0,1-.33-1.2c-.136-.8-.023-.892.782-.732,4.421.877,8.839,1.765,13.266,2.611.651.125.738.335.52.919-.617,1.656-1.155,3.341-1.782,4.993a1.479,1.479,0,0,0,.2,1.572,16.513,16.513,0,0,1,3.127,8.536,20.622,20.622,0,0,1-.646,5.252c-.185,1.05-.421,2.091-.6,3.143-.1.59-.283.872-.988.85-2.062-.064-4.126-.023-6.189-.023" transform="translate(-50.467 -45.814)" fill="#f8a6a6"/>
        <path id="Trazado_167089" data-name="Trazado 167089" d="M95.182,28.141c-.672-.138-.793.3-.973.816a6.631,6.631,0,0,1-5.85,4.8,6.8,6.8,0,0,1-7.018-3.693,2.984,2.984,0,0,1-.363-.861,1.276,1.276,0,0,0-1.618-1.234c-.226-.36-.427-.748-.926-.786-.527-1.319.045-2.17,1.381-2.544a9.951,9.951,0,0,1,3.217-.272c3.018.141,5.342-.918,6.749-3.755a6.086,6.086,0,0,0,4.413,2.871c.182.025.371.082.358.329-.031.644.314.832.91.893a1.647,1.647,0,0,1,.792,2.945c-.628-.363-.628-.363-1.072.488" transform="translate(-48.93 -12.892)" fill="#f8cece"/>
        <path id="Trazado_167090" data-name="Trazado 167090" d="M82.033,12.352c-.861,0-1.722-.017-2.582.007-.444.012-.733-.149-.742-.594a13.614,13.614,0,0,1,.486-5.088,5.283,5.283,0,0,1,4.727-3.263c1.07,0,2.139-.009,3.208,0a1.9,1.9,0,0,1,2.058,2.1,11.228,11.228,0,0,1-.226,3.564,5,5,0,0,1-4.5,3.267c-.808.011-1.617,0-2.426,0" transform="translate(-49.207 -2.133)" fill="#4671c5"/>
        <path id="Trazado_167091" data-name="Trazado 167091" d="M95.3,157.248c.1,2.2-.117,4.881-.182,7.569A26.22,26.22,0,0,1,95.158,168c-.079.541-.228.752-.813.747-1.769-.018-1.855.015-2-1.764-.408-5.124-1.646-10.129-2.139-15.239-.042-.436-.037-.607.459-.6q2.037.04,4.075,0c.46-.009.568.155.563.586-.021,1.672-.009,3.343-.009,5.511" transform="translate(-56.405 -94.527)" fill="#f8cece"/>
        <path id="Trazado_167092" data-name="Trazado 167092" d="M70.34,70.943a14.275,14.275,0,0,0,.991,4.156c.164.4-.05.566-.286.786-1.7,1.586-1.7,1.587-.38,3.481.566.814,1.125,1.634,1.689,2.45.149.216.3.4.108.7A17.287,17.287,0,0,0,70.285,87.9a2.138,2.138,0,0,1,.1-2.1c.954-2.307,1.033-1.9-.724-3.844-1.172-1.3-2.364-2.578-3.542-3.872a1.537,1.537,0,0,1-.249-2.123c1.462-1.7,2.978-3.343,4.473-5.011" transform="translate(-40.988 -44.366)" fill="#f8cece"/>
        <path id="Trazado_167093" data-name="Trazado 167093" d="M73.709,40.558a.424.424,0,0,1,.384.339,8.183,8.183,0,0,0,3.84,4.526c.35.2.341.5.29.814-.063.382-.39.27-.63.277-.5.014-.992,0-1.487.006a3.3,3.3,0,0,0-2.268.89c-.514.487-.914,1.044-1.741,1.124a.926.926,0,0,0-.755,1.114c.108,1.019-.752,1.474-1.287,2.094-.25.29-.5-.027-.639-.3a2.541,2.541,0,0,1,.573-2.858A5.854,5.854,0,0,0,71.5,46.619a4.441,4.441,0,0,0-.5-4.3A3.022,3.022,0,0,1,70.86,39.2c.2-.445.468-.751.813-.051a2.6,2.6,0,0,0,.92.94c.228.187.173.459.214.7.037.223.045.495.348.507.257.01.292-.238.359-.426a.556.556,0,0,1,.2-.314" transform="translate(-43.271 -24.224)" fill="#4670c5"/>
        <path id="Trazado_167094" data-name="Trazado 167094" d="M117.78,39.742l.056,1.177a1.674,1.674,0,0,0,1.174-.75c.1-.143.156-.362.386-.327.263.039.278.284.326.48a3.036,3.036,0,0,1-.15,2.2,6.155,6.155,0,0,0-1.012,3.152,4.123,4.123,0,0,0,1.3,2.983,3.118,3.118,0,0,1,1.249,2.566,1.882,1.882,0,0,1-.364,1,.864.864,0,0,1-.783.428c-.223-.04-.231-.416-.284-.663-.11-.507-.208-1.016-.332-1.52a1.7,1.7,0,0,0-1.055-1.35,1.392,1.392,0,0,1-.673-.52,3.462,3.462,0,0,0-3.029-1.447c-.418,0-.835,0-1.253,0-.29,0-.6.022-.687-.356-.076-.336.131-.535.379-.706A13.321,13.321,0,0,0,114.551,45a9.278,9.278,0,0,0,2.157-3.036c.566.053.721-.225.745-.763.021-.49-.278-1.088.327-1.457" transform="translate(-70.439 -24.854)" fill="#4570c5"/>
        <path id="Trazado_167095" data-name="Trazado 167095" d="M97.863,69.421c-.01,2.142-.013,2.156-2.1,1.752q-6.485-1.251-12.965-2.531c-.241-.047-.573-.043-.558-.415.018-.463.4-.327.653-.327,4.7-.006,9.4.014,14.1-.024.749-.006.973.231.875.919a4.528,4.528,0,0,0,0,.626" transform="translate(-51.429 -42.448)" fill="#dfeafb"/>
        <path id="Trazado_167096" data-name="Trazado 167096" d="M116.071,10.582v.938c0,1.188-.006,1.194-1.154,1.107a4.763,4.763,0,0,1-4.355-3.339,10.7,10.7,0,0,1-.094-3.493c.026-.527.577-.7,1.08-.689a4.423,4.423,0,0,1,4.524,4.3c0,.391,0,.782,0,1.173" transform="translate(-69.023 -3.193)" fill="#4670c5"/>
        <path id="Trazado_167097" data-name="Trazado 167097" d="M106.715,163.366c.283-3.654.123-7.283.16-10.909.014-1.33,0-1.331,1.371-1.33.391,0,.783.013,1.174,0,.352-.015.429.112.384.463-.418,3.256-.961,6.491-1.578,9.715-.19,1-.007,2.021-.234,3.027-.119.527-.339.653-.838.642-.577-.012-.435-.38-.439-.7s0-.626,0-.908" transform="translate(-66.73 -94.51)" fill="#f8cece"/>
        <path id="Trazado_167098" data-name="Trazado 167098" d="M83.938,60.823a2.186,2.186,0,0,1,1.569-.565c.784,0,1.567-.015,2.351,0,.631.015.943-.263.879-.893-.062-.613.132-.758.751-.61a7.066,7.066,0,0,0,3.33-.01c.476-.115.7-.038.65.492-.069.8.351,1.028,1.1,1.033a9.492,9.492,0,0,1,2.949.14,1.478,1.478,0,0,1,.672.41Z" transform="translate(-52.493 -36.711)" fill="#f8cece"/>
        <path id="Trazado_167099" data-name="Trazado 167099" d="M121.446,85.849c.349,2.526.206,5.029.307,7.558-.587-1.007-1.194-2-1.834-2.971-.049-.074.02-.242.06-.357q.729-2.116,1.467-4.229" transform="translate(-74.985 -53.688)" fill="#f6cdce"/>
        <path id="Trazado_167100" data-name="Trazado 167100" d="M96.188,202.85c-.548,0-1.1.019-1.645-.005s-.781-.356-.742-.89c.01-.136.069-.3.2-.3,1.106.023,2.193-.41,3.31-.143a1.138,1.138,0,0,0,.614.058c.466-.187.638.046.683.427a.666.666,0,0,1-.624.83c-.6.045-1.2.011-1.8.011v.009" transform="translate(-58.659 -125.969)" fill="#f6a6a7"/>
        <path id="Trazado_167101" data-name="Trazado 167101" d="M79.386,40.056a1.943,1.943,0,0,0-.025.232c0,.412-.049.86-.569.832-.45-.024-.5-.45-.5-.835,0-.233-.018-.466-.028-.7.089-.52-.068-1.069.183-1.57.7-.2.853-.073.926.786q0,.627.008,1.254" transform="translate(-48.948 -23.722)" fill="#dbe6f9"/>
        <path id="Trazado_167102" data-name="Trazado 167102" d="M124.554,38.529a6.175,6.175,0,0,0-.091,1.767c-.02.283.014.588-.313.731s-.464-.139-.668-.278q-.008-.93-.016-1.859c0-.077.013-.154.009-.23-.023-.391.063-.747.488-.844.448-.1.388.382.575.586a.535.535,0,0,0,.016.127" transform="translate(-77.213 -23.641)" fill="#dee9fb"/>
        <path id="Trazado_167103" data-name="Trazado 167103" d="M82.264,90.58c-.6-.875-1.21-1.746-1.806-2.625-.4-.583.22-.752.487-.928.426-.28.335.248.4.417.382,1.01.728,2.034,1.086,3.054l-.166.082" transform="translate(-50.236 -54.375)" fill="#f9fafd"/>
        <path id="Trazado_167104" data-name="Trazado 167104" d="M108.248,192.881c-.786-.006-1.182-.475-1.1-1.1.018-.14.043-.26.207-.277.6-.063,1.13.368,1.751.215.083-.021.109.316.1.5a.619.619,0,0,1-.427.6,2.059,2.059,0,0,1-.532.069" transform="translate(-67.001 -119.756)" fill="#f5a5a7"/>
        <path id="Trazado_167105" data-name="Trazado 167105" d="M127.657,131.957c0,.816.009,1.633,0,2.449a.448.448,0,0,1-.528.454c-.433-.038-.178-.334-.141-.527.152-.8.315-1.6.474-2.4l.2.022" transform="translate(-79.346 -82.51)" fill="#f2cbce"/>
        <path id="Trazado_167106" data-name="Trazado 167106" d="M127.629,70.937c.2.824.406,1.622.592,2.426.041.176.18.438-.157.489-.283.043-.436-.105-.436-.4,0-.83,0-1.66,0-2.511" transform="translate(-79.816 -44.363)" fill="#d9e5f9"/>
        <path id="Trazado_167107" data-name="Trazado 167107" d="M3.351,97.986q0-3.29,0-6.58c0-.9.34-1.1,1.263-1.069,1.588.054,3.182.033,4.77-.021.8-.028,1.176.222,1.177,1.023,0,4.439-.006,8.878.01,13.317a.95.95,0,0,1-1.047,1.078c-1.749.03-3.5.025-5.248,0-.682-.008-.932-.444-.929-1.092.01-2.22,0-4.439,0-6.658" transform="translate(-2.093 -56.48)" fill="#4671c5"/>
        <path id="Trazado_167108" data-name="Trazado 167108" d="M37.245,104.555c0-.913.027-1.827-.01-2.738-.024-.6.2-.874.8-.871,1.513.007,3.025,0,4.538,0,.53,0,.807.2.8.791-.026,1.826-.023,3.651,0,5.477.006.557-.164.808-.759.8q-2.307-.039-4.616,0c-.595.01-.775-.24-.757-.8.028-.886.007-1.773.007-2.66" transform="translate(-23.285 -63.13)" fill="#4670c5"/>
        <path id="Trazado_167109" data-name="Trazado 167109" d="M26.9,106.109c0,.677-.012,1.353,0,2.029.009.365-.122.514-.5.5-.342-.008-.451-.152-.449-.475.009-1.405.011-2.81,0-4.215,0-.366.127-.5.5-.5.422,0,.45.235.447.553-.008.7,0,1.405,0,2.108" transform="translate(-16.231 -64.695)" fill="#6adadc"/>
        <path id="Trazado_167110" data-name="Trazado 167110" d="M31.82,105.989q0-1.016,0-2.032c0-.241-.01-.488.35-.466.307.018.294.24.294.449q0,2.109,0,4.219c0,.226.04.5-.316.509s-.324-.265-.326-.492c-.006-.729,0-1.458,0-2.188" transform="translate(-19.899 -64.721)" fill="#a3c8fe"/>
        <path id="Trazado_167111" data-name="Trazado 167111" d="M10.3,85.373c-.363,0-.727-.008-1.09,0-.3.007-.414-.122-.411-.419s.145-.408.429-.406q1.129.008,2.258,0c.27,0,.439.065.45.385.012.352-.15.453-.468.442-.389-.013-.779,0-1.168,0" transform="translate(-5.503 -52.875)" fill="#a3c8fe"/>
        <path id="Trazado_167112" data-name="Trazado 167112" d="M180,30.387c0-2.193,0-4.385,0-6.578,0-.84.29-1.134,1.119-1.137q2.428-.011,4.855,0c.953.006,1.237.309,1.237,1.279q0,6.5,0,13c0,.879-.248,1.2-1.133,1.228q-2.465.065-4.933,0c-.91-.023-1.147-.346-1.147-1.292q0-3.25,0-6.5" transform="translate(-112.571 -14.175)" fill="#4671c5"/>
        <path id="Trazado_167113" data-name="Trazado 167113" d="M155.143,37.126c0,.939-.01,1.878,0,2.817.006.459-.177.666-.648.663-1.617-.011-3.234-.008-4.852,0-.423,0-.623-.179-.621-.608q.008-2.934,0-5.869c0-.444.237-.585.645-.584,1.591.007,3.182.016,4.773,0,.569-.007.715.261.7.77-.021.938-.006,1.878-.006,2.817" transform="translate(-93.198 -20.975)" fill="#4671c5"/>
        <path id="Trazado_167114" data-name="Trazado 167114" d="M174.139,38.608c0-.676.01-1.353,0-2.029-.007-.341.073-.53.471-.529s.479.179.477.525q-.016,2.068,0,4.136c0,.342-.075.529-.472.529s-.483-.18-.476-.525c.015-.7,0-1.4,0-2.107" transform="translate(-108.9 -22.545)" fill="#6adadc"/>
        <path id="Trazado_167115" data-name="Trazado 167115" d="M169.716,38.751c0,.65.008,1.3,0,1.951,0,.236.1.569-.333.558-.359-.009-.307-.289-.308-.512q-.007-2.068,0-4.137c0-.221-.061-.5.3-.517.429-.018.337.31.34.549.01.7,0,1.405,0,2.108" transform="translate(-105.732 -22.572)" fill="#a3c8fe"/>
        <path id="Trazado_167116" data-name="Trazado 167116" d="M186.961,17.8c-.339,0-.679-.014-1.017,0s-.527-.088-.516-.48c.01-.35.166-.448.483-.443q1.1.016,2.191,0c.321,0,.467.1.477.448.012.4-.176.49-.523.475-.364-.016-.73,0-1.1,0" transform="translate(-115.963 -10.554)" fill="#9fc5fc"/>
        <path id="Trazado_167117" data-name="Trazado 167117" d="M111.358,32.832c0-1.341.3-1.593,1.38-1.3.384.1.465.206.311.554a3.013,3.013,0,0,0-.09,1.233c-.006.531-.155.947-.766.958-.645.011-.834-.415-.835-.979v-.468" transform="translate(-69.641 -19.652)" fill="#3862cb"/>
        <path id="Trazado_167118" data-name="Trazado 167118" d="M91.987,32.81c0,1.072-.232,1.5-.844,1.441-.947-.086-.719-.836-.756-1.426-.01-.155.045-.343-.024-.46-.508-.865.172-.907.7-.973.678-.087.913.347.925.952,0,.155,0,.311,0,.466" transform="translate(-56.4 -19.625)" fill="#3862cb"/>
        <path id="Trazado_167119" data-name="Trazado 167119" d="M99.967,45.04a2.033,2.033,0,0,1-1.634-.822c-.118-.152-.278-.365-.02-.536.179-.119.333-.022.483.116a1.516,1.516,0,0,0,2.42.069c.16-.132.327-.347.531-.17s.114.432-.052.625a2.267,2.267,0,0,1-1.727.719" transform="translate(-61.396 -27.284)" fill="#f8a8a8"/>
      </g>
    </g>
  </g>
</svg>
