<svg xmlns="http://www.w3.org/2000/svg" xmlns:xlink="http://www.w3.org/1999/xlink" width="105" height="105" viewBox="0 0 105 105">
  <defs>
    <clipPath id="clip-path">
      <rect id="Rectángulo_43346" data-name="Rectángulo 43346" width="61.872" height="68.831" fill="none"/>
    </clipPath>
  </defs>
  <g id="Grupo_170752" data-name="Grupo 170752" transform="translate(-1063.326 -839)">
    <path id="Trazado_165117" data-name="Trazado 165117" d="M52.5,0A52.5,52.5,0,1,1,0,52.5,52.5,52.5,0,0,1,52.5,0Z" transform="translate(1063.326 839)" fill="#a6bbff"/>
    <g id="Grupo_170989" data-name="Grupo 170989" transform="translate(1084.485 857.727)" clip-path="url(#clip-path)">
      <path id="Trazado_167120" data-name="Trazado 167120" d="M.888,0h60.09a1.111,1.111,0,0,1,.879,1.187c.013.269.011.537.011.806q0,28.58,0,57.16a6.238,6.238,0,0,1-.04,1.072,1.184,1.184,0,0,1-.92,1.108c-.983.016-1.39-.348-1.471-1.319-.025-.312-.015-.626-.015-.94q0-13.163,0-26.327a3.138,3.138,0,0,0-.044-.724c-.448.541-.917.933-1.3,1.409a1.784,1.784,0,0,0-.243,1.224q-.006,6.448,0,12.9c0,.268.006.537-.009.806A1.32,1.32,0,0,1,56.539,49.8a5.852,5.852,0,0,1-.739.028H25.489c-1.834,0-2.228-.395-2.23-2.264,0-4.212-.052-8.424.029-12.635a3.769,3.769,0,0,0-1.512-2.863,1.342,1.342,0,0,0-.1.762q-.005,7.562,0,15.123c0,1.484-.384,1.874-1.871,1.876q-6.955.01-13.912,0c-1.424,0-1.85-.427-1.851-1.85Q4.03,26.8,4.037,5.626c0-1.375.432-1.8,1.823-1.8q6.989-.013,13.979,0c1.43,0,1.83.416,1.832,1.854q.005,9.376,0,18.752a1.563,1.563,0,0,0,.127.948,2.6,2.6,0,0,0,1.481-2.322c-.059-5.6-.027-11.2-.025-16.8,0-2.1.337-2.434,2.4-2.434H47.1c.314,0,.628-.012.94.018a1.255,1.255,0,0,1,1.276,1.212,1.266,1.266,0,0,1-1.3,1.191c-.313.028-.626.016-.94.016H27.053c-.224,0-.449.011-.672,0-.481-.024-.694.19-.687.675.011.649,0,1.3,0,1.948q0,3.325,0,6.651c0,.88.047.928.895.931q2.049.01,4.1,0c.747,0,.768-.018.779-.735a3.109,3.109,0,0,1,.391-1.478,1.007,1.007,0,0,0,0-1.078,3.233,3.233,0,0,1,2.707-4.683c2.62-.117,5.237-.04,7.855-.083a29.649,29.649,0,0,1,3.89.12,3.166,3.166,0,0,1,2.616,4.4A1.606,1.606,0,0,0,48.93,14.5a2.428,2.428,0,0,1,.272,1.369c-.033.449.179.593.593.592,1.634,0,3.269-.011,4.9,0,.59.006.7-.3.7-.8-.011-2.217,0-4.434,0-6.651,0-.694-.012-1.389,0-2.082.011-.487-.2-.686-.679-.68-.694.008-1.389.026-2.082-.011a1.274,1.274,0,0,1-1.364-1.127A1.251,1.251,0,0,1,52.68,3.839c1.295-.028,2.59-.04,3.885.009a1.307,1.307,0,0,1,1.254,1.393c.021.29.011.582.011.873,0,5.621.033,11.242-.025,16.863-.012,1.219.715,1.774,1.473,2.441a1.054,1.054,0,0,0,.143-.766q.005-10.716,0-21.431c0-.97-.022-.987-.963-.994-.649,0-1.3.016-1.948-.012a8.693,8.693,0,0,1-.941.019H3.777c-1.325,0-1.324,0-1.326,1.313,0,1.568.024,3.136-.012,4.7-.021.942-.375,1.339-1.218,1.474A1.271,1.271,0,0,1,.021,8.3C-.018,7.028.01,5.752.009,4.478.008,3.4,0,2.33.015,1.256A1.128,1.128,0,0,1,.888,0" transform="translate(0 0)"/>
      <path id="Trazado_167121" data-name="Trazado 167121" d="M1.647,12.656q0-1.128,0-2.254c.82-.156,1.062-.43,1.065-1.266.006-1.859.026-3.717-.013-5.576-.011-.571.105-.735.715-.734q13.973.035,27.947.016H56.284c.246,0,.492.013.738.021a2.185,2.185,0,0,1,0,1.974q-1.894.011-3.789.022c-.875.006-1.1.187-1.346,1.058a2.514,2.514,0,0,1-2.23,0c-.248-.877-.472-1.057-1.367-1.057q-11.459,0-22.919,0C24.328,4.86,24,5.2,23.995,6.3c0,5.982-.011,11.964.013,17.946a1.553,1.553,0,0,1-.623,1.372c-.454.355-.856.775-1.293,1.176-.2-.252-.109-.505-.11-.736q-.01-9.813,0-19.626c0-1.313-.257-1.569-1.564-1.569H6.231c-1.21,0-1.5.292-1.5,1.507q0,21.273,0,42.546c0,1.225.289,1.52,1.487,1.52H20.466c1.225,0,1.51-.277,1.51-1.487q0-7.931,0-15.863v-.837c.722.781,1.343,1.436,1.94,2.111.154.174.074.433.074.653q0,6.924,0,13.846c0,1.3.28,1.576,1.576,1.576q15.324,0,30.648,0c.268,0,.537.013.8.02a.679.679,0,0,1,.2.547,8.51,8.51,0,0,1-.165,2.823,2.036,2.036,0,0,1-1.24.183q-10.651.007-21.3,0c-1.759,0-1.874.115-1.875,1.859q0,3.73,0,7.46c0,1.488.182,1.674,1.653,1.674q10.753,0,21.505,0a2.148,2.148,0,0,1,1.244.172,3.568,3.568,0,0,1,.008,2.5,1.551,1.551,0,0,1-.972.18q-26.167.005-52.335,0c-1.136,0-1.248-.127-1.249-1.368q0-21.4,0-42.8c0-2.911-.019-5.823.012-8.734.009-.9-.01-1.743-.858-2.3" transform="translate(-0.481 -0.825)" fill="#fae0a7"/>
      <path id="Trazado_167122" data-name="Trazado 167122" d="M19.06,50.058c-3.27.008-6.54.011-9.81.029-.323,0-.452-.091-.407-.413a2.41,2.41,0,0,0,0-.336q0-20.028-.014-40.056c0-.607.144-.766.755-.758,3.158.04,6.316.03,9.474.038.317.364.217.809.217,1.224q.01,11.391,0,22.784,0,8.166,0,16.332c0,.394.087.815-.218,1.156" transform="translate(-2.58 -2.491)" fill="#b4fbfe"/>
      <path id="Trazado_167123" data-name="Trazado 167123" d="M44.291,50.677c-1.9,0-3.807-.021-5.709.013-.518.009-.623-.148-.619-.636.023-2.933.009-5.866.013-8.8a1.843,1.843,0,0,0-.554-1.522,1.541,1.541,0,0,0-2.08.069c-.424.364-.833.749-1.226,1.146-.229.232-.375.292-.629,0q-1.22-1.387-2.5-2.72c-.256-.267-.209-.4.04-.631q3.039-2.8,6.058-5.617A3.233,3.233,0,0,1,39,31.76a.913.913,0,0,1,.2.408,4.914,4.914,0,0,0,4.754,3.461,5.055,5.055,0,0,0,5.183-2.836c.01-.02.011-.047.025-.062.28-.289.028-.963.609-.99a2.338,2.338,0,0,1,2.037.5c1.833,1.807,3.747,3.531,5.648,5.268.332.3.388.484.043.833-.818.827-1.6,1.693-2.369,2.565-.247.279-.411.328-.683.038-.352-.374-.742-.713-1.12-1.063a1.561,1.561,0,0,0-2.708,1.191c.006,2.978-.014,5.956.017,8.933.006.572-.156.7-.7.688-1.88-.035-3.761-.013-5.642-.013" transform="translate(-9.004 -9.258)" fill="#fd5e70"/>
      <path id="Trazado_167124" data-name="Trazado 167124" d="M59.71,7.194h2.229a1.205,1.205,0,0,0,1.4.964c.783-.03,1.568.01,2.351-.014.357-.011.455.11.454.459q-.017,4.872,0,9.744c0,.326-.063.486-.438.483-1.949-.015-3.9-.011-5.846,0-.35,0-.477-.075-.384-.464a2.671,2.671,0,0,0-.445-2.172.6.6,0,0,1,.012-.77,2.946,2.946,0,0,0-2.383-4.6q-5.807-.216-11.62,0a2.946,2.946,0,0,0-2.361,4.568.626.626,0,0,1,.012.824,2.7,2.7,0,0,0-.429,2.178c.076.35,0,.433-.333.432q-2.721-.013-5.442,0c-.321,0-.43-.127-.429-.44q.01-4.905,0-9.81c0-.314.095-.461.422-.428.155.016.314,0,.47,0q10.65,0,21.3.008c.739,0,1.273-.193,1.464-.966" transform="translate(-10.534 -2.102)" fill="#ae8064"/>
      <path id="Trazado_167125" data-name="Trazado 167125" d="M64.744,46.287c.479.437.81.769,1.175,1.059a.65.65,0,0,1,.212.6c0,4.212-.015,8.424.015,12.635,0,.631-.339.537-.713.537H41.1c-1.478,0-2.957-.024-4.435.013-.52.013-.629-.154-.626-.643.019-3.988.028-7.976-.006-11.963a1.67,1.67,0,0,1,.711-1.6,8.414,8.414,0,0,0,.735-.63v.774c0,2.688,0,5.377,0,8.066a1.593,1.593,0,0,0,1.8,1.824q11.795.006,23.59,0c1.269,0,1.854-.6,1.86-1.927.013-2.621,0-5.242,0-7.863v-.878" transform="translate(-10.529 -13.524)" fill="#ae8064"/>
      <path id="Trazado_167126" data-name="Trazado 167126" d="M23.283,50.063V8.567c.873-.007,1.746-.006,2.62-.027.287-.007.416.079.382.377a3.472,3.472,0,0,0,0,.4q0,20,.016,39.991c0,.654-.155.847-.8.789-.733-.067-1.476-.028-2.215-.036" transform="translate(-6.803 -2.495)" fill="#8bf1fe"/>
      <path id="Trazado_167127" data-name="Trazado 167127" d="M79.881,79.764V77.386a2.067,2.067,0,0,0,.889-2.073q-.063-3.661,0-7.322a2.068,2.068,0,0,0-.889-2.074V62.6c.872-.215,1.074-.458,1.075-1.345q0-6.99-.008-13.981a1.482,1.482,0,0,1,.452-1.191c.515-.493.975-1.04,1.573-1.689v.825q0,13.779,0,27.558c0,1.041.254,1.338,1.177,1.4a9.039,9.039,0,0,0-.113,2.245,1.988,1.988,0,0,0-.865,2.135,3.3,3.3,0,0,1,0,.535c-.037.713-.176.862-.878.888-.579.021-1.159.015-1.739,0a.782.782,0,0,1-.673-.218" transform="translate(-23.34 -12.971)" fill="#f1ce90"/>
      <path id="Trazado_167128" data-name="Trazado 167128" d="M79.88,4.839V2.865c.85-.007,1.7.009,2.549-.031.437-.021.56.107.555.549-.023,2.148-.011,4.3-.011,6.445V26.906c-.718-.674-1.334-1.234-1.927-1.82-.192-.189-.086-.472-.086-.711q-.007-9.064,0-18.127c0-.954-.184-1.19-1.076-1.409" transform="translate(-23.339 -0.827)" fill="#f1ce90"/>
      <path id="Trazado_167129" data-name="Trazado 167129" d="M61.645,46.256c1.072,1,1.987,2.2,3.536.806,0,2.6,0,5.074,0,7.551,0,.285-.139.325-.372.323-.94-.006-1.88-.018-2.819,0-.4.009-.35-.229-.35-.476,0-2.683,0-5.367,0-8.208" transform="translate(-18.01 -13.515)" fill="#fed559"/>
      <path id="Trazado_167130" data-name="Trazado 167130" d="M63.83,31.734c.915,0,1.646.008,2.377,0a.715.715,0,0,1,.514.27q3.026,2.805,6.052,5.611c.193.178.349.3.084.58-.956,1-1.884,2.032-2.831,3.061-.137-.121-.256-.222-.369-.328-.359-.337-.9-.62-1.021-1.029s.516-.681.761-1.062a1.638,1.638,0,0,0-.414-2.316q-2.257-2.105-4.524-4.2l-.627-.585" transform="translate(-18.65 -9.271)" fill="#fed559"/>
      <path id="Trazado_167131" data-name="Trazado 167131" d="M69.474,46.182c.387.369.638.586.864.827a1.706,1.706,0,0,0,1.8.6c.362-.1.367.067.367.323,0,2.168-.006,4.335,0,6.5,0,.336-.093.488-.454.478-.715-.02-1.431-.016-2.145,0-.309.006-.442-.094-.44-.42.008-2.7,0-5.4,0-8.31" transform="translate(-20.298 -13.493)" fill="#6c656f"/>
      <path id="Trazado_167132" data-name="Trazado 167132" d="M71.7,31.73c.7,0,1.229.01,1.761,0A.785.785,0,0,1,74.04,32c1.966,1.83,3.926,3.667,5.91,5.476.376.343.369.539.019.9-.8.813-1.561,1.666-2.311,2.526-.269.308-.426.318-.728.025-.841-.814-.856-.8-.05-1.653.985-1.043.967-1.824-.088-2.81-1.65-1.543-3.31-3.075-5.1-4.732" transform="translate(-20.948 -9.269)" fill="#6c656f"/>
      <path id="Trazado_167133" data-name="Trazado 167133" d="M48.524,17.054a.869.869,0,0,1-.907-.983.853.853,0,0,1,.907-.917,6.241,6.241,0,0,1,1.467-.052c2.371-.008,4.742,0,7.114,0,.736,0,.934.228.924,1.039-.011.767-.2.971-.924.972q-4.026,0-8.053,0a1.055,1.055,0,0,1-.527-.055" transform="translate(-13.912 -4.407)" fill="#fcd358"/>
      <path id="Trazado_167134" data-name="Trazado 167134" d="M48.522,22.753a.954.954,0,0,1,0-1.906,11.708,11.708,0,0,1,2-.049c2.193-.011,4.386-.006,6.578,0,.737,0,.935.228.924,1.039-.01.767-.2.971-.924.972q-4.027,0-8.054,0a1.1,1.1,0,0,1-.528-.052" transform="translate(-13.913 -6.071)" fill="#6d6670"/>
      <path id="Trazado_167135" data-name="Trazado 167135" d="M36.057,30.062c0-1.157.008-2.157,0-3.156,0-.319.121-.437.433-.437q3.958.008,7.916,0c.307,0,.424.1.449.424.1,1.288.113,1.288-1.178,1.288-1.387,0-2.775.041-4.158-.015a2.834,2.834,0,0,0-2.4.924c-.28.313-.619.573-1.057.973" transform="translate(-10.534 -7.733)" fill="#ad7f63"/>
      <path id="Trazado_167136" data-name="Trazado 167136" d="M74.831,30.076c-1.1-1.884-2.831-2.031-4.7-1.9-1.067.074-2.144,0-3.216.021-.4.009-.537-.089-.537-.516,0-1.169-.021-1.169,1.159-1.169,2.278,0,4.558.015,6.836-.012.5-.006.654.133.632.635C74.967,28.064,75,29,75,29.926l-.165.149" transform="translate(-19.395 -7.742)" fill="#ae8063"/>
      <path id="Trazado_167137" data-name="Trazado 167137" d="M51.609,31.8a2.664,2.664,0,0,1-2.527,1.833c-1.99.057-2.968-.442-3.518-1.833Z" transform="translate(-13.313 -9.29)" fill="#d23b4b"/>
      <path id="Trazado_167138" data-name="Trazado 167138" d="M48.9,17.051q4.221-.007,8.444-.016c.806,0,.855-.059.851-.968,0-.84-.057-.9-.851-.9L48.9,15.15a1.238,1.238,0,0,1,.658-.064q5.107,0,10.215.011c.134,0,.269,0,.4,0a1.047,1.047,0,0,1,1.091,1.033,1.013,1.013,0,0,1-1.09.959c-3.719.016-7.438.011-11.156.011-.04,0-.081-.035-.121-.053" transform="translate(-14.287 -4.404)" fill="#febc54"/>
      <path id="Trazado_167139" data-name="Trazado 167139" d="M48.9,22.736l8.446-.018c.807,0,.856-.059.852-.968,0-.841-.057-.9-.852-.9L48.9,20.831c.22-.164.475-.1.715-.1,2.615,0,5.23-.011,7.845,0,.959,0,1.919.043,2.877.09a.959.959,0,0,1,0,1.915c-3.73.14-7.461.091-11.192.084a.776.776,0,0,1-.246-.089" transform="translate(-14.286 -6.054)" fill="#5b545f"/>
      <path id="Trazado_167140" data-name="Trazado 167140" d="M52.951,28.172c-.268,0-.534,0-.8,0-.985-.012-.834.132-.894-.9-.037-.631.136-.878.8-.825a18.54,18.54,0,0,0,2.136.006c.394-.013.541.1.545.519.01,1.2.03,1.2-1.183,1.2h-.6" transform="translate(-14.974 -7.726)" fill="#ac7e62"/>
      <path id="Trazado_167141" data-name="Trazado 167141" d="M60.6,28.177c-.223,0-.445,0-.668,0-1.089-.02-.878.154-.951-.967-.04-.614.188-.772.743-.747.689.03,1.38.018,2.07,0,.316-.007.411.107.428.425.066,1.289.078,1.288-1.22,1.288h-.4" transform="translate(-17.232 -7.731)" fill="#ad7f63"/>
      <path id="Trazado_167142" data-name="Trazado 167142" d="M56.627,71.676c.893.007,1.787,0,2.68.027.314.009.436-.076.42-.407-.025-.535-.009-1.072-.006-1.609.006-.884.192-1.118,1.065-1.353a1.2,1.2,0,0,1,.958,1.4c-.032.873,0,1.748-.008,2.622,0,1.024-.34,1.358-1.379,1.359q-8.1,0-16.2,0H1.881C.569,73.714.3,73.449.3,72.151Q.3,45.2.292,18.244c0-.754.158-1.322.96-1.53.928.275,1.066.466,1.066,1.5q0,26.344-.018,52.687c0,.694.185.818.837.816q26.376-.029,52.752-.016c.246,0,.492-.013.738-.021" transform="translate(-0.085 -4.883)"/>
      <path id="Trazado_167143" data-name="Trazado 167143" d="M18.815,86.259q-5.679,0-11.359,0C6.323,86.258,6,85.947,6,84.838q0-4.3,0-8.6c0-1.076.326-1.4,1.4-1.4q11.426,0,22.853,0c1.087,0,1.418.323,1.419,1.387q0,4.335,0,8.671c0,1.032-.336,1.368-1.369,1.368q-5.747,0-11.494,0" transform="translate(-1.754 -21.864)"/>
      <path id="Trazado_167144" data-name="Trazado 167144" d="M69.726,74.8c.872.214,1.074.457,1.075,1.341q.005,4.395,0,8.788c0,.884-.2,1.126-1.075,1.341-1.365-.006-2.731-.019-4.1-.02q-9.506,0-19.011,0c-1.2,0-1.491-.294-1.492-1.514q0-4.2,0-8.4c0-1.22.289-1.515,1.492-1.515h22.37c.246,0,.492-.013.738-.021" transform="translate(-13.185 -21.855)"/>
      <path id="Trazado_167145" data-name="Trazado 167145" d="M19.6,85.071c-3.381,0-6.761-.011-10.142.013-.5,0-.633-.115-.625-.621.032-2.082.027-4.164,0-6.246,0-.447.127-.549.558-.549q10.276.02,20.552,0c.435,0,.561.109.556.551q-.035,3.157,0,6.313c.006.447-.126.551-.558.549-3.447-.018-6.895-.01-10.343-.01" transform="translate(-2.581 -22.692)" fill="#e9be7e"/>
      <path id="Trazado_167146" data-name="Trazado 167146" d="M58.724,85.071c-3.381,0-6.761-.011-10.142.013-.5,0-.633-.113-.626-.621.032-2.082.026-4.164,0-6.246,0-.445.124-.551.557-.549q10.275.02,20.552,0c.434,0,.561.107.556.551q-.036,3.155,0,6.313c0,.445-.123.552-.557.55-3.447-.018-6.895-.01-10.343-.01" transform="translate(-14.012 -22.692)" fill="#e9be7e"/>
      <path id="Trazado_167147" data-name="Trazado 167147" d="M23.207,83.5a5.286,5.286,0,0,1-.8-.05.936.936,0,0,1-.806-.943.905.905,0,0,1,.816-.994,7.151,7.151,0,0,1,1.673-.006.91.91,0,0,1,.839.976.939.939,0,0,1-.849.974,5.328,5.328,0,0,1-.871.008V83.5" transform="translate(-6.311 -23.802)" fill="#010100"/>
      <path id="Trazado_167148" data-name="Trazado 167148" d="M62.587,83.473a5.251,5.251,0,0,1-.8-.007A.989.989,0,0,1,61.8,81.5a8.436,8.436,0,0,1,1.409-.019,1.02,1.02,0,0,1,1.048,1.008,1.035,1.035,0,0,1-1.062,1c-.2.014-.4,0-.6,0v-.016" transform="translate(-17.798 -23.801)" fill="#010101"/>
    </g>
  </g>
</svg>
