<svg xmlns="http://www.w3.org/2000/svg" xmlns:xlink="http://www.w3.org/1999/xlink" width="105" height="105" viewBox="0 0 105 105">
  <defs>
    <clipPath id="clip-path">
      <rect id="Rectángulo_43349" data-name="Rectángulo 43349" width="78.04" height="78.066" fill="none"/>
    </clipPath>
  </defs>
  <g id="Grupo_170759" data-name="Grupo 170759" transform="translate(-433.326 -839)">
    <path id="Trazado_160852" data-name="Trazado 160852" d="M52.5,0A52.5,52.5,0,1,1,0,52.5,52.5,52.5,0,0,1,52.5,0Z" transform="translate(433.326 839)" fill="#a6bbff"/>
    <g id="Grupo_170992" data-name="Grupo 170992" transform="translate(446.326 852)">
      <g id="Grupo_170992-2" data-name="Grupo 170992" clip-path="url(#clip-path)">
        <path id="Trazado_167221" data-name="Trazado 167221" d="M78.04,42.05a14.931,14.931,0,0,0-.428,2.728c-2.762,15.409-11.452,26.064-26.2,31.154A38.593,38.593,0,0,1,3.921,55.969,38.979,38.979,0,0,1,28.5,1.429,36.482,36.482,0,0,1,35.6.15c.14-.011.314.043.387-.15H39.8a3.8,3.8,0,0,0,1.676,0h.457c.847.138,1.71.072,2.555.187A38.378,38.378,0,0,1,62.264,7.422c1.124.825,1.259,1.308.79,2.365a1.433,1.433,0,0,1-2.112-.008A36.028,36.028,0,0,0,54.5,5.9,35.273,35.273,0,0,0,43.648,2.784,36.245,36.245,0,0,0,24.67,5.421,36.532,36.532,0,0,0,12.01,14.456,31.87,31.87,0,0,0,7.758,20.19,34.837,34.837,0,0,0,3.487,30.645a35.59,35.59,0,0,0-.945,9.895,36.822,36.822,0,0,0,2.89,12.776A36.111,36.111,0,0,0,14.52,66.045a35.691,35.691,0,0,0,20.1,9.19A36.3,36.3,0,0,0,56.2,71.248a15.958,15.958,0,0,0,1.641-.96A36.285,36.285,0,0,0,71.986,54.761,35.8,35.8,0,0,0,75.43,41.829,36.227,36.227,0,0,0,74,28.452,35.45,35.45,0,0,0,66.827,15.33c-.747-.867-1.574-1.653-2.342-2.5a1.457,1.457,0,0,1-.1-2.11c.783-.493,1.1-.518,1.771.063a30.206,30.206,0,0,1,4.855,5.533A38.643,38.643,0,0,1,77.829,33.4c.124.9.051,1.811.211,2.706Z" transform="translate(0)"/>
        <path id="Trazado_167222" data-name="Trazado 167222" d="M81.821,0a2.019,2.019,0,0,1-1.676,0Z" transform="translate(-40.346)" fill="#434343"/>
        <path id="Trazado_167223" data-name="Trazado 167223" d="M67,12.05c.66.16.9.914,1.555,1.09-.529.84-.484,1.223.287,1.983a35.014,35.014,0,0,1,9.98,17.682c2.914,13.4-.488,25.067-10.134,34.853a29.5,29.5,0,0,1-6.612,5.074A32.133,32.133,0,0,1,49.16,76.223a37.443,37.443,0,0,1-18.832-3.346A38.008,38.008,0,0,1,9.906,49.871,37.8,37.8,0,0,1,8.228,35.442a31.955,31.955,0,0,1,3.5-13.067,34.648,34.648,0,0,1,8.39-9.65A35.4,35.4,0,0,1,37.943,4.982a36.157,36.157,0,0,1,26.649,6.555c.186.133.381.256.552.405A1.331,1.331,0,0,0,67,12.05" transform="translate(-4.093 -2.322)" fill="#c0e3f9"/>
        <path id="Trazado_167224" data-name="Trazado 167224" d="M9.922,40.382c-.414,1.109-.836,2.215-1.241,3.328a38.411,38.411,0,0,0-1.809,7.484,40.924,40.924,0,0,0-.246,7.882,33.2,33.2,0,0,0,1.542,8.307A38.013,38.013,0,0,0,37.608,93.552a39.338,39.338,0,0,0,10.349.389,35.389,35.389,0,0,0,8.277-1.706c1.127-.37,2.222-.837,3.33-1.263.233-.09.436-.269.71-.233a32.577,32.577,0,0,1-9.509,4.082A36.652,36.652,0,0,1,6.232,70.071a36.015,36.015,0,0,1,3.459-29.4,2.422,2.422,0,0,1,.231-.291" transform="translate(-2.292 -20.329)" fill="#90b4f8"/>
        <path id="Trazado_167225" data-name="Trazado 167225" d="M34.021,19.4c-.164-.994.084-1.383,1.051-1.673a8.457,8.457,0,0,1,3.236-.317,1.063,1.063,0,0,0,.935-.331,9.281,9.281,0,0,1,11.343-1.394,1.01,1.01,0,0,0,.913.079,9.29,9.29,0,0,1,10.763,3.673,1.144,1.144,0,0,0,.842.533,9.3,9.3,0,0,1,8.067,8.11.851.851,0,0,0,.379.681c3.863,2.479,5.076,7.167,3.438,11.635a1.7,1.7,0,0,0-.021,1.352,4.5,4.5,0,0,1,.258,2.833c-.109.432.069.556.412.713a5.469,5.469,0,0,1,.039,10.049c-.372.175-.528.294-.444.763a5.323,5.323,0,0,1-5.624,6.272c-.6-.038-.894.066-1.122.645a4.506,4.506,0,0,1-1.747,2.059c-.294.2-.388.337-.239.713a5.2,5.2,0,0,1-1.159,5.96,5.252,5.252,0,0,1-5.958,1.208c-.33-.123-.492-.12-.727.191a5.353,5.353,0,0,1-8.275.769c-.211-.2-.342-.289-.633-.115a5.143,5.143,0,0,1-3.872.655c-.494-.11-.463.268-.573.508a5.475,5.475,0,0,1-7.618,2.621,5.237,5.237,0,0,1-2.445-2.712c-.146-.367-.29-.454-.713-.377a5.38,5.38,0,0,1-5.806-2.955,1.11,1.11,0,0,0-.872-.683,8.275,8.275,0,0,1-5.22-3.773A14.537,14.537,0,0,1,20.851,63a1.256,1.256,0,0,1,.708-1.508,1.09,1.09,0,0,1,1.546.574,11.1,11.1,0,0,1,.524,1.427,9.18,9.18,0,0,0,1.841,3.212A5.658,5.658,0,0,0,33.9,66.7a9.566,9.566,0,0,0,1.971-3.658,24.308,24.308,0,0,1,2.923-6.09,34.129,34.129,0,0,0,2.626-5.15,17.226,17.226,0,0,0,.879-3.461,1.216,1.216,0,0,0-.257-1,5.923,5.923,0,0,1-1.07-5.041,1.472,1.472,0,0,0-.34-1.2,12.358,12.358,0,0,0-6.358-4.746,14.023,14.023,0,0,0-10.122.374,11.714,11.714,0,0,0-4.8,3.645,10.3,10.3,0,0,0-2.1,8.637,24.154,24.154,0,0,0,3.18,7.6c.274.485.576.957.819,1.457a1.131,1.131,0,0,1-.6,1.716,1.164,1.164,0,0,1-1.484-.418c-1.707-2.876-3.424-5.749-4.183-9.064a13.214,13.214,0,0,1,6.747-15.119.949.949,0,0,0,.587-1.1,9.274,9.274,0,0,1,5.845-9.76.981.981,0,0,0,.63-.669,8.848,8.848,0,0,1,1.724-3.016c.657-.767,1.085-.83,1.973-.305a1.028,1.028,0,0,1,.2,1.511c-.322.571-.839,1.006-1.118,1.606a6.451,6.451,0,0,0-.591,1.56,1.923,1.923,0,0,1-1.471,1.47,6.733,6.733,0,0,0-4.379,4.234,6.064,6.064,0,0,0-.347,2.316c.01.452.181.6.613.465.291-.088.587-.16.885-.225a16.509,16.509,0,0,1,13.405,2.98,12.587,12.587,0,0,1,2.587,2.565c.353.467.662.61,1.194.248a5.182,5.182,0,0,1,3.5-.78.9.9,0,0,0,1.02-.552,5.7,5.7,0,0,1,10.143-.054.974.974,0,0,0,1.078.6,5.375,5.375,0,0,1,5,2.178c.391.51.637.417.987,0a6.482,6.482,0,0,1,4.278-2.39,4.771,4.771,0,0,1,2.732.46c.5.24.755.153.838-.411.443-3.007-.156-5.7-3.3-7.533A1.776,1.776,0,0,1,68.743,29a6.927,6.927,0,0,0-6.679-6.634,1.709,1.709,0,0,1-1.516-.968,6.819,6.819,0,0,0-8.692-3.111A2.253,2.253,0,0,1,49.581,18a6.867,6.867,0,0,0-8.975,1.232,1.947,1.947,0,0,1-1.8.743,9.1,9.1,0,0,0-3.177.153c-.919.229-1.379-.017-1.605-.732" transform="translate(-7.347 -7.23)"/>
        <path id="Trazado_167226" data-name="Trazado 167226" d="M43.045,25.681a3.382,3.382,0,0,1,.822-1.255,1.352,1.352,0,0,0,.222-1.788,4.841,4.841,0,0,1,1.526-.931,1.307,1.307,0,0,0,1.653.529,6.477,6.477,0,0,1,3.164-.173,1.513,1.513,0,0,0,1.544-.546,7,7,0,0,1,9.58-1.206,1.582,1.582,0,0,0,1.635.177,7,7,0,0,1,9.13,3.132,1.529,1.529,0,0,0,1.4.86,7.014,7.014,0,0,1,6.806,6.763,1.689,1.689,0,0,0,1.028,1.534,6.99,6.99,0,0,1,3.007,8.613c-3.455-1.866-6.064-.515-8.332,2.28a5.63,5.63,0,0,0-3.633-2.795,5.084,5.084,0,0,0-2.19-.058c-.443.09-.544-.066-.7-.406a5.475,5.475,0,0,0-10.08.038c-.141.31-.236.448-.649.377a5.312,5.312,0,0,0-4.243.994c-.227.171-.362.279-.6-.027-4.119-5.34-9.6-7.07-16.111-6.05a.712.712,0,0,1-.151-.009,2.069,2.069,0,0,1-.156-1.62,6.664,6.664,0,0,1,4.141-5.345,1.115,1.115,0,0,0,.846-1.236,5.845,5.845,0,0,1,.347-1.852" transform="translate(-18.939 -9.538)" fill="#feefae"/>
        <path id="Trazado_167227" data-name="Trazado 167227" d="M22.942,86.02c.726-.684.778-1.037.268-1.922a32.625,32.625,0,0,1-3.556-7.454,10.9,10.9,0,0,1,1.339-9.523c.155-.227.353-.427.53-.639.215.188.132.423.081.638-.852,3.621-.02,6.987,1.545,10.242.782,1.624,1.715,3.165,2.617,4.724a19.866,19.866,0,0,1,1.877,4.229,9.734,9.734,0,0,0,3.3,5.253,5.9,5.9,0,0,0,3.814,1.281,2.29,2.29,0,0,1,1.548.185,5.79,5.79,0,0,1-8.385.376,10.223,10.223,0,0,1-2.536-4.593c-.284-.917-.569-1.106-1.543-1.086l-.9-1.71" transform="translate(-9.632 -33.468)" fill="#b0705b"/>
        <path id="Trazado_167228" data-name="Trazado 167228" d="M38.253,88.134a11.459,11.459,0,0,1-3.607-.275,7.069,7.069,0,0,1-4.537-4.588c-1.259-4.039-3.64-7.487-5.44-11.236a15.82,15.82,0,0,1-1.618-8.306,19.718,19.718,0,0,1,.416-2.145,11.873,11.873,0,0,1,7.141-4.432,13.63,13.63,0,0,1,13.326,3.792,8.685,8.685,0,0,1,.733.872,2.51,2.51,0,0,1,.659,2.389,4.9,4.9,0,0,0,1.11,4.343,1.477,1.477,0,0,1,.292,1.253,19.933,19.933,0,0,1-2.617,7c-.571,1.016-1.159,2.022-1.754,3.023a19.728,19.728,0,0,0-2.041,4.56,8.475,8.475,0,0,1-2.063,3.751" transform="translate(-11.576 -28.569)" fill="#c28678"/>
        <path id="Trazado_167229" data-name="Trazado 167229" d="M103.077,80.453a12.894,12.894,0,0,1,3.826-5.128,6.972,6.972,0,0,0,2.779-4.548.62.62,0,0,1,.158-.333c.8-.848,1.565-1.74,2.431-2.517a3.07,3.07,0,0,1,4.1-.284,3.2,3.2,0,0,1,.776,4.11c-.492,1.021-.08,1.779,1.023,1.883a3.2,3.2,0,0,1,3.074,3.157,3.233,3.233,0,0,1-3.027,3.222c-1.219.131-1.574.813-1.018,1.958a3.2,3.2,0,0,1-.736,3.94,3.1,3.1,0,0,1-3.933.015,8.537,8.537,0,0,1-1.4-1.39,17.29,17.29,0,0,0-4.367-3.635,1.288,1.288,0,0,0-1.833.2,1.646,1.646,0,0,1-1.851-.653" transform="translate(-51.891 -33.723)" fill="#97c990"/>
        <path id="Trazado_167230" data-name="Trazado 167230" d="M85.669,75.5a26.978,26.978,0,0,0-1.018,2.984,2.46,2.46,0,0,1-1.116,1.546,3.963,3.963,0,0,0-1.233,1.4c-.811.352-1.32.252-1.707-.334a1.322,1.322,0,0,0-.355-1.524,2.461,2.461,0,0,1-.681-1.252A16,16,0,0,0,74.125,69.9,5.6,5.6,0,0,1,72.7,68.228a2.953,2.953,0,0,1,.433-3.522,3.213,3.213,0,0,1,3.566-.765c.093.04.183.088.274.133,1.18.58,1.86.209,1.97-1.077a3.188,3.188,0,0,1,5.836-1.541,3.423,3.423,0,0,1,.551,1.638c.1,1.135.83,1.542,1.847,1.047a3.186,3.186,0,0,1,4.116.752A3.138,3.138,0,0,1,91.038,69c-.145.176-.311.334-.463.5-.386.433-.655.6-1.1-.049a3.249,3.249,0,0,0-3.659-1.179,3.434,3.434,0,0,0-2.438,3.079c-.014.2-.015.406-.023.609a5.019,5.019,0,0,0-.095.978A2.047,2.047,0,0,0,85,75.108c.255.054.644-.073.673.389" transform="translate(-36.405 -30.222)" fill="#c1e3a0"/>
        <path id="Trazado_167231" data-name="Trazado 167231" d="M94.62,101.2a2.641,2.641,0,0,1-1.306.72,1.148,1.148,0,0,0-.548,1.971,3.172,3.172,0,0,1-.044,4.457,3.2,3.2,0,0,1-4.459.066c-.9-.7-1.656-.433-2.053.733a3.16,3.16,0,0,1-4.724,1.784c-.56-.373-.877-.721-.514-1.531a5.726,5.726,0,0,0-1.99-6.644,1.239,1.239,0,0,0-1.6.138c-.455-.262-.928-.509-.948-1.134a1.382,1.382,0,0,0-.133-1.8,11.765,11.765,0,0,1-2.174-4.463,5,5,0,0,0-1.691-2.806.5.5,0,0,1-.164-.707c.261-.574.477-1.168.712-1.753.38-.043.515.269.7.5a13.39,13.39,0,0,1,2.493,4.9,3.94,3.94,0,0,0,4.659,3.12c.5-.056.891-.017.983.624.264,1.841.8,2.274,2.643,2.2a.952.952,0,0,0,.517-.062c2.042-.078,3.273-.933,3.718-2.6a3.585,3.585,0,0,0-.533-2.892c.284-.25.29-.261.62-.08a9.749,9.749,0,0,1,2.025,1.473,19.577,19.577,0,0,1,2.369,2.466c.4.535,1.09.744,1.443,1.324" transform="translate(-36.341 -45.42)" fill="#97c990"/>
        <path id="Trazado_167232" data-name="Trazado 167232" d="M64.223,106.126l.948,1.134a1.329,1.329,0,0,0,.351,1.824,4.543,4.543,0,0,1,.785.924,3.039,3.039,0,0,1-.194,3.8,3.2,3.2,0,0,1-3.825.713c-.091-.044-.177-.1-.269-.142a1.138,1.138,0,0,0-1.75.972,3.2,3.2,0,0,1-6.4.029c-.107-1.044-.879-1.438-1.867-.951a3.166,3.166,0,0,1-3.908-.543.364.364,0,0,1-.152-.376,8.724,8.724,0,0,0,5.782-4.143,7.981,7.981,0,0,0,2.317-.031c2.411-.141,3.861-1.544,3.77-3.651-.069-1.591-1.117-2.729-3.051-3.266l2.042-3.511a2.487,2.487,0,0,1,.884,1.538,14.739,14.739,0,0,0,2.539,5.225c.673.884,1.008.962,1.991.456" transform="translate(-24.133 -49.791)" fill="#c1e3a0"/>
        <path id="Trazado_167233" data-name="Trazado 167233" d="M85.781,99.22a2.187,2.187,0,0,1-3.345-1.871c.049-.627-.174-.818-.78-.711a4.09,4.09,0,0,1-4.794-2.951,13.918,13.918,0,0,0-2.744-5.436,2.758,2.758,0,0,0-.332-.307l.638-2.254c.282-.034.388.209.529.363a12.74,12.74,0,0,1,3.076,5.576,5.234,5.234,0,0,0,1.2,2.332c.742.812,1.312.821,2.106.042a2.46,2.46,0,0,0,1.707.334,3.509,3.509,0,0,0,2.739,4.882" transform="translate(-37.145 -43.136)" fill="#68b080"/>
        <path id="Trazado_167234" data-name="Trazado 167234" d="M109.4,103.15a6.57,6.57,0,0,1-1.787-1.459,16.948,16.948,0,0,0-4.291-3.754c-.152-.086-.265-.136-.379.03-.18-.174-.329-.422-.544-.509-1.19-.484-.881-1.316-.548-2.169.154-.394.3-.79.457-1.185a4.069,4.069,0,0,0,1.85.653,1.186,1.186,0,0,0,.522,1.679,15.921,15.921,0,0,1,4.414,3.77,8.277,8.277,0,0,0,.629.657c.818.781.834,1.077.073,1.945a3.594,3.594,0,0,1-.4.341" transform="translate(-51.123 -47.373)" fill="#68b080"/>
        <path id="Trazado_167235" data-name="Trazado 167235" d="M41.49,32.508c.047.861-.246,1.7-.16,2.564.03.3-.178.42-.449.513a6.551,6.551,0,0,0-4.5,5.162,11.551,11.551,0,0,0-.072,1.814c-1.811.608-1.947.542-1.666-1.343a6.808,6.808,0,0,1,4.828-5.781,1.774,1.774,0,0,0,1.38-1.411,3.476,3.476,0,0,1,.636-1.518" transform="translate(-17.385 -16.365)" fill="#fedf7c"/>
        <path id="Trazado_167236" data-name="Trazado 167236" d="M97.593,103.7a1.141,1.141,0,0,1,0,2.282,1.141,1.141,0,1,1,0-2.282" transform="translate(-48.554 -52.207)" fill="#fbbf4f"/>
        <path id="Trazado_167237" data-name="Trazado 167237" d="M100.377,83.233A1.173,1.173,0,0,1,99.2,82.082a1.128,1.128,0,0,1,1.111-1.117,1.1,1.1,0,0,1,1.159,1.054,1.147,1.147,0,0,1-1.1,1.214" transform="translate(-49.94 -40.759)" fill="#fbbf4f"/>
        <path id="Trazado_167238" data-name="Trazado 167238" d="M64.954,111.835a1.144,1.144,0,0,1-1.115,1.119,1.165,1.165,0,0,1-1.159-1.16,1.131,1.131,0,0,1,1.2-1.1,1.107,1.107,0,0,1,1.075,1.14" transform="translate(-31.554 -55.725)" fill="#fcc04f"/>
        <path id="Trazado_167239" data-name="Trazado 167239" d="M96.528,87.6c-.18-.255-.452-.158-.693-.178a2.229,2.229,0,0,1-1.616-3.351,3.722,3.722,0,0,0,2.356,2.844c.536.205,0,.455-.047.686" transform="translate(-47.264 -42.32)" fill="#97c890"/>
        <path id="Trazado_167240" data-name="Trazado 167240" d="M61.919,119.236a2.147,2.147,0,0,1-2.317.031c.188-.731.53-.9,1.192-.425a4.175,4.175,0,0,0,1.125.393" transform="translate(-30.005 -59.693)" fill="#95c68e"/>
        <path id="Trazado_167241" data-name="Trazado 167241" d="M70.954,52.348a3.378,3.378,0,0,1-3.405-3.439,3.419,3.419,0,0,1,3.386-3.4A3.457,3.457,0,0,1,74.4,48.929a3.421,3.421,0,0,1-3.443,3.419" transform="translate(-34.005 -22.909)"/>
        <path id="Trazado_167242" data-name="Trazado 167242" d="M114.708,51.1a3.375,3.375,0,0,1-3.412,3.431,3.418,3.418,0,1,1,3.412-3.431" transform="translate(-54.302 -24.009)"/>
        <path id="Trazado_167243" data-name="Trazado 167243" d="M36.01,87.339q-3.733,0-7.465,0c-.958,0-1.485-.418-1.475-1.14s.538-1.141,1.5-1.142q7.465-.006,14.93,0c1.123,0,1.756.75,1.377,1.606a1.193,1.193,0,0,1-1.246.68c-2.539-.009-5.079,0-7.618,0" transform="translate(-13.627 -42.817)"/>
        <path id="Trazado_167244" data-name="Trazado 167244" d="M37,71.43q-3.234,0-6.467,0a1.119,1.119,0,0,1-1.2-.846,1.067,1.067,0,0,1,.5-1.242,1.368,1.368,0,0,1,.8-.194c4.261,0,8.521-.009,12.782,0,.909,0,1.39.442,1.383,1.164s-.477,1.109-1.412,1.112c-2.13.007-4.261,0-6.391,0" transform="translate(-14.741 -34.809)" fill="#010000"/>
        <path id="Trazado_167245" data-name="Trazado 167245" d="M41.106,101.806c1.116,0,2.232-.008,3.348,0,.862.008,1.318.412,1.315,1.128,0,.7-.482,1.143-1.321,1.149q-3.386.022-6.772,0a1.2,1.2,0,0,1-1.336-1.155c0-.669.52-1.116,1.342-1.122,1.141-.009,2.283,0,3.424,0" transform="translate(-18.294 -51.249)"/>
        <path id="Trazado_167246" data-name="Trazado 167246" d="M73.3,52.381a1.1,1.1,0,0,1-1.146-1.065,1.14,1.14,0,0,1,1.109-1.2,1.171,1.171,0,0,1,1.163,1.16,1.136,1.136,0,0,1-1.126,1.1" transform="translate(-36.324 -25.231)" fill="#fcbf4f"/>
        <path id="Trazado_167247" data-name="Trazado 167247" d="M113.643,54.558a1.126,1.126,0,0,1-1.163-1.134,1.146,1.146,0,0,1,1.114-1.121,1.117,1.117,0,0,1,1.146,1.146,1.089,1.089,0,0,1-1.1,1.108" transform="translate(-56.624 -26.33)" fill="#fcc04f"/>
      </g>
    </g>
  </g>
</svg>
