<svg xmlns="http://www.w3.org/2000/svg" xmlns:xlink="http://www.w3.org/1999/xlink" width="105" height="105" viewBox="0 0 105 105">
  <defs>
    <clipPath id="clip-path">
      <rect id="Rectángulo_43351" data-name="Rectángulo 43351" width="62.732" height="61.371" fill="none"/>
    </clipPath>
  </defs>
  <g id="Grupo_170762" data-name="Grupo 170762" transform="translate(-1063.326 -839)">
    <path id="Trazado_165117" data-name="Trazado 165117" d="M52.5,0A52.5,52.5,0,1,1,0,52.5,52.5,52.5,0,0,1,52.5,0Z" transform="translate(1063.326 839)" fill="#a6bbff"/>
    <g id="Grupo_170994" data-name="Grupo 170994" transform="translate(1084.326 861)">
      <g id="Grupo_170994-2" data-name="Grupo 170994" transform="translate(0 0)" clip-path="url(#clip-path)">
        <path id="Trazado_167260" data-name="Trazado 167260" d="M58.9,35.023a1.022,1.022,0,0,1,.761,1.269c-.351,3.263-.708,6.526-1.033,9.793-.421,4.237-1.074,8.457-.914,12.739.023.613.186.741.754.714,1.018-.047,2.04.012,3.059-.023a1.179,1.179,0,0,1,1.2.645v.612a1.46,1.46,0,0,1-1.362.6q-30-.014-60-.008a3.763,3.763,0,0,1-.489-.011A.931.931,0,0,1,0,60.362a.9.9,0,0,1,.956-.832c1.224-.013,2.449-.015,3.673,0,.363.005.535-.041.532-.481q-.03-5.02,0-10.041c0-.372-.09-.475-.473-.479a1.511,1.511,0,0,1-1.659-1.677q-.022-2.051,0-4.1a1.547,1.547,0,0,1,1.69-1.67c1.143-.017,2.286,0,3.429-.005a.98.98,0,0,1,1.087.779c.123.742-.152,1.133-.9,1.2-.793.069-1.59.016-2.386.027-.812.011-.849.045-.853.878,0,.652,0,1.305,0,1.959,0,.376.172.566.556.564.2,0,.408.006.612.006H31.059c1.088,0,1.089,0,1.089-1.068,0-.551-.009-1.1,0-1.653.008-.5-.221-.706-.706-.685-.224.01-.449,0-.673,0h-17.2a5.911,5.911,0,0,1-.917-.032c-.715-.112-.96-.473-.817-1.193.16-.639.624-.782,1.211-.781,3.736.007,7.472-.009,11.207.017.519,0,.64-.133.626-.636-.038-1.367-.018-2.735-.011-4.1A3.9,3.9,0,0,1,27.23,32.6a.833.833,0,0,0,.555-.843q-.018-2.113,0-4.225a.856.856,0,0,0-.541-.856A3.917,3.917,0,0,1,25,22.966q-.01-4.654,0-9.309a3.972,3.972,0,0,1,4.1-4.15c.511-.01,1.022-.025,1.531.006.392.025.507-.126.467-.492a5.932,5.932,0,0,1,0-.734c.01-.62.183-1.248-.821-1.361a1.18,1.18,0,0,1-.883-1.259c-.014-1.408-.025-2.817,0-4.225A1.439,1.439,0,0,1,30.863.013q5.237-.026,10.472,0a1.474,1.474,0,0,1,1.507,1.53c.037,1.325.031,2.654,0,3.98a1.486,1.486,0,0,1-1.352,1.556c-.29.049-.372.127-.361.409.022.53.01,1.061,0,1.592,0,.238-.007.5.331.416.317-.081.818.306.938-.312a9.822,9.822,0,0,1,1.8-4.1,9.337,9.337,0,1,1,5.017,14.681A12.424,12.424,0,0,1,47.2,18.99c0,1.138-.006,2.223,0,3.308,0,.339.282.228.46.229,1.776.007,3.552,0,5.328,0,2,0,4,0,6,0a1.677,1.677,0,0,1,1.888,2.039c-.225,2.4-.491,4.788-.743,7.182a1.008,1.008,0,0,1-1.06.97c-.612-.043-.881-.311-.932-.957a11.276,11.276,0,0,1,.165-2.071c.053-.507.068-1.018.155-1.522.082-.474-.124-.667-.6-.664-1.449.009-2.9,0-4.348,0q-4.408,0-8.817,0c-.84,0-.859.007-.778.859.277,2.9.607,5.8.9,8.7q.519,5.052,1.06,10.1c.2,1.845.377,3.693.588,5.537.052.456.241.642.7.642,2.674,0,5.347-.006,8.021,0,.564,0,.674-.335.718-.78.24-2.416.5-4.83.758-7.243.33-3.083.631-6.169.984-9.249.082-.714.434-1.115.968-1.156a.387.387,0,0,1,.283.093" transform="translate(0 0)"/>
        <path id="Trazado_167261" data-name="Trazado 167261" d="M91.573,55.484c-.758.08-1,.324-1.074,1.061C89.92,62.1,89.329,67.662,88.77,73.223c-.062.616-.279.776-.889.768-2.756-.036-5.512-.027-8.268-.005-.467,0-.6-.12-.653-.6-.492-4.871-1.018-9.738-1.533-14.606-.373-3.53-.738-7.06-1.12-10.589-.038-.35.09-.4.4-.4q7.136.011,14.271,0c.384,0,.431.147.4.469-.137,1.216-.242,2.435-.387,3.651a1.057,1.057,0,0,0,.767,1.277q-.088,1.149-.176,2.3" transform="translate(-32.67 -20.461)" fill="#d4e862"/>
        <path id="Trazado_167262" data-name="Trazado 167262" d="M9.3,32.188c.9.112,1.949.233,3,.381a.806.806,0,0,0,.876-.365c.585-.81,1.213-1.589,1.84-2.367a1.394,1.394,0,0,1,2.439.008c.622.782,1.243,1.566,1.839,2.367a.776.776,0,0,0,.821.36c1.029-.145,2.061-.282,3.1-.379,1.177-.109,1.777.5,1.654,1.67-.1.993-.234,1.985-.373,2.974a.847.847,0,0,0,.377.929c.813.579,1.594,1.205,2.375,1.828a1.384,1.384,0,0,1,.017,2.4c-.779.626-1.562,1.249-2.374,1.83a.89.89,0,0,0-.392.982c.15,1.008.281,2.02.381,3.034a1.38,1.38,0,0,1-1.7,1.591c-1.051-.138-2.1-.259-3.153-.416a.629.629,0,0,0-.666.3c-.592.779-1.2,1.548-1.8,2.319q-1.323,1.693-2.635.021c-.6-.77-1.216-1.535-1.8-2.318a.707.707,0,0,0-.778-.306c-1.048.163-2.1.286-3.154.409A1.35,1.35,0,0,1,7.57,47.938c.086-1.1.233-2.19.394-3.279a.711.711,0,0,0-.323-.771c-.752-.56-1.486-1.145-2.229-1.718-1.213-.934-1.211-1.788.01-2.737.708-.551,1.409-1.113,2.133-1.642a.826.826,0,0,0,.4-.914c-.169-1.025-.293-2.059-.387-3.094-.1-1.067.511-1.661,1.725-1.6" transform="translate(-1.929 -12.47)"/>
        <path id="Trazado_167263" data-name="Trazado 167263" d="M15.466,73.194c.065.837.312,1.058,1.222,1.058,6.164,0,12.328.009,18.492-.012.588,0,.836.095.786.754-.067.873-.028,1.754-.011,2.632.006.317-.093.459-.416.419a2.055,2.055,0,0,0-.245,0q-13.074,0-26.147.014c-.545,0-.7-.135-.666-.672.048-.875.036-1.756,0-2.632-.015-.423.14-.517.527-.507.918.023,1.837.015,2.756.005.786-.008,1.036-.258,1.1-1.058.662.357,1.372.075,2.055.158a.521.521,0,0,0,.546-.157" transform="translate(-3.63 -31.339)" fill="#fa8176"/>
        <path id="Trazado_167264" data-name="Trazado 167264" d="M23.724,95.86c-3.635,0-7.269-.008-10.9.01-.463,0-.622-.09-.618-.594q.038-4.9,0-9.8c0-.476.112-.611.6-.61q11,.025,21.991-.006c.671,0,.555.344.591.746.043.487-.079.659-.616.652-2.43-.033-4.859-.016-7.289-.014-1.388,0-1.938.546-1.941,1.916q0,1.838,0,3.675c0,1.32.542,1.868,1.849,1.87,2.47,0,4.941.012,7.411-.009.441,0,.635.082.585.564-.052.5.158,1.183-.1,1.479-.3.348-1,.113-1.519.115-3.349.01-6.7.005-10.046.005" transform="translate(-5.225 -36.334)" fill="#feb889"/>
        <path id="Trazado_167265" data-name="Trazado 167265" d="M53.369,78.426c0,2.657,0,5.208,0,7.759a3.943,3.943,0,0,0,.042.731.825.825,0,0,0,.87.707.834.834,0,0,0,.879-.7,2.613,2.613,0,0,0,.043-.547q0-5.421,0-10.841c0-.623-.1-1.16-.862-1.243-.257-.027-.205-.209-.209-.36-.007-.327,0-.653,0-.98a1.612,1.612,0,0,0-1.782-1.786q-2.572-.016-5.145,0c-.347,0-.548-.01-.544-.469,0-.439.2-.429.517-.429q7.718.009,15.436-.006c.4,0,.49.122.529.5.461,4.485.988,8.963,1.4,13.453.151,1.661.031,3.346.05,5.02,0,.3-.093.379-.384.379q-5.911-.012-11.822,0c-.317,0-.42-.089-.419-.413q.015-5.084,0-10.168c0-.325.1-.437.419-.412a1.724,1.724,0,0,0,.984-.2" transform="translate(-19.98 -30.085)" fill="#c6fefc"/>
        <path id="Trazado_167266" data-name="Trazado 167266" d="M59.831,28.791c-.126-.646-.563-.824-1.165-.823-3.716.008-7.431,0-11.148.015-.467,0-.614-.1-.6-.592.033-1.734.009-3.47.014-5.205a2.147,2.147,0,0,1,2.359-2.354c4.186-.007,8.371.007,12.557-.015.472,0,.574.172.62.582a9.091,9.091,0,0,0,2.655,5.444,3.442,3.442,0,0,1,.321,2.017c-.088.173-.245.109-.374.111-.531.007-1.061.005-1.593,0a.935.935,0,0,0-1.042.82,2.488,2.488,0,0,1-2.6,0" transform="translate(-20.087 -8.485)" fill="#c6fefc"/>
        <path id="Trazado_167267" data-name="Trazado 167267" d="M59.732,35.512a6.16,6.16,0,0,0,2.6,0c.092.789.341,1.012,1.147,1.018.429,0,.858-.01,1.286.006.188.007.483-.117.538.128a2.67,2.67,0,0,1-.007.967c-.024.156-.242.1-.379.1-.592.006-1.184-.009-1.776.007a1.683,1.683,0,0,0-1.685,2c.363,3.345.7,6.693,1.053,10.04.115,1.1.228,2.191.359,3.285.044.362-.039.5-.441.5q-7.627-.02-15.254,0c-.363,0-.514-.077-.489-.471a14.227,14.227,0,0,0,0-1.653c-.03-.57.209-.71.759-.705,3.349.025,6.7.014,10.046.011,1.427,0,2.049-.623,2.05-2.052q0-3.829,0-7.657c0-1.56-.6-2.162-2.137-2.163-3.308,0-6.617-.012-9.924.011-.527,0-.691-.178-.66-.668a7.238,7.238,0,0,0,0-1.163c-.044-.451.146-.534.556-.532,3.737.014,7.474.01,11.211.007.805,0,1.055-.23,1.147-1.017" transform="translate(-19.987 -15.205)" fill="#0480be"/>
        <path id="Trazado_167268" data-name="Trazado 167268" d="M50.7,52.746c.883-1.556.86-6.5-.075-8.142h.613c2.549,0,5.1.008,7.646-.009.4,0,.521.1.518.508-.018,2.406-.012,4.811-.005,7.218,0,.3,0,.489-.4.487-2.732-.017-5.464-.01-8.2-.013-.032,0-.065-.032-.1-.049" transform="translate(-21.674 -19.094)" fill="#75e9e6"/>
        <path id="Trazado_167269" data-name="Trazado 167269" d="M85.922,96.8c1.387,0,2.775.016,4.161-.01.436-.008.612.081.595.564-.039,1.039-.023,2.08-.006,3.12.006.348-.063.508-.464.506q-4.284-.023-8.568,0c-.372,0-.437-.148-.432-.472.015-1.081.022-2.162,0-3.243-.009-.391.136-.476.495-.472,1.407.017,2.815.007,4.222.007" transform="translate(-34.769 -41.441)" fill="#88c847"/>
        <path id="Trazado_167270" data-name="Trazado 167270" d="M59.457,6.638c-1.448,0-2.9-.011-4.346.007-.383.005-.543-.082-.527-.5.032-.815.025-1.632,0-2.447-.01-.361.079-.5.471-.493q4.438.024,8.876,0c.329,0,.477.069.467.436-.024.856-.024,1.714,0,2.57.011.375-.153.433-.475.431-1.489-.012-2.979-.005-4.468-.005" transform="translate(-23.371 -1.371)" fill="#0480be"/>
        <path id="Trazado_167271" data-name="Trazado 167271" d="M42.676,94.275c-1.143,0-2.287-.013-3.429.007-.371.007-.54-.05-.523-.485.037-.937.024-1.878,0-2.816-.007-.343.038-.508.454-.5,2.367.021,4.736.015,7.1,0,.333,0,.466.073.457.436q-.036,1.469,0,2.939c.01.367-.125.432-.454.427-1.2-.018-2.409-.007-3.613-.007" transform="translate(-16.58 -38.74)" fill="#fefefe"/>
        <path id="Trazado_167272" data-name="Trazado 167272" d="M84.622,5.712a7.49,7.49,0,1,1-7.472,7.476,7.473,7.473,0,0,1,7.472-7.476" transform="translate(-33.033 -2.446)" fill="#fec402"/>
        <path id="Trazado_167273" data-name="Trazado 167273" d="M83.626,42.607c2.446,0,4.892,0,7.338.006.218,0,.62-.152.51.329-.071.31.144.8-.53.8q-7.307-.029-14.615,0c-.736,0-.461-.511-.526-.842-.09-.465.3-.281.484-.281,2.446-.013,4.892-.009,7.338-.009" transform="translate(-32.451 -18.231)" fill="#88c847"/>
        <path id="Trazado_167274" data-name="Trazado 167274" d="M60.689,14.774c-.9,0-1.8-.012-2.694.006-.333.007-.489-.072-.457-.437.057-.642-.263-1.482.133-1.873.314-.311,1.157-.094,1.766-.1,1.327-.006,2.653.016,3.979-.013.418-.009.525.13.5.519a9.528,9.528,0,0,0,0,1.346c.031.416-.089.575-.534.558-.9-.033-1.8-.01-2.693-.01" transform="translate(-24.607 -5.268)" fill="#a1f7f7"/>
        <path id="Trazado_167275" data-name="Trazado 167275" d="M90.332,65.391c0,1.45.006,2.9,0,4.348a1.518,1.518,0,0,1-1.686,1.713q-1.684.018-3.368,0a1.544,1.544,0,0,1-1.688-1.727q-.011-4.379,0-8.758a1.576,1.576,0,0,1,1.734-1.76q1.654-.027,3.307,0a1.542,1.542,0,0,1,1.7,1.714c.009,1.49,0,2.98,0,4.471" transform="translate(-35.788 -25.345)"/>
        <path id="Trazado_167276" data-name="Trazado 167276" d="M87.741,53.353c.469,0,.938-.013,1.406,0a.913.913,0,1,1,0,1.825c-.937.022-1.874.02-2.811,0a.916.916,0,1,1,0-1.828c.468-.014.937,0,1.406,0" transform="translate(-36.547 -22.842)"/>
        <path id="Trazado_167277" data-name="Trazado 167277" d="M27.506,42.5c-.8.625-1.532,1.21-2.279,1.775a2.069,2.069,0,0,0-.889,1.961c.084.831.166,1.666.309,2.488.074.427-.014.543-.438.478-.745-.113-1.5-.169-2.243-.3a2.212,2.212,0,0,0-2.3.918c-.555.729-1.127,1.444-1.731,2.218-.576-.736-1.136-1.423-1.663-2.133a2.285,2.285,0,0,0-2.445-.991c-.7.133-1.416.174-2.122.279-.382.057-.559,0-.486-.455.126-.785.186-1.579.3-2.366A2.088,2.088,0,0,0,10.7,44.32c-.637-.509-1.276-1.017-1.937-1.5-.323-.233-.391-.373-.021-.636.649-.459,1.265-.964,1.893-1.451a2.148,2.148,0,0,0,.875-2.144c-.118-.806-.186-1.62-.3-2.427-.047-.347.052-.409.391-.359.846.128,1.7.214,2.55.306a2.1,2.1,0,0,0,2.018-.9c.493-.65,1.014-1.279,1.5-1.934.208-.281.327-.265.527,0,.474.638.989,1.247,1.461,1.886a2.179,2.179,0,0,0,2.179.936c.829-.106,1.662-.182,2.489-.308.327-.05.39.03.343.337-.112.725-.179,1.457-.3,2.181A2.392,2.392,0,0,0,25.4,40.873c.711.5,1.383,1.061,2.109,1.623" transform="translate(-3.636 -14.162)" fill="#fec402"/>
        <path id="Trazado_167278" data-name="Trazado 167278" d="M18.631,94.466c1,0,2-.005,3,0,.677.005,1.072.343,1.078.9a.943.943,0,0,1-1.058.934q-3.029.015-6.058,0c-.664,0-1.051-.377-1.041-.944s.392-.884,1.081-.889c1-.007,2,0,3,0" transform="translate(-6.23 -40.447)"/>
        <path id="Trazado_167279" data-name="Trazado 167279" d="M23.132,89.542c.447,0,.894-.017,1.34,0a.907.907,0,0,1,.049,1.813c-.953.034-1.909.034-2.863,0a.89.89,0,0,1-.874-.917.92.92,0,0,1,.946-.9c.041,0,.081,0,.122,0h1.28v0" transform="translate(-8.9 -38.337)" fill="#010000"/>
        <path id="Trazado_167280" data-name="Trazado 167280" d="M16.039,89.545c.2,0,.407-.015.608,0a.848.848,0,0,1,.855.854.832.832,0,0,1-.757.944,6.026,6.026,0,0,1-1.336.019.91.91,0,0,1,.021-1.818c.2-.015.405,0,.608,0" transform="translate(-6.229 -38.338)" fill="#010100"/>
        <path id="Trazado_167281" data-name="Trazado 167281" d="M64.7,83.953q0-2.751,0-5.5c0-.746.3-1.132.882-1.149.606-.018.953.39.954,1.147q0,5.532,0,11.065c0,.7-.363,1.136-.921,1.137s-.912-.427-.914-1.135q-.005-2.782,0-5.563" transform="translate(-27.701 -33.098)"/>
        <path id="Trazado_167282" data-name="Trazado 167282" d="M72.811,84.008c0,1.817,0,3.634,0,5.451,0,.765-.344,1.2-.921,1.189s-.914-.453-.915-1.213q0-5.482,0-10.964c0-.061,0-.122,0-.184.042-.628.391-.994.938-.988s.891.362.894,1.011c.01,1.9,0,3.8,0,5.7" transform="translate(-30.389 -33.098)" fill="#000101"/>
        <path id="Trazado_167283" data-name="Trazado 167283" d="M91.946,13.694A6.858,6.858,0,1,1,85.141,6.81a6.889,6.889,0,0,1,6.805,6.884" transform="translate(-33.496 -2.916)"/>
        <path id="Trazado_167284" data-name="Trazado 167284" d="M86.795,66.66c0-1.243.014-2.485-.008-3.727-.007-.383.072-.546.5-.526.732.034,1.466.021,2.2,0,.286-.006.391.077.39.377q-.015,3.91,0,7.82c0,.274-.053.4-.364.391q-1.161-.032-2.322,0c-.341.01-.4-.13-.4-.431.014-1.3.006-2.607.006-3.91" transform="translate(-37.159 -26.721)" fill="#fefefe"/>
        <path id="Trazado_167285" data-name="Trazado 167285" d="M19.741,43.751a3.775,3.775,0,0,1-.055.472,2.417,2.417,0,0,1-2.859,2.083A2.806,2.806,0,0,1,15,42.843a2.428,2.428,0,0,1,2.624-1.971,2.688,2.688,0,0,1,2.113,2.879" transform="translate(-6.383 -17.493)"/>
        <path id="Trazado_167286" data-name="Trazado 167286" d="M29.046,48.619a2.645,2.645,0,0,1,2.407,3.022,3.681,3.681,0,0,1-.132.658,2.421,2.421,0,0,1-2.678,1.814,2.763,2.763,0,0,1-2.016-2.968,2.565,2.565,0,0,1,2.419-2.525" transform="translate(-11.395 -20.817)"/>
        <path id="Trazado_167287" data-name="Trazado 167287" d="M25.837,42.131c-.059.156-.123.371-.217.571q-1.734,3.671-3.478,7.339c-.3.639-.8.866-1.321.627s-.65-.765-.339-1.42c1.168-2.465,2.345-4.925,3.513-7.39a.945.945,0,0,1,1.1-.662.957.957,0,0,1,.745.937" transform="translate(-8.699 -17.628)"/>
        <path id="Trazado_167288" data-name="Trazado 167288" d="M86.452,10.023a4.994,4.994,0,0,1,5.033,5,5.02,5.02,0,1,1-5.033-5" transform="translate(-34.872 -4.292)" fill="#fbda67"/>
        <path id="Trazado_167289" data-name="Trazado 167289" d="M19.306,45.009c-.051.4-.1.906-.6.894-.452-.011-.547-.488-.539-.889s.058-.913.584-.9c.465.014.517.491.56.893" transform="translate(-7.776 -18.889)" fill="#fbfbfb"/>
        <path id="Trazado_167290" data-name="Trazado 167290" d="M31.039,52.748c-.091.42-.123.921-.593.924-.512,0-.591-.511-.59-.913,0-.379.074-.87.56-.879.544-.01.5.535.623.868" transform="translate(-12.783 -22.213)" fill="#f7f7f7"/>
        <path id="Trazado_167291" data-name="Trazado 167291" d="M87.44,16.823c.428,0,.857,0,1.285,0,.222,0,.425-.078.41-.342-.013-.234-.212-.266-.407-.266-.49,0-.98.006-1.47,0a2.2,2.2,0,0,1-2.34-1.953,2.123,2.123,0,0,1,1.81-2.307c.269-.063.3-.187.329-.409a.837.837,0,0,1,.9-.816.827.827,0,0,1,.887.759c.048.314.142.437.485.447a.875.875,0,0,1,.935.908.916.916,0,0,1-.961.906c-.571.026-1.144-.015-1.714.017-.286.017-.794-.2-.794.279,0,.508.523.3.834.325.427.029.857,0,1.285.011a2.128,2.128,0,0,1,.477,4.191c-.277.072-.523.1-.616.467a.77.77,0,0,1-.8.547.781.781,0,0,1-.852-.563c-.088-.379-.3-.365-.574-.359A2.3,2.3,0,0,1,86,18.635a.86.86,0,0,1-.766-.949.83.83,0,0,1,.86-.851c.448-.024.9,0,1.347,0Z" transform="translate(-36.353 -4.592)"/>
      </g>
    </g>
  </g>
</svg>
