<svg xmlns="http://www.w3.org/2000/svg" xmlns:xlink="http://www.w3.org/1999/xlink" width="105" height="105" viewBox="0 0 105 105">
  <defs>
    <clipPath id="clip-path">
      <rect id="Rectángulo_43333" data-name="Rectángulo 43333" width="69.631" height="58.764" fill="none"/>
    </clipPath>
  </defs>
  <g id="Grupo_170719" data-name="Grupo 170719" transform="translate(-433.326 -839)">
    <path id="Trazado_160852" data-name="Trazado 160852" d="M52.5,0A52.5,52.5,0,1,1,0,52.5,52.5,52.5,0,0,1,52.5,0Z" transform="translate(433.326 839)" fill="#a6bbff"/>
    <g id="Grupo_170973" data-name="Grupo 170973" transform="translate(451.326 862)">
      <g id="Grupo_170973-2" data-name="Grupo 170973" transform="translate(0 0)" clip-path="url(#clip-path)">
        <path id="Trazado_166757" data-name="Trazado 166757" d="M69.632,53.046c-.232.143-.164.406-.219.607a6.773,6.773,0,0,1-6.575,5.1c-3.875.024-7.749.007-11.624.007q-22.058,0-44.115,0A6.806,6.806,0,0,1,.217,53.615,7.353,7.353,0,0,1,0,51.733Q0,29.368.006,7a6.78,6.78,0,0,1,6.981-7Q17.693-.009,28.4,0c1.072,0,1.487.339,1.688,1.356a1.235,1.235,0,0,1-.948,1.471,4.058,4.058,0,0,1-1.282.109q-10.161,0-20.325,0c-.317,0-.634-.009-.951.017A3.856,3.856,0,0,0,2.954,6.626c-.018.249-.014.5-.014.748V38.237c0,1.261,0,1.262,1.277,1.262H65.462c1.23,0,1.231,0,1.231-1.233q0-15.431,0-30.863c0-.227,0-.453-.009-.68A3.857,3.857,0,0,0,63.01,2.959c-.339-.027-.679-.017-1.019-.017H41.8a5.124,5.124,0,0,1-1.084-.055,1.336,1.336,0,0,1-1.153-1.523C39.828.315,40.21,0,41.264,0q10.725,0,21.449,0a6.741,6.741,0,0,1,6.808,5.7c.011.054.073.1.11.147Z" transform="translate(0 0)"/>
        <path id="Trazado_166758" data-name="Trazado 166758" d="M42.185,2.677c.268,1.069.645,1.361,1.771,1.361H65.028c2.85,0,4.5,1.659,4.5,4.518q0,15.873.013,31.746c0,.574-.1.747-.723.747q-31.37-.03-62.74,0c-.647,0-.753-.2-.753-.784q.026-15.873.013-31.746A4.108,4.108,0,0,1,9.816,4.039q10.6,0,21.208,0c1.069,0,1.483-.342,1.685-1.363l3.357,0c.232.164.275.454.45.661a1.127,1.127,0,0,0,1.985-.17c.1-.172.125-.391.327-.493l3.358,0" transform="translate(-2.621 -1.315)" fill="#fe7c94"/>
        <path id="Trazado_166759" data-name="Trazado 166759" d="M68.554,1.366c-.175.883-.626,1.341-1.338,1.359s-1.191-.434-1.424-1.358c.233-.927.7-1.373,1.423-1.355s1.165.475,1.339,1.354" transform="translate(-32.348 -0.006)" fill="#010101"/>
        <path id="Trazado_166760" data-name="Trazado 166760" d="M37.431,83.47q15.7,0,31.408-.013c.55,0,.714.1.707.687-.035,2.855-.013,5.711-.017,8.566a4.1,4.1,0,0,1-4.389,4.36q-27.7,0-55.405,0A4.1,4.1,0,0,1,5.34,92.649c0-2.833.018-5.666-.015-8.5-.007-.569.137-.7.7-.694q15.7.028,31.408.014" transform="translate(-2.618 -41.033)" fill="#e1e6ee"/>
        <path id="Trazado_166761" data-name="Trazado 166761" d="M54.827,34.016c0-1.36-.014-2.72,0-4.08A3.838,3.838,0,0,1,60.6,26.518q3.658,2.008,7.227,4.177a3.812,3.812,0,0,1,.023,6.6q-3.587,2.2-7.285,4.212A3.834,3.834,0,0,1,54.83,38.1c-.018-1.36,0-2.72,0-4.08" transform="translate(-26.954 -12.782)"/>
        <path id="Trazado_166762" data-name="Trazado 166762" d="M64.587,94.183H80.969a6.17,6.17,0,0,1,.679.011,1.355,1.355,0,0,1,0,2.7,5.45,5.45,0,0,1-.612.011h-32.9a5.45,5.45,0,0,1-.612-.011,1.355,1.355,0,0,1,0-2.7,6.3,6.3,0,0,1,.679-.011H64.587" transform="translate(-22.761 -46.305)"/>
        <path id="Trazado_166763" data-name="Trazado 166763" d="M18.725,92.907A4.078,4.078,0,1,1,22.754,97a4.076,4.076,0,0,1-4.029-4.089" transform="translate(-9.206 -43.679)"/>
        <path id="Trazado_166764" data-name="Trazado 166764" d="M60.179,36.646c0-1.313-.007-2.626,0-3.939a1.16,1.16,0,0,1,1.874-1.1q3.411,1.947,6.8,3.929a1.169,1.169,0,0,1,0,2.213q-3.392,1.982-6.8,3.929a1.162,1.162,0,0,1-1.877-1.094c-.009-1.313,0-2.626,0-3.939" transform="translate(-29.587 -15.424)" fill="#fefefe"/>
        <path id="Trazado_166765" data-name="Trazado 166765" d="M26.79,95.553a1.382,1.382,0,0,1-1.4,1.353,1.357,1.357,0,0,1,.076-2.712,1.382,1.382,0,0,1,1.322,1.359" transform="translate(-11.839 -46.312)" fill="#ceabe2"/>
      </g>
    </g>
  </g>
</svg>
