<svg xmlns="http://www.w3.org/2000/svg" width="105" height="105" viewBox="0 0 105 105">
  <g id="Grupo_170719" data-name="Grupo 170719" transform="translate(-433.326 -839)">
    <path id="Trazado_160852" data-name="Trazado 160852" d="M52.5,0A52.5,52.5,0,1,1,0,52.5,52.5,52.5,0,0,1,52.5,0Z" transform="translate(433.326 839)" fill="#a6bbff"/>
    <g id="Grupo_170981" data-name="Grupo 170981" transform="translate(447.792 858.02)">
      <g id="Grupo_170983" data-name="Grupo 170983" transform="translate(0 0)">
        <path id="Trazado_166937" data-name="Trazado 166937" d="M37.688,0Q53.681,0,69.674,0A5.163,5.163,0,0,1,75.09,4.035a7.187,7.187,0,0,1,.121,1.6q.009,20.478,0,40.956c0,3.5-2.083,5.59-5.556,5.6-.422,0-.955-.142-1.239.06-.342.242.031.756.049,1.155a4.023,4.023,0,0,1-2.219,3.873,3.9,3.9,0,0,1-4.471-.678c-1.35-1.281-2.653-2.612-3.961-3.937a1.414,1.414,0,0,0-1.1-.484q-4.316.032-8.631,0c-.533,0-.729.116-.716.69.038,1.72.033,3.441,0,5.161-.009.513.122.7.656.664.759-.047,1.523,0,2.284-.017.5-.013.738.2.723.7a2.9,2.9,0,0,0,0,.339c.058.666-.3,1.551.154,1.939.383.327,1.238.116,1.884.117q6.3.007,12.608,0a3.6,3.6,0,0,1,.756.04.475.475,0,0,1,.412.551.455.455,0,0,1-.463.411c-.225.008-.451.013-.677.013q-27.924,0-55.848-.008c-.427,0-1.13.24-1.129-.485,0-.688.683-.516,1.132-.517,4.513-.009,9.026-.019,13.539.01.636,0,.859-.155.791-.8-.056-.53,0-1.07-.013-1.607-.007-.491.206-.72.715-.708.818.019,1.636-.01,2.453.011.364.01.492-.109.49-.479q-.021-2.792,0-5.585c0-.329-.118-.461-.443-.437-.2.015-.395,0-.592,0q-10.662,0-21.323,0a5.125,5.125,0,0,1-5.351-4,6.759,6.759,0,0,1-.124-1.51Q0,26.117,0,5.555C0,2.11,2.133.005,5.618,0Q21.652,0,37.688,0" transform="translate(0 0)" fill="#231f20"/>
        <path id="Trazado_166938" data-name="Trazado 166938" d="M43.157,94.9q12.223,0,24.446.009c.429,0,1.129-.241,1.141.475.011.692-.67.53-1.12.53q-24.53.009-49.061,0a4.187,4.187,0,0,1-.674-.031.486.486,0,0,1-.451-.523.469.469,0,0,1,.511-.456c.254,0,.508-.008.761-.008H43.157" transform="translate(-5.325 -28.972)" fill="#262223"/>
        <path id="Trazado_166939" data-name="Trazado 166939" d="M96.285,95.931c-.421,0-.843.013-1.263,0-.344-.013-.624-.172-.611-.55.011-.335.27-.461.589-.461.9,0,1.8,0,2.694,0a.474.474,0,0,1,.528.434.5.5,0,0,1-.507.558c-.474.034-.953.009-1.43.009Z" transform="translate(-28.831 -28.986)" fill="#2a2627"/>
        <path id="Trazado_166940" data-name="Trazado 166940" d="M5.6,89.946c-.447,0-.895,0-1.341,0-.317,0-.547-.129-.559-.481a.457.457,0,0,1,.46-.5c.949-.027,1.9-.025,2.848-.006a.457.457,0,0,1,.472.488c0,.347-.214.5-.538.5-.447.007-.894,0-1.341,0" transform="translate(-1.129 -27.161)" fill="#282425"/>
        <path id="Trazado_166941" data-name="Trazado 166941" d="M100.974,89.944H99.717c-.317,0-.56-.119-.576-.467a.481.481,0,0,1,.519-.533c.922-.016,1.845-.019,2.766.007a.477.477,0,0,1,.495.556.464.464,0,0,1-.52.433c-.475.006-.95,0-1.425,0v0" transform="translate(-30.275 -27.158)" fill="#282425"/>
        <path id="Trazado_166942" data-name="Trazado 166942" d="M10.936,94.922c.451,0,.9-.01,1.353,0a.488.488,0,0,1,.04.975q-1.436.038-2.872,0a.489.489,0,0,1,.042-.977c.479-.011.958,0,1.437,0" transform="translate(-2.75 -28.986)" fill="#292627"/>
        <path id="Trazado_166943" data-name="Trazado 166943" d="M73.015,49.912c-1.165.29-2.358-.017-3.519.146a3.979,3.979,0,0,1-3.728-1.535c-2.047-2.214-4.246-4.288-6.384-6.417a3.922,3.922,0,0,0-5.2-.836.505.505,0,0,1-.709-.143c-1.032-1.043-2.063-2.085-3.115-3.107-.285-.277-.291-.451-.02-.751a12.936,12.936,0,0,0,3.019-5.686c.124-.508.387-.593.837-.589,2.2.015,4.4-.019,6.6.02.791.015,1.123-.215,1.08-1.054-.061-1.182-.055-2.37,0-3.552.035-.8-.211-1.1-1.047-1.081-2.142.05-4.287-.007-6.429.032-.635.011-.908-.142-1.093-.8A13.735,13.735,0,0,0,26.8,24.472a1,1,0,0,1-1.193.889c-2.114-.047-4.231.013-6.345-.033-.8-.017-1.127.226-1.094,1.056.051,1.239.035,2.482,0,3.722-.017.657.241.908.893.9,2.2-.019,4.4.017,6.6-.022.636-.011.926.148,1.107.8a13.732,13.732,0,0,0,22.016,7.007c.381-.31.579-.374.945.013.967,1.025,1.974,2.014,2.987,3a.606.606,0,0,1,.131.861,3.961,3.961,0,0,0,.805,5.01c.731.737,1.476,1.461,2.2,2.174-.143.283-.335.192-.486.192q-22.97.006-45.941,0c-.2,0-.392-.025-.589-.038a.755.755,0,0,1-.4-.7,6.3,6.3,0,0,1-.026-.76q0-17.33.007-34.661c0-.512-.151-1.093.386-1.477a8.769,8.769,0,0,1,1.771-.017q29.241-.009,58.481-.009a2.462,2.462,0,0,0,1.316-.151c-.019-.314-.267-.26-.437-.281a10.164,10.164,0,0,0-1.268-.029q-28.775,0-57.549,0a13.266,13.266,0,0,0-2.19.141c-.319-.017-.421-.257-.441-.506a4.589,4.589,0,0,1,.119-2.2c.474-.292.557.184.746.4a1.752,1.752,0,0,0,2.019.666,1.722,1.722,0,0,0,1.161-1.78,1.581,1.581,0,0,0-1.166-1.577,1.843,1.843,0,0,0-1.986.587c-.208.222-.25.664-.71.588A2.593,2.593,0,0,1,8.839,5.6c.253-.011.506-.031.759-.031q30.646,0,61.294,0c.253,0,.506.019.759.031.417.485.27,1.075.27,1.622q.014,19.494.007,38.986c0,.563.04,1.131-.009,1.69-.082.933.011,1.734,1.1,2.018" transform="translate(-2.562 -1.699)" fill="#f36275"/>
        <path id="Trazado_166944" data-name="Trazado 166944" d="M66.35,49.794c1.357,0,2.6.009,3.836,0A2.329,2.329,0,0,0,72.8,47.179q.009-20.649,0-41.3a2.32,2.32,0,0,0-2.628-2.59q-32.118-.005-64.234,0A2.336,2.336,0,0,0,3.287,5.948q-.007,20.566,0,41.131c0,1.873.863,2.715,2.763,2.715,15.684,0,31.369.031,47.054-.043a3.782,3.782,0,0,1,3.434,1.75c-.164.24-.41.115-.608.115-16.615.007-33.231-.014-49.847.026A4.412,4.412,0,0,1,1.42,46.952q.1-20.437,0-40.876A4.41,4.41,0,0,1,6.048,1.434q31.989.048,63.98.019c2.953,0,4.6,1.657,4.6,4.616q0,20.48,0,40.96c0,2.959-1.639,4.579-4.623,4.591h-.169c-2.06,0-2.06,0-3.488-1.827" transform="translate(-0.434 -0.438)" fill="#63bbe6"/>
        <path id="Trazado_166945" data-name="Trazado 166945" d="M35.6,32.518A12.761,12.761,0,1,1,48.343,45.256,12.785,12.785,0,0,1,35.6,32.518" transform="translate(-10.871 -6.023)" fill="#f7ae23"/>
        <path id="Trazado_166946" data-name="Trazado 166946" d="M7.98,5.6a5.542,5.542,0,0,0-.025,2.665.65.65,0,0,1,.01,1.013,6.089,6.089,0,0,0-.013,2.71.312.312,0,0,1,.028.506c-.248.262-.144.588-.145.887q-.007,17.819,0,35.638A1.641,1.641,0,0,0,7.976,50a8.058,8.058,0,0,1-1.178.023,1.222,1.222,0,0,1-1.215-1.264c-.009-.282-.008-.563-.008-.845V7.857c0-2.123.283-2.389,2.405-2.259" transform="translate(-1.702 -1.701)" fill="#f33075"/>
        <path id="Trazado_166947" data-name="Trazado 166947" d="M100.826,49.912c-1.472-.076-1.364.32-1.364-1.431q0-21.443,0-42.885a7.7,7.7,0,0,1,1.011-.017,1.235,1.235,0,0,1,1.237,1.245c.009.14.009.281.01.422q0,20.54,0,41.079c0,.7-.024,1.382-.9,1.587" transform="translate(-30.373 -1.7)" fill="#f38775"/>
        <path id="Trazado_166948" data-name="Trazado 166948" d="M78.011,57.859a2.483,2.483,0,0,1,1.257.815Q84.515,63.9,89.754,69.128a2.948,2.948,0,0,1,.836,3.1,2.572,2.572,0,0,1-2.11,1.954A1.359,1.359,0,0,1,87.8,73.7Q82.493,68.4,77.19,63.084a3.639,3.639,0,0,1-.2-4.774,1.03,1.03,0,0,1,1.016-.451" transform="translate(-23.269 -17.664)" fill="#f7ae23"/>
        <path id="Trazado_166949" data-name="Trazado 166949" d="M59.835,82.447c-1.064.019-2.129.056-3.193.055Q50.7,82.5,44.769,82.471a1.175,1.175,0,0,1-.278-.941c-.017-.7-.02-1.408,0-2.112.03-1.118.288-1.364,1.427-1.4.141,0,.282,0,.422,0q6.041,0,12.082,0a5.375,5.375,0,0,1,.927.044c.335.059.574.2.558.6-.047,1.263.081,2.529-.072,3.79" transform="translate(-13.582 -23.823)" fill="#f7ae23"/>
        <path id="Trazado_166950" data-name="Trazado 166950" d="M58.929,81.571c0-1.157-.024-2.313,0-3.469.01-.5-.142-.7-.671-.695q-6.812.024-13.624,0c-.592,0-.8.222-.786.8.029,1.128.013,2.257.015,3.385-2.343.152-2.343.152-2.343-2.153,0-1.184.019-2.367-.008-3.55-.013-.517.1-.754.69-.751,5.383.02,10.765.013,16.147.009.395,0,.715-.008.709.553-.022,1.888,0,3.776-.009,5.664,0,.069-.077.137-.119.2" transform="translate(-12.676 -22.946)" fill="#f77023"/>
        <path id="Trazado_166951" data-name="Trazado 166951" d="M39.412,85.966c2.929-.012,5.858-.031,8.788-.034,4.31-.006,8.622.036,12.931-.03,1.013-.015.805.545.826,1.105.022.586.076,1.026-.828,1.02C54.114,87.982,47.1,88,40.083,88c-.224,0-.449-.026-.673-.04a1.794,1.794,0,0,1,0-1.995" transform="translate(-11.943 -26.233)" fill="#63bbe6"/>
        <path id="Trazado_166952" data-name="Trazado 166952" d="M77.052,57.786c-1.777.71-2.222,3.527-.758,5q5.264,5.3,10.558,10.567c.237.238.447.5.67.752a2.565,2.565,0,0,1-2.781-.7Q79.3,68.033,73.905,62.6a2.961,2.961,0,0,1-.388-3.661,2.918,2.918,0,0,1,3.535-1.154" transform="translate(-22.31 -17.591)" fill="#f77023"/>
        <path id="Trazado_166953" data-name="Trazado 166953" d="M27.529,39.076c-1.013,0-2.027-.014-3.04.006-.424.009-.647-.117-.586-.572a.679.679,0,0,0,0-.084c.018-.953-.321-2.194.152-2.78.5-.615,1.789-.167,2.733-.193,1.182-.033,2.365.011,3.547-.017.517-.013.755.077.694.686a13.119,13.119,0,0,0,0,2.277c.038.517-.085.706-.625.686-.956-.037-1.914-.01-2.871-.01" transform="translate(-7.269 -10.786)" fill="#63bbe6"/>
        <path id="Trazado_166954" data-name="Trazado 166954" d="M77.192,35.5c.986,0,1.973.02,2.959-.009.464-.014.655.108.633.607-.038.815-.029,1.634,0,2.451.014.434-.126.593-.574.589q-3-.028-6,0c-.44,0-.614-.123-.549-.58a9.089,9.089,0,0,0,0-2.528c-.056-.408.083-.547.5-.538,1.014.023,2.029.008,3.044.008" transform="translate(-22.488 -10.837)" fill="#63bbe6"/>
        <path id="Trazado_166955" data-name="Trazado 166955" d="M38.54,85.979q0,1,0,1.995a11.015,11.015,0,0,0-1.26.048c-.817.121-1.074-.183-1.017-1.005.085-1.223-.113-1.059,1.1-1.07.392,0,.785.021,1.177.033" transform="translate(-11.071 -26.246)" fill="#6377e6"/>
        <path id="Trazado_166956" data-name="Trazado 166956" d="M25.874,55.158c1.036,1.29,1.036,1.29-.171,2.5-.458.458-.95.89-1.368,1.383-.524.62-.992.658-1.506.013a3.9,3.9,0,0,0-.42-.4c-.07.053-.144.081-.146.113-.093,1.532-.092,1.532-1.679,1.533-.677,0-1.358-.044-2.03.01-.84.069-1.233-.224-1.106-1.1a3.38,3.38,0,0,0,0-.488.208.208,0,0,0-.308.053c-1.043,1.163-1.107.905-2.035-.02-.54-.538-1.054-1.1-1.623-1.607s-.721-.972-.038-1.5c.159-.124.385-.249.368-.519-1.617-.254-1.617-.254-1.617-1.978,0-.621.043-1.245-.011-1.861-.072-.822.25-1.159,1.065-1.047a3.843,3.843,0,0,0,.536,0c.026-.1.048-.139.038-.152-.982-1.275-.982-1.275.158-2.413.479-.478.992-.928,1.43-1.441.5-.59.941-.631,1.445-.026.133.159.255.374.513.39C17.6,45,17.6,45,19.343,45c.621,0,1.246.047,1.861-.012.834-.078,1.139.265,1.05,1.066-.02.179-.078.39.074.557.06,0,.128.013.162-.014,1.208-.963,1.207-.964,2.339.172.458.459.919.916,1.376,1.377.742.747.741.808.019,1.555-.132.136-.256.279-.386.422.076.06.113.116.151.117,1.517.051,1.517.05,1.517,1.612,0,.734-.041,1.47.011,2.2.056.79-.261,1.086-1.03,1-.193-.02-.444-.122-.613.107" transform="translate(-3.719 -13.734)" fill="#231f20"/>
        <path id="Trazado_166957" data-name="Trazado 166957" d="M9.025,15.175c-.01-.169-.019-.338-.028-.506A1.129,1.129,0,0,1,10,14.355h60.16a3.629,3.629,0,0,1,.507.019c.311.044.538.2.513.55-.021.306-.233.431-.52.442-.2.007-.395.006-.591.006H10.079a1.486,1.486,0,0,1-1.054-.2" transform="translate(-2.747 -4.384)" fill="#252021"/>
        <path id="Trazado_166958" data-name="Trazado 166958" d="M26.383,9.245a1.989,1.989,0,1,1-3.978,0,1.989,1.989,0,1,1,3.978,0" transform="translate(-6.842 -2.212)" fill="#241f20"/>
        <path id="Trazado_166959" data-name="Trazado 166959" d="M9.011,9.779,9,8.766c.557-1.247,1.515-1.786,2.571-1.448a1.951,1.951,0,0,1,1.4,1.976,1.939,1.939,0,0,1-1.507,1.891A1.972,1.972,0,0,1,9.282,10.3c-.1-.165-.181-.349-.271-.524" transform="translate(-2.749 -2.205)" fill="#241f20"/>
        <path id="Trazado_166960" data-name="Trazado 166960" d="M17.714,7.244a2.025,2.025,0,0,1,1.981,2,2.02,2.02,0,1,1-4.039.007,2.024,2.024,0,0,1,2.058-2.008" transform="translate(-4.781 -2.212)" fill="#241f20"/>
        <path id="Trazado_166961" data-name="Trazado 166961" d="M39.456,33.632a10.2,10.2,0,1,1,10.219,10.2,10.247,10.247,0,0,1-10.219-10.2" transform="translate(-12.049 -7.139)" fill="#231f20"/>
        <path id="Trazado_166962" data-name="Trazado 166962" d="M15.709,55.264a.831.831,0,0,0-1.044-.788c-.911.151-1.141-.268-1.015-1.07a2.762,2.762,0,0,0,0-.422c0-1.188,0-1.2,1.2-1.273a.791.791,0,0,0,.771-.53.84.84,0,0,0-.186-1c-.791-.867-.78-.877.024-1.68a2.627,2.627,0,0,0,.3-.3c.506-.712,1.011-.888,1.577-.052a.782.782,0,0,0,1.041.275.769.769,0,0,0,.524-.936c-.172-.945.29-1.17,1.111-1.045a1.625,1.625,0,0,0,.506,0c.865-.14,1.341.1,1.164,1.088a.775.775,0,0,0,.574.911.747.747,0,0,0,.967-.273c.541-.778,1.054-.764,1.579.01a2.325,2.325,0,0,0,.3.3c.841.841.85.849.071,1.695a.787.787,0,0,0-.213.977.85.85,0,0,0,.843.554c1.136.042,1.135.058,1.135,1.182a3.517,3.517,0,0,0,0,.506c.121.8-.11,1.236-1.022,1.075a.833.833,0,0,0-.985.593.767.767,0,0,0,.339,1.016c.745.524.644.989-.028,1.468a2.041,2.041,0,0,0-.241.237c-.9.9-.907.908-1.872.1a.725.725,0,0,0-.845-.156c-.333.144-.6.318-.605.721a5.216,5.216,0,0,0,0,.675c.055.5-.181.654-.64.607-.2-.019-.394,0-.591,0a3.327,3.327,0,0,1-1.332-.063c-.449-.227-.156-.808-.2-1.231s-.3-.561-.622-.711c-.381-.179-.632-.007-.9.235-.859.777-.864.772-1.7-.059a2.239,2.239,0,0,0-.3-.3c-.756-.52-.817-1.032-.022-1.58a.726.726,0,0,0,.336-.758" transform="translate(-4.159 -14.172)" fill="#f7ae23"/>
        <path id="Trazado_166963" data-name="Trazado 166963" d="M24.837,8.692a.938.938,0,0,1,.972.954.969.969,0,1,1-1.934.007.938.938,0,0,1,.961-.961" transform="translate(-7.291 -2.655)" fill="#f06173"/>
        <path id="Trazado_166964" data-name="Trazado 166964" d="M12.412,9.629c-.034.711-.408,1.076-1.015,1.059a.9.9,0,0,1-.931-.982.9.9,0,0,1,1-.986.919.919,0,0,1,.943.91" transform="translate(-3.196 -2.663)" fill="#f06173"/>
        <path id="Trazado_166965" data-name="Trazado 166965" d="M18.134,8.686a.972.972,0,0,1,.983,1.054.989.989,0,0,1-1.978-.058.964.964,0,0,1,.995-1" transform="translate(-5.234 -2.653)" fill="#ee6072"/>
        <path id="Trazado_166966" data-name="Trazado 166966" d="M50.141,33.412c2.62,0,5.24.014,7.86-.011a.8.8,0,0,1,.939.688,9.769,9.769,0,0,1-.024,5.251.709.709,0,0,1-.82.61q-7.986-.03-15.973,0c-.549,0-.722-.217-.849-.684a9.73,9.73,0,0,1-.008-5.169.794.794,0,0,1,.93-.7c2.648.026,5.3.012,7.944.012" transform="translate(-12.496 -10.2)" fill="#63bbe6"/>
        <path id="Trazado_166967" data-name="Trazado 166967" d="M42.616,44.321H58.589c-.539,2.239-4.246,4.713-7.307,4.877-3.727.2-7.653-2-8.665-4.877" transform="translate(-13.014 -13.535)" fill="#f36275"/>
        <path id="Trazado_166968" data-name="Trazado 166968" d="M42.608,29.723c1.123-2.738,4.62-4.864,7.967-4.885s6.9,2.109,8.033,4.826c-.652.142-14.329.2-16,.058" transform="translate(-13.012 -7.585)" fill="#f36275"/>
        <path id="Trazado_166969" data-name="Trazado 166969" d="M21.982,51.828a2.912,2.912,0,1,1-2.949,2.836,2.872,2.872,0,0,1,2.949-2.836" transform="translate(-5.812 -15.827)" fill="#241f20"/>
        <path id="Trazado_166973" data-name="Trazado 166973" d="M22.362,57.074a1.89,1.89,0,1,1,1.919-1.807,1.829,1.829,0,0,1-1.919,1.807" transform="translate(-6.26 -16.275)" fill="#f36174"/>
        <path id="Trazado_166974" data-name="Trazado 166974" d="M57.988,37.41a.821.821,0,0,1,.028-.222c.214-.4.212-.952.712-1.131.188-.067.747,1.232.615,1.532-.172.394-.34,1.124-.642,1.052-.474-.113-.588-.781-.713-1.232" transform="translate(-17.708 -11.01)" fill="#61b8e2"/>
      </g>
    </g>
  </g>
</svg>
