<svg id="Grupo_170952" data-name="Grupo 170952" xmlns="http://www.w3.org/2000/svg" xmlns:xlink="http://www.w3.org/1999/xlink" width="90" height="90" viewBox="0 0 90 90">
  <defs>
    <clipPath id="clip-path">
      <rect id="Rectángulo_43329" data-name="Rectángulo 43329" width="54.812" height="60.531" fill="none"/>
    </clipPath>
  </defs>
  <circle id="Elipse_4780" data-name="Elipse 4780" cx="45" cy="45" r="45" fill="#c4d1ff"/>
  <g id="Grupo_170954" data-name="Grupo 170954" transform="translate(18 15)">
    <g id="Grupo_170953" data-name="Grupo 170953" transform="translate(0 0)" clip-path="url(#clip-path)">
      <path id="Trazado_166686" data-name="Trazado 166686" d="M59.236,32.826a10.1,10.1,0,0,0-2.726,1.089,7.878,7.878,0,0,0-2.176,1.812l-.492-.607a9.084,9.084,0,0,1,2.329-.908,3.492,3.492,0,0,1,1.345-.062,1.52,1.52,0,0,1,1.163.94,2.284,2.284,0,0,1-.657,2.5,3.319,3.319,0,0,1-2.255.921,3.575,3.575,0,0,0,1.9-1.238,1.794,1.794,0,0,0,.345-1.894c-.216-.545-.941-.531-1.666-.369a10.143,10.143,0,0,0-2.126.8l-.022.011a.395.395,0,0,1-.471-.618,7.2,7.2,0,0,1,2.534-1.791,7.384,7.384,0,0,1,2.971-.594" transform="translate(-10.835 -6.632)" fill="#450d20"/>
      <path id="Trazado_166687" data-name="Trazado 166687" d="M53.681,28.086a3.814,3.814,0,0,0-4.3-2.694,3.292,3.292,0,0,0-.551.225c.253-6.127-.641-12.836-4.9-16.536-9.161-7.965-22.3-5.178-25.092,1.992-2.167,5.568-2.94,12.036-3.171,18.337-.1,2.684-.111,5.345-.08,7.885,0,.271.008.534.008.8a10.353,10.353,0,0,0,.431,3.361c1.449,4.118,7.32,6.66,11.287,7.48a16.73,16.73,0,0,0,14.235-3.6,18.5,18.5,0,0,0,6.1-10.384,8.153,8.153,0,0,0,2.482-.246,6.358,6.358,0,0,0,2.889-2.413,5.053,5.053,0,0,0,.654-4.2" transform="translate(-3.147 -0.861)" fill="#fa9778"/>
      <path id="Trazado_166688" data-name="Trazado 166688" d="M15.594,43.632a4.114,4.114,0,0,0,1.044.136,4.07,4.07,0,1,0,0-8.141,3.844,3.844,0,0,0-.964.119c-.1,2.684-.112,5.346-.08,7.886" transform="translate(-3.147 -7.198)" fill="#fa8864"/>
      <path id="Trazado_166689" data-name="Trazado 166689" d="M45.347,39.7a4.073,4.073,0,1,1-4.073-4.073A4.073,4.073,0,0,1,45.347,39.7" transform="translate(-7.516 -7.198)" fill="#fa8864"/>
      <path id="Trazado_166690" data-name="Trazado 166690" d="M24.1,30.216c0,1.33-.527,2.408-1.176,2.408s-1.176-1.078-1.176-2.408.527-2.408,1.176-2.408S24.1,28.887,24.1,30.216" transform="translate(-4.394 -5.618)" fill="#450d20"/>
      <path id="Trazado_166691" data-name="Trazado 166691" d="M20.208,26.8A3.449,3.449,0,0,0,21,27.83a2.8,2.8,0,0,0,1.231.637l.02,0a.436.436,0,1,0,.08-.859,2.542,2.542,0,0,1-1.886-.955l-.009-.01a.14.14,0,0,0-.231.156" transform="translate(-4.08 -5.374)" fill="#450d20"/>
      <path id="Trazado_166692" data-name="Trazado 166692" d="M34.513,30.216c0,1.33.527,2.408,1.176,2.408s1.176-1.078,1.176-2.408-.527-2.408-1.176-2.408-1.176,1.079-1.176,2.408" transform="translate(-6.973 -5.618)" fill="#450d20"/>
      <path id="Trazado_166693" data-name="Trazado 166693" d="M38.1,26.657a2.539,2.539,0,0,1-1.886.955.435.435,0,1,0,.078.86l.022-.006a2.8,2.8,0,0,0,1.231-.637,3.439,3.439,0,0,0,.8-1.028.14.14,0,0,0-.231-.155Z" transform="translate(-7.226 -5.374)" fill="#450d20"/>
      <path id="Trazado_166694" data-name="Trazado 166694" d="M24.07,39.956a5.765,5.765,0,0,0,1.773,2.016,4.5,4.5,0,0,0,2.633.875,4.559,4.559,0,0,0,2.62-.9,8.572,8.572,0,0,0,1.015-.9c.277-.357.547-.713.79-1.082-.363.266-.694.549-1.028.823-.37.225-.7.5-1.076.69a4.849,4.849,0,0,1-2.325.661,4.736,4.736,0,0,1-2.336-.63,10.134,10.134,0,0,1-2.068-1.544" transform="translate(-4.863 -8.072)" fill="#450d20"/>
      <path id="Trazado_166695" data-name="Trazado 166695" d="M28.052,45.306a1.937,1.937,0,0,0,1.238.42,2.027,2.027,0,0,0,1.239-.42,6.4,6.4,0,0,1-1.24.139,5.347,5.347,0,0,1-1.238-.139" transform="translate(-5.668 -9.153)" fill="#450d20"/>
      <path id="Trazado_166696" data-name="Trazado 166696" d="M33.238,20.189a2.8,2.8,0,0,1,1.823-.675A5.646,5.646,0,0,1,37,19.789a4.752,4.752,0,0,1,1.709.979,4.976,4.976,0,0,1,1.167,1.5.563.563,0,0,1-.872.688l-.048-.044a6.971,6.971,0,0,0-1.162-.922,4.084,4.084,0,0,0-1.282-.527,5,5,0,0,0-1.389-.135,5.33,5.33,0,0,1-1.486-.085l-.148-.037a.59.59,0,0,1-.432-.713.582.582,0,0,1,.181-.3" transform="translate(-6.675 -3.942)" fill="#9c3900"/>
      <path id="Trazado_166697" data-name="Trazado 166697" d="M24.221,20.189a2.8,2.8,0,0,0-1.823-.675,5.652,5.652,0,0,0-1.941.275,4.752,4.752,0,0,0-1.709.979,4.976,4.976,0,0,0-1.167,1.5.563.563,0,0,0,.873.688l.047-.044a6.97,6.97,0,0,1,1.162-.922,4.084,4.084,0,0,1,1.282-.527,5,5,0,0,1,1.39-.135,5.326,5.326,0,0,0,1.485-.085l.148-.037a.59.59,0,0,0,.432-.713.582.582,0,0,0-.181-.3" transform="translate(-3.538 -3.942)" fill="#9c3900"/>
      <path id="Trazado_166698" data-name="Trazado 166698" d="M28.876,26.216c-.208.907-.361,1.808-.529,2.7s-.338,1.778-.591,2.621c-.058.212-.124.421-.2.622a2.225,2.225,0,0,0-.2.777,1.566,1.566,0,0,0,.844,1.428,1.9,1.9,0,0,0,1.535.082,3.749,3.749,0,0,0,1.216-.727c-.845.317-1.831.565-2.425.116a.929.929,0,0,1-.417-.859,1.741,1.741,0,0,1,.176-.535q.136-.338.239-.68a12.847,12.847,0,0,0,.441-2.771,14.677,14.677,0,0,0-.085-2.776" transform="translate(-5.526 -5.296)" fill="#450d20"/>
      <path id="Trazado_166699" data-name="Trazado 166699" d="M59.236,32.826a10.1,10.1,0,0,0-2.726,1.089,7.878,7.878,0,0,0-2.176,1.812l-.492-.607a9.084,9.084,0,0,1,2.329-.908,3.492,3.492,0,0,1,1.345-.062,1.52,1.52,0,0,1,1.163.94,2.284,2.284,0,0,1-.657,2.5,3.319,3.319,0,0,1-2.255.921,3.575,3.575,0,0,0,1.9-1.238,1.794,1.794,0,0,0,.345-1.894c-.216-.545-.941-.531-1.666-.369a10.143,10.143,0,0,0-2.126.8l-.022.011a.395.395,0,0,1-.471-.618,7.2,7.2,0,0,1,2.534-1.791,7.384,7.384,0,0,1,2.971-.594" transform="translate(-10.835 -6.632)" fill="#450d20"/>
      <path id="Trazado_166700" data-name="Trazado 166700" d="M49.03,67.747c-3.146-7.966.779-23.31,1.129-25.365.016-.072.025-.136.041-.207l-21.348,12a5.663,5.663,0,0,1,.646,2.35v.008a26.01,26.01,0,0,1-.463,6.532,60.972,60.972,0,0,1-1.377,5.982Z" transform="translate(-5.588 -8.521)" fill="#fa9778"/>
      <path id="Trazado_166701" data-name="Trazado 166701" d="M29.384,65.091C40.99,66.556,46.869,52.7,47.083,52.178A13.685,13.685,0,0,1,38.8,58.12a22.726,22.726,0,0,1-8.881.454c-.024-.008-.048-.008-.072-.016a26.007,26.007,0,0,1-.462,6.532" transform="translate(-5.937 -10.542)" fill="#450d20"/>
      <path id="Trazado_166702" data-name="Trazado 166702" d="M44.572,33.861S35.144,49.578,36.43,51.487,42.218,49.777,44,49.323s10.528-.018,10.8-9.662S52.5-1.7,37.234,3.925c0,0-2.632-6.73-13.979-2.565S12.78,11.8,8.7,18.34-6.081,38.01,4.612,43.449c0,0-3.113,2.248-.754,4.4s16.418,6.364,20,3.667a18.685,18.685,0,0,0,.048-3.506S15.7,46.238,13.143,41.214c0,0-.713-.86-.627-12.378,0,0,.567-9.762,1.644-13.566,0,0,12.649-1.282,18.138-4.473s6.365,2.608,5.327,6.139c-2.637,8.978,1.617,12.53,4.809,9.679,0,0,3.769-3.3,6.255-1.684,2.292,1.487,2.925,4.482.439,7.351a5.072,5.072,0,0,1-2.17,1.518,3.8,3.8,0,0,1-2.385.06" transform="translate(0 0)" fill="#9c3900"/>
    </g>
  </g>
</svg>
