<svg xmlns="http://www.w3.org/2000/svg" xmlns:xlink="http://www.w3.org/1999/xlink" width="295" height="255.779" viewBox="0 0 295 255.779">
  <defs>
    <clipPath id="clip-path">
      <rect id="Rectángulo_43547" data-name="Rectángulo 43547" width="285.934" height="243.982" fill="none"/>
    </clipPath>
    <clipPath id="clip-path-3">
      <rect id="Rectángulo_43540" data-name="Rectángulo 43540" width="9.997" height="11.017" fill="none"/>
    </clipPath>
    <clipPath id="clip-path-4">
      <rect id="Rectángulo_43541" data-name="Rectángulo 43541" width="5.28" height="2.791" fill="none"/>
    </clipPath>
    <clipPath id="clip-path-5">
      <rect id="Rectángulo_43542" data-name="Rectángulo 43542" width="5.316" height="3.572" fill="none"/>
    </clipPath>
    <clipPath id="clip-path-6">
      <rect id="Rectángulo_43543" data-name="Rectángulo 43543" width="4.623" height="3.369" fill="none"/>
    </clipPath>
    <clipPath id="clip-path-7">
      <rect id="Rectángulo_43544" data-name="Rectángulo 43544" width="4.85" height="2.49" fill="none"/>
    </clipPath>
    <clipPath id="clip-path-8">
      <rect id="Rectángulo_43545" data-name="Rectángulo 43545" width="56.14" height="42.519" fill="none"/>
    </clipPath>
  </defs>
  <g id="Grupo_171254" data-name="Grupo 171254" transform="translate(-495 -1561)">
    <g id="Grupo_171253" data-name="Grupo 171253" transform="translate(495 1561)">
      <rect id="Rectángulo_34437" data-name="Rectángulo 34437" width="295" height="255.779" rx="6" fill="#3c3fa7"/>
    </g>
    <g id="Grupo_171287" data-name="Grupo 171287" transform="translate(500.251 1566.653)">
      <g id="Grupo_171307" data-name="Grupo 171307" clip-path="url(#clip-path)">
        <g id="Grupo_171306" data-name="Grupo 171306">
          <g id="Grupo_171305" data-name="Grupo 171305" clip-path="url(#clip-path)">
            <path id="Trazado_168750" data-name="Trazado 168750" d="M448.149,64.475l-1.963,154.652a1.115,1.115,0,0,1-1.115,1.1H230.146a1.115,1.115,0,0,1-1.115-1.129l1.963-154.624Z" transform="translate(-162.381 -45.712)" fill="#e0d0b6"/>
            <path id="Trazado_168751" data-name="Trazado 168751" d="M272.148,330l-.941,74.1H230.146a1.115,1.115,0,0,1-1.115-1.129l1-79.15Z" transform="translate(-162.381 -229.59)" fill="#cfad7a"/>
            <path id="Trazado_168752" data-name="Trazado 168752" d="M297.7,261.259,297,316.83l-15.966,14.9.726-57.177H232.7l.169-13.291Z" transform="translate(-164.981 -185.23)" fill="#cfad7a"/>
            <path id="Trazado_168753" data-name="Trazado 168753" d="M266.224,347.791a.944.944,0,0,1-1.06.914c-.2-.033-.412-.056-.612-.089q-16.177-2.325-32.376-4.638l.022-1.684q16.728,2.408,33.433,4.794a.625.625,0,0,1,.583.624.164.164,0,0,1,.01.078" transform="translate(-164.611 -242.683)" fill="#e0d0b6"/>
            <path id="Trazado_168754" data-name="Trazado 168754" d="M342.991,359.586l-.88,69.3h-1.672l.88-69.3a.841.841,0,0,1,1.653-.189.168.168,0,0,1,.01.078.343.343,0,0,1,.01.111" transform="translate(-241.368 -254.367)" fill="#e0d0b6"/>
            <path id="Trazado_168755" data-name="Trazado 168755" d="M417.154,263.443l-.027,2.13q-7.974,6.339-15.938,12.677l.027-2.13q7.958-6.339,15.939-12.678" transform="translate(-284.439 -186.779)" fill="#e0d0b6"/>
            <path id="Trazado_168756" data-name="Trazado 168756" d="M534.772,303.071l-.921,72.564H352.709s-.386-23.158,3.331-32.245,11.224-19.9,25.741-27.786,39.653-16.134,62.033-22.478,51.414-9.779,63.251-9.433,20.185,4.114,27.707,19.379" transform="translate(-250.06 -201.118)" fill="#fff0f0"/>
            <path id="Trazado_168757" data-name="Trazado 168757" d="M835.936,511.171l4.142,19.94c.217,1.042,1.823.6,1.606-.441l-4.142-19.94c-.217-1.042-1.822-.6-1.606.441" transform="translate(-592.657 -361.681)" fill="#c29e8c"/>
            <path id="Trazado_168758" data-name="Trazado 168758" d="M530.122,573.42h-1.684c-.684-3.245-1.356-6.5-2.028-9.745-.221-1.048,1.379-1.483,1.6-.446.7,3.4,1.408,6.79,2.112,10.191" transform="translate(-373.205 -398.904)" fill="#c29e8c"/>
            <path id="Trazado_168759" data-name="Trazado 168759" d="M882.844,511.147l-.022,1.739q-18.348,5.335-36.685,10.682c-.213.067-.437.122-.649.189-1.03.3-1.444-1.3-.426-1.605.246-.067.481-.145.727-.212q18.533-5.385,37.054-10.793" transform="translate(-598.726 -362.399)" fill="#c29e8c"/>
            <path id="Trazado_168760" data-name="Trazado 168760" d="M588.875,357.117c-.137.212-.284.423-.421.636-3.251,4.861-7.324,9.555-12.4,12.532-2.707,1.583-6.014,2.955-7.037-.725-1.248-4.482-1.52-9.388-2-14-.337-3.323-.651-6.645-.877-9.968l1.579-.535c.447,6.946,1.117,13.915,2.245,20.75.165,1.037.183,3.167.863,4.025,1.043,1.316,3.765-.569,5-1.338,4.754-2.977,8.581-7.56,11.617-12.209a.809.809,0,0,1,.7-.39h.045a.462.462,0,0,1,.123.011.786.786,0,0,1,.565,1.216" transform="translate(-401.39 -244.64)" fill="#c29e8c"/>
            <path id="Trazado_168761" data-name="Trazado 168761" d="M668.748,330.488c-.88,4.36-7.114,3.535-10.351,2.955-6.352-1.159-12.558-4.159-18.366-6.9-.244-.122-.487-.234-.72-.346-.831-.379-.3-1.494.454-1.516a.446.446,0,0,1,.123.011.7.7,0,0,1,.278.078c3.99,1.884,8.071,3.635,12.21,5.173,3.484,1.283,7.194,2.464,10.965,2.252,3.035-.178,3.814-.936,3.948-3.59a46.7,46.7,0,0,0-.292-6.835c-.528-5.8-1.47-11.573-2.557-17.294-.2-1.048-.408-2.1-.629-3.133.548-.1,1.1-.212,1.632-.312.158.747.3,1.494.451,2.241.984,5.062,1.811,10.158,2.426,15.287.443,3.791,1.213,8.117.428,11.93" transform="translate(-452.966 -213.428)" fill="#c29e8c"/>
            <path id="Trazado_168762" data-name="Trazado 168762" d="M681.485,437l-.189,14.855a1.115,1.115,0,0,1-1.115,1.1H588.4s-22.638-20.75-25.02-22.869-2.955-3.5-2.676-5.263c.363-2.275,1.874-3.546,4.154-3.089,2.2.446,12.442,7.113,13.084,7.526-.76-.691-12.93-11.685-14.431-13.814-1.545-2.2-2.446-4.984.671-7.237,1.706-1.232,3.806.2,4.191.494l.1-.007c.32-.393.937-1.335.937-1.335a.663.663,0,0,1-.088-.089c-.484-.524-2.89-3.356-1.25-6.01.876-1.416,3.046-1.918,4.756-1.372,2.31.747,17.047,15.008,17.047,15.008s-8.893-12.633-9.9-15.376-.437-5.062,1.428-6.2c2.6-1.572,5.538.279,6.523,1.739C589.051,396.7,601.5,413.7,601.5,413.7s3.557-9.712,5.661-12.889,5.5-.859,6.222,0,.288,7.2-.105,10.893,1.61,15.521,1.61,15.521l30.371,19.39h.011Z" transform="translate(-397.491 -278.438)" fill="#f59c73"/>
            <path id="Trazado_168763" data-name="Trazado 168763" d="M864.481,582.824h-3.088q-4.927-3.178-9.865-6.344l2.17-.58,10.783,6.924" transform="translate(-603.725 -408.308)" fill="#b35546"/>
            <path id="Trazado_168764" data-name="Trazado 168764" d="M575.053,291.506s1.761,8.223,7.038,11.483,13.416,3.945,22.567-.772,12-13.122,11.816-18.7L613.257,270Z" transform="translate(-407.707 -191.426)" fill="#f59c73"/>
            <path id="Trazado_168765" data-name="Trazado 168765" d="M552.816,114.488h0a25.005,25.005,0,0,1,26.595,23.783l.942,19.322a25.778,25.778,0,0,1-24.124,26.9,25.005,25.005,0,0,1-26.595-23.783l-.942-19.322a25.778,25.778,0,0,1,24.124-26.9" transform="translate(-374.817 -81.136)" fill="#f59c73"/>
            <path id="Trazado_168766" data-name="Trazado 168766" d="M591.9,302.293a.5.5,0,0,0-.334-.123H578.643a.767.767,0,0,0-.4.17l-.008.008a.461.461,0,0,0-.138.528c2.35,6.923,11.361,6.518,14,0a.437.437,0,0,0-.194-.583" transform="translate(-409.844 -214.236)" fill="#b35546"/>
            <path id="Trazado_168767" data-name="Trazado 168767" d="M561.773,228.354a8.185,8.185,0,0,1-.139,3.265,1.99,1.99,0,0,1-3.832-.319,8.4,8.4,0,0,1,.05-3.146,1.987,1.987,0,0,1,3.92.2" transform="translate(-395.389 -160.638)" fill="#2f2031"/>
            <path id="Trazado_168768" data-name="Trazado 168768" d="M628.963,228.354a8.19,8.19,0,0,1-.139,3.265,1.99,1.99,0,0,1-3.832-.319,8.4,8.4,0,0,1,.05-3.146,1.987,1.987,0,0,1,3.921.2" transform="translate(-443.026 -160.638)" fill="#2f2031"/>
            <path id="Trazado_168769" data-name="Trazado 168769" d="M620.425,206.188c2.39-.568,4.33-.721,6.5.54,1.045.609,2.044-1.007,1-1.617-2.612-1.521-5.023-1.446-7.922-.757a.942.942,0,0,0,.43,1.834" transform="translate(-439.072 -144.552)" fill="#3e2a43"/>
            <path id="Trazado_168770" data-name="Trazado 168770" d="M555.986,206.188c-2.375-.568-4.311-.721-6.509.54a.939.939,0,0,1-.956-1.617c2.651-1.521,5.06-1.446,7.941-.757a.948.948,0,0,1-.476,1.834" transform="translate(-388.568 -144.552)" fill="#3e2a43"/>
            <path id="Trazado_168771" data-name="Trazado 168771" d="M524.733,91.518s-1.227,6.576,5.956,8.291,12.239-.229,16.731-2.744,12.654-8.439,14.741-8.119,3.41,1.6,2.772,6.862,4.614,26.415,4.614,26.415,4.544-27.1,5.1-34.992-2.089-12.28-8.637-13.266c0,0,1.425-4.16-1.286-6.819-1.874-1.838-4.365-2.961-14.923-2.337-11.13.658-26.113,7.584-31.6,13.845s-5.526,18.873.537,34.482c0,0,.909-13.24,5.99-21.617" transform="translate(-364.523 -45.825)" fill="#3e2a43"/>
            <path id="Trazado_168772" data-name="Trazado 168772" d="M684.735,216.151a8.245,8.245,0,0,1-8.222,8.119,8,8,0,0,1-8.016-8.119,8.245,8.245,0,0,1,8.223-8.119,8,8,0,0,1,8.016,8.119" transform="translate(-473.958 -147.493)" fill="#f59c73"/>
            <path id="Trazado_168773" data-name="Trazado 168773" d="M525.487,218.131a10.385,10.385,0,0,1-7.189-2.916,11.984,11.984,0,0,1-3.668-8.134c-.345-6.53,4.315-12.212,10.389-12.666a10.361,10.361,0,0,1,7.97,2.887,11.977,11.977,0,0,1,3.668,8.134,12.5,12.5,0,0,1-2.783,8.615,10.846,10.846,0,0,1-7.605,4.051c-.261.02-.522.029-.781.029m.292-22.072q-.335,0-.672.025a9.325,9.325,0,0,0-6.533,3.48,10.744,10.744,0,0,0-2.392,7.4,10.3,10.3,0,0,0,3.151,6.987,8.935,8.935,0,0,0,6.848,2.48,9.317,9.317,0,0,0,6.533-3.48,10.74,10.74,0,0,0,2.392-7.4,10.289,10.289,0,0,0-3.151-6.987,8.927,8.927,0,0,0-6.177-2.506" transform="translate(-364.856 -137.818)" fill="#ffd373"/>
            <path id="Trazado_168774" data-name="Trazado 168774" d="M610.2,211.911a11.706,11.706,0,0,1-11.7-11.051,12.054,12.054,0,0,1,11.181-12.666,11.693,11.693,0,0,1,12.526,11.02,12.053,12.053,0,0,1-11.181,12.667q-.417.03-.829.029m.3-22.073q-.359,0-.722.025a10.356,10.356,0,0,0-9.606,10.882,10.051,10.051,0,0,0,10.762,9.469,10.358,10.358,0,0,0,9.605-10.883,10.043,10.043,0,0,0-10.039-9.493" transform="translate(-424.32 -133.408)" fill="#ffd373"/>
            <path id="Trazado_168775" data-name="Trazado 168775" d="M586.225,225.127l4-.277c1.06-.074,1.089-1.734.021-1.659l-4,.277c-1.06.074-1.09,1.734-.021,1.659" transform="translate(-415.07 -158.238)" fill="#ffd373"/>
            <path id="Trazado_168776" data-name="Trazado 168776" d="M720,525.817l-20.452,21.5h15.21l14.212-15.775Z" transform="translate(-495.973 -372.8)" fill="#b36152"/>
            <path id="Trazado_168777" data-name="Trazado 168777" d="M722.293,561.273a10.211,10.211,0,0,1-.842,3.947H702.619a10.072,10.072,0,0,1-.741-3.947,10.365,10.365,0,0,1,10.332-10.2,10.055,10.055,0,0,1,10.084,10.2" transform="translate(-497.625 -390.704)" fill="#fff0f0"/>
            <path id="Trazado_168778" data-name="Trazado 168778" d="M729.356,570.3l-.844.509-3.691,2.225-3.731-6.189a.837.837,0,0,0-1.432.863l4.162,6.9a.762.762,0,0,0,.45.349.612.612,0,0,0,.067.027c.022,0,.042,0,.064.007a.762.762,0,0,0,.567-.1l4.407-2.657.844-.509a.837.837,0,0,0-.863-1.432" transform="translate(-510.142 -401.61)" fill="#c29e8c"/>
            <path id="Trazado_168779" data-name="Trazado 168779" d="M675.945,208.246l5.314-3.744c.871-.614.061-2.053-.819-1.433l-5.313,3.743c-.871.614-.061,2.053.819,1.433" transform="translate(-478.393 -143.867)" fill="#ffd373"/>
            <path id="Trazado_168780" data-name="Trazado 168780" d="M602.256,458.027c-5.1-4.683-9.725-8.926-14.828-13.62.306-.357.977-1.383.977-1.383,5.169,4.761,9.868,9.06,15.048,13.821.793.736-.414,1.907-1.2,1.182" transform="translate(-416.481 -314.1)" fill="#b35546"/>
            <path id="Trazado_168781" data-name="Trazado 168781" d="M582.02,242.062c-.561,1.684-1.058,3.38-1.456,5.108a14.892,14.892,0,0,0-.773,4.283c.2,2.036,3.3,2.76,4.925,3.1,1.048.22,1.517-1.392.465-1.613-.881-.185-2.4-.377-3.021-1.06-.936-1.036-.412-2.319-.167-3.469a55.15,55.15,0,0,1,1.634-5.9c.342-1.028-1.267-1.467-1.607-.445" transform="translate(-411.054 -171.208)" fill="#b35546"/>
            <path id="Trazado_168782" data-name="Trazado 168782" d="M605.549,329.365a24.658,24.658,0,0,1-15.935,7.176l-.971.056a24.055,24.055,0,0,1-13.574-3.133s.2.914.651,2.252a25.81,25.81,0,0,0,11.351,2.609c.546,0,1.1-.022,1.651-.056l.971-.056a26.359,26.359,0,0,0,16.882-7.532c.784-.786-.338-1.963-1.026-1.316" transform="translate(-407.719 -233.384)" fill="#b35546"/>
            <path id="Trazado_168783" data-name="Trazado 168783" d="M452.932,18.764H235.776l.17-13.259A5.575,5.575,0,0,1,241.52,0h206A5.575,5.575,0,0,1,453.1,5.646Z" transform="translate(-167.163 -0.001)" fill="#fff0f0"/>
            <path id="Trazado_168784" data-name="Trazado 168784" d="M358.881,22.306a4.077,4.077,0,1,1-4.077-4.077,4.077,4.077,0,0,1,4.077,4.077" transform="translate(-248.663 -12.924)" fill="#ffb357"/>
            <path id="Trazado_168785" data-name="Trazado 168785" d="M316.736,22.306a4.077,4.077,0,1,1-4.077-4.077,4.077,4.077,0,0,1,4.077,4.077" transform="translate(-218.783 -12.924)" fill="#ffb357"/>
            <path id="Trazado_168786" data-name="Trazado 168786" d="M274.589,22.306a4.077,4.077,0,1,1-4.077-4.077,4.077,4.077,0,0,1,4.077,4.077" transform="translate(-188.901 -12.924)" fill="#ffb357"/>
            <path id="Trazado_168787" data-name="Trazado 168787" d="M660.838,533.93a8.749,8.749,0,1,1,8.75-8.75,8.759,8.759,0,0,1-8.75,8.75m0-16.384a7.634,7.634,0,1,0,7.635,7.634,7.642,7.642,0,0,0-7.635-7.634" transform="translate(-462.325 -366.145)" fill="#fff0f0"/>
            <path id="Trazado_168788" data-name="Trazado 168788" d="M673.137,543.013h-4.161a.984.984,0,0,1-.984-.984v-2.883a.984.984,0,0,1,.984-.984h4.161a.984.984,0,0,1,.984.984v2.883a.984.984,0,0,1-.984.984" transform="translate(-473.601 -381.552)" fill="#fff0f0"/>
            <path id="Trazado_168789" data-name="Trazado 168789" d="M686.615,540.539,683.481,542a.329.329,0,0,0,0,.594l3.133,1.514a.328.328,0,0,0,.471-.3v-2.972a.328.328,0,0,0-.467-.3" transform="translate(-484.448 -383.216)" fill="#fff0f0"/>
            <path id="Trazado_168790" data-name="Trazado 168790" d="M593.629,522.737a8.192,8.192,0,1,1-11.056-3.462,8.192,8.192,0,0,1,11.056,3.462" transform="translate(-409.922 -367.498)" fill="#f78b6a"/>
            <path id="Trazado_168791" data-name="Trazado 168791" d="M599.637,535.792c-.64-.971-2.042-2.8-3.185-2.2l-7.115,3.722c-1.144.6-.441,2.793-.008,3.873.13.325.437.518.651.406l2.678-1.4c.192-.1.229-.41.083-.69l-.2-.386c-.147-.281-.11-.59.083-.69l2.87-1.5c.192-.1.467.045.614.326l.2.386c.147.281.422.426.614.326l2.678-1.4c.214-.112.23-.474.038-.766" transform="translate(-417.394 -378.227)" fill="#fff0f0"/>
            <path id="Trazado_168792" data-name="Trazado 168792" d="M509.193,533.93a8.749,8.749,0,1,1,8.749-8.75,8.76,8.76,0,0,1-8.749,8.75m0-16.384a7.634,7.634,0,1,0,7.634,7.634,7.643,7.643,0,0,0-7.634-7.634" transform="translate(-354.81 -366.145)" fill="#fff"/>
            <path id="Trazado_168793" data-name="Trazado 168793" d="M528.214,534.982a1.6,1.6,0,1,1-1.6-1.6,1.6,1.6,0,0,1,1.6,1.6" transform="translate(-372.228 -378.162)" fill="#fff"/>
            <path id="Trazado_168794" data-name="Trazado 168794" d="M523.507,548.811h-7.129a.786.786,0,0,1-.756-.972,4.425,4.425,0,0,1,8.653.078.767.767,0,0,1-.768.894" transform="translate(-365.557 -385.959)" fill="#fff"/>
            <rect id="Rectángulo_43539" data-name="Rectángulo 43539" width="7.599" height="11.536" transform="translate(133.672 151.735)" fill="#fff0f0"/>
            <path id="Trazado_168795" data-name="Trazado 168795" d="M168.24,445.261,166.8,558.819a.86.86,0,0,1-.861.849H.86A.86.86,0,0,1,0,558.8L1.44,445.261Z" transform="translate(0 -315.686)" fill="#8b6d60"/>
            <path id="Trazado_168796" data-name="Trazado 168796" d="M169.877,587.377H3.08l.033-2.581h166.8Z" transform="translate(-2.184 -414.615)" fill="#a88779"/>
            <path id="Trazado_168797" data-name="Trazado 168797" d="M127.638,723.779H1.349l.033-2.581H127.671Z" transform="translate(-0.957 -511.323)" fill="#a88779"/>
            <path id="Trazado_168798" data-name="Trazado 168798" d="M111.49,423.536h3.029l-.6,47.066h-3.029Z" transform="translate(-78.622 -300.283)" fill="#a88779"/>
            <path id="Trazado_168799" data-name="Trazado 168799" d="M399.04,423.536h3.029l-.6,47.066h-3.029Z" transform="translate(-282.492 -300.283)" fill="#a88779"/>
            <path id="Trazado_168800" data-name="Trazado 168800" d="M458.937,498.74l-.26,20.522H410.361l8.471-20.634h8.208l2.706-5.051h9.138l-.753,1.661h7.744l-.485,1.618h10.79l-.747,1.884Z" transform="translate(-290.943 -349.942)" fill="#a88779"/>
            <path id="Trazado_168801" data-name="Trazado 168801" d="M443.887,510.934q-4.4,10.313-8.823,20.634h-.93q4.416-10.325,8.832-20.634Z" transform="translate(-307.797 -362.248)" fill="#8b6d60"/>
            <path id="Trazado_168802" data-name="Trazado 168802" d="M481.74,499.285q-5.148,12.016-10.278,24.024h-.929q5.147-12.016,10.278-24.024Z" transform="translate(-333.604 -353.989)" fill="#8b6d60"/>
            <path id="Trazado_168803" data-name="Trazado 168803" d="M508.391,504.843q-4.789,11.2-9.586,22.406h-.92q4.789-11.2,9.586-22.406Z" transform="translate(-352.995 -357.929)" fill="#8b6d60"/>
            <path id="Trazado_168804" data-name="Trazado 168804" d="M544.788,511.319Q540.4,521.58,536,531.841h-.921l8.779-20.522Z" transform="translate(-379.367 -362.521)" fill="#8b6d60"/>
            <path id="Trazado_168805" data-name="Trazado 168805" d="M6.055,517.174,21.43,494.78l-6.919-4.148L3.37,506.225l-.139,10.95Z" transform="translate(-2.291 -347.854)" fill="#a88779"/>
            <path id="Trazado_168806" data-name="Trazado 168806" d="M62.25,478.91l-1.584,5.455-.9,3.1-5.57,19.18H39.638l10.889-30.865,6.519.972-.323,1.067h.017l.841.172,2.3.456.858.164Z" transform="translate(-28.103 -337.322)" fill="#a88779"/>
            <path id="Trazado_168807" data-name="Trazado 168807" d="M109.779,485.107l-.073,5.756-.9,3.1.114-9.018Z" transform="translate(-77.142 -343.821)" fill="#8b6d60"/>
            <path id="Trazado_168808" data-name="Trazado 168808" d="M78.061,482.958q-4.312,14.327-8.642,28.653h-.895q4.339-14.417,8.7-28.825Z" transform="translate(-48.584 -342.291)" fill="#8b6d60"/>
            <path id="Trazado_168809" data-name="Trazado 168809" d="M156.488,516.055H127.474l-5.684-15.187-.832-2.22-.466-1.248.484-.155.864-.284,3.932-1.274.829-.267h.008l-1.544-3.76,6.44-1.678.595,1.265.821-.275,5.8-1.919,2.043,4.475h.017l.837-.224,5.992-1.575Z" transform="translate(-85.427 -346.735)" fill="#a88779"/>
            <path id="Trazado_168810" data-name="Trazado 168810" d="M122.976,516.227l-.05,3.906-.832-2.22.018-1.4Z" transform="translate(-86.563 -366.001)" fill="#8b6d60"/>
            <path id="Trazado_168811" data-name="Trazado 168811" d="M148.338,531.569H147.4q-4.375-10.183-8.768-20.367l.829-.267q4.438,10.313,8.876,20.634" transform="translate(-98.29 -362.248)" fill="#8b6d60"/>
            <path id="Trazado_168812" data-name="Trazado 168812" d="M172,520.73h-.946q-5.328-12.4-10.673-24.807l.821-.275q5.391,12.546,10.8,25.082" transform="translate(-113.709 -351.41)" fill="#8b6d60"/>
            <path id="Trazado_168813" data-name="Trazado 168813" d="M200.838,526.411h-.946q-4.839-11.268-9.687-22.527l.837-.224q4.889,11.371,9.8,22.75" transform="translate(-134.854 -357.091)" fill="#8b6d60"/>
            <path id="Trazado_168814" data-name="Trazado 168814" d="M330.446,476.074l-.393,30.916H303.319l2.164-26.743h8.312l.065-1.721h7.865l-.029,2.254h5.1l.309-4.707Z" transform="translate(-215.051 -337.532)" fill="#a88779"/>
            <path id="Trazado_168815" data-name="Trazado 168815" d="M363.98,492.247q-.683,13.113-1.374,26.209h-.861q.7-13.1,1.374-26.209Z" transform="translate(-256.475 -348.999)" fill="#8b6d60"/>
            <path id="Trazado_168816" data-name="Trazado 168816" d="M333.706,490.414q-.7,13.384-1.406,26.743h-.861q.7-13.371,1.406-26.743Z" transform="translate(-234.987 -347.699)" fill="#8b6d60"/>
            <path id="Trazado_168817" data-name="Trazado 168817" d="M378.527,492.247q-.683,13.113-1.374,26.209h-.86q.7-13.1,1.374-26.209Z" transform="translate(-266.788 -348.999)" fill="#8b6d60"/>
            <path id="Trazado_168818" data-name="Trazado 168818" d="M470.923,685.493a3.508,3.508,0,0,1-.772.482,3.142,3.142,0,0,1-1.122.292,31.922,31.922,0,0,1-12.89-13.509c-4.358-9.173-1.583-35.3-.428-36.1s16.435,19.679,18.121,25.771c1.5,5.4,1.429,19.584-2.909,23.06" transform="translate(-321.721 -451.372)" fill="#a88779"/>
            <path id="Trazado_168819" data-name="Trazado 168819" d="M538.166,644.612l-.5,39.185s-10.174,17.915-12.872,14.249a1.946,1.946,0,0,1-.269-.482s-.091-.267-.223-.774a47.814,47.814,0,0,1-1.361-8.691c-.057-.912-.105-1.876-.127-2.891a56.944,56.944,0,0,1,.854-10.988c.2-1.136.434-2.289.715-3.468a56.627,56.627,0,0,1,2.154-7.021c5.4-14.266,11.627-19.119,11.627-19.119" transform="translate(-370.665 -457.024)" fill="#a88779"/>
            <path id="Trazado_168820" data-name="Trazado 168820" d="M486.366,809.554s-9.957-11.385-11.716-11.826-1.1,9.886.379,11.826Z" transform="translate(-335.775 -565.573)" fill="#a88779"/>
            <path id="Trazado_168821" data-name="Trazado 168821" d="M30.488,656.31H1.508l.323-25.418H4.653l.583,2.882.187.912H19.249l-.744-3.795h6.617Z" transform="translate(-1.069 -447.297)" fill="#a88779"/>
            <path id="Trazado_168822" data-name="Trazado 168822" d="M64.933,665.554h-.878q-2.328-10.8-4.656-21.623h.878q2.328,10.8,4.656,21.623" transform="translate(-42.113 -456.541)" fill="#8b6d60"/>
            <path id="Trazado_168823" data-name="Trazado 168823" d="M41.367,665.554h-.878q-2.328-10.8-4.656-21.623h.886q2.328,10.8,4.647,21.623" transform="translate(-25.405 -456.541)" fill="#8b6d60"/>
            <path id="Trazado_168824" data-name="Trazado 168824" d="M12.23,630.892l.583,2.882c-.2-.964-.414-1.919-.617-2.882Z" transform="translate(-8.647 -447.297)" fill="#8b6d60"/>
            <path id="Trazado_168825" data-name="Trazado 168825" d="M20.522,665.554h-.886q-2.315-10.8-4.647-21.623h.877q2.328,10.8,4.656,21.623" transform="translate(-10.626 -456.541)" fill="#8b6d60"/>
            <path id="Trazado_168826" data-name="Trazado 168826" d="M499.237,781.323H497.92a171.838,171.838,0,0,0-5.934-22.639c-.265-.792.987-1.127,1.252-.344a171.641,171.641,0,0,1,6,22.983" transform="translate(-348.788 -537.341)" fill="#a88779"/>
            <path id="Trazado_168827" data-name="Trazado 168827" d="M534.28,777.664a85.089,85.089,0,0,0-6.11,16.977h-1.308a87.56,87.56,0,0,1,6.307-17.631c.371-.749,1.473-.095,1.11.654" transform="translate(-373.541 -550.658)" fill="#a88779"/>
            <path id="Trazado_168828" data-name="Trazado 168828" d="M541.579,709.336l-.029,2.28c-4.875,9.241-10.036,22.613-13.1,32.319a1.94,1.94,0,0,1-.269-.482s-.091-.267-.222-.775a246.331,246.331,0,0,1,13.623-33.343" transform="translate(-374.316 -502.913)" fill="#8b6d60"/>
            <path id="Trazado_168829" data-name="Trazado 168829" d="M522.97,751.786c-.057-.912-.105-1.876-.127-2.891a46.988,46.988,0,0,0,.854-10.988c.2-1.136.433-2.289.715-3.468.322,5.843.315,11.745-1.442,17.347" transform="translate(-370.691 -520.711)" fill="#8b6d60"/>
            <path id="Trazado_168830" data-name="Trazado 168830" d="M490.424,740.887a3.516,3.516,0,0,1-.772.482,130.346,130.346,0,0,0-8.335-25.943c-.217-.5.528-.938.754-.43a130.7,130.7,0,0,1,8.353,25.891" transform="translate(-341.221 -506.765)" fill="#8b6d60"/>
            <path id="Trazado_168831" data-name="Trazado 168831" d="M170.633,410.4H3.833l.131-10.232a4.3,4.3,0,0,1,4.3-4.247H166.458a4.3,4.3,0,0,1,4.3,4.356Z" transform="translate(-2.718 -280.707)" fill="#fff0f0"/>
            <path id="Trazado_168832" data-name="Trazado 168832" d="M95.247,413.137a3.146,3.146,0,1,1-3.146-3.146,3.146,3.146,0,0,1,3.146,3.146" transform="translate(-63.068 -290.68)" fill="#ffb357"/>
            <path id="Trazado_168833" data-name="Trazado 168833" d="M62.723,413.137a3.146,3.146,0,1,1-3.146-3.146,3.146,3.146,0,0,1,3.146,3.146" transform="translate(-40.009 -290.68)" fill="#ffb357"/>
            <path id="Trazado_168834" data-name="Trazado 168834" d="M30.2,413.137a3.146,3.146,0,1,1-3.146-3.146,3.146,3.146,0,0,1,3.146,3.146" transform="translate(-16.949 -290.68)" fill="#ffb357"/>
            <path id="Trazado_168835" data-name="Trazado 168835" d="M188.024,667.9s-3.875,21.215,5.965,27.646c.058,4.994-4.635,17.306-21.776,15.395-.409-.036-34.523,1.652-29.8-19.363,13.41-1.369,18.236-21.207,18.308-29.855.276.022,27.3,6.177,27.3,6.177" transform="translate(-100.652 -469.153)" fill="#ffa78b"/>
            <path id="Trazado_168836" data-name="Trazado 168836" d="M209.094,672.6a76.228,76.228,0,0,0,13.3,0l.262.06.124.028,4.259.967.079.018,1.846.42.028.006,1.337.3.419.1,1.932.44.087.02.971.221.2.045.5.114.262.06.024.005.33.075.3.068.18.041.046.011.029.006.014,0a56.522,56.522,0,0,0-.727,7.624c-5.022,5.187-20.307,8.692-25.8-10.631" transform="translate(-148.245 -476.867)" fill="#ff7559"/>
            <path id="Trazado_168837" data-name="Trazado 168837" d="M316.464,624.443a2.431,2.431,0,0,1,2.065,1.146,3.225,3.225,0,0,1,.263,1.728,11.718,11.718,0,0,1-.955,4,6.22,6.22,0,0,1-1.158,1.846,5.9,5.9,0,0,1-1.331,1,9.825,9.825,0,0,1-6.525,1.154c-.265-.046,2.854-6.721,3.2-7.287,1.106-1.81,2.039-3.677,4.44-3.586" transform="translate(-218.942 -442.723)" fill="#ffa78b"/>
            <g id="Grupo_171289" data-name="Grupo 171289" transform="translate(89.866 181.718)" opacity="0.38">
              <g id="Grupo_171288" data-name="Grupo 171288">
                <g id="Grupo_171287-2" data-name="Grupo 171287" clip-path="url(#clip-path-3)">
                  <path id="Trazado_168838" data-name="Trazado 168838" d="M316.464,624.443a2.431,2.431,0,0,1,2.065,1.146,3.225,3.225,0,0,1,.263,1.728,11.718,11.718,0,0,1-.955,4,6.22,6.22,0,0,1-1.158,1.846,5.9,5.9,0,0,1-1.331,1,9.825,9.825,0,0,1-6.525,1.154c-.265-.046,2.854-6.721,3.2-7.287,1.106-1.81,2.039-3.677,4.44-3.586" transform="translate(-308.808 -624.44)" fill="#ff7559"/>
                </g>
              </g>
            </g>
            <path id="Trazado_168839" data-name="Trazado 168839" d="M313.391,640.332a.411.411,0,0,0,.38-.256c1.628-4.007,5.381-4.815,6.062-4.691a.411.411,0,1,0,.151-.807c-.927-.175-5.161.728-6.974,5.189a.411.411,0,0,0,.226.535.406.406,0,0,0,.155.03" transform="translate(-221.9 -449.896)" fill="#ff7559"/>
            <path id="Trazado_168840" data-name="Trazado 168840" d="M323.131,643.411a.422.422,0,0,0,.076-.007.411.411,0,0,0,.328-.479,2.241,2.241,0,0,0-2.948-1.7.41.41,0,1,0,.272.774,1.421,1.421,0,0,1,1.868,1.077.412.412,0,0,0,.4.335" transform="translate(-227.099 -454.534)" fill="#ff7559"/>
            <path id="Trazado_168841" data-name="Trazado 168841" d="M198.746,541.314c.045,32.216,14.292,32.507,16.448,33.207,16.258,3.485,27.022-35.535,27.112-35.935,0,0,4.886-20.57-21.734-21.99,0,0-23.763-2.875-21.826,24.718" transform="translate(-140.83 -366.201)" fill="#ffa78b"/>
            <path id="Trazado_168842" data-name="Trazado 168842" d="M311.41,644.306a2.675,2.675,0,0,1,.668,2.9,2.56,2.56,0,0,1-.418.813,2.442,2.442,0,0,1-1.425.85,2.958,2.958,0,0,1-3.324-2.087c-.5-1.92,1.1-3.923,3.062-3.292a3.749,3.749,0,0,1,1.437.818" transform="translate(-217.531 -456.143)" fill="#ff7559"/>
            <path id="Trazado_168843" data-name="Trazado 168843" d="M226.125,624.921a2.675,2.675,0,0,1,.668,2.9,2.558,2.558,0,0,1-.418.813,2.443,2.443,0,0,1-1.425.85,2.958,2.958,0,0,1-3.325-2.087c-.5-1.919,1.1-3.923,3.062-3.292a3.744,3.744,0,0,1,1.437.818" transform="translate(-157.065 -442.399)" fill="#ff7559"/>
            <path id="Trazado_168844" data-name="Trazado 168844" d="M275.241,631.813a2.872,2.872,0,0,0,1.883-.573,3.755,3.755,0,0,0,.993-3.148c-.023-.967-.082-1.937-.141-2.907a29.86,29.86,0,0,1,.148-7.275.41.41,0,1,0-.807-.151,30.478,30.478,0,0,0-.161,7.476c.058.96.116,1.919.139,2.877a3.09,3.09,0,0,1-.693,2.494,3.24,3.24,0,0,1-2.472.292.411.411,0,0,0-.112.813,9.019,9.019,0,0,0,1.221.1" transform="translate(-194.026 -437.748)" fill="#ff7559"/>
            <path id="Trazado_168845" data-name="Trazado 168845" d="M229.255,585.723c-.388-.177-.845-.513-.713-.918.088-.272.4-.39.678-.465a18.355,18.355,0,0,1,6.953-.519,5.754,5.754,0,0,1,2.217.621c1.84,1.057,1.635,3.933-.732,3.8a25,25,0,0,1-8.4-2.517" transform="translate(-162.018 -413.835)" fill="#7a3a26"/>
            <g id="Grupo_171292" data-name="Grupo 171292" transform="translate(67.816 169.866)" opacity="0.38" style="mix-blend-mode: screen;isolation: isolate">
              <g id="Grupo_171291" data-name="Grupo 171291">
                <g id="Grupo_171290" data-name="Grupo 171290" clip-path="url(#clip-path-4)">
                  <path id="Trazado_168846" data-name="Trazado 168846" d="M237.223,583.714c.365,0,.73.008,1.094.03a9.561,9.561,0,0,1-4.084,2.762q-.612-.251-1.2-.512a8.729,8.729,0,0,0,4.186-2.28" transform="translate(-233.037 -583.714)" fill="#7a3a26"/>
                </g>
              </g>
            </g>
            <g id="Grupo_171295" data-name="Grupo 171295" transform="translate(71.331 170.391)" opacity="0.38" style="mix-blend-mode: screen;isolation: isolate">
              <g id="Grupo_171294" data-name="Grupo 171294">
                <g id="Grupo_171293" data-name="Grupo 171293" clip-path="url(#clip-path-5)">
                  <path id="Trazado_168847" data-name="Trazado 168847" d="M249.711,585.519a3.723,3.723,0,0,1,.447.215,2.53,2.53,0,0,1,.274.187,7.149,7.149,0,0,1-3.742,3.171c-.526-.13-1.053-.275-1.574-.444a6.323,6.323,0,0,0,4.6-3.128" transform="translate(-245.115 -585.519)" fill="#7a3a26"/>
                </g>
              </g>
            </g>
            <path id="Trazado_168848" data-name="Trazado 168848" d="M303.436,602.653c-.347-.248-.73-.666-.523-1.038a.888.888,0,0,1,.755-.326,18.342,18.342,0,0,1,6.923.828,5.762,5.762,0,0,1,2.057,1.036c1.6,1.392.847,4.174-1.45,3.588a24.991,24.991,0,0,1-7.762-4.088" transform="translate(-214.721 -426.275)" fill="#7a3a26"/>
            <g id="Grupo_171298" data-name="Grupo 171298" transform="translate(93.33 176.428)" opacity="0.38" style="mix-blend-mode: screen;isolation: isolate">
              <g id="Grupo_171297" data-name="Grupo 171297">
                <g id="Grupo_171296" data-name="Grupo 171296" clip-path="url(#clip-path-6)">
                  <path id="Trazado_168849" data-name="Trazado 168849" d="M324.66,606.265a3.925,3.925,0,0,1,.649.451c.01.008.017.018.026.026a6.3,6.3,0,0,1-3.431,2.892q-.6-.252-1.192-.549a5.454,5.454,0,0,0,3.948-2.82" transform="translate(-320.712 -606.265)" fill="#7a3a26"/>
                </g>
              </g>
            </g>
            <g id="Grupo_171301" data-name="Grupo 171301" transform="translate(89.91 175.308)" opacity="0.38" style="mix-blend-mode: screen;isolation: isolate">
              <g id="Grupo_171300" data-name="Grupo 171300">
                <g id="Grupo_171299" data-name="Grupo 171299" clip-path="url(#clip-path-7)">
                  <path id="Trazado_168850" data-name="Trazado 168850" d="M309.858,604.9q-.458-.292-.9-.591a10.426,10.426,0,0,0,3.854-1.9q.5.1,1,.221a11.284,11.284,0,0,1-3.951,2.268" transform="translate(-308.959 -602.415)" fill="#7a3a26"/>
                </g>
              </g>
            </g>
            <path id="Trazado_168851" data-name="Trazado 168851" d="M331.217,604.867q.17.063.337.135c-.114-.04-.225-.089-.337-.135" transform="translate(-234.83 -428.845)" fill="#9d4d32"/>
            <path id="Trazado_168852" data-name="Trazado 168852" d="M308,623.919s-5.291,2.941-7.341-2.242c0,.011,4.178-2.714,7.341,2.242" transform="translate(-213.168 -440.24)" fill="#f3e1d9"/>
            <path id="Trazado_168853" data-name="Trazado 168853" d="M307.441,623.942a.406.406,0,0,0,.276-.107.411.411,0,0,0,.029-.58,7.491,7.491,0,0,0-7.752-2.13.411.411,0,1,0,.269.776,6.742,6.742,0,0,1,6.875,1.906.409.409,0,0,0,.3.135" transform="translate(-212.496 -440.123)" fill="#7a3a26"/>
            <path id="Trazado_168854" data-name="Trazado 168854" d="M307.664,623.85a1.482,1.482,0,0,0,.964,1.812c.672.1,1.33-.537,1.469-1.433a1.482,1.482,0,0,0-.964-1.812c-.672-.1-1.33.537-1.469,1.433" transform="translate(-218.113 -441.28)" fill="#7a3a26"/>
            <path id="Trazado_168855" data-name="Trazado 168855" d="M234.118,606.815s3.254,5.1,7.523,1.521c0,.01-2.383-4.376-7.523-1.521" transform="translate(-165.988 -429.542)" fill="#f3e1d9"/>
            <path id="Trazado_168856" data-name="Trazado 168856" d="M240.627,608.327a.411.411,0,0,0,.3-.688,7.489,7.489,0,0,0-7.832-1.814.41.41,0,1,0,.272.774,6.745,6.745,0,0,1,6.955,1.595.408.408,0,0,0,.3.133" transform="translate(-165.069 -429.228)" fill="#7a3a26"/>
            <path id="Trazado_168857" data-name="Trazado 168857" d="M245.949,609.55a1.283,1.283,0,1,1-.61-1.96,1.482,1.482,0,0,1,.61,1.96" transform="translate(-172.643 -430.737)" fill="#7a3a26"/>
            <path id="Trazado_168858" data-name="Trazado 168858" d="M259.769,678.557a11.446,11.446,0,0,0,1.805-.142.41.41,0,0,0,.34-.47.416.416,0,0,0-.47-.34,11.387,11.387,0,0,1-9.469-2.95.411.411,0,0,0-.567.594,12.257,12.257,0,0,0,8.361,3.308" transform="translate(-178.156 -478.244)" fill="#ff7559"/>
            <path id="Trazado_168859" data-name="Trazado 168859" d="M184.144,507.19a8.388,8.388,0,0,1-5.369-3.771,6.087,6.087,0,0,1,.1-6.389,3.1,3.1,0,0,0,.639-1.143c.2-1.109-1.163-2.087-.891-3.181s2.085-1.4,1.808-2.479a8.593,8.593,0,0,1-.146-4.148,5.028,5.028,0,0,1,2.406-3.281,2.178,2.178,0,0,0,.738-.49c.41-.515.118-1.261.106-1.919a2.211,2.211,0,0,1,1.939-2.164,3.233,3.233,0,0,0,.765-.085c.659-.226.838-1.067.837-1.763a2.607,2.607,0,0,1,.469-1.971c.679-.638,1.894-.305,2.614-.9a3.869,3.869,0,0,1,1.993-2.875c1.609-.681,3.838.421,5.224,1.484a3.2,3.2,0,0,1,4.279-3.335,6.067,6.067,0,0,1,2.073,1.04,5.334,5.334,0,0,1,5.541-2.082,5.847,5.847,0,0,1,4.32,4.474,2.574,2.574,0,0,1,3.386.446,7.606,7.606,0,0,1,1.779,3.318,3.132,3.132,0,0,1,4.013.733c.992,1.116.812,2.292,1.027,3.77a10.208,10.208,0,0,1,10.662,2.585,8.665,8.665,0,0,1,2.35,5.076c.164,1.892-.012,3.891-1.32,5.268a2.794,2.794,0,0,1,2.113,2.607,6.137,6.137,0,0,1-1,3.424c-.36.631-.907,1.6-1.582,1.328a4.6,4.6,0,0,1-4.447,5.607c-.912.008-2.124-.032-2.429-.892a5.256,5.256,0,0,1-5.042-4.922,2.613,2.613,0,0,1-2.727-1.08c-.655-1-.66-2.5-1.714-3.067a5.436,5.436,0,0,0-1.79-.312,8.154,8.154,0,0,1-4.393-2.735,5.872,5.872,0,0,1-4.44,2.633,11.278,11.278,0,0,1-5.228-.876,21.388,21.388,0,0,1-9.64-7.444c-.8,2.582-1.98,6-4.446,7.108-.965.435-2.134.624-2.76,1.478a3.742,3.742,0,0,0-.512,2.159c-.067,2.951.016,6.127-1.313,8.762" transform="translate(-126.144 -331.521)" fill="#7a3a26"/>
            <path id="Trazado_168860" data-name="Trazado 168860" d="M333.46,605.507c1.516-4.2,3.223-7.711,4.161-11.859a4.908,4.908,0,0,1,2.525-.289,1.162,1.162,0,0,1,.529.279,1.1,1.1,0,0,1,.245.628,6.626,6.626,0,0,1-.334,2.525,4.666,4.666,0,0,1-1.217,2.451,14.5,14.5,0,0,0-1.322.96,4.064,4.064,0,0,0-.579.94,12.825,12.825,0,0,1-4.008,4.365" transform="translate(-236.42 -420.624)" fill="#7a3a26"/>
            <g id="Grupo_171304" data-name="Grupo 171304" transform="translate(53.091 137.847)" opacity="0.38" style="mix-blend-mode: screen;isolation: isolate">
              <g id="Grupo_171303" data-name="Grupo 171303">
                <g id="Grupo_171302" data-name="Grupo 171302" clip-path="url(#clip-path-8)">
                  <path id="Trazado_168861" data-name="Trazado 168861" d="M366.273,526.78a5.077,5.077,0,0,1,1.412,4.065c-.048.525-.848.337-.8-.182a4.183,4.183,0,0,0-1.173-3.284c-.365-.379.193-.982.561-.6" transform="translate(-312.293 -511.243)" fill="#7a3a26"/>
                  <path id="Trazado_168862" data-name="Trazado 168862" d="M361.78,543.335a5.268,5.268,0,0,1,.974,2.717.411.411,0,0,1-.82.037,4.47,4.47,0,0,0-.848-2.317c-.309-.43.387-.865.695-.437" transform="translate(-309.043 -522.942)" fill="#7a3a26"/>
                  <path id="Trazado_168863" data-name="Trazado 168863" d="M372.621,565.96a1.863,1.863,0,0,1,.226,1.3c-.1.52-.9.337-.8-.182a.978.978,0,0,0-.12-.685c-.266-.456.427-.895.695-.437" transform="translate(-316.741 -538.971)" fill="#7a3a26"/>
                  <path id="Trazado_168864" data-name="Trazado 168864" d="M359.379,577.056a2.118,2.118,0,0,0,2.088.111c.468-.237.909.455.437.695a2.957,2.957,0,0,1-2.914-.082c-.449-.273-.065-1,.388-.724" transform="translate(-307.47 -546.931)" fill="#7a3a26"/>
                  <path id="Trazado_168865" data-name="Trazado 168865" d="M356.1,562.52a2.744,2.744,0,0,0,1.782,1.414.411.411,0,0,1-.182.8,3.553,3.553,0,0,1-2.3-1.777c-.247-.464.446-.9.695-.437" transform="translate(-305.03 -536.527)" fill="#7a3a26"/>
                  <path id="Trazado_168866" data-name="Trazado 168866" d="M353.058,588.97a2.529,2.529,0,0,0,2.209.018c.483-.216.724.57.247.783a3.319,3.319,0,0,1-2.845-.077c-.474-.233-.086-.957.388-.724" transform="translate(-302.978 -555.389)" fill="#7a3a26"/>
                  <path id="Trazado_168867" data-name="Trazado 168867" d="M339.157,576.9a2.862,2.862,0,0,0,1.365,1.468.411.411,0,0,1-.388.723,3.73,3.73,0,0,1-1.76-1.945c-.2-.49.585-.733.783-.247" transform="translate(-292.973 -546.677)" fill="#7a3a26"/>
                  <path id="Trazado_168868" data-name="Trazado 168868" d="M339.026,563.3a6.013,6.013,0,0,1,1.6,1.257c.351.39-.207.993-.561.6a5.324,5.324,0,0,0-1.425-1.132.411.411,0,0,1,.388-.724" transform="translate(-293.034 -537.181)" fill="#7a3a26"/>
                  <path id="Trazado_168869" data-name="Trazado 168869" d="M346.666,544.053a7.007,7.007,0,0,1,1.974,1.824c.314.426-.383.861-.695.438a5.936,5.936,0,0,0-1.667-1.538c-.446-.277-.062-1,.388-.724" transform="translate(-298.458 -523.531)" fill="#7a3a26"/>
                  <path id="Trazado_168870" data-name="Trazado 168870" d="M342.472,513.81a5.7,5.7,0,0,1,3.429,1.218c.418.323-.145.921-.561.6a4.748,4.748,0,0,0-2.83-1c-.526-.012-.566-.832-.038-.82" transform="translate(-295.633 -502.134)" fill="#7a3a26"/>
                  <path id="Trazado_168871" data-name="Trazado 168871" d="M346.1,524.087a10.81,10.81,0,0,1,1.972,1c.441.284.057,1.011-.388.724a10.8,10.8,0,0,0-1.972-1c-.491-.19-.1-.912.388-.724" transform="translate(-298.038 -509.398)" fill="#7a3a26"/>
                  <path id="Trazado_168872" data-name="Trazado 168872" d="M323.235,525.737a14.488,14.488,0,0,1,2.574-.39.411.411,0,0,1,.037.82,13.264,13.264,0,0,0-2.364.352c-.512.125-.761-.658-.247-.783" transform="translate(-282.061 -510.313)" fill="#7a3a26"/>
                  <path id="Trazado_168873" data-name="Trazado 168873" d="M328.556,537.809a4.767,4.767,0,0,0,1.953-.244c.5-.172.746.611.247.783a5.358,5.358,0,0,1-2.163.281c-.521-.04-.563-.861-.037-.82" transform="translate(-285.769 -518.958)" fill="#7a3a26"/>
                  <path id="Trazado_168874" data-name="Trazado 168874" d="M326.408,553.361a4.279,4.279,0,0,0,2.026.324.411.411,0,0,1,.038.82,5.19,5.19,0,0,1-2.451-.421c-.485-.207-.1-.93.388-.724" transform="translate(-284.078 -530.149)" fill="#7a3a26"/>
                  <path id="Trazado_168875" data-name="Trazado 168875" d="M322.559,565.711a5.759,5.759,0,0,0,1.753.593c.521.089.338.889-.182.8a6.509,6.509,0,0,1-1.96-.669.411.411,0,0,1,.389-.724" transform="translate(-281.357 -538.895)" fill="#7a3a26"/>
                  <path id="Trazado_168876" data-name="Trazado 168876" d="M312.007,548.106a4.441,4.441,0,0,0,2.293.019c.511-.132.759.651.247.783a5.3,5.3,0,0,1-2.722,0c-.51-.136-.33-.937.182-.8" transform="translate(-273.957 -526.438)" fill="#7a3a26"/>
                  <path id="Trazado_168877" data-name="Trazado 168877" d="M349.442,603.332a4.023,4.023,0,0,0,.743-1.5c.133-.51.934-.33.8.182a5.041,5.041,0,0,1-.944,1.88c-.328.413-.927-.149-.6-.561" transform="translate(-300.775 -564.324)" fill="#7a3a26"/>
                  <path id="Trazado_168878" data-name="Trazado 168878" d="M342.949,612.235c.215-.482.938-.093.724.388l-.638,1.434c-.214.482-.938.093-.724-.389l.638-1.434" transform="translate(-295.758 -571.76)" fill="#7a3a26"/>
                  <path id="Trazado_168879" data-name="Trazado 168879" d="M300.931,551.691q.77.617,1.6,1.154c.439.286.056,1.013-.388.724q-.915-.6-1.768-1.278c-.412-.33.151-.929.561-.6" transform="translate(-265.948 -528.923)" fill="#7a3a26"/>
                  <path id="Trazado_168880" data-name="Trazado 168880" d="M305.357,534.353a9.27,9.27,0,0,1,2.765.835c.476.228.089.952-.388.723a8.552,8.552,0,0,0-2.558-.757c-.524-.071-.339-.872.182-.8" transform="translate(-269.236 -516.696)" fill="#7a3a26"/>
                  <path id="Trazado_168881" data-name="Trazado 168881" d="M307.136,524.969a6.931,6.931,0,0,1,2.031.859c.444.28.061,1.006-.388.724a6.2,6.2,0,0,0-1.825-.782.411.411,0,0,1,.182-.8" transform="translate(-270.502 -510.035)" fill="#7a3a26"/>
                  <path id="Trazado_168882" data-name="Trazado 168882" d="M320.838,511.342a5.636,5.636,0,0,1,1.07.751c.395.352-.166.952-.561.6a4.65,4.65,0,0,0-.9-.626.411.411,0,0,1,.388-.724" transform="translate(-280.139 -500.347)" fill="#7a3a26"/>
                  <path id="Trazado_168883" data-name="Trazado 168883" d="M320.476,501.265a3.351,3.351,0,0,1,2.258,1.19c.334.4-.222,1.005-.561.6a2.688,2.688,0,0,0-1.879-.989c-.524-.05-.338-.85.182-.8" transform="translate(-279.955 -493.238)" fill="#7a3a26"/>
                  <path id="Trazado_168884" data-name="Trazado 168884" d="M302.247,486.525a5.459,5.459,0,0,1,2.017,1.977c.269.455-.425.894-.695.438a4.621,4.621,0,0,0-1.711-1.691c-.458-.261-.073-.986.388-.724" transform="translate(-266.96 -482.749)" fill="#7a3a26"/>
                  <path id="Trazado_168885" data-name="Trazado 168885" d="M280.364,473.7a4.044,4.044,0,0,1,3.513,1.533c.333.409-.365.843-.695.437a3.191,3.191,0,0,0-2.781-1.15c-.528.043-.563-.777-.037-.82" transform="translate(-251.599 -473.687)" fill="#7a3a26"/>
                  <path id="Trazado_168886" data-name="Trazado 168886" d="M281.791,484.807a3.8,3.8,0,0,1,1.984.578c.444.28.06,1.006-.388.724a2.971,2.971,0,0,0-1.558-.481c-.527-.01-.566-.83-.038-.82" transform="translate(-252.611 -481.571)" fill="#7a3a26"/>
                  <path id="Trazado_168887" data-name="Trazado 168887" d="M294.448,499.7l1.762.629c.492.175.315.978-.182.8l-1.762-.629c-.491-.175-.315-.978.182-.8" transform="translate(-261.516 -492.114)" fill="#7a3a26"/>
                  <path id="Trazado_168888" data-name="Trazado 168888" d="M301.891,511.022a2.974,2.974,0,0,0,1.646-.541c.435-.3.871.394.437.695a3.754,3.754,0,0,1-2.046.667.411.411,0,0,1-.037-.82" transform="translate(-266.861 -499.721)" fill="#7a3a26"/>
                  <path id="Trazado_168889" data-name="Trazado 168889" d="M284.81,526.684a3.212,3.212,0,0,0,2.746-.4c.443-.29.88.4.437.695a4.02,4.02,0,0,1-3.366.5c-.5-.149-.326-.951.182-.8" transform="translate(-254.677 -510.93)" fill="#7a3a26"/>
                  <path id="Trazado_168890" data-name="Trazado 168890" d="M285.757,539.511a5.03,5.03,0,0,0,2.524.048c.512-.123.761.66.247.783a5.9,5.9,0,0,1-2.953-.031c-.509-.138-.329-.939.182-.8" transform="translate(-255.346 -520.344)" fill="#7a3a26"/>
                  <path id="Trazado_168891" data-name="Trazado 168891" d="M277.149,551.21a2.99,2.99,0,0,0,2.545-.283.411.411,0,0,1,.437.695,3.789,3.789,0,0,1-3.164.389c-.5-.161-.321-.964.182-.8" transform="translate(-249.248 -528.404)" fill="#7a3a26"/>
                  <path id="Trazado_168892" data-name="Trazado 168892" d="M263.014,552.762a6.921,6.921,0,0,0,2.873,1.183c.521.088.338.888-.182.8a7.465,7.465,0,0,1-3.079-1.26c-.427-.3-.045-1.028.388-.724" transform="translate(-239.158 -529.699)" fill="#7a3a26"/>
                  <path id="Trazado_168893" data-name="Trazado 168893" d="M266.693,538.49a5.894,5.894,0,0,0,2.01,1.262c.489.181.313.984-.182.8a6.918,6.918,0,0,1-2.389-1.464.411.411,0,0,1,.561-.6" transform="translate(-241.685 -519.552)" fill="#7a3a26"/>
                  <path id="Trazado_168894" data-name="Trazado 168894" d="M269.116,527.562a8.809,8.809,0,0,0,1.841,1.137c.479.222.09.946-.388.724a9.7,9.7,0,0,1-2.015-1.262c-.411-.332.151-.93.561-.6" transform="translate(-243.392 -511.815)" fill="#7a3a26"/>
                  <path id="Trazado_168895" data-name="Trazado 168895" d="M286.56,515.289l1.568.528c.5.167.319.969-.182.8l-1.568-.528c-.5-.167-.319-.969.182-.8" transform="translate(-255.921 -503.166)" fill="#7a3a26"/>
                  <path id="Trazado_168896" data-name="Trazado 168896" d="M278.738,500.363a8.15,8.15,0,0,1,2.208.953c.446.278.062,1-.388.724a7.361,7.361,0,0,0-2-.876c-.509-.137-.329-.938.182-.8" transform="translate(-250.37 -492.589)" fill="#7a3a26"/>
                  <path id="Trazado_168897" data-name="Trazado 168897" d="M267.2,512.91l2.487.626a.411.411,0,0,1-.182.8l-2.488-.626a.411.411,0,0,1,.182-.8" transform="translate(-242.19 -501.486)" fill="#7a3a26"/>
                  <path id="Trazado_168898" data-name="Trazado 168898" d="M262.731,485.809a6.829,6.829,0,0,1,2.453.379c.493.173.317.976-.182.8a6.192,6.192,0,0,0-2.234-.36.411.411,0,0,1-.038-.82" transform="translate(-239.097 -482.28)" fill="#7a3a26"/>
                  <path id="Trazado_168899" data-name="Trazado 168899" d="M249.548,478.309a3.036,3.036,0,0,1,2.838-1.192c.524.061.338.861-.182.8a2.235,2.235,0,0,0-2.056.953c-.31.426-.907-.138-.6-.561" transform="translate(-229.958 -476.103)" fill="#7a3a26"/>
                  <path id="Trazado_168900" data-name="Trazado 168900" d="M246.825,497.076a2.434,2.434,0,0,0,2.217-.284c.441-.293.878.4.437.695a3.291,3.291,0,0,1-3.043.313c-.492-.185-.1-.908.388-.724" transform="translate(-227.652 -490.018)" fill="#7a3a26"/>
                  <path id="Trazado_168901" data-name="Trazado 168901" d="M261.976,503.119l2.029-.592a.411.411,0,0,1,.247.783l-2.029.592a.411.411,0,0,1-.247-.783" transform="translate(-238.632 -494.121)" fill="#7a3a26"/>
                  <path id="Trazado_168902" data-name="Trazado 168902" d="M248.126,518.319l2.293.087c.525.02.566.84.037.82l-2.293-.087c-.525-.02-.566-.84-.038-.82" transform="translate(-228.743 -505.33)" fill="#7a3a26"/>
                  <path id="Trazado_168903" data-name="Trazado 168903" d="M250.356,533.768a3.407,3.407,0,0,0,2.669.709c.524-.073.556.748.037.82a4.22,4.22,0,0,1-3.267-.93c-.412-.331.151-.929.561-.6" transform="translate(-230.091 -516.215)" fill="#7a3a26"/>
                  <path id="Trazado_168904" data-name="Trazado 168904" d="M244.2,541.777a5.262,5.262,0,0,0,2.243,1.215c.51.133.33.934-.182.8a6.181,6.181,0,0,1-2.622-1.416c-.391-.355.169-.955.561-.6" transform="translate(-225.731 -521.885)" fill="#7a3a26"/>
                  <path id="Trazado_168905" data-name="Trazado 168905" d="M234.767,525.527a4.2,4.2,0,0,0,1.762.569c.525.051.338.851-.182.8a4.772,4.772,0,0,1-1.968-.646c-.453-.267-.069-.993.388-.724" transform="translate(-219.12 -510.4)" fill="#7a3a26"/>
                  <path id="Trazado_168906" data-name="Trazado 168906" d="M235.512,507.165a17.721,17.721,0,0,0,3.284-.618c.508-.146.755.637.247.783a18.859,18.859,0,0,1-3.493.655c-.528.049-.562-.772-.038-.82" transform="translate(-219.8 -496.972)" fill="#7a3a26"/>
                  <path id="Trazado_168907" data-name="Trazado 168907" d="M228.257,495.168a5.06,5.06,0,0,1,2.649-.679c.526.013.566.833.037.82a4.258,4.258,0,0,0-2.249.553c-.458.261-.9-.432-.437-.695" transform="translate(-214.785 -488.434)" fill="#7a3a26"/>
                  <path id="Trazado_168908" data-name="Trazado 168908" d="M224.7,486.016a5.492,5.492,0,0,1,2.346-1.1c.514-.105.764.677.247.783a4.978,4.978,0,0,0-2.156,1.013c-.412.331-.845-.367-.437-.695" transform="translate(-212.285 -481.64)" fill="#7a3a26"/>
                  <path id="Trazado_168909" data-name="Trazado 168909" d="M222.782,528.587l1.436-2.508c.262-.457.987-.072.723.388l-1.436,2.508c-.262.457-.987.072-.724-.388" transform="translate(-211.001 -510.687)" fill="#7a3a26"/>
                  <path id="Trazado_168910" data-name="Trazado 168910" d="M217.47,513.983a11.251,11.251,0,0,1,2.912-1.436.411.411,0,0,1,.247.783,10.488,10.488,0,0,0-2.722,1.348c-.436.3-.872-.4-.437-.695" transform="translate(-207.148 -501.223)" fill="#7a3a26"/>
                  <path id="Trazado_168911" data-name="Trazado 168911" d="M214.508,504.344a6.149,6.149,0,0,1,1.761-.944c.5-.173.746.611.247.783a5.48,5.48,0,0,0-1.57.855c-.418.324-.853-.374-.437-.695" transform="translate(-205.056 -494.736)" fill="#7a3a26"/>
                  <path id="Trazado_168912" data-name="Trazado 168912" d="M213.488,493.41a2.393,2.393,0,0,1,1.016-.547c.512-.124.761.658.247.783a1.533,1.533,0,0,0-.663.325.422.422,0,0,1-.58.019.414.414,0,0,1-.019-.58" transform="translate(-204.374 -487.273)" fill="#7a3a26"/>
                  <path id="Trazado_168913" data-name="Trazado 168913" d="M232.7,517.651l1.268-.045a.411.411,0,0,1,.037.82l-1.268.045a.411.411,0,0,1-.038-.82" transform="translate(-217.808 -504.824)" fill="#7a3a26"/>
                  <path id="Trazado_168914" data-name="Trazado 168914" d="M200.366,512.257a4.557,4.557,0,0,1,1.881-1.5c.483-.215.725.57.247.783a3.791,3.791,0,0,0-1.529,1.275c-.308.427-.905-.137-.6-.561" transform="translate(-195.089 -499.945)" fill="#7a3a26"/>
                  <path id="Trazado_168915" data-name="Trazado 168915" d="M204.892,528a8.55,8.55,0,0,1,1.857-2.646c.378-.366.98.192.6.561a7.906,7.906,0,0,0-1.732,2.474c-.216.481-.94.092-.724-.389" transform="translate(-198.33 -510.236)" fill="#7a3a26"/>
                  <path id="Trazado_168916" data-name="Trazado 168916" d="M210.972,542.822a5.655,5.655,0,0,0,1.742-2.762c.141-.508.943-.329.8.182a6.448,6.448,0,0,1-1.944,3.141c-.392.347-1-.21-.6-.561" transform="translate(-202.577 -520.53)" fill="#7a3a26"/>
                  <path id="Trazado_168917" data-name="Trazado 168917" d="M201.753,543.408l1.356-1.8c.318-.421.915.142.6.561l-1.356,1.8c-.318.421-.915-.143-.6-.561" transform="translate(-196.069 -521.739)" fill="#7a3a26"/>
                  <path id="Trazado_168918" data-name="Trazado 168918" d="M192.2,524.472c.4-.333,1.006.223.6.561a5.117,5.117,0,0,0-1.873,3.563c-.048.525-.848.338-.8-.182a5.778,5.778,0,0,1,2.075-3.942" transform="translate(-187.889 -509.62)" fill="#7a3a26"/>
                  <path id="Trazado_168919" data-name="Trazado 168919" d="M193.067,543.294c.353-.393.953.167.6.561a5.063,5.063,0,0,0-1.179,2.265.411.411,0,0,1-.8-.182,5.958,5.958,0,0,1,1.38-2.644" transform="translate(-188.986 -522.943)" fill="#7a3a26"/>
                  <path id="Trazado_168920" data-name="Trazado 168920" d="M198.149,556.648c.513-.113.763.67.247.783a2.081,2.081,0,0,0-1.621,1.58.411.411,0,0,1-.8-.182,2.889,2.889,0,0,1,2.174-2.181" transform="translate(-192.027 -532.498)" fill="#7a3a26"/>
                  <path id="Trazado_168921" data-name="Trazado 168921" d="M185.487,557.222c.137-.509.938-.33.8.182a7.621,7.621,0,0,0-.269,2.037c0,.528-.818.566-.82.037a8.473,8.473,0,0,1,.289-2.256" transform="translate(-184.395 -532.698)" fill="#7a3a26"/>
                  <path id="Trazado_168922" data-name="Trazado 168922" d="M195.216,574.9a8.192,8.192,0,0,0-.151,1.638c0,.528-.816.567-.82.038a9.319,9.319,0,0,1,.171-1.858c.1-.519.9-.337.8.182" transform="translate(-190.808 -545.101)" fill="#7a3a26"/>
                  <path id="Trazado_168923" data-name="Trazado 168923" d="M182.962,572.553c.274-.448,1-.064.724.388a2.764,2.764,0,0,0-.388,2.009c.1.514-.681.765-.783.247a3.615,3.615,0,0,1,.447-2.644" transform="translate(-182.438 -543.641)" fill="#7a3a26"/>
                  <path id="Trazado_168924" data-name="Trazado 168924" d="M188.437,580.443a10.107,10.107,0,0,0,.018,1.893c.054.527-.766.561-.82.038a10.107,10.107,0,0,1-.018-1.893c.044-.52.865-.562.82-.038" transform="translate(-186.084 -549.111)" fill="#7a3a26"/>
                  <path id="Trazado_168925" data-name="Trazado 168925" d="M198.8,586.114a3.688,3.688,0,0,1-.2,1.755.425.425,0,0,1-.492.309.413.413,0,0,1-.309-.491,3.162,3.162,0,0,0,.181-1.536c-.066-.525.755-.558.82-.037" transform="translate(-193.319 -553.131)" fill="#7a3a26"/>
                  <path id="Trazado_168926" data-name="Trazado 168926" d="M348.331,533.709a10.285,10.285,0,0,1,1.561,1.422c.349.391-.208.994-.561.6a10.3,10.3,0,0,0-1.561-1.422c-.424-.313.14-.911.561-.6" transform="translate(-299.55 -516.18)" fill="#7a3a26"/>
                </g>
              </g>
            </g>
            <path id="Trazado_168927" data-name="Trazado 168927" d="M184.971,595.27a2.431,2.431,0,0,0-2.357.141,3.227,3.227,0,0,0-.984,1.445,11.722,11.722,0,0,0-.866,4.017,6.219,6.219,0,0,0,.246,2.165,5.9,5.9,0,0,0,.767,1.479,9.826,9.826,0,0,0,5.385,3.861c.259.073.332-7.295.265-7.954-.215-2.111-.249-4.2-2.454-5.153" transform="translate(-128.154 -421.874)" fill="#ffa78b"/>
            <path id="Trazado_168928" data-name="Trazado 168928" d="M191.476,612.232a.411.411,0,0,0,.41-.386c.293-4.805-3.14-7.452-4.044-7.694a.41.41,0,0,0-.213.793c.67.18,3.7,2.537,3.438,6.851a.41.41,0,0,0,.385.435h.025" transform="translate(-132.811 -428.328)" fill="#ff7559"/>
            <path id="Trazado_168929" data-name="Trazado 168929" d="M188.835,616.55a.408.408,0,0,0,.331-.168,1.42,1.42,0,0,1,2.15-.164.411.411,0,0,0,.581-.581,2.241,2.241,0,0,0-3.393.259.41.41,0,0,0,.331.653" transform="translate(-133.591 -436.017)" fill="#ff7559"/>
            <path id="Trazado_168930" data-name="Trazado 168930" d="M141.193,785.485c-7.583-5.654-18.32-11.616-33.463-17.24,0,0-17.459,22.791-50.847-4.3a248.655,248.655,0,0,0-36.689,21.543Z" transform="translate(-14.317 -541.628)" fill="#45708e"/>
            <path id="Trazado_168931" data-name="Trazado 168931" d="M251.337,816.381h1.535c-.495-5.138-.791-8.018-.808-8.177a.764.764,0,0,0-1.52.157c.016.157.307,2.98.793,8.02" transform="translate(-177.63 -572.524)" fill="#8aa4b9"/>
            <path id="Trazado_168932" data-name="Trazado 168932" d="M253.165,797.086l7.869-5.359,2.233,6.808Z" transform="translate(-179.492 -561.327)" fill="#45708e"/>
            <path id="Trazado_168933" data-name="Trazado 168933" d="M235.067,799.978l-7.429-4.172v9.133Z" transform="translate(-161.394 -564.22)" fill="#45708e"/>
            <path id="Trazado_168934" data-name="Trazado 168934" d="M241.423,806.9c2.495-4.544,3.925-12.752,3.925-12.752-2.538,1.057-6.9,1.9-7,2.058l-7-.458a49.037,49.037,0,0,0,4.324,11.151Z" transform="translate(-164.026 -563.048)" fill="#373b45"/>
            <path id="Trazado_168935" data-name="Trazado 168935" d="M255.4,762.515l6.85-1.358,3.716,10.178,9-15.017-6.262-9.692-1.587,1.417c-3.547,3.168-6.113,6.636-9.42,10.937Z" transform="translate(-181.077 -529.351)" fill="#8aa4b9"/>
            <path id="Trazado_168936" data-name="Trazado 168936" d="M164.046,769.274l1.1-11.151,7,.458s-10.553-14.435-21.615-17.5c-.1.119-12.558,7.8-12.558,7.8l25.556,20.394Z" transform="translate(-97.822 -525.416)" fill="#8aa4b9"/>
            <path id="Trazado_168937" data-name="Trazado 168937" d="M252.663,836.836c-.059-.307-.091-.466-.091-.466h-5.088a1.265,1.265,0,0,0-.179.466Z" transform="translate(-175.337 -592.979)" fill="#373b45"/>
            <path id="Trazado_168938" data-name="Trazado 168938" d="M289.945,786.762a6.752,6.752,0,1,1,6.752-6.753,6.76,6.76,0,0,1-6.752,6.753m0-12.644a5.892,5.892,0,1,0,5.891,5.891,5.9,5.9,0,0,0-5.891-5.891" transform="translate(-200.781 -548.233)" fill="#fff"/>
            <path id="Trazado_168939" data-name="Trazado 168939" d="M299.212,793.771h-2.762a.983.983,0,0,1-.984-.984v-1.776a.984.984,0,0,1,.984-.984h2.762a.984.984,0,0,1,.984.984v1.776a.983.983,0,0,1-.984.984" transform="translate(-209.483 -560.123)" fill="#fff"/>
            <path id="Trazado_168940" data-name="Trazado 168940" d="M309.838,791.864l-2.418,1.124a.253.253,0,0,0,0,.458l2.418,1.169a.253.253,0,0,0,.364-.228v-2.293a.253.253,0,0,0-.36-.23" transform="translate(-217.854 -561.407)" fill="#fff"/>
            <path id="Trazado_168941" data-name="Trazado 168941" d="M238.079,777.035a6.322,6.322,0,1,1-8.532-2.672,6.322,6.322,0,0,1,8.532,2.672" transform="translate(-160.341 -548.505)" fill="#f78b6a"/>
            <path id="Trazado_168942" data-name="Trazado 168942" d="M242.716,787.11c-.494-.749-1.576-2.161-2.458-1.7l-5.491,2.872c-.883.461-.34,2.155-.006,2.989.1.25.337.4.5.313l2.067-1.081c.148-.078.177-.316.064-.532l-.156-.3c-.113-.216-.085-.455.064-.532l2.215-1.158c.148-.078.361.035.474.251l.156.3c.113.217.325.329.474.251l2.067-1.081c.165-.086.178-.365.029-.591" transform="translate(-166.107 -556.785)" fill="#fff0f0"/>
            <path id="Trazado_168943" data-name="Trazado 168943" d="M172.92,785.671a6.752,6.752,0,1,1,6.753-6.752,6.759,6.759,0,0,1-6.753,6.752m0-12.644a5.892,5.892,0,1,0,5.892,5.892,5.9,5.9,0,0,0-5.892-5.892" transform="translate(-117.812 -547.459)" fill="#fff"/>
            <path id="Trazado_168944" data-name="Trazado 168944" d="M187.6,786.485a1.236,1.236,0,1,1-1.236-1.236,1.236,1.236,0,0,1,1.236,1.236" transform="translate(-131.253 -556.735)" fill="#fff"/>
            <path id="Trazado_168945" data-name="Trazado 168945" d="M183.965,797.157h-5.5a.607.607,0,0,1-.583-.75,3.415,3.415,0,0,1,6.678.06.592.592,0,0,1-.593.69" transform="translate(-126.104 -562.752)" fill="#fff"/>
          </g>
        </g>
      </g>
    </g>
  </g>
</svg>
