<svg xmlns="http://www.w3.org/2000/svg" xmlns:xlink="http://www.w3.org/1999/xlink" width="105" height="105" viewBox="0 0 105 105">
  <defs>
    <clipPath id="clip-path">
      <rect id="Rectángulo_43340" data-name="Rectángulo 43340" width="64.038" height="64.037" fill="none"/>
    </clipPath>
  </defs>
  <g id="Grupo_170739" data-name="Grupo 170739" transform="translate(-433.326 -839)">
    <path id="Trazado_160852" data-name="Trazado 160852" d="M52.5,0A52.5,52.5,0,1,1,0,52.5,52.5,52.5,0,0,1,52.5,0Z" transform="translate(433.326 839)" fill="#a6bbff"/>
    <g id="Grupo_170980" data-name="Grupo 170980" transform="translate(453.807 859.481)">
      <g id="Grupo_170980-2" data-name="Grupo 170980" clip-path="url(#clip-path)">
        <path id="Trazado_166916" data-name="Trazado 166916" d="M58.469,64.037H5.5c-.2-.13-.422-.035-.631-.065a5.4,5.4,0,0,1-4.8-4.329C.052,59.524.1,59.393,0,59.29V43.048c.281-.658.438-.757,1.18-.744a1.209,1.209,0,0,1,.884,1.221c.014.27.011.541.011.812q0,6.778,0,13.555a3.744,3.744,0,0,0,4.095,4.07q23.174,0,46.349,0a1.145,1.145,0,0,0,.609-.068c.056-.166-.05-.282-.126-.4a6.738,6.738,0,0,1-.985-3.749q.011-22.738,0-45.475c0-1.963-.287-2.253-2.226-2.253H4.2c-.25,0-.5-.008-.75.008a1.365,1.365,0,0,0-1.34,1.241,6.863,6.863,0,0,0-.032,1q0,12.836,0,25.673c0,.291,0,.583-.01.875a1.215,1.215,0,0,1-.875,1.232C.452,40.067.279,39.96,0,39.3V10.689A3.33,3.33,0,0,1,3.569,7.748c1.463-.011,1.342.15,1.364-1.4a20.5,20.5,0,0,1,.111-3.363A3.328,3.328,0,0,1,8.588.009H38.671c.921,0,1.135.158,1.336.961a1.171,1.171,0,0,1-1.22,1.158c-.311.027-.624.015-.936.015H9.438c-1.83,0-2.236.4-2.241,2.235,0,.895.005,1.79,0,2.685,0,.473.2.685.674.673.27-.007.541,0,.812,0q20.857,0,41.713-.008a3.653,3.653,0,0,1,3.469,1.9,3.866,3.866,0,0,1,.436,1.986q-.008,8.8,0,17.61,0,9.367,0,18.734c0,.229.006.458.006.687,0,.39.193.54.575.571,1.373.11,2.041-.45,2.131-1.818.019-.291.011-.583.012-.874V29.978c0-.27-.009-.541.014-.811a1.131,1.131,0,0,1,1.019-1.147,1.112,1.112,0,0,1,1.138.956,3.748,3.748,0,0,1,.1,1.054q0,8.527,0,17.053c0,.188,0,.375-.014.562a3.759,3.759,0,0,1-4.092,3.843c-.853.011-.889.039-.889.873,0,1.979-.035,3.957.011,5.934A3.673,3.673,0,0,0,57.5,61.9a3.782,3.782,0,0,0,4.167-2.356,4.574,4.574,0,0,0,.232-1.721q0-18.958,0-37.917,0-7.839,0-15.679a3.914,3.914,0,0,0-.064-.994,1.339,1.339,0,0,0-1.368-1.049A1.283,1.283,0,0,0,59.3,3.445c-.023.27-.012.541-.012.812q0,9.714,0,19.427a4.146,4.146,0,0,1-.106,1.24,1.1,1.1,0,0,1-1.105.919,1.136,1.136,0,0,1-1.045-1.188c-.019-.25-.011-.5-.011-.749q0-10.026,0-20.052a5.5,5.5,0,0,1,.046-1.122c.1-.457-.095-.593-.524-.59-1.395.008-2.79,0-4.185,0-2.874,0-5.747.007-8.621,0-.975,0-1.292-.235-1.533-1.04C42.3.287,42.562.013,43.343.013,49.191.007,55.04.024,60.887,0a3.262,3.262,0,0,1,3.14,3.158c0,.145,0,.291,0,.437q0,27.409.012,54.818a5.5,5.5,0,0,1-3.3,5.207,3.548,3.548,0,0,1-1.506.353c-.252.031-.516-.067-.761.065" transform="translate(0 0)"/>
        <path id="Trazado_166917" data-name="Trazado 166917" d="M8.733,114.853a.111.111,0,0,0-.017-.111.71.71,0,0,1,.642.111Z" transform="translate(-3.861 -50.816)" fill="#505050"/>
        <path id="Trazado_166918" data-name="Trazado 166918" d="M105.609,114.741a.107.107,0,0,0-.017.111h-.624a.71.71,0,0,1,.642-.111" transform="translate(-46.498 -50.816)" fill="#505050"/>
        <path id="Trazado_166919" data-name="Trazado 166919" d="M1.791,50.173v-2.46c.695-.16.885-.627.884-1.3Q2.658,32.99,2.668,19.562c0-1.488.531-2.016,2.038-2.016q23.139,0,46.279,0a2,2,0,0,1,1.614.491,1.883,1.883,0,0,1,.437,1.386q-.01,7.714,0,15.427,0,15.4-.007,30.791a6.008,6.008,0,0,0,1.443,4.2c-.163.183-.361.094-.53.094q-23.514.008-47.028.021A4.111,4.111,0,0,1,2.643,65.7c.087-4.766.019-9.534.031-14.3a1.068,1.068,0,0,0-.883-1.229" transform="translate(-0.793 -7.771)" fill="#e6ebf5"/>
        <path id="Trazado_166920" data-name="Trazado 166920" d="M45.471,1.7a10.291,10.291,0,0,0,2.461.121c.166.686.623.889,1.3.886C53.6,2.688,57.968,2.7,62.338,2.7h.751a8.765,8.765,0,0,0-.309,3.465q-.018,9.488-.005,18.977c0,.9.135,1.084.912,1.313a3.371,3.371,0,0,1,0,2.464c-.778.228-.912.415-.912,1.314q0,8.9,0,17.8a2.058,2.058,0,0,1-2.869,2.145.224.224,0,0,1-.2-.257c0-.166,0-.333,0-.5q0-18.518,0-37.037A3.465,3.465,0,0,0,57.09,8.751a5.661,5.661,0,0,0-1.428-.1q-21.11,0-42.22,0c-.9,0-.8.115-.8-.793,0-1.125-.009-2.249,0-3.373A1.579,1.579,0,0,1,14.451,2.7q14.864,0,29.729,0c.887,0,1.143-.2,1.291-1" transform="translate(-5.596 -0.751)" fill="#d7e1f0"/>
        <path id="Trazado_166921" data-name="Trazado 166921" d="M101.117,29.712V27.247c.794-.208.96-.434.96-1.347q0-10.118,0-20.236c0-.229-.006-.458.009-.687A1.521,1.521,0,0,1,103.564,3.5,1.581,1.581,0,0,1,105.1,4.868a3.463,3.463,0,0,1,.017.5q0,27.168,0,54.338a3.7,3.7,0,0,1-2.171,3.571,3.923,3.923,0,0,1-4.295-.4,3.558,3.558,0,0,1-1.507-2.947c-.024-2.207,0-4.414-.019-6.62,0-.412.146-.482.5-.47a7.738,7.738,0,0,0,1.5-.043,3.471,3.471,0,0,0,2.948-3.683q.013-6.807,0-13.615c0-1.52.006-3.04,0-4.559,0-.79-.2-1.024-.959-1.222" transform="translate(-43.025 -1.548)" fill="#a1b8e1"/>
        <path id="Trazado_166922" data-name="Trazado 166922" d="M30.314,21.2H51.922c1.1,0,1.37.268,1.37,1.351q0,8.056,0,16.112c0,1.02-.281,1.311-1.283,1.311q-21.733,0-43.466,0c-1.02,0-1.311-.285-1.311-1.287q0-8.088,0-16.175c0-1.036.287-1.312,1.349-1.313H30.314" transform="translate(-3.203 -9.392)"/>
        <path id="Trazado_166923" data-name="Trazado 166923" d="M26.794,71.714q0,4.809,0,9.619c0,1.087-.268,1.352-1.368,1.352q-8.432,0-16.864,0c-1.058,0-1.33-.272-1.33-1.329q0-9.681,0-19.363c0-1.092.263-1.35,1.368-1.35H25.464c1.053,0,1.329.276,1.33,1.326q0,4.872,0,9.744" transform="translate(-3.203 -26.863)"/>
        <path id="Trazado_166924" data-name="Trazado 166924" d="M30.329,104.14H51.866c.969,0,1.417.282,1.435.9.019.649-.46.974-1.444.974H8.659a2.021,2.021,0,0,1-.8-.084A.875.875,0,0,1,7.266,105a.852.852,0,0,1,.779-.84,5.3,5.3,0,0,1,.686-.021h21.6" transform="translate(-3.217 -46.131)"/>
        <path id="Trazado_166925" data-name="Trazado 166925" d="M59.671,69.739H49.428a3.548,3.548,0,0,1-.561-.013.93.93,0,0,1-.032-1.844,2.93,2.93,0,0,1,.56-.016H70.006a2.938,2.938,0,0,1,.561.016.93.93,0,0,1-.03,1.844,3.419,3.419,0,0,1-.561.014H59.671" transform="translate(-21.282 -30.06)"/>
        <path id="Trazado_166926" data-name="Trazado 166926" d="M59.671,91.488H49.365a2.533,2.533,0,0,1-.56-.019.9.9,0,0,1-.764-.93.883.883,0,0,1,.729-.894,2.681,2.681,0,0,1,.622-.03q10.306,0,20.611,0a2.983,2.983,0,0,1,.561.017.931.931,0,0,1-.026,1.844,3.424,3.424,0,0,1-.561.012H59.671" transform="translate(-21.281 -39.695)"/>
        <path id="Trazado_166927" data-name="Trazado 166927" d="M59.733,60.642H69.975a5.388,5.388,0,0,1,.561.012.858.858,0,0,1,.814.808.878.878,0,0,1-.61.975,2.058,2.058,0,0,1-.8.079q-10.241,0-20.483,0a2.027,2.027,0,0,1-.8-.08.877.877,0,0,1-.6-.978.859.859,0,0,1,.819-.8c.185-.018.374-.011.561-.011h10.3" transform="translate(-21.28 -26.863)"/>
        <path id="Trazado_166928" data-name="Trazado 166928" d="M59.671,76.968q-5.214,0-10.428,0a1.135,1.135,0,0,1-.97-.31.917.917,0,0,1,.377-1.483,2.193,2.193,0,0,1,.8-.082H69.933c.1,0,.208,0,.312,0,.7.03,1.144.423,1.117.99-.027.548-.443.881-1.139.881q-5.276.005-10.553,0" transform="translate(-21.278 -33.264)"/>
        <path id="Trazado_166929" data-name="Trazado 166929" d="M59.7,82.383q5.183,0,10.366,0a1.34,1.34,0,0,1,.9.172.9.9,0,0,1,.387.867.91.91,0,0,1-.584.75,2.065,2.065,0,0,1-.8.084H49.419c-.125,0-.25.006-.374,0a.969.969,0,0,1-1.018-.96.95.95,0,0,1,1.053-.907c2.311-.009,4.621,0,6.932-.005H59.7" transform="translate(-21.275 -36.493)"/>
        <path id="Trazado_166930" data-name="Trazado 166930" d="M59.667,98.724q-5.214,0-10.428,0a1.106,1.106,0,0,1-1.048-.413.9.9,0,0,1,.517-1.394,2.748,2.748,0,0,1,.74-.067q10.241-.005,20.482,0c.125,0,.25-.005.375,0,.655.037,1.081.438,1.054.986a.953.953,0,0,1-1.076.883q-5.308.008-10.616,0" transform="translate(-21.275 -42.901)"/>
        <path id="Trazado_166931" data-name="Trazado 166931" d="M31.8,24.553c6.807,0,13.614.009,20.422-.016.593,0,.7.178.694.722q-.032,6.87,0,13.738c0,.451-.086.6-.572.595q-20.578-.021-41.155,0c-.512,0-.609-.158-.608-.631q.025-6.9,0-13.8c0-.487.118-.619.613-.618q10.3.026,20.609.011" transform="translate(-4.684 -10.869)" fill="#fedf7c"/>
        <path id="Trazado_166932" data-name="Trazado 166932" d="M10.586,73.143c0-2.853.01-5.705-.011-8.558,0-.458.1-.6.583-.6q7.339.028,14.679,0c.487,0,.577.153.575.6q-.022,8.558,0,17.115c0,.455-.1.6-.58.6q-7.339-.028-14.678,0c-.488,0-.581-.154-.578-.6.019-2.853.01-5.705.01-8.558" transform="translate(-4.684 -28.345)" fill="#de75a4"/>
        <path id="Trazado_166933" data-name="Trazado 166933" d="M54.5,34.989c.365-1.823.692-3.45,1.018-5.077.041-.2.076-.409.125-.611a.925.925,0,0,1,1.12-.805.94.94,0,0,1,.713,1.19c-.333,1.691-.674,3.381-1.013,5.071-.224,1.12-.46,2.238-.674,3.36a1.143,1.143,0,0,1-2.257.119c-.561-1.818-1.119-3.637-1.683-5.472-.266.148-.245.408-.309.609-.5,1.582-.986,3.17-1.482,4.754-.228.728-.639,1.063-1.22,1.023s-.929-.407-1.081-1.171q-.82-4.125-1.631-8.252c-.132-.673.127-1.124.686-1.255.54-.126.986.2,1.127.876.334,1.606.643,3.217.965,4.827.044.219.1.436.178.779l1.681-5.4c.031-.1.066-.2.091-.3a.928.928,0,0,1,.916-.79.982.982,0,0,1,.975.814q.706,2.29,1.405,4.583c.1.317.2.632.35,1.122" transform="translate(-20.419 -12.601)"/>
        <path id="Trazado_166934" data-name="Trazado 166934" d="M20.012,35.264V30.2c0-.291-.015-.583,0-.873a.921.921,0,0,1,1.81-.177,2.04,2.04,0,0,1,.055.554q.035,3.963.064,7.926a1.623,1.623,0,0,1-.189.963,1.033,1.033,0,0,1-1.767-.076c-.783-1.1-1.542-2.218-2.31-3.329-.6-.868-1.2-1.738-1.911-2.771v1.561c0,1.332,0,2.663,0,3.995,0,.76-.374,1.2-.971,1.184-.57-.02-.9-.445-.9-1.185,0-2.767,0-5.535-.005-8.3,0-.519.093-.96.648-1.142.59-.193.93.148,1.233.588,1.376,2,2.761,4,4.24,6.147" transform="translate(-6.153 -12.607)"/>
        <path id="Trazado_166935" data-name="Trazado 166935" d="M73.381,39.156A5.03,5.03,0,0,1,70,37.674a.93.93,0,0,1-.1-1.425.951.951,0,0,1,1.388.079,3.025,3.025,0,0,0,2.971.842,1.271,1.271,0,0,0,1.061-1.09c.066-.629-.395-.937-.876-1.155-.793-.358-1.612-.658-2.415-1a2.64,2.64,0,0,1-1.907-2.795,3,3,0,0,1,2.561-2.6,4.812,4.812,0,0,1,3.709.9.939.939,0,0,1,.371,1.386.963.963,0,0,1-1.427.155,2.97,2.97,0,0,0-2.467-.56,1.027,1.027,0,0,0-.878.927c-.037.507.328.7.746.861.814.309,1.629.622,2.421.982,1.808.821,2.526,2.5,1.766,4.063a3.741,3.741,0,0,1-3.541,1.91" transform="translate(-30.835 -12.604)"/>
        <path id="Trazado_166936" data-name="Trazado 166936" d="M32.1,33.709c0-1.331,0-2.663,0-3.994,0-.968.311-1.286,1.258-1.29,1.061-.005,2.122-.008,3.183,0,.727.006,1.156.363,1.161.937s-.423.927-1.149.933c-.707.006-1.415.017-2.122-.006-.346-.011-.484.085-.465.451a15.6,15.6,0,0,1,0,1.622c-.019.372.085.522.481.5.6-.031,1.207-.014,1.81-.006.732.009,1.166.353,1.175.915.01.583-.447.948-1.21.956-.582.006-1.166.03-1.747-.008-.431-.028-.541.14-.507.534.057.656-.275,1.535.134,1.908.357.325,1.223.095,1.864.107.291.005.585-.022.873.011a.875.875,0,0,1,.853.905.834.834,0,0,1-.814.933c-1.308.046-2.621.041-3.93.005-.554-.016-.843-.443-.846-1.11-.008-1.435,0-2.871,0-4.306" transform="translate(-14.218 -12.59)"/>
      </g>
    </g>
  </g>
</svg>
