<svg xmlns="http://www.w3.org/2000/svg" xmlns:xlink="http://www.w3.org/1999/xlink" width="88" height="88" viewBox="0 0 88 88">
  <defs>
    <clipPath id="clip-path">
      <rect id="Rectángulo_43549" data-name="Rectángulo 43549" width="66.166" height="48.231" fill="none"/>
    </clipPath>
  </defs>
  <g id="Grupo_171312" data-name="Grupo 171312" transform="translate(-441 -1727)">
    <circle id="Elipse_4778" data-name="Elipse 4778" cx="44" cy="44" r="44" transform="translate(441 1727)" fill="#ff9fa3"/>
    <g id="Grupo_171311" data-name="Grupo 171311" transform="translate(452 1747)">
      <g id="Grupo_171310" data-name="Grupo 171310" transform="translate(0 0)" clip-path="url(#clip-path)">
        <path id="Trazado_168963" data-name="Trazado 168963" d="M0,7.647A4.22,4.22,0,0,1,4.431,4.919c4.416.062,8.834.011,13.251.03.476,0,.623-.1.6-.593a8.219,8.219,0,0,1,.056-2.061A2.794,2.794,0,0,1,21.087.012c1.659-.017,3.318,0,4.977-.007a1.017,1.017,0,0,1,1.138.9.912.912,0,0,1-.7,1.159,2.929,2.929,0,0,1-.9.087c-1.358,0-2.717-.012-4.075.007-.815.012-1.079.285-1.121,1.088C20.33,4.722,20.33,4.722,21.8,4.722H42.887c.3,0,.6-.014.9.015.449,0,.9,0,1.348,0a.447.447,0,0,0,.5-.515.368.368,0,0,1,0-.064c.059-2.035-.139-2.069-1.978-2.016-4.181.034-8.36.012-12.54.012a1.963,1.963,0,0,1-.761-.119.886.886,0,0,1-.58-1.115A1.111,1.111,0,0,1,31.056,0C35.63.014,40.2,0,44.776.009a2.847,2.847,0,0,1,2.986,2.955,13.619,13.619,0,0,1-.009,1.423c-.043.464.118.564.566.562,3.43-.02,6.86-.011,10.29-.011,1.23,0,2.459-.01,3.689,0A3.829,3.829,0,0,1,66.158,8.8q.016,15.4,0,30.8a3.856,3.856,0,0,1-3.795,3.878c-.6.03-1.387-.257-1.731.126-.3.33-.086,1.106-.116,1.684a2.95,2.95,0,0,1-2.874,2.917c-.237.015-.474.015-.711.015H9.108a4.1,4.1,0,0,1-1.72-.216A2.987,2.987,0,0,1,5.5,45.175c-.017-.55.25-1.283-.131-1.6-.326-.269-1.031-.076-1.569-.09A4.029,4.029,0,0,1,0,40.793V29.4a.843.843,0,0,1,.748-.55A1.205,1.205,0,0,1,2,30.115c.049.481-.142.994.178,1.439a1.165,1.165,0,0,0,.754.119q29.545,0,59.091,0c.474,0,.948-.038,1.423-.034.369,0,.562-.164.562-.543,0-.194.008-.388.008-.582V9.482c0-.194,0-.389-.009-.582a1.816,1.816,0,0,0-1.8-1.838c-.258-.022-.518-.009-.777-.009q-28.477,0-56.955,0a2.713,2.713,0,0,0-1.148.107A1.863,1.863,0,0,0,2.01,9.216q.014,7.667,0,15.334a6.751,6.751,0,0,1-.026.905A1.183,1.183,0,0,1,.807,26.59.851.851,0,0,1,0,26.033Z" transform="translate(0 0)" fill="#0d0008"/>
        <path id="Trazado_168964" data-name="Trazado 168964" d="M0,48.861a2.05,2.05,0,0,0,.653.408.477.477,0,0,1,.282.4,8.717,8.717,0,0,1,0,1.741.466.466,0,0,1-.283.4A1.8,1.8,0,0,0,0,52.228Z" transform="translate(0 -22.828)" fill="#fdfdfd"/>
        <path id="Trazado_168965" data-name="Trazado 168965" d="M47.485,1.714c.2.834.434,1.028,1.291,1.03q6.342.014,12.683.022c.079.072.191.135.209.239a4.85,4.85,0,0,1-.078,2.7c-1.833.007-3.666.021-5.5.022-5.825,0-11.649-.006-17.474.013-.544,0-.8-.093-.717-.7a9.621,9.621,0,0,0,.011-1.164c.012-.823.319-1.136,1.132-1.139,1.553,0,3.107,0,4.66,0,.788,0,1.068-.256,1.2-1.041a20.3,20.3,0,0,0,2.584.012" transform="translate(-17.7 -0.795)" fill="#9294a2"/>
        <path id="Trazado_168966" data-name="Trazado 168966" d="M1.224,35.061a5.322,5.322,0,0,0,0-2.547c.878-.063,1.158-.363,1.159-1.266q0-8.112,0-16.224A1.817,1.817,0,0,1,3.8,13.067a1.576,1.576,0,0,1,.7-.054q28.738,0,57.477,0c.953,0,1.116.149,1.2,1.093.022.258.018.517.018.776q0,10.842,0,21.684c0,1.3,0,1.3-1.3,1.3q-29.354,0-58.707,0a1.619,1.619,0,0,1-.765-.06c-.012-.515-.027-1.03-.036-1.545-.015-.844-.3-1.138-1.161-1.2" transform="translate(-0.572 -6.074)" fill="#fdf0d9"/>
        <path id="Trazado_168967" data-name="Trazado 168967" d="M3.417,69.232c-.007-1.811-.006-3.622-.029-5.432,0-.347.113-.468.443-.426a2.618,2.618,0,0,0,.323,0q29.435,0,58.87,0c.236,0,.472.019.709.03a.857.857,0,0,1,.186.6c.007,1.115.034,2.231-.01,3.345a2.306,2.306,0,0,1-1.536,1.965.827.827,0,0,1-.852-.08c-.17-.351.1-.614.186-.913a2.879,2.879,0,0,0-.686-3.162,2.817,2.817,0,0,0-3.122-.594A2.91,2.91,0,0,0,56.3,68.331c.106.291.36.562.182.913a5.976,5.976,0,0,1-2.716.108c-.383-.254-.063-.5.036-.713a3,3,0,0,0,.058-2.557,2.9,2.9,0,0,0-5.331,2.287c.121.294.43.584.109.939a1.929,1.929,0,0,1-.952.135q-21.645,0-43.29,0a1.288,1.288,0,0,1-.984-.21" transform="translate(-1.583 -29.605)" fill="#fdc508"/>
        <path id="Trazado_168968" data-name="Trazado 168968" d="M3.443,69.166q22.309,0,44.618,0c.23,0,.477.073.684-.1.272-.075.368.177.524.3a2.9,2.9,0,0,0,3.9.011c.147-.113.273-.291.5-.2.751,0,1.5.005,2.252,0,.207,0,.435.064.6-.128.254-.056.388.136.546.271a2.852,2.852,0,0,0,4-.007c.139-.117.236-.322.476-.251a1.858,1.858,0,0,0,2.207-1.776c.018-1.311,0-2.621,0-3.932.665-.045,1.493-.274,1.946.074.406.312.109,1.173.12,1.791.021,1.273.011,2.546,0,3.819a1.944,1.944,0,0,1-2.007,2.061c-.086,0-.173,0-.259,0H5.7c-1.408,0-2.2-.675-2.255-1.92" transform="translate(-1.609 -29.539)" fill="#fba530"/>
        <path id="Trazado_168969" data-name="Trazado 168969" d="M14.008,83.488a7.923,7.923,0,0,1-.043-1.541c-.02-.262.115-.339.352-.326.172.01.345,0,.518,0H64.227c.858,0,.866,0,.87.841a2.668,2.668,0,0,1-.043,1.023,2.9,2.9,0,0,0-1.2-.209q-24.325,0-48.65,0a2.888,2.888,0,0,0-1.2.21" transform="translate(-6.515 -38.134)" fill="#92b2de"/>
        <path id="Trazado_168970" data-name="Trazado 168970" d="M14.065,84.736c.018-.27.109-.457.431-.421a3.361,3.361,0,0,0,.388,0q24.7,0,49.408.006c.316,0,.79-.205.819.412a.943.943,0,0,1-.971.92,4.911,4.911,0,0,1-.517.011H15.553c-1.063,0-1.312-.159-1.488-.931" transform="translate(-6.571 -39.382)" fill="#a2c2f4"/>
        <path id="Trazado_168971" data-name="Trazado 168971" d="M3.47,37.748l44.2-.006c5.178,0,10.355-.01,15.532.013.619,0,.845-.1.842-.8-.029-7.529-.018-15.058-.019-22.587,0-.172,0-.346-.014-.517-.056-.6-.3-.854-.986-.853q-28.962.036-57.923.021c-.086,0-.173-.006-.258-.009.225-.184.495-.119.746-.119q28.994,0,57.987,0a1.983,1.983,0,0,1,2.261,2.255q0,11,.013,22c0,.557-.113.711-.7.71q-30.546-.024-61.093-.016c-.2,0-.428.117-.6-.1" transform="translate(-1.621 -6.018)" fill="#fce5be"/>
        <path id="Trazado_168972" data-name="Trazado 168972" d="M82.265,6.619a13.472,13.472,0,0,0-.131-2.944c1.962-.1,2.066-.007,2.066,1.91,0,1.055,0,1.057-1.037,1.054-.3,0-.6-.013-.9-.021" transform="translate(-38.374 -1.704)" fill="#7e818e"/>
        <path id="Trazado_168973" data-name="Trazado 168973" d="M86.263,31.387c0-.949-.009-1.9,0-2.847.028-2.584,1.367-3.992,3.942-4.155,2.9-.184,4.586,1.375,4.608,4.276.014,1.811-.013,3.624.006,5.436.038,3.611-2.447,4.611-5.056,4.3a3.646,3.646,0,0,1-3.5-3.969c-.015-1.013,0-2.027,0-3.041h0" transform="translate(-40.301 -11.386)" fill="#0d0008"/>
        <path id="Trazado_168974" data-name="Trazado 168974" d="M75.082,31.4c0,1.035.032,2.072-.006,3.106a3.723,3.723,0,0,1-3.661,3.909,5.865,5.865,0,0,1-2.118-.155,3.465,3.465,0,0,1-2.73-3.42c-.062-2.285-.071-4.573,0-6.857.067-2.138,1.458-3.393,3.8-3.6,2.9-.258,4.68,1.341,4.718,4.237.012.927,0,1.855,0,2.782h-.007" transform="translate(-31.077 -11.38)" fill="#0d0008"/>
        <path id="Trazado_168975" data-name="Trazado 168975" d="M30.158,31.409c0,1.035.029,2.071-.006,3.106a3.668,3.668,0,0,1-3.564,3.911,5.679,5.679,0,0,1-2.244-.162,3.32,3.32,0,0,1-2.624-3.01,42.232,42.232,0,0,1-.054-7.235c.191-2.966,2.394-3.778,4.692-3.6,2.522.2,3.734,1.538,3.8,4.077.026.97,0,1.941,0,2.912h-.006" transform="translate(-10.063 -11.398)" fill="#0d0008"/>
        <path id="Trazado_168976" data-name="Trazado 168976" d="M42.273,33.326c.879,0,1.654-.01,2.428.005.285.005.371-.094.365-.372-.017-.69-.013-1.38,0-2.071.01-.609.272-.831.959-.843.728-.013,1.033.215,1.052.826s.033,1.21,0,1.811c-.03.479.073.685.618.659a.928.928,0,0,1,.887,1.436.791.791,0,0,1-.912.444c-.5-.077-.63.127-.593.6a15.39,15.39,0,0,1,.005,1.681c-.02.595-.362.854-1.055.839-.666-.015-.946-.259-.956-.859-.01-.582-.035-1.167.008-1.747.033-.451-.145-.527-.547-.52-1.294.023-2.589.013-3.883.007-.925,0-1.221-.464-.8-1.291q2.234-4.438,4.491-8.864a1.621,1.621,0,0,1,.21-.324,1,1,0,0,1,1.346-.143c.477.306.41.68.189,1.116q-1.722,3.4-3.423,6.8c-.113.227-.217.459-.379.8" transform="translate(-18.526 -11.405)" fill="#0d0008"/>
        <path id="Trazado_168977" data-name="Trazado 168977" d="M59.707,46.486a1.147,1.147,0,0,1,.08,2.293,1.147,1.147,0,1,1-.08-2.293" transform="translate(-27.376 -21.718)" fill="#0f020a"/>
        <path id="Trazado_168978" data-name="Trazado 168978" d="M60.874,36.63A1.169,1.169,0,0,1,59.7,37.755a1.145,1.145,0,0,1-1.1-1.123,1.127,1.127,0,0,1,1.134-1.147,1.147,1.147,0,0,1,1.141,1.146" transform="translate(-27.378 -16.579)" fill="#0f0209"/>
        <path id="Trazado_168979" data-name="Trazado 168979" d="M92.866,69.924c-1.751,1.538-3.342,1.5-4.922-.1a3.192,3.192,0,0,1-.332-3.124,3.092,3.092,0,1,1,5.542,2.731c-.092.168-.191.332-.287.5" transform="translate(-40.807 -30.298)" fill="#0d0008"/>
        <path id="Trazado_168980" data-name="Trazado 168980" d="M107.588,69.816c-1.647,1.674-3.357,1.67-5.024-.013a3.108,3.108,0,1,1,5.347-.615c-.1.215-.215.419-.323.628" transform="translate(-47.65 -30.307)" fill="#0d0008"/>
        <path id="Trazado_168981" data-name="Trazado 168981" d="M90.058,32.906c0-.949-.027-1.9.006-2.846a2.146,2.146,0,0,1,2.9-2.231A1.823,1.823,0,0,1,94.5,29.582a60.2,60.2,0,0,1,0,6.786,1.943,1.943,0,0,1-2.219,1.85,1.971,1.971,0,0,1-2.19-1.886,2.844,2.844,0,0,1-.03-.322q0-1.552,0-3.1h0" transform="translate(-42.071 -12.96)" fill="#fdf0d9"/>
        <path id="Trazado_168982" data-name="Trazado 168982" d="M74.768,33.049c0,.992.022,1.985-.005,2.976a2.021,2.021,0,0,1-2.039,2.2c-1.475.065-2.318-.546-2.41-1.984a49.036,49.036,0,0,1,0-6.526,1.965,1.965,0,0,1,2.318-1.956,2.053,2.053,0,0,1,2.131,2.188c0,.064.006.129.006.194q0,1.455,0,2.911h0" transform="translate(-32.802 -12.966)" fill="#fdf0d9"/>
        <path id="Trazado_168983" data-name="Trazado 168983" d="M30,33.025c0,.97.03,1.942-.007,2.911a2.076,2.076,0,0,1-2.229,2.29A2.024,2.024,0,0,1,25.5,36.009q-.038-3.008,0-6.017a2.016,2.016,0,0,1,2.071-2.232,2.017,2.017,0,0,1,2.382,1.97c.1,1.09.02,2.2.02,3.3H30" transform="translate(-11.904 -12.967)" fill="#fdf0d9"/>
        <path id="Trazado_168984" data-name="Trazado 168984" d="M92.131,68.516a1.113,1.113,0,0,1,1.157,1.124,1.146,1.146,0,0,1-1.123,1.175,1.179,1.179,0,0,1-1.171-1.142,1.139,1.139,0,0,1,1.137-1.157" transform="translate(-42.513 -32.011)" fill="#a2c2f3"/>
        <path id="Trazado_168985" data-name="Trazado 168985" d="M106.795,68.515a1.118,1.118,0,0,1,1.141,1.143,1.158,1.158,0,0,1-1.144,1.157,1.145,1.145,0,0,1-1.136-1.16,1.109,1.109,0,0,1,1.14-1.14" transform="translate(-49.363 -32.011)" fill="#a2c2f3"/>
      </g>
    </g>
  </g>
</svg>
