<svg xmlns="http://www.w3.org/2000/svg" xmlns:xlink="http://www.w3.org/1999/xlink" width="105" height="105" viewBox="0 0 105 105">
  <defs>
    <clipPath id="clip-path">
      <rect id="Rectángulo_43341" data-name="Rectángulo 43341" width="83.788" height="59.955" fill="none"/>
    </clipPath>
  </defs>
  <g id="Grupo_170737" data-name="Grupo 170737" transform="translate(-1063.326 -839)">
    <path id="Trazado_165117" data-name="Trazado 165117" d="M52.5,0A52.5,52.5,0,1,1,0,52.5,52.5,52.5,0,0,1,52.5,0Z" transform="translate(1063.326 839)" fill="#a6bbff"/>
    <g id="Grupo_170984" data-name="Grupo 170984" transform="translate(1073.932 863.852)">
      <g id="Grupo_170984-2" data-name="Grupo 170984" clip-path="url(#clip-path)">
        <path id="Trazado_166975" data-name="Trazado 166975" d="M50.721.821A1.27,1.27,0,0,1,52.076,0Q63.722.009,75.367.01c1.361,0,2.07.791,2.07,2.265.005,7.273.014,14.546-.015,21.819,0,.736.165,1.048.928.931.32-.049.655.018.979-.012a3.888,3.888,0,0,1,4.459,2.816V57.121a3.74,3.74,0,0,1-2.763,2.672,22.835,22.835,0,0,1-4.783.072c-.591-.022-.918-.519-1-1.121-.181-.8.252-1.373,1.193-1.5a15.033,15.033,0,0,1,2.18-.036c.409-.023.818-.006,1.226-.032.842-.054,1.154-.372,1.219-1.225.021-.272.012-.545.012-.817q0-12.717,0-25.434c0-.082,0-.163,0-.245-.011-1.5-.195-1.68-1.706-1.7-.273,0-.544-.031-.818-.013-3.541.028-7.082,0-10.622.014-1.467,0-1.713.236-1.715,1.709q-.012,12.992,0,25.984c0,1.457.277,1.722,1.72,1.731,1.062.007,2.124-.006,3.187.007a1.989,1.989,0,0,1,1.107.225c.466.306.913.645.6,1.317a1.381,1.381,0,0,1-1.589,1.18c-1.335-.033-2.672,0-4.008-.011a3.577,3.577,0,0,1-3.708-3.711c-.017-1.772-.021-3.545.007-5.316.007-.479-.083-.647-.613-.644q-5.848.039-11.7,0c-.46,0-.61.117-.6.589.031,1.226.028,2.454,0,3.68-.011.464.136.613.6.605,1.472-.025,2.945-.018,4.417-.006.981.008,1.5.451,1.484,1.233s-.535,1.214-1.519,1.214q-16.89.007-33.781,0c-.944,0-1.515-.487-1.515-1.234s.556-1.207,1.521-1.213c1.445-.011,2.89-.028,4.335.009.551.014.69-.164.672-.693-.04-1.171-.042-2.345,0-3.516.02-.542-.146-.673-.676-.671-4.226.022-8.452.012-12.678.012q-5.6,0-11.206,0A2,2,0,0,1,0,48Q0,25.143,0,2.282A1.993,1.993,0,0,1,2.243.006Q24.451,0,46.657,0c.729,0,1.284.2,1.481.975A1.2,1.2,0,0,1,47.2,2.627a5.522,5.522,0,0,1-1.545.1q-20.652,0-41.3,0c-1.632,0-1.633,0-1.633,1.594v41.63c0,1.571,0,1.572,1.568,1.572H61.543c.218,0,.436,0,.654,0,.928-.026,1.03-.131,1.031-1.046,0-.943-.1-1.035-1.2-1.035q-10.96-.006-21.92,0H21.948c-.354,0-.71.012-1.063-.02-.926-.084-1.265-.4-1.46-1.343a1.468,1.468,0,0,1,1.256-1.491,6.068,6.068,0,0,1,1.707-.126q19.507,0,39.013,0c2.019,0,1.829.145,1.833-1.873.008-3.762,0-7.524,0-11.286a5.407,5.407,0,0,1,.185-1.7,3.692,3.692,0,0,1,3.1-2.783c.734,0,1.468-.018,2.2-.02,1.015,0,1.072-.055,1.074-1.051.007-2.34,0-4.679,0-7.018,0-1.768.018-3.536-.007-5.3a3.635,3.635,0,0,0-1.6-3.213,4.314,4.314,0,0,0-2.45-.433,8.015,8.015,0,0,1-.982.02h-53.1c-.327,0-.655-.009-.981.015A3.025,3.025,0,0,0,7.8,10.655c-.018.245-.014.49-.014.736q0,13.746,0,27.492c0,.082,0,.163,0,.245a3.059,3.059,0,0,0,3.3,3.329c1.418.018,2.837-.029,4.254.019a1.816,1.816,0,0,1,2.02,1.515c-.208,1.011-.6,1.4-1.577,1.421-1.854.038-3.711.084-5.562-.011a6.041,6.041,0,0,1-5.4-5.563c-.035-.926-.01-1.854-.01-2.781q0-13.007,0-26.015A5.937,5.937,0,0,1,8.448,5.324a5.814,5.814,0,0,1,2.624-.5q18.816.008,37.633,0c5.754,0,11.51.1,17.261-.038a6.316,6.316,0,0,1,6.606,5.02,7.246,7.246,0,0,1,.186,1.946q0,5.967,0,11.934c0,.966.1,1.073.893,1.094.9.023,1.033-.087,1.034-1.028q.012-10.012,0-20.025c0-.908-.093-.982-.978-1-.408-.009-.817.008-1.226-.02-5.877.05-11.753.01-17.63.021-.952,0-1.906.046-2.856-.023-1.175-.086-1.6-.741-1.276-1.883" transform="translate(0 0)"/>
        <path id="Trazado_166976" data-name="Trazado 166976" d="M52.648,1.471c-.06,1.266.3,1.64,1.6,1.641l19.192,0c.326,0,.652.017.979.026a.89.89,0,0,1,.248.669q.048,2.971,0,5.943c-.005.274.028.625-.377.715a6.965,6.965,0,0,0-1.373-2.746,6.314,6.314,0,0,0-5.039-2.056q-24.013.035-48.026.013c-2.345,0-4.691-.026-7.036.012a5.874,5.874,0,0,0-5.724,4.6,7.026,7.026,0,0,0-.133,1.707c0,9.19.057,18.381-.033,27.57a6.109,6.109,0,0,0,6.305,6.326c1.443-.06,2.89-.03,4.336,0a1.36,1.36,0,0,0,1.558-1.216,2.825,2.825,0,0,1,2.41-.011c.239,1,.5,1.216,1.6,1.217q8.386.007,16.773,0c8.182,0,16.364.011,24.546-.018.767,0,1.039.152,1,.971-.067,1.608-.018,1.61-1.638,1.61q-29.211,0-58.421.016c-.774,0-1.046-.117-1.044-.992q.05-21.722.006-43.446c0-.762.212-.927.942-.926q21.56.032,43.12.015c1.226,0,1.609-.353,1.639-1.486a2.634,2.634,0,0,0,2.583-.155" transform="translate(-1.927 -0.65)" fill="#857f85"/>
        <path id="Trazado_166977" data-name="Trazado 166977" d="M130.837,79.2l-1.784.029c-.994.015-1.345.312-1.523,1.292l-2.42-.008c-.251-1.018-.559-1.277-1.569-1.283-1.309-.007-2.618.006-3.926-.006-.936-.008-1.355-.407-1.356-1.342q-.01-13.659,0-27.318c0-.849.379-1.3,1.129-1.3,3.816-.006,7.632.015,11.448.026.517.325.517.884.542,1.378.085,1.653.045,3.308.023,4.963a.866.866,0,0,1-.332.789c-1.363.393-1.473.507-1.487,1.544-.019,1.351.087,1.487,1.431,1.825a1.939,1.939,0,0,1,.026,2.375c-1.406.367-1.727.894-1.435,2.36a.978.978,0,0,0,.954.84c.258.027.557-.076.731.226.1.789.395,1.6-.256,2.306-1.391.354-1.741.943-1.425,2.379a.989.989,0,0,0,.921.79c.281.047.621-.056.784.3a26.424,26.424,0,0,1,.1,3.879,21.048,21.048,0,0,1-.025,2.51c-.049.519,0,1.106-.552,1.445" transform="translate(-52.284 -21.781)" fill="#df8086"/>
        <path id="Trazado_166978" data-name="Trazado 166978" d="M25.524,49.928l-2.41.011c-.31-1.014-.577-1.223-1.628-1.228-1.445-.007-2.891.016-4.336-.006a3.492,3.492,0,0,1-3.758-3.789q-.011-13.867,0-27.735A3.474,3.474,0,0,1,17.14,13.39q27-.01,54,0c.189,0,.378.032.567.049a4.7,4.7,0,0,1,1.535,3.735c.067,4.273.029,8.546.02,12.819,0,.5-.082.945-.734.94a3.642,3.642,0,0,0-3.092,3.987c0,4.3-.018,8.61.016,12.914.006.7-.138.9-.875.9q-20.638-.039-41.276-.018c-1.247,0-1.52.191-1.776,1.219" transform="translate(-5.919 -5.918)" fill="#cbe1fd"/>
        <path id="Trazado_166979" data-name="Trazado 166979" d="M61.971,94.934c-2.917,0-5.834-.012-8.751.011-.55,0-.776-.119-.754-.717.044-1.2.026-2.4.006-3.6-.007-.41.1-.575.546-.573q8.874.018,17.747,0c.475,0,.6.167.6.617-.024,1.2-.035,2.4,0,3.6.018.572-.223.675-.725.672-2.89-.017-5.78-.008-8.669-.008" transform="translate(-23.196 -39.817)" fill="#776f77"/>
        <path id="Trazado_166980" data-name="Trazado 166980" d="M140.757,56.331c.208-.04.35-.144.342-.376-.081-2.149.218-4.312-.218-6.449a1.018,1.018,0,0,0-.1-.22c.544-.011,1.088-.038,1.632-.029a1.068,1.068,0,0,1,1.145,1.118c.016.216,0,.436,0,.654V77.435c0,1.536-.257,1.793-1.8,1.792-.326,0-.653-.017-.979-.027a5.268,5.268,0,0,0,.325-1.736q0-3.134,0-6.267c-.077-.208.059-.355.145-.519a2.015,2.015,0,0,0-.365-2.62.307.307,0,0,1-.11-.281c.383-.059.331-.355.332-.618,0-.561,0-1.123,0-1.684-.084-.209.056-.356.142-.519a1.976,1.976,0,0,0-.317-2.557c-.092-.1-.188-.192-.162-.345a1.723,1.723,0,0,0-.023-2.166c.211-.568.809-.892.839-1.615a3.214,3.214,0,0,0-.822-1.942" transform="translate(-62.226 -21.778)" fill="#da6470"/>
        <path id="Trazado_166981" data-name="Trazado 166981" d="M129.709,11.687c.218-.226.132-.511.133-.771.006-2.186,0-4.371,0-6.557.787-.027,1.789-.331,2.3.1.532.451.175,1.484.176,2.26.015,6.407,0,12.814.022,19.221,0,.7-.113,1.008-.919.974-1.6-.068-1.607-.017-1.607-1.661q0-4.908,0-9.815a30.4,30.4,0,0,0-.1-3.752" transform="translate(-57.349 -1.87)" fill="#787078"/>
        <path id="Trazado_166982" data-name="Trazado 166982" d="M118.746,30.95a.743.743,0,0,0,.5-.8c-.02-4.305.011-8.611-.028-12.916a4.892,4.892,0,0,0-.933-3.063c-.158-.2-.382-.406-.359-.713a3.546,3.546,0,0,1,4.217,3.777c.009,4.332-.007,8.664.015,13,0,.558-.124.772-.716.738-.9-.05-1.8-.016-2.7-.017" transform="translate(-52.138 -5.937)" fill="#bed8f9"/>
        <path id="Trazado_166983" data-name="Trazado 166983" d="M123.546,54.313a6.2,6.2,0,0,1-1.005-.108,1.1,1.1,0,0,1-.874-1.287,1.066,1.066,0,0,1,1.048-1.056,14.852,14.852,0,0,1,1.8-.015,1.207,1.207,0,0,1,.141,2.406,10.889,10.889,0,0,1-1.106.059" transform="translate(-53.79 -22.915)" fill="#010101"/>
        <path id="Trazado_166984" data-name="Trazado 166984" d="M139.586,61.939c.845.352.981,1.042.979,1.867a1.614,1.614,0,0,1-1,1.691c-1.233-.1-1.487-.429-1.477-1.911.008-1.218.328-1.57,1.494-1.647" transform="translate(-61.055 -27.385)" fill="#010101"/>
        <path id="Trazado_166985" data-name="Trazado 166985" d="M139.555,72.2a2.15,2.15,0,0,1,.338,3.421q-1.655.331-1.826-.979c-.225-1.736.158-2.364,1.488-2.442" transform="translate(-61.017 -31.922)" fill="#010101"/>
        <path id="Trazado_166986" data-name="Trazado 166986" d="M139.564,82.458a2.152,2.152,0,0,1,.33,3.42c-1.084.234-1.714-.108-1.825-.989-.219-1.737.167-2.364,1.5-2.431" transform="translate(-61.019 -36.457)" fill="#020101"/>
        <path id="Trazado_166987" data-name="Trazado 166987" d="M129.872,63.69c0-.189-.013-.38,0-.568a1.134,1.134,0,0,1,1.143-1.144,1.121,1.121,0,0,1,1.245,1.03,5.232,5.232,0,0,1,.018,1.372,1.2,1.2,0,0,1-1.268,1.115,1.183,1.183,0,0,1-1.147-1.237c-.007-.189,0-.379,0-.568h.007" transform="translate(-57.416 -27.402)" fill="#020101"/>
        <path id="Trazado_166988" data-name="Trazado 166988" d="M129.843,73.974c.012-.243.005-.489.04-.728a1.195,1.195,0,0,1,2.325-.172,3.283,3.283,0,0,1,.017,1.764,1.2,1.2,0,0,1-2.357-.215c-.017-.215,0-.432,0-.649h-.022" transform="translate(-57.408 -31.933)" fill="#020101"/>
        <path id="Trazado_166989" data-name="Trazado 166989" d="M121.61,63.728c.012-.243.006-.489.041-.729a1.124,1.124,0,0,1,1.086-1.024,1.107,1.107,0,0,1,1.237.834,3.219,3.219,0,0,1,0,1.843,1.107,1.107,0,0,1-1.24.831,1.121,1.121,0,0,1-1.084-1.026c-.033-.24-.027-.485-.04-.729" transform="translate(-53.768 -27.398)" fill="#020101"/>
        <path id="Trazado_166990" data-name="Trazado 166990" d="M121.612,74c.011-.243,0-.489.037-.729A1.2,1.2,0,0,1,124,73.129a3.788,3.788,0,0,1,.043,1.531,1.178,1.178,0,0,1-1.208,1.092,1.2,1.2,0,0,1-1.2-1.182c-.017-.187,0-.378,0-.567h-.018" transform="translate(-53.769 -31.936)" fill="#020101"/>
        <path id="Trazado_166991" data-name="Trazado 166991" d="M121.608,84.2a6.155,6.155,0,0,1,.049-.727,1.2,1.2,0,0,1,2.331-.12,3.7,3.7,0,0,1,.055,1.531A1.2,1.2,0,0,1,122.778,86a1.186,1.186,0,0,1-1.154-1.233c-.008-.189,0-.378,0-.568h-.015" transform="translate(-53.767 -36.469)" fill="#020101"/>
        <path id="Trazado_166992" data-name="Trazado 166992" d="M129.841,84.176a5.624,5.624,0,0,1,.049-.728,1.2,1.2,0,0,1,1.829-.784,2.241,2.241,0,0,1-.034,3.162,1.192,1.192,0,0,1-1.8-.84,6.83,6.83,0,0,1-.042-.809" transform="translate(-57.407 -36.463)" fill="#020101"/>
        <path id="Trazado_166993" data-name="Trazado 166993" d="M52.656,26.187c6.818,0,13.635.009,20.453-.016.594,0,.7.178.7.722q-.032,6.88,0,13.76c0,.451-.086.6-.572.6q-20.609-.022-41.217,0c-.513,0-.61-.158-.609-.632q.025-6.911,0-13.823c0-.488.118-.62.614-.619q10.32.026,20.64.012" transform="translate(-13.884 -11.571)" fill="#fedf7c"/>
        <path id="Trazado_166994" data-name="Trazado 166994" d="M75.344,36.632c.366-1.826.693-3.455,1.02-5.084.041-.2.076-.409.125-.611a.926.926,0,0,1,1.121-.807.941.941,0,0,1,.714,1.192c-.333,1.694-.675,3.386-1.014,5.079-.225,1.121-.46,2.242-.675,3.365a1.145,1.145,0,0,1-2.26.119c-.562-1.821-1.121-3.642-1.686-5.48-.266.148-.245.409-.309.61-.5,1.584-.987,3.175-1.484,4.761-.229.729-.64,1.064-1.222,1.025s-.93-.408-1.082-1.173q-.821-4.131-1.633-8.265c-.132-.674.127-1.125.687-1.257.541-.127.987.2,1.129.878.334,1.608.644,3.222.966,4.834.044.219.1.436.178.78l1.683-5.4c.031-.1.066-.2.091-.3a.93.93,0,0,1,.918-.792.982.982,0,0,1,.976.815q.708,2.294,1.408,4.59c.1.317.2.633.351,1.124" transform="translate(-29.589 -13.299)"/>
        <path id="Trazado_166995" data-name="Trazado 166995" d="M40.847,36.907V31.836c0-.292-.015-.584,0-.875a.922.922,0,0,1,1.813-.177,2.043,2.043,0,0,1,.055.555q.035,3.969.064,7.938a1.626,1.626,0,0,1-.189.964,1.034,1.034,0,0,1-1.77-.076c-.784-1.1-1.544-2.221-2.313-3.334-.6-.87-1.2-1.741-1.913-2.775v1.563c0,1.334,0,2.667,0,4,0,.761-.374,1.207-.972,1.186-.571-.02-.9-.446-.9-1.187,0-2.771,0-5.543-.005-8.314,0-.52.093-.962.649-1.144.591-.193.932.148,1.235.589,1.378,2.007,2.765,4.009,4.246,6.156" transform="translate(-15.349 -13.305)"/>
        <path id="Trazado_166996" data-name="Trazado 166996" d="M94.213,40.805a5.038,5.038,0,0,1-3.391-1.484.931.931,0,0,1-.1-1.428.952.952,0,0,1,1.39.079,3.03,3.03,0,0,0,2.975.843,1.273,1.273,0,0,0,1.062-1.091c.066-.63-.4-.939-.878-1.156-.794-.359-1.614-.659-2.418-1a2.644,2.644,0,0,1-1.91-2.8,3.009,3.009,0,0,1,2.565-2.607,4.819,4.819,0,0,1,3.714.9.941.941,0,0,1,.372,1.388.964.964,0,0,1-1.429.156,2.975,2.975,0,0,0-2.471-.561,1.028,1.028,0,0,0-.879.928c-.037.508.328.7.747.862.816.309,1.631.623,2.425.984,1.811.822,2.53,2.506,1.768,4.07a3.747,3.747,0,0,1-3.546,1.913" transform="translate(-39.985 -13.302)"/>
        <path id="Trazado_166997" data-name="Trazado 166997" d="M52.925,35.351c0-1.333,0-2.667,0-4,0-.969.311-1.288,1.26-1.291,1.062-.005,2.125-.008,3.188,0,.728.006,1.158.363,1.163.939s-.424.928-1.151.934c-.708.006-1.418.017-2.125-.006-.346-.011-.485.085-.466.451a15.623,15.623,0,0,1,0,1.625c-.02.373.085.523.481.5.6-.031,1.208-.014,1.813-.006.734.009,1.168.353,1.177.917.01.584-.447.949-1.212.957-.583.006-1.168.03-1.749-.008-.431-.028-.542.14-.508.534.057.657-.275,1.537.134,1.911.358.326,1.225.095,1.867.107.292.005.586-.022.874.011a.876.876,0,0,1,.854.907.836.836,0,0,1-.816.934c-1.31.046-2.625.041-3.936,0-.555-.016-.844-.443-.847-1.111-.008-1.438,0-2.875,0-4.313" transform="translate(-23.399 -13.288)"/>
      </g>
    </g>
  </g>
</svg>
