<svg xmlns="http://www.w3.org/2000/svg" xmlns:xlink="http://www.w3.org/1999/xlink" width="105" height="105" viewBox="0 0 105 105">
  <defs>
    <clipPath id="clip-path">
      <rect id="Rectángulo_43342" data-name="Rectángulo 43342" width="66.708" height="60.476" fill="none"/>
    </clipPath>
  </defs>
  <g id="Grupo_170741" data-name="Grupo 170741" transform="translate(-433.326 -839)">
    <path id="Trazado_160852" data-name="Trazado 160852" d="M52.5,0A52.5,52.5,0,1,1,0,52.5,52.5,52.5,0,0,1,52.5,0Z" transform="translate(433.326 839)" fill="#a6bbff"/>
    <g id="Grupo_170985" data-name="Grupo 170985" transform="translate(452.326 861)">
      <g id="Grupo_170985-2" data-name="Grupo 170985" clip-path="url(#clip-path)">
        <path id="Trazado_166998" data-name="Trazado 166998" d="M66.708,69.932a1.633,1.633,0,0,1-1.5.663q-31.872-.021-63.744-.012C.312,70.583,0,70.273,0,69.125Q0,53.369,0,37.612c0-.97.179-1.215,1.041-1.444a.916.916,0,0,1,1.145.652,2.53,2.53,0,0,1,.108.9q.007,14.15,0,28.3c0,.13-.015.26-.018.39.037.433.012.867.024,1.3.01.368.174.56.553.567.239,0,.477.01.716.01H63.127c1.278,0,1.279,0,1.284-1.281,0-.2.006-.39.019-.585-.032-.412-.018-.824-.018-1.236q0-20.2,0-40.409c0-.326-.007-.651.011-.976a1.262,1.262,0,0,1,1.035-1.313,1.054,1.054,0,0,1,1.25.8Z" transform="translate(0 -10.119)"/>
        <path id="Trazado_166999" data-name="Trazado 166999" d="M1.041,24C.217,23.782,0,23.52,0,22.689Q0,12.012,0,1.335C0,.362.357.013,1.342.013q32,0,64-.014a1.6,1.6,0,0,1,1.364.664v9.12a1.113,1.113,0,0,1-1.188.841c-3.148.03-6.295.012-9.442.013q-11.591,0-23.181,0A5.54,5.54,0,0,1,27.9,7.878c-.8-1.288-1.665-2.543-2.446-3.846a3.407,3.407,0,0,0-3.19-1.742C15.95,2.312,9.634,2.3,3.318,2.3c-1.027,0-1.029,0-1.029,1.067q0,9.376,0,18.753a4.347,4.347,0,0,1-.068,1.1A.938.938,0,0,1,1.041,24" transform="translate(0 0)"/>
        <path id="Trazado_167000" data-name="Trazado 167000" d="M66.52,12.162V14.2c-.861.227-1.043.475-1.043,1.441q0,20.786,0,41.573c0,.26-.014.519-.021.779a.9.9,0,0,1-.664.21c-.217.011-.434.007-.651.007q-29.933,0-59.864,0c-.444,0-.919.119-1.316-.212-.007-.238-.02-.476-.02-.713q0-14.044,0-28.089c0-.963-.184-1.213-1.043-1.441V25.709c.843-.226,1.043-.484,1.043-1.38q0-9.931-.012-19.862c0-.517.086-.683.652-.681q9.833.035,19.666.006a3.421,3.421,0,0,1,3.18,1.752c.8,1.315,1.667,2.587,2.478,3.894a5.4,5.4,0,0,0,4.928,2.708q15.987-.025,31.975-.007c.238,0,.477.014.715.021" transform="translate(-0.853 -1.705)" fill="#e9f1fe"/>
        <path id="Trazado_167001" data-name="Trazado 167001" d="M3.79,102.378h62.5c0,.67.241,1.522-.08,1.957-.305.414-1.214.124-1.855.125q-29.9.01-59.8.022c-.656,0-.884-.15-.793-.8a10.879,10.879,0,0,0,.031-1.3" transform="translate(-1.683 -46.086)" fill="#c0d0f6"/>
        <path id="Trazado_167002" data-name="Trazado 167002" d="M48.942,3.8h.731q18.131,0,36.26-.014c.591,0,.751.143.736.735-.043,1.67-.031,3.342,0,5.012.007.434-.125.53-.542.53q-15.688-.017-31.377-.009a2.864,2.864,0,0,1-2.5-1.17c-1.126-1.634-2.171-3.324-3.31-5.084" transform="translate(-22.031 -1.705)" fill="#e9d48f"/>
        <path id="Trazado_167003" data-name="Trazado 167003" d="M44.235,45.22c1.693,0,3.387.007,5.08,0a1.106,1.106,0,0,1,1.206.678c.1.254.261.223.466.192a33.809,33.809,0,0,0,13.832-5.313.731.731,0,0,0,.385-.736c-.119-2.094.32-2.163,2.109-2.117.955.025,1.91,0,2.865.006.894.006,1.27.374,1.272,1.261q.007,4.1,0,8.205c0,.946,0,.946.936.955a4.169,4.169,0,0,1,.234,8.335c-1.17.037-1.17.037-1.17,1.181q0,3.94,0,7.88c0,1.018-.347,1.363-1.366,1.365-1.215,0-2.431.006-3.647,0-.851,0-1.322-.4-1.216-1.226A2.011,2.011,0,0,0,63.983,63.7a34.627,34.627,0,0,0-12.96-4.752c-.278-.042-.428-.01-.545.274a.978.978,0,0,1-1,.591,10.179,10.179,0,0,1-1.236-.009c-.6-.074-.8.088-.786.744.042,3.1.02,6.208.018,9.312,0,1.1-.328,1.417-1.444,1.418-1.194,0-2.388.005-3.582,0a1.069,1.069,0,0,1-1.237-1.045q-.911-4.955-1.8-9.913c-.063-.353-.156-.492-.55-.53a3.082,3.082,0,0,1-2.845-3.154q-.019-4.135,0-8.271a3.1,3.1,0,0,1,3.138-3.138c1.693-.016,3.387,0,5.08,0" transform="translate(-16.208 -17.066)"/>
        <path id="Trazado_167004" data-name="Trazado 167004" d="M30.329,29.87c0-1.324-.005-2.648,0-3.972,0-.852.382-1.246,1.227-1.234a16.071,16.071,0,0,1,2.921.1,5.2,5.2,0,0,1-.706,10.3c-.758.037-1.519.023-2.278.012a1.048,1.048,0,0,1-1.163-1.171c-.012-1.345,0-2.691,0-4.036" transform="translate(-13.651 -11.096)"/>
        <path id="Trazado_167005" data-name="Trazado 167005" d="M19.73,34A1.053,1.053,0,0,1,19,35.027a.967.967,0,0,1-1.15-.369,1.7,1.7,0,0,1-.2-.4C17.139,33,17.14,33,15.815,33a2.2,2.2,0,0,1-.39,0,1.482,1.482,0,0,0-2.005,1.31A.97.97,0,0,1,12.045,35a1.034,1.034,0,0,1-.538-1.458q1.5-4.044,3.019-8.081a1.056,1.056,0,0,1,1-.794,1.016,1.016,0,0,1,1.034.737q1.539,4.1,3.064,8.2A3.943,3.943,0,0,1,19.73,34" transform="translate(-5.132 -11.104)"/>
        <path id="Trazado_167006" data-name="Trazado 167006" d="M51.488,35.081c-.39,0-.782.019-1.171,0a1.035,1.035,0,0,1,.014-2.071c.65-.024,1.3,0,1.952-.009a1.046,1.046,0,1,0,.077-2.083,3.129,3.129,0,1,1,.231-6.252c.607,0,1.215-.012,1.822,0a1.043,1.043,0,1,1-.014,2.077c-.585.014-1.171,0-1.757,0-.782.007-1.242.373-1.266,1s.414,1.027,1.189,1.085a3.147,3.147,0,0,1,2.97,2.913,3.113,3.113,0,0,1-2.556,3.276,11.167,11.167,0,0,1-1.49.083Z" transform="translate(-22.188 -11.099)"/>
        <path id="Trazado_167007" data-name="Trazado 167007" d="M17.634,96.883c-1.669,0-3.338,0-5.007,0-.772,0-1.234-.39-1.247-1.021s.45-1.058,1.206-1.06c3.36,0,6.719,0,10.079,0a1.094,1.094,0,0,1,1.115.619.966.966,0,0,1-.149,1.091,1.159,1.159,0,0,1-.99.381c-1.669-.008-3.338,0-5.007,0" transform="translate(-5.123 -42.673)"/>
        <path id="Trazado_167008" data-name="Trazado 167008" d="M15.515,89.3c-.953,0-1.906,0-2.859,0-.813,0-1.285-.4-1.276-1.056.009-.632.47-1.023,1.239-1.025q2.923-.008,5.847,0c.771,0,1.232.39,1.244,1.022.012.653-.464,1.056-1.272,1.06-.974,0-1.949,0-2.924,0" transform="translate(-5.123 -39.26)"/>
        <path id="Trazado_167009" data-name="Trazado 167009" d="M37.048,5.712a1.04,1.04,0,1,1-1.027,1.036,1.048,1.048,0,0,1,1.027-1.036" transform="translate(-16.215 -2.571)" fill="#020203"/>
        <path id="Trazado_167010" data-name="Trazado 167010" d="M96.863,8.662a1.04,1.04,0,1,1-1.008-1.055,1.05,1.05,0,0,1,1.008,1.055" transform="translate(-42.667 -3.424)" fill="#020201"/>
        <path id="Trazado_167011" data-name="Trazado 167011" d="M103.434,7.608a1.041,1.041,0,1,1-1.067,1,1.046,1.046,0,0,1,1.067-1" transform="translate(-46.08 -3.424)" fill="#020201"/>
        <path id="Trazado_167012" data-name="Trazado 167012" d="M112.03,8.649a1.04,1.04,0,1,1-1.022-1.041,1.05,1.05,0,0,1,1.022,1.041" transform="translate(-49.494 -3.425)" fill="#020201"/>
        <path id="Trazado_167013" data-name="Trazado 167013" d="M62.566,58.958c-.007-2.04,0-4.081-.035-6.121-.008-.464.274-.4.53-.439a35.865,35.865,0,0,0,12.822-4.4c.39-.223.774-.459,1.157-.686.046.062.088.092.088.123q0,8.434-.012,16.869c-.266.174-.454-.033-.643-.152a34.088,34.088,0,0,0-13.195-4.909,1.157,1.157,0,0,1-.713-.282" transform="translate(-28.149 -21.296)" fill="#f5f5f5"/>
        <path id="Trazado_167014" data-name="Trazado 167014" d="M39.834,63.067c-.007-2.322-.022-4.644-.015-6.965A1.008,1.008,0,0,1,40.912,55c2.974-.013,5.947,0,8.921-.012.3,0,.411.079.409.4-.018,2.648-.02,5.3-.027,7.943-.049.041-.091.1-.155.11a9.723,9.723,0,0,1-3.427-.058c-.172-.206.009-.357.089-.521.406-.839.078-1.4-.859-1.432-.56-.021-1.123-.022-1.683,0-.938.037-1.265.6-.848,1.435.074.149.217.28.126.475a1.4,1.4,0,0,1-.993.189c-.561.008-1.124.025-1.685-.012-.366-.024-.745-.052-.945-.443" transform="translate(-17.924 -24.751)" fill="#e28398"/>
        <path id="Trazado_167015" data-name="Trazado 167015" d="M92.9,64.64c-.007-1.279-.02-2.559-.02-3.84,0-6.163,0-12.325-.012-18.487,0-.476.1-.622.6-.613,1.5.027,1.5,0,1.5,1.524q0,10.35,0,20.7c0,.238-.013.477-.02.714a2.306,2.306,0,0,1-2.042,0" transform="translate(-41.804 -18.771)" fill="#e28398"/>
        <path id="Trazado_167016" data-name="Trazado 167016" d="M62.567,68.5a34.944,34.944,0,0,1,8.983,2.419,47.674,47.674,0,0,1,5.567,2.923v1.938a36.555,36.555,0,0,0-4.861-2.563,35.1,35.1,0,0,0-9.2-2.574c-.4-.054-.549-.176-.516-.587.041-.516.023-1.037.03-1.556" transform="translate(-28.149 -30.833)" fill="#dbdbdb"/>
        <path id="Trazado_167017" data-name="Trazado 167017" d="M39.831,69.685a7.507,7.507,0,0,0,3.64.145,2.756,2.756,0,0,1,1.389-.063,4.642,4.642,0,0,1,1.711.063,4.726,4.726,0,0,0,1.772.109c.621.032,1.245.006,1.868,0,.021.669.279,1.518-.082,1.954-.345.416-1.222.124-1.863.128-2.343.015-4.686.007-7.029.006-1.105,0-1.426-.323-1.426-1.435,0-.3.013-.606.02-.91" transform="translate(-17.921 -31.369)" fill="#da4e6c"/>
        <path id="Trazado_167018" data-name="Trazado 167018" d="M50.16,81.359c.007,2.3.009,4.6.027,6.892,0,.3-.066.4-.388.41-1.846.079-1.86.092-2.182-1.675-.341-1.872-.651-3.751-.974-5.626a.609.609,0,0,1,.465-.194q1.292-.051,2.586,0a.639.639,0,0,1,.466.192" transform="translate(-20.996 -36.526)" fill="#f5f5f5"/>
        <path id="Trazado_167019" data-name="Trazado 167019" d="M100.462,62.658c0-.563-.005-1.126,0-1.689,0-.131-.074-.288.145-.371a2.467,2.467,0,0,1,2.849,1.38,2.085,2.085,0,0,1-1.857,2.787c-1.14.07-1.14.07-1.14-1.066v-1.04" transform="translate(-45.22 -27.233)" fill="#fefefe"/>
        <path id="Trazado_167020" data-name="Trazado 167020" d="M49.844,79.759l-3.517,0c-.023-.036-.059-.07-.066-.108-.1-.637-.494-1.478-.228-1.855.285-.4,1.2-.1,1.838-.122.517-.021,1.036.012,1.553-.01.315-.013.473.044.449.413-.037.558-.022,1.12-.029,1.68" transform="translate(-20.681 -34.926)" fill="#dbdbdb"/>
        <path id="Trazado_167021" data-name="Trazado 167021" d="M92.908,83.421H94.95c.007.28.02.561.02.841,0,1.247,0,1.247-1.236,1.247-.848,0-.85,0-.847-.858,0-.41.013-.82.02-1.231" transform="translate(-41.813 -37.552)" fill="#da4e6c"/>
        <path id="Trazado_167022" data-name="Trazado 167022" d="M34.115,31.539c0-.89.016-1.78-.008-2.67-.009-.346.1-.423.435-.431,1.92-.046,3.2.755,3.621,2.3a3.122,3.122,0,0,1-2.91,3.956c-1.138.042-1.138.042-1.138-1.076V31.539" transform="translate(-15.353 -12.801)" fill="#e9f1fe"/>
        <path id="Trazado_167023" data-name="Trazado 167023" d="M18.28,31.947l.834,2.234H17.462c.257-.7.5-1.372.818-2.234" transform="translate(-7.861 -14.381)" fill="#e6edfa"/>
        <path id="Trazado_167024" data-name="Trazado 167024" d="M49.13,68.332a8.806,8.806,0,0,1-3.1,0,1.043,1.043,0,0,1-.456-1.289,1.092,1.092,0,0,1,1.2-.682q.808.021,1.618,0a1.094,1.094,0,0,1,1.2.681,1.043,1.043,0,0,1-.455,1.29" transform="translate(-20.479 -29.872)"/>
      </g>
    </g>
  </g>
</svg>
