<svg xmlns="http://www.w3.org/2000/svg" width="808" height="266" viewBox="0 0 808 266">
  <g id="_14" data-name="14" transform="translate(-192 -3886)">
    <rect id="Rectángulo_41038" data-name="Rectángulo 41038" width="295" height="73" rx="10" transform="translate(192 4036)" fill="#3c3fa7"/>
    <rect id="Rectángulo_41041" data-name="Rectángulo 41041" width="155" height="77" rx="10" transform="translate(510 4034)" fill="#6b8dfc"/>
    <rect id="Rectángulo_42983" data-name="Rectángulo 42983" width="315" height="72.762" rx="10" transform="translate(685 4036)" fill="#fd9fa3"/>
    <path id="Trazado_170522" data-name="Trazado 170522" d="M32.09,10H27.871l-.492,3.25H32.4L32.137,15h-7.3l1.7-11.375h7.281l-.258,1.758H28.559l-.43,2.859h4.227Zm5.523-.773.047.008,1.7-2.687h2.578l-3.172,4.18L40.754,15h-2.57l-.961-2.8-1.8,2.8H32.84l3.273-4.273-1.93-4.18h2.563Zm12.352,1.781a5.621,5.621,0,0,1-1.32,3.051,3.381,3.381,0,0,1-2.594,1.105,2.325,2.325,0,0,1-1.129-.262,2.075,2.075,0,0,1-.785-.762l-.609,4.109H41.254L43,6.547h2.055l-.016,1a3.318,3.318,0,0,1,1.031-.859,2.716,2.716,0,0,1,1.273-.3,2.38,2.38,0,0,1,2.219,1.238,4.93,4.93,0,0,1,.422,3.215Zm-2.258-.164A3.9,3.9,0,0,0,47.6,8.891a1.089,1.089,0,0,0-1.113-.727,1.81,1.81,0,0,0-.9.223,2.026,2.026,0,0,0-.68.629l-.555,3.656a1.116,1.116,0,0,0,.492.555,1.769,1.769,0,0,0,.867.188,1.558,1.558,0,0,0,1.3-.656,3.829,3.829,0,0,0,.672-1.75Zm8.484-2.336-.836-.023a1.625,1.625,0,0,0-.859.223,1.789,1.789,0,0,0-.609.629L53.043,15H50.77l1.266-8.453h2.117l-.078,1.211a3.127,3.127,0,0,1,.914-1.012,2,2,0,0,1,1.148-.355,1.788,1.788,0,0,1,.316.027,2.705,2.705,0,0,1,.285.066Zm3.7,6.656a3.285,3.285,0,0,1-2.742-1.176,3.672,3.672,0,0,1-.648-2.973l.047-.312a5.343,5.343,0,0,1,1.488-3.145,4.111,4.111,0,0,1,3.02-1.168,2.826,2.826,0,0,1,2.426,1.055,3.614,3.614,0,0,1,.52,2.8l-.172,1.18H58.785l-.016.039a1.983,1.983,0,0,0,.3,1.426,1.546,1.546,0,0,0,1.328.527,5.011,5.011,0,0,0,1.32-.16,6.029,6.029,0,0,0,1.188-.473l.406,1.406a5.183,5.183,0,0,1-1.484.7A6.475,6.475,0,0,1,59.895,15.164ZM60.8,8.148a1.459,1.459,0,0,0-1.105.477,2.831,2.831,0,0,0-.652,1.242l.016.047h2.766l.023-.172a1.824,1.824,0,0,0-.121-1.18A.975.975,0,0,0,60.8,8.148Zm8.758,4.508a.665.665,0,0,0-.27-.648A3.443,3.443,0,0,0,68,11.539a4.649,4.649,0,0,1-2.125-.9,1.721,1.721,0,0,1-.547-1.633,2.733,2.733,0,0,1,1.176-1.871,4.231,4.231,0,0,1,2.566-.746,3.565,3.565,0,0,1,2.426.773,1.937,1.937,0,0,1,.691,1.9l-.016.047h-2.2a.992.992,0,0,0-.211-.836,1.165,1.165,0,0,0-.906-.312,1.466,1.466,0,0,0-.895.273.987.987,0,0,0-.426.672.653.653,0,0,0,.238.641,3.46,3.46,0,0,0,1.293.438,4.721,4.721,0,0,1,2.184.918,1.784,1.784,0,0,1,.535,1.668,2.645,2.645,0,0,1-1.238,1.891,4.778,4.778,0,0,1-2.684.7,3.456,3.456,0,0,1-2.516-.867,2.076,2.076,0,0,1-.7-1.937l.023-.047h2.086a1.041,1.041,0,0,0,.309.984,1.648,1.648,0,0,0,1.059.3,1.728,1.728,0,0,0,.984-.258A.971.971,0,0,0,69.559,12.656Zm8.25,0a.665.665,0,0,0-.27-.648,3.443,3.443,0,0,0-1.285-.469,4.649,4.649,0,0,1-2.125-.9,1.721,1.721,0,0,1-.547-1.633,2.733,2.733,0,0,1,1.176-1.871,4.231,4.231,0,0,1,2.566-.746,3.565,3.565,0,0,1,2.426.773,1.937,1.937,0,0,1,.691,1.9l-.016.047h-2.2a.992.992,0,0,0-.211-.836,1.165,1.165,0,0,0-.906-.312,1.466,1.466,0,0,0-.895.273.987.987,0,0,0-.426.672.653.653,0,0,0,.238.641,3.46,3.46,0,0,0,1.293.438A4.721,4.721,0,0,1,79.5,10.9a1.784,1.784,0,0,1,.535,1.668A2.645,2.645,0,0,1,78.8,14.461a4.778,4.778,0,0,1-2.684.7A3.456,3.456,0,0,1,73.6,14.3a2.076,2.076,0,0,1-.7-1.937l.023-.047h2.086a1.041,1.041,0,0,0,.309.984,1.648,1.648,0,0,0,1.059.3,1.728,1.728,0,0,0,.984-.258A.971.971,0,0,0,77.809,12.656ZM83.52,15H81.238L82.5,6.547h2.281ZM85.09,4.523H82.809l.258-1.711h2.281Zm.6,6.172A5.25,5.25,0,0,1,87.2,7.563a4.306,4.306,0,0,1,3.105-1.172,3.183,3.183,0,0,1,2.719,1.219,3.985,3.985,0,0,1,.641,3.086l-.023.164A5.312,5.312,0,0,1,92.121,14a4.319,4.319,0,0,1-3.109,1.164,3.188,3.188,0,0,1-2.719-1.215,3.942,3.942,0,0,1-.625-3.09Zm2.25.164a3.383,3.383,0,0,0,.117,1.875,1.193,1.193,0,0,0,1.211.68,1.663,1.663,0,0,0,1.383-.711,3.994,3.994,0,0,0,.711-1.844l.023-.164A3.489,3.489,0,0,0,91.25,8.84a1.176,1.176,0,0,0-1.2-.691,1.661,1.661,0,0,0-1.391.723,3.918,3.918,0,0,0-.7,1.824Zm9.766-3.148a3.623,3.623,0,0,1,1.18-.977,3.112,3.112,0,0,1,1.438-.344,2.153,2.153,0,0,1,1.852.836,3.482,3.482,0,0,1,.352,2.594L101.754,15H99.465l.773-5.172a1.9,1.9,0,0,0-.113-1.3,1.025,1.025,0,0,0-.9-.363,2.106,2.106,0,0,0-.918.2,2.2,2.2,0,0,0-.723.551L96.668,15H94.387l1.266-8.453h2.125Zm17.563,4.133h.047l1.813-5.3h2.219L115.934,15h-1.906l-.836-4.867-.047-.008L110.84,15h-1.9l-.883-8.453h2.219l.242,5.273.047.008,2.375-5.281h1.523ZM121.613,15h-2.281L120.6,6.547h2.281Zm1.57-10.477H120.9l.258-1.711h2.281Zm4.617-.047-.312,2.07h1.43l-.234,1.6h-1.437l-.641,4.3a.9.9,0,0,0,.094.715.644.644,0,0,0,.516.2,2.371,2.371,0,0,0,.316-.02,2.468,2.468,0,0,0,.316-.066l-.062,1.648a5.087,5.087,0,0,1-.691.176,4.116,4.116,0,0,1-.715.059,2.108,2.108,0,0,1-1.7-.656,2.509,2.509,0,0,1-.348-2.047l.641-4.312h-1.227l.234-1.6h1.234l.313-2.07Zm4.594,3.094a3.609,3.609,0,0,1,1.113-.871,2.936,2.936,0,0,1,1.324-.309,2.218,2.218,0,0,1,1.918.887,3.66,3.66,0,0,1,.371,2.707L136.371,15H134.09l.758-5.031a2.2,2.2,0,0,0-.105-1.414.985.985,0,0,0-.895-.391,2.285,2.285,0,0,0-.926.18,2.134,2.134,0,0,0-.715.508L131.285,15H129l1.828-12.187h2.281Zm11.117-1.7,1.133-2.25h1.125l-.328,2.234-.3,2.016h-1.922Zm2.563,0,1.133-2.25h1.125L148,5.859l-.3,2.016h-1.922Zm10.766,5.969h.047l1.813-5.3h2.219L157.5,15H155.6l-.836-4.867-.047-.008L152.41,15h-1.9l-.883-8.453h2.219l.242,5.273.047.008,2.375-5.281h1.523Zm4.242-1.148a5.249,5.249,0,0,1,1.512-3.133A4.306,4.306,0,0,1,165.7,6.391a3.183,3.183,0,0,1,2.719,1.219,3.985,3.985,0,0,1,.641,3.086l-.023.164A5.312,5.312,0,0,1,167.512,14a4.319,4.319,0,0,1-3.109,1.164,3.188,3.188,0,0,1-2.719-1.215,3.942,3.942,0,0,1-.625-3.09Zm2.25.164a3.383,3.383,0,0,0,.117,1.875,1.193,1.193,0,0,0,1.211.68,1.663,1.663,0,0,0,1.383-.711,3.994,3.994,0,0,0,.711-1.844l.023-.164a3.489,3.489,0,0,0-.137-1.855,1.176,1.176,0,0,0-1.2-.691,1.661,1.661,0,0,0-1.391.723,3.918,3.918,0,0,0-.7,1.824Zm11.852,2.93a3.366,3.366,0,0,1-1.141,1.023,3.044,3.044,0,0,1-1.461.352,2.2,2.2,0,0,1-1.93-.914,3.9,3.9,0,0,1-.359-2.8l.734-4.9H173.3l-.734,4.914A2.589,2.589,0,0,0,172.633,13a.945.945,0,0,0,.879.391,2.351,2.351,0,0,0,.957-.187,2.046,2.046,0,0,0,.73-.539l.914-6.117h2.281L177.129,15h-1.891ZM181.246,15h-2.281l1.828-12.187h2.281Zm2.148-4.156a6.25,6.25,0,0,1,1.34-3.262,3.322,3.322,0,0,1,2.621-1.191,2.027,2.027,0,0,1,1.082.285,2.367,2.367,0,0,1,.785.816l.7-4.68h2.289L190.387,15h-1.945l-.039-1.039a3.5,3.5,0,0,1-1.078.895,2.77,2.77,0,0,1-1.3.309,2.431,2.431,0,0,1-2.215-1.156,4.311,4.311,0,0,1-.441-3Zm2.25.164a3.186,3.186,0,0,0,.1,1.766,1.118,1.118,0,0,0,1.133.617,1.909,1.909,0,0,0,.887-.207,1.987,1.987,0,0,0,.691-.6L189,9.008a1.389,1.389,0,0,0-.5-.621,1.433,1.433,0,0,0-.816-.223,1.549,1.549,0,0,0-1.316.754,4.507,4.507,0,0,0-.691,1.926ZM199.473,7.57a3.609,3.609,0,0,1,1.113-.871,2.936,2.936,0,0,1,1.324-.309,2.218,2.218,0,0,1,1.918.887,3.66,3.66,0,0,1,.371,2.707L203.449,15h-2.281l.758-5.031a2.2,2.2,0,0,0-.105-1.414.985.985,0,0,0-.895-.391,2.285,2.285,0,0,0-.926.18,2.134,2.134,0,0,0-.715.508L198.363,15h-2.281L197.91,2.813h2.281ZM210.152,15a3.7,3.7,0,0,1-.125-.613,4.615,4.615,0,0,1-.031-.66,3.883,3.883,0,0,1-1.082,1.031,2.609,2.609,0,0,1-1.434.406,2.5,2.5,0,0,1-1.922-.691,2.114,2.114,0,0,1-.461-1.855,2.637,2.637,0,0,1,1.234-1.949,5.433,5.433,0,0,1,2.906-.66h1.281l.1-.672a1.182,1.182,0,0,0-.176-.957,1.124,1.124,0,0,0-.91-.324,1.425,1.425,0,0,0-.887.27,1.063,1.063,0,0,0-.418.738h-2.2l-.008-.047a2.573,2.573,0,0,1,1.207-1.867,4.614,4.614,0,0,1,2.7-.758,3.321,3.321,0,0,1,2.32.773,2.306,2.306,0,0,1,.641,2.188l-.523,3.492a6.258,6.258,0,0,0-.078,1.125A5.487,5.487,0,0,0,212.426,15Zm-1.859-1.523a2.165,2.165,0,0,0,1.094-.3,2.036,2.036,0,0,0,.758-.691l.18-1.187h-1.281a1.718,1.718,0,0,0-1.137.367,1.4,1.4,0,0,0-.52.875.762.762,0,0,0,.172.691A.989.989,0,0,0,208.293,13.477Zm8.875-1.625.031.773.047.008.273-.781,2.188-5.3h2.383L217.949,15h-2.18L214.16,6.547h2.383Zm8.188,3.313a3.285,3.285,0,0,1-2.742-1.176,3.672,3.672,0,0,1-.648-2.973l.047-.312A5.343,5.343,0,0,1,223.5,7.559a4.111,4.111,0,0,1,3.02-1.168,2.826,2.826,0,0,1,2.426,1.055,3.614,3.614,0,0,1,.52,2.8l-.172,1.18h-5.047l-.016.039a1.983,1.983,0,0,0,.3,1.426,1.546,1.546,0,0,0,1.328.527,5.011,5.011,0,0,0,1.32-.16,6.029,6.029,0,0,0,1.188-.473l.406,1.406a5.183,5.183,0,0,1-1.484.7A6.475,6.475,0,0,1,225.355,15.164Zm.906-7.016a1.459,1.459,0,0,0-1.105.477,2.831,2.831,0,0,0-.652,1.242l.016.047h2.766l.023-.172a1.824,1.824,0,0,0-.121-1.18A.975.975,0,0,0,226.262,8.148Zm7.133-2.5-1.133,2.227h-1.125l.328-2.219.3-2.031h1.922Zm2.625,0-1.133,2.227h-1.125l.328-2.219.3-2.031h1.922ZM30.629,39H29.082l1.7-11.375h1.547Zm9.211-3.078L39.871,37l.039.008.375-1.086,2.492-5.375h1.234l.891,5.375.039,1.211.047.008.43-1.219,2.055-5.375h1.609L45.363,39H44.121l-.9-5.148-.117-1.336-.047-.008-.5,1.344L40.145,39H38.9l-1.187-8.453h1.6ZM49.613,34.7a5.387,5.387,0,0,1,1.473-3.125,4,4,0,0,1,2.941-1.18,2.942,2.942,0,0,1,2.559,1.223,4.1,4.1,0,0,1,.6,3.082l-.031.172A5.4,5.4,0,0,1,55.676,38a4.018,4.018,0,0,1-2.945,1.168,2.945,2.945,0,0,1-2.559-1.219,4.063,4.063,0,0,1-.59-3.078Zm1.508.172a3.681,3.681,0,0,0,.227,2.242,1.6,1.6,0,0,0,1.563.852,2.211,2.211,0,0,0,1.777-.887,4.5,4.5,0,0,0,.926-2.207l.031-.172a3.683,3.683,0,0,0-.238-2.234,1.6,1.6,0,0,0-1.559-.859,2.212,2.212,0,0,0-1.785.895,4.425,4.425,0,0,0-.91,2.2ZM63.887,39l.086-1.211A3.446,3.446,0,0,1,62.8,38.813a3.209,3.209,0,0,1-1.5.352,2.33,2.33,0,0,1-2-.895,3.643,3.643,0,0,1-.383-2.738l.742-4.984h1.539l-.75,5a2.963,2.963,0,0,0,.109,1.883,1.311,1.311,0,0,0,1.18.484A2.606,2.606,0,0,0,64.1,36.586l.9-6.039h1.539L65.27,39Zm5.289,0H67.637l1.828-12.187H71ZM71.8,34.93A6.411,6.411,0,0,1,73.16,31.6a3.334,3.334,0,0,1,2.633-1.211,2.617,2.617,0,0,1,1.262.289,2.29,2.29,0,0,1,.871.836l.7-4.7h1.539L78.34,39H77.16l-.07-1.07a3.432,3.432,0,0,1-1.164.922,3.355,3.355,0,0,1-1.461.313,2.473,2.473,0,0,1-2.227-1.133,4.13,4.13,0,0,1-.461-2.937Zm1.516.164a3.283,3.283,0,0,0,.207,2.07,1.575,1.575,0,0,0,1.52.75,2.229,2.229,0,0,0,1.188-.32,3.028,3.028,0,0,0,.914-.891l.586-3.914a1.906,1.906,0,0,0-.645-.84A1.811,1.811,0,0,0,76,31.641a2.105,2.105,0,0,0-1.754.926,5.129,5.129,0,0,0-.9,2.363Zm13.938-3.461a3.829,3.829,0,0,1,1.211-.918,3.35,3.35,0,0,1,1.461-.324,2.349,2.349,0,0,1,1.957.82,3.2,3.2,0,0,1,.41,2.492L91.5,39H89.957l.8-5.312a2.052,2.052,0,0,0-.211-1.562,1.515,1.515,0,0,0-1.273-.484,2.68,2.68,0,0,0-1.223.281,2.776,2.776,0,0,0-.949.781L86.152,39H84.613l1.828-12.187H87.98ZM98.9,39q-.016-.438-.016-.707a4.986,4.986,0,0,1,.031-.551,4.564,4.564,0,0,1-1.277,1.012,3.193,3.193,0,0,1-1.543.41,2.41,2.41,0,0,1-1.887-.684,2.155,2.155,0,0,1-.434-1.855,2.584,2.584,0,0,1,1.25-1.914,5.194,5.194,0,0,1,2.773-.664h1.672l.125-.836a1.369,1.369,0,0,0-.27-1.191,1.593,1.593,0,0,0-1.223-.418,2.134,2.134,0,0,0-1.25.375,1.3,1.3,0,0,0-.609.9l-1.469.016-.008-.047a2.422,2.422,0,0,1,1.117-1.707,4.1,4.1,0,0,1,2.484-.746,3.053,3.053,0,0,1,2.172.738,2.258,2.258,0,0,1,.594,2.1l-.609,4.07a6.685,6.685,0,0,0-.09.887,4.511,4.511,0,0,0,.051.816ZM96.52,37.875a3.032,3.032,0,0,0,1.547-.437,2.613,2.613,0,0,0,1.039-.984l.211-1.367H97.59a2.54,2.54,0,0,0-1.547.477,1.651,1.651,0,0,0-.734,1.094,1.011,1.011,0,0,0,.207.9A1.341,1.341,0,0,0,96.52,37.875Zm9.063-1.367.047.594.047.008.234-.6,2.836-5.961h1.57L105.941,39h-1.164l-1.883-8.453h1.578Zm8.227,2.656a3.069,3.069,0,0,1-2.629-1.18,3.934,3.934,0,0,1-.6-3.047l.055-.344a5.061,5.061,0,0,1,1.488-3.047,3.89,3.89,0,0,1,2.754-1.156,2.624,2.624,0,0,1,2.352,1.07,3.846,3.846,0,0,1,.461,2.789l-.117.813h-5.469a3.355,3.355,0,0,0,.266,2.121,1.7,1.7,0,0,0,1.617.777,4.177,4.177,0,0,0,1.395-.227,3.661,3.661,0,0,0,1.113-.609l.453,1a4.447,4.447,0,0,1-1.3.738A5.139,5.139,0,0,1,113.809,39.164ZM114.7,31.6a1.948,1.948,0,0,0-1.4.625,3.561,3.561,0,0,0-.9,1.578l.016.047h3.8l.016-.125a2.256,2.256,0,0,0-.219-1.535A1.41,1.41,0,0,0,114.7,31.6Zm10.57.016a3.411,3.411,0,0,1,1.18-.91,3.605,3.605,0,0,1,1.539-.316,2.3,2.3,0,0,1,1.359.391,1.942,1.942,0,0,1,.75,1.164A3.722,3.722,0,0,1,131.32,30.8a3.187,3.187,0,0,1,1.613-.414,2.158,2.158,0,0,1,1.879.895,3.643,3.643,0,0,1,.379,2.66L134.434,39h-1.539l.758-5.07a2.626,2.626,0,0,0-.152-1.793,1.381,1.381,0,0,0-1.215-.5,1.886,1.886,0,0,0-1.34.555,2.884,2.884,0,0,0-.8,1.383.063.063,0,0,0-.008.027v.027l-.8,5.367h-1.547l.758-5.07a2.571,2.571,0,0,0-.168-1.762,1.339,1.339,0,0,0-1.2-.527,2.236,2.236,0,0,0-1.191.309,2.473,2.473,0,0,0-.832.855l-.93,6.2h-1.539l1.266-8.453h1.375ZM141.863,39q-.016-.438-.016-.707a4.988,4.988,0,0,1,.031-.551,4.564,4.564,0,0,1-1.277,1.012,3.193,3.193,0,0,1-1.543.41,2.41,2.41,0,0,1-1.887-.684,2.155,2.155,0,0,1-.434-1.855,2.584,2.584,0,0,1,1.25-1.914,5.194,5.194,0,0,1,2.773-.664h1.672l.125-.836a1.369,1.369,0,0,0-.27-1.191,1.593,1.593,0,0,0-1.223-.418,2.134,2.134,0,0,0-1.25.375,1.3,1.3,0,0,0-.609.9l-1.469.016-.008-.047a2.422,2.422,0,0,1,1.117-1.707,4.1,4.1,0,0,1,2.484-.746,3.053,3.053,0,0,1,2.172.738,2.258,2.258,0,0,1,.594,2.1l-.609,4.07a6.686,6.686,0,0,0-.09.887,4.51,4.51,0,0,0,.051.816Zm-2.383-1.125a3.032,3.032,0,0,0,1.547-.437,2.613,2.613,0,0,0,1.039-.984l.211-1.367h-1.727a2.54,2.54,0,0,0-1.547.477,1.651,1.651,0,0,0-.734,1.094,1.011,1.011,0,0,0,.207.9A1.341,1.341,0,0,0,139.48,37.875Zm6.242-2.945a6.411,6.411,0,0,1,1.359-3.328,3.334,3.334,0,0,1,2.633-1.211,2.617,2.617,0,0,1,1.262.289,2.29,2.29,0,0,1,.871.836l.7-4.7h1.539L152.262,39h-1.18l-.07-1.07a3.432,3.432,0,0,1-1.164.922,3.355,3.355,0,0,1-1.461.313,2.473,2.473,0,0,1-2.227-1.133,4.13,4.13,0,0,1-.461-2.937Zm1.516.164a3.283,3.283,0,0,0,.207,2.07,1.575,1.575,0,0,0,1.52.75,2.229,2.229,0,0,0,1.188-.32,3.028,3.028,0,0,0,.914-.891l.586-3.914a1.906,1.906,0,0,0-.645-.84,1.811,1.811,0,0,0-1.09-.309,2.105,2.105,0,0,0-1.754.926,5.129,5.129,0,0,0-.9,2.363Zm10.8,4.07a3.069,3.069,0,0,1-2.629-1.18,3.934,3.934,0,0,1-.6-3.047l.055-.344a5.061,5.061,0,0,1,1.488-3.047,3.89,3.89,0,0,1,2.754-1.156,2.624,2.624,0,0,1,2.352,1.07,3.845,3.845,0,0,1,.461,2.789l-.117.813h-5.469a3.355,3.355,0,0,0,.266,2.121,1.7,1.7,0,0,0,1.617.777,4.177,4.177,0,0,0,1.395-.227,3.661,3.661,0,0,0,1.113-.609l.453,1a4.447,4.447,0,0,1-1.3.738A5.139,5.139,0,0,1,158.035,39.164Zm.891-7.562a1.948,1.948,0,0,0-1.4.625,3.561,3.561,0,0,0-.9,1.578l.016.047h3.8l.016-.125a2.257,2.257,0,0,0-.219-1.535A1.41,1.41,0,0,0,158.926,31.6Zm13.258,5.125a.908.908,0,0,0-.266-.836,3.27,3.27,0,0,0-1.391-.555,5.344,5.344,0,0,1-2.176-.9,1.562,1.562,0,0,1-.582-1.547,2.6,2.6,0,0,1,1.121-1.789,3.935,3.935,0,0,1,2.387-.711,3.006,3.006,0,0,1,2.188.789,1.943,1.943,0,0,1,.633,1.813l-.016.047h-1.477a1.162,1.162,0,0,0-.336-1,1.515,1.515,0,0,0-1.156-.437,1.974,1.974,0,0,0-1.254.371,1.334,1.334,0,0,0-.543.871.821.821,0,0,0,.234.781,3.447,3.447,0,0,0,1.375.492,5.217,5.217,0,0,1,2.227.93,1.632,1.632,0,0,1,.586,1.57,2.62,2.62,0,0,1-1.164,1.855,4.265,4.265,0,0,1-2.484.691,3.283,3.283,0,0,1-2.395-.828,2.033,2.033,0,0,1-.652-1.906l.016-.047h1.477a1.245,1.245,0,0,0,.445,1.2,2.1,2.1,0,0,0,1.281.379,2.3,2.3,0,0,0,1.313-.352A1.3,1.3,0,0,0,172.184,36.727Zm3.383-2.031a5.387,5.387,0,0,1,1.473-3.125,4,4,0,0,1,2.941-1.18,2.942,2.942,0,0,1,2.559,1.223,4.1,4.1,0,0,1,.6,3.082l-.031.172A5.4,5.4,0,0,1,181.629,38a4.018,4.018,0,0,1-2.945,1.168,2.945,2.945,0,0,1-2.559-1.219,4.063,4.063,0,0,1-.59-3.078Zm1.508.172a3.681,3.681,0,0,0,.227,2.242,1.6,1.6,0,0,0,1.563.852,2.211,2.211,0,0,0,1.777-.887,4.5,4.5,0,0,0,.926-2.207l.031-.172a3.683,3.683,0,0,0-.238-2.234A1.6,1.6,0,0,0,179.8,31.6a2.212,2.212,0,0,0-1.785.895,4.425,4.425,0,0,0-.91,2.2Zm9.883-3.25a3.411,3.411,0,0,1,1.18-.91,3.605,3.605,0,0,1,1.539-.316,2.3,2.3,0,0,1,1.359.391,1.942,1.942,0,0,1,.75,1.164,3.722,3.722,0,0,1,1.223-1.141,3.187,3.187,0,0,1,1.613-.414,2.158,2.158,0,0,1,1.879.895,3.643,3.643,0,0,1,.379,2.66L196.121,39h-1.539l.758-5.07a2.626,2.626,0,0,0-.152-1.793,1.381,1.381,0,0,0-1.215-.5,1.886,1.886,0,0,0-1.34.555,2.884,2.884,0,0,0-.8,1.383.063.063,0,0,0-.008.027v.027L191.02,39h-1.547l.758-5.07a2.571,2.571,0,0,0-.168-1.762,1.339,1.339,0,0,0-1.2-.527,2.236,2.236,0,0,0-1.191.309,2.473,2.473,0,0,0-.832.855l-.93,6.2h-1.539l1.266-8.453h1.375Zm14.875,7.547a3.069,3.069,0,0,1-2.629-1.18,3.934,3.934,0,0,1-.6-3.047l.055-.344a5.061,5.061,0,0,1,1.488-3.047,3.89,3.89,0,0,1,2.754-1.156,2.624,2.624,0,0,1,2.352,1.07,3.845,3.845,0,0,1,.461,2.789l-.117.813h-5.469a3.355,3.355,0,0,0,.266,2.121,1.7,1.7,0,0,0,1.617.777,4.177,4.177,0,0,0,1.395-.227,3.661,3.661,0,0,0,1.113-.609l.453,1a4.447,4.447,0,0,1-1.3.738A5.139,5.139,0,0,1,201.832,39.164Zm.891-7.562a1.948,1.948,0,0,0-1.4.625,3.561,3.561,0,0,0-.9,1.578l.016.047h3.8l.016-.125a2.257,2.257,0,0,0-.219-1.535A1.41,1.41,0,0,0,202.723,31.6Zm11.7-3.094-.3,2.039h1.6l-.172,1.141h-1.6l-.766,5.133a1.052,1.052,0,0,0,.113.848.793.793,0,0,0,.621.23,1.571,1.571,0,0,0,.3-.035,2.1,2.1,0,0,0,.285-.074l.055,1.055a1.634,1.634,0,0,1-.543.23,2.7,2.7,0,0,1-.676.09,1.735,1.735,0,0,1-1.395-.57,2.153,2.153,0,0,1-.3-1.773l.766-5.133h-1.344l.172-1.141h1.344l.3-2.039Zm5.156,10.656a3.069,3.069,0,0,1-2.629-1.18,3.934,3.934,0,0,1-.6-3.047l.055-.344a5.061,5.061,0,0,1,1.488-3.047,3.89,3.89,0,0,1,2.754-1.156A2.624,2.624,0,0,1,223,31.461a3.845,3.845,0,0,1,.461,2.789l-.117.813h-5.469a3.355,3.355,0,0,0,.266,2.121,1.7,1.7,0,0,0,1.617.777,4.177,4.177,0,0,0,1.395-.227,3.661,3.661,0,0,0,1.113-.609l.453,1a4.447,4.447,0,0,1-1.3.738A5.139,5.139,0,0,1,219.574,39.164Zm.891-7.562a1.948,1.948,0,0,0-1.4.625,3.561,3.561,0,0,0-.9,1.578l.016.047h3.8l.016-.125a2.257,2.257,0,0,0-.219-1.535A1.41,1.41,0,0,0,220.465,31.6Zm9.2,7.4q-.016-.438-.016-.707a4.988,4.988,0,0,1,.031-.551,4.564,4.564,0,0,1-1.277,1.012,3.193,3.193,0,0,1-1.543.41,2.41,2.41,0,0,1-1.887-.684,2.155,2.155,0,0,1-.434-1.855,2.584,2.584,0,0,1,1.25-1.914,5.194,5.194,0,0,1,2.773-.664h1.672l.125-.836a1.369,1.369,0,0,0-.27-1.191,1.593,1.593,0,0,0-1.223-.418,2.134,2.134,0,0,0-1.25.375,1.3,1.3,0,0,0-.609.9l-1.469.016-.008-.047a2.422,2.422,0,0,1,1.117-1.707,4.1,4.1,0,0,1,2.484-.746,3.053,3.053,0,0,1,2.172.738,2.258,2.258,0,0,1,.594,2.1l-.609,4.07a6.686,6.686,0,0,0-.09.887,4.51,4.51,0,0,0,.051.816Zm-2.383-1.125a3.032,3.032,0,0,0,1.547-.437,2.613,2.613,0,0,0,1.039-.984l.211-1.367h-1.727a2.54,2.54,0,0,0-1.547.477,1.651,1.651,0,0,0-.734,1.094,1.011,1.011,0,0,0,.207.9A1.341,1.341,0,0,0,227.285,37.875Z" transform="translate(209 4051)" fill="#fff"/>
    <path id="Trazado_170521" data-name="Trazado 170521" d="M14.7,11.234l.016.047a4.184,4.184,0,0,1-1.523,2.887,5.221,5.221,0,0,1-3.312,1,3.758,3.758,0,0,1-3.066-1.328,4.135,4.135,0,0,1-.793-3.391l.344-2.258A5.6,5.6,0,0,1,8.09,4.746a4.9,4.9,0,0,1,3.426-1.285A4.2,4.2,0,0,1,14.57,4.488a3.036,3.036,0,0,1,.75,2.848l-.023.047H13.078A2.014,2.014,0,0,0,12.8,5.734a1.972,1.972,0,0,0-1.555-.516,2.181,2.181,0,0,0-1.7.836,4.121,4.121,0,0,0-.914,2.117l-.344,2.273a3.239,3.239,0,0,0,.277,2.164,1.683,1.683,0,0,0,1.566.8,2.291,2.291,0,0,0,1.59-.543,2.642,2.642,0,0,0,.77-1.637Zm1.219-.539a5.25,5.25,0,0,1,1.512-3.133,4.306,4.306,0,0,1,3.105-1.172A3.183,3.183,0,0,1,23.25,7.609a3.985,3.985,0,0,1,.641,3.086l-.023.164A5.312,5.312,0,0,1,22.344,14a4.319,4.319,0,0,1-3.109,1.164,3.188,3.188,0,0,1-2.719-1.215,3.942,3.942,0,0,1-.625-3.09Zm2.25.164a3.383,3.383,0,0,0,.117,1.875,1.193,1.193,0,0,0,1.211.68,1.663,1.663,0,0,0,1.383-.711,3.994,3.994,0,0,0,.711-1.844l.023-.164a3.489,3.489,0,0,0-.137-1.855,1.176,1.176,0,0,0-1.2-.691,1.661,1.661,0,0,0-1.391.723,3.918,3.918,0,0,0-.7,1.824ZM27.93,7.711a3.623,3.623,0,0,1,1.18-.977,3.112,3.112,0,0,1,1.438-.344,2.153,2.153,0,0,1,1.852.836A3.482,3.482,0,0,1,32.75,9.82L31.977,15H29.688l.773-5.172a1.9,1.9,0,0,0-.113-1.3,1.025,1.025,0,0,0-.9-.363,2.106,2.106,0,0,0-.918.2,2.2,2.2,0,0,0-.723.551L26.891,15H24.609l1.266-8.453H28Zm6.023,3.133a6.25,6.25,0,0,1,1.34-3.262,3.322,3.322,0,0,1,2.621-1.191A2.027,2.027,0,0,1,39,6.676a2.366,2.366,0,0,1,.785.816l.7-4.68h2.289L40.945,15H39l-.039-1.039a3.5,3.5,0,0,1-1.078.895,2.77,2.77,0,0,1-1.3.309,2.431,2.431,0,0,1-2.215-1.156,4.311,4.311,0,0,1-.441-3Zm2.25.164a3.186,3.186,0,0,0,.1,1.766,1.118,1.118,0,0,0,1.133.617,1.909,1.909,0,0,0,.887-.207,1.987,1.987,0,0,0,.691-.6l.539-3.578a1.389,1.389,0,0,0-.5-.621,1.433,1.433,0,0,0-.816-.223,1.549,1.549,0,0,0-1.316.754,4.507,4.507,0,0,0-.691,1.926ZM45.109,15H42.828l1.266-8.453h2.281ZM46.68,4.523H44.4l.258-1.711h2.281ZM51.3,4.477l-.312,2.07h1.43l-.234,1.6H50.742l-.641,4.3a.9.9,0,0,0,.094.715.644.644,0,0,0,.516.2,2.371,2.371,0,0,0,.316-.02,2.468,2.468,0,0,0,.316-.066l-.062,1.648a5.086,5.086,0,0,1-.691.176,4.116,4.116,0,0,1-.715.059,2.108,2.108,0,0,1-1.7-.656,2.509,2.509,0,0,1-.348-2.047l.641-4.312H47.242l.234-1.6h1.234l.313-2.07ZM54.953,15H52.672l1.266-8.453h2.281Zm1.57-10.477H54.242L54.5,2.813h2.281Zm.6,6.172a5.25,5.25,0,0,1,1.512-3.133,4.306,4.306,0,0,1,3.105-1.172,3.183,3.183,0,0,1,2.719,1.219A3.985,3.985,0,0,1,65.1,10.7l-.023.164A5.312,5.312,0,0,1,63.555,14a4.319,4.319,0,0,1-3.109,1.164,3.188,3.188,0,0,1-2.719-1.215,3.942,3.942,0,0,1-.625-3.09Zm2.25.164a3.383,3.383,0,0,0,.117,1.875,1.193,1.193,0,0,0,1.211.68,1.663,1.663,0,0,0,1.383-.711,3.994,3.994,0,0,0,.711-1.844l.023-.164a3.489,3.489,0,0,0-.137-1.855,1.176,1.176,0,0,0-1.2-.691,1.661,1.661,0,0,0-1.391.723,3.918,3.918,0,0,0-.7,1.824Zm9.766-3.148a3.623,3.623,0,0,1,1.18-.977,3.112,3.112,0,0,1,1.438-.344,2.153,2.153,0,0,1,1.852.836,3.482,3.482,0,0,1,.352,2.594L73.188,15H70.9l.773-5.172a1.9,1.9,0,0,0-.113-1.3,1.025,1.025,0,0,0-.9-.363,2.106,2.106,0,0,0-.918.2,2.2,2.2,0,0,0-.723.551L68.1,15H65.82l1.266-8.453h2.125ZM79.875,15a3.7,3.7,0,0,1-.125-.613,4.615,4.615,0,0,1-.031-.66,3.883,3.883,0,0,1-1.082,1.031,2.609,2.609,0,0,1-1.434.406,2.5,2.5,0,0,1-1.922-.691,2.114,2.114,0,0,1-.461-1.855,2.637,2.637,0,0,1,1.234-1.949,5.433,5.433,0,0,1,2.906-.66h1.281l.1-.672a1.182,1.182,0,0,0-.176-.957,1.124,1.124,0,0,0-.91-.324,1.425,1.425,0,0,0-.887.27,1.063,1.063,0,0,0-.418.738h-2.2l-.008-.047a2.573,2.573,0,0,1,1.207-1.867,4.614,4.614,0,0,1,2.7-.758,3.321,3.321,0,0,1,2.32.773,2.306,2.306,0,0,1,.641,2.188l-.523,3.492a6.259,6.259,0,0,0-.078,1.125A5.486,5.486,0,0,0,82.148,15Zm-1.859-1.523a2.165,2.165,0,0,0,1.094-.3,2.036,2.036,0,0,0,.758-.691l.18-1.187H78.766a1.718,1.718,0,0,0-1.137.367,1.4,1.4,0,0,0-.52.875.762.762,0,0,0,.172.691A.989.989,0,0,0,78.016,13.477ZM85.883,15H83.6L85.43,2.813h2.281ZM99.57,11.844h.047l1.813-5.3h2.219L100.234,15H98.328l-.836-4.867-.047-.008L95.141,15h-1.9l-.883-8.453h2.219l.242,5.273.047.008,2.375-5.281h1.523Zm4.242-1.148a5.25,5.25,0,0,1,1.512-3.133,4.306,4.306,0,0,1,3.105-1.172,3.183,3.183,0,0,1,2.719,1.219,3.985,3.985,0,0,1,.641,3.086l-.023.164A5.312,5.312,0,0,1,110.242,14a4.319,4.319,0,0,1-3.109,1.164,3.188,3.188,0,0,1-2.719-1.215,3.942,3.942,0,0,1-.625-3.09Zm2.25.164a3.383,3.383,0,0,0,.117,1.875,1.193,1.193,0,0,0,1.211.68,1.663,1.663,0,0,0,1.383-.711,3.994,3.994,0,0,0,.711-1.844l.023-.164a3.489,3.489,0,0,0-.137-1.855,1.176,1.176,0,0,0-1.2-.691,1.661,1.661,0,0,0-1.391.723,3.918,3.918,0,0,0-.7,1.824Zm11.906-2.352-.836-.023a1.625,1.625,0,0,0-.859.223,1.789,1.789,0,0,0-.609.629L114.82,15h-2.273l1.266-8.453h2.117l-.078,1.211a3.127,3.127,0,0,1,.914-1.012,2,2,0,0,1,1.148-.355,1.788,1.788,0,0,1,.316.027,2.705,2.705,0,0,1,.285.066Zm.336,2.336a6.25,6.25,0,0,1,1.34-3.262,3.322,3.322,0,0,1,2.621-1.191,2.027,2.027,0,0,1,1.082.285,2.366,2.366,0,0,1,.785.816l.7-4.68h2.289L125.3,15h-1.945l-.039-1.039a3.5,3.5,0,0,1-1.078.895,2.77,2.77,0,0,1-1.3.309,2.431,2.431,0,0,1-2.215-1.156,4.311,4.311,0,0,1-.441-3Zm2.25.164a3.186,3.186,0,0,0,.1,1.766,1.118,1.118,0,0,0,1.133.617,1.909,1.909,0,0,0,.887-.207,1.987,1.987,0,0,0,.691-.6l.539-3.578a1.389,1.389,0,0,0-.5-.621,1.433,1.433,0,0,0-.816-.223,1.549,1.549,0,0,0-1.316.754,4.508,4.508,0,0,0-.691,1.926ZM63.512,39H61.965l1.7-11.375h1.547Zm3.25,0,1.094-7.312h-1.32l.172-1.141h1.32l.164-1.07a3.383,3.383,0,0,1,1.016-2.117,3.034,3.034,0,0,1,2.086-.711,3.143,3.143,0,0,1,.531.047q.273.047.578.117l-.359,1.172q-.141-.031-.34-.055a3.509,3.509,0,0,0-.41-.023,1.406,1.406,0,0,0-1.051.41,2.024,2.024,0,0,0-.512,1.16l-.164,1.07H71.1l-.172,1.141H69.395L68.3,39Z" transform="translate(522 4051)" fill="#12263f"/>
    <path id="Trazado_170520" data-name="Trazado 170520" d="M11.18,10.875,10.563,15H8.281l1.7-11.375h4.352A3.917,3.917,0,0,1,17.23,4.637a2.905,2.905,0,0,1,.777,2.621,3.946,3.946,0,0,1-1.516,2.656,5.192,5.192,0,0,1-3.242.961Zm.266-1.758h2.07a2.14,2.14,0,0,0,2.211-1.844A1.742,1.742,0,0,0,15.449,5.9a1.632,1.632,0,0,0-1.371-.52h-2.07ZM23.2,15a3.7,3.7,0,0,1-.125-.613,4.615,4.615,0,0,1-.031-.66,3.883,3.883,0,0,1-1.082,1.031,2.609,2.609,0,0,1-1.434.406,2.5,2.5,0,0,1-1.922-.691,2.114,2.114,0,0,1-.461-1.855,2.637,2.637,0,0,1,1.234-1.949,5.433,5.433,0,0,1,2.906-.66H23.57l.1-.672a1.182,1.182,0,0,0-.176-.957,1.124,1.124,0,0,0-.91-.324,1.425,1.425,0,0,0-.887.27,1.063,1.063,0,0,0-.418.738h-2.2l-.008-.047a2.573,2.573,0,0,1,1.207-1.867,4.614,4.614,0,0,1,2.7-.758,3.321,3.321,0,0,1,2.32.773,2.306,2.306,0,0,1,.641,2.188l-.523,3.492a6.259,6.259,0,0,0-.078,1.125A5.486,5.486,0,0,0,25.477,15Zm-1.859-1.523a2.165,2.165,0,0,0,1.094-.3,2.036,2.036,0,0,0,.758-.691l.18-1.187H22.094a1.718,1.718,0,0,0-1.137.367,1.4,1.4,0,0,0-.52.875.762.762,0,0,0,.172.691A.989.989,0,0,0,21.344,13.477Zm10.406-.82a.665.665,0,0,0-.27-.648,3.443,3.443,0,0,0-1.285-.469,4.649,4.649,0,0,1-2.125-.9,1.721,1.721,0,0,1-.547-1.633A2.733,2.733,0,0,1,28.7,7.137a4.231,4.231,0,0,1,2.566-.746,3.565,3.565,0,0,1,2.426.773,1.937,1.937,0,0,1,.691,1.9l-.016.047h-2.2a.992.992,0,0,0-.211-.836,1.165,1.165,0,0,0-.906-.312,1.466,1.466,0,0,0-.895.273.987.987,0,0,0-.426.672.653.653,0,0,0,.238.641,3.46,3.46,0,0,0,1.293.438,4.721,4.721,0,0,1,2.184.918,1.784,1.784,0,0,1,.535,1.668,2.645,2.645,0,0,1-1.238,1.891,4.778,4.778,0,0,1-2.684.7,3.456,3.456,0,0,1-2.516-.867,2.076,2.076,0,0,1-.7-1.937l.023-.047h2.086a1.041,1.041,0,0,0,.309.984,1.648,1.648,0,0,0,1.059.3,1.728,1.728,0,0,0,.984-.258A.971.971,0,0,0,31.75,12.656Zm7.625-8.18-.312,2.07h1.43l-.234,1.6H38.82l-.641,4.3a.9.9,0,0,0,.094.715.644.644,0,0,0,.516.2,2.371,2.371,0,0,0,.316-.02,2.468,2.468,0,0,0,.316-.066l-.062,1.648a5.086,5.086,0,0,1-.691.176,4.116,4.116,0,0,1-.715.059,2.108,2.108,0,0,1-1.7-.656,2.509,2.509,0,0,1-.348-2.047l.641-4.312H35.32l.234-1.6h1.234l.313-2.07Zm13.469,6.531a5.621,5.621,0,0,1-1.32,3.051,3.381,3.381,0,0,1-2.594,1.105A2.325,2.325,0,0,1,47.8,14.9a2.075,2.075,0,0,1-.785-.762l-.609,4.109H44.133l1.75-11.7h2.055l-.016,1a3.318,3.318,0,0,1,1.031-.859,2.716,2.716,0,0,1,1.273-.3,2.38,2.38,0,0,1,2.219,1.238,4.93,4.93,0,0,1,.422,3.215Zm-2.258-.164a3.9,3.9,0,0,0-.105-1.953,1.089,1.089,0,0,0-1.113-.727,1.81,1.81,0,0,0-.9.223,2.026,2.026,0,0,0-.68.629l-.555,3.656a1.116,1.116,0,0,0,.492.555,1.769,1.769,0,0,0,.867.188,1.558,1.558,0,0,0,1.3-.656,3.829,3.829,0,0,0,.672-1.75Zm6.7,4.32a3.285,3.285,0,0,1-2.742-1.176,3.672,3.672,0,0,1-.648-2.973l.047-.312a5.343,5.343,0,0,1,1.488-3.145,4.111,4.111,0,0,1,3.02-1.168,2.826,2.826,0,0,1,2.426,1.055,3.614,3.614,0,0,1,.52,2.8l-.172,1.18H56.18l-.016.039a1.983,1.983,0,0,0,.3,1.426,1.546,1.546,0,0,0,1.328.527,5.011,5.011,0,0,0,1.32-.16,6.029,6.029,0,0,0,1.188-.473l.406,1.406a5.183,5.183,0,0,1-1.484.7A6.475,6.475,0,0,1,57.289,15.164ZM58.2,8.148a1.459,1.459,0,0,0-1.105.477,2.831,2.831,0,0,0-.652,1.242l.016.047h2.766l.023-.172a1.824,1.824,0,0,0-.121-1.18A.975.975,0,0,0,58.2,8.148Zm9.242.359L66.6,8.484a1.625,1.625,0,0,0-.859.223,1.789,1.789,0,0,0-.609.629L64.289,15H62.016l1.266-8.453H65.4L65.32,7.758a3.127,3.127,0,0,1,.914-1.012,2,2,0,0,1,1.148-.355,1.788,1.788,0,0,1,.316.027,2.705,2.705,0,0,1,.285.066ZM68.359,15l1.023-6.852h-1.25l.234-1.6h1.258l.141-.937a3.345,3.345,0,0,1,1.141-2.219,3.757,3.757,0,0,1,2.43-.742,3.884,3.884,0,0,1,.582.047q.309.047.645.117l-.453,1.7q-.18-.031-.352-.055a3.053,3.053,0,0,0-.406-.023,1.26,1.26,0,0,0-.875.309,1.412,1.412,0,0,0-.43.871l-.141.938h1.625l-.234,1.6H71.664L70.641,15Zm8.438.164a3.285,3.285,0,0,1-2.742-1.176,3.672,3.672,0,0,1-.648-2.973l.047-.312a5.343,5.343,0,0,1,1.488-3.145,4.111,4.111,0,0,1,3.02-1.168,2.826,2.826,0,0,1,2.426,1.055,3.614,3.614,0,0,1,.52,2.8l-.172,1.18H75.688l-.016.039a1.983,1.983,0,0,0,.3,1.426,1.546,1.546,0,0,0,1.328.527,5.011,5.011,0,0,0,1.32-.16,6.028,6.028,0,0,0,1.188-.473l.406,1.406a5.183,5.183,0,0,1-1.484.7A6.475,6.475,0,0,1,76.8,15.164ZM77.7,8.148a1.459,1.459,0,0,0-1.105.477,2.831,2.831,0,0,0-.652,1.242l.016.047h2.766l.023-.172a1.824,1.824,0,0,0-.121-1.18A.975.975,0,0,0,77.7,8.148Zm7.586,5.266a1.467,1.467,0,0,0,.988-.359,1.519,1.519,0,0,0,.512-.945h2.07l.016.047a3.149,3.149,0,0,1-1.27,2.168,4.116,4.116,0,0,1-2.574.84,3.092,3.092,0,0,1-2.684-1.215,3.985,3.985,0,0,1-.6-3.051l.031-.234a5.322,5.322,0,0,1,1.477-3.1,4.185,4.185,0,0,1,3.07-1.172,3.036,3.036,0,0,1,2.332.9,2.6,2.6,0,0,1,.59,2.344l-.016.039H87.148a1.538,1.538,0,0,0-.176-1.1,1,1,0,0,0-.9-.426,1.555,1.555,0,0,0-1.348.719,4.247,4.247,0,0,0-.66,1.8l-.031.234a3.629,3.629,0,0,0,.086,1.84A1.119,1.119,0,0,0,85.289,13.414Zm8.8-8.937-.312,2.07H95.2l-.234,1.6H93.531l-.641,4.3a.9.9,0,0,0,.094.715.644.644,0,0,0,.516.2,2.371,2.371,0,0,0,.316-.02,2.468,2.468,0,0,0,.316-.066L94.07,14.93a5.087,5.087,0,0,1-.691.176,4.116,4.116,0,0,1-.715.059,2.108,2.108,0,0,1-1.7-.656,2.509,2.509,0,0,1-.348-2.047l.641-4.312H90.031l.234-1.6H91.5l.313-2.07Zm10.18,8.18a.665.665,0,0,0-.27-.648,3.443,3.443,0,0,0-1.285-.469,4.649,4.649,0,0,1-2.125-.9,1.721,1.721,0,0,1-.547-1.633,2.733,2.733,0,0,1,1.176-1.871,4.231,4.231,0,0,1,2.566-.746,3.565,3.565,0,0,1,2.426.773,1.937,1.937,0,0,1,.691,1.9l-.016.047h-2.2a.992.992,0,0,0-.211-.836,1.165,1.165,0,0,0-.906-.312,1.466,1.466,0,0,0-.895.273.987.987,0,0,0-.426.672.653.653,0,0,0,.238.641,3.46,3.46,0,0,0,1.293.438,4.721,4.721,0,0,1,2.184.918,1.784,1.784,0,0,1,.535,1.668,2.645,2.645,0,0,1-1.238,1.891,4.778,4.778,0,0,1-2.684.7,3.456,3.456,0,0,1-2.516-.867,2.076,2.076,0,0,1-.7-1.937l.023-.047h2.086a1.041,1.041,0,0,0,.309.984,1.648,1.648,0,0,0,1.059.3,1.728,1.728,0,0,0,.984-.258A.971.971,0,0,0,104.266,12.656Zm6.953,2.508a3.285,3.285,0,0,1-2.742-1.176,3.672,3.672,0,0,1-.648-2.973l.047-.312a5.343,5.343,0,0,1,1.488-3.145,4.111,4.111,0,0,1,3.02-1.168,2.826,2.826,0,0,1,2.426,1.055,3.614,3.614,0,0,1,.52,2.8l-.172,1.18h-5.047l-.016.039a1.983,1.983,0,0,0,.3,1.426,1.546,1.546,0,0,0,1.328.527,5.011,5.011,0,0,0,1.32-.16,6.028,6.028,0,0,0,1.188-.473l.406,1.406a5.183,5.183,0,0,1-1.484.7A6.475,6.475,0,0,1,111.219,15.164Zm.906-7.016a1.459,1.459,0,0,0-1.105.477,2.831,2.831,0,0,0-.652,1.242l.016.047h2.766l.023-.172a1.824,1.824,0,0,0-.121-1.18A.975.975,0,0,0,112.125,8.148Zm7.1-.437a3.623,3.623,0,0,1,1.18-.977,3.112,3.112,0,0,1,1.438-.344,2.153,2.153,0,0,1,1.852.836,3.482,3.482,0,0,1,.352,2.594L123.273,15h-2.289l.773-5.172a1.9,1.9,0,0,0-.113-1.3,1.025,1.025,0,0,0-.9-.363,2.106,2.106,0,0,0-.918.2,2.2,2.2,0,0,0-.723.551L118.188,15h-2.281l1.266-8.453H119.3Zm10.063-3.234-.312,2.07h1.43l-.234,1.6h-1.437l-.641,4.3a.9.9,0,0,0,.094.715.644.644,0,0,0,.516.2,2.371,2.371,0,0,0,.316-.02,2.468,2.468,0,0,0,.316-.066l-.062,1.648a5.086,5.086,0,0,1-.691.176,4.116,4.116,0,0,1-.715.059,2.108,2.108,0,0,1-1.7-.656,2.509,2.509,0,0,1-.348-2.047l.641-4.312h-1.227l.234-1.6H126.7l.313-2.07Zm4.9,10.688a3.285,3.285,0,0,1-2.742-1.176,3.672,3.672,0,0,1-.648-2.973l.047-.312a5.343,5.343,0,0,1,1.488-3.145,4.111,4.111,0,0,1,3.02-1.168,2.826,2.826,0,0,1,2.426,1.055,3.614,3.614,0,0,1,.52,2.8l-.172,1.18h-5.047l-.016.039a1.983,1.983,0,0,0,.3,1.426,1.546,1.546,0,0,0,1.328.527,5.011,5.011,0,0,0,1.32-.16,6.029,6.029,0,0,0,1.188-.473l.406,1.406a5.183,5.183,0,0,1-1.484.7A6.475,6.475,0,0,1,134.188,15.164Zm.906-7.016a1.459,1.459,0,0,0-1.105.477,2.831,2.831,0,0,0-.652,1.242l.016.047h2.766l.023-.172a1.824,1.824,0,0,0-.121-1.18A.975.975,0,0,0,135.094,8.148Zm7.1-.437a3.623,3.623,0,0,1,1.18-.977,3.112,3.112,0,0,1,1.438-.344,2.153,2.153,0,0,1,1.852.836,3.482,3.482,0,0,1,.352,2.594L146.242,15h-2.289l.773-5.172a1.9,1.9,0,0,0-.113-1.3,1.025,1.025,0,0,0-.9-.363,2.106,2.106,0,0,0-.918.2,2.2,2.2,0,0,0-.723.551L141.156,15h-2.281l1.266-8.453h2.125Zm9.516,5.7a1.467,1.467,0,0,0,.988-.359,1.519,1.519,0,0,0,.512-.945h2.07l.016.047a3.149,3.149,0,0,1-1.27,2.168,4.116,4.116,0,0,1-2.574.84,3.092,3.092,0,0,1-2.684-1.215,3.985,3.985,0,0,1-.6-3.051l.031-.234a5.322,5.322,0,0,1,1.477-3.1,4.185,4.185,0,0,1,3.07-1.172,3.036,3.036,0,0,1,2.332.9,2.6,2.6,0,0,1,.59,2.344l-.016.039H153.57a1.538,1.538,0,0,0-.176-1.1,1,1,0,0,0-.9-.426,1.555,1.555,0,0,0-1.348.719,4.247,4.247,0,0,0-.66,1.8l-.031.234a3.629,3.629,0,0,0,.086,1.84A1.119,1.119,0,0,0,151.711,13.414Zm8.125,1.75a3.285,3.285,0,0,1-2.742-1.176,3.672,3.672,0,0,1-.648-2.973l.047-.312a5.343,5.343,0,0,1,1.488-3.145A4.111,4.111,0,0,1,161,6.391a2.826,2.826,0,0,1,2.426,1.055,3.614,3.614,0,0,1,.52,2.8l-.172,1.18h-5.047l-.016.039a1.983,1.983,0,0,0,.3,1.426,1.546,1.546,0,0,0,1.328.527,5.011,5.011,0,0,0,1.32-.16,6.029,6.029,0,0,0,1.188-.473l.406,1.406a5.183,5.183,0,0,1-1.484.7A6.475,6.475,0,0,1,159.836,15.164Zm.906-7.016a1.459,1.459,0,0,0-1.105.477,2.831,2.831,0,0,0-.652,1.242l.016.047h2.766l.023-.172a1.824,1.824,0,0,0-.121-1.18A.975.975,0,0,0,160.742,8.148Zm8.586,2.227a11.773,11.773,0,0,1,1.91-5.254,7.318,7.318,0,0,1,3.082-2.715l.047.008.25,1.133a6.907,6.907,0,0,0-2.066,2.469,12.687,12.687,0,0,0-1.3,4.344l-.023.2a11.182,11.182,0,0,0,.063,4.4A4.809,4.809,0,0,0,172.68,17.4l-.578,1.117h-.039a4.87,4.87,0,0,1-2.3-2.766,9.829,9.829,0,0,1-.453-5.2ZM179.086,15a3.7,3.7,0,0,1-.125-.613,4.615,4.615,0,0,1-.031-.66,3.883,3.883,0,0,1-1.082,1.031,2.609,2.609,0,0,1-1.434.406,2.5,2.5,0,0,1-1.922-.691,2.114,2.114,0,0,1-.461-1.855,2.637,2.637,0,0,1,1.234-1.949,5.433,5.433,0,0,1,2.906-.66h1.281l.1-.672a1.182,1.182,0,0,0-.176-.957,1.124,1.124,0,0,0-.91-.324,1.425,1.425,0,0,0-.887.27,1.063,1.063,0,0,0-.418.738h-2.2l-.008-.047a2.573,2.573,0,0,1,1.207-1.867,4.614,4.614,0,0,1,2.7-.758,3.321,3.321,0,0,1,2.32.773,2.306,2.306,0,0,1,.641,2.188l-.523,3.492a6.258,6.258,0,0,0-.078,1.125A5.487,5.487,0,0,0,181.359,15Zm-1.859-1.523a2.165,2.165,0,0,0,1.094-.3,2.036,2.036,0,0,0,.758-.691l.18-1.187h-1.281a1.718,1.718,0,0,0-1.137.367,1.4,1.4,0,0,0-.52.875.762.762,0,0,0,.172.691A.989.989,0,0,0,177.227,13.477Zm10.836.313a3.366,3.366,0,0,1-1.141,1.023,3.044,3.044,0,0,1-1.461.352,2.2,2.2,0,0,1-1.93-.914,3.9,3.9,0,0,1-.359-2.8l.734-4.9h2.273l-.734,4.914A2.589,2.589,0,0,0,185.512,13a.945.945,0,0,0,.879.391,2.351,2.351,0,0,0,.957-.187,2.046,2.046,0,0,0,.73-.539l.914-6.117h2.281L190.008,15h-1.891Zm7.711-4.562.047.008,1.7-2.687h2.578l-3.172,4.18L198.914,15h-2.57l-.961-2.8-1.8,2.8H191l3.273-4.273-1.93-4.18h2.563ZM202.43,15h-2.281l.3-2h2.281Zm9.633-3.148.031.773.047.008.273-.781,2.188-5.3h2.383L212.844,15h-2.18l-1.609-8.453h2.383Zm8.188,3.313a3.285,3.285,0,0,1-2.742-1.176,3.672,3.672,0,0,1-.648-2.973l.047-.312a5.343,5.343,0,0,1,1.488-3.145,4.111,4.111,0,0,1,3.02-1.168,2.826,2.826,0,0,1,2.426,1.055,3.614,3.614,0,0,1,.52,2.8l-.172,1.18h-5.047l-.016.039a1.983,1.983,0,0,0,.3,1.426,1.546,1.546,0,0,0,1.328.527,5.011,5.011,0,0,0,1.32-.16,6.029,6.029,0,0,0,1.188-.473l.406,1.406a5.183,5.183,0,0,1-1.484.7A6.475,6.475,0,0,1,220.25,15.164Zm.906-7.016a1.459,1.459,0,0,0-1.105.477,2.831,2.831,0,0,0-.652,1.242l.016.047h2.766l.023-.172a1.824,1.824,0,0,0-.121-1.18A.975.975,0,0,0,221.156,8.148Zm9.242.359-.836-.023a1.625,1.625,0,0,0-.859.223,1.789,1.789,0,0,0-.609.629L227.25,15h-2.273l1.266-8.453h2.117l-.078,1.211a3.127,3.127,0,0,1,.914-1.012,2,2,0,0,1,1.148-.355,1.788,1.788,0,0,1,.316.027,2.706,2.706,0,0,1,.285.066Zm8.438,2.5a5.7,5.7,0,0,1-1.3,3.059,3.365,3.365,0,0,1-2.609,1.1,2.207,2.207,0,0,1-1.23-.328,2.266,2.266,0,0,1-.8-.945L232.539,15h-1.93l1.828-12.187h2.273l-.7,4.625a3.293,3.293,0,0,1,1-.777,2.7,2.7,0,0,1,1.211-.27,2.373,2.373,0,0,1,2.238,1.23,5,5,0,0,1,.395,3.223Zm-2.25-.164a4.215,4.215,0,0,0-.066-1.973,1.075,1.075,0,0,0-1.137-.707,1.811,1.811,0,0,0-.922.234,2.062,2.062,0,0,0-.687.656l-.531,3.539a1.185,1.185,0,0,0,.492.594,1.691,1.691,0,0,0,.883.2,1.519,1.519,0,0,0,1.3-.633,4.05,4.05,0,0,0,.641-1.75ZM252.992,15h-2.281l.7-4.727h-4.633l-.7,4.727H243.8l1.7-11.375h2.281l-.734,4.891h4.633l.734-4.891H254.7Zm8.539-2.453h-3.7L256.7,15H254.32l5.539-11.375H262.2L264.313,15H261.93Zm-2.859-1.789h2.563l-.648-4.016-.047-.008ZM265.406,15l1.7-11.375h3.969a4.05,4.05,0,0,1,3.2,1.344,4.006,4.006,0,0,1,.883,3.406l-.281,1.883a5.388,5.388,0,0,1-1.859,3.457A5.482,5.482,0,0,1,269.375,15Zm3.719-9.617-1.18,7.867h1.7a2.617,2.617,0,0,0,1.914-.848,3.761,3.761,0,0,0,1.031-2.145l.289-1.9a2.972,2.972,0,0,0-.363-2.164,1.914,1.914,0,0,0-1.691-.812Zm11.188,5.164a11.565,11.565,0,0,1-1.953,5.227,7.438,7.438,0,0,1-3.156,2.75l-.047-.008-.266-1.117a7.043,7.043,0,0,0,2.059-2.477,12.77,12.77,0,0,0,1.316-4.359l.023-.2a11.084,11.084,0,0,0-.082-4.395,4.917,4.917,0,0,0-1.371-2.449l.586-1.109h.047a4.95,4.95,0,0,1,2.355,2.8,9.67,9.67,0,0,1,.512,5.164Zm-211.1,25.32.117,1.063.047.008,3.031-6.391h1.711L69.1,40.3a5.491,5.491,0,0,1-1.145,1.484,2.434,2.434,0,0,1-1.707.633,3.176,3.176,0,0,1-.461-.043q-.281-.043-.437-.082l.336-1.211a2.067,2.067,0,0,1,.285.016q.309.023.395.023a1.159,1.159,0,0,0,.871-.457,5.116,5.116,0,0,0,.668-.949l.508-.883-1.906-8.281h1.719ZM74.375,34.7a5.387,5.387,0,0,1,1.473-3.125,4,4,0,0,1,2.941-1.18,2.942,2.942,0,0,1,2.559,1.223,4.1,4.1,0,0,1,.6,3.082l-.031.172A5.4,5.4,0,0,1,80.438,38a4.018,4.018,0,0,1-2.945,1.168,2.945,2.945,0,0,1-2.559-1.219,4.063,4.063,0,0,1-.59-3.078Zm1.508.172a3.681,3.681,0,0,0,.227,2.242,1.6,1.6,0,0,0,1.563.852,2.211,2.211,0,0,0,1.777-.887,4.5,4.5,0,0,0,.926-2.207l.031-.172a3.683,3.683,0,0,0-.238-2.234,1.6,1.6,0,0,0-1.559-.859,2.212,2.212,0,0,0-1.785.895,4.425,4.425,0,0,0-.91,2.2ZM88.648,39l.086-1.211a3.446,3.446,0,0,1-1.176,1.023,3.209,3.209,0,0,1-1.5.352,2.33,2.33,0,0,1-2-.895,3.643,3.643,0,0,1-.383-2.738l.742-4.984h1.539l-.75,5a2.963,2.963,0,0,0,.109,1.883,1.311,1.311,0,0,0,1.18.484,2.606,2.606,0,0,0,2.367-1.328l.9-6.039H91.3L90.031,39Zm10.242-7.367a3.829,3.829,0,0,1,1.211-.918,3.35,3.35,0,0,1,1.461-.324,2.349,2.349,0,0,1,1.957.82,3.2,3.2,0,0,1,.41,2.492l-.8,5.3h-1.539l.8-5.312a2.052,2.052,0,0,0-.211-1.562,1.515,1.515,0,0,0-1.273-.484,2.68,2.68,0,0,0-1.223.281,2.776,2.776,0,0,0-.949.781L97.789,39H96.25l1.828-12.187h1.539ZM110.539,39q-.016-.438-.016-.707a4.986,4.986,0,0,1,.031-.551,4.564,4.564,0,0,1-1.277,1.012,3.193,3.193,0,0,1-1.543.41,2.41,2.41,0,0,1-1.887-.684,2.155,2.155,0,0,1-.434-1.855,2.584,2.584,0,0,1,1.25-1.914,5.194,5.194,0,0,1,2.773-.664h1.672l.125-.836a1.369,1.369,0,0,0-.27-1.191,1.593,1.593,0,0,0-1.223-.418,2.134,2.134,0,0,0-1.25.375,1.3,1.3,0,0,0-.609.9l-1.469.016-.008-.047a2.422,2.422,0,0,1,1.117-1.707,4.1,4.1,0,0,1,2.484-.746,3.053,3.053,0,0,1,2.172.738,2.258,2.258,0,0,1,.594,2.1l-.609,4.07a6.685,6.685,0,0,0-.09.887,4.511,4.511,0,0,0,.051.816Zm-2.383-1.125a3.032,3.032,0,0,0,1.547-.437,2.613,2.613,0,0,0,1.039-.984l.211-1.367h-1.727a2.54,2.54,0,0,0-1.547.477,1.651,1.651,0,0,0-.734,1.094,1.011,1.011,0,0,0,.207.9A1.341,1.341,0,0,0,108.156,37.875ZM114.4,34.93a6.411,6.411,0,0,1,1.359-3.328,3.334,3.334,0,0,1,2.633-1.211,2.617,2.617,0,0,1,1.262.289,2.29,2.29,0,0,1,.871.836l.7-4.7h1.539L120.938,39h-1.18l-.07-1.07a3.432,3.432,0,0,1-1.164.922,3.355,3.355,0,0,1-1.461.313,2.473,2.473,0,0,1-2.227-1.133,4.13,4.13,0,0,1-.461-2.937Zm1.516.164a3.283,3.283,0,0,0,.207,2.07,1.575,1.575,0,0,0,1.52.75,2.229,2.229,0,0,0,1.188-.32,3.028,3.028,0,0,0,.914-.891l.586-3.914a1.906,1.906,0,0,0-.645-.84,1.811,1.811,0,0,0-1.09-.309,2.105,2.105,0,0,0-1.754.926,5.129,5.129,0,0,0-.9,2.363Zm14.813,2.867a2.076,2.076,0,0,0,1.293-.477,1.8,1.8,0,0,0,.723-1.156h1.391l.016.047a2.885,2.885,0,0,1-1.223,1.965,3.838,3.838,0,0,1-2.379.824,2.837,2.837,0,0,1-2.527-1.223,4.112,4.112,0,0,1-.559-3l.047-.328a5.417,5.417,0,0,1,1.422-3.035,3.89,3.89,0,0,1,2.93-1.184,2.769,2.769,0,0,1,2.164.883,2.407,2.407,0,0,1,.57,2.148l-.016.039h-1.406a1.676,1.676,0,0,0-.3-1.332,1.429,1.429,0,0,0-1.2-.527,2.118,2.118,0,0,0-1.766.895,4.517,4.517,0,0,0-.859,2.113l-.047.328a3.852,3.852,0,0,0,.18,2.168A1.514,1.514,0,0,0,130.727,37.961ZM140.781,39q-.016-.438-.016-.707a4.988,4.988,0,0,1,.031-.551,4.564,4.564,0,0,1-1.277,1.012,3.193,3.193,0,0,1-1.543.41,2.41,2.41,0,0,1-1.887-.684,2.155,2.155,0,0,1-.434-1.855,2.584,2.584,0,0,1,1.25-1.914,5.194,5.194,0,0,1,2.773-.664h1.672l.125-.836a1.369,1.369,0,0,0-.27-1.191,1.593,1.593,0,0,0-1.223-.418,2.134,2.134,0,0,0-1.25.375,1.3,1.3,0,0,0-.609.9l-1.469.016-.008-.047a2.422,2.422,0,0,1,1.117-1.707,4.1,4.1,0,0,1,2.484-.746,3.053,3.053,0,0,1,2.172.738,2.258,2.258,0,0,1,.594,2.1l-.609,4.07a6.686,6.686,0,0,0-.09.887,4.51,4.51,0,0,0,.051.816ZM138.4,37.875a3.032,3.032,0,0,0,1.547-.437,2.613,2.613,0,0,0,1.039-.984l.211-1.367h-1.727a2.54,2.54,0,0,0-1.547.477,1.651,1.651,0,0,0-.734,1.094,1.011,1.011,0,0,0,.207.9A1.341,1.341,0,0,0,138.4,37.875ZM146.047,39h-1.539l1.828-12.187h1.539Zm4.031,0h-1.539l1.828-12.187h1.539Zm5.844.164a3.069,3.069,0,0,1-2.629-1.18,3.934,3.934,0,0,1-.6-3.047l.055-.344a5.061,5.061,0,0,1,1.488-3.047,3.89,3.89,0,0,1,2.754-1.156,2.624,2.624,0,0,1,2.352,1.07,3.845,3.845,0,0,1,.461,2.789l-.117.813h-5.469a3.355,3.355,0,0,0,.266,2.121,1.7,1.7,0,0,0,1.617.777,4.177,4.177,0,0,0,1.395-.227,3.661,3.661,0,0,0,1.113-.609l.453,1a4.447,4.447,0,0,1-1.3.738A5.139,5.139,0,0,1,155.922,39.164Zm.891-7.562a1.948,1.948,0,0,0-1.4.625,3.561,3.561,0,0,0-.9,1.578l.016.047h3.8l.016-.125a2.257,2.257,0,0,0-.219-1.535A1.41,1.41,0,0,0,156.813,31.6Zm4.266,3.328a6.411,6.411,0,0,1,1.359-3.328,3.334,3.334,0,0,1,2.633-1.211,2.617,2.617,0,0,1,1.262.289,2.29,2.29,0,0,1,.871.836l.7-4.7h1.539L167.617,39h-1.18l-.07-1.07a3.432,3.432,0,0,1-1.164.922,3.355,3.355,0,0,1-1.461.313,2.473,2.473,0,0,1-2.227-1.133,4.13,4.13,0,0,1-.461-2.937Zm1.516.164a3.283,3.283,0,0,0,.207,2.07,1.575,1.575,0,0,0,1.52.75,2.229,2.229,0,0,0,1.188-.32,3.028,3.028,0,0,0,.914-.891l.586-3.914a1.906,1.906,0,0,0-.645-.84,1.811,1.811,0,0,0-1.09-.309,2.105,2.105,0,0,0-1.754.926,5.129,5.129,0,0,0-.9,2.363Zm19.1,0a5.388,5.388,0,0,1-1.32,2.984,3.417,3.417,0,0,1-2.586,1.086,2.647,2.647,0,0,1-1.391-.344,2.313,2.313,0,0,1-.891-1.008L175.07,39h-1.18l1.828-12.187h1.539l-.711,4.734a3.416,3.416,0,0,1,1.125-.859,3.289,3.289,0,0,1,1.414-.3,2.373,2.373,0,0,1,2.215,1.262,5.062,5.062,0,0,1,.418,3.277Zm-1.516-.164a4.356,4.356,0,0,0-.172-2.4,1.491,1.491,0,0,0-1.5-.891A2.234,2.234,0,0,0,177.27,32a3.1,3.1,0,0,0-.934.957l-.547,3.641a2.012,2.012,0,0,0,.633.973,1.8,1.8,0,0,0,1.164.348,2.149,2.149,0,0,0,1.715-.785,3.978,3.978,0,0,0,.855-2.035Zm6.281,4.234a3.069,3.069,0,0,1-2.629-1.18,3.934,3.934,0,0,1-.6-3.047l.055-.344a5.061,5.061,0,0,1,1.488-3.047,3.89,3.89,0,0,1,2.754-1.156,2.624,2.624,0,0,1,2.352,1.07,3.845,3.845,0,0,1,.461,2.789l-.117.813h-5.469a3.355,3.355,0,0,0,.266,2.121,1.7,1.7,0,0,0,1.617.777,4.177,4.177,0,0,0,1.395-.227,3.661,3.661,0,0,0,1.113-.609l.453,1a4.447,4.447,0,0,1-1.3.738A5.139,5.139,0,0,1,186.461,39.164Zm.891-7.562a1.948,1.948,0,0,0-1.4.625,3.561,3.561,0,0,0-.9,1.578l.016.047h3.8l.016-.125a2.257,2.257,0,0,0-.219-1.535A1.41,1.41,0,0,0,187.352,31.6ZM192,39l1.094-7.312h-1.32l.172-1.141h1.32l.164-1.07a3.383,3.383,0,0,1,1.016-2.117,3.034,3.034,0,0,1,2.086-.711,3.143,3.143,0,0,1,.531.047q.273.047.578.117l-.359,1.172q-.141-.031-.34-.055a3.509,3.509,0,0,0-.41-.023,1.406,1.406,0,0,0-1.051.41,2.024,2.024,0,0,0-.512,1.16l-.164,1.07h1.531l-.172,1.141h-1.531L193.539,39Zm4.914-4.3a5.387,5.387,0,0,1,1.473-3.125,4,4,0,0,1,2.941-1.18,2.942,2.942,0,0,1,2.559,1.223,4.1,4.1,0,0,1,.6,3.082l-.031.172A5.4,5.4,0,0,1,202.977,38a4.018,4.018,0,0,1-2.945,1.168,2.945,2.945,0,0,1-2.559-1.219,4.063,4.063,0,0,1-.59-3.078Zm1.508.172a3.681,3.681,0,0,0,.227,2.242,1.6,1.6,0,0,0,1.563.852,2.211,2.211,0,0,0,1.777-.887,4.5,4.5,0,0,0,.926-2.207l.031-.172a3.683,3.683,0,0,0-.238-2.234,1.6,1.6,0,0,0-1.559-.859,2.212,2.212,0,0,0-1.785.895,4.425,4.425,0,0,0-.91,2.2Zm12.359-2.961L210,31.859a1.9,1.9,0,0,0-1.062.3,2.49,2.49,0,0,0-.781.848l-.9,5.992h-1.539l1.266-8.453h1.375l-.031,1.2a3.552,3.552,0,0,1,1.031-1,2.384,2.384,0,0,1,1.273-.355,1.923,1.923,0,0,1,.324.027,1.787,1.787,0,0,1,.254.059Zm3.867,7.258a3.069,3.069,0,0,1-2.629-1.18,3.934,3.934,0,0,1-.6-3.047l.055-.344a5.061,5.061,0,0,1,1.488-3.047,3.89,3.89,0,0,1,2.754-1.156,2.624,2.624,0,0,1,2.352,1.07,3.845,3.845,0,0,1,.461,2.789l-.117.813h-5.469a3.355,3.355,0,0,0,.266,2.121,1.7,1.7,0,0,0,1.617.777,4.177,4.177,0,0,0,1.395-.227,3.661,3.661,0,0,0,1.113-.609l.453,1a4.447,4.447,0,0,1-1.3.738A5.139,5.139,0,0,1,214.648,39.164Zm.891-7.562a1.948,1.948,0,0,0-1.4.625,3.561,3.561,0,0,0-.9,1.578l.016.047h3.8l.016-.125a2.257,2.257,0,0,0-.219-1.535A1.41,1.41,0,0,0,215.539,31.6Zm5.688,7.4h-1.539l.234-1.578h1.539Z" transform="translate(700 4051)" fill="#12263f"/>
    <rect id="Rectángulo_41038-2" data-name="Rectángulo 41038" width="302" height="73" rx="10" transform="translate(364 3886)" fill="#ff9fa3"/>
    <rect id="Rectángulo_41041-2" data-name="Rectángulo 41041" width="155" height="77" rx="10" transform="translate(192 3886)" fill="#6b8dfc"/>
    <rect id="Rectángulo_42983-2" data-name="Rectángulo 42983" width="294" height="72.762" rx="10" transform="translate(706 3886)" fill="#3c3fa7"/>
    <path id="Trazado_170524" data-name="Trazado 170524" d="M3.68,10.875,3.063,15H.781l1.7-11.375H6.836A3.917,3.917,0,0,1,9.73,4.637a2.905,2.905,0,0,1,.777,2.621A3.946,3.946,0,0,1,8.992,9.914a5.192,5.192,0,0,1-3.242.961Zm.266-1.758h2.07A2.14,2.14,0,0,0,8.227,7.273,1.742,1.742,0,0,0,7.949,5.9a1.632,1.632,0,0,0-1.371-.52H4.508ZM15.7,15a3.7,3.7,0,0,1-.125-.613,4.615,4.615,0,0,1-.031-.66,3.883,3.883,0,0,1-1.082,1.031,2.609,2.609,0,0,1-1.434.406,2.5,2.5,0,0,1-1.922-.691,2.114,2.114,0,0,1-.461-1.855,2.637,2.637,0,0,1,1.234-1.949,5.433,5.433,0,0,1,2.906-.66H16.07l.1-.672A1.182,1.182,0,0,0,16,8.379a1.124,1.124,0,0,0-.91-.324,1.425,1.425,0,0,0-.887.27,1.063,1.063,0,0,0-.418.738h-2.2l-.008-.047a2.573,2.573,0,0,1,1.207-1.867,4.614,4.614,0,0,1,2.7-.758,3.321,3.321,0,0,1,2.32.773,2.306,2.306,0,0,1,.641,2.188l-.523,3.492a6.259,6.259,0,0,0-.078,1.125A5.486,5.486,0,0,0,17.977,15Zm-1.859-1.523a2.165,2.165,0,0,0,1.094-.3,2.036,2.036,0,0,0,.758-.691l.18-1.187H14.594a1.718,1.718,0,0,0-1.137.367,1.4,1.4,0,0,0-.52.875.762.762,0,0,0,.172.691A.989.989,0,0,0,13.844,13.477Zm10.406-.82a.665.665,0,0,0-.27-.648,3.443,3.443,0,0,0-1.285-.469,4.649,4.649,0,0,1-2.125-.9,1.721,1.721,0,0,1-.547-1.633A2.733,2.733,0,0,1,21.2,7.137a4.231,4.231,0,0,1,2.566-.746,3.565,3.565,0,0,1,2.426.773,1.937,1.937,0,0,1,.691,1.9l-.016.047h-2.2a.992.992,0,0,0-.211-.836,1.165,1.165,0,0,0-.906-.312,1.466,1.466,0,0,0-.895.273.987.987,0,0,0-.426.672.653.653,0,0,0,.238.641,3.46,3.46,0,0,0,1.293.438,4.721,4.721,0,0,1,2.184.918,1.784,1.784,0,0,1,.535,1.668,2.645,2.645,0,0,1-1.238,1.891,4.778,4.778,0,0,1-2.684.7,3.456,3.456,0,0,1-2.516-.867,2.076,2.076,0,0,1-.7-1.937l.023-.047h2.086a1.041,1.041,0,0,0,.309.984,1.648,1.648,0,0,0,1.059.3,1.728,1.728,0,0,0,.984-.258A.971.971,0,0,0,24.25,12.656Zm7.625-8.18-.312,2.07h1.43l-.234,1.6H31.32l-.641,4.3a.9.9,0,0,0,.094.715.644.644,0,0,0,.516.2,2.371,2.371,0,0,0,.316-.02,2.468,2.468,0,0,0,.316-.066l-.062,1.648a5.086,5.086,0,0,1-.691.176,4.116,4.116,0,0,1-.715.059,2.108,2.108,0,0,1-1.7-.656,2.509,2.509,0,0,1-.348-2.047l.641-4.312H27.82l.234-1.6h1.234l.313-2.07Zm13.469,6.531a5.621,5.621,0,0,1-1.32,3.051,3.381,3.381,0,0,1-2.594,1.105A2.325,2.325,0,0,1,40.3,14.9a2.075,2.075,0,0,1-.785-.762l-.609,4.109H36.633l1.75-11.7h2.055l-.016,1a3.318,3.318,0,0,1,1.031-.859,2.716,2.716,0,0,1,1.273-.3,2.38,2.38,0,0,1,2.219,1.238,4.93,4.93,0,0,1,.422,3.215Zm-2.258-.164a3.9,3.9,0,0,0-.105-1.953,1.089,1.089,0,0,0-1.113-.727,1.81,1.81,0,0,0-.9.223,2.026,2.026,0,0,0-.68.629l-.555,3.656a1.116,1.116,0,0,0,.492.555,1.769,1.769,0,0,0,.867.188,1.558,1.558,0,0,0,1.3-.656,3.829,3.829,0,0,0,.672-1.75Zm6.7,4.32a3.285,3.285,0,0,1-2.742-1.176,3.672,3.672,0,0,1-.648-2.973l.047-.312a5.343,5.343,0,0,1,1.488-3.145,4.111,4.111,0,0,1,3.02-1.168,2.826,2.826,0,0,1,2.426,1.055,3.614,3.614,0,0,1,.52,2.8l-.172,1.18H48.68l-.016.039a1.983,1.983,0,0,0,.3,1.426,1.546,1.546,0,0,0,1.328.527,5.011,5.011,0,0,0,1.32-.16,6.029,6.029,0,0,0,1.188-.473l.406,1.406a5.183,5.183,0,0,1-1.484.7A6.475,6.475,0,0,1,49.789,15.164ZM50.7,8.148a1.459,1.459,0,0,0-1.105.477,2.831,2.831,0,0,0-.652,1.242l.016.047h2.766l.023-.172a1.824,1.824,0,0,0-.121-1.18A.975.975,0,0,0,50.7,8.148Zm9.242.359L59.1,8.484a1.625,1.625,0,0,0-.859.223,1.789,1.789,0,0,0-.609.629L56.789,15H54.516l1.266-8.453H57.9L57.82,7.758a3.127,3.127,0,0,1,.914-1.012,2,2,0,0,1,1.148-.355,1.788,1.788,0,0,1,.316.027,2.705,2.705,0,0,1,.285.066ZM60.859,15l1.023-6.852h-1.25l.234-1.6h1.258l.141-.937a3.345,3.345,0,0,1,1.141-2.219,3.757,3.757,0,0,1,2.43-.742,3.884,3.884,0,0,1,.582.047q.309.047.645.117l-.453,1.7q-.18-.031-.352-.055a3.053,3.053,0,0,0-.406-.023,1.26,1.26,0,0,0-.875.309,1.412,1.412,0,0,0-.43.871l-.141.938h1.625l-.234,1.6H64.164L63.141,15Zm8.438.164a3.285,3.285,0,0,1-2.742-1.176,3.672,3.672,0,0,1-.648-2.973l.047-.312a5.343,5.343,0,0,1,1.488-3.145,4.111,4.111,0,0,1,3.02-1.168,2.826,2.826,0,0,1,2.426,1.055,3.614,3.614,0,0,1,.52,2.8l-.172,1.18H68.188l-.016.039a1.983,1.983,0,0,0,.3,1.426,1.546,1.546,0,0,0,1.328.527,5.011,5.011,0,0,0,1.32-.16,6.028,6.028,0,0,0,1.188-.473l.406,1.406a5.183,5.183,0,0,1-1.484.7A6.475,6.475,0,0,1,69.3,15.164ZM70.2,8.148a1.459,1.459,0,0,0-1.105.477,2.831,2.831,0,0,0-.652,1.242l.016.047h2.766l.023-.172a1.824,1.824,0,0,0-.121-1.18A.975.975,0,0,0,70.2,8.148Zm7.586,5.266a1.467,1.467,0,0,0,.988-.359,1.519,1.519,0,0,0,.512-.945h2.07l.016.047a3.149,3.149,0,0,1-1.27,2.168,4.116,4.116,0,0,1-2.574.84,3.092,3.092,0,0,1-2.684-1.215,3.985,3.985,0,0,1-.6-3.051l.031-.234a5.322,5.322,0,0,1,1.477-3.1,4.185,4.185,0,0,1,3.07-1.172,3.036,3.036,0,0,1,2.332.9,2.6,2.6,0,0,1,.59,2.344l-.016.039H79.648a1.538,1.538,0,0,0-.176-1.1,1,1,0,0,0-.9-.426,1.555,1.555,0,0,0-1.348.719,4.247,4.247,0,0,0-.66,1.8l-.031.234a3.629,3.629,0,0,0,.086,1.84A1.119,1.119,0,0,0,77.789,13.414Zm8.8-8.937-.312,2.07H87.7l-.234,1.6H86.031l-.641,4.3a.9.9,0,0,0,.094.715.644.644,0,0,0,.516.2,2.371,2.371,0,0,0,.316-.02,2.468,2.468,0,0,0,.316-.066L86.57,14.93a5.087,5.087,0,0,1-.691.176,4.116,4.116,0,0,1-.715.059,2.108,2.108,0,0,1-1.7-.656,2.509,2.509,0,0,1-.348-2.047l.641-4.312H82.531l.234-1.6H84l.313-2.07Zm10.18,8.18a.665.665,0,0,0-.27-.648,3.443,3.443,0,0,0-1.285-.469,4.649,4.649,0,0,1-2.125-.9,1.721,1.721,0,0,1-.547-1.633,2.733,2.733,0,0,1,1.176-1.871,4.231,4.231,0,0,1,2.566-.746,3.565,3.565,0,0,1,2.426.773,1.937,1.937,0,0,1,.691,1.9l-.016.047h-2.2a.992.992,0,0,0-.211-.836,1.165,1.165,0,0,0-.906-.312,1.466,1.466,0,0,0-.895.273.987.987,0,0,0-.426.672.653.653,0,0,0,.238.641,3.46,3.46,0,0,0,1.293.438,4.721,4.721,0,0,1,2.184.918,1.784,1.784,0,0,1,.535,1.668,2.645,2.645,0,0,1-1.238,1.891,4.778,4.778,0,0,1-2.684.7,3.456,3.456,0,0,1-2.516-.867,2.076,2.076,0,0,1-.7-1.937l.023-.047h2.086a1.041,1.041,0,0,0,.309.984,1.648,1.648,0,0,0,1.059.3,1.728,1.728,0,0,0,.984-.258A.971.971,0,0,0,96.766,12.656Zm6.953,2.508a3.285,3.285,0,0,1-2.742-1.176,3.672,3.672,0,0,1-.648-2.973l.047-.312a5.343,5.343,0,0,1,1.488-3.145,4.111,4.111,0,0,1,3.02-1.168,2.826,2.826,0,0,1,2.426,1.055,3.614,3.614,0,0,1,.52,2.8l-.172,1.18h-5.047l-.016.039a1.983,1.983,0,0,0,.3,1.426,1.546,1.546,0,0,0,1.328.527,5.011,5.011,0,0,0,1.32-.16,6.028,6.028,0,0,0,1.188-.473l.406,1.406a5.183,5.183,0,0,1-1.484.7A6.475,6.475,0,0,1,103.719,15.164Zm.906-7.016a1.459,1.459,0,0,0-1.105.477,2.831,2.831,0,0,0-.652,1.242l.016.047h2.766l.023-.172a1.824,1.824,0,0,0-.121-1.18A.975.975,0,0,0,104.625,8.148Zm7.1-.437a3.623,3.623,0,0,1,1.18-.977,3.112,3.112,0,0,1,1.438-.344,2.153,2.153,0,0,1,1.852.836,3.482,3.482,0,0,1,.352,2.594L115.773,15h-2.289l.773-5.172a1.9,1.9,0,0,0-.113-1.3,1.025,1.025,0,0,0-.9-.363,2.106,2.106,0,0,0-.918.2,2.2,2.2,0,0,0-.723.551L110.688,15h-2.281l1.266-8.453H111.8Zm10.063-3.234-.312,2.07h1.43l-.234,1.6h-1.437l-.641,4.3a.9.9,0,0,0,.094.715.644.644,0,0,0,.516.2,2.371,2.371,0,0,0,.316-.02,2.468,2.468,0,0,0,.316-.066l-.062,1.648a5.087,5.087,0,0,1-.691.176,4.116,4.116,0,0,1-.715.059,2.108,2.108,0,0,1-1.7-.656,2.509,2.509,0,0,1-.348-2.047l.641-4.312h-1.227l.234-1.6H119.2l.313-2.07Zm4.9,10.688a3.285,3.285,0,0,1-2.742-1.176,3.672,3.672,0,0,1-.648-2.973l.047-.312a5.343,5.343,0,0,1,1.488-3.145,4.111,4.111,0,0,1,3.02-1.168,2.826,2.826,0,0,1,2.426,1.055,3.614,3.614,0,0,1,.52,2.8l-.172,1.18h-5.047l-.016.039a1.983,1.983,0,0,0,.3,1.426,1.546,1.546,0,0,0,1.328.527,5.011,5.011,0,0,0,1.32-.16,6.029,6.029,0,0,0,1.188-.473l.406,1.406a5.183,5.183,0,0,1-1.484.7A6.475,6.475,0,0,1,126.688,15.164Zm.906-7.016a1.459,1.459,0,0,0-1.105.477,2.831,2.831,0,0,0-.652,1.242l.016.047h2.766l.023-.172a1.824,1.824,0,0,0-.121-1.18A.975.975,0,0,0,127.594,8.148Zm7.1-.437a3.623,3.623,0,0,1,1.18-.977,3.112,3.112,0,0,1,1.438-.344,2.153,2.153,0,0,1,1.852.836,3.482,3.482,0,0,1,.352,2.594L138.742,15h-2.289l.773-5.172a1.9,1.9,0,0,0-.113-1.3,1.025,1.025,0,0,0-.9-.363,2.106,2.106,0,0,0-.918.2,2.2,2.2,0,0,0-.723.551L133.656,15h-2.281l1.266-8.453h2.125Zm9.516,5.7a1.467,1.467,0,0,0,.988-.359,1.519,1.519,0,0,0,.512-.945h2.07l.016.047a3.149,3.149,0,0,1-1.27,2.168,4.116,4.116,0,0,1-2.574.84,3.092,3.092,0,0,1-2.684-1.215,3.985,3.985,0,0,1-.6-3.051l.031-.234a5.322,5.322,0,0,1,1.477-3.1,4.185,4.185,0,0,1,3.07-1.172,3.036,3.036,0,0,1,2.332.9,2.6,2.6,0,0,1,.59,2.344l-.016.039H146.07a1.538,1.538,0,0,0-.176-1.1,1,1,0,0,0-.9-.426,1.555,1.555,0,0,0-1.348.719,4.247,4.247,0,0,0-.66,1.8l-.031.234a3.629,3.629,0,0,0,.086,1.84A1.119,1.119,0,0,0,144.211,13.414Zm8.125,1.75a3.285,3.285,0,0,1-2.742-1.176,3.672,3.672,0,0,1-.648-2.973l.047-.312a5.343,5.343,0,0,1,1.488-3.145,4.111,4.111,0,0,1,3.02-1.168,2.826,2.826,0,0,1,2.426,1.055,3.614,3.614,0,0,1,.52,2.8l-.172,1.18h-5.047l-.016.039a1.983,1.983,0,0,0,.3,1.426,1.546,1.546,0,0,0,1.328.527,5.011,5.011,0,0,0,1.32-.16,6.029,6.029,0,0,0,1.188-.473l.406,1.406a5.183,5.183,0,0,1-1.484.7A6.475,6.475,0,0,1,152.336,15.164Zm.906-7.016a1.459,1.459,0,0,0-1.105.477,2.831,2.831,0,0,0-.652,1.242l.016.047h2.766l.023-.172a1.824,1.824,0,0,0-.121-1.18A.975.975,0,0,0,153.242,8.148Zm8.586,2.227a11.773,11.773,0,0,1,1.91-5.254,7.318,7.318,0,0,1,3.082-2.715l.047.008.25,1.133a6.907,6.907,0,0,0-2.066,2.469,12.687,12.687,0,0,0-1.3,4.344l-.023.2a11.182,11.182,0,0,0,.063,4.4A4.809,4.809,0,0,0,165.18,17.4l-.578,1.117h-.039a4.87,4.87,0,0,1-2.3-2.766,9.829,9.829,0,0,1-.453-5.2ZM171.586,15a3.7,3.7,0,0,1-.125-.613,4.615,4.615,0,0,1-.031-.66,3.883,3.883,0,0,1-1.082,1.031,2.609,2.609,0,0,1-1.434.406,2.5,2.5,0,0,1-1.922-.691,2.114,2.114,0,0,1-.461-1.855,2.637,2.637,0,0,1,1.234-1.949,5.433,5.433,0,0,1,2.906-.66h1.281l.1-.672a1.182,1.182,0,0,0-.176-.957,1.124,1.124,0,0,0-.91-.324,1.425,1.425,0,0,0-.887.27,1.063,1.063,0,0,0-.418.738h-2.2l-.008-.047a2.573,2.573,0,0,1,1.207-1.867,4.614,4.614,0,0,1,2.7-.758,3.321,3.321,0,0,1,2.32.773,2.306,2.306,0,0,1,.641,2.188l-.523,3.492a6.258,6.258,0,0,0-.078,1.125A5.487,5.487,0,0,0,173.859,15Zm-1.859-1.523a2.165,2.165,0,0,0,1.094-.3,2.036,2.036,0,0,0,.758-.691l.18-1.187h-1.281a1.718,1.718,0,0,0-1.137.367,1.4,1.4,0,0,0-.52.875.762.762,0,0,0,.172.691A.989.989,0,0,0,169.727,13.477Zm10.836.313a3.366,3.366,0,0,1-1.141,1.023,3.044,3.044,0,0,1-1.461.352,2.2,2.2,0,0,1-1.93-.914,3.9,3.9,0,0,1-.359-2.8l.734-4.9h2.273l-.734,4.914A2.589,2.589,0,0,0,178.012,13a.945.945,0,0,0,.879.391,2.351,2.351,0,0,0,.957-.187,2.046,2.046,0,0,0,.73-.539l.914-6.117h2.281L182.508,15h-1.891Zm7.711-4.562.047.008,1.7-2.687h2.578l-3.172,4.18L191.414,15h-2.57l-.961-2.8-1.8,2.8H183.5l3.273-4.273-1.93-4.18h2.563ZM194.93,15h-2.281l.3-2h2.281Zm9.633-3.148.031.773.047.008.273-.781,2.188-5.3h2.383L205.344,15h-2.18l-1.609-8.453h2.383Zm8.188,3.313a3.285,3.285,0,0,1-2.742-1.176,3.672,3.672,0,0,1-.648-2.973l.047-.312a5.343,5.343,0,0,1,1.488-3.145,4.111,4.111,0,0,1,3.02-1.168,2.826,2.826,0,0,1,2.426,1.055,3.614,3.614,0,0,1,.52,2.8l-.172,1.18h-5.047l-.016.039a1.983,1.983,0,0,0,.3,1.426,1.546,1.546,0,0,0,1.328.527,5.011,5.011,0,0,0,1.32-.16,6.029,6.029,0,0,0,1.188-.473l.406,1.406a5.183,5.183,0,0,1-1.484.7A6.475,6.475,0,0,1,212.75,15.164Zm.906-7.016a1.459,1.459,0,0,0-1.105.477,2.831,2.831,0,0,0-.652,1.242l.016.047h2.766l.023-.172a1.824,1.824,0,0,0-.121-1.18A.975.975,0,0,0,213.656,8.148Zm9.242.359-.836-.023a1.625,1.625,0,0,0-.859.223,1.789,1.789,0,0,0-.609.629L219.75,15h-2.273l1.266-8.453h2.117l-.078,1.211a3.127,3.127,0,0,1,.914-1.012,2,2,0,0,1,1.148-.355,1.788,1.788,0,0,1,.316.027,2.706,2.706,0,0,1,.285.066Zm8.438,2.5a5.7,5.7,0,0,1-1.3,3.059,3.365,3.365,0,0,1-2.609,1.1,2.207,2.207,0,0,1-1.23-.328,2.266,2.266,0,0,1-.8-.945L225.039,15h-1.93l1.828-12.187h2.273l-.7,4.625a3.293,3.293,0,0,1,1-.777,2.7,2.7,0,0,1,1.211-.27,2.373,2.373,0,0,1,2.238,1.23,5,5,0,0,1,.395,3.223Zm-2.25-.164a4.215,4.215,0,0,0-.066-1.973,1.075,1.075,0,0,0-1.137-.707,1.811,1.811,0,0,0-.922.234,2.062,2.062,0,0,0-.687.656l-.531,3.539a1.185,1.185,0,0,0,.492.594,1.691,1.691,0,0,0,.883.2,1.519,1.519,0,0,0,1.3-.633,4.05,4.05,0,0,0,.641-1.75ZM245.492,15h-2.281l.7-4.727h-4.633l-.7,4.727H236.3L238,3.625h2.281l-.734,4.891h4.633l.734-4.891H247.2Zm8.539-2.453h-3.7L249.2,15H246.82l5.539-11.375H254.7L256.813,15H254.43Zm-2.859-1.789h2.563l-.648-4.016-.047-.008ZM257.906,15l1.7-11.375h3.969a4.05,4.05,0,0,1,3.2,1.344,4.006,4.006,0,0,1,.883,3.406l-.281,1.883a5.388,5.388,0,0,1-1.859,3.457A5.482,5.482,0,0,1,261.875,15Zm3.719-9.617-1.18,7.867h1.7a2.617,2.617,0,0,0,1.914-.848,3.761,3.761,0,0,0,1.031-2.145l.289-1.9a2.972,2.972,0,0,0-.363-2.164,1.914,1.914,0,0,0-1.691-.812Zm11.188,5.164a11.565,11.565,0,0,1-1.953,5.227,7.438,7.438,0,0,1-3.156,2.75l-.047-.008-.266-1.117a7.043,7.043,0,0,0,2.059-2.477,12.77,12.77,0,0,0,1.316-4.359l.023-.2a11.084,11.084,0,0,0-.082-4.395,4.917,4.917,0,0,0-1.371-2.449l.586-1.109h.047a4.95,4.95,0,0,1,2.355,2.8,9.67,9.67,0,0,1,.512,5.164ZM63.852,35.867l.117,1.063.047.008,3.031-6.391h1.711L63.742,40.3A5.491,5.491,0,0,1,62.6,41.781a2.434,2.434,0,0,1-1.707.633,3.175,3.175,0,0,1-.461-.043q-.281-.043-.437-.082l.336-1.211a2.067,2.067,0,0,1,.285.016q.309.023.395.023a1.159,1.159,0,0,0,.871-.457,5.115,5.115,0,0,0,.668-.949l.508-.883-1.906-8.281h1.719ZM69.016,34.7a5.387,5.387,0,0,1,1.473-3.125,4,4,0,0,1,2.941-1.18,2.942,2.942,0,0,1,2.559,1.223,4.1,4.1,0,0,1,.6,3.082l-.031.172A5.4,5.4,0,0,1,75.078,38a4.018,4.018,0,0,1-2.945,1.168,2.945,2.945,0,0,1-2.559-1.219,4.063,4.063,0,0,1-.59-3.078Zm1.508.172a3.681,3.681,0,0,0,.227,2.242,1.6,1.6,0,0,0,1.563.852,2.211,2.211,0,0,0,1.777-.887,4.5,4.5,0,0,0,.926-2.207l.031-.172a3.683,3.683,0,0,0-.238-2.234A1.6,1.6,0,0,0,73.25,31.6a2.212,2.212,0,0,0-1.785.895,4.425,4.425,0,0,0-.91,2.2ZM83.289,39l.086-1.211A3.446,3.446,0,0,1,82.2,38.813a3.209,3.209,0,0,1-1.5.352,2.33,2.33,0,0,1-2-.895,3.643,3.643,0,0,1-.383-2.738l.742-4.984h1.539l-.75,5a2.963,2.963,0,0,0,.109,1.883,1.311,1.311,0,0,0,1.18.484A2.606,2.606,0,0,0,83.5,36.586l.9-6.039h1.539L84.672,39Zm10.242-7.367a3.829,3.829,0,0,1,1.211-.918,3.35,3.35,0,0,1,1.461-.324,2.349,2.349,0,0,1,1.957.82,3.2,3.2,0,0,1,.41,2.492l-.8,5.3H96.234l.8-5.312a2.052,2.052,0,0,0-.211-1.562,1.515,1.515,0,0,0-1.273-.484,2.68,2.68,0,0,0-1.223.281,2.776,2.776,0,0,0-.949.781L92.43,39H90.891l1.828-12.187h1.539ZM105.18,39q-.016-.438-.016-.707a4.986,4.986,0,0,1,.031-.551,4.564,4.564,0,0,1-1.277,1.012,3.193,3.193,0,0,1-1.543.41,2.41,2.41,0,0,1-1.887-.684,2.155,2.155,0,0,1-.434-1.855,2.584,2.584,0,0,1,1.25-1.914,5.194,5.194,0,0,1,2.773-.664h1.672l.125-.836a1.369,1.369,0,0,0-.27-1.191,1.593,1.593,0,0,0-1.223-.418,2.134,2.134,0,0,0-1.25.375,1.3,1.3,0,0,0-.609.9l-1.469.016-.008-.047a2.422,2.422,0,0,1,1.117-1.707,4.1,4.1,0,0,1,2.484-.746,3.053,3.053,0,0,1,2.172.738,2.258,2.258,0,0,1,.594,2.1L106.8,37.3a6.685,6.685,0,0,0-.09.887,4.511,4.511,0,0,0,.051.816ZM102.8,37.875a3.032,3.032,0,0,0,1.547-.437,2.613,2.613,0,0,0,1.039-.984l.211-1.367h-1.727a2.54,2.54,0,0,0-1.547.477,1.651,1.651,0,0,0-.734,1.094,1.011,1.011,0,0,0,.207.9A1.341,1.341,0,0,0,102.8,37.875Zm6.242-2.945A6.411,6.411,0,0,1,110.4,31.6a3.334,3.334,0,0,1,2.633-1.211,2.617,2.617,0,0,1,1.262.289,2.29,2.29,0,0,1,.871.836l.7-4.7h1.539L115.578,39H114.4l-.07-1.07a3.432,3.432,0,0,1-1.164.922,3.355,3.355,0,0,1-1.461.313,2.473,2.473,0,0,1-2.227-1.133,4.13,4.13,0,0,1-.461-2.937Zm1.516.164a3.283,3.283,0,0,0,.207,2.07,1.575,1.575,0,0,0,1.52.75,2.229,2.229,0,0,0,1.188-.32,3.028,3.028,0,0,0,.914-.891l.586-3.914a1.906,1.906,0,0,0-.645-.84,1.811,1.811,0,0,0-1.09-.309,2.105,2.105,0,0,0-1.754.926,5.129,5.129,0,0,0-.9,2.363Zm14.813,2.867a2.076,2.076,0,0,0,1.293-.477,1.8,1.8,0,0,0,.723-1.156h1.391l.016.047a2.885,2.885,0,0,1-1.223,1.965,3.838,3.838,0,0,1-2.379.824,2.837,2.837,0,0,1-2.527-1.223,4.112,4.112,0,0,1-.559-3l.047-.328a5.417,5.417,0,0,1,1.422-3.035,3.89,3.89,0,0,1,2.93-1.184,2.769,2.769,0,0,1,2.164.883,2.407,2.407,0,0,1,.57,2.148l-.016.039h-1.406a1.676,1.676,0,0,0-.3-1.332,1.429,1.429,0,0,0-1.2-.527,2.118,2.118,0,0,0-1.766.895,4.517,4.517,0,0,0-.859,2.113l-.047.328a3.852,3.852,0,0,0,.18,2.168A1.514,1.514,0,0,0,125.367,37.961ZM135.422,39q-.016-.438-.016-.707a4.988,4.988,0,0,1,.031-.551,4.564,4.564,0,0,1-1.277,1.012,3.193,3.193,0,0,1-1.543.41,2.41,2.41,0,0,1-1.887-.684,2.155,2.155,0,0,1-.434-1.855,2.584,2.584,0,0,1,1.25-1.914,5.194,5.194,0,0,1,2.773-.664h1.672l.125-.836a1.369,1.369,0,0,0-.27-1.191,1.593,1.593,0,0,0-1.223-.418,2.134,2.134,0,0,0-1.25.375,1.3,1.3,0,0,0-.609.9l-1.469.016-.008-.047a2.422,2.422,0,0,1,1.117-1.707,4.1,4.1,0,0,1,2.484-.746,3.053,3.053,0,0,1,2.172.738,2.258,2.258,0,0,1,.594,2.1l-.609,4.07a6.686,6.686,0,0,0-.09.887,4.51,4.51,0,0,0,.051.816Zm-2.383-1.125a3.032,3.032,0,0,0,1.547-.437,2.613,2.613,0,0,0,1.039-.984l.211-1.367h-1.727a2.54,2.54,0,0,0-1.547.477,1.651,1.651,0,0,0-.734,1.094,1.011,1.011,0,0,0,.207.9A1.341,1.341,0,0,0,133.039,37.875ZM140.688,39h-1.539l1.828-12.187h1.539Zm4.031,0H143.18l1.828-12.187h1.539Zm5.844.164a3.069,3.069,0,0,1-2.629-1.18,3.934,3.934,0,0,1-.6-3.047l.055-.344a5.061,5.061,0,0,1,1.488-3.047,3.89,3.89,0,0,1,2.754-1.156,2.624,2.624,0,0,1,2.352,1.07,3.845,3.845,0,0,1,.461,2.789l-.117.813h-5.469a3.355,3.355,0,0,0,.266,2.121,1.7,1.7,0,0,0,1.617.777,4.177,4.177,0,0,0,1.395-.227,3.661,3.661,0,0,0,1.113-.609l.453,1a4.447,4.447,0,0,1-1.3.738A5.139,5.139,0,0,1,150.563,39.164Zm.891-7.562a1.948,1.948,0,0,0-1.4.625,3.561,3.561,0,0,0-.9,1.578l.016.047h3.8l.016-.125a2.257,2.257,0,0,0-.219-1.535A1.41,1.41,0,0,0,151.453,31.6Zm4.266,3.328a6.411,6.411,0,0,1,1.359-3.328,3.334,3.334,0,0,1,2.633-1.211,2.617,2.617,0,0,1,1.262.289,2.29,2.29,0,0,1,.871.836l.7-4.7h1.539L162.258,39h-1.18l-.07-1.07a3.432,3.432,0,0,1-1.164.922,3.355,3.355,0,0,1-1.461.313,2.473,2.473,0,0,1-2.227-1.133,4.13,4.13,0,0,1-.461-2.937Zm1.516.164a3.283,3.283,0,0,0,.207,2.07,1.575,1.575,0,0,0,1.52.75,2.229,2.229,0,0,0,1.188-.32,3.028,3.028,0,0,0,.914-.891l.586-3.914a1.906,1.906,0,0,0-.645-.84,1.811,1.811,0,0,0-1.09-.309,2.105,2.105,0,0,0-1.754.926,5.129,5.129,0,0,0-.9,2.363Zm19.1,0a5.388,5.388,0,0,1-1.32,2.984,3.417,3.417,0,0,1-2.586,1.086,2.647,2.647,0,0,1-1.391-.344,2.313,2.313,0,0,1-.891-1.008L169.711,39h-1.18l1.828-12.187H171.9l-.711,4.734a3.416,3.416,0,0,1,1.125-.859,3.289,3.289,0,0,1,1.414-.3,2.373,2.373,0,0,1,2.215,1.262,5.062,5.062,0,0,1,.418,3.277Zm-1.516-.164a4.356,4.356,0,0,0-.172-2.4,1.491,1.491,0,0,0-1.5-.891A2.234,2.234,0,0,0,171.91,32a3.1,3.1,0,0,0-.934.957l-.547,3.641a2.012,2.012,0,0,0,.633.973,1.8,1.8,0,0,0,1.164.348,2.149,2.149,0,0,0,1.715-.785,3.978,3.978,0,0,0,.855-2.035Zm6.281,4.234a3.069,3.069,0,0,1-2.629-1.18,3.934,3.934,0,0,1-.6-3.047l.055-.344a5.061,5.061,0,0,1,1.488-3.047,3.89,3.89,0,0,1,2.754-1.156,2.624,2.624,0,0,1,2.352,1.07,3.845,3.845,0,0,1,.461,2.789l-.117.813H179.4a3.355,3.355,0,0,0,.266,2.121,1.7,1.7,0,0,0,1.617.777,4.177,4.177,0,0,0,1.395-.227,3.661,3.661,0,0,0,1.113-.609l.453,1a4.447,4.447,0,0,1-1.3.738A5.139,5.139,0,0,1,181.1,39.164Zm.891-7.562a1.948,1.948,0,0,0-1.4.625,3.561,3.561,0,0,0-.9,1.578l.016.047h3.8l.016-.125a2.257,2.257,0,0,0-.219-1.535A1.41,1.41,0,0,0,181.992,31.6Zm4.648,7.4,1.094-7.312h-1.32l.172-1.141h1.32l.164-1.07a3.383,3.383,0,0,1,1.016-2.117,3.034,3.034,0,0,1,2.086-.711,3.143,3.143,0,0,1,.531.047q.273.047.578.117l-.359,1.172q-.141-.031-.34-.055a3.509,3.509,0,0,0-.41-.023,1.406,1.406,0,0,0-1.051.41,2.024,2.024,0,0,0-.512,1.16l-.164,1.07h1.531l-.172,1.141h-1.531L188.18,39Zm4.914-4.3a5.387,5.387,0,0,1,1.473-3.125,4,4,0,0,1,2.941-1.18,2.942,2.942,0,0,1,2.559,1.223,4.1,4.1,0,0,1,.6,3.082l-.031.172A5.4,5.4,0,0,1,197.617,38a4.018,4.018,0,0,1-2.945,1.168,2.945,2.945,0,0,1-2.559-1.219,4.063,4.063,0,0,1-.59-3.078Zm1.508.172a3.681,3.681,0,0,0,.227,2.242,1.6,1.6,0,0,0,1.563.852,2.211,2.211,0,0,0,1.777-.887,4.5,4.5,0,0,0,.926-2.207l.031-.172a3.683,3.683,0,0,0-.238-2.234,1.6,1.6,0,0,0-1.559-.859A2.212,2.212,0,0,0,194,32.5a4.425,4.425,0,0,0-.91,2.2Zm12.359-2.961-.781-.047a1.9,1.9,0,0,0-1.062.3,2.49,2.49,0,0,0-.781.848L201.9,39h-1.539l1.266-8.453H203l-.031,1.2a3.552,3.552,0,0,1,1.031-1,2.384,2.384,0,0,1,1.273-.355,1.923,1.923,0,0,1,.324.027,1.787,1.787,0,0,1,.254.059Zm3.867,7.258a3.069,3.069,0,0,1-2.629-1.18,3.934,3.934,0,0,1-.6-3.047l.055-.344a5.061,5.061,0,0,1,1.488-3.047,3.89,3.89,0,0,1,2.754-1.156,2.624,2.624,0,0,1,2.352,1.07,3.845,3.845,0,0,1,.461,2.789l-.117.813h-5.469a3.355,3.355,0,0,0,.266,2.121,1.7,1.7,0,0,0,1.617.777,4.177,4.177,0,0,0,1.395-.227,3.661,3.661,0,0,0,1.113-.609l.453,1a4.447,4.447,0,0,1-1.3.738A5.139,5.139,0,0,1,209.289,39.164Zm.891-7.562a1.948,1.948,0,0,0-1.4.625,3.561,3.561,0,0,0-.9,1.578l.016.047h3.8l.016-.125a2.257,2.257,0,0,0-.219-1.535A1.41,1.41,0,0,0,210.18,31.6Z" transform="translate(378 3901)" fill="#12263f"/>
    <path id="Trazado_170525" data-name="Trazado 170525" d="M14.7,11.234l.016.047a4.184,4.184,0,0,1-1.523,2.887,5.221,5.221,0,0,1-3.312,1,3.758,3.758,0,0,1-3.066-1.328,4.135,4.135,0,0,1-.793-3.391l.344-2.258A5.6,5.6,0,0,1,8.09,4.746a4.9,4.9,0,0,1,3.426-1.285A4.2,4.2,0,0,1,14.57,4.488a3.036,3.036,0,0,1,.75,2.848l-.023.047H13.078A2.014,2.014,0,0,0,12.8,5.734a1.972,1.972,0,0,0-1.555-.516,2.181,2.181,0,0,0-1.7.836,4.121,4.121,0,0,0-.914,2.117l-.344,2.273a3.239,3.239,0,0,0,.277,2.164,1.683,1.683,0,0,0,1.566.8,2.291,2.291,0,0,0,1.59-.543,2.642,2.642,0,0,0,.77-1.637Zm1.219-.539a5.25,5.25,0,0,1,1.512-3.133,4.306,4.306,0,0,1,3.105-1.172A3.183,3.183,0,0,1,23.25,7.609a3.985,3.985,0,0,1,.641,3.086l-.023.164A5.312,5.312,0,0,1,22.344,14a4.319,4.319,0,0,1-3.109,1.164,3.188,3.188,0,0,1-2.719-1.215,3.942,3.942,0,0,1-.625-3.09Zm2.25.164a3.383,3.383,0,0,0,.117,1.875,1.193,1.193,0,0,0,1.211.68,1.663,1.663,0,0,0,1.383-.711,3.994,3.994,0,0,0,.711-1.844l.023-.164a3.489,3.489,0,0,0-.137-1.855,1.176,1.176,0,0,0-1.2-.691,1.661,1.661,0,0,0-1.391.723,3.918,3.918,0,0,0-.7,1.824ZM27.93,7.711a3.623,3.623,0,0,1,1.18-.977,3.112,3.112,0,0,1,1.438-.344,2.153,2.153,0,0,1,1.852.836A3.482,3.482,0,0,1,32.75,9.82L31.977,15H29.688l.773-5.172a1.9,1.9,0,0,0-.113-1.3,1.025,1.025,0,0,0-.9-.363,2.106,2.106,0,0,0-.918.2,2.2,2.2,0,0,0-.723.551L26.891,15H24.609l1.266-8.453H28Zm6.023,3.133a6.25,6.25,0,0,1,1.34-3.262,3.322,3.322,0,0,1,2.621-1.191A2.027,2.027,0,0,1,39,6.676a2.366,2.366,0,0,1,.785.816l.7-4.68h2.289L40.945,15H39l-.039-1.039a3.5,3.5,0,0,1-1.078.895,2.77,2.77,0,0,1-1.3.309,2.431,2.431,0,0,1-2.215-1.156,4.311,4.311,0,0,1-.441-3Zm2.25.164a3.186,3.186,0,0,0,.1,1.766,1.118,1.118,0,0,0,1.133.617,1.909,1.909,0,0,0,.887-.207,1.987,1.987,0,0,0,.691-.6l.539-3.578a1.389,1.389,0,0,0-.5-.621,1.433,1.433,0,0,0-.816-.223,1.549,1.549,0,0,0-1.316.754,4.507,4.507,0,0,0-.691,1.926ZM45.109,15H42.828l1.266-8.453h2.281ZM46.68,4.523H44.4l.258-1.711h2.281ZM51.3,4.477l-.312,2.07h1.43l-.234,1.6H50.742l-.641,4.3a.9.9,0,0,0,.094.715.644.644,0,0,0,.516.2,2.371,2.371,0,0,0,.316-.02,2.468,2.468,0,0,0,.316-.066l-.062,1.648a5.086,5.086,0,0,1-.691.176,4.116,4.116,0,0,1-.715.059,2.108,2.108,0,0,1-1.7-.656,2.509,2.509,0,0,1-.348-2.047l.641-4.312H47.242l.234-1.6h1.234l.313-2.07ZM54.953,15H52.672l1.266-8.453h2.281Zm1.57-10.477H54.242L54.5,2.813h2.281Zm.6,6.172a5.25,5.25,0,0,1,1.512-3.133,4.306,4.306,0,0,1,3.105-1.172,3.183,3.183,0,0,1,2.719,1.219A3.985,3.985,0,0,1,65.1,10.7l-.023.164A5.312,5.312,0,0,1,63.555,14a4.319,4.319,0,0,1-3.109,1.164,3.188,3.188,0,0,1-2.719-1.215,3.942,3.942,0,0,1-.625-3.09Zm2.25.164a3.383,3.383,0,0,0,.117,1.875,1.193,1.193,0,0,0,1.211.68,1.663,1.663,0,0,0,1.383-.711,3.994,3.994,0,0,0,.711-1.844l.023-.164a3.489,3.489,0,0,0-.137-1.855,1.176,1.176,0,0,0-1.2-.691,1.661,1.661,0,0,0-1.391.723,3.918,3.918,0,0,0-.7,1.824Zm9.766-3.148a3.623,3.623,0,0,1,1.18-.977,3.112,3.112,0,0,1,1.438-.344,2.153,2.153,0,0,1,1.852.836,3.482,3.482,0,0,1,.352,2.594L73.188,15H70.9l.773-5.172a1.9,1.9,0,0,0-.113-1.3,1.025,1.025,0,0,0-.9-.363,2.106,2.106,0,0,0-.918.2,2.2,2.2,0,0,0-.723.551L68.1,15H65.82l1.266-8.453h2.125ZM79.875,15a3.7,3.7,0,0,1-.125-.613,4.615,4.615,0,0,1-.031-.66,3.883,3.883,0,0,1-1.082,1.031,2.609,2.609,0,0,1-1.434.406,2.5,2.5,0,0,1-1.922-.691,2.114,2.114,0,0,1-.461-1.855,2.637,2.637,0,0,1,1.234-1.949,5.433,5.433,0,0,1,2.906-.66h1.281l.1-.672a1.182,1.182,0,0,0-.176-.957,1.124,1.124,0,0,0-.91-.324,1.425,1.425,0,0,0-.887.27,1.063,1.063,0,0,0-.418.738h-2.2l-.008-.047a2.573,2.573,0,0,1,1.207-1.867,4.614,4.614,0,0,1,2.7-.758,3.321,3.321,0,0,1,2.32.773,2.306,2.306,0,0,1,.641,2.188l-.523,3.492a6.259,6.259,0,0,0-.078,1.125A5.486,5.486,0,0,0,82.148,15Zm-1.859-1.523a2.165,2.165,0,0,0,1.094-.3,2.036,2.036,0,0,0,.758-.691l.18-1.187H78.766a1.718,1.718,0,0,0-1.137.367,1.4,1.4,0,0,0-.52.875.762.762,0,0,0,.172.691A.989.989,0,0,0,78.016,13.477ZM85.883,15H83.6L85.43,2.813h2.281ZM99.57,11.844h.047l1.813-5.3h2.219L100.234,15H98.328l-.836-4.867-.047-.008L95.141,15h-1.9l-.883-8.453h2.219l.242,5.273.047.008,2.375-5.281h1.523Zm4.242-1.148a5.25,5.25,0,0,1,1.512-3.133,4.306,4.306,0,0,1,3.105-1.172,3.183,3.183,0,0,1,2.719,1.219,3.985,3.985,0,0,1,.641,3.086l-.023.164A5.312,5.312,0,0,1,110.242,14a4.319,4.319,0,0,1-3.109,1.164,3.188,3.188,0,0,1-2.719-1.215,3.942,3.942,0,0,1-.625-3.09Zm2.25.164a3.383,3.383,0,0,0,.117,1.875,1.193,1.193,0,0,0,1.211.68,1.663,1.663,0,0,0,1.383-.711,3.994,3.994,0,0,0,.711-1.844l.023-.164a3.489,3.489,0,0,0-.137-1.855,1.176,1.176,0,0,0-1.2-.691,1.661,1.661,0,0,0-1.391.723,3.918,3.918,0,0,0-.7,1.824Zm11.906-2.352-.836-.023a1.625,1.625,0,0,0-.859.223,1.789,1.789,0,0,0-.609.629L114.82,15h-2.273l1.266-8.453h2.117l-.078,1.211a3.127,3.127,0,0,1,.914-1.012,2,2,0,0,1,1.148-.355,1.788,1.788,0,0,1,.316.027,2.705,2.705,0,0,1,.285.066Zm.336,2.336a6.25,6.25,0,0,1,1.34-3.262,3.322,3.322,0,0,1,2.621-1.191,2.027,2.027,0,0,1,1.082.285,2.366,2.366,0,0,1,.785.816l.7-4.68h2.289L125.3,15h-1.945l-.039-1.039a3.5,3.5,0,0,1-1.078.895,2.77,2.77,0,0,1-1.3.309,2.431,2.431,0,0,1-2.215-1.156,4.311,4.311,0,0,1-.441-3Zm2.25.164a3.186,3.186,0,0,0,.1,1.766,1.118,1.118,0,0,0,1.133.617,1.909,1.909,0,0,0,.887-.207,1.987,1.987,0,0,0,.691-.6l.539-3.578a1.389,1.389,0,0,0-.5-.621,1.433,1.433,0,0,0-.816-.223,1.549,1.549,0,0,0-1.316.754,4.508,4.508,0,0,0-.691,1.926ZM63.512,39H61.965l1.7-11.375h1.547Zm3.25,0,1.094-7.312h-1.32l.172-1.141h1.32l.164-1.07a3.383,3.383,0,0,1,1.016-2.117,3.034,3.034,0,0,1,2.086-.711,3.143,3.143,0,0,1,.531.047q.273.047.578.117l-.359,1.172q-.141-.031-.34-.055a3.509,3.509,0,0,0-.41-.023,1.406,1.406,0,0,0-1.051.41,2.024,2.024,0,0,0-.512,1.16l-.164,1.07H71.1l-.172,1.141H69.395L68.3,39Z" transform="translate(205 3903)" fill="#12263f"/>
    <path id="Trazado_170523" data-name="Trazado 170523" d="M35.586,10H31.367l-.492,3.25H35.9L35.633,15h-7.3l1.7-11.375H37.32l-.258,1.758H32.055l-.43,2.859h4.227Zm5.523-.773.047.008,1.7-2.687H45.43l-3.172,4.18L44.25,15H41.68l-.961-2.8-1.8,2.8H36.336l3.273-4.273-1.93-4.18h2.563Zm12.352,1.781a5.621,5.621,0,0,1-1.32,3.051,3.381,3.381,0,0,1-2.594,1.105,2.325,2.325,0,0,1-1.129-.262,2.075,2.075,0,0,1-.785-.762l-.609,4.109H44.75l1.75-11.7h2.055l-.016,1a3.318,3.318,0,0,1,1.031-.859,2.716,2.716,0,0,1,1.273-.3,2.38,2.38,0,0,1,2.219,1.238,4.93,4.93,0,0,1,.422,3.215ZM51.2,10.844A3.9,3.9,0,0,0,51.1,8.891a1.089,1.089,0,0,0-1.113-.727,1.81,1.81,0,0,0-.9.223,2.026,2.026,0,0,0-.68.629l-.555,3.656a1.116,1.116,0,0,0,.492.555,1.769,1.769,0,0,0,.867.188,1.558,1.558,0,0,0,1.3-.656,3.829,3.829,0,0,0,.672-1.75Zm8.484-2.336-.836-.023a1.625,1.625,0,0,0-.859.223,1.789,1.789,0,0,0-.609.629L56.539,15H54.266l1.266-8.453h2.117L57.57,7.758a3.127,3.127,0,0,1,.914-1.012,2,2,0,0,1,1.148-.355,1.788,1.788,0,0,1,.316.027,2.705,2.705,0,0,1,.285.066Zm3.7,6.656a3.285,3.285,0,0,1-2.742-1.176A3.672,3.672,0,0,1,60,11.016l.047-.312a5.343,5.343,0,0,1,1.488-3.145,4.111,4.111,0,0,1,3.02-1.168A2.826,2.826,0,0,1,66.98,7.445a3.614,3.614,0,0,1,.52,2.8l-.172,1.18H62.281l-.016.039a1.983,1.983,0,0,0,.3,1.426,1.546,1.546,0,0,0,1.328.527,5.011,5.011,0,0,0,1.32-.16,6.028,6.028,0,0,0,1.188-.473l.406,1.406a5.183,5.183,0,0,1-1.484.7A6.475,6.475,0,0,1,63.391,15.164ZM64.3,8.148a1.459,1.459,0,0,0-1.105.477,2.831,2.831,0,0,0-.652,1.242l.016.047H65.32l.023-.172a1.824,1.824,0,0,0-.121-1.18A.975.975,0,0,0,64.3,8.148Zm8.758,4.508a.665.665,0,0,0-.27-.648,3.443,3.443,0,0,0-1.285-.469,4.649,4.649,0,0,1-2.125-.9,1.721,1.721,0,0,1-.547-1.633A2.733,2.733,0,0,1,70,7.137a4.231,4.231,0,0,1,2.566-.746A3.565,3.565,0,0,1,75,7.164a1.937,1.937,0,0,1,.691,1.9l-.016.047h-2.2a.992.992,0,0,0-.211-.836,1.165,1.165,0,0,0-.906-.312,1.466,1.466,0,0,0-.895.273.987.987,0,0,0-.426.672.653.653,0,0,0,.238.641,3.46,3.46,0,0,0,1.293.438,4.721,4.721,0,0,1,2.184.918,1.784,1.784,0,0,1,.535,1.668,2.645,2.645,0,0,1-1.238,1.891,4.778,4.778,0,0,1-2.684.7,3.456,3.456,0,0,1-2.516-.867,2.076,2.076,0,0,1-.7-1.937l.023-.047h2.086a1.041,1.041,0,0,0,.309.984,1.648,1.648,0,0,0,1.059.3,1.728,1.728,0,0,0,.984-.258A.971.971,0,0,0,73.055,12.656Zm8.25,0a.665.665,0,0,0-.27-.648,3.443,3.443,0,0,0-1.285-.469,4.649,4.649,0,0,1-2.125-.9,1.721,1.721,0,0,1-.547-1.633,2.733,2.733,0,0,1,1.176-1.871,4.231,4.231,0,0,1,2.566-.746,3.565,3.565,0,0,1,2.426.773,1.937,1.937,0,0,1,.691,1.9l-.016.047h-2.2a.992.992,0,0,0-.211-.836,1.165,1.165,0,0,0-.906-.312,1.466,1.466,0,0,0-.895.273.987.987,0,0,0-.426.672.653.653,0,0,0,.238.641,3.46,3.46,0,0,0,1.293.438A4.721,4.721,0,0,1,83,10.9a1.784,1.784,0,0,1,.535,1.668,2.645,2.645,0,0,1-1.238,1.891,4.778,4.778,0,0,1-2.684.7,3.456,3.456,0,0,1-2.516-.867,2.076,2.076,0,0,1-.7-1.937l.023-.047h2.086a1.041,1.041,0,0,0,.309.984,1.648,1.648,0,0,0,1.059.3,1.728,1.728,0,0,0,.984-.258A.971.971,0,0,0,81.3,12.656ZM87.016,15H84.734L86,6.547h2.281Zm1.57-10.477H86.3l.258-1.711h2.281Zm.6,6.172A5.25,5.25,0,0,1,90.7,7.563,4.306,4.306,0,0,1,93.8,6.391a3.183,3.183,0,0,1,2.719,1.219,3.985,3.985,0,0,1,.641,3.086l-.023.164A5.312,5.312,0,0,1,95.617,14a4.319,4.319,0,0,1-3.109,1.164,3.188,3.188,0,0,1-2.719-1.215,3.942,3.942,0,0,1-.625-3.09Zm2.25.164a3.383,3.383,0,0,0,.117,1.875,1.193,1.193,0,0,0,1.211.68,1.663,1.663,0,0,0,1.383-.711,3.994,3.994,0,0,0,.711-1.844l.023-.164a3.489,3.489,0,0,0-.137-1.855,1.176,1.176,0,0,0-1.2-.691,1.661,1.661,0,0,0-1.391.723,3.918,3.918,0,0,0-.7,1.824ZM101.2,7.711a3.623,3.623,0,0,1,1.18-.977,3.112,3.112,0,0,1,1.438-.344,2.153,2.153,0,0,1,1.852.836,3.482,3.482,0,0,1,.352,2.594L105.25,15h-2.289l.773-5.172a1.9,1.9,0,0,0-.113-1.3,1.025,1.025,0,0,0-.9-.363,2.106,2.106,0,0,0-.918.2,2.2,2.2,0,0,0-.723.551L100.164,15H97.883l1.266-8.453h2.125Zm17.563,4.133h.047l1.813-5.3h2.219L119.43,15h-1.906l-.836-4.867-.047-.008L114.336,15h-1.9l-.883-8.453h2.219l.242,5.273.047.008,2.375-5.281h1.523ZM125.109,15h-2.281l1.266-8.453h2.281Zm1.57-10.477H124.4l.258-1.711h2.281Zm4.617-.047-.312,2.07h1.43l-.234,1.6h-1.437l-.641,4.3a.9.9,0,0,0,.094.715.644.644,0,0,0,.516.2,2.371,2.371,0,0,0,.316-.02,2.468,2.468,0,0,0,.316-.066l-.062,1.648a5.086,5.086,0,0,1-.691.176,4.116,4.116,0,0,1-.715.059,2.108,2.108,0,0,1-1.7-.656,2.509,2.509,0,0,1-.348-2.047l.641-4.312h-1.227l.234-1.6h1.234l.313-2.07Zm4.594,3.094A3.609,3.609,0,0,1,137,6.7a2.936,2.936,0,0,1,1.324-.309,2.218,2.218,0,0,1,1.918.887,3.66,3.66,0,0,1,.371,2.707L139.867,15h-2.281l.758-5.031a2.2,2.2,0,0,0-.105-1.414.985.985,0,0,0-.895-.391,2.285,2.285,0,0,0-.926.18,2.134,2.134,0,0,0-.715.508L134.781,15H132.5l1.828-12.187h2.281Zm13.1-1.922-1.133,2.227h-1.125l.328-2.219.3-2.031h1.922Zm2.625,0-1.133,2.227h-1.125l.328-2.219.3-2.031h1.922Zm8.727,6.2h.047l1.813-5.3h2.219L161.008,15H159.1l-.836-4.867-.047-.008L155.914,15h-1.9l-.883-8.453h2.219l.242,5.273.047.008,2.375-5.281h1.523Zm4.242-1.148A5.249,5.249,0,0,1,166.1,7.563,4.306,4.306,0,0,1,169.2,6.391a3.183,3.183,0,0,1,2.719,1.219,3.985,3.985,0,0,1,.641,3.086l-.023.164A5.312,5.312,0,0,1,171.016,14a4.319,4.319,0,0,1-3.109,1.164,3.188,3.188,0,0,1-2.719-1.215,3.942,3.942,0,0,1-.625-3.09Zm2.25.164a3.383,3.383,0,0,0,.117,1.875,1.193,1.193,0,0,0,1.211.68,1.663,1.663,0,0,0,1.383-.711,3.994,3.994,0,0,0,.711-1.844l.023-.164a3.489,3.489,0,0,0-.137-1.855,1.176,1.176,0,0,0-1.2-.691,1.661,1.661,0,0,0-1.391.723,3.918,3.918,0,0,0-.7,1.824Zm11.852,2.93a3.366,3.366,0,0,1-1.141,1.023,3.044,3.044,0,0,1-1.461.352,2.2,2.2,0,0,1-1.93-.914,3.9,3.9,0,0,1-.359-2.8l.734-4.9H176.8l-.734,4.914A2.589,2.589,0,0,0,176.137,13a.945.945,0,0,0,.879.391,2.351,2.351,0,0,0,.957-.187,2.046,2.046,0,0,0,.73-.539l.914-6.117H181.9L180.633,15h-1.891ZM184.75,15h-2.281L184.3,2.813h2.281Zm2.148-4.156a6.25,6.25,0,0,1,1.34-3.262,3.322,3.322,0,0,1,2.621-1.191,2.027,2.027,0,0,1,1.082.285,2.367,2.367,0,0,1,.785.816l.7-4.68h2.289L193.891,15h-1.945l-.039-1.039a3.5,3.5,0,0,1-1.078.895,2.77,2.77,0,0,1-1.3.309,2.431,2.431,0,0,1-2.215-1.156,4.311,4.311,0,0,1-.441-3Zm2.25.164a3.186,3.186,0,0,0,.1,1.766,1.118,1.118,0,0,0,1.133.617,1.909,1.909,0,0,0,.887-.207,1.987,1.987,0,0,0,.691-.6l.539-3.578a1.389,1.389,0,0,0-.5-.621,1.433,1.433,0,0,0-.816-.223,1.549,1.549,0,0,0-1.316.754,4.507,4.507,0,0,0-.691,1.926ZM202.977,7.57A3.609,3.609,0,0,1,204.09,6.7a2.936,2.936,0,0,1,1.324-.309,2.218,2.218,0,0,1,1.918.887,3.66,3.66,0,0,1,.371,2.707L206.953,15h-2.281l.758-5.031a2.2,2.2,0,0,0-.105-1.414.985.985,0,0,0-.895-.391,2.285,2.285,0,0,0-.926.18,2.134,2.134,0,0,0-.715.508L201.867,15h-2.281l1.828-12.187H203.7ZM213.656,15a3.7,3.7,0,0,1-.125-.613,4.615,4.615,0,0,1-.031-.66,3.883,3.883,0,0,1-1.082,1.031,2.609,2.609,0,0,1-1.434.406,2.5,2.5,0,0,1-1.922-.691,2.114,2.114,0,0,1-.461-1.855,2.637,2.637,0,0,1,1.234-1.949,5.433,5.433,0,0,1,2.906-.66h1.281l.1-.672a1.182,1.182,0,0,0-.176-.957,1.124,1.124,0,0,0-.91-.324,1.425,1.425,0,0,0-.887.27,1.063,1.063,0,0,0-.418.738h-2.2l-.008-.047a2.573,2.573,0,0,1,1.207-1.867,4.614,4.614,0,0,1,2.7-.758,3.321,3.321,0,0,1,2.32.773,2.306,2.306,0,0,1,.641,2.188l-.523,3.492a6.258,6.258,0,0,0-.078,1.125A5.487,5.487,0,0,0,215.93,15ZM211.8,13.477a2.165,2.165,0,0,0,1.094-.3,2.036,2.036,0,0,0,.758-.691l.18-1.187h-1.281a1.718,1.718,0,0,0-1.137.367,1.4,1.4,0,0,0-.52.875.762.762,0,0,0,.172.691A.989.989,0,0,0,211.8,13.477Zm8.875-1.625.031.773.047.008.273-.781,2.188-5.3h2.383L221.453,15h-2.18l-1.609-8.453h2.383Zm8.188,3.313a3.285,3.285,0,0,1-2.742-1.176,3.672,3.672,0,0,1-.648-2.973l.047-.312A5.343,5.343,0,0,1,227,7.559a4.111,4.111,0,0,1,3.02-1.168,2.826,2.826,0,0,1,2.426,1.055,3.614,3.614,0,0,1,.52,2.8l-.172,1.18H227.75l-.016.039a1.983,1.983,0,0,0,.3,1.426,1.546,1.546,0,0,0,1.328.527,5.011,5.011,0,0,0,1.32-.16,6.029,6.029,0,0,0,1.188-.473l.406,1.406a5.183,5.183,0,0,1-1.484.7A6.475,6.475,0,0,1,228.859,15.164Zm.906-7.016a1.459,1.459,0,0,0-1.105.477,2.831,2.831,0,0,0-.652,1.242l.016.047h2.766l.023-.172a1.824,1.824,0,0,0-.121-1.18A.975.975,0,0,0,229.766,8.148Zm7.133-2.5-1.133,2.227h-1.125l.328-2.219.3-2.031H237.2Zm2.625,0-1.133,2.227h-1.125l.328-2.219.3-2.031h1.922ZM31.988,39H30.441l1.7-11.375h1.547ZM41.2,35.922,41.23,37l.039.008.375-1.086,2.492-5.375h1.234l.891,5.375.039,1.211.047.008.43-1.219,2.055-5.375h1.609L46.723,39H45.48l-.9-5.148-.117-1.336-.047-.008-.5,1.344L41.5,39H40.262l-1.187-8.453h1.6ZM50.973,34.7a5.387,5.387,0,0,1,1.473-3.125,4,4,0,0,1,2.941-1.18,2.942,2.942,0,0,1,2.559,1.223,4.1,4.1,0,0,1,.6,3.082l-.031.172A5.4,5.4,0,0,1,57.035,38a4.018,4.018,0,0,1-2.945,1.168,2.945,2.945,0,0,1-2.559-1.219,4.063,4.063,0,0,1-.59-3.078Zm1.508.172a3.681,3.681,0,0,0,.227,2.242,1.6,1.6,0,0,0,1.563.852,2.211,2.211,0,0,0,1.777-.887,4.5,4.5,0,0,0,.926-2.207L57,34.7a3.683,3.683,0,0,0-.238-2.234,1.6,1.6,0,0,0-1.559-.859,2.212,2.212,0,0,0-1.785.895,4.425,4.425,0,0,0-.91,2.2ZM65.246,39l.086-1.211a3.446,3.446,0,0,1-1.176,1.023,3.209,3.209,0,0,1-1.5.352,2.33,2.33,0,0,1-2-.895,3.643,3.643,0,0,1-.383-2.738l.742-4.984h1.539l-.75,5a2.963,2.963,0,0,0,.109,1.883,1.311,1.311,0,0,0,1.18.484,2.606,2.606,0,0,0,2.367-1.328l.9-6.039h1.539L66.629,39Zm5.289,0H69l1.828-12.187h1.539Zm2.625-4.07A6.411,6.411,0,0,1,74.52,31.6a3.334,3.334,0,0,1,2.633-1.211,2.617,2.617,0,0,1,1.262.289,2.29,2.29,0,0,1,.871.836l.7-4.7h1.539L79.7,39H78.52l-.07-1.07a3.432,3.432,0,0,1-1.164.922,3.355,3.355,0,0,1-1.461.313A2.473,2.473,0,0,1,73.6,38.031a4.13,4.13,0,0,1-.461-2.937Zm1.516.164a3.283,3.283,0,0,0,.207,2.07,1.575,1.575,0,0,0,1.52.75,2.229,2.229,0,0,0,1.188-.32A3.028,3.028,0,0,0,78.5,36.7l.586-3.914a1.906,1.906,0,0,0-.645-.84,1.811,1.811,0,0,0-1.09-.309,2.105,2.105,0,0,0-1.754.926,5.129,5.129,0,0,0-.9,2.363Zm13.938-3.461a3.829,3.829,0,0,1,1.211-.918,3.35,3.35,0,0,1,1.461-.324,2.349,2.349,0,0,1,1.957.82,3.2,3.2,0,0,1,.41,2.492l-.8,5.3H91.316l.8-5.312a2.052,2.052,0,0,0-.211-1.562,1.515,1.515,0,0,0-1.273-.484,2.68,2.68,0,0,0-1.223.281,2.776,2.776,0,0,0-.949.781L87.512,39H85.973L87.8,26.813H89.34ZM100.262,39q-.016-.438-.016-.707a4.986,4.986,0,0,1,.031-.551A4.564,4.564,0,0,1,99,38.754a3.193,3.193,0,0,1-1.543.41,2.41,2.41,0,0,1-1.887-.684,2.155,2.155,0,0,1-.434-1.855,2.584,2.584,0,0,1,1.25-1.914,5.194,5.194,0,0,1,2.773-.664h1.672l.125-.836a1.369,1.369,0,0,0-.27-1.191,1.593,1.593,0,0,0-1.223-.418,2.134,2.134,0,0,0-1.25.375,1.3,1.3,0,0,0-.609.9l-1.469.016-.008-.047a2.422,2.422,0,0,1,1.117-1.707,4.1,4.1,0,0,1,2.484-.746,3.053,3.053,0,0,1,2.172.738,2.258,2.258,0,0,1,.594,2.1l-.609,4.07a6.685,6.685,0,0,0-.09.887,4.511,4.511,0,0,0,.051.816Zm-2.383-1.125a3.032,3.032,0,0,0,1.547-.437,2.613,2.613,0,0,0,1.039-.984l.211-1.367H98.949a2.54,2.54,0,0,0-1.547.477,1.651,1.651,0,0,0-.734,1.094,1.011,1.011,0,0,0,.207.9A1.341,1.341,0,0,0,97.879,37.875Zm9.063-1.367.047.594.047.008.234-.6,2.836-5.961h1.57L107.3,39h-1.164l-1.883-8.453h1.578Zm8.227,2.656a3.069,3.069,0,0,1-2.629-1.18,3.934,3.934,0,0,1-.6-3.047l.055-.344a5.061,5.061,0,0,1,1.488-3.047,3.89,3.89,0,0,1,2.754-1.156,2.624,2.624,0,0,1,2.352,1.07,3.846,3.846,0,0,1,.461,2.789l-.117.813h-5.469a3.355,3.355,0,0,0,.266,2.121,1.7,1.7,0,0,0,1.617.777,4.177,4.177,0,0,0,1.395-.227,3.661,3.661,0,0,0,1.113-.609l.453,1a4.447,4.447,0,0,1-1.3.738A5.139,5.139,0,0,1,115.168,39.164Zm.891-7.562a1.948,1.948,0,0,0-1.4.625,3.561,3.561,0,0,0-.9,1.578l.016.047h3.8l.016-.125a2.256,2.256,0,0,0-.219-1.535A1.41,1.41,0,0,0,116.059,31.6Zm10.57.016a3.411,3.411,0,0,1,1.18-.91,3.605,3.605,0,0,1,1.539-.316,2.3,2.3,0,0,1,1.359.391,1.942,1.942,0,0,1,.75,1.164A3.722,3.722,0,0,1,132.68,30.8a3.187,3.187,0,0,1,1.613-.414,2.158,2.158,0,0,1,1.879.895,3.643,3.643,0,0,1,.379,2.66L135.793,39h-1.539l.758-5.07a2.626,2.626,0,0,0-.152-1.793,1.381,1.381,0,0,0-1.215-.5,1.886,1.886,0,0,0-1.34.555,2.884,2.884,0,0,0-.8,1.383.063.063,0,0,0-.008.027v.027l-.8,5.367h-1.547l.758-5.07a2.571,2.571,0,0,0-.168-1.762,1.339,1.339,0,0,0-1.2-.527,2.236,2.236,0,0,0-1.191.309,2.473,2.473,0,0,0-.832.855l-.93,6.2h-1.539l1.266-8.453h1.375ZM143.223,39q-.016-.438-.016-.707a4.988,4.988,0,0,1,.031-.551,4.564,4.564,0,0,1-1.277,1.012,3.193,3.193,0,0,1-1.543.41,2.41,2.41,0,0,1-1.887-.684,2.155,2.155,0,0,1-.434-1.855,2.584,2.584,0,0,1,1.25-1.914,5.194,5.194,0,0,1,2.773-.664h1.672l.125-.836a1.369,1.369,0,0,0-.27-1.191,1.593,1.593,0,0,0-1.223-.418,2.134,2.134,0,0,0-1.25.375,1.3,1.3,0,0,0-.609.9l-1.469.016-.008-.047a2.422,2.422,0,0,1,1.117-1.707,4.1,4.1,0,0,1,2.484-.746,3.053,3.053,0,0,1,2.172.738,2.258,2.258,0,0,1,.594,2.1l-.609,4.07a6.686,6.686,0,0,0-.09.887,4.51,4.51,0,0,0,.051.816Zm-2.383-1.125a3.032,3.032,0,0,0,1.547-.437,2.613,2.613,0,0,0,1.039-.984l.211-1.367H141.91a2.54,2.54,0,0,0-1.547.477,1.651,1.651,0,0,0-.734,1.094,1.011,1.011,0,0,0,.207.9A1.341,1.341,0,0,0,140.84,37.875Zm6.242-2.945a6.411,6.411,0,0,1,1.359-3.328,3.334,3.334,0,0,1,2.633-1.211,2.617,2.617,0,0,1,1.262.289,2.29,2.29,0,0,1,.871.836l.7-4.7h1.539L153.621,39h-1.18l-.07-1.07a3.432,3.432,0,0,1-1.164.922,3.355,3.355,0,0,1-1.461.313,2.473,2.473,0,0,1-2.227-1.133,4.13,4.13,0,0,1-.461-2.937Zm1.516.164a3.283,3.283,0,0,0,.207,2.07,1.575,1.575,0,0,0,1.52.75,2.229,2.229,0,0,0,1.188-.32,3.028,3.028,0,0,0,.914-.891l.586-3.914a1.906,1.906,0,0,0-.645-.84,1.811,1.811,0,0,0-1.09-.309,2.105,2.105,0,0,0-1.754.926,5.129,5.129,0,0,0-.9,2.363Zm10.8,4.07a3.069,3.069,0,0,1-2.629-1.18,3.934,3.934,0,0,1-.6-3.047l.055-.344a5.061,5.061,0,0,1,1.488-3.047,3.89,3.89,0,0,1,2.754-1.156,2.624,2.624,0,0,1,2.352,1.07,3.845,3.845,0,0,1,.461,2.789l-.117.813h-5.469a3.355,3.355,0,0,0,.266,2.121,1.7,1.7,0,0,0,1.617.777,4.177,4.177,0,0,0,1.395-.227,3.661,3.661,0,0,0,1.113-.609l.453,1a4.447,4.447,0,0,1-1.3.738A5.139,5.139,0,0,1,159.395,39.164Zm.891-7.562a1.948,1.948,0,0,0-1.4.625,3.561,3.561,0,0,0-.9,1.578l.016.047h3.8l.016-.125a2.257,2.257,0,0,0-.219-1.535A1.41,1.41,0,0,0,160.285,31.6Zm13.258,5.125a.908.908,0,0,0-.266-.836,3.27,3.27,0,0,0-1.391-.555,5.344,5.344,0,0,1-2.176-.9,1.562,1.562,0,0,1-.582-1.547A2.6,2.6,0,0,1,170.25,31.1a3.935,3.935,0,0,1,2.387-.711,3.006,3.006,0,0,1,2.188.789,1.943,1.943,0,0,1,.633,1.813l-.016.047h-1.477a1.162,1.162,0,0,0-.336-1,1.515,1.515,0,0,0-1.156-.437,1.974,1.974,0,0,0-1.254.371,1.334,1.334,0,0,0-.543.871.821.821,0,0,0,.234.781,3.447,3.447,0,0,0,1.375.492,5.217,5.217,0,0,1,2.227.93,1.632,1.632,0,0,1,.586,1.57,2.62,2.62,0,0,1-1.164,1.855,4.265,4.265,0,0,1-2.484.691,3.283,3.283,0,0,1-2.395-.828,2.033,2.033,0,0,1-.652-1.906l.016-.047h1.477a1.245,1.245,0,0,0,.445,1.2,2.1,2.1,0,0,0,1.281.379,2.3,2.3,0,0,0,1.313-.352A1.3,1.3,0,0,0,173.543,36.727Zm3.383-2.031A5.387,5.387,0,0,1,178.4,31.57a4,4,0,0,1,2.941-1.18,2.942,2.942,0,0,1,2.559,1.223,4.1,4.1,0,0,1,.6,3.082l-.031.172A5.4,5.4,0,0,1,182.988,38a4.018,4.018,0,0,1-2.945,1.168,2.945,2.945,0,0,1-2.559-1.219,4.063,4.063,0,0,1-.59-3.078Zm1.508.172a3.681,3.681,0,0,0,.227,2.242,1.6,1.6,0,0,0,1.563.852A2.211,2.211,0,0,0,182,37.074a4.5,4.5,0,0,0,.926-2.207l.031-.172a3.683,3.683,0,0,0-.238-2.234,1.6,1.6,0,0,0-1.559-.859,2.212,2.212,0,0,0-1.785.895,4.425,4.425,0,0,0-.91,2.2Zm9.883-3.25a3.411,3.411,0,0,1,1.18-.91,3.605,3.605,0,0,1,1.539-.316,2.3,2.3,0,0,1,1.359.391,1.942,1.942,0,0,1,.75,1.164,3.722,3.722,0,0,1,1.223-1.141,3.187,3.187,0,0,1,1.613-.414,2.158,2.158,0,0,1,1.879.895,3.643,3.643,0,0,1,.379,2.66L197.48,39h-1.539l.758-5.07a2.626,2.626,0,0,0-.152-1.793,1.381,1.381,0,0,0-1.215-.5,1.886,1.886,0,0,0-1.34.555,2.884,2.884,0,0,0-.8,1.383.063.063,0,0,0-.008.027v.027l-.8,5.367h-1.547l.758-5.07a2.571,2.571,0,0,0-.168-1.762,1.339,1.339,0,0,0-1.2-.527,2.236,2.236,0,0,0-1.191.309,2.473,2.473,0,0,0-.832.855l-.93,6.2H185.73L187,30.547h1.375Zm14.875,7.547a3.069,3.069,0,0,1-2.629-1.18,3.934,3.934,0,0,1-.6-3.047l.055-.344a5.061,5.061,0,0,1,1.488-3.047,3.89,3.89,0,0,1,2.754-1.156,2.624,2.624,0,0,1,2.352,1.07,3.845,3.845,0,0,1,.461,2.789l-.117.813h-5.469a3.355,3.355,0,0,0,.266,2.121,1.7,1.7,0,0,0,1.617.777,4.177,4.177,0,0,0,1.395-.227,3.661,3.661,0,0,0,1.113-.609l.453,1a4.447,4.447,0,0,1-1.3.738A5.139,5.139,0,0,1,203.191,39.164Zm.891-7.562a1.948,1.948,0,0,0-1.4.625,3.561,3.561,0,0,0-.9,1.578l.016.047h3.8l.016-.125a2.257,2.257,0,0,0-.219-1.535A1.41,1.41,0,0,0,204.082,31.6Zm11.7-3.094-.3,2.039h1.6l-.172,1.141h-1.6l-.766,5.133a1.052,1.052,0,0,0,.113.848.793.793,0,0,0,.621.23,1.571,1.571,0,0,0,.3-.035,2.1,2.1,0,0,0,.285-.074l.055,1.055a1.634,1.634,0,0,1-.543.23,2.7,2.7,0,0,1-.676.09,1.735,1.735,0,0,1-1.395-.57,2.153,2.153,0,0,1-.3-1.773l.766-5.133h-1.344l.172-1.141h1.344l.3-2.039Zm5.156,10.656a3.069,3.069,0,0,1-2.629-1.18,3.934,3.934,0,0,1-.6-3.047l.055-.344a5.061,5.061,0,0,1,1.488-3.047A3.89,3.89,0,0,1,222,30.391a2.624,2.624,0,0,1,2.352,1.07,3.845,3.845,0,0,1,.461,2.789l-.117.813H219.23a3.355,3.355,0,0,0,.266,2.121,1.7,1.7,0,0,0,1.617.777,4.177,4.177,0,0,0,1.395-.227,3.661,3.661,0,0,0,1.113-.609l.453,1a4.447,4.447,0,0,1-1.3.738A5.139,5.139,0,0,1,220.934,39.164Zm.891-7.562a1.948,1.948,0,0,0-1.4.625,3.561,3.561,0,0,0-.9,1.578l.016.047h3.8l.016-.125a2.257,2.257,0,0,0-.219-1.535A1.41,1.41,0,0,0,221.824,31.6Zm9.2,7.4q-.016-.438-.016-.707a4.988,4.988,0,0,1,.031-.551,4.564,4.564,0,0,1-1.277,1.012,3.193,3.193,0,0,1-1.543.41,2.41,2.41,0,0,1-1.887-.684,2.155,2.155,0,0,1-.434-1.855,2.584,2.584,0,0,1,1.25-1.914,5.194,5.194,0,0,1,2.773-.664H231.6l.125-.836a1.369,1.369,0,0,0-.27-1.191,1.593,1.593,0,0,0-1.223-.418,2.134,2.134,0,0,0-1.25.375,1.3,1.3,0,0,0-.609.9l-1.469.016-.008-.047a2.422,2.422,0,0,1,1.117-1.707,4.1,4.1,0,0,1,2.484-.746,3.053,3.053,0,0,1,2.172.738,2.258,2.258,0,0,1,.594,2.1l-.609,4.07a6.686,6.686,0,0,0-.09.887,4.51,4.51,0,0,0,.051.816Zm-2.383-1.125a3.032,3.032,0,0,0,1.547-.437,2.613,2.613,0,0,0,1.039-.984l.211-1.367h-1.727a2.54,2.54,0,0,0-1.547.477,1.651,1.651,0,0,0-.734,1.094,1.011,1.011,0,0,0,.207.9A1.341,1.341,0,0,0,228.645,37.875ZM236.309,39H234.77L235,37.422h1.539Z" transform="translate(721 3901)" fill="#fff"/>
    <text id="_" data-name="," transform="translate(682 3930)" fill="#3c3fa7" font-size="29" font-family="Roboto-Black, Roboto" font-weight="800"><tspan x="0" y="0">,</tspan></text>
    <g id="Grupo_170792" data-name="Grupo 170792" transform="translate(671.899 3938.938)">
      <path id="Trazado_166117" data-name="Trazado 166117" d="M-1457.814-8569v19.315" transform="translate(1470.415 8569.001)" fill="none" stroke="#12263f" stroke-width="2"/>
      <path id="Polígono_18" data-name="Polígono 18" d="M3.5,0,7,6H0Z" transform="translate(16.101 21.737) rotate(180)" fill="#12263f"/>
    </g>
    <g id="Grupo_170804" data-name="Grupo 170804" transform="translate(-192 -22)">
      <rect id="Rectángulo_43241" data-name="Rectángulo 43241" width="91" height="26" rx="10" transform="translate(833 3984)" fill="#ffd947"/>
      <path id="Trazado_170519" data-name="Trazado 170519" d="M14.332,11.234l.016.047a4.184,4.184,0,0,1-1.523,2.887,5.221,5.221,0,0,1-3.312,1,3.758,3.758,0,0,1-3.066-1.328,4.135,4.135,0,0,1-.793-3.391L6,8.188a5.6,5.6,0,0,1,1.73-3.441,4.9,4.9,0,0,1,3.426-1.285,4.2,4.2,0,0,1,3.055,1.027,3.036,3.036,0,0,1,.75,2.848l-.023.047H12.715a2.014,2.014,0,0,0-.273-1.648,1.972,1.972,0,0,0-1.555-.516,2.181,2.181,0,0,0-1.7.836A4.121,4.121,0,0,0,8.27,8.172l-.344,2.273A3.239,3.239,0,0,0,8.2,12.609a1.683,1.683,0,0,0,1.566.8,2.291,2.291,0,0,0,1.59-.543,2.642,2.642,0,0,0,.77-1.637Zm11-.9a5.645,5.645,0,0,1-1.84,3.5,5.323,5.323,0,0,1-3.645,1.324,3.9,3.9,0,0,1-3.172-1.379,4.169,4.169,0,0,1-.836-3.449l.3-2.047a5.614,5.614,0,0,1,1.816-3.5A5.265,5.265,0,0,1,21.59,3.461a3.935,3.935,0,0,1,3.2,1.387,4.172,4.172,0,0,1,.852,3.441ZM23.363,8.273a3.133,3.133,0,0,0-.332-2.2,1.89,1.89,0,0,0-1.715-.828,2.507,2.507,0,0,0-1.91.859,3.978,3.978,0,0,0-.988,2.172l-.3,2.063a3.235,3.235,0,0,0,.3,2.227,1.843,1.843,0,0,0,1.7.828,2.551,2.551,0,0,0,1.93-.859,4.046,4.046,0,0,0,1.016-2.2Zm9.4,3.734.047.008,4.18-8.391h2.977L38.262,15H35.98l1.156-7.758L37.1,7.234,33.121,15H31.574L29.926,7.219h-.047L28.715,15H26.434l1.7-11.375h2.992Zm13.922,0,.047.008,4.18-8.391h2.977L52.184,15H49.9l1.156-7.758-.039-.008L47.043,15H45.5L43.848,7.219H43.8L42.637,15H40.355l1.7-11.375h2.992Zm14.039.539h-3.7L55.895,15H53.512L59.051,3.625h2.336L63.5,15H61.121Zm-2.859-1.789h2.563l-.648-4.016-.047-.008Z" transform="translate(844 3988)" fill="#12263f"/>
    </g>
    <g id="Grupo_171381" data-name="Grupo 171381" transform="translate(-215 142)">
      <rect id="Rectángulo_43241-2" data-name="Rectángulo 43241" width="114" height="26" rx="10" transform="translate(833 3984)" fill="#ffd947"/>
      <path id="Trazado_170518" data-name="Trazado 170518" d="M18.3,15H16.02L12.574,7.328l-.047.008L11.387,15H9.105l1.7-11.375H13.09l3.438,7.664.047-.008,1.148-7.656H20Zm12-4.664a5.645,5.645,0,0,1-1.84,3.5,5.323,5.323,0,0,1-3.645,1.324,3.9,3.9,0,0,1-3.172-1.379,4.169,4.169,0,0,1-.836-3.449l.3-2.047a5.614,5.614,0,0,1,1.816-3.5,5.265,5.265,0,0,1,3.629-1.332,3.935,3.935,0,0,1,3.2,1.387,4.172,4.172,0,0,1,.852,3.441ZM28.332,8.273A3.133,3.133,0,0,0,28,6.07a1.89,1.89,0,0,0-1.715-.828,2.507,2.507,0,0,0-1.91.859,3.978,3.978,0,0,0-.988,2.172l-.3,2.063a3.235,3.235,0,0,0,.3,2.227,1.843,1.843,0,0,0,1.7.828,2.551,2.551,0,0,0,1.93-.859,4.046,4.046,0,0,0,1.016-2.2Zm16.141,2.961.016.047a4.184,4.184,0,0,1-1.523,2.887,5.221,5.221,0,0,1-3.312,1,3.758,3.758,0,0,1-3.066-1.328,4.135,4.135,0,0,1-.793-3.391l.344-2.258a5.6,5.6,0,0,1,1.73-3.441,4.9,4.9,0,0,1,3.426-1.285,4.2,4.2,0,0,1,3.055,1.027,3.036,3.036,0,0,1,.75,2.848l-.023.047H42.855a2.014,2.014,0,0,0-.273-1.648,1.972,1.972,0,0,0-1.555-.516,2.181,2.181,0,0,0-1.7.836,4.121,4.121,0,0,0-.914,2.117l-.344,2.273a3.239,3.239,0,0,0,.277,2.164,1.683,1.683,0,0,0,1.566.8,2.291,2.291,0,0,0,1.59-.543,2.642,2.642,0,0,0,.77-1.637Zm11-.9a5.645,5.645,0,0,1-1.84,3.5,5.323,5.323,0,0,1-3.645,1.324,3.9,3.9,0,0,1-3.172-1.379,4.169,4.169,0,0,1-.836-3.449l.3-2.047a5.614,5.614,0,0,1,1.816-3.5A5.265,5.265,0,0,1,51.73,3.461a3.935,3.935,0,0,1,3.2,1.387,4.172,4.172,0,0,1,.852,3.441ZM53.5,8.273a3.133,3.133,0,0,0-.332-2.2,1.89,1.89,0,0,0-1.715-.828,2.507,2.507,0,0,0-1.91.859,3.978,3.978,0,0,0-.988,2.172l-.3,2.063a3.235,3.235,0,0,0,.3,2.227,1.843,1.843,0,0,0,1.7.828,2.551,2.551,0,0,0,1.93-.859,4.046,4.046,0,0,0,1.016-2.2Zm9.4,3.734.047.008,4.18-8.391h2.977L68.4,15H66.121l1.156-7.758-.039-.008L63.262,15H61.715L60.066,7.219H60.02L58.855,15H56.574l1.7-11.375H61.27Zm13.922,0,.047.008,4.18-8.391h2.977L82.324,15H80.043L81.2,7.242l-.039-.008L77.184,15H75.637L73.988,7.219h-.047L72.777,15H70.5L72.2,3.625h2.992Zm14.039.539h-3.7L86.035,15H83.652L89.191,3.625h2.336L93.645,15H91.262ZM88,10.758h2.563l-.648-4.016-.047-.008Z" transform="translate(844 3988)" fill="#12263f"/>
    </g>
    <path id="Trazado_170526" data-name="Trazado 170526" d="M15.539,15a7.13,7.13,0,0,1-2,5.2A6.973,6.973,0,0,1,8.32,22.246,7.061,7.061,0,0,1,3.059,20.2,7.1,7.1,0,0,1,1.043,15v-3.07a7.112,7.112,0,0,1,2.01-5.191A7.016,7.016,0,0,1,8.3,4.691a7.006,7.006,0,0,1,5.227,2.051,7.1,7.1,0,0,1,2.016,5.191ZM11.59,11.91a4.936,4.936,0,0,0-.861-3A2.841,2.841,0,0,0,8.3,7.738,2.851,2.851,0,0,0,5.842,8.9a4.979,4.979,0,0,0-.85,3.006V15a4.977,4.977,0,0,0,.861,3.023A2.877,2.877,0,0,0,8.32,19.2a2.814,2.814,0,0,0,2.414-1.172A5,5,0,0,0,11.59,15Zm10.324,3.551V22H17.953V4.938h5.941a7.376,7.376,0,0,1,4.7,1.371,4.521,4.521,0,0,1,1.734,3.75,3.734,3.734,0,0,1-.7,2.273,4.944,4.944,0,0,1-2.057,1.547,3.818,3.818,0,0,1,2.256,1.482,4.588,4.588,0,0,1,.686,2.584v1.078a6.8,6.8,0,0,0,.2,1.523,2.016,2.016,0,0,0,.691,1.219V22h-4.09a1.917,1.917,0,0,1-.609-1.277A11.356,11.356,0,0,1,26.566,19V17.969a2.523,2.523,0,0,0-.645-1.863,2.557,2.557,0,0,0-1.887-.645Zm0-3.047h2a2.725,2.725,0,0,0,1.828-.545,1.952,1.952,0,0,0,.633-1.564,2.251,2.251,0,0,0-.65-1.682,2.507,2.507,0,0,0-1.834-.639h-1.98Z" transform="translate(594 3988)" fill="#12263f"/>
  </g>
</svg>
