<svg xmlns="http://www.w3.org/2000/svg" xmlns:xlink="http://www.w3.org/1999/xlink" width="88" height="88" viewBox="0 0 88 88">
  <defs>
    <clipPath id="clip-path">
      <rect id="Rectángulo_43557" data-name="Rectángulo 43557" width="58.529" height="52.657" fill="none"/>
    </clipPath>
  </defs>
  <g id="Grupo_171340" data-name="Grupo 171340" transform="translate(-232 -2414)">
    <circle id="Elipse_4783" data-name="Elipse 4783" cx="44" cy="44" r="44" transform="translate(232 2414)" fill="#6b8dfc"/>
    <g id="Grupo_171339" data-name="Grupo 171339" transform="translate(247 2432)">
      <g id="Grupo_171339-2" data-name="Grupo 171339" transform="translate(0 0)" clip-path="url(#clip-path)">
        <path id="Trazado_169112" data-name="Trazado 169112" d="M58.528,6.661v10.48a1.725,1.725,0,0,1-.586,1.074.734.734,0,0,0-.253.582c-.009.234-.007.468-.007.7q0,14.337,0,28.675a5.7,5.7,0,0,1-.279,1.916,3.828,3.828,0,0,1-3.7,2.55q-10.416.008-20.83,0c-.957,0-1.228-.185-1.415-.921a1.13,1.13,0,0,1,1.031-.994,2.085,2.085,0,0,1,.452-.042c3.128,0,6.255-.019,9.383.007,3.6-.032,7.192-.006,10.788-.014,1.772,0,2.489-.665,2.49-2.355q.01-14.4,0-28.79c0-.789-.024-.811-.869-.811q-7.249,0-14.5,0c-.285,0-.571,0-.856-.017-2.177.024-4.354.016-6.532,0-.835,0-1.151-.239-1.385-.932.089-.636.274-.837.913-.995.342-.014.684-.009,1.027-.008,7.4.017,14.794-.032,22.191-.024,1.036,0,1.044-.011,1.036-.994-.006-.776-.041-.813-.878-.814Q30.793,14.9,5.835,14.919c-.242,0-.5-.05-.689.164a2.847,2.847,0,0,0-.072,1.281c.009.237.16.347.4.37s.494.018.741.018H27.555c.267,0,.533-.008.8.008.784.046,1.059.321,1.094,1.087-.081.509-.462.715-.937.815a4.686,4.686,0,0,1-.968.046H7.334c-.171,0-.342,0-.514,0-.706.009-.754.046-.754.7q-.006,4.672,0,9.345c0,.171-.082.41.114.493s.34-.12.488-.224c1.941-1.362,3.879-2.728,5.828-4.08a5.417,5.417,0,0,1,1.115-.65,1.894,1.894,0,0,1,2.717,1.629c.042.989.006,1.98.012,2.971,0,.687.04.723.786.724q4.338.005,8.677,0a2.236,2.236,0,0,1,1.858.768,1.842,1.842,0,0,1,.435,1.2c.006,2.07.019,4.141,0,6.212a1.936,1.936,0,0,1-2.141,1.975c-2.892.011-5.784,0-8.677,0-.907,0-.932.026-.934.872,0,.864,0,1.728,0,2.593a1.841,1.841,0,0,1-1,1.812,2.14,2.14,0,0,1-2.264-.186c-1.2-.8-2.361-1.642-3.538-2.467-.978-.686-1.954-1.376-2.94-2.052-.131-.089-.258-.268-.438-.181-.149.073-.093.261-.093.4,0,2.647-.019,5.294.005,7.941.013,1.477.787,2.177,2.333,2.177h19.01a6.387,6.387,0,0,1,.969.037c.8.123,1.07.425,1.06,1.2a.888.888,0,0,1-.944.7c-.229.01-.457.007-.685.007-6.508,0-13.017-.046-19.523.026a4.024,4.024,0,0,1-4.275-4.04q-.037-4.592.007-9.183a1.5,1.5,0,0,0-.76-1.444c-.773-.491-1.472-1.088-2.25-1.57A1.966,1.966,0,0,1,1,32.989c.853-.538,1.665-1.139,2.489-1.719a1.133,1.133,0,0,0,.528-1.01q-.011-5.645,0-11.29a1.106,1.106,0,0,0-.4-.909A1.824,1.824,0,0,1,2.985,16.6c0-3.133-.016-6.266.005-9.4A2.028,2.028,0,0,1,5.26,5.1c.856-.008,1.713-.015,2.569,0,.462.01.651-.152.641-.6a7.737,7.737,0,0,1,.087-1.83A3.426,3.426,0,0,1,12.514.031a3.335,3.335,0,0,1,2.906,3.2c.012.468,0,.936.007,1.4,0,.313.157.458.489.459q2.34.007,4.681,0c.393,0,.537-.192.538-.539,0-.486,0-.972,0-1.459A3.309,3.309,0,0,1,24.385.005a3.364,3.364,0,0,1,3.591,2.989c.022.522.013,1.045.005,1.567-.006.351.123.537.525.536,1.56,0,3.121,0,4.681,0,.361,0,.511-.164.51-.5,0-.486.007-.972,0-1.458A3.355,3.355,0,0,1,37.2,0a3.3,3.3,0,0,1,3.34,3.168q.007.675,0,1.35c0,.371.149.571.568.572,1.542,0,3.083,0,4.624,0,.357,0,.523-.137.52-.481,0-.468-.01-.937,0-1.4A3.318,3.318,0,0,1,49.18.029a3.429,3.429,0,0,1,3.935,2.608,8.2,8.2,0,0,1,.1,1.884c0,.409.159.587.6.58.856-.014,1.713-.008,2.569,0,1.281.009,1.853.428,2.145,1.563" transform="translate(0 0)"/>
        <path id="Trazado_169113" data-name="Trazado 169113" d="M37.059,69.883c-.568,0-1.136.007-1.7,0a.543.543,0,0,0-.536.215c-.008-.812-.259-1.027-1.216-1.028q-9.847,0-19.695,0a2.706,2.706,0,0,1-1.479-.306,1.962,1.962,0,0,1-1.015-1.715c-.013-3.025,0-6.05,0-9.075,0-.01.026-.021.093-.07.329.228.675.466,1.018.707q2.887,2.023,5.774,4.047a5.351,5.351,0,0,0,.61.4,1.783,1.783,0,0,0,2.757-1.474c.034-1.1.029-2.2,0-3.295-.009-.388.122-.478.514-.476,2.987.015,5.975.01,8.962.007,1.59,0,2.278-.662,2.279-2.179q0-2.863,0-5.726a1.851,1.851,0,0,0-2.083-1.98c-3.026-.007-6.051-.013-9.077.008-.472,0-.612-.111-.6-.562.037-.989,0-1.98.014-2.97a1.754,1.754,0,0,0-1-1.8,2.031,2.031,0,0,0-2.133.3Q15.27,45.2,12,47.507c-.164.115-.332.225-.491.332-.165-.118-.1-.255-.1-.367,0-3.421,0-6.842-.015-10.263,0-.43.123-.532.567-.531q10.818.02,21.635.013c.551,0,1.033-.064,1.227-.646.021-.153.1-.291.263-.3a3.773,3.773,0,0,1,1.97.111c.2.675.417.829,1.173.833q3.3.016,6.6.028a6.973,6.973,0,0,1,1.2,1.569,29.332,29.332,0,0,1,3.849,8.724c.032.122.065.244.086.369.061.373-.076.6-.505.6a1.476,1.476,0,0,0-.667.11c-1.1.429-1.394.836-1.4,1.961,0,1.884.02,3.769-.01,5.652a1.845,1.845,0,0,0,1.356,1.951,3.77,3.77,0,0,0,1.3.089c.679.026.831.15.764.833a29.49,29.49,0,0,1-.613,3.842,30.23,30.23,0,0,1-1.928,5.813,2.6,2.6,0,0,1-.461.8c-1.213.011-2.425.029-3.638.033-1.992.005-3.984.008-5.976,0-.621,0-1.018.222-1.131.821" transform="translate(-5.487 -18.167)" fill="#eef5fe"/>
        <path id="Trazado_169114" data-name="Trazado 169114" d="M79.881,48.977a1.087,1.087,0,0,1,.259-.088c.848-.066.854-.066.635-.867a29.284,29.284,0,0,0-4.571-9.7c-.126-.171-.306-.325-.319-.558.456-.009.911-.026,1.367-.026,4.814,0,9.628.007,14.442-.014.516,0,.618.131.617.6Q92.288,53.009,92.3,67.7c0,1.646-.807,2.409-2.546,2.41q-5.167,0-10.332,0c-.189,0-.377-.022-.566-.033a23.031,23.031,0,0,1,.991-2.5,31.481,31.481,0,0,0,1.519-5.643c.125-.774.225-1.552.345-2.327.077-.494-.078-.717-.662-.678a2.382,2.382,0,0,1-1.28-.083c.205-.219.486-.175.745-.177,1.12-.008,2.241,0,3.362-.005,1.223-.008,1.878-.615,1.882-1.754q.011-2.993,0-5.986a1.632,1.632,0,0,0-1.827-1.756c-1.1-.019-2.2,0-3.3-.008-.259,0-.54.043-.743-.18" transform="translate(-36.538 -19.214)" fill="#d8edfe"/>
        <path id="Trazado_169115" data-name="Trazado 169115" d="M22.379,64.942q-2.482,0-4.964,0c-.888,0-1.2.3-1.2,1.139,0,1.314,0,2.627,0,3.941,0,.12.054.279-.069.351-.159.092-.283-.054-.4-.135Q9.787,66.067,3.833,61.894c-.332-.232-.251-.343.024-.536q5.89-4.118,11.773-8.246c.146-.1.3-.307.48-.231s.1.32.1.488c.007,1.259,0,2.519,0,3.779,0,.884.3,1.17,1.222,1.17,3.29,0,6.58.012,9.87-.01.526,0,.678.135.669.633q-.045,2.7,0,5.4c.007.465-.112.625-.63.615-1.654-.031-3.309-.011-4.964-.011" transform="translate(-1.741 -26.927)" fill="#375e7d"/>
        <path id="Trazado_169116" data-name="Trazado 169116" d="M49.215,20.21c-.208.008-.417.022-.626.022q-19.265,0-38.529.015c-.58,0-.721-.134-.708-.675.041-1.691.027-3.384.006-5.077-.005-.413.095-.581.568-.564.931.032,1.865.025,2.8,0,.357-.009.458.1.446.427a6.274,6.274,0,0,0,.058,1.4,3.285,3.285,0,0,0,3.471,2.6,3.226,3.226,0,0,0,3.064-3.079c.01-.427-.2-.988.088-1.247.307-.279.9-.081,1.374-.086,1.332-.013,2.664.017,4-.016.473-.012.573.143.557.55a4.594,4.594,0,0,0,.128,1.66,3.327,3.327,0,0,0,3.5,2.2,3.175,3.175,0,0,0,2.926-3.023,6.483,6.483,0,0,0,0-.864c-.039-.383.065-.533.519-.526,1.674.027,3.349.021,5.023,0,.368,0,.5.084.487.447a5.413,5.413,0,0,0,.084,1.611,3.313,3.313,0,0,0,3.442,2.364,3.2,3.2,0,0,0,3.023-2.941c0-.072.007-.144.009-.215.036-1.319.036-1.319,1.441-1.239a10.665,10.665,0,0,1,1.324,2.315c.556,1.084,1.049,2.2,1.5,3.327.077.2.222.394.036.606" transform="translate(-4.503 -7.071)" fill="#ea5468"/>
        <path id="Trazado_169117" data-name="Trazado 169117" d="M36.089,33.062c-.565,0-1.129,0-1.693,0a.565.565,0,0,0-.54.2c-.034-.765-.277-.977-1.146-.977q-11.274,0-22.549,0c-.778,0-.781,0-.777-.73,0-.431.017-.863.025-1.294a1.242,1.242,0,0,1,.615-.052q19.62,0,39.24,0c.828,0,.851.024,1.1.787.494,1.515.251,1.261-.976,1.261q-5.989,0-11.977,0a2.195,2.195,0,0,0-.623.031.942.942,0,0,0-.7.784" transform="translate(-4.518 -15.376)" fill="#9ed3fd"/>
        <path id="Trazado_169118" data-name="Trazado 169118" d="M83.582,20.256a19.178,19.178,0,0,0-1.246-2.987c-.516-1.1-1.072-2.175-1.61-3.262,1.406-.006,2.811-.008,4.217-.025.276,0,.369.09.353.343-.017.287,0,.575,0,.863a3.3,3.3,0,0,0,6.595.12,2.994,2.994,0,0,0,0-.647c-.1-.59.177-.716.747-.687.852.044,1.71.024,2.565.006.37-.007.5.112.494.467-.015,1.816-.01,3.633,0,5.448,0,.257-.04.39-.366.388q-5.871-.024-11.742-.028" transform="translate(-38.869 -7.116)" fill="#e4384f"/>
        <path id="Trazado_169119" data-name="Trazado 169119" d="M36.812,32.22c.2-.162.438-.088.658-.088q6.192-.007,12.385,0c.734,0,.745-.014.527-.646-.442-1.287-.442-1.286-1.911-1.287l-39.038,0c.136-.2.344-.092.512-.092q25.419-.005,50.837-.009c.481,0,.637.12.583.565a4.074,4.074,0,0,0,0,.97c.06.493-.161.6-.648.6q-11.526-.015-23.051,0c-.285,0-.57,0-.856,0" transform="translate(-4.542 -15.318)" fill="#84bdee"/>
        <path id="Trazado_169120" data-name="Trazado 169120" d="M94.757,3.734a1.536,1.536,0,0,1,2.169,1.454c.03,1.168.008,2.337.007,3.505,0,.449.025.9-.012,1.348a1.522,1.522,0,0,1-2.015,1.376c.561-2.086.163-4.211.288-6.315a2.469,2.469,0,0,0-.437-1.368" transform="translate(-45.625 -1.848)" fill="#f9b957"/>
        <path id="Trazado_169121" data-name="Trazado 169121" d="M21.2,11.525a1.242,1.242,0,0,1-1.162-1.148,40.167,40.167,0,0,1,0-5.479,1.2,1.2,0,0,1,.921-1.055c.315-.1.451.111.575.313a2.12,2.12,0,0,1,.3,1.137c0,1.562.015,3.125-.007,4.687a1.738,1.738,0,0,1-.625,1.546" transform="translate(-9.606 -1.944)" fill="#fdd671"/>
        <path id="Trazado_169122" data-name="Trazado 169122" d="M22.148,11.4a4.167,4.167,0,0,0,.468-2.283c-.034-1.366.015-2.734-.022-4.1a1.245,1.245,0,0,0-.685-1.3,1.538,1.538,0,0,1,2.18,1.3c.012,1.684.027,3.37-.008,5.053A1.486,1.486,0,0,1,22.148,11.4" transform="translate(-10.549 -1.823)" fill="#fab958"/>
        <path id="Trazado_169123" data-name="Trazado 169123" d="M70.391,3.753a1.5,1.5,0,0,1,2.178,1.216c.055,1.719.05,3.442,0,5.161a1.469,1.469,0,0,1-1.958,1.291c-.017-.051-.049-.106-.026-.156a7.755,7.755,0,0,0,.307-3.28c.028-.858-.012-1.717.011-2.575a2.329,2.329,0,0,0-.515-1.656" transform="translate(-33.893 -1.846)" fill="#fab958"/>
        <path id="Trazado_169124" data-name="Trazado 169124" d="M46.15,3.75a1.511,1.511,0,0,1,2.18,1.289c.034,1.671.031,3.343,0,5.014a1.482,1.482,0,0,1-1.951,1.371c-.013-.034-.04-.074-.029-.1.566-1.5.232-3.047.312-4.572.026-.5-.006-1,.006-1.5a2.325,2.325,0,0,0-.52-1.5" transform="translate(-22.221 -1.847)" fill="#fab958"/>
        <path id="Trazado_169125" data-name="Trazado 169125" d="M45.27,3.878c.651.173.659.732.67,1.179.043,1.78.024,3.562.012,5.343a2.611,2.611,0,0,1-.451,1.152c-.691-.178-1.14-.582-1.153-1.223-.035-1.759-.032-3.519,0-5.279a1.242,1.242,0,0,1,.925-1.173" transform="translate(-21.341 -1.975)" fill="#fed672"/>
        <path id="Trazado_169126" data-name="Trazado 169126" d="M93.826,3.845a.956.956,0,0,1,.6,1c.021,1.867.013,3.734.006,5.6a1.711,1.711,0,0,1-.453,1.077,1.391,1.391,0,0,1-1.137-1.361c-.017-1.671-.022-3.343,0-5.013a1.323,1.323,0,0,1,.986-1.309" transform="translate(-44.694 -1.959)" fill="#fed672"/>
        <path id="Trazado_169127" data-name="Trazado 169127" d="M69.519,3.886c.613.121.65.641.659,1.041.043,1.864.024,3.729.015,5.594,0,.392-.3.689-.452,1.033a1.356,1.356,0,0,1-1.144-1.3q-.034-2.565,0-5.131a1.283,1.283,0,0,1,.921-1.238" transform="translate(-33.021 -1.979)" fill="#fed672"/>
        <path id="Trazado_169128" data-name="Trazado 169128" d="M67.446,65.624c0,1.008.007,2.015,0,3.023A1.823,1.823,0,0,1,65.5,70.539q-1.911.032-3.822,0a1.8,1.8,0,0,1-1.918-1.856q-.019-3.077,0-6.155a1.82,1.82,0,0,1,1.969-1.865q1.854-.02,3.708,0a1.841,1.841,0,0,1,2.01,1.939c0,.036,0,.072,0,.108v2.915" transform="translate(-28.77 -30.895)"/>
        <path id="Trazado_169129" data-name="Trazado 169129" d="M82.091,60.662c1.349,0,2.7-.007,4.047,0a1.836,1.836,0,0,1,2.027,1.919q.015,3.021,0,6.043a1.83,1.83,0,0,1-2.028,1.918c-1.387.01-2.774-.008-4.161-.015a1.862,1.862,0,0,1-1.5-2.07q0-2.855,0-5.709a1.865,1.865,0,0,1,1.616-2.088" transform="translate(-38.748 -30.898)"/>
        <path id="Trazado_169130" data-name="Trazado 169130" d="M67.329,67.318c0,.934-.01,1.868.006,2.8.006.33-.073.492-.469.485-1.119-.02-2.24-.014-3.36,0-.318,0-.433-.1-.432-.408q.014-2.91,0-5.821c0-.308.125-.406.438-.4,1.12.011,2.24.013,3.36,0,.346,0,.467.109.462.437-.016.97-.006,1.94-.006,2.91" transform="translate(-30.37 -32.585)" fill="#375e7d"/>
        <path id="Trazado_169131" data-name="Trazado 169131" d="M86.341,63.994c.8,0,1.6.006,2.4-.02.389-.013.481.139.478.477-.012,1.89-.016,3.78,0,5.67,0,.393-.151.5-.535.48-.626-.025-1.255-.013-1.882-.016a.862.862,0,0,1-.176-.662,29.345,29.345,0,0,0-.372-5.311.678.678,0,0,1,.088-.618" transform="translate(-41.515 -32.586)" fill="#2b4d66"/>
        <path id="Trazado_169132" data-name="Trazado 169132" d="M85.1,63.978a33.234,33.234,0,0,1,.46,6.592c-.583,0-1.31.235-1.706-.087s-.12-1.013-.128-1.541c-.02-1.45.012-2.9-.018-4.351-.01-.478.111-.709.655-.634a6.443,6.443,0,0,0,.736.022" transform="translate(-40.275 -32.571)" fill="#375e7c"/>
      </g>
    </g>
  </g>
</svg>
