<svg xmlns="http://www.w3.org/2000/svg" xmlns:xlink="http://www.w3.org/1999/xlink" width="88" height="88" viewBox="0 0 88 88">
  <defs>
    <clipPath id="clip-path">
      <rect id="Rectángulo_43558" data-name="Rectángulo 43558" width="64.735" height="64.737" fill="none"/>
    </clipPath>
  </defs>
  <g id="Grupo_171343" data-name="Grupo 171343" transform="translate(-441 -2414)">
    <circle id="Elipse_4784" data-name="Elipse 4784" cx="44" cy="44" r="44" transform="translate(441 2414)" fill="#6b8dfc"/>
    <g id="Grupo_171342" data-name="Grupo 171342" transform="translate(453 2426)">
      <g id="Grupo_171341" data-name="Grupo 171341" transform="translate(0 0)" clip-path="url(#clip-path)">
        <path id="Trazado_169133" data-name="Trazado 169133" d="M32.741,0a2.663,2.663,0,0,1,.969,1.031c.663,1.146,1.343,2.282,2.032,3.412A5.464,5.464,0,0,0,43.383,6.5c1.235-.675,2.455-1.377,3.687-2.056,1.18-.651,2.089-.106,2.113,1.25.028,1.579.023,3.16.108,4.737a5.351,5.351,0,0,0,4.975,5c1.6.087,3.2.08,4.8.113,1.312.026,1.852.939,1.221,2.09-.667,1.215-1.351,2.421-2.022,3.635a5.474,5.474,0,0,0,2.1,7.771c1.172.7,2.351,1.39,3.521,2.1a1.317,1.317,0,0,1-.018,2.468c-1.171.7-2.349,1.394-3.521,2.1a5.479,5.479,0,0,0-2.074,7.779c.673,1.212,1.357,2.418,2.023,3.634a1.283,1.283,0,0,1-1.189,2.07c-1.6.034-3.2.026-4.8.11a5.351,5.351,0,0,0-5.016,5.02c-.083,1.577-.078,3.158-.108,4.738-.025,1.344-.944,1.876-2.132,1.22-1.214-.67-2.418-1.358-3.633-2.025A5.453,5.453,0,0,0,35.733,60.3c-.731,1.2-1.44,2.42-2.172,3.623a1.286,1.286,0,0,1-2.388.013c-.742-1.221-1.463-2.455-2.206-3.676a5.461,5.461,0,0,0-7.647-2.024c-1.231.682-2.455,1.377-3.689,2.054-1.149.631-2.064.088-2.089-1.223-.03-1.579-.023-3.16-.107-4.738a5.343,5.343,0,0,0-5.063-5.04c-1.577-.082-3.158-.074-4.737-.106-1.271-.026-1.821-.944-1.214-2.053.686-1.253,1.4-2.491,2.084-3.745a5.466,5.466,0,0,0-2.061-7.64c-1.131-.689-2.266-1.37-3.412-2.033A2.654,2.654,0,0,1,0,32.741v-.758A1.533,1.533,0,0,1,.881,30.91c1.128-.658,2.239-1.343,3.363-2.01A5.44,5.44,0,0,0,7.1,24.6a4.957,4.957,0,0,0-.534-2.751C6.022,20.76,5.391,19.712,4.8,18.641c-.2-.37-.41-.737-.586-1.119a1.414,1.414,0,0,1,1.295-2.131c.694-.036,1.391-.035,2.085,0a27.346,27.346,0,0,0,3.15-.162,5.266,5.266,0,0,0,4.525-4.854c.074-1.6.079-3.2.117-4.8a1.417,1.417,0,0,1,2.188-1.328c1.191.585,2.342,1.248,3.486,1.918a5.48,5.48,0,0,0,5.187.518,5.241,5.241,0,0,0,2.371-2.017c.8-1.239,1.534-2.518,2.287-3.786A1.547,1.547,0,0,1,31.983,0Z" transform="translate(0 0)"/>
        <path id="Trazado_169134" data-name="Trazado 169134" d="M60.6,50.117c-.98,0-1.843-.053-2.7.009a8.02,8.02,0,0,0-7.754,8.134c-.02.714,0,1.43,0,2.2a4.334,4.334,0,0,1-1.215-.588,9.7,9.7,0,0,0-4.1-1.516,7.869,7.869,0,0,0-7.379,3.376c-.471.643-.847,1.355-1.263,2.037-.37.607-.362.605-.748-.025a21.567,21.567,0,0,0-1.6-2.493,8.021,8.021,0,0,0-9.879-2.058c-.764.4-1.512.827-2.269,1.239-.031.017-.081,0-.242,0,0-.9.062-1.808-.01-2.7A8,8,0,0,0,13.329,50.1c-.715-.019-1.43,0-2.28,0,.386-.7.709-1.322,1.06-1.924A8.079,8.079,0,0,0,9.553,37.177a19.4,19.4,0,0,0-1.789-1.065c-.556-.289-.409-.445.025-.7a15.038,15.038,0,0,0,3.118-2.13,8.029,8.029,0,0,0,1.557-9.207c-.418-.846-.89-1.664-1.412-2.631.764,0,1.441.007,2.118,0A8.264,8.264,0,0,0,17.4,20.369a8.024,8.024,0,0,0,4.087-7.16c.015-.693,0-1.387,0-2.226.749.419,1.394.783,2.044,1.141a8.032,8.032,0,0,0,9.359-.86A9.084,9.084,0,0,0,34.65,9.129,9.574,9.574,0,0,1,35.831,7.3,13.165,13.165,0,0,1,37,9.152a8.179,8.179,0,0,0,2.469,2.664,7.907,7.907,0,0,0,8.321.466c.764-.382,1.5-.815,2.354-1.281,0,.8-.013,1.494,0,2.185a8.089,8.089,0,0,0,8.3,8.256c.673.012,1.345,0,2.156,0l-1.138,2.046A8.08,8.08,0,0,0,62.305,34.5c.54.327,1.074.665,1.626.969.37.2.493.333.023.588-.683.371-1.348.78-2,1.21a8,8,0,0,0-2.741,10.307c.41.82.874,1.614,1.38,2.542" transform="translate(-3.454 -3.407)" fill="#fe8649"/>
        <path id="Trazado_169135" data-name="Trazado 169135" d="M22.228,42.7A20.5,20.5,0,1,1,42.792,63.235,20.48,20.48,0,0,1,22.228,42.7" transform="translate(-10.373 -10.372)"/>
        <path id="Trazado_169136" data-name="Trazado 169136" d="M45,26.993a17.962,17.962,0,1,1-18,17.842A17.969,17.969,0,0,1,45,26.993" transform="translate(-12.598 -12.597)" fill="#fec265"/>
        <path id="Trazado_169137" data-name="Trazado 169137" d="M85.084,52.108a12.1,12.1,0,0,1-.14,2.083,1.313,1.313,0,0,1-1.394,1.318,1.264,1.264,0,0,1-1.126-1.585,13.184,13.184,0,0,0-2.047-9.086c-.148-.229-.32-.444-.466-.675a1.267,1.267,0,1,1,2.071-1.458,15.421,15.421,0,0,1,2.847,6.524,13.657,13.657,0,0,1,.255,2.878" transform="translate(-37.177 -19.665)"/>
        <path id="Trazado_169138" data-name="Trazado 169138" d="M74.491,39.1a1.238,1.238,0,0,1-1.26-1.226,1.279,1.279,0,0,1,1.265-1.3,1.293,1.293,0,0,1,1.266,1.244,1.25,1.25,0,0,1-1.27,1.285" transform="translate(-34.175 -17.066)" fill="#010100"/>
      </g>
    </g>
  </g>
</svg>
