<svg xmlns="http://www.w3.org/2000/svg" xmlns:xlink="http://www.w3.org/1999/xlink" width="105" height="105" viewBox="0 0 105 105">
  <defs>
    <clipPath id="clip-path">
      <rect id="Rectángulo_43347" data-name="Rectángulo 43347" width="64.677" height="64.599" fill="none"/>
    </clipPath>
  </defs>
  <g id="Grupo_170764" data-name="Grupo 170764" transform="translate(-1063 -839.15)">
    <path id="Trazado_165117" data-name="Trazado 165117" d="M52.5,0A52.5,52.5,0,1,1,0,52.5,52.5,52.5,0,0,1,52.5,0Z" transform="translate(1063 839.15)" fill="#a6bbff"/>
    <g id="Grupo_170990" data-name="Grupo 170990" transform="translate(1083 859.15)">
      <g id="Grupo_170990-2" data-name="Grupo 170990" clip-path="url(#clip-path)">
        <path id="Trazado_167149" data-name="Trazado 167149" d="M56.981,98.056H7.524a4.87,4.87,0,0,1-4.145-4.315C2.261,87.221,1.151,80.7.129,74.163a23.738,23.738,0,0,1-.1-3.834,2.542,2.542,0,0,1,.936-1.86,3.213,3.213,0,0,1,2.42-.86c.455.027.68-.125.743-.614a10.06,10.06,0,0,1,.933-2.857,11.952,11.952,0,0,1,1.47-2.092c.411-.439.38-.47-.154-.81-.467-.3-1.02-.5-1.275-1.062a1.19,1.19,0,0,1,.029-1.061,5.985,5.985,0,0,1,2.166-1.46,7.533,7.533,0,0,1,5.307-1,3.458,3.458,0,0,1,1.493.619,2.575,2.575,0,0,1,.88.964.759.759,0,0,0,.644.433,10.092,10.092,0,0,1,7.352,4.867c.279.44.412.334.633-.02a9.434,9.434,0,0,1,.911-1.28c.594-.67.587-.679-.195-1.094a7.366,7.366,0,0,1-.77-.546,1.1,1.1,0,0,1-.039-1.715c2.174-1.54,4.467-2.778,7.288-2.221a3.85,3.85,0,0,1,1.557.644,1.311,1.311,0,0,1,.485.482c.3.717.892.862,1.585,1a10.034,10.034,0,0,1,6.719,4.758c.227.36.362.4.6.017a9.552,9.552,0,0,1,.944-1.33c.588-.664.581-.674-.2-1.09a8.571,8.571,0,0,1-.722-.505,1.115,1.115,0,0,1-.036-1.8c2.211-1.521,4.521-2.783,7.371-2.149a4.632,4.632,0,0,1,1.49.667,1.234,1.234,0,0,1,.438.443c.288.7.857.841,1.532.972a10.124,10.124,0,0,1,6.71,4.679c.137.21.265.427.4.642a9.878,9.878,0,0,1,.956,2.852c.075.536.325.7.834.681a2.941,2.941,0,0,1,2.252.782,2.731,2.731,0,0,1,.972,1.777v3.28c-.9,6.685-2.174,13.309-3.23,19.968a5.345,5.345,0,0,1-3.012,4.3,7.469,7.469,0,0,1-1.455.332" transform="translate(0 -33.457)"/>
        <path id="Trazado_167150" data-name="Trazado 167150" d="M1.182,32.32c-.8-.217-1.016-.474-1-1.276C.22,28.4.06,25.747.284,23.1A24.556,24.556,0,0,1,6.1,9.03,24.931,24.931,0,0,1,21.541.3,24.689,24.689,0,0,1,25.623,0c4.562.008,9.124,0,13.686,0A25.235,25.235,0,0,1,63.951,18.871a22.79,22.79,0,0,1,.7,4.025c.009.114-.045.26.118.321v8.453a1,1,0,0,1-1.068.785c-.83-.187-1.113-.521-1.121-1.409-.016-1.934.013-3.868-.009-5.8a23.107,23.107,0,0,0-20.4-22.886,20.536,20.536,0,0,0-2.639-.169c-4.687.016-9.375-.007-14.063.011A22.465,22.465,0,0,0,11.161,7.173,22.621,22.621,0,0,0,2.529,22.608a78.235,78.235,0,0,0-.159,8,4.257,4.257,0,0,1-.053.942.918.918,0,0,1-1.134.77" transform="translate(-0.096 0.001)"/>
        <path id="Trazado_167151" data-name="Trazado 167151" d="M6.828,26.149a5.882,5.882,0,0,0-.013,2.5,1.274,1.274,0,0,0,0,1.016,21.728,21.728,0,0,1,0,3.906A10.287,10.287,0,0,0,5.8,36.92c-.035.412-.322.324-.551.308a3.624,3.624,0,0,0-2.6.746q0-1.37,0-2.74c.8-.215,1.009-.472,1.011-1.272.006-2.123-.022-4.246.014-6.368A23.245,23.245,0,0,1,22.849,5.3a21.937,21.937,0,0,1,3.631-.358c5.065-.005,10.131-.055,15.195.015a23.225,23.225,0,0,1,21.938,17.9,25.167,25.167,0,0,1,.62,5.621c-.007,1.828,0,3.657,0,5.485,0,.8.212,1.057,1.011,1.271q0,1.37,0,2.74a3.354,3.354,0,0,0-2.465-.734c-.509.053-.665-.126-.72-.638a9.756,9.756,0,0,0-.978-3.029,3.137,3.137,0,0,0,.112-1.456c.03-.642.006-1.285.005-1.929.764-.4.86-1.064.852-1.852a20.8,20.8,0,0,0-6.693-15.53A20.315,20.315,0,0,0,42.942,7.23c-1.051-.1-2.1-.1-3.147-.1q-6.338-.01-12.677,0A21.183,21.183,0,0,0,6.178,24.454a1.611,1.611,0,0,0,.65,1.7" transform="translate(-1.573 -2.914)" fill="#e5e5e5"/>
        <path id="Trazado_167152" data-name="Trazado 167152" d="M58.277,92.13c-.228-.836-.465-1.007-1.4-1.007H10.566c-.252,0-.5-.013-.754-.02a1.7,1.7,0,0,1,.25-1.977c.168-.007.335-.02.5-.02H65.581c.168,0,.335.013.5.02a1.72,1.72,0,0,1,.25,1.977q-2.409.01-4.817.022c-.788,0-1.049.216-1.261,1.007a2.256,2.256,0,0,1-1.979,0" transform="translate(-5.691 -52.765)" fill="#e5e5e5"/>
        <path id="Trazado_167153" data-name="Trazado 167153" d="M22.173,123.76c.231-.007.462-.02.692-.02q25.168,0,50.337-.01c.537,0,.764.032.618.689-.3,1.328-.249,1.338-1.635,1.338H38.815c-.938,0-1.177.173-1.4,1.007a2.256,2.256,0,0,1-1.979,0c-.221-.814-.472-1.005-1.331-1.007l-10.423-.022a4.463,4.463,0,0,1-1.509-1.976" transform="translate(-13.13 -73.271)" fill="#e5e5e5"/>
        <path id="Trazado_167154" data-name="Trazado 167154" d="M56,42.765a14.367,14.367,0,0,1,.9,1.688,2.315,2.315,0,0,1,.391.863,2.254,2.254,0,0,1,.117.784c-.054.246.057.282.223.332a1.022,1.022,0,0,1-.225.973,5.833,5.833,0,0,0-5.244-.378,13.3,13.3,0,0,0-3.169,1.621c-.9.613-.887,1.356.029,1.975.172.115.332.247.5.371a1.921,1.921,0,0,1-2.378.075,3.769,3.769,0,0,1-.761-.75,10.167,10.167,0,0,0-3.013-2.552,1.737,1.737,0,0,1-.977-2.3,7.994,7.994,0,0,1,2.152-3.992c.653-.188,1.335-.032,2-.19a3.305,3.305,0,0,0,2.283-1.414c.3-.49.8-.41,1.25-.314a8.132,8.132,0,0,1,3.865,2.011,2.972,2.972,0,0,1,.4.4,1.764,1.764,0,0,0,1.664.8" transform="translate(-25.038 -23.38)" fill="#f7c360"/>
        <path id="Trazado_167155" data-name="Trazado 167155" d="M102.436,45.621a3.18,3.18,0,0,1,.144.98,1.641,1.641,0,0,1-1.322.153c-2.654-.529-4.879.521-7.006,1.912-.913.6-.894,1.355.023,1.973.172.116.332.248.5.372a1.92,1.92,0,0,1-2.106.24,2.091,2.091,0,0,1-.694-.537A33.411,33.411,0,0,0,89.262,48a3.993,3.993,0,0,1-.52-5.183,3.958,3.958,0,0,1,1.046-1.324c.693-.186,1.418-.03,2.119-.212A3.239,3.239,0,0,0,94.071,39.9c.3-.5.78-.42,1.238-.311a7.987,7.987,0,0,1,5.679,4.454c.331.7.632,1.355,1.449,1.575" transform="translate(-52.126 -23.398)" fill="#f7c360"/>
        <path id="Trazado_167156" data-name="Trazado 167156" d="M28.042,136.166c.007,1.722.008,3.445.026,5.167,0,.305-.1.393-.4.391q-3.656-.024-7.311-.02c-.328,0-.375-.148-.374-.422q.01-3.624,0-7.248c0-.3.095-.4.395-.394,1.386.02,2.772.02,4.159.027a2.348,2.348,0,0,1,.8.48c.843.752,1.833,1.309,2.709,2.019" transform="translate(-11.834 -79.138)" fill="#df4b4b"/>
        <path id="Trazado_167157" data-name="Trazado 167157" d="M119.007,139.7c-.007-1.888-.009-3.777-.026-5.665,0-.3.088-.4.391-.394q3.652.015,7.3,0c.3,0,.394.1.391.394-.018,1.888-.019,3.777-.026,5.665a1.075,1.075,0,0,1-.833.2q-3.183.01-6.367,0a1.075,1.075,0,0,1-.833-.2" transform="translate(-70.458 -79.138)" fill="#e95b5a"/>
        <path id="Trazado_167158" data-name="Trazado 167158" d="M94.258,139.7c-.007-1.888-.009-3.777-.026-5.665,0-.3.088-.4.391-.394q3.652.015,7.3,0c.3,0,.394.1.391.394-.018,1.888-.019,3.777-.026,5.665a1.075,1.075,0,0,1-.833.2q-3.183.01-6.367,0a1.075,1.075,0,0,1-.833-.2" transform="translate(-55.802 -79.138)" fill="#e95b5a"/>
        <path id="Trazado_167159" data-name="Trazado 167159" d="M69.508,139.7c-.007-1.888-.009-3.777-.026-5.665,0-.3.088-.4.391-.394q3.652.015,7.3,0c.3,0,.394.1.391.394-.018,1.888-.019,3.777-.026,5.665a1.075,1.075,0,0,1-.833.2q-3.183.01-6.367,0a1.075,1.075,0,0,1-.833-.2" transform="translate(-41.146 -79.138)" fill="#e95b5a"/>
        <path id="Trazado_167160" data-name="Trazado 167160" d="M127.04,103.657c.007,1.888.009,3.777.026,5.665,0,.3-.088.4-.391.394q-3.652-.015-7.3,0c-.3,0-.394-.1-.391-.394.018-1.888.019-3.777.026-5.665a1.075,1.075,0,0,1,.833-.2q3.183-.01,6.367,0a1.075,1.075,0,0,1,.833.2" transform="translate(-70.458 -61.26)" fill="#e95b5a"/>
        <path id="Trazado_167161" data-name="Trazado 167161" d="M102.291,103.657c.007,1.888.009,3.777.026,5.665,0,.3-.088.4-.391.394q-3.652-.015-7.3,0c-.3,0-.394-.1-.391-.394.018-1.888.019-3.777.026-5.665a1.075,1.075,0,0,1,.833-.2q3.183-.01,6.367,0a1.075,1.075,0,0,1,.833.2" transform="translate(-55.802 -61.26)" fill="#e95b5a"/>
        <path id="Trazado_167162" data-name="Trazado 167162" d="M77.541,103.657c.007,1.888.009,3.777.026,5.665,0,.3-.088.4-.391.394q-3.652-.015-7.3,0c-.3,0-.394-.1-.391-.394.018-1.888.019-3.777.026-5.665a1.075,1.075,0,0,1,.833-.2q3.183-.01,6.367,0a1.075,1.075,0,0,1,.833.2" transform="translate(-41.146 -61.26)" fill="#e95b5a"/>
        <path id="Trazado_167163" data-name="Trazado 167163" d="M52.791,103.657c.007,1.888.009,3.777.026,5.665,0,.3-.088.4-.391.394q-3.652-.015-7.3,0c-.3,0-.394-.1-.391-.394.018-1.888.019-3.777.026-5.665a1.075,1.075,0,0,1,.833-.2q3.183-.01,6.367,0a1.075,1.075,0,0,1,.833.2" transform="translate(-26.489 -61.26)" fill="#e95b5a"/>
        <path id="Trazado_167164" data-name="Trazado 167164" d="M28.042,103.644c.007,1.889.009,3.777.026,5.665,0,.3-.088.4-.391.394q-3.652-.015-7.3,0c-.3,0-.394-.1-.39-.4.019-1.469.019-2.938.026-4.406a3.175,3.175,0,0,1,2.615-1.4c1.646-.139,3.306-.051,4.96-.035a.617.617,0,0,1,.458.175" transform="translate(-11.833 -61.247)" fill="#e95b5a"/>
        <path id="Trazado_167165" data-name="Trazado 167165" d="M48.794,131.173h1.979c.223.834.462,1.04,1.4,1,.525-.024.667.122.655.651-.042,1.763-.027,3.526-.034,5.29a.586.586,0,0,1-.527.127,23.891,23.891,0,0,1-7.042-1.958,1.273,1.273,0,0,1-.463-.314c-.007-1.133-.005-2.267-.027-3.4-.006-.307.1-.395.4-.389.8.016,1.6.009,2.393,0s1.057-.212,1.272-1.01" transform="translate(-26.489 -77.678)" fill="#e95b5a"/>
        <path id="Trazado_167166" data-name="Trazado 167166" d="M30.735,74.495c.3.606.7,1.352.44,1.887-.192.4-1.073.122-1.644.124-4.534.015-9.068,0-13.6.021-.574,0-.656-.169-.535-.673a9.222,9.222,0,0,1,1.92-3.77,1.757,1.757,0,0,1,2.326-.62.987.987,0,0,1-.008.617,1.821,1.821,0,0,0,1.814,2.212c.672.036,1.345.01,2.017.011,2.123,0,4.246,0,6.369,0a1.249,1.249,0,0,1,.9.187" transform="translate(-9.088 -42.194)" fill="#e9ab47"/>
        <path id="Trazado_167167" data-name="Trazado 167167" d="M75.283,74.495c.3.606.7,1.352.441,1.888-.192.4-1.073.122-1.644.124-4.534.014-9.068,0-13.6.021-.574,0-.656-.169-.535-.674a9.218,9.218,0,0,1,1.92-3.77,1.756,1.756,0,0,1,2.325-.619.982.982,0,0,1-.008.617,1.821,1.821,0,0,0,1.814,2.212c.671.036,1.345.01,2.017.011,2.123,0,4.246,0,6.369,0a1.249,1.249,0,0,1,.9.186" transform="translate(-35.469 -42.195)" fill="#e9ab47"/>
        <path id="Trazado_167168" data-name="Trazado 167168" d="M119.833,74.494c.3.606.7,1.352.441,1.888-.192.4-1.073.122-1.644.124-4.534.014-9.068,0-13.6.021-.574,0-.656-.169-.535-.674a9.218,9.218,0,0,1,1.92-3.77,1.756,1.756,0,0,1,2.325-.619.982.982,0,0,1-.008.617,1.821,1.821,0,0,0,1.814,2.212c.671.036,1.345.01,2.017.011,2.123,0,4.246,0,6.368,0a1.249,1.249,0,0,1,.9.186" transform="translate(-61.851 -42.195)" fill="#e9ab47"/>
        <path id="Trazado_167169" data-name="Trazado 167169" d="M36.588,72c-3.017,0-6.035-.062-9.05.025a2.088,2.088,0,0,1-2.046-3.056,9.415,9.415,0,0,0,2-.123A3.1,3.1,0,0,0,29.8,67.3c.157-.308.367-.278.62-.231A7.817,7.817,0,0,1,36.588,72" transform="translate(-14.941 -39.701)" fill="#f7c360"/>
        <path id="Trazado_167170" data-name="Trazado 167170" d="M81.137,72c-3.017,0-6.035-.061-9.049.026a2.088,2.088,0,0,1-2.046-3.055,9.468,9.468,0,0,0,2-.123A3.1,3.1,0,0,0,74.354,67.3c.157-.309.367-.279.62-.231A7.815,7.815,0,0,1,81.137,72" transform="translate(-41.323 -39.701)" fill="#f7c360"/>
        <path id="Trazado_167171" data-name="Trazado 167171" d="M125.687,72c-3.017,0-6.035-.061-9.049.026a2.088,2.088,0,0,1-2.046-3.055,9.468,9.468,0,0,0,2-.123A3.1,3.1,0,0,0,118.9,67.3c.157-.309.367-.279.62-.231A7.815,7.815,0,0,1,125.687,72" transform="translate(-67.704 -39.701)" fill="#f7c360"/>
        <path id="Trazado_167172" data-name="Trazado 167172" d="M84.681,43.952a6.773,6.773,0,0,0-1.563,3.079,3.733,3.733,0,0,0,.844,2.958,8.19,8.19,0,0,0,1.232,1.155,6.725,6.725,0,0,1,1.192,1.2c1.088,1.407,1.6,1.592,3.261,1.068l.894.447A11.092,11.092,0,0,0,88.512,56.6c-.233-.046-.245-.239-.323-.37a9.987,9.987,0,0,0-7.524-5.087c-.259-.037-.476-.08-.586-.376a3.085,3.085,0,0,0-.714-.942q.067-.533.134-1.064a.577.577,0,0,1,.052-.771,1.82,1.82,0,0,0,1.411-1.333,7.278,7.278,0,0,1,2.009-2.774,1.225,1.225,0,0,1,1.71.071" transform="translate(-46.998 -25.8)" fill="#e9ab47"/>
        <path id="Trazado_167173" data-name="Trazado 167173" d="M40.082,43.952a10.041,10.041,0,0,0-2.068,4.237,1.494,1.494,0,0,0,.75,1.743,10.294,10.294,0,0,1,3.336,2.8c.811,1.042,1.436,1.162,2.947.685l.892.447A10.8,10.8,0,0,0,43.874,56.7c-.162-.268-.274-.455-.387-.641a9.954,9.954,0,0,0-7.393-4.912c-.283-.04-.517-.089-.633-.411a2.735,2.735,0,0,0-.728-.928,11.263,11.263,0,0,1,.262-1.785c.824-.2,1.158-.833,1.455-1.548a7.176,7.176,0,0,1,1.927-2.6,1.223,1.223,0,0,1,1.706.075" transform="translate(-20.568 -25.799)" fill="#e9ab47"/>
        <path id="Trazado_167174" data-name="Trazado 167174" d="M9.529,103.09c0,1.175-.013,2.35.008,3.524.007.364-.111.469-.464.454-.649-.029-1.437.207-1.911-.084-.5-.3-.33-1.179-.441-1.805-.334-1.876-.635-3.758-.968-5.634-.078-.44.034-.584.494-.568.943.033,1.888.025,2.831,0,.36-.009.464.1.458.461-.02,1.217-.008,2.433-.008,3.65" transform="translate(-3.393 -58.612)" fill="#df4b4b"/>
        <path id="Trazado_167175" data-name="Trazado 167175" d="M44.753,142.928a15.9,15.9,0,0,1,2.032.784,24.775,24.775,0,0,0,6,1.361c.024.688.284,1.565-.084,2.011-.354.429-1.26.122-1.922.129-1.845.018-3.691-.007-5.537.016-.418,0-.53-.121-.52-.528.031-1.257.023-2.515.03-3.774" transform="translate(-26.484 -84.639)" fill="#df4b4b"/>
        <path id="Trazado_167176" data-name="Trazado 167176" d="M126.925,99.556h-8.033c-.02-.647-.27-1.469.08-1.89.336-.4,1.182-.093,1.8-.127.293-.017.587,0,.881,0,.8-.007,1.057-.213,1.272-1.01h1.979c.217.815.47,1.043,1.332,1,.571-.03.787.131.716.715a12.467,12.467,0,0,0-.03,1.319" transform="translate(-70.343 -57.16)" fill="#df4b4b"/>
        <path id="Trazado_167177" data-name="Trazado 167177" d="M147.023,104.039c-.287,1.779-.58,3.557-.854,5.337-.042.273-.157.36-.408.326-.021,0-.042,0-.063,0-.669-.012-1.541.227-1.951-.1-.431-.348-.123-1.257-.131-1.919-.016-1.343.007-2.687.014-4.03a.616.616,0,0,1,.454-.186,24.855,24.855,0,0,1,2.514.009c.328.022.589.15.425.567" transform="translate(-84.988 -61.253)" fill="#e95b5a"/>
        <path id="Trazado_167178" data-name="Trazado 167178" d="M28.041,101.017c-1.384,0-2.77.054-4.151-.017a5.281,5.281,0,0,0-3.882,1.275c-.007-.964,0-1.928-.026-2.891-.007-.3.1-.394.395-.392q3.648.015,7.3,0c.3,0,.409.089.395.392-.025.544-.019,1.089-.026,1.634" transform="translate(-11.833 -58.621)" fill="#df4b4b"/>
        <path id="Trazado_167179" data-name="Trazado 167179" d="M102.176,100.9H94.143c-.022-.646-.269-1.467.079-1.889.333-.4,1.18-.119,1.8-.125,1.886-.017,3.773.005,5.66-.016.409,0,.555.106.523.522-.039.5-.022,1-.029,1.507" transform="translate(-55.687 -58.503)" fill="#df4b4b"/>
        <path id="Trazado_167180" data-name="Trazado 167180" d="M77.426,100.9H69.393c-.022-.646-.269-1.467.079-1.889.333-.4,1.18-.12,1.8-.125,1.886-.017,3.773.005,5.66-.015.409,0,.555.106.523.522-.039.5-.022,1-.029,1.507" transform="translate(-41.031 -58.503)" fill="#df4b4b"/>
        <path id="Trazado_167181" data-name="Trazado 167181" d="M52.676,100.9H44.643c-.022-.646-.269-1.467.079-1.889.333-.4,1.18-.119,1.8-.125,1.886-.017,3.773.005,5.659-.016.409,0,.555.106.523.522-.039.5-.022,1-.029,1.507" transform="translate(-26.374 -58.503)" fill="#df4b4b"/>
        <path id="Trazado_167182" data-name="Trazado 167182" d="M119.005,148.5h8.033c.007.525,0,1.051.026,1.575.017.331-.1.431-.431.431q-3.626-.007-7.252.02c-.292,0-.416-.076-.4-.387.026-.545.019-1.092.026-1.638" transform="translate(-70.457 -87.937)" fill="#df4b4b"/>
        <path id="Trazado_167183" data-name="Trazado 167183" d="M69.5,148.5h8.033c.022.646.269,1.467-.079,1.889-.333.4-1.18.12-1.8.125-1.887.017-3.773-.005-5.66.015-.409,0-.555-.106-.523-.522.039-.5.022-1,.029-1.507" transform="translate(-41.136 -87.937)" fill="#df4b4b"/>
        <path id="Trazado_167184" data-name="Trazado 167184" d="M94.248,148.5h8.033c.022.646.269,1.467-.079,1.889-.333.4-1.18.12-1.8.125-1.886.017-3.773-.005-5.66.015-.409,0-.555-.106-.523-.522.039-.5.022-1,.029-1.507" transform="translate(-55.793 -87.937)" fill="#df4b4b"/>
        <path id="Trazado_167185" data-name="Trazado 167185" d="M14.847,123.668l1.509,1.976c-1.954.007-3.909.008-5.862.028-.325,0-.435-.1-.462-.422-.044-.519-.376-1.21-.155-1.5.245-.324.982-.091,1.5-.1,1.155-.008,2.311.009,3.466.016" transform="translate(-5.805 -73.178)" fill="#cdcdcd"/>
        <path id="Trazado_167186" data-name="Trazado 167186" d="M147.034,101.3c.016-.342-.182-.4-.475-.4-.973.012-1.945.006-2.918.006-.02-.647-.271-1.469.081-1.891.336-.4,1.183-.1,1.8-.126.482-.021.967.013,1.449-.01.343-.016.513.062.432.448-.135.654-.25,1.312-.373,1.969" transform="translate(-84.999 -58.511)" fill="#df4b4b"/>
        <path id="Trazado_167187" data-name="Trazado 167187" d="M108.743,62.908a6.294,6.294,0,0,1,4.262-.9c.476.107.9.294.921.866.018.612-.424.81-.924.927-1.489.345-2.788-.2-4.258-.89" transform="translate(-64.395 -36.657)" fill="#84b17b"/>
        <path id="Trazado_167188" data-name="Trazado 167188" d="M64.26,62.908a6.133,6.133,0,0,1,4.287-.891c.477.112.882.331.87.909-.011.544-.407.75-.856.859a6.2,6.2,0,0,1-4.3-.877" transform="translate(-38.054 -36.657)" fill="#84b17b"/>
        <path id="Trazado_167189" data-name="Trazado 167189" d="M19.7,62.914a6.129,6.129,0,0,1,4.274-.9c.477.109.891.319.886.9s-.425.772-.9.885c-1.489.353-2.8-.182-4.26-.88" transform="translate(-11.668 -36.659)" fill="#84b17b"/>
        <path id="Trazado_167190" data-name="Trazado 167190" d="M12.936,140.453a3.809,3.809,0,0,1-.673-1.9c-.241-1.508-.482-3.015-.761-4.516-.07-.379.055-.4.364-.412,1.071-.027,1.071-.037,1.071,1.031v5.795" transform="translate(-6.8 -79.127)" fill="#de4a4a"/>
        <path id="Trazado_167191" data-name="Trazado 167191" d="M143.733,140.443c0-2.223.006-4.3-.007-6.38,0-.323.079-.459.42-.431s.669.006,1,.006a24.866,24.866,0,0,1-1.416,6.805" transform="translate(-85.112 -79.132)" fill="#e85a59"/>
        <path id="Trazado_167192" data-name="Trazado 167192" d="M34.654,136.165a13.589,13.589,0,0,1-2.9-1.978c-.211-.162-.4-.347-.6-.522,1.047-.007,2.094-.006,3.14-.027.3-.006.4.091.392.392-.024.711-.019,1.423-.026,2.135" transform="translate(-18.445 -79.138)" fill="#e95b5a"/>
        <path id="Trazado_167193" data-name="Trazado 167193" d="M148.335,91.1a4.022,4.022,0,0,0-.25-1.977c.395-.007.79-.03,1.184-.018a1.368,1.368,0,0,1,1.076,1.91c-.08.144-.211.1-.327.1-.561,0-1.122-.012-1.683-.019" transform="translate(-87.693 -52.765)" fill="#f8f3f3"/>
        <path id="Trazado_167194" data-name="Trazado 167194" d="M7.4,89.126a3.845,3.845,0,0,0-.25,1.977c-.541.007-1.082-.006-1.621.028-.345.022-.4-.115-.408-.427-.025-1.288.261-1.6,1.532-1.6.25,0,.5.013.748.02" transform="translate(-3.033 -52.767)" fill="#cdcdcd"/>
        <path id="Trazado_167195" data-name="Trazado 167195" d="M120.476,57.044a5.468,5.468,0,0,1,1.322-.153,1.348,1.348,0,0,1,.07.808l-1.392-.655" transform="translate(-71.344 -33.688)" fill="#e6aa48"/>
        <path id="Trazado_167196" data-name="Trazado 167196" d="M11.577,29.1c-.812-.312-1-.646-.854-1.49A21.334,21.334,0,0,1,29.131,10.06,21.057,21.057,0,0,1,31.772,9.9c4.624.007,9.247,0,13.871,0A21.186,21.186,0,0,1,66.234,25.631a22.384,22.384,0,0,1,.731,6.359,1.07,1.07,0,0,1-1.014,1.146c-.836-.227-1.019-.463-1-1.4a18.91,18.91,0,0,0-4.889-13.388,18.6,18.6,0,0,0-14.072-6.408c-4.834-.07-9.671-.049-14.506-.008a19.268,19.268,0,0,0-18.759,16c-.144.843-.339,1.042-1.143,1.171" transform="translate(-6.322 -5.862)"/>
        <path id="Trazado_167197" data-name="Trazado 167197" d="M83.945,32.814a1.56,1.56,0,0,0-2.11.529,9.093,9.093,0,0,0-1.641,2.648,1.162,1.162,0,0,1-1.318.893c-.264.062-.389-.1-.49-.3a1.631,1.631,0,0,1-.263-.847,11.671,11.671,0,0,1,1.058-2.2,11.805,11.805,0,0,1,1.52-1.874c-.538-.338-1.058-.639-1.549-.982a.985.985,0,0,1-.025-1.724,11.974,11.974,0,0,1,4.789-2.11,6.581,6.581,0,0,1,2.8.222c0-.452-.015-.865,0-1.276a1,1,0,1,1,2.009.012c.02.861.022,1.722,0,2.582-.01.361.086.486.468.55a9.935,9.935,0,0,1,7.96,6.354c.327.783.18,1.141-.582,1.6a1.2,1.2,0,0,1-1.32-.9,7.985,7.985,0,0,0-5.965-5,.841.841,0,0,0-1.072.418,3.5,3.5,0,0,1-2.949,1.411c-.437.04-.881,0-1.322,0" transform="translate(-46.263 -14.662)"/>
        <path id="Trazado_167198" data-name="Trazado 167198" d="M39.423,32.815a1.562,1.562,0,0,0-2.114.533,8.877,8.877,0,0,0-1.617,2.6,1.191,1.191,0,0,1-1.357.937c-.773-.5-.871-.811-.527-1.677a10.119,10.119,0,0,1,2.38-3.544c-.548-.345-1.07-.646-1.561-.99a.985.985,0,0,1-.02-1.725A11.9,11.9,0,0,1,39.4,26.842a6.084,6.084,0,0,1,2.8.239c0-.451-.01-.844,0-1.236a1.01,1.01,0,1,1,2.013.023c.013.861.016,1.723,0,2.583-.007.32.1.424.415.468a9.811,9.811,0,0,1,6.253,3.422c.569.656.561,1.021,0,1.707a1.148,1.148,0,0,1-1.543-.4A7.788,7.788,0,0,0,44.5,30.935c-.21-.033-.445-.145-.6.154C43.224,32.4,42,32.7,40.681,32.818c-.416.036-.838,0-1.258,0" transform="translate(-19.909 -14.663)"/>
        <path id="Trazado_167199" data-name="Trazado 167199" d="M86.532,35.683a6.139,6.139,0,0,1,4.289-.891c.477.112.882.332.869.91-.012.544-.408.75-.857.858a6.2,6.2,0,0,1-4.3-.878" transform="translate(-51.243 -20.535)" fill="#84b17b"/>
        <path id="Trazado_167200" data-name="Trazado 167200" d="M41.97,35.666a6.34,6.34,0,0,1,4.2-.9c.5.109.955.284.965.892s-.44.8-.94.912a6.182,6.182,0,0,1-4.221-.908" transform="translate(-24.854 -20.533)" fill="#84b17b"/>
      </g>
    </g>
  </g>
</svg>
