<svg xmlns="http://www.w3.org/2000/svg" xmlns:xlink="http://www.w3.org/1999/xlink" width="105" height="105" viewBox="0 0 105 105">
  <defs>
    <clipPath id="clip-path">
      <rect id="Rectángulo_43348" data-name="Rectángulo 43348" width="68.877" height="74.242" fill="none"/>
    </clipPath>
  </defs>
  <g id="Grupo_170756" data-name="Grupo 170756" transform="translate(-1063.326 -839)">
    <path id="Trazado_165117" data-name="Trazado 165117" d="M52.5,0A52.5,52.5,0,1,1,0,52.5,52.5,52.5,0,0,1,52.5,0Z" transform="translate(1063.326 839)" fill="#a6bbff"/>
    <g id="Grupo_170991" data-name="Grupo 170991" transform="translate(1081.326 854)">
      <g id="Grupo_170991-2" data-name="Grupo 170991" clip-path="url(#clip-path)">
        <path id="Trazado_167201" data-name="Trazado 167201" d="M53.12,74.03a4.11,4.11,0,0,0,2.1-6.169c-.611-.967-1.3-1.879-1.933-2.832-.672-1.014-.617-1.155.553-1.345,1.1-.179,2.2-.4,3.3-.613a5.8,5.8,0,0,0,4.949-5.543c.031-.384.074-.6.2-.68v-.022l.02.01c.132-.071.345-.02.71.113.328.12.631.293.951.428A3.583,3.583,0,0,0,67.6,51.295c-.592-.458-1.094-.842-.968-1.732.076-.534-.56-1.038-1.127-1.1a.758.758,0,0,0-.3.006,5.6,5.6,0,0,1-4.58-.925c-1.694-.984-3.487-1.8-5.257-2.65a2.767,2.767,0,0,1-1.638-2.3c-.473-3.27-1.038-6.527-1.559-9.79a3.766,3.766,0,0,0-2.946-3.2q-2.443-.673-4.911-1.255a18.092,18.092,0,0,1-4.068-1.629,1.943,1.943,0,0,1-1.074-1.437,1.361,1.361,0,0,1,.5-1.459A7.6,7.6,0,0,0,42.346,19.7a1.4,1.4,0,0,1,1.076-1.089,3.587,3.587,0,0,0,1.688-6.031,1.681,1.681,0,0,1-.476-1.283,17.231,17.231,0,0,0-.153-3.419,3.089,3.089,0,0,0-1.843-2.6.916.916,0,0,1-.564-.737C41.522,1.843,39.527.931,37.13.516a14.661,14.661,0,0,0-5.471.271,8.754,8.754,0,0,0-6.9,8.365c0,.373-.018.746,0,1.118a3.879,3.879,0,0,1-.836,2.805,3.489,3.489,0,0,0,1.917,5.494A1.631,1.631,0,0,1,27.1,19.849a6.778,6.778,0,0,0,2.527,3.857,1.807,1.807,0,0,1-.256,2.9A18.443,18.443,0,0,1,25.324,28.3c-1.6.38-3.18.8-4.775,1.186a4.038,4.038,0,0,0-3.333,3.548c-.507,3.165-1.037,6.327-1.536,9.493a3.01,3.01,0,0,1-1.8,2.443c-2.053,1-4.134,1.957-6.107,3.116a4.37,4.37,0,0,1-3.085.462c-1.458-.242-1.9.161-1.928,1.623-.01.538-.423.693-.747.936a3.591,3.591,0,0,0,3.409,6.273c.391-.159.782-.32,1.17-.487a.543.543,0,0,1,.485-.038l.049-.023c0,.025,0,.045.006.067a.685.685,0,0,1,.171.411,7.675,7.675,0,0,0,.688,2.653,5.666,5.666,0,0,0,3.871,3.007c1.335.3,2.686.5,4.023.784.8.168.873.343.42,1.046-.687,1.065-1.48,2.06-2.127,3.15a4.144,4.144,0,0,0,.693,5.244,5.423,5.423,0,0,0,1.406.827c.2.1.525.065.525.421h1.491A5.842,5.842,0,0,0,21.6,71.992c2.042-2.713,1.308-2.353,4.769-2.974,2.684-.482,5.362-1,8.041-1.511a1.876,1.876,0,0,1,.731.024c3.265.614,6.531,1.228,9.8,1.822a2.6,2.6,0,0,1,1.724,1.056c.292.4.619.779.9,1.19a6.464,6.464,0,0,0,3.39,2.839h1.64c0-.359.32-.331.529-.408m0-11.572c-.393.205-1,.454-1.345.146-1.864-1.682-4.305-1.793-6.524-2.483-2.48-.771-5-1.412-7.709-2.167l8.273-2.3c1.431-.4,2.866-.779,4.29-1.2.445-.132.627-.066.774.417.691,2.273,1.438,4.529,2.144,6.8.079.255.392.633.1.787M45.512,43.426c.522,4.333,2.47,7.506,7.026,8.649l-.2.225-7.824,2.172c.122-3.726-.382-7.433.994-11.046M56.547,61.885c-.58.1-1.283.411-1.713.195-.452-.227-.425-1.048-.609-1.608-.649-1.975-1.268-3.959-1.921-5.933-.155-.467-.085-.739.435-.806a.462.462,0,0,0,.145-.031,3.531,3.531,0,0,1,3.5.322c1.063.58,2.187,1.051,3.282,1.574,1.038.5,1.133.651,1.127,1.807-.01,2.3-1.639,4.026-4.242,4.479M52.559,43.226a3.27,3.27,0,0,0,2.177,2.761q3.072,1.495,6.082,3.115a5.287,5.287,0,0,0,3.841.74c.34-.079.865-.228.594.4a1.756,1.756,0,0,0,1.114,1.772,2.288,2.288,0,0,1,1.249,2.409,2.345,2.345,0,0,1-1.851,1.91,2.287,2.287,0,0,1-1.514-.23q-6.756-3.174-13.51-6.351c-2.126-1-2.969-2.873-3.373-5.035-.06-.32.143-.359.371-.429,1.445-.439,2.89-.879,4.327-1.342.318-.1.465-.051.491.283M44.871,15.093A2.358,2.358,0,0,1,43.388,17.3c-.363.137-.609.159-.577-.369.037-.595.009-1.193.009-1.79,0-.621.018-1.243-.006-1.864-.018-.448.146-.5.53-.361a2.359,2.359,0,0,1,1.528,2.176M26.007,17.3a2.35,2.35,0,0,1,.075-4.4c.333-.112.51-.086.5.331-.02.641-.005,1.284-.005,1.926,0,.593-.028,1.187.008,1.778.033.53-.22.5-.575.365M27.5,8.724a4.244,4.244,0,0,0-.867,2.106c-.021.225-.031.483-.335.488-.377.006-.235-.308-.248-.5-.022-.346-.006-.695-.006-1.042a7.621,7.621,0,0,1,7.481-8,14.442,14.442,0,0,1,4.283.179A3.466,3.466,0,0,1,40.843,5.3,1.1,1.1,0,0,0,41.9,6.445a1.343,1.343,0,0,1,1.14,1.03,10.469,10.469,0,0,1,.312,3.537c0,.146,0,.316-.219.313-.3,0-.351-.221-.37-.458a4.286,4.286,0,0,0-.931-2.235,2.128,2.128,0,0,0-3.134-.47,6.658,6.658,0,0,1-7.976.017,2.115,2.115,0,0,0-3.222.544m.617,9.415c-.109-2.256-.041-4.521-.04-6.783a2.793,2.793,0,0,1,.473-1.545c.488-.751.729-.792,1.489-.289a8.135,8.135,0,0,0,7.943.775,5.817,5.817,0,0,0,1.477-.855c.541-.434.938-.286,1.3.237a3.327,3.327,0,0,1,.57,1.969c0,1.044,0,2.088,0,3.377a21.222,21.222,0,0,1-.2,4.21,6.64,6.64,0,0,1-6.911,5.05,6.55,6.55,0,0,1-6.1-6.147m1.741,9.669a3.129,3.129,0,0,0,1.749-2.628,8.013,8.013,0,0,0,5.894.093c.251-.094.351-.041.394.227a2.956,2.956,0,0,0,1.677,2.3c.307.153.209.309.063.514a6.034,6.034,0,0,1-9.885-.006c-.168-.24-.165-.371.108-.5M17.238,40.852c.457-2.691.873-5.389,1.355-8.075a2.5,2.5,0,0,1,2.079-1.991c1.731-.437,3.465-.865,5.195-1.3a7.726,7.726,0,0,0,1.9-.647c.353-.2.494-.069.7.216a7.5,7.5,0,0,0,12.488-.014c.133-.183.183-.447.556-.283a44.048,44.048,0,0,0,6.936,1.938A3.031,3.031,0,0,1,51,33.543c.289,2.312.713,4.609,1.126,6.9.116.645.02.968-.678,1.149-1.318.342-2.616.77-3.907,1.208-.509.173-.688.044-.776-.463-.1-.584-.291-1.153-.431-1.732a.831.831,0,0,0-1.636-.053,25.487,25.487,0,0,0-1.666,8.877c.048,1.614-.008,3.23.019,4.845a.649.649,0,0,1-.562.769q-3.629.968-7.242,1.99a1.8,1.8,0,0,1-1.018,0c-2.386-.671-4.773-1.343-7.17-1.973a.762.762,0,0,1-.676-.917c.042-1.116.013-2.236.013-3.354a24.663,24.663,0,0,0-1.549-9.938c-.168-.486-.326-.994-.958-.958-.574.032-.766.476-.849.978a.761.761,0,0,1-.045.142c-.232.622-.117,1.6-.63,1.816-.475.2-1.246-.282-1.883-.477-.949-.289-1.889-.606-2.843-.875-.366-.1-.462-.265-.4-.633m7.678,13.605-8.025-2.212c1.907-.956,3.812-1.623,5.05-3.31s1.38-3.719,2.044-5.719c1.3,3.752.824,7.484.931,11.241m-19.682,1.6a2.3,2.3,0,0,1-3.389-1.4A2.176,2.176,0,0,1,2.876,52.1c.841-.458,1.4-1,1.251-2.04-.071-.5.335-.162.553-.276,1.5.5,2.814-.109,4.135-.813,2.011-1.072,4.043-2.1,6.085-3.114a3.054,3.054,0,0,0,1.915-2.538c.044-.464.234-.487.627-.358,1.364.449,2.733.885,4.112,1.282.437.126.508.289.426.728a6.715,6.715,0,0,1-4.231,5.234c-4.212,1.861-8.345,3.9-12.517,5.851m9.594,5.593c-.125.406-.274.535-.723.437a21.517,21.517,0,0,1-2.534-.546,4.5,4.5,0,0,1-2.944-4.09c.026-.846.169-1.542,1.142-1.905a30.382,30.382,0,0,0,3.63-1.7,3.267,3.267,0,0,1,2.887-.254c.966.365.993.3.687,1.264-.718,2.265-1.444,4.527-2.145,6.8m9.464,6.218a4.048,4.048,0,0,0-2.716,1.652c-.538.743-1.1,1.471-1.664,2.194a2.793,2.793,0,1,1-4.54-3.252c.811-1.217,1.651-2.415,2.461-3.632a.678.678,0,0,1,.776-.39q5.764,1.1,11.531,2.18c.016,0,.025.036.1.146-2.008.374-3.974.757-5.946,1.1M51.9,72.954a2.83,2.83,0,0,1-2.3-1.143c-.591-.767-1.18-1.535-1.754-2.315a4.069,4.069,0,0,0-2.659-1.621Q32.9,65.594,20.616,63.291c-1.316-.246-2.632-.492-3.952-.719-.376-.064-.564-.133-.41-.6.792-2.4,1.577-4.8,2.3-7.223.214-.713.618-.329.911-.249q7.814,2.14,15.617,4.319c4.559,1.266,9.116,2.542,13.678,3.8a4.375,4.375,0,0,1,2.555,1.8c.949,1.4,1.914,2.78,2.843,4.189a2.642,2.642,0,0,1,.117,2.891A2.732,2.732,0,0,1,51.9,72.954" transform="translate(-0.253 -0.196)"/>
        <path id="Trazado_167202" data-name="Trazado 167202" d="M24.15,140.78a5.424,5.424,0,0,1-1.406-.827,4.144,4.144,0,0,1-.693-5.244c.647-1.091,1.44-2.086,2.127-3.15.453-.7.385-.878-.42-1.046-1.337-.279-2.689-.488-4.023-.784a5.664,5.664,0,0,1-3.871-3.007,7.675,7.675,0,0,1-.688-2.653.684.684,0,0,0-.171-.411c.011.118.02.2.022.283a5.939,5.939,0,0,0,5.2,6.094c1.374.25,2.744.525,4.191.8-.874,1.289-1.717,2.483-2.509,3.709a4.258,4.258,0,0,0,1.821,6.275c.309.14.63.253.945.377,0-.356-.323-.324-.525-.421" transform="translate(-8.124 -66.959)"/>
        <path id="Trazado_167203" data-name="Trazado 167203" d="M116.953,134.478c-.439-.691-.917-1.357-1.376-2.035-.367-.543-.733-1.087-1.128-1.673,1.586-.292,3.057-.526,4.511-.838a5.88,5.88,0,0,0,4.67-4.3,6.785,6.785,0,0,0,.213-2.074c-.124.084-.168.3-.2.68a5.8,5.8,0,0,1-4.949,5.543c-1.1.211-2.193.434-3.3.613-1.169.19-1.225.331-.553,1.345.631.953,1.322,1.865,1.934,2.832a4.11,4.11,0,0,1-2.1,6.169c-.209.077-.527.049-.529.408.053-.043.1-.109.16-.124a4.234,4.234,0,0,0,2.646-6.543" transform="translate(-61.809 -66.903)"/>
        <path id="Trazado_167204" data-name="Trazado 167204" d="M6.34,56.693c-.388.167-.779.328-1.17.487a3.591,3.591,0,0,1-3.409-6.273c.324-.244.737-.4.747-.936.027-1.462.47-1.865,1.928-1.623a4.37,4.37,0,0,0,3.085-.462c1.973-1.159,4.053-2.115,6.107-3.117a3.008,3.008,0,0,0,1.8-2.442c.5-3.166,1.029-6.328,1.536-9.493A4.038,4.038,0,0,1,20.3,29.285c1.595-.383,3.18-.806,4.775-1.186a18.443,18.443,0,0,0,4.045-1.691,1.807,1.807,0,0,0,.256-2.9,6.78,6.78,0,0,1-2.527-3.857,1.631,1.631,0,0,0-1.259-1.281,3.488,3.488,0,0,1-1.916-5.494,3.883,3.883,0,0,0,.836-2.805c-.021-.371-.007-.746,0-1.118a8.754,8.754,0,0,1,6.9-8.364A14.671,14.671,0,0,1,36.877.319c2.4.416,4.393,1.327,4.944,4.018a.916.916,0,0,0,.564.737,3.088,3.088,0,0,1,1.843,2.6,17.228,17.228,0,0,1,.153,3.418,1.68,1.68,0,0,0,.476,1.283,3.588,3.588,0,0,1-1.688,6.031A1.4,1.4,0,0,0,42.093,19.5a7.6,7.6,0,0,1-2.671,4.116,1.361,1.361,0,0,0-.5,1.459A1.943,1.943,0,0,0,40,26.513a18.092,18.092,0,0,0,4.068,1.629q2.466.578,4.911,1.255a3.765,3.765,0,0,1,2.946,3.2c.522,3.263,1.087,6.519,1.559,9.79a2.767,2.767,0,0,0,1.638,2.3c1.77.847,3.563,1.666,5.257,2.65a5.6,5.6,0,0,0,4.58.925.758.758,0,0,1,.3-.006c.567.067,1.2.57,1.127,1.1-.126.89.376,1.274.968,1.732a3.583,3.583,0,0,1-3.634,6.084c-.321-.135-.624-.309-.951-.428-.365-.133-.579-.184-.71-.113.536.252.992.48,1.459.682a3.8,3.8,0,0,0,5.342-3.092,3.683,3.683,0,0,0-1.846-3.647c-.214-.137-.569-.119-.468-.6.283-1.362-.435-2.056-1.826-1.887a4.271,4.271,0,0,1-2.7-.121c-2.412-1.268-4.846-2.492-7.274-3.73a1.656,1.656,0,0,1-.953-1.32c-.525-3.384-1.1-6.761-1.616-10.146a4.135,4.135,0,0,0-3.2-3.592c-1.15-.3-2.3-.623-3.459-.877a20.066,20.066,0,0,1-5.428-1.965,1.562,1.562,0,0,1-.35-2.73,7.641,7.641,0,0,0,2.543-4.107,1.026,1.026,0,0,1,.933-.9,3.772,3.772,0,0,0,1.944-6.186,1.977,1.977,0,0,1-.569-1.5,12.354,12.354,0,0,0-.283-3.774,2.769,2.769,0,0,0-1.99-2.273c-.27-.061-.255-.249-.286-.447A4.7,4.7,0,0,0,38.594.522,13.382,13.382,0,0,0,32.923.116a9.184,9.184,0,0,0-8.254,6.472,16,16,0,0,0-.371,4.658,1.01,1.01,0,0,1-.28.864,3.621,3.621,0,0,0-1.088,3.864,3.637,3.637,0,0,0,3.045,2.711.6.6,0,0,1,.555.551,7.921,7.921,0,0,0,2.919,4.623c.166.131.35.232.387.505a1.783,1.783,0,0,1-1,1.975,18.409,18.409,0,0,1-4.775,1.816c-1.428.31-2.849.663-4.255,1.065a3.927,3.927,0,0,0-3,3.338c-.573,3.427-1.154,6.853-1.7,10.283a1.83,1.83,0,0,1-1.1,1.465c-1.906.952-3.821,1.89-5.68,2.928a5.813,5.813,0,0,1-4.455.84,1.381,1.381,0,0,0-1.59,1.756c.111.423-.013.537-.333.724A3.751,3.751,0,0,0,.418,55.566a3.792,3.792,0,0,0,4.948,1.762c.481-.2.951-.436,1.459-.673a.543.543,0,0,0-.485.038" transform="translate(0 0)"/>
        <path id="Trazado_167205" data-name="Trazado 167205" d="M37.422,74.954c.954.269,1.894.586,2.843.876.637.194,1.408.678,1.883.476.513-.218.4-1.194.63-1.816a.75.75,0,0,0,.045-.142c.083-.5.276-.945.849-.978.632-.035.79.472.958.958a24.663,24.663,0,0,1,1.549,9.938c0,1.118.029,2.238-.013,3.354a.762.762,0,0,0,.676.917c2.4.631,4.784,1.3,7.17,1.973a1.793,1.793,0,0,0,1.018,0q3.616-1.014,7.242-1.99a.649.649,0,0,0,.562-.769c-.027-1.615.028-3.232-.019-4.845a25.476,25.476,0,0,1,1.665-8.877.831.831,0,0,1,1.636.054c.139.578.329,1.147.431,1.732.088.507.267.636.776.463,1.291-.438,2.589-.866,3.907-1.208.7-.181.794-.5.678-1.149-.413-2.295-.837-4.592-1.126-6.9a3.031,3.031,0,0,0-2.555-2.851,44.061,44.061,0,0,1-6.936-1.938c-.373-.164-.423.1-.556.283a7.5,7.5,0,0,1-12.488.014c-.206-.284-.348-.412-.7-.216a7.726,7.726,0,0,1-1.9.647c-1.73.438-3.464.865-5.195,1.3a2.5,2.5,0,0,0-2.08,1.991c-.482,2.686-.9,5.384-1.355,8.075-.063.368.033.53.4.633m9.073-6.922a5.15,5.15,0,0,1,7.249-.136c.613.588.887.541,1.487-.006a4.943,4.943,0,0,1,5.668-.944A4.776,4.776,0,0,1,63.917,71.1a5.271,5.271,0,0,1-1.393,4.09q-3.425,3.48-6.9,6.913a1.476,1.476,0,0,1-2.3-.01c-2.292-2.277-4.593-4.545-6.845-6.861a5.138,5.138,0,0,1,.011-7.2" transform="translate(-20.038 -33.665)" fill="#528fda"/>
        <path id="Trazado_167206" data-name="Trazado 167206" d="M72.858,135.23a2.642,2.642,0,0,0-.117-2.891c-.929-1.409-1.894-2.794-2.843-4.189a4.372,4.372,0,0,0-2.555-1.8c-4.562-1.256-9.119-2.532-13.678-3.8q-7.806-2.168-15.616-4.319c-.293-.08-.7-.464-.911.248-.726,2.421-1.511,4.823-2.3,7.223-.154.466.034.534.41.6,1.32.227,2.636.473,3.952.718q12.284,2.293,24.57,4.584a4.067,4.067,0,0,1,2.659,1.621c.575.779,1.164,1.548,1.755,2.315a2.83,2.83,0,0,0,2.3,1.143,2.734,2.734,0,0,0,2.379-1.454" transform="translate(-18.833 -63.926)" fill="#f8cfb3"/>
        <path id="Trazado_167207" data-name="Trazado 167207" d="M73.707,29.658a21.254,21.254,0,0,0,.2-4.21c0-1.29,0-2.334,0-3.377a3.327,3.327,0,0,0-.57-1.969c-.364-.522-.76-.67-1.3-.237a5.8,5.8,0,0,1-1.477.855,8.133,8.133,0,0,1-7.943-.775c-.76-.5-1-.462-1.489.289a2.794,2.794,0,0,0-.474,1.545c0,2.261-.068,4.527.04,6.783a6.55,6.55,0,0,0,6.1,6.146,6.64,6.64,0,0,0,6.911-5.05" transform="translate(-32.833 -10.619)" fill="#f8cfb3"/>
        <path id="Trazado_167208" data-name="Trazado 167208" d="M23.5,95.2c.081-.439.01-.6-.427-.728-1.38-.4-2.749-.833-4.112-1.282-.393-.13-.583-.107-.627.358a3.054,3.054,0,0,1-1.915,2.538C14.376,97.1,12.344,98.13,10.334,99.2c-1.321.7-2.633,1.315-4.134.813-.218.114-.623-.229-.553.276.145,1.041-.41,1.582-1.251,2.04a2.177,2.177,0,0,0-1.032,2.556,2.3,2.3,0,0,0,3.389,1.4c4.172-1.951,8.305-3.99,12.517-5.851A6.716,6.716,0,0,0,23.5,95.2" transform="translate(-1.771 -50.425)" fill="#f8cfb3"/>
        <path id="Trazado_167209" data-name="Trazado 167209" d="M103.121,94.513c-.228.069-.431.109-.371.429.4,2.163,1.248,4.033,3.373,5.035q6.752,3.183,13.51,6.351a2.284,2.284,0,0,0,1.514.23,2.344,2.344,0,0,0,1.85-1.91,2.287,2.287,0,0,0-1.249-2.409,1.755,1.755,0,0,1-1.114-1.772c.271-.626-.254-.477-.594-.4a5.287,5.287,0,0,1-3.841-.74q-3.007-1.621-6.082-3.115a3.27,3.27,0,0,1-2.177-2.761c-.026-.334-.173-.386-.491-.283-1.437.464-2.882.9-4.327,1.342" transform="translate(-55.631 -50.425)" fill="#f8cfb3"/>
        <path id="Trazado_167210" data-name="Trazado 167210" d="M60.914,9.763a6.658,6.658,0,0,0,7.976-.017,2.128,2.128,0,0,1,3.134.47,4.283,4.283,0,0,1,.932,2.235c.018.237.067.454.37.458.217,0,.22-.167.219-.313a10.457,10.457,0,0,0-.311-3.537,1.343,1.343,0,0,0-1.14-1.03,1.1,1.1,0,0,1-1.057-1.147A3.466,3.466,0,0,0,68,3.539a14.429,14.429,0,0,0-4.283-.179,7.62,7.62,0,0,0-7.481,8c0,.348-.016.7.006,1.043.012.188-.13.5.247.5.3,0,.315-.263.336-.488a4.243,4.243,0,0,1,.867-2.106,2.116,2.116,0,0,1,3.222-.544" transform="translate(-30.445 -1.779)" fill="#5b5d60"/>
        <path id="Trazado_167211" data-name="Trazado 167211" d="M94.656,118.685c-.147-.483-.329-.548-.774-.417-1.424.42-2.859.8-4.29,1.2l-8.273,2.3c2.709.755,5.229,1.4,7.709,2.167,2.219.69,4.66.8,6.524,2.483.342.309.952.06,1.345-.145.3-.155-.018-.533-.1-.788-.707-2.268-1.454-4.524-2.144-6.8" transform="translate(-44.033 -64.008)" fill="#f8cfb3"/>
        <path id="Trazado_167212" data-name="Trazado 167212" d="M47.088,142.275q-5.766-1.089-11.531-2.18a.678.678,0,0,0-.776.39c-.811,1.217-1.65,2.415-2.461,3.632a2.793,2.793,0,1,0,4.54,3.252c.566-.723,1.126-1.451,1.664-2.194a4.05,4.05,0,0,1,2.716-1.652c1.972-.345,3.938-.727,5.946-1.1-.072-.111-.082-.144-.1-.147" transform="translate(-17.201 -75.849)" fill="#f8cfb3"/>
        <path id="Trazado_167213" data-name="Trazado 167213" d="M120.792,118.2c-1.095-.523-2.218-.993-3.282-1.574a3.535,3.535,0,0,0-3.5-.322.444.444,0,0,1-.145.031c-.521.066-.59.338-.435.806.653,1.973,1.272,3.958,1.921,5.932.184.56.157,1.38.609,1.608.431.216,1.134-.094,1.713-.194,2.6-.453,4.232-2.177,4.242-4.479,0-1.156-.09-1.312-1.127-1.807" transform="translate(-61.383 -62.794)" fill="#5b5d60"/>
        <path id="Trazado_167214" data-name="Trazado 167214" d="M25.923,116.183a3.267,3.267,0,0,0-2.887.254,30.388,30.388,0,0,1-3.63,1.7c-.973.364-1.116,1.059-1.142,1.905a4.5,4.5,0,0,0,2.945,4.09,21.529,21.529,0,0,0,2.533.546c.449.1.6-.032.723-.437.7-2.27,1.428-4.532,2.145-6.8.306-.967.28-.9-.686-1.264" transform="translate(-9.89 -62.789)" fill="#5b5d60"/>
        <path id="Trazado_167215" data-name="Trazado 167215" d="M74.082,57.626c.146-.206.244-.361-.063-.514a2.957,2.957,0,0,1-1.677-2.3c-.043-.269-.143-.322-.394-.227a8.013,8.013,0,0,1-5.894-.093,3.127,3.127,0,0,1-1.749,2.628c-.273.134-.276.264-.108.5a6.034,6.034,0,0,0,9.885.006" transform="translate(-34.7 -29.504)" fill="#f8cfb3"/>
        <path id="Trazado_167216" data-name="Trazado 167216" d="M54.981,29.9c0-.642-.015-1.285.005-1.926.013-.417-.164-.443-.5-.331a2.351,2.351,0,0,0-.075,4.4c.355.133.607.165.575-.365-.036-.591-.008-1.185-.008-1.778" transform="translate(-28.66 -14.938)" fill="#f5ccb1"/>
        <path id="Trazado_167217" data-name="Trazado 167217" d="M92.818,28.023c.025.621.006,1.243.006,1.864,0,.6.028,1.195-.008,1.79-.032.528.214.506.576.369a2.348,2.348,0,0,0-.044-4.384c-.385-.141-.548-.086-.53.361" transform="translate(-50.257 -14.941)" fill="#f5ccb1"/>
        <path id="Trazado_167218" data-name="Trazado 167218" d="M62.791,87.137a1.476,1.476,0,0,0,2.3.01q3.467-3.439,6.9-6.913a5.27,5.27,0,0,0,1.393-4.089,4.776,4.776,0,0,0-3.018-4.155,4.943,4.943,0,0,0-5.668.944c-.6.547-.873.594-1.487.007a5.161,5.161,0,0,0-7.26,7.335c2.253,2.316,4.554,4.584,6.845,6.861M58.082,73.372a3.593,3.593,0,0,1,4.09.613c1.8,1.526,1.785,1.542,3.518.01a3.719,3.719,0,0,1,5.178.131,3.667,3.667,0,0,1-.043,5.168c-2.156,2.2-4.354,4.354-6.523,6.54-.263.265-.418.313-.707.02-2.2-2.226-4.422-4.427-6.622-6.651a3.426,3.426,0,0,1-.986-2.5,3.509,3.509,0,0,1,2.094-3.331" transform="translate(-29.499 -38.71)"/>
        <path id="Trazado_167219" data-name="Trazado 167219" d="M65.379,87.625c.289.293.445.245.707-.02,2.168-2.185,4.366-4.342,6.523-6.539a3.667,3.667,0,0,0,.043-5.168,3.719,3.719,0,0,0-5.178-.131c-1.733,1.532-1.719,1.515-3.519-.01a3.592,3.592,0,0,0-4.09-.613,3.508,3.508,0,0,0-2.094,3.331,3.427,3.427,0,0,0,.986,2.5c2.2,2.225,4.423,4.426,6.622,6.651m-1.616-7.146c1.15-.077,1.157-.08,1.229-1.259.03-.486.227-.85.732-.863.555-.014.751.361.768.887.037,1.143.048,1.149,1.261,1.234.475.034.818.2.875.726a.7.7,0,0,1-.459.7,1.552,1.552,0,0,1-.439.066c-1.182.074-1.2.073-1.237,1.265-.017.5-.212.857-.71.874-.542.019-.763-.357-.79-.879-.063-1.182-.071-1.187-1.237-1.255-.471-.028-.852-.169-.868-.709-.017-.58.371-.751.876-.785" transform="translate(-31.282 -40.481)" fill="#fb657d"/>
        <path id="Trazado_167220" data-name="Trazado 167220" d="M69.8,86.222c1.166.069,1.173.074,1.237,1.255.028.523.248.9.79.879.5-.017.693-.378.71-.874.042-1.192.055-1.19,1.237-1.265a1.521,1.521,0,0,0,.44-.066.7.7,0,0,0,.459-.7c-.057-.526-.4-.691-.875-.725-1.213-.086-1.224-.092-1.261-1.235-.017-.525-.213-.9-.767-.886-.506.013-.7.377-.732.862-.072,1.179-.079,1.183-1.229,1.259-.5.034-.894.2-.876.785.016.54.4.681.868.709" transform="translate(-37.323 -44.73)" fill="#010000"/>
      </g>
    </g>
  </g>
</svg>
