<svg xmlns="http://www.w3.org/2000/svg" xmlns:xlink="http://www.w3.org/1999/xlink" width="88" height="88" viewBox="0 0 88 88">
  <defs>
    <clipPath id="clip-path">
      <rect id="Rectángulo_43554" data-name="Rectángulo 43554" width="48.471" height="60.617" fill="none"/>
    </clipPath>
  </defs>
  <g id="Grupo_171325" data-name="Grupo 171325" transform="translate(-232 -907)">
    <circle id="Elipse_4712" data-name="Elipse 4712" cx="44" cy="44" r="44" transform="translate(232 907)" fill="#6b8dfc"/>
    <g id="Grupo_171324" data-name="Grupo 171324" transform="translate(252 921)">
      <g id="Grupo_171324-2" data-name="Grupo 171324" clip-path="url(#clip-path)">
        <path id="Trazado_169055" data-name="Trazado 169055" d="M60.409,0c.945.739,1.015,1.177.355,2.228-.825,1.314-1.649,2.628-2.533,4.037.755,0,1.429,0,2.1,0,.692,0,1.1.328,1.113.867.011.557-.421.9-1.142.906-.887,0-1.775-.011-2.661.005-.595.011-1.158-.029-1.49-.616-.347-.613-.059-1.125.27-1.641.753-1.176,1.491-2.362,2.23-3.547.079-.126.214-.231.2-.466-.623,0-1.245-.013-1.866,0-.5.014-.968-.035-1.178-.57s.1-.882.456-1.209Z" transform="translate(-31.544)"/>
        <path id="Trazado_169056" data-name="Trazado 169056" d="M.841,27.271A1.015,1.015,0,0,1,0,26.1,24.509,24.509,0,0,1,11.991,6.161a2.217,2.217,0,0,1,2.558-.023,2.254,2.254,0,0,1,1.058,2.226A5.113,5.113,0,0,1,15.213,9.6a19.036,19.036,0,0,0,3.393,19.55.6.6,0,0,0,.831.224c1.256-.511,2.533-.97,3.8-1.443a4.678,4.678,0,0,1,6.491,3.383c.085.326.234.369.525.372a22.95,22.95,0,0,1,4.188.179,9.472,9.472,0,0,1,4.9,2.552.6.6,0,0,0,.761.145,19.5,19.5,0,0,0,4.535-2.5,2.341,2.341,0,0,1,3.69,2.619,24.333,24.333,0,0,1-4.106,7.854A17.505,17.505,0,0,1,42.8,44.192a1.544,1.544,0,0,0-.479,1.252c.033,1.1.015,2.209.008,3.314,0,.736-.192.965-.913,1.154a.846.846,0,0,1-.98-.829,12.44,12.44,0,0,1-.02-1.359c0-1.99.01-3.981,0-5.971a8.067,8.067,0,0,0-1.895-5.407,7.547,7.547,0,0,0-4.758-2.617,22.507,22.507,0,0,0-3.131-.119c-.5-.018-.648.211-.645.676.011,1.8.006,3.591,0,5.387a6.337,6.337,0,0,1-.017.709,1.061,1.061,0,0,1-.877.979,1.1,1.1,0,0,1-1.116-.707,2.52,2.52,0,0,1-.123-.992c0-2.446.008-4.893,0-7.339a2.708,2.708,0,0,0-2.378-2.8,2.373,2.373,0,0,0-1.223.115c-.969.339-1.925.71-2.886,1.071-.594.224-.621.332-.13.718a6.791,6.791,0,0,1,2.136,2.785,6.426,6.426,0,0,1,.465,2.484q-.008,11.72,0,23.44c0,.138,0,.276,0,.414.006,1.19.172,1.353,1.383,1.354s2.407,0,3.61,0a5.124,5.124,0,0,0,4.685-3.53,7.152,7.152,0,0,0,.274-1.923c.02-3.229-.022-6.459.022-9.688.219-.628.58-.923,1.08-.886a1.152,1.152,0,0,1,1,1.079,6.567,6.567,0,0,1,.028.882c.02,2.06-.041,4.12.035,6.177.081.254.3.218.489.218a3.8,3.8,0,0,0,3.21-1.433,2.259,2.259,0,0,1,.51-.567c.317-.2.649-.387,1-.056.632.554.687.888.2,1.568a5.472,5.472,0,0,1-4.933,2.384c-.6-.022-.725.146-.728.731a7,7,0,0,1-6.989,7q-2.071.015-4.142,0a2.581,2.581,0,0,1-2.677-2.69c-.01-2.84-.018-5.681.01-8.521.006-.542-.1-.751-.689-.842A24.515,24.515,0,0,1,3.868,40.584a23.79,23.79,0,0,1-3.637-9.7c-.112-.743.043-1,.712-1.285.446-.2.734.032.993.353a1.334,1.334,0,0,1,.2.527A22.5,22.5,0,0,0,7.591,42.333,22.952,22.952,0,0,0,19.313,49.5c.629.165,1.272.27,1.914.381.368.064.506-.067.5-.432-.009-.887,0-1.774-.007-2.662,0-3.273-.036-6.547.013-9.82a4.671,4.671,0,0,0-1.848-3.9,20.917,20.917,0,0,1-7.149-10.894A20.927,20.927,0,0,1,13.33,9.1c.075-.2.166-.4.233-.608.075-.232.129-.474-.1-.652-.207-.166-.417-.053-.6.057a15.881,15.881,0,0,0-1.432.943,22.606,22.606,0,0,0-9.37,16.006c-.06.487-.111.978-.152,1.469a1.081,1.081,0,0,1-.53.935c-.177.06-.352.177-.538.023" transform="translate(0 -3.25)"/>
        <path id="Trazado_169057" data-name="Trazado 169057" d="M85.265,88.458a1.1,1.1,0,0,0-1.284.576,3.877,3.877,0,0,1-4.121,1.521.325.325,0,0,1,.145-.1c1.444-.227,1.878-1.357,2.213-2.535a5.952,5.952,0,0,0,.18-1.642c-.007-2.722.017-5.443-.009-8.164a8.731,8.731,0,0,0-3.923-7.661c-.22-.147-.495-.27-.521-.6a7.82,7.82,0,0,1,6.627,6.775c.228,2.452.046,4.915.092,7.373.007.354.016.709,0,1.062a.957.957,0,0,0,.864,1.126,5.247,5.247,0,0,1-.261,2.265" transform="translate(-44.107 -39.529)" fill="#bdd8fc"/>
        <path id="Trazado_169058" data-name="Trazado 169058" d="M69.838,37.4c.78,0,1.446-.005,2.112,0,.692.007,1.079.336,1.075.9s-.371.87-1.091.873c-1.005.005-2.012.01-3.017,0a1.2,1.2,0,0,1-1.063-1.956c.87-1.4,1.754-2.8,2.7-4.3-.82,0-1.555.015-2.289,0a.875.875,0,0,1-.92-.984.864.864,0,0,1,.9-.777c1.124-.017,2.25-.04,3.372.006a1.179,1.179,0,0,1,.941,1.89c-.869,1.425-1.766,2.832-2.719,4.356" transform="translate(-38.101 -17.612)"/>
        <path id="Trazado_169059" data-name="Trazado 169059" d="M94.086,20.028c.772,0,1.437-.008,2.1,0,.7.01,1.082.339,1.076.9s-.383.865-1.1.87c-1.005.007-2.01.016-3.015,0a1.2,1.2,0,0,1-1.068-1.954c.775-1.255,1.569-2.5,2.349-3.75a.806.806,0,0,0,.227-.54c-.561,0-1.121,0-1.681,0a3.971,3.971,0,0,1-.648-.033.812.812,0,0,1-.746-.9.766.766,0,0,1,.771-.814c1.221-.027,2.445-.058,3.662.016a1.145,1.145,0,0,1,.781,1.841c-.766,1.26-1.564,2.5-2.347,3.751-.1.164-.2.332-.365.615" transform="translate(-51.824 -7.796)"/>
        <path id="Trazado_169060" data-name="Trazado 169060" d="M1.938,55.207l.435-.1a7.025,7.025,0,0,1,.59,2.841,1.134,1.134,0,0,0-.923-.421q-.051-1.162-.1-2.325" transform="translate(-1.097 -31.186)" fill="#e7a42e"/>
        <path id="Trazado_169061" data-name="Trazado 169061" d="M3.53,32.346A20.379,20.379,0,0,1,2.94,29.5a1.219,1.219,0,0,0,.515-1.059,22.7,22.7,0,0,1,10.9-18.3c.293-.188.592-.457.953-.136.346.307.159.648.03.977a20.963,20.963,0,0,0,6.314,24.277,4.818,4.818,0,0,1,1.907,4c-.036,3.293-.024,6.586-.032,9.879a1.552,1.552,0,0,1-1.034-.019A24.109,24.109,0,0,1,4.011,34.049c-.155-.4-.212-.832-.342-1.241q-.07-.231-.138-.462" transform="translate(-1.664 -5.578)" fill="#edbf6b"/>
        <path id="Trazado_169062" data-name="Trazado 169062" d="M60.461,64.294a10.706,10.706,0,0,1,3.355,3.327,9.441,9.441,0,0,1,1.249,4.666c.045,2.9.016,5.8.011,8.7a5.14,5.14,0,0,1-1.341,3.608,1.6,1.6,0,0,1-1.358.4l-.035-6.562c0-.2,0-.395,0-.592-.011-.636-.278-1.032-.778-1.081a.881.881,0,0,0-1.008.781c-.083,1.552-.019,3.1-.034,4.656-.011,1.1-.014,2.2,0,3.3.006.349-.084.528-.45.621-1.118.281-1.356.587-1.471,1.746a6.4,6.4,0,0,1-2.061,4.312,2.089,2.089,0,0,1-1.052.6c-1.439.007-2.877.024-4.317.018a.813.813,0,0,1-.883-.887c-.009-.177,0-.355,0-.532,0-7.848-.025-15.7.015-23.544A6.638,6.638,0,0,0,47.6,62.162a1.39,1.39,0,0,1-.547-.564c1.3-.485,2.56-1.019,3.864-1.432a2.885,2.885,0,0,1,3.763,2.765c.033,2.563.009,5.127.011,7.69a2.915,2.915,0,0,0,.018.531.876.876,0,0,0,.89.789.854.854,0,0,0,.857-.871c.022-.689.009-1.38.009-2.07q0-2.189,0-4.377c0-.243-.037-.474.343-.457a25.672,25.672,0,0,1,3.658.129" transform="translate(-26.623 -33.967)" fill="#dceafc"/>
        <path id="Trazado_169063" data-name="Trazado 169063" d="M4.619,62.721c.416,1,.786,2.013,1.257,2.981a24.255,24.255,0,0,0,3.832,5.637A23.875,23.875,0,0,0,24.48,79.05c.008.985,0,1.971.031,2.956.01.356-.131.37-.421.329A23.2,23.2,0,0,1,4.751,63.772c-.064-.346-.089-.7-.132-1.051" transform="translate(-2.614 -35.492)" fill="#e8a42d"/>
        <path id="Trazado_169064" data-name="Trazado 169064" d="M99.475,69.3a.478.478,0,0,1,.422.645,22.907,22.907,0,0,1-4.346,8.067,10.277,10.277,0,0,0-1.519-5.836l1.9-.848c.615.388.764,1.1,1.164,1.687a24.637,24.637,0,0,0,1.9-3.068c.121-.242.2-.523.481-.646" transform="translate(-53.21 -39.213)" fill="#e8a42d"/>
        <path id="Trazado_169065" data-name="Trazado 169065" d="M66.5,115.606a6.192,6.192,0,0,0,2.95-5.071,1.659,1.659,0,0,1,1.54-1.749c.464-.046.482-.247.481-.6q-.012-3.6,0-7.2c0-.209-.072-.436.092-.623,0,3.41.055,6.821-.012,10.23a5.151,5.151,0,0,1-5.05,5.013" transform="translate(-37.629 -56.792)" fill="#bdd8fc"/>
        <path id="Trazado_169066" data-name="Trazado 169066" d="M101.946,69.259a23.208,23.208,0,0,1-2.427,4,14.986,14.986,0,0,0-1.12-1.973,26.192,26.192,0,0,0,3.01-1.89.532.532,0,0,1,.537-.137" transform="translate(-55.681 -39.175)" fill="#edbf6a"/>
      </g>
    </g>
  </g>
</svg>
