<svg xmlns="http://www.w3.org/2000/svg" xmlns:xlink="http://www.w3.org/1999/xlink" width="1030" height="207.346" viewBox="0 0 1030 207.346">
  <defs>
    <clipPath id="clip-path">
      <path id="Trazado_166294" data-name="Trazado 166294" d="M1030,0H0V207.346H1030Z" transform="translate(810 1134.604)" fill="#6b8dfc"/>
    </clipPath>
    <clipPath id="clip-path-2">
      <path id="Trazado_166491" data-name="Trazado 166491" d="M1030,0H0V207.346H1030Z" transform="translate(285.326 693)" fill="#8284d2"/>
    </clipPath>
    <clipPath id="clip-path-3">
      <rect id="Rectángulo_43328" data-name="Rectángulo 43328" width="932.207" height="550.336" fill="none"/>
    </clipPath>
  </defs>
  <g id="Grupo_171385" data-name="Grupo 171385" transform="translate(-285.326 -693)">
    <g id="Enmascarar_grupo_197" data-name="Enmascarar grupo 197" transform="translate(-524.674 -441.604)" clip-path="url(#clip-path)">
      <g id="Grupo_170832" data-name="Grupo 170832" transform="translate(760.771 1134.604)">
        <path id="Trazado_166118" data-name="Trazado 166118" d="M1030,0H0V207.346H1030Z" transform="translate(49.23)" fill="#8284d2"/>
      </g>
    </g>
    <g id="Grupo_171384" data-name="Grupo 171384">
      <g id="Enmascarar_grupo_199" data-name="Enmascarar grupo 199" clip-path="url(#clip-path-2)">
        <g id="Grupo_170972" data-name="Grupo 170972" transform="translate(-27.658 708.292) rotate(-30)">
          <g id="Grupo_82657" data-name="Grupo 82657" transform="translate(159.09 210.952)" style="mix-blend-mode: overlay;isolation: isolate">
            <path id="Trazado_115694" data-name="Trazado 115694" d="M944.438,623.831C886.563,683.052,826.754,740.1,765.8,796.135c26.355-59.581,54.764-118.213,79.786-178.419,28.361-68.254,61.335-161.289,25.574-232.883-81.491-163.187-287.49-3.063-363.3,79.077-8.073,8.757-15.784,17.9-23.592,26.931,27.088-66.332,51.473-134.49,45.034-206.155C520.452,186.151,430.12,162.51,352.352,208.3c-83.51,49.154-150.586,134.214-206.588,211.465-47.569,65.611,61.275,128.075,108.471,63.4a853.274,853.274,0,0,1,84.795-99.186q-6.757,12.379-13.658,24.709C294.945,463.046,264.89,517.618,240.1,574.833c-47.473,109.54-117.685,261.2-57.959,376.418,30.1,58.067,100.687,63.965,153.83,40.337C407.4,959.827,456.883,889.711,504.584,830.37c49.791-61.959,93.648-127.751,139.739-192.4,19.256-27.016,38.5-54.416,60.554-79.257.5-.577,1.033-1.105,1.537-1.67l-.552,1.742c-12.241,38.055-27.977,74.572-43.917,111.186-29.646,68.122-67.894,139.823-78.753,213.939-9.6,65.539,16.938,138.994,95.762,134.238,74.1-4.468,133.493-75.846,183.032-123.511,59.99-57.731,118.91-116.6,177.842-175.415C1101.367,657.814,1005.233,561.643,944.438,623.831Z" transform="translate(-121.841 -173.798)" fill="#3c384f"/>
            <path id="Trazado_115695" data-name="Trazado 115695" d="M683.042,1041.418c-29.082,0-53.767-10.21-71.725-29.766-24.962-27.184-35.748-71.461-28.866-118.441,8.973-61.251,35.689-119.919,61.515-176.641,6.186-13.586,12.313-27.04,18.1-40.349,5.49-12.625,11.268-25.887,17-39.6q-5.262,7.333-10.415,14.583l-3.411,4.793c-11.976,16.793-23.8,33.659-35.6,50.524-33.166,47.328-67.461,96.279-104.555,142.43-5.417,6.739-10.859,13.622-16.361,20.577-42.536,53.791-90.741,114.753-156.737,144.087-58.836,26.127-135.9,18.811-169.361-45.779C122.476,851.8,187.414,702.5,234.839,593.491l5.382-12.4c13.946-32.2,29.586-63.641,46.175-94.933q-5.766,7.514-11.316,15.135C245.9,541.273,194.8,540.673,162.237,516.984c-26.931-19.592-42.043-56.013-15.063-93.227C206.959,341.293,273.807,258.192,357.4,208.989c46.392-27.3,97.168-31.736,135.859-11.856,34.067,17.5,55.077,52.133,59.148,97.528,4.781,53.238-6.715,104.195-23.376,152.808C590.716,387.2,704.8,301.736,796.318,314.685c42.043,5.97,74.584,31.484,96.723,75.822,36.421,72.914,7.688,163.691-25.226,242.864-15.664,37.695-32.89,75.293-49.551,111.667l-5.9,12.865c49.575-46.488,93.924-89.792,134.622-131.427v.012c20.121-20.6,45.683-28.169,71.906-21.358,28.794,7.5,53.407,31.917,61.239,60.794,7.183,26.487-.156,52.362-20.685,72.843l-6.7,6.679c-55.8,55.689-113.492,113.276-171.3,168.881-7.123,6.859-14.439,14.2-21.983,21.766-44.878,44.986-100.723,100.987-168.653,105.084C688.2,1041.346,685.6,1041.418,683.042,1041.418Zm34.463-484.829a11.34,11.34,0,0,1,5.814,1.55c4.829,2.859,7.4,8.3,5.67,13.634l-.564,1.754c-12.829,39.9-29.562,78.356-44.326,112.279-5.85,13.442-12.036,27.016-18.271,40.71-25.13,55.208-51.124,112.291-59.6,170.178C600.47,936,609.2,973.824,629.011,995.4c14.691,16,34.968,23.244,60.35,21.8,58.812-3.555,108.9-53.767,153.1-98.08,7.664-7.676,15.1-15.136,22.331-22.1,57.647-55.461,115.27-112.964,171-168.581l6.691-6.679c18.163-18.115,17.886-36.938,14.475-49.539-5.562-20.5-23.7-38.523-44.1-43.833-12.433-3.243-30.944-3.267-48.674,14.883v.012C911.6,697.061,853.016,753.567,785.063,816.019a12.013,12.013,0,0,1-19.112-13.706c9.958-22.523,20.217-44.9,30.475-67.281,16.565-36.181,33.707-73.587,49.2-110.885,30.836-74.164,58.02-158.647,25.923-222.9-18.655-37.382-44.374-57.911-78.621-62.764-85.324-12.084-205.314,79.834-265.1,144.628-6.379,6.895-12.517,14.054-18.667,21.214l-4.649,5.418A12.012,12.012,0,0,1,484.3,497.356c25.79-63.185,50.452-130.718,44.181-200.558-3.363-37.418-19.34-64.494-46.2-78.3-31.328-16.1-73.455-11.9-112.7,11.183-79.786,46.98-144.7,127.811-202.96,208.173-18.4,25.394-7.039,47.5,9.742,59.7,22.727,16.517,58.236,18.463,79.305-10.427a869.913,869.913,0,0,1,85.984-100.591,12.017,12.017,0,0,1,19.064,14.234q-6.793,12.432-13.73,24.817c-30.8,55.04-60.47,109.084-84.723,165.049l-5.394,12.421c-45.5,104.591-107.8,247.838-52.926,353.7,26.655,51.424,89.744,56.445,138.286,34.883,60.578-26.919,104.843-82.9,147.643-137.036,5.538-6.991,11.027-13.934,16.493-20.721,36.589-45.538,70.644-94.152,103.594-141.168q17.766-25.37,35.713-50.68l3.411-4.781c18.079-25.382,36.77-51.617,57.947-75.485l1.069-1.165A13.114,13.114,0,0,1,717.505,556.589Zm238.084,78.284h0Z" transform="translate(-132.979 -184.841)" fill="#3c384f"/>
            <path id="Trazado_115696" data-name="Trazado 115696" d="M188.278,228.875c-44.253,88.939-69.227,193.206-30.343,288.8,5.742,14.138,28.986,7.952,23.16-6.39C144.6,421.528,167.4,324.649,209.023,240.995,215.894,227.2,195.173,215.012,188.278,228.875Z" transform="translate(-70.406 232.798)" fill="#3c384f"/>
            <path id="Trazado_115697" data-name="Trazado 115697" d="M179.658,304.017c-.2-.024-.4-.084-.589-.12-.336-.649-.637-1.357-.745-1.549l-.06-.072c-.024-.1.012-.024-.024-.168-1.55-5.37-2.655-10.8-3.832-16.265q-4.072-19.01-8.156-38.019c-1.321-6.15-8.853-10.307-14.775-8.385a12.293,12.293,0,0,0-8.4,14.775q4.613,21.5,9.237,43c2.559,11.928,6.655,27.58,20.949,29.971,6.174,1.033,13.238-1.622,14.775-8.4C189.364,312.99,186.288,305.122,179.658,304.017Z" transform="translate(-25.304 411.199)" fill="#3c384f"/>
            <path id="Trazado_115698" data-name="Trazado 115698" d="M222.17,203.122c-13.634-7.279-25.778,13.454-12.121,20.745,18.859,10.066,24.613,30.559,25.358,50.692.865,22.859-1.706,46.355-5.417,68.867a457.061,457.061,0,0,1-41.695,129.036c-6.859,13.8,13.85,25.983,20.745,12.121a480.746,480.746,0,0,0,46.632-151.968C261.33,289.322,268.1,227.639,222.17,203.122Z" transform="translate(461.049 -0.327)" fill="#3c384f"/>
          </g>
          <g id="Grupo_82660" data-name="Grupo 82660" transform="translate(130.608 182.47)">
            <g id="Grupo_82659" data-name="Grupo 82659">
              <g id="Grupo_82658" data-name="Grupo 82658">
                <path id="Trazado_115699" data-name="Trazado 115699" d="M942.077,621.463C884.2,680.684,824.393,737.73,763.43,793.755c26.355-59.569,54.776-118.213,79.8-178.407C871.589,547.1,904.551,454.06,868.8,382.466c-81.492-163.187-287.491-3.075-363.3,79.077-8.084,8.745-15.784,17.886-23.592,26.932,27.076-66.332,51.461-134.49,45.034-206.155-8.853-98.537-99.186-122.177-176.953-76.4C266.469,255.088,199.4,340.147,143.391,417.4c-47.569,65.611,61.287,128.075,108.483,63.4a854.232,854.232,0,0,1,84.783-99.2q-6.757,12.379-13.646,24.721c-30.427,54.355-60.482,108.927-85.275,166.13-47.485,109.552-117.685,261.2-57.959,376.43,30.1,58.068,100.675,63.966,153.83,40.337C405.043,957.459,454.522,887.344,502.223,828c49.791-61.959,93.636-127.751,139.727-192.4,19.268-27.016,38.512-54.416,60.554-79.269.5-.565,1.045-1.093,1.55-1.67l-.553,1.754c-12.241,38.055-27.989,74.572-43.917,111.186-29.658,68.11-67.894,139.811-78.753,213.939-9.61,65.539,16.938,138.994,95.762,134.237,74.092-4.469,133.481-75.846,183.02-123.51,60-57.731,118.922-116.615,177.854-175.428C1098.994,655.446,1002.859,559.276,942.077,621.463Z" transform="translate(-119.479 -171.43)" fill="#9295f5"/>
                <path id="Trazado_115700" data-name="Trazado 115700" d="M680.659,1039.036c-29.082,0-53.755-10.2-71.714-29.754C583.984,982.1,573.2,937.82,580.08,890.828c8.961-61.239,35.677-119.907,61.515-176.641,6.174-13.586,12.3-27.028,18.1-40.337,5.489-12.625,11.267-25.887,17-39.6-3.508,4.877-6.979,9.754-10.415,14.583l-3.411,4.781c-11.976,16.793-23.8,33.671-35.617,50.524C594.1,751.473,559.8,800.423,522.709,846.562q-8.126,10.126-16.361,20.589c-42.536,53.779-90.741,114.742-156.737,144.087-58.848,26.127-135.9,18.8-169.361-45.791-60.146-116.015,4.793-265.316,52.206-374.339l5.393-12.385c13.946-32.205,29.586-63.641,46.163-94.933q-5.748,7.513-11.316,15.123c-29.166,39.989-80.266,39.388-112.831,15.7-26.932-19.592-42.043-56.013-15.064-93.228,59.785-82.464,126.634-165.565,210.215-214.78,46.4-27.292,97.168-31.724,135.871-11.844,34.067,17.5,55.064,52.122,59.148,97.516,4.781,53.239-6.715,104.207-23.388,152.809,61.7-60.254,175.764-145.721,267.286-132.772,42.043,5.97,74.6,31.484,96.735,75.821,36.409,72.915,7.676,163.68-25.226,242.865-15.664,37.682-32.889,75.293-49.551,111.654L810,755.521c49.574-46.476,93.924-89.78,134.622-131.415h0c20.12-20.6,45.683-28.157,71.906-21.346,28.794,7.5,53.407,31.917,61.227,60.794,7.2,26.487-.144,52.35-20.673,72.831l-6.7,6.691c-55.8,55.689-113.492,113.264-171.3,168.881-7.123,6.859-14.439,14.2-21.995,21.766-44.866,44.986-100.711,100.988-168.641,105.084C685.813,1038.963,683.23,1039.036,680.659,1039.036Zm34.463-484.829a11.322,11.322,0,0,1,5.814,1.561c4.841,2.859,7.412,8.288,5.682,13.634l-.565,1.754c-12.829,39.893-29.562,78.356-44.325,112.279-5.85,13.43-12.037,27-18.271,40.71-25.142,55.209-51.136,112.291-59.617,170.166-5.754,39.3,2.979,77.131,22.8,98.717,14.679,15.988,34.968,23.244,60.35,21.8,58.813-3.556,108.9-53.767,153.085-98.08,7.664-7.688,15.111-15.148,22.343-22.1,57.647-55.461,115.27-112.964,171-168.581l6.691-6.691c18.15-18.1,17.886-36.926,14.463-49.539-5.562-20.493-23.688-38.523-44.1-43.821-12.421-3.243-30.932-3.267-48.662,14.883h0c-52.578,53.779-111.162,110.285-179.115,172.749a12.013,12.013,0,0,1-19.112-13.706c9.958-22.523,20.217-44.9,30.463-67.293,16.577-36.169,33.707-73.576,49.214-110.874,30.824-74.164,58.019-158.646,25.923-222.912-18.667-37.37-44.385-57.9-78.62-62.764-85.323-12.072-205.326,79.846-265.112,144.628-6.367,6.907-12.5,14.066-18.655,21.214l-4.661,5.429a12.016,12.016,0,0,1-20.217-12.4c25.8-63.173,50.464-130.718,44.193-200.546-3.363-37.43-19.34-64.506-46.2-78.308-31.34-16.084-73.455-11.892-112.7,11.2-79.8,46.968-144.7,127.811-202.96,208.173-18.415,25.394-7.039,47.484,9.742,59.689,22.727,16.529,58.236,18.475,79.305-10.415a867.75,867.75,0,0,1,85.984-100.591A12.008,12.008,0,0,1,358.333,398.4q-6.793,12.451-13.718,24.829c-30.812,55.04-60.47,109.084-84.735,165.049l-5.393,12.421C209,705.285,146.7,848.532,201.573,954.385c26.655,51.437,89.744,56.458,138.285,34.9C400.436,962.361,444.7,906.372,487.5,852.244q8.307-10.5,16.481-20.733c36.6-45.527,70.656-94.141,103.606-141.157,11.844-16.913,23.7-33.839,35.713-50.692l3.411-4.769c18.079-25.382,36.77-51.629,57.935-75.485l1.081-1.165A13.1,13.1,0,0,1,715.122,554.207Zm238.084,78.3h0Z" transform="translate(-130.608 -182.47)"/>
              </g>
              <path id="Trazado_115701" data-name="Trazado 115701" d="M185.913,226.506c-44.266,88.939-69.227,193.194-30.355,288.8,5.754,14.126,29,7.952,23.172-6.391-36.505-89.768-13.706-186.635,27.929-270.289C213.517,224.824,192.808,212.644,185.913,226.506Z" transform="translate(-68.041 235.168)"/>
              <path id="Trazado_115702" data-name="Trazado 115702" d="M177.287,301.646c-.2-.024-.4-.084-.588-.12-.336-.661-.649-1.357-.757-1.55l-.048-.072c-.024-.1.012-.036-.024-.18-1.55-5.357-2.667-10.8-3.832-16.253q-4.09-19.009-8.156-38.019c-1.321-6.15-8.853-10.307-14.787-8.385a12.29,12.29,0,0,0-8.385,14.775l9.226,42.992c2.571,11.94,6.667,27.592,20.961,29.983,6.174,1.021,13.238-1.622,14.775-8.4C186.993,310.619,183.906,302.751,177.287,301.646Z" transform="translate(-22.933 413.571)"/>
              <path id="Trazado_115703" data-name="Trazado 115703" d="M219.8,200.751c-13.634-7.28-25.79,13.454-12.12,20.745,18.859,10.066,24.6,30.559,25.358,50.68.865,22.859-1.706,46.368-5.418,68.878a457.054,457.054,0,0,1-41.695,129.036c-6.871,13.8,13.85,25.983,20.745,12.121A481.241,481.241,0,0,0,253.3,330.244C258.962,286.939,265.737,225.256,219.8,200.751Z" transform="translate(463.417 2.045)"/>
            </g>
          </g>
        </g>
        <g id="Grupo_170948" data-name="Grupo 170948" transform="translate(333.896 654)">
          <g id="Grupo_170947" data-name="Grupo 170947" clip-path="url(#clip-path-3)">
            <path id="Trazado_166492" data-name="Trazado 166492" d="M362.527,86.407c-.818-2.232-9.222-6.173-9.222-6.173s2.081-12.05,0-12.05c-2.046,0-4.729,11.589-4.826,12.011.01-.1-.187-.275-2.836,1.08-3.2,1.637.334,13.506.334,13.506s-12.722,29.453-26.456,60.134c-21.123-4.368-40.866-8.688-51.1-11.543a49.283,49.283,0,0,0-12.1-2c-10.96-.213-17.352,12.4-10.4,20.886,2.725,3.332,7.189,6.545,14.436,8.806a387.787,387.787,0,0,0,46.424,11.949c6.578,1.217,13.538,2.281,20.768,3.07a13.948,13.948,0,0,0,14.494-8.954c2.019-5.285,3.946-10.8,5.7-16.513,5.852-19.038,9.785-40.178,9.038-61.877,1.785-2.853,6.415-10.523,5.752-12.33" transform="translate(46.693 13.1)" fill="#fa9778"/>
            <path id="Trazado_166493" data-name="Trazado 166493" d="M316.721,119.821s16.957,3.6,22.926,6.759l-21.977-8.915Z" transform="translate(60.853 22.608)" fill="#450d20"/>
            <path id="Trazado_166494" data-name="Trazado 166494" d="M247.587,131.189c-3.387-2.657-8.444-4.819-16.009-5.442a387.539,387.539,0,0,0-47.913-1.526c-6.685.248-13.71.728-20.937,1.537a13.947,13.947,0,0,0-12.19,11.9c-.818,5.6-1.493,11.4-1.957,17.359-1.556,19.856-.778,41.347,4.689,62.357-1.119,3.175-3.963,11.67-2.922,13.289,1.285,2,10.349,4.012,10.349,4.012s.6,12.213,2.63,11.759c2-.447,2.085-12.34,2.087-12.774.013.1.243.225,2.531-1.674,2.763-2.3-3.274-13.108-3.274-13.108s5.986-31.52,12.689-64.457c21.568-.349,41.778-.445,52.39.108a49.284,49.284,0,0,0,12.247-.69c10.743-2.184,14.226-15.89,5.591-22.653" transform="translate(28.411 23.826)" fill="#fa9778"/>
            <path id="Trazado_166495" data-name="Trazado 166495" d="M147.9,167.995s16.765,2.618,22.7,2.748l-22.634.088Z" transform="translate(28.417 32.278)" fill="#450d20"/>
            <path id="Trazado_166496" data-name="Trazado 166496" d="M280.008,143.175c-6.832-4.106-11.534-5.613-14.872-9.657-.368-1.334-1.23-4.605-1.876-8.3a38.845,38.845,0,0,1-.69-9.758v-.012a8.438,8.438,0,0,1,.963-3.511L231.639,94.007c.024.107.036.2.06.31.5,2.96,4.35,26.195.406,38.52a23.243,23.243,0,0,1-9.008,2.015,16.372,16.372,0,0,0-10.673,4.242c-4.013,3.772-7.46,10.846-5.2,24.06,4.525,26.427,8.624,50.407,6.888,66.51h65.354s.688-26.058,2.678-45.327c1.816-17.572,8.27-34.907-2.139-41.161" transform="translate(39.677 18.062)" fill="#fa9778"/>
            <path id="Trazado_166497" data-name="Trazado 166497" d="M258.375,123.3c-17.341,2.19-26.122-18.517-26.443-19.291a20.443,20.443,0,0,0,12.376,8.878,33.952,33.952,0,0,0,13.268.678c.036-.012.072-.012.107-.024a38.856,38.856,0,0,0,.691,9.759" transform="translate(44.562 19.984)" fill="#450d20"/>
            <path id="Trazado_166498" data-name="Trazado 166498" d="M378.908,133.056c-.017.53-.067,1.094-.132,1.692-1.46,12.322-13.136,40.5-23.8,44.414a7.387,7.387,0,0,1-1.144.331c-.216.05-.43.083-.663.116-.182.033-.382.05-.581.083q-.921.1-1.941.149c-13.781.515-43.534-7.745-51.047-9.9-.846-.249-1.41-.415-1.643-.482a.493.493,0,0,1-.116-.032L293.3,219.844l-68.544-2.7s-4.677-55.526-7.464-61.993l-38.145,2.4s.4,11.907-1.044,18.293v.016a15.756,15.756,0,0,1-.448,1.609,7.224,7.224,0,0,1-.447,1.078c-2.488,4.71-33.451-2.139-33.451-2.139s0-1.029.032-2.787c.017-.5.033-1.061.033-1.658.3-10.7,1.708-37.564,8.591-44.895.067-.067.134-.132.2-.2a5.177,5.177,0,0,1,.846-.68,5.56,5.56,0,0,1,.53-.316,12.546,12.546,0,0,1,1.161-.581c14.4-6.1,70.485-3.5,85.66,1.211a9.715,9.715,0,0,1,3.351,1.559s.066.033.182.082a.054.054,0,0,0,.015.033c2.157,1.028,22.091,10.349,35.675,2.538l.614.132,1.906.4,54.979,11.642s.83-13.468,3.134-20.151a15.355,15.355,0,0,1,.614-1.526,3.715,3.715,0,0,1,1.775-2.09c4.146-1.376,30.682,5.838,35.11,10.25.6.6.829,1.891.746,3.681" transform="translate(27.62 22.855)" fill="#69ceff"/>
            <path id="Trazado_166499" data-name="Trazado 166499" d="M254.769,145.7l15.843,1.866s3.374,19.707-9.463,18.5c-10.735-1.011-6.38-20.363-6.38-20.363" transform="translate(48.782 27.995)" fill="#7dd5ff"/>
            <rect id="Rectángulo_43311" data-name="Rectángulo 43311" width="1.658" height="12.676" transform="translate(305.32 177.219) rotate(-84.371)" fill="#450d20"/>
            <path id="Trazado_166500" data-name="Trazado 166500" d="M266.91,130.031c-5.655,6.3-11.758,9.487-18.16,9.487-.333,0-.664,0-1-.017-11.726-.614-20.582-11.527-22.589-14.214a9.741,9.741,0,0,1,3.35,1.559s.067.033.182.083a.05.05,0,0,0,.017.032c3.616,4.014,10.68,10.449,19.122,10.879,6.02.3,11.759-2.453,17.166-8.209Z" transform="translate(43.262 24.072)" fill="#450d20"/>
            <rect id="Rectángulo_43312" data-name="Rectángulo 43312" width="16.384" height="1.659" transform="matrix(0.859, -0.512, 0.512, 0.859, 280.435, 216.726)" fill="#450d20"/>
            <rect id="Rectángulo_43313" data-name="Rectángulo 43313" width="25.755" height="1.659" transform="translate(280.434 223.088) rotate(-31.007)" fill="#450d20"/>
            <path id="Trazado_166501" data-name="Trazado 166501" d="M178.1,167.3v.017a15.426,15.426,0,0,1-.448,1.608l-33.865-3.847c.016-.5.032-1.062.032-1.658Z" transform="translate(27.625 31.399)" fill="#450d20"/>
            <path id="Trazado_166502" data-name="Trazado 166502" d="M347.173,132.691c-.017.53-.067,1.094-.132,1.692l-38.113-12.007a15.355,15.355,0,0,1,.614-1.526Z" transform="translate(59.356 23.219)" fill="#450d20"/>
            <path id="Trazado_166503" data-name="Trazado 166503" d="M205.443,150.037s8.835-2.031,11.46-4.312-.426,26.047-8.021,25.566l-1.332-10.271Z" transform="translate(39.473 27.974)" fill="#450d20"/>
            <path id="Trazado_166504" data-name="Trazado 166504" d="M275.787,166.251c-.846-.249-1.409-.415-1.642-.482.979-16.717-6.368-26.518-6.452-26.618l1.327-1c.315.432,7.928,10.515,6.767,28.1" transform="translate(51.433 26.544)" fill="#450d20"/>
            <path id="Trazado_166505" data-name="Trazado 166505" d="M320.177,171.338q-.921.1-1.941.149l-5.788-8.093,1.36-.962Z" transform="translate(60.032 31.209)" fill="#450d20"/>
            <path id="Trazado_166506" data-name="Trazado 166506" d="M323.149,162.383l-1.924,8.508a7.52,7.52,0,0,1-1.144.331c-.216.05-.43.083-.663.116L321.525,162Z" transform="translate(61.371 31.126)" fill="#450d20"/>
            <path id="Trazado_166507" data-name="Trazado 166507" d="M153.288,134.113l-1.658.132-.614-8.291.2-.2a5.194,5.194,0,0,1,.846-.681,5.555,5.555,0,0,1,.53-.315l.05.68Z" transform="translate(29.015 23.971)" fill="#450d20"/>
            <path id="Trazado_166508" data-name="Trazado 166508" d="M161.993,129.564l-.9,1.409-8.624-5.44-.581-.365a5.811,5.811,0,0,1,.53-.315,12.546,12.546,0,0,1,1.161-.581Z" transform="translate(29.184 23.877)" fill="#450d20"/>
            <path id="Trazado_166509" data-name="Trazado 166509" d="M272.263,66.268c-4.165-10.71-23.8-14.875-37.487-2.976-6.36,5.532-7.7,15.554-7.319,24.7a4.918,4.918,0,0,0-.823-.336c-2.786-.694-5.585,1.406-6.42,4.025a7.549,7.549,0,0,0,.976,6.281,9.494,9.494,0,0,0,4.317,3.605,12.177,12.177,0,0,0,3.713.367,27.637,27.637,0,0,0,9.117,15.517,25.006,25.006,0,0,0,21.258,5.381c5.926-1.23,14.7-5.027,16.872-11.179a15.594,15.594,0,0,0,.639-5.027c.159-12.962-.083-28.119-4.846-40.363" transform="translate(42.252 10.778)" fill="#fa9778"/>
            <path id="Trazado_166510" data-name="Trazado 166510" d="M259.537,83.238c0,1.986.787,3.6,1.757,3.6s1.757-1.612,1.757-3.6-.787-3.6-1.757-3.6-1.757,1.611-1.757,3.6" transform="translate(49.866 15.302)" fill="#450d20"/>
            <path id="Trazado_166511" data-name="Trazado 166511" d="M250.286,83.238c0,1.986-.787,3.6-1.758,3.6s-1.757-1.612-1.757-3.6.787-3.6,1.757-3.6,1.758,1.611,1.758,3.6" transform="translate(47.413 15.302)" fill="#450d20"/>
            <path id="Trazado_166512" data-name="Trazado 166512" d="M262.289,91.787A8.613,8.613,0,0,1,259.64,94.8a6.721,6.721,0,0,1-3.934,1.307,6.819,6.819,0,0,1-3.915-1.351,12.923,12.923,0,0,1-1.516-1.351c-.414-.532-.818-1.065-1.18-1.617.542.4,1.037.82,1.535,1.23.553.336,1.047.749,1.607,1.031a7.248,7.248,0,0,0,3.474.987,7.076,7.076,0,0,0,3.489-.942,15.141,15.141,0,0,0,3.089-2.307" transform="translate(47.859 17.635)" fill="#450d20"/>
            <path id="Trazado_166513" data-name="Trazado 166513" d="M256.777,97.137a2.887,2.887,0,0,1-1.85.627,3.028,3.028,0,0,1-1.851-.627,9.473,9.473,0,0,0,1.853.207,8,8,0,0,0,1.849-.207" transform="translate(48.624 18.663)" fill="#450d20"/>
            <path id="Trazado_166514" data-name="Trazado 166514" d="M252.56,72.355a4.175,4.175,0,0,0-2.723-1.009,8.416,8.416,0,0,0-2.9.412,7.065,7.065,0,0,0-2.554,1.463,7.416,7.416,0,0,0-1.743,2.234.842.842,0,0,0,1.3,1.029l.07-.067a10.476,10.476,0,0,1,1.736-1.378,6.113,6.113,0,0,1,1.916-.787,7.467,7.467,0,0,1,2.076-.2,7.962,7.962,0,0,0,2.22-.128l.222-.055a.881.881,0,0,0,.646-1.065.87.87,0,0,0-.271-.449" transform="translate(46.599 13.708)" fill="#450d20"/>
            <path id="Trazado_166515" data-name="Trazado 166515" d="M258.359,72.355a4.175,4.175,0,0,1,2.723-1.009,8.408,8.408,0,0,1,2.9.412,7.064,7.064,0,0,1,2.554,1.463,7.416,7.416,0,0,1,1.743,2.234.842.842,0,0,1-1.3,1.029l-.07-.067a10.474,10.474,0,0,0-1.736-1.378,6.1,6.1,0,0,0-1.916-.787,7.466,7.466,0,0,0-2.076-.2,7.962,7.962,0,0,1-2.22-.128l-.222-.055a.881.881,0,0,1-.646-1.065.869.869,0,0,1,.271-.449" transform="translate(49.583 13.708)" fill="#450d20"/>
            <path id="Trazado_166516" data-name="Trazado 166516" d="M258.1,78.048c.311,1.355.539,2.7.79,4.035s.5,2.656.883,3.916c.087.317.186.628.3.929a3.315,3.315,0,0,1,.305,1.161,2.342,2.342,0,0,1-1.261,2.133,2.839,2.839,0,0,1-2.294.123,5.6,5.6,0,0,1-1.817-1.086c1.262.473,2.735.843,3.623.173a1.388,1.388,0,0,0,.624-1.283,2.592,2.592,0,0,0-.263-.8q-.2-.5-.356-1.016a19.192,19.192,0,0,1-.659-4.139,21.927,21.927,0,0,1,.128-4.147" transform="translate(48.995 14.996)" fill="#450d20"/>
            <path id="Trazado_166517" data-name="Trazado 166517" d="M221.268,85.677A13.172,13.172,0,0,1,224.83,87.1a10.257,10.257,0,0,1,2.843,2.369l.644-.794a11.931,11.931,0,0,0-3.044-1.187,4.543,4.543,0,0,0-1.757-.08A1.989,1.989,0,0,0,222,88.636a2.987,2.987,0,0,0,.858,3.272,4.338,4.338,0,0,0,2.948,1.2,4.668,4.668,0,0,1-2.489-1.618,2.344,2.344,0,0,1-.449-2.476c.281-.713,1.229-.694,2.177-.482a13.216,13.216,0,0,1,2.778,1.051l.029.013a.515.515,0,0,0,.615-.807,9.418,9.418,0,0,0-3.312-2.34,9.646,9.646,0,0,0-3.883-.776" transform="translate(42.513 16.461)" fill="#450d20"/>
            <path id="Trazado_166518" data-name="Trazado 166518" d="M235.091,98.823c.119-.023.238-.048.358-.073a1.99,1.99,0,0,0,.308-3.777l-.05-.02c-6.161-2.554-.284-12.006,1.8-18.655s7.677-5.114,7.677-5.114C261.346,76.1,269.946,65.8,269.946,65.8c1.87,2.345,3.417,7.315,3.417,7.315s22.275-14.858,2.235-22.018S230.777,63.2,230.777,63.2c-7.643-4.449-9.357,13.017-4.065,25.59a26.734,26.734,0,0,1,1.652,5.188,5.879,5.879,0,0,0,6.727,4.841" transform="translate(42.971 9.51)" fill="#450d20"/>
            <path id="Trazado_166519" data-name="Trazado 166519" d="M326.535,381.411a72.132,72.132,0,0,0-.136-43.1c-7.129-22.494-14.3-44.252-20.548-61.567-4.891-13.578-9.21-24.432-12.495-30.751-3.7-7.124-7.228-13.7-10.586-19.669q-25.466,2-51.029,2.655l59.414,130.88L269.849,480.349c-2.334,5.239-6.1,14.176-5.949,16.822a4.175,4.175,0,0,0,3.814,3.917l55.152,4.788a2.092,2.092,0,0,0,1.7-.619,3,3,0,0,0,.621-3.884,2.148,2.148,0,0,0-1.962-.975c-14.025.59-30.283-12.848-30.283-12.848l-.367-.141c.886-2.662,11.3-33.975,23.542-72.568,2.72-8.592,6.882-22.007,10.413-33.431" transform="translate(44.525 43.485)" fill="#f28e6f"/>
            <path id="Trazado_166520" data-name="Trazado 166520" d="M296.028,431.858c-.2.514-.4,1.029-.614,1.543l-31.295-10.747.331-1.642Z" transform="translate(50.746 80.891)" fill="#450d20"/>
            <path id="Trazado_166521" data-name="Trazado 166521" d="M323.614,464.884a1.885,1.885,0,0,1-2.04,1.708l-59.44-4.429a5.128,5.128,0,0,1-4.4-3.216,5.255,5.255,0,0,1-.382-1.693,5.5,5.5,0,0,1,.266-1.841l6.385-19.587,27.083,7.464v4.079s1.243,7.944,17.413,8.624c9.719.432,13.351,4.23,14.694,7.2a6.6,6.6,0,0,1,.331.83,1.715,1.715,0,0,1,.083.862" transform="translate(49.447 83.737)" fill="#69ceff"/>
            <path id="Trazado_166522" data-name="Trazado 166522" d="M323.613,461.431l-65.875-5.937a5.254,5.254,0,0,1-.381-1.693l65.842,5.938a6.609,6.609,0,0,1,.331.83,1.715,1.715,0,0,1,.083.862" transform="translate(49.447 87.191)" fill="#450d20"/>
            <path id="Trazado_166523" data-name="Trazado 166523" d="M330.9,371.622c-5.042,22.622-15.64,66.854-27.829,97.75-.2.514-.4,1.029-.614,1.543-1.344,3.367-2.719,6.551-4.1,9.536l-29.024-10.764,1.825-9.519.331-1.642,19.4-100.934L227.461,226.9l56.388-1.144s33.12,51.678,47.2,115.878a69.525,69.525,0,0,1-.149,29.985" transform="translate(43.703 43.376)" fill="#d13f40"/>
            <path id="Trazado_166524" data-name="Trazado 166524" d="M246.635,266.217l64.248,14.1-58.913-3.111Z" transform="translate(47.387 51.149)" fill="#450d20"/>
            <rect id="Rectángulo_43314" data-name="Rectángulo 43314" width="1.659" height="4.148" transform="matrix(0.911, -0.412, 0.412, 0.911, 315.188, 331.811)" fill="#450d20"/>
            <path id="Trazado_166525" data-name="Trazado 166525" d="M276.708,430.9l-1.631-.305,1.453-7.766,1.631.3Zm2.905-15.532-1.631-.3,1.454-7.767,1.631.305Zm2.906-15.532-1.631-.3,1.453-7.767,1.631.305Zm2.905-15.532-1.63-.3,1.452-7.768,1.631.305Zm2.906-15.534-1.631-.3,1.452-7.766,1.632.3Zm2.906-15.531-1.631-.305,1.452-7.766,1.631.3Zm.119-15.2-3.257-7.2,1.51-.684,3.257,7.2Zm-6.515-14.4-3.257-7.2,1.51-.683,3.257,7.2Zm-6.515-14.4-3.257-7.2,1.51-.683,3.257,7.2Zm-6.515-14.4-3.257-7.2,1.51-.683,3.258,7.2Z" transform="translate(51.599 55.136)" fill="#450d20"/>
            <rect id="Rectángulo_43315" data-name="Rectángulo 43315" width="4.146" height="1.659" transform="matrix(0.183, -0.983, 0.983, 0.183, 324.462, 497.571)" fill="#450d20"/>
            <path id="Trazado_166526" data-name="Trazado 166526" d="M466.756,355.725a3,3,0,0,0-2.658-2.9,2.148,2.148,0,0,0-1.983.932c-8.248,11.36-28.877,15.755-28.877,15.755l-.339.2-.006-.007c-1.642-2.5-19.686-30.051-42.241-63.519-6.982-10.316-19.47-28.527-26.751-39.14a32.628,32.628,0,0,0-15.191-11.975c-21.759-8.358-43.584-16.5-62.142-22.986q-5.474-1.917-10.531-3.616c-13.683-4.594-24.877-7.944-31.86-9.3-13.267-2.571-25.043-4.561-34.994-5.739a144.24,144.24,0,0,0-4.926,17.862C202,242,219.734,262.918,219.734,262.918l112.309,28.69,81.2,91.531.012.014c2.657,5.086,7.317,13.577,9.486,15.1a4.173,4.173,0,0,0,5.437-.557l38.005-40.251a2.09,2.09,0,0,0,.575-1.721" transform="translate(39.207 41.007)" fill="#fa9778"/>
            <path id="Trazado_166527" data-name="Trazado 166527" d="M435.827,332.431l-39.671,44.5a5.1,5.1,0,0,1-7.081.581,4.9,4.9,0,0,1-1.012-1.094l-11.676-16.983,22.389-16.982,3.251,2.487s7.065,3.848,17.43-8.574c6.634-7.928,12.123-8.077,15.225-7.131a1.8,1.8,0,0,1,.281.083,1.974,1.974,0,0,1,1.079.879,1.91,1.91,0,0,1-.216,2.239" transform="translate(72.317 63.18)" fill="#69ceff"/>
            <path id="Trazado_166528" data-name="Trazado 166528" d="M434,330.128,388.506,378.29a5.242,5.242,0,0,1-1.476-.846l45.607-48.278a1.811,1.811,0,0,1,.283.083,1.975,1.975,0,0,1,1.078.879" transform="translate(74.362 63.244)" fill="#450d20"/>
            <path id="Trazado_166529" data-name="Trazado 166529" d="M429.875,363.4l-22.953,18.807-5.655-6.485-1.094-1.26L331.2,295.4c-49.489-11.328-119.974-21.278-126.856-42.839-6.9-21.56,9.1-51.246,9.1-51.246l68.545,2.7,6.633,26.436,56.786,22.008a49.094,49.094,0,0,1,23.152,18.608l56.687,85.345.912,1.394Z" transform="translate(38.929 38.68)" fill="#d13f40"/>
            <path id="Trazado_166530" data-name="Trazado 166530" d="M394.32,332.813l-24.894,17.912-1.094-1.26,25.077-18.045Z" transform="translate(70.769 63.677)" fill="#450d20"/>
            <path id="Trazado_166531" data-name="Trazado 166531" d="M277.835,227.336l-19.073-9.812,17.666,4.208Z" transform="translate(49.717 41.794)" fill="#450d20"/>
            <path id="Trazado_166532" data-name="Trazado 166532" d="M395.41,354.993l-62.123-78.14-93.7-23.867.41-1.606,94.238,24,62.473,78.576Z" transform="translate(46.033 48.299)" fill="#450d20"/>
            <rect id="Rectángulo_43316" data-name="Rectángulo 43316" width="1.658" height="6.867" transform="translate(262.458 242.707)" fill="#450d20"/>
            <rect id="Rectángulo_43317" data-name="Rectángulo 43317" width="1.658" height="6.867" transform="translate(265.774 242.707)" fill="#450d20"/>
            <rect id="Rectángulo_43318" data-name="Rectángulo 43318" width="1.658" height="6.867" transform="translate(283.339 242.707)" fill="#450d20"/>
            <rect id="Rectángulo_43319" data-name="Rectángulo 43319" width="1.658" height="6.867" transform="translate(286.656 242.707)" fill="#450d20"/>
            <rect id="Rectángulo_43320" data-name="Rectángulo 43320" width="1.658" height="6.867" transform="translate(304.221 242.707)" fill="#450d20"/>
            <rect id="Rectángulo_43321" data-name="Rectángulo 43321" width="1.658" height="6.867" transform="translate(307.537 242.707)" fill="#450d20"/>
            <path id="Trazado_166533" data-name="Trazado 166533" d="M107.483,171.248a49.219,49.219,0,0,0-9.308-7.983c-9.241-6.319-26.52-19.685-44.438-33.859-6-34.451-11.6-69.579-11.907-71.511l.59-5.756c1.208-6.6,1.282-16.755-2.3-22.431-.621-.985-5.269,16.472-6.776,15.934s-2.526-4.608-2.686-6.731a.769.769,0,0,0-.856-.726c-.874.1-2.112.64-2.091,2.872.03,3.09-.261,9.678,2.927,16.971a178.314,178.314,0,0,0-7.055,47.266,241.012,241.012,0,0,0,1.134,28.335,27.156,27.156,0,0,0,8.861,17.557,315.008,315.008,0,0,0,28.313,22.535c8.142,5.79,15.213,10.329,20.269,13.547,6.393,4.089,11.723,5.446,16.027,5.39,10.964-.143,16.512-13.16,9.294-21.41" transform="translate(4.522 5.7)" fill="#fa9778"/>
            <path id="Trazado_166534" data-name="Trazado 166534" d="M107.522,161.451A14.95,14.95,0,0,1,98,172.827,18.778,18.778,0,0,1,82.032,171.5l-7.414-4.146L52.776,155.1l23.3-24.944A128.542,128.542,0,0,1,96.66,143.606c.447.365.879.73,1.31,1.111,3.516,3.069,6.551,6.368,8.242,9.653a10.429,10.429,0,0,1,1.31,7.081" transform="translate(10.14 25.007)" fill="#ffe6de"/>
            <path id="Trazado_166535" data-name="Trazado 166535" d="M75.577,131,55,153.029l-4.474-3.319Z" transform="translate(9.707 25.169)" fill="#450d20"/>
            <path id="Trazado_166536" data-name="Trazado 166536" d="M86.462,238.869s-8.57-26.771-12.59-44.525-2.946-35.709,7.464-41.963,15.891-6.438,19.1-18.833l19.243-2.006s3.137,11.975,18.565,12.516A16.371,16.371,0,0,1,148.92,148.3c4.012,3.771,7.459,10.846,5.2,24.06-4.527,26.427-15.773,49.706-14.039,65.811Z" transform="translate(13.777 25.273)" fill="#fa9778"/>
            <path id="Trazado_166537" data-name="Trazado 166537" d="M84.839,219.278l-2.955-9.863s-8.388-.519-9.26,4.112c0,0-1.482,4.937,12.216,5.751" transform="translate(13.944 40.233)" fill="#fad4c8"/>
            <path id="Trazado_166538" data-name="Trazado 166538" d="M94.854,143.156s-8.326,10.075-6.529,13.116,39.954-14.1,42.022-16.447c0,0,3.864,2.1,7.042,1.948s19.211,2.612,18.658,19.2c0,0-.089,14.368-6.634,35.214a149.256,149.256,0,0,0-6.771,38.45s-58.186-16.585-67.168-9.951c-7.507,5.543,10.177,7.962,10.177,7.962L86,233.777s-13.984,2.654-16.887-7.3,3.593-26.259,2.211-41.6-2.284-34.108,23.528-41.723" transform="translate(13.134 26.865)" fill="#ffe6de"/>
            <path id="Trazado_166539" data-name="Trazado 166539" d="M94.118,142.549c-.2.132-.432.3-.713.482-4.4,3.051-17.248,12.67-18.941,21.792l-1.642-.3c1.394-7.446,9.3-14.91,15.042-19.453,2.056-1.609,3.832-2.869,4.943-3.632.448.365.879.73,1.31,1.111" transform="translate(13.992 27.175)" fill="#450d20"/>
            <rect id="Rectángulo_43322" data-name="Rectángulo 43322" width="1.658" height="12.301" transform="translate(106.278 223.479) rotate(-31.114)" fill="#450d20"/>
            <rect id="Rectángulo_43323" data-name="Rectángulo 43323" width="1.658" height="17.142" transform="translate(111.289 221.9) rotate(-35.484)" fill="#450d20"/>
            <path id="Trazado_166540" data-name="Trazado 166540" d="M137.78,220.634,84.221,222l-.85-2.689Z" transform="translate(16.018 42.138)" fill="#450d20"/>
            <path id="Trazado_166541" data-name="Trazado 166541" d="M154.333,150.549a49.2,49.2,0,0,0-11.913,2.9c-10.525,3.817-31.462,10.051-53.428,16.331C57.517,154.547,25.723,138.6,23.969,137.722l-4.33-3.839C14.983,129.052,6.78,123.066.082,122.661c-1.162-.07,10.3,13.891,8.986,14.8s-5.216-.637-7.032-1.745a.77.77,0,0,0-1.091.272c-.426.769-.713,2.089,1.112,3.374,2.524,1.776,7.708,5.834,15.475,7.506A178.263,178.263,0,0,0,51.816,180.2,241.013,241.013,0,0,0,75.487,195.81a27.17,27.17,0,0,0,19.428,3.048,315.139,315.139,0,0,0,34.822-9.843c9.454-3.234,17.264-6.328,22.829-8.555,7.051-2.806,11.263-6.343,13.729-9.871,6.283-8.987-1.051-21.089-11.963-20.041" transform="translate(0 23.567)" fill="#fa9778"/>
            <path id="Trazado_166542" data-name="Trazado 166542" d="M101.7,154.909l5.808,33.635,30.731-13.415a18.781,18.781,0,0,0,10.7-11.929,14.94,14.94,0,0,0-3.309-14.461c-9.122-10.641-43.934,6.169-43.934,6.169" transform="translate(19.54 27.9)" fill="#ffe6de"/>
            <path id="Trazado_166543" data-name="Trazado 166543" d="M101.7,154.245l5.326,29.772-4.536,1.475Z" transform="translate(19.54 29.636)" fill="#450d20"/>
            <path id="Trazado_166544" data-name="Trazado 166544" d="M107.58,186.232l-3.021-4.676,1.392-.9,2.279,3.529c4.314-1.748,29.292-12,33.282-16.575l1.251,1.09c-4.609,5.292-33.328,16.795-34.549,17.281Z" transform="translate(20.089 32.203)" fill="#450d20"/>
            <path id="Trazado_166545" data-name="Trazado 166545" d="M126.455,98.429a15.085,15.085,0,0,0-4.072,1.627,11.77,11.77,0,0,0-3.251,2.707l-.736-.907a13.571,13.571,0,0,1,3.48-1.357,5.217,5.217,0,0,1,2.009-.093,2.27,2.27,0,0,1,1.737,1.4,3.412,3.412,0,0,1-.981,3.741,4.959,4.959,0,0,1-3.369,1.376,5.342,5.342,0,0,0,2.844-1.85,2.68,2.68,0,0,0,.515-2.83c-.323-.814-1.406-.793-2.489-.551a15.154,15.154,0,0,0-3.176,1.2l-.032.017a.59.59,0,0,1-.7-.924,10.764,10.764,0,0,1,3.786-2.675,11.031,11.031,0,0,1,4.438-.887" transform="translate(22.686 18.911)" fill="#450d20"/>
            <path id="Trazado_166546" data-name="Trazado 166546" d="M136.953,105.457c-.834-2.619-3.632-4.72-6.42-4.025a4.819,4.819,0,0,0-.823.336c.378-9.153-.957-19.177-7.317-24.7-13.686-11.9-33.323-7.736-37.488,2.976-3.237,8.319-4.391,17.981-4.736,27.4-.154,4.01-.166,7.985-.119,11.781,0,.405.012.8.012,1.191a15.466,15.466,0,0,0,.644,5.021c2.165,6.153,10.937,9.95,16.863,11.175a24.994,24.994,0,0,0,21.266-5.379,27.637,27.637,0,0,0,9.117-15.513,12.18,12.18,0,0,0,3.709-.367,9.5,9.5,0,0,0,4.316-3.605,7.549,7.549,0,0,0,.976-6.281" transform="translate(15.376 13.424)" fill="#fa9778"/>
            <path id="Trazado_166547" data-name="Trazado 166547" d="M80.05,113.189a6.146,6.146,0,0,0,1.559.2,6.081,6.081,0,1,0,0-12.162,5.742,5.742,0,0,0-1.44.178c-.155,4.01-.167,7.986-.119,11.782" transform="translate(15.376 19.45)" fill="#fa8864"/>
            <path id="Trazado_166548" data-name="Trazado 166548" d="M113.819,107.313a6.085,6.085,0,1,1-6.085-6.085,6.084,6.084,0,0,1,6.085,6.085" transform="translate(19.53 19.449)" fill="#fa8864"/>
            <path id="Trazado_166549" data-name="Trazado 166549" d="M89.711,97.009c0,1.987-.788,3.6-1.758,3.6s-1.757-1.611-1.757-3.6.787-3.6,1.757-3.6,1.758,1.612,1.758,3.6" transform="translate(16.561 17.947)" fill="#450d20"/>
            <path id="Trazado_166550" data-name="Trazado 166550" d="M84.665,92.506a5.154,5.154,0,0,0,1.189,1.535,4.184,4.184,0,0,0,1.839.951l.03.006a.65.65,0,1,0,.119-1.283,3.8,3.8,0,0,1-2.818-1.427l-.013-.016a.21.21,0,0,0-.346.232" transform="translate(16.263 17.715)" fill="#450d20"/>
            <path id="Trazado_166551" data-name="Trazado 166551" d="M98.962,97.009c0,1.987.787,3.6,1.757,3.6s1.757-1.611,1.757-3.6-.787-3.6-1.757-3.6-1.757,1.612-1.757,3.6" transform="translate(19.014 17.947)" fill="#450d20"/>
            <path id="Trazado_166552" data-name="Trazado 166552" d="M103.707,92.288a3.794,3.794,0,0,1-2.819,1.427A.65.65,0,1,0,101,95l.032-.008a4.184,4.184,0,0,0,1.839-.951,5.139,5.139,0,0,0,1.189-1.535.209.209,0,0,0-.346-.231Z" transform="translate(19.254 17.715)" fill="#450d20"/>
            <path id="Trazado_166553" data-name="Trazado 166553" d="M88.519,105.558a8.6,8.6,0,0,0,2.648,3.011,6.727,6.727,0,0,0,3.934,1.307,6.818,6.818,0,0,0,3.916-1.352,12.889,12.889,0,0,0,1.515-1.349c.414-.533.819-1.066,1.18-1.617-.541.4-1.037.82-1.534,1.23-.554.336-1.047.749-1.607,1.031a7.249,7.249,0,0,1-3.475.987,7.082,7.082,0,0,1-3.489-.942,15.134,15.134,0,0,1-3.088-2.307" transform="translate(17.008 20.281)" fill="#450d20"/>
            <path id="Trazado_166554" data-name="Trazado 166554" d="M92.5,110.908a2.894,2.894,0,0,0,1.85.627,3.028,3.028,0,0,0,1.851-.627,9.565,9.565,0,0,1-1.853.207,7.988,7.988,0,0,1-1.849-.207" transform="translate(17.772 21.309)" fill="#450d20"/>
            <path id="Trazado_166555" data-name="Trazado 166555" d="M97.784,86.126a4.175,4.175,0,0,1,2.723-1.009,8.436,8.436,0,0,1,2.9.411,7.1,7.1,0,0,1,2.554,1.463,7.435,7.435,0,0,1,1.743,2.235.841.841,0,0,1-1.3,1.028l-.072-.066a10.414,10.414,0,0,0-1.736-1.378,6.1,6.1,0,0,0-1.916-.787,7.467,7.467,0,0,0-2.076-.2,7.963,7.963,0,0,1-2.22-.128l-.222-.055a.881.881,0,0,1-.646-1.065.87.87,0,0,1,.271-.449" transform="translate(18.731 16.353)" fill="#9c3900"/>
            <path id="Trazado_166556" data-name="Trazado 166556" d="M91.985,86.126a4.175,4.175,0,0,0-2.723-1.009,8.444,8.444,0,0,0-2.9.411,7.1,7.1,0,0,0-2.554,1.463,7.434,7.434,0,0,0-1.743,2.235.841.841,0,0,0,1.3,1.028l.07-.066a10.414,10.414,0,0,1,1.736-1.378,6.1,6.1,0,0,1,1.916-.787,7.471,7.471,0,0,1,2.077-.2,7.956,7.956,0,0,0,2.219-.128l.222-.055a.881.881,0,0,0,.646-1.065.87.87,0,0,0-.271-.449" transform="translate(15.747 16.353)" fill="#9c3900"/>
            <path id="Trazado_166557" data-name="Trazado 166557" d="M94.078,91.819c-.311,1.355-.539,2.7-.79,4.035s-.5,2.656-.883,3.916c-.087.317-.185.628-.3.929a3.323,3.323,0,0,0-.305,1.161,2.34,2.34,0,0,0,1.261,2.133,2.835,2.835,0,0,0,2.294.123,5.6,5.6,0,0,0,1.817-1.086c-1.262.473-2.735.844-3.623.173a1.388,1.388,0,0,1-.623-1.283,2.6,2.6,0,0,1,.263-.8q.2-.5.356-1.016a19.193,19.193,0,0,0,.659-4.139,21.927,21.927,0,0,0-.128-4.147" transform="translate(17.638 17.642)" fill="#450d20"/>
            <path id="Trazado_166558" data-name="Trazado 166558" d="M126.455,98.429a15.085,15.085,0,0,0-4.072,1.627,11.77,11.77,0,0,0-3.251,2.707l-.736-.907a13.571,13.571,0,0,1,3.48-1.357,5.217,5.217,0,0,1,2.009-.093,2.27,2.27,0,0,1,1.737,1.4,3.412,3.412,0,0,1-.981,3.741,4.959,4.959,0,0,1-3.369,1.376,5.342,5.342,0,0,0,2.844-1.85,2.68,2.68,0,0,0,.515-2.83c-.323-.814-1.406-.793-2.489-.551a15.154,15.154,0,0,0-3.176,1.2l-.032.017a.59.59,0,0,1-.7-.924,10.764,10.764,0,0,1,3.786-2.675,11.031,11.031,0,0,1,4.438-.887" transform="translate(22.686 18.911)" fill="#450d20"/>
            <path id="Trazado_166559" data-name="Trazado 166559" d="M124.036,145.982c-4.7-11.9,1.165-34.825,1.688-37.894.024-.107.036-.2.06-.31L93.891,125.712a8.46,8.46,0,0,1,.964,3.511v.012a38.91,38.91,0,0,1-.69,9.759,91.288,91.288,0,0,1-2.059,8.937Z" transform="translate(17.697 20.708)" fill="#fa9778"/>
            <path id="Trazado_166560" data-name="Trazado 166560" d="M93.832,137.071c17.34,2.19,26.122-18.517,26.443-19.291a20.445,20.445,0,0,1-12.377,8.878,33.952,33.952,0,0,1-13.268.678c-.036-.012-.072-.012-.107-.024a38.854,38.854,0,0,1-.69,9.759" transform="translate(18.028 22.63)" fill="#450d20"/>
            <path id="Trazado_166561" data-name="Trazado 166561" d="M131.038,116.191s-14.086,23.48-12.165,26.333,8.647-2.556,11.306-3.234,15.729-.027,16.128-14.434-3.426-61.792-26.234-53.389c0,0-3.932-10.054-20.885-3.833S83.541,83.23,77.447,93s-22.084,29.386-6.108,37.512c0,0-4.651,3.358-1.127,6.571s24.528,9.507,29.884,5.479a27.916,27.916,0,0,0,.072-5.238s-12.267-2.645-16.084-10.15c0,0-1.065-1.285-.937-18.492,0,0,.846-14.585,2.456-20.267,0,0,18.9-1.915,27.1-6.682s9.508,3.9,7.959,9.172c-3.94,13.413,2.416,18.719,7.185,14.461,0,0,5.63-4.928,9.345-2.515,3.424,2.222,4.37,6.7.656,10.982A7.577,7.577,0,0,1,134.6,116.1a5.681,5.681,0,0,1-3.563.089" transform="translate(12.383 12.605)" fill="#9c3900"/>
            <path id="Trazado_166562" data-name="Trazado 166562" d="M264.174,457.656c-1.321-2.3-9.362-7.719-14.183-10.828l-83.747-89.2L150.228,253.553H101.176c.283,3.226.59,6.527.935,9.96.707,7.086,3.029,18.535,6.362,32.577,4.243,17.911,10.143,40.047,16.48,62.777a72.13,72.13,0,0,0,23.462,36.15c9.2,7.632,20.029,16.585,27.005,22.289,31.365,25.607,57.208,46.124,59.406,47.867l-.231.319s-6.258,20.142-18.321,27.321a2.148,2.148,0,0,0-1.11,1.888,3,3,0,0,0,2.645,2.912,2.1,2.1,0,0,0,1.767-.415l43.548-34.18a4.174,4.174,0,0,0,1.049-5.365" transform="translate(19.439 48.716)" fill="#f28e6f"/>
            <path id="Trazado_166563" data-name="Trazado 166563" d="M209.984,431.593l3.789,4.3-19.819,32.489a1.792,1.792,0,0,0,2.6,2.369l50.229-37.6a5.543,5.543,0,0,0,.933-8.066l-10.864-12.722Z" transform="translate(37.214 79.229)" fill="#450d20"/>
            <path id="Trazado_166564" data-name="Trazado 166564" d="M96.933,254.687s19.487,108.63,31.1,124.386,97.849,84.167,97.849,84.167L246.2,438.569l-77.533-82.3-16.17-105.728s-50.17-8.707-55.559,4.146" transform="translate(18.624 47.584)" fill="#b4cbdd"/>
            <path id="Trazado_166565" data-name="Trazado 166565" d="M106.356,305.856s34.556-4.414,48.907-30.646c0,0-5.868,26.573-47.309,37.9Z" transform="translate(20.435 52.877)" fill="#450d20"/>
            <path id="Trazado_166566" data-name="Trazado 166566" d="M224.544,434.047l-2.424-2.183,1.109-1.231,2.425,2.184Zm-8.586-7.733-6.161-5.552,1.111-1.231,6.16,5.552Zm-12.321-11.1-6.161-5.551,1.11-1.23,6.16,5.549Zm-12.322-11.1-6.161-5.551,1.11-1.23,6.161,5.551Zm-12.322-11.1-6.16-5.551,1.11-1.231,6.16,5.551Zm-12.321-11.1-6.161-5.551,1.11-1.23,6.161,5.549Zm-12.322-11.1-6.16-5.551,1.109-1.23,6.161,5.551Zm-11.934-11.7a40.636,40.636,0,0,1-4.393-7.217l1.5-.709a39.171,39.171,0,0,0,4.215,6.922Zm-7.2-15.188q-.331-1.377-.562-2.778l-.9-5.441,1.636-.273.9,5.442q.222,1.347.538,2.664Zm-2.821-16.4-1.359-8.18,1.637-.272,1.358,8.18Zm-2.716-16.361-1.357-8.18,1.636-.272,1.357,8.18Z" transform="translate(24.656 58.161)" fill="#450d20"/>
            <path id="Trazado_166567" data-name="Trazado 166567" d="M174.763,261.083c-5.429-23.249-24.1-40.661-24.1-40.661C96.912,240.406,46.206,279.229,23.914,297.657a20.926,20.926,0,0,0-5.7,24.819C39,368.046,81.3,434.7,86.568,442.951v0S78.013,462.232,65.2,467.961a2.15,2.15,0,0,0-1.322,1.748,3,3,0,0,0,2.289,3.2,2.1,2.1,0,0,0,1.8-.207l47.22-28.893a4.174,4.174,0,0,0,1.665-5.206,33.962,33.962,0,0,0-8.519-11.541C105.8,421.566,69.5,342.8,64.5,328.9c-.476-1.334,2.428-2.2,3.188-2.517a92,92,0,0,1,16.076-4.693q4.435-.774,8.782-1.675a383.719,383.719,0,0,0,60.811-18.358,35.072,35.072,0,0,0,21.4-40.579" transform="translate(3.136 42.351)" fill="#fa9778"/>
            <path id="Trazado_166568" data-name="Trazado 166568" d="M72.074,404.312l3.87,6.84L52.618,441.224a1.793,1.793,0,0,0,2.323,2.645l54.116-31.748a5.543,5.543,0,0,0,1.828-7.911l-9.374-13.857Z" transform="translate(10.037 75)" fill="#450d20"/>
            <path id="Trazado_166569" data-name="Trazado 166569" d="M92.814,221.792l60.671-1.371s32.479,33.33,21.907,60.359S136,315.893,67.8,328.538l38.974,89.35-29.024,14.3L17.138,327.072a28.314,28.314,0,0,1,8.908-37.76l52.609-34.8a17.631,17.631,0,0,0,7.146-9.59Z" transform="translate(2.565 42.35)" fill="#b4cbdd"/>
            <path id="Trazado_166570" data-name="Trazado 166570" d="M83.768,419.234l-43.09-94.165a14.895,14.895,0,0,1,7.652-19.88l69.83-30.076a29.511,29.511,0,0,0,17.852-27.128V228.165h1.658v19.819a31.168,31.168,0,0,1-18.855,28.651L48.988,306.711a13.241,13.241,0,0,0-6.8,17.667l43.091,94.165Z" transform="translate(7.554 43.838)" fill="#450d20"/>
            <path id="Trazado_166571" data-name="Trazado 166571" d="M472.62,282.819l3.011-10.652s-28.952-13.826-59.092-28.709c5.163-20.943,10.226-40.509,13.466-50.629a49.241,49.241,0,0,0,2.456-12.018c.628-10.945-11.735-17.808-20.477-11.183-3.433,2.6-6.813,6.936-9.346,14.092a387.647,387.647,0,0,0-13.694,45.94c-1.464,6.527-2.791,13.441-3.853,20.637a13.947,13.947,0,0,0,8.4,14.822c5.2,2.219,10.645,4.351,16.286,6.319,19.193,6.7,40.651,11.505,62.842,11.38" transform="translate(73.961 32.092)" fill="#fa9778"/>
            <path id="Trazado_166572" data-name="Trazado 166572" d="M425.834,215.428l6.571,8.406s-10.883.429-10.883-3.786,3.164-4.609,4.312-4.62" transform="translate(80.989 41.391)" fill="#eb9d28"/>
            <path id="Trazado_166573" data-name="Trazado 166573" d="M484.526,170.143c-2.855-13.1-8.7-18.365-13.836-20.357a16.368,16.368,0,0,0-11.486.067,23.215,23.215,0,0,1-9.106,1.508c-8.275-9.948-13.419-32.93-14.06-35.865-.018-.108-.043-.2-.061-.309l-22.847,28.58a8.449,8.449,0,0,1,2.209,2.893l0,.011a38.878,38.878,0,0,1,3.017,9.306c.783,3.665,1.211,7.019,1.369,8.4-1.578,5-5.372,8.16-10.168,14.527-7.305,9.7-1.572,26.746,8.809,41.7s28.36,36.562,28.36,36.562l49.446-20.744c-7.644-14.279-5.942-40.077-11.651-66.274" transform="translate(78.06 22.131)" fill="#fa9778"/>
            <path id="Trazado_166574" data-name="Trazado 166574" d="M416.9,153.884c16.9-4.468,17.278-26.958,17.286-27.8a20.455,20.455,0,0,1-8.147,12.87,34,34,0,0,1-12.048,5.6c-.038,0-.072.015-.108.018a38.877,38.877,0,0,1,3.017,9.306" transform="translate(79.521 24.226)" fill="#450d20"/>
            <path id="Trazado_166575" data-name="Trazado 166575" d="M454.157,145.1s12.517,44.716,32.948,33.892a1.433,1.433,0,0,1,2.111,1.081l2.86,24.547a2.054,2.054,0,0,1-1.438,2.211c-10.086,3.089-63.4,19.624-64.279,24.379-.976,5.251,6.727,3.069,6.727,3.069l2.419,3.066s-11.5,5.613-15.512-3.51c-2.94-6.689-10.139-30.479-13.768-42.687a20.1,20.1,0,0,1,1.335-14.859c2.7-5.315,6.747-12.3,11.328-17,0,0,21.35,2.065,31.64-13.851.337-.522,3.321.228,3.628-.337" transform="translate(77.888 27.879)" fill="#fcc574"/>
            <path id="Trazado_166576" data-name="Trazado 166576" d="M450.083,193.007c-10.548-.414-26.372-4.819-27.041-5.006l.447-1.6c.162.045,16.306,4.538,26.659,4.945Z" transform="translate(81.281 35.815)" fill="#450d20"/>
            <path id="Trazado_166577" data-name="Trazado 166577" d="M486.385,196.883l.25,4.053L427.52,217.758l16.884-7.468a146.883,146.883,0,0,1,19.311-6.973Z" transform="translate(82.141 37.828)" fill="#450d20"/>
            <path id="Trazado_166578" data-name="Trazado 166578" d="M486.312,145.783a49.012,49.012,0,0,0-12.093,2.018c-28.533,8.037-130.945,27.559-130.945,27.559v0a39.917,39.917,0,0,0-14.934-6.819c-2.165-.529-2.972.55-3.271,1.376a.781.781,0,0,0,.514,1.006c2.031.64,5.754,2.551,5.936,4.149.205,1.8-16.045.54-16.438,2.94-.159.963,11.41,2.19,11.41,2.19s-12.459,1.13-11.628,2.683,12.03,2.065,12.03,2.065-12.192,2.706-10.752,3.952,11.244.592,11.244.592c-4.3,1.5-5.814,2.775-6.334,3.549a.547.547,0,0,0,.436.862c5.807.217,18.142-5.6,21.988-7.493v.013c56.077,15.08,115.926-3.705,138.875-10.946,7.237-2.283,11.7-5.5,14.42-8.841,6.927-8.5.509-21.106-10.457-20.859" transform="translate(60.488 28.009)" fill="#fa9778"/>
            <path id="Trazado_166579" data-name="Trazado 166579" d="M398.938,186.924s54.98-7.125,82.345-21.705l-6.573,9.263-3.787-3.148s-53.983,16.436-71.985,15.591" transform="translate(76.65 31.744)" fill="#450d20"/>
            <path id="Trazado_166580" data-name="Trazado 166580" d="M444.364,108.56c-1.755-2.116-5.137-3.014-7.459-1.326a4.83,4.83,0,0,0-.638.621c-3.08-8.629-8.074-17.421-16.044-20.161-17.148-5.9-33.791,5.317-33.638,16.808.117,8.924,2.668,18.316,5.876,27.174,1.359,3.775,2.838,7.465,4.3,10.966.153.376.31.736.458,1.1a15.494,15.494,0,0,0,2.477,4.416c4.314,4.893,13.868,5.125,19.823,4.04a25,25,0,0,0,17.7-12.957,27.638,27.638,0,0,0,2.639-17.8,12.215,12.215,0,0,0,3.3-1.73,9.493,9.493,0,0,0,2.649-4.959,7.543,7.543,0,0,0-1.448-6.19" transform="translate(74.276 16.537)" fill="#fa9778"/>
            <path id="Trazado_166581" data-name="Trazado 166581" d="M395.819,135.478a6.082,6.082,0,1,0-3.038-11.672,5.764,5.764,0,0,0-1.267.7c1.359,3.777,2.838,7.466,4.3,10.968" transform="translate(75.223 23.702)" fill="#fa8864"/>
            <path id="Trazado_166582" data-name="Trazado 166582" d="M424.66,117.645a6.085,6.085,0,1,1-7.922-3.361,6.086,6.086,0,0,1,7.922,3.361" transform="translate(79.338 21.872)" fill="#fa8864"/>
            <path id="Trazado_166583" data-name="Trazado 166583" d="M406.539,128.753a2.887,2.887,0,0,0,1.95-.112,3.026,3.026,0,0,0,1.481-1.276,9.459,9.459,0,0,1-1.639.887,7.963,7.963,0,0,1-1.792.5" transform="translate(78.11 24.471)" fill="#450d20"/>
            <path id="Trazado_166584" data-name="Trazado 166584" d="M402.059,103.873a4.167,4.167,0,0,1,2.146-1.955,8.428,8.428,0,0,1,2.843-.706,7.08,7.08,0,0,1,2.916.4,7.428,7.428,0,0,1,2.452,1.419.841.841,0,0,1-.823,1.442l-.091-.035a10.337,10.337,0,0,0-2.126-.627,6.079,6.079,0,0,0-2.072-.012,7.492,7.492,0,0,0-2,.591,7.976,7.976,0,0,1-2.105.713l-.227.032a.879.879,0,0,1-1-.744.869.869,0,0,1,.082-.519" transform="translate(77.231 19.442)" fill="#872000"/>
            <path id="Trazado_166585" data-name="Trazado 166585" d="M396.51,106.237a4.169,4.169,0,0,0-2.9.086,8.4,8.4,0,0,0-2.534,1.469,7.085,7.085,0,0,0-1.819,2.313,7.409,7.409,0,0,0-.779,2.724.841.841,0,0,0,1.594.465l.042-.087a10.354,10.354,0,0,1,1.092-1.929,6.119,6.119,0,0,1,1.482-1.447,7.49,7.49,0,0,1,1.849-.964,7.982,7.982,0,0,0,2.009-.95l.186-.134a.881.881,0,0,0-.218-1.545" transform="translate(74.638 20.369)" fill="#872000"/>
            <path id="Trazado_166586" data-name="Trazado 166586" d="M411.2,108.433a3.794,3.794,0,0,1-.71,3.078.65.65,0,1,0,.964.873.608.608,0,0,0,.1-.139l.016-.03a4.18,4.18,0,0,0,.447-2.021,5.163,5.163,0,0,0-.416-1.9.21.21,0,0,0-.4.117Z" transform="translate(78.837 20.783)" fill="#450d20"/>
            <path id="Trazado_166587" data-name="Trazado 166587" d="M405.955,114.028a5.324,5.324,0,0,1,5.871-2.9.383.383,0,0,1-.026.756,9.828,9.828,0,0,0-2.929.7,7.37,7.37,0,0,0-2.444,1.757.289.289,0,0,1-.472-.311" transform="translate(77.993 21.331)" fill="#450d20"/>
            <path id="Trazado_166588" data-name="Trazado 166588" d="M391.991,115.55a3.793,3.793,0,0,0,2.694,1.65.65.65,0,0,1-.055,1.3.635.635,0,0,1-.166-.029l-.032-.01a4.194,4.194,0,0,1-1.756-1.1,5.17,5.17,0,0,1-1.061-1.627.209.209,0,0,1,.114-.273.207.207,0,0,1,.249.07Z" transform="translate(75.24 22.182)" fill="#450d20"/>
            <path id="Trazado_166589" data-name="Trazado 166589" d="M400.038,116.1a7.877,7.877,0,0,0-5.474,2.112.384.384,0,0,1-.557-.51,5.323,5.323,0,0,1,6.182-2.157.29.29,0,0,1-.151.554" transform="translate(75.689 22.143)" fill="#450d20"/>
            <path id="Trazado_166590" data-name="Trazado 166590" d="M401.814,125.566s2.964,3.81,6.427,1.831c3.628-2.073,2.825-6.289,2.825-6.289Z" transform="translate(77.202 23.269)" fill="#fff"/>
            <path id="Trazado_166591" data-name="Trazado 166591" d="M400.507,110.377c.219,1.372.513,2.707.78,4.038s.528,2.651.65,3.961c.037.327.062.652.07.973a3.34,3.34,0,0,0,.153,1.191,2.339,2.339,0,0,0,1.969,1.5,2.834,2.834,0,0,0,2.172-.746,5.6,5.6,0,0,0,1.277-1.687c-.992.912-2.22,1.806-3.294,1.518a1.387,1.387,0,0,1-1.059-.955,2.584,2.584,0,0,1-.055-.839q0-.545-.051-1.076a19.107,19.107,0,0,0-.939-4.084,21.932,21.932,0,0,0-1.673-3.8" transform="translate(76.951 21.207)" fill="#450d20"/>
            <path id="Trazado_166592" data-name="Trazado 166592" d="M435.037,106.464a15.084,15.084,0,0,0-4.072,1.627,11.77,11.77,0,0,0-3.251,2.707l-.736-.907a13.571,13.571,0,0,1,3.48-1.357,5.217,5.217,0,0,1,2.009-.093,2.274,2.274,0,0,1,1.738,1.4,3.414,3.414,0,0,1-.982,3.741,4.951,4.951,0,0,1-3.369,1.376,5.341,5.341,0,0,0,2.844-1.85,2.68,2.68,0,0,0,.515-2.83c-.323-.814-1.406-.793-2.489-.551a15.153,15.153,0,0,0-3.176,1.2l-.032.017a.59.59,0,0,1-.7-.924,10.779,10.779,0,0,1,3.786-2.675,11.031,11.031,0,0,1,4.438-.887" transform="translate(81.975 20.455)" fill="#450d20"/>
            <path id="Trazado_166593" data-name="Trazado 166593" d="M392.42,112.655s8.482-9.542,8.5-14.05c0,0,27.038,24.18,40.761,10.925,0,0,4.757-4.207,8.774,1.659,0,0,3.628,8.45-5.667,11.9,0,0,1.336,23.948-1.642,30.933s10.921,11.933,30.714,1.841a13.107,13.107,0,0,1,5.946,1s.721-20.7-18.889-39.375-14.737-26.24-20.749-31.423c-5.479-4.722-22.455-14.986-48.657.654a21.659,21.659,0,0,0-10.682,20.452c.013.151.029.3.045.457a44.7,44.7,0,0,1-11.3,35.186c-4.031,4.354-7.745,9.128-9.876,13.7-6.494,13.928,26.1,22.354,26.1,22.354l42.8-9.4s-1.389-11.052-4.133-15.714c0,0-13.962,2.527-19.806-4.591,0,0-5.77-11.925-7.977-19.192s-4.256-17.307-4.256-17.307" transform="translate(68.945 15.057)" fill="#872000"/>
            <path id="Trazado_166594" data-name="Trazado 166594" d="M578.85,465.918c-1.112-2.407-8.643-8.517-13.169-12.038l-75.536-96.258L482.266,235.07H434.679c-.173,7.065-.2,14.794-.1,23.142.077,7.121,1.378,18.73,3.458,33.011,2.506,17.276,6.162,38.471,10.2,60.4a83.343,83.343,0,0,0,23.315,44.12c7.9,7.82,16.625,16.441,22.454,22.136,28.978,28.28,52.908,51,54.942,52.93l-.258.3s-8.012,19.51-20.663,25.6a2.148,2.148,0,0,0-1.273,1.783,3,3,0,0,0,2.378,3.134,2.091,2.091,0,0,0,1.8-.256l46.4-30.2a4.173,4.173,0,0,0,1.52-5.251" transform="translate(83.487 45.165)" fill="#eb8e71"/>
            <path id="Trazado_166595" data-name="Trazado 166595" d="M431.71,238.863s.362,93.131,18.606,131.69c16.1,34.024,68.026,87.394,80.021,99.48a4.6,4.6,0,0,0,5.591.731c7.112-4.163,24.4-15.059,29.8-25.531a4.622,4.622,0,0,0-.563-5.069l-70.074-84.471s-4.1-110.355-8.064-119.062-39.1-17.511-55.321,2.232" transform="translate(82.946 43.603)" fill="#ffe6de"/>
            <path id="Trazado_166596" data-name="Trazado 166596" d="M438.805,326.176l51.789-47.44.767,14.079Z" transform="translate(84.309 53.555)" fill="#450d20"/>
            <path id="Trazado_166597" data-name="Trazado 166597" d="M545.772,431.961l-63.33-65.07a48.635,48.635,0,0,1-13.727-31.439l-1.458-28.239,4.969-.255,1.458,28.239a43.662,43.662,0,0,0,12.325,28.224l63.33,65.071Z" transform="translate(89.776 58.977)" fill="#450d20"/>
            <path id="Trazado_166598" data-name="Trazado 166598" d="M566.927,431.61a5.522,5.522,0,0,1-2.588,4.943L511.451,470.3a1.734,1.734,0,0,1-.9.283,1.761,1.761,0,0,1-.979-.249,1.7,1.7,0,0,1-.879-1.394,1.8,1.8,0,0,1,.331-1.193L531.2,436.817l-3.451-4.56,28.229-17.182,9.885,13.5a5.033,5.033,0,0,1,.7,1.277,4.974,4.974,0,0,1,.366,1.758" transform="translate(97.737 79.75)" fill="#fcc574"/>
            <path id="Trazado_166599" data-name="Trazado 166599" d="M566.926,429.228l-57.35,38.725a1.7,1.7,0,0,1-.879-1.394l57.863-39.09a4.974,4.974,0,0,1,.366,1.758" transform="translate(97.738 82.132)" fill="#450d20"/>
            <path id="Trazado_166600" data-name="Trazado 166600" d="M522.264,253.388c-.1-.59-.19-1.191-.314-1.764-2.21-10.254-9.339-19.7-16.07-27.517A81.064,81.064,0,0,0,496.5,215.4c-9.37,7.255-20.889,18.02-34.2,31.4-5.026,5.046-12.4,14.108-21.129,25.6-10.569,13.893-23.129,31.353-35.945,49.6a83.342,83.342,0,0,0-15.14,47.549c-.045,11.114-.08,23.38-.06,31.53.13,40.49.687,73.482.736,76.287l-.392.025s-19.536,7.954-32.741,3.191a2.15,2.15,0,0,0-2.164.342,3,3,0,0,0-.57,3.892,2.089,2.089,0,0,0,1.441,1.1l54.055,11.944a4.174,4.174,0,0,0,4.811-2.6c.937-2.48.02-12.135-.639-17.832L430.31,356.1Z" transform="translate(68.101 41.385)" fill="#fa9778"/>
            <path id="Trazado_166601" data-name="Trazado 166601" d="M421.093,436.821l-2.7,16.5a5.686,5.686,0,0,1-.365,1.245,4.952,4.952,0,0,1-.945,1.493,5.485,5.485,0,0,1-5.456,1.757l-61.131-14.129a1.635,1.635,0,0,1-.829-.448,1.759,1.759,0,0,1-.5-1.742,1.784,1.784,0,0,1,1.46-1.327l.132-.017,37.465-5.8.845-5.655Z" transform="translate(67.075 82.367)" fill="#fcc574"/>
            <path id="Trazado_166602" data-name="Trazado 166602" d="M418.015,452.72a4.975,4.975,0,0,1-.945,1.493L349.155,439.65a1.779,1.779,0,0,1,1.459-1.326l.134-.017Z" transform="translate(67.085 84.214)" fill="#450d20"/>
            <path id="Trazado_166603" data-name="Trazado 166603" d="M445.991,230.112l56.455-18.43s32.4,32.442,21.835,54.417-93.56,90.386-93.56,90.386l-5.644,108.731a6.48,6.48,0,0,1-6.449,6.118c-9.585.027-28.449-1.012-41.849-8.719a6.4,6.4,0,0,1-3.1-6.15l8.325-95.441a66.376,66.376,0,0,1,10.635-30.392l43.521-66.191Z" transform="translate(71.791 40.671)" fill="#ffe6de"/>
            <rect id="Rectángulo_43324" data-name="Rectángulo 43324" width="57.165" height="1.659" transform="translate(520.031 272.983) rotate(-17.264)" fill="#450d20"/>
            <path id="Trazado_166604" data-name="Trazado 166604" d="M401.388,459.245l-4.956-.421L404,369.755a58.243,58.243,0,0,1,16.27-35.628c40.06-41.117,66.1-69.613,71.43-78.187,9.159-14.723-4.454-29.422-5.037-30.039l3.609-3.425c.171.179,16.857,18.082,5.653,36.093-7.551,12.136-48.409,54.725-72.092,79.031a53.265,53.265,0,0,0-14.878,32.576Z" transform="translate(76.168 42.745)" fill="#450d20"/>
            <path id="Trazado_166605" data-name="Trazado 166605" d="M630.3,52.18c-1.452-3.617-6.683-5.608-6.683-5.608.944-1.7,8.211-13.6,6.524-14.209S615.7,48.834,615.7,48.834c-2.645-4.41-10.466-9.147-7.593-2.912s1.553,16.832,1.553,16.832-3.61,31.88-7.83,65.228c-21.481,1.962-41.628,3.568-52.25,3.811a49.319,49.319,0,0,0-12.162,1.6c-10.549,2.982-13,16.909-3.879,23.008,3.576,2.395,8.78,4.172,16.372,4.228a387.525,387.525,0,0,0,47.893-2.064c6.647-.747,13.615-1.752,20.763-3.1a13.947,13.947,0,0,0,11.265-12.782c.4-5.644.635-11.483.653-17.456.066-19.93-2.321-41.316-9.355-61.871,6.1-3.076,10.471-7.95,9.172-11.181" transform="translate(101.431 6.215)" fill="#fa9778"/>
            <path id="Trazado_166606" data-name="Trazado 166606" d="M571.765,113.161l1.81,32.982s-48.188,10.221-46.764-17.037c0,0-.8-19.938,44.954-15.945" transform="translate(101.212 21.64)" fill="#b4cbdd"/>
            <path id="Trazado_166607" data-name="Trazado 166607" d="M578.752,143.884c3.185-5.54,1.28-30.417,1.28-30.417s6.793,14.686,5.547,29.782Z" transform="translate(111.198 21.801)" fill="#450d20"/>
            <path id="Trazado_166608" data-name="Trazado 166608" d="M575.916,162.552c-3.371-17.342-2.236-35.8-14.014-38.761-7.73-1.942-12.666-2.017-17.036-4.918-.737-1.161-2.511-4.038-4.208-7.391a38.867,38.867,0,0,1-3.5-9.137l0-.012a8.455,8.455,0,0,1-.1-3.638L501.33,90.807c.054.1.092.184.147.279,1.344,2.687,11.777,23.8,11.588,36.739a23.241,23.241,0,0,1-8.033,4.547,16.369,16.369,0,0,0-8.98,7.161c-2.743,4.775-3.984,12.546,2.022,24.532,12.013,23.97,22.906,45.722,25.927,61.635l62.532-19s-6.918-25.133-10.616-44.148" transform="translate(94.871 17.447)" fill="#fa9778"/>
            <path id="Trazado_166609" data-name="Trazado 166609" d="M538.084,109.886c-15.954,7.136-30.378-10.124-30.911-10.77a20.451,20.451,0,0,0,14.424,4.9A33.974,33.974,0,0,0,534.49,100.8c.031-.021.064-.032.1-.054a38.86,38.86,0,0,0,3.5,9.137" transform="translate(97.445 19.044)" fill="#450d20"/>
            <path id="Trazado_166610" data-name="Trazado 166610" d="M588.667,200.232c-9.188,1.642-57.516,10.531-69.191,17.547a1.284,1.284,0,0,1-1.958-.912,123.26,123.26,0,0,0-4.941-22.141c-.182-.6-.381-1.177-.6-1.774-.116-.331-.232-.664-.365-.979-.2-.581-.415-1.144-.647-1.708a60.555,60.555,0,0,0-3.234-6.966c-6.517-11.892-16.369-30.267-14.594-43.136a14.558,14.558,0,0,1,6.75-10.15c2.836-1.792,7.2-4.544,11.791-7.447,0,0,19.737,6.485,33.7-7.745,0,0,17.514,3.4,18.742,3.184,1.26-.216,8.11,4.959,11.211,27.979,2.687,20.1,11.99,46.2,14.313,52.54a1.28,1.28,0,0,1-.979,1.708" transform="translate(94.708 22.061)" fill="#b4cbdd"/>
            <path id="Trazado_166611" data-name="Trazado 166611" d="M556.969,126.951A16.84,16.84,0,0,0,545.933,116.7l.375-1.614a18.277,18.277,0,0,1,12.218,11.294Z" transform="translate(104.892 22.112)" fill="#450d20"/>
            <path id="Trazado_166612" data-name="Trazado 166612" d="M535.818,178.115l-.953-1.357c.091-.064,9.16-6.509,12.918-15.2l1.522.657c-3.947,9.128-13.1,15.626-13.488,15.9" transform="translate(102.766 31.041)" fill="#450d20"/>
            <path id="Trazado_166613" data-name="Trazado 166613" d="M541.574,181.373l-1.328-.994c.114-.154,11.573-15.5,13.376-21.609l1.59.47c-1.886,6.392-13.159,21.493-13.638,22.133" transform="translate(103.8 30.505)" fill="#450d20"/>
            <path id="Trazado_166614" data-name="Trazado 166614" d="M516.82,181.5l-.249,1.642-7.065-1.011c-.182-.6-.381-1.178-.6-1.775Z" transform="translate(97.779 34.653)" fill="#450d20"/>
            <path id="Trazado_166615" data-name="Trazado 166615" d="M513.633,175.552l-4.926,4.975c-.2-.579-.415-1.143-.646-1.707l4.394-4.429Z" transform="translate(97.616 33.506)" fill="#450d20"/>
            <path id="Trazado_166616" data-name="Trazado 166616" d="M587.144,74.338c6.07-3.078,10.4-7.931,9.111-11.151-1.453-3.617-6.683-5.608-6.683-5.608.943-1.7,8.21-13.6,6.525-14.209S581.653,59.84,581.653,59.84c-2.645-4.41-10.466-9.147-7.593-2.912s1.553,16.832,1.553,16.832l.036.006c-.193,1.706-3.717,32.728-7.82,65.145-21.481,1.962-41.627,3.568-52.25,3.811a49.3,49.3,0,0,0-12.161,1.6c-10.55,2.982-13,16.909-3.88,23.008,3.576,2.4,8.78,4.172,16.372,4.229A387.532,387.532,0,0,0,563.8,169.5c6.647-.747,13.617-1.752,20.765-3.1a13.945,13.945,0,0,0,11.263-12.782c.4-5.644.635-11.483.653-17.456.066-19.915-2.318-41.284-9.339-61.824" transform="translate(94.898 8.33)" fill="#fa9778"/>
            <path id="Trazado_166617" data-name="Trazado 166617" d="M538.892,125v33.032s-48.676,7.564-45.76-19.575c0,0,.291-19.953,45.76-13.457" transform="translate(94.723 23.768)" fill="#b4cbdd"/>
            <path id="Trazado_166618" data-name="Trazado 166618" d="M523.871,156.113c-16.057,0-26.2-7.086-26.327-7.178l.964-1.348c.157.111,15.944,11.1,39.306,5.058l.415,1.6a57.233,57.233,0,0,1-14.358,1.863" transform="translate(95.595 28.356)" fill="#450d20"/>
            <path id="Trazado_166619" data-name="Trazado 166619" d="M531.5,125.654v30.222l5.8-30.675Z" transform="translate(102.119 24.055)" fill="#450d20"/>
            <path id="Trazado_166620" data-name="Trazado 166620" d="M549.448,90.26c-3.616-12.447-8.254-26.879-16.37-37.211-7.1-9.036-27.1-7.314-36.733,8.052-4.478,7.141-2.843,17.119.18,25.764a4.926,4.926,0,0,0-.885-.082c-2.868.145-4.935,2.968-4.972,5.717a7.55,7.55,0,0,0,2.761,5.726,9.486,9.486,0,0,0,5.177,2.195,12.175,12.175,0,0,0,3.66-.728,27.642,27.642,0,0,0,13.235,12.2,25,25,0,0,0,21.9-1.032c5.312-2.9,12.6-9.082,12.893-15.6a15.592,15.592,0,0,0-.85-5" transform="translate(94.274 9.137)" fill="#fa9778"/>
            <path id="Trazado_166621" data-name="Trazado 166621" d="M527.428,71.3c.577,1.9,1.8,3.213,2.728,2.931s1.212-2.052.634-3.953-1.8-3.213-2.726-2.931-1.214,2.052-.635,3.953" transform="translate(101.279 12.933)" fill="#450d20"/>
            <path id="Trazado_166622" data-name="Trazado 166622" d="M518.576,73.994c.577,1.9.293,3.671-.635,3.953s-2.149-1.03-2.728-2.931-.292-3.671.635-3.953,2.149,1.03,2.728,2.931" transform="translate(98.933 13.646)" fill="#450d20"/>
            <path id="Trazado_166623" data-name="Trazado 166623" d="M532.667,79.214a8.593,8.593,0,0,1-1.659,3.652,6.713,6.713,0,0,1-3.383,2.393,6.813,6.813,0,0,1-4.139-.154,12.765,12.765,0,0,1-1.844-.851c-.551-.389-1.092-.781-1.6-1.2.635.222,1.231.483,1.826.731.627.16,1.22.412,1.838.519a7.262,7.262,0,0,0,3.611-.064,7.089,7.089,0,0,0,3.064-1.916,15.162,15.162,0,0,0,2.285-3.106" transform="translate(99.918 15.22)" fill="#450d20"/>
            <path id="Trazado_166624" data-name="Trazado 166624" d="M528.949,85.491a2.893,2.893,0,0,1-1.588,1.137,3.02,3.02,0,0,1-1.954-.062,9.591,9.591,0,0,0,1.834-.339,7.974,7.974,0,0,0,1.708-.737" transform="translate(100.949 16.426)" fill="#450d20"/>
            <path id="Trazado_166625" data-name="Trazado 166625" d="M517.5,63.2a4.168,4.168,0,0,0-2.9-.173,8.412,8.412,0,0,0-2.655,1.236,7.07,7.07,0,0,0-2.018,2.142,7.429,7.429,0,0,0-1.018,2.644.842.842,0,0,0,1.547.606l.049-.085a10.408,10.408,0,0,1,1.259-1.823,6.132,6.132,0,0,1,1.6-1.31,7.45,7.45,0,0,1,1.928-.8,7.973,7.973,0,0,0,2.086-.769l.2-.116a.88.88,0,0,0,.309-1.206.872.872,0,0,0-.39-.352" transform="translate(97.776 12.076)" fill="#450d20"/>
            <path id="Trazado_166626" data-name="Trazado 166626" d="M523.186,61.359A4.167,4.167,0,0,1,525.5,59.6a8.389,8.389,0,0,1,2.894-.449,7.081,7.081,0,0,1,2.868.657,7.44,7.44,0,0,1,2.318,1.631.842.842,0,0,1-.949,1.364l-.087-.043a10.354,10.354,0,0,0-2.061-.813,6.091,6.091,0,0,0-2.062-.2,7.49,7.49,0,0,0-2.045.411,7.965,7.965,0,0,1-2.16.522l-.228.013a.881.881,0,0,1-.8-1.34" transform="translate(100.497 11.365)" fill="#450d20"/>
            <path id="Trazado_166627" data-name="Trazado 166627" d="M524.19,66.812c.691,1.206,1.3,2.428,1.929,3.631s1.255,2.395,1.984,3.491c.176.278.36.547.556.8a3.334,3.334,0,0,1,.629,1.023,2.341,2.341,0,0,1-.587,2.408,2.839,2.839,0,0,1-2.159.783,5.569,5.569,0,0,1-2.054-.511c1.345.087,2.862.012,3.517-.887a1.387,1.387,0,0,0,.224-1.408,2.561,2.561,0,0,0-.485-.688q-.342-.424-.635-.869a19.133,19.133,0,0,1-1.835-3.768,21.9,21.9,0,0,1-1.084-4.006" transform="translate(100.715 12.837)" fill="#450d20"/>
            <path id="Trazado_166628" data-name="Trazado 166628" d="M493.109,82.616a15.083,15.083,0,0,1,4.072,1.627,11.77,11.77,0,0,1,3.251,2.707l.736-.907a13.615,13.615,0,0,0-3.48-1.357,5.217,5.217,0,0,0-2.009-.093,2.277,2.277,0,0,0-1.738,1.4,3.414,3.414,0,0,0,.982,3.741,4.953,4.953,0,0,0,3.369,1.376,5.342,5.342,0,0,1-2.844-1.85,2.68,2.68,0,0,1-.515-2.83c.323-.814,1.406-.793,2.489-.551a15.153,15.153,0,0,1,3.176,1.2l.032.017a.59.59,0,0,0,.7-.924,10.763,10.763,0,0,0-3.786-2.675,11.031,11.031,0,0,0-4.438-.887" transform="translate(94.743 15.873)" fill="#450d20"/>
            <path id="Trazado_166629" data-name="Trazado 166629" d="M492.939,91.078s2.4-3.029,5.248-1.112a52.306,52.306,0,0,0,5.683,3.059,2.265,2.265,0,0,0,3.194-2.527l-2.312-10.584a11.791,11.791,0,0,1,1.655-8.967c3.139-4.807,8.828-11.969,15.655-13.544,0,0-.191,3.382-2.264,4.577,0,0,9.588-3.058,12.753-7.98,0,0,3,3.557,4.026,5.174,0,0,6.38-12.715-2.06-24.2,0,0-18.1,10.124-25.81,11.92-7.495,1.748-17.953,10.524-16.059,20.334,0,0-14.506,2.483.291,23.846" transform="translate(93.432 6.72)" fill="#450d20"/>
            <path id="Trazado_166630" data-name="Trazado 166630" d="M716.568,454.646a2.149,2.149,0,0,0-2.16-.362C701.159,458.926,681.7,450.8,681.7,450.8l-.392-.029c.074-2.805.932-35.79,1.429-76.278.1-9.011.187-23.057.243-35.014a72.134,72.134,0,0,0-12.658-41.2c-13.36-19.45-26.548-38.183-37.558-52.933-8.628-11.571-15.916-20.7-20.9-25.791-9.4-9.622-17.9-17.906-25.383-24.545-12.638,1.3-25.115,3.616-37.593,6.085l-2.55,18.246,96.521,109.8L657.5,450.619c-.711,5.691-1.717,15.337-.8,17.825a4.174,4.174,0,0,0,4.786,2.639l54.162-11.452a2.1,2.1,0,0,0,1.452-1.088,3,3,0,0,0-.535-3.9" transform="translate(104.97 37.468)" fill="#f28e6f"/>
            <path id="Trazado_166631" data-name="Trazado 166631" d="M702.941,418.052l-4.876,1.161-.067.017-.348.082-.232.05-52.457,12.571a5.154,5.154,0,0,1-6.352-5.042l.017-1.277v-2.024l.1-17.313.564-.017,24.43-1,3.084-.132,1.245,3.88s3.6,7.2,19.2,2.918c9.238-2.52,13.866-.116,16.088,2.272a7.426,7.426,0,0,1,.68.8,1.945,1.945,0,0,1-1.078,3.052" transform="translate(122.698 77.84)" fill="#b4cbdd"/>
            <path id="Trazado_166632" data-name="Trazado 166632" d="M704.268,414.235l-4.544,1.044-58.677,13.667-.962.216a5.114,5.114,0,0,1-1.044-1.46l.4-.1,59.987-13.965,3.83-.9a7.1,7.1,0,0,1,.681.8,1.922,1.922,0,0,1,.331.7" transform="translate(122.781 79.302)" fill="#450d20"/>
            <path id="Trazado_166633" data-name="Trazado 166633" d="M616.818,300.178l35.877-22.569-4.07-5.878Z" transform="translate(118.512 52.209)" fill="#450d20"/>
            <path id="Trazado_166634" data-name="Trazado 166634" d="M663.676,405.736l-24.411,1-.494-4.088Z" transform="translate(122.73 77.362)" fill="#450d20"/>
            <path id="Trazado_166635" data-name="Trazado 166635" d="M579.929,281.157c-2.376-14.235-4.679-25.688-6.777-32.494-6.341-20.62-12.205-37.164-17.737-48.125l-1.3.258c-8.307,1.656-16.606,3.271-24.862,5.17-1.272.293-2.514.581-3.748.858l-4.477,9.367,5.518,48.366,24.017,95.731L507.992,475c-3.237,4.736-8.544,12.852-8.87,15.483a4.175,4.175,0,0,0,3.049,4.537l53.4,14.6a2.091,2.091,0,0,0,1.788-.3,3,3,0,0,0,1.308-3.71,2.147,2.147,0,0,0-1.755-1.311c-13.9-1.935-27.487-18.07-27.487-18.07l-.336-.205c1.348-2.459,17.206-31.4,36.177-67.167,5.827-11.009,16.021-30.589,21.96-42.019a32.606,32.606,0,0,0,3.43-19.038c-3.421-27.679-7.152-55.3-10.726-76.64" transform="translate(95.892 38.53)" fill="#fa9778"/>
            <path id="Trazado_166636" data-name="Trazado 166636" d="M561.055,466.294a1.9,1.9,0,0,1-.166,1.061,1.929,1.929,0,0,1-2.289,1.029l-57.151-16.916a5.16,5.16,0,0,1-3.666-5.49,4.7,4.7,0,0,1,.448-1.593c.067-.149.149-.315.232-.464l10.4-17.795,1.21.629,21.742,11.394,1.941,1.011-.862,3.981s-.182,3.052,3.367,6.352c.166.166.348.331.531.482,2.239,1.907,5.754,3.847,11.294,5.291,9.586,2.52,12.256,7.131,12.854,10.348.049.232.082.465.116.681" transform="translate(95.636 81.873)" fill="#b4cbdd"/>
            <path id="Trazado_166637" data-name="Trazado 166637" d="M561.05,463.351a1.9,1.9,0,0,1-.166,1.061l-3.549-1.21h-.017L499.5,443.615l-1.725-.581a4.7,4.7,0,0,1,.448-1.593l1.874.631L558.7,461.924l2.239.746c.049.232.082.465.116.681" transform="translate(95.64 84.816)" fill="#450d20"/>
            <path id="Trazado_166638" data-name="Trazado 166638" d="M579.46,305.059l1.231,9.264-45.237-6.488Z" transform="translate(102.879 58.612)" fill="#450d20"/>
            <path id="Trazado_166639" data-name="Trazado 166639" d="M529.84,438.646,508.082,427.26l1.388-3.742Z" transform="translate(97.62 81.372)" fill="#450d20"/>
            <path id="Trazado_166640" data-name="Trazado 166640" d="M669.952,280.176l-1.078-1.293-59.341-70.85a.016.016,0,0,0-.017-.017.289.289,0,0,0-.066-.083,10.635,10.635,0,0,0-1.526-1.824l-3.914-3.616-1.293-1.178-15.69-14.445-5.572,1.459-1.725.448-51.745,13.516-1.609.432L522.4,203.77l-1.643.432-7.33,1.907s-5.7,31.693,22.025,118.166c.182.548.348,1.1.531,1.643.5,1.526,1,3.067,1.509,4.627l48.395-2.9-.564-4.528-.216-1.643-8.027-63.486s1.21-.912,3.167-2.521l48.444,57.45,1.079,1.26,4.113,4.892,39.256-35.093Z" transform="translate(98.553 35.904)" fill="#69ceff"/>
            <path id="Trazado_166641" data-name="Trazado 166641" d="M556.372,253.707l-.4-1.609c.113-.029,11.427-2.936,22.07-14.819l1.235,1.106c-11.006,12.289-22.428,15.2-22.908,15.323" transform="translate(106.822 45.589)" fill="#450d20"/>
            <rect id="Rectángulo_43325" data-name="Rectángulo 43325" width="1.659" height="66.983" transform="matrix(0.754, -0.657, 0.657, 0.754, 683.811, 288.837)" fill="#450d20"/>
            <path id="Trazado_166642" data-name="Trazado 166642" d="M540.674,314.585l-1.576.5c-17.745-56.4-19.47-101.813-19.6-113.6l1.642-.432c.017,3.582.2,10.829,1.061,20.946.05.548.1,1.1.149,1.659a435.168,435.168,0,0,0,18.327,90.934" transform="translate(99.813 38.628)" fill="#450d20"/>
            <path id="Trazado_166643" data-name="Trazado 166643" d="M593.246,202.258a8.941,8.941,0,0,1-4.61,1.277,10.317,10.317,0,0,1-1.874-.182c-7.912-1.442-15.507-11.542-17.8-14.81l1.725-.448c2.553,3.533,9.519,12.372,16.369,13.633a7.43,7.43,0,0,0,4.893-.647Z" transform="translate(109.318 36.139)" fill="#450d20"/>
            <path id="Trazado_166644" data-name="Trazado 166644" d="M526.992,220.506a6.977,6.977,0,0,1-5.009,3.383,2.541,2.541,0,0,1-.349.067l-.231-1.643a3.1,3.1,0,0,0,.43-.082,5.408,5.408,0,0,0,3.748-2.587c3.119-5.158.266-15.822-.829-19.4l1.608-.432c1.178,3.832,4.131,14.943.632,20.7" transform="translate(100.179 38.39)" fill="#450d20"/>
            <path id="Trazado_166645" data-name="Trazado 166645" d="M581.693,301.42l-49.34,2.8c-.182-.547-.348-1.094-.531-1.642l49.655-2.8Z" transform="translate(102.181 57.598)" fill="#450d20"/>
            <path id="Trazado_166646" data-name="Trazado 166646" d="M651.3,265.346l-40.184,34-1.079-1.26,40.186-34.032Z" transform="translate(117.208 50.733)" fill="#450d20"/>
            <path id="Trazado_166647" data-name="Trazado 166647" d="M667.374,362.72,717.191,255.97c-3.854-3.985-7.727-7.956-11.408-12.087-7.274-8.167-14.977-16.84-21.872-25.84-5.34,8.494-11.2,18.87-17.545,30.8-3.35,6.285-7.783,17.093-12.818,30.619-6.1,16.358-13.066,36.7-20.052,57.885a83.346,83.346,0,0,0-.733,49.9c3.173,10.652,6.69,22.4,9.067,30.2,11.84,38.721,21.922,70.139,22.781,72.811l-.37.137s-16.4,13.266-30.416,12.529a2.148,2.148,0,0,0-1.972.954,3,3,0,0,0,.581,3.891,2.091,2.091,0,0,0,1.7.637l55.2-4.209a4.174,4.174,0,0,0,3.853-3.877c.18-2.645-3.492-11.621-5.771-16.884Z" transform="translate(120.91 41.893)" fill="#eb8e71"/>
            <path id="Trazado_166648" data-name="Trazado 166648" d="M789.548,491.9a2.149,2.149,0,0,0-2.034-.815c-13.935,1.7-31.206-10.4-31.206-10.4l-.378-.112c.671-2.723,8.563-34.763,17.706-74.207,1.835-7.941,4.532-19.906,6.963-30.752a83.346,83.346,0,0,0-4.171-49.726c-8.43-20.648-16.786-40.466-24-56.364-5.954-13.148-11.121-23.623-14.9-29.661-.278-.446-.548-.874-.824-1.313-6.628,4.15-13.165,8.446-19.413,13.141-6.9,5.189-13.638,10.579-20.787,15.384l47.871,86.467-11.67,121.8c-1.911,5.409-4.956,14.616-4.594,17.242a4.173,4.173,0,0,0,4.113,3.6l55.357.395a2.089,2.089,0,0,0,1.651-.753,3,3,0,0,0,.311-3.921" transform="translate(133.823 45.833)" fill="#fa9778"/>
            <path id="Trazado_166649" data-name="Trazado 166649" d="M694.358,460.784a5.521,5.521,0,0,1-4.753,2.92l-62.711,1.9a1.725,1.725,0,0,1-.913-.217,1.767,1.767,0,0,1-.714-.714,1.7,1.7,0,0,1-.041-1.648,1.8,1.8,0,0,1,.9-.856l34.885-15.21-.627-5.683,33.044-.3L695,457.633a5.058,5.058,0,0,1-.056,1.454,4.958,4.958,0,0,1-.587,1.7" transform="translate(120.09 84.727)" fill="#d13f40"/>
            <path id="Trazado_166650" data-name="Trazado 166650" d="M694.358,457.865l-69.091,3.891a1.7,1.7,0,0,1-.041-1.648l69.718-3.94a4.958,4.958,0,0,1-.587,1.7" transform="translate(120.09 87.646)" fill="#450d20"/>
            <path id="Trazado_166651" data-name="Trazado 166651" d="M723.931,458.38a5.522,5.522,0,0,0,4.966,2.54l62.668-2.986a1.717,1.717,0,0,0,.894-.287,1.759,1.759,0,0,0,.656-.768,1.708,1.708,0,0,0-.087-1.645,1.809,1.809,0,0,0-.961-.783L756.1,442l.184-5.715-32.967,2.272-.274,16.729a5.054,5.054,0,0,0,.168,1.445,4.966,4.966,0,0,0,.718,1.646" transform="translate(138.921 83.826)" fill="#d13f40"/>
            <path id="Trazado_166652" data-name="Trazado 166652" d="M723.9,455.326l69.184-1.5A1.708,1.708,0,0,0,793,452.18l-69.815,1.5a4.966,4.966,0,0,0,.718,1.646" transform="translate(138.949 86.879)" fill="#450d20"/>
            <path id="Trazado_166653" data-name="Trazado 166653" d="M681.309,215.569l64.68-7.049,51.917,137.886a34.771,34.771,0,0,1,1.409,19.762L777.5,464.755H744.331L755.213,361.1l-44.84-80.222-38.6,82.71,17,101.167H653.944l-26.908-89.527a34.76,34.76,0,0,1,0-20.021c6.414-21.348,23.583-74.15,54.271-139.638" transform="translate(120.192 40.064)" fill="#fcc574"/>
            <path id="Trazado_166654" data-name="Trazado 166654" d="M687.655,219.169l-52.2,138.088,26.1,102.861" transform="translate(122.093 42.11)" fill="none" stroke="#450d20" stroke-miterlimit="10" stroke-width="0.964"/>
            <path id="Trazado_166655" data-name="Trazado 166655" d="M702.549,219.169,651.689,355.6,672.7,458.074" transform="translate(125.212 42.11)" fill="none" stroke="#450d20" stroke-miterlimit="10" stroke-width="0.964"/>
            <path id="Trazado_166656" data-name="Trazado 166656" d="M699.2,219.169l56.7,134.219L742.8,456.03" transform="translate(134.339 42.11)" fill="none" stroke="#450d20" stroke-miterlimit="10" stroke-width="0.964"/>
            <path id="Trazado_166657" data-name="Trazado 166657" d="M717.538,216.255l54.73,136.033-18.243,104.3" transform="translate(137.863 41.55)" fill="none" stroke="#450d20" stroke-miterlimit="10" stroke-width="0.964"/>
            <path id="Trazado_166658" data-name="Trazado 166658" d="M651.689,423.609l29.2,6.96-1.18-7.111Z" transform="translate(125.212 81.361)" fill="#450d20"/>
            <path id="Trazado_166659" data-name="Trazado 166659" d="M728.288,423.458l-.608,6.35,27.516-6.35Z" transform="translate(139.812 81.361)" fill="#450d20"/>
            <path id="Trazado_166660" data-name="Trazado 166660" d="M738.171,140.986a16.374,16.374,0,0,0-10.827-3.839,23.24,23.24,0,0,1-9.076-1.676c-4.4-12.169-1.431-35.532-1.037-38.51.019-.107.029-.2.048-.311l-31.2,19.117a8.455,8.455,0,0,1,1.093,3.473l0,.011a38.984,38.984,0,0,1-.326,9.778c-.507,3.712-1.247,7.013-1.565,8.36-3.184,4.168-7.825,5.849-14.5,10.208-10.168,6.64-10.568,24.62-5.886,42.212s14.792,48.634,14.792,48.634l55.283-5.943c-2.338-16.027,5.757-41.089,9.288-67.668,1.767-13.29-1.943-20.229-6.094-23.847" transform="translate(127.197 18.57)" fill="#fa9778"/>
            <path id="Trazado_166661" data-name="Trazado 166661" d="M682.849,127.078c17.409,1.538,25.409-19.483,25.7-20.269a20.449,20.449,0,0,1-12.035,9.336,33.959,33.959,0,0,1-13.235,1.175c-.036-.011-.072-.01-.107-.02a38.873,38.873,0,0,1-.324,9.778" transform="translate(131.198 20.522)" fill="#450d20"/>
            <path id="Trazado_166662" data-name="Trazado 166662" d="M693.163,138.517c-4.2-.947-9.694-.73-16.8,1.953a387.562,387.562,0,0,0-43.934,19.178c-5.932,3.092-12.07,6.541-18.254,10.372a13.948,13.948,0,0,0-5.9,15.982c1.663,5.408,3.543,10.94,5.679,16.521,6.68,17.468,15.836,35.355,28.479,51.244.851,4.779,3.328,17.208,6.758,21.575a.548.548,0,0,0,.955-.154c.321-.875.463-2.844-.855-7.21,0,0,5.237,8.314,7.091,8.747S653.26,265.7,653.26,265.7s7,8.757,8.743,8.517-4.666-10.982-4.666-10.982,7.794,8.636,8.481,7.941c1.708-1.729-8.868-14.13-7.289-15.026,1.4-.793,5.133,1.1,6.846,2.362a.779.779,0,0,0,1.116-.175c.492-.728.891-2.015-.811-3.455a40.761,40.761,0,0,0-11.188-6.951c-2.663-10.264-8.742-33.834-14.8-58.3,19.333-9.569,37.547-18.325,47.369-22.379a49.273,49.273,0,0,0,10.766-5.878c8.767-6.582,6.033-20.456-4.668-22.86" transform="translate(116.75 26.516)" fill="#fa9778"/>
            <path id="Trazado_166663" data-name="Trazado 166663" d="M765.634,5.946a.548.548,0,0,0-.888-.381c-.74.567-1.915,2.154-3.143,6.546,0,0,.033-9.826-1.3-11.185s-3.266,10.98-3.266,10.98S755.82.762,754.217.031,752.274,11.8,752.274,11.8,750.32.336,749.368.556c-2.37.544-.083,16.682-1.9,16.592-1.606-.081-3.747-3.675-4.515-5.663a.78.78,0,0,0-1.036-.449c-.806.35-1.832,1.224-1.168,3.351a40.148,40.148,0,0,0,7.3,13.924C744.283,42.416,720.937,129.4,711.7,154.993a49.119,49.119,0,0,0-2.88,11.918c-1.031,10.92,11.077,18.225,20.056,11.925,3.525-2.472,7.056-6.694,9.852-13.749,8.834-22.292,31.718-80.3,20.978-137.119,1.792-4.35,6.492-16.422,5.927-22.021" transform="translate(136.177 0)" fill="#fa9778"/>
            <path id="Trazado_166664" data-name="Trazado 166664" d="M781.13,77.313s-.166.929-.48,2.587c-.083.482-.2,1.012-.316,1.626-2.6,13.35-11.41,55.16-23.3,76.124,0,0,3.367,30.665-10.332,65.791l-.979.216L688.04,236.708l-15.191-49.339-29.588,15.755,1.045,4.727.365,1.625,1.078,4.842-32.755,5.208-1.392-4.794-.465-1.608-4.909-16.916a14.739,14.739,0,0,1,8.259-17.6l62.16-27.1s39.8,20.1,54.929-12.439l17.214-60.036.464-1.609.763-2.669Z" transform="translate(116.365 14.364)" fill="#d13f40"/>
            <path id="Trazado_166665" data-name="Trazado 166665" d="M675.24,212.709l56.8-7.736.317-5.31Z" transform="translate(129.737 38.362)" fill="#450d20"/>
            <path id="Trazado_166666" data-name="Trazado 166666" d="M643.785,188.026l-33.07,5.257-.465-1.608,33.17-5.274Z" transform="translate(117.25 35.814)" fill="#450d20"/>
            <path id="Trazado_166667" data-name="Trazado 166667" d="M757.578,79.469c-.083.48-.2,1.012-.315,1.625l-31.545-2.487L726.183,77Z" transform="translate(139.435 14.794)" fill="#450d20"/>
            <path id="Trazado_166668" data-name="Trazado 166668" d="M691.24,152.747c-14.076,0-26.506-7.067-27.147-7.438l.83-1.437c.19.11,19.091,10.846,36.091,5.882,8.264-2.411,14.8-8.14,19.423-17.027l1.471.765c-4.842,9.307-11.72,15.315-20.439,17.857a36.507,36.507,0,0,1-10.229,1.4" transform="translate(127.595 25.502)" fill="#450d20"/>
            <rect id="Rectángulo_43326" data-name="Rectángulo 43326" width="18.256" height="1.659" transform="translate(824.342 214.048) rotate(-35.142)" fill="#450d20"/>
            <rect id="Rectángulo_43327" data-name="Rectángulo 43327" width="7.479" height="1.66" transform="translate(831.762 215.737) rotate(-38.937)" fill="#450d20"/>
            <path id="Trazado_166669" data-name="Trazado 166669" d="M728.622,146.033a93.854,93.854,0,0,1,2.523,16.1,111.229,111.229,0,0,1,.029,16.338,93.033,93.033,0,0,1-2.525,16.151,77.077,77.077,0,0,1-5.5,15.346q.6-1.951,1.245-3.873l.633-1.924.5-1.965,1.055-3.9.82-3.958a126.747,126.747,0,0,0,2.117-15.994c.4-5.366.484-10.758.355-16.151-.081-2.7-.213-5.393-.441-8.086-.167-2.7-.474-5.387-.813-8.08" transform="translate(138.942 28.058)" fill="#450d20"/>
            <path id="Trazado_166670" data-name="Trazado 166670" d="M614.382,196.479l28.96,2.509-1.881-6.814Z" transform="translate(118.044 36.923)" fill="#450d20"/>
            <path id="Trazado_166671" data-name="Trazado 166671" d="M727.778,75.385l29.405-3.921-.887,6.37Z" transform="translate(139.831 13.731)" fill="#450d20"/>
            <path id="Trazado_166672" data-name="Trazado 166672" d="M724.621,93.854c-.932-2.586-3.808-4.58-6.565-3.781a4.934,4.934,0,0,0-.811.367c.035-9.162-1.675-19.128-8.239-24.413-14.122-11.38-33.587-6.482-37.348,4.378-2.923,8.434-3.715,18.134-3.706,27.554,0,4.013.132,7.985.322,11.777.016.4.043.8.057,1.189a15.528,15.528,0,0,0,.83,5c2.395,6.067,11.3,9.532,17.27,10.535a25,25,0,0,0,21.049-6.173,27.642,27.642,0,0,0,8.531-15.843,12.2,12.2,0,0,0,3.692-.507,9.5,9.5,0,0,0,4.177-3.764,7.543,7.543,0,0,0,.74-6.314" transform="translate(128.336 11.437)" fill="#fa9778"/>
            <path id="Trazado_166673" data-name="Trazado 166673" d="M668.274,103.579a6.2,6.2,0,0,0,1.565.144,6.081,6.081,0,0,0-.455-12.154,5.741,5.741,0,0,0-1.433.231c0,4.014.133,7.986.323,11.778" transform="translate(128.336 17.593)" fill="#fa8864"/>
            <path id="Trazado_166674" data-name="Trazado 166674" d="M701.787,96.469a6.085,6.085,0,1,1-6.309-5.852,6.085,6.085,0,0,1,6.309,5.852" transform="translate(132.5 17.41)" fill="#fa8864"/>
            <path id="Trazado_166675" data-name="Trazado 166675" d="M672.016,84.6a3.793,3.793,0,0,0,2.1,2.364.651.651,0,1,1-.432,1.228.659.659,0,0,1-.15-.076L673.5,88.1a4.172,4.172,0,0,1-1.36-1.562,5.153,5.153,0,0,1-.54-1.865.21.21,0,0,1,.408-.088Z" transform="translate(129.037 16.224)" fill="#450d20"/>
            <path id="Trazado_166676" data-name="Trazado 166676" d="M673.192,86.55a7.859,7.859,0,0,0,5.849.091.384.384,0,0,1,.345.676,5.324,5.324,0,0,1-6.54-.309.29.29,0,0,1,.347-.458" transform="translate(129.259 16.621)" fill="#450d20"/>
            <path id="Trazado_166677" data-name="Trazado 166677" d="M691.944,84.6a3.792,3.792,0,0,1-2.1,2.364.651.651,0,0,0,.43,1.228.643.643,0,0,0,.151-.076l.027-.019a4.182,4.182,0,0,0,1.36-1.562,5.154,5.154,0,0,0,.54-1.865.21.21,0,0,0-.408-.088Z" transform="translate(132.46 16.224)" fill="#450d20"/>
            <path id="Trazado_166678" data-name="Trazado 166678" d="M691.735,87.007a5.322,5.322,0,0,1-6.54.309.382.382,0,0,1,.325-.681,9.807,9.807,0,0,0,2.964.531,7.363,7.363,0,0,0,2.942-.632.289.289,0,0,1,.309.473" transform="translate(131.617 16.621)" fill="#450d20"/>
            <path id="Trazado_166679" data-name="Trazado 166679" d="M676.475,95.706a8.6,8.6,0,0,0,2.76,2.91,6.711,6.711,0,0,0,3.981,1.158,6.811,6.811,0,0,0,3.861-1.5,12.886,12.886,0,0,0,1.465-1.407c.393-.547.777-1.094,1.118-1.659-.527.417-1.006.86-1.488,1.288-.54.356-1.018.788-1.568,1.091a7.265,7.265,0,0,1-3.434,1.117,7.108,7.108,0,0,1-3.522-.811,15.2,15.2,0,0,1-3.173-2.19" transform="translate(129.974 18.293)" fill="#450d20"/>
            <path id="Trazado_166680" data-name="Trazado 166680" d="M680.654,100.845a2.887,2.887,0,0,0,1.872.557,3.033,3.033,0,0,0,1.828-.7,9.583,9.583,0,0,1-1.844.277,7.992,7.992,0,0,1-1.855-.138" transform="translate(130.777 19.349)" fill="#450d20"/>
            <path id="Trazado_166681" data-name="Trazado 166681" d="M685,75.881a4.167,4.167,0,0,1,2.683-1.11,8.4,8.4,0,0,1,2.912.3A7.087,7.087,0,0,1,693.2,76.44a7.425,7.425,0,0,1,1.825,2.167.841.841,0,0,1-1.265,1.076l-.074-.063a10.36,10.36,0,0,0-1.786-1.311,6.083,6.083,0,0,0-1.943-.715,7.435,7.435,0,0,0-2.083-.123,7.944,7.944,0,0,1-2.222-.045l-.224-.046a.88.88,0,0,1-.685-1.04.871.871,0,0,1,.254-.459" transform="translate(131.559 14.363)" fill="#450d20"/>
            <path id="Trazado_166682" data-name="Trazado 166682" d="M679.182,76.121a4.163,4.163,0,0,0-2.759-.9,8.385,8.385,0,0,0-2.883.52,7.068,7.068,0,0,0-2.5,1.557,7.444,7.444,0,0,0-1.658,2.3.842.842,0,0,0,1.342.979l.068-.069a10.347,10.347,0,0,1,1.683-1.441,6.077,6.077,0,0,1,1.885-.858,7.441,7.441,0,0,1,2.067-.279,7.909,7.909,0,0,0,2.211-.212l.221-.062a.88.88,0,0,0,.606-1.088.871.871,0,0,0-.287-.439" transform="translate(128.594 14.452)" fill="#450d20"/>
            <path id="Trazado_166683" data-name="Trazado 166683" d="M681.454,81.7c-.26,1.366-.438,2.72-.639,4.062s-.4,2.674-.736,3.947c-.075.319-.162.634-.263.939a3.319,3.319,0,0,0-.261,1.172A2.34,2.34,0,0,0,680.9,93.9a2.838,2.838,0,0,0,2.3.037,5.583,5.583,0,0,0,1.774-1.154c-1.242.521-2.7.945-3.613.309a1.385,1.385,0,0,1-.671-1.258,2.574,2.574,0,0,1,.234-.808c.123-.342.229-.684.317-1.029a19.066,19.066,0,0,0,.5-4.162,21.9,21.9,0,0,0-.283-4.139" transform="translate(130.565 15.698)" fill="#450d20"/>
            <path id="Trazado_166684" data-name="Trazado 166684" d="M715.294,88.082a15.1,15.1,0,0,0-4.072,1.627,11.77,11.77,0,0,0-3.251,2.707l-.735-.907a13.587,13.587,0,0,1,3.48-1.357,5.217,5.217,0,0,1,2.009-.093,2.274,2.274,0,0,1,1.738,1.4,3.413,3.413,0,0,1-.982,3.741,4.951,4.951,0,0,1-3.369,1.376,5.337,5.337,0,0,0,2.844-1.85,2.68,2.68,0,0,0,.515-2.83c-.323-.814-1.406-.793-2.489-.551a15.176,15.176,0,0,0-3.176,1.2l-.032.017a.59.59,0,0,1-.7-.924,10.765,10.765,0,0,1,3.786-2.675,11.032,11.032,0,0,1,4.438-.887" transform="translate(135.822 16.923)" fill="#450d20"/>
            <path id="Trazado_166685" data-name="Trazado 166685" d="M724.187,92.832s-3.6,5.115-6.3,4.8-9.253-13-4.56-20.109c0,0-8.4,2.25-13.09-5.509,0,0-10.129,7.084-16.867,0a8.09,8.09,0,0,1-5.778,4.027s-2.329,9.607-2.514,16.817c0,0-.61,18.992.809,24.839,0,0,.823,4.218,7.185,7.6a44.465,44.465,0,0,0,9.9,3.464,51.518,51.518,0,0,1-1.9,18.188s-6.61,9-18.068,10.522l-1.4-.652-35.7,15.573s-12.29-22.631,5.727-29.294c0,0-12.8-25.46,14.7-33.2,0,0-14.941-22.2,12.017-30.171,0,0-5.443-23.8,20.372-26.079,0,0,31.509-22.251,36.807,15.065,0,0,20.7.719,11.273,23.509,0,0,3.754,2.921,2.531,7.381l-12.788,44.778-.063,1.565-2.409-.938a81.3,81.3,0,0,1-1.042-38.524s8.309.165,8.737-7.489a6.364,6.364,0,0,0-2.216-5.3,5.385,5.385,0,0,0-5.367-.863" transform="translate(121.394 9.044)" fill="#450d20"/>
          </g>
        </g>
      </g>
    </g>
  </g>
</svg>
