<svg xmlns="http://www.w3.org/2000/svg" width="668.836" height="258" viewBox="0 0 668.836 258">
  <g id="_20" data-name="20" transform="translate(-377.969 -4358)">
    <path id="Trazado_170563" data-name="Trazado 170563" d="M26.875,23.094a13.416,13.416,0,0,1-1.234,5.891,9.123,9.123,0,0,1-3.508,3.945,9.767,9.767,0,0,1-5.18,1.383A9.906,9.906,0,0,1,11.8,32.977a9.108,9.108,0,0,1-3.508-3.82,13.03,13.03,0,0,1-1.32-5.7V22.172a13.475,13.475,0,0,1,1.227-5.9,9.1,9.1,0,0,1,3.516-3.945,9.836,9.836,0,0,1,5.211-1.391,9.74,9.74,0,0,1,5.156,1.375A9.265,9.265,0,0,1,25.6,16.227a13.088,13.088,0,0,1,1.273,5.82ZM21.3,22.141a9.567,9.567,0,0,0-1.133-5.148,3.634,3.634,0,0,0-3.242-1.758q-4.125,0-4.359,6.188l-.016,1.672a9.839,9.839,0,0,0,1.109,5.141,3.628,3.628,0,0,0,3.3,1.8,3.585,3.585,0,0,0,3.2-1.766A9.571,9.571,0,0,0,21.3,23.188Zm18.391-.281-1.734-.125q-2.484,0-3.187,1.563V34H29.5V17.094h4.938l.172,2.172a4.077,4.077,0,0,1,3.7-2.484,5.135,5.135,0,0,1,1.469.188Z" transform="translate(688 4465)" fill="#12263f"/>
    <g id="Grupo_170876" data-name="Grupo 170876" transform="translate(10)">
      <g id="Grupo_170878" data-name="Grupo 170878" transform="translate(1)">
        <rect id="Rectángulo_41038" data-name="Rectángulo 41038" width="295" height="97" rx="10" transform="translate(406 4358)" fill="#a6bbff"/>
        <path id="Trazado_170559" data-name="Trazado 170559" d="M98.461,13.2a4.254,4.254,0,0,1-.8,2.09,4.375,4.375,0,0,1-1.75,1.4,5.329,5.329,0,0,1-2.328.465,3.936,3.936,0,0,1-1.961-.52A3.443,3.443,0,0,1,90.3,15.2a5.312,5.312,0,0,1-.543-2.168,10.634,10.634,0,0,1,.2-2.391A7.578,7.578,0,0,1,90.863,8.1a5.666,5.666,0,0,1,1.551-1.758A4.679,4.679,0,0,1,95.3,5.469a3.839,3.839,0,0,1,2.8,1.09A4.384,4.384,0,0,1,99.242,9.5l-2.281-.008a2.391,2.391,0,0,0-.43-1.578A1.753,1.753,0,0,0,95.2,7.383a2.319,2.319,0,0,0-1.926.836,5.027,5.027,0,0,0-1.012,2.555,14.155,14.155,0,0,0-.219,2.445,2.434,2.434,0,0,0,.461,1.52,1.543,1.543,0,0,0,1.18.512,2.356,2.356,0,0,0,1.676-.5,2.625,2.625,0,0,0,.832-1.535Zm5.531,3.953a4.008,4.008,0,0,1-2-.535,3.612,3.612,0,0,1-1.367-1.477,5.468,5.468,0,0,1-.582-2.215,8.9,8.9,0,0,1,.273-2.734,7.3,7.3,0,0,1,1.156-2.555,5.256,5.256,0,0,1,1.871-1.648,4.844,4.844,0,0,1,2.324-.523,3.966,3.966,0,0,1,2.008.543A3.587,3.587,0,0,1,109.031,7.5a5.532,5.532,0,0,1,.563,2.207,9.188,9.188,0,0,1-.3,2.828,7.177,7.177,0,0,1-1.164,2.516,5.216,5.216,0,0,1-1.848,1.594A4.83,4.83,0,0,1,103.992,17.156ZM107.234,11l.063-.742a3.626,3.626,0,0,0-.371-2.109,1.567,1.567,0,0,0-1.363-.75,2.473,2.473,0,0,0-2.27,1.266,7.455,7.455,0,0,0-.949,3.672,3.762,3.762,0,0,0,.367,2.129,1.563,1.563,0,0,0,1.383.777,2.345,2.345,0,0,0,2.031-.957,5.79,5.79,0,0,0,1.055-2.863Zm11.977,6h-2.219l-3.164-7.586L112.508,17h-2.289L112.2,5.625h2.211l3.172,7.6,1.32-7.6h2.281Zm2.047,0,1.977-11.375,3.266.008a4.473,4.473,0,0,1,2.066.52,3.905,3.905,0,0,1,1.488,1.426,4.883,4.883,0,0,1,.688,2.094,6.911,6.911,0,0,1-.016,1.391l-.055.414a6.5,6.5,0,0,1-1.965,4.012A5.558,5.558,0,0,1,124.773,17ZM125.2,7.523l-1.32,7.594.953.008a3.127,3.127,0,0,0,2.535-1.156,5.976,5.976,0,0,0,1.1-3.492l.016-.25a3.151,3.151,0,0,0-.492-1.977,1.879,1.879,0,0,0-1.539-.719ZM133.859,17H131.57l1.969-11.375h2.289Zm12.125-9.477h-3.375L140.969,17H138.68l1.641-9.477h-3.336l.336-1.9h9ZM148.141,17h-2.289L147.82,5.625h2.289Zm6.734.156a4.008,4.008,0,0,1-2-.535,3.612,3.612,0,0,1-1.367-1.477,5.468,5.468,0,0,1-.582-2.215A8.9,8.9,0,0,1,151.2,10.2a7.3,7.3,0,0,1,1.156-2.555,5.256,5.256,0,0,1,1.871-1.648,4.844,4.844,0,0,1,2.324-.523,3.966,3.966,0,0,1,2.008.543A3.587,3.587,0,0,1,159.914,7.5a5.532,5.532,0,0,1,.563,2.207,9.188,9.188,0,0,1-.3,2.828,7.177,7.177,0,0,1-1.164,2.516,5.216,5.216,0,0,1-1.848,1.594A4.83,4.83,0,0,1,154.875,17.156ZM158.117,11l.063-.742a3.626,3.626,0,0,0-.371-2.109,1.567,1.567,0,0,0-1.363-.75,2.472,2.472,0,0,0-2.27,1.266,7.455,7.455,0,0,0-.949,3.672,3.762,3.762,0,0,0,.367,2.129,1.563,1.563,0,0,0,1.383.777,2.345,2.345,0,0,0,2.031-.957,5.79,5.79,0,0,0,1.055-2.863Zm11.977,6h-2.219l-3.164-7.586L163.391,17H161.1l1.977-11.375h2.211l3.172,7.6,1.32-7.6h2.281ZM13.52,36.547,12.746,41H11.277l1.977-11.375,3.8.008a3.713,3.713,0,0,1,2.711.934,2.937,2.937,0,0,1,.82,2.48,3.541,3.541,0,0,1-1.3,2.57,4.718,4.718,0,0,1-3.059.938Zm.211-1.227,2.531.008a3.079,3.079,0,0,0,1.961-.6,2.407,2.407,0,0,0,.9-1.672,1.886,1.886,0,0,0-.4-1.559,2.005,2.005,0,0,0-1.523-.629l-2.7-.008Zm12.977,2.711H22.1L20.543,41h-1.57l6.18-11.375h1.289L28.691,41H27.246ZM22.746,36.8h3.742l-.945-5.3ZM36.66,38.07q.172-1.25-1.3-1.828l-1.352-.492-.453-.2q-2.281-1.039-2.133-2.922a3.056,3.056,0,0,1,.648-1.672,3.69,3.69,0,0,1,1.512-1.121,4.849,4.849,0,0,1,2-.371,4,4,0,0,1,1.84.461,2.962,2.962,0,0,1,1.23,1.223,3.333,3.333,0,0,1,.375,1.77l-1.477-.008a2.025,2.025,0,0,0-.469-1.621,2.1,2.1,0,0,0-1.562-.59,2.914,2.914,0,0,0-1.789.5,1.951,1.951,0,0,0-.828,1.406q-.156,1.164,1.43,1.766l1.164.414.586.25a2.941,2.941,0,0,1,2.039,3.016,3.012,3.012,0,0,1-.648,1.66A3.626,3.626,0,0,1,35.953,40.8a5.266,5.266,0,0,1-2.074.359,4.339,4.339,0,0,1-1.957-.457,3.193,3.193,0,0,1-1.348-1.23,3.078,3.078,0,0,1-.406-1.773l1.469.008a1.935,1.935,0,0,0,.551,1.613,2.479,2.479,0,0,0,1.754.613,3.131,3.131,0,0,0,1.867-.492A1.916,1.916,0,0,0,36.66,38.07Zm12.289-7.211H45.41L43.652,41H42.191l1.758-10.141H40.41l.219-1.234h8.539Zm12.633,0H58.043L56.285,41H54.824l1.758-10.141H53.043l.219-1.234H61.8Zm7.109,4.883H63.91l-.7,4.031H68.77L68.551,41H61.527L63.5,29.625h6.945l-.219,1.234H64.754l-.633,3.656H68.9ZM78.918,41H77.5l-4.062-8.828L71.9,41H70.426L72.4,29.625h1.422l4.07,8.867,1.539-8.867h1.461Zm9.039-2.93q.172-1.25-1.3-1.828l-1.352-.492-.453-.2q-2.281-1.039-2.133-2.922a3.056,3.056,0,0,1,.648-1.672,3.69,3.69,0,0,1,1.512-1.121,4.849,4.849,0,0,1,2-.371,4,4,0,0,1,1.84.461,2.962,2.962,0,0,1,1.23,1.223,3.333,3.333,0,0,1,.375,1.77l-1.477-.008a2.025,2.025,0,0,0-.469-1.621,2.1,2.1,0,0,0-1.562-.59,2.914,2.914,0,0,0-1.789.5,1.951,1.951,0,0,0-.828,1.406q-.156,1.164,1.43,1.766l1.164.414.586.25a2.941,2.941,0,0,1,2.039,3.016,3.012,3.012,0,0,1-.648,1.66A3.626,3.626,0,0,1,87.25,40.8a5.266,5.266,0,0,1-2.074.359,4.339,4.339,0,0,1-1.957-.457,3.193,3.193,0,0,1-1.348-1.23,3.078,3.078,0,0,1-.406-1.773l1.469.008a1.935,1.935,0,0,0,.551,1.613,2.479,2.479,0,0,0,1.754.613,3.131,3.131,0,0,0,1.867-.492A1.916,1.916,0,0,0,87.957,38.07ZM98.02,35.742H93.238l-.7,4.031H98.1L97.879,41H90.855l1.977-11.375h6.945l-.219,1.234H94.082l-.633,3.656H98.23Zm6.234.672a14.789,14.789,0,0,1,.957-3.516,10.894,10.894,0,0,1,1.715-2.918,7.045,7.045,0,0,1,2.266-1.824l.211.969a8.108,8.108,0,0,0-2.105,2.387,12.281,12.281,0,0,0-1.355,3.5,16.834,16.834,0,0,0-.461,4,8.85,8.85,0,0,0,.418,2.848,4.494,4.494,0,0,0,1.207,1.941l-.352.875a5.641,5.641,0,0,1-2-2.68,10.335,10.335,0,0,1-.629-4.062,12.35,12.35,0,0,1,.109-1.43Zm4.8,4.586,1.977-11.375,3.336.008a3.793,3.793,0,0,1,2.609.781,2.5,2.5,0,0,1,.758,2.18,2.957,2.957,0,0,1-2.055,2.461,2.117,2.117,0,0,1,1.145,1.016,2.839,2.839,0,0,1,.309,1.586A3.318,3.318,0,0,1,115.9,40.1a4.456,4.456,0,0,1-2.891.9Zm2.391-5.32-.711,4.094,2.32.008a2.776,2.776,0,0,0,1.781-.57,2.223,2.223,0,0,0,.836-1.539,1.827,1.827,0,0,0-.32-1.437A1.743,1.743,0,0,0,114,35.688Zm.211-1.2,2.117.008a2.731,2.731,0,0,0,1.676-.508,1.989,1.989,0,0,0,.8-1.4,1.426,1.426,0,0,0-.324-1.25,2.078,2.078,0,0,0-1.41-.461l-2.234-.008Zm10.578,6.68a3.048,3.048,0,0,1-2.469-1.164,4.006,4.006,0,0,1-.75-2.9l.039-.336a5.624,5.624,0,0,1,.746-2.3,4.339,4.339,0,0,1,1.5-1.566,3.491,3.491,0,0,1,1.906-.5,2.688,2.688,0,0,1,2.047.867,3.566,3.566,0,0,1,.813,2.266,6.62,6.62,0,0,1-.031,1.016l-.086.648h-5.523a2.856,2.856,0,0,0,.379,1.953,1.8,1.8,0,0,0,1.551.836,3.007,3.007,0,0,0,2.313-1.125l.813.688a3.718,3.718,0,0,1-1.371,1.2A3.886,3.886,0,0,1,122.238,41.156Zm.9-7.586a2.066,2.066,0,0,0-1.527.594A4.22,4.22,0,0,0,120.574,36l4.109.008.031-.125a2.313,2.313,0,0,0-.316-1.637A1.488,1.488,0,0,0,123.137,33.57Zm9.2,7.43h-1.406l1.469-8.453H133.8ZM133.5,29.461a.774.774,0,0,1,.6.215.8.8,0,0,1,.238.605.834.834,0,0,1-.836.852.779.779,0,0,1-.6-.211.764.764,0,0,1-.227-.594.886.886,0,0,1,.234-.609A.826.826,0,0,1,133.5,29.461Zm3.953,3.078-.2,1.07a3.333,3.333,0,0,1,2.594-1.219,2.1,2.1,0,0,1,1.766.828,3.217,3.217,0,0,1,.422,2.242L141.105,41h-1.414l.93-5.562a2.968,2.968,0,0,0,.008-.711,1.168,1.168,0,0,0-1.289-1.117,2.661,2.661,0,0,0-2.234,1.359L136.059,41h-1.414l1.469-8.453ZM150.941,30.5l-.359,2.047h1.539l-.2,1.117h-1.531l-.883,5.258a1.833,1.833,0,0,0-.008.375.6.6,0,0,0,.664.609,4.05,4.05,0,0,0,.688-.078l-.109,1.18a3.847,3.847,0,0,1-1.031.141,1.476,1.476,0,0,1-1.266-.621,2.4,2.4,0,0,1-.328-1.629l.859-5.234h-1.492l.2-1.117h1.492l.359-2.047ZM155,33.578a3.275,3.275,0,0,1,2.555-1.18,2.058,2.058,0,0,1,1.762.816,3.217,3.217,0,0,1,.426,2.246L158.816,41H157.4l.93-5.562a2.968,2.968,0,0,0,.008-.711,1.168,1.168,0,0,0-1.289-1.117,2.6,2.6,0,0,0-2.234,1.359L153.77,41h-1.414l2.086-12h1.414Zm9.641,7.578a3.048,3.048,0,0,1-2.469-1.164,4.006,4.006,0,0,1-.75-2.9l.039-.336a5.624,5.624,0,0,1,.746-2.3,4.339,4.339,0,0,1,1.5-1.566,3.491,3.491,0,0,1,1.906-.5,2.688,2.688,0,0,1,2.047.867,3.566,3.566,0,0,1,.813,2.266,6.621,6.621,0,0,1-.031,1.016l-.086.648h-5.523a2.855,2.855,0,0,0,.379,1.953,1.8,1.8,0,0,0,1.551.836,3.007,3.007,0,0,0,2.313-1.125l.813.688a3.718,3.718,0,0,1-1.371,1.2A3.886,3.886,0,0,1,164.637,41.156Zm.9-7.586a2.066,2.066,0,0,0-1.527.594A4.22,4.22,0,0,0,162.973,36l4.109.008.031-.125a2.313,2.313,0,0,0-.316-1.637A1.488,1.488,0,0,0,165.535,33.57Zm15.32,3.242a6.707,6.707,0,0,1-.7,2.32,3.949,3.949,0,0,1-1.336,1.543,3.058,3.058,0,0,1-1.766.488,2.815,2.815,0,0,1-2.25-.992l-.758,4.078h-1.414l2.031-11.7,1.281-.008-.156.945a3.207,3.207,0,0,1,2.508-1.094,2.358,2.358,0,0,1,1.9.9,3.954,3.954,0,0,1,.719,2.391,8.414,8.414,0,0,1-.039.969Zm-1.391-.164.039-.656a2.975,2.975,0,0,0-.434-1.746,1.524,1.524,0,0,0-1.254-.637,2.507,2.507,0,0,0-2.117,1.164l-.711,4.055a1.769,1.769,0,0,0,1.711,1.156,2.223,2.223,0,0,0,1.793-.824A4.786,4.786,0,0,0,179.465,36.648ZM187.16,41a1.894,1.894,0,0,1-.055-.445l.023-.445a3.465,3.465,0,0,1-2.469,1.047,2.526,2.526,0,0,1-1.816-.707,2.14,2.14,0,0,1-.637-1.73,2.6,2.6,0,0,1,1.176-2.1,5.005,5.005,0,0,1,2.887-.754l1.477.008.094-.672a1.545,1.545,0,0,0-.293-1.2,1.414,1.414,0,0,0-1.113-.457,2.181,2.181,0,0,0-1.285.355,1.513,1.513,0,0,0-.684.98l-1.422.008a2.266,2.266,0,0,1,.578-1.316,3.363,3.363,0,0,1,1.3-.891,4.215,4.215,0,0,1,1.648-.3,2.8,2.8,0,0,1,2.055.8,2.484,2.484,0,0,1,.617,2.043l-.687,4.188-.039.6a2.949,2.949,0,0,0,.094.852L188.6,41Zm-2.219-1.094a2.466,2.466,0,0,0,1.285-.324,3.254,3.254,0,0,0,1.043-.941l.3-1.742-1.07-.008a4.054,4.054,0,0,0-2.047.422,1.554,1.554,0,0,0-.8,1.2,1.21,1.21,0,0,0,.277.988A1.321,1.321,0,0,0,184.941,39.906Zm10.8-1.2q.117-.875-.961-1.234l-1.469-.43q-1.859-.641-1.8-2.125a2.341,2.341,0,0,1,1.02-1.832,3.631,3.631,0,0,1,2.27-.7,3.027,3.027,0,0,1,2.082.746,2.363,2.363,0,0,1,.77,1.9l-1.406-.008a1.319,1.319,0,0,0-.4-1.031,1.576,1.576,0,0,0-1.1-.414,2.059,2.059,0,0,0-1.266.359,1.316,1.316,0,0,0-.57.922q-.1.734.9,1.07l.711.2a4.577,4.577,0,0,1,2.063.977,1.865,1.865,0,0,1,.563,1.492,2.37,2.37,0,0,1-.516,1.375,2.948,2.948,0,0,1-1.25.895,4.18,4.18,0,0,1-1.664.285,3.3,3.3,0,0,1-2.219-.785,2.427,2.427,0,0,1-.844-1.98l1.414.008a1.5,1.5,0,0,0,.453,1.141,1.732,1.732,0,0,0,1.242.43,2.436,2.436,0,0,0,1.336-.324A1.247,1.247,0,0,0,195.746,38.711Zm6.578-8.211-.359,2.047H203.5l-.2,1.117h-1.531l-.883,5.258a1.833,1.833,0,0,0-.008.375.6.6,0,0,0,.664.609,4.05,4.05,0,0,0,.688-.078l-.109,1.18a3.847,3.847,0,0,1-1.031.141,1.476,1.476,0,0,1-1.266-.621A2.4,2.4,0,0,1,199.5,38.9l.859-5.234h-1.492l.2-1.117h1.492l.359-2.047Zm10.031,1.891a3.047,3.047,0,0,1,1.82.578A3.285,3.285,0,0,1,215.3,34.52a4.8,4.8,0,0,1,.246,2.16l-.016.172a5.685,5.685,0,0,1-.734,2.23,4.309,4.309,0,0,1-1.516,1.551,3.7,3.7,0,0,1-2.039.523,3.052,3.052,0,0,1-1.816-.578,3.21,3.21,0,0,1-1.113-1.531,4.931,4.931,0,0,1-.25-2.133,5.76,5.76,0,0,1,.711-2.359,4.409,4.409,0,0,1,1.527-1.621A3.652,3.652,0,0,1,212.355,32.391Zm-2.875,4.531a4.8,4.8,0,0,0,0,1.023,2.507,2.507,0,0,0,.551,1.469,1.653,1.653,0,0,0,1.262.57,2.253,2.253,0,0,0,1.3-.348,2.919,2.919,0,0,0,1-1.121,4.721,4.721,0,0,0,.523-1.664,7.493,7.493,0,0,0,.023-1.211,2.6,2.6,0,0,0-.57-1.492,1.69,1.69,0,0,0-1.266-.578,2.3,2.3,0,0,0-1.859.859,4.245,4.245,0,0,0-.945,2.313Zm12.367-3.086-.664-.07a2.42,2.42,0,0,0-2.141,1.227L218,41H216.59l1.469-8.453,1.367-.008-.211.984a2.527,2.527,0,0,1,2.117-1.148,2.594,2.594,0,0,1,.672.117ZM231.012,41a1.894,1.894,0,0,1-.055-.445l.023-.445a3.465,3.465,0,0,1-2.469,1.047,2.526,2.526,0,0,1-1.816-.707,2.14,2.14,0,0,1-.637-1.73,2.6,2.6,0,0,1,1.176-2.1,5.005,5.005,0,0,1,2.887-.754l1.477.008.094-.672A1.545,1.545,0,0,0,231.4,34a1.414,1.414,0,0,0-1.113-.457A2.181,2.181,0,0,0,229,33.9a1.513,1.513,0,0,0-.684.98l-1.422.008a2.266,2.266,0,0,1,.578-1.316,3.363,3.363,0,0,1,1.3-.891,4.215,4.215,0,0,1,1.648-.3,2.8,2.8,0,0,1,2.055.8,2.484,2.484,0,0,1,.617,2.043l-.687,4.188-.039.6a2.949,2.949,0,0,0,.094.852l-.016.133Zm-2.219-1.094a2.466,2.466,0,0,0,1.285-.324,3.254,3.254,0,0,0,1.043-.941l.3-1.742-1.07-.008a4.054,4.054,0,0,0-2.047.422,1.554,1.554,0,0,0-.8,1.2,1.21,1.21,0,0,0,.277.988A1.321,1.321,0,0,0,228.793,39.906Zm8.375-7.367-.2,1.07a3.333,3.333,0,0,1,2.594-1.219,2.1,2.1,0,0,1,1.766.828,3.217,3.217,0,0,1,.422,2.242L240.824,41H239.41l.93-5.562a2.968,2.968,0,0,0,.008-.711,1.168,1.168,0,0,0-1.289-1.117,2.661,2.661,0,0,0-2.234,1.359L235.777,41h-1.414l1.469-8.453Zm8.867,6.328,3.008-6.32h1.563l-5.016,9.859q-1.047,2.055-2.687,2.031a4.6,4.6,0,0,1-.852-.141l.125-1.172.367.039a1.853,1.853,0,0,0,1.16-.3,2.772,2.772,0,0,0,.863-1.074l.508-.969-1.461-8.273h1.477ZM74.117,63.023l3.047-6.477h1.492L74.4,65H73.32l-1.656-8.453h1.391Zm8.18,2.133a3.048,3.048,0,0,1-2.469-1.164,4.006,4.006,0,0,1-.75-2.9l.039-.336a5.624,5.624,0,0,1,.746-2.3,4.339,4.339,0,0,1,1.5-1.566,3.491,3.491,0,0,1,1.906-.5,2.688,2.688,0,0,1,2.047.867,3.566,3.566,0,0,1,.813,2.266,6.62,6.62,0,0,1-.031,1.016l-.086.648H80.484a2.856,2.856,0,0,0,.379,1.953,1.8,1.8,0,0,0,1.551.836,3.007,3.007,0,0,0,2.313-1.125l.813.688a3.718,3.718,0,0,1-1.371,1.2A3.886,3.886,0,0,1,82.3,65.156Zm.9-7.586a2.066,2.066,0,0,0-1.527.594A4.22,4.22,0,0,0,80.633,60l4.109.008.031-.125a2.313,2.313,0,0,0-.316-1.637A1.488,1.488,0,0,0,83.2,57.57Zm9,.266-.664-.07a2.42,2.42,0,0,0-2.141,1.227L88.352,65H86.938l1.469-8.453,1.367-.008-.211.984a2.527,2.527,0,0,1,2.117-1.148,2.594,2.594,0,0,1,.672.117Zm7.742,2.977a6.586,6.586,0,0,1-.711,2.336,3.982,3.982,0,0,1-1.344,1.539,3.058,3.058,0,0,1-1.75.477,2.61,2.61,0,0,1-2.273-1.148L93.57,65h-1.3l2.086-12h1.414l-.852,4.484a3.107,3.107,0,0,1,2.469-1.094,2.358,2.358,0,0,1,1.9.9A3.954,3.954,0,0,1,100,59.68a7.362,7.362,0,0,1-.047.969Zm-1.344-.82a3.015,3.015,0,0,0-.383-1.746,1.464,1.464,0,0,0-1.242-.637,2.573,2.573,0,0,0-2.234,1.328l-.633,3.68a1.8,1.8,0,0,0,1.758,1.32,2.053,2.053,0,0,0,1.449-.492,3.216,3.216,0,0,0,.941-1.465A6.594,6.594,0,0,0,98.594,59.992ZM106.508,65H105.1l1.469-8.453h1.406Zm1.164-11.539a.774.774,0,0,1,.6.215.8.8,0,0,1,.238.605.834.834,0,0,1-.836.852.779.779,0,0,1-.6-.211.764.764,0,0,1-.227-.594.886.886,0,0,1,.234-.609A.826.826,0,0,1,107.672,53.461Zm3.953,3.078-.2,1.07a3.333,3.333,0,0,1,2.594-1.219,2.1,2.1,0,0,1,1.766.828,3.217,3.217,0,0,1,.422,2.242L115.281,65h-1.414l.93-5.562a2.968,2.968,0,0,0,.008-.711,1.168,1.168,0,0,0-1.289-1.117,2.661,2.661,0,0,0-2.234,1.359L110.234,65H108.82l1.469-8.453ZM125.117,54.5l-.359,2.047H126.3l-.2,1.117H124.57l-.883,5.258a1.833,1.833,0,0,0-.008.375.6.6,0,0,0,.664.609,4.05,4.05,0,0,0,.688-.078l-.109,1.18a3.847,3.847,0,0,1-1.031.141,1.476,1.476,0,0,1-1.266-.621A2.4,2.4,0,0,1,122.3,62.9l.859-5.234h-1.492l.2-1.117h1.492l.359-2.047Zm4.055,3.078a3.275,3.275,0,0,1,2.555-1.18,2.058,2.058,0,0,1,1.762.816,3.217,3.217,0,0,1,.426,2.246L132.992,65h-1.414l.93-5.562a2.968,2.968,0,0,0,.008-.711,1.168,1.168,0,0,0-1.289-1.117,2.6,2.6,0,0,0-2.234,1.359L127.945,65h-1.414l2.086-12h1.414Zm9.641,7.578a3.048,3.048,0,0,1-2.469-1.164,4.006,4.006,0,0,1-.75-2.9l.039-.336a5.624,5.624,0,0,1,.746-2.3,4.339,4.339,0,0,1,1.5-1.566,3.491,3.491,0,0,1,1.906-.5,2.688,2.688,0,0,1,2.047.867,3.566,3.566,0,0,1,.813,2.266,6.621,6.621,0,0,1-.031,1.016l-.086.648H137a2.855,2.855,0,0,0,.379,1.953,1.8,1.8,0,0,0,1.551.836,3.007,3.007,0,0,0,2.313-1.125l.813.688a3.718,3.718,0,0,1-1.371,1.2A3.886,3.886,0,0,1,138.813,65.156Zm.9-7.586a2.066,2.066,0,0,0-1.527.594A4.22,4.22,0,0,0,137.148,60l4.109.008.031-.125a2.313,2.313,0,0,0-.316-1.637A1.488,1.488,0,0,0,139.711,57.57Zm15.32,3.242a6.707,6.707,0,0,1-.7,2.32A3.949,3.949,0,0,1,153,64.676a3.058,3.058,0,0,1-1.766.488,2.815,2.815,0,0,1-2.25-.992l-.758,4.078h-1.414l2.031-11.7,1.281-.008-.156.945a3.207,3.207,0,0,1,2.508-1.094,2.358,2.358,0,0,1,1.9.9,3.954,3.954,0,0,1,.719,2.391,8.414,8.414,0,0,1-.039.969Zm-1.391-.164.039-.656a2.975,2.975,0,0,0-.434-1.746,1.524,1.524,0,0,0-1.254-.637,2.507,2.507,0,0,0-2.117,1.164l-.711,4.055a1.769,1.769,0,0,0,1.711,1.156,2.223,2.223,0,0,0,1.793-.824A4.786,4.786,0,0,0,153.641,60.648Zm7.7,4.352a1.894,1.894,0,0,1-.055-.445l.023-.445a3.465,3.465,0,0,1-2.469,1.047,2.526,2.526,0,0,1-1.816-.707,2.14,2.14,0,0,1-.637-1.73,2.6,2.6,0,0,1,1.176-2.1,5.005,5.005,0,0,1,2.887-.754l1.477.008.094-.672a1.545,1.545,0,0,0-.293-1.2,1.414,1.414,0,0,0-1.113-.457,2.181,2.181,0,0,0-1.285.355,1.513,1.513,0,0,0-.684.98l-1.422.008a2.266,2.266,0,0,1,.578-1.316,3.363,3.363,0,0,1,1.3-.891,4.215,4.215,0,0,1,1.648-.3,2.8,2.8,0,0,1,2.055.8,2.484,2.484,0,0,1,.617,2.043l-.687,4.188-.039.6a2.949,2.949,0,0,0,.094.852l-.016.133Zm-2.219-1.094a2.466,2.466,0,0,0,1.285-.324,3.254,3.254,0,0,0,1.043-.941l.3-1.742-1.07-.008a4.054,4.054,0,0,0-2.047.422,1.554,1.554,0,0,0-.8,1.2,1.21,1.21,0,0,0,.277.988A1.321,1.321,0,0,0,159.117,63.906Zm10.8-1.2q.117-.875-.961-1.234l-1.469-.43q-1.859-.641-1.8-2.125a2.341,2.341,0,0,1,1.02-1.832,3.631,3.631,0,0,1,2.27-.7,3.027,3.027,0,0,1,2.082.746,2.363,2.363,0,0,1,.77,1.9l-1.406-.008a1.319,1.319,0,0,0-.4-1.031,1.576,1.576,0,0,0-1.1-.414,2.059,2.059,0,0,0-1.266.359,1.316,1.316,0,0,0-.57.922q-.1.734.9,1.07l.711.2a4.577,4.577,0,0,1,2.063.977,1.865,1.865,0,0,1,.563,1.492,2.37,2.37,0,0,1-.516,1.375,2.948,2.948,0,0,1-1.25.895,4.18,4.18,0,0,1-1.664.285,3.3,3.3,0,0,1-2.219-.785,2.427,2.427,0,0,1-.844-1.98l1.414.008a1.5,1.5,0,0,0,.453,1.141,1.732,1.732,0,0,0,1.242.43,2.436,2.436,0,0,0,1.336-.324A1.247,1.247,0,0,0,169.922,62.711ZM176.5,54.5l-.359,2.047h1.539l-.2,1.117h-1.531l-.883,5.258a1.833,1.833,0,0,0-.008.375.6.6,0,0,0,.664.609,4.05,4.05,0,0,0,.688-.078l-.109,1.18a3.847,3.847,0,0,1-1.031.141,1.476,1.476,0,0,1-1.266-.621,2.4,2.4,0,0,1-.328-1.629l.859-5.234h-1.492l.2-1.117h1.492l.359-2.047Zm5.445,5.93a14.5,14.5,0,0,1-.992,3.605A10.841,10.841,0,0,1,179.23,66.9a7.163,7.163,0,0,1-2.223,1.777l-.219-.9q2.68-2.016,3.578-6.477a16.834,16.834,0,0,0,.344-3.461q-.039-3.352-1.625-4.8l.367-.875a5.179,5.179,0,0,1,1.48,1.621,7.645,7.645,0,0,1,.891,2.352,12.043,12.043,0,0,1,.254,2.777,13.344,13.344,0,0,1-.117,1.43ZM187,67.273l-.812-.586a5.16,5.16,0,0,0,1.125-2.219l.2-1.18H188.9l-.164,1.055A4.521,4.521,0,0,1,187,67.273Z" transform="translate(423 4373)" fill="#12263f"/>
      </g>
      <path id="Trazado_170558" data-name="Trazado 170558" d="M10.438,34H4.969V11.25h5.469Zm4.734,0V20.75H12.719V17.094h2.453V15.75a5.841,5.841,0,0,1,1.7-4.484,6.729,6.729,0,0,1,4.781-1.594A10.47,10.47,0,0,1,24.125,10l.016,3.875a4.81,4.81,0,0,0-1.3-.141q-2.391,0-2.391,2.063v1.3h3.3V20.75h-3.3V34Z" transform="translate(363 4388)" fill="#12263f"/>
      <path id="Trazado_170560" data-name="Trazado 170560" d="M3.016,40.125.359,38.875l.531-1.062a8.666,8.666,0,0,0,1.141-3.875V30.031H6.25l-.016,3.391a8.475,8.475,0,0,1-.922,3.656A9.29,9.29,0,0,1,3.016,40.125Z" transform="translate(721 4388)" fill="#12263f"/>
      <path id="Trazado_170562" data-name="Trazado 170562" d="M3.9,28.891a3,3,0,0,1,2.078.742,2.59,2.59,0,0,1,0,3.8,3,3,0,0,1-2.078.742,2.972,2.972,0,0,1-2.086-.75,2.589,2.589,0,0,1,0-3.781A2.972,2.972,0,0,1,3.9,28.891Z" transform="translate(1030 4388)" fill="#12263f"/>
      <g id="Grupo_170877" data-name="Grupo 170877">
        <rect id="Rectángulo_41041" data-name="Rectángulo 41041" width="270" height="77" rx="10" transform="translate(747 4368)" fill="#ffe891"/>
        <path id="Trazado_170561" data-name="Trazado 170561" d="M99.406,12.836H97.547L96.82,17H94.531L96.508,5.625l3.766.008a4.289,4.289,0,0,1,2.91.891,2.817,2.817,0,0,1,.9,2.477,3.574,3.574,0,0,1-2.5,3.258l1.6,4.617V17H100.75Zm-1.531-1.9,1.7.016a2.386,2.386,0,0,0,1.5-.488,1.933,1.933,0,0,0,.707-1.285,1.473,1.473,0,0,0-.242-1.187,1.442,1.442,0,0,0-1.117-.461l-1.953-.008Zm14.148,1.133h-4.359l-.531,3.047h5.125L111.93,17h-7.414l1.977-11.375h7.4l-.336,1.9h-5.1l-.477,2.711h4.375Zm7.555,1.891q.164-.93-.914-1.422l-1.508-.6q-2.625-1.172-2.492-3.227a2.964,2.964,0,0,1,.625-1.687,3.758,3.758,0,0,1,1.6-1.152,5.67,5.67,0,0,1,2.227-.4,3.857,3.857,0,0,1,2.664.98,3.267,3.267,0,0,1,1,2.543H120.5a1.628,1.628,0,0,0-.34-1.2,1.531,1.531,0,0,0-1.176-.445,2.37,2.37,0,0,0-1.359.355,1.458,1.458,0,0,0-.687,1.02q-.148.852,1.141,1.352l1.031.391.594.273q2.3,1.141,2.156,3.2a3.09,3.09,0,0,1-.645,1.738,3.633,3.633,0,0,1-1.562,1.121,5.565,5.565,0,0,1-2.176.367,4.873,4.873,0,0,1-2.156-.508,3.349,3.349,0,0,1-1.437-1.367,3.54,3.54,0,0,1-.43-1.875l2.289.008q-.109,1.852,1.82,1.883a2.392,2.392,0,0,0,1.375-.367A1.43,1.43,0,0,0,119.578,13.961Zm13.734-8.336-1.281,7.5a4.571,4.571,0,0,1-1.562,2.977,4.7,4.7,0,0,1-3.219,1.063,4.335,4.335,0,0,1-2.09-.527,3.077,3.077,0,0,1-1.309-1.422,3.855,3.855,0,0,1-.289-2.082l1.273-7.508h2.289l-1.273,7.516a3.339,3.339,0,0,0-.008.82,1.385,1.385,0,0,0,1.508,1.313,2.154,2.154,0,0,0,1.586-.531,2.721,2.721,0,0,0,.8-1.609l1.281-7.508Zm2.539,9.492h4.828L140.352,17h-7.117l1.977-11.375H137.5Zm14.227-7.594H146.7L145.063,17h-2.289l1.641-9.477h-3.336l.336-1.9h9ZM19.68,37.492l-.031,1.375.531-1.344,3.4-7.9H24.82l.9,8,.078,1.3.492-1.57L29.2,29.625H30.7L26.25,41H24.914l-.984-8.352-.031-.781-.328.906L19.945,41H18.609l-.891-11.375h1.43Zm14.992,3.664a3.642,3.642,0,0,1-1.887-.523,3.391,3.391,0,0,1-1.262-1.473,5.548,5.548,0,0,1-.508-2.184,10.371,10.371,0,0,1,.211-2.336,8.011,8.011,0,0,1,.891-2.508,5.651,5.651,0,0,1,1.539-1.789,4.43,4.43,0,0,1,2.8-.875,3.365,3.365,0,0,1,2.625,1.152,4.792,4.792,0,0,1,1.031,3.035,11.175,11.175,0,0,1-.168,2.086,8.636,8.636,0,0,1-.711,2.352,5.869,5.869,0,0,1-1.3,1.82A4.474,4.474,0,0,1,34.672,41.156Zm3.992-7.141a3.942,3.942,0,0,0-.539-2.387,2.052,2.052,0,0,0-1.742-.879,2.963,2.963,0,0,0-1.871.563A4.258,4.258,0,0,0,33.16,33.09a9.158,9.158,0,0,0-.668,3l-.023.508a3.976,3.976,0,0,0,.547,2.4,2.035,2.035,0,0,0,1.727.9,3.009,3.009,0,0,0,2.449-1.066,6.057,6.057,0,0,0,1.293-3.105A13.992,13.992,0,0,0,38.664,34.016Zm12.375-4.391-1.312,7.7A4.368,4.368,0,0,1,48.2,40.145a4.5,4.5,0,0,1-3.055,1.02,3.956,3.956,0,0,1-1.941-.5,2.9,2.9,0,0,1-1.215-1.352,3.69,3.69,0,0,1-.258-1.98l1.313-7.7h1.445l-1.3,7.711a2.492,2.492,0,0,0,.406,1.879,2.031,2.031,0,0,0,1.633.715,2.813,2.813,0,0,0,2-.645,3.122,3.122,0,0,0,1.027-1.941l1.313-7.719Zm2.039,10.148h5.234L58.094,41h-6.7l1.977-11.375h1.477ZM59.82,41,61.8,29.625l2.953.008a4.1,4.1,0,0,1,2.395.7,3.835,3.835,0,0,1,1.441,1.918,5.962,5.962,0,0,1,.258,2.738l-.078.57a6.432,6.432,0,0,1-1.93,3.965A5.611,5.611,0,0,1,62.852,41Zm3.227-10.141L61.5,39.773l1.445.008a4.061,4.061,0,0,0,2.809-1.031,4.9,4.9,0,0,0,1.5-2.828,9.2,9.2,0,0,0,.188-2.445,2.978,2.978,0,0,0-.8-1.895,2.605,2.605,0,0,0-1.844-.715Zm11.9,4.039h3.078l-.242,1.367h-3.07l-.625,3.594H72.664l.625-3.594H70.211l.242-1.367h3.07l.578-3.32h1.422Zm8.031,4.094,4.617-9.367H89.25L83.375,41h-1.3l-2.3-11.375h1.539Zm13.094-3.25H91.289l-.7,4.031h5.563L95.93,41H88.906l1.977-11.375h6.945l-.219,1.234H92.133L91.5,34.516h4.781Zm6.625.656H100.07l-.8,4.6H97.8l1.977-11.375,3.422.008a3.816,3.816,0,0,1,2.727.906,2.825,2.825,0,0,1,.789,2.445,3.235,3.235,0,0,1-.777,1.883,4.247,4.247,0,0,1-1.84,1.227l1.766,4.8-.008.1h-1.562Zm-2.414-1.227,2.156.008a3.012,3.012,0,0,0,1.9-.6,2.326,2.326,0,0,0,.906-1.6,1.837,1.837,0,0,0-.391-1.531,2.087,2.087,0,0,0-1.547-.586l-2.273-.008ZM107.438,41l1.977-11.375,3.336.008a3.793,3.793,0,0,1,2.609.781,2.5,2.5,0,0,1,.758,2.18,2.957,2.957,0,0,1-2.055,2.461,2.117,2.117,0,0,1,1.145,1.016,2.839,2.839,0,0,1,.309,1.586,3.318,3.318,0,0,1-1.234,2.441,4.456,4.456,0,0,1-2.891.9Zm2.391-5.32-.711,4.094,2.32.008a2.776,2.776,0,0,0,1.781-.57,2.223,2.223,0,0,0,.836-1.539,1.827,1.827,0,0,0-.32-1.437,1.743,1.743,0,0,0-1.352-.547Zm.211-1.2,2.117.008a2.731,2.731,0,0,0,1.676-.508,1.989,1.989,0,0,0,.8-1.4,1.426,1.426,0,0,0-.324-1.25,2.078,2.078,0,0,0-1.41-.461l-2.234-.008Zm11.641,1.938a14.789,14.789,0,0,1,.957-3.516,10.894,10.894,0,0,1,1.715-2.918,7.045,7.045,0,0,1,2.266-1.824l.211.969a8.108,8.108,0,0,0-2.105,2.387,12.281,12.281,0,0,0-1.355,3.5,16.834,16.834,0,0,0-.461,4,8.85,8.85,0,0,0,.418,2.848,4.494,4.494,0,0,0,1.207,1.941l-.352.875a5.641,5.641,0,0,1-2-2.68,10.335,10.335,0,0,1-.629-4.062,12.35,12.35,0,0,1,.109-1.43ZM128.055,41h-1.461l1.977-11.375h1.461Zm5.313-8.461-.2,1.07a3.333,3.333,0,0,1,2.594-1.219,2.1,2.1,0,0,1,1.766.828,3.217,3.217,0,0,1,.422,2.242L137.023,41h-1.414l.93-5.562a2.968,2.968,0,0,0,.008-.711,1.168,1.168,0,0,0-1.289-1.117,2.661,2.661,0,0,0-2.234,1.359L131.977,41h-1.414l1.469-8.453Zm6.3,8.461,1.273-7.336h-1.3l.2-1.117,1.3-.008.109-.781a3.2,3.2,0,0,1,3.414-2.937,4.73,4.73,0,0,1,1.074.152q.52.137,1.066.324l-.344,1.234a4.425,4.425,0,0,0-1.75-.414,1.834,1.834,0,0,0-2.055,1.75l-.1.68h1.68l-.2,1.117h-1.672L141.094,41Zm5.859,0h-1.422l1.469-8.453H147Zm5.148-8.461-.2,1.07a3.333,3.333,0,0,1,2.594-1.219,2.1,2.1,0,0,1,1.766.828,3.217,3.217,0,0,1,.422,2.242L154.336,41h-1.414l.93-5.562a2.968,2.968,0,0,0,.008-.711,1.168,1.168,0,0,0-1.289-1.117,2.661,2.661,0,0,0-2.234,1.359L149.289,41h-1.414l1.469-8.453ZM158.047,41h-1.406l1.469-8.453h1.406Zm1.164-11.539a.774.774,0,0,1,.6.215.8.8,0,0,1,.238.605.834.834,0,0,1-.836.852.779.779,0,0,1-.6-.211.764.764,0,0,1-.227-.594.886.886,0,0,1,.234-.609A.826.826,0,0,1,159.211,29.461Zm4.883,1.039-.359,2.047h1.539l-.2,1.117h-1.531l-.883,5.258a1.833,1.833,0,0,0-.008.375.6.6,0,0,0,.664.609,4.05,4.05,0,0,0,.688-.078l-.109,1.18a3.847,3.847,0,0,1-1.031.141,1.476,1.476,0,0,1-1.266-.621,2.4,2.4,0,0,1-.328-1.629l.859-5.234h-1.492l.2-1.117h1.492l.359-2.047ZM167.039,41h-1.406l1.469-8.453h1.406ZM168.2,29.461a.774.774,0,0,1,.6.215.8.8,0,0,1,.238.605.834.834,0,0,1-.836.852.779.779,0,0,1-.6-.211.764.764,0,0,1-.227-.594.886.886,0,0,1,.234-.609A.826.826,0,0,1,168.2,29.461Zm4.219,9.563,3.047-6.477h1.492L172.7,41h-1.078l-1.656-8.453h1.391Zm8.18,2.133a3.048,3.048,0,0,1-2.469-1.164,4.006,4.006,0,0,1-.75-2.9l.039-.336a5.624,5.624,0,0,1,.746-2.3,4.339,4.339,0,0,1,1.5-1.566,3.491,3.491,0,0,1,1.906-.5,2.688,2.688,0,0,1,2.047.867,3.566,3.566,0,0,1,.813,2.266,6.621,6.621,0,0,1-.031,1.016l-.086.648h-5.523a2.855,2.855,0,0,0,.379,1.953,1.8,1.8,0,0,0,1.551.836,3.007,3.007,0,0,0,2.313-1.125l.813.688a3.718,3.718,0,0,1-1.371,1.2A3.886,3.886,0,0,1,180.6,41.156Zm.9-7.586a2.066,2.066,0,0,0-1.527.594A4.22,4.22,0,0,0,178.938,36l4.109.008.031-.125a2.313,2.313,0,0,0-.316-1.637A1.488,1.488,0,0,0,181.5,33.57ZM189.852,41l1.281-7.336h-1.3l.2-1.117h1.3l.141-1a3.318,3.318,0,0,1,.984-1.992,2.926,2.926,0,0,1,2.094-.734,4.914,4.914,0,0,1,1.008.133l-.172,1.18a4.636,4.636,0,0,0-.758-.094,1.611,1.611,0,0,0-1.191.457,2.083,2.083,0,0,0-.566,1.215l-.125.836h1.75l-.2,1.117h-1.75L191.266,41Zm9.477-8.609a3.047,3.047,0,0,1,1.82.578,3.285,3.285,0,0,1,1.121,1.551,4.8,4.8,0,0,1,.246,2.16l-.016.172a5.685,5.685,0,0,1-.734,2.23,4.309,4.309,0,0,1-1.516,1.551,3.7,3.7,0,0,1-2.039.523,3.052,3.052,0,0,1-1.816-.578,3.21,3.21,0,0,1-1.113-1.531,4.931,4.931,0,0,1-.25-2.133,5.76,5.76,0,0,1,.711-2.359,4.409,4.409,0,0,1,1.527-1.621A3.652,3.652,0,0,1,199.328,32.391Zm-2.875,4.531a4.8,4.8,0,0,0,0,1.023A2.507,2.507,0,0,0,197,39.414a1.653,1.653,0,0,0,1.262.57,2.253,2.253,0,0,0,1.3-.348,2.919,2.919,0,0,0,1-1.121,4.721,4.721,0,0,0,.523-1.664,7.493,7.493,0,0,0,.023-1.211,2.6,2.6,0,0,0-.57-1.492,1.69,1.69,0,0,0-1.266-.578,2.3,2.3,0,0,0-1.859.859,4.245,4.245,0,0,0-.945,2.313Zm12.367-3.086-.664-.07a2.42,2.42,0,0,0-2.141,1.227L204.977,41h-1.414l1.469-8.453,1.367-.008-.211.984a2.527,2.527,0,0,1,2.117-1.148,2.594,2.594,0,0,1,.672.117Zm2.859-1.3-.18.945a3.305,3.305,0,0,1,2.57-1.094,2.608,2.608,0,0,1,1.363.367,1.8,1.8,0,0,1,.77.992,3.49,3.49,0,0,1,2.8-1.359,2.235,2.235,0,0,1,1.867.852,3.042,3.042,0,0,1,.445,2.2L220.391,41h-1.406l.922-5.57a2.943,2.943,0,0,0,0-.742q-.148-1.062-1.391-1.086a2.136,2.136,0,0,0-1.4.48,2.222,2.222,0,0,0-.809,1.3L215.344,41h-1.422l.938-5.562A1.786,1.786,0,0,0,214.6,34.1a1.377,1.377,0,0,0-1.129-.484,2.315,2.315,0,0,0-2.1,1.2L210.3,41h-1.414l1.469-8.453ZM226.6,36.43a14.5,14.5,0,0,1-.992,3.605,10.841,10.841,0,0,1-1.723,2.867,7.163,7.163,0,0,1-2.223,1.777l-.219-.9q2.68-2.016,3.578-6.477a16.834,16.834,0,0,0,.344-3.461q-.039-3.352-1.625-4.8l.367-.875a5.179,5.179,0,0,1,1.48,1.621,7.645,7.645,0,0,1,.891,2.352,12.043,12.043,0,0,1,.254,2.777,13.344,13.344,0,0,1-.117,1.43Z" transform="translate(760 4385)" fill="#12263f"/>
      </g>
    </g>
    <g id="Grupo_170879" data-name="Grupo 170879" transform="translate(10)">
      <g id="Grupo_170875" data-name="Grupo 170875" transform="translate(-39)">
        <rect id="Rectángulo_43295" data-name="Rectángulo 43295" width="295" height="97" rx="10" transform="translate(742 4519)" fill="#a6bbff"/>
        <rect id="Rectángulo_43294" data-name="Rectángulo 43294" width="270" height="77" rx="10" transform="translate(423 4529)" fill="#ffe891"/>
        <path id="Trazado_170566" data-name="Trazado 170566" d="M98.461,13.2a4.254,4.254,0,0,1-.8,2.09,4.375,4.375,0,0,1-1.75,1.4,5.329,5.329,0,0,1-2.328.465,3.936,3.936,0,0,1-1.961-.52A3.443,3.443,0,0,1,90.3,15.2a5.312,5.312,0,0,1-.543-2.168,10.634,10.634,0,0,1,.2-2.391A7.578,7.578,0,0,1,90.863,8.1a5.666,5.666,0,0,1,1.551-1.758A4.679,4.679,0,0,1,95.3,5.469a3.839,3.839,0,0,1,2.8,1.09A4.384,4.384,0,0,1,99.242,9.5l-2.281-.008a2.391,2.391,0,0,0-.43-1.578A1.753,1.753,0,0,0,95.2,7.383a2.319,2.319,0,0,0-1.926.836,5.027,5.027,0,0,0-1.012,2.555,14.155,14.155,0,0,0-.219,2.445,2.434,2.434,0,0,0,.461,1.52,1.543,1.543,0,0,0,1.18.512,2.356,2.356,0,0,0,1.676-.5,2.625,2.625,0,0,0,.832-1.535Zm5.531,3.953a4.008,4.008,0,0,1-2-.535,3.612,3.612,0,0,1-1.367-1.477,5.468,5.468,0,0,1-.582-2.215,8.9,8.9,0,0,1,.273-2.734,7.3,7.3,0,0,1,1.156-2.555,5.256,5.256,0,0,1,1.871-1.648,4.844,4.844,0,0,1,2.324-.523,3.966,3.966,0,0,1,2.008.543A3.587,3.587,0,0,1,109.031,7.5a5.532,5.532,0,0,1,.563,2.207,9.188,9.188,0,0,1-.3,2.828,7.177,7.177,0,0,1-1.164,2.516,5.216,5.216,0,0,1-1.848,1.594A4.83,4.83,0,0,1,103.992,17.156ZM107.234,11l.063-.742a3.626,3.626,0,0,0-.371-2.109,1.567,1.567,0,0,0-1.363-.75,2.473,2.473,0,0,0-2.27,1.266,7.455,7.455,0,0,0-.949,3.672,3.762,3.762,0,0,0,.367,2.129,1.563,1.563,0,0,0,1.383.777,2.345,2.345,0,0,0,2.031-.957,5.79,5.79,0,0,0,1.055-2.863Zm11.977,6h-2.219l-3.164-7.586L112.508,17h-2.289L112.2,5.625h2.211l3.172,7.6,1.32-7.6h2.281Zm2.047,0,1.977-11.375,3.266.008a4.473,4.473,0,0,1,2.066.52,3.905,3.905,0,0,1,1.488,1.426,4.883,4.883,0,0,1,.688,2.094,6.911,6.911,0,0,1-.016,1.391l-.055.414a6.5,6.5,0,0,1-1.965,4.012A5.558,5.558,0,0,1,124.773,17ZM125.2,7.523l-1.32,7.594.953.008a3.127,3.127,0,0,0,2.535-1.156,5.976,5.976,0,0,0,1.1-3.492l.016-.25a3.151,3.151,0,0,0-.492-1.977,1.879,1.879,0,0,0-1.539-.719ZM133.859,17H131.57l1.969-11.375h2.289Zm12.125-9.477h-3.375L140.969,17H138.68l1.641-9.477h-3.336l.336-1.9h9ZM148.141,17h-2.289L147.82,5.625h2.289Zm6.734.156a4.008,4.008,0,0,1-2-.535,3.612,3.612,0,0,1-1.367-1.477,5.468,5.468,0,0,1-.582-2.215A8.9,8.9,0,0,1,151.2,10.2a7.3,7.3,0,0,1,1.156-2.555,5.256,5.256,0,0,1,1.871-1.648,4.844,4.844,0,0,1,2.324-.523,3.966,3.966,0,0,1,2.008.543A3.587,3.587,0,0,1,159.914,7.5a5.532,5.532,0,0,1,.563,2.207,9.188,9.188,0,0,1-.3,2.828,7.177,7.177,0,0,1-1.164,2.516,5.216,5.216,0,0,1-1.848,1.594A4.83,4.83,0,0,1,154.875,17.156ZM158.117,11l.063-.742a3.626,3.626,0,0,0-.371-2.109,1.567,1.567,0,0,0-1.363-.75,2.472,2.472,0,0,0-2.27,1.266,7.455,7.455,0,0,0-.949,3.672,3.762,3.762,0,0,0,.367,2.129,1.563,1.563,0,0,0,1.383.777,2.345,2.345,0,0,0,2.031-.957,5.79,5.79,0,0,0,1.055-2.863Zm11.977,6h-2.219l-3.164-7.586L163.391,17H161.1l1.977-11.375h2.211l3.172,7.6,1.32-7.6h2.281ZM13.52,36.547,12.746,41H11.277l1.977-11.375,3.8.008a3.713,3.713,0,0,1,2.711.934,2.937,2.937,0,0,1,.82,2.48,3.541,3.541,0,0,1-1.3,2.57,4.718,4.718,0,0,1-3.059.938Zm.211-1.227,2.531.008a3.079,3.079,0,0,0,1.961-.6,2.407,2.407,0,0,0,.9-1.672,1.886,1.886,0,0,0-.4-1.559,2.005,2.005,0,0,0-1.523-.629l-2.7-.008Zm12.977,2.711H22.1L20.543,41h-1.57l6.18-11.375h1.289L28.691,41H27.246ZM22.746,36.8h3.742l-.945-5.3ZM36.66,38.07q.172-1.25-1.3-1.828l-1.352-.492-.453-.2q-2.281-1.039-2.133-2.922a3.056,3.056,0,0,1,.648-1.672,3.69,3.69,0,0,1,1.512-1.121,4.849,4.849,0,0,1,2-.371,4,4,0,0,1,1.84.461,2.962,2.962,0,0,1,1.23,1.223,3.333,3.333,0,0,1,.375,1.77l-1.477-.008a2.025,2.025,0,0,0-.469-1.621,2.1,2.1,0,0,0-1.562-.59,2.914,2.914,0,0,0-1.789.5,1.951,1.951,0,0,0-.828,1.406q-.156,1.164,1.43,1.766l1.164.414.586.25a2.941,2.941,0,0,1,2.039,3.016,3.012,3.012,0,0,1-.648,1.66A3.626,3.626,0,0,1,35.953,40.8a5.266,5.266,0,0,1-2.074.359,4.339,4.339,0,0,1-1.957-.457,3.193,3.193,0,0,1-1.348-1.23,3.078,3.078,0,0,1-.406-1.773l1.469.008a1.935,1.935,0,0,0,.551,1.613,2.479,2.479,0,0,0,1.754.613,3.131,3.131,0,0,0,1.867-.492A1.916,1.916,0,0,0,36.66,38.07Zm12.289-7.211H45.41L43.652,41H42.191l1.758-10.141H40.41l.219-1.234h8.539Zm12.633,0H58.043L56.285,41H54.824l1.758-10.141H53.043l.219-1.234H61.8Zm7.109,4.883H63.91l-.7,4.031H68.77L68.551,41H61.527L63.5,29.625h6.945l-.219,1.234H64.754l-.633,3.656H68.9ZM78.918,41H77.5l-4.062-8.828L71.9,41H70.426L72.4,29.625h1.422l4.07,8.867,1.539-8.867h1.461Zm9.039-2.93q.172-1.25-1.3-1.828l-1.352-.492-.453-.2q-2.281-1.039-2.133-2.922a3.056,3.056,0,0,1,.648-1.672,3.69,3.69,0,0,1,1.512-1.121,4.849,4.849,0,0,1,2-.371,4,4,0,0,1,1.84.461,2.962,2.962,0,0,1,1.23,1.223,3.333,3.333,0,0,1,.375,1.77l-1.477-.008a2.025,2.025,0,0,0-.469-1.621,2.1,2.1,0,0,0-1.562-.59,2.914,2.914,0,0,0-1.789.5,1.951,1.951,0,0,0-.828,1.406q-.156,1.164,1.43,1.766l1.164.414.586.25a2.941,2.941,0,0,1,2.039,3.016,3.012,3.012,0,0,1-.648,1.66A3.626,3.626,0,0,1,87.25,40.8a5.266,5.266,0,0,1-2.074.359,4.339,4.339,0,0,1-1.957-.457,3.193,3.193,0,0,1-1.348-1.23,3.078,3.078,0,0,1-.406-1.773l1.469.008a1.935,1.935,0,0,0,.551,1.613,2.479,2.479,0,0,0,1.754.613,3.131,3.131,0,0,0,1.867-.492A1.916,1.916,0,0,0,87.957,38.07ZM98.02,35.742H93.238l-.7,4.031H98.1L97.879,41H90.855l1.977-11.375h6.945l-.219,1.234H94.082l-.633,3.656H98.23Zm6.234.672a14.789,14.789,0,0,1,.957-3.516,10.894,10.894,0,0,1,1.715-2.918,7.045,7.045,0,0,1,2.266-1.824l.211.969a8.108,8.108,0,0,0-2.105,2.387,12.281,12.281,0,0,0-1.355,3.5,16.834,16.834,0,0,0-.461,4,8.85,8.85,0,0,0,.418,2.848,4.494,4.494,0,0,0,1.207,1.941l-.352.875a5.641,5.641,0,0,1-2-2.68,10.335,10.335,0,0,1-.629-4.062,12.35,12.35,0,0,1,.109-1.43Zm4.8,4.586,1.977-11.375,3.336.008a3.793,3.793,0,0,1,2.609.781,2.5,2.5,0,0,1,.758,2.18,2.957,2.957,0,0,1-2.055,2.461,2.117,2.117,0,0,1,1.145,1.016,2.839,2.839,0,0,1,.309,1.586A3.318,3.318,0,0,1,115.9,40.1a4.456,4.456,0,0,1-2.891.9Zm2.391-5.32-.711,4.094,2.32.008a2.776,2.776,0,0,0,1.781-.57,2.223,2.223,0,0,0,.836-1.539,1.827,1.827,0,0,0-.32-1.437A1.743,1.743,0,0,0,114,35.688Zm.211-1.2,2.117.008a2.731,2.731,0,0,0,1.676-.508,1.989,1.989,0,0,0,.8-1.4,1.426,1.426,0,0,0-.324-1.25,2.078,2.078,0,0,0-1.41-.461l-2.234-.008Zm10.578,6.68a3.048,3.048,0,0,1-2.469-1.164,4.006,4.006,0,0,1-.75-2.9l.039-.336a5.624,5.624,0,0,1,.746-2.3,4.339,4.339,0,0,1,1.5-1.566,3.491,3.491,0,0,1,1.906-.5,2.688,2.688,0,0,1,2.047.867,3.566,3.566,0,0,1,.813,2.266,6.62,6.62,0,0,1-.031,1.016l-.086.648h-5.523a2.856,2.856,0,0,0,.379,1.953,1.8,1.8,0,0,0,1.551.836,3.007,3.007,0,0,0,2.313-1.125l.813.688a3.718,3.718,0,0,1-1.371,1.2A3.886,3.886,0,0,1,122.238,41.156Zm.9-7.586a2.066,2.066,0,0,0-1.527.594A4.22,4.22,0,0,0,120.574,36l4.109.008.031-.125a2.313,2.313,0,0,0-.316-1.637A1.488,1.488,0,0,0,123.137,33.57Zm9.2,7.43h-1.406l1.469-8.453H133.8ZM133.5,29.461a.774.774,0,0,1,.6.215.8.8,0,0,1,.238.605.834.834,0,0,1-.836.852.779.779,0,0,1-.6-.211.764.764,0,0,1-.227-.594.886.886,0,0,1,.234-.609A.826.826,0,0,1,133.5,29.461Zm3.953,3.078-.2,1.07a3.333,3.333,0,0,1,2.594-1.219,2.1,2.1,0,0,1,1.766.828,3.217,3.217,0,0,1,.422,2.242L141.105,41h-1.414l.93-5.562a2.968,2.968,0,0,0,.008-.711,1.168,1.168,0,0,0-1.289-1.117,2.661,2.661,0,0,0-2.234,1.359L136.059,41h-1.414l1.469-8.453ZM150.941,30.5l-.359,2.047h1.539l-.2,1.117h-1.531l-.883,5.258a1.833,1.833,0,0,0-.008.375.6.6,0,0,0,.664.609,4.05,4.05,0,0,0,.688-.078l-.109,1.18a3.847,3.847,0,0,1-1.031.141,1.476,1.476,0,0,1-1.266-.621,2.4,2.4,0,0,1-.328-1.629l.859-5.234h-1.492l.2-1.117h1.492l.359-2.047ZM155,33.578a3.275,3.275,0,0,1,2.555-1.18,2.058,2.058,0,0,1,1.762.816,3.217,3.217,0,0,1,.426,2.246L158.816,41H157.4l.93-5.562a2.968,2.968,0,0,0,.008-.711,1.168,1.168,0,0,0-1.289-1.117,2.6,2.6,0,0,0-2.234,1.359L153.77,41h-1.414l2.086-12h1.414Zm9.641,7.578a3.048,3.048,0,0,1-2.469-1.164,4.006,4.006,0,0,1-.75-2.9l.039-.336a5.624,5.624,0,0,1,.746-2.3,4.339,4.339,0,0,1,1.5-1.566,3.491,3.491,0,0,1,1.906-.5,2.688,2.688,0,0,1,2.047.867,3.566,3.566,0,0,1,.813,2.266,6.621,6.621,0,0,1-.031,1.016l-.086.648h-5.523a2.855,2.855,0,0,0,.379,1.953,1.8,1.8,0,0,0,1.551.836,3.007,3.007,0,0,0,2.313-1.125l.813.688a3.718,3.718,0,0,1-1.371,1.2A3.886,3.886,0,0,1,164.637,41.156Zm.9-7.586a2.066,2.066,0,0,0-1.527.594A4.22,4.22,0,0,0,162.973,36l4.109.008.031-.125a2.313,2.313,0,0,0-.316-1.637A1.488,1.488,0,0,0,165.535,33.57Zm15.32,3.242a6.707,6.707,0,0,1-.7,2.32,3.949,3.949,0,0,1-1.336,1.543,3.058,3.058,0,0,1-1.766.488,2.815,2.815,0,0,1-2.25-.992l-.758,4.078h-1.414l2.031-11.7,1.281-.008-.156.945a3.207,3.207,0,0,1,2.508-1.094,2.358,2.358,0,0,1,1.9.9,3.954,3.954,0,0,1,.719,2.391,8.414,8.414,0,0,1-.039.969Zm-1.391-.164.039-.656a2.975,2.975,0,0,0-.434-1.746,1.524,1.524,0,0,0-1.254-.637,2.507,2.507,0,0,0-2.117,1.164l-.711,4.055a1.769,1.769,0,0,0,1.711,1.156,2.223,2.223,0,0,0,1.793-.824A4.786,4.786,0,0,0,179.465,36.648ZM187.16,41a1.894,1.894,0,0,1-.055-.445l.023-.445a3.465,3.465,0,0,1-2.469,1.047,2.526,2.526,0,0,1-1.816-.707,2.14,2.14,0,0,1-.637-1.73,2.6,2.6,0,0,1,1.176-2.1,5.005,5.005,0,0,1,2.887-.754l1.477.008.094-.672a1.545,1.545,0,0,0-.293-1.2,1.414,1.414,0,0,0-1.113-.457,2.181,2.181,0,0,0-1.285.355,1.513,1.513,0,0,0-.684.98l-1.422.008a2.266,2.266,0,0,1,.578-1.316,3.363,3.363,0,0,1,1.3-.891,4.215,4.215,0,0,1,1.648-.3,2.8,2.8,0,0,1,2.055.8,2.484,2.484,0,0,1,.617,2.043l-.687,4.188-.039.6a2.949,2.949,0,0,0,.094.852L188.6,41Zm-2.219-1.094a2.466,2.466,0,0,0,1.285-.324,3.254,3.254,0,0,0,1.043-.941l.3-1.742-1.07-.008a4.054,4.054,0,0,0-2.047.422,1.554,1.554,0,0,0-.8,1.2,1.21,1.21,0,0,0,.277.988A1.321,1.321,0,0,0,184.941,39.906Zm10.8-1.2q.117-.875-.961-1.234l-1.469-.43q-1.859-.641-1.8-2.125a2.341,2.341,0,0,1,1.02-1.832,3.631,3.631,0,0,1,2.27-.7,3.027,3.027,0,0,1,2.082.746,2.363,2.363,0,0,1,.77,1.9l-1.406-.008a1.319,1.319,0,0,0-.4-1.031,1.576,1.576,0,0,0-1.1-.414,2.059,2.059,0,0,0-1.266.359,1.316,1.316,0,0,0-.57.922q-.1.734.9,1.07l.711.2a4.577,4.577,0,0,1,2.063.977,1.865,1.865,0,0,1,.563,1.492,2.37,2.37,0,0,1-.516,1.375,2.948,2.948,0,0,1-1.25.895,4.18,4.18,0,0,1-1.664.285,3.3,3.3,0,0,1-2.219-.785,2.427,2.427,0,0,1-.844-1.98l1.414.008a1.5,1.5,0,0,0,.453,1.141,1.732,1.732,0,0,0,1.242.43,2.436,2.436,0,0,0,1.336-.324A1.247,1.247,0,0,0,195.746,38.711Zm6.578-8.211-.359,2.047H203.5l-.2,1.117h-1.531l-.883,5.258a1.833,1.833,0,0,0-.008.375.6.6,0,0,0,.664.609,4.05,4.05,0,0,0,.688-.078l-.109,1.18a3.847,3.847,0,0,1-1.031.141,1.476,1.476,0,0,1-1.266-.621A2.4,2.4,0,0,1,199.5,38.9l.859-5.234h-1.492l.2-1.117h1.492l.359-2.047Zm10.031,1.891a3.047,3.047,0,0,1,1.82.578A3.285,3.285,0,0,1,215.3,34.52a4.8,4.8,0,0,1,.246,2.16l-.016.172a5.685,5.685,0,0,1-.734,2.23,4.309,4.309,0,0,1-1.516,1.551,3.7,3.7,0,0,1-2.039.523,3.052,3.052,0,0,1-1.816-.578,3.21,3.21,0,0,1-1.113-1.531,4.931,4.931,0,0,1-.25-2.133,5.76,5.76,0,0,1,.711-2.359,4.409,4.409,0,0,1,1.527-1.621A3.652,3.652,0,0,1,212.355,32.391Zm-2.875,4.531a4.8,4.8,0,0,0,0,1.023,2.507,2.507,0,0,0,.551,1.469,1.653,1.653,0,0,0,1.262.57,2.253,2.253,0,0,0,1.3-.348,2.919,2.919,0,0,0,1-1.121,4.721,4.721,0,0,0,.523-1.664,7.493,7.493,0,0,0,.023-1.211,2.6,2.6,0,0,0-.57-1.492,1.69,1.69,0,0,0-1.266-.578,2.3,2.3,0,0,0-1.859.859,4.245,4.245,0,0,0-.945,2.313Zm12.367-3.086-.664-.07a2.42,2.42,0,0,0-2.141,1.227L218,41H216.59l1.469-8.453,1.367-.008-.211.984a2.527,2.527,0,0,1,2.117-1.148,2.594,2.594,0,0,1,.672.117ZM231.012,41a1.894,1.894,0,0,1-.055-.445l.023-.445a3.465,3.465,0,0,1-2.469,1.047,2.526,2.526,0,0,1-1.816-.707,2.14,2.14,0,0,1-.637-1.73,2.6,2.6,0,0,1,1.176-2.1,5.005,5.005,0,0,1,2.887-.754l1.477.008.094-.672A1.545,1.545,0,0,0,231.4,34a1.414,1.414,0,0,0-1.113-.457A2.181,2.181,0,0,0,229,33.9a1.513,1.513,0,0,0-.684.98l-1.422.008a2.266,2.266,0,0,1,.578-1.316,3.363,3.363,0,0,1,1.3-.891,4.215,4.215,0,0,1,1.648-.3,2.8,2.8,0,0,1,2.055.8,2.484,2.484,0,0,1,.617,2.043l-.687,4.188-.039.6a2.949,2.949,0,0,0,.094.852l-.016.133Zm-2.219-1.094a2.466,2.466,0,0,0,1.285-.324,3.254,3.254,0,0,0,1.043-.941l.3-1.742-1.07-.008a4.054,4.054,0,0,0-2.047.422,1.554,1.554,0,0,0-.8,1.2,1.21,1.21,0,0,0,.277.988A1.321,1.321,0,0,0,228.793,39.906Zm8.375-7.367-.2,1.07a3.333,3.333,0,0,1,2.594-1.219,2.1,2.1,0,0,1,1.766.828,3.217,3.217,0,0,1,.422,2.242L240.824,41H239.41l.93-5.562a2.968,2.968,0,0,0,.008-.711,1.168,1.168,0,0,0-1.289-1.117,2.661,2.661,0,0,0-2.234,1.359L235.777,41h-1.414l1.469-8.453Zm8.867,6.328,3.008-6.32h1.563l-5.016,9.859q-1.047,2.055-2.687,2.031a4.6,4.6,0,0,1-.852-.141l.125-1.172.367.039a1.853,1.853,0,0,0,1.16-.3,2.772,2.772,0,0,0,.863-1.074l.508-.969-1.461-8.273h1.477ZM77.641,63.023l3.047-6.477H82.18L77.922,65H76.844l-1.656-8.453h1.391Zm8.18,2.133a3.048,3.048,0,0,1-2.469-1.164,4.006,4.006,0,0,1-.75-2.9l.039-.336a5.624,5.624,0,0,1,.746-2.3,4.339,4.339,0,0,1,1.5-1.566,3.491,3.491,0,0,1,1.906-.5,2.688,2.688,0,0,1,2.047.867,3.566,3.566,0,0,1,.813,2.266,6.62,6.62,0,0,1-.031,1.016l-.086.648H84.008a2.856,2.856,0,0,0,.379,1.953,1.8,1.8,0,0,0,1.551.836,3.007,3.007,0,0,0,2.313-1.125l.813.688a3.718,3.718,0,0,1-1.371,1.2A3.886,3.886,0,0,1,85.82,65.156Zm.9-7.586a2.066,2.066,0,0,0-1.527.594A4.22,4.22,0,0,0,84.156,60l4.109.008.031-.125a2.313,2.313,0,0,0-.316-1.637A1.488,1.488,0,0,0,86.719,57.57Zm9,.266-.664-.07a2.42,2.42,0,0,0-2.141,1.227L91.875,65H90.461l1.469-8.453,1.367-.008-.211.984A2.527,2.527,0,0,1,95.2,56.375a2.594,2.594,0,0,1,.672.117Zm7.742,2.977a6.586,6.586,0,0,1-.711,2.336,3.982,3.982,0,0,1-1.344,1.539,3.058,3.058,0,0,1-1.75.477,2.61,2.61,0,0,1-2.273-1.148L97.094,65h-1.3l2.086-12h1.414l-.852,4.484a3.107,3.107,0,0,1,2.469-1.094,2.358,2.358,0,0,1,1.9.9,3.954,3.954,0,0,1,.719,2.391,7.362,7.362,0,0,1-.047.969Zm-1.344-.82a3.015,3.015,0,0,0-.383-1.746,1.464,1.464,0,0,0-1.242-.637,2.573,2.573,0,0,0-2.234,1.328l-.633,3.68a1.8,1.8,0,0,0,1.758,1.32,2.053,2.053,0,0,0,1.449-.492,3.216,3.216,0,0,0,.941-1.465A6.594,6.594,0,0,0,102.117,59.992ZM110.031,65h-1.406l1.469-8.453H111.5ZM111.2,53.461a.774.774,0,0,1,.6.215.8.8,0,0,1,.238.605.834.834,0,0,1-.836.852.779.779,0,0,1-.6-.211.764.764,0,0,1-.227-.594.886.886,0,0,1,.234-.609A.826.826,0,0,1,111.2,53.461Zm3.953,3.078-.2,1.07a3.333,3.333,0,0,1,2.594-1.219,2.1,2.1,0,0,1,1.766.828,3.217,3.217,0,0,1,.422,2.242L118.8,65h-1.414l.93-5.562a2.968,2.968,0,0,0,.008-.711,1.168,1.168,0,0,0-1.289-1.117,2.661,2.661,0,0,0-2.234,1.359L113.758,65h-1.414l1.469-8.453ZM128.641,54.5l-.359,2.047h1.539l-.2,1.117h-1.531l-.883,5.258a1.833,1.833,0,0,0-.008.375.6.6,0,0,0,.664.609,4.05,4.05,0,0,0,.688-.078l-.109,1.18a3.847,3.847,0,0,1-1.031.141,1.476,1.476,0,0,1-1.266-.621,2.4,2.4,0,0,1-.328-1.629l.859-5.234h-1.492l.2-1.117h1.492l.359-2.047Zm4.055,3.078a3.275,3.275,0,0,1,2.555-1.18,2.058,2.058,0,0,1,1.762.816,3.217,3.217,0,0,1,.426,2.246L136.516,65H135.1l.93-5.562a2.968,2.968,0,0,0,.008-.711,1.168,1.168,0,0,0-1.289-1.117,2.6,2.6,0,0,0-2.234,1.359L131.469,65h-1.414l2.086-12h1.414Zm9.641,7.578a3.048,3.048,0,0,1-2.469-1.164,4.006,4.006,0,0,1-.75-2.9l.039-.336a5.624,5.624,0,0,1,.746-2.3,4.339,4.339,0,0,1,1.5-1.566,3.491,3.491,0,0,1,1.906-.5,2.688,2.688,0,0,1,2.047.867,3.566,3.566,0,0,1,.813,2.266,6.621,6.621,0,0,1-.031,1.016l-.086.648h-5.523a2.855,2.855,0,0,0,.379,1.953,1.8,1.8,0,0,0,1.551.836,3.007,3.007,0,0,0,2.313-1.125l.813.688a3.718,3.718,0,0,1-1.371,1.2A3.886,3.886,0,0,1,142.336,65.156Zm.9-7.586a2.066,2.066,0,0,0-1.527.594A4.22,4.22,0,0,0,140.672,60l4.109.008.031-.125a2.313,2.313,0,0,0-.316-1.637A1.488,1.488,0,0,0,143.234,57.57Zm15.32,3.242a6.707,6.707,0,0,1-.7,2.32,3.949,3.949,0,0,1-1.336,1.543,3.058,3.058,0,0,1-1.766.488,2.815,2.815,0,0,1-2.25-.992l-.758,4.078h-1.414l2.031-11.7,1.281-.008-.156.945A3.207,3.207,0,0,1,156,56.391a2.358,2.358,0,0,1,1.9.9,3.954,3.954,0,0,1,.719,2.391,8.414,8.414,0,0,1-.039.969Zm-1.391-.164.039-.656a2.975,2.975,0,0,0-.434-1.746,1.524,1.524,0,0,0-1.254-.637,2.507,2.507,0,0,0-2.117,1.164l-.711,4.055a1.769,1.769,0,0,0,1.711,1.156,2.223,2.223,0,0,0,1.793-.824A4.786,4.786,0,0,0,157.164,60.648Zm7.7,4.352a1.894,1.894,0,0,1-.055-.445l.023-.445a3.465,3.465,0,0,1-2.469,1.047,2.526,2.526,0,0,1-1.816-.707,2.14,2.14,0,0,1-.637-1.73,2.6,2.6,0,0,1,1.176-2.1,5.005,5.005,0,0,1,2.887-.754l1.477.008.094-.672a1.545,1.545,0,0,0-.293-1.2,1.414,1.414,0,0,0-1.113-.457,2.181,2.181,0,0,0-1.285.355,1.513,1.513,0,0,0-.684.98l-1.422.008a2.266,2.266,0,0,1,.578-1.316,3.363,3.363,0,0,1,1.3-.891,4.215,4.215,0,0,1,1.648-.3,2.8,2.8,0,0,1,2.055.8,2.484,2.484,0,0,1,.617,2.043l-.687,4.188-.039.6a2.949,2.949,0,0,0,.094.852L166.3,65Zm-2.219-1.094a2.466,2.466,0,0,0,1.285-.324,3.254,3.254,0,0,0,1.043-.941l.3-1.742-1.07-.008a4.054,4.054,0,0,0-2.047.422,1.554,1.554,0,0,0-.8,1.2,1.21,1.21,0,0,0,.277.988A1.321,1.321,0,0,0,162.641,63.906Zm10.8-1.2q.117-.875-.961-1.234l-1.469-.43q-1.859-.641-1.8-2.125a2.341,2.341,0,0,1,1.02-1.832,3.631,3.631,0,0,1,2.27-.7,3.027,3.027,0,0,1,2.082.746,2.363,2.363,0,0,1,.77,1.9l-1.406-.008a1.319,1.319,0,0,0-.4-1.031,1.576,1.576,0,0,0-1.1-.414,2.059,2.059,0,0,0-1.266.359,1.316,1.316,0,0,0-.57.922q-.1.734.9,1.07l.711.2a4.577,4.577,0,0,1,2.063.977,1.865,1.865,0,0,1,.563,1.492,2.37,2.37,0,0,1-.516,1.375,2.948,2.948,0,0,1-1.25.895,4.18,4.18,0,0,1-1.664.285,3.3,3.3,0,0,1-2.219-.785,2.427,2.427,0,0,1-.844-1.98l1.414.008a1.5,1.5,0,0,0,.453,1.141,1.732,1.732,0,0,0,1.242.43,2.436,2.436,0,0,0,1.336-.324A1.247,1.247,0,0,0,173.445,62.711Zm6.578-8.211-.359,2.047H181.2l-.2,1.117h-1.531l-.883,5.258a1.833,1.833,0,0,0-.008.375.6.6,0,0,0,.664.609,4.05,4.05,0,0,0,.688-.078l-.109,1.18a3.847,3.847,0,0,1-1.031.141,1.476,1.476,0,0,1-1.266-.621A2.4,2.4,0,0,1,177.2,62.9l.859-5.234H176.57l.2-1.117h1.492l.359-2.047Zm5.445,5.93a14.5,14.5,0,0,1-.992,3.605,10.841,10.841,0,0,1-1.723,2.867,7.163,7.163,0,0,1-2.223,1.777l-.219-.9q2.68-2.016,3.578-6.477a16.834,16.834,0,0,0,.344-3.461q-.039-3.352-1.625-4.8l.367-.875a5.179,5.179,0,0,1,1.48,1.621,7.645,7.645,0,0,1,.891,2.352,12.043,12.043,0,0,1,.254,2.777,13.344,13.344,0,0,1-.117,1.43Z" transform="translate(759 4534)" fill="#12263f"/>
        <path id="Trazado_170565" data-name="Trazado 170565" d="M8.938,34H3.469V11.25H8.938Zm4.734,0V20.75H11.219V17.094h2.453V15.75a5.841,5.841,0,0,1,1.7-4.484,6.729,6.729,0,0,1,4.781-1.594A10.47,10.47,0,0,1,22.625,10l.016,3.875a4.81,4.81,0,0,0-1.3-.141q-2.391,0-2.391,2.063v1.3h3.3V20.75h-3.3V34Z" transform="translate(707 4549)" fill="#12263f"/>
        <path id="Trazado_170564" data-name="Trazado 170564" d="M99.406,12.836H97.547L96.82,17H94.531L96.508,5.625l3.766.008a4.289,4.289,0,0,1,2.91.891,2.817,2.817,0,0,1,.9,2.477,3.574,3.574,0,0,1-2.5,3.258l1.6,4.617V17H100.75Zm-1.531-1.9,1.7.016a2.386,2.386,0,0,0,1.5-.488,1.933,1.933,0,0,0,.707-1.285,1.473,1.473,0,0,0-.242-1.187,1.442,1.442,0,0,0-1.117-.461l-1.953-.008Zm14.148,1.133h-4.359l-.531,3.047h5.125L111.93,17h-7.414l1.977-11.375h7.4l-.336,1.9h-5.1l-.477,2.711h4.375Zm7.555,1.891q.164-.93-.914-1.422l-1.508-.6q-2.625-1.172-2.492-3.227a2.964,2.964,0,0,1,.625-1.687,3.758,3.758,0,0,1,1.6-1.152,5.67,5.67,0,0,1,2.227-.4,3.857,3.857,0,0,1,2.664.98,3.267,3.267,0,0,1,1,2.543H120.5a1.628,1.628,0,0,0-.34-1.2,1.531,1.531,0,0,0-1.176-.445,2.37,2.37,0,0,0-1.359.355,1.458,1.458,0,0,0-.687,1.02q-.148.852,1.141,1.352l1.031.391.594.273q2.3,1.141,2.156,3.2a3.09,3.09,0,0,1-.645,1.738,3.633,3.633,0,0,1-1.562,1.121,5.565,5.565,0,0,1-2.176.367,4.873,4.873,0,0,1-2.156-.508,3.349,3.349,0,0,1-1.437-1.367,3.54,3.54,0,0,1-.43-1.875l2.289.008q-.109,1.852,1.82,1.883a2.392,2.392,0,0,0,1.375-.367A1.43,1.43,0,0,0,119.578,13.961Zm13.734-8.336-1.281,7.5a4.571,4.571,0,0,1-1.562,2.977,4.7,4.7,0,0,1-3.219,1.063,4.335,4.335,0,0,1-2.09-.527,3.077,3.077,0,0,1-1.309-1.422,3.855,3.855,0,0,1-.289-2.082l1.273-7.508h2.289l-1.273,7.516a3.339,3.339,0,0,0-.008.82,1.385,1.385,0,0,0,1.508,1.313,2.154,2.154,0,0,0,1.586-.531,2.721,2.721,0,0,0,.8-1.609l1.281-7.508Zm2.539,9.492h4.828L140.352,17h-7.117l1.977-11.375H137.5Zm14.227-7.594H146.7L145.063,17h-2.289l1.641-9.477h-3.336l.336-1.9h9ZM19.68,37.492l-.031,1.375.531-1.344,3.4-7.9H24.82l.9,8,.078,1.3.492-1.57L29.2,29.625H30.7L26.25,41H24.914l-.984-8.352-.031-.781-.328.906L19.945,41H18.609l-.891-11.375h1.43Zm14.992,3.664a3.642,3.642,0,0,1-1.887-.523,3.391,3.391,0,0,1-1.262-1.473,5.548,5.548,0,0,1-.508-2.184,10.371,10.371,0,0,1,.211-2.336,8.011,8.011,0,0,1,.891-2.508,5.651,5.651,0,0,1,1.539-1.789,4.43,4.43,0,0,1,2.8-.875,3.365,3.365,0,0,1,2.625,1.152,4.792,4.792,0,0,1,1.031,3.035,11.175,11.175,0,0,1-.168,2.086,8.636,8.636,0,0,1-.711,2.352,5.869,5.869,0,0,1-1.3,1.82A4.474,4.474,0,0,1,34.672,41.156Zm3.992-7.141a3.942,3.942,0,0,0-.539-2.387,2.052,2.052,0,0,0-1.742-.879,2.963,2.963,0,0,0-1.871.563A4.258,4.258,0,0,0,33.16,33.09a9.158,9.158,0,0,0-.668,3l-.023.508a3.976,3.976,0,0,0,.547,2.4,2.035,2.035,0,0,0,1.727.9,3.009,3.009,0,0,0,2.449-1.066,6.057,6.057,0,0,0,1.293-3.105A13.992,13.992,0,0,0,38.664,34.016Zm12.375-4.391-1.312,7.7A4.368,4.368,0,0,1,48.2,40.145a4.5,4.5,0,0,1-3.055,1.02,3.956,3.956,0,0,1-1.941-.5,2.9,2.9,0,0,1-1.215-1.352,3.69,3.69,0,0,1-.258-1.98l1.313-7.7h1.445l-1.3,7.711a2.492,2.492,0,0,0,.406,1.879,2.031,2.031,0,0,0,1.633.715,2.813,2.813,0,0,0,2-.645,3.122,3.122,0,0,0,1.027-1.941l1.313-7.719Zm2.039,10.148h5.234L58.094,41h-6.7l1.977-11.375h1.477ZM59.82,41,61.8,29.625l2.953.008a4.1,4.1,0,0,1,2.395.7,3.835,3.835,0,0,1,1.441,1.918,5.962,5.962,0,0,1,.258,2.738l-.078.57a6.432,6.432,0,0,1-1.93,3.965A5.611,5.611,0,0,1,62.852,41Zm3.227-10.141L61.5,39.773l1.445.008a4.061,4.061,0,0,0,2.809-1.031,4.9,4.9,0,0,0,1.5-2.828,9.2,9.2,0,0,0,.188-2.445,2.978,2.978,0,0,0-.8-1.895,2.605,2.605,0,0,0-1.844-.715Zm11.9,4.039h3.078l-.242,1.367h-3.07l-.625,3.594H72.664l.625-3.594H70.211l.242-1.367h3.07l.578-3.32h1.422Zm8.031,4.094,4.617-9.367H89.25L83.375,41h-1.3l-2.3-11.375h1.539Zm13.094-3.25H91.289l-.7,4.031h5.563L95.93,41H88.906l1.977-11.375h6.945l-.219,1.234H92.133L91.5,34.516h4.781Zm6.625.656H100.07l-.8,4.6H97.8l1.977-11.375,3.422.008a3.816,3.816,0,0,1,2.727.906,2.825,2.825,0,0,1,.789,2.445,3.235,3.235,0,0,1-.777,1.883,4.247,4.247,0,0,1-1.84,1.227l1.766,4.8-.008.1h-1.562Zm-2.414-1.227,2.156.008a3.012,3.012,0,0,0,1.9-.6,2.326,2.326,0,0,0,.906-1.6,1.837,1.837,0,0,0-.391-1.531,2.087,2.087,0,0,0-1.547-.586l-2.273-.008ZM107.438,41l1.977-11.375,3.336.008a3.793,3.793,0,0,1,2.609.781,2.5,2.5,0,0,1,.758,2.18,2.957,2.957,0,0,1-2.055,2.461,2.117,2.117,0,0,1,1.145,1.016,2.839,2.839,0,0,1,.309,1.586,3.318,3.318,0,0,1-1.234,2.441,4.456,4.456,0,0,1-2.891.9Zm2.391-5.32-.711,4.094,2.32.008a2.776,2.776,0,0,0,1.781-.57,2.223,2.223,0,0,0,.836-1.539,1.827,1.827,0,0,0-.32-1.437,1.743,1.743,0,0,0-1.352-.547Zm.211-1.2,2.117.008a2.731,2.731,0,0,0,1.676-.508,1.989,1.989,0,0,0,.8-1.4,1.426,1.426,0,0,0-.324-1.25,2.078,2.078,0,0,0-1.41-.461l-2.234-.008Zm11.641,1.938a14.789,14.789,0,0,1,.957-3.516,10.894,10.894,0,0,1,1.715-2.918,7.045,7.045,0,0,1,2.266-1.824l.211.969a8.108,8.108,0,0,0-2.105,2.387,12.281,12.281,0,0,0-1.355,3.5,16.834,16.834,0,0,0-.461,4,8.85,8.85,0,0,0,.418,2.848,4.494,4.494,0,0,0,1.207,1.941l-.352.875a5.641,5.641,0,0,1-2-2.68,10.335,10.335,0,0,1-.629-4.062,12.35,12.35,0,0,1,.109-1.43ZM128.055,41h-1.461l1.977-11.375h1.461Zm5.313-8.461-.2,1.07a3.333,3.333,0,0,1,2.594-1.219,2.1,2.1,0,0,1,1.766.828,3.217,3.217,0,0,1,.422,2.242L137.023,41h-1.414l.93-5.562a2.968,2.968,0,0,0,.008-.711,1.168,1.168,0,0,0-1.289-1.117,2.661,2.661,0,0,0-2.234,1.359L131.977,41h-1.414l1.469-8.453Zm6.3,8.461,1.273-7.336h-1.3l.2-1.117,1.3-.008.109-.781a3.2,3.2,0,0,1,3.414-2.937,4.73,4.73,0,0,1,1.074.152q.52.137,1.066.324l-.344,1.234a4.425,4.425,0,0,0-1.75-.414,1.834,1.834,0,0,0-2.055,1.75l-.1.68h1.68l-.2,1.117h-1.672L141.094,41Zm5.859,0h-1.422l1.469-8.453H147Zm5.148-8.461-.2,1.07a3.333,3.333,0,0,1,2.594-1.219,2.1,2.1,0,0,1,1.766.828,3.217,3.217,0,0,1,.422,2.242L154.336,41h-1.414l.93-5.562a2.968,2.968,0,0,0,.008-.711,1.168,1.168,0,0,0-1.289-1.117,2.661,2.661,0,0,0-2.234,1.359L149.289,41h-1.414l1.469-8.453ZM158.047,41h-1.406l1.469-8.453h1.406Zm1.164-11.539a.774.774,0,0,1,.6.215.8.8,0,0,1,.238.605.834.834,0,0,1-.836.852.779.779,0,0,1-.6-.211.764.764,0,0,1-.227-.594.886.886,0,0,1,.234-.609A.826.826,0,0,1,159.211,29.461Zm4.883,1.039-.359,2.047h1.539l-.2,1.117h-1.531l-.883,5.258a1.833,1.833,0,0,0-.008.375.6.6,0,0,0,.664.609,4.05,4.05,0,0,0,.688-.078l-.109,1.18a3.847,3.847,0,0,1-1.031.141,1.476,1.476,0,0,1-1.266-.621,2.4,2.4,0,0,1-.328-1.629l.859-5.234h-1.492l.2-1.117h1.492l.359-2.047ZM167.039,41h-1.406l1.469-8.453h1.406ZM168.2,29.461a.774.774,0,0,1,.6.215.8.8,0,0,1,.238.605.834.834,0,0,1-.836.852.779.779,0,0,1-.6-.211.764.764,0,0,1-.227-.594.886.886,0,0,1,.234-.609A.826.826,0,0,1,168.2,29.461Zm4.219,9.563,3.047-6.477h1.492L172.7,41h-1.078l-1.656-8.453h1.391Zm8.18,2.133a3.048,3.048,0,0,1-2.469-1.164,4.006,4.006,0,0,1-.75-2.9l.039-.336a5.624,5.624,0,0,1,.746-2.3,4.339,4.339,0,0,1,1.5-1.566,3.491,3.491,0,0,1,1.906-.5,2.688,2.688,0,0,1,2.047.867,3.566,3.566,0,0,1,.813,2.266,6.621,6.621,0,0,1-.031,1.016l-.086.648h-5.523a2.855,2.855,0,0,0,.379,1.953,1.8,1.8,0,0,0,1.551.836,3.007,3.007,0,0,0,2.313-1.125l.813.688a3.718,3.718,0,0,1-1.371,1.2A3.886,3.886,0,0,1,180.6,41.156Zm.9-7.586a2.066,2.066,0,0,0-1.527.594A4.22,4.22,0,0,0,178.938,36l4.109.008.031-.125a2.313,2.313,0,0,0-.316-1.637A1.488,1.488,0,0,0,181.5,33.57ZM189.852,41l1.281-7.336h-1.3l.2-1.117h1.3l.141-1a3.318,3.318,0,0,1,.984-1.992,2.926,2.926,0,0,1,2.094-.734,4.914,4.914,0,0,1,1.008.133l-.172,1.18a4.636,4.636,0,0,0-.758-.094,1.611,1.611,0,0,0-1.191.457,2.083,2.083,0,0,0-.566,1.215l-.125.836h1.75l-.2,1.117h-1.75L191.266,41Zm9.477-8.609a3.047,3.047,0,0,1,1.82.578,3.285,3.285,0,0,1,1.121,1.551,4.8,4.8,0,0,1,.246,2.16l-.016.172a5.685,5.685,0,0,1-.734,2.23,4.309,4.309,0,0,1-1.516,1.551,3.7,3.7,0,0,1-2.039.523,3.052,3.052,0,0,1-1.816-.578,3.21,3.21,0,0,1-1.113-1.531,4.931,4.931,0,0,1-.25-2.133,5.76,5.76,0,0,1,.711-2.359,4.409,4.409,0,0,1,1.527-1.621A3.652,3.652,0,0,1,199.328,32.391Zm-2.875,4.531a4.8,4.8,0,0,0,0,1.023A2.507,2.507,0,0,0,197,39.414a1.653,1.653,0,0,0,1.262.57,2.253,2.253,0,0,0,1.3-.348,2.919,2.919,0,0,0,1-1.121,4.721,4.721,0,0,0,.523-1.664,7.493,7.493,0,0,0,.023-1.211,2.6,2.6,0,0,0-.57-1.492,1.69,1.69,0,0,0-1.266-.578,2.3,2.3,0,0,0-1.859.859,4.245,4.245,0,0,0-.945,2.313Zm12.367-3.086-.664-.07a2.42,2.42,0,0,0-2.141,1.227L204.977,41h-1.414l1.469-8.453,1.367-.008-.211.984a2.527,2.527,0,0,1,2.117-1.148,2.594,2.594,0,0,1,.672.117Zm2.859-1.3-.18.945a3.305,3.305,0,0,1,2.57-1.094,2.608,2.608,0,0,1,1.363.367,1.8,1.8,0,0,1,.77.992,3.49,3.49,0,0,1,2.8-1.359,2.235,2.235,0,0,1,1.867.852,3.042,3.042,0,0,1,.445,2.2L220.391,41h-1.406l.922-5.57a2.943,2.943,0,0,0,0-.742q-.148-1.062-1.391-1.086a2.136,2.136,0,0,0-1.4.48,2.222,2.222,0,0,0-.809,1.3L215.344,41h-1.422l.938-5.562A1.786,1.786,0,0,0,214.6,34.1a1.377,1.377,0,0,0-1.129-.484,2.315,2.315,0,0,0-2.1,1.2L210.3,41h-1.414l1.469-8.453ZM226.6,36.43a14.5,14.5,0,0,1-.992,3.605,10.841,10.841,0,0,1-1.723,2.867,7.163,7.163,0,0,1-2.223,1.777l-.219-.9q2.68-2.016,3.578-6.477a16.834,16.834,0,0,0,.344-3.461q-.039-3.352-1.625-4.8l.367-.875a5.179,5.179,0,0,1,1.48,1.621,7.645,7.645,0,0,1,.891,2.352,12.043,12.043,0,0,1,.254,2.777,13.344,13.344,0,0,1-.117,1.43Z" transform="translate(436 4546)" fill="#12263f"/>
      </g>
      <path id="Trazado_170567" data-name="Trazado 170567" d="M3.9,28.891a3,3,0,0,1,2.078.742,2.59,2.59,0,0,1,0,3.8,3,3,0,0,1-2.078.742,2.972,2.972,0,0,1-2.086-.75,2.589,2.589,0,0,1,0-3.781A2.972,2.972,0,0,1,3.9,28.891Z" transform="translate(1009 4554)" fill="#12263f"/>
    </g>
  </g>
</svg>
