<svg xmlns="http://www.w3.org/2000/svg" xmlns:xlink="http://www.w3.org/1999/xlink" width="105" height="105" viewBox="0 0 105 105">
  <defs>
    <clipPath id="clip-path">
      <rect id="Rectángulo_43350" data-name="Rectángulo 43350" width="52.893" height="66.101" fill="none"/>
    </clipPath>
  </defs>
  <g id="Grupo_170760" data-name="Grupo 170760" transform="translate(-433.326 -839)">
    <path id="Trazado_160852" data-name="Trazado 160852" d="M52.5,0A52.5,52.5,0,1,1,0,52.5,52.5,52.5,0,0,1,52.5,0Z" transform="translate(433.326 839)" fill="#a6bbff"/>
    <g id="Grupo_170993" data-name="Grupo 170993" transform="translate(459.326 858)">
      <g id="Grupo_170993-2" data-name="Grupo 170993" clip-path="url(#clip-path)">
        <path id="Trazado_167248" data-name="Trazado 167248" d="M.787,66.1A1.566,1.566,0,0,1,0,64.55Q.025,49.321,0,34.092a2.01,2.01,0,0,1,.646-1.536Q11.586,21.639,22.513,10.713A.742.742,0,0,0,22.661,9.6,14.465,14.465,0,0,0,11.708,2.45c-.833-.12-1.668-.161-2.5-.2-.343-.018-.463-.129-.415-.456a2.178,2.178,0,0,0,0-.322c0-1.524,0-1.539,1.524-1.426A17.989,17.989,0,0,1,20.684,3.892a15.506,15.506,0,0,1,3.61,4.168c.262.446.439.612.985.3a4.874,4.874,0,0,1,3.931-.428,40.447,40.447,0,0,1,16.161,9,23.559,23.559,0,0,1,6.772,12.41,39.746,39.746,0,0,1,.747,9.161c-.063,7.206-.025,14.412-.017,21.618a5.773,5.773,0,0,1-2.252,4.89A8.313,8.313,0,0,1,48.144,66.1Z" transform="translate(-0.001 0)" fill="#020100"/>
        <path id="Trazado_167249" data-name="Trazado 167249" d="M55.211,44.948a6.975,6.975,0,0,0-4.519-1.1q-20.643.015-41.287.006H8.753L28.67,23.94a20.287,20.287,0,0,1,.746,2.617c.109.42-.213.449-.474.526a7.407,7.407,0,0,0-4.367,3.3A7.693,7.693,0,1,0,32.2,26.843c-.4-.062-.556-.2-.631-.565a20.23,20.23,0,0,0-1.146-3.948c-.114-.268-.006-.387.2-.52a3.227,3.227,0,0,1,2.836-.393,41.606,41.606,0,0,1,9.507,4.23,30.743,30.743,0,0,1,6.458,5.094A20.373,20.373,0,0,1,53.7,37.949a28.166,28.166,0,0,1,1.514,7" transform="translate(-4.658 -11.31)" fill="#874d00"/>
        <path id="Trazado_167250" data-name="Trazado 167250" d="M28.828,107.457q-11.707,0-23.415.015c-.6,0-.748-.169-.727-.745.044-1.224.03-2.452,0-3.677-.008-.395.1-.506.5-.5q6.676.021,13.352,0c.5,0,.5.228.482.581a3.365,3.365,0,0,0,1.732,3.411,3.283,3.283,0,0,0,4.849-2.71c.064-1.269.064-1.269,1.348-1.269q12.74,0,25.479-.014c.607,0,.751.174.73.749-.043,1.16-.049,2.324,0,3.483.026.6-.182.7-.728.7q-11.8-.026-23.609-.012" transform="translate(-2.493 -54.565)" fill="#d3c7b7"/>
        <path id="Trazado_167251" data-name="Trazado 167251" d="M28.884,122.151c-7.825,0-15.65-.008-23.474.015-.611,0-.749-.181-.723-.749.044-.987.043-1.979,0-2.966-.023-.541.086-.743.687-.721,1.417.052,2.837.017,4.256.017q21.346,0,42.692,0c.923,0,.815-.114.821.826.006.968-.028,1.936.013,2.9.022.525-.117.691-.669.687-3.783-.025-7.566-.013-11.35-.013H28.884" transform="translate(-2.492 -62.648)" fill="#ce9d76"/>
        <path id="Trazado_167252" data-name="Trazado 167252" d="M52.856,76.452c-1.949,0-3.861,0-5.773,0-1.256,0-1.622.359-1.624,1.583,0,.559.01,1.119,0,1.678a1.668,1.668,0,1,1-3.333.007c-.016-.559,0-1.118-.005-1.677,0-1.231-.368-1.59-1.626-1.591H30.362c-.344,0-.688,0-1.032,0-1.087.016-1.527.455-1.532,1.529,0,.581.009,1.162-.006,1.742a1.025,1.025,0,0,1-1.127,1.117c-.6.015-1.2-.007-1.806.008-1.008.026-1.452.478-1.454,1.476,0,2,0,4,0,6,0,.838-.41,1.35-1.053,1.332-.746-.02-1.137-.47-1.137-1.334q0-5.195,0-10.389c0-1.064-.409-1.478-1.48-1.481q-2.9-.008-5.806,0c-1.1,0-1.495.4-1.5,1.515,0,.925.015,1.85-.007,2.774a1.127,1.127,0,0,1-.948,1.206,1.047,1.047,0,0,1-1.124-.571,1.065,1.065,0,0,1-.113-.623c-.005-.925,0-1.85-.005-2.774-.011-1.082-.451-1.519-1.537-1.527-1.161-.008-2.322-.015-3.484.005-.387.006-.514-.113-.524-.512-.04-1.691-.053-1.691,1.659-1.691q21.579,0,43.159,0a3.5,3.5,0,0,1,3.051,1.473,1.351,1.351,0,0,1,.3.727" transform="translate(-2.486 -39.512)" fill="#693b00"/>
        <path id="Trazado_167253" data-name="Trazado 167253" d="M63.17,90.308c-4.362,0-8.725-.01-13.087.013-.561,0-.78-.127-.709-.708.057-.466-.136-1.055.086-1.384.247-.367.878-.117,1.339-.164A3.293,3.293,0,0,0,53.785,84.7c.028-1.023.028-1.023,1.021-1.023H62.8c.89,0,.892,0,.9.873a3.865,3.865,0,1,0,7.724.195c.044-1.068.044-1.068,1.093-1.068,1.268,0,2.536.015,3.8-.008.424-.007.608.082.6.56-.025,1.87-.029,3.741.005,5.61.01.528-.277.471-.606.471q-6.576,0-13.152,0" transform="translate(-26.261 -44.523)" fill="#ce9d75"/>
        <path id="Trazado_167254" data-name="Trazado 167254" d="M28.825,131.866q11.706,0,23.412,0c.2,0,.487-.109.591.083s-.109.393-.223.57a3.247,3.247,0,0,1-2.879,1.535c-2.171.013-4.342,0-6.514,0q-18.865,0-37.73.017c-.674,0-.822-.188-.8-.822.047-1.39.014-1.391,1.376-1.391H28.825" transform="translate(-2.491 -70.157)" fill="#874d00"/>
        <path id="Trazado_167255" data-name="Trazado 167255" d="M51.171,38a5.482,5.482,0,0,1,4.511,6.088,5.5,5.5,0,0,1-10.946-.4,5.466,5.466,0,0,1,4.2-5.594,17.2,17.2,0,0,1,.162,2.555c-.018.373.076.518.493.525,1.756.029,1.76.045,1.7-1.726-.017-.468-.072-.934-.113-1.448" transform="translate(-23.795 -20.219)" fill="#fe0000"/>
        <path id="Trazado_167256" data-name="Trazado 167256" d="M11.853,90.306c-2.17,0-4.34-.013-6.51.01-.478.005-.668-.08-.657-.622.038-1.826.026-3.654.005-5.48-.005-.414.095-.568.531-.548.772.034,1.547.024,2.32,0,.364-.01.493.112.482.479-.018.644-.021,1.29.016,1.933a3.268,3.268,0,0,0,3.115,3.108,3.3,3.3,0,0,0,3.393-2.739,10.876,10.876,0,0,0,.064-2.251c-.01-.439.142-.541.552-.532q1.675.036,3.351,0c.386-.008.52.088.516.5q-.032,2.8,0,5.609c.005.429-.121.544-.54.54-2.213-.018-4.426-.008-6.639-.008" transform="translate(-2.493 -44.521)" fill="#ce9d75"/>
        <path id="Trazado_167257" data-name="Trazado 167257" d="M87.568,49.27c-.177.038-.226-.115-.271-.335A14.033,14.033,0,0,0,81.628,40.4c-.259-.193-.343-.349-.132-.616a3.579,3.579,0,0,0,.236-.383c.721-1.2.731-1.214,1.805-.335a16.127,16.127,0,0,1,5.9,9.327c.1.473.008.6-.451.636a14.235,14.235,0,0,0-1.418.243" transform="translate(-43.304 -20.458)" fill="#fefefe"/>
        <path id="Trazado_167258" data-name="Trazado 167258" d="M72.891,32.2c-.282.547-.577,1.139-.893,1.719-.057.105-.193.04-.29-.008l-.4-.2c-1.691-.844-1.686-.841-.711-2.452.125-.207.2-.277.437-.153.546.291,1.11.551,1.66.834.08.041.208.07.2.262" transform="translate(-37.215 -16.518)" fill="#fefdfd"/>
        <path id="Trazado_167259" data-name="Trazado 167259" d="M48.265,47.112a3.709,3.709,0,0,0,.451,0c.42-.051.613.038.695.543a1.767,1.767,0,0,0,1.678,1.593c.344.034.494.168.454.527a6.969,6.969,0,0,0-.005.772c0,1,0,1-.978.866a4.279,4.279,0,0,1-3.4-3.917c0-.268.042-.4.338-.379.256.018.515,0,.772,0Z" transform="translate(-25.092 -25.062)" fill="#fefefe"/>
      </g>
    </g>
  </g>
</svg>
