<svg xmlns="http://www.w3.org/2000/svg" xmlns:xlink="http://www.w3.org/1999/xlink" width="88" height="88" viewBox="0 0 88 88">
  <defs>
    <clipPath id="clip-path">
      <rect id="Rectángulo_43550" data-name="Rectángulo 43550" width="57.682" height="61.087" fill="none"/>
    </clipPath>
  </defs>
  <g id="Grupo_171327" data-name="Grupo 171327" transform="translate(-651 -1727)">
    <path id="Trazado_169067" data-name="Trazado 169067" d="M44,0A44,44,0,1,1,0,44,44,44,0,0,1,44,0Z" transform="translate(651 1727)" fill="#6b8dfc"/>
    <g id="Grupo_171314" data-name="Grupo 171314" transform="translate(666 1740)">
      <g id="Grupo_171313" data-name="Grupo 171313" transform="translate(0 0)" clip-path="url(#clip-path)">
        <path id="Trazado_168986" data-name="Trazado 168986" d="M1.037,50.959q.005-.7.01-1.4a2.535,2.535,0,0,0,.337-1.485q-.025-2.138,0-4.278a2.47,2.47,0,0,0-.333-1.421q-.005-.712-.012-1.423A2.637,2.637,0,0,0,1.373,39.4q-.013-3.118,0-6.235c0-.991.129-1.114,1.134-1.114q24.518-.005,49.037,0c1.052,0,1.171.114,1.172,1.144q.008,7.437,0,14.873c0,.317.1.733-.222.9s-.585-.184-.832-.37A15.361,15.361,0,0,0,34.548,47.6a2.673,2.673,0,0,1-.809.4c-.968.075-1.939.022-2.909.042-1.075.023-1.377.325-1.379,1.4,0,.948-.019,1.9.012,2.846a17.343,17.343,0,0,1-.936,1.848,15.168,15.168,0,0,0,1.279,15.6c.2.3.615.59.439.945s-.663.222-1.02.222c-7.947.006-15.9-.027-23.842.026a3.891,3.891,0,0,1-4.007-4.006q.007-6.366,0-12.733c0-.563-.013-1.127,0-1.689a2.477,2.477,0,0,0-.343-1.55" transform="translate(-0.504 -15.574)" fill="#71c9f4"/>
        <path id="Trazado_168987" data-name="Trazado 168987" d="M.533,35.385c.523.123.55.509.549.954-.008,4.979.032,9.958-.022,14.936a3.782,3.782,0,0,0,3.887,3.918c8.074-.054,16.148-.021,24.223-.022.167,0,.333-.016.518-.025-4.211-6-4.662-12.133-.839-18.456a3.709,3.709,0,0,1,1.127-1.7A10.017,10.017,0,0,1,33.163,32.3a17.131,17.131,0,0,1,5.349-2.243A15.393,15.393,0,0,1,51.68,33.172c.068.053.137.1.209.16.209-.118.107-.312.107-.46C52,27.7,52,22.524,52.012,17.35c0-.485-.092-.662-.63-.662q-24.841.023-49.681,0c-.531,0-.641.163-.635.656.024,2.381,0,4.763.017,7.144,0,.436-.076.772-.548.892-.424-.13-.524-.428-.523-.848.011-5.2,0-10.395.012-15.592A4.631,4.631,0,0,1,4.661,4.322c1.841-.013,3.682-.028,5.522.011.584.012.764-.133.748-.736A3.288,3.288,0,0,1,12.865.4a3.406,3.406,0,0,1,3.678.3A4.2,4.2,0,0,1,17.822,2.39a1.375,1.375,0,0,1,.326,1.146c-.009.443.183.632.622.61a1.95,1.95,0,0,1,1.013.155c4.953.006,9.907,0,14.86.032.542,0,.465-.283.463-.605A3.439,3.439,0,0,1,37.29.295a3.5,3.5,0,0,1,4.426,1.514c.106.187.2.382.3.573a1.52,1.52,0,0,1,.308,1.156c-.012.445.189.625.624.608a2.223,2.223,0,0,1,1.14.159c1.249,0,2.5.057,3.746,0a4.873,4.873,0,0,1,4.794,2.64,2.579,2.579,0,0,1,.613,1.988c.009,2.641,0,5.282,0,7.924,0,5.477.008,10.955-.01,16.432a2.443,2.443,0,0,0,.6,1.713,15.619,15.619,0,0,1,3.78,8.81A15.808,15.808,0,0,1,36.875,60.261a15.426,15.426,0,0,1-5.648-3.345,1.487,1.487,0,0,0-1.054-.412c-1.018.006-2.035,0-3.052,0q-10.684,0-21.368.005a15.768,15.768,0,0,1-2.067-.181,1.226,1.226,0,0,1-.907-.444A5.044,5.044,0,0,1,0,50.948C.06,46.065.022,41.181.013,36.3c0-.424.042-.78.52-.911" transform="translate(0 0)"/>
        <path id="Trazado_168988" data-name="Trazado 168988" d="M.57,52.143a.676.676,0,0,1,.527.774q-.019,2.825,0,5.652c0,.4-.1.68-.529.759a.606.606,0,0,1-.518-.7q.013-2.888,0-5.775a.657.657,0,0,1,.522-.711" transform="translate(-0.023 -25.338)" fill="#3a2e5f"/>
        <path id="Trazado_168989" data-name="Trazado 168989" d="M33.17,44.42c0-.822-.007-1.646,0-2.468.008-.748.352-1.147,1.1-1.159q2.533-.04,5.066,0a1.033,1.033,0,0,1,1.111,1.157q.012,2.468,0,4.936c0,.814-.372,1.175-1.2,1.179q-2.435.011-4.871,0c-.857,0-1.2-.362-1.2-1.24,0-.8,0-1.6,0-2.4" transform="translate(-16.117 -19.813)" fill="#d4fafd"/>
        <path id="Trazado_168990" data-name="Trazado 168990" d="M63.2,44.444c0,.823.007,1.646,0,2.469a1.017,1.017,0,0,1-1.161,1.151q-2.469.013-4.938,0c-.817,0-1.172-.373-1.175-1.2q-.008-2.437,0-4.873a1.046,1.046,0,0,1,1.2-1.2q2.436-.025,4.873,0c.855.008,1.2.388,1.206,1.251,0,.8,0,1.6,0,2.4" transform="translate(-27.173 -19.815)" fill="#d4fafd"/>
        <path id="Trazado_168991" data-name="Trazado 168991" d="M85.957,44.471c0,.8.006,1.6,0,2.4-.008.84-.35,1.195-1.166,1.2q-2.434.008-4.868,0c-.893,0-1.241-.362-1.244-1.269q-.006-2.336,0-4.673c0-.917.429-1.335,1.361-1.338q2.272-.007,4.543,0c1.035,0,1.37.334,1.375,1.344,0,.779,0,1.558,0,2.337" transform="translate(-38.231 -19.82)" fill="#d4fafd"/>
        <path id="Trazado_168992" data-name="Trazado 168992" d="M14,48.065c-.844,0-1.688.009-2.531,0a.966.966,0,0,1-1.051-1.046q-.023-2.564,0-5.128a.987.987,0,0,1,1.09-1.1c1.687-.026,3.375-.022,5.062,0a1.09,1.09,0,0,1,1.116,1.116q.028,2.564,0,5.128A.986.986,0,0,1,16.6,48.061c-.866.015-1.731,0-2.6,0" transform="translate(-5.056 -19.814)" fill="#d4fafd"/>
        <path id="Trazado_168993" data-name="Trazado 168993" d="M10.413,66.381c0-.8-.007-1.6,0-2.4.008-.766.333-1.17,1.069-1.183,1.709-.03,3.42-.025,5.13,0a1.079,1.079,0,0,1,1.071,1.092q.029,2.6,0,5.195a.949.949,0,0,1-1,.976q-2.662.026-5.325,0a.93.93,0,0,1-.94-1.013c-.012-.887,0-1.775,0-2.662" transform="translate(-5.059 -30.505)" fill="#d4fafd"/>
        <path id="Trazado_168994" data-name="Trazado 168994" d="M36.754,70.065c-.844,0-1.688.009-2.531,0a.97.97,0,0,1-1.05-1.049q-.022-2.564,0-5.128a1.013,1.013,0,0,1,1.105-1.092q2.531-.036,5.062,0a1.1,1.1,0,0,1,1.1,1.182q.008,2.467,0,4.933a1.019,1.019,0,0,1-1.158,1.156c-.844.011-1.688,0-2.531,0" transform="translate(-16.115 -30.505)" fill="#d4fafd"/>
        <path id="Trazado_168995" data-name="Trazado 168995" d="M36.753,92.063c-.844,0-1.688.009-2.531,0a.97.97,0,0,1-1.05-1.049q-.021-2.564,0-5.128a1.013,1.013,0,0,1,1.106-1.091q2.531-.036,5.062,0a1.088,1.088,0,0,1,1.1,1.129q.023,2.531,0,5.063a.988.988,0,0,1-1.091,1.077c-.866.009-1.731,0-2.6,0" transform="translate(-16.115 -41.196)" fill="#d4fafd"/>
        <path id="Trazado_168996" data-name="Trazado 168996" d="M14.024,92.064c-.844,0-1.688.008-2.531,0a.963.963,0,0,1-1.077-1.077q-.012-2.5,0-5c0-.781.362-1.185,1.134-1.2,1.666-.023,3.332-.02,5,0a1.1,1.1,0,0,1,1.141,1.157q.023,2.531,0,5.062a.984.984,0,0,1-1.066,1.049c-.865.017-1.731,0-2.6,0" transform="translate(-5.058 -41.196)" fill="#d4fafd"/>
        <path id="Trazado_168997" data-name="Trazado 168997" d="M60.307,62.812A17.368,17.368,0,0,0,55.991,67.2a15.325,15.325,0,0,1-.058-3.582c.031-.564.58-.821,1.149-.825,1.074-.007,2.149.008,3.224.014" transform="translate(-27.143 -30.515)" fill="#d4fafd"/>
        <path id="Trazado_168998" data-name="Trazado 168998" d="M27.514,20.719q-12.342,0-24.684.015c-.626,0-.8-.15-.787-.782.044-1.948.012-3.9.017-5.846A3.605,3.605,0,0,1,5.71,10.437c1.884,0,3.768.013,5.652-.011.464-.006.591.144.577.592-.029.973-.02,1.948,0,2.922a3.439,3.439,0,0,0,3.456,3.4,3.474,3.474,0,0,0,3.557-3.378c.023-1.017.019-2.036,0-3.053-.007-.371.12-.48.484-.479q8.087.014,16.174,0c.4,0,.525.118.514.516-.025.952-.012,1.905-.006,2.858a3.509,3.509,0,1,0,7.018.036c.011-.974.016-1.949,0-2.923-.007-.364.11-.489.481-.486,2.014.014,4.028-.019,6.041.016a3.594,3.594,0,0,1,3.35,3.5c.017,2.057-.011,4.114.016,6.171.007.5-.145.614-.624.611-3.811-.019-7.621-.01-11.433-.01H27.514" transform="translate(-0.993 -5.066)" fill="#178aeb"/>
        <path id="Trazado_168999" data-name="Trazado 168999" d="M81.161,69.715a13.038,13.038,0,0,1,1.081,5.857,14.463,14.463,0,0,1-3.574,9.13A14.455,14.455,0,0,1,58.573,86.5a14.267,14.267,0,0,1-5.4-12.264,13.859,13.859,0,0,1,.8-3.92c.068-.2.122-.422.344-.527a10.02,10.02,0,0,1,1.843-2.954A14.691,14.691,0,0,1,65.7,61.666a14.939,14.939,0,0,1,14,5.707,23,23,0,0,1,1.468,2.342" transform="translate(-25.83 -29.903)" fill="#ba608a"/>
        <path id="Trazado_169000" data-name="Trazado 169000" d="M23.3,7.2c0-.888-.014-1.776,0-2.663a2.46,2.46,0,0,1,4.919-.021q.044,2.663,0,5.326A2.461,2.461,0,0,1,23.306,9.8c-.013-.866,0-1.732,0-2.6" transform="translate(-11.322 -1.029)" fill="#d4fafd"/>
        <path id="Trazado_169001" data-name="Trazado 169001" d="M75.269,7.205c0,.888.016,1.776,0,2.663a2.46,2.46,0,0,1-4.916.042c-.036-1.8-.03-3.594,0-5.39a2.46,2.46,0,0,1,4.92.023c.018.887,0,1.775,0,2.663" transform="translate(-34.173 -1.029)" fill="#d4fafd"/>
        <path id="Trazado_169002" data-name="Trazado 169002" d="M82.243,68.87c-.306-.071-.341-.373-.469-.582a14.825,14.825,0,0,0-11.013-7.3A15,15,0,0,0,55.7,68.446c-.1.167-.206.328-.309.493a1.065,1.065,0,0,1,.188-.673,14.523,14.523,0,0,1,26.662.6" transform="translate(-26.912 -29.059)" fill="#fefefe"/>
        <path id="Trazado_169003" data-name="Trazado 169003" d="M40.383,43.827c-.062.117-.13.275-.222.416-.726,1.126-1.452,2.252-2.189,3.371-.379.575-.621.6-1.13.127-.445-.411-.88-.832-1.324-1.245-.27-.251-.521-.534-.2-.88.3-.329.61-.153.9.095.371.313.671.962,1.1.871.334-.07.548-.72.809-1.117.415-.632.825-1.268,1.236-1.9a.552.552,0,0,1,.663-.277c.233.07.333.256.357.541" transform="translate(-17.089 -21.021)" fill="#3a2f5f"/>
        <path id="Trazado_169004" data-name="Trazado 169004" d="M58.339,45.425c.421.084.645.461.942.732.625.57.615.579,1.06-.106.518-.8,1.042-1.589,1.552-2.391.209-.327.47-.568.843-.325s.229.593.026.905c-.729,1.122-1.452,2.25-2.187,3.369-.367.558-.61.593-1.084.161-.512-.465-1.009-.947-1.509-1.426a.505.505,0,0,1-.142-.641.53.53,0,0,1,.5-.278" transform="translate(-28.077 -21.01)" fill="#3a2f5f"/>
        <path id="Trazado_169005" data-name="Trazado 169005" d="M86.182,43.754a.7.7,0,0,1-.177.473c-.74,1.142-1.488,2.278-2.221,3.425-.3.472-.633.55-1.05.153q-.729-.693-1.46-1.383c-.267-.252-.411-.544-.1-.837.263-.25.557-.163.809.07.047.044.092.091.139.135,1.012.942,1.011.941,1.753-.2.448-.688.9-1.373,1.346-2.061a.527.527,0,0,1,.672-.234.423.423,0,0,1,.293.454" transform="translate(-39.359 -21.021)" fill="#3a2f5f"/>
        <path id="Trazado_169006" data-name="Trazado 169006" d="M14.649,48.058a.727.727,0,0,1-.459-.217c-.5-.474-1.006-.95-1.512-1.421-.271-.253-.4-.547-.109-.839.258-.259.554-.169.808.061l.19.177c.97.907.97.907,1.711-.233.424-.652.854-1.3,1.269-1.957.2-.315.462-.511.8-.309.391.233.28.568.066.893q-1.122,1.7-2.228,3.421a.773.773,0,0,1-.537.425" transform="translate(-6.027 -21.01)" fill="#3a2f5f"/>
        <path id="Trazado_169007" data-name="Trazado 169007" d="M14.669,70.063a6.925,6.925,0,0,1-2.233-2.092.442.442,0,0,1,.21-.444.533.533,0,0,1,.662.057,8.344,8.344,0,0,1,.849.8c.319.374.481.245.7-.1.534-.863,1.1-1.7,1.651-2.559.213-.332.465-.647.88-.38s.209.628,0,.953q-1.083,1.652-2.155,3.313c-.143.22-.283.44-.555.456" transform="translate(-6.042 -31.703)" fill="#3a2f5f"/>
        <path id="Trazado_169008" data-name="Trazado 169008" d="M40.356,65.6a.791.791,0,0,1-.17.62c-.74,1.143-1.478,2.288-2.229,3.423-.362.548-.605.573-1.084.133s-.943-.892-1.418-1.333c-.27-.251-.419-.541-.123-.837s.594-.158.856.091.55.491.8.763.381.213.565-.082c.582-.935,1.2-1.852,1.8-2.776a.575.575,0,0,1,.647-.319.46.46,0,0,1,.365.317" transform="translate(-17.09 -31.716)" fill="#3a2f5f"/>
        <path id="Trazado_169009" data-name="Trazado 169009" d="M40.375,87.763a.853.853,0,0,1-.2.483c-.729,1.124-1.454,2.251-2.19,3.371-.386.588-.62.615-1.126.15-.478-.44-.943-.892-1.418-1.335-.249-.232-.386-.5-.135-.79.271-.31.576-.209.851.034.048.043.094.089.142.133,1.016.929,1.015.929,1.754-.211.435-.671.874-1.339,1.309-2.01a.557.557,0,0,1,.655-.3.479.479,0,0,1,.358.47" transform="translate(-17.091 -42.407)" fill="#3a2f5f"/>
        <path id="Trazado_169010" data-name="Trazado 169010" d="M17.621,87.825c-.07.134-.139.29-.231.433-.726,1.125-1.452,2.251-2.188,3.369-.382.58-.616.6-1.126.132-.46-.425-.912-.86-1.371-1.287-.261-.243-.447-.526-.164-.836.306-.334.615-.165.9.094.348.319.754.913,1.051.866.454-.073.61-.758.9-1.176.419-.6.8-1.229,1.2-1.844a.556.556,0,0,1,.662-.279c.236.07.318.271.364.529" transform="translate(-6.025 -42.407)" fill="#3a2f5f"/>
        <path id="Trazado_169011" data-name="Trazado 169011" d="M69.835,88.732a11.293,11.293,0,0,1-9.582-6.112,11.5,11.5,0,0,1,1.2-12.732A11.211,11.211,0,0,1,70.9,65.605a11.54,11.54,0,0,1,8.145,19.263,11.825,11.825,0,0,1-6.954,3.794,8.41,8.41,0,0,1-.969.069,4.235,4.235,0,0,1-1.289,0" transform="translate(-28.606 -31.876)" fill="#3a2e5f"/>
        <path id="Trazado_169012" data-name="Trazado 169012" d="M80.2,110.6h1.289a1.716,1.716,0,0,1-1.289,0" transform="translate(-38.974 -53.746)" fill="#a85883"/>
        <path id="Trazado_169013" data-name="Trazado 169013" d="M71.475,88.695A10.572,10.572,0,1,1,82.033,78.109,10.574,10.574,0,0,1,71.475,88.695" transform="translate(-29.599 -32.825)" fill="#fdd6e4"/>
        <path id="Trazado_169014" data-name="Trazado 169014" d="M76.236,77.433c0,1.32-.015,2.641.007,3.96.01.58-.2.817-.8.809-1.688-.023-3.376-.012-5.064-.006-.38,0-.745-.056-.737-.515.008-.441.367-.529.747-.528,1.406,0,2.814-.024,4.22.014.5.014.6-.146.6-.616-.025-2.251-.011-4.5-.011-6.753,0-.152,0-.3,0-.454-.006-.358.163-.61.52-.611s.521.254.52.61q0,2.045,0,4.09" transform="translate(-33.843 -35.343)" fill="#3a2e5f"/>
      </g>
    </g>
  </g>
</svg>
