<svg xmlns="http://www.w3.org/2000/svg" xmlns:xlink="http://www.w3.org/1999/xlink" width="297" height="316" viewBox="0 0 297 316">
  <defs>
    <clipPath id="clip-path">
      <rect id="Rectángulo_39802" data-name="Rectángulo 39802" width="297" height="316" rx="11" transform="translate(0 0)" fill="#ff9fa3"/>
    </clipPath>
    <clipPath id="clip-path-2">
      <rect id="Rectángulo_39795" data-name="Rectángulo 39795" width="297" height="316" rx="11" transform="translate(-29.894 0)" fill="#ffbfc1"/>
    </clipPath>
    <clipPath id="clip-path-3">
      <rect id="Rectángulo_43384" data-name="Rectángulo 43384" width="341.853" height="325.28" fill="none"/>
    </clipPath>
    <clipPath id="clip-path-4">
      <rect id="Rectángulo_43383" data-name="Rectángulo 43383" width="341.852" height="325.278" fill="none"/>
    </clipPath>
    <clipPath id="clip-path-5">
      <rect id="Rectángulo_43376" data-name="Rectángulo 43376" width="108.165" height="78.454" fill="none"/>
    </clipPath>
    <clipPath id="clip-path-6">
      <rect id="Rectángulo_43377" data-name="Rectángulo 43377" width="8.143" height="8.004" fill="none"/>
    </clipPath>
    <clipPath id="clip-path-7">
      <rect id="Rectángulo_43378" data-name="Rectángulo 43378" width="7.87" height="9.044" fill="none"/>
    </clipPath>
    <clipPath id="clip-path-8">
      <rect id="Rectángulo_43379" data-name="Rectángulo 43379" width="6.909" height="8.162" fill="none"/>
    </clipPath>
    <clipPath id="clip-path-9">
      <rect id="Rectángulo_43380" data-name="Rectángulo 43380" width="7.796" height="6.964" fill="none"/>
    </clipPath>
    <clipPath id="clip-path-10">
      <rect id="Rectángulo_43382" data-name="Rectángulo 43382" width="218.832" height="38.724" fill="none"/>
    </clipPath>
    <clipPath id="clip-path-11">
      <path id="Trazado_167746" data-name="Trazado 167746" d="M436.22,1094.473a105.2,105.2,0,0,1,10.633,0c-.838-11.52,1.827-24.778,2.621-38.724-1.6,4.012-49.253,4.894-55.009,5.182q-27.472,1.377-54.986,1.613t-55.006-.665c-16.812-.551-37.517-5.118-53.79-2.133-.356,10.768,1.656,22.165,3.143,33.128l42.806-.027,120.13-.076" transform="translate(-230.641 -1055.749)" fill="none"/>
    </clipPath>
    <linearGradient id="linear-gradient" x1="-0.279" y1="0.906" x2="-0.278" y2="0.906" gradientUnits="objectBoundingBox">
      <stop offset="0" stop-color="#fff"/>
      <stop offset="1" stop-color="#45708e"/>
    </linearGradient>
  </defs>
  <g id="_4" data-name="4" transform="translate(5414.894 9392)">
    <g id="Grupo_163732" data-name="Grupo 163732" transform="translate(-5385 -9392)">
      <g id="Grupo_163731" data-name="Grupo 163731" transform="translate(-30)">
        <rect id="Rectángulo_39114" data-name="Rectángulo 39114" width="297" height="316" rx="11" transform="translate(0.106 0)" fill="#ff9fa3"/>
        <g id="Enmascarar_grupo_173" data-name="Enmascarar grupo 173" transform="translate(0.106 0)" clip-path="url(#clip-path)">
          <path id="Trazado_145433" data-name="Trazado 145433" d="M585.659,449.787H63.054C-5.429,269.83,50.206,53.634,188.9,10.313,358.473-42.655,404.028,122.928,420.728,177.5c25.075,81.936,267.178,58.762,164.931,272.292" transform="translate(-200.268 -97.927)" fill="#ffbfc1"/>
        </g>
      </g>
      <g id="Enmascarar_grupo_179" data-name="Enmascarar grupo 179" clip-path="url(#clip-path-2)">
        <g id="Grupo_171071" data-name="Grupo 171071" transform="translate(-51.82 0)">
          <g id="Grupo_171070" data-name="Grupo 171070" clip-path="url(#clip-path-3)">
            <g id="Grupo_171069" data-name="Grupo 171069" transform="translate(0 0.001)">
              <g id="Grupo_171068" data-name="Grupo 171068" clip-path="url(#clip-path-4)">
                <path id="Trazado_167605" data-name="Trazado 167605" d="M968.7,347.1a22.418,22.418,0,0,1-4.083-.536,8.184,8.184,0,0,1-2.405-2.128c-.557-.64-.856-.84-1.483-.013a3.1,3.1,0,0,1-2.894,1.349l-3.273-.342a.8.8,0,0,1-.723-1.06c.12-.586.245-1.176.95-1.335.557-.125,1.051-.27,1.043-1a1.036,1.036,0,0,0-.934-1.126,1.265,1.265,0,0,1-.984-1.151c-.086-.4-.236-.777-.335-1.169-1.085-4.3-6.285-4.6-8.832-2.838a4.387,4.387,0,0,0-1.343,1.665c-.8,1.517-1.353,3.148-2.2,4.641-.468.823-1.019,1.492-2.111,1.277l-.52-.04a2.244,2.244,0,0,1-2.176-2.03c-.162-1.433-.381-2.953,1.188-3.865a1.463,1.463,0,0,0,.876-1.1c.215-1.5-.282-1.953-1.721-1.5a4.625,4.625,0,0,0-3.274,3.154,2.307,2.307,0,0,1-1.336,1.725c-.788.33-.631,1.106.3,1.565.669.329,1.288.6.71,1.49a4.788,4.788,0,0,1-2.735-.493,15.7,15.7,0,0,1-5.76-7.353c-2.272-5.277-3.375-10.862-4.326-16.487-.648-3.833-1.284-7.667-1.736-11.529a23.682,23.682,0,0,0-3.112-8.474c-.816-1.508-1.7-2.985-2.624-4.434-.686-1.073-.477-1.495.81-1.476,4.017.058,8.033.213,12.046.405.359.017.717.112,1.079.1,4.522-.181,9.03.282,13.549.334,2.075.024,4.3-.238,6.207.969a11.928,11.928,0,0,1,4.65,5.34,26.344,26.344,0,0,1,1.61,6.011c1.187,6.491,1.89,13.073,3.521,19.478,1.513,5.944,3.474,11.714,7.482,16.542A36.225,36.225,0,0,0,967.8,345.7c.427.375,1,.671.893,1.4" transform="translate(-664.795 -213.099)" fill="#6aa72e"/>
                <path id="Trazado_167606" data-name="Trazado 167606" d="M960.478,343.458c-1.746-1.752-3.663-3.321-5.25-5.248a35.962,35.962,0,0,1-5.862-11.068c-2.159-6.058-3.047-12.4-4.12-18.7-.671-3.942-1.017-7.954-2.39-11.755a12.938,12.938,0,0,0-3.935-5.247c-1.793-1.579-4.007-1.254-6.063-1.36-4.778-.245-9.569-.24-14.352-.387-4.328-.133-8.654-.333-12.981-.5-.314-.012-.628,0-1.113,0,.785,1.334,1.474,2.574,2.229,3.771a30.475,30.475,0,0,1,4.485,12.757,121.669,121.669,0,0,0,4.244,21.7c1.276,4.061,3.083,7.811,6.412,10.641a2.956,2.956,0,0,1,.4.533c-1.095.241-1.778-.482-2.488-1.093a22.186,22.186,0,0,1-7.239-12.977q-1.025-5.17-1.93-10.363-.978-5.658-1.825-11.338a26.686,26.686,0,0,0-3.613-9.4,43.4,43.4,0,0,0-3.91-5.659c.362-.41.794-.245,1.164-.237,9.892.2,19.785.389,29.675.664,1.712.048,3.426.165,5.142.19a3.5,3.5,0,0,1,1.9.606c4.27,2.731,6.55,6.827,7.529,11.6,1.437,7.011,2.606,14.078,3.846,21.129a1.67,1.67,0,0,0,1.1,1.356,1.866,1.866,0,0,0-.033,1.476c.224.657.371,1.334.578,1.994a31.048,31.048,0,0,0,9.339,14.69c.812.591,1.662,1.129,2.478,1.715.392.347,1.162.27,1.181,1.04a20.837,20.837,0,0,1-4.6-.535" transform="translate(-656.576 -209.461)" fill="#bbe46f"/>
                <path id="Trazado_167607" data-name="Trazado 167607" d="M1098.615,439.521l-1.343-.8c1.191-.75,2.555-.341,3.829-.53a31.349,31.349,0,0,0,13.813-5.6,35.241,35.241,0,0,0,5.327-4.18c.209-.22.5-.383.556-.825a63.832,63.832,0,0,0-6.857-1.51c-7.1-1.391-14.176-2.883-21.276-4.265-2.173-.423-4.356-.8-6.507-1.336a5.682,5.682,0,0,1-1.413-.455c-.3-.565-.542-1.116.328-1.408q11.207,2.246,22.414,4.495c5.78,1.164,11.557,2.342,17.583,3.564a45.165,45.165,0,0,1-4.623,4.716,33.175,33.175,0,0,1-16.459,8.278,11.566,11.566,0,0,1-5.371-.138" transform="translate(-790.118 -304.987)" fill="#9daf5b"/>
                <path id="Trazado_167608" data-name="Trazado 167608" d="M1010.569,455.815a2.5,2.5,0,0,0,1.956-1.665c.645-1.488,1.324-2.961,2.019-4.427,1.11-2.343,3.193-2.938,5.517-2.841,2.363.1,4.277,1.052,5.149,3.454a6.363,6.363,0,0,1,.463,1.549c.073.837.31,1.227,1.276,1.272,1.129.052.591,1.094.7,1.723.106.6-.134.93-.814.9-.411-.021-.97-.186-1.047.509-.062.56-.627,1.206.247,1.626l-7.322-.975c.173-.333.508-.328.812-.4a2.852,2.852,0,0,0,2.16-3.7,2.279,2.279,0,0,0-1.844-1.775,2.041,2.041,0,0,0-2.142,1.117,12.9,12.9,0,0,0-1.219,2.858,2.851,2.851,0,0,1-.776,1.545c-1.7-.338-3.49-.091-5.14-.769" transform="translate(-736.277 -325.582)" fill="#bbe56f"/>
                <path id="Trazado_167609" data-name="Trazado 167609" d="M983.509,454.555c.067-.59.034-1.067-.755-1.136a1.094,1.094,0,0,1-1.154-1.3c.033-.813.25-1.163,1.089-1.093.6.05.553-.482.636-.855.552-2.485,2.238-3.682,4.618-4.152.906-.179,1.282.113,1.245,1.022-.043,1.057.309,2.076-1.265,2.646-1.52.551-1.2,4.086.316,5.051.224.142.467.254.7.379a30.776,30.776,0,0,1-5.432-.56" transform="translate(-715.169 -324.921)" fill="#bbe570"/>
                <path id="Trazado_167610" data-name="Trazado 167610" d="M1029.506,466.632a16.187,16.187,0,0,1,1.507-4.322c.713-1.389,1.729-1.888,2.957-1.541a2.946,2.946,0,0,1,2.013,3.154c-.2,2.107-1.131,2.925-3.468,3.059l-3.008-.35" transform="translate(-750.074 -335.629)" fill="#6aa72f"/>
                <path id="Trazado_167611" data-name="Trazado 167611" d="M1079.627,481.7a4.815,4.815,0,0,0,3.194-2.308c.26-.543.5-.341.79-.016.925,1.045,1.865,2.078,2.8,3.116a67.047,67.047,0,0,1-6.783-.792" transform="translate(-786.591 -349.027)" fill="#b9e370"/>
                <path id="Trazado_167612" data-name="Trazado 167612" d="M974.562,344.12c-6.862-6.442-14.758-7.337-23.176-6.2a13.069,13.069,0,0,0-2.109.461c-1.953.606-3.7,1.5-4.492,3.71a6.807,6.807,0,0,1-1.289-2.7c-1.915-5.374-2.813-10.98-3.8-16.573-.67-3.814-.9-7.7-1.828-11.468a22.989,22.989,0,0,0-1.6-4.16c-.24-.518-.53-1.014.43-1.287a1.829,1.829,0,0,0,1.31-2.35c-.172-.738.167-.76.678-.742,4.059.15,8.117.315,12.177.447,2.079.068,4.159.089,6.239.107a1.645,1.645,0,0,1,1.5.668,5.728,5.728,0,0,0,5.563,2.335c.826-.107,1.012.493,1.284.961,1.226,2.114,1.542,4.5,1.958,6.851,1.265,7.134,2.066,14.354,4.057,21.351a77.763,77.763,0,0,0,3.1,8.581" transform="translate(-681.971 -220.625)" fill="#bbe56f"/>
                <path id="Trazado_167613" data-name="Trazado 167613" d="M1097.234,445.765a25.648,25.648,0,0,1-6.649-8.011,23.544,23.544,0,0,1-2.9-6.884,1.429,1.429,0,0,1,1.4-.212c5.323.98,10.608,2.154,15.924,3.173,2.612.5,5.215,1.059,7.824,1.579a21.4,21.4,0,0,1,2.1.5c.657.2.9.6.531,1.217a1.59,1.59,0,0,0,.36,2.359c.814.666.08,1.122-.42,1.452a25.353,25.353,0,0,1-5.831,3.122,28.317,28.317,0,0,1-12.352,1.705" transform="translate(-792.464 -313.707)" fill="#9eb05c"/>
                <path id="Trazado_167614" data-name="Trazado 167614" d="M1095.627,440.6c.373-.388.854-.221,1.284-.218a30.866,30.866,0,0,0,11.856-2.2,37.6,37.6,0,0,0,5.68-3.235c-.48-.625-1.45-.689-1.518-1.615-.063-.862.715-1.324.9-2.182-5.56-1.091-11.107-2.17-16.65-3.273-3.215-.639-6.423-1.32-9.636-1.971-.482-.1-.976-.134-1.464-.2q-.3-1.068-.6-2.136a2.867,2.867,0,0,1,1.565.088c9.367,1.951,18.74,3.869,28.145,5.629,2.163.4,4.31.891,6.467,1.329.277.056.564.109.658.391.1.307-.157.47-.365.652a49.3,49.3,0,0,1-11.167,7.765,27.274,27.274,0,0,1-12.775,2.852l-2.385-1.675" transform="translate(-790.858 -308.546)" fill="#63942f"/>
                <path id="Trazado_167615" data-name="Trazado 167615" d="M986.719,353.692a4.607,4.607,0,0,1,3.4,1.044,2.044,2.044,0,0,1-.03,3.522,6.022,6.022,0,0,1-6.513.183,2.226,2.226,0,0,1,.144-4.036,4.9,4.9,0,0,1,3-.713" transform="translate(-715.724 -257.669)" fill="#6aa72e"/>
                <path id="Trazado_167616" data-name="Trazado 167616" d="M1103.487,450.645c2.012.2,3.916.643,5.346,2.2.977,1.065.605,2.182-.808,2.429a7.559,7.559,0,0,1-6.17-1.6c-.51-.4-1.084-.973-.931-1.683.166-.771.91-1.06,1.637-1.224.3-.068.62-.085.927-.124" transform="translate(-802.088 -328.33)" fill="#629330"/>
                <path id="Trazado_167617" data-name="Trazado 167617" d="M703.289,337.242c1.929.448,3.863.878,5.787,1.348,2.579.63,5.147,1.31,7.728,1.933,4.156,1,8.32,1.978,12.48,2.967,3.549.844,7.089,1.723,10.649,2.518,1,.224,1.176.52.652,1.431a192.945,192.945,0,0,0-11.412,22.5c-1.522,3.689-1.6,7.464-1.3,11.3.612,7.683,2.245,15.271,2.068,23.032a39.414,39.414,0,0,1-1.773,9.953c-1.757,6.141-4.035,12.105-6.351,18.054-.36.925-.65,1.144-1.638.641-7.328-3.735-14.694-7.393-22.045-11.081-4.96-2.488-9.909-5-14.881-7.462-.879-.436-1.178-.782-.631-1.791,2.4-4.429,4.582-8.967,6.62-13.576,1.38-3.121,1.642-6.443,1.883-9.771.523-7.223.147-14.458.265-21.687a57.893,57.893,0,0,1,1.173-12.51,36.79,36.79,0,0,1,6.285-13.063c1.005-1.386,2.105-2.7,3.179-4.04a1.414,1.414,0,0,1,1.263-.7" transform="translate(-497.143 -245.703)" fill="#bbe56f"/>
                <path id="Trazado_167618" data-name="Trazado 167618" d="M746.534,356.152l-.478.972c-3.413,6.924-6.909,13.811-9.387,21.151-1.087,3.219-.776,6.523-.536,9.795.29,3.95.805,7.883,1.208,11.825.312,3.051.557,6.1.572,9.176a36.859,36.859,0,0,1-1.746,10.229,109.808,109.808,0,0,1-5.331,14.878c-.948,2.125-.624,1.807-2.422.886-10.013-5.124-20-10.3-30.033-15.382-1.158-.587-1.216-1.11-.7-2.138,2.067-4.117,3.922-8.33,5.622-12.613a24.9,24.9,0,0,0,1.44-6.851c.518-5.306.46-10.639.653-15.96.2-5.576.052-11.185,1.184-16.707a48.253,48.253,0,0,1,5.5-13.757c.658-1.182,1.473-2.278,2.111-3.47.462-.864,1.043-.907,1.876-.678,4.606,1.265,9.222,2.494,13.833,3.739q7.9,2.131,15.79,4.269c.36.1.868,0,.844.637" transform="translate(-508.086 -253.101)" fill="#6aa72e"/>
                <path id="Trazado_167619" data-name="Trazado 167619" d="M737.361,551.208c-7.085-3.231-14.053-6.426-21.042-9.572-.826-.372-1.037-.716-.727-1.6a2.321,2.321,0,0,0-1.01-2.937c-.721-.426-.632-.787-.382-1.41,1.291-3.222,2.631-6.43,3.784-9.7,1.166-3.308,1.232-6.8,1.369-10.271a9.558,9.558,0,0,1,.144-1.785,32.96,32.96,0,0,0,6.049,5.131,23.821,23.821,0,0,0,12.83,4.144c3.289.031,6.642-1.022,8.17-5.413a3.533,3.533,0,0,1,.277-.5c.711,1.49.511,3.077.665,4.582a38.714,38.714,0,0,1-1.134,14.993,105.606,105.606,0,0,1-3.677,10.732c-.194.468-.214,1-1.088.746-2.4-.691-3.684.2-4.229,2.862" transform="translate(-520.217 -374.441)" fill="#bbe570"/>
                <path id="Trazado_167620" data-name="Trazado 167620" d="M761.233,394.818c-.91-.82-1.627-1.794-2.577-2.542a25.3,25.3,0,0,0-17.993-5.693,6.293,6.293,0,0,0-5,3.307c0-2.109-.093-4.181.019-6.241a43.185,43.185,0,0,1,2.666-13.047,49.323,49.323,0,0,1,3.85-7.893,1.3,1.3,0,0,1,1.641-.707c1.3.269,2.744.567,3.435-1.186.2-.514.675-.3,1.062-.19l12.485,3.527c1.82.514,3.638,1.04,5.464,1.532.794.214,1.356.426,1.114,1.506a2.441,2.441,0,0,0,.975,2.76c.761.5.147.958-.063,1.374a101.462,101.462,0,0,0-5.561,12.47c-1.1,3.17-2.009,6.367-1.374,9.783a4.668,4.668,0,0,1,.018.947c0,.07-.072.139-.159.293" transform="translate(-535.961 -262.644)" fill="#bbe570"/>
                <path id="Trazado_167621" data-name="Trazado 167621" d="M761.358,484.835c-.522-.117-.779.088-1,.61-1.361,3.281-3.529,3.065-5.848,2.852-.6-.055-1.427-.25-1.092-1.134.278-.734-.4-1.988,1.2-2.108,2.465-.185,3.987-3.355,2.6-5.229a2.191,2.191,0,0,0-3.754.012,30.116,30.116,0,0,0-1.7,3.076c-1.234,2.339-2.728,3.224-5.08,2.985a5.274,5.274,0,0,1-4.735-4.18c-.232-.841-.089-1.848-1.348-2.229-.624-.189-.244-1.142-.208-1.742.04-.674.522-.428.909-.327.806.211.717-.522.889-.9,1.064-2.355,2.466-3.246,4.845-3.11.7.04,1.01.229.821.975a6.728,6.728,0,0,0-.18,1.334c-.026.537-.078.9-.784.995-1.413.2-1.579,1.432-1.822,2.533a2.648,2.648,0,0,0,.813,2.715,1.752,1.752,0,0,0,2.7-.4c.835-1.23,1.575-2.525,2.342-3.8,1.4-2.333,3.319-3.2,5.813-2.613a5.208,5.208,0,0,1,4.229,5.11c.054.943-.234,1.894,1.249,2.254.74.18.031,1.341.054,2.056.024.733-.573.254-.919.265" transform="translate(-539.331 -344.904)" fill="#bbe56f"/>
                <path id="Trazado_167622" data-name="Trazado 167622" d="M763.527,596.13a2.428,2.428,0,0,1-2.375,2.423,2.817,2.817,0,0,1-2.561-2.807,2.4,2.4,0,0,1,2.362-2.288,2.524,2.524,0,0,1,2.574,2.672" transform="translate(-552.691 -432.381)" fill="#69a92c"/>
                <path id="Trazado_167623" data-name="Trazado 167623" d="M794.43,398.377a2.51,2.51,0,0,1,2.629,2.461,2.422,2.422,0,0,1-2.318,2.467A2.792,2.792,0,0,1,792,400.852a2.369,2.369,0,0,1,2.427-2.476" transform="translate(-577.034 -290.249)" fill="#6ca72d"/>
                <path id="Trazado_167624" data-name="Trazado 167624" d="M106.659,65.1c-.167.214-.324.43-.5.633-4.761,5.576-9.805,10.878-15.9,15.011-3.978,2.7-8.581,4.117-13.077,5.713-8.043,2.856-16.234,5.315-23.853,9.278a38.416,38.416,0,0,0-13.576,12.355,131.893,131.893,0,0,0-8.563,13.766c-.679,1.262-1.033.835-1.68.14q-4.338-4.663-8.7-9.3-6.431-6.878-12.86-13.758-3.75-4-7.527-7.984A1.135,1.135,0,0,1,.4,89.2,44.146,44.146,0,0,1,16.411,76.169c10.33-4.81,21.023-8.759,31.538-13.13A75.755,75.755,0,0,0,68,50.7a59.528,59.528,0,0,0,5.756-5.343c.692-.766,1.167-.7,1.921-.208,3.13,2.041,6.281,4.049,9.435,6.051q10.261,6.514,20.53,13.016c.364.231.8.4,1.014.885" transform="translate(0 -32.629)" fill="#bbe470"/>
                <path id="Trazado_167625" data-name="Trazado 167625" d="M85.588,52.959c.577.344,1.2.7,1.816,1.084q13.128,8.233,26.264,16.454c.845.527,1.088.861.35,1.715A67.342,67.342,0,0,1,93.06,88.446c-5.221,2.621-10.852,4.174-16.416,5.885a81.68,81.68,0,0,0-16.9,6.843,38.023,38.023,0,0,0-12.321,11.182A113.487,113.487,0,0,0,40.5,123.346c-.5.92-.774,1.1-1.547.228q-6.356-7.212-12.8-14.346c-2.958-3.29-5.947-6.552-8.921-9.828-.728-.8-1.4-1.662-2.189-2.4a1.358,1.358,0,0,1-.146-2.1,33.719,33.719,0,0,1,7.807-7.443c5.088-3.688,10.836-6.117,16.547-8.619,9.466-4.147,19.152-7.793,28.38-12.483,4.587-2.331,8.509-5.594,12.442-8.837,1.636-1.349,3.191-2.8,4.789-4.19.191-.167.334-.452.723-.366" transform="translate(-10.544 -38.574)" fill="#6aa72f"/>
                <path id="Trazado_167626" data-name="Trazado 167626" d="M64.537,139.13c-2.156,3.436-1.543,6.525.187,9.494,3.162,5.427,8.213,8.047,14.152,9.273a18.5,18.5,0,0,1,2.1.467,44.715,44.715,0,0,0-24.268,20.949c-3.721-2.974-5.429-1.564-5.861,1.3-2-2.18-3.952-4.291-5.881-6.424-3.18-3.517-6.329-7.062-9.529-10.561-.61-.667-.924-1,.024-1.737,1.7-1.324,1.423-4.4-.587-5.707-1.256-.819-.691-1.205.021-1.791A59.926,59.926,0,0,1,48.348,146.1c2.631-1.193,5.3-2.314,7.949-3.455s5.3-2.259,8.239-3.512" transform="translate(-24.867 -101.368)" fill="#bbe570"/>
                <path id="Trazado_167627" data-name="Trazado 167627" d="M199.663,104.3a11.748,11.748,0,0,0,1.019-7.8c-.74-3.508-3.177-5.7-5.762-7.758a19.217,19.217,0,0,0-11.154-4.572c8.585-3.34,15.943-8.521,22.723-14.6,1.57,2.523,3.682,2.625,5.355.3.492-.683.8-.114,1.091.061,2.506,1.522,4.989,3.083,7.476,4.636q5.51,3.442,11.015,6.892a6.427,6.427,0,0,1,.546.456c-1.125.472-2.14,1.021-1.909,2.384.216,1.271,1.217,1.8,2.458,2.218-9.187,9.244-20.257,14.738-32.858,17.781" transform="translate(-133.888 -50.673)" fill="#bbe570"/>
                <path id="Trazado_167628" data-name="Trazado 167628" d="M177.589,138.2c-1.112.588-2,1.151-3.274.8-1.024-.287-2.875,1.076-3.221,2.093-.371,1.091.187,1.87,1.384,1.889a7.161,7.161,0,0,0,2.732-.694c2.09-.824,4.206-1.369,6.432-.434a5.23,5.23,0,0,1,2.548,2.132,3.366,3.366,0,0,1-.929,4.975c-.59.457-1.138.822-.29,1.535.35.294.181.551-.186.7-.853.357-1.7,1.24-2.558-.012-.313-.457-.72-.2-1.1-.078a12.143,12.143,0,0,1-4.133.579,4.269,4.269,0,0,1-2.289-.74c-1.079-.741-1.046-1.163.092-1.767.519-.276,1.066-.5,1.563-.815a1.49,1.49,0,0,1,1.82,0c1.282.787,4.208-.42,4.752-1.823.442-1.14-1.14-2.835-2.477-2.63a7.16,7.16,0,0,0-2.65.983,6.638,6.638,0,0,1-4.315.8,3.756,3.756,0,0,1-3.2-2.41,4.053,4.053,0,0,1,.693-4.084c.367-.485,1.051-.851.238-1.519-.308-.253-.115-.524.161-.614.51-.164.988-.918,1.56-.3s1.088.412,1.708.218a4.885,4.885,0,0,1,4.933,1.218" transform="translate(-122.41 -99.472)" fill="#bbe570"/>
                <path id="Trazado_167629" data-name="Trazado 167629" d="M101.965,209.521a1.408,1.408,0,0,1-1.534,1.466,3.535,3.535,0,0,1-3.2-3.418c0-1.187.615-1.919,1.625-1.929,1.573-.015,3.109,1.811,3.106,3.881" transform="translate(-70.842 -149.826)" fill="#6ba72d"/>
                <path id="Trazado_167630" data-name="Trazado 167630" d="M290.1,108.73c-.009,1.181-.6,1.813-1.694,1.8a3.568,3.568,0,0,1-3.229-3.4,1.527,1.527,0,0,1,1.641-1.721,3.527,3.527,0,0,1,3.283,3.322" transform="translate(-207.77 -76.799)" fill="#69a72e"/>
                <path id="Trazado_167631" data-name="Trazado 167631" d="M1028.58,50.359c2.982-.146,5.184,1.279,7,3.48a38.917,38.917,0,0,1,6.9,13.13c3.8,12.01,11.646,20.945,21.119,28.73a108.091,108.091,0,0,0,11.579,8.257c.252.156.593.227.654.445-2.424,0-4.879.095-7.324-.016q-16.795-.763-33.585-1.637c-1.839-.1-3.247-1.317-4.7-2.269A44.24,44.24,0,0,1,1015,83.516a103.135,103.135,0,0,1-7.595-19.826,1.759,1.759,0,0,1,2.2.315,81.329,81.329,0,0,0,5.849,16.441,41.947,41.947,0,0,0,6.428,9.694c3.273,3.683,6.712,7.223,11.017,9.772a5.631,5.631,0,0,0,2.94.87c5.286.012,10.549.537,15.825.746,2.437.1,4.866.309,7.307.351q3.924.068,7.837.47a12.264,12.264,0,0,0,2.307.006c-.948-.682-1.64-1.355-2.411-1.925a121.941,121.941,0,0,1-11.338-9.884,58.532,58.532,0,0,1-14.648-21.594,102.575,102.575,0,0,0-4.348-10.377,12.845,12.845,0,0,0-7.881-6.8c-.81-.245-1.747.05-2.445-.607.594-1.054,1.6-.815,2.53-.8" transform="translate(-733.973 -36.669)" fill="#9daf5b"/>
                <path id="Trazado_167632" data-name="Trazado 167632" d="M988.315,44.5a37.022,37.022,0,0,1,5.428.505.8.8,0,0,1-.7.35c-3.461.032-5.555,2.276-7.529,4.681a14.785,14.785,0,0,0-1.779,3.031c-.393.817-.909,1.322-1.92.961a1.828,1.828,0,0,0-2.094.586,2.374,2.374,0,0,1-2.683.679c-3.747-.824-7.5-1.615-11.253-2.419-.977-.209-1.734-.547-1.538-1.773a1.219,1.219,0,0,0-.445-1.092c-.743-.666-.478-1.225.1-1.829a12.263,12.263,0,0,1,3.843-2.728,20.036,20.036,0,0,1,7.383-2.061l.207-.03,6.469.55c2.069,1.312,4.215,1.783,6.511.59" transform="translate(-701.874 -31.591)" fill="#bbe570"/>
                <path id="Trazado_167633" data-name="Trazado 167633" d="M975.424,44.566a7.724,7.724,0,0,0-2.491.811.962.962,0,0,1-.5.654A15.344,15.344,0,0,0,965.649,55c-.417,1.334-.718,2.707-1,4.079-.253,1.212-.566,1.439-1.78,1.185-1.724-.361-3.409-.891-5.142-1.223a2,2,0,0,1-1.312-.643,4.9,4.9,0,0,0-2.159-.5c-3.435-.9-6.867-1.811-10.307-2.688-2.963-.756-5.935-1.479-8.907-2.2-1.1-.266-.361-.834-.148-1.162a19.841,19.841,0,0,1,6.171-6.151A19.548,19.548,0,0,1,953.1,42.43a2.11,2.11,0,0,1,1.178.214q-.075.062-.154.12a21.762,21.762,0,0,0-15.617,7.6c-.8.935-.8,1,.429,1.306,7.148,1.754,14.319,3.419,21.46,5.2,1.453.363,1.71.225,2.143-1.228a36.956,36.956,0,0,1,1.645-4.3,12.879,12.879,0,0,1,5.2-5.9,11.843,11.843,0,0,1,3.565-1.117,5.921,5.921,0,0,1,2.474.235" transform="translate(-680.817 -30.876)" fill="#bbe570"/>
                <path id="Trazado_167634" data-name="Trazado 167634" d="M980.753,45.136a23.646,23.646,0,0,0-4.479,2.144c-3.153,2.258-4.37,5.662-5.52,9.094-.729,2.176-.635,2.15-2.812,1.619Q956.979,55.315,946,52.718c-1.033-.244-1.034-.554-.418-1.3a21.846,21.846,0,0,1,13.647-7.873,15.034,15.034,0,0,1,2.7.023c-3.083.8-6.235,1.41-8.949,3.224a14.922,14.922,0,0,0-1.592,1.25c-.705.626-1.675,1.25-.21,2.128a.73.73,0,0,1,.261.863c-.577,1.268.283,1.4,1.164,1.586,3.871.825,7.737,1.669,11.607,2.5a1.521,1.521,0,0,0,1.841-.56,2.037,2.037,0,0,1,2.744-.732c.731.4.931,0,1.2-.527a18.852,18.852,0,0,1,3.444-5.139c1.985-1.908,4.126-3.356,7.046-3.067l.263.043" transform="translate(-688.62 -31.681)" fill="#6aa72f"/>
                <path id="Trazado_167635" data-name="Trazado 167635" d="M1037.518,45.974a1.406,1.406,0,0,1-1.127.834,7.072,7.072,0,0,1-5.27-.9c-.2-.111-.355-.287-.114-.521l6.511.59" transform="translate(-751.077 -33.067)" fill="#6ca732"/>
                <path id="Trazado_167636" data-name="Trazado 167636" d="M1015.161,66.454l1.353.3a2.615,2.615,0,0,1,1.045,1.833c.372,1.543,1.058,2.98,1.462,4.76,1.994-3.794,5.574-4.5,9.092-5.151a35.5,35.5,0,0,1,10.356-.733,11.793,11.793,0,0,1,5.036,1.864,86.724,86.724,0,0,0-4.044-8.988,12.966,12.966,0,0,0-6.954-5.752c-.495-.181-1.227-.062-1.351-.855l.527-.3c5.088.116,8.318,3,10.583,7.214,2.178,4.049,3.522,8.463,5.365,12.662a53.965,53.965,0,0,0,7.924,13.091,110.715,110.715,0,0,0,17.1,16.082c.951.742,1.853,1.547,3.014,2.521-1.144,0-2.063.065-2.97-.011-5.163-.433-10.341-.572-15.514-.826-5.487-.269-10.964-.74-16.463-.8-1.944-.021-3.334-1.366-4.729-2.425a52.148,52.148,0,0,1-13.647-15.026,60.659,60.659,0,0,1-5.549-12.743,34.006,34.006,0,0,1-1.713-6.22,1.944,1.944,0,0,1,.071-.5" transform="translate(-739.568 -38.929)" fill="#63942f"/>
                <path id="Trazado_167637" data-name="Trazado 167637" d="M1034.989,54.55a16.623,16.623,0,0,1,5.655,2.966,14.493,14.493,0,0,1,3.885,5.27c1.169,2.666,2.325,5.338,3.4,8.106a11.347,11.347,0,0,0-6.995-2.405,41.563,41.563,0,0,0-6.309.463c-3.205.415-6.407.879-9.224,2.7a5.9,5.9,0,0,0-2.373,3.379c-1.26-2.564-1.671-5.127-2.681-7.46,1.741.418,3.484.822,5.22,1.259.787.2,1.154.135,1.325-.863.786-4.585,2.261-8.858,5.978-12.016a8.757,8.757,0,0,1,2.12-1.4" transform="translate(-743.4 -39.745)" fill="#9eb05c"/>
                <path id="Trazado_167638" data-name="Trazado 167638" d="M1044.282,147.042c4.125,2.727,8.54,2.444,12.879,2.237a15.733,15.733,0,0,0,7.416-2.245,8.15,8.15,0,0,0,3.923-5.952c.542,1.065,1.088,2.128,1.626,3.2a27.135,27.135,0,0,0,4.4,6.272c2.554,2.74,5.254,5.347,7.944,7.957,1.973,1.914,4.028,3.742,6.05,5.6.388.357.621.659-.039,1-.771.4-1.025,1-.28,1.832-3.481-.2-6.756-.373-10.029-.575-2.243-.139-4.483-.318-6.725-.474-2.557-.179-5.112-.372-7.67-.518a1.228,1.228,0,0,1-1.135-.775c-.988-1.88-2.217-2.365-4.177-1.605a1.081,1.081,0,0,1-1.212-.312c-4.259-3.711-8.3-7.623-11.323-12.459a9.575,9.575,0,0,1-1.649-3.184" transform="translate(-760.839 -102.79)" fill="#9db05b"/>
                <path id="Trazado_167639" data-name="Trazado 167639" d="M1049.321,124.406a1.424,1.424,0,0,0,1.633-1.185c.339-1.162.656-2.337.878-3.526.484-2.579,1.816-3.96,4.168-4.218a4.522,4.522,0,0,1,5.007,3.216c.185.577.143,1.529,1.435,1.287.828-.156.423,1,.7,1.512.209.388.062.749-.435.736-.817-.023-.741.544-.85,1.08a4.354,4.354,0,0,1-4.208,3.829c-.631.039-1.218.037-1.175-.848.033-.673-.933-1.55.52-1.927a2.207,2.207,0,0,0,1.664-2.209,3.282,3.282,0,0,0-1.2-3.126,1.959,1.959,0,0,0-2.834,1.138,10.5,10.5,0,0,0-.581,2.9c-.144,1.995-1.435,3.9-3.05,4.208-2.323.439-4.012.262-5.46-1.882-.45-.667-.679-1.664-1.906-1.589-.541.033-.678-1.541-.09-1.726.808-.254.75-.761.746-1.347a3.8,3.8,0,0,1,2.4-3.6c.5-.248,1.314-.685,1.528,0,.231.736.906,1.636.016,2.487a2.881,2.881,0,0,0-.024,4.266,1.254,1.254,0,0,0,1.123.529" transform="translate(-760.014 -84.112)" fill="#9db05a"/>
                <path id="Trazado_167640" data-name="Trazado 167640" d="M1107.653,195.18a3.974,3.974,0,0,1-2.642-.635,1.025,1.025,0,0,1-.359-1.771c1.307-1.609,5.612-1.943,7.118-.534a1.236,1.236,0,0,1-.286,2.052,6.187,6.187,0,0,1-3.832.888" transform="translate(-804.559 -139.416)" fill="#649431"/>
                <path id="Trazado_167641" data-name="Trazado 167641" d="M339.984,300.856a6.67,6.67,0,0,1,2.989.476c1.332.515,2.75.73,4.1,1.183A40.7,40.7,0,0,1,357.46,308.3c2.289,1.614,4.492,3.35,6.682,5.1.816.652,1.224,1.27.614,2.285a2.19,2.19,0,0,0-.069,1.972,1.391,1.391,0,0,1-.87,1.966,53,53,0,0,0-11.1,7.489c-.8.667-1.511,1.427-2.275,2.131-1.033.951-1.238.888-1.612-.458A2.652,2.652,0,0,0,345,327.036c-1.2.733-1.82.264-2.473-.621-2.174-2.947-4.4-5.853-6.727-8.681a70.513,70.513,0,0,0-7.476-8.2,45.033,45.033,0,0,0-9.4-6.119c-.539-.278-1.554-.513-1.366-1.078.264-.791,1.209-.293,1.792-.132a44.545,44.545,0,0,0,9.491,1.46,31.216,31.216,0,0,0,9.748-1.434c.744-.2,1.033-.823,1.4-1.382" transform="translate(-231.343 -219.178)" fill="#bbe570"/>
                <path id="Trazado_167642" data-name="Trazado 167642" d="M318.033,297.9c.392.854-.127,1.334-.8,1.532a31.408,31.408,0,0,1-11.3,1.542,80.218,80.218,0,0,1-10.24-1.657c2.15,1.25,4.332,2.405,6.454,3.673,4.433,2.649,7.756,6.451,10.967,10.356,2.747,3.343,5.327,6.823,7.986,10.239.418.537.718,1.078,1.543.282a2.544,2.544,0,0,1,3.055-.112,2.507,2.507,0,0,1,1.441,3.2c1.466-1.292,2.646-2.346,3.841-3.384a46.883,46.883,0,0,1,10.878-7.259c.706-.329.945-.681.566-1.455a2.447,2.447,0,0,1,.181-2.582c.488-.664.15-.945-.3-1.3a99.469,99.469,0,0,0-12.682-8.995,34,34,0,0,0-8.548-3.3c-.036-.009-.1-.046-.094-.066a1.59,1.59,0,0,1,.048-.238,41.108,41.108,0,0,1,8.945,2.234c4.443,1.474,8.2,4.142,11.854,6.942a57.115,57.115,0,0,1,7.6,6.723c.978,1.073.929,1.38-.474,1.81-6.925,2.126-12.778,6.017-18.116,10.811-1.682,1.511-3.283,3.1-4.913,4.659-.99.948-1.319.883-2.126-.217-4.034-5.5-8.091-10.979-12.367-16.294-4.148-5.157-8.845-9.645-14.92-12.495a78.079,78.079,0,0,0-7.765-3.2c-.5-.173-1.206-.136-1.346-.892a98.079,98.079,0,0,1,21.268-1.636,40.031,40.031,0,0,1,7.765.943,10.684,10.684,0,0,0,1.6.132" transform="translate(-209.391 -216.226)" fill="#6aa72e"/>
                <path id="Trazado_167643" data-name="Trazado 167643" d="M274.839,302.994a91.509,91.509,0,0,1,10.329,4.342,40.94,40.94,0,0,1,12.18,9.947c4.867,5.761,9.287,11.855,13.817,17.871,1.154,1.533,1.158,1.528,2.575.119,5.143-5.114,10.566-9.852,17.241-12.928a39.95,39.95,0,0,1,6.483-2.391,45.737,45.737,0,0,0-5.6-5.374,67.7,67.7,0,0,0-12.054-8.214c-.795-.418-1.6-.816-2.4-1.223a22.748,22.748,0,0,1,7.6,2.6,43.97,43.97,0,0,1,14.305,11.973c.689.86.646,1.122-.375,1.564a81.061,81.061,0,0,0-19.116,11.565,32.188,32.188,0,0,0-6.445,7.259c-.17.258-.294.565-.676.694-2.412-3.23-4.8-6.495-7.255-9.7a138.956,138.956,0,0,0-13.535-15.819c-.322-.311-.58-.708-1.1-.7-.413-.26-.728-.647-1.158-.888a47.544,47.544,0,0,0-12.769-7.692,26.359,26.359,0,0,0-4.142-1.193c-.83-.363-1.974.305-2.58-.786,1.464-.778,3.11-.721,4.679-1.017" transform="translate(-196.832 -220.755)" fill="#bbe46f"/>
                <path id="Trazado_167644" data-name="Trazado 167644" d="M195.266,306.741c.842.61,1.917-.03,2.771.515-.9.7-2.049.578-3.069.862-9.065,2.522-15.82,7.674-19.472,16.567a68.308,68.308,0,0,0-4.214,15.1c-.307,1.895-.242,1.97,1.687,1.558a113.442,113.442,0,0,1,11.454-2.12,57.911,57.911,0,0,1,13.511.118c1.433.181,2.875.314,4.294.586.917.176,1.306-.123,1.434-1.067a62.345,62.345,0,0,1,2.3-11.127,21.29,21.29,0,0,1,8.068-10.921,3.634,3.634,0,0,1,1.081-.548,1.253,1.253,0,0,1,.806,1.029c-6.315,4.5-8.764,10.993-9.5,18.39a54.132,54.132,0,0,0-.278,6.087c.011.753-.221.9-.962.745-12.893-2.618-25.489-2.144-37.555,3.69-.034.017-.088-.008-.259-.028a42.513,42.513,0,0,1,.79-5.939c1.131-6.276,2.3-12.6,5.45-18.21,4.508-8.037,11.016-13.649,20.446-15.19.4-.065.809-.069,1.214-.1" transform="translate(-121.938 -223.485)" fill="#9db05b"/>
                <path id="Trazado_167645" data-name="Trazado 167645" d="M428.987,342.4c-1.109.053-1.853-.305-1.827-1.578a3.565,3.565,0,0,1,3.5-3.091c1.221-.024,1.933.542,1.941,1.541.012,1.593-1.751,3.116-3.619,3.127" transform="translate(-311.218 -246.063)" fill="#6ba82e"/>
                <path id="Trazado_167646" data-name="Trazado 167646" d="M223.947,317.653c-1.286,1.388-2.914,2.379-4.223,3.759a20.923,20.923,0,0,0-4.709,8.257,53.757,53.757,0,0,0-2.169,11.35c-.088.952-.683.828-1.238.763-2.231-.261-4.451-.624-6.685-.842a52.891,52.891,0,0,0-12.678.166c-3.916.562-7.771,1.44-11.637,2.258-.717.152-1.246.126-1.082-.913a76.117,76.117,0,0,1,4.156-15.756,27.172,27.172,0,0,1,16.439-16.346,19.5,19.5,0,0,1,6.754-1.708c5.275,1,9.767,3.659,14.071,6.7,1.031.728,2,1.542,3,2.316" transform="translate(-130.776 -224.87)" fill="#63932f"/>
                <path id="Trazado_167647" data-name="Trazado 167647" d="M228.981,323.352c-1.039,1.126-1.943,2-2.725,2.972a27.108,27.108,0,0,0-5.481,13.169c-.156,1-.338,1.863-1.776,1.841a2.087,2.087,0,0,0-1.923,1.844c-.179.991-.686,1.151-1.512,1.037a52.047,52.047,0,0,0-18.508.745c-.438.1-.91.064-1.334.2-.983.3-1.889.629-2.081-.922-.06-.487-.549-.856-.975-1.08-.571-.3-.85-.534-.651-1.289,1.347-5.112,2.8-10.177,5.777-14.64a27.021,27.021,0,0,1,12.717-10.075,8.548,8.548,0,0,1,3.309-1.062,2.251,2.251,0,0,1-.54,1.363c-1.309,2.048-.019,3.853,1.574,4.7a12.066,12.066,0,0,0,4.274,1.158,30.744,30.744,0,0,0,9.021.043,6.92,6.92,0,0,1,.833,0" transform="translate(-139.852 -230.296)" fill="#9eb05c"/>
                <path id="Trazado_167648" data-name="Trazado 167648" d="M252.982,372.805a3.27,3.27,0,0,1,2.544,1.018c1.082,1.158.874,2.231-.6,2.8a4.1,4.1,0,0,1-3.163-.026c-.913-.387-1.673-1.006-1.485-2.137.18-1.089,1.022-1.511,2.028-1.653a4.848,4.848,0,0,1,.677,0" transform="translate(-182.325 -271.61)" fill="#639430"/>
                <path id="Trazado_167649" data-name="Trazado 167649" d="M522.147,451.729s2.624,33.944-8.744,48.56c-.812,0-1.624,39.787,32.48,38.975.812,0,44.659-1.624,38.975-43.847-.812,0-9.2-34.1-7.846-51.154-.547,0-54.864,7.466-54.864,7.466" transform="translate(-373.873 -323.681)" fill="#ffa78b"/>
                <path id="Trazado_167650" data-name="Trazado 167650" d="M545.367,482.494c6.964,3.158,35.059,13.39,49.378-19.3.149-.119-10.195-2.3-22.55-4.851-13.426,1.837-26.579,3.646-26.579,3.646a139.2,139.2,0,0,1-.249,20.511" transform="translate(-397.341 -333.935)" fill="#ff7559"/>
                <path id="Trazado_167651" data-name="Trazado 167651" d="M571.463,160.094c-14.21,62.117-41.818,56.433-46.283,56.839-32.885-.406-36.539-80.387-36.539-81.2,0,0-.406-41.817,51.561-32.885,0,0,47.1,4.872,31.262,57.245" transform="translate(-356.011 -74.023)" fill="#ffa78b"/>
                <path id="Trazado_167652" data-name="Trazado 167652" d="M527.7,87.112A16.59,16.59,0,0,0,539.7,82.191a12.041,12.041,0,0,0,2.6-12.368,6.136,6.136,0,0,1-.731-2.484c.094-2.228,3.159-3.515,3.112-5.745-.046-2.206-3.407-3.612-2.4-5.575a16.993,16.993,0,0,0,2.1-7.937,9.944,9.944,0,0,0-3.2-7.384,4.307,4.307,0,0,1-1.208-1.269c-.565-1.173.324-2.483.636-3.747a4.374,4.374,0,0,0-2.792-5.024,6.419,6.419,0,0,1-1.438-.5c-1.172-.724-1.149-2.426-.841-3.769s.729-2.865-.041-4.007c-1.03-1.528-3.519-1.419-4.65-2.875.027-2.4-.636-5.018-2.583-6.419-2.806-2.018-7.587-.87-10.727.572a6.321,6.321,0,0,0-6.791-8.308,12,12,0,0,0-4.455,1.1A10.551,10.551,0,0,0,496.523.006C492.372.1,487.6,2.823,486.228,6.743c-1.463-2.01-4.648-1.988-6.727-.624a15.046,15.046,0,0,0-4.886,5.62c-1.921-2.244-5.657-2.064-8.06-.346s-2.571,4.065-3.634,6.821a20.192,20.192,0,0,0-21.7.312,17.14,17.14,0,0,0-6.759,8.76c-1.146,3.578-1.682,7.511.237,10.74-2.382-.157-4.513,1.821-5.218,4.1a12.132,12.132,0,0,0,.421,7.04c.418,1.376,1.048,3.482,2.469,3.256a9.092,9.092,0,0,0,6.119,12.764c1.756.414,4.112.87,5.076-.655a10.4,10.4,0,0,0,11.883-7.283,5.168,5.168,0,0,0,5.734-.887c1.7-1.642,2.37-4.538,4.65-5.164,1.163-.319,2.386.1,3.589.183,3.151.228,7.152-1.443,9.672-3.348a11.614,11.614,0,0,0,7.409,7.026,22.313,22.313,0,0,0,10.467.6A42.308,42.308,0,0,0,518.83,45.528c.419,5.333,1.19,12.434,5.459,15.659,1.671,1.263,3.843,2.139,4.674,4.061A7.4,7.4,0,0,1,529,69.637c-1.165,5.721-2.717,11.81-1.309,17.475" transform="translate(-312.649 -0.004)" fill="#7a3a26"/>
                <path id="Trazado_167653" data-name="Trazado 167653" d="M473.242,252.561c-1.083-8.763-2.836-16.286-2.827-24.7-1.528-.762-3.041-1.777-4.744-1.664a2.3,2.3,0,0,0-1.143.306,2.18,2.18,0,0,0-.747,1.1,13.108,13.108,0,0,0-.463,5.017c.068,1.832.179,3.789,1.272,5.261a28.676,28.676,0,0,1,2.129,2.431,8.026,8.026,0,0,1,.7,2.066,25.368,25.368,0,0,0,5.818,10.176" transform="translate(-337.535 -164.798)" fill="#7a3a26"/>
                <g id="Grupo_171050" data-name="Grupo 171050" transform="translate(120.474 3.351)" opacity="0.38" style="mix-blend-mode: screen;isolation: isolate">
                  <g id="Grupo_171049" data-name="Grupo 171049">
                    <g id="Grupo_171048" data-name="Grupo 171048" clip-path="url(#clip-path-5)">
                      <path id="Trazado_167654" data-name="Trazado 167654" d="M467.459,82.948a10.042,10.042,0,0,0-4.506,7.222c-.138,1.032,1.487,1.022,1.624,0a8.274,8.274,0,0,1,3.7-5.82c.87-.571.058-1.978-.82-1.4" transform="translate(-457.764 -63.687)" fill="#7a3a26"/>
                      <path id="Trazado_167655" data-name="Trazado 167655" d="M472.218,119.249a10.42,10.42,0,0,0-3.07,4.814c-.3,1,1.262,1.43,1.566.432a8.842,8.842,0,0,1,2.652-4.1c.784-.694-.368-1.839-1.148-1.148" transform="translate(-462.256 -90.079)" fill="#7a3a26"/>
                      <path id="Trazado_167656" data-name="Trazado 167656" d="M444.869,160.947a3.681,3.681,0,0,0-1.008,2.417c-.041,1.045,1.583,1.043,1.624,0a1.937,1.937,0,0,1,.532-1.269c.714-.762-.432-1.913-1.148-1.148" transform="translate(-443.86 -120.431)" fill="#7a3a26"/>
                      <path id="Trazado_167657" data-name="Trazado 167657" d="M455.974,187.9a4.19,4.19,0,0,1-4.076-.7c-.8-.663-1.954.48-1.148,1.148a5.851,5.851,0,0,0,5.656,1.12c.986-.33.563-1.9-.432-1.566" transform="translate(-448.681 -139.594)" fill="#7a3a26"/>
                      <path id="Trazado_167658" data-name="Trazado 167658" d="M470.4,161.6a5.427,5.427,0,0,1-4.058,1.946.812.812,0,0,0,0,1.624,7.027,7.027,0,0,0,5.206-2.422c.68-.787-.464-1.941-1.148-1.148" transform="translate(-459.669 -120.897)" fill="#7a3a26"/>
                      <path id="Trazado_167659" data-name="Trazado 167659" d="M463.555,214.9a5,5,0,0,1-4.269-.934c-.836-.628-1.647.782-.82,1.4a6.566,6.566,0,0,0,5.521,1.1c1.016-.243.586-1.809-.432-1.566" transform="translate(-454.249 -159.131)" fill="#7a3a26"/>
                      <path id="Trazado_167660" data-name="Trazado 167660" d="M500.9,199.3a5.661,5.661,0,0,1-3.277,2.234.813.813,0,0,0,.432,1.566,7.382,7.382,0,0,0,4.248-2.98c.6-.858-.807-1.671-1.4-.82" transform="translate(-482.611 -148.296)" fill="#7a3a26"/>
                      <path id="Trazado_167661" data-name="Trazado 167661" d="M508.542,171.285a11.881,11.881,0,0,0-3.632,1.724c-.847.6-.037,2.007.819,1.4a10.546,10.546,0,0,1,3.245-1.56.813.813,0,0,0-.432-1.566" transform="translate(-488.078 -128.121)" fill="#7a3a26"/>
                      <path id="Trazado_167662" data-name="Trazado 167662" d="M499.462,127.925a13.858,13.858,0,0,0-4.607,2.652c-.792.685.361,1.829,1.148,1.148a11.748,11.748,0,0,1,3.89-2.235c.983-.338.56-1.907-.432-1.566" transform="translate(-480.82 -96.52)" fill="#7a3a26"/>
                      <path id="Trazado_167663" data-name="Trazado 167663" d="M516.242,66.763a11.266,11.266,0,0,0-7.148.846c-.947.439-.123,1.839.82,1.4a9.394,9.394,0,0,1,5.9-.682c1.02.208,1.457-1.357.432-1.566" transform="translate(-491.082 -51.819)" fill="#7a3a26"/>
                      <path id="Trazado_167664" data-name="Trazado 167664" d="M510.117,86.814a21.356,21.356,0,0,0-4.244,1.071c-.974.355-.554,1.925.432,1.566a21.371,21.371,0,0,1,4.244-1.071c1.03-.151.592-1.716-.432-1.566" transform="translate(-488.638 -66.595)" fill="#7a3a26"/>
                      <path id="Trazado_167665" data-name="Trazado 167665" d="M555.2,98.047a28.691,28.691,0,0,0-4.794-1.88.813.813,0,0,0-.432,1.566,26.276,26.276,0,0,1,4.406,1.716c.933.465,1.756-.935.82-1.4" transform="translate(-520.758 -73.391)" fill="#7a3a26"/>
                      <path id="Trazado_167666" data-name="Trazado 167666" d="M540.712,121.035a9.431,9.431,0,0,1-3.66-1.328c-.891-.552-1.707.852-.819,1.4a10.589,10.589,0,0,0,4.048,1.491c1.022.151,1.464-1.414.432-1.566" transform="translate(-510.881 -90.476)" fill="#7a3a26"/>
                      <path id="Trazado_167667" data-name="Trazado 167667" d="M536.417,155.853a8.466,8.466,0,0,1-4.049-.264c-1-.307-1.43,1.261-.432,1.566a10.264,10.264,0,0,0,4.913.264c1.026-.187.592-1.752-.432-1.566" transform="translate(-507.616 -116.682)" fill="#7a3a26"/>
                      <path id="Trazado_167668" data-name="Trazado 167668" d="M540.292,184.016a11.4,11.4,0,0,1-3.641.374c-1.044-.058-1.041,1.566,0,1.624a12.858,12.858,0,0,0,4.073-.432.813.813,0,0,0-.432-1.566" transform="translate(-510.895 -137.398)" fill="#7a3a26"/>
                      <path id="Trazado_167669" data-name="Trazado 167669" d="M567.683,149.74a8.778,8.778,0,0,1-4.432-.969c-.927-.479-1.75.922-.82,1.4a10.487,10.487,0,0,0,5.251,1.191c1.041-.039,1.047-1.663,0-1.624" transform="translate(-529.951 -111.672)" fill="#7a3a26"/>
                      <path id="Trazado_167670" data-name="Trazado 167670" d="M472.982,247.932a7.97,7.97,0,0,1-.775-3.221c-.033-1.042-1.657-1.047-1.624,0a9.963,9.963,0,0,0,1,4.041c.452.942,1.852.119,1.4-.82" transform="translate(-463.329 -181.072)" fill="#7a3a26"/>
                      <path id="Trazado_167671" data-name="Trazado 167671" d="M483.291,269.923c-.2-1.024-1.768-.591-1.566.432l.6,3.046c.2,1.024,1.768.591,1.566-.432l-.6-3.046" transform="translate(-471.435 -199.585)" fill="#7a3a26"/>
                      <path id="Trazado_167672" data-name="Trazado 167672" d="M591.8,165.138q-1.756.853-3.584,1.527c-.972.359-.552,1.929.432,1.566q2.027-.747,3.971-1.691c.94-.457.117-1.857-.82-1.4" transform="translate(-548.631 -123.602)" fill="#7a3a26"/>
                      <path id="Trazado_167673" data-name="Trazado 167673" d="M586.2,127.038a18.333,18.333,0,0,0-5.7.4c-1.019.23-.588,1.8.432,1.566a16.912,16.912,0,0,1,5.267-.34c1.041.092,1.035-1.532,0-1.624" transform="translate(-542.991 -95.858)" fill="#7a3a26"/>
                      <path id="Trazado_167674" data-name="Trazado 167674" d="M590.795,107.035a13.716,13.716,0,0,0-4.295.767c-.98.344-.558,1.914.432,1.566a12.27,12.27,0,0,1,3.863-.709.812.812,0,0,0,0-1.624" transform="translate(-547.379 -81.335)" fill="#7a3a26"/>
                      <path id="Trazado_167675" data-name="Trazado 167675" d="M573.787,72.393a11.118,11.118,0,0,0-2.393.979c-.915.5-.1,1.908.82,1.4a9.214,9.214,0,0,1,2.005-.815.813.813,0,0,0-.432-1.566" transform="translate(-536.487 -56.072)" fill="#7a3a26"/>
                      <path id="Trazado_167676" data-name="Trazado 167676" d="M573.342,51.533a6.629,6.629,0,0,0-4.877,1.3c-.82.625-.012,2.036.82,1.4a5.317,5.317,0,0,1,4.057-1.083c1.033.134,1.023-1.491,0-1.624" transform="translate(-534.395 -40.858)" fill="#7a3a26"/>
                      <path id="Trazado_167677" data-name="Trazado 167677" d="M618.032,29.822a10.8,10.8,0,0,0-4.757,2.929c-.718.759.429,1.91,1.148,1.148a9.144,9.144,0,0,1,4.041-2.512c1-.3.572-1.87-.432-1.566" transform="translate(-567.126 -25.052)" fill="#7a3a26"/>
                      <path id="Trazado_167678" data-name="Trazado 167678" d="M663.085,12.722a8,8,0,0,0-7.448,1.417c-.822.643.334,1.785,1.148,1.148a6.313,6.313,0,0,1,5.868-1c1,.315,1.427-1.253.432-1.566" transform="translate(-597.95 -12.348)" fill="#7a3a26"/>
                      <path id="Trazado_167679" data-name="Trazado 167679" d="M663.232,35.492a7.51,7.51,0,0,0-4.079.245c-.979.345-.558,1.915.432,1.566a5.88,5.88,0,0,1,3.216-.245c1.02.212,1.456-1.353.432-1.566" transform="translate(-600.312 -29.086)" fill="#7a3a26"/>
                      <path id="Trazado_167680" data-name="Trazado 167680" d="M630.05,60.809l-3.674.442c-1.025.123-1.037,1.749,0,1.624l3.674-.442c1.025-.123,1.037-1.749,0-1.624" transform="translate(-576.273 -47.651)" fill="#7a3a26"/>
                      <path id="Trazado_167681" data-name="Trazado 167681" d="M609.517,78.392a5.886,5.886,0,0,1-2.938-1.766c-.707-.772-1.853.378-1.148,1.148a7.428,7.428,0,0,0,3.654,2.184.813.813,0,0,0,.432-1.566" transform="translate(-561.416 -58.994)" fill="#7a3a26"/>
                      <path id="Trazado_167682" data-name="Trazado 167682" d="M631.232,117.415a6.354,6.354,0,0,1-5.122-1.971c-.727-.754-1.874.4-1.148,1.148a7.952,7.952,0,0,0,6.271,2.447c1.038-.066,1.045-1.691,0-1.624" transform="translate(-575.637 -87.282)" fill="#7a3a26"/>
                      <path id="Trazado_167683" data-name="Trazado 167683" d="M624.765,144.205a9.941,9.941,0,0,1-4.89-1.013c-.934-.461-1.757.939-.82,1.4a11.673,11.673,0,0,0,5.71,1.236c1.041-.042,1.047-1.667,0-1.624" transform="translate(-571.202 -107.611)" fill="#7a3a26"/>
                      <path id="Trazado_167684" data-name="Trazado 167684" d="M636.577,172a5.909,5.909,0,0,1-4.784-1.662c-.75-.729-1.9.418-1.148,1.148a7.5,7.5,0,0,0,5.932,2.138c1.032-.093,1.042-1.718,0-1.624" transform="translate(-579.769 -127.285)" fill="#7a3a26"/>
                      <path id="Trazado_167685" data-name="Trazado 167685" d="M663.122,185.279a13.688,13.688,0,0,1-6.06,1.022c-1.044-.059-1.041,1.565,0,1.624a14.761,14.761,0,0,0,6.492-1.08c.954-.39.537-1.962-.432-1.566" transform="translate(-598.624 -138.296)" fill="#7a3a26"/>
                      <path id="Trazado_167686" data-name="Trazado 167686" d="M666,153.958a11.671,11.671,0,0,1-4.43,1.554c-1.022.134-1.035,1.759,0,1.624a13.682,13.682,0,0,0,5.25-1.776.813.813,0,0,0-.82-1.4" transform="translate(-601.918 -115.436)" fill="#7a3a26"/>
                      <path id="Trazado_167687" data-name="Trazado 167687" d="M667.594,130.195a17.429,17.429,0,0,1-4.05,1.386c-1.022.219-.589,1.784.432,1.566a19.181,19.181,0,0,0,4.439-1.55c.938-.46.116-1.861-.82-1.4" transform="translate(-603.491 -98.143)" fill="#7a3a26"/>
                      <path id="Trazado_167688" data-name="Trazado 167688" d="M640.138,96.737l-3.255.332c-1.03.1-1.041,1.73,0,1.624l3.255-.332c1.03-.1,1.041-1.73,0-1.624" transform="translate(-583.926 -73.829)" fill="#7a3a26"/>
                      <path id="Trazado_167689" data-name="Trazado 167689" d="M660.07,69.511a16.1,16.1,0,0,0-4.676.87c-.981.34-.559,1.909.432,1.566a14.576,14.576,0,0,1,4.244-.812c1.042-.041,1.047-1.665,0-1.624" transform="translate(-597.572 -53.996)" fill="#7a3a26"/>
                      <path id="Trazado_167690" data-name="Trazado 167690" d="M676.346,100.871l-5.072.117a.812.812,0,0,0,0,1.624l5.072-.117a.812.812,0,0,0,0-1.624" transform="translate(-608.977 -76.844)" fill="#7a3a26"/>
                      <path id="Trazado_167691" data-name="Trazado 167691" d="M699.388,45.841a13.5,13.5,0,0,0-4.9-.344c-1.026.118-1.038,1.743,0,1.624a12.25,12.25,0,0,1,4.467.286.813.813,0,0,0,.432-1.566" transform="translate(-625.899 -36.437)" fill="#7a3a26"/>
                      <path id="Trazado_167692" data-name="Trazado 167692" d="M730.117,34.6a6,6,0,0,0-4.951-3.544c-1.037-.113-1.03,1.512,0,1.624a4.42,4.42,0,0,1,3.549,2.739c.411.958,1.811.131,1.4-.82" transform="translate(-648.248 -25.974)" fill="#7a3a26"/>
                      <path id="Trazado_167693" data-name="Trazado 167693" d="M725.773,74.53a4.815,4.815,0,0,1-4.152-1.52c-.723-.758-1.87.391-1.148,1.148A6.509,6.509,0,0,0,726.2,76.1c1.031-.141.592-1.706-.432-1.566" transform="translate(-645.227 -56.365)" fill="#7a3a26"/>
                      <path id="Trazado_167694" data-name="Trazado 167694" d="M694.764,80.579l-3.653-2.031c-.914-.508-1.734.894-.819,1.4l3.653,2.031c.914.508,1.734-.894.82-1.4" transform="translate(-623.113 -60.5)" fill="#7a3a26"/>
                      <path id="Trazado_167695" data-name="Trazado 167695" d="M714.839,118.79l-4.461-.838c-1.022-.192-1.459,1.373-.432,1.566l4.461.837c1.022.192,1.459-1.373.432-1.566" transform="translate(-637.297 -89.278)" fill="#7a3a26"/>
                      <path id="Trazado_167696" data-name="Trazado 167696" d="M698.627,151.847a6.742,6.742,0,0,1-5.458.2c-.978-.37-1.4,1.2-.432,1.566a8.345,8.345,0,0,0,6.709-.361c.939-.458.117-1.859-.82-1.4" transform="translate(-624.786 -113.918)" fill="#7a3a26"/>
                      <path id="Trazado_167697" data-name="Trazado 167697" d="M709.783,171.324a10.407,10.407,0,0,1-4.858,1.36c-1.043.033-1.047,1.657,0,1.624a12.217,12.217,0,0,0,5.678-1.582.813.813,0,0,0-.82-1.4" transform="translate(-633.495 -128.093)" fill="#7a3a26"/>
                      <path id="Trazado_167698" data-name="Trazado 167698" d="M740.773,142.2a8.314,8.314,0,0,1-3.647.324c-1.034-.131-1.024,1.494,0,1.624a9.434,9.434,0,0,0,4.079-.382c.992-.316.568-1.885-.432-1.566" transform="translate(-656.964 -106.927)" fill="#7a3a26"/>
                      <path id="Trazado_167699" data-name="Trazado 167699" d="M740.6,99.794a35.069,35.069,0,0,1-6.063-2.631c-.916-.5-1.736.9-.82,1.4a37.367,37.367,0,0,0,6.451,2.794c1,.325,1.423-1.243.432-1.566" transform="translate(-654.749 -74.064)" fill="#7a3a26"/>
                      <path id="Trazado_167700" data-name="Trazado 167700" d="M766.008,79.5a10.006,10.006,0,0,0-4.811-2.471c-1.02-.205-1.457,1.36-.432,1.566a8.41,8.41,0,0,1,4.094,2.053c.77.7,1.921-.441,1.148-1.148" transform="translate(-674.324 -59.459)" fill="#7a3a26"/>
                      <path id="Trazado_167701" data-name="Trazado 167701" d="M778.792,62.452A10.865,10.865,0,0,0,774.75,59.3c-.945-.427-1.771.971-.82,1.4a9.849,9.849,0,0,1,3.713,2.9c.649.818,1.791-.337,1.148-1.148" transform="translate(-684.034 -46.497)" fill="#7a3a26"/>
                      <path id="Trazado_167702" data-name="Trazado 167702" d="M766.842,152.066l-1.671-5.467c-.3-1-1.873-.572-1.566.432l1.671,5.467c.3,1,1.872.572,1.566-.432" transform="translate(-676.79 -109.747)" fill="#7a3a26"/>
                      <path id="Trazado_167703" data-name="Trazado 167703" d="M777.671,122.915a22.271,22.271,0,0,0-4.987-4.046.813.813,0,0,0-.82,1.4,20.736,20.736,0,0,1,4.659,3.792c.71.771,1.855-.38,1.148-1.148" transform="translate(-682.553 -89.87)" fill="#7a3a26"/>
                      <path id="Trazado_167704" data-name="Trazado 167704" d="M794.345,105.8a12.178,12.178,0,0,0-2.982-2.593c-.89-.553-1.706.851-.819,1.4a10.838,10.838,0,0,1,2.653,2.339c.665.807,1.808-.348,1.148-1.148" transform="translate(-696.167 -78.456)" fill="#7a3a26"/>
                      <path id="Trazado_167705" data-name="Trazado 167705" d="M805.66,84.7a4.729,4.729,0,0,0-1.72-1.5c-.933-.464-1.756.936-.82,1.4a3.038,3.038,0,0,1,1.137.918.836.836,0,0,0,1.111.291.818.818,0,0,0,.291-1.111" transform="translate(-705.308 -63.903)" fill="#7a3a26"/>
                      <path id="Trazado_167706" data-name="Trazado 167706" d="M752.472,125.365l-2.427-.644a.813.813,0,0,0-.432,1.566l2.427.643a.813.813,0,0,0,.432-1.566" transform="translate(-666.205 -94.199)" fill="#7a3a26"/>
                      <path id="Trazado_167707" data-name="Trazado 167707" d="M819.768,128.67a9.018,9.018,0,0,0-2.973-3.713c-.837-.626-1.647.783-.819,1.4a7.5,7.5,0,0,1,2.39,3.13c.406.959,1.805.132,1.4-.82" transform="translate(-714.722 -94.278)" fill="#7a3a26"/>
                      <path id="Trazado_167708" data-name="Trazado 167708" d="M802.309,158.86a16.907,16.907,0,0,0-2.421-5.918c-.568-.873-1.975-.059-1.4.82a15.65,15.65,0,0,1,2.257,5.53c.206,1.024,1.772.59,1.566-.432" transform="translate(-702.134 -114.51)" fill="#7a3a26"/>
                      <path id="Trazado_167709" data-name="Trazado 167709" d="M782.464,186.487a11.187,11.187,0,0,1-2.15-6.091c-.05-1.04-1.674-1.047-1.624,0a12.746,12.746,0,0,0,2.372,6.91c.6.842,2.013.032,1.4-.82" transform="translate(-687.808 -134.214)" fill="#7a3a26"/>
                      <path id="Trazado_167710" data-name="Trazado 167710" d="M803.988,192.862l-1.827-4.06c-.428-.952-1.828-.127-1.4.82l1.827,4.06c.428.951,1.828.126,1.4-.82" transform="translate(-703.83 -140.601)" fill="#7a3a26"/>
                      <path id="Trazado_167711" data-name="Trazado 167711" d="M829.423,157.745c-.627-.819-2.038-.011-1.4.82a10.12,10.12,0,0,1,2.051,7.694c-.137,1.033,1.489,1.023,1.624,0a11.429,11.429,0,0,0-2.273-8.513" transform="translate(-723.633 -118.033)" fill="#7a3a26"/>
                      <path id="Trazado_167712" data-name="Trazado 167712" d="M822.338,197.048c-.508-.914-1.911-.1-1.4.82a10.025,10.025,0,0,1,1.281,4.886.812.812,0,0,0,1.624,0,11.786,11.786,0,0,0-1.5-5.706" transform="translate(-718.509 -146.626)" fill="#7a3a26"/>
                      <path id="Trazado_167713" data-name="Trazado 167713" d="M802.428,221.59c-.94-.443-1.765.957-.82,1.4a4.114,4.114,0,0,1,2.433,3.757.812.812,0,0,0,1.624,0,5.713,5.713,0,0,0-3.237-5.16" transform="translate(-704.202 -164.735)" fill="#7a3a26"/>
                      <path id="Trazado_167714" data-name="Trazado 167714" d="M835.463,230.5c-.042-1.041-1.666-1.047-1.624,0a15.1,15.1,0,0,1-.374,4.047c-.236,1.017,1.329,1.451,1.566.432a16.765,16.765,0,0,0,.432-4.479" transform="translate(-727.699 -170.718)" fill="#7a3a26"/>
                      <path id="Trazado_167715" data-name="Trazado 167715" d="M807.592,262.66a16.186,16.186,0,0,1-.426,3.227c-.24,1.016,1.326,1.45,1.566.432a18.451,18.451,0,0,0,.484-3.659c.033-1.046-1.591-1.044-1.624,0" transform="translate(-708.538 -194.149)" fill="#7a3a26"/>
                      <path id="Trazado_167716" data-name="Trazado 167716" d="M833.064,263.2c-.333-.985-1.9-.562-1.566.432a5.468,5.468,0,0,1-.134,4.045c-.42.947.979,1.774,1.4.819a7.149,7.149,0,0,0,.3-5.3" transform="translate(-726.129 -194.705)" fill="#7a3a26"/>
                      <path id="Trazado_167717" data-name="Trazado 167717" d="M818.491,277.362a20.01,20.01,0,0,1-.864,3.643c-.336.992,1.232,1.418,1.566.432a20.007,20.007,0,0,0,.864-3.643c.143-1.022-1.421-1.464-1.566-.432" transform="translate(-716.144 -205.003)" fill="#7a3a26"/>
                      <path id="Trazado_167718" data-name="Trazado 167718" d="M794.814,284.123a7.294,7.294,0,0,0-.381,3.473.84.84,0,0,0,.812.812.816.816,0,0,0,.812-.812,6.247,6.247,0,0,1,.324-3.042c.357-.984-1.211-1.408-1.566-.432" transform="translate(-699.232 -209.955)" fill="#7a3a26"/>
                      <path id="Trazado_167719" data-name="Trazado 167719" d="M502.592,105.657a20.384,20.384,0,0,0-3.634,2.058c-.845.6-.034,2.01.82,1.4a20.367,20.367,0,0,1,3.634-2.059c.955-.419.129-1.818-.82-1.4" transform="translate(-483.743 -80.276)" fill="#7a3a26"/>
                    </g>
                  </g>
                </g>
                <path id="Trazado_167720" data-name="Trazado 167720" d="M529,343.511a5.291,5.291,0,0,0-2.56,5.3,5.061,5.061,0,0,0,.449,1.751,4.831,4.831,0,0,0,2.377,2.264,5.851,5.851,0,0,0,7.328-2.568c1.81-3.482-.4-8.049-4.464-7.691a7.408,7.408,0,0,0-3.13.948" transform="translate(-383.531 -249.57)" fill="#ff7559"/>
                <path id="Trazado_167721" data-name="Trazado 167721" d="M714.476,343.511a5.291,5.291,0,0,0-2.56,5.3,5.059,5.059,0,0,0,.45,1.751,4.83,4.83,0,0,0,2.377,2.264,5.851,5.851,0,0,0,7.328-2.568c1.81-3.482-.4-8.049-4.464-7.691a7.409,7.409,0,0,0-3.13.948" transform="translate(-518.667 -249.57)" fill="#ff7559"/>
                <path id="Trazado_167722" data-name="Trazado 167722" d="M607.068,331.377c-.023,0-.047,0-.071,0-2.086-.18-4.424-.519-5.783-2.269-1.447-1.863-1.082-4.334-.534-6.507.469-1.861,1.016-3.734,1.546-5.547,1.338-4.581,2.721-9.318,2.9-14.1a.812.812,0,0,1,1.623.062c-.189,4.979-1.6,9.814-2.967,14.49-.525,1.8-1.068,3.657-1.53,5.488-.452,1.792-.777,3.8.242,5.114.957,1.232,2.817,1.489,4.64,1.647a.812.812,0,0,1-.069,1.621" transform="translate(-437.29 -220.158)" fill="#ff7559"/>
                <path id="Trazado_167723" data-name="Trazado 167723" d="M658.828,424.376a.812.812,0,0,1-.305-1.565,20.212,20.212,0,0,0,7.812-5.62.812.812,0,0,1,1.239,1.05,21.842,21.842,0,0,1-8.441,6.074.81.81,0,0,1-.3.059" transform="translate(-479.415 -303.748)" fill="#ff7559"/>
                <path id="Trazado_167724" data-name="Trazado 167724" d="M598.987,436.122a21.74,21.74,0,0,1-12.118-3.685.812.812,0,1,1,.907-1.347,20.409,20.409,0,0,0,13.129,3.317.812.812,0,1,1,.156,1.616c-.691.066-1.383.1-2.073.1" transform="translate(-427.317 -313.982)" fill="#ff7559"/>
                <path id="Trazado_167725" data-name="Trazado 167725" d="M701.691,253.846c.842-.05,1.924-.345,1.969-1.187.03-.565-.464-1.006-.92-1.341a36.291,36.291,0,0,0-12.461-5.909,11.389,11.389,0,0,0-4.535-.433c-4.147.641-5.816,6.094-1.354,7.533,5.312,1.713,11.792,1.661,17.3,1.337" transform="translate(-496.7 -178.424)" fill="#7a3a26"/>
                <g id="Grupo_171053" data-name="Grupo 171053" transform="translate(195.596 67.574)" opacity="0.38" style="mix-blend-mode: screen;isolation: isolate">
                  <g id="Grupo_171052" data-name="Grupo 171052">
                    <g id="Grupo_171051" data-name="Grupo 171051" clip-path="url(#clip-path-6)">
                      <path id="Trazado_167726" data-name="Trazado 167726" d="M722.67,249.689c-.673-.261-1.352-.5-2.04-.724a18.906,18.906,0,0,0,5.571,8c.872-.019,1.729-.052,2.572-.093a17.264,17.264,0,0,1-6.1-7.187" transform="translate(-720.63 -248.965)" fill="#7a3a26"/>
                    </g>
                  </g>
                </g>
                <g id="Grupo_171056" data-name="Grupo 171056" transform="translate(188.405 66.474)" opacity="0.38" style="mix-blend-mode: screen;isolation: isolate">
                  <g id="Grupo_171055" data-name="Grupo 171055">
                    <g id="Grupo_171054" data-name="Grupo 171054" clip-path="url(#clip-path-7)">
                      <path id="Trazado_167727" data-name="Trazado 167727" d="M695.751,244.913a7.289,7.289,0,0,0-.977.079,5,5,0,0,0-.639.149,14.143,14.143,0,0,0,4.648,8.516c1.064.135,2.139.242,3.222.3a12.507,12.507,0,0,1-6.254-9.044" transform="translate(-694.135 -244.913)" fill="#7a3a26"/>
                    </g>
                  </g>
                </g>
                <path id="Trazado_167728" data-name="Trazado 167728" d="M543.964,257.872c.815-.216,1.817-.72,1.694-1.554-.083-.56-.654-.894-1.168-1.132a36.284,36.284,0,0,0-13.386-3.318,11.388,11.388,0,0,0-4.53.475c-3.938,1.452-4.491,7.127.167,7.652,5.546.625,11.887-.711,17.223-2.123" transform="translate(-381.361 -183.482)" fill="#7a3a26"/>
                <g id="Grupo_171059" data-name="Grupo 171059" transform="translate(145.146 68.482)" opacity="0.38" style="mix-blend-mode: screen;isolation: isolate">
                  <g id="Grupo_171058" data-name="Grupo 171058">
                    <g id="Grupo_171057" data-name="Grupo 171057" clip-path="url(#clip-path-8)">
                      <path id="Trazado_167729" data-name="Trazado 167729" d="M536.343,252.312a7.777,7.777,0,0,0-1.516.379c-.024.009-.044.022-.067.031a12.457,12.457,0,0,0,4.319,7.753q1.287-.045,2.59-.181a10.788,10.788,0,0,1-5.326-7.981" transform="translate(-534.759 -252.312)" fill="#7a3a26"/>
                    </g>
                  </g>
                </g>
                <g id="Grupo_171062" data-name="Grupo 171062" transform="translate(152.016 68.584)" opacity="0.38" style="mix-blend-mode: screen;isolation: isolate">
                  <g id="Grupo_171061" data-name="Grupo 171061">
                    <g id="Grupo_171060" data-name="Grupo 171060" clip-path="url(#clip-path-9)">
                      <path id="Trazado_167730" data-name="Trazado 167730" d="M565.789,259.651q1.052-.22,2.077-.463a20.617,20.617,0,0,1-5.8-6.213q-1-.171-2-.289a22.316,22.316,0,0,0,5.719,6.965" transform="translate(-560.07 -252.686)" fill="#7a3a26"/>
                    </g>
                  </g>
                </g>
                <path id="Trazado_167731" data-name="Trazado 167731" d="M545.783,251.839q-.36,0-.718.013c.24.005.479-.007.718-.013" transform="translate(-397.121 -183.485)" fill="#9d4d32"/>
                <path id="Trazado_167732" data-name="Trazado 167732" d="M537.591,302.56s9.447,7.356,15.029-2.151c0,.022-7.341-6.575-15.029,2.151" transform="translate(-391.676 -217.145)" fill="#f3e1d9"/>
                <path id="Trazado_167733" data-name="Trazado 167733" d="M534.941,302.843a.812.812,0,0,1-.511-1.444,14.817,14.817,0,0,1,15.8-1.809.812.812,0,1,1-.759,1.436,13.332,13.332,0,0,0-14.017,1.636.809.809,0,0,1-.51.18" transform="translate(-389.153 -217.178)" fill="#7a3a26"/>
                <path id="Trazado_167734" data-name="Trazado 167734" d="M563.814,303.909c0,1.794-1.091,3.248-2.436,3.248s-2.436-1.454-2.436-3.248,1.091-3.248,2.436-3.248,2.436,1.454,2.436,3.248" transform="translate(-407.232 -219.056)" fill="#7a3a26"/>
                <path id="Trazado_167735" data-name="Trazado 167735" d="M695.9,301.311s-9.245,7.609-15.082-1.744c0,.022,7.161-6.771,15.082,1.744" transform="translate(-496.027 -216.403)" fill="#f3e1d9"/>
                <path id="Trazado_167736" data-name="Trazado 167736" d="M694.491,301.6a.808.808,0,0,1-.492-.167,13.334,13.334,0,0,0-14.056-1.257.812.812,0,1,1-.8-1.414,14.817,14.817,0,0,1,15.84,1.381.812.812,0,0,1-.494,1.457" transform="translate(-494.508 -216.449)" fill="#7a3a26"/>
                <path id="Trazado_167737" data-name="Trazado 167737" d="M697.036,302.93c.049,1.793,1.178,3.217,2.523,3.181s2.4-1.519,2.347-3.312-1.178-3.217-2.523-3.181-2.4,1.519-2.347,3.312" transform="translate(-507.842 -218.295)" fill="#7a3a26"/>
                <path id="Trazado_167738" data-name="Trazado 167738" d="M777.447,306.429a4.807,4.807,0,0,1,4.485,1.306,6.375,6.375,0,0,1,1.266,3.217,23.187,23.187,0,0,1-.09,8.128,12.291,12.291,0,0,1-1.424,4.068,11.67,11.67,0,0,1-2.127,2.516,19.44,19.44,0,0,1-12.079,5.086c-.532.027,2.558-14.214,2.977-15.458,1.339-3.977,2.32-7.986,6.992-8.864" transform="translate(-559.122 -223.187)" fill="#ffa78b"/>
                <path id="Trazado_167739" data-name="Trazado 167739" d="M772.748,340.837a.813.813,0,0,1-.8-.943,16.822,16.822,0,0,1,5.384-9.993c2.168-1.935,4.6-3.028,5.791-3.073a.812.812,0,0,1,.062,1.623c-1.37.052-8.252,3.269-9.634,11.707a.813.813,0,0,1-.8.681" transform="translate(-562.414 -238.119)" fill="#ff7559"/>
                <path id="Trazado_167740" data-name="Trazado 167740" d="M788.4,349.825a.812.812,0,0,1-.745-.489,2.81,2.81,0,0,0-4.076-1.259.812.812,0,0,1-.866-1.374,4.434,4.434,0,0,1,6.431,1.986.812.812,0,0,1-.745,1.135" transform="translate(-569.992 -252.107)" fill="#ff7559"/>
                <path id="Trazado_167741" data-name="Trazado 167741" d="M465.349,306.429a4.807,4.807,0,0,0-4.485,1.306,6.377,6.377,0,0,0-1.266,3.217,23.192,23.192,0,0,0,.09,8.128,12.3,12.3,0,0,0,1.424,4.068,11.671,11.671,0,0,0,2.127,2.516,19.439,19.439,0,0,0,12.079,5.086c.532.027-2.558-14.214-2.977-15.458-1.339-3.977-2.32-7.986-6.992-8.864" transform="translate(-334.623 -223.187)" fill="#ffa78b"/>
                <path id="Trazado_167742" data-name="Trazado 167742" d="M480.966,340.837a.812.812,0,0,1-.8-.681c-1.383-8.437-8.264-11.654-9.634-11.707a.812.812,0,0,1,.062-1.623c1.19.046,3.624,1.138,5.791,3.073a16.822,16.822,0,0,1,5.384,9.993.813.813,0,0,1-.8.943" transform="translate(-342.249 -238.119)" fill="#ff7559"/>
                <path id="Trazado_167743" data-name="Trazado 167743" d="M479.139,349.825a.812.812,0,0,1-.745-1.135,4.434,4.434,0,0,1,6.431-1.986.812.812,0,0,1-.866,1.374,2.81,2.81,0,0,0-4.076,1.259.812.812,0,0,1-.745.489" transform="translate(-348.498 -252.107)" fill="#ff7559"/>
                <path id="Trazado_167744" data-name="Trazado 167744" d="M376.375,720.557c-2.955-14.432-8-27.908-16.889-38.533-20.742-24.794-56.078-33.008-86.708-36.169,0,0-34.159,43.856-71.824,1.309-1.656-1.871-17.793,2.755-19.888,3.205-15.268,3.285-30.377,8.184-44.205,15.512-44.82,23.751-50.983,69.524-52.526,116.629-.1,3.007-.055,6.315,1.9,8.6,5.477,6.392,27.326,3.131,35.117,3.127l48.661-.031,120.13-.076q19.909-.013,39.817-.039c8.94-.008,43.725,4.876,50.032-1.674,1.614-1.676,1.6-4.287,1.49-6.612-.951-19.6-.659-43.511-5.11-65.249" transform="translate(-61.423 -470.556)" fill="#45708e"/>
                <path id="Trazado_167745" data-name="Trazado 167745" d="M506.616,682.959a44.672,44.672,0,0,1-6.47-.468c-13.678-2-23.842-10.206-29.96-16.738a66.829,66.829,0,0,1-10.094-13.825.8.8,0,0,1,1.421-.725,66.584,66.584,0,0,0,9.873,13.5c5.941,6.334,15.795,14.289,29,16.215,19.333,2.817,40.469-7.64,62.82-31.085a.8.8,0,1,1,1.155,1.1c-20.29,21.282-39.683,32.029-57.749,32.029" transform="translate(-335.148 -473.271)" fill="#8aa4b9"/>
                <g id="Grupo_171067" data-name="Grupo 171067" transform="translate(62.602 286.554)" style="mix-blend-mode: multiply;isolation: isolate">
                  <g id="Grupo_171066" data-name="Grupo 171066">
                    <g id="Grupo_171065" data-name="Grupo 171065" clip-path="url(#clip-path-10)">
                      <g id="Grupo_171064" data-name="Grupo 171064" transform="translate(0)">
                        <g id="Grupo_171063" data-name="Grupo 171063" clip-path="url(#clip-path-11)">
                          <rect id="Rectángulo_43381" data-name="Rectángulo 43381" width="220.549" height="47.666" transform="matrix(0.999, -0.041, 0.041, 0.999, -1.899, 0.065)" fill="url(#linear-gradient)"/>
                        </g>
                      </g>
                    </g>
                  </g>
                </g>
                <path id="Trazado_167747" data-name="Trazado 167747" d="M180.372,921.928a.8.8,0,0,1-.8-.771c-.939-28.237-6.816-53.723-11.581-70.13a249.292,249.292,0,0,0-10.225-29.149.8.8,0,1,1,1.456-.653,250.7,250.7,0,0,1,10.292,29.326c4.794,16.5,10.708,42.138,11.653,70.553a.8.8,0,0,1-.771.824h-.027" transform="translate(-114.895 -597.982)" fill="#8aa4b9"/>
                <path id="Trazado_167748" data-name="Trazado 167748" d="M1024.073,918.63a.769.769,0,0,1-.766-.707c-2.084-25.571,4.732-51.364,10.818-68.5a217.694,217.694,0,0,1,13.842-31.372.769.769,0,0,1,1.337.761,216.121,216.121,0,0,0-13.74,31.155c-6.03,16.985-12.785,42.539-10.724,67.828a.769.769,0,0,1-.7.829c-.021,0-.042,0-.063,0" transform="translate(-745.279 -595.732)" fill="#8aa4b9"/>
                <path id="Trazado_167749" data-name="Trazado 167749" d="M51.634,539.185a28.99,28.99,0,0,1-4.061-4.325c-2.382-6.3-4.839-12.554-9.55-17.58-.952-1.015-1.945-2.052-3.534-1.969q-3.708-6.116-6.979-12.475a45.145,45.145,0,0,1,.592-18.374c.392-1.749.411-1.751,2.153-1.675a2.442,2.442,0,0,0,1.626-.583,1.492,1.492,0,0,1,2.253.263c1.989,2.035,3.907,4.138,5.861,6.205,2.357,2.493,4.67,5.03,7.053,7.5a2.585,2.585,0,0,1,.816,2.771,4.678,4.678,0,0,0,1.23,4.873,1.762,1.762,0,0,1,.511,1.719c-.832,5.035-1.735,10.063-2.082,15.16a30.372,30.372,0,0,0,1.35,10.423,33.946,33.946,0,0,0,2.56,6.558c.241.457.6.947.2,1.51" transform="translate(-19.545 -351.029)" fill="#bbe570"/>
                <path id="Trazado_167750" data-name="Trazado 167750" d="M17.872,467.863c-1.368-2.276-1.571-4.876-1.811-7.4a30.009,30.009,0,0,1,.546-9.965c.882-3.631,1.835-7.245,2.78-10.86a1.221,1.221,0,0,1,.629-1c2.505,2.524,5.047,5.079,7.582,7.64Q35.7,454.468,43.8,462.66c1.017,1.028,2.017,2.074,3.066,3.068A1.426,1.426,0,0,1,47.3,467.4,101.906,101.906,0,0,0,44,481.177a1.353,1.353,0,0,0,.268,1.267,6.6,6.6,0,0,0-.3,1.71,2.569,2.569,0,0,1-.078.406,13.652,13.652,0,0,0-.116,2.756,7.743,7.743,0,0,0,.207,1.711c.1.947.058,1.9.166,2.849.037,1.5.471,2.947.638,4.43.067.71.24,1.4.331,2.109a26.544,26.544,0,0,0,.787,3.252c.376,1.5.869,2.976,1.222,4.486a7.385,7.385,0,0,0,.365.89c.212.458.441.91.61,1.386a30,30,0,0,0,1.8,3.535c.115.669,1.086.964.8,1.811a18.95,18.95,0,0,1-4.04-3.045,39.738,39.738,0,0,1-5.994-17.938,38.29,38.29,0,0,1,.616-10.115c.715-4.462,1.565-8.9,2.679-13.277a2.732,2.732,0,0,0-.869-2.883c-5.544-5.692-10.921-11.544-16.424-17.276-1.656-1.725-3.338-3.429-4.958-5.19-.618-.672-.88-.578-1.1.278-1.505,5.814-3.187,11.593-2.907,17.7.064,1.4.287,2.782.432,4.173.06.576.249,1.169-.256,1.657" transform="translate(-11.572 -319.585)" fill="#bbe56f"/>
                <path id="Trazado_167751" data-name="Trazado 167751" d="M21.727,478.829c-.04-2.253-.516-4.464-.549-6.729a51.674,51.674,0,0,1,2.131-13.849c.341-1.307.676-2.615,1.019-3.921.15-.569.281-.952.914-.281q9.4,9.952,18.84,19.865c1.212,1.277,2.364,2.616,3.631,3.835a1.916,1.916,0,0,1,.6,2.121,156.217,156.217,0,0,0-3.181,16.158,37.983,37.983,0,0,0,2.644,19.612,31.381,31.381,0,0,0,2.627,5.341c.132.21.375.433.106.715a13.53,13.53,0,0,1-2.993-2.989c-.967-2.374-2.153-4.656-2.886-7.13A34.812,34.812,0,0,1,43.342,496.9c.537-4.063,1.211-8.1,1.812-12.153a.962.962,0,0,0-.307-1.049,5.023,5.023,0,0,1-1.342-5.782,1.2,1.2,0,0,0-.325-1.417q-6.8-7.186-13.564-14.4c-.5-.529-.824-.77-1.513-.141a2.239,2.239,0,0,1-3.241.267,38.9,38.9,0,0,0-1.457,7.246,49.778,49.778,0,0,0,.187,12.413c.021.143-.129.312-.2.47a22.182,22.182,0,0,1-1.665-3.529" transform="translate(-15.427 -330.551)" fill="#6aa72e"/>
                <path id="Trazado_167752" data-name="Trazado 167752" d="M118.215,601.725c.125-.59-.415-1.408.582-1.7a80.61,80.61,0,0,0,7.693,3.323c3.479,1.189,7.02,1.021,10.578.668a56.915,56.915,0,0,0,8.78-1.579c.7-.182.956.088,1.294.58q5.851,8.529,11.734,17.036,4.227,6.124,8.469,12.238c.957,1.378.962,1.393-.6,1.939a54.423,54.423,0,0,1-20.126,2.762c-6.361-.222-12.581-1.1-18.425-3.8a9.483,9.483,0,0,1-2.975-1.836c-.122-.712-1.11-.921-1.022-1.756.609-.4,1.129-.016,1.653.2,5.883,2.484,12.1,3.65,18.367,4.558,3.1.449,6.22-.1,9.307-.54,3-.426,5.971-1,8.926-1.663,1.387-.31,1.447-.48.648-1.668-5.474-8.132-11.024-16.213-16.4-24.412a2.227,2.227,0,0,0-2.56-.972c-3.521.572-7.055,1.03-10.615,1.317-4.6.371-8.747-1-12.742-3.041-.9-.462-1.993-.679-2.573-1.659" transform="translate(-86.102 -437.164)" fill="#a5c461"/>
                <path id="Trazado_167753" data-name="Trazado 167753" d="M55.058,604.29c.8-.666,1.476-.318,2.144.256a31.869,31.869,0,0,1,8.155,11.6c.914,2.053,1.767,4.135,2.584,6.229.171.438.7.909.2,1.468A175.361,175.361,0,0,1,55.058,604.29" transform="translate(-40.114 -440.007)" fill="#69a72f"/>
                <path id="Trazado_167754" data-name="Trazado 167754" d="M57.621,543.125a4.015,4.015,0,0,1,3.627,4.122,2.277,2.277,0,0,1-3.143,1.938,4.45,4.45,0,0,1-2.774-3.674,2.129,2.129,0,0,1,2.289-2.385" transform="translate(-40.31 -395.709)" fill="#6aa72d"/>
                <path id="Trazado_167755" data-name="Trazado 167755" d="M121.553,631.349l-.563-1.442c.463-.305.886-.04,1.275.142a3.617,3.617,0,0,0,5.005-4.4c-1.538-5.965-4.115-11.365-9.449-14.977a6.232,6.232,0,0,1-.63-.511c.071-1.01-.285-2.05.2-3.032.436,1.658,1.824,2.165,3.21,2.744a39.587,39.587,0,0,0,7.552,2.6c3.061.6,6.127.209,9.181-.126.852-.093,1.711-.153,2.557-.317a1.934,1.934,0,0,1,1.872.529,4,4,0,0,0,3.215,1.171,2.106,2.106,0,0,1,2.006,1.112c2.643,3.945,5.254,7.91,7.885,11.862,1.027,1.543,2.076,3.072,3.074,4.633.787,1.231.745,1.5-.471,2.206a1.9,1.9,0,0,0-1.141,2.1c.25,1.217-.461,1.526-1.4,1.669a50.9,50.9,0,0,1-12.683.673,53.383,53.383,0,0,1-17.33-4.657,14.117,14.117,0,0,1-3.373-1.985" transform="translate(-85.34 -442.344)" fill="#a5c462"/>
                <path id="Trazado_167756" data-name="Trazado 167756" d="M122.165,630.734c1.878.848,3.744,1.725,5.637,2.539a50.8,50.8,0,0,0,15,3.713,53.031,53.031,0,0,0,12.768-.627c.771-.106,1.4-.174.965-1.4a1.87,1.87,0,0,1,1.461-2.381c1.121-.305.873-.8.42-1.471-1.457-2.167-2.9-4.343-4.351-6.513-2.279-3.409-4.573-6.808-6.831-10.23a1.451,1.451,0,0,0-1.678-.854,3.48,3.48,0,0,1-3.3-1.169c-.564-.72-1.152-.641-1.894-.552-2.275.272-4.557.5-6.839.708-4.138.376-7.914-.945-11.626-2.534a17.69,17.69,0,0,0-2.23-.966,2,2,0,0,1-1.657-2.479,2.075,2.075,0,0,0,.057-.229,73.053,73.053,0,0,0,8.168,3.581,21.806,21.806,0,0,0,8.975.616c3.308-.286,6.6-.842,9.879-1.364.873-.139,1.164.451,1.482.912,1.613,2.335,3.15,4.722,4.73,7.079q4.175,6.227,8.371,12.439c1.385,2.052,2.767,4.108,4.2,6.13.681.963-.054,1.077-.668,1.212-2.062.456-4.122.946-6.205,1.283a57.336,57.336,0,0,1-10.984,1.186c-4.937-.158-9.681-1.415-14.442-2.582-2.592-.635-5.012-1.743-7.516-2.618a15.976,15.976,0,0,1-1.886-3.43" transform="translate(-85.952 -441.729)" fill="#63942d"/>
                <path id="Trazado_167757" data-name="Trazado 167757" d="M117.35,618.3a10.254,10.254,0,0,1,4.713,3.627,29.333,29.333,0,0,1,5.718,11.674,4.205,4.205,0,0,1-1.318,4.432,3.808,3.808,0,0,1-4.312.413c-.331-.142-.668-.27-1-.4l-.24-.755c1.117-.712,2.17-1.518,3.3-2.221a2.293,2.293,0,0,0,.883-1.9c.021-.451.051-.953-.514-1.113-.482-.136-.706.231-.955.572-1.148,1.576-2.764,1.578-4.121.022a18.539,18.539,0,0,1-.782-3.208c.632-.65,1.449-.346,2.186-.4,2.028-.159,2.463-.867,1.668-2.738a8.348,8.348,0,0,0-3.235-4.069c-.94-.574-1.123-1.6-1.717-2.37a2.6,2.6,0,0,1-.269-1.56" transform="translate(-85.498 -450.483)" fill="#64942d"/>
                <path id="Trazado_167758" data-name="Trazado 167758" d="M118.22,624.052c.21.059.593.1.6.181.171,1.408,1.438,1.833,2.292,2.627a8.58,8.58,0,0,1,2.781,4.924c.16.946-.194,1.47-1.234,1.661-1.121.206-2.242-.04-3.345.186a8.77,8.77,0,0,1-.309-2.215,1.235,1.235,0,0,1,.847-.332c1.262-.206,1.4-.61.829-1.788-.5-1.021-1.7-1.285-2.225-2.242-.486-.968-.195-2-.241-3" transform="translate(-86.099 -454.671)" fill="#a4c562"/>
                <path id="Trazado_167759" data-name="Trazado 167759" d="M125.266,668.244a5.967,5.967,0,0,0,1.97.824c.883.083,1.642-.057,1.863-1.081.18-.833.751-.9,1.432-.791.761.123.674.717.684,1.251a3.078,3.078,0,0,1-2.514,3.315c-.243.062-.679-.007-.609.341.371,1.848-.836.729-1.417.78a33.492,33.492,0,0,1-1.409-4.639" transform="translate(-91.266 -486.075)" fill="#a4c462"/>
                <path id="Trazado_167760" data-name="Trazado 167760" d="M119.071,635.116a5.014,5.014,0,0,1,2.607,2.235c.811,1.6.512,2.138-1.247,2.134-.271,0-.541,0-.812-.007-.24-1.447-.785-2.855-.548-4.362" transform="translate(-86.71 -462.732)" fill="#65942f"/>
                <path id="Trazado_167761" data-name="Trazado 167761" d="M203.113,664.218a1.676,1.676,0,0,1-.917,1.846,2.31,2.31,0,0,1-2.528-.4,4.724,4.724,0,0,1-1.853-3.316,2.067,2.067,0,0,1,.85-2.11,1.941,1.941,0,0,1,2.175.021,4.272,4.272,0,0,1,2.272,3.961" transform="translate(-144.11 -480.797)" fill="#64942b"/>
                <path id="Trazado_167762" data-name="Trazado 167762" d="M366.6,596.5c-.229-7.384-1.087-14.65-3.774-21.614-3.038-7.875-8.729-12.575-16.9-14.41-3.079-.692-6.15-1.417-9.221-2.144-2.619-.62-4.352-2.4-5.923-4.452a39.448,39.448,0,0,1-7.138-13.695c-.232-.862.008-1.157.781-1.5q12.862-5.63,25.69-11.338c1.068-.473,2.162-.9,3.19-1.448a1.271,1.271,0,0,1,1.987.49,110.391,110.391,0,0,0,7.793,10.214c3.077,3.513,7.039,5.355,11.429,6.535,4.57,1.229,9.287,1.765,13.84,3.1,4.774,1.4,7.843,4.7,10.193,8.773a42.926,42.926,0,0,1,5.576,21.352,1.929,1.929,0,0,1-1.079,1.934c-6.256,3.736-12.478,7.528-18.708,11.306-5.427,3.292-10.844,6.6-16.289,9.861-.382.229-.829.791-1.3.483-.371-.243-.129-.843-.141-1.283-.02-.723-.005-1.447-.005-2.171" transform="translate(-235.737 -382.952)" fill="#bbe570"/>
                <path id="Trazado_167763" data-name="Trazado 167763" d="M409.174,580.675c.264.751-.568,1.2-1.364,1.671q-14.164,8.382-28.327,16.763c-2.319,1.372-2.277,1.362-2.49-1.256a89.351,89.351,0,0,0-3.4-18.978c-2.362-7.749-7.6-12.12-15.212-14.075a64.035,64.035,0,0,0-9.138-1.823c-4.545-.48-7.767-2.779-10.349-6.353a46.985,46.985,0,0,1-4.876-8.425c-.411-.923-.437-1.422.676-1.923,8.769-3.95,17.505-7.973,26.237-12,.682-.315.978-.235,1.365.422a67.8,67.8,0,0,0,7.335,10.532,16.945,16.945,0,0,0,7.972,4.646c4.485,1.419,9.143,2.034,13.737,2.924a16.181,16.181,0,0,1,11.365,7.936c3.625,6.034,5.5,12.605,6.471,19.941" transform="translate(-243.167 -389.13)" fill="#6aa72e"/>
                <path id="Trazado_167764" data-name="Trazado 167764" d="M470.876,623.444c5.982-.344,11.011-2.684,15.806-5.651a25.458,25.458,0,0,0,2.331-1.626c2.785-2.188,3.061-4.584.873-7.3,2.918.015,7.389,2.38,9.22,4.851a38.7,38.7,0,0,1,6.783,15.781c.074.374.3.911-.179,1.1-1.864.72-1.757,2.317-1.545,3.76a1.61,1.61,0,0,1-.981,1.893q-10.145,6-20.27,12.031c-.7.419-1.281.786-1.656-.378a2.159,2.159,0,0,0-1.731-1.387c-.912-.173-1.158-.6-1.314-1.509a71.061,71.061,0,0,0-4.482-16.529,23.146,23.146,0,0,0-2.856-5.029" transform="translate(-343.069 -443.605)" fill="#bbe570"/>
                <path id="Trazado_167765" data-name="Trazado 167765" d="M370.985,572.2c-4.157-.725-8.062-1.368-11.95-2.1a11.619,11.619,0,0,1-6.226-3.342,35.619,35.619,0,0,1-5.49-6.85c-.41-.7-.5-1.137.176-1.7.725-.606,1.429-1.282,1.108-2.42-.145-.515.374-.554.663-.691q9.547-4.522,19.1-9.032c.549-.26.789-.119,1.044.38.671,1.316,1.542,2.248,3.223,1.552.529-.219.652.325.868.646.93,1.388,1.864,2.772,2.789,4.162,2.583,3.88,6.439,5.806,10.762,7.015.86.24,1.726.46,2.924.779a36.273,36.273,0,0,0-12.182,2.794,20.46,20.46,0,0,0-5.712,3.583c-1.51,1.4-2.319,3.014-1.1,5.22" transform="translate(-252.816 -397.763)" fill="#bbe570"/>
                <path id="Trazado_167766" data-name="Trazado 167766" d="M454.032,616.765c1.309-.52,1.065-1.051.459-1.871-.976-1.322-.254-3.749,1.154-4.546.464-.263.695.01.919.258.3.328.862.475.6,1.187-.584,1.579-.234,2.283,1.285,2.924,1.6.673,3.644.282,4.191-.805a1.038,1.038,0,0,0-.323-1.332c-.7-.638-1.451-1.226-2.107-1.907-.92-.954-.9-1.769.143-2.516a8.765,8.765,0,0,1,6.251-1.649,3.064,3.064,0,0,0,2.458-.3c.623-.465,1.211.1,1.73.407.669.4-.007.581-.185.872-.244.4.219.527.407.717a2.11,2.11,0,0,1,.43,2.608c-.288.6-.612,1.439-1.418,1.106-.705-.291-2-.193-1.613-1.76.267-1.077-.676-1.644-1.589-1.847a4.892,4.892,0,0,0-3.182.33c-1.106.519-1.242,1.291-.345,2.094a11.232,11.232,0,0,0,1.288.988,2.828,2.828,0,0,1,1.344,2.774,3.028,3.028,0,0,1-2.077,2.458,10.988,10.988,0,0,1-5.87.368c-.4-.053-.813-.272-1.17-.005-1.014.758-1.75.121-2.779-.557" transform="translate(-330.797 -441.543)" fill="#bbe470"/>
                <path id="Trazado_167767" data-name="Trazado 167767" d="M545.421,679.165a2.6,2.6,0,0,1-2.53,2.75,2.977,2.977,0,0,1-2.633-2.923,2.59,2.59,0,1,1,5.163.173" transform="translate(-393.619 -492.74)" fill="#6aa82e"/>
                <path id="Trazado_167768" data-name="Trazado 167768" d="M414.254,585.846a2.008,2.008,0,0,1-2.17-2.048,2.565,2.565,0,0,1,2.708-2.57,2.076,2.076,0,0,1,2.231,2.145,2.545,2.545,0,0,1-2.769,2.473" transform="translate(-300.234 -423.47)" fill="#6aa72f"/>
                <path id="Trazado_167769" data-name="Trazado 167769" d="M888.065,687.395c-1.356,0-2.713-.023-4.067.021-.884.029-1.24-.568-1.672-1.164a126.616,126.616,0,0,0-14.152-16.735c-4.846-4.709-10.667-7.785-16.856-10.262-4.275-1.711-8.754-2.822-13.086-4.354-3.947-1.4-6.089-4.594-7.443-8.4-.281-.789.05-1.141.775-1.4q8.947-3.247,17.877-6.542,8.3-3.077,16.555-6.247c1.252-.484,2.073-.535,2.852.817,2.209,3.83,6,5.516,9.885,7.118,7.442,3.073,14.966,5.954,22.243,9.419,6.568,3.127,12.307,7.521,17.991,11.954a186.951,186.951,0,0,1,16.152,14.023c.742.729.986,1.151-.145,1.743-6.649,3.481-13.271,7.013-19.909,10.516a1.981,1.981,0,0,1-.656.091c-1.038-.374-2.29-.373-2.835-1.614.119-.645.7-.787,1.164-1.027,5.544-2.861,11.018-5.855,16.622-8.6.243-.119.479-.255.722-.375.9-.445.8-.9.1-1.5-2.64-2.266-5.291-4.521-8-6.705-6.546-5.281-13.148-10.491-20.412-14.775a116.424,116.424,0,0,0-13.838-6.554c-4.536-1.925-9.127-3.718-13.7-5.559a13.426,13.426,0,0,1-5.914-4.987c-1.081-1.513-1.077-1.565-2.831-.857-5.2,2.1-10.469,4.008-15.693,6.039q-6.256,2.432-12.535,4.806c-1.893.712-2.087,1.293-.8,2.94a12.552,12.552,0,0,0,6.057,4.174c4.716,1.568,9.529,2.834,14.129,4.764a50.854,50.854,0,0,1,18.672,13.609c3.554,4.036,7.152,8.029,10.466,12.267.458.586,1.124,1.088,1.07,1.966-.779.853-.978.926-2.5.976a21.818,21.818,0,0,1,2.53-.154c.439.063,1.027-.116,1.172.572" transform="translate(-605.22 -460.46)" fill="#bbe470"/>
                <path id="Trazado_167770" data-name="Trazado 167770" d="M1031.244,809.565c-1.292-.5-2.647-.034-4.036-.289.862-.605,2.081-.37,2.72-1.292a19.51,19.51,0,0,1,2.871-1.205,34.814,34.814,0,0,0,5.533-3.086c1.97-1.179,3.911-2.406,5.844-3.645a1.413,1.413,0,0,1,2.258.49c.813,1.245,1.816,2.349,2.74,3.513a8.369,8.369,0,0,0,3.014,2.448c.787.807,1.919,1.158,2.671,2.013.747.819,1.873,1.011,2.73,1.647l-3.537-.025a15.141,15.141,0,0,1-4.272-1.558,9.3,9.3,0,0,1-4.378-4.062c-.475-1.012-1.062-1.131-1.982-.435a35.424,35.424,0,0,1-7.335,4.28,8.912,8.912,0,0,1-3.084.9c-.357.017.036.251-.1.326l-1.654-.023" transform="translate(-748.399 -582.631)" fill="#9db15a"/>
                <path id="Trazado_167771" data-name="Trazado 167771" d="M1046.551,818.706l-.6-.384c4.289-.917,7.864-3.187,11.329-5.652.815-.58,1.239-.789,1.788.343,1.593,3.283,4.613,4.717,7.9,5.728a1.1,1.1,0,0,1,.743.513l-2.422-.011c-.975-.249-2.037.173-2.942-.187a6.536,6.536,0,0,0-4.471-.242,3.524,3.524,0,0,1-3.227-.576.924.924,0,0,0-1.025-.141,19.2,19.2,0,0,1-2.445.658l-4.621-.049" transform="translate(-762.053 -591.749)" fill="#63932f"/>
                <path id="Trazado_167772" data-name="Trazado 167772" d="M1065.195,832.912c.85-.389,1.719-.744,2.545-1.179.486-.256.722.008,1.054.262a3.422,3.422,0,0,0,4.634.1c.334-.226.653-.393.969-.108,1.282,1.158,2.837,1.235,4.436,1.2.156,0,.315.137.472.211-4.7-.117-9.413-.161-14.11-.487" transform="translate(-776.076 -605.906)" fill="#a0b367"/>
                <path id="Trazado_167773" data-name="Trazado 167773" d="M923.735,693.265a4.427,4.427,0,0,1-2.683-1.866c.209-.651.832-.793,1.34-1.05q5.387-2.722,10.8-5.393a1.276,1.276,0,0,0,.878-1.54c-.279-2.256.1-2.951,1.861-4a173.709,173.709,0,0,0-25.411-18.956c-.137,4.483-2.572,7.416-5.645,9.852a26.728,26.728,0,0,1-10.4,5.09c-1.107.268-2.239.292-3.346.519a10.965,10.965,0,0,1-3.161-.249c3.063,2.844,5.729,6.03,8.517,9.1,1.458,1.606,2.792,3.318,4.205,4.963.477.555,1.158,1.041,1.085,1.925a4.915,4.915,0,0,1-2.972,1.078c-3.955-5.159-8.267-10.013-12.6-14.854-6.451-7.2-14.488-11.82-23.612-14.706-2.664-.842-5.377-1.543-8-2.486-2.937-1.054-5.53-2.647-7.07-5.544-.516-.97-.352-1.494.757-1.913,9.071-3.432,18.121-6.918,27.178-10.389,1.263-.484,2.575-1.464,3.769-1.333,1.246.136,1.728,1.894,2.518,2.937,2.022,2.67,5.022,3.58,7.887,4.734,6.572,2.646,13.156,5.264,19.569,8.284,5.994,2.823,11.347,6.664,16.637,10.6,5.686,4.231,11.143,8.744,16.51,13.367a6.7,6.7,0,0,0,.511.444c.873.609.711,1.06-.165,1.506q-4.344,2.208-8.664,4.461c-3.436,1.794-6.859,3.613-10.288,5.421" transform="translate(-617.277 -467.383)" fill="#6aa72e"/>
                <path id="Trazado_167774" data-name="Trazado 167774" d="M1008.85,741.81a167.219,167.219,0,0,0-14.651-16.3c8.3.926,14.97-2.326,20.532-8.248a8.444,8.444,0,0,0,2.332-6.927c3.152.586,20.874,13.563,26.737,19.609-.923.158-1.844.269-2.18,1.269a3.9,3.9,0,0,0-.03,2.9c.448.965-.422.877-.752,1.046-4.223,2.159-8.471,4.269-12.713,6.392-1.588-.21-2.443-1.455-3.377-2.51a43.328,43.328,0,0,1-2.86-3.751c-.427-.6-.771-.555-1.336-.2-3.048,1.917-6.1,3.827-9.2,5.669-.767.457-1.458,1.22-2.507,1.051" transform="translate(-724.35 -517.534)" fill="#bbe570"/>
                <path id="Trazado_167775" data-name="Trazado 167775" d="M909.584,664.349a26.955,26.955,0,0,0-7.942,1.452,28.037,28.037,0,0,0-10.78,6.744,5.526,5.526,0,0,0-1.35,5.817c-1.772-.972-3.288-1.825-4.822-2.643a69.808,69.808,0,0,0-15.495-6.3,14.81,14.81,0,0,1-5.935-2.844c-.585-.488-.845-.836-.019-1.4.591-.4,1.3-.847,1.088-1.836-.076-.356.408-.428.688-.532q10.645-3.958,21.292-7.914a1.858,1.858,0,0,1,1.972.259c1.062.748,2.2,1.725,3.664.7.291-.205.5.044.7.226,3.853,3.661,8.8,5.194,13.611,6.983,1.115.414,2.22.857,3.33,1.286" transform="translate(-628.555 -477.02)" fill="#bbe570"/>
                <path id="Trazado_167776" data-name="Trazado 167776" d="M1002.7,701.712c-1.362.593-1.122,1.093-.328,1.9,1.157,1.175.236,4.641-1.317,4.968-.882.186-1.226-.912-1.893-1.321-.344-.21-.436-.432-.258-.886.57-1.456.251-2.281-1.1-2.968a5.4,5.4,0,0,0-5.2.005c-1.082.57-1.2,1.248-.417,2.183a7.193,7.193,0,0,0,1.922,1.69,3.256,3.256,0,0,1-.326,6.04,10.573,10.573,0,0,1-8.541.08c-.559-.219-1.114-.519-1.65-.065-1.164.987-1.878-.1-2.691-.58-.547-.32-.128-.627.2-.756.872-.34.72-.777.3-1.428A4.387,4.387,0,0,1,983,704.471c.56-.337.8.064.985.336.308.457,1.2.607.824,1.456-.922,2.066-.808,2.688.647,3.6,2.06,1.292,4.531,1.325,5.646.053.574-.655.316-1.271-.224-1.785-.815-.777-1.7-1.48-2.492-2.281-1.274-1.3-1.184-2.662.335-3.619,2.654-1.673,5.5-2.488,8.613-1.377a2.7,2.7,0,0,0,2.563-.138c1.218-.752,1.711.835,2.807,1" transform="translate(-714.467 -510.255)" fill="#bbe570"/>
                <path id="Trazado_167777" data-name="Trazado 167777" d="M1097.928,774.57a3.994,3.994,0,0,1-5.526,3.449,2.58,2.58,0,0,1-1.123-3.251,4.218,4.218,0,0,1,4.77-2.645,2.387,2.387,0,0,1,1.879,2.447" transform="translate(-794.944 -562.493)" fill="#6ba72d"/>
                <path id="Trazado_167778" data-name="Trazado 167778" d="M941.661,679.283a1.822,1.822,0,0,1,1.917.974,1.858,1.858,0,0,1-.553,2.078,3.641,3.641,0,0,1-3.949,1.3,1.642,1.642,0,0,1-.8-2.541,3.693,3.693,0,0,1,3.383-1.815" transform="translate(-683.37 -494.908)" fill="#6aa72c"/>
                <path id="Trazado_167779" data-name="Trazado 167779" d="M566.584,50.3a111.3,111.3,0,0,1,12.1,6c3.138,1.677,6.221,3.458,9.329,5.193-.14.666-.669.511-1.08.457-9.919-1.321-19.3.842-28.484,4.347-3.969,1.514-7.925,3.061-11.8,4.8a3.433,3.433,0,0,1-3.333-.085c-6.545-3.564-13.175-6.969-19.729-10.517-2.7-1.462-5.46-2.818-8.125-4.347-.489-.281-1.244-.449-1.247-1.11,0-.788.782-1.041,1.379-1.334a62.335,62.335,0,0,1,15.178-5.311,63.425,63.425,0,0,1,14.668-1.294,80.1,80.1,0,0,1,11.937,1.233,79.086,79.086,0,0,1,9.212,1.973" transform="translate(-374.642 -34.29)" fill="#6aa72e"/>
                <path id="Trazado_167780" data-name="Trazado 167780" d="M558.9,49.457c-3.574-.7-7.146-1.41-10.754-1.936a72.237,72.237,0,0,0-20.993-.286,62.889,62.889,0,0,0-19.362,6.106,9.06,9.06,0,0,0-.933.547c-.1.067-.154.209-.276.386,3.524,1.884,7.016,3.76,10.516,5.621,6.3,3.347,12.6,6.673,18.889,10.041a2.556,2.556,0,0,0,2.5.122c6.7-2.913,13.415-5.814,20.489-7.7,6.751-1.8,13.608-2.664,20.6-1.526a.735.735,0,0,0,.751-.179q3.527,2.012,7.055,4.021c.239.135.467.264.521.563-1.164.338-2.136-.4-3.212-.566a40.753,40.753,0,0,0-15.58-1.638c-.536.043-1.069.138-1.608.141-.423.011-.844.072-1.267.1-1.575-.564-3.025.216-4.473.539a70.794,70.794,0,0,0-11.1,3.775c-4.339,1.761-8.681,3.522-12.894,5.575a1.851,1.851,0,0,1-1.9-.135q-11.635-6.695-23.294-13.347c-2.729-1.564-5.443-3.151-8.169-4.72-.317-.183-.743-.343-.738-.718.005-.423.509-.454.822-.588,5.788-2.488,11.48-5.269,17.692-6.573a70.422,70.422,0,0,1,18.066-1.027,87.655,87.655,0,0,1,15.616,2.358,8.011,8.011,0,0,1,3.041,1.045" transform="translate(-366.953 -33.447)" fill="#bbe46f"/>
                <path id="Trazado_167781" data-name="Trazado 167781" d="M734.185,108.656a1.411,1.411,0,0,1,.839-.46c1.489,1.255,2.809,2.684,4.162,4.076,2.115,2.175,4.54,4,6.72,6.1a7.28,7.28,0,0,0,2.9,1.424c6.9,2.324,13.832,4.536,21.09,5.46a90.421,90.421,0,0,0,12.948,1,3.3,3.3,0,0,1,1.767.181c-7.279-3.32-14.788-6.529-21.994-10.369-3.068-1.635-6.051-3.431-9.005-5.268-.365-.227-.838-.424-.705-1.017l2.946.83c4.044,2.09,8.082,4.192,12.132,6.268,7.93,4.065,16.008,7.771,24.649,10.1.075.02.13.112.382.341-1.281.122-2.4.275-3.517.328a99.2,99.2,0,0,1-25.315-2.188,112.3,112.3,0,0,1-17.114-5.11,7.092,7.092,0,0,1-2.482-1.58c-3.451-3.39-6.933-6.749-10.4-10.119" transform="translate(-534.91 -78.83)" fill="#9daf5c"/>
                <path id="Trazado_167782" data-name="Trazado 167782" d="M588.644,55.786c-1.2.907-.83,1.664-.1,2.456,2.408,2.61,5.541,3.976,8.786,5.149.828.3,1.673.554,2.5.916a54.26,54.26,0,0,0-12.29,2.193c-4.953,1.559-9.779,3.443-14.565,5.439-.661.276-1.043.492-1.586-.37a3.5,3.5,0,0,0-5.78.139c-.476.719-.881.137-1.238-.05-3.953-2.079-7.889-4.189-11.832-6.288-2.021-1.076-4.043-2.148-6.09-3.236,1.943-2.011,1.943-2.011.01-3.753,13.765-5.744,27.814-5.432,42.19-2.595" transform="translate(-398.126 -39.203)" fill="#bbe570"/>
                <path id="Trazado_167783" data-name="Trazado 167783" d="M755.147,108.871a53.158,53.158,0,0,0,6.495,4.054c5.527,3.347,11.456,5.9,17.287,8.643,2.834,1.334,5.707,2.584,8.525,3.98a63.582,63.582,0,0,1-12.107-.435,84,84,0,0,1-10.889-1.834c-4.051-1.02-7.99-2.443-12.027-3.47-3.976-1.012-6.48-3.928-9.357-6.375-1.853-1.576-3.477-3.422-5.2-5.154-.279-.28-.654-.515-.612-1a44.091,44.091,0,0,1,15.317.765,10.281,10.281,0,0,1,2.566.824" transform="translate(-537.151 -77.917)" fill="#64942f"/>
                <path id="Trazado_167784" data-name="Trazado 167784" d="M620.422,77.8a5.4,5.4,0,0,1-3.945-2.839c-.573-.955,0-1.725,1.181-1.749a6.114,6.114,0,0,1,4.412,2.967c.433,1.1-.01,1.659-1.648,1.621" transform="translate(-448.987 -53.344)" fill="#6aa72d"/>
                <path id="Trazado_167785" data-name="Trazado 167785" d="M784.158,127.873a100.2,100.2,0,0,1-11.368-2.315c-3.473-.921-6.909-1.967-10.316-3.109a1.089,1.089,0,0,1-.832-.753,2.607,2.607,0,0,0-3.111-1.974c-1.179.182-1.709-.668-2.392-1.267-1.855-1.628-3.675-3.3-5.455-5.043a16.983,16.983,0,0,0,9.411-.1c.816-.242,1.373.373,1.938.718,4.6,2.8,9.155,5.683,13.942,8.163,1.678.87,3.412,1.634,5.134,2.413,1.446.654,3.144,1.03,3.048,3.266" transform="translate(-546.931 -82.518)" fill="#9eb05c"/>
                <path id="Trazado_167786" data-name="Trazado 167786" d="M797.936,136a11.2,11.2,0,0,1,4.3,1.618c.312.21.771.473.613.944-.182.543-.735.47-1.161.407a9.9,9.9,0,0,1-4.245-1.581c-.336-.232-.978-.357-.84-.917.158-.647.8-.4,1.339-.472" transform="translate(-580.368 -99.09)" fill="#659331"/>
              </g>
            </g>
          </g>
        </g>
      </g>
    </g>
  </g>
</svg>
