<svg xmlns="http://www.w3.org/2000/svg" xmlns:xlink="http://www.w3.org/1999/xlink" width="295" height="255.779" viewBox="0 0 295 255.779">
  <defs>
    <clipPath id="clip-path">
      <rect id="Rectángulo_43490" data-name="Rectángulo 43490" width="280.742" height="245.891" fill="none"/>
    </clipPath>
    <clipPath id="clip-path-3">
      <rect id="Rectángulo_43466" data-name="Rectángulo 43466" width="4.065" height="4.479" fill="none"/>
    </clipPath>
    <clipPath id="clip-path-4">
      <rect id="Rectángulo_43467" data-name="Rectángulo 43467" width="2.147" height="1.135" fill="none"/>
    </clipPath>
    <clipPath id="clip-path-5">
      <rect id="Rectángulo_43468" data-name="Rectángulo 43468" width="2.161" height="1.452" fill="none"/>
    </clipPath>
    <clipPath id="clip-path-6">
      <rect id="Rectángulo_43469" data-name="Rectángulo 43469" width="1.879" height="1.37" fill="none"/>
    </clipPath>
    <clipPath id="clip-path-7">
      <rect id="Rectángulo_43470" data-name="Rectángulo 43470" width="1.972" height="1.012" fill="none"/>
    </clipPath>
    <clipPath id="clip-path-8">
      <rect id="Rectángulo_43471" data-name="Rectángulo 43471" width="22.824" height="17.286" fill="none"/>
    </clipPath>
    <clipPath id="clip-path-9">
      <rect id="Rectángulo_43473" data-name="Rectángulo 43473" width="46.841" height="32.169" fill="none"/>
    </clipPath>
    <clipPath id="clip-path-10">
      <path id="Trazado_168312" data-name="Trazado 168312" d="M538.108,272.464c-2.661,1.106-5.383,2.1-8.117,3.005a62.557,62.557,0,0,1-11.879,2.407,66.554,66.554,0,0,1-7.649,1.286,15.357,15.357,0,0,1-2.548-.016c.668,10.074,1.077,16.991,1.077,16.991s28.673,3.721,45.764-1.958c-.166-1.326-2.254-15.966-3.629-29.014-3.769,3.225-8.475,5.41-13.018,7.3" transform="translate(-507.914 -265.166)" fill="none"/>
    </clipPath>
    <linearGradient id="linear-gradient" x1="-3.16" y1="2.964" x2="-3.154" y2="2.964" gradientUnits="objectBoundingBox">
      <stop offset="0" stop-color="#fff"/>
      <stop offset="1" stop-color="#45708e"/>
    </linearGradient>
    <clipPath id="clip-path-11">
      <rect id="Rectángulo_43475" data-name="Rectángulo 43475" width="0.766" height="0.985" fill="none"/>
    </clipPath>
    <clipPath id="clip-path-12">
      <path id="Trazado_168313" data-name="Trazado 168313" d="M603.624,212.383c-.626.562-.576,1.293.349-.322l-.091.084,0,0,0,0c-.086.079-.17.159-.257.237" transform="translate(-603.207 -212.061)" fill="none"/>
    </clipPath>
    <linearGradient id="linear-gradient-2" x1="-212.023" y1="100.864" x2="-211.671" y2="100.864" xlink:href="#linear-gradient"/>
  </defs>
  <g id="Grupo_171250" data-name="Grupo 171250" transform="translate(-180 -1561.176)">
    <g id="Grupo_87689" data-name="Grupo 87689" transform="translate(180 1561.176)">
      <rect id="Rectángulo_34437" data-name="Rectángulo 34437" width="295" height="255.779" rx="8" fill="#3c3fa7"/>
    </g>
    <g id="Grupo_171249" data-name="Grupo 171249" transform="translate(186.645 1566.12)">
      <g id="Grupo_171248" data-name="Grupo 171248" clip-path="url(#clip-path)">
        <path id="Trazado_168156" data-name="Trazado 168156" d="M76.414,0V219.675l251.278.792V0Z" transform="translate(-48.137 0)" fill="#ebcfc2"/>
        <rect id="Rectángulo_43447" data-name="Rectángulo 43447" width="116.94" height="193.858" transform="translate(162.615)" fill="#c4d4dd"/>
        <g id="Grupo_171247" data-name="Grupo 171247">
          <g id="Grupo_171246" data-name="Grupo 171246" clip-path="url(#clip-path)">
            <path id="Trazado_168157" data-name="Trazado 168157" d="M556.39,0H519.334a64.127,64.127,0,0,0-8.657,7.534c-6.813,7.11-12.539,16.156-21.849,19.365-3.758,1.3-7.8,1.5-11.654,2.477a30.088,30.088,0,0,0-17.14,11.873c-4.753,6.838-7.9,16.616-16.113,17.985-1.438.239-3.025.218-4.471.451V72.626a20.366,20.366,0,0,1,10.684-3.762c3.54-.173,7.126.584,10.611-.061,5.209-.963,9.366-4.9,12.541-9.14s5.726-8.984,9.458-12.744c6.808-6.861,16.767-9.642,26.4-10.422,6.419-.52,13.479-.485,18.393-4.648,5.885-4.985,6.614-14.4,12.789-19.018C544.781,9.5,551.4,9.157,556.39,7.078Z" transform="translate(-276.835)" fill="#fff"/>
            <path id="Trazado_168158" data-name="Trazado 168158" d="M556.39,88.767c-9.6,5.057-18.827,13.638-21.928,19.5-4.173,7.89-6.634,17.84-14.664,21.736-3.341,1.621-7.153,1.873-10.794,2.6a41.227,41.227,0,0,0-25.708,17.048c-5.463,8.037-8.686,18.626-17.5,22.718-8.1,3.759-18.028.449-26.344,3.587v23.375a25.058,25.058,0,0,1,4.508-1.226c6.61-1.142,13.392.3,20.088-.083a37.224,37.224,0,0,0,26.684-13.887c4.013-5.078,6.9-11.414,12.506-14.643,5.651-3.253,12.625-2.528,19.142-2.3s13.883-.541,17.991-5.605c2.618-3.228,3.33-7.537,4.6-11.5,1.991-6.235,5.858-12.175,11.425-15.451Z" transform="translate(-276.835 -55.92)" fill="#fff"/>
            <path id="Trazado_168159" data-name="Trazado 168159" d="M593.059,344.217a60.2,60.2,0,0,1-6.678.968c-9.953.92-20.766.812-28.752,6.821-9.808,7.381-12.451,22.022-22.969,28.351-8.668,5.216-21.023,3.623-27.819,11.118-2.183,2.408-3.47,5.474-4.717,8.475l-4.465,10.75h7.456a33.376,33.376,0,0,1,3.478-6.227c3.747-5.233,9.517-9.276,15.931-9.806,5.53-.457,11.356,1.628,16.511-.425,7.573-3.016,9.317-12.8,14.337-19.219A21.162,21.162,0,0,1,576,367.53c5.906,1.263,11.2,5.082,17.057,6.052Z" transform="translate(-313.504 -216.842)" fill="#fff"/>
            <rect id="Rectángulo_43448" data-name="Rectángulo 43448" width="116.939" height="2.743" transform="translate(162.615 191.115)" fill="#373b45"/>
            <rect id="Rectángulo_43449" data-name="Rectángulo 43449" width="116.939" height="2.743" transform="translate(162.615 58.055)" fill="#373b45"/>
            <rect id="Rectángulo_43450" data-name="Rectángulo 43450" width="116.939" height="2.743" transform="translate(162.615 130.514)" fill="#373b45"/>
            <rect id="Rectángulo_43451" data-name="Rectángulo 43451" width="2.921" height="193.858" transform="translate(162.615)" fill="#373b45"/>
            <rect id="Rectángulo_43452" data-name="Rectángulo 43452" width="2.921" height="193.858" transform="translate(238.188)" fill="#373b45"/>
            <path id="Trazado_168160" data-name="Trazado 168160" d="M239.566,139.136H140.944a.5.5,0,0,1-.5-.5V50.855a.5.5,0,0,1,.5-.5h98.623a.5.5,0,0,1,.5.5v87.781a.5.5,0,0,1-.5.5m-98.123-1h97.621V51.355H141.444Z" transform="translate(-88.473 -31.721)" fill="#fff"/>
            <path id="Trazado_168161" data-name="Trazado 168161" d="M176.886,139.136a.5.5,0,0,1-.5-.5V50.855a.5.5,0,1,1,1,0v87.781a.5.5,0,0,1-.5.5" transform="translate(-111.115 -31.721)" fill="#fff"/>
            <path id="Trazado_168162" data-name="Trazado 168162" d="M218.084,139.136a.5.5,0,0,1-.5-.5V50.855a.5.5,0,1,1,1,0v87.781a.5.5,0,0,1-.5.5" transform="translate(-137.069 -31.721)" fill="#fff"/>
            <path id="Trazado_168163" data-name="Trazado 168163" d="M259.282,139.136a.5.5,0,0,1-.5-.5V50.855a.5.5,0,0,1,1,0v87.781a.5.5,0,0,1-.5.5" transform="translate(-163.021 -31.721)" fill="#fff"/>
            <path id="Trazado_168164" data-name="Trazado 168164" d="M300.48,139.136a.5.5,0,0,1-.5-.5V50.855a.5.5,0,1,1,1,0v87.781a.5.5,0,0,1-.5.5" transform="translate(-188.974 -31.721)" fill="#fff"/>
            <path id="Trazado_168165" data-name="Trazado 168165" d="M341.678,139.136a.5.5,0,0,1-.5-.5V50.855a.5.5,0,0,1,1,0v87.781a.5.5,0,0,1-.5.5" transform="translate(-214.927 -31.721)" fill="#fff"/>
            <path id="Trazado_168166" data-name="Trazado 168166" d="M382.876,139.136a.5.5,0,0,1-.5-.5V50.855a.5.5,0,1,1,1,0v87.781a.5.5,0,0,1-.5.5" transform="translate(-240.881 -31.721)" fill="#fff"/>
            <path id="Trazado_168167" data-name="Trazado 168167" d="M239.195,90.738H140.354a.5.5,0,0,1,0-1h98.841a.5.5,0,0,1,0,1" transform="translate(-88.102 -56.531)" fill="#fff"/>
            <path id="Trazado_168168" data-name="Trazado 168168" d="M239.195,141.426H140.354a.5.5,0,1,1,0-1h98.841a.5.5,0,0,1,0,1" transform="translate(-88.102 -88.462)" fill="#fff"/>
            <path id="Trazado_168169" data-name="Trazado 168169" d="M239.195,192.115H140.354a.5.5,0,1,1,0-1h98.841a.5.5,0,0,1,0,1" transform="translate(-88.102 -120.394)" fill="#fff"/>
            <path id="Trazado_168170" data-name="Trazado 168170" d="M239.195,242.8H140.354a.5.5,0,1,1,0-1h98.841a.5.5,0,0,1,0,1" transform="translate(-88.102 -152.326)" fill="#fff"/>
            <rect id="Rectángulo_43453" data-name="Rectángulo 43453" width="24.7" height="32.489" transform="translate(58.819 52.464)" fill="#fff"/>
            <rect id="Rectángulo_43454" data-name="Rectángulo 43454" width="6.925" height="3.004" transform="translate(69.251 50.682)" fill="#ffa753"/>
            <path id="Trazado_168171" data-name="Trazado 168171" d="M194.2,130.2h0a1.189,1.189,0,0,0-1.189,1.189v2.649h2.378v-2.649A1.189,1.189,0,0,0,194.2,130.2" transform="translate(-121.587 -82.021)" fill="#ffa753"/>
            <rect id="Rectángulo_43455" data-name="Rectángulo 43455" width="24.7" height="32.489" transform="translate(108.482 31.935)" fill="#fff"/>
            <rect id="Rectángulo_43456" data-name="Rectángulo 43456" width="6.925" height="3.004" transform="translate(116.558 30.585)" fill="#007d78"/>
            <path id="Trazado_168172" data-name="Trazado 168172" d="M322.038,75.888h0a1.189,1.189,0,0,0-1.189,1.189v2.649h2.378V77.077a1.189,1.189,0,0,0-1.189-1.189" transform="translate(-202.121 -47.806)" fill="#007d78"/>
            <rect id="Rectángulo_43457" data-name="Rectángulo 43457" width="19.58" height="25.605" transform="translate(84.437 32.086)" fill="#007d78"/>
            <rect id="Rectángulo_43458" data-name="Rectángulo 43458" width="5.728" height="2.484" transform="translate(88.723 30.853)" fill="#fff"/>
            <path id="Trazado_168173" data-name="Trazado 168173" d="M245.595,77.784h0a.983.983,0,0,0-.984.983v2.191h1.967V78.767a.983.983,0,0,0-.983-.983" transform="translate(-154.095 -49.001)" fill="#fff"/>
            <rect id="Rectángulo_43459" data-name="Rectángulo 43459" width="19.58" height="25.605" transform="translate(98.693 70.514)" fill="#45708e"/>
            <rect id="Rectángulo_43460" data-name="Rectángulo 43460" width="5.728" height="2.484" transform="translate(102.978 69.281)" fill="#fff"/>
            <path id="Trazado_168174" data-name="Trazado 168174" d="M284.119,181.631h0a.983.983,0,0,0-.983.984v2.191H285.1v-2.191a.984.984,0,0,0-.984-.984" transform="translate(-178.364 -114.42)" fill="#fff"/>
            <path id="Trazado_168175" data-name="Trazado 168175" d="M131.455,254.783c-.115-1.392-.1-3,.962-3.912a.447.447,0,0,1,.685-.018,4.479,4.479,0,0,1,1.265,2.707c.3,1.473.511,3.1-.245,4.4a6.591,6.591,0,0,1-1.415,1.547l-1.608,1.419c-1.277,1.127-.342-1.773-.206-2.144a8.516,8.516,0,0,0,.563-4" transform="translate(-82.169 -157.932)" fill="#00a29b"/>
            <path id="Trazado_168176" data-name="Trazado 168176" d="M133.211,250.854a.559.559,0,0,0-.322-.151.374.374,0,0,0-.167.039,10.274,10.274,0,0,1,.6,4.912,6.217,6.217,0,0,1-2.675,4.364c-.014.066-.028.132-.04.2l.148.251a6.621,6.621,0,0,0,3-4.747,10.524,10.524,0,0,0-.531-4.852l-.014-.013" transform="translate(-82.278 -157.932)" fill="#007d78"/>
            <path id="Trazado_168177" data-name="Trazado 168177" d="M132.529,252.385a2.793,2.793,0,0,0-.3.549,8.52,8.52,0,0,1-.416,5.55,11.185,11.185,0,0,1-.406,1.355c-.027.074-.086.25-.153.475a8.882,8.882,0,0,0,1.273-7.929" transform="translate(-82.686 -158.992)" fill="#007d78"/>
            <path id="Trazado_168178" data-name="Trazado 168178" d="M88.563,279.108a11.026,11.026,0,0,1-2.822-1.725,7.2,7.2,0,0,0-1.792-1.17,1.872,1.872,0,0,0-2.367,2.795,6.152,6.152,0,0,0,2.059,1.955c1.514,1.043,3.2,2.131,5.032,1.956.967-.092,4.329-1.172,3.911-2.589-.329-1.115-3.155-.891-4.021-1.221" transform="translate(-51.203 -173.891)" fill="#00a29b"/>
            <path id="Trazado_168179" data-name="Trazado 168179" d="M87.6,279.628a7.466,7.466,0,0,0,3.075.678,6.276,6.276,0,0,0,2.649-.567,4.259,4.259,0,0,0-.7-.185,6.64,6.64,0,0,1-4.84-.324,9.757,9.757,0,0,1-3.672-3.077,1.716,1.716,0,0,0-.433.15,10.249,10.249,0,0,0,3.924,3.324" transform="translate(-52.709 -173.965)" fill="#007d78"/>
            <path id="Trazado_168180" data-name="Trazado 168180" d="M92.128,282.129c-1.737.862-3.742,1.724-5.548,1.04a6.563,6.563,0,0,1-1.791-1.154,31.38,31.38,0,0,1-3.342-3.238,1.975,1.975,0,0,0-.126.511,31.707,31.707,0,0,0,3.189,3.063,6.95,6.95,0,0,0,1.915,1.227,4.307,4.307,0,0,0,1.539.272,10.287,10.287,0,0,0,4.358-1.329Z" transform="translate(-51.229 -175.617)" fill="#007d78"/>
            <path id="Trazado_168181" data-name="Trazado 168181" d="M102.441,257.814a11.653,11.653,0,0,1-.085-6.321,4.709,4.709,0,0,1,8.573-1.607,12.271,12.271,0,0,1,1.907,4.186,39.716,39.716,0,0,1,.826,18.575,9.02,9.02,0,0,1-2.3,5.058c-1.117,1.03-3.734,1.826-4.561.115-.685-1.418-.006-4.307-.262-5.916-.772-4.852-2.973-9.327-4.1-14.09" transform="translate(-64.225 -156.057)" fill="#00a29b"/>
            <path id="Trazado_168182" data-name="Trazado 168182" d="M116.123,247.769a3.975,3.975,0,0,0-.532-.042h-.022a33.92,33.92,0,0,1,5.757,16.2,41.908,41.908,0,0,1-.761,11.357l.429.084a42.35,42.35,0,0,0,.768-11.476,34.365,34.365,0,0,0-5.639-16.126" transform="translate(-72.804 -156.058)" fill="#007d78"/>
            <path id="Trazado_168183" data-name="Trazado 168183" d="M113.81,260.071a75.612,75.612,0,0,0-3.29-11.41c-.134.058-.265.123-.393.193a75.541,75.541,0,0,1,3.257,11.315q.239,1.029.48,2.05a33.623,33.623,0,0,1,.57,14.551l.429.083a34.043,34.043,0,0,0-.574-14.735q-.241-1.019-.479-2.048" transform="translate(-69.376 -156.646)" fill="#007d78"/>
            <path id="Trazado_168184" data-name="Trazado 168184" d="M110.077,277.88c.011-4.008-1.075-7.937-2.126-11.737-.6-2.17-1.22-4.414-1.629-6.646a49.443,49.443,0,0,1-.729-7.222,6.042,6.042,0,0,0-.416.532,48.768,48.768,0,0,0,.716,6.769c.413,2.252,1.035,4.505,1.637,6.684,1.043,3.772,2.121,7.672,2.11,11.62Z" transform="translate(-66.256 -158.922)" fill="#007d78"/>
            <path id="Trazado_168185" data-name="Trazado 168185" d="M94.369,344.655,88.612,318.91H114.64l-4.252,25.745Z" transform="translate(-55.822 -200.9)" fill="#1f2127"/>
            <path id="Trazado_168186" data-name="Trazado 168186" d="M99.435,318.911l3.816,25.745h.815l-2.506-25.745Z" transform="translate(-62.64 -200.9)" fill="#fff"/>
            <path id="Trazado_168187" data-name="Trazado 168187" d="M111.049,318.911l1.5,25.745h.912l-1.7-25.745Z" transform="translate(-69.957 -200.9)" fill="#fff"/>
            <rect id="Rectángulo_43461" data-name="Rectángulo 43461" width="112.897" height="76.173" transform="translate(16.694 143.503)" fill="#da9a68"/>
            <path id="Trazado_168188" data-name="Trazado 168188" d="M161.249,417.241H54.263V397.426H161.249Zm-106.222-.764H160.485V398.191H55.027Z" transform="translate(-34.183 -250.362)" fill="#c46534"/>
            <path id="Trazado_168189" data-name="Trazado 168189" d="M161.249,483.766H54.263V463.951H161.249ZM55.027,483H160.485V464.715H55.027Z" transform="translate(-34.183 -292.27)" fill="#c46534"/>
            <path id="Trazado_168190" data-name="Trazado 168190" d="M161.249,550.29H54.263V530.475H161.249Zm-106.222-.764H160.485V531.24H55.027Z" transform="translate(-34.183 -334.177)" fill="#c46534"/>
            <rect id="Rectángulo_43462" data-name="Rectángulo 43462" width="31.548" height="4.861" transform="translate(59.756 147.447)" fill="#c46534"/>
            <rect id="Rectángulo_43463" data-name="Rectángulo 43463" width="31.548" height="4.86" transform="translate(59.756 172.064)" fill="#c46534"/>
            <rect id="Rectángulo_43464" data-name="Rectángulo 43464" width="31.548" height="4.86" transform="translate(59.756 196.68)" fill="#c46534"/>
            <path id="Trazado_168191" data-name="Trazado 168191" d="M673.01,521.578H653.775a.553.553,0,0,1-.54-.436l-9.065-41.827a.553.553,0,0,1,.54-.67h41.271a.553.553,0,0,1,.528.716l-12.971,41.827a.553.553,0,0,1-.528.389m-18.789-1.105H672.6l12.628-40.722H645.4Z" transform="translate(-405.792 -301.527)" fill="#fff"/>
            <path id="Trazado_168192" data-name="Trazado 168192" d="M686.393,498.681H648.812a.553.553,0,1,1,0-1.105h37.581a.553.553,0,1,1,0,1.105" transform="translate(-408.376 -313.452)" fill="#fff"/>
            <path id="Trazado_168193" data-name="Trazado 168193" d="M687.26,526.91H654.931a.553.553,0,1,1,0-1.105H687.26a.553.553,0,1,1,0,1.105" transform="translate(-412.231 -331.235)" fill="#fff"/>
            <path id="Trazado_168194" data-name="Trazado 168194" d="M673.532,521.578a.553.553,0,0,1-.55-.506c-1.339-15.876-3.565-39.983-4.232-41.565a.553.553,0,0,1,.878-.669c.233.272.667.777,2.625,21.608.96,10.212,1.823,20.431,1.831,20.533a.553.553,0,0,1-.5.6l-.047,0m-4.744-42.02h0m-.046-.067Z" transform="translate(-421.225 -301.526)" fill="#fff"/>
            <path id="Trazado_168195" data-name="Trazado 168195" d="M700.477,521.578h-.014a.552.552,0,0,1-.539-.566l1.032-41.827a.553.553,0,0,1,1.1.027l-1.032,41.827a.552.552,0,0,1-.552.539" transform="translate(-440.923 -301.526)" fill="#fff"/>
            <path id="Trazado_168196" data-name="Trazado 168196" d="M713.365,521.047a.565.565,0,0,1-.1-.009.553.553,0,0,1-.446-.642l7.479-41.3a.553.553,0,1,1,1.088.2l-7.479,41.3a.553.553,0,0,1-.543.454" transform="translate(-449.042 -301.526)" fill="#fff"/>
            <path id="Trazado_168197" data-name="Trazado 168197" d="M687.5,549.648H659.859a.553.553,0,1,1,0-1.105H687.5a.553.553,0,1,1,0,1.105" transform="translate(-415.335 -345.559)" fill="#fff"/>
            <path id="Trazado_168198" data-name="Trazado 168198" d="M688.11,577.537H665.9a.553.553,0,1,1,0-1.105H688.11a.553.553,0,1,1,0,1.105" transform="translate(-419.142 -363.128)" fill="#fff"/>
            <path id="Trazado_168199" data-name="Trazado 168199" d="M17.034,593.65H279.213l-12.887,25.715H0Z" transform="translate(0 -373.975)" fill="#9d4d32"/>
            <path id="Trazado_168200" data-name="Trazado 168200" d="M296.647,607.482H35.786a.5.5,0,1,1,0-1H296.647a.5.5,0,1,1,0,1" transform="translate(-22.228 -382.058)" fill="#c46534"/>
            <path id="Trazado_168201" data-name="Trazado 168201" d="M281.763,636.113h0L18.173,634.066a.5.5,0,0,1,0-1h0l263.586,2.047a.5.5,0,0,1,0,1" transform="translate(-11.135 -398.804)" fill="#c46534"/>
            <path id="Trazado_168202" data-name="Trazado 168202" d="M66.79,618.713a.5.5,0,0,1-.429-.758l15.519-25.892a.5.5,0,0,1,.859.515L67.22,618.469a.5.5,0,0,1-.43.243" transform="translate(-41.76 -372.822)" fill="#c46534"/>
            <path id="Trazado_168203" data-name="Trazado 168203" d="M170.5,618.713a.5.5,0,0,1-.429-.758l15.519-25.892a.5.5,0,0,1,.859.515l-15.519,25.891a.5.5,0,0,1-.43.243" transform="translate(-107.095 -372.822)" fill="#c46534"/>
            <path id="Trazado_168204" data-name="Trazado 168204" d="M274.217,618.713a.5.5,0,0,1-.429-.758l15.519-25.892a.5.5,0,0,1,.859.515l-15.519,25.891a.5.5,0,0,1-.43.243" transform="translate(-172.43 -372.822)" fill="#c46534"/>
            <path id="Trazado_168205" data-name="Trazado 168205" d="M377.93,618.713a.5.5,0,0,1-.429-.758l15.519-25.892a.5.5,0,0,1,.859.515l-15.52,25.891a.5.5,0,0,1-.43.243" transform="translate(-237.765 -372.822)" fill="#c46534"/>
            <path id="Trazado_168206" data-name="Trazado 168206" d="M481.644,618.713a.5.5,0,0,1-.429-.758l15.519-25.892a.5.5,0,0,1,.859.515l-15.519,25.891a.5.5,0,0,1-.43.243" transform="translate(-303.101 -372.822)" fill="#c46534"/>
            <path id="Trazado_168207" data-name="Trazado 168207" d="M585.358,618.713a.5.5,0,0,1-.429-.758l15.519-25.892a.5.5,0,0,1,.859.515l-15.519,25.891a.5.5,0,0,1-.43.243" transform="translate(-368.436 -372.822)" fill="#c46534"/>
            <path id="Trazado_168208" data-name="Trazado 168208" d="M689.072,618.713a.5.5,0,0,1-.429-.758l15.519-25.892a.5.5,0,0,1,.859.515L689.5,618.469a.5.5,0,0,1-.43.243" transform="translate(-433.771 -372.822)" fill="#c46534"/>
            <path id="Trazado_168209" data-name="Trazado 168209" d="M542.671,437.978h-12.14a3.254,3.254,0,0,1-3.254-3.254h18.648a3.254,3.254,0,0,1-3.254,3.254" transform="translate(-332.162 -273.858)" fill="#c46534"/>
            <rect id="Rectángulo_43465" data-name="Rectángulo 43465" width="5.697" height="60.555" transform="translate(201.54 160.866)" fill="#c46534"/>
            <path id="Trazado_168210" data-name="Trazado 168210" d="M538.893,597.657h-34.1l14.078-6.581h6.365Z" transform="translate(-317.997 -372.353)" fill="#c46534"/>
            <path id="Trazado_168211" data-name="Trazado 168211" d="M455.554,274.473s3.285,33.26-30.757,45.88c.25.856,14.762,13.42,14.762,13.42l34.418-13.42s3.451-26.591,1.79-27.636-20.214-18.244-20.214-18.244" transform="translate(-267.604 -172.907)" fill="#da9a68"/>
            <path id="Trazado_168212" data-name="Trazado 168212" d="M555.875,303.237s21.7,1.132,24.615-70.111c-.091-1.036-41.391-5.194-41.391-5.194l2.062,76.946Z" transform="translate(-339.61 -143.588)" fill="#c46534"/>
            <path id="Trazado_168213" data-name="Trazado 168213" d="M492.556,424.954h-45.21v-6.694l45.293,1.338Z" transform="translate(-281.809 -263.486)" fill="#da9a68"/>
            <path id="Trazado_168214" data-name="Trazado 168214" d="M391.3,294.4c-.46,0-7.663,3.621-7.663,3.621l-3.813.392a4.518,4.518,0,0,0-3.2,1.853l-.652.9a1.538,1.538,0,0,0,.112,1.937l.6.657,10.725.076,4.938-2.029,3.212-5.192Z" transform="translate(-236.663 -185.461)" fill="#ffa78b"/>
            <path id="Trazado_168215" data-name="Trazado 168215" d="M446.306,185.016a41.65,41.65,0,0,0-.882-7.076,13.747,13.747,0,0,0-3.376,4.049c-11.226,26.266-24.976,38.54-24.976,38.54a6.085,6.085,0,0,0,1.519,1.911,12.679,12.679,0,0,1,3.041,2.887c14.613-6.316,24.456-15.228,28.787-22.543.5-7.609-4.072-10.129-4.113-17.767" transform="translate(-262.738 -112.095)" fill="#45708e"/>
            <path id="Trazado_168216" data-name="Trazado 168216" d="M540.858,103.569s1.576,8.625-2.425,11.24c-.023,2.03,1.884,7.036,8.853,6.259.166-.014,14.035.672,12.115-7.872-5.451-.556-7.414-8.622-7.443-12.138-.112.009-11.1,2.511-11.1,2.511" transform="translate(-339.19 -63.662)" fill="#ffa78b"/>
            <path id="Trazado_168217" data-name="Trazado 168217" d="M555.769,104.538a30.96,30.96,0,0,1-5.406,0l-.107.024-.05.011-1.731.393-.032.007-.75.171-.011,0-.544.124-.17.039-.786.179-.035.008-.394.09-.081.018-.2.046-.106.024-.01,0-.134.03-.121.028-.073.016-.019,0-.012,0h-.005a23.01,23.01,0,0,1,.3,3.1c2.042,2.109,8.256,3.534,10.488-4.322" transform="translate(-343.318 -65.854)" fill="#ff7559"/>
            <path id="Trazado_168218" data-name="Trazado 168218" d="M532.215,89.141a.988.988,0,0,0-.839.466,1.312,1.312,0,0,0-.107.7,4.764,4.764,0,0,0,.389,1.625,2.522,2.522,0,0,0,.471.75,2.383,2.383,0,0,0,.541.407,3.993,3.993,0,0,0,2.653.469,24.416,24.416,0,0,0-1.3-2.963c-.45-.736-.829-1.495-1.805-1.458" transform="translate(-334.674 -56.154)" fill="#ffa78b"/>
            <g id="Grupo_171220" data-name="Grupo 171220" transform="translate(196.59 32.985)" opacity="0.38">
              <g id="Grupo_171219" data-name="Grupo 171219">
                <g id="Grupo_171218" data-name="Grupo 171218" clip-path="url(#clip-path-3)">
                  <path id="Trazado_168219" data-name="Trazado 168219" d="M532.215,89.141a.988.988,0,0,0-.839.466,1.312,1.312,0,0,0-.107.7,4.764,4.764,0,0,0,.389,1.625,2.522,2.522,0,0,0,.471.75,2.383,2.383,0,0,0,.541.407,3.993,3.993,0,0,0,2.653.469,24.416,24.416,0,0,0-1.3-2.963c-.45-.736-.829-1.495-1.805-1.458" transform="translate(-531.263 -89.139)" fill="#ff7559"/>
                </g>
              </g>
            </g>
            <path id="Trazado_168220" data-name="Trazado 168220" d="M535.667,94.722a.167.167,0,0,1-.155-.1,2.906,2.906,0,0,0-2.464-1.907.167.167,0,0,1-.061-.328,3.207,3.207,0,0,1,2.835,2.11.167.167,0,0,1-.092.218.171.171,0,0,1-.063.012" transform="translate(-335.673 -58.192)" fill="#ff7559"/>
            <path id="Trazado_168221" data-name="Trazado 168221" d="M535.188,95.406l-.031,0a.167.167,0,0,1-.133-.195.911.911,0,0,1,1.2-.691.167.167,0,1,1-.111.315.578.578,0,0,0-.76.438.167.167,0,0,1-.164.136" transform="translate(-337.041 -59.51)" fill="#ff7559"/>
            <path id="Trazado_168222" data-name="Trazado 168222" d="M546.956,64.716c-.018,13.1-5.81,13.216-6.687,13.5-6.61,1.417-10.985-14.447-11.023-14.61,0,0-1.986-8.363,8.836-8.94,0,0,9.661-1.169,8.874,10.049" transform="translate(-333.313 -34.416)" fill="#ffa78b"/>
            <path id="Trazado_168223" data-name="Trazado 168223" d="M537.263,95.573a1.087,1.087,0,0,0-.272,1.178,1.024,1.024,0,0,0,.17.33.99.99,0,0,0,.579.346,1.2,1.2,0,0,0,1.352-.849,1.043,1.043,0,0,0-1.245-1.338,1.522,1.522,0,0,0-.584.333" transform="translate(-338.24 -59.967)" fill="#ff7559"/>
            <path id="Trazado_168224" data-name="Trazado 168224" d="M564.53,89.375a1.087,1.087,0,0,0-.272,1.178,1.023,1.023,0,0,0,.17.33.989.989,0,0,0,.579.346,1.2,1.2,0,0,0,1.351-.849,1.043,1.043,0,0,0-1.245-1.338,1.52,1.52,0,0,0-.584.333" transform="translate(-355.418 -56.062)" fill="#ff7559"/>
            <path id="Trazado_168225" data-name="Trazado 168225" d="M549.751,92.746a1.168,1.168,0,0,1-.766-.233,1.527,1.527,0,0,1-.4-1.28c.009-.393.033-.788.057-1.182a12.144,12.144,0,0,0-.06-2.958.167.167,0,0,1,.328-.062,12.4,12.4,0,0,1,.066,3.04c-.024.39-.047.78-.057,1.17a1.257,1.257,0,0,0,.281,1.014,1.317,1.317,0,0,0,1.005.118.167.167,0,0,1,.046.331,3.66,3.66,0,0,1-.5.041" transform="translate(-345.579 -54.741)" fill="#ff7559"/>
            <path id="Trazado_168226" data-name="Trazado 168226" d="M559.933,76.937c.158-.072.343-.208.29-.373-.036-.111-.163-.158-.276-.189a7.463,7.463,0,0,0-2.827-.211,2.346,2.346,0,0,0-.9.252c-.748.43-.665,1.6.3,1.545a10.165,10.165,0,0,0,3.417-1.024" transform="translate(-350.08 -47.948)" fill="#7a3a26"/>
            <g id="Grupo_171223" data-name="Grupo 171223" transform="translate(207.472 28.167)" opacity="0.38" style="mix-blend-mode: screen;isolation: isolate">
              <g id="Grupo_171222" data-name="Grupo 171222">
                <g id="Grupo_171221" data-name="Grupo 171221" clip-path="url(#clip-path-4)">
                  <path id="Trazado_168227" data-name="Trazado 168227" d="M561.116,76.118c-.148,0-.3,0-.445.012a3.888,3.888,0,0,0,1.66,1.123q.249-.1.486-.208a3.549,3.549,0,0,1-1.7-.927" transform="translate(-560.671 -76.118)" fill="#7a3a26"/>
                </g>
              </g>
            </g>
            <g id="Grupo_171226" data-name="Grupo 171226" transform="translate(206.028 28.381)" opacity="0.38" style="mix-blend-mode: screen;isolation: isolate">
              <g id="Grupo_171225" data-name="Grupo 171225">
                <g id="Grupo_171224" data-name="Grupo 171224" clip-path="url(#clip-path-5)">
                  <path id="Trazado_168228" data-name="Trazado 168228" d="M557.063,76.695a1.589,1.589,0,0,0-.182.088,1.012,1.012,0,0,0-.111.076,2.909,2.909,0,0,0,1.521,1.289c.214-.053.428-.112.64-.181a2.571,2.571,0,0,1-1.868-1.272" transform="translate(-556.77 -76.695)" fill="#7a3a26"/>
                </g>
              </g>
            </g>
            <path id="Trazado_168229" data-name="Trazado 168229" d="M536.546,82.3c.141-.1.3-.271.212-.422a.362.362,0,0,0-.307-.132,7.462,7.462,0,0,0-2.815.337,2.344,2.344,0,0,0-.836.421c-.651.566-.344,1.7.589,1.459a10.16,10.16,0,0,0,3.156-1.662" transform="translate(-335.424 -51.481)" fill="#7a3a26"/>
            <g id="Grupo_171229" data-name="Grupo 171229" transform="translate(197.366 30.835)" opacity="0.38" style="mix-blend-mode: screen;isolation: isolate">
              <g id="Grupo_171228" data-name="Grupo 171228">
                <g id="Grupo_171227" data-name="Grupo 171227" clip-path="url(#clip-path-6)">
                  <path id="Trazado_168230" data-name="Trazado 168230" d="M533.637,83.328a1.6,1.6,0,0,0-.264.183l-.011.011a2.561,2.561,0,0,0,1.395,1.176q.244-.1.485-.223a2.218,2.218,0,0,1-1.6-1.146" transform="translate(-533.362 -83.328)" fill="#7a3a26"/>
                </g>
              </g>
            </g>
            <g id="Grupo_171232" data-name="Grupo 171232" transform="translate(198.664 30.379)" opacity="0.38" style="mix-blend-mode: screen;isolation: isolate">
              <g id="Grupo_171231" data-name="Grupo 171231">
                <g id="Grupo_171230" data-name="Grupo 171230" clip-path="url(#clip-path-7)">
                  <path id="Trazado_168231" data-name="Trazado 168231" d="M538.476,83.109q.186-.119.366-.24a4.234,4.234,0,0,1-1.567-.772c-.136.027-.271.056-.405.09a4.587,4.587,0,0,0,1.606.922" transform="translate(-536.87 -82.097)" fill="#7a3a26"/>
                </g>
              </g>
            </g>
            <path id="Trazado_168232" data-name="Trazado 168232" d="M534.849,82.881c-.046.018-.092.036-.137.055.046-.016.091-.036.137-.055" transform="translate(-336.846 -52.212)" fill="#9d4d32"/>
            <path id="Trazado_168233" data-name="Trazado 168233" d="M536.785,89.232s2.151,1.2,2.984-.911a2.1,2.1,0,0,0-2.984.911" transform="translate(-338.152 -55.449)" fill="#f3e1d9"/>
            <path id="Trazado_168234" data-name="Trazado 168234" d="M536.383,89.255a.167.167,0,0,1-.124-.279,3.045,3.045,0,0,1,3.152-.866.167.167,0,1,1-.109.315,2.742,2.742,0,0,0-2.8.775.166.166,0,0,1-.124.055" transform="translate(-337.794 -55.416)" fill="#7a3a26"/>
            <path id="Trazado_168235" data-name="Trazado 168235" d="M540.889,89.076a.6.6,0,0,1-.392.737c-.273.042-.541-.219-.6-.583a.6.6,0,0,1,.392-.737c.273-.043.541.219.6.583" transform="translate(-340.108 -55.744)" fill="#7a3a26"/>
            <path id="Trazado_168236" data-name="Trazado 168236" d="M560.92,83.588s-1.323,2.075-3.059.618a2.1,2.1,0,0,1,3.059-.618" transform="translate(-351.429 -52.41)" fill="#f3e1d9"/>
            <path id="Trazado_168237" data-name="Trazado 168237" d="M557.683,84.242a.167.167,0,0,1-.123-.28,3.045,3.045,0,0,1,3.184-.737.167.167,0,1,1-.11.315,2.742,2.742,0,0,0-2.828.648.166.166,0,0,1-.123.054" transform="translate(-351.212 -52.321)" fill="#7a3a26"/>
            <path id="Trazado_168238" data-name="Trazado 168238" d="M560.354,84.554a.522.522,0,1,0,.248-.8.6.6,0,0,0-.248.8" transform="translate(-352.968 -52.75)" fill="#7a3a26"/>
            <path id="Trazado_168239" data-name="Trazado 168239" d="M549.826,106.79a4.636,4.636,0,0,1-.734-.058.167.167,0,0,1-.138-.191.168.168,0,0,1,.191-.138,4.631,4.631,0,0,0,3.85-1.2.167.167,0,0,1,.231.241,4.983,4.983,0,0,1-3.4,1.345" transform="translate(-345.816 -66.245)" fill="#ff7559"/>
            <path id="Trazado_168240" data-name="Trazado 168240" d="M540.25,55.09a3.41,3.41,0,0,0,2.183-1.533,2.475,2.475,0,0,0-.041-2.6,1.269,1.269,0,0,1-.26-.465c-.083-.451.473-.848.362-1.293s-.847-.569-.735-1.008a3.492,3.492,0,0,0,.059-1.687,2.046,2.046,0,0,0-.978-1.334.884.884,0,0,1-.3-.2c-.167-.209-.048-.513-.043-.78a.9.9,0,0,0-.788-.88,1.3,1.3,0,0,1-.311-.034c-.268-.091-.341-.434-.34-.717a1.06,1.06,0,0,0-.191-.8c-.276-.259-.77-.124-1.063-.364a1.573,1.573,0,0,0-.81-1.169,2.429,2.429,0,0,0-2.124.6,1.3,1.3,0,0,0-1.74-1.356,2.467,2.467,0,0,0-.843.423,2.169,2.169,0,0,0-2.253-.847,2.377,2.377,0,0,0-1.756,1.819,1.046,1.046,0,0,0-1.377.181,3.093,3.093,0,0,0-.723,1.349,1.273,1.273,0,0,0-1.632.3c-.4.454-.33.932-.417,1.533a4.149,4.149,0,0,0-4.335,1.051,3.523,3.523,0,0,0-.956,2.064,2.692,2.692,0,0,0,.537,2.142,1.135,1.135,0,0,0-.859,1.059,2.5,2.5,0,0,0,.4,1.392c.147.257.369.65.643.54a1.869,1.869,0,0,0,1.808,2.28c.371,0,.864-.013.988-.363a2.137,2.137,0,0,0,2.05-2,1.062,1.062,0,0,0,1.109-.439c.266-.407.268-1.018.7-1.247a2.21,2.21,0,0,1,.728-.127,3.313,3.313,0,0,0,1.786-1.112,2.388,2.388,0,0,0,1.805,1.071,4.586,4.586,0,0,0,2.125-.356,8.7,8.7,0,0,0,3.919-3.027c.327,1.05.8,2.438,1.807,2.89.393.177.868.253,1.122.6a1.524,1.524,0,0,1,.208.878,8.31,8.31,0,0,0,.534,3.562" transform="translate(-326.641 -24.564)" fill="#7a3a26"/>
            <path id="Trazado_168241" data-name="Trazado 168241" d="M529.182,84.149a40.631,40.631,0,0,1-1.692-4.821,1.99,1.99,0,0,0-1.026-.117.47.47,0,0,0-.215.113.448.448,0,0,0-.1.255,2.684,2.684,0,0,0,.136,1.027,1.9,1.9,0,0,0,.494,1,5.937,5.937,0,0,1,.538.39,1.661,1.661,0,0,1,.235.382,5.216,5.216,0,0,0,1.63,1.775" transform="translate(-331.445 -49.877)" fill="#7a3a26"/>
            <g id="Grupo_171235" data-name="Grupo 171235" transform="translate(192.781 15.15)" opacity="0.38" style="mix-blend-mode: screen;isolation: isolate">
              <g id="Grupo_171234" data-name="Grupo 171234">
                <g id="Grupo_171233" data-name="Grupo 171233" clip-path="url(#clip-path-8)">
                  <path id="Trazado_168242" data-name="Trazado 168242" d="M522.351,57.926a2.066,2.066,0,0,0-.574,1.653c.02.213.345.137.326-.074a1.7,1.7,0,0,1,.477-1.335c.148-.154-.079-.4-.228-.244" transform="translate(-521.472 -51.609)" fill="#7a3a26"/>
                  <path id="Trazado_168243" data-name="Trazado 168243" d="M524.034,63.223a2.14,2.14,0,0,0-.4,1.1.167.167,0,0,0,.333.015,1.816,1.816,0,0,1,.345-.942c.126-.175-.157-.352-.282-.178" transform="translate(-522.651 -54.933)" fill="#7a3a26"/>
                  <path id="Trazado_168244" data-name="Trazado 168244" d="M521.076,70.458a.757.757,0,0,0-.092.531c.039.211.365.137.325-.074a.4.4,0,0,1,.049-.279c.108-.185-.174-.364-.282-.178" transform="translate(-520.971 -59.486)" fill="#7a3a26"/>
                  <path id="Trazado_168245" data-name="Trazado 168245" d="M523.732,73.995a.862.862,0,0,1-.849.045c-.19-.1-.37.185-.178.282a1.2,1.2,0,0,0,1.185-.033c.182-.111.026-.407-.158-.295" transform="translate(-522.012 -61.747)" fill="#7a3a26"/>
                  <path id="Trazado_168246" data-name="Trazado 168246" d="M525.1,69.359a1.115,1.115,0,0,1-.725.575.167.167,0,0,0,.074.325,1.442,1.442,0,0,0,.933-.723c.1-.189-.181-.368-.282-.178" transform="translate(-523.038 -58.792)" fill="#7a3a26"/>
                  <path id="Trazado_168247" data-name="Trazado 168247" d="M525.75,77.8a1.029,1.029,0,0,1-.9.007c-.2-.088-.294.232-.1.318a1.35,1.35,0,0,0,1.157-.031c.192-.095.035-.389-.158-.294" transform="translate(-523.286 -64.151)" fill="#7a3a26"/>
                  <path id="Trazado_168248" data-name="Trazado 168248" d="M530.816,73.963a1.163,1.163,0,0,1-.555.6.167.167,0,0,0,.158.294,1.515,1.515,0,0,0,.715-.791c.081-.2-.238-.3-.318-.1" transform="translate(-526.769 -61.675)" fill="#7a3a26"/>
                  <path id="Trazado_168249" data-name="Trazado 168249" d="M530.937,69.594a2.437,2.437,0,0,0-.649.511c-.143.158.084.4.228.243a2.166,2.166,0,0,1,.579-.46.167.167,0,0,0-.158-.294" transform="translate(-526.811 -58.977)" fill="#7a3a26"/>
                  <path id="Trazado_168250" data-name="Trazado 168250" d="M528.264,63.443a2.845,2.845,0,0,0-.8.742c-.127.173.156.35.283.178a2.419,2.419,0,0,1,.678-.625c.181-.112.025-.408-.158-.294" transform="translate(-525.039 -55.1)" fill="#7a3a26"/>
                  <path id="Trazado_168251" data-name="Trazado 168251" d="M528.714,53.768a2.319,2.319,0,0,0-1.394.5c-.17.131.059.374.228.244A1.932,1.932,0,0,1,528.7,54.1c.214,0,.23-.338.015-.333" transform="translate(-524.933 -49.021)" fill="#7a3a26"/>
                  <path id="Trazado_168252" data-name="Trazado 168252" d="M528.345,57.058a4.381,4.381,0,0,0-.8.408c-.179.115-.023.411.158.294a4.36,4.36,0,0,1,.8-.408c.2-.077.04-.371-.158-.294" transform="translate(-525.061 -51.085)" fill="#7a3a26"/>
                  <path id="Trazado_168253" data-name="Trazado 168253" d="M535.345,57.616a5.885,5.885,0,0,0-1.046-.158.167.167,0,0,0-.015.333,5.408,5.408,0,0,1,.961.143c.208.051.309-.267.1-.318" transform="translate(-529.261 -51.345)" fill="#7a3a26"/>
                  <path id="Trazado_168254" data-name="Trazado 168254" d="M533.929,61.465a1.942,1.942,0,0,1-.794-.1c-.2-.07-.3.248-.1.318a2.171,2.171,0,0,0,.879.114c.212-.016.229-.35.015-.333" transform="translate(-528.5 -53.801)" fill="#7a3a26"/>
                  <path id="Trazado_168255" data-name="Trazado 168255" d="M534.455,66.417a1.739,1.739,0,0,1-.824.132.167.167,0,0,0-.015.333,2.109,2.109,0,0,0,1-.171c.2-.084.038-.378-.158-.294" transform="translate(-528.84 -56.98)" fill="#7a3a26"/>
                  <path id="Trazado_168256" data-name="Trazado 168256" d="M535.954,70.367a2.349,2.349,0,0,1-.713.241c-.212.036-.137.361.074.326a2.647,2.647,0,0,0,.8-.272.167.167,0,0,0-.158-.294" transform="translate(-529.881 -59.465)" fill="#7a3a26"/>
                  <path id="Trazado_168257" data-name="Trazado 168257" d="M538.893,64.735a1.807,1.807,0,0,1-.932.008c-.208-.054-.309.265-.1.318a2.158,2.158,0,0,0,1.107,0c.207-.056.134-.381-.074-.326" transform="translate(-531.538 -55.926)" fill="#7a3a26"/>
                  <path id="Trazado_168258" data-name="Trazado 168258" d="M528.1,82.548a1.629,1.629,0,0,1-.3-.61c-.054-.208-.38-.134-.326.074a2.067,2.067,0,0,0,.384.765c.134.168.377-.061.244-.228" transform="translate(-525.064 -66.689)" fill="#7a3a26"/>
                  <path id="Trazado_168259" data-name="Trazado 168259" d="M530.275,85.256c-.087-.2-.381-.038-.294.158l.259.583c.087.2.381.038.294-.158l-.259-.583" transform="translate(-526.637 -68.801)" fill="#7a3a26"/>
                  <path id="Trazado_168260" data-name="Trazado 168260" d="M542.977,65.889q-.313.251-.649.469c-.178.116-.023.412.158.294q.372-.242.719-.52c.167-.134-.061-.378-.228-.244" transform="translate(-534.376 -56.632)" fill="#7a3a26"/>
                  <path id="Trazado_168261" data-name="Trazado 168261" d="M540.9,60.337a3.777,3.777,0,0,0-1.124.339c-.193.093-.036.387.158.294a3.467,3.467,0,0,1,1.04-.308c.213-.029.138-.355-.074-.326" transform="translate(-532.762 -53.158)" fill="#7a3a26"/>
                  <path id="Trazado_168262" data-name="Trazado 168262" d="M540.86,57.338a2.82,2.82,0,0,0-.826.349c-.181.114-.024.409.158.294a2.512,2.512,0,0,1,.742-.318.167.167,0,0,0-.074-.326" transform="translate(-532.929 -51.266)" fill="#7a3a26"/>
                  <path id="Trazado_168263" data-name="Trazado 168263" d="M537.1,52.984a2.29,2.29,0,0,0-.436.305c-.16.143.068.387.228.244a1.9,1.9,0,0,1,.365-.255.167.167,0,0,0-.158-.294" transform="translate(-530.823 -48.514)" fill="#7a3a26"/>
                  <path id="Trazado_168264" data-name="Trazado 168264" d="M536.5,49.757a1.361,1.361,0,0,0-.918.484c-.136.162.09.409.228.243a1.092,1.092,0,0,1,.764-.4c.213-.02.137-.346-.074-.326" transform="translate(-530.147 -46.494)" fill="#7a3a26"/>
                  <path id="Trazado_168265" data-name="Trazado 168265" d="M542.444,45.05a2.218,2.218,0,0,0-.82.8c-.109.185.173.363.282.178a1.878,1.878,0,0,1,.7-.688c.186-.106.029-.4-.158-.294" transform="translate(-533.966 -43.515)" fill="#7a3a26"/>
                  <path id="Trazado_168266" data-name="Trazado 168266" d="M548.554,40.946a1.644,1.644,0,0,0-1.428.623c-.135.167.148.343.283.178a1.3,1.3,0,0,1,1.13-.468c.215.018.229-.316.015-.333" transform="translate(-537.425 -40.94)" fill="#7a3a26"/>
                  <path id="Trazado_168267" data-name="Trazado 168267" d="M549.081,44.5a1.546,1.546,0,0,0-.807.235c-.181.114-.025.409.158.294a1.211,1.211,0,0,1,.634-.2c.214,0,.23-.337.016-.333" transform="translate(-538.12 -43.18)" fill="#7a3a26"/>
                  <path id="Trazado_168268" data-name="Trazado 168268" d="M545.048,49.26l-.716.256c-.2.071-.128.4.074.325l.716-.256c.2-.071.128-.4-.074-.326" transform="translate(-535.613 -46.175)" fill="#7a3a26"/>
                  <path id="Trazado_168269" data-name="Trazado 168269" d="M542.6,52.931a1.21,1.21,0,0,1-.669-.22c-.177-.122-.354.16-.178.283a1.525,1.525,0,0,0,.832.271.167.167,0,0,0,.015-.333" transform="translate(-534.015 -48.336)" fill="#7a3a26"/>
                  <path id="Trazado_168270" data-name="Trazado 168270" d="M547.213,57.925a1.305,1.305,0,0,1-1.116-.162c-.18-.118-.358.165-.178.282a1.635,1.635,0,0,0,1.368.205c.2-.061.132-.387-.074-.326" transform="translate(-536.64 -51.52)" fill="#7a3a26"/>
                  <path id="Trazado_168271" data-name="Trazado 168271" d="M547.125,61.987a2.043,2.043,0,0,1-1.026.02c-.208-.05-.31.268-.1.318a2.4,2.4,0,0,0,1.2-.012c.207-.056.134-.382-.074-.326" transform="translate(-536.665 -54.195)" fill="#7a3a26"/>
                  <path id="Trazado_168272" data-name="Trazado 168272" d="M549.8,65.756a1.215,1.215,0,0,1-1.035-.115.167.167,0,0,0-.178.283,1.543,1.543,0,0,0,1.286.158c.2-.066.131-.392-.074-.326" transform="translate(-538.32 -56.484)" fill="#7a3a26"/>
                  <path id="Trazado_168273" data-name="Trazado 168273" d="M554.237,66.229a2.811,2.811,0,0,1-1.168.481c-.212.036-.137.361.074.325a3.034,3.034,0,0,0,1.252-.512c.173-.122.018-.418-.158-.294" transform="translate(-541.112 -56.852)" fill="#7a3a26"/>
                  <path id="Trazado_168274" data-name="Trazado 168274" d="M553.583,61.669a2.4,2.4,0,0,1-.817.513c-.2.073-.127.4.074.326a2.815,2.815,0,0,0,.971-.6.167.167,0,0,0-.228-.244" transform="translate(-540.927 -53.97)" fill="#7a3a26"/>
                  <path id="Trazado_168275" data-name="Trazado 168275" d="M552.962,58.173a3.556,3.556,0,0,1-.749.463c-.195.09-.037.384.158.295a3.935,3.935,0,0,0,.819-.513c.167-.135-.061-.379-.228-.244" transform="translate(-540.597 -51.772)" fill="#7a3a26"/>
                  <path id="Trazado_168276" data-name="Trazado 168276" d="M547.7,54.243l-.638.215c-.2.068-.129.394.074.326l.638-.215c.2-.068.13-.394-.074-.326" transform="translate(-537.332 -49.314)" fill="#7a3a26"/>
                  <path id="Trazado_168277" data-name="Trazado 168277" d="M549.818,49.47a3.308,3.308,0,0,0-.9.387c-.181.113-.025.408.158.294a2.983,2.983,0,0,1,.814-.356c.207-.056.134-.382-.074-.326" transform="translate(-538.527 -46.31)" fill="#7a3a26"/>
                  <path id="Trazado_168278" data-name="Trazado 168278" d="M553.236,53.482l-1.011.255a.167.167,0,0,0,.074.325l1.011-.254a.167.167,0,0,0-.074-.326" transform="translate(-540.582 -48.838)" fill="#7a3a26"/>
                  <path id="Trazado_168279" data-name="Trazado 168279" d="M554.784,44.816a2.769,2.769,0,0,0-1,.154c-.2.07-.129.4.074.326a2.513,2.513,0,0,1,.908-.147.167.167,0,0,0,.015-.333" transform="translate(-541.568 -43.381)" fill="#7a3a26"/>
                  <path id="Trazado_168280" data-name="Trazado 168280" d="M558.947,42.523a1.235,1.235,0,0,0-1.154-.485c-.213.025-.137.35.074.326a.908.908,0,0,1,.836.387c.126.173.369-.056.244-.228" transform="translate(-544.087 -41.626)" fill="#7a3a26"/>
                  <path id="Trazado_168281" data-name="Trazado 168281" d="M559.621,48.45a.99.99,0,0,1-.9-.115c-.179-.119-.357.164-.178.282a1.338,1.338,0,0,0,1.237.127c.2-.075.041-.369-.158-.294" transform="translate(-544.592 -45.58)" fill="#7a3a26"/>
                  <path id="Trazado_168282" data-name="Trazado 168282" d="M555.235,50.4l-.825-.241a.167.167,0,0,0-.1.318l.825.241a.167.167,0,0,0,.1-.318" transform="translate(-541.902 -46.745)" fill="#7a3a26"/>
                  <path id="Trazado_168283" data-name="Trazado 168283" d="M559.481,55.21l-.932.036c-.214.008-.23.342-.015.333l.932-.036c.214-.008.23-.342.015-.333" transform="translate(-544.538 -49.929)" fill="#7a3a26"/>
                  <path id="Trazado_168284" data-name="Trazado 168284" d="M558.255,60.157a1.385,1.385,0,0,1-1.085.288c-.213-.03-.226.3-.015.333a1.715,1.715,0,0,0,1.328-.378c.167-.135-.061-.378-.228-.244" transform="translate(-543.67 -53.021)" fill="#7a3a26"/>
                  <path id="Trazado_168285" data-name="Trazado 168285" d="M560.6,62.72a2.145,2.145,0,0,1-.912.494c-.208.054-.134.38.074.325a2.512,2.512,0,0,0,1.066-.575c.159-.144-.069-.389-.228-.244" transform="translate(-545.284 -54.632)" fill="#7a3a26"/>
                  <path id="Trazado_168286" data-name="Trazado 168286" d="M564.023,57.52a1.711,1.711,0,0,1-.716.231c-.214.021-.137.346.074.325a1.939,1.939,0,0,0,.8-.262c.184-.109.028-.4-.158-.294" transform="translate(-547.561 -51.37)" fill="#7a3a26"/>
                  <path id="Trazado_168287" data-name="Trazado 168287" d="M562.751,51.7a7.216,7.216,0,0,1-1.335-.251c-.207-.06-.307.259-.1.318a7.653,7.653,0,0,0,1.42.266c.214.02.229-.314.015-.333" transform="translate(-546.315 -47.555)" fill="#7a3a26"/>
                  <path id="Trazado_168288" data-name="Trazado 168288" d="M565.729,47.867a2.053,2.053,0,0,0-1.077-.276c-.214.005-.23.339-.015.333a1.731,1.731,0,0,1,.914.225c.187.106.365-.176.178-.282" transform="translate(-548.382 -45.129)" fill="#7a3a26"/>
                  <path id="Trazado_168289" data-name="Trazado 168289" d="M567.018,44.979a2.238,2.238,0,0,0-.954-.447c-.209-.043-.311.275-.1.318a2.03,2.03,0,0,1,.877.411c.167.135.343-.149.178-.282" transform="translate(-549.242 -43.2)" fill="#7a3a26"/>
                  <path id="Trazado_168290" data-name="Trazado 168290" d="M568.173,58.728l-.584-1.019c-.107-.186-.4-.029-.294.158l.584,1.02c.107.186.4.029.294-.158" transform="translate(-550.138 -51.451)" fill="#7a3a26"/>
                  <path id="Trazado_168291" data-name="Trazado 168291" d="M568.933,53.951a4.571,4.571,0,0,0-1.184-.584.167.167,0,0,0-.1.318,4.259,4.259,0,0,1,1.106.548c.178.122.355-.161.178-.282" transform="translate(-550.305 -48.763)" fill="#7a3a26"/>
                  <path id="Trazado_168292" data-name="Trazado 168292" d="M570.687,50.827a2.5,2.5,0,0,0-.716-.384c-.2-.07-.3.248-.1.318a2.227,2.227,0,0,1,.638.348c.17.132.347-.152.178-.282" transform="translate(-551.706 -46.92)" fill="#7a3a26"/>
                  <path id="Trazado_168293" data-name="Trazado 168293" d="M571.567,47.3a.976.976,0,0,0-.413-.222c-.208-.051-.309.268-.1.318a.624.624,0,0,1,.269.132.172.172,0,0,0,.236.008.169.169,0,0,0,.008-.236" transform="translate(-552.449 -44.8)" fill="#7a3a26"/>
                  <path id="Trazado_168294" data-name="Trazado 168294" d="M565.119,55l-.516-.019a.167.167,0,0,0-.015.334l.516.018a.167.167,0,0,0,.015-.333" transform="translate(-548.351 -49.786)" fill="#7a3a26"/>
                  <path id="Trazado_168295" data-name="Trazado 168295" d="M575.2,53.405a1.854,1.854,0,0,0-.765-.609c-.2-.087-.294.232-.1.318a1.542,1.542,0,0,1,.621.518c.125.174.368-.056.244-.228" transform="translate(-554.521 -48.4)" fill="#7a3a26"/>
                  <path id="Trazado_168296" data-name="Trazado 168296" d="M573.656,58.547a3.472,3.472,0,0,0-.755-1.076c-.154-.149-.4.078-.244.228a3.22,3.22,0,0,1,.7,1.006c.088.2.382.037.294-.158" transform="translate(-553.5 -51.323)" fill="#7a3a26"/>
                  <path id="Trazado_168297" data-name="Trazado 168297" d="M571.654,63.31a2.3,2.3,0,0,1-.708-1.123c-.057-.206-.383-.134-.326.074a2.62,2.62,0,0,0,.79,1.277c.159.141.4-.085.244-.228" transform="translate(-552.244 -54.248)" fill="#7a3a26"/>
                  <path id="Trazado_168298" data-name="Trazado 168298" d="M574.99,63.4l-.551-.73c-.129-.171-.372.058-.244.228l.551.73c.129.171.372-.058.244-.228" transform="translate(-554.477 -54.591)" fill="#7a3a26"/>
                  <path id="Trazado_168299" data-name="Trazado 168299" d="M577.4,57.186c-.163-.135-.409.091-.244.228a2.08,2.08,0,0,1,.762,1.449c.02.213.345.137.325-.074a2.349,2.349,0,0,0-.843-1.6" transform="translate(-556.332 -51.148)" fill="#7a3a26"/>
                  <path id="Trazado_168300" data-name="Trazado 168300" d="M577.677,63.206c-.143-.16-.387.068-.244.228a2.06,2.06,0,0,1,.48.921.167.167,0,0,0,.326-.074,2.426,2.426,0,0,0-.561-1.075" transform="translate(-556.513 -54.933)" fill="#7a3a26"/>
                  <path id="Trazado_168301" data-name="Trazado 168301" d="M575.557,67.465c-.209-.046-.31.272-.1.318a.846.846,0,0,1,.659.642.167.167,0,0,0,.326-.074,1.174,1.174,0,0,0-.884-.887" transform="translate(-555.222 -57.647)" fill="#7a3a26"/>
                  <path id="Trazado_168302" data-name="Trazado 168302" d="M580.885,67.675c-.056-.207-.381-.134-.326.074a3.088,3.088,0,0,1,.11.828c0,.215.332.23.333.015a3.443,3.443,0,0,0-.117-.917" transform="translate(-558.505 -57.704)" fill="#7a3a26"/>
                  <path id="Trazado_168303" data-name="Trazado 168303" d="M577.8,73.345a3.324,3.324,0,0,1,.061.666c0,.215.332.23.334.015a3.83,3.83,0,0,0-.07-.755c-.041-.211-.367-.137-.326.074" transform="translate(-556.77 -61.228)" fill="#7a3a26"/>
                  <path id="Trazado_168304" data-name="Trazado 168304" d="M581.53,72.568c-.111-.182-.407-.026-.294.158a1.125,1.125,0,0,1,.158.817c-.041.209.277.311.318.1a1.469,1.469,0,0,0-.182-1.075" transform="translate(-558.92 -60.813)" fill="#7a3a26"/>
                  <path id="Trazado_168305" data-name="Trazado 168305" d="M580.051,75.105a4.089,4.089,0,0,1-.008.77c-.022.214.312.228.334.015a4.11,4.11,0,0,0,.007-.77c-.018-.211-.351-.229-.333-.015" transform="translate(-558.183 -62.367)" fill="#7a3a26"/>
                  <path id="Trazado_168306" data-name="Trazado 168306" d="M576.6,76.918a1.5,1.5,0,0,0,.082.713.173.173,0,0,0,.2.126.168.168,0,0,0,.126-.2,1.287,1.287,0,0,1-.074-.624c.027-.214-.307-.227-.333-.015" transform="translate(-556.009 -63.509)" fill="#7a3a26"/>
                  <path id="Trazado_168307" data-name="Trazado 168307" d="M527.9,60.139a4.174,4.174,0,0,0-.635.578c-.142.159.085.4.228.244a4.163,4.163,0,0,1,.635-.578c.172-.128-.057-.37-.228-.244" transform="translate(-524.908 -53.012)" fill="#7a3a26"/>
                </g>
              </g>
            </g>
            <path id="Trazado_168308" data-name="Trazado 168308" d="M576.842,79.834a.988.988,0,0,1,.958.057,1.314,1.314,0,0,1,.4.587,4.773,4.773,0,0,1,.352,1.633,2.52,2.52,0,0,1-.1.88,2.4,2.4,0,0,1-.312.6,4,4,0,0,1-2.189,1.57,24.38,24.38,0,0,1-.108-3.234c.087-.858.1-1.706,1-2.095" transform="translate(-362.752 -50.232)" fill="#ffa78b"/>
            <path id="Trazado_168309" data-name="Trazado 168309" d="M576.23,85.939a.167.167,0,0,1-.167-.157,3.212,3.212,0,0,1,1.644-3.128.167.167,0,1,1,.087.322,2.905,2.905,0,0,0-1.4,2.785.167.167,0,0,1-.157.177h-.01" transform="translate(-362.891 -52.065)" fill="#ff7559"/>
            <path id="Trazado_168310" data-name="Trazado 168310" d="M578.083,86.753a.165.165,0,0,1-.134-.068.587.587,0,0,0-.422-.234.581.581,0,0,0-.453.168.167.167,0,0,1-.236-.236.911.911,0,0,1,1.379.105.167.167,0,0,1-.134.266" transform="translate(-363.353 -54.249)" fill="#ff7559"/>
            <path id="Trazado_168311" data-name="Trazado 168311" d="M526.131,143.792a101.169,101.169,0,0,0-16.691-10.051c-13.574,11.015-20.672,1.75-20.672,1.75-14.818,5.5-19.274,11.8-20.394,15.232-4.668,14.29-8.717,21.481-8.717,21.481s-.76,9.814,9,8.118c6.759-1.38,6.472-12.286,6.472-12.286,1,4.005,3.449,45.31,3.449,45.31s28.673,3.721,45.764-1.958c-.257-2.057-5.379-38.054-4.606-45,.3-2.662,15.913-15.474,6.391-22.595" transform="translate(-289.556 -84.251)" fill="#45708e"/>
            <g id="Grupo_171240" data-name="Grupo 171240" transform="translate(187.949 98.123)" style="mix-blend-mode: multiply;isolation: isolate">
              <g id="Grupo_171239" data-name="Grupo 171239">
                <g id="Grupo_171238" data-name="Grupo 171238" clip-path="url(#clip-path-9)">
                  <g id="Grupo_171237" data-name="Grupo 171237">
                    <g id="Grupo_171236" data-name="Grupo 171236" clip-path="url(#clip-path-10)">
                      <rect id="Rectángulo_43472" data-name="Rectángulo 43472" width="57.749" height="52.93" transform="translate(-14.617 8.006) rotate(-28.71)" fill="url(#linear-gradient)"/>
                    </g>
                  </g>
                </g>
              </g>
            </g>
            <g id="Grupo_171245" data-name="Grupo 171245" transform="translate(223.212 78.471)" style="mix-blend-mode: multiply;isolation: isolate">
              <g id="Grupo_171244" data-name="Grupo 171244">
                <g id="Grupo_171243" data-name="Grupo 171243" clip-path="url(#clip-path-11)">
                  <g id="Grupo_171242" data-name="Grupo 171242" transform="translate(0)">
                    <g id="Grupo_171241" data-name="Grupo 171241" clip-path="url(#clip-path-12)">
                      <rect id="Rectángulo_43474" data-name="Rectángulo 43474" width="1.052" height="1.66" transform="matrix(0.999, -0.048, 0.048, 0.999, -0.287, 0.004)" fill="url(#linear-gradient-2)"/>
                    </g>
                  </g>
                </g>
              </g>
            </g>
            <path id="Trazado_168314" data-name="Trazado 168314" d="M493.059,201.581a.31.31,0,0,1-.31-.31c0-12.819-6.072-28.007-6.133-28.159a.311.311,0,1,1,.576-.233c.062.153,6.178,15.45,6.178,28.391a.31.31,0,0,1-.31.31" transform="translate(-306.533 -108.784)" fill="#8aa4b9"/>
            <path id="Trazado_168315" data-name="Trazado 168315" d="M545.553,224.748h-.01a.311.311,0,0,1-.3-.32c1.256-38.488,5.127-76.1,5.166-76.475a.311.311,0,0,1,.618.064c-.039.375-3.908,37.965-5.163,76.431a.311.311,0,0,1-.31.3" transform="translate(-343.479 -93.028)" fill="#8aa4b9"/>
            <path id="Trazado_168316" data-name="Trazado 168316" d="M553.045,144.8l-3.2-2.179-.908,2.768Z" transform="translate(-345.808 -89.848)" fill="#45708e"/>
            <path id="Trazado_168317" data-name="Trazado 168317" d="M560.037,145.625l3.02-1.7v3.713Z" transform="translate(-352.8 -90.669)" fill="#45708e"/>
            <path id="Trazado_168318" data-name="Trazado 168318" d="M551.633,143.4a20.945,20.945,0,0,0,1.628,5.244c.165.041,2.221.1,2.221.1a20.41,20.41,0,0,0,1.841-4.689l-2.845.186c-.041-.063-1.814-.407-2.845-.837" transform="translate(-347.506 -90.337)" fill="#373b45"/>
            <path id="Trazado_168319" data-name="Trazado 168319" d="M545.778,134.665l-2.785-.552-1.511,4.138-3.66-6.1,2.546-3.941.645.577a30.624,30.624,0,0,1,3.83,4.446Z" transform="translate(-338.805 -80.764)" fill="#8aa4b9"/>
            <path id="Trazado_168320" data-name="Trazado 168320" d="M559.322,133.547s4.29-5.869,8.787-7.117c.039.048,5.106,3.173,5.106,3.173l-10.584,8.447-.463-4.689Z" transform="translate(-352.35 -79.646)" fill="#8aa4b9"/>
            <path id="Trazado_168321" data-name="Trazado 168321" d="M549.331,156.9s-5.226,26.286-3.716,45.6c.181,0,5.27,2.24,5.27,2.24l-.106-3.122s1.572-43.573.621-44.717Z" transform="translate(-343.542 -98.839)" fill="#373b45"/>
            <path id="Trazado_168322" data-name="Trazado 168322" d="M511.3,354.412s25.829,3.686,46.289-3.327l-.64-3.93s-27.334,4.281-45.813,2.581Z" transform="translate(-321.997 -218.693)" fill="#292c34"/>
            <path id="Trazado_168323" data-name="Trazado 168323" d="M422.157,567.819l-1.324,6.35,10.426,2.192,1.385-2.192-.971-7.291Z" transform="translate(-265.107 -357.109)" fill="#fff"/>
            <path id="Trazado_168324" data-name="Trazado 168324" d="M402.6,577.607s2.5,6.328,1.387,11.026c-1.529,0-30.333-.671-30.333-.671v-.548a1.542,1.542,0,0,1,.974-1.45c3.046-1.163,12.4-4.83,15.858-7.3.37-.192,5.734,3.356,12.115-1.055" transform="translate(-235.383 -363.868)" fill="#da9a68"/>
            <path id="Trazado_168325" data-name="Trazado 168325" d="M411.316,588.306a.171.171,0,0,1-.125-.056,12.142,12.142,0,0,0-3.226-1.8.169.169,0,0,1,.123-.314,12.163,12.163,0,0,1,3.354,1.887.169.169,0,0,1-.125.281" transform="translate(-256.933 -369.234)" fill="#373b45"/>
            <path id="Trazado_168326" data-name="Trazado 168326" d="M404.8,591.433a.168.168,0,0,1-.121-.052,17.971,17.971,0,0,0-3.216-1.877.169.169,0,0,1,.144-.305,17.7,17.7,0,0,1,3.315,1.949.169.169,0,0,1-.121.285" transform="translate(-252.842 -371.161)" fill="#373b45"/>
            <path id="Trazado_168327" data-name="Trazado 168327" d="M398.886,594.088a.168.168,0,0,1-.135-.067,7.18,7.18,0,0,0-3.04-1.926H395.7a.157.157,0,0,1-.21-.091.178.178,0,0,1,.1-.225c.388-.167,2.67,1.029,3.427,2.04a.169.169,0,0,1-.135.27" transform="translate(-249.137 -372.786)" fill="#373b45"/>
            <path id="Trazado_168328" data-name="Trazado 168328" d="M423.127,583.2a10.337,10.337,0,0,1-6.232-2.149l-.056-.044a.168.168,0,0,1-.013-.292c.1-.066.18-.006.277.07,1.4,1.09,6.462,4.282,12.954-.416a.168.168,0,1,1,.2.273,12.056,12.056,0,0,1-7.127,2.558" transform="translate(-262.533 -365.59)" fill="#373b45"/>
            <path id="Trazado_168329" data-name="Trazado 168329" d="M403.942,607.721H373.649v-2.13l30.333.671Z" transform="translate(-235.383 -381.497)" fill="#373b45"/>
            <path id="Trazado_168330" data-name="Trazado 168330" d="M469.119,339.272c-6.781,0-28.24-.982-29.614-.552-9.737,3.052-20.152,7.872-27.4,10.781-5.613,2.255-11.2,4.538-13.854,10.653-2.26,5.2,2.083,25.466,3.161,31.448,1.713,9.507,3.446,22.52,4.789,32.426.161,1.19,7.339,1.353,10.839-.949.851-.559,1.242-6.128,1.344-7.1a346.561,346.561,0,0,0,1.646-41.886,2.58,2.58,0,0,1,2.4-2.435c23.928-3.27,39.192-5.76,39.812-5.917,0,0,6.452-24.862,6.873-26.473" transform="translate(-250.478 -213.311)" fill="#1f2127"/>
            <path id="Trazado_168331" data-name="Trazado 168331" d="M518.256,572.028l-.967,6.419,10.531,1.562,1.26-2.272-1.377-7.221Z" transform="translate(-325.871 -359.402)" fill="#fff"/>
            <path id="Trazado_168332" data-name="Trazado 168332" d="M499.509,581.123s2.846,6.167,2,10.925c-1.526.092-30.32,1.152-30.32,1.152l-.031-.547a1.55,1.55,0,0,1,.891-1.506c2.976-1.344,12.105-5.566,15.423-8.242.359-.214,5.912,3.006,12.036-1.781" transform="translate(-296.809 -366.083)" fill="#da9a68"/>
            <path id="Trazado_168333" data-name="Trazado 168333" d="M507.891,594.223a.168.168,0,0,1-.118-.049,12.129,12.129,0,0,0-3.321-1.6.168.168,0,1,1,.1-.32,12.1,12.1,0,0,1,3.454,1.683.168.168,0,0,1-.118.288" transform="translate(-317.71 -373.089)" fill="#373b45"/>
            <path id="Trazado_168334" data-name="Trazado 168334" d="M501.558,597.737a.168.168,0,0,1-.114-.045,17.921,17.921,0,0,0-3.315-1.681.168.168,0,1,1,.125-.313,17.578,17.578,0,0,1,3.419,1.747.168.168,0,0,1-.114.292" transform="translate(-313.734 -375.257)" fill="#373b45"/>
            <path id="Trazado_168335" data-name="Trazado 168335" d="M495.806,600.737a.168.168,0,0,1-.129-.06,7.055,7.055,0,0,0-3.149-1.739.158.158,0,0,1-.215-.078.178.178,0,0,1,.086-.231c.376-.188,2.722.867,3.536,1.831a.169.169,0,0,1-.02.238.171.171,0,0,1-.109.04" transform="translate(-310.126 -377.097)" fill="#373b45"/>
            <path id="Trazado_168336" data-name="Trazado 168336" d="M518.849,587.082a10.345,10.345,0,0,1-5.749-1.789l-.059-.04a.165.165,0,0,1-.069-.055.169.169,0,0,1,.038-.235c.1-.072.18-.016.281.054,1.457,1,6.692,3.887,12.909-1.193a.168.168,0,1,1,.213.261,11.838,11.838,0,0,1-7.564,3" transform="translate(-323.131 -367.759)" fill="#373b45"/>
            <path id="Trazado_168337" data-name="Trazado 168337" d="M501.608,612.1l-30.243,1.819-.119-2.126,30.32-1.152Z" transform="translate(-296.866 -384.681)" fill="#373b45"/>
            <path id="Trazado_168338" data-name="Trazado 168338" d="M534.969,333.422c-9.677.783-38.073,3.626-48.265,9.9-5.176,3.187-10.479,9.621-10.188,16.7.235,5.7,4.655,25.1,6.334,30.929,2.668,9.267,5.712,22.02,8.052,31.724.281,1.166,7.435.545,10.683-2.126.789-.649.613-6.23.616-7.2a346.565,346.565,0,0,0-2.613-41.834,2.6,2.6,0,0,1,2.141-2.684c7.258-1.813,13.049-3.38,17.6-4.685a23.431,23.431,0,0,0,16.631-20.75c.245-2.939-.537-10.011-1-9.975" transform="translate(-300.178 -210.042)" fill="#292c34"/>
            <path id="Trazado_168339" data-name="Trazado 168339" d="M569.357,284.579s28.379-6.092,25.039-59.832c.025-.5.018-10.064.01-17.136a3.8,3.8,0,0,1,.227-1.273c1.522-4.311,7.878-3.57,8.551.952,3.168,21.3,8.549,82.357-33.91,82.357-.368,0,.083-5.067.083-5.067" transform="translate(-358.528 -128.178)" fill="#da9a68"/>
            <path id="Trazado_168340" data-name="Trazado 168340" d="M515.562,289.682a40.844,40.844,0,0,1,9.1-3.764c-.03.065,1.272,3.817,2.123,6.251a1.169,1.169,0,0,1-1.246,1.543,15.029,15.029,0,0,0-8.549,1.936c-.146-.575-1.431-5.967-1.431-5.967" transform="translate(-324.782 -180.116)" fill="#ffa78b"/>
            <path id="Trazado_168341" data-name="Trazado 168341" d="M501.5,299.323a19.436,19.436,0,0,1-10.081,3.383,7.15,7.15,0,0,1-3.21-3.418,7.3,7.3,0,0,1-.318-4.728,12.718,12.718,0,0,1,5.746-1.192c1.974-.023,3.948.172,5.921.1.992-.037,1.755,1,2.308,1.82.7,1.047-.371,2.776-.366,4.037" transform="translate(-307.196 -184.809)" fill="#ffa78b"/>
            <path id="Trazado_168342" data-name="Trazado 168342" d="M474.166,303.944a29.138,29.138,0,0,0-7.516,2.808,2.272,2.272,0,0,0-.753.561.82.82,0,0,0-.117.884,1.134,1.134,0,0,0,.736.437c-.263.533.458,1.419,2.364.9,2-.549,4.141-1.072,6.109-1.724a3.714,3.714,0,0,0,.914-.4,1.916,1.916,0,0,0,.7-2.221,2.488,2.488,0,0,0-2.436-1.244" transform="translate(-293.37 -191.452)" fill="#ffa78b"/>
            <path id="Trazado_168343" data-name="Trazado 168343" d="M479.919,316.716a7.7,7.7,0,0,0-.835.5.436.436,0,0,0-.184.206c-.058.188.14.357.326.423a2.605,2.605,0,0,0,1.252.03,21.268,21.268,0,0,0,5.758-1.723c.249-.115.541-.334.453-.594-.28-.825-2.214-.685-2.853-.493a21.7,21.7,0,0,0-3.918,1.652" transform="translate(-301.681 -198.385)" fill="#ffa78b"/>
            <path id="Trazado_168344" data-name="Trazado 168344" d="M469.333,298.131a2.43,2.43,0,0,1-1.217.211c-.409-.078-.784-.5-.645-.891a.987.987,0,0,1,.375-.429,8.8,8.8,0,0,1,2.4-1.165,39.938,39.938,0,0,1,7.45-1.638c.469-.04.413.381.792.66.606.445-.557,1.422-1.087,1.955-1.007,1.012-2.308.484-3.536.5a14.794,14.794,0,0,0-4.531.792" transform="translate(-294.469 -185.344)" fill="#ffa78b"/>
            <path id="Trazado_168345" data-name="Trazado 168345" d="M467.566,311.7a.2.2,0,0,1-.075-.39,82.417,82.417,0,0,1,8.232-2.849.2.2,0,0,1,.088.395,84.164,84.164,0,0,0-8.171,2.83.2.2,0,0,1-.075.014" transform="translate(-294.42 -194.312)" fill="#ff7559"/>
            <path id="Trazado_168346" data-name="Trazado 168346" d="M567.422,160.708c-3.08-1.351-6.772,9.69-7.158,10.877-8.637,26.6-35.076,36.8-35.076,36.8s2.12,6.028,4.338,7.583c24.05-4.714,30.611-10.037,34.328-15.688a28.232,28.232,0,0,0,3.314-7.078c6.411-20.44,5.655-27.82.254-32.49" transform="translate(-330.846 -101.168)" fill="#45708e"/>
            <path id="Trazado_168347" data-name="Trazado 168347" d="M525.374,211.508a.311.311,0,0,1-.117-.6c.215-.088,21.568-8.941,28.44-24.251.682-1.519,1.49-3.832,2.345-6.281,2.4-6.882,5.13-14.682,8.231-15.623a.311.311,0,1,1,.181.594c-2.8.85-5.7,9.163-7.825,15.234-.86,2.462-1.673,4.787-2.365,6.33-6.974,15.539-28.555,24.484-28.772,24.572a.311.311,0,0,1-.117.023" transform="translate(-330.768 -103.78)" fill="#8aa4b9"/>
            <path id="Trazado_168348" data-name="Trazado 168348" d="M526.355,296.809s-2.557-6-3.617-7.882l-2.583,1.088,2.433,7.76Z" transform="translate(-327.676 -182.012)" fill="#8aa4b9"/>
            <path id="Trazado_168349" data-name="Trazado 168349" d="M351.252,263.831l-6.923-26.9a1.217,1.217,0,0,1,1.178-1.52h42.2a1.217,1.217,0,0,1,1.163.86l8.385,27.306Z" transform="translate(-216.889 -148.298)" fill="#fff"/>
            <path id="Trazado_168350" data-name="Trazado 168350" d="M348.33,263.831l-6.923-26.9a1.217,1.217,0,0,1,1.178-1.52h42.2a1.217,1.217,0,0,1,1.163.86l8.385,27.306Z" transform="translate(-215.048 -148.298)" fill="#292c34"/>
            <path id="Trazado_168351" data-name="Trazado 168351" d="M484.877,308.035h15.9a1.228,1.228,0,0,1,1.228,1.228l-18.023.019Z" transform="translate(-304.889 -194.049)" fill="#fff"/>
            <path id="Trazado_168352" data-name="Trazado 168352" d="M623.747,301.446H587.37v3.666l35.21-2.789h1.167Z" transform="translate(-370.019 -189.898)" fill="#1f2127"/>
            <rect id="Rectángulo_43476" data-name="Rectángulo 43476" width="35.21" height="2.789" transform="translate(217.351 112.425)" fill="#fff"/>
            <rect id="Rectángulo_43477" data-name="Rectángulo 43477" width="29.223" height="3.666" transform="translate(206.373 111.548)" fill="#1f2127"/>
            <path id="Trazado_168353" data-name="Trazado 168353" d="M619.763,291.539H587.37v3.666l31.354-2.789h1.039Z" transform="translate(-370.019 -183.658)" fill="#e58c4f"/>
            <rect id="Rectángulo_43478" data-name="Rectángulo 43478" width="31.354" height="2.789" transform="translate(217.351 108.759)" fill="#fff"/>
            <rect id="Rectángulo_43479" data-name="Rectángulo 43479" width="24.535" height="3.666" transform="translate(206.373 107.882)" fill="#e58c4f"/>
            <path id="Trazado_168354" data-name="Trazado 168354" d="M185.915,300.545H225.6v4L187.188,301.5h-1.273Z" transform="translate(-117.119 -189.331)" fill="#1f2127"/>
            <rect id="Rectángulo_43480" data-name="Rectángulo 43480" width="38.413" height="3.042" transform="translate(70.069 112.171)" fill="#fff"/>
            <rect id="Rectángulo_43481" data-name="Rectángulo 43481" width="31.882" height="3.999" transform="translate(88.578 111.214)" fill="#1f2127"/>
            <path id="Trazado_168355" data-name="Trazado 168355" d="M197.661,289.737H233v4l-34.206-3.043h-1.133Z" transform="translate(-124.518 -182.522)" fill="#e58c4f"/>
            <rect id="Rectángulo_43482" data-name="Rectángulo 43482" width="34.206" height="3.042" transform="translate(74.276 108.172)" fill="#fff"/>
            <rect id="Rectángulo_43483" data-name="Rectángulo 43483" width="26.768" height="3.999" transform="translate(93.692 107.215)" fill="#e58c4f"/>
            <path id="Trazado_168356" data-name="Trazado 168356" d="M192.326,278h34.016v3.428l-32.926-2.608h-1.091Z" transform="translate(-121.157 -175.126)" fill="#45708e"/>
            <rect id="Rectángulo_43484" data-name="Rectángulo 43484" width="32.926" height="2.608" transform="translate(72.26 103.691)" fill="#fff"/>
            <path id="Trazado_168357" data-name="Trazado 168357" d="M202.394,268.733h30.291v3.428l-29.32-2.608h-.971Z" transform="translate(-127.5 -169.29)" fill="#ff7559"/>
            <rect id="Rectángulo_43485" data-name="Rectángulo 43485" width="29.32" height="2.608" transform="translate(75.866 100.262)" fill="#fff"/>
            <rect id="Rectángulo_43486" data-name="Rectángulo 43486" width="22.944" height="3.428" transform="translate(92.508 99.442)" fill="#ff7559"/>
            <path id="Trazado_168358" data-name="Trazado 168358" d="M209.281,278v3.428H192.326v.868h44.283V278Z" transform="translate(-121.157 -175.126)" fill="#45708e"/>
            <path id="Trazado_168359" data-name="Trazado 168359" d="M263.161,434.6h-31.1a1.126,1.126,0,0,1-1.089-.839L204.094,331.792a1.126,1.126,0,0,1,1.089-1.414h57.978a1.126,1.126,0,0,1,1.126,1.126V433.47a1.126,1.126,0,0,1-1.126,1.126m-30.236-2.253h29.11V332.631h-55.39Z" transform="translate(-128.547 -208.124)" fill="#5c2c1c"/>
            <path id="Trazado_168360" data-name="Trazado 168360" d="M580.715,436.891H551.992a1.126,1.126,0,0,1-1.086-.828L522.184,331.8a1.127,1.127,0,0,1,1.086-1.426h57.445a1.127,1.127,0,0,1,1.126,1.126V435.764a1.127,1.127,0,0,1-1.126,1.126m-27.865-2.253h26.738V332.63h-54.84Z" transform="translate(-328.929 -208.124)" fill="#7a3a26"/>
            <rect id="Rectángulo_43487" data-name="Rectángulo 43487" width="196.3" height="9.194" transform="translate(65.77 115.213)" fill="#7a3a26"/>
            <rect id="Rectángulo_43488" data-name="Rectángulo 43488" width="79.643" height="9.194" transform="translate(182.428 115.213)" fill="#9d4d32"/>
            <path id="Trazado_168361" data-name="Trazado 168361" d="M401.613,270.516a2.86,2.86,0,1,1-2.86-2.86,2.86,2.86,0,0,1,2.86,2.86" transform="translate(-249.396 -168.612)" fill="#1f2127"/>
          </g>
        </g>
      </g>
    </g>
  </g>
</svg>
