<svg xmlns="http://www.w3.org/2000/svg" xmlns:xlink="http://www.w3.org/1999/xlink" width="105" height="105" viewBox="0 0 105 105">
  <defs>
    <clipPath id="clip-path">
      <rect id="Rectángulo_43334" data-name="Rectángulo 43334" width="67.406" height="67.42" transform="translate(0 0)" fill="none"/>
    </clipPath>
  </defs>
  <g id="Grupo_170720" data-name="Grupo 170720" transform="translate(-748.326 -839)">
    <path id="Trazado_160852" data-name="Trazado 160852" d="M52.5,0A52.5,52.5,0,1,1,0,52.5,52.5,52.5,0,0,1,52.5,0Z" transform="translate(748.326 839)" fill="#a6bbff"/>
    <g id="Grupo_170974" data-name="Grupo 170974" transform="translate(766.683 857.356)">
      <g id="Grupo_170974-2" data-name="Grupo 170974" transform="translate(0 0)" clip-path="url(#clip-path)">
        <path id="Trazado_166766" data-name="Trazado 166766" d="M20.893,89.991a1.836,1.836,0,0,1-1.03-1.865q.025-10.8.01-21.59c0-1.331.5-1.824,1.82-1.824h6.45a4.124,4.124,0,0,1,3.431,1.62c.218.279.338.263.613.08a12.689,12.689,0,0,0,5-6.093c.808-2.076,1.785-4.087,2.694-6.123a3.536,3.536,0,0,1,5.734-1.435A7.01,7.01,0,0,1,48.2,60.585c-.34,1.2-.655,2.407-1.031,3.6-.146.46-.053.543.4.54,3.291-.017,6.584.062,9.872-.028a4.229,4.229,0,0,1,4.133,6.01.321.321,0,0,0,.124.48,4.184,4.184,0,0,1-.016,6.725c-.212.152-.2.291-.1.492a4.144,4.144,0,0,1-1.225,5.075.407.407,0,0,0-.158.587,4.113,4.113,0,0,1-3.061,5.823c-.024.006-.036.068-.053.1H36.427a9.563,9.563,0,0,1-4.074-1.513.444.444,0,0,0-.679.086,3.61,3.61,0,0,1-2.751,1.427Z" transform="translate(-8.649 -22.571)"/>
        <path id="Trazado_166767" data-name="Trazado 166767" d="M0,4.485c.238-.116.2-.366.261-.56A5.574,5.574,0,0,1,5.486.021q8.556-.037,17.112,0a5.464,5.464,0,0,1,5.446,5.326q.086,8.688,0,17.376a5.4,5.4,0,0,1-5.35,5.336c-5.769.054-11.539.042-17.308,0A5.481,5.481,0,0,1,.251,24.144C.19,23.949.229,23.7,0,23.576Z" transform="translate(0 0)"/>
        <path id="Trazado_166768" data-name="Trazado 166768" d="M83.644,28.086c-2.83,0-5.661.035-8.49-.01a5.5,5.5,0,0,1-5.388-4.518,7.331,7.331,0,0,1-.1-1.44q-.01-8.063,0-16.126A5.6,5.6,0,0,1,75.622.016q8.063,0,16.125,0a5.629,5.629,0,0,1,5.991,6.015q0,8.064,0,16.126a5.6,5.6,0,0,1-5.933,5.934c-2.721.006-5.441,0-8.161,0Z" transform="translate(-30.333 -0.007)"/>
        <path id="Trazado_166769" data-name="Trazado 166769" d="M47.175,69.589a14.938,14.938,0,0,0,4.4-6.187c.82-2,1.746-3.961,2.63-5.937.407-.911.745-.992,1.54-.384a4.172,4.172,0,0,1,1.575,4.663c-.53,1.9-1.025,3.8-1.657,5.667a1.572,1.572,0,0,0,1.7,2.236c3.947-.069,7.9-.025,11.843-.023.894,0,1.431.309,1.65.928a1.416,1.416,0,0,1-1.451,1.9c-1.623.025-3.246.007-4.869.007-1.074,0-2.149-.01-3.224,0a1.366,1.366,0,0,0-1.522,1.359,1.388,1.388,0,0,0,1.526,1.432c3.159.008,6.317,0,9.476,0a1.415,1.415,0,0,1,1.568,1.1,1.366,1.366,0,0,1-1.419,1.687c-1.733.021-3.465.007-5.2.008-1.47,0-2.939,0-4.409,0a1.432,1.432,0,0,0-1.4.792A1.344,1.344,0,0,0,60,80.222a1.589,1.589,0,0,0,1.488.662q3.882-.009,7.764,0a2.789,2.789,0,0,1,.842.092,1.39,1.39,0,0,1-.491,2.694c-1.426.021-2.851.007-4.277.007-1.316,0-2.633,0-3.949,0a1.409,1.409,0,0,0-1.59,1.369c-.017.88.573,1.421,1.59,1.424,2.193.008,4.387.023,6.58-.007.841-.011,1.722.6,1.591,1.425a1.189,1.189,0,0,1-.873.2c-5.017,0-10.033.02-15.05-.007a8.059,8.059,0,0,1-5.191-1.951,3.822,3.822,0,0,1-1.455-2.98c-.027-4.251-.011-8.5-.01-12.751a1.472,1.472,0,0,1,.2-.817" transform="translate(-20.451 -24.685)" fill="#feddc6"/>
        <path id="Trazado_166770" data-name="Trazado 166770" d="M45.124,79.537c0,4.43.007,8.861,0,13.291a4.042,4.042,0,0,0,1.97,3.554,8.943,8.943,0,0,0,5.145,1.47c5.088-.034,10.176-.012,15.264-.012a1.3,1.3,0,0,1-1.133,1.372,4.436,4.436,0,0,1-.785.042c-5.787,0-11.575-.033-17.362.02a8.777,8.777,0,0,1-5.694-2,.687.687,0,0,1-.269-.619q.007-7.3,0-14.6a.664.664,0,0,1,.272-.619c.871-.624,1.73-1.262,2.594-1.9" transform="translate(-18.401 -34.633)" fill="#f5cbae"/>
        <path id="Trazado_166771" data-name="Trazado 166771" d="M32.749,79.7a1.342,1.342,0,0,1,1.14,1.507q.008,3.382,0,6.764-.007,4.825-.021,9.651c-.357.244-.685.05-.989-.1A5.572,5.572,0,0,1,29.5,92.426c-.088-3.989-.03-7.981-.02-11.972,0-.766.059-.81.837-.8a22.322,22.322,0,0,1,2.428.043" transform="translate(-12.826 -34.68)" fill="#81bbf3"/>
        <path id="Trazado_166772" data-name="Trazado 166772" d="M30.757,79.676c-.832.008-1.664.034-2.495.018-.4-.008-.587.085-.585.541.015,4.1-.04,8.191.027,12.285A5.4,5.4,0,0,0,31.877,97.6a1.427,1.427,0,0,1-1.55,1.676c-1.645.02-3.291-.007-4.936.015-.419.006-.509-.146-.509-.532q.015-9.314.008-18.627c0-.25-.08-.542.357-.539,1.777.013,3.553.007,5.33.013a.558.558,0,0,1,.18.072" transform="translate(-10.834 -34.657)" fill="#6faae5"/>
        <path id="Trazado_166773" data-name="Trazado 166773" d="M27.127,5.081a2.719,2.719,0,0,1,2.347,2.863q.006,8.294,0,16.588a2.389,2.389,0,0,1-.4,1.492,1.559,1.559,0,0,1-.946.211c-4.736,0-9.472.008-14.208,0a4.278,4.278,0,0,1-4.268-4.274c-.027-4.451-.008-8.9-.008-13.354,0-.965-.014-1.93.009-2.894.01-.412.106-.694.639-.692,5.525.015,11.05.008,16.576.009a.531.531,0,0,1,.253.054" transform="translate(-4.199 -2.185)" fill="#f16674"/>
        <path id="Trazado_166774" data-name="Trazado 166774" d="M25.081,5.051,8.705,5.067c-.891,0-.891,0-.891.878,0,5.284.05,10.569-.024,15.851a4.385,4.385,0,0,0,4.184,4.231c5.018-.1,10.04-.032,15.061-.033a2.545,2.545,0,0,1-2.4,1.44q-8.422.026-16.844,0A2.814,2.814,0,0,1,4.951,24.4c-.009-3.773,0-7.545,0-11.318,0-1.689-.007-3.378,0-5.066A2.852,2.852,0,0,1,7.994,4.956c5.505-.014,11.01-.005,16.515,0a.9.9,0,0,1,.572.1" transform="translate(-2.153 -2.155)" fill="#da5669"/>
        <path id="Trazado_166775" data-name="Trazado 166775" d="M96.642,5.075a2.724,2.724,0,0,1,2.421,2.868c.018,2.324.006,4.649.006,6.974q0,4.7,0,9.408a2.889,2.889,0,0,1-.393,1.7,1.458,1.458,0,0,1-.943.213c-4.756,0-9.513.011-14.269-.005a4.275,4.275,0,0,1-4.147-3.392,7.885,7.885,0,0,1-.176-1.7q.005-7.463,0-14.928c0-.11,0-.219,0-.329.026-.8.081-.858.866-.858q8.022,0,16.044,0a1.508,1.508,0,0,1,.585.045" transform="translate(-34.461 -2.188)" fill="#81bbf3"/>
        <path id="Trazado_166776" data-name="Trazado 166776" d="M94.671,5.038c-1.621.008-3.243.022-4.865.024q-5.886.005-11.772-.007c-.451,0-.665.065-.663.6.019,5.327-.012,10.654.024,15.982a4.231,4.231,0,0,0,3.21,4.267,2.83,2.83,0,0,0,.711.088l15.388,0a2.583,2.583,0,0,1-2.4,1.442q-8.456.027-16.912,0a2.756,2.756,0,0,1-2.764-2.77q-.021-8.457,0-16.914A2.734,2.734,0,0,1,76.929,5.03a5.935,5.935,0,0,1,1.046-.078q7.93-.008,15.859,0a1.57,1.57,0,0,1,.837.086" transform="translate(-32.489 -2.15)" fill="#6faae5"/>
        <path id="Trazado_166777" data-name="Trazado 166777" d="M26.14,20.61a5.607,5.607,0,0,1-11.215-.068,5.607,5.607,0,1,1,11.215.068" transform="translate(-6.499 -6.507)"/>
        <path id="Trazado_166778" data-name="Trazado 166778" d="M37.624,11.385a1.41,1.41,0,0,1-2.821,0A1.4,1.4,0,0,1,36.247,10a1.383,1.383,0,0,1,1.376,1.381" transform="translate(-15.154 -4.356)" fill="#010000"/>
        <path id="Trazado_166779" data-name="Trazado 166779" d="M90.189,22.852c0,.833.014,1.667,0,2.5a1.4,1.4,0,1,1-2.787,0c-.014-1.579-.047-3.159.015-4.736.029-.72-.216-.92-.871-.825a2.868,2.868,0,0,1-.656-.008,1.34,1.34,0,0,1-1.28-1.328,1.368,1.368,0,0,1,1.241-1.441A6.471,6.471,0,0,1,86.965,17c.353.026.448-.106.436-.444a7.789,7.789,0,0,1,.257-2.668A5.579,5.579,0,0,1,92.751,10c.569-.02,1.14-.029,1.709,0a1.377,1.377,0,0,1,1.356,1.336,1.4,1.4,0,0,1-1.329,1.44c-.458.031-.921.005-1.381.01a2.821,2.821,0,0,0-2.913,2.835C90.139,17,90.139,17,91.534,17c.439,0,.877-.006,1.316,0a1.388,1.388,0,0,1,1.545,1.413,1.36,1.36,0,0,1-1.5,1.38c-.68.014-1.362.043-2.038-.008-.574-.044-.7.176-.675.7.043.788.011,1.579.011,2.368Z" transform="translate(-36.84 -4.346)"/>
        <path id="Trazado_166780" data-name="Trazado 166780" d="M20.032,22.35a2.729,2.729,0,0,1,2.713-2.437,2.84,2.84,0,0,1,2.815,2.522,2.732,2.732,0,0,1-2.18,2.985,1.623,1.623,0,0,1-1.366-.313,3.656,3.656,0,0,1-1.981-2.757" transform="translate(-8.723 -8.671)" fill="#eceaf1"/>
        <path id="Trazado_166781" data-name="Trazado 166781" d="M19.994,24.23A4.675,4.675,0,0,0,22.521,27.1a2.348,2.348,0,0,0,.82.2,2.71,2.71,0,0,1-3.347-3.07" transform="translate(-8.685 -10.551)" fill="#d7d4e2"/>
      </g>
    </g>
  </g>
</svg>
