<svg xmlns="http://www.w3.org/2000/svg" xmlns:xlink="http://www.w3.org/1999/xlink" width="88" height="88" viewBox="0 0 88 88">
  <defs>
    <clipPath id="clip-path">
      <rect id="Rectángulo_43555" data-name="Rectángulo 43555" width="52.845" height="52.736" fill="none"/>
    </clipPath>
  </defs>
  <g id="Grupo_171334" data-name="Grupo 171334" transform="translate(-861 -907)">
    <circle id="Elipse_4715" data-name="Elipse 4715" cx="44" cy="44" r="44" transform="translate(861 907)" fill="#6b8dfc"/>
    <g id="Grupo_171333" data-name="Grupo 171333" transform="translate(879 925)">
      <g id="Grupo_171332" data-name="Grupo 171332" clip-path="url(#clip-path)">
        <path id="Trazado_169068" data-name="Trazado 169068" d="M52.845,8.724V47.685a5.71,5.71,0,0,1-3.513,4.607,4.524,4.524,0,0,1-1.943.441q-20.92,0-41.84,0A5.872,5.872,0,0,1,.015,46.982C.049,38.445.027,29.908.027,21.37c0-3.951.08-7.9-.025-11.852A6.01,6.01,0,0,1,4.759,3.6a6.492,6.492,0,0,1,1.179-.086c1.048,0,2.1,0,3.143,0,.366,0,.542-.139.529-.515-.01-.274-.008-.55,0-.824a2.181,2.181,0,0,1,1.9-2.159,2.175,2.175,0,0,1,2.642,1.711,4.991,4.991,0,0,1,.092,1.281c0,.341.133.5.486.5q2.035,0,4.07,0c.347,0,.506-.146.493-.495-.008-.205,0-.412,0-.618A2.218,2.218,0,0,1,21.7,0a2.186,2.186,0,0,1,2.223,2.05c.026.326.019.653.019.978,0,.309.113.483.449.484q2.062,0,4.122,0c.319,0,.475-.137.474-.462,0-.292-.008-.584.011-.876A2.206,2.206,0,0,1,31.514.016a2.156,2.156,0,0,1,2.108,2.265c.024,1.338-.169,1.234,1.255,1.237,1.065,0,2.13.006,3.195,0,.539,0,.592-.057.6-.591a4.794,4.794,0,0,1,.147-1.377A2.164,2.164,0,0,1,41.395.019a2.194,2.194,0,0,1,1.9,1.939,7.03,7.03,0,0,1,.019.772c0,.78.007.785.764.786,1.03,0,2.061,0,3.091,0a6.047,6.047,0,0,1,5.481,4c.128.4.084.814.2,1.21" transform="translate(0 0)"/>
        <path id="Trazado_169069" data-name="Trazado 169069" d="M28.353,40.524q12.338,0,24.677-.01c.462,0,.593.1.592.583q-.024,15.148-.013,30.3a4.866,4.866,0,0,1-3.741,5.064,5.46,5.46,0,0,1-1.326.145q-20.247,0-40.493,0a4.832,4.832,0,0,1-5.055-5.006c-.016-10.218,0-20.437-.018-30.656,0-.481.257-.413.545-.413H28.353" transform="translate(-1.838 -25.017)" fill="#fefefe"/>
        <path id="Trazado_169070" data-name="Trazado 169070" d="M28.267,21.976q-12.341,0-24.682.011c-.49,0-.641-.107-.626-.615.047-1.527-.028-3.06.063-4.583a4.767,4.767,0,0,1,4.7-4.5c1.1-.036,2.2-.016,3.3-.006.185,0,.469-.125.54.12a.661.661,0,0,1-.207.781A3.7,3.7,0,0,0,10,15.647a3.766,3.766,0,1,0,7.478.892,3.676,3.676,0,0,0-1.341-3.34.681.681,0,0,1-.2-.782c.069-.259.353-.128.536-.129q2.138-.017,4.276,0c.176,0,.463-.148.52.146a.668.668,0,0,1-.2.742,3.516,3.516,0,0,0-1.345,2.352,3.6,3.6,0,0,0,1.634,3.69,3.526,3.526,0,0,0,3.943.135,3.6,3.6,0,0,0,1.881-3.573,3.653,3.653,0,0,0-1.287-2.551c-.1-.09-.233-.142-.283-.288-.148-.434.014-.662.482-.662,1.46,0,2.92,0,4.38.006.165,0,.431-.128.482.132a.665.665,0,0,1-.176.746,3.609,3.609,0,0,0-1.389,2.655,3.76,3.76,0,1,0,6.361-2.435c-.1-.1-.2-.186-.308-.272-.252-.2-.166-.483-.117-.715s.292-.111.445-.112c1.46-.008,2.92-.011,4.38,0,.172,0,.461-.157.509.163a.692.692,0,0,1-.208.738,3.635,3.635,0,0,0-1.364,3.13,3.758,3.758,0,0,0,7.449.462,3.718,3.718,0,0,0-1.262-3.564c-.137-.125-.285-.215-.3-.446-.02-.357.046-.516.465-.5,1.253.039,2.517-.069,3.758.058a4.805,4.805,0,0,1,4.4,5.016c.018,1.357-.016,2.714.015,4.071.01.448-.1.574-.564.572-4.568-.019-9.137-.011-13.706-.011H28.267" transform="translate(-1.827 -7.566)" fill="#fe4244"/>
        <path id="Trazado_169071" data-name="Trazado 169071" d="M30.413,7.23c0,1.047.005,2.094,0,3.142a1.07,1.07,0,1,1-2.132.184,1.9,1.9,0,0,1-.024-.358c0-1.991-.007-3.983,0-5.974,0-.984.691-1.552,1.473-1.229a1.033,1.033,0,0,1,.686,1.042c-.007,1.065,0,2.129,0,3.193" transform="translate(-17.445 -1.793)" fill="#3b4c53"/>
        <path id="Trazado_169072" data-name="Trazado 169072" d="M104.449,7.225c0-1.03,0-2.059,0-3.089a1.086,1.086,0,1,1,2.154-.009c.018.961,0,1.923,0,2.883,0,1.1.01,2.2,0,3.3a1.123,1.123,0,0,1-.81,1.181,1.078,1.078,0,0,1-1.347-1.121c0-1.047,0-2.094,0-3.141" transform="translate(-64.495 -1.793)" fill="#3b4c53"/>
        <path id="Trazado_169073" data-name="Trazado 169073" d="M79.111,7.218c0-1.047,0-2.094,0-3.141A1.113,1.113,0,0,1,80.153,2.9,1.026,1.026,0,0,1,81.2,4a57.626,57.626,0,0,1,0,6.578,1.01,1.01,0,0,1-1.066.961,1.058,1.058,0,0,1-1.012-1.027c-.012-1.1,0-2.2,0-3.3Z" transform="translate(-48.849 -1.794)" fill="#3b4c53"/>
        <path id="Trazado_169074" data-name="Trazado 169074" d="M55.722,7.285c0,1.047.005,2.093,0,3.14a1.1,1.1,0,0,1-1.036,1.113,1.009,1.009,0,0,1-1.048-1.033,58.477,58.477,0,0,1,0-6.577A1.021,1.021,0,0,1,54.7,2.9,1.1,1.1,0,0,1,55.719,3.99c.011,1.1,0,2.2,0,3.295" transform="translate(-33.063 -1.792)" fill="#3b4c53"/>
        <path id="Trazado_169075" data-name="Trazado 169075" d="M24.7,18.1c0,.653,0,1.161,0,1.67a2.154,2.154,0,1,0,4.306.052c.018-.513,0-1.026,0-1.561A2.454,2.454,0,0,1,28.93,21.4a2.683,2.683,0,0,1-3.65.487A2.714,2.714,0,0,1,24.7,18.1" transform="translate(-14.936 -11.179)" fill="#fcfcfc"/>
        <path id="Trazado_169076" data-name="Trazado 169076" d="M79.683,18.152a2.681,2.681,0,0,1-4.021,3.52,2.6,2.6,0,0,1-.295-3.449c0,.569-.007,1.074,0,1.58a2.157,2.157,0,1,0,4.313.009c.008-.511,0-1.021,0-1.66" transform="translate(-46.216 -11.209)" fill="#fcfcfc"/>
        <path id="Trazado_169077" data-name="Trazado 169077" d="M50.039,18.186c0,.649-.01,1.178,0,1.707a2.154,2.154,0,0,0,4.306.077c.028-.547,0-1.1,0-1.66a2.461,2.461,0,0,1-.053,3.116,2.676,2.676,0,0,1-4.259-3.24" transform="translate(-30.583 -11.23)" fill="#fcfcfc"/>
        <path id="Trazado_169078" data-name="Trazado 169078" d="M105.037,18.331a2.578,2.578,0,0,1-.27,3.43,2.689,2.689,0,0,1-3.6.139,2.608,2.608,0,0,1-.439-3.579c0,.574-.006,1.058,0,1.543a2.157,2.157,0,1,0,4.31-.016c0-.49,0-.981,0-1.518" transform="translate(-61.877 -11.314)" fill="#fcfcfc"/>
        <path id="Trazado_169079" data-name="Trazado 169079" d="M14.694,77.565c.6-2.408,1.261-4.675,1.9-6.948.088-.314.2-.444.542-.434.926.027,1.855.031,2.781,0a.492.492,0,0,1,.59.445c.578,2.185,1.176,4.364,1.765,6.545.039.147.042.307.161.409.594-2.317,1.2-4.634,1.773-6.958.081-.328.19-.444.535-.438,1.218.022,2.436.008,3.713.008-.39,1.306-.765,2.577-1.149,3.845-.913,3.014-1.836,6.024-2.735,9.042-.1.352-.224.5-.615.485-1.029-.031-2.061-.032-3.09,0-.39.012-.53-.129-.625-.482-.6-2.232-1.217-4.459-1.83-6.692-.218.112-.173.355-.224.536q-.869,3.09-1.7,6.188c-.087.322-.207.475-.587.462-1.046-.034-2.094-.021-3.141-.006-.295,0-.452-.055-.542-.376q-1.777-6.328-3.59-12.646c-.1-.343.015-.364.3-.361,1.15.01,2.3.019,3.451,0,.345-.007.459.113.537.433.54,2.23,1.1,4.454,1.657,6.68a2.18,2.18,0,0,0,.125.269" transform="translate(-5.307 -43.336)"/>
        <path id="Trazado_169080" data-name="Trazado 169080" d="M73.62,80.1c-.148,1.062-.295,2.079-.43,3.1-.035.26-.126.374-.42.373q-5.279-.017-10.558,0c-.265,0-.353-.069-.352-.344q.012-6.361,0-12.723c0-.261.094-.305.327-.3q5.305.009,10.61,0c.265,0,.352.065.347.34-.017.875-.026,1.752,0,2.626.013.4-.086.521-.5.517-2.077-.023-4.155.019-6.231-.028-.623-.014-.49.329-.5.67s-.053.632.5.62c1.973-.041,3.948-.008,5.922-.024.351,0,.474.079.461.449-.029.823-.034,1.649,0,2.472.018.42-.085.549-.524.544-1.94-.025-3.88,0-5.82-.021-.408,0-.563.069-.552.519.029,1.22.007,1.22,1.223,1.22h6.5Z" transform="translate(-38.198 -43.346)"/>
        <path id="Trazado_169081" data-name="Trazado 169081" d="M95.345,76.853c0-2.078.007-4.155-.007-6.233,0-.327.07-.437.419-.434,2.077.021,4.156-.035,6.232.037a6.233,6.233,0,0,1,5.219,2.637,6.678,6.678,0,0,1,.508,6.9,6.248,6.248,0,0,1-5.457,3.73c-2.188.2-4.392.036-6.589.077-.353.007-.326-.192-.326-.426q.005-3.142,0-6.284" transform="translate(-58.87 -43.338)"/>
        <path id="Trazado_169082" data-name="Trazado 169082" d="M24.757,84.121c-1.214,0-1.219,0-1.539-1.151-.7-2.527-1.4-5.054-1.99-7.61-.082-.358-.249-.417-.565-.411-.294,0-.439.046-.506.4-.546,2.831-1.386,5.587-2.147,8.364-.086.313-.218.444-.562.421a11.5,11.5,0,0,0-1.545,0c-.352.024-.464-.128-.55-.434q-1.445-5.148-2.921-10.287c-.128-.441-.03-.547.395-.511.477.041,1.068-.182,1.405.084s.3.878.418,1.342a72.2,72.2,0,0,1,1.763,7.821c.05.355.223.387.514.391.308,0,.5-.029.571-.4.555-2.988,1.438-5.892,2.251-8.815.093-.332.228-.448.562-.425.512.034,1.131-.14,1.509.093s.356.919.49,1.409c.691,2.529,1.423,5.049,1.927,7.625.091.464.35.392.656.417.366.029.408-.181.457-.464.517-2.959,1.34-5.846,2.059-8.758a.363.363,0,0,1,.433-.321c.479.025,1.17-.159,1.382.084.243.279-.158.876-.293,1.328-.912,3.054-1.859,6.1-2.751,9.158-.156.536-.376.746-.911.657a3.2,3.2,0,0,0-.514,0" transform="translate(-7.645 -44.984)" fill="#fe4244"/>
        <path id="Trazado_169083" data-name="Trazado 169083" d="M64.63,78.59c0-1.7.01-3.4-.008-5.1,0-.386.075-.532.5-.529,2.73.021,5.46.016,8.19,0,.345,0,.478.07.471.447-.017.877,0,.878-.851.878-1.975,0-3.949.008-5.924-.008-.345,0-.482.064-.469.444.029.858.024,1.717,0,2.575-.009.329.1.4.41.4,1.957-.013,3.915.006,5.872-.017.43,0,.657.071.567.55a1.138,1.138,0,0,0,0,.36c.048.34-.091.436-.428.433-1.94-.015-3.881.014-5.821-.021-.519-.01-.625.149-.6.629.039.891.035,1.786,0,2.678-.016.436.079.583.555.577,2.163-.03,4.327,0,6.49-.021.413,0,.516.08.432.511-.158.807-.125.814-.954.814-2.644,0-5.289-.008-7.933.009-.4,0-.52-.1-.514-.51.024-1.7.01-3.4.01-5.1" transform="translate(-39.902 -45.052)" fill="#fe4244"/>
        <path id="Trazado_169084" data-name="Trazado 169084" d="M98.21,78.588q0-2.576,0-5.153c0-.241-.049-.478.342-.468,1.836.046,3.676-.078,5.51.075a5.166,5.166,0,0,1,4.99,4.732c.217,3.1-1.422,5.525-4.181,6.206a8.084,8.084,0,0,1-1.989.213c-1.426-.007-2.851-.011-4.276.006-.322,0-.4-.094-.4-.407.014-1.735.007-3.469.007-5.2" transform="translate(-60.639 -45.054)" fill="#fe4244"/>
        <path id="Trazado_169085" data-name="Trazado 169085" d="M103.143,80.57c0-1.322.011-2.644-.007-3.966,0-.338.093-.448.433-.431,1.01.05,2.024-.065,3.033.077a3.7,3.7,0,0,1,3.422,3.623,6.5,6.5,0,0,1-.211,2.346,3.664,3.664,0,0,1-3.6,2.7c-.892.025-1.786,0-2.678.019-.319.008-.407-.091-.4-.407.017-1.322.007-2.644.007-3.966" transform="translate(-63.685 -47.035)"/>
        <path id="Trazado_169086" data-name="Trazado 169086" d="M105.995,82.3c0-.96.011-1.921-.007-2.88-.005-.3.052-.43.388-.409a14.1,14.1,0,0,1,2.2.114,2.468,2.468,0,0,1,2.032,1.994,4.99,4.99,0,0,1-.1,2.64,2.634,2.634,0,0,1-2.72,1.854c-.445.023-.893-.014-1.337.016-.353.024-.474-.08-.464-.449.026-.959.009-1.92.009-2.88" transform="translate(-65.445 -48.788)" fill="#fefefe"/>
      </g>
    </g>
  </g>
</svg>
