<svg xmlns="http://www.w3.org/2000/svg" xmlns:xlink="http://www.w3.org/1999/xlink" width="297" height="316" viewBox="0 0 297 316">
  <defs>
    <clipPath id="clip-path">
      <rect id="Rectángulo_39802" data-name="Rectángulo 39802" width="297" height="316" rx="11" transform="translate(0 0)" fill="#bf6165"/>
    </clipPath>
    <clipPath id="clip-path-2">
      <rect id="Rectángulo_39795" data-name="Rectángulo 39795" width="297" height="316" rx="11" transform="translate(-29.894 0)" fill="#ffbfc1"/>
    </clipPath>
    <clipPath id="clip-path-3">
      <rect id="Rectángulo_43360" data-name="Rectángulo 43360" width="405.202" height="370.457" fill="none"/>
    </clipPath>
    <clipPath id="clip-path-5">
      <rect id="Rectángulo_43353" data-name="Rectángulo 43353" width="337.631" height="133.148" fill="none"/>
    </clipPath>
    <clipPath id="clip-path-7">
      <rect id="Rectángulo_43357" data-name="Rectángulo 43357" width="346.422" height="13.194" fill="none"/>
    </clipPath>
    <clipPath id="clip-path-8">
      <path id="Trazado_167388" data-name="Trazado 167388" d="M108.247,120.492a69.878,69.878,0,1,0,69.878-69.878,69.878,69.878,0,0,0-69.878,69.878" transform="translate(-108.247 -50.614)" fill="none"/>
    </clipPath>
  </defs>
  <g id="_5" data-name="5" transform="translate(5414.894 9392)">
    <g id="Grupo_163732" data-name="Grupo 163732" transform="translate(-5385 -9392)">
      <g id="Grupo_163731" data-name="Grupo 163731" transform="translate(-30)">
        <path id="Trazado_167389" data-name="Trazado 167389" d="M11,0H286a11,11,0,0,1,11,11V305a11,11,0,0,1-11,11H11A11,11,0,0,1,0,305V11A11,11,0,0,1,11,0Z" transform="translate(0.106 0)" fill="#fd9fa3"/>
        <g id="Enmascarar_grupo_173" data-name="Enmascarar grupo 173" transform="translate(0.106 0)" clip-path="url(#clip-path)">
          <path id="Trazado_145433" data-name="Trazado 145433" d="M585.659,449.787H63.054C-5.429,269.83,50.206,53.634,188.9,10.313,358.473-42.655,404.028,122.928,420.728,177.5c25.075,81.936,267.178,58.762,164.931,272.292" transform="translate(-200.268 -97.927)" fill="#febfc1"/>
        </g>
      </g>
      <g id="Enmascarar_grupo_179" data-name="Enmascarar grupo 179" clip-path="url(#clip-path-2)">
        <g id="Grupo_171011" data-name="Grupo 171011" transform="translate(-58.661 -13.191)">
          <g id="Grupo_171010" data-name="Grupo 171010" clip-path="url(#clip-path-3)">
            <rect id="Rectángulo_43352" data-name="Rectángulo 43352" width="337.631" height="132.756" transform="translate(27.382 167.273)" fill="#ffd9ce"/>
            <g id="Grupo_171002" data-name="Grupo 171002">
              <g id="Grupo_171001" data-name="Grupo 171001" clip-path="url(#clip-path-3)">
                <g id="Grupo_171000" data-name="Grupo 171000" transform="translate(27.382 167.273)" opacity="0.54" style="mix-blend-mode: multiply;isolation: isolate">
                  <g id="Grupo_170999" data-name="Grupo 170999">
                    <g id="Grupo_170998" data-name="Grupo 170998" clip-path="url(#clip-path-5)">
                      <path id="Trazado_167292" data-name="Trazado 167292" d="M87.769,371.283V386.07H58.361v2.213H69.633v14.786H58.361v2.212H87.769v14.787H58.361v2.212H69.633v14.787H58.361v2.212H87.769v14.787H58.361v2.212H69.633v14.787H58.361v2.213H87.769v16.384H92.01V473.278h34.115v16.384h4.241V473.278h34.115v16.384h4.241V473.278h34.115v16.384h4.241V473.278H241.2v16.384h4.241V473.278h34.115v16.384h4.241V473.278h34.115v16.384h4.241V473.278h34.115v16.384h4.241V473.278h35.486v-2.213H380.726V456.279h15.266v-2.212H360.506V439.28h35.486v-2.212H380.726V422.28h15.266v-2.212H360.506V405.281h35.486v-2.212H380.726V388.282h15.266V386.07H360.506V371.283h35.486V369.07H380.726V356.514h-4.241V369.07H342.37V356.514h-4.242V369.07H304.013V356.514h-4.241V369.07H265.657V356.514h-4.241V369.07H227.3V356.514h-4.241V369.07H188.943V356.514H184.7V369.07H150.587V356.514h-4.241V369.07H112.231V356.514H107.99V369.07H73.874V356.514H69.633V369.07H58.361v2.212Zm42.6,17.263v-.263h15.979v14.786H112.231V388.282h13.9v.263ZM112.231,422.28h34.115v14.786H112.231Zm225.9,48.785H304.013V456.279h34.115Zm0-34H304.013V422.281h34.115Zm0-48.785v14.786H304.013V388.282h13.9v.263h4.241v-.263Zm-169.405.263v-.263H184.7v14.786H150.587V388.282h13.9v.263ZM150.587,422.28H184.7v14.786H150.587Zm18.136,17h34.115v14.787H168.723Zm38.357,0H241.2v14.787H207.08Zm38.357,0h34.115v14.787H245.437Zm54.335-2.212H265.656V422.281h34.115Zm0-48.785v14.786H265.657V388.282h13.895v.263h4.241v-.263Zm-54.335.263v-.263h15.979v14.786H227.3V388.282h13.9v.263Zm-38.357,0v-.263h15.979v14.786H188.943V388.282h13.9v.263ZM188.943,422.28h34.115v14.786H188.943Zm38.357,0h34.115v14.786H227.3Zm-20.22-2.212V405.281H241.2v14.787Zm72.471-14.787v14.787H245.437V405.281h34.115ZM168.723,420.068V405.281h34.115v14.787Zm0-48.785h34.115v14.786H168.723Zm38.357,0H241.2v14.786H207.08Zm38.357,0h34.115v14.786H245.437Zm38.356,0h34.115v14.786H283.793Zm34.115,34v14.787H283.793V405.281h34.115Zm0,48.785H283.793V439.28h34.115Zm-18.137,17H265.656V456.279h34.115Zm-38.356,0H227.3V456.279h34.115Zm-38.357,0H188.943V456.279h34.115Zm-38.356,0H150.587V456.279H184.7Zm-38.357,0H112.231V456.279h34.115ZM130.367,439.28h34.115v14.787H130.367Zm0-19.211V405.281h34.115v14.787Zm0-48.785h34.115v14.786H130.367Zm225.9,14.787H322.149V371.283h34.115Zm20.221,17H342.37V388.282h13.895v.263h4.241v-.263h15.979Zm-20.221,17H322.15V405.281h34.115Zm20.221,17H342.37V422.281h34.115Zm-20.221,17H322.149V439.28h34.115Zm20.221,17H342.37V456.279h34.115ZM73.874,456.279H107.99v14.787H73.874Zm18.136-17h34.115v14.787H92.01Zm-18.136-17H107.99v14.786H73.874Zm18.136-17h34.115v14.787H92.01Zm-4.241-17v.263H92.01v-.263H107.99v14.786H73.874V388.282Zm4.241-17h34.115v14.786H92.01Z" transform="translate(-58.361 -356.514)" fill="#ffd9ce"/>
                    </g>
                  </g>
                </g>
              </g>
            </g>
            <rect id="Rectángulo_43355" data-name="Rectángulo 43355" width="346.421" height="13.194" transform="translate(22.358 154.079)" fill="#ffd9ce"/>
            <g id="Grupo_171007" data-name="Grupo 171007">
              <g id="Grupo_171006" data-name="Grupo 171006" clip-path="url(#clip-path-3)">
                <g id="Grupo_171005" data-name="Grupo 171005" transform="translate(22.358 154.079)" style="mix-blend-mode: multiply;isolation: isolate">
                  <g id="Grupo_171004" data-name="Grupo 171004">
                    <g id="Grupo_171003" data-name="Grupo 171003" clip-path="url(#clip-path-7)">
                      <rect id="Rectángulo_43356" data-name="Rectángulo 43356" width="346.421" height="13.194" transform="translate(0)" fill="#ffd9ce"/>
                    </g>
                  </g>
                </g>
                <path id="Trazado_167293" data-name="Trazado 167293" d="M578.855,520.842a16.064,16.064,0,0,0,2.694-1.454c10.749-7.256,19.084-15.82,31.33-21.162,2.931-1.279,5.988-2.464,8.358-4.611s3.924-5.549,2.909-8.581c-1.367-4.079-6.408-5.506-10.708-5.611a39.858,39.858,0,0,0-27.577,10.341l28-24.041c1.92-1.649,3.9-3.379,4.914-5.7s.743-5.409-1.3-6.906c-1.661-1.219-3.933-1.067-5.968-.746a55.223,55.223,0,0,0-41.35,32.157c2.069-9.215,7.15-17.433,10.549-26.245s4.953-19.239.124-27.355a3.824,3.824,0,0,0-5.139-2.071c-7.92,2.089-13.626,8.861-18.355,15.549a196.081,196.081,0,0,0-14.9,24.771c3.639-11.895,6.785-37.857-4.58-46.993-5.1-4.1-12.446,1.1-16.165,6.487a68.822,68.822,0,0,0-11.406,28.9c-.674-16.491-1.464-36.3-10.257-50.857-2.427-4.019-6.258-8.018-10.94-7.674-6.582.483-9.287,8.541-10.391,15.047-1.782,10.5-2.2,20.9-3.229,31.369-1.364-2.841-1.576-6.407-2.13-9.576-.783-4.481-1.636-9.132-4.3-12.82s-7.7-6.084-11.872-4.267a11.871,11.871,0,0,0-3.312,2.345c-5.145,4.847-8.253,11.547-9.859,18.431-1.276,5.471-2.169,11.706-1.617,17.257-1.226-9.186-9.662-17.824-17.763-21.7-3.047-1.457-7.193-2.236-9.4.324a7.816,7.816,0,0,0-1.491,3.636c-2.41,11.928,2.243,27.35,5.464,38.9a151.394,151.394,0,0,0,16.511,38.081c4.35,7.137,14.178,7.044,22.537,6.783,28.437-.888,56.884-2.124,85.34-1.673,10.633.169,25.606,3.784,35.27-.336" transform="translate(-219.26 -211.802)" fill="#00a29b"/>
                <path id="Trazado_167294" data-name="Trazado 167294" d="M571.512,521.916l.759-.021a237.5,237.5,0,0,0-1.244-95.114,234.725,234.725,0,0,0-7.728-27.255c-.243.061-.479.134-.71.216A235.769,235.769,0,0,1,574.1,449.716a96.228,96.228,0,0,1-18.219-41.792q-.259.721-.483,1.459a97.119,97.119,0,0,0,18.632,41.46.3.3,0,0,0,.213.127,236.6,236.6,0,0,1,.319,50.229q-1.051,10.426-3.051,20.717" transform="translate(-294.811 -212.073)" fill="#007d78"/>
                <path id="Trazado_167295" data-name="Trazado 167295" d="M502.254,487.778a305.236,305.236,0,0,0,5.473,31.688q2.742,12.042,6.459,23.831c.143.455.862.261.718-.2A305.809,305.809,0,0,1,500.9,457.841q-.184-8.978.168-17.952c-.247-.025-.495-.041-.742-.045a307.1,307.1,0,0,0,1.9,47.667.368.368,0,0,0-.045-.079,51.28,51.28,0,0,1-10.948-19.839,63.284,63.284,0,0,1-2.073-19.066q-.4.623-.767,1.263a62.047,62.047,0,0,0,2.3,18.6,52.177,52.177,0,0,0,10.964,19.57.352.352,0,0,0,.6-.181" transform="translate(-259.238 -233.474)" fill="#007d78"/>
                <path id="Trazado_167296" data-name="Trazado 167296" d="M443.682,520.293a.3.3,0,0,0,.339-.185c5.126-10.786,4.513-22.724,2.222-34.143q-.506-.721-1.054-1.417c2.5,11.653,3.455,23.987-1.752,35.054q-5.451-15.543-10.084-31.36-2.175-7.429-4.156-14.912c-.268-.049-.536-.091-.8-.119a630.6,630.6,0,0,0,24.673,74.063q3.044,7.537,6.289,14.992.408.017.818.028-8.991-20.7-16.492-42" transform="translate(-227.397 -251.185)" fill="#007d78"/>
                <path id="Trazado_167297" data-name="Trazado 167297" d="M616.664,546.924l.838-.017a291.89,291.89,0,0,0,25.885-80.72q1.523-9.2,2.447-18.484a6.921,6.921,0,0,0-.7-.48,291.614,291.614,0,0,1-11.891,58.3,93.563,93.563,0,0,1-5.315-48.435q-.507.821-.993,1.655a94.159,94.159,0,0,0,5.884,47.73.394.394,0,0,0,.086.13q-3.477,10.949-7.812,21.608-3.872,9.507-8.422,18.715" transform="translate(-327.332 -237.39)" fill="#007d78"/>
                <path id="Trazado_167298" data-name="Trazado 167298" d="M660.163,558.5q22.105-33.807,41.9-69.047,5.337-9.512,10.495-19.122-.189-.417-.4-.829-9.851,18.344-20.332,36.339a55.3,55.3,0,0,1,.06-29.1q-.578.7-1.136,1.412a56.021,56.021,0,0,0,.55,28.587q-10.195,17.464-20.974,34.58-5.448,8.64-11.047,17.186h.88" transform="translate(-349.954 -249.218)" fill="#007d78"/>
                <path id="Trazado_167299" data-name="Trazado 167299" d="M733.588,546.118a37.077,37.077,0,0,1,4.067-20.409q-.663.475-1.312.969a37.626,37.626,0,0,0-3.462,19.872.369.369,0,0,0,.088.2c-7.23,7.43-14.152,15.2-21.276,22.409a167.043,167.043,0,0,1-17.749,15.849q.565.022,1.143.054c22.586-17.42,38.449-42.217,62.048-58.487a90.423,90.423,0,0,1,11.209-6.625,5.71,5.71,0,0,0-.182-.75c-13.184,6.476-24.211,16.321-34.575,26.916" transform="translate(-368.353 -275.598)" fill="#007d78"/>
                <path id="Trazado_167300" data-name="Trazado 167300" d="M794.044,576.1c-.011-.034-.025-.066-.037-.1a131.308,131.308,0,0,0-19.975,7.531.377.377,0,0,0,.016-.046,25.061,25.061,0,0,1,5.713-12.912q-.514.036-1.026.084A26,26,0,0,0,773.3,583.48a.282.282,0,0,0,.167.317,132,132,0,0,0-12.483,6.815.385.385,0,0,0-.256.161,130.873,130.873,0,0,0-14.878,10.764,128.926,128.926,0,0,0-12.714,12.235q.484.024.965.042a130.306,130.306,0,0,1,26.883-22.32c2.783,2.846,7.5,3.356,11.5,3.452q.538-.355,1.085-.7c-4.107.017-9.08-.368-11.943-3.15A130.257,130.257,0,0,1,788.3,578.535q2.935-.993,5.915-1.836a5.97,5.97,0,0,0-.167-.6" transform="translate(-389.158 -302.864)" fill="#007d78"/>
                <path id="Trazado_167301" data-name="Trazado 167301" d="M178.318,548.211c5.469-5.664,8.514-14.516,9.652-22.573a6.129,6.129,0,0,0-.166-3.232c-1.219-2.885-5.731-2.208-7.61.275s-2.171,5.825-3.292,8.752c1.116-5.615,3.1-21.129-1.911-25.463-3.126-2.7-15.014.343-15.6,4.928,1-7.751,1.31-19.975-9.531-19.252-4.83.323-8.932,4.081-11.144,8.5s-2.877,9.464-3.509,14.394q-2.786-14.65-6.873-29c-1.911-6.707-5.311-14.5-12.061-15.37-4.69-.6-9.189,2.736-11.532,6.953s-2.982,9.176-3.577,13.994c-1.318-9.083-2.713-18.331-6.7-26.553s-11.037-15.4-19.832-17.046c-18.383-3.441-30.285,23.233-21.708,38.38a68.478,68.478,0,0,0-15.416-18.594c-3.208-2.7-6.8-5.158-10.89-5.888s-8.758.639-11,4.225c-1.938,3.1-1.726,7.117-.96,10.716a40.746,40.746,0,0,0,8.794,17.887c-4.01-1.2-8.123-2.417-12.289-2.119S2.7,494.561.916,498.442c-1.478,3.224-.989,7.063.207,10.408,2.452,6.859,7.544,12.313,12.5,17.553,6.41,6.774,14.869,13.4,18.918,21.958,2.573,1.262,5.923,1.01,8.813,1.008q33.2-.016,66.366,1.5c5.883.269,11.766.573,17.636,1.039,13.367,1.06,26.771,2.71,40.2,2.2a18.3,18.3,0,0,0,12.76-5.9" transform="translate(0 -237.39)" fill="#407971"/>
                <path id="Trazado_167302" data-name="Trazado 167302" d="M63.749,513.782a.3.3,0,0,0,.073-.226,55.156,55.156,0,0,0-16.644-35.723q-.636-.177-1.289-.3A54.391,54.391,0,0,1,63.1,512.851q-5.642-8.027-11.721-15.722-7.093-8.976-14.758-17.451c-.173.143-.342.29-.5.446a350.83,350.83,0,0,1,50.206,72.05q3.537,6.743,6.779,13.642l.736.015a354.093,354.093,0,0,0-30.087-52.048" transform="translate(-19.17 -253.48)" fill="#305b55"/>
                <path id="Trazado_167303" data-name="Trazado 167303" d="M135.857,486.025a.324.324,0,0,0,.234-.151c6.679-10.073,7.71-22.21,6.725-34.037q-.348-.256-.7-.5c1.039,11.712.128,23.767-6.347,33.8q-1.056-10.1-1.97-20.224-.785-8.728-1.459-17.466c-.223-.029-.445-.056-.666-.076q2.711,34.942,7.133,69.713c-15.788-13.736-22.987-34.119-27.789-54.243q-.218.557-.415,1.123c4.855,20.031,12.185,40.231,27.982,53.825a.321.321,0,0,0,.319.064q.685,5.355,1.411,10.7,1.464,10.776,3.1,21.528l.675.021q-4.838-31.938-8.227-64.083" transform="translate(-58.708 -237.471)" fill="#305b55"/>
                <path id="Trazado_167304" data-name="Trazado 167304" d="M36.5,576.053a.274.274,0,0,0,.252-.319A43.533,43.533,0,0,0,16.1,542.9q-.721-.049-1.446-.048A42.754,42.754,0,0,1,36.064,575.5a134.178,134.178,0,0,0-20.135-20.387,130.11,130.11,0,0,0-11.254-8.2q-.227.255-.435.527a134.159,134.159,0,0,1,42.652,45.067,40.469,40.469,0,0,0-22.949-7.344q.348.346.695.694a39.936,39.936,0,0,1,22.933,7.971.33.33,0,0,0,.1.051c.124.22.251.437.373.658q1.543,2.769,2.947,5.614l.729,0a136.9,136.9,0,0,0-15.218-24.1" transform="translate(-2.251 -288.151)" fill="#305b55"/>
                <path id="Trazado_167305" data-name="Trazado 167305" d="M247.207,513.912c-2.354,13.668-6.324,27.564-17.472,36.24a230.418,230.418,0,0,0,3.617-39.933q.021-7.1-.406-14.2c-.222.01-.443.026-.662.053a230.459,230.459,0,0,1-5.494,65.206q-1.792,7.751-4.127,15.352l.683.029a230.758,230.758,0,0,0,6.28-25.9.257.257,0,0,0,.374.031c11.019-8.528,15.18-21.969,17.615-35.417-.134-.491-.271-.981-.406-1.471" transform="translate(-118.191 -263.295)" fill="#305b55"/>
                <path id="Trazado_167306" data-name="Trazado 167306" d="M280.716,572.866a.307.307,0,0,0,.432.112c9.461-5.633,14.368-15.994,15.518-26.8a9.314,9.314,0,0,0-.573-.951c-.945,10.884-5.722,21.434-15.211,27.121,1.106-3.535,2.025-7.134,2.91-10.73q2.394-9.725,4.281-19.57a.353.353,0,0,0,0-.089c-.227.021-.452.048-.676.084q-1.819,9.422-4.087,18.745a130.223,130.223,0,0,1-5.084,17.128c-3.792,9.574-10.263,17.031-17.336,24.066l.893.065c6.765-6.758,12.971-13.942,16.721-23.049.827-2.009,1.553-4.058,2.213-6.128" transform="translate(-138.483 -287.675)" fill="#305b55"/>
                <path id="Trazado_167307" data-name="Trazado 167307" d="M331.572,596.76a37.864,37.864,0,0,0,5.5-8.477c.045-.606.083-1.22.113-1.839a38.579,38.579,0,0,1-5.756,9.451c-3.666,4.341-9.191,8.471-15.038,8.18a118.073,118.073,0,0,0,15.976-23q1.817-3.423,3.4-6.965-.179-.409-.386-.781a118.341,118.341,0,0,1-7.883,14.8c0-.013,0-.024,0-.038a30.314,30.314,0,0,1-.052-17.3q-.362.062-.727.137a30.975,30.975,0,0,0,.137,17.347.325.325,0,0,0,.412.225,116.911,116.911,0,0,1-20.13,24.013q-3.653,3.319-7.575,6.295l.994.081A116.377,116.377,0,0,0,315.829,604.7a.3.3,0,0,0,.06.018c6.029.563,11.832-3.548,15.683-7.963" transform="translate(-159.01 -302.982)" fill="#305b55"/>
                <path id="Trazado_167308" data-name="Trazado 167308" d="M330.2,637.374c4.06-2.632,8.184-5.422,12.085-8.484,5.7-.186,11.481-1.7,15.943-5.168q.344-.7.663-1.426c-4.24,3.81-9.978,5.536-15.694,5.87,7.983-6.415,14.909-14.022,18.227-23.8a3.115,3.115,0,0,0-.6-.324c-3.367,10-10.548,17.695-18.764,24.169l-.235.008a.333.333,0,0,0-.31.419c-4.043,3.143-8.317,6-12.5,8.692.394.014.788.03,1.182.042" transform="translate(-174.646 -320.633)" fill="#305b55"/>
                <path id="Trazado_167309" data-name="Trazado 167309" d="M422.537,724.655H55.11l3.466-55.24,339.457-2.137Z" transform="translate(-29.253 -354.198)" fill="#ebcfc2"/>
                <path id="Trazado_167310" data-name="Trazado 167310" d="M401.765,658.829v-7.468l-339.623,4.87v7.389Z" transform="translate(-32.986 -345.749)" fill="#292c34"/>
                <path id="Trazado_167311" data-name="Trazado 167311" d="M593.667,697.539s.54-.1.643,1.08c.172,1.966.467,2.465-2.886,3.161-4.92,1.021-18.309,1.947-24.72,1.3-3.305-.335-3.786-1.212-3.911-2.807-.13-1.649.621-1.583.621-1.583Z" transform="translate(-298.729 -370.26)" fill="#ddd"/>
                <path id="Trazado_167312" data-name="Trazado 167312" d="M563.977,691.513c.115,1.469,9.355,2.141,15.713,1.642,2.906-.228,5.268-.5,7.166-.782,5.906-.864,7.431-1.814,7.429-1.833,0,0,.648-3.632-1.605-5.3a7.43,7.43,0,0,0-5.8-1.4c-2.49.247-5.444.978-9.926.262,0,0-8.6.286-9.6.494-3,.632-3.743,2.337-3.383,6.915" transform="translate(-299.321 -362.947)" fill="#963"/>
                <path id="Trazado_167313" data-name="Trazado 167313" d="M601.135,686.256a3.6,3.6,0,0,1,1.791-2.751c.278-.117.7-.107.771.186.052.211-.125.4-.27.562a4.47,4.47,0,0,0-.948,2.252c-.142.813-.189,1.645-.4,2.442a1.316,1.316,0,0,1-.231.516.521.521,0,0,1-.5.2c-.309-.078-.4-.47-.412-.789a10.591,10.591,0,0,1,.2-2.612" transform="translate(-318.975 -362.774)" fill="#ddd"/>
                <path id="Trazado_167314" data-name="Trazado 167314" d="M595.45,684.594a1.583,1.583,0,0,1,.714-.728.636.636,0,0,1,.846.349,1.055,1.055,0,0,1-.217.758,8.412,8.412,0,0,0-1.089,3.538,3.259,3.259,0,0,1-.208,1.174,1.065,1.065,0,0,1-.2.279.481.481,0,0,1-.823-.282,8.3,8.3,0,0,1,.974-5.089" transform="translate(-315.523 -362.979)" fill="#ddd"/>
                <path id="Trazado_167315" data-name="Trazado 167315" d="M550.661,379.212a9.549,9.549,0,0,0-1.943-2.954,4.842,4.842,0,0,0-1.461-1.083,1.79,1.79,0,0,0-1.361-.017c-.807-1.387-3.8-7.687-4.536-7.825,0,0-2.884,4.086-3.223,4.83-1.824,4-.737,6.864.631,10.875a5.77,5.77,0,0,0,.971,1.976c.953,1.1,2.724,1.888,4,1.2a35.613,35.613,0,0,0,6.453-4.546,1.757,1.757,0,0,0,.463-2.46" transform="translate(-285.138 -194.984)" fill="#f6ba88"/>
                <path id="Trazado_167316" data-name="Trazado 167316" d="M555.625,383.934a18.428,18.428,0,0,1,2.783,4.608,1.524,1.524,0,0,0,.51-.18.538.538,0,0,0,.265-.453.794.794,0,0,0-.305-.493l-2.015-1.921" transform="translate(-294.932 -203.796)" fill="#eda672"/>
                <path id="Trazado_167317" data-name="Trazado 167317" d="M523.448,532.485s2.078,7.949,2.188,9.3-1.852,7.295-1.43,12.907c.654,8.711,19.406,49.742,20.493,50.767s6.4,3.888,6.211-2.45-8.635-69.367-8.635-69.367Z" transform="translate(-277.852 -282.649)" fill="#f6ba88"/>
                <path id="Trazado_167318" data-name="Trazado 167318" d="M457.543,504.169s-4.662,15.218-4.562,18.514,1.788,8.127,1.01,18.144c-.365,4.7-8.56,47.554-8.56,47.554s-.473,2.054-3.243,1.884a5,5,0,0,1-3.967-2.682c-.462-15.184-5.687-43.651-3.868-54.042.636-3.635,3.308-8.836,3.161-12.177-.431-9.8-2.879-14.033-2.448-18.574Z" transform="translate(-230.356 -266.886)" fill="#f6ba88"/>
                <path id="Trazado_167319" data-name="Trazado 167319" d="M447.745,376.739c-6.571,4.948-11.51,12.363-12.242,16.988-1.649,10.422-2.358,43.192,1.574,56.65,1.665,2.443,12.816,5.471,16.444,1.124,3.179-5.7,6.482-20.847,7.939-33.971l4.346-2.279c2.062,10.02,2.574,21.26,10.682,35.465,3.418,3.661,15.581,2.279,18.406.222,2.108-12.022,2.349-31.756-12.072-74.259Z" transform="translate(-230.47 -199.945)" fill="#449393"/>
                <path id="Trazado_167320" data-name="Trazado 167320" d="M548.825,220.447c-2.524-1.688-9.15-2.068-14.274-.479-1.559,7.2,2.108,29.976,10.014,26.763-1.416,6.8,9.269,14.271,13.363,21.8-4.879,1.481-10.052,9.526-19.227,21.456-3.249,9.364,2.756,3.152,4.509,4.319,8.23-6.079,28.264-13.694,29.989-22.772-.2-3.22-4.793-15.848-10.849-25.561-1.085-1.741-1.278-9.243-4.24-15.521-2.419-5.127-7.337-8.7-9.287-10" transform="translate(-283.559 -116.225)" fill="#f6ba88"/>
                <path id="Trazado_167321" data-name="Trazado 167321" d="M483.235,200.626s-11.282,21.86,11.775,22.505c19.618.549,7.569-21.593,7.569-21.593l-4.094-1.39-.7-10.354-10.373-.986-1.224,11.238Z" transform="translate(-255.041 -100.222)" fill="#f6ba88"/>
                <path id="Trazado_167322" data-name="Trazado 167322" d="M433.591,239.395l9.763,27.443,4.771,23.368c11.74,6.883,29.875,4.653,34.809-.18l4.112-37.741c4.12-2.363,4.923-11.1,3.859-15.084s-2-7.506-2.746-10.883c-1.143-5.185-1.875-8.65-1.856-10.484l-9.181-1.77s9.173,17.048-6.709,17.381-12.048-18.06-12.048-18.06-13.142,2.426-13.12,3.421c.681,32.09-11.654,22.589-11.654,22.589" transform="translate(-230.155 -113.267)" fill="#b2442b"/>
                <path id="Trazado_167323" data-name="Trazado 167323" d="M492.852,198.845c2.689-1.061,8.99-4.409,11.794-5.109l-.2-4.94c-.242,0-8.124.405-10.471-.643Z" transform="translate(-261.611 -99.874)" fill="#eda672"/>
                <path id="Trazado_167324" data-name="Trazado 167324" d="M535.951,99.656a1.823,1.823,0,0,1,.852-.572,23.614,23.614,0,0,1,9.536-1.779,73.668,73.668,0,0,1-.1,13.9c-.6,5.937-3.106,11.17-6.2,16.382Q537.624,114.34,535.8,101a1.9,1.9,0,0,1,.147-1.339" transform="translate(-284.384 -51.647)" fill="#aa5c07"/>
                <path id="Trazado_167325" data-name="Trazado 167325" d="M470.749,101.4c-.919,14.969,4.048,22.266,9.145,25.746a17.544,17.544,0,0,0,2.809,1.564,16.769,16.769,0,0,0,5.643,1.448c.2.012.413.022.646.023.276,0,.573,0,.887-.016a16.74,16.74,0,0,0,2.152-.249c6.245-1.109,16.079-6.3,17.3-26.147C510.38,86.623,503.5,79.161,497.8,76.132a15.639,15.639,0,0,0-6.018-1.876c-4.287-.263-19.52,2.575-21.029,27.145" transform="translate(-249.82 -39.408)" fill="#f6ba88"/>
                <path id="Trazado_167326" data-name="Trazado 167326" d="M529.419,117.019a12.678,12.678,0,0,1,4.3,1.754,1.425,1.425,0,0,1,.623.557c.2.46-.112.978-.411,1.379a19.423,19.423,0,0,0-6.009-2.071,3.234,3.234,0,0,1,.048-.936,1.041,1.041,0,0,1,.536-.716,1.432,1.432,0,0,1,.91.032" transform="translate(-280.222 -62.063)" fill="#aa5c07"/>
                <path id="Trazado_167327" data-name="Trazado 167327" d="M498.018,115.438a22.188,22.188,0,0,0-4.7,1.2,1.361,1.361,0,0,0-.72.475c-.268.431-.005.984.256,1.419a21.172,21.172,0,0,1,6.518-1.3,3.065,3.065,0,0,0,.067-.935,1.039,1.039,0,0,0-.468-.778,1.5,1.5,0,0,0-.952-.082" transform="translate(-261.415 -61.256)" fill="#aa5c07"/>
                <path id="Trazado_167328" data-name="Trazado 167328" d="M406.722,220.531c2.342-1.933,8.9-2.975,14.154-1.908,2.273,7.009,1.147,32.486-7.041,30.082-2.842,10.417-8.838,11.124-12.157,19.023,5.622,2.632,9.572,11.147,17.872,20.944-.056,2.614-1.272,6.107-2.9,7.444-10.587-9.507-28.891-16.513-31.516-25.372-.119-3.224,5.287-16.136,10.339-26.407.905-1.841.694-6.381,3.011-12.925,1.893-5.344,6.428-9.389,8.238-10.881" transform="translate(-204.432 -115.821)" fill="#f6ba88"/>
                <path id="Trazado_167329" data-name="Trazado 167329" d="M498.155,160.47a1.28,1.28,0,0,0-1.346,1.482,8.4,8.4,0,0,0,1,2.84c1.051,1.82,3.093,3.563,7.048,3.806a7.19,7.19,0,0,0,6.572-2.814,9.614,9.614,0,0,0,1.436-2.806,1.281,1.281,0,0,0-1.142-1.674Z" transform="translate(-263.702 -85.178)" fill="#7c3e03"/>
                <path id="Trazado_167330" data-name="Trazado 167330" d="M498.96,164.79c1.05,1.82,3.093,3.563,7.048,3.806a7.19,7.19,0,0,0,6.572-2.814c.249-1.161.027-2.032-.936-2.437.928-.3,1.176-.958,1.242-2.043l-13.666-.838a2.053,2.053,0,0,0,1.022,2.112c-1.162.15-1.28,1.942-1.283,2.215" transform="translate(-264.853 -85.176)" fill="#fff"/>
                <path id="Trazado_167331" data-name="Trazado 167331" d="M514.39,150.138a3.16,3.16,0,0,1-2.089,1.444,2.49,2.49,0,0,1-1.491-.408,5.991,5.991,0,0,1-1.227-1.07c-.135-.151-.279-.4-.169-.574.082-.128.262-.137.414-.132,1.45.048,4.342.267,4.342.267.117,0,.256.02.312.123s-.015.246-.092.349" transform="translate(-270.381 -79.302)" fill="#eda672"/>
                <path id="Trazado_167332" data-name="Trazado 167332" d="M547.521,103.994a84.006,84.006,0,0,0,1.566,8.576,29.143,29.143,0,0,1,1.466,7.618s3.567-10.491.562-17.786c-1.028-2.5-3.594,1.591-3.594,1.591" transform="translate(-290.63 -53.928)" fill="#aa5c07"/>
                <path id="Trazado_167333" data-name="Trazado 167333" d="M484.584,147.5c-.082,1.333,1.473,2.513,3.472,2.635s3.686-.858,3.768-2.191-1.473-2.513-3.472-2.636-3.686.858-3.768,2.191" transform="translate(-257.22 -77.124)" fill="#ed9677"/>
                <path id="Trazado_167334" data-name="Trazado 167334" d="M530.1,150.291c-.082,1.333,1.472,2.513,3.471,2.635s3.686-.858,3.769-2.191-1.473-2.513-3.472-2.636-3.686.858-3.768,2.191" transform="translate(-281.381 -78.608)" fill="#ed9677"/>
                <path id="Trazado_167335" data-name="Trazado 167335" d="M474.269,82.716s28.851,5.791,35.589-3.558c4.676-6.488.134-17.09-7.673-21.376L500.341,63.9l-1.42-3.754-2.4,3.887-2.645-2.363s-20.646,1.476-24.113,8.543c-7.337,14.953-1.143,31-1.009,31.547,6.192-10.646,4.348-10.934,5.514-19.047" transform="translate(-247.456 -30.671)" fill="#c86e00"/>
                <path id="Trazado_167336" data-name="Trazado 167336" d="M467.437,131.151a2.935,2.935,0,0,0-4.152-3.1c-1.52.716-2.136,2.563-2.264,4.238a12.981,12.981,0,0,0,.605,5.014,5.554,5.554,0,0,0,2.346,3.283,2.655,2.655,0,0,0,3.593-.86" transform="translate(-244.695 -67.827)" fill="#f6ba88"/>
                <path id="Trazado_167337" data-name="Trazado 167337" d="M464.468,137.679a4.464,4.464,0,0,0,1.917,3.484,4.508,4.508,0,0,1-.372-1.452,1.524,1.524,0,0,1,.588-1.317.937.937,0,0,1,1.311.251,14.9,14.9,0,0,1,.105-2.128,5.7,5.7,0,0,0-.142-2.115,2.425,2.425,0,0,0-1.33-1.576,1.562,1.562,0,0,0-1.883.545,1.755,1.755,0,0,1,1.887,2.548.932.932,0,0,0-1.112-.471,1.416,1.416,0,0,0-.878.922,3.087,3.087,0,0,0-.092,1.309" transform="translate(-246.53 -70.444)" fill="#eda672"/>
                <path id="Trazado_167338" data-name="Trazado 167338" d="M431.306,695.255c-1.108-.728-1.6,3.459-.7,3.972s15.337,1.631,16.156.538a3.033,3.033,0,0,0,.166-3.7c-4.516.046-11.847,1.668-15.622-.813" transform="translate(-228.322 -369.004)" fill="#ddd"/>
                <path id="Trazado_167339" data-name="Trazado 167339" d="M431.575,685.324a3.548,3.548,0,0,1-1.053-2.565,6.153,6.153,0,0,1,3.351-5.22,12.709,12.709,0,0,1,6.314-1.291c1.84.016,3.83.281,5.15,1.564,1.648,1.6,1.69,4.191,1.62,6.489a2.741,2.741,0,0,1-.564,1.932,2.616,2.616,0,0,1-1.508.569,30.288,30.288,0,0,1-10.946-.454,5.1,5.1,0,0,1-2.363-1.025" transform="translate(-228.525 -358.959)" fill="#963"/>
                <path id="Trazado_167340" data-name="Trazado 167340" d="M530.1,135.621c.139-.985.159-3.18-.48-3.941a2.381,2.381,0,0,0-3.107-.342c-.933.66-1.138,2.8-1.2,4.021-.02.4.127.618.315.7s.535.042.6-.426c.059-.43.209-2.037.317-2.457a2.254,2.254,0,0,1,.332-.866,1.436,1.436,0,0,1,1.282-.42,1.223,1.223,0,0,1,1.01,1.224c.034.5-.181,2.1-.088,2.587a.785.785,0,0,0,.258.54.332.332,0,0,0,.479,0,.865.865,0,0,0,.28-.619" transform="translate(-278.843 -69.492)" fill="#7c3e03"/>
                <path id="Trazado_167341" data-name="Trazado 167341" d="M495.686,133.5c-.018-.995.231-3.175.958-3.853a2.381,2.381,0,0,1,3.125.04c.846.769.787,2.92.7,4.138-.03.4-.2.6-.4.654s-.536-.024-.542-.5c-.006-.434.041-2.048-.014-2.477a2.265,2.265,0,0,0-.223-.9,1.439,1.439,0,0,0-1.221-.574,1.224,1.224,0,0,0-1.152,1.091c-.1.491-.077,2.1-.229,2.578a.786.786,0,0,1-.321.5.332.332,0,0,1-.477-.055.867.867,0,0,1-.2-.649" transform="translate(-263.115 -68.519)" fill="#7c3e03"/>
                <path id="Trazado_167342" data-name="Trazado 167342" d="M430.4,376.111a9.932,9.932,0,0,1,3.051-2.055,5.041,5.041,0,0,1,1.836-.453,1.864,1.864,0,0,1,1.313.53c1.331-1.007,5.658-5.918,6.417-5.757a10.709,10.709,0,0,1,2.231,6c.138,4.574-2.048,6.883-4.971,10.183a6.01,6.01,0,0,1-1.725,1.507c-1.356.671-3.372.718-4.326-.453a37.04,37.04,0,0,1-4.369-6.952,1.827,1.827,0,0,1,.543-2.546" transform="translate(-228.009 -195.536)" fill="#f6ba88"/>
                <path id="Trazado_167343" data-name="Trazado 167343" d="M439.019,380.632a19.15,19.15,0,0,0-4.52,3.3,1.6,1.6,0,0,1-.418-.377.56.56,0,0,1-.072-.541.826.826,0,0,1,.491-.35l2.7-1.035" transform="translate(-230.354 -202.043)" fill="#eda672"/>
                <path id="Trazado_167344" data-name="Trazado 167344" d="M512.2,305.57l-.407,7.285a4.878,4.878,0,0,1-.288,1.658,3.276,3.276,0,0,1-1.932,1.675,13.882,13.882,0,0,1-3.131.411" transform="translate(-268.827 -162.2)" fill="none" stroke="#9b2d1b" stroke-linecap="round" stroke-linejoin="round" stroke-width="6.2"/>
                <path id="Trazado_167345" data-name="Trazado 167345" d="M517.894,322.192a2.813,2.813,0,0,0,.684,1.971c.975,1.116,2.624,1.272,4.1,1.351" transform="translate(-274.902 -171.023)" fill="none" stroke="#9b2d1b" stroke-linecap="round" stroke-linejoin="round" stroke-width="6.2"/>
                <path id="Trazado_167346" data-name="Trazado 167346" d="M511.332,322.949l-.407,7.285a4.891,4.891,0,0,1-.288,1.658,3.276,3.276,0,0,1-1.932,1.675,13.882,13.882,0,0,1-3.131.411" transform="translate(-268.365 -171.425)" fill="none" stroke="#9b2d1b" stroke-linecap="round" stroke-linejoin="round" stroke-width="6.2"/>
                <path id="Trazado_167347" data-name="Trazado 167347" d="M517.022,339.571a2.814,2.814,0,0,0,.684,1.972c.975,1.115,2.624,1.272,4.1,1.351" transform="translate(-274.439 -180.248)" fill="none" stroke="#9b2d1b" stroke-linecap="round" stroke-linejoin="round" stroke-width="6.2"/>
                <path id="Trazado_167348" data-name="Trazado 167348" d="M510.506,339.571q-.2,3.643-.407,7.285a4.878,4.878,0,0,1-.287,1.658,3.276,3.276,0,0,1-1.932,1.675,13.907,13.907,0,0,1-3.131.411" transform="translate(-267.926 -180.248)" fill="none" stroke="#9b2d1b" stroke-linecap="round" stroke-linejoin="round" stroke-width="6.2"/>
                <path id="Trazado_167349" data-name="Trazado 167349" d="M516.2,356.193a2.813,2.813,0,0,0,.684,1.972c.975,1.115,2.624,1.272,4.1,1.351" transform="translate(-274 -189.071)" fill="none" stroke="#9b2d1b" stroke-linecap="round" stroke-linejoin="round" stroke-width="6.2"/>
                <path id="Trazado_167350" data-name="Trazado 167350" d="M491.023,451.985l12.824-12.09" transform="translate(-260.64 -233.501)" fill="none" stroke="#2a7270" stroke-linecap="round" stroke-linejoin="round" stroke-width="6.2"/>
              </g>
            </g>
            <g id="Grupo_171009" data-name="Grupo 171009" transform="translate(50.788 23.748)">
              <g id="Grupo_171008" data-name="Grupo 171008" clip-path="url(#clip-path-8)">
                <path id="Trazado_167390" data-name="Trazado 167390" d="M0,0H198.367V163.369H0Z" transform="translate(-21.557 -23.747)" fill="#fc5f65"/>
                <path id="Trazado_167351" data-name="Trazado 167351" d="M311.42,281.857a7.378,7.378,0,0,0-1.641-2.184,3.737,3.737,0,0,0-1.178-.764,1.382,1.382,0,0,0-1.05.053c-.689-1.03-3.3-5.743-3.875-5.814,0,0-2.026,3.289-2.251,3.879-1.213,3.175-.237,5.327,1.011,8.354a4.464,4.464,0,0,0,.844,1.477,2.758,2.758,0,0,0,3.146.734,27.522,27.522,0,0,0,4.756-3.816,1.356,1.356,0,0,0,.238-1.919" transform="translate(-210.493 -168.737)" fill="#f6ba88"/>
                <path id="Trazado_167352" data-name="Trazado 167352" d="M315,285.487a14.237,14.237,0,0,1,2.368,3.418,1.182,1.182,0,0,0,.385-.163.416.416,0,0,0,.183-.362.614.614,0,0,0-.259-.365l-1.646-1.384" transform="translate(-217.993 -175.287)" fill="#eda672"/>
                <path id="Trazado_167353" data-name="Trazado 167353" d="M307.167,505.189s.386-.07.453.775c.112,1.4.319,1.763-2.079,2.241a83.575,83.575,0,0,1-17.66.783c-2.358-.259-2.7-.888-2.776-2.027-.083-1.178.453-1.126.453-1.126Z" transform="translate(-202.12 -291.907)" fill="#ddd"/>
                <path id="Trazado_167354" data-name="Trazado 167354" d="M285.977,500.669c.074,1.05,6.668,1.583,11.211,1.264,2.076-.146,3.764-.325,5.122-.517,4.222-.583,5.317-1.252,5.316-1.266s.483-2.59-1.116-3.8a5.306,5.306,0,0,0-4.133-1.031,22.758,22.758,0,0,1-7.09.129s-6.146.154-6.855.3c-2.143.434-2.686,1.646-2.456,4.919" transform="translate(-202.562 -286.644)" fill="#963"/>
                <path id="Trazado_167355" data-name="Trazado 167355" d="M312.547,496.986a2.568,2.568,0,0,1,1.3-1.954c.2-.082.5-.072.549.138.036.151-.092.285-.2.4a3.193,3.193,0,0,0-.69,1.6c-.107.58-.145,1.173-.3,1.741a.94.94,0,0,1-.168.367.372.372,0,0,1-.361.137c-.22-.058-.281-.338-.289-.566a7.567,7.567,0,0,1,.16-1.865" transform="translate(-216.604 -286.49)" fill="#ddd"/>
                <path id="Trazado_167356" data-name="Trazado 167356" d="M308.5,495.765a1.13,1.13,0,0,1,.514-.516.455.455,0,0,1,.6.255.756.756,0,0,1-.159.54,6.005,6.005,0,0,0-.8,2.521,2.321,2.321,0,0,1-.155.837.75.75,0,0,1-.141.2.344.344,0,0,1-.586-.206,5.93,5.93,0,0,1,.725-3.628" transform="translate(-214.139 -286.614)" fill="#ddd"/>
                <path id="Trazado_167357" data-name="Trazado 167357" d="M259.817,385.943s2.64,4.877,2.71,5.84-2.709,6.289-2.71,10.309c0,10.059,12.376,36.494,13.146,37.233s7.578,2.307,7.482-2.221,6.1-50.625,6.1-50.625Z" transform="translate(-188.702 -228.61)" fill="#eda672"/>
                <path id="Trazado_167358" data-name="Trazado 167358" d="M237.376,368.717s-1.6,10.917-1.386,13.262,1.5,4.877,1.386,12.05c-.054,3.366-8.655,35.752-8.655,35.752a3.453,3.453,0,0,1-2.9,1.654,36.81,36.81,0,0,1-5.581-.762c-2.344-10.25-10.568-24.937-11.176-36.993-.177-3.513,2.264-6.234,2.013-8.609-.736-6.969-2.116-10.308-2.007-13.563Z" transform="translate(-161.759 -219.466)" fill="#f6ba88"/>
                <path id="Trazado_167359" data-name="Trazado 167359" d="M191.71,279.2c-3.253,3.429-4.573,10.782-5.137,14.078-1.665,9.721,8.513,31.69,11.906,41.111,1.294,1.668,23.1,1.348,25.5-1.909,0,0,20.7,1.73,23.813-1.586,1.878-7.938,16.667-29.517,11.557-52.27Z" transform="translate(-149.726 -171.645)" fill="#449393"/>
                <path id="Trazado_167360" data-name="Trazado 167360" d="M297.493,160.714c-1.906-1.034-7.624-4.214-11.207-2.857-.8,5.2,2.993,32.249,8.488,29.613.281,3.621,6.308,10.26,8.178,13.434,0,0-6.107-.183-9.122,12.587-1.6,6.265,10.728,13.319,12.028,14.074,12.968-13.929,10.448-22.86,9.358-28.673-.781-4.159-3.811-30.637-17.722-38.179" transform="translate(-202.696 -107.363)" fill="#f6ba88"/>
                <path id="Trazado_167361" data-name="Trazado 167361" d="M188.521,286.18s8.409,7.677,25.563,9.525c15.6,1.681,43.194-.982,47.462-7.615,4.447-6.911,2.2-14.918,0-18.925.229.417-74.1,10.222-72.336,4.242-.668,2.265-.689,12.773-.689,12.773" transform="translate(-150.857 -166.623)" fill="#f6ba88"/>
                <path id="Trazado_167362" data-name="Trazado 167362" d="M233.784,149.254s-.066,25.968,16.4,25.419c14.007-.467,9.521-23.5,9.521-23.5l-6.115,1.029-.755-2.376-14.61-3.27-1.85,1.835Z" transform="translate(-174.883 -101.539)" fill="#eda672"/>
                <path id="Trazado_167363" data-name="Trazado 167363" d="M196.989,180.639,186.78,220.054c19.172,8.7,72.573-.955,75.472-10.209,0,0-.575-7.484-7.73-16.226,7.73-4.727-1.14-14.685-6.115-19.858C244.981,170.2,241,158.509,238.013,153.9l-5.411-1.083s5.074,12.175-4.721,12.508c-10.713.365-16.46-14.86-16.46-14.86-3.971,1.224-14.193,5.255-13.965,6.377,4.562,22.463-.467,23.8-.467,23.8" transform="translate(-149.933 -103.614)" fill="#b2442b"/>
                <path id="Trazado_167364" data-name="Trazado 167364" d="M274.427,89.019a1.3,1.3,0,0,1,.582-.445,16.863,16.863,0,0,1,6.719-1.685,52.618,52.618,0,0,1,.536,9.911c-.171,4.258-1.725,8.1-3.7,11.948q-2.3-9.335-4.184-18.768a1.357,1.357,0,0,1,.046-.961" transform="translate(-196.398 -69.869)" fill="#aa5c07"/>
                <path id="Trazado_167365" data-name="Trazado 167365" d="M229.311,92.6c0,10.71,2.751,13.814,6.233,16.516,5.581,4.332,14.907,3.357,18.72,1.394,5.537-2.85,9.475-9.491,5.112-16.576-1.079-1.751-2.858-2.907-3.051-3.65-2.686-10.3-4.923-15.1-8.841-16.881a11.166,11.166,0,0,0-4.371-1.074c-3.067,0-13.8,2.69-13.8,20.269" transform="translate(-172.509 -62.142)" fill="#f6ba88"/>
                <path id="Trazado_167366" data-name="Trazado 167366" d="M269.088,100.158a9.045,9.045,0,0,1,2.8,1.787,1.03,1.03,0,0,1,.367.472c.082.349-.206.672-.467.915a13.884,13.884,0,0,0-3.954-2.229,2.311,2.311,0,0,1,.154-.651.742.742,0,0,1,.469-.434,1.023,1.023,0,0,1,.635.14" transform="translate(-192.955 -76.83)" fill="#aa5c07"/>
                <path id="Trazado_167367" data-name="Trazado 167367" d="M165.671,318.348a1.753,1.753,0,0,0-.046,1.546,1.165,1.165,0,0,0,1.489.237,2.986,2.986,0,0,0,1.072-1.229,8.256,8.256,0,0,0,1.205-5.852,2.133,2.133,0,0,0-1.5-1l-2.22,6.3" transform="translate(-138.616 -189.387)" fill="#eda672"/>
                <path id="Trazado_167368" data-name="Trazado 167368" d="M177.22,308.268a10.029,10.029,0,0,1-5.935,14.925,2.931,2.931,0,0,1-2.709-.253c-.878-.753-.746-2.123-.539-3.26l1.116-6.126c.162-.891-.306-1.856-.32-2.762a4.26,4.26,0,0,1,.714-2.573,5.063,5.063,0,0,1,3.111-1.73,2.561,2.561,0,0,1,1.385-.015c.61.215.993.8,1.462,1.249s1.222.964,1.715.545" transform="translate(-139.903 -186.379)" fill="#f6ba88"/>
                <path id="Trazado_167369" data-name="Trazado 167369" d="M249.437,101.192a15.825,15.825,0,0,0-2.815,2.022.969.969,0,0,0-.355.5c-.067.356.252.656.539.878a15.129,15.129,0,0,1,4-2.561,2.2,2.2,0,0,0-.2-.639.74.74,0,0,0-.513-.4,1.068,1.068,0,0,0-.655.193" transform="translate(-181.505 -77.355)" fill="#aa5c07"/>
                <path id="Trazado_167370" data-name="Trazado 167370" d="M265.477,122.823a2.257,2.257,0,0,1-1.2,1.36,1.78,1.78,0,0,1-1.1-.026,4.291,4.291,0,0,1-1.035-.531c-.12-.081-.262-.232-.216-.369.035-.1.158-.14.264-.162,1.013-.215,3.056-.56,3.056-.56a.248.248,0,0,1,.237.031c.062.067.031.174,0,.258" transform="translate(-189.815 -88.782)" fill="#eda672"/>
                <path id="Trazado_167371" data-name="Trazado 167371" d="M236.989,133.727c4.258-2.519,8.047-5.824,13.037-4.745,3.646.789,6.932,2.53,10.517,3.51.882.241,3.918.376,4.081,1.235.693,3.658-2.208,9.3-8.73,10.176-8.7,1.164-17.876-.906-18.906-10.176" transform="translate(-176.585 -92.101)" fill="#f6ba88"/>
                <path id="Trazado_167372" data-name="Trazado 167372" d="M240.627,125.078c.146,1.185,1.706,1.968,3.484,1.748s3.1-1.358,2.954-2.544-1.706-1.968-3.484-1.748-3.1,1.359-2.954,2.544" transform="translate(-178.51 -88.77)" fill="#ed9677"/>
                <path id="Trazado_167373" data-name="Trazado 167373" d="M277.033,118.878c.16.94,1.433,1.508,2.843,1.267s2.424-1.2,2.264-2.137-1.433-1.508-2.843-1.267-2.423,1.2-2.263,2.137" transform="translate(-197.832 -85.686)" fill="#ed9677"/>
                <path id="Trazado_167374" data-name="Trazado 167374" d="M272.042,112.184c-.133.412-.4.845-.834.9a.9.9,0,0,1-.746-.3,2.158,2.158,0,0,1-.416-.717,7.451,7.451,0,0,1-.468-1.819,1.63,1.63,0,0,1,.106-.993,1.158,1.158,0,0,1,1.548-.333,2.092,2.092,0,0,1,.915,1.443,3.608,3.608,0,0,1-.1,1.816" transform="translate(-193.867 -81.482)" fill="#7c3e03"/>
                <path id="Trazado_167375" data-name="Trazado 167375" d="M251.84,115.752a1.185,1.185,0,0,0,1.089.571.907.907,0,0,0,.6-.533,2.17,2.17,0,0,0,.151-.816,7.47,7.47,0,0,0-.169-1.87,1.632,1.632,0,0,0-.434-.9,1.158,1.158,0,0,0-1.57.206,2.091,2.091,0,0,0-.377,1.667,3.6,3.6,0,0,0,.708,1.675" transform="translate(-184.076 -83.188)" fill="#7c3e03"/>
                <path id="Trazado_167376" data-name="Trazado 167376" d="M229.426,78.38s20.818,2.865,25.211-4.094c3.049-4.829-.653-12.187-6.4-14.9l-1.045,4.444-1.176-2.614-1.54,2.876-1.989-1.569s-14.982,2.2-17.493,7.229A21.471,21.471,0,0,0,226.33,92.2c3.948-7.86,2.62-7.984,3.1-13.818" transform="translate(-168.866 -55.27)" fill="#c86e00"/>
                <path id="Trazado_167377" data-name="Trazado 167377" d="M227.07,114.807a2.1,2.1,0,0,0-3.1-2.029,3.5,3.5,0,0,0-1.428,3.121,9.269,9.269,0,0,0,.651,3.547,3.966,3.966,0,0,0,1.816,2.237,1.9,1.9,0,0,0,2.523-.77" transform="translate(-168.918 -83.478)" fill="#f6ba88"/>
                <path id="Trazado_167378" data-name="Trazado 167378" d="M225.2,119.692a3.19,3.19,0,0,0,1.519,2.4,3.217,3.217,0,0,1-.328-1.019,1.09,1.09,0,0,1,.361-.965.668.668,0,0,1,.945.122,10.688,10.688,0,0,1-.018-1.522,4.08,4.08,0,0,0-.194-1.5,1.734,1.734,0,0,0-1.017-1.066,1.115,1.115,0,0,0-1.318.471,1.253,1.253,0,0,1,1.456,1.733.664.664,0,0,0-.813-.287,1.009,1.009,0,0,0-.585.7,2.2,2.2,0,0,0-.008.937" transform="translate(-170.301 -85.367)" fill="#eda672"/>
                <path id="Trazado_167379" data-name="Trazado 167379" d="M185.514,164.052c6.941,3.632,9.627,29.148,3.174,28.562-.877,5.915-10.241,24.034-13.4,40.79,3.326,6.248-6.483-1.017-7.591,0-5.327-10.864-2.881-28.847-2.663-30.009,2.2-11.7,4.9-32.837,20.482-39.343" transform="translate(-137.991 -110.828)" fill="#f6ba88"/>
                <path id="Trazado_167380" data-name="Trazado 167380" d="M230.787,507.463c-.822-.471-.99,2.536-.325,2.862s11,.492,11.539-.324a2.167,2.167,0,0,0-.044-2.642c-3.217.23-8.372,1.707-11.17.1" transform="translate(-172.902 -293.059)" fill="#ddd"/>
                <path id="Trazado_167381" data-name="Trazado 167381" d="M230.741,499.982a2.535,2.535,0,0,1-.863-1.782,4.394,4.394,0,0,1,2.16-3.867,9.079,9.079,0,0,1,4.444-1.2,5.241,5.241,0,0,1,3.739.889c1.245,1.07,1.388,2.914,1.439,4.555a1.958,1.958,0,0,1-.318,1.4,1.864,1.864,0,0,1-1.05.472,21.626,21.626,0,0,1-7.822.156,3.644,3.644,0,0,1-1.729-.627" transform="translate(-172.804 -285.5)" fill="#963"/>
                <path id="Trazado_167382" data-name="Trazado 167382" d="M265.027,368.949a91.779,91.779,0,0,0,13.026-20.233" transform="translate(-191.467 -208.85)" fill="none" stroke="#2a7270" stroke-linecap="round" stroke-linejoin="round" stroke-width="6.2"/>
                <path id="Trazado_167383" data-name="Trazado 167383" d="M292.8,343.072a14.606,14.606,0,0,0,10.893-5.717" transform="translate(-206.209 -202.819)" fill="none" stroke="#2a7270" stroke-linecap="round" stroke-linejoin="round" stroke-width="6.2"/>
                <path id="Trazado_167384" data-name="Trazado 167384" d="M262.845,132.215a6.242,6.242,0,0,1,5.518-1.81,2.161,2.161,0,0,1,1.776,1.187" transform="translate(-190.309 -92.92)" fill="none" stroke="#d38854" stroke-linecap="round" stroke-linejoin="round" stroke-width="6.2"/>
                <path id="Trazado_167385" data-name="Trazado 167385" d="M262.184,134.7a2.136,2.136,0,0,1-.957-1.029" transform="translate(-189.45 -94.703)" fill="none" stroke="#d38854" stroke-linecap="round" stroke-linejoin="round" stroke-width="6.2"/>
                <path id="Trazado_167386" data-name="Trazado 167386" d="M277.712,132.937a1.468,1.468,0,0,0,.916-1.036" transform="translate(-198.201 -93.762)" fill="none" stroke="#d38854" stroke-linecap="round" stroke-linejoin="round" stroke-width="6.2"/>
                <path id="Trazado_167387" data-name="Trazado 167387" d="M259.962,145.342a23.663,23.663,0,0,0,13.47-2.792c-1.157,2.273-3.554,3.441-6.073,3.84a12.036,12.036,0,0,1-7.4-1.048" transform="translate(-188.779 -99.415)" fill="#eda672"/>
              </g>
            </g>
          </g>
        </g>
      </g>
    </g>
  </g>
</svg>
