<svg xmlns="http://www.w3.org/2000/svg" xmlns:xlink="http://www.w3.org/1999/xlink" width="105" height="105" viewBox="0 0 105 105">
  <defs>
    <clipPath id="clip-path">
      <rect id="Rectángulo_43335" data-name="Rectángulo 43335" width="65.391" height="65.449" fill="none"/>
    </clipPath>
  </defs>
  <g id="Grupo_170721" data-name="Grupo 170721" transform="translate(-1063.326 -839)">
    <path id="Trazado_165117" data-name="Trazado 165117" d="M52.5,0A52.5,52.5,0,1,1,0,52.5,52.5,52.5,0,0,1,52.5,0Z" transform="translate(1063.326 839)" fill="#a6bbff"/>
    <g id="Grupo_170975" data-name="Grupo 170975" transform="translate(1083.325 859)">
      <g id="Grupo_170975-2" data-name="Grupo 170975" transform="translate(0 0)" clip-path="url(#clip-path)">
        <path id="Trazado_166782" data-name="Trazado 166782" d="M.1,10.213A1.345,1.345,0,0,1,1.545,8.905a8.682,8.682,0,0,1,1.212-.014.928.928,0,0,1,.972.961.882.882,0,0,1-.972.947c-.714-.056-.707.267-.77.827a5.409,5.409,0,0,0,1.266,4.109c.627.807,1.027,1.565,2.283,1.041a3.261,3.261,0,0,1,2.429.215.4.4,0,0,0,.572-.181q.9-1.354,1.83-2.688a1.572,1.572,0,0,0,.193-.979c0-.383,0-.766,0-1.15a2.632,2.632,0,0,0-.036-1.009c-.163-.353-.611-.094-.925-.188a.931.931,0,0,1-.775-.952.869.869,0,0,1,.791-.926,5.187,5.187,0,0,1,1.842.048,1.1,1.1,0,0,1,.932.94,16.416,16.416,0,0,1-.024,4.512,2.743,2.743,0,0,1-.577,1.055c-.556.8-1.1,1.615-1.663,2.416-.161.229-.23.4-.017.659a4.494,4.494,0,0,1,1.041,2.942.787.787,0,0,0,.282.6c1.373,1.366,2.749,2.728,4.105,4.11a.678.678,0,0,0,.784.191,3.771,3.771,0,0,1,1.7-.147c.448.081.49-.108.482-.47a19.2,19.2,0,0,1,.67-6.123,14.4,14.4,0,0,1,1.4-3.2c.442-.734.718-.84,1.521-.6a1.125,1.125,0,0,1,.152,1.585,12.708,12.708,0,0,0-1.774,6.073c-.021.091.012.127.1.1q9.519.008,19.039.016c.808,0,1.617-.015,2.426-.024.85.008,1.7,0,2.549.033.386.016.424-.16.38-.457-.082-.568-.143-1.139-.243-1.7a11.663,11.663,0,0,0-10.1-9.557,12.459,12.459,0,0,0-9.075,2.008c-.545.364-1.044.551-1.617.112-.391-.829-.316-1.147.438-1.664a13.836,13.836,0,0,1,6.631-2.42c.586-.054.752-.23.767-.833A1.883,1.883,0,0,0,30.65,7.025,3.582,3.582,0,0,1,29.088,2.6a3.847,3.847,0,0,1,7.439.656,3.794,3.794,0,0,1-2.259,4.1.783.783,0,0,0-.579.934c.033.487-.154,1.081.064,1.44.236.389.9.207,1.368.292a13.822,13.822,0,0,1,11.8,13.791c.016.681.028,1.363.019,2.045,0,.322.056.459.431.4a4.123,4.123,0,0,1,1.83.167.592.592,0,0,0,.673-.184q2.066-2.091,4.156-4.156a.787.787,0,0,0,.267-.61,4.457,4.457,0,0,1,1.016-2.89.492.492,0,0,0,0-.71C54.7,17,54.1,16.12,53.5,15.243a2.217,2.217,0,0,1-.458-.972,18.989,18.989,0,0,1,0-4.267,1.154,1.154,0,0,1,1.106-1.06A9.5,9.5,0,0,1,55.673,8.9a.918.918,0,0,1,.949.984.865.865,0,0,1-.941.917c-.789-.065-.759.328-.815.921a5.313,5.313,0,0,0,1.183,3.886c.671.891,1.12,1.716,2.475,1.16a3.107,3.107,0,0,1,2.305.222.424.424,0,0,0,.614-.207c.573-.87,1.167-1.726,1.763-2.58a1.174,1.174,0,0,0,.227-.712c-.007-.746-.02-1.492,0-2.236.01-.336-.093-.457-.43-.431a1.77,1.77,0,0,1-.63-.065.869.869,0,0,1-.659-.966.842.842,0,0,1,.718-.855,4.722,4.722,0,0,1,1.967.05,1.141,1.141,0,0,1,.9,1.049,24.438,24.438,0,0,1-.009,4.21,2.258,2.258,0,0,1-.485,1.028c-.58.841-1.143,1.693-1.74,2.521a.605.605,0,0,0-.007.864,4.623,4.623,0,0,1,.5,5,4.706,4.706,0,0,1-4.246,2.8,1,1,0,0,0-.722.31q-2.542,2.565-5.105,5.107a1.287,1.287,0,0,0-.361.711,5.306,5.306,0,0,1-5.653,4.382c-.494-.026-.545.138-.542.556.018,2.386-.012,4.772.017,7.157a3.048,3.048,0,0,1-1.424,2.874.393.393,0,0,0-.192.47,5.3,5.3,0,0,1-1.083,4.138.8.8,0,0,0-.157.651q.212,1.775.418,3.551c.033.287.118.418.466.439a4.11,4.11,0,0,1,4.235,4.487q0,.735,0,1.47a2.37,2.37,0,0,1-1.8,2.7h-11.5c-.015-.1-.1-.121-.174-.157A2.278,2.278,0,0,1,34.343,63c.02-.7-.008-1.406.008-2.108a3.958,3.958,0,0,1,2.321-3.671.555.555,0,0,0,.375-.676c-.145-1.032-.262-2.068-.376-3.1a1.006,1.006,0,0,0-.323-.663,5.218,5.218,0,0,1-1.681-4.365c.031-.4-.1-.461-.445-.455-1,.017-2,.028-3,0-.441-.014-.576.088-.543.557a5.087,5.087,0,0,1-1.757,4.327,1.41,1.41,0,0,0-.51.965c-.1.931-.19,1.863-.322,2.789-.049.339.056.47.352.619A4.074,4.074,0,0,1,30.791,61c.012.553-.028,1.109.008,1.66a2.5,2.5,0,0,1-1.786,2.785H17.51a2.771,2.771,0,0,1-1.628-3.065c.036-.38,0-.766.006-1.15a4.138,4.138,0,0,1,4.232-4.443c.366-.019.446-.133.481-.472.13-1.249.3-2.494.46-3.739a.958.958,0,0,0-.179-.709,5.142,5.142,0,0,1-.861-3.822.425.425,0,0,0-.2-.526,2.878,2.878,0,0,1-1.328-2.662c.022-2.449,0-4.9.015-7.35,0-.42-.049-.582-.542-.556a5.306,5.306,0,0,1-5.655-4.382,1.287,1.287,0,0,0-.358-.712q-2.563-2.544-5.1-5.108a1.01,1.01,0,0,0-.723-.308,4.717,4.717,0,0,1-4.25-2.794,4.636,4.636,0,0,1,.535-5.047.538.538,0,0,0,0-.756A25.7,25.7,0,0,1,0,14.064v-.128c.125-.047.119-.155.118-.259Q.109,11.945.1,10.213M42.044,25.589a.892.892,0,0,0-.126-.017q-10.507,0-21.013-.016c-.5,0-.476.236-.476.576q.007,9.326,0,18.652c0,.989.255,1.244,1.24,1.244q6.834,0,13.668,0c2.235,0,4.47-.014,6.7-.022.617.007,1.235.027,1.851.019A.977.977,0,0,0,45,44.926q.009-9.456.012-18.912c0-.382-.138-.462-.482-.452-.83.026-1.66.019-2.491.026m-.279,37.932v0c1.617,0,3.233-.012,4.849.008.477.006.711-.118.681-.644-.036-.636,0-1.276-.01-1.914A2.111,2.111,0,0,0,45.2,58.748q-3.411-.088-6.826-.01a2.1,2.1,0,0,0-2.094,2.2c-.013.638.027,1.278-.012,1.914-.035.552.2.686.71.678,1.595-.025,3.19-.009,4.784-.009m-18.375,0v0c1.595,0,3.19-.018,4.784.01.541.009.718-.192.692-.71-.031-.615.008-1.234-.011-1.85A2.147,2.147,0,0,0,26.7,58.739q-3.347-.072-6.7-.008a2.126,2.126,0,0,0-2.165,2.205c-.022.637.022,1.277-.013,1.913-.03.547.2.689.715.681,1.615-.025,3.231-.009,4.847-.009M9.215,21.559a2.946,2.946,0,1,0-5.891.046,2.945,2.945,0,0,0,5.891-.046m49.9-2.936a2.916,2.916,0,0,0-2.887,3.01,2.945,2.945,0,1,0,2.887-3.01M18.494,31.575V29.02c0-.814-.061-.871-.911-.861a3.451,3.451,0,1,0,.449,6.876c.351-.039.473-.169.467-.519-.018-.98-.006-1.96-.006-2.94m28.449.02v2.556c0,.9,0,.9.926.9.128,0,.255-.007.382-.02a3.438,3.438,0,0,0,3-3.848,3.49,3.49,0,0,0-3.674-3.015c-.431.041-.68.15-.648.685.055.912.015,1.831.015,2.746m-6.906,16.37c-.894,0-1.792.05-2.682-.016-.667-.049-.781.263-.795.808a3.456,3.456,0,1,0,6.893-.279c-.041-.407-.2-.535-.606-.522-.936.03-1.874.009-2.811.009m-14.669,0H22.749c-.821,0-.877.058-.877.9a3.454,3.454,0,1,0,6.883-.424c-.045-.387-.213-.488-.578-.48-.937.021-1.874.007-2.81.007m-11.3-20.447a1.318,1.318,0,0,0-.123-.183q-1.6-1.605-3.207-3.208c-.158-.158-.252-.071-.345.072a4.919,4.919,0,0,1-1.479,1.479c-.185.119-.219.212-.046.384q1.724,1.708,3.434,3.433c.2.2.289.16.4-.087a5.187,5.187,0,0,1,1.166-1.663c.073-.07.135-.15.2-.227m37.3-.013a1.65,1.65,0,0,0,.136.172,5.459,5.459,0,0,1,1.273,1.808c.134.3.26.1.37-.007,1.128-1.123,2.248-2.254,3.381-3.371.209-.205.2-.307-.048-.465A4.269,4.269,0,0,1,55.1,24.26c-.2-.321-.331-.2-.521-.012-.986.995-1.98,1.982-2.968,2.973-.087.087-.159.189-.238.283M32.729,5.745A1.916,1.916,0,0,0,34.62,3.817a1.906,1.906,0,0,0-3.812.036,1.9,1.9,0,0,0,1.921,1.892M22.879,53.66c-.124.97-.239,1.893-.363,2.814-.048.357.2.3.4.3.912-.006,1.826-.037,2.738-.019.378.008.475-.172.5-.484.055-.57.1-1.142.186-1.707.045-.3-.027-.386-.318-.35a5.783,5.783,0,0,1-3.151-.556m17.907,3.117v-.029c.4,0,.809-.027,1.209.007.439.038.622-.088.549-.557-.107-.691-.185-1.387-.254-2.083-.03-.293-.147-.29-.375-.2a4.519,4.519,0,0,1-1.869.307c-.432-.018-1.071-.209-1.249,0-.271.312.033.882.067,1.344.09,1.214.1,1.213,1.285,1.213h.637" transform="translate(0 0)" fill="#030303"/>
        <path id="Trazado_166783" data-name="Trazado 166783" d="M.1,18.616l.02,3.464c0,.1.007.212-.119.259V18.632l.044-.043Z" transform="translate(0 -8.403)" fill="#9c9595"/>
        <path id="Trazado_166784" data-name="Trazado 166784" d="M37.365,33.23a12.718,12.718,0,0,1,1.774-6.073,1.125,1.125,0,0,0-.152-1.585,13.083,13.083,0,0,1,1.842-1.812c.573.44,1.071.252,1.617-.111a12.462,12.462,0,0,1,9.075-2.008c.018.149.13.207.247.264a12.186,12.186,0,0,1,4.176,3.262,13.931,13.931,0,0,1,2.991,8.158c-.809.008-1.617.024-2.426.024q-9.519-.006-19.039-.016l-.1-.1m7.771-7.818a3.151,3.151,0,1,0,3.181,3.141,3.164,3.164,0,0,0-3.181-3.141m8.93,6.3a3.151,3.151,0,1,0-3.156-3.169,3.165,3.165,0,0,0,3.156,3.169" transform="translate(-16.89 -9.71)" fill="#ecdfda"/>
        <path id="Trazado_166785" data-name="Trazado 166785" d="M58.9,67.086c-2.235.008-4.47.02-6.7.022q-6.835.006-13.668,0c-.985,0-1.24-.255-1.24-1.244q0-9.326,0-18.652c0-.341-.028-.578.475-.576q10.507.03,21.014.016a.915.915,0,0,1,.126.017l0,20.417M50.98,62.372c.237.822.465,1,1.3,1,1.085,0,2.17.007,3.255,0a2,2,0,0,0,2.156-2.088q.039-2.265,0-4.532A1.973,1.973,0,0,0,55.577,54.7q-5.968-.008-11.935,0a1.988,1.988,0,0,0-2.093,2.082q-.028,2.233,0,4.468a2.012,2.012,0,0,0,2.125,2.123c1.149.011,2.3.007,3.447,0,.785,0,1.053-.227,1.23-.993l2.63-.011m-7.2-10.983c.446,0,.892.02,1.335,0a.879.879,0,0,0,.9-.882.9.9,0,0,0-.833-1.014c-.91-.044-1.824-.041-2.734-.005a.953.953,0,0,0,.058,1.9c.423.021.848,0,1.272,0m11.648,0c.445,0,.891.019,1.335,0a.917.917,0,0,0,.922-.936.926.926,0,0,0-.9-.968c-.889-.035-1.78-.035-2.669,0a.953.953,0,0,0,.038,1.9c.423.022.848,0,1.271,0" transform="translate(-16.851 -21.08)" fill="#ccbdb8"/>
        <path id="Trazado_166786" data-name="Trazado 166786" d="M76.728,67.091l0-20.417c.83-.007,1.661,0,2.491-.026.344-.011.482.07.482.452q-.017,9.456-.012,18.912a.977.977,0,0,1-1.107,1.1c-.617.009-1.234-.011-1.851-.019" transform="translate(-34.682 -21.085)" fill="#9c9595"/>
        <path id="Trazado_166787" data-name="Trazado 166787" d="M71.681,111.943c-1.6,0-3.19-.016-4.785.009-.51.008-.744-.126-.71-.678.039-.636,0-1.276.012-1.914a2.1,2.1,0,0,1,2.095-2.2q3.411-.073,6.825.01a2.11,2.11,0,0,1,2.082,2.219c.012.638-.025,1.277.011,1.914.03.527-.2.65-.682.644-1.616-.02-3.233-.008-4.849-.008Z" transform="translate(-29.916 -48.422)" fill="#fbb23f"/>
        <path id="Trazado_166788" data-name="Trazado 166788" d="M38.093,111.943c-1.616,0-3.232-.016-4.847.009-.513.008-.745-.134-.716-.681.035-.636-.009-1.276.013-1.913a2.126,2.126,0,0,1,2.166-2.205q3.347-.059,6.7.008a2.147,2.147,0,0,1,2.152,2.228c.019.616-.02,1.235.011,1.849.026.518-.15.719-.692.71-1.594-.028-3.189-.01-4.784-.01Z" transform="translate(-14.703 -48.422)" fill="#fbb23f"/>
        <path id="Trazado_166789" data-name="Trazado 166789" d="M70.611,33.457A13.931,13.931,0,0,0,67.62,25.3a12.186,12.186,0,0,0-4.176-3.262c-.117-.058-.23-.115-.247-.264A11.665,11.665,0,0,1,73.3,31.33c.1.564.161,1.135.243,1.7.043.3.005.473-.38.457-.849-.036-1.7-.025-2.549-.033" transform="translate(-28.566 -9.841)" fill="#ccbdb8"/>
        <path id="Trazado_166790" data-name="Trazado 166790" d="M11.957,36.919a2.946,2.946,0,1,1-2.965-2.938,2.921,2.921,0,0,1,2.965,2.938" transform="translate(-2.742 -15.36)" fill="#fbb23f"/>
        <path id="Trazado_166791" data-name="Trazado 166791" d="M105.487,33.986a2.942,2.942,0,0,1,3,2.907,2.945,2.945,0,0,1-5.89.1,2.915,2.915,0,0,1,2.887-3.01" transform="translate(-46.377 -15.362)" fill="#fbb23f"/>
        <path id="Trazado_166792" data-name="Trazado 166792" d="M30.184,54.8c0,.98-.012,1.96.006,2.939.007.351-.116.48-.467.519a3.451,3.451,0,1,1-.449-6.876c.85-.009.911.048.911.861V54.8" transform="translate(-11.689 -23.226)" fill="#fbb23f"/>
        <path id="Trazado_166793" data-name="Trazado 166793" d="M85.652,54.817c0-.916.039-1.834-.015-2.747-.032-.535.217-.644.648-.684A3.491,3.491,0,0,1,89.959,54.4a3.438,3.438,0,0,1-3,3.848c-.127.013-.255.019-.383.02-.926.009-.926.009-.926-.9V54.817" transform="translate(-38.708 -23.221)" fill="#fbb23f"/>
        <path id="Trazado_166794" data-name="Trazado 166794" d="M70.2,87.513c.937,0,1.875.02,2.811-.009.407-.013.565.116.606.522a3.456,3.456,0,1,1-6.893.279c.013-.545.127-.858.795-.808.889.066,1.788.016,2.682.016" transform="translate(-30.158 -39.548)" fill="#fbb23f"/>
        <path id="Trazado_166795" data-name="Trazado 166795" d="M43.411,87.525c.937,0,1.874.014,2.81-.007.365-.008.532.093.578.48a3.453,3.453,0,1,1-6.883.424c0-.839.056-.9.876-.9h2.619" transform="translate(-18.043 -39.559)" fill="#fbb23f"/>
        <path id="Trazado_166796" data-name="Trazado 166796" d="M21.29,47.35c-.068.077-.13.157-.2.227a5.187,5.187,0,0,0-1.166,1.663c-.109.247-.2.288-.4.087Q17.813,47.6,16.09,45.893c-.173-.172-.139-.265.046-.384a4.919,4.919,0,0,0,1.479-1.479c.093-.144.187-.23.345-.072q1.6,1.605,3.207,3.208a1.319,1.319,0,0,1,.123.183" transform="translate(-7.222 -19.832)" fill="#9c9595"/>
        <path id="Trazado_166797" data-name="Trazado 166797" d="M93.747,47.352c.079-.095.151-.2.238-.283.989-.992,1.983-1.979,2.969-2.973.19-.191.322-.31.52.012a4.264,4.264,0,0,0,1.386,1.381c.252.157.256.259.048.465-1.133,1.117-2.253,2.248-3.381,3.371-.111.11-.237.306-.37.007a5.474,5.474,0,0,0-1.273-1.809,1.567,1.567,0,0,1-.136-.172" transform="translate(-42.375 -19.847)" fill="#9c9595"/>
        <path id="Trazado_166798" data-name="Trazado 166798" d="M58.142,7.349a1.9,1.9,0,0,1-1.921-1.892,1.906,1.906,0,1,1,1.921,1.892" transform="translate(-25.413 -1.605)" fill="#fbb23f"/>
        <path id="Trazado_166799" data-name="Trazado 166799" d="M41.448,97.922a5.783,5.783,0,0,0,3.151.556c.291-.036.363.055.317.35-.087.565-.131,1.137-.186,1.707-.03.312-.127.492-.5.484-.912-.019-1.825.013-2.738.019-.2,0-.45.056-.4-.3.123-.921.238-1.844.363-2.814" transform="translate(-18.569 -44.263)" fill="#9c9595"/>
        <path id="Trazado_166800" data-name="Trazado 166800" d="M72.7,101.206h-.637c-1.184,0-1.195,0-1.285-1.213-.035-.462-.339-1.032-.067-1.344.178-.205.817-.014,1.249,0a4.519,4.519,0,0,0,1.869-.307c.228-.09.346-.094.375.2.07.7.147,1.392.254,2.083.073.469-.11.595-.549.557-.4-.035-.806-.007-1.209-.007v.029" transform="translate(-31.91 -44.43)" fill="#9c9595"/>
        <path id="Trazado_166801" data-name="Trazado 166801" d="M37.36,42.921l.1.1c-.093.025-.126-.011-.1-.1" transform="translate(-16.884 -19.401)" fill="#ccbdb8"/>
        <path id="Trazado_166802" data-name="Trazado 166802" d="M48.939,28.656a3.151,3.151,0,1,1-3.161,3.161,3.164,3.164,0,0,1,3.161-3.161m.041,1.925a1.228,1.228,0,1,0-.058,2.456,1.228,1.228,0,1,0,.058-2.456" transform="translate(-20.692 -12.953)" fill="#030303"/>
        <path id="Trazado_166803" data-name="Trazado 166803" d="M65.24,34.958a3.151,3.151,0,1,1,3.191-3.133,3.167,3.167,0,0,1-3.191,3.133m.048-4.378a1.229,1.229,0,1,0,1.22,1.225,1.244,1.244,0,0,0-1.22-1.225" transform="translate(-28.063 -12.953)" fill="#030303"/>
        <path id="Trazado_166804" data-name="Trazado 166804" d="M51.861,69.033c-.176.766-.445.989-1.23.993-1.149.006-2.3.01-3.446,0A2.013,2.013,0,0,1,45.059,67.9c-.016-1.489-.018-2.979,0-4.468a1.987,1.987,0,0,1,2.092-2.082q5.968-.011,11.935,0A1.973,1.973,0,0,1,61.2,63.407q.043,2.265,0,4.532a2,2,0,0,1-2.156,2.088c-1.085.008-2.17,0-3.255,0-.836,0-1.064-.182-1.3-1a1.121,1.121,0,0,1,1.315-.92c.978.042,1.96-.01,2.939.02.433.013.544-.141.535-.551-.028-1.277-.032-2.556-.019-3.834,0-.371-.13-.465-.483-.464q-5.655.016-11.31,0c-.35,0-.49.085-.486.461q.022,1.917-.014,3.834c-.008.408.106.565.538.553,1.043-.027,2.088.013,3.131-.016a1.047,1.047,0,0,1,1.224.928" transform="translate(-20.362 -27.73)" fill="#030303"/>
        <path id="Trazado_166805" data-name="Trazado 166805" d="M53.446,70.622a1.047,1.047,0,0,0-1.224-.928c-1.043.03-2.088-.011-3.131.016-.432.012-.546-.146-.538-.553q.037-1.916.014-3.834c0-.375.135-.462.486-.461q5.655.016,11.31,0c.353,0,.487.093.483.464-.013,1.278-.009,2.556.019,3.834.009.41-.1.564-.535.551-.979-.03-1.961.022-2.939-.02a1.121,1.121,0,0,0-1.315.92l-2.63.011" transform="translate(-21.947 -29.319)" fill="#9c9595"/>
        <path id="Trazado_166806" data-name="Trazado 166806" d="M47.3,53.715c-.424,0-.849.018-1.272,0a.953.953,0,0,1-.058-1.9c.91-.036,1.824-.039,2.734.005a.9.9,0,0,1,.833,1.014.878.878,0,0,1-.9.882c-.444.026-.89.005-1.335.006" transform="translate(-20.376 -23.406)" fill="#030303"/>
        <path id="Trazado_166807" data-name="Trazado 166807" d="M68.576,53.715c-.424,0-.848.018-1.271,0a.953.953,0,0,1-.038-1.9c.888-.036,1.78-.035,2.669,0a.927.927,0,0,1,.9.968.917.917,0,0,1-.922.936c-.444.024-.89,0-1.335,0" transform="translate(-30.004 -23.406)" fill="#030303"/>
        <path id="Trazado_166808" data-name="Trazado 166808" d="M50.58,32.168a1.228,1.228,0,1,1-.058,2.456,1.228,1.228,0,1,1,.058-2.456" transform="translate(-22.292 -14.54)" fill="#9c9595"/>
        <path id="Trazado_166809" data-name="Trazado 166809" d="M66.876,32.168A1.229,1.229,0,1,1,65.6,33.4a1.249,1.249,0,0,1,1.28-1.228" transform="translate(-29.651 -14.54)" fill="#9c9595"/>
      </g>
    </g>
  </g>
</svg>
