<svg xmlns="http://www.w3.org/2000/svg" xmlns:xlink="http://www.w3.org/1999/xlink" width="88" height="88" viewBox="0 0 88 88">
  <defs>
    <clipPath id="clip-path">
      <rect id="Rectángulo_43556" data-name="Rectángulo 43556" width="44.219" height="54.878" fill="none"/>
    </clipPath>
  </defs>
  <g id="Grupo_171336" data-name="Grupo 171336" transform="translate(-1071 -907)">
    <circle id="Elipse_4716" data-name="Elipse 4716" cx="44" cy="44" r="44" transform="translate(1071 907)" fill="#6b8dfc"/>
    <g id="Grupo_171335" data-name="Grupo 171335" transform="translate(1092.891 924)">
      <g id="Grupo_171335-2" data-name="Grupo 171335" clip-path="url(#clip-path)">
        <path id="Trazado_169087" data-name="Trazado 169087" d="M14.319,2.659c-.18-.656-.084-.9.5-1.224a10.862,10.862,0,0,1,5.156-1.4C23.186,0,26.4-.019,29.611.031a11.418,11.418,0,0,1,10.927,9.9,62.449,62.449,0,0,1,.1,6.795,2.006,2.006,0,0,0,.617,1.578,4.263,4.263,0,0,1,.243,5.623,4.342,4.342,0,0,1-5.534,1.1c-.185-.1-.363-.222-.63-.387,0,.7-.011,1.349.005,2,.007.279.278.225.449.273a8.654,8.654,0,0,1,6.021,5.31,8.486,8.486,0,0,1-.36,7.241.588.588,0,0,0,.05.706,14.781,14.781,0,0,1,2.7,8.473c.007,1.017-.046,2.038.015,3.052a2.83,2.83,0,0,1-2.069,3.189H11.287a.793.793,0,0,1-.672-.8c.114-.672.431-.941,1.187-.949,1.516-.016,3.032,0,4.549-.007,1.4-.007,1.127.143,1.236-1.236a2.066,2.066,0,0,0-1.2-2.279A5.216,5.216,0,0,1,14.619,48a.711.711,0,0,0-.919-.292,4.47,4.47,0,0,1-5.715-3.238.881.881,0,0,0-.627-.7,8.926,8.926,0,0,1-3.019-1.89c-.375-.353-.465-.347-.717.1a12.7,12.7,0,0,0-1.828,6.355c0,1.213,0,2.426,0,3.64,0,.866.282,1.147,1.163,1.151,1.713.01,3.425-.008,5.138.008.737.007.991.229,1.148.929a.807.807,0,0,1-.637.823H2.074A3.518,3.518,0,0,1,.646,54a2.182,2.182,0,0,1-.6-1.342,37.215,37.215,0,0,1,.189-6.464,14.686,14.686,0,0,1,2.479-6.023.583.583,0,0,0,.052-.706A8.77,8.77,0,0,1,8.476,26.91c.315-.08.43-.2.417-.535-.028-.713-.03-1.428,0-2.141.015-.368-.118-.454-.456-.433a4.1,4.1,0,0,1-1.012-.039A2.511,2.511,0,0,1,5.35,21.423a14.547,14.547,0,0,1,0-2.14,2.436,2.436,0,0,1,1.607-2.205c.3-.122.285-.242.246-.5A16.509,16.509,0,0,1,7.155,12.9a1.386,1.386,0,0,1,1.261-1.277c.473-.059.474-.277.487-.62a11.21,11.21,0,0,1,2.806-7.059c.5-.574.728-.61,1.381-.263a.765.765,0,0,1,.08,1.234A12.594,12.594,0,0,0,11.8,6.885a8.8,8.8,0,0,0-1.1,3.88c-.028.619.036.669.665.669q10.735,0,21.471,0c.694,0,.8-.168.649-1.022a6.155,6.155,0,0,0-4.93-4.966q-.526-.1-1.06-.146a.947.947,0,1,1,.064-1.886A7.688,7.688,0,0,1,31.93,4.8a7.806,7.806,0,0,1,3.5,6.087.6.6,0,0,0,.472.61,1.77,1.77,0,0,1,1.348,1.887c0,1.017.046,2.035-.031,3.051-.012.162-.05.334.192.357a4.137,4.137,0,0,1,.958-.033c.382.092.517-.092.515-.458,0-1.089.011-2.178-.005-3.267a18.711,18.711,0,0,0-.1-3.045,9.674,9.674,0,0,0-6.334-7.674,2.319,2.319,0,0,0-.679-.137,8.525,8.525,0,0,0-2.79-.4c-2.726.011-5.452.02-8.177,0a10.109,10.109,0,0,0-5,1.136,1.526,1.526,0,0,1-.652.227c-.375.016-.719-.04-.833-.483" transform="translate(0 0)" fill="#0c0a0b"/>
        <path id="Trazado_169088" data-name="Trazado 169088" d="M60.023,20.4c-.369.112-.473.063-.4-.388a16.92,16.92,0,0,0,.048-3.629,1.493,1.493,0,0,0-1.315-1.3c-.346-.046-.432-.167-.451-.5A7.833,7.833,0,0,0,51.532,7.2a8,8,0,0,0-1.38-.145.816.816,0,0,0-.924.816c.006.447.361.753.906.782a6.308,6.308,0,0,1,6.085,5.138c.264,1.223.235,1.261-.984,1.261H33.761c-.669,0-.673,0-.639-.673A9.487,9.487,0,0,1,35.513,8.5a.98.98,0,0,0,.179-1.338l1.229-1.017a.909.909,0,0,0,1.281.183A10.046,10.046,0,0,1,43.232,5.1c2.818.017,5.637.006,8.455,0a7.5,7.5,0,0,1,2.769.423,8.585,8.585,0,0,1,3.316,2.7,10.769,10.769,0,0,1,2.4,6.927c.02,1.513.006,3.026,0,4.54,0,.244.048.5-.151.709" transform="translate(-22.602 -3.482)" fill="#df343f"/>
        <path id="Trazado_169089" data-name="Trazado 169089" d="M31.085,89.176a8.008,8.008,0,0,1-8-2.792,1.814,1.814,0,0,0-2.548-.716,2.744,2.744,0,0,1-3.679-2.39c-.094-.868-.227-1.032-1.029-1.275a7.183,7.183,0,0,1,.874-14c.368-.062.747-.058,1.12-.088a.78.78,0,0,0,.8-.722.716.716,0,0,0-.586-.834c-.26-.058-.289-.2-.289-.415,0-2.464.009-4.929,0-7.393,0-.347.128-.426.439-.407.478.03,1.093-.146,1.4.09.333.254.095.9.111,1.372a21.909,21.909,0,0,0,.226,4.268,8.994,8.994,0,0,0,.932,2.491c.169.293.116.438-.11.662a8.972,8.972,0,0,0-2.619,8.506,1.172,1.172,0,0,0,1.029,1.044,9.072,9.072,0,0,0,9.9-4.482c.091-.167.181-.335.274-.507.182.074.194.232.255.349A9.068,9.068,0,0,0,39.665,76.56a1.086,1.086,0,0,0,.93-.95,8.972,8.972,0,0,0-2.548-8.528.546.546,0,0,1-.125-.791,9.281,9.281,0,0,0,1.116-4.572q-.012-1.5,0-3c0-.168-.08-.356.073-.506.257-.089.306.1.349.274a2.683,2.683,0,0,1,.036.64c0,2.321.01,4.641-.007,6.962,0,.505.077.918.583,1.139a.987.987,0,0,0,1.052.71,3.368,3.368,0,0,1,1.2.154,6.927,6.927,0,0,1,3.682,4.1,8.113,8.113,0,0,1-2.7,9.43c-.306.229-.673.323-.982.533a5.057,5.057,0,0,1-1.531.732.606.606,0,0,0-.481.613,3.482,3.482,0,0,1-.971,2.09.549.549,0,0,1-.662.185,1.471,1.471,0,0,1-.665-.165,1.717,1.717,0,0,0-2.247.619c-.055.068-.121.126-.182.188a.406.406,0,0,1-.407.032c-.534-.251-.866.033-1.18.419A8.76,8.76,0,0,1,31.9,88.8a3.578,3.578,0,0,1-.815.379" transform="translate(-7.262 -39.669)" fill="#f5f9fc"/>
        <path id="Trazado_169090" data-name="Trazado 169090" d="M14.186,142.979l-1.576-.006c-.213-.694-.377-.818-1.106-.818q-2.6,0-5.195,0c-.875,0-1.225-.326-1.211-1.181a43.161,43.161,0,0,1,.125-5.295,13.151,13.151,0,0,1,1.966-5.269c.15-.237.253-.28.465-.053a8.392,8.392,0,0,0,3.519,2.261.5.5,0,0,1,.37.452,4.312,4.312,0,0,0,5.763,3.312.518.518,0,0,1,.713.181,8.717,8.717,0,0,0,2.839,2.4.607.607,0,0,1,.353.638c-.017.7-.026,1.394,0,2.089.017.382-.113.477-.483.474-1.856-.018-3.713-.011-5.569-.006-.617,0-.847.2-.977.823" transform="translate(-3.467 -88.883)" fill="#df343f"/>
        <path id="Trazado_169091" data-name="Trazado 169091" d="M40.249,92.671c-1.7-.082-1.543.143-1.569-1.6a7.407,7.407,0,0,1,5.962-7.294c.338-.067.566-.059.764.326a2.338,2.338,0,0,0,1.97,1.288,13.129,13.129,0,0,0,2.245,0,2.386,2.386,0,0,0,2.013-1.314.529.529,0,0,1,.669-.317,7.483,7.483,0,0,1,5.966,6.219,9.875,9.875,0,0,1,.028,2.079c-.036.431-.238.535-.591.569a7.44,7.44,0,0,1-6.282-2.2,6.467,6.467,0,0,1-1.319-1.87A1.693,1.693,0,0,0,48.5,87.377,1.755,1.755,0,0,0,46.9,88.59a7.333,7.333,0,0,1-6.653,4.081" transform="translate(-26.403 -57.168)" fill="#e0e0fe"/>
        <path id="Trazado_169092" data-name="Trazado 169092" d="M97.579,144.09l-13.8.017a.5.5,0,0,0-.053,0c-.228.024-.316-.075-.314-.306q.012-1.2,0-2.408a.423.423,0,0,1,.262-.416,9.421,9.421,0,0,0,2.995-2.542.4.4,0,0,1,.54-.136,4.308,4.308,0,0,0,5.873-3.321.469.469,0,0,1,.359-.4,9.386,9.386,0,0,0,2.748-1.51c.3-.013.389.226.483.428a14.215,14.215,0,0,1,1.293,4.718c.145,1.568.069,3.134.087,4.7a1.172,1.172,0,0,1-.47,1.176" transform="translate(-56.939 -90.835)" fill="#df343f"/>
        <path id="Trazado_169093" data-name="Trazado 169093" d="M52.3,45.155c-.178.01-.355.028-.532.028H28.8c-1.118,0-1.349-.231-1.349-1.343,0-.679.011-1.357-.005-2.036-.006-.259.076-.362.332-.328a1.658,1.658,0,0,0,.214,0q12.049,0,24.1,0c.178,0,.355.018.533.028a.566.566,0,0,1,.154.387,12.908,12.908,0,0,1-.1,2.649.819.819,0,0,1-.373.611" transform="translate(-18.734 -28.31)" fill="#f5f9fc"/>
        <path id="Trazado_169094" data-name="Trazado 169094" d="M52.315,58.213c2.517,0,5.034.01,7.551-.01.406,0,.52.107.5.508a39.062,39.062,0,0,1-.137,4.6,8.071,8.071,0,0,1-.719,2.172c-.132.278-.242.369-.549.195a7.784,7.784,0,0,0-2.977-.967.529.529,0,0,1-.461-.364,2.443,2.443,0,0,0-2.117-1.5,15.234,15.234,0,0,0-2.193,0,2.448,2.448,0,0,0-2.13,1.483.571.571,0,0,1-.5.388,7.727,7.727,0,0,0-2.88.926c-.317.174-.466.174-.633-.185a7.879,7.879,0,0,1-.815-3.186c-.023-1.2,0-2.393-.024-3.588-.009-.38.111-.476.481-.474,2.535.015,5.07.008,7.6.008" transform="translate(-30.193 -39.731)" fill="#fec6b4"/>
        <path id="Trazado_169095" data-name="Trazado 169095" d="M105.936,21.32c0-1.906.081-3.817-.013-5.719a10.589,10.589,0,0,0-4.87-8.656c-.234-.158-.456-.333-.684-.5a7.8,7.8,0,0,1,3.58,1.819,9.6,9.6,0,0,1,3.6,7.618c.013,1.678-.006,3.356.01,5.035,0,.36-.106.5-.458.409a4.456,4.456,0,0,0-1.17-.007" transform="translate(-68.515 -4.4)" fill="#b43a4c"/>
        <path id="Trazado_169096" data-name="Trazado 169096" d="M110.459,103.575a8.173,8.173,0,0,0,3.766-4.665,8.035,8.035,0,0,0-2.669-8.581c-.352-.274-.755-.467-1.082-.772a7.168,7.168,0,0,1,.116,14.03.076.076,0,0,1-.131-.012" transform="translate(-75.403 -61.135)" fill="#cbcbfe"/>
        <path id="Trazado_169097" data-name="Trazado 169097" d="M125.062,142.339a2.334,2.334,0,0,0,.326-1.272c-.017-1.159.028-2.32-.013-3.477A14.212,14.212,0,0,0,124,131.783c-.084-.173-.133-.375-.334-.466.117-.108.235-.215.351-.324.731-.684.738-.688,1.243.205A12.824,12.824,0,0,1,127,137.463c.012,1.231.008,2.463.005,3.694,0,.866-.333,1.2-1.195,1.2-.249,0-.5-.01-.748-.016" transform="translate(-84.421 -89.085)" fill="#b43a4c"/>
        <path id="Trazado_169098" data-name="Trazado 169098" d="M101.328,67.289c-.681-.024-.744-.083-.745-.738,0-2.566,0-5.132-.006-7.7,0-.2.13-.486-.211-.578A8.076,8.076,0,0,1,102,58.216c.237-.013.237.16.237.328q0,3.748,0,7.5c0,.164.011.322-.215.361-.493.087-.647.447-.693.888" transform="translate(-68.513 -39.731)" fill="#cbcbfe"/>
        <path id="Trazado_169099" data-name="Trazado 169099" d="M64.788,162.9c-1.155.006-2.31,0-3.464.023-.272,0-.376-.067-.365-.355.021-.55.017-1.1,0-1.653-.007-.264.051-.34.329-.263a10.558,10.558,0,0,0,3.165.321c.222-.079.421-.035.446.214a2.746,2.746,0,0,1-.113,1.713" transform="translate(-41.612 -109.648)" fill="#f5f9fc"/>
        <path id="Trazado_169100" data-name="Trazado 169100" d="M120.08,60.162c-.03-.352-.064-.7-.086-1.057-.007-.115-.115-.273.019-.335.086-.04.237.03.348.077a2.731,2.731,0,0,1-.528,5.17,1.537,1.537,0,0,1-.939.019c.223-.362.607-.582.818-.964a3.978,3.978,0,0,0,.368-2.91" transform="translate(-81.161 -40.11)" fill="#cbcbfe"/>
        <path id="Trazado_169101" data-name="Trazado 169101" d="M23.769,59.863c0,.5,0,1,0,1.5,0,.128.059.28-.132.36a1.282,1.282,0,0,1-1.82-1.165c-.009-.517-.025-1.036.008-1.551a1.336,1.336,0,0,1,1.838-.973c.135.082.108.212.109.332,0,.5,0,1,0,1.5" transform="translate(-14.882 -39.528)" fill="#fca99c"/>
        <path id="Trazado_169102" data-name="Trazado 169102" d="M111.305,60.037c0-.5.007-1,0-1.5,0-.239.062-.34.327-.36,1.231-.09,1.632.264,1.633,1.487,0,.357.006.713,0,1.07a1.283,1.283,0,0,1-1.823,1.161c-.19-.082-.127-.235-.129-.362-.008-.5,0-1,0-1.5" transform="translate(-75.977 -39.706)" fill="#fca99c"/>
        <path id="Trazado_169103" data-name="Trazado 169103" d="M65.713,77.813c.3,0,.607-.023.908,0a.94.94,0,0,1,.916.932.91.91,0,0,1-.9.99,14.3,14.3,0,0,1-1.92-.008.9.9,0,0,1-.864-.966.936.936,0,0,1,.9-.945c.318-.03.64-.005.961-.006" transform="translate(-43.587 -53.112)" fill="#fda99d"/>
        <path id="Trazado_169104" data-name="Trazado 169104" d="M105.779,45.11a3.371,3.371,0,0,0,.313-1.583c.012-.688,0-1.376,0-2.064,1.612-.142,1.612-.142,1.612,1.418,0,.41,0,.82,0,1.23a.9.9,0,0,1-.968,1.022c-.319.012-.639-.015-.959-.024" transform="translate(-72.208 -28.264)" fill="#cbcbfe"/>
        <path id="Trazado_169105" data-name="Trazado 169105" d="M102.648,133.726l.131.012a1.4,1.4,0,0,0-.583,1.122,2.685,2.685,0,0,1-3.179,2.526c.5.023.7-.4.917-.708a2.828,2.828,0,0,0,.583-1.737.441.441,0,0,1,.355-.516,12.936,12.936,0,0,0,1.777-.7" transform="translate(-67.592 -91.286)" fill="#cbcbfd"/>
        <path id="Trazado_169106" data-name="Trazado 169106" d="M72.311,162.892c0-.507-.011-1.015.008-1.521.01-.261-.076-.4-.341-.405.592-.112,1.186-.212,1.774-.342.218-.048.245.038.244.21,0,.606-.008,1.213,0,1.819,0,.229-.114.263-.3.258-.463-.011-.926-.013-1.389-.019" transform="translate(-49.135 -109.638)" fill="#cacafc"/>
        <path id="Trazado_169107" data-name="Trazado 169107" d="M75.063,149.574a10.132,10.132,0,0,0,2.943-2.547.858.858,0,0,1,1.209-.3,1.272,1.272,0,0,0,.357.082,7.579,7.579,0,0,1-4.509,2.764" transform="translate(-51.24 -100.067)" fill="#cbcbfd"/>
        <path id="Trazado_169108" data-name="Trazado 169108" d="M118.554,63.183c.641,1.319-.061,3.445-1.187,3.874a1.482,1.482,0,0,1-.709-.171c.207-.106.394-.187.566-.292a2.58,2.58,0,0,0,1.3-2.243c.015-.389.022-.779.033-1.168" transform="translate(-79.635 -43.131)" fill="#f2f6fa"/>
        <path id="Trazado_169109" data-name="Trazado 169109" d="M61.353,126.5a4.389,4.389,0,0,1-3.632-1.936c-.377-.535-.327-1.031.1-1.311s.847-.138,1.215.375a2.728,2.728,0,0,0,4.591.013c.384-.536.843-.671,1.257-.369.394.287.433.765.076,1.278a4.381,4.381,0,0,1-3.606,1.95" transform="translate(-39.229 -84.045)" fill="#0c0a0b"/>
        <path id="Trazado_169110" data-name="Trazado 169110" d="M57.522,65.673c0,.827-.246,1.214-.776,1.228-.551.014-.831-.4-.832-1.242,0-.054,0-.107,0-.161.006-.716.284-1.083.818-1.081s.785.351.79,1.1c0,.054,0,.107,0,.161" transform="translate(-38.169 -43.973)" fill="#0d0b0c"/>
        <path id="Trazado_169111" data-name="Trazado 169111" d="M78.346,65.635c0-.851.221-1.205.768-1.218.572-.013.835.372.834,1.226a3.468,3.468,0,0,1-.018.533.8.8,0,0,1-.85.719.767.767,0,0,1-.732-.779c-.008-.16,0-.321,0-.481" transform="translate(-53.48 -43.973)" fill="#0d0b0c"/>
      </g>
    </g>
  </g>
</svg>
