<svg id="Grupo_171286" data-name="Grupo 171286" xmlns="http://www.w3.org/2000/svg" xmlns:xlink="http://www.w3.org/1999/xlink" width="348.876" height="300.507" viewBox="0 0 348.876 300.507">
  <defs>
    <clipPath id="clip-path">
      <rect id="Rectángulo_43538" data-name="Rectángulo 43538" width="348.876" height="300.507" fill="none"/>
    </clipPath>
    <clipPath id="clip-path-2">
      <rect id="Rectángulo_43537" data-name="Rectángulo 43537" width="348.876" height="300.506" fill="none"/>
    </clipPath>
    <clipPath id="clip-path-3">
      <rect id="Rectángulo_43512" data-name="Rectángulo 43512" width="4.345" height="4.789" fill="none"/>
    </clipPath>
    <clipPath id="clip-path-4">
      <rect id="Rectángulo_43513" data-name="Rectángulo 43513" width="2.295" height="1.213" fill="none"/>
    </clipPath>
    <clipPath id="clip-path-5">
      <rect id="Rectángulo_43514" data-name="Rectángulo 43514" width="2.311" height="1.552" fill="none"/>
    </clipPath>
    <clipPath id="clip-path-6">
      <rect id="Rectángulo_43515" data-name="Rectángulo 43515" width="2.009" height="1.464" fill="none"/>
    </clipPath>
    <clipPath id="clip-path-7">
      <rect id="Rectángulo_43516" data-name="Rectángulo 43516" width="2.108" height="1.082" fill="none"/>
    </clipPath>
    <clipPath id="clip-path-8">
      <rect id="Rectángulo_43517" data-name="Rectángulo 43517" width="24.399" height="18.479" fill="none"/>
    </clipPath>
    <clipPath id="clip-path-9">
      <rect id="Rectángulo_43519" data-name="Rectángulo 43519" width="50.074" height="34.389" fill="none"/>
    </clipPath>
    <clipPath id="clip-path-10">
      <path id="Trazado_168655" data-name="Trazado 168655" d="M663.45,368.135c-2.844,1.182-5.754,2.244-8.677,3.213a66.876,66.876,0,0,1-12.7,2.573A71.146,71.146,0,0,1,633.9,375.3a16.419,16.419,0,0,1-2.724-.017c.714,10.77,1.151,18.164,1.151,18.164s30.651,3.978,48.922-2.093c-.177-1.417-2.409-17.068-3.88-31.017-4.029,3.448-9.06,5.783-13.917,7.8" transform="translate(-631.173 -360.333)" fill="none"/>
    </clipPath>
    <linearGradient id="linear-gradient" x1="-3.95" y1="2.964" x2="-3.944" y2="2.964" gradientUnits="objectBoundingBox">
      <stop offset="0" stop-color="#fff"/>
      <stop offset="1" stop-color="#45708e"/>
    </linearGradient>
    <clipPath id="clip-path-11">
      <rect id="Rectángulo_43521" data-name="Rectángulo 43521" width="0.819" height="1.053" fill="none"/>
    </clipPath>
    <clipPath id="clip-path-12">
      <path id="Trazado_168656" data-name="Trazado 168656" d="M726.912,307.573c-.669.6-.617,1.382.373-.345l-.1.09,0,.005,0,0c-.091.085-.182.17-.274.253" transform="translate(-726.466 -307.228)" fill="none"/>
    </clipPath>
    <linearGradient id="linear-gradient-2" x1="-255.401" y1="100.865" x2="-255.049" y2="100.865" xlink:href="#linear-gradient"/>
  </defs>
  <g id="Grupo_171285" data-name="Grupo 171285" clip-path="url(#clip-path)">
    <path id="Trazado_168499" data-name="Trazado 168499" d="M468.292,330.85V95.167H199.673V330Z" transform="translate(-120.686 -57.521)" fill="#ebcfc2"/>
    <rect id="Rectángulo_43493" data-name="Rectángulo 43493" width="125.01" height="207.237" transform="translate(222.596 37.646)" fill="#c4d4dd"/>
    <g id="Grupo_171284" data-name="Grupo 171284" transform="translate(0 0)">
      <g id="Grupo_171283" data-name="Grupo 171283" clip-path="url(#clip-path-2)">
        <path id="Trazado_168500" data-name="Trazado 168500" d="M687.718,95.167H648.1a68.534,68.534,0,0,0-9.254,8.054c-7.284,7.6-13.4,17.271-23.357,20.7-4.018,1.385-8.339,1.6-12.458,2.648a32.163,32.163,0,0,0-18.322,12.692c-5.081,7.31-8.444,17.762-17.225,19.226-1.537.256-3.234.233-4.78.483v13.835a21.774,21.774,0,0,1,11.422-4.021c3.784-.185,7.618.624,11.343-.065,5.569-1.03,10.012-5.238,13.407-9.771s6.121-9.6,10.111-13.624c7.277-7.334,17.924-10.308,28.222-11.142,6.862-.556,14.41-.519,19.663-4.969,6.29-5.329,7.07-15.391,13.671-20.33,4.762-3.563,11.838-3.928,17.172-6.15Z" transform="translate(-340.112 -57.521)" fill="#fff"/>
        <path id="Trazado_168501" data-name="Trazado 168501" d="M687.718,183.934c-10.26,5.406-20.126,14.579-23.442,20.846-4.461,8.434-7.092,19.071-15.676,23.236-3.572,1.733-7.646,2-11.539,2.781a44.072,44.072,0,0,0-27.482,18.225c-5.841,8.591-9.286,19.911-18.709,24.286-8.654,4.018-19.272.48-28.163,3.835V302.13a26.79,26.79,0,0,1,4.819-1.31c7.066-1.22,14.316.326,21.474-.088a39.792,39.792,0,0,0,28.526-14.845c4.29-5.428,7.373-12.2,13.369-15.653,6.041-3.477,13.5-2.7,20.463-2.46s14.841-.579,19.233-5.992c2.8-3.451,3.56-8.058,4.912-12.29,2.129-6.665,6.262-13.015,12.214-16.517Z" transform="translate(-340.112 -111.174)" fill="#fff"/>
        <path id="Trazado_168502" data-name="Trazado 168502" d="M722.9,439.384a64.351,64.351,0,0,1-7.14,1.035c-10.64.983-22.2.868-30.737,7.292-10.485,7.89-13.31,23.542-24.553,30.308C651.205,483.6,638,481.892,630.732,489.9c-2.333,2.574-3.709,5.852-5.042,9.06q-2.386,5.746-4.773,11.492h7.971a35.679,35.679,0,0,1,3.718-6.657c4.006-5.594,10.174-9.916,17.031-10.483,5.912-.488,12.14,1.74,17.65-.455,8.1-3.224,9.961-13.679,15.326-20.545a22.624,22.624,0,0,1,22.053-8.01c6.313,1.35,11.971,5.432,18.235,6.47Z" transform="translate(-375.295 -265.573)" fill="#fff"/>
        <rect id="Rectángulo_43494" data-name="Rectángulo 43494" width="125.01" height="2.933" transform="translate(222.596 241.95)" fill="#373b45"/>
        <rect id="Rectángulo_43495" data-name="Rectángulo 43495" width="125.01" height="2.933" transform="translate(222.596 99.707)" fill="#373b45"/>
        <rect id="Rectángulo_43496" data-name="Rectángulo 43496" width="125.01" height="2.933" transform="translate(222.596 177.167)" fill="#373b45"/>
        <rect id="Rectángulo_43497" data-name="Rectángulo 43497" width="3.123" height="207.237" transform="translate(222.596 37.646)" fill="#373b45"/>
        <rect id="Rectángulo_43498" data-name="Rectángulo 43498" width="3.123" height="207.237" transform="translate(303.385 37.646)" fill="#373b45"/>
        <path id="Trazado_168503" data-name="Trazado 168503" d="M369.666,240.43H264.237a.535.535,0,0,1-.535-.535V146.056a.535.535,0,0,1,.535-.535H369.666a.535.535,0,0,1,.535.535V239.9a.535.535,0,0,1-.535.535m-104.894-1.07H369.131V146.591H264.772Z" transform="translate(-159.387 -87.956)" fill="#fff"/>
        <path id="Trazado_168504" data-name="Trazado 168504" d="M300.179,240.43a.535.535,0,0,1-.535-.535V146.056a.535.535,0,1,1,1.07,0V239.9a.535.535,0,0,1-.535.535" transform="translate(-181.111 -87.956)" fill="#fff"/>
        <path id="Trazado_168505" data-name="Trazado 168505" d="M341.378,240.43a.535.535,0,0,1-.535-.535V146.056a.535.535,0,1,1,1.07,0V239.9a.535.535,0,0,1-.535.535" transform="translate(-206.012 -87.956)" fill="#fff"/>
        <path id="Trazado_168506" data-name="Trazado 168506" d="M382.574,240.43a.535.535,0,0,1-.535-.535V146.056a.535.535,0,1,1,1.07,0V239.9a.535.535,0,0,1-.535.535" transform="translate(-230.912 -87.956)" fill="#fff"/>
        <path id="Trazado_168507" data-name="Trazado 168507" d="M423.772,240.43a.535.535,0,0,1-.535-.535V146.056a.535.535,0,1,1,1.07,0V239.9a.535.535,0,0,1-.535.535" transform="translate(-255.813 -87.956)" fill="#fff"/>
        <path id="Trazado_168508" data-name="Trazado 168508" d="M464.971,240.43a.536.536,0,0,1-.536-.535V146.056a.535.535,0,0,1,1.071,0V239.9a.536.536,0,0,1-.535.535" transform="translate(-280.714 -87.956)" fill="#fff"/>
        <path id="Trazado_168509" data-name="Trazado 168509" d="M506.169,240.43a.535.535,0,0,1-.535-.535V146.056a.535.535,0,1,1,1.07,0V239.9a.535.535,0,0,1-.535.535" transform="translate(-305.616 -87.956)" fill="#fff"/>
        <path id="Trazado_168510" data-name="Trazado 168510" d="M369.309,185.974H263.646a.535.535,0,1,1,0-1.07H369.309a.535.535,0,0,1,0,1.07" transform="translate(-159.03 -111.76)" fill="#fff"/>
        <path id="Trazado_168511" data-name="Trazado 168511" d="M369.309,236.662H263.646a.535.535,0,0,1,0-1.07H369.309a.535.535,0,0,1,0,1.07" transform="translate(-159.03 -142.397)" fill="#fff"/>
        <path id="Trazado_168512" data-name="Trazado 168512" d="M369.309,287.351H263.646a.535.535,0,0,1,0-1.07H369.309a.535.535,0,0,1,0,1.07" transform="translate(-159.03 -173.034)" fill="#fff"/>
        <path id="Trazado_168513" data-name="Trazado 168513" d="M369.309,338.04H263.646a.535.535,0,1,1,0-1.07H369.309a.535.535,0,0,1,0,1.07" transform="translate(-159.03 -203.672)" fill="#fff"/>
        <rect id="Rectángulo_43499" data-name="Rectángulo 43499" width="26.405" height="34.731" transform="translate(111.637 93.731)" fill="#fff"/>
        <rect id="Rectángulo_43500" data-name="Rectángulo 43500" width="7.403" height="3.211" transform="translate(122.789 91.826)" fill="#ffa753"/>
        <path id="Trazado_168514" data-name="Trazado 168514" d="M317.537,225.367h0a1.271,1.271,0,0,0-1.271,1.271v2.832h2.542v-2.832a1.271,1.271,0,0,0-1.271-1.271" transform="translate(-191.158 -136.217)" fill="#ffa753"/>
        <rect id="Rectángulo_43501" data-name="Rectángulo 43501" width="26.405" height="34.731" transform="translate(164.728 71.785)" fill="#fff"/>
        <rect id="Rectángulo_43502" data-name="Rectángulo 43502" width="7.403" height="3.211" transform="translate(173.36 70.341)" fill="#007d78"/>
        <path id="Trazado_168515" data-name="Trazado 168515" d="M445.378,171.055h0a1.271,1.271,0,0,0-1.271,1.271v2.832h2.542v-2.832a1.271,1.271,0,0,0-1.271-1.271" transform="translate(-268.427 -103.389)" fill="#007d78"/>
        <rect id="Rectángulo_43503" data-name="Rectángulo 43503" width="20.931" height="27.372" transform="translate(139.023 71.946)" fill="#007d78"/>
        <rect id="Rectángulo_43504" data-name="Rectángulo 43504" width="6.123" height="2.656" transform="translate(143.604 70.628)" fill="#fff"/>
        <path id="Trazado_168516" data-name="Trazado 168516" d="M368.921,172.951h0A1.051,1.051,0,0,0,367.87,174v2.342h2.1V174a1.051,1.051,0,0,0-1.051-1.051" transform="translate(-222.348 -104.535)" fill="#fff"/>
        <rect id="Rectángulo_43505" data-name="Rectángulo 43505" width="20.931" height="27.372" transform="translate(154.262 113.026)" fill="#45708e"/>
        <rect id="Rectángulo_43506" data-name="Rectángulo 43506" width="6.123" height="2.656" transform="translate(158.843 111.708)" fill="#fff"/>
        <path id="Trazado_168517" data-name="Trazado 168517" d="M407.446,276.8h0a1.051,1.051,0,0,0-1.051,1.051v2.342h2.1v-2.342a1.051,1.051,0,0,0-1.051-1.051" transform="translate(-245.633 -167.303)" fill="#fff"/>
        <path id="Trazado_168518" data-name="Trazado 168518" d="M254.784,350.232c-.123-1.488-.1-3.208,1.028-4.182a.477.477,0,0,1,.732-.019,4.788,4.788,0,0,1,1.352,2.894c.317,1.574.546,3.313-.262,4.7a7.048,7.048,0,0,1-1.513,1.654L254.4,356.8c-1.365,1.2-.365-1.9-.221-2.292a9.1,9.1,0,0,0,.6-4.273" transform="translate(-153.337 -209.051)" fill="#00a29b"/>
        <path id="Trazado_168519" data-name="Trazado 168519" d="M256.649,346.031a.6.6,0,0,0-.345-.161.4.4,0,0,0-.179.042,10.977,10.977,0,0,1,.644,5.251,6.646,6.646,0,0,1-2.86,4.665q-.023.106-.043.211l.159.269a7.079,7.079,0,0,0,3.206-5.075,11.255,11.255,0,0,0-.568-5.186l-.015-.014" transform="translate(-153.442 -209.051)" fill="#007d78"/>
        <path id="Trazado_168520" data-name="Trazado 168520" d="M255.874,347.552a2.984,2.984,0,0,0-.318.587,9.108,9.108,0,0,1-.444,5.933,11.956,11.956,0,0,1-.434,1.449c-.029.08-.092.268-.164.508a9.5,9.5,0,0,0,1.36-8.476" transform="translate(-153.833 -210.068)" fill="#007d78"/>
        <path id="Trazado_168521" data-name="Trazado 168521" d="M212.324,374.487a11.788,11.788,0,0,1-3.017-1.844,7.691,7.691,0,0,0-1.916-1.251,2,2,0,0,0-2.53,2.988,6.577,6.577,0,0,0,2.2,2.089c1.618,1.115,3.42,2.278,5.379,2.091,1.034-.1,4.628-1.253,4.181-2.768-.352-1.192-3.373-.952-4.3-1.306" transform="translate(-123.627 -224.363)" fill="#00a29b"/>
        <path id="Trazado_168522" data-name="Trazado 168522" d="M211.124,375.034a7.981,7.981,0,0,0,3.288.725,6.709,6.709,0,0,0,2.832-.606,4.547,4.547,0,0,0-.752-.2,7.1,7.1,0,0,1-5.174-.347,10.424,10.424,0,0,1-3.925-3.289,1.863,1.863,0,0,0-.463.16,10.954,10.954,0,0,0,4.2,3.554" transform="translate(-125.072 -224.434)" fill="#007d78"/>
        <path id="Trazado_168523" data-name="Trazado 168523" d="M216.132,377.527c-1.857.921-4,1.843-5.931,1.112a7.015,7.015,0,0,1-1.914-1.234,33.543,33.543,0,0,1-3.572-3.462,2.112,2.112,0,0,0-.134.547,33.891,33.891,0,0,0,3.409,3.274,7.426,7.426,0,0,0,2.047,1.311,4.6,4.6,0,0,0,1.645.291,11,11,0,0,0,4.659-1.421Z" transform="translate(-123.652 -226.019)" fill="#007d78"/>
        <path id="Trazado_168524" data-name="Trazado 168524" d="M225.733,353.677a12.457,12.457,0,0,1-.091-6.757c.723-2.165,2.7-4.047,4.978-4.027a5.575,5.575,0,0,1,4.187,2.308,13.119,13.119,0,0,1,2.039,4.475,42.457,42.457,0,0,1,.883,19.857c-.386,1.978-.98,4.041-2.462,5.407-1.194,1.1-3.992,1.952-4.876.123-.732-1.516-.007-4.6-.28-6.325-.825-5.186-3.178-9.971-4.378-15.063" transform="translate(-136.121 -207.252)" fill="#00a29b"/>
        <path id="Trazado_168525" data-name="Trazado 168525" d="M239.419,342.939a4.25,4.25,0,0,0-.568-.045h-.023a36.257,36.257,0,0,1,6.155,17.321,44.8,44.8,0,0,1-.813,12.14l.458.089a45.274,45.274,0,0,0,.821-12.268,36.737,36.737,0,0,0-6.029-17.239" transform="translate(-144.352 -207.253)" fill="#007d78"/>
        <path id="Trazado_168526" data-name="Trazado 168526" d="M237.322,356.025a80.828,80.828,0,0,0-3.517-12.2c-.143.062-.283.131-.42.206a80.752,80.752,0,0,1,3.482,12.1q.255,1.1.513,2.191a35.943,35.943,0,0,1,.61,15.555l.458.089a36.393,36.393,0,0,0-.614-15.752q-.258-1.089-.512-2.189" transform="translate(-141.063 -207.817)" fill="#007d78"/>
        <path id="Trazado_168527" data-name="Trazado 168527" d="M233.673,374.814c.011-4.285-1.15-8.485-2.273-12.547-.641-2.319-1.3-4.718-1.742-7.105a52.856,52.856,0,0,1-.78-7.721,6.457,6.457,0,0,0-.445.568,52.2,52.2,0,0,0,.765,7.236c.441,2.408,1.107,4.816,1.751,7.145,1.115,4.032,2.267,8.2,2.256,12.422Z" transform="translate(-138.07 -210.001)" fill="#007d78"/>
        <path id="Trazado_168528" data-name="Trazado 168528" d="M218.025,441.6l-6.154-27.521h27.825L235.15,441.6Z" transform="translate(-128.059 -250.277)" fill="#1f2127"/>
        <path id="Trazado_168529" data-name="Trazado 168529" d="M222.693,414.078l4.079,27.521h.871l-2.679-27.521Z" transform="translate(-134.6 -250.277)" fill="#fff"/>
        <path id="Trazado_168530" data-name="Trazado 168530" d="M234.308,414.078l1.6,27.521h.975l-1.822-27.521Z" transform="translate(-141.62 -250.277)" fill="#fff"/>
        <rect id="Rectángulo_43507" data-name="Rectángulo 43507" width="120.688" height="81.43" transform="translate(66.605 191.052)" fill="#da9a68"/>
        <path id="Trazado_168531" data-name="Trazado 168531" d="M291.891,513.776H177.521V492.593h114.37Zm-113.553-.817H291.074V493.41H178.337Z" transform="translate(-107.297 -297.734)" fill="#c46534"/>
        <path id="Trazado_168532" data-name="Trazado 168532" d="M291.891,580.3H177.521V559.118h114.37Zm-113.553-.817H291.074V559.935H178.337Z" transform="translate(-107.297 -337.943)" fill="#c46534"/>
        <path id="Trazado_168533" data-name="Trazado 168533" d="M291.891,646.825H177.521V625.642h114.37Zm-113.553-.817H291.074V626.459H178.337Z" transform="translate(-107.297 -378.151)" fill="#c46534"/>
        <rect id="Rectángulo_43508" data-name="Rectángulo 43508" width="33.726" height="5.196" transform="translate(112.638 195.268)" fill="#c46534"/>
        <rect id="Rectángulo_43509" data-name="Rectángulo 43509" width="33.726" height="5.196" transform="translate(112.638 221.584)" fill="#c46534"/>
        <rect id="Rectángulo_43510" data-name="Rectángulo 43510" width="33.726" height="5.196" transform="translate(112.638 247.899)" fill="#c46534"/>
        <path id="Trazado_168534" data-name="Trazado 168534" d="M798.26,619.708H777.7a.591.591,0,0,1-.578-.466l-9.69-44.714a.591.591,0,0,1,.578-.716h44.12a.591.591,0,0,1,.565.766l-13.866,44.714a.591.591,0,0,1-.565.416m-20.086-1.182h19.651l13.5-43.532H768.74Z" transform="translate(-463.842 -346.825)" fill="#fff"/>
        <path id="Trazado_168535" data-name="Trazado 168535" d="M812.284,593.924H772.109a.591.591,0,1,1,0-1.182h40.175a.591.591,0,1,1,0,1.182" transform="translate(-466.321 -358.266)" fill="#fff"/>
        <path id="Trazado_168536" data-name="Trazado 168536" d="M812.787,622.154h-34.56a.591.591,0,1,1,0-1.182h34.56a.591.591,0,1,1,0,1.182" transform="translate(-470.019 -375.328)" fill="#fff"/>
        <path id="Trazado_168537" data-name="Trazado 168537" d="M797.126,619.708a.591.591,0,0,1-.588-.541c-1.431-16.972-3.811-42.742-4.524-44.433a.591.591,0,0,1,.938-.715c.249.29.713.83,2.806,23.1,1.026,10.917,1.948,21.841,1.958,21.95a.591.591,0,0,1-.539.638l-.051,0m-5.071-44.92h0m-.049-.072Z" transform="translate(-478.648 -346.824)" fill="#fff"/>
        <path id="Trazado_168538" data-name="Trazado 168538" d="M823.774,619.708h-.015a.59.59,0,0,1-.576-.6l1.1-44.714a.591.591,0,1,1,1.181.029l-1.1,44.714a.591.591,0,0,1-.59.576" transform="translate(-497.548 -346.824)" fill="#fff"/>
        <path id="Trazado_168539" data-name="Trazado 168539" d="M836.662,619.14a.6.6,0,0,1-.106-.009.591.591,0,0,1-.476-.687l8-44.146a.591.591,0,1,1,1.163.21l-8,44.146a.591.591,0,0,1-.581.486" transform="translate(-505.338 -346.824)" fill="#fff"/>
        <path id="Trazado_168540" data-name="Trazado 168540" d="M812.708,644.892H783.155a.591.591,0,1,1,0-1.182h29.553a.591.591,0,1,1,0,1.182" transform="translate(-472.998 -389.072)" fill="#fff"/>
        <path id="Trazado_168541" data-name="Trazado 168541" d="M812.94,672.781H789.2a.591.591,0,1,1,0-1.182H812.94a.591.591,0,1,1,0,1.182" transform="translate(-476.651 -405.928)" fill="#fff"/>
        <path id="Trazado_168542" data-name="Trazado 168542" d="M141.468,688.817H421.741l-13.776,27.49H123.258Z" transform="translate(-74.5 -416.335)" fill="#9d4d32"/>
        <path id="Trazado_168543" data-name="Trazado 168543" d="M437.943,702.718H159.078a.535.535,0,1,1,0-1.07H437.943a.535.535,0,0,1,0,1.07" transform="translate(-95.827 -424.091)" fill="#c46534"/>
        <path id="Trazado_168544" data-name="Trazado 168544" d="M423.246,731.491h0L141.465,729.3a.535.535,0,0,1,0-1.07h0L423.25,730.42a.535.535,0,0,1,0,1.07" transform="translate(-85.183 -440.159)" fill="#c46534"/>
        <path id="Trazado_168545" data-name="Trazado 168545" d="M190.083,715.736a.535.535,0,0,1-.458-.81l16.59-27.679a.535.535,0,0,1,.918.55l-16.591,27.678a.534.534,0,0,1-.459.26" transform="translate(-114.567 -415.229)" fill="#c46534"/>
        <path id="Trazado_168546" data-name="Trazado 168546" d="M293.8,715.736a.535.535,0,0,1-.458-.81l16.59-27.679a.535.535,0,0,1,.918.55l-16.59,27.678a.533.533,0,0,1-.459.26" transform="translate(-177.253 -415.229)" fill="#c46534"/>
        <path id="Trazado_168547" data-name="Trazado 168547" d="M397.51,715.736a.528.528,0,0,1-.275-.076.535.535,0,0,1-.184-.734l16.59-27.679a.535.535,0,0,1,.918.55l-16.59,27.678a.532.532,0,0,1-.459.26" transform="translate(-239.94 -415.229)" fill="#c46534"/>
        <path id="Trazado_168548" data-name="Trazado 168548" d="M501.223,715.736a.535.535,0,0,1-.458-.81l16.59-27.679a.535.535,0,0,1,.918.55l-16.591,27.678a.534.534,0,0,1-.459.26" transform="translate(-302.626 -415.229)" fill="#c46534"/>
        <path id="Trazado_168549" data-name="Trazado 168549" d="M604.937,715.736a.535.535,0,0,1-.458-.81l16.59-27.679a.535.535,0,0,1,.918.55L605.4,715.475a.534.534,0,0,1-.459.26" transform="translate(-365.313 -415.229)" fill="#c46534"/>
        <path id="Trazado_168550" data-name="Trazado 168550" d="M708.651,715.736a.535.535,0,0,1-.458-.81l16.59-27.679a.535.535,0,0,1,.918.55l-16.59,27.678a.533.533,0,0,1-.459.26" transform="translate(-428 -415.229)" fill="#c46534"/>
        <path id="Trazado_168551" data-name="Trazado 168551" d="M812.365,715.736a.535.535,0,0,1-.458-.81l16.59-27.679a.535.535,0,0,1,.918.55l-16.59,27.678a.533.533,0,0,1-.459.26" transform="translate(-490.686 -415.229)" fill="#c46534"/>
        <path id="Trazado_168552" data-name="Trazado 168552" d="M666.991,533.37H654.013a3.479,3.479,0,0,1-3.478-3.479H670.47a3.479,3.479,0,0,1-3.479,3.479" transform="translate(-393.197 -320.277)" fill="#c46534"/>
        <rect id="Rectángulo_43511" data-name="Rectángulo 43511" width="6.09" height="64.734" transform="translate(264.207 209.614)" fill="#c46534"/>
        <path id="Trazado_168553" data-name="Trazado 168553" d="M664.505,693.278H628.049l15.049-7.035h6.8Z" transform="translate(-379.606 -414.78)" fill="#c46534"/>
        <path id="Trazado_168554" data-name="Trazado 168554" d="M580.934,369.64s3.512,35.555-32.879,49.046c.268.915,15.781,14.346,15.781,14.346l36.793-14.346s3.689-28.426,1.914-29.543-21.609-19.5-21.609-19.5" transform="translate(-331.256 -223.418)" fill="#da9a68"/>
        <path id="Trazado_168555" data-name="Trazado 168555" d="M680.291,403.6s23.2,1.21,26.314-74.95c-.1-1.108-44.248-5.552-44.248-5.552l2.2,82.256Z" transform="translate(-400.342 -195.288)" fill="#c46534"/>
        <path id="Trazado_168556" data-name="Trazado 168556" d="M618.934,520.583H570.6v-7.156l48.419,1.431Z" transform="translate(-344.885 -310.326)" fill="#da9a68"/>
        <path id="Trazado_168557" data-name="Trazado 168557" d="M515.639,389.569c-.492,0-8.192,3.871-8.192,3.871l-4.076.419a4.83,4.83,0,0,0-3.425,1.981l-.7.966a1.644,1.644,0,0,0,.12,2.07l.641.7,11.465.081,5.279-2.169,3.433-5.551Z" transform="translate(-301.569 -235.464)" fill="#ffa78b"/>
        <path id="Trazado_168558" data-name="Trazado 168558" d="M571.581,280.671a44.487,44.487,0,0,0-.942-7.564,14.674,14.674,0,0,0-3.608,4.328c-12,28.079-26.7,41.2-26.7,41.2a6.512,6.512,0,0,0,1.625,2.042,13.542,13.542,0,0,1,3.25,3.086c15.621-6.752,26.144-16.279,30.773-24.1.532-8.134-4.353-10.828-4.4-18.993" transform="translate(-326.586 -165.072)" fill="#45708e"/>
        <path id="Trazado_168559" data-name="Trazado 168559" d="M664.284,198.91s1.684,9.22-2.592,12.015c-.025,2.17,2.014,7.522,9.464,6.69.178-.015,15,.718,12.951-8.415-5.828-.595-7.926-9.217-7.957-12.975-.12.01-11.866,2.685-11.866,2.685" transform="translate(-399.94 -118.603)" fill="#ffa78b"/>
        <path id="Trazado_168560" data-name="Trazado 168560" d="M679.773,199.705a33.1,33.1,0,0,1-5.779,0l-.114.026-.054.012-1.851.42-.034.008-.8.182-.012,0-.581.132-.182.042-.84.191-.038.008-.422.1-.086.02-.218.049-.114.026-.011,0-.143.032-.129.03-.078.017-.02,0-.013,0-.006,0a24.573,24.573,0,0,1,.316,3.313c2.183,2.255,8.825,3.778,11.212-4.62" transform="translate(-403.901 -120.705)" fill="#ff7559"/>
        <path id="Trazado_168561" data-name="Trazado 168561" d="M655.538,184.308a1.056,1.056,0,0,0-.9.5,1.4,1.4,0,0,0-.115.751,5.1,5.1,0,0,0,.415,1.737,2.7,2.7,0,0,0,.5.8,2.554,2.554,0,0,0,.578.436,4.269,4.269,0,0,0,2.836.5,26.1,26.1,0,0,0-1.391-3.167c-.481-.787-.886-1.6-1.93-1.559" transform="translate(-395.606 -111.399)" fill="#ffa78b"/>
        <g id="Grupo_171257" data-name="Grupo 171257" transform="translate(258.915 72.907)" opacity="0.38">
          <g id="Grupo_171256" data-name="Grupo 171256">
            <g id="Grupo_171255" data-name="Grupo 171255" clip-path="url(#clip-path-3)">
              <path id="Trazado_168562" data-name="Trazado 168562" d="M655.538,184.308a1.056,1.056,0,0,0-.9.5,1.4,1.4,0,0,0-.115.751,5.1,5.1,0,0,0,.415,1.737,2.7,2.7,0,0,0,.5.8,2.554,2.554,0,0,0,.578.436,4.269,4.269,0,0,0,2.836.5,26.1,26.1,0,0,0-1.391-3.167c-.481-.787-.886-1.6-1.93-1.559" transform="translate(-654.521 -184.306)" fill="#ff7559"/>
            </g>
          </g>
        </g>
        <path id="Trazado_168563" data-name="Trazado 168563" d="M659.119,190.051a.178.178,0,0,1-.165-.111,3.106,3.106,0,0,0-2.635-2.039.178.178,0,0,1-.066-.351,3.428,3.428,0,0,1,3.031,2.255.179.179,0,0,1-.1.233.183.183,0,0,1-.067.013" transform="translate(-396.565 -113.354)" fill="#ff7559"/>
        <path id="Trazado_168564" data-name="Trazado 168564" d="M658.458,190.638a.189.189,0,0,1-.033,0,.178.178,0,0,1-.142-.208.974.974,0,0,1,1.281-.739.178.178,0,0,1-.118.337.618.618,0,0,0-.812.468.178.178,0,0,1-.175.146" transform="translate(-397.877 -114.619)" fill="#ff7559"/>
        <path id="Trazado_168565" data-name="Trazado 168565" d="M671.447,160.579c-.019,14-6.211,14.128-7.148,14.432-7.066,1.515-11.744-15.444-11.783-15.618,0,0-2.124-8.94,9.446-9.557,0,0,10.328-1.25,9.486,10.743" transform="translate(-394.301 -90.542)" fill="#ffa78b"/>
        <path id="Trazado_168566" data-name="Trazado 168566" d="M660.544,190.766a1.162,1.162,0,0,0-.29,1.26,1.1,1.1,0,0,0,.182.353,1.058,1.058,0,0,0,.62.369,1.285,1.285,0,0,0,1.445-.907,1.115,1.115,0,0,0-1.331-1.431,1.625,1.625,0,0,0-.625.356" transform="translate(-399.028 -115.057)" fill="#ff7559"/>
        <path id="Trazado_168567" data-name="Trazado 168567" d="M687.811,184.568a1.162,1.162,0,0,0-.29,1.26,1.1,1.1,0,0,0,.182.353,1.059,1.059,0,0,0,.62.369,1.286,1.286,0,0,0,1.445-.907,1.115,1.115,0,0,0-1.331-1.431,1.627,1.627,0,0,0-.625.356" transform="translate(-415.509 -111.311)" fill="#ff7559"/>
        <path id="Trazado_168568" data-name="Trazado 168568" d="M673.09,188.317a1.248,1.248,0,0,1-.819-.249,1.632,1.632,0,0,1-.432-1.368c.01-.421.036-.842.061-1.263a12.986,12.986,0,0,0-.064-3.162.178.178,0,1,1,.351-.066,13.247,13.247,0,0,1,.07,3.249c-.025.417-.051.834-.061,1.25a1.344,1.344,0,0,0,.3,1.084,1.408,1.408,0,0,0,1.074.127.178.178,0,0,1,.049.354,3.909,3.909,0,0,1-.531.044" transform="translate(-406.07 -110.043)" fill="#ff7559"/>
        <path id="Trazado_168569" data-name="Trazado 168569" d="M683.483,172.16c.169-.077.367-.223.31-.4-.038-.118-.174-.169-.295-.2a7.978,7.978,0,0,0-3.022-.226,2.508,2.508,0,0,0-.964.27c-.8.46-.71,1.709.318,1.652a10.863,10.863,0,0,0,3.652-1.094" transform="translate(-410.388 -103.525)" fill="#7a3a26"/>
        <g id="Grupo_171260" data-name="Grupo 171260" transform="translate(270.548 67.756)" opacity="0.38" style="mix-blend-mode: screen;isolation: isolate">
          <g id="Grupo_171259" data-name="Grupo 171259">
            <g id="Grupo_171258" data-name="Grupo 171258" clip-path="url(#clip-path-4)">
              <path id="Trazado_168570" data-name="Trazado 168570" d="M684.4,171.285c-.159,0-.317,0-.476.013a4.157,4.157,0,0,0,1.775,1.2q.266-.109.52-.222a3.794,3.794,0,0,1-1.819-.991" transform="translate(-683.929 -171.285)" fill="#7a3a26"/>
            </g>
          </g>
        </g>
        <g id="Grupo_171263" data-name="Grupo 171263" transform="translate(269.005 67.985)" opacity="0.38" style="mix-blend-mode: screen;isolation: isolate">
          <g id="Grupo_171262" data-name="Grupo 171262">
            <g id="Grupo_171261" data-name="Grupo 171261" clip-path="url(#clip-path-5)">
              <path id="Trazado_168571" data-name="Trazado 168571" d="M680.341,171.862a1.7,1.7,0,0,0-.194.094,1.076,1.076,0,0,0-.119.081,3.112,3.112,0,0,0,1.626,1.378c.229-.057.458-.119.684-.193a2.748,2.748,0,0,1-2-1.36" transform="translate(-680.028 -171.862)" fill="#7a3a26"/>
            </g>
          </g>
        </g>
        <path id="Trazado_168572" data-name="Trazado 168572" d="M660.087,177.5c.151-.108.317-.289.227-.451a.387.387,0,0,0-.328-.142,7.978,7.978,0,0,0-3.009.36,2.507,2.507,0,0,0-.894.45c-.7.6-.368,1.814.63,1.559a10.863,10.863,0,0,0,3.374-1.777" transform="translate(-396.327 -106.915)" fill="#7a3a26"/>
        <g id="Grupo_171266" data-name="Grupo 171266" transform="translate(259.746 70.609)" opacity="0.38" style="mix-blend-mode: screen;isolation: isolate">
          <g id="Grupo_171265" data-name="Grupo 171265">
            <g id="Grupo_171264" data-name="Grupo 171264" clip-path="url(#clip-path-6)">
              <path id="Trazado_168573" data-name="Trazado 168573" d="M656.913,178.495a1.708,1.708,0,0,0-.282.2l-.011.011a2.737,2.737,0,0,0,1.491,1.257q.261-.109.518-.239a2.371,2.371,0,0,1-1.716-1.226" transform="translate(-656.62 -178.495)" fill="#7a3a26"/>
            </g>
          </g>
        </g>
        <g id="Grupo_171269" data-name="Grupo 171269" transform="translate(261.133 70.122)" opacity="0.38" style="mix-blend-mode: screen;isolation: isolate">
          <g id="Grupo_171268" data-name="Grupo 171268">
            <g id="Grupo_171267" data-name="Grupo 171267" clip-path="url(#clip-path-7)">
              <path id="Trazado_168574" data-name="Trazado 168574" d="M661.845,178.346q.2-.127.391-.257a4.527,4.527,0,0,1-1.675-.826c-.145.028-.29.06-.433.1a4.9,4.9,0,0,0,1.717.986" transform="translate(-660.128 -177.264)" fill="#7a3a26"/>
            </g>
          </g>
        </g>
        <path id="Trazado_168575" data-name="Trazado 168575" d="M658.117,178.048c-.049.019-.1.038-.147.059.049-.017.1-.038.147-.059" transform="translate(-397.69 -107.616)" fill="#9d4d32"/>
        <path id="Trazado_168576" data-name="Trazado 168576" d="M660.044,184.482s2.3,1.278,3.19-.974a2.246,2.246,0,0,0-3.19.974" transform="translate(-398.944 -110.723)" fill="#f3e1d9"/>
        <path id="Trazado_168577" data-name="Trazado 168577" d="M659.653,184.511a.178.178,0,0,1-.132-.3,3.255,3.255,0,0,1,3.369-.926.178.178,0,1,1-.117.337,2.931,2.931,0,0,0-2.988.829.178.178,0,0,1-.132.059" transform="translate(-398.6 -110.69)" fill="#7a3a26"/>
        <path id="Trazado_168578" data-name="Trazado 168578" d="M664.216,184.284a.644.644,0,0,1-.419.788c-.292.045-.578-.234-.638-.623a.644.644,0,0,1,.419-.788c.292-.045.578.234.638.623" transform="translate(-400.82 -111.006)" fill="#7a3a26"/>
        <path id="Trazado_168579" data-name="Trazado 168579" d="M684.389,178.782s-1.414,2.218-3.27.661a2.247,2.247,0,0,1,3.27-.661" transform="translate(-411.682 -107.806)" fill="#f3e1d9"/>
        <path id="Trazado_168580" data-name="Trazado 168580" d="M680.952,179.491a.178.178,0,0,1-.131-.3,3.255,3.255,0,0,1,3.4-.788.178.178,0,1,1-.118.337,2.931,2.931,0,0,0-3.023.693.178.178,0,0,1-.131.058" transform="translate(-411.474 -107.721)" fill="#7a3a26"/>
        <path id="Trazado_168581" data-name="Trazado 168581" d="M683.616,179.777a.558.558,0,1,0,.265-.852.644.644,0,0,0-.265.852" transform="translate(-413.159 -108.132)" fill="#7a3a26"/>
        <path id="Trazado_168582" data-name="Trazado 168582" d="M673.145,202.07a4.953,4.953,0,0,1-.784-.062.178.178,0,0,1-.148-.2.18.18,0,0,1,.2-.148,4.951,4.951,0,0,0,4.116-1.282.178.178,0,0,1,.247.258,5.327,5.327,0,0,1-3.634,1.438" transform="translate(-406.298 -121.081)" fill="#ff7559"/>
        <path id="Trazado_168583" data-name="Trazado 168583" d="M665.009,151.368a3.643,3.643,0,0,0,2.333-1.639,2.646,2.646,0,0,0-.044-2.777,1.358,1.358,0,0,1-.278-.5c-.088-.482.506-.907.387-1.382s-.906-.608-.786-1.078a3.733,3.733,0,0,0,.063-1.8,2.187,2.187,0,0,0-1.045-1.426.945.945,0,0,1-.32-.213c-.178-.224-.051-.548-.046-.834a.961.961,0,0,0-.843-.941,1.391,1.391,0,0,1-.333-.037c-.286-.1-.364-.464-.363-.766a1.133,1.133,0,0,0-.2-.857c-.3-.277-.823-.133-1.136-.39a1.682,1.682,0,0,0-.866-1.249,2.6,2.6,0,0,0-2.271.645,1.389,1.389,0,0,0-1.86-1.449,2.637,2.637,0,0,0-.9.452,2.318,2.318,0,0,0-2.408-.905,2.541,2.541,0,0,0-1.877,1.945,1.119,1.119,0,0,0-1.472.194,3.306,3.306,0,0,0-.773,1.442,1.361,1.361,0,0,0-1.744.318c-.431.485-.353,1-.446,1.638a4.436,4.436,0,0,0-4.634,1.123,3.763,3.763,0,0,0-1.021,2.206,2.876,2.876,0,0,0,.574,2.29,1.213,1.213,0,0,0-.918,1.133,2.664,2.664,0,0,0,.433,1.488c.157.275.394.695.688.577a2,2,0,0,0,1.933,2.437c.4,0,.923-.014,1.056-.388a2.285,2.285,0,0,0,2.192-2.139,1.135,1.135,0,0,0,1.185-.469c.284-.435.287-1.088.745-1.333a2.362,2.362,0,0,1,.778-.136,3.542,3.542,0,0,0,1.909-1.189,2.553,2.553,0,0,0,1.93,1.145,4.9,4.9,0,0,0,2.272-.381,9.3,9.3,0,0,0,4.19-3.235c.349,1.122.86,2.606,1.932,3.089.42.189.928.271,1.2.642a1.628,1.628,0,0,1,.223.938,8.88,8.88,0,0,0,.57,3.807" transform="translate(-387.899 -81.089)" fill="#7a3a26"/>
        <path id="Trazado_168584" data-name="Trazado 168584" d="M652.65,179.659a43.4,43.4,0,0,1-1.809-5.154,2.128,2.128,0,0,0-1.1-.125.5.5,0,0,0-.23.121.479.479,0,0,0-.106.273,2.87,2.87,0,0,0,.145,1.1,2.027,2.027,0,0,0,.529,1.065,6.36,6.36,0,0,1,.575.417,1.773,1.773,0,0,1,.252.408,5.574,5.574,0,0,0,1.742,1.9" transform="translate(-392.508 -105.376)" fill="#7a3a26"/>
        <g id="Grupo_171272" data-name="Grupo 171272" transform="translate(254.844 53.841)" opacity="0.38" style="mix-blend-mode: screen;isolation: isolate">
          <g id="Grupo_171271" data-name="Grupo 171271">
            <g id="Grupo_171270" data-name="Grupo 171270" clip-path="url(#clip-path-8)">
              <path id="Trazado_168585" data-name="Trazado 168585" d="M645.649,153.1a2.208,2.208,0,0,0-.614,1.767c.021.228.369.146.348-.079a1.818,1.818,0,0,1,.51-1.427c.159-.165-.084-.427-.244-.261" transform="translate(-644.71 -146.344)" fill="#7a3a26"/>
              <path id="Trazado_168586" data-name="Trazado 168586" d="M647.32,158.4a2.284,2.284,0,0,0-.423,1.181.179.179,0,0,0,.356.016,1.936,1.936,0,0,1,.368-1.007c.135-.187-.168-.376-.3-.19" transform="translate(-645.841 -149.532)" fill="#7a3a26"/>
              <path id="Trazado_168587" data-name="Trazado 168587" d="M644.343,165.631a.808.808,0,0,0-.1.567c.042.225.39.146.348-.079a.426.426,0,0,1,.052-.3c.116-.2-.185-.389-.3-.19" transform="translate(-644.229 -153.901)" fill="#7a3a26"/>
              <path id="Trazado_168588" data-name="Trazado 168588" d="M647.067,169.163a.921.921,0,0,1-.907.048c-.2-.1-.4.2-.19.3a1.286,1.286,0,0,0,1.267-.035c.195-.119.028-.435-.169-.315" transform="translate(-645.228 -156.071)" fill="#7a3a26"/>
              <path id="Trazado_168589" data-name="Trazado 168589" d="M648.418,164.532a1.192,1.192,0,0,1-.775.615.178.178,0,0,0,.079.348,1.542,1.542,0,0,0,1-.773c.108-.2-.194-.393-.3-.19" transform="translate(-646.212 -153.235)" fill="#7a3a26"/>
              <path id="Trazado_168590" data-name="Trazado 168590" d="M649.084,172.972a1.1,1.1,0,0,1-.96.008c-.21-.094-.315.248-.108.34a1.442,1.442,0,0,0,1.237-.034c.206-.1.037-.416-.169-.314" transform="translate(-646.45 -158.377)" fill="#7a3a26"/>
              <path id="Trazado_168591" data-name="Trazado 168591" d="M654.119,169.137a1.244,1.244,0,0,1-.593.638.179.179,0,0,0,.169.314,1.619,1.619,0,0,0,.765-.845c.087-.213-.254-.318-.34-.107" transform="translate(-649.792 -156.002)" fill="#7a3a26"/>
              <path id="Trazado_168592" data-name="Trazado 168592" d="M654.243,164.763a2.606,2.606,0,0,0-.694.546c-.152.169.09.432.244.26a2.317,2.317,0,0,1,.619-.492.179.179,0,0,0-.169-.314" transform="translate(-649.833 -153.413)" fill="#7a3a26"/>
              <path id="Trazado_168593" data-name="Trazado 168593" d="M651.58,158.612a3.044,3.044,0,0,0-.858.793c-.136.185.167.374.3.19a2.582,2.582,0,0,1,.725-.668c.194-.12.027-.436-.169-.314" transform="translate(-648.133 -149.693)" fill="#7a3a26"/>
              <path id="Trazado_168594" data-name="Trazado 168594" d="M652.073,148.935a2.482,2.482,0,0,0-1.491.529c-.182.141.063.4.244.261a2.065,2.065,0,0,1,1.23-.434c.229-.005.246-.361.016-.356" transform="translate(-648.03 -143.86)" fill="#7a3a26"/>
              <path id="Trazado_168595" data-name="Trazado 168595" d="M651.664,152.225a4.687,4.687,0,0,0-.857.436c-.191.123-.025.439.169.314a4.664,4.664,0,0,1,.857-.436c.213-.082.043-.4-.169-.314" transform="translate(-648.153 -145.841)" fill="#7a3a26"/>
              <path id="Trazado_168596" data-name="Trazado 168596" d="M658.687,152.794a6.29,6.29,0,0,0-1.119-.169.178.178,0,0,0-.016.356,5.78,5.78,0,0,1,1.028.153c.222.054.331-.286.107-.34" transform="translate(-652.182 -146.09)" fill="#7a3a26"/>
              <path id="Trazado_168597" data-name="Trazado 168597" d="M657.257,156.64a2.076,2.076,0,0,1-.849-.106c-.218-.075-.324.265-.107.34a2.321,2.321,0,0,0,.94.122c.226-.017.245-.374.016-.356" transform="translate(-651.454 -148.447)" fill="#7a3a26"/>
              <path id="Trazado_168598" data-name="Trazado 168598" d="M657.781,161.585a1.859,1.859,0,0,1-.88.141.179.179,0,0,0-.016.356,2.255,2.255,0,0,0,1.066-.183c.211-.09.041-.4-.169-.314" transform="translate(-651.779 -151.497)" fill="#7a3a26"/>
              <path id="Trazado_168599" data-name="Trazado 168599" d="M659.271,165.535a2.51,2.51,0,0,1-.762.258c-.227.038-.147.386.079.348a2.832,2.832,0,0,0,.852-.291.179.179,0,0,0-.169-.314" transform="translate(-652.779 -153.881)" fill="#7a3a26"/>
              <path id="Trazado_168600" data-name="Trazado 168600" d="M662.23,159.9a1.932,1.932,0,0,1-1,.008c-.222-.057-.33.283-.107.34a2.307,2.307,0,0,0,1.183,0c.222-.059.143-.407-.079-.348" transform="translate(-654.368 -150.485)" fill="#7a3a26"/>
              <path id="Trazado_168601" data-name="Trazado 168601" d="M651.4,177.765a1.747,1.747,0,0,1-.323-.652c-.058-.222-.406-.144-.348.079a2.2,2.2,0,0,0,.41.817c.143.18.4-.065.261-.244" transform="translate(-648.157 -160.812)" fill="#7a3a26"/>
              <path id="Trazado_168602" data-name="Trazado 168602" d="M653.555,180.429c-.093-.21-.408-.04-.315.169l.277.623c.093.21.408.041.315-.169l-.277-.623" transform="translate(-649.666 -162.838)" fill="#7a3a26"/>
              <path id="Trazado_168603" data-name="Trazado 168603" d="M666.286,161.058q-.335.268-.693.5c-.191.124-.025.44.169.314q.4-.259.769-.555c.179-.144-.066-.4-.244-.261" transform="translate(-657.09 -151.163)" fill="#7a3a26"/>
              <path id="Trazado_168604" data-name="Trazado 168604" d="M664.243,155.5a4.038,4.038,0,0,0-1.2.363c-.207.1-.038.413.169.314a3.708,3.708,0,0,1,1.112-.329c.227-.031.147-.379-.079-.348" transform="translate(-655.542 -147.83)" fill="#7a3a26"/>
              <path id="Trazado_168605" data-name="Trazado 168605" d="M664.18,152.5a3.015,3.015,0,0,0-.883.373c-.193.121-.026.437.169.314a2.685,2.685,0,0,1,.793-.34.179.179,0,0,0-.079-.348" transform="translate(-655.702 -146.015)" fill="#7a3a26"/>
              <path id="Trazado_168606" data-name="Trazado 168606" d="M660.393,148.152a2.439,2.439,0,0,0-.465.326c-.172.153.072.413.244.261a2.015,2.015,0,0,1,.39-.273.179.179,0,0,0-.169-.314" transform="translate(-653.683 -143.374)" fill="#7a3a26"/>
              <path id="Trazado_168607" data-name="Trazado 168607" d="M659.822,144.925a1.456,1.456,0,0,0-.981.517c-.145.174.1.437.244.26a1.168,1.168,0,0,1,.817-.429c.228-.022.147-.369-.079-.348" transform="translate(-653.033 -141.436)" fill="#7a3a26"/>
              <path id="Trazado_168608" data-name="Trazado 168608" d="M665.76,140.219a2.371,2.371,0,0,0-.877.859c-.117.2.185.388.3.19a2.009,2.009,0,0,1,.744-.735c.2-.114.031-.428-.169-.314" transform="translate(-656.697 -138.577)" fill="#7a3a26"/>
              <path id="Trazado_168609" data-name="Trazado 168609" d="M671.915,136.114a1.758,1.758,0,0,0-1.527.666c-.145.178.159.366.3.19a1.387,1.387,0,0,1,1.208-.5c.229.019.245-.338.016-.356" transform="translate(-660.017 -136.107)" fill="#7a3a26"/>
              <path id="Trazado_168610" data-name="Trazado 168610" d="M672.4,139.663a1.652,1.652,0,0,0-.862.251c-.193.121-.026.438.169.314a1.294,1.294,0,0,1,.677-.209c.229,0,.246-.361.016-.356" transform="translate(-660.684 -138.256)" fill="#7a3a26"/>
              <path id="Trazado_168611" data-name="Trazado 168611" d="M668.363,144.428l-.766.274c-.213.076-.137.425.079.348l.766-.273c.214-.076.137-.425-.079-.348" transform="translate(-658.277 -141.13)" fill="#7a3a26"/>
              <path id="Trazado_168612" data-name="Trazado 168612" d="M665.919,148.115a1.293,1.293,0,0,1-.716-.235c-.189-.131-.379.171-.19.3a1.63,1.63,0,0,0,.889.29.178.178,0,0,0,.016-.356" transform="translate(-656.745 -143.203)" fill="#7a3a26"/>
              <path id="Trazado_168613" data-name="Trazado 168613" d="M670.565,153.1a1.4,1.4,0,0,1-1.194-.173c-.193-.126-.383.176-.19.3a1.748,1.748,0,0,0,1.463.219c.219-.065.142-.413-.079-.348" transform="translate(-659.262 -146.258)" fill="#7a3a26"/>
              <path id="Trazado_168614" data-name="Trazado 168614" d="M670.469,157.154a2.184,2.184,0,0,1-1.1.021c-.223-.053-.331.287-.107.34a2.565,2.565,0,0,0,1.284-.013c.221-.06.143-.408-.079-.348" transform="translate(-659.286 -148.824)" fill="#7a3a26"/>
              <path id="Trazado_168615" data-name="Trazado 168615" d="M673.148,160.932a1.3,1.3,0,0,1-1.106-.123.178.178,0,0,0-.19.3,1.648,1.648,0,0,0,1.375.169c.217-.07.14-.419-.079-.348" transform="translate(-660.875 -151.021)" fill="#7a3a26"/>
              <path id="Trazado_168616" data-name="Trazado 168616" d="M677.584,161.4a3.006,3.006,0,0,1-1.249.514c-.227.038-.147.386.079.348a3.246,3.246,0,0,0,1.339-.547c.185-.13.019-.447-.169-.314" transform="translate(-663.553 -151.374)" fill="#7a3a26"/>
              <path id="Trazado_168617" data-name="Trazado 168617" d="M676.906,156.839a2.565,2.565,0,0,1-.873.549c-.212.078-.136.428.079.348a3.01,3.01,0,0,0,1.038-.636.179.179,0,0,0-.244-.261" transform="translate(-663.376 -148.608)" fill="#7a3a26"/>
              <path id="Trazado_168618" data-name="Trazado 168618" d="M676.279,153.343a3.817,3.817,0,0,1-.8.494c-.208.1-.04.411.169.315a4.237,4.237,0,0,0,.876-.548c.178-.145-.066-.4-.244-.261" transform="translate(-663.059 -146.499)" fill="#7a3a26"/>
              <path id="Trazado_168619" data-name="Trazado 168619" d="M671.01,149.411l-.681.229c-.216.073-.139.421.079.348l.682-.229c.216-.073.139-.421-.079-.348" transform="translate(-659.927 -144.142)" fill="#7a3a26"/>
              <path id="Trazado_168620" data-name="Trazado 168620" d="M673.144,144.638a3.536,3.536,0,0,0-.959.414c-.194.121-.027.436.169.314a3.187,3.187,0,0,1,.87-.381c.221-.06.143-.408-.079-.348" transform="translate(-661.074 -141.259)" fill="#7a3a26"/>
              <path id="Trazado_168621" data-name="Trazado 168621" d="M676.573,148.65l-1.081.272a.178.178,0,0,0,.079.348l1.081-.272a.179.179,0,0,0-.079-.348" transform="translate(-663.045 -143.684)" fill="#7a3a26"/>
              <path id="Trazado_168622" data-name="Trazado 168622" d="M678.119,139.983a2.962,2.962,0,0,0-1.066.165c-.214.075-.138.424.079.348a2.685,2.685,0,0,1,.971-.157.179.179,0,0,0,.016-.356" transform="translate(-663.991 -138.449)" fill="#7a3a26"/>
              <path id="Trazado_168623" data-name="Trazado 168623" d="M682.293,137.724a1.32,1.32,0,0,0-1.233-.518c-.228.027-.147.374.079.348a.97.97,0,0,1,.894.414c.135.185.394-.06.261-.244" transform="translate(-666.408 -136.766)" fill="#7a3a26"/>
              <path id="Trazado_168624" data-name="Trazado 168624" d="M682.959,143.627a1.058,1.058,0,0,1-.964-.123c-.191-.127-.381.175-.19.3a1.431,1.431,0,0,0,1.323.136c.214-.081.044-.394-.169-.314" transform="translate(-666.892 -140.559)" fill="#7a3a26"/>
              <path id="Trazado_168625" data-name="Trazado 168625" d="M678.565,145.588l-.882-.257a.178.178,0,0,0-.107.34l.882.257a.178.178,0,0,0,.107-.34" transform="translate(-664.311 -141.677)" fill="#7a3a26"/>
              <path id="Trazado_168626" data-name="Trazado 168626" d="M682.815,150.377l-1,.038c-.228.008-.246.365-.016.356l1-.038c.228-.009.246-.365.016-.356" transform="translate(-666.84 -144.732)" fill="#7a3a26"/>
              <path id="Trazado_168627" data-name="Trazado 168627" d="M681.6,155.327a1.481,1.481,0,0,1-1.16.308c-.227-.032-.242.325-.016.356a1.833,1.833,0,0,0,1.42-.4c.179-.144-.066-.4-.244-.261" transform="translate(-666.008 -147.699)" fill="#7a3a26"/>
              <path id="Trazado_168628" data-name="Trazado 168628" d="M683.932,157.89a2.29,2.29,0,0,1-.975.528c-.222.058-.144.406.079.348a2.684,2.684,0,0,0,1.14-.615c.17-.154-.074-.415-.244-.261" transform="translate(-667.557 -149.244)" fill="#7a3a26"/>
              <path id="Trazado_168629" data-name="Trazado 168629" d="M687.34,152.689a1.83,1.83,0,0,1-.766.247c-.228.022-.147.37.079.348a2.073,2.073,0,0,0,.855-.28c.2-.116.03-.432-.169-.314" transform="translate(-669.741 -146.114)" fill="#7a3a26"/>
              <path id="Trazado_168630" data-name="Trazado 168630" d="M686.116,146.884a7.715,7.715,0,0,1-1.427-.268.178.178,0,0,0-.107.34,8.177,8.177,0,0,0,1.518.284c.229.021.244-.335.016-.356" transform="translate(-668.545 -142.454)" fill="#7a3a26"/>
              <path id="Trazado_168631" data-name="Trazado 168631" d="M689.073,143.053a2.2,2.2,0,0,0-1.151-.3c-.229.006-.246.362-.016.356a1.85,1.85,0,0,1,.977.241c.2.114.391-.188.19-.3" transform="translate(-670.529 -140.127)" fill="#7a3a26"/>
              <path id="Trazado_168632" data-name="Trazado 168632" d="M690.358,140.177a2.394,2.394,0,0,0-1.019-.478c-.224-.046-.332.294-.108.34a2.166,2.166,0,0,1,.937.44c.179.144.367-.159.19-.3" transform="translate(-671.354 -138.275)" fill="#7a3a26"/>
              <path id="Trazado_168633" data-name="Trazado 168633" d="M691.493,153.971l-.624-1.09c-.114-.2-.429-.031-.314.169l.624,1.09c.114.2.429.031.315-.169" transform="translate(-672.214 -146.192)" fill="#7a3a26"/>
              <path id="Trazado_168634" data-name="Trazado 168634" d="M692.287,149.159a4.884,4.884,0,0,0-1.265-.624.179.179,0,0,0-.108.34,4.557,4.557,0,0,1,1.183.585c.19.131.379-.172.19-.3" transform="translate(-672.374 -143.613)" fill="#7a3a26"/>
              <path id="Trazado_168635" data-name="Trazado 168635" d="M694.009,146.021a2.676,2.676,0,0,0-.765-.41c-.218-.075-.324.265-.107.34a2.38,2.38,0,0,1,.682.372c.182.141.371-.163.19-.3" transform="translate(-673.718 -141.845)" fill="#7a3a26"/>
              <path id="Trazado_168636" data-name="Trazado 168636" d="M694.868,142.478a1.042,1.042,0,0,0-.441-.238c-.223-.054-.331.286-.107.34a.668.668,0,0,1,.288.142.184.184,0,0,0,.252.008.18.18,0,0,0,.008-.252" transform="translate(-674.431 -139.81)" fill="#7a3a26"/>
              <path id="Trazado_168637" data-name="Trazado 168637" d="M688.424,150.169l-.551-.02a.179.179,0,0,0-.016.357l.551.019a.178.178,0,0,0,.016-.356" transform="translate(-670.499 -144.594)" fill="#7a3a26"/>
              <path id="Trazado_168638" data-name="Trazado 168638" d="M698.525,148.615a1.983,1.983,0,0,0-.818-.651c-.21-.093-.315.248-.107.34a1.649,1.649,0,0,1,.664.554c.134.186.394-.059.261-.244" transform="translate(-676.419 -143.264)" fill="#7a3a26"/>
              <path id="Trazado_168639" data-name="Trazado 168639" d="M696.986,153.791a3.71,3.71,0,0,0-.807-1.15c-.164-.159-.426.083-.26.244a3.444,3.444,0,0,1,.753,1.075c.094.209.408.04.314-.169" transform="translate(-675.44 -146.069)" fill="#7a3a26"/>
              <path id="Trazado_168640" data-name="Trazado 168640" d="M694.984,158.563a2.457,2.457,0,0,1-.757-1.2c-.061-.221-.41-.143-.348.079a2.8,2.8,0,0,0,.845,1.365c.17.151.433-.091.261-.244" transform="translate(-674.234 -148.875)" fill="#7a3a26"/>
              <path id="Trazado_168641" data-name="Trazado 168641" d="M698.305,158.622l-.589-.781c-.138-.183-.4.062-.261.244l.589.781c.138.183.4-.062.261-.244" transform="translate(-676.377 -149.204)" fill="#7a3a26"/>
              <path id="Trazado_168642" data-name="Trazado 168642" d="M700.681,152.356c-.174-.145-.438.1-.261.244a2.225,2.225,0,0,1,.815,1.549c.021.228.369.147.348-.079a2.511,2.511,0,0,0-.9-1.713" transform="translate(-678.156 -145.901)" fill="#7a3a26"/>
              <path id="Trazado_168643" data-name="Trazado 168643" d="M700.955,158.377c-.154-.171-.414.073-.261.244a2.2,2.2,0,0,1,.513.984.178.178,0,0,0,.348-.079,2.588,2.588,0,0,0-.6-1.149" transform="translate(-678.33 -149.532)" fill="#7a3a26"/>
              <path id="Trazado_168644" data-name="Trazado 168644" d="M698.829,162.633c-.223-.049-.332.291-.107.34a.9.9,0,0,1,.7.687.179.179,0,0,0,.348-.079,1.255,1.255,0,0,0-.945-.948" transform="translate(-677.091 -152.137)" fill="#7a3a26"/>
              <path id="Trazado_168645" data-name="Trazado 168645" d="M704.167,162.851c-.06-.221-.408-.143-.348.079a3.293,3.293,0,0,1,.117.885c0,.229.355.246.356.016a3.679,3.679,0,0,0-.125-.981" transform="translate(-680.242 -152.192)" fill="#7a3a26"/>
              <path id="Trazado_168646" data-name="Trazado 168646" d="M701.06,168.525a3.556,3.556,0,0,1,.066.712c0,.229.355.246.357.016a4.065,4.065,0,0,0-.074-.807c-.044-.225-.392-.146-.348.079" transform="translate(-678.577 -155.572)" fill="#7a3a26"/>
              <path id="Trazado_168647" data-name="Trazado 168647" d="M704.81,167.741c-.119-.195-.435-.028-.315.169a1.2,1.2,0,0,1,.169.873c-.044.223.3.332.34.107a1.57,1.57,0,0,0-.194-1.149" transform="translate(-680.639 -155.175)" fill="#7a3a26"/>
              <path id="Trazado_168648" data-name="Trazado 168648" d="M703.309,170.283a4.365,4.365,0,0,1-.008.823c-.023.229.333.244.357.016a4.4,4.4,0,0,0,.008-.823c-.019-.226-.376-.244-.356-.016" transform="translate(-679.933 -156.665)" fill="#7a3a26"/>
              <path id="Trazado_168649" data-name="Trazado 168649" d="M699.862,172.1a1.6,1.6,0,0,0,.087.763.185.185,0,0,0,.214.135.179.179,0,0,0,.134-.214,1.376,1.376,0,0,1-.079-.667c.029-.228-.328-.242-.356-.016" transform="translate(-677.847 -157.761)" fill="#7a3a26"/>
              <path id="Trazado_168650" data-name="Trazado 168650" d="M651.2,155.308a4.465,4.465,0,0,0-.678.618c-.152.17.091.432.244.261a4.445,4.445,0,0,1,.678-.618c.184-.136-.061-.4-.244-.261" transform="translate(-648.006 -147.69)" fill="#7a3a26"/>
            </g>
          </g>
        </g>
        <path id="Trazado_168651" data-name="Trazado 168651" d="M700.171,175.007a1.057,1.057,0,0,1,1.025.061,1.4,1.4,0,0,1,.428.628,5.105,5.105,0,0,1,.376,1.746,2.694,2.694,0,0,1-.107.941,2.564,2.564,0,0,1-.333.643,4.27,4.27,0,0,1-2.34,1.678,26.044,26.044,0,0,1-.115-3.457c.093-.917.108-1.824,1.066-2.239" transform="translate(-422.547 -105.716)" fill="#ffa78b"/>
        <path id="Trazado_168652" data-name="Trazado 168652" d="M699.5,181.333a.178.178,0,0,1-.178-.168,3.434,3.434,0,0,1,1.758-3.344.178.178,0,1,1,.093.345,3.105,3.105,0,0,0-1.494,2.978.178.178,0,0,1-.167.189H699.5" transform="translate(-422.68 -107.476)" fill="#ff7559"/>
        <path id="Trazado_168653" data-name="Trazado 168653" d="M701.43,181.964a.177.177,0,0,1-.143-.073.628.628,0,0,0-.451-.25.619.619,0,0,0-.483.179.179.179,0,0,1-.253-.252.974.974,0,0,1,1.474.112.178.178,0,0,1-.144.284" transform="translate(-423.123 -109.571)" fill="#ff7559"/>
        <path id="Trazado_168654" data-name="Trazado 168654" d="M653.978,239.653a108.152,108.152,0,0,0-17.843-10.745c-14.511,11.775-22.1,1.87-22.1,1.87-15.841,5.883-20.6,12.619-21.8,16.284-4.99,15.276-9.319,22.963-9.319,22.963s-.812,10.492,9.625,8.678c7.226-1.475,6.919-13.134,6.919-13.134,1.071,4.282,3.688,48.437,3.688,48.437s30.651,3.978,48.922-2.093c-.275-2.2-5.75-40.68-4.924-48.107.316-2.846,17.012-16.542,6.832-24.154" transform="translate(-352.317 -138.357)" fill="#45708e"/>
        <g id="Grupo_171277" data-name="Grupo 171277" transform="translate(249.679 142.54)" style="mix-blend-mode: multiply;isolation: isolate">
          <g id="Grupo_171276" data-name="Grupo 171276">
            <g id="Grupo_171275" data-name="Grupo 171275" clip-path="url(#clip-path-9)">
              <g id="Grupo_171274" data-name="Grupo 171274" transform="translate(0 0)">
                <g id="Grupo_171273" data-name="Grupo 171273" clip-path="url(#clip-path-10)">
                  <rect id="Rectángulo_43518" data-name="Rectángulo 43518" width="61.734" height="56.582" transform="translate(-15.626 8.559) rotate(-28.71)" fill="url(#linear-gradient)"/>
                </g>
              </g>
            </g>
          </g>
        </g>
        <g id="Grupo_171282" data-name="Grupo 171282" transform="translate(287.375 121.533)" style="mix-blend-mode: multiply;isolation: isolate">
          <g id="Grupo_171281" data-name="Grupo 171281">
            <g id="Grupo_171280" data-name="Grupo 171280" clip-path="url(#clip-path-11)">
              <g id="Grupo_171279" data-name="Grupo 171279" transform="translate(0)">
                <g id="Grupo_171278" data-name="Grupo 171278" clip-path="url(#clip-path-12)">
                  <rect id="Rectángulo_43520" data-name="Rectángulo 43520" width="1.124" height="1.775" transform="translate(-0.306 0.004) rotate(-2.77)" fill="url(#linear-gradient-2)"/>
                </g>
              </g>
            </g>
          </g>
        </g>
        <path id="Trazado_168657" data-name="Trazado 168657" d="M616.764,298.742a.332.332,0,0,1-.332-.332c0-13.7-6.491-29.94-6.556-30.1a.332.332,0,0,1,.616-.249c.066.164,6.6,16.517,6.6,30.351a.332.332,0,0,1-.332.332" transform="translate(-368.607 -161.895)" fill="#8aa4b9"/>
        <path id="Trazado_168658" data-name="Trazado 168658" d="M668.832,325.234h-.011a.332.332,0,0,1-.321-.343c1.343-41.145,5.481-81.351,5.522-81.752a.332.332,0,0,1,.661.068c-.042.4-4.178,40.585-5.519,81.706a.332.332,0,0,1-.331.321" transform="translate(-404.055 -146.778)" fill="#8aa4b9"/>
        <path id="Trazado_168659" data-name="Trazado 168659" d="M676.587,240.121l-3.42-2.329-.97,2.959Z" transform="translate(-406.289 -143.727)" fill="#45708e"/>
        <path id="Trazado_168660" data-name="Trazado 168660" d="M683.3,240.909l3.229-1.813v3.969Z" transform="translate(-412.997 -144.515)" fill="#45708e"/>
        <path id="Trazado_168661" data-name="Trazado 168661" d="M674.891,238.568a22.388,22.388,0,0,0,1.741,5.606c.177.044,2.374.1,2.374.1a21.817,21.817,0,0,0,1.968-5.012l-3.042.2c-.044-.067-1.939-.435-3.042-.894" transform="translate(-407.918 -144.196)" fill="#373b45"/>
        <path id="Trazado_168662" data-name="Trazado 168662" d="M669.586,230.278l-2.977-.59-1.615,4.423-3.913-6.526,2.721-4.213.69.616a32.736,32.736,0,0,1,4.094,4.753Z" transform="translate(-399.571 -135.011)" fill="#8aa4b9"/>
        <path id="Trazado_168663" data-name="Trazado 168663" d="M682.581,229.2s4.586-6.274,9.394-7.608c.042.052,5.458,3.392,5.458,3.392l-11.315,9.029-.5-5.012Z" transform="translate(-412.566 -133.938)" fill="#8aa4b9"/>
        <path id="Trazado_168664" data-name="Trazado 168664" d="M672.865,252.065s-5.587,28.1-3.973,48.746c.193,0,5.634,2.395,5.634,2.395l-.114-3.338s1.68-46.58.663-47.8Z" transform="translate(-404.115 -152.354)" fill="#373b45"/>
        <path id="Trazado_168665" data-name="Trazado 168665" d="M634.574,450.079s27.612,3.94,49.483-3.556l-.684-4.2s-29.221,4.577-48.975,2.759Z" transform="translate(-383.444 -267.349)" fill="#292c34"/>
        <path id="Trazado_168666" data-name="Trazado 168666" d="M545.506,663.051l-1.415,6.789,11.145,2.343,1.481-2.343-1.039-7.794Z" transform="translate(-328.86 -400.154)" fill="#fff"/>
        <path id="Trazado_168667" data-name="Trazado 168667" d="M527.851,672.774s2.669,6.765,1.483,11.787c-1.635,0-32.427-.718-32.427-.718v-.586a1.648,1.648,0,0,1,1.041-1.55c3.256-1.243,13.251-5.164,16.952-7.807.4-.2,6.13,3.587,12.951-1.127" transform="translate(-300.341 -406.639)" fill="#da9a68"/>
        <path id="Trazado_168668" data-name="Trazado 168668" d="M534.813,683.623a.181.181,0,0,1-.134-.06,13.005,13.005,0,0,0-3.448-1.923.18.18,0,0,1,.131-.335,13,13,0,0,1,3.585,2.018.18.18,0,0,1-.134.3" transform="translate(-321.017 -411.787)" fill="#373b45"/>
        <path id="Trazado_168669" data-name="Trazado 168669" d="M528.293,686.756a.18.18,0,0,1-.13-.055,19.2,19.2,0,0,0-3.437-2.007.18.18,0,0,1,.154-.326,18.918,18.918,0,0,1,3.544,2.083.18.18,0,0,1,0,.254.178.178,0,0,1-.125.051" transform="translate(-317.092 -413.635)" fill="#373b45"/>
        <path id="Trazado_168670" data-name="Trazado 168670" d="M522.379,689.415a.18.18,0,0,1-.144-.072,7.674,7.674,0,0,0-3.25-2.059h-.008a.168.168,0,0,1-.224-.1.19.19,0,0,1,.106-.241c.415-.178,2.854,1.1,3.664,2.18a.18.18,0,0,1-.144.288" transform="translate(-313.537 -415.195)" fill="#373b45"/>
        <path id="Trazado_168671" data-name="Trazado 168671" d="M546.826,678.566a11.049,11.049,0,0,1-6.662-2.3l-.061-.047a.18.18,0,0,1-.014-.312c.111-.07.192-.006.3.075,1.494,1.165,6.909,4.577,13.849-.444a.18.18,0,1,1,.21.292,12.888,12.888,0,0,1-7.618,2.734" transform="translate(-326.39 -408.29)" fill="#373b45"/>
        <path id="Trazado_168672" data-name="Trazado 168672" d="M529.291,703.035H496.907v-2.277l32.427.718Z" transform="translate(-300.341 -423.553)" fill="#373b45"/>
        <path id="Trazado_168673" data-name="Trazado 168673" d="M597.312,434.484c-7.249,0-30.189-1.05-31.658-.59-10.409,3.263-21.543,8.415-29.288,11.525-6,2.41-11.969,4.851-14.81,11.388-2.416,5.56,2.227,27.223,3.379,33.619,1.831,10.163,3.684,24.075,5.12,34.663.172,1.273,7.845,1.446,11.587-1.014.91-.6,1.328-6.551,1.436-7.586a370.474,370.474,0,0,0,1.759-44.777,2.758,2.758,0,0,1,2.567-2.6c25.579-3.5,41.9-6.158,42.56-6.325,0,0,6.9-26.577,7.347-28.3" transform="translate(-314.824 -262.185)" fill="#1f2127"/>
        <path id="Trazado_168674" data-name="Trazado 168674" d="M641.581,667.3l-1.034,6.862,11.257,1.67,1.347-2.428-1.472-7.719Z" transform="translate(-387.16 -402.353)" fill="#fff"/>
        <path id="Trazado_168675" data-name="Trazado 168675" d="M624.724,676.29s3.043,6.593,2.139,11.679c-1.632.1-32.412,1.231-32.412,1.231l-.033-.585a1.657,1.657,0,0,1,.953-1.61c3.181-1.437,12.941-5.951,16.487-8.812.383-.229,6.32,3.213,12.866-1.9" transform="translate(-359.277 -408.764)" fill="#da9a68"/>
        <path id="Trazado_168676" data-name="Trazado 168676" d="M631.4,689.527a.179.179,0,0,1-.127-.052,12.968,12.968,0,0,0-3.55-1.713.18.18,0,1,1,.111-.343,12.929,12.929,0,0,1,3.692,1.8.18.18,0,0,1-.127.308" transform="translate(-379.33 -415.485)" fill="#373b45"/>
        <path id="Trazado_168677" data-name="Trazado 168677" d="M625.06,693.045a.18.18,0,0,1-.122-.048,19.143,19.143,0,0,0-3.544-1.8.18.18,0,1,1,.133-.334,18.8,18.8,0,0,1,3.655,1.867.18.18,0,0,1-.122.313" transform="translate(-375.515 -417.566)" fill="#373b45"/>
        <path id="Trazado_168678" data-name="Trazado 168678" d="M619.307,696.051a.18.18,0,0,1-.138-.064,7.543,7.543,0,0,0-3.366-1.859.169.169,0,0,1-.231-.084.191.191,0,0,1,.092-.246c.4-.2,2.91.927,3.78,1.957a.181.181,0,0,1-.021.254.184.184,0,0,1-.116.042" transform="translate(-372.054 -419.331)" fill="#373b45"/>
        <path id="Trazado_168679" data-name="Trazado 168679" d="M642.515,682.476a11.059,11.059,0,0,1-6.146-1.912l-.063-.043a.178.178,0,0,1-.074-.059.18.18,0,0,1,.041-.252c.107-.077.192-.017.3.057,1.557,1.074,7.154,4.155,13.8-1.276a.18.18,0,1,1,.228.279,12.655,12.655,0,0,1-8.086,3.206" transform="translate(-384.531 -410.372)" fill="#373b45"/>
        <path id="Trazado_168680" data-name="Trazado 168680" d="M626.962,707.372l-32.33,1.945-.127-2.273,32.412-1.231Z" transform="translate(-359.331 -426.608)" fill="#373b45"/>
        <path id="Trazado_168681" data-name="Trazado 168681" d="M662.262,428.589c-10.344.837-40.7,3.876-51.6,10.585-5.533,3.407-11.2,10.285-10.891,17.855.251,6.093,4.976,26.829,6.771,33.063C609.4,500,612.652,513.631,615.154,524c.3,1.247,7.948.582,11.42-2.272.844-.694.655-6.66.659-7.7a370.456,370.456,0,0,0-2.793-44.721,2.784,2.784,0,0,1,2.288-2.869c7.759-1.938,13.95-3.613,18.82-5.008a25.049,25.049,0,0,0,17.779-22.182c.261-3.142-.574-10.7-1.065-10.663" transform="translate(-362.509 -259.048)" fill="#292c34"/>
        <path id="Trazado_168682" data-name="Trazado 168682" d="M692.632,385.343s30.337-6.512,26.767-63.961c.026-.538.02-10.759.011-18.319a4.065,4.065,0,0,1,.243-1.361c1.627-4.608,8.422-3.816,9.141,1.018,3.387,22.769,9.139,88.041-36.251,88.041-.394,0,.089-5.417.089-5.417" transform="translate(-418.494 -180.503)" fill="#da9a68"/>
        <path id="Trazado_168683" data-name="Trazado 168683" d="M638.821,385.109a43.662,43.662,0,0,1,9.732-4.024c-.032.07,1.36,4.08,2.269,6.682a1.249,1.249,0,0,1-1.332,1.65c-1.889-.221-5-.04-9.14,2.07-.156-.615-1.529-6.379-1.529-6.379" transform="translate(-386.116 -230.336)" fill="#ffa78b"/>
        <path id="Trazado_168684" data-name="Trazado 168684" d="M625.719,394.9a20.781,20.781,0,0,1-10.777,3.617,7.641,7.641,0,0,1-3.431-3.654,7.8,7.8,0,0,1-.34-5.054,13.594,13.594,0,0,1,6.143-1.274c2.11-.025,4.22.184,6.33.1,1.06-.04,1.876,1.065,2.467,1.945.751,1.12-.4,2.967-.391,4.316" transform="translate(-369.243 -234.838)" fill="#ffa78b"/>
        <path id="Trazado_168685" data-name="Trazado 168685" d="M598.009,399.113a31.148,31.148,0,0,0-8.034,3,2.433,2.433,0,0,0-.805.6.876.876,0,0,0-.125.945,1.211,1.211,0,0,0,.786.468c-.281.569.49,1.517,2.527.958,2.137-.587,4.427-1.146,6.531-1.843a3.969,3.969,0,0,0,.977-.424,2.048,2.048,0,0,0,.747-2.375,2.66,2.66,0,0,0-2.6-1.33" transform="translate(-355.976 -241.212)" fill="#ffa78b"/>
        <path id="Trazado_168686" data-name="Trazado 168686" d="M603.248,412.007a8.226,8.226,0,0,0-.892.533.466.466,0,0,0-.2.221c-.062.2.15.381.349.452a2.789,2.789,0,0,0,1.338.032A22.738,22.738,0,0,0,610,411.4c.266-.123.579-.357.485-.634-.3-.882-2.366-.732-3.05-.527a23.191,23.191,0,0,0-4.188,1.765" transform="translate(-363.951 -247.863)" fill="#ffa78b"/>
        <path id="Trazado_168687" data-name="Trazado 168687" d="M592.721,393.568a2.6,2.6,0,0,1-1.3.225c-.437-.083-.838-.532-.689-.952a1.051,1.051,0,0,1,.4-.458,9.4,9.4,0,0,1,2.565-1.245,42.7,42.7,0,0,1,7.964-1.751c.5-.043.441.407.847.705.648.475-.6,1.521-1.162,2.09-1.077,1.082-2.468.517-3.781.539a15.814,15.814,0,0,0-4.844.847" transform="translate(-357.031 -235.352)" fill="#ffa78b"/>
        <path id="Trazado_168688" data-name="Trazado 168688" d="M590.838,407.088a.216.216,0,0,1-.08-.417,88.117,88.117,0,0,1,8.8-3.046.216.216,0,0,1,.094.422,89.977,89.977,0,0,0-8.735,3.026.219.219,0,0,1-.08.015" transform="translate(-356.984 -243.956)" fill="#ff7559"/>
        <path id="Trazado_168689" data-name="Trazado 168689" d="M693.595,255.883c-3.292-1.444-7.24,10.358-7.652,11.628-9.233,28.44-37.5,39.336-37.5,39.336s2.267,6.444,4.637,8.106c25.71-5.039,32.724-10.729,36.7-16.77a30.175,30.175,0,0,0,3.543-7.567c6.854-21.85,6.045-29.74.271-34.733" transform="translate(-391.934 -154.588)" fill="#45708e"/>
        <path id="Trazado_168690" data-name="Trazado 168690" d="M648.655,309.9a.332.332,0,0,1-.125-.64c.229-.094,23.056-9.558,30.4-25.925.729-1.624,1.593-4.1,2.507-6.714,2.57-7.357,5.484-15.7,8.8-16.7a.332.332,0,1,1,.193.635c-2.993.909-6.1,9.8-8.365,16.285-.919,2.631-1.788,5.117-2.529,6.767-7.456,16.612-30.526,26.173-30.758,26.268a.331.331,0,0,1-.125.025" transform="translate(-391.859 -157.094)" fill="#8aa4b9"/>
        <path id="Trazado_168691" data-name="Trazado 168691" d="M650.041,392.52s-2.733-6.41-3.867-8.426l-2.761,1.163,2.6,8.3Z" transform="translate(-388.892 -232.155)" fill="#8aa4b9"/>
        <path id="Trazado_168692" data-name="Trazado 168692" d="M474.991,360.959l-7.4-28.757a1.3,1.3,0,0,1,1.26-1.625h45.116a1.3,1.3,0,0,1,1.243.919l8.963,29.191Z" transform="translate(-282.596 -199.808)" fill="#fff"/>
        <path id="Trazado_168693" data-name="Trazado 168693" d="M472.069,360.959l-7.4-28.757a1.3,1.3,0,0,1,1.26-1.625h45.116a1.3,1.3,0,0,1,1.243.919l8.963,29.191Z" transform="translate(-280.83 -199.808)" fill="#292c34"/>
        <path id="Trazado_168694" data-name="Trazado 168694" d="M608.2,403.2h17a1.313,1.313,0,0,1,1.313,1.313l-19.267.02Z" transform="translate(-367.029 -243.704)" fill="#fff"/>
        <path id="Trazado_168695" data-name="Trazado 168695" d="M749.515,396.613H710.628v3.919l37.64-2.981h1.247Z" transform="translate(-429.518 -239.721)" fill="#1f2127"/>
        <rect id="Rectángulo_43522" data-name="Rectángulo 43522" width="37.64" height="2.981" transform="translate(281.11 157.83)" fill="#fff"/>
        <rect id="Rectángulo_43523" data-name="Rectángulo 43523" width="31.24" height="3.919" transform="translate(269.374 156.892)" fill="#1f2127"/>
        <path id="Trazado_168696" data-name="Trazado 168696" d="M745.256,386.706H710.628v3.919l33.517-2.981h1.11Z" transform="translate(-429.518 -233.734)" fill="#e58c4f"/>
        <rect id="Rectángulo_43524" data-name="Rectángulo 43524" width="33.517" height="2.981" transform="translate(281.11 153.911)" fill="#fff"/>
        <rect id="Rectángulo_43525" data-name="Rectángulo 43525" width="26.229" height="3.919" transform="translate(269.374 152.973)" fill="#e58c4f"/>
        <path id="Trazado_168697" data-name="Trazado 168697" d="M309.173,395.712H351.6v4.275l-41.064-3.252h-1.361Z" transform="translate(-186.871 -239.177)" fill="#1f2127"/>
        <rect id="Rectángulo_43526" data-name="Rectángulo 43526" width="41.064" height="3.252" transform="translate(123.663 157.558)" fill="#fff"/>
        <rect id="Rectángulo_43527" data-name="Rectángulo 43527" width="34.083" height="4.275" transform="translate(143.449 156.535)" fill="#1f2127"/>
        <path id="Trazado_168698" data-name="Trazado 168698" d="M320.919,384.9H358.7v4.275l-36.567-3.252h-1.212Z" transform="translate(-193.97 -232.644)" fill="#e58c4f"/>
        <rect id="Rectángulo_43528" data-name="Rectángulo 43528" width="36.567" height="3.252" transform="translate(128.161 153.283)" fill="#fff"/>
        <rect id="Rectángulo_43529" data-name="Rectángulo 43529" width="28.615" height="4.275" transform="translate(148.917 152.26)" fill="#e58c4f"/>
        <path id="Trazado_168699" data-name="Trazado 168699" d="M315.584,373.164h36.364v3.665l-35.2-2.788h-1.166Z" transform="translate(-190.745 -225.548)" fill="#45708e"/>
        <rect id="Rectángulo_43530" data-name="Rectángulo 43530" width="35.198" height="2.788" transform="translate(126.005 148.492)" fill="#fff"/>
        <path id="Trazado_168700" data-name="Trazado 168700" d="M325.652,363.9h32.382v3.665l-31.343-2.788h-1.038Z" transform="translate(-196.831 -219.949)" fill="#ff7559"/>
        <rect id="Rectángulo_43531" data-name="Rectángulo 43531" width="31.343" height="2.788" transform="translate(129.86 144.828)" fill="#fff"/>
        <rect id="Rectángulo_43532" data-name="Rectángulo 43532" width="24.527" height="3.665" transform="translate(147.65 143.951)" fill="#ff7559"/>
        <path id="Trazado_168701" data-name="Trazado 168701" d="M333.709,373.164v3.665H315.584v.928h47.339v-4.592Z" transform="translate(-190.745 -225.548)" fill="#45708e"/>
        <path id="Trazado_168702" data-name="Trazado 168702" d="M390.5,536.956H357.247a1.2,1.2,0,0,1-1.164-.9l-28.729-109a1.2,1.2,0,0,1,1.164-1.511H390.5a1.2,1.2,0,0,1,1.2,1.2v109a1.2,1.2,0,0,1-1.2,1.2m-32.323-2.408h31.118V427.953H330.082Z" transform="translate(-197.836 -257.208)" fill="#5c2c1c"/>
        <path id="Trazado_168703" data-name="Trazado 168703" d="M708.015,539.408h-30.7a1.2,1.2,0,0,1-1.161-.885l-30.7-111.456a1.2,1.2,0,0,1,1.161-1.524h61.409a1.2,1.2,0,0,1,1.2,1.2V538.2a1.2,1.2,0,0,1-1.2,1.2M678.227,537h28.583V427.952H648.187Z" transform="translate(-390.094 -257.208)" fill="#7a3a26"/>
        <rect id="Rectángulo_43533" data-name="Rectángulo 43533" width="209.848" height="9.829" transform="translate(119.068 160.81)" fill="#7a3a26"/>
        <rect id="Rectángulo_43534" data-name="Rectángulo 43534" width="85.139" height="9.829" transform="translate(243.776 160.81)" fill="#9d4d32"/>
        <path id="Trazado_168704" data-name="Trazado 168704" d="M525.267,365.88a3.058,3.058,0,1,1-3.057-3.057,3.058,3.058,0,0,1,3.057,3.057" transform="translate(-313.786 -219.298)" fill="#1f2127"/>
        <rect id="Rectángulo_43535" data-name="Rectángulo 43535" width="159.769" height="133.11" fill="#fff"/>
        <path id="Trazado_168705" data-name="Trazado 168705" d="M8.123,46.982,9.5,155.291a.781.781,0,0,0,.781.771H160.8a.781.781,0,0,0,.781-.791l-1.375-108.29Z" transform="translate(-4.91 -28.397)" fill="#e0d0b6"/>
        <path id="Trazado_168706" data-name="Trazado 168706" d="M319.718,184.928l.659,51.9h28.757a.781.781,0,0,0,.781-.791l-.7-55.432Z" transform="translate(-193.244 -109.16)" fill="#cfad7a"/>
        <path id="Trazado_168707" data-name="Trazado 168707" d="M279.078,148.366l.494,38.919,11.182,10.433-.508-40.043H324.6l-.118-9.308Z" transform="translate(-168.68 -89.676)" fill="#cfad7a"/>
        <path id="Trazado_168708" data-name="Trazado 168708" d="M334.155,193.966a.661.661,0,0,0,.742.64c.14-.023.288-.039.429-.062Q346.655,192.915,358,191.3l-.015-1.179q-11.715,1.687-23.415,3.358a.438.438,0,0,0-.408.438.115.115,0,0,0-.007.055" transform="translate(-201.97 -114.91)" fill="#e0d0b6"/>
        <path id="Trazado_168709" data-name="Trazado 168709" d="M334.138,199.176l.616,48.531h1.172l-.616-48.531a.589.589,0,0,0-1.157-.133.115.115,0,0,0-.007.055.242.242,0,0,0-.007.078" transform="translate(-201.959 -120.042)" fill="#e0d0b6"/>
        <path id="Trazado_168710" data-name="Trazado 168710" d="M279.092,149.491l.019,1.492q5.585,4.439,11.162,8.878l-.019-1.491q-5.574-4.44-11.162-8.879" transform="translate(-168.689 -90.356)" fill="#e0d0b6"/>
        <path id="Trazado_168711" data-name="Trazado 168711" d="M9.993,173.5l.645,50.819H137.5s.27-16.219-2.333-22.583-7.861-13.939-18.027-19.459-27.771-11.3-43.445-15.742-36.007-6.848-44.3-6.606S15.261,162.81,9.993,173.5" transform="translate(-6.04 -96.654)" fill="#fff0f0"/>
        <path id="Trazado_168712" data-name="Trazado 168712" d="M77.175,277.315l-2.9,13.965c-.152.73-1.276.421-1.124-.309l2.9-13.965c.152-.73,1.276-.421,1.125.309" transform="translate(-44.205 -167.177)" fill="#c29e8c"/>
        <path id="Trazado_168713" data-name="Trazado 168713" d="M236.245,311.191h1.179c.479-2.272.949-4.552,1.421-6.825.155-.734-.966-1.038-1.121-.312-.493,2.381-.986,4.755-1.479,7.137" transform="translate(-142.791 -183.526)" fill="#c29e8c"/>
        <path id="Trazado_168714" data-name="Trazado 168714" d="M11.045,277.111l.015,1.218q12.85,3.737,25.692,7.481c.149.047.305.086.455.133.721.211,1.011-.914.3-1.125-.172-.047-.337-.1-.51-.148q-12.979-3.771-25.951-7.559" transform="translate(-6.676 -167.492)" fill="#c29e8c"/>
        <path id="Trazado_168715" data-name="Trazado 168715" d="M181.973,199.987c.1.148.2.3.295.445a28,28,0,0,0,8.685,8.777c1.9,1.109,4.212,2.069,4.929-.508a59.827,59.827,0,0,0,1.4-9.808c.236-2.327.456-4.654.614-6.981l-1.106-.375c-.313,4.865-.782,9.745-1.572,14.532-.116.726-.128,2.218-.6,2.819-.73.922-2.637-.4-3.5-.937a27.972,27.972,0,0,1-8.136-8.55.567.567,0,0,0-.488-.274h-.031a.316.316,0,0,0-.086.008.55.55,0,0,0-.4.851" transform="translate(-109.928 -115.77)" fill="#c29e8c"/>
        <path id="Trazado_168716" data-name="Trazado 168716" d="M131.669,189.487c.617,3.053,4.982,2.476,7.249,2.069,4.448-.812,8.795-2.913,12.862-4.834.171-.086.342-.164.5-.242.582-.265.213-1.046-.318-1.062a.332.332,0,0,0-.086.008.49.49,0,0,0-.195.055c-2.794,1.32-5.652,2.546-8.551,3.623a19.432,19.432,0,0,1-7.679,1.577c-2.126-.125-2.671-.656-2.765-2.514a32.7,32.7,0,0,1,.2-4.787c.37-4.061,1.03-8.106,1.791-12.111.139-.734.286-1.468.441-2.194-.383-.07-.767-.148-1.143-.219-.11.523-.213,1.046-.316,1.57-.689,3.545-1.269,7.114-1.7,10.706-.31,2.655-.849,5.685-.3,8.355" transform="translate(-79.441 -102.06)" fill="#c29e8c"/>
        <path id="Trazado_168717" data-name="Trazado 168717" d="M11.265,247.106l.132,10.4a.781.781,0,0,0,.781.771H76.453s15.855-14.532,17.523-16.016,2.07-2.452,1.874-3.686a2.313,2.313,0,0,0-2.909-2.163c-1.542.313-8.714,4.982-9.163,5.271.533-.484,9.056-8.184,10.107-9.675,1.082-1.538,1.712-3.491-.47-5.068-1.2-.863-2.665.141-2.935.346l-.071,0c-.224-.275-.656-.935-.656-.935a.462.462,0,0,0,.062-.063c.339-.367,2.023-2.35.875-4.209a2.976,2.976,0,0,0-3.331-.96c-1.618.523-11.939,10.511-11.939,10.511s6.228-8.848,6.931-10.768.306-3.545-1-4.341c-1.818-1.1-3.879.2-4.569,1.218-.782,1.148-9.5,13.049-9.5,13.049s-2.491-6.8-3.965-9.027-3.849-.6-4.357,0-.2,5.044.073,7.629-1.127,10.87-1.127,10.87l-21.27,13.579h-.008Z" transform="translate(-6.809 -130.615)" fill="#f59c73"/>
        <path id="Trazado_168718" data-name="Trazado 168718" d="M52.407,315.32H54.57q3.45-2.225,6.909-4.443l-1.52-.406-7.552,4.849" transform="translate(-31.676 -187.655)" fill="#b35546"/>
        <path id="Trazado_168719" data-name="Trazado 168719" d="M173.45,167.932s-1.233,5.759-4.929,8.042-9.4,2.763-15.8-.541a14.528,14.528,0,0,1-8.276-13.094l2.253-9.471Z" transform="translate(-87.299 -92.397)" fill="#f59c73"/>
        <path id="Trazado_168720" data-name="Trazado 168720" d="M169.42,72.758h0a17.512,17.512,0,0,0-18.625,16.656l-.66,13.532a18.053,18.053,0,0,0,16.9,18.837,17.512,17.512,0,0,0,18.625-16.656l.66-13.532a18.053,18.053,0,0,0-16.9-18.837" transform="translate(-90.731 -43.956)" fill="#f59c73"/>
        <path id="Trazado_168721" data-name="Trazado 168721" d="M191.347,169.938c1.847,4.565,8.158,4.848,9.8,0a.323.323,0,0,0-.1-.369l-.006-.006a.382.382,0,0,0-.045-.034.36.36,0,0,0-.235-.085h-9.05a.352.352,0,0,0-.234.087.306.306,0,0,0-.136.408" transform="translate(-115.636 -102.416)" fill="#b35546"/>
        <path id="Trazado_168722" data-name="Trazado 168722" d="M219.377,131.743a5.737,5.737,0,0,0,.1,2.287,1.394,1.394,0,0,0,2.684-.224,5.887,5.887,0,0,0-.035-2.2,1.391,1.391,0,0,0-2.746.14" transform="translate(-132.554 -78.875)" fill="#2f2031"/>
        <path id="Trazado_168723" data-name="Trazado 168723" d="M184.761,131.743a5.736,5.736,0,0,0,.1,2.287,1.394,1.394,0,0,0,2.684-.224,5.887,5.887,0,0,0-.035-2.2,1.391,1.391,0,0,0-2.746.14" transform="translate(-111.631 -78.875)" fill="#2f2031"/>
        <path id="Trazado_168724" data-name="Trazado 168724" d="M184.491,120.42a5.626,5.626,0,0,0-4.549.378c-.732.426-1.432-.705-.7-1.133a6.929,6.929,0,0,1,5.548-.53.66.66,0,0,1-.3,1.284" transform="translate(-108.151 -71.809)" fill="#3e2a43"/>
        <path id="Trazado_168725" data-name="Trazado 168725" d="M216.415,120.42a5.66,5.66,0,0,1,4.559.378.658.658,0,0,0,.669-1.133,6.977,6.977,0,0,0-5.561-.53.664.664,0,0,0,.333,1.284" transform="translate(-130.315 -71.809)" fill="#3e2a43"/>
        <path id="Trazado_168726" data-name="Trazado 168726" d="M176.924,65.892a5.039,5.039,0,0,1-4.171,5.806c-5.03,1.2-8.571-.16-11.717-1.922s-8.862-5.91-10.323-5.686-2.388,1.121-1.941,4.805-3.231,18.5-3.231,18.5-3.182-18.98-3.573-24.507,1.463-8.6,6.05-9.291c0,0-1-2.913.9-4.775,1.313-1.287,3.057-2.074,10.451-1.637,7.794.461,18.287,5.311,22.127,9.7s3.87,13.217-.375,24.149c0,0-.637-9.273-4.2-15.139" transform="translate(-85.777 -28.447)" fill="#3e2a43"/>
        <path id="Trazado_168727" data-name="Trazado 168727" d="M140.887,126.629a5.774,5.774,0,0,0,5.758,5.686,5.6,5.6,0,0,0,5.614-5.686,5.774,5.774,0,0,0-5.758-5.686,5.6,5.6,0,0,0-5.614,5.686" transform="translate(-85.155 -73.101)" fill="#f59c73"/>
        <path id="Trazado_168728" data-name="Trazado 168728" d="M217.148,130.521a7.6,7.6,0,0,1-5.326-2.837,8.755,8.755,0,0,1-1.949-6.033,8.389,8.389,0,0,1,2.569-5.7,7.257,7.257,0,0,1,5.582-2.022c4.254.318,7.518,4.3,7.276,8.87a8.394,8.394,0,0,1-2.568,5.7,7.274,7.274,0,0,1-5.035,2.042c-.182,0-.364-.007-.547-.021m-3.983-13.683a7.206,7.206,0,0,0-2.207,4.893,7.521,7.521,0,0,0,1.675,5.184,6.524,6.524,0,0,0,4.576,2.437,6.258,6.258,0,0,0,4.8-1.737,7.214,7.214,0,0,0,2.207-4.893,7.524,7.524,0,0,0-1.675-5.184,6.53,6.53,0,0,0-4.576-2.437c-.157-.011-.314-.018-.47-.018a6.252,6.252,0,0,0-4.326,1.755" transform="translate(-126.844 -68.851)" fill="#ffd373"/>
        <path id="Trazado_168729" data-name="Trazado 168729" d="M171.514,127.318a8.441,8.441,0,0,1-7.831-8.871,8.189,8.189,0,0,1,8.772-7.718,8.441,8.441,0,0,1,7.831,8.87,8.2,8.2,0,0,1-8.192,7.739q-.288,0-.581-.021m-4.286-13.683a7,7,0,0,0-2.375,4.893,7.254,7.254,0,0,0,6.727,7.622,7.039,7.039,0,0,0,7.537-6.631,7.252,7.252,0,0,0-6.727-7.621c-.169-.011-.338-.018-.506-.018a7.008,7.008,0,0,0-4.656,1.755" transform="translate(-98.925 -66.915)" fill="#ffd373"/>
        <path id="Trazado_168730" data-name="Trazado 168730" d="M205.894,130.11l-2.8-.194c-.743-.051-.763-1.214-.015-1.162l2.8.194c.742.051.763,1.214.015,1.162" transform="translate(-122.412 -77.821)" fill="#ffd373"/>
        <path id="Trazado_168731" data-name="Trazado 168731" d="M107.834,284.669l14.323,15.056H111.506l-9.954-11.048Z" transform="translate(-61.38 -172.06)" fill="#b36152"/>
        <path id="Trazado_168732" data-name="Trazado 168732" d="M116.294,304.825a7.157,7.157,0,0,0,.589,2.764h13.189a7.053,7.053,0,0,0,.519-2.764,7.259,7.259,0,0,0-7.236-7.145,7.041,7.041,0,0,0-7.062,7.145" transform="translate(-70.29 -179.924)" fill="#fff0f0"/>
        <path id="Trazado_168733" data-name="Trazado 168733" d="M124.607,308.3l.591.356,2.585,1.558,2.612-4.334a.586.586,0,0,1,1,.6l-2.915,4.836a.534.534,0,0,1-.315.244c-.016.006-.03.014-.047.019s-.03,0-.045,0a.535.535,0,0,1-.4-.069l-3.087-1.861L124,309.3a.586.586,0,0,1,.6-1" transform="translate(-74.782 -184.714)" fill="#c29e8c"/>
        <path id="Trazado_168734" data-name="Trazado 168734" d="M158.218,122.04l-3.722-2.622c-.61-.43-.043-1.438.574-1l3.722,2.622c.61.43.043,1.438-.574,1" transform="translate(-93.223 -71.509)" fill="#ffd373"/>
        <path id="Trazado_168735" data-name="Trazado 168735" d="M183.6,252.52c3.574-3.28,6.811-6.251,10.385-9.539-.214-.25-.684-.968-.684-.968-3.62,3.334-6.911,6.345-10.539,9.679-.556.515.29,1.335.838.828" transform="translate(-110.352 -146.278)" fill="#b35546"/>
        <path id="Trazado_168736" data-name="Trazado 168736" d="M207.355,138.584c.393,1.179.741,2.367,1.02,3.577a10.411,10.411,0,0,1,.541,3c-.138,1.426-2.313,1.933-3.449,2.171-.734.154-1.063-.975-.326-1.129a4.361,4.361,0,0,0,2.116-.742c.655-.726.289-1.624.117-2.429a38.794,38.794,0,0,0-1.144-4.135c-.24-.72.887-1.028,1.125-.311" transform="translate(-123.741 -83.517)" fill="#b35546"/>
        <path id="Trazado_168737" data-name="Trazado 168737" d="M162.428,183.49a17.27,17.27,0,0,0,11.16,5.025l.68.039a16.846,16.846,0,0,0,9.507-2.195s-.14.64-.457,1.578a18.074,18.074,0,0,1-7.949,1.827c-.383,0-.773-.015-1.156-.039l-.68-.039a18.462,18.462,0,0,1-11.823-5.275c-.549-.55.237-1.375.719-.922" transform="translate(-97.627 -110.826)" fill="#b35546"/>
        <path id="Trazado_168738" data-name="Trazado 168738" d="M7.946,26.9H160.029l-.119-9.286a3.9,3.9,0,0,0-3.9-3.855H11.734a3.9,3.9,0,0,0-3.9,3.953Z" transform="translate(-4.733 -8.32)" fill="#fff0f0"/>
        <path id="Trazado_168739" data-name="Trazado 168739" d="M318.92,26.011a2.855,2.855,0,1,0,2.855-2.855,2.855,2.855,0,0,0-2.855,2.855" transform="translate(-192.762 -13.996)" fill="#ffb357"/>
        <path id="Trazado_168740" data-name="Trazado 168740" d="M340.634,26.011a2.855,2.855,0,1,0,2.855-2.855,2.855,2.855,0,0,0-2.855,2.855" transform="translate(-205.886 -13.996)" fill="#ffb357"/>
        <path id="Trazado_168741" data-name="Trazado 168741" d="M362.348,26.011a2.855,2.855,0,1,0,2.855-2.855,2.855,2.855,0,0,0-2.855,2.855" transform="translate(-219.01 -13.996)" fill="#ffb357"/>
        <path id="Trazado_168742" data-name="Trazado 168742" d="M231.368,292.087a6.128,6.128,0,1,1,6.128-6.128,6.134,6.134,0,0,1-6.128,6.128m0-11.475a5.347,5.347,0,1,0,5.347,5.346,5.352,5.352,0,0,0-5.347-5.346" transform="translate(-136.14 -169.137)" fill="#fff0f0"/>
        <path id="Trazado_168743" data-name="Trazado 168743" d="M236.69,294.426h-2.218a1.037,1.037,0,0,1-1.036-1.037v-1.324a1.036,1.036,0,0,1,1.036-1.036h2.218a1.037,1.037,0,0,1,1.037,1.036v1.324a1.037,1.037,0,0,1-1.037,1.037" transform="translate(-141.093 -175.904)" fill="#fff0f0"/>
        <path id="Trazado_168744" data-name="Trazado 168744" d="M243.644,292.26l-2.194,1.021a.23.23,0,0,0,0,.416l2.194,1.061a.23.23,0,0,0,.33-.207v-2.081a.23.23,0,0,0-.327-.208" transform="translate(-145.856 -176.635)" fill="#fff0f0"/>
        <path id="Trazado_168745" data-name="Trazado 168745" d="M197.982,283.9a5.737,5.737,0,1,1-7.743-2.425,5.737,5.737,0,0,1,7.743,2.425" transform="translate(-113.123 -169.732)" fill="#f78b6a"/>
        <path id="Trazado_168746" data-name="Trazado 168746" d="M200.239,290.237c-.448-.68-1.43-1.961-2.231-1.542l-4.983,2.607c-.8.419-.309,1.956-.006,2.712.091.227.306.363.456.284l1.875-.981c.135-.07.161-.287.058-.483l-.142-.271c-.1-.2-.077-.413.058-.483l2.01-1.051c.135-.07.327.032.43.228l.141.27c.1.2.3.3.43.228l1.876-.981c.15-.078.161-.332.027-.536" transform="translate(-116.405 -174.444)" fill="#fff0f0"/>
        <path id="Trazado_168747" data-name="Trazado 168747" d="M153.24,292.087a6.128,6.128,0,1,1,6.127-6.128,6.135,6.135,0,0,1-6.127,6.128m0-11.475a5.347,5.347,0,1,0,5.346,5.346,5.353,5.353,0,0,0-5.346-5.346" transform="translate(-88.917 -169.137)" fill="#fff"/>
        <path id="Trazado_168748" data-name="Trazado 168748" d="M162.012,289.687a1.122,1.122,0,1,1-1.121-1.121,1.122,1.122,0,0,1,1.121,1.121" transform="translate(-96.568 -174.416)" fill="#fff"/>
        <path id="Trazado_168749" data-name="Trazado 168749" d="M160.458,297.336h-4.993a.55.55,0,0,1-.529-.68,3.1,3.1,0,0,1,6.06.054.537.537,0,0,1-.538.626" transform="translate(-93.638 -177.84)" fill="#fff"/>
        <rect id="Rectángulo_43536" data-name="Rectángulo 43536" width="5.322" height="8.08" transform="translate(104.411 111.71)" fill="#fff0f0"/>
      </g>
    </g>
  </g>
</svg>
