<svg xmlns="http://www.w3.org/2000/svg" xmlns:xlink="http://www.w3.org/1999/xlink" width="105" height="105" viewBox="0 0 105 105">
  <defs>
    <clipPath id="clip-path">
      <rect id="Rectángulo_43337" data-name="Rectángulo 43337" width="64.349" height="64.335" fill="none"/>
    </clipPath>
  </defs>
  <g id="Grupo_170720" data-name="Grupo 170720" transform="translate(-748.326 -839)">
    <path id="Trazado_160852" data-name="Trazado 160852" d="M52.5,0A52.5,52.5,0,1,1,0,52.5,52.5,52.5,0,0,1,52.5,0Z" transform="translate(748.326 839)" fill="#a6bbff"/>
    <g id="Grupo_170977" data-name="Grupo 170977" transform="translate(768.326 859)">
      <g id="Grupo_170977-2" data-name="Grupo 170977" transform="translate(0 0)" clip-path="url(#clip-path)">
        <path id="Trazado_166822" data-name="Trazado 166822" d="M44.17,8.8c.055-1.069.055-1.069,1.162-1.069q5.16,0,10.32,0a5.3,5.3,0,0,1,5.477,3.924c.133.4.358.364.641.364q4.456,0,8.913,0a5.369,5.369,0,0,1,5.676,5.661q.007,6.131,0,12.262a5.374,5.374,0,0,1-5.676,5.663c-1.578,0-3.156,0-4.908,0,.872,1.13,1.628,2.164,2.44,3.151A11.925,11.925,0,0,1,71,46.591q-.013,9.85,0,19.7c0,1.145-.333,1.482-1.463,1.482q-18.428,0-36.856,0a5.365,5.365,0,0,1-5.642-5.628c0-1.452.033-2.9-.016-4.355-.021-.609.147-.847.753-.741a1.438,1.438,0,0,0,.333-.018,1.215,1.215,0,0,1,.826-.191c2.132,0,4.264-.019,6.394.009,6.163.036,12.327,0,18.49.021a.983.983,0,0,0,1.015-.681c.52-1.17.539-1.161-.372-2.073-1.705-1.706-3.423-3.4-5.112-5.12a5.115,5.115,0,0,1-1.2-5.735,5.049,5.049,0,0,1,7.55-2.1,26.845,26.845,0,0,1,2.626,2.482,2.889,2.889,0,0,0,.689.579c.012-1.134,0-2.186.006-3.189a.306.306,0,0,0-.329-.022c-1.177.353-1.953-.325-1.74-1.544.165-.946.375-1.883.558-2.826.154-.794.121-.838-.7-.839-2.278,0-4.557-.026-6.834.006A5.882,5.882,0,0,1,45.1,33.582a6.384,6.384,0,0,1-1.125-3.78c.03-4.059.013-8.119.009-12.179a5.658,5.658,0,0,1,6.026-5.8c1.49.016,2.979,0,4.468,0,1.156.019,2.313.006,3.47,0,.192,0,.448.077.549-.132.116-.24-.119-.4-.257-.565a3.268,3.268,0,0,0-2.953-1.064c-3.458.05-6.915.027-10.372.011-.886,0-1.1-.417-.744-1.28" transform="translate(-12.013 -3.438)"/>
        <path id="Trazado_166823" data-name="Trazado 166823" d="M46.161,54.208a5.921,5.921,0,0,0,4.929,2.078c2.344-.062,4.691,0,7.036-.023.479,0,.675.039.53.611-.263,1.036-.4,2.1-.64,3.145a1.193,1.193,0,0,0,.4,1.429,1.113,1.113,0,0,0,1.416-.164.842.842,0,0,1,.21-.078v4.1c-.245.018-.33-.2-.459-.325-.829-.814-1.636-1.65-2.47-2.457a4.861,4.861,0,1,0-6.856,6.893q2.887,2.94,5.83,5.826c.338.333.313.554.168,1.01-.424,1.335-1.28,1.517-2.555,1.5-5.517-.078-11.035-.033-16.552-.035-.268,0-.535-.014-.8-.022-.251-.227.123-.621-.159-.782a1.982,1.982,0,0,0-.983-.061c-1.752-.007-3.5,0-5.256-.006a1.265,1.265,0,0,1-.949-.2l-.025-1.05c.264-.29.618-.214.943-.215,1.741-.009,3.482,0,5.222-.006a5.194,5.194,0,0,0,5.432-5.437c.005-1.874,0-3.749,0-5.623a2.836,2.836,0,0,1,.075-.928c.187-.329.367-.122.527.021a3.9,3.9,0,0,1,.563.9c.5-1.012.9-2.016,1.314-3.013.908-2.18,1.861-4.34,2.769-6.519.083-.2.123-.435.337-.56" transform="translate(-12.883 -24.101)" fill="#3085cc"/>
        <path id="Trazado_166824" data-name="Trazado 166824" d="M16.108,28.467Q12.85,26.125,9.6,23.78a1.235,1.235,0,0,0-.753-.19,30.617,30.617,0,0,1-4.475-.113A5.265,5.265,0,0,1,.023,18.349q-.043-6.561,0-13.121A5.282,5.282,0,0,1,5.25.02q9.775-.047,19.55,0a5.363,5.363,0,0,1,5.256,5.348,1.027,1.027,0,0,1,.188.69c0,1.881.028,3.763-.012,5.643,0,2.139.01,4.279,0,6.42a5.568,5.568,0,0,1-5.691,5.671c-1.873.012-3.746,0-5.618,0-1.284,0-1.284,0-1.039,1.226.162.809.328,1.617.484,2.427a1.312,1.312,0,0,1-.688,1.579,1.206,1.206,0,0,1-1.571-.556" transform="translate(0 0)"/>
        <path id="Trazado_166825" data-name="Trazado 166825" d="M27.91,63.046q0,3.347-.011,6.694a5.373,5.373,0,0,1-5.638,5.635L16.1,75.4q-5.159-.01-10.317-.021A5.387,5.387,0,0,1,.021,69.6q0-2.847,0-5.695a5.374,5.374,0,0,1,5.718-5.685c2.323,0,4.645-.018,6.968.011a2.962,2.962,0,0,0,1.821-.488c.51-.353,1.062-.644,1.6-.963a1.188,1.188,0,0,1,.5-.432c1.369-.8,2.75-1.572,4.123-2.362a1.255,1.255,0,0,1,1.905,1.4c-.19.849-.425,1.687-.614,2.533.4.285.873.027,1.288.181a5.5,5.5,0,0,1,4.35,3.47,2.02,2.02,0,0,1,.235,1.475" transform="translate(-0.009 -23.906)"/>
        <path id="Trazado_166826" data-name="Trazado 166826" d="M34.73,43.446c.194-.841.365-1.69.59-2.523a1.187,1.187,0,0,0-.312-1.39c-.5-.4-.985-.219-1.479.064-1.5.859-3.011,1.7-4.519,2.548q0-2.2-.008-4.408a1.766,1.766,0,0,0,1.411.467c.6-.227.922.327,1.386.511.164-.162.029-.332,0-.483-.216-1.14-.456-2.275-.676-3.414-.182-.943-.082-1.072.865-1.076q3.748-.014,7.5,0a4.366,4.366,0,0,0,1.7-.313A4.048,4.048,0,0,0,43.8,29.587c.016-2.521,0-5.041.008-7.562,0-.348-.07-.721.206-1.02a1.49,1.49,0,0,1,1.462.076,8.955,8.955,0,0,0-.41,3.09c.019,3.722.036,7.445-.007,11.167a6.644,6.644,0,0,0,1.112,4.039,22.905,22.905,0,0,1-1.194,3.033c-.994,2.4-2.029,4.79-3.049,7.182a1.988,1.988,0,0,1-.165.253c-.383-.473-.425-1.131-.969-1.435a5.47,5.47,0,0,0-3.2-4.351,13.147,13.147,0,0,0-1.377-.454c-.237-.274.022-.534.032-.761-.5.2-.878.718-1.522.6" transform="translate(-12.894 -9.27)" fill="#348ed8"/>
        <path id="Trazado_166827" data-name="Trazado 166827" d="M56.643,16.1l-1.476.012a.853.853,0,0,1-1.05-.024V9.659h2.1c.056,1.075.056,1.074,1.159,1.076l10.117.023a3.471,3.471,0,0,1-.933,2.1c-1.4.007-2.806.068-4.2.01A5.667,5.667,0,0,0,56.643,16.1" transform="translate(-24.06 -4.294)" fill="#dfdfdd"/>
        <path id="Trazado_166828" data-name="Trazado 166828" d="M29,94.6h7.635c.031.416-.342.674-.287,1.05l-7.372,0q.012-.527.024-1.052" transform="translate(-12.883 -42.058)" fill="#348ed8"/>
        <path id="Trazado_166829" data-name="Trazado 166829" d="M83.724,75.119c-1.177-1.181-2.346-2.37-3.536-3.537a1.159,1.159,0,0,1-.4-.92c.028-1.956.024-3.912.032-5.867A14.878,14.878,0,0,1,82.2,62.837c.324-.26.607-.654,1.112-.6,1.331,1.693,2.851,3.259,3.507,5.394a10.458,10.458,0,0,1,.48,3.091q0,9.274.009,18.549c0,.444-.072.605-.567.6q-5.089-.036-10.179,0a.836.836,0,0,1-.836-.495,8.287,8.287,0,0,1-.054-8.534c.127-.234.284-.453.433-.676.682-1.021.654-1.292-.234-2.179q-3.22-3.22-6.442-6.438a2.8,2.8,0,0,1-.9-1.672A2.71,2.71,0,0,1,73.16,67.6c1.526,1.5,3.034,3.027,4.55,4.542l4.5,4.494a3.165,3.165,0,0,0,.449.125c.9.2,1.42-.352,1.16-1.251a2.745,2.745,0,0,1-.1-.386" transform="translate(-30.46 -27.667)" fill="#fdc8a2"/>
        <path id="Trazado_166830" data-name="Trazado 166830" d="M75.066,31.908l-4.834-3.581c-.813-.6-1.076-.6-1.9.018l-6.42,4.816c-.221-.135-.121-.333-.121-.489q-.01-4.988,0-9.975a3.2,3.2,0,0,1,3.352-3.379q10.579-.009,21.158,0a2.573,2.573,0,0,1,1.356.276c.369.275.093.517-.062.733a26.516,26.516,0,0,1-1.771,2.16c-.972,1.094-1.948,2.188-3.026,3.181-.19.176-.34.5-.7.31a6.851,6.851,0,0,0-.885-2.635,4.105,4.105,0,1,0-4.193,6.413,1.4,1.4,0,0,1,.557.217.189.189,0,0,1-.02.29,11.416,11.416,0,0,1-2.163,1.63.387.387,0,0,1-.322.019" transform="translate(-27.463 -8.587)" fill="#4db6e4"/>
        <path id="Trazado_166831" data-name="Trazado 166831" d="M38.16,100.4q6.465-.011,12.929-.021c2.055,0,4.11.017,6.164-.013.494-.007.555.121.509.586a10.262,10.262,0,0,0,1.069,5.766,1.066,1.066,0,0,1-.683.09q-10.82.007-21.641,0a1.939,1.939,0,0,1-1.047-.119,37.692,37.692,0,0,1,1.551-3.821A10.939,10.939,0,0,1,38.16,100.4" transform="translate(-15.765 -44.623)" fill="#d5d5d3"/>
        <path id="Trazado_166832" data-name="Trazado 166832" d="M75.22,43.827c1.274.939,2.56,1.861,3.815,2.826a1.282,1.282,0,0,0,1.7.062c1.714-1.167,3.454-2.3,5.17-3.462a.668.668,0,0,1,.885,0q2.208,1.514,4.455,2.97a.6.6,0,0,1,.265.834,3.219,3.219,0,0,1-2.97,2.123q-2.511.029-5.022,0a2.043,2.043,0,0,0-1.3.41c-1.439,1.055-2.9,2.081-4.356,3.112a1.169,1.169,0,0,1-.618.338c.15-.778.293-1.537.444-2.294.211-1.056-.2-1.557-1.3-1.558-3.014,0-6.027,0-9.041,0a1.68,1.68,0,0,1-.979-.12c-.049-.311.221-.359.4-.448A79.776,79.776,0,0,0,74.726,44a.808.808,0,0,1,.494-.173" transform="translate(-29.506 -19.154)" fill="#77ac50"/>
        <path id="Trazado_166833" data-name="Trazado 166833" d="M92.821,26.236a43.105,43.105,0,0,0,4.443-4.757c.293-.361.6-.712.894-1.07.144-.174.282-.354.141-.6a2.921,2.921,0,0,1,1.989,2.817c.049,3.613.017,7.227.017,10.843-.254.076-.378-.122-.532-.223-1.339-.884-2.681-1.764-4-2.672a1.307,1.307,0,0,0-1.656.012C92.42,31.746,90.7,32.862,89,34.015a.605.605,0,0,1-.863-.008c-.792-.648-1.618-1.255-2.43-1.878a18.127,18.127,0,0,0,2.535-1.853c.154-.209.394-.175.607-.207a4.13,4.13,0,0,0,3.694-3.246c.055-.21.072-.444.275-.587" transform="translate(-38.106 -8.808)" fill="#48acd8"/>
        <path id="Trazado_166834" data-name="Trazado 166834" d="M73.275,42.126a61.123,61.123,0,0,1-5.763,3.546q-1.54.846-3.085,1.685a3.008,3.008,0,0,1-2.39-2.159.538.538,0,0,1,.225-.687q3.428-2.548,6.836-5.122a.4.4,0,0,1,.575-.013c1.194.927,2.4,1.837,3.6,2.752" transform="translate(-27.561 -17.453)" fill="#7db357"/>
        <path id="Trazado_166835" data-name="Trazado 166835" d="M36.132,100.407a29.922,29.922,0,0,1-1.378,3.389,15.833,15.833,0,0,1-1.322,2.9,3.086,3.086,0,0,1-2.513-2.894c-.041-1,0-2.009-.021-3.013-.007-.323.093-.414.413-.41,1.607.022,3.214.021,4.82.028" transform="translate(-13.737 -44.628)" fill="#dfdfdd"/>
        <path id="Trazado_166836" data-name="Trazado 166836" d="M76.523,13.729l.933-2.1c1.772-.093,3.07.68,3.471,2.1Z" transform="translate(-34.022 -5.167)" fill="#d5d5d3"/>
        <path id="Trazado_166837" data-name="Trazado 166837" d="M92.307,61.492l-3.5,2.56a2.033,2.033,0,0,1,1.2-2.531,3.7,3.7,0,0,0,.974-.695c.442-.425.731-.324.994.171a5.514,5.514,0,0,0,.331.494" transform="translate(-39.452 -26.924)" fill="#fdbf92"/>
        <path id="Trazado_166838" data-name="Trazado 166838" d="M94.692,85.437c.465.6.476,1.169.029,1.588a1.1,1.1,0,0,1-1.541-.076,7.531,7.531,0,0,0,1.512-1.512" transform="translate(-41.428 -37.985)" fill="#f3a267"/>
        <path id="Trazado_166839" data-name="Trazado 166839" d="M29.253,5.263a2.819,2.819,0,0,1,1.178,2.362q.03,6.5,0,13A3.172,3.172,0,0,1,27.2,23.784c-2.7.018-5.4,0-8.107.006-1.285,0-1.654.442-1.412,1.682.141.719.277,1.439.439,2.284-1.214-.865-2.4-1.586-3.441-2.484a5.781,5.781,0,0,0-4.719-1.5,13.389,13.389,0,0,1-2.142,0,2.8,2.8,0,0,1-2.081-.908c.331-.534.953-.624,1.436-.92.891-.545,1.836-1,2.733-1.541a.967.967,0,0,1,.567-.174,5.71,5.71,0,0,0,1.395.147c2.412-.007,4.824-.014,7.236,0,.764.006,1.374-.114,1.54-1.012.08-.434.418-.316.69-.2.635.275,1.241.614,1.866.912,1.114.532,1.676.195,1.682-1.024q.015-2.78,0-5.561c-.008-1.219-.569-1.546-1.685-1.029a7.947,7.947,0,0,1-1.827.811c-.445-.193-.111-.39.028-.52.439-.409.916-.777,1.379-1.159a60.366,60.366,0,0,0,6.177-6.083.886.886,0,0,1,.3-.263" transform="translate(-2.552 -2.34)" fill="#fea812"/>
        <path id="Trazado_166840" data-name="Trazado 166840" d="M9.524,19.655a41.416,41.416,0,0,1-4.613,2.6,2.764,2.764,0,0,1-1.022-2.23q-.023-6.5,0-12.995A3.157,3.157,0,0,1,7.06,3.88q9.68-.025,19.36,0a2.719,2.719,0,0,1,2,.766A6.074,6.074,0,0,1,26.96,6.422,50.7,50.7,0,0,1,20.6,12.3a1.329,1.329,0,0,0-.23.317.259.259,0,0,1-.389.223c-.154-.071-.161-.262-.117-.418a5.686,5.686,0,0,1,.545-1,3.523,3.523,0,0,0-2.172-5.091,3.3,3.3,0,0,0-2.882.454,1.115,1.115,0,0,1-1.486.018A3.46,3.46,0,0,0,9.4,7.262,3.5,3.5,0,0,0,9,11.8a2.355,2.355,0,0,1,.429,1.438c-.015,1.541.008,3.082-.012,4.623-.007.6.068,1.2.107,1.8" transform="translate(-1.723 -1.72)" fill="#feb431"/>
        <path id="Trazado_166841" data-name="Trazado 166841" d="M44.037,21.243l1.05.024q0,4.318,0,8.637a4.345,4.345,0,0,1-4.18,4.206c-2.678,0-5.357.017-8.034-.012-.534-.006-.629.143-.524.631.329,1.533.624,3.074.94,4.652-.683-.249-1.07-.927-1.79-1a1.263,1.263,0,0,0,.643-1.575c-.258-1.06-.407-2.147-.656-3.21-.108-.462-.01-.569.452-.565,2.144.02,4.288.012,6.432.008a5.374,5.374,0,0,0,5.646-5.632l.022-6.162" transform="translate(-13.981 -9.445)" fill="#3085cc"/>
        <path id="Trazado_166842" data-name="Trazado 166842" d="M10.308,76c-1.115.006-2.232.042-3.346.011a3.17,3.17,0,0,1-3.079-3.1q-.048-3.313,0-6.628a3.172,3.172,0,0,1,3.2-3.12c2.723-.019,5.446-.013,8.168,0a2.524,2.524,0,0,0,1.329-.357c1.578-.917,3.167-1.813,4.816-2.755a4.122,4.122,0,0,1-.266,1.507c-.227,1.054.169,1.585,1.239,1.6.312,0,.624.015.936.023.057.175-.048.3-.139.425a23.707,23.707,0,0,1-2.3,2.854c-.636-.005-.774.415-.8.935a40.275,40.275,0,0,1-3.2,3.268.718.718,0,0,1-.361.163c-1.5.1-2.991.032-4.487.044-1.675.013-3.35-.007-5.024.008-.7.007-.773.112-.763.928.008.7.069.783.756.786,1.988.011,3.975,0,5.963.005a4.744,4.744,0,0,1,1,.05c.292.081.379.29.159.48A18.129,18.129,0,0,1,10.308,76" transform="translate(-1.716 -26.7)" fill="#60d0df"/>
        <path id="Trazado_166843" data-name="Trazado 166843" d="M26.054,68.835l2.409-3.17a5.62,5.62,0,0,1,1.73.083,3.166,3.166,0,0,1,2.42,3.008c.028,2.211.032,4.422,0,6.632a3.14,3.14,0,0,1-3.075,3.1c-4.689.026-9.379,0-14.068-.007a47.364,47.364,0,0,0,3.884-3.173c.305-.319.706-.229,1.074-.23,2.945-.009,5.89,0,8.835-.006.932,0,1.241-.451.975-1.361-.1-.355-.376-.34-.637-.347-.736-.019-1.472-.007-2.209-.007-1.517,0-3.034.006-4.552-.005-.326,0-.679.058-.94-.23l3.2-3.2c.225.888.885.914,1.632.879.955-.045,1.915-.031,2.872,0,.605.017.687-.311.68-.8-.012-.816-.058-.919-.681-.935-.89-.022-1.781,0-2.672-.011-.3,0-.633.053-.871-.224" transform="translate(-6.877 -29.183)" fill="#5ac5d3"/>
        <path id="Trazado_166844" data-name="Trazado 166844" d="M39.3,60.81a12.42,12.42,0,0,0,1.72-.9c.073.435-.3.7-.23,1.064-.493-.019-.987-.037-1.481-.058-.01,0-.027-.026-.027-.04a.2.2,0,0,1,.018-.062" transform="translate(-17.465 -26.634)" fill="#3085cc"/>
        <path id="Trazado_166845" data-name="Trazado 166845" d="M91.634,27.733a4.351,4.351,0,0,1-4.577,4.04c-2.474-.454-3.972-2.018-4.017-4.2a4.288,4.288,0,0,1,8.572-.244c.006.133.014.267.021.4" transform="translate(-36.92 -10.305)"/>
        <path id="Trazado_166846" data-name="Trazado 166846" d="M58.153,105.373c0,1.024,0,1.024-1.054,1.024-1.09,0-1.09,0-1.09-1.121,0-1.024,0-1.024,1.054-1.024,1.09,0,1.09,0,1.09,1.121" transform="translate(-24.901 -46.35)"/>
        <path id="Trazado_166847" data-name="Trazado 166847" d="M12.955,21.368a1.908,1.908,0,0,1-.289-1.139c.013-1.872,0-3.745.011-5.617a1.28,1.28,0,0,0-.28-.847A3.734,3.734,0,0,1,17.671,8.55c.278.215.417.239.711.013a3.74,3.74,0,0,1,5.267,5.249,1.729,1.729,0,0,0-.208.259c-.063.136-.118.318.029.409.058.036.218-.1.332-.154.72-.347,1.438-.7,2.162-1.039.967-.455,1.708,0,1.714,1.06q.017,3.042,0,6.086A1.082,1.082,0,0,1,26,21.486c-.424-.2-.836-.418-1.254-.626l-1.337-.666a1.411,1.411,0,0,1-.467,1.265,2.031,2.031,0,0,1-1.294.2c-2.52.006-5.039,0-7.559.008a1.878,1.878,0,0,1-1.135-.3" transform="translate(-5.153 -3.433)"/>
        <path id="Trazado_166848" data-name="Trazado 166848" d="M18.454,79.118c2.655.007,5.31.028,7.965.009.492,0,.638.107.628.618-.028,1.538,0,1.536-1.568,1.539q-4.785.009-9.571.022c-2.521-.007-5.042-.029-7.562-.009-.495,0-.635-.109-.626-.618.028-1.538,0-1.537,1.566-1.54q4.585-.008,9.169-.021" transform="translate(-3.432 -35.176)"/>
        <path id="Trazado_166849" data-name="Trazado 166849" d="M13.564,73.571c-1.762,0-3.523-.014-5.285.01-.433.006-.558-.107-.556-.549.006-1.606-.013-1.606,1.562-1.606,3.211,0,6.422.012,9.633-.012.5,0,.634.111.625.618-.028,1.538,0,1.538-1.564,1.538H13.564" transform="translate(-3.434 -31.75)"/>
        <path id="Trazado_166850" data-name="Trazado 166850" d="M33.756,71.394c1.314.008,2.628.028,3.942.016.367,0,.486.088.493.475.031,1.677.045,1.677-1.623,1.677-1,0-2.007-.04-3.006.014-.611.033-.851-.148-.746-.756a1.429,1.429,0,0,0-.019-.332,1.183,1.183,0,0,0,.019-.132c.027-.911.027-.911.94-.962" transform="translate(-14.579 -31.742)"/>
        <path id="Trazado_166851" data-name="Trazado 166851" d="M89.048,27.043A2.141,2.141,0,1,1,86.9,29.164a2.148,2.148,0,0,1,2.146-2.121" transform="translate(-38.636 -12.023)" fill="#f25244"/>
        <path id="Trazado_166852" data-name="Trazado 166852" d="M20.629,21.241c.915,0,1.831.014,2.746-.007.348-.008.462.093.455.45q-.031,1.707,0,3.415c.008.372-.138.439-.468.437-1.831-.013-3.661-.016-5.492,0-.377,0-.5-.1-.49-.484q.037-1.674,0-3.348c-.009-.4.143-.48.5-.472.915.021,1.831.007,2.746.007" transform="translate(-7.727 -9.44)" fill="#f25244"/>
        <path id="Trazado_166853" data-name="Trazado 166853" d="M26.677,14.809a1.6,1.6,0,1,1,1.658-1.567,1.622,1.622,0,0,1-1.658,1.567" transform="translate(-11.171 -5.157)" fill="#dd4132"/>
        <path id="Trazado_166854" data-name="Trazado 166854" d="M17.024,14.809a1.6,1.6,0,1,1,1.658-1.567,1.622,1.622,0,0,1-1.658,1.567" transform="translate(-6.879 -5.157)" fill="#dd4132"/>
        <path id="Trazado_166855" data-name="Trazado 166855" d="M34.945,22.483v2.911c-.663-.326-1.286-.609-1.887-.936a.646.646,0,0,1,.01-1.047,2.183,2.183,0,0,1,.237-.124l1.64-.8" transform="translate(-14.581 -9.996)" fill="#dc4132"/>
      </g>
    </g>
  </g>
</svg>
