<svg xmlns="http://www.w3.org/2000/svg" xmlns:xlink="http://www.w3.org/1999/xlink" width="297" height="316" viewBox="0 0 297 316">
  <defs>
    <clipPath id="clip-path">
      <rect id="Rectángulo_39802" data-name="Rectángulo 39802" width="297" height="316" rx="11" transform="translate(0 0)" fill="#bf6165"/>
    </clipPath>
    <clipPath id="clip-path-2">
      <rect id="Rectángulo_39795" data-name="Rectángulo 39795" width="297" height="316" rx="11" transform="translate(-29.894 0)" fill="#ffbfc1"/>
    </clipPath>
    <clipPath id="clip-path-3">
      <rect id="Rectángulo_43375" data-name="Rectángulo 43375" width="370.832" height="310.09" fill="none"/>
    </clipPath>
    <clipPath id="clip-path-5">
      <rect id="Rectángulo_43362" data-name="Rectángulo 43362" width="308.992" height="121.854" fill="none"/>
    </clipPath>
    <clipPath id="clip-path-7">
      <rect id="Rectángulo_43366" data-name="Rectángulo 43366" width="317.038" height="12.075" fill="none"/>
    </clipPath>
    <clipPath id="clip-path-8">
      <rect id="Rectángulo_43367" data-name="Rectángulo 43367" width="2.33" height="1.895" fill="none"/>
    </clipPath>
    <clipPath id="clip-path-9">
      <rect id="Rectángulo_43368" data-name="Rectángulo 43368" width="2.287" height="2.162" fill="none"/>
    </clipPath>
    <clipPath id="clip-path-10">
      <rect id="Rectángulo_43369" data-name="Rectángulo 43369" width="1.992" height="2.025" fill="none"/>
    </clipPath>
    <clipPath id="clip-path-11">
      <rect id="Rectángulo_43370" data-name="Rectángulo 43370" width="2.191" height="1.633" fill="none"/>
    </clipPath>
    <clipPath id="clip-path-12">
      <rect id="Rectángulo_43372" data-name="Rectángulo 43372" width="0.91" height="1.283" fill="none"/>
    </clipPath>
    <clipPath id="clip-path-13">
      <path id="Trazado_167483" data-name="Trazado 167483" d="M426.714,185.5c.755.745.651,1.662-.421-.426l.11.111,0,.006,0,0c.1.1.2.21.31.313" transform="translate(-426.293 -185.071)" fill="none"/>
    </clipPath>
    <linearGradient id="linear-gradient" x1="-83.393" y1="168.351" x2="-83.197" y2="168.351" gradientUnits="objectBoundingBox">
      <stop offset="0" stop-color="#fff"/>
      <stop offset="1" stop-color="#45708e"/>
    </linearGradient>
    <clipPath id="clip-path-14">
      <rect id="Rectángulo_43373" data-name="Rectángulo 43373" width="27.986" height="20.579" fill="none"/>
    </clipPath>
    <clipPath id="clip-path-15">
      <path id="Trazado_167603" data-name="Trazado 167603" d="M45.945,101.283a50.67,50.67,0,1,0,50.67-50.67,50.67,50.67,0,0,0-50.67,50.67" transform="translate(-45.945 -50.613)" fill="none"/>
    </clipPath>
  </defs>
  <g id="_8" data-name="8" transform="translate(-968 -2199)">
    <g id="Grupo_171012" data-name="Grupo 171012" transform="translate(6382.894 11591)">
      <g id="Grupo_163732" data-name="Grupo 163732" transform="translate(-5385 -9392)">
        <g id="Grupo_163731" data-name="Grupo 163731" transform="translate(-30)">
          <path id="Trazado_167389" data-name="Trazado 167389" d="M11,0H286a11,11,0,0,1,11,11V305a11,11,0,0,1-11,11H11A11,11,0,0,1,0,305V11A11,11,0,0,1,11,0Z" transform="translate(0.106 0)" fill="#fd9fa3"/>
          <g id="Enmascarar_grupo_173" data-name="Enmascarar grupo 173" transform="translate(0.106 0)" clip-path="url(#clip-path)">
            <path id="Trazado_145433" data-name="Trazado 145433" d="M585.659,449.787H63.054C-5.429,269.83,50.206,53.634,188.9,10.313,358.473-42.655,404.028,122.928,420.728,177.5c25.075,81.936,267.178,58.762,164.931,272.292" transform="translate(-200.268 -97.927)" fill="#febfc1"/>
          </g>
        </g>
        <g id="Enmascarar_grupo_179" data-name="Enmascarar grupo 179" clip-path="url(#clip-path-2)">
          <g id="Grupo_171044" data-name="Grupo 171044" transform="translate(-66.81 12.391)">
            <g id="Grupo_171043" data-name="Grupo 171043" clip-path="url(#clip-path-3)">
              <rect id="Rectángulo_43361" data-name="Rectángulo 43361" width="308.992" height="121.496" transform="translate(25.06 124.14)" fill="#ffd9ce"/>
              <g id="Grupo_171017" data-name="Grupo 171017">
                <g id="Grupo_171016" data-name="Grupo 171016" clip-path="url(#clip-path-3)">
                  <g id="Grupo_171015" data-name="Grupo 171015" transform="translate(25.06 124.14)" opacity="0.54" style="mix-blend-mode: multiply;isolation: isolate">
                    <g id="Grupo_171014" data-name="Grupo 171014">
                      <g id="Grupo_171013" data-name="Grupo 171013" clip-path="url(#clip-path-5)">
                        <path id="Trazado_167391" data-name="Trazado 167391" d="M85.274,302.623v13.533H58.361v2.025H68.677v13.532H58.361v2.025H85.274V347.27H58.361v2.025H68.677v13.533H58.361v2.025H85.274v13.533H58.361v2.025H68.677v13.532H58.361v2.025H85.274v14.994h3.882V395.967h31.222v14.994h3.882V395.967h31.222v14.994h3.881V395.967h31.222v14.994h3.882V395.967h31.222v14.994h3.882V395.967H260.79v14.994h3.882V395.967h31.222v14.994h3.882V395.967H331v14.994h3.882V395.967h32.476v-2.025H353.383V380.41h13.971v-2.025H334.878V364.852h32.476v-2.025H353.383V349.295h13.971V347.27H334.878V333.738h32.476v-2.025H353.383V318.181h13.971v-2.025H334.878V302.623h32.476V300.6H353.383V289.107H349.5V300.6H318.28V289.107H314.4V300.6H283.177V289.107h-3.882V300.6H248.074V289.107h-3.882V300.6H212.971V289.107h-3.882V300.6H177.867V289.107h-3.881V300.6H142.764V289.107h-3.882V300.6H107.661V289.107H103.78V300.6H72.558V289.107H68.677V300.6H58.361v2.025Zm38.985,15.8v-.241h14.623v13.532H107.661V318.181h12.716v.241Zm-16.6,30.873h31.222v13.532H107.661ZM314.4,393.942H283.177V380.41H314.4Zm0-31.114H283.177V349.3H314.4Zm0-44.647v13.532H283.177V318.181h12.716v.241h3.882v-.241Zm-155.036.241v-.241h14.624v13.532H142.764V318.181h12.716v.241Zm-16.6,30.873h31.222v13.532H142.764Zm16.6,15.557h31.222v13.532H159.362Zm35.1,0h31.222v13.532H194.465Zm35.1,0H260.79v13.532H229.569Zm49.726-2.025H248.073V349.3h31.222Zm0-44.647v13.532H248.074V318.181H260.79v.241h3.882v-.241Zm-49.726.241v-.241h14.623v13.532H212.971V318.181h12.716v.241Zm-35.1,0v-.241h14.623v13.532H177.867V318.181h12.716v.241Zm-16.6,30.873h31.222v13.532H177.867Zm35.1,0h31.222v13.532H212.971Zm-18.505-2.025V333.738h31.222V347.27Zm66.324-13.533V347.27H229.569V333.738H260.79ZM159.362,347.27V333.738h31.222V347.27Zm0-44.647h31.222v13.532H159.362Zm35.1,0h31.222v13.532H194.465Zm35.1,0H260.79v13.532H229.569Zm35.1,0h31.222v13.532H264.672Zm31.222,31.115V347.27H264.672V333.738h31.222Zm0,44.647H264.672V364.853h31.222Zm-16.6,15.557H248.073V380.41h31.222Zm-35.1,0H212.971V380.41h31.222Zm-35.1,0H177.867V380.41h31.222Zm-35.1,0H142.764V380.41h31.222Zm-35.1,0H107.661V380.41h31.222Zm-14.623-29.09h31.222v13.532H124.259Zm0-17.582V333.738h31.222V347.27Zm0-44.647h31.222v13.532H124.259ZM331,316.156H299.774V302.623H331ZM349.5,331.713H318.28V318.181H331v.241h3.882v-.241H349.5ZM331,347.27H299.775V333.738H331ZM349.5,362.828H318.28V349.3H349.5ZM331,378.385H299.774V364.853H331ZM349.5,393.942H318.28V380.41H349.5ZM72.558,380.41H103.78v13.532H72.558Zm16.6-15.557h31.222v13.532H89.156Zm-16.6-15.557H103.78v13.532H72.558Zm16.6-15.557h31.222V347.27H89.156Zm-3.882-15.557v.241h3.882v-.241H103.78v13.532H72.558V318.181Zm3.882-15.558h31.222v13.532H89.156Z" transform="translate(-58.361 -289.107)" fill="#ffd9ce"/>
                      </g>
                    </g>
                  </g>
                </g>
              </g>
              <rect id="Rectángulo_43364" data-name="Rectángulo 43364" width="317.037" height="12.075" transform="translate(20.461 112.065)" fill="#ffd9ce"/>
              <g id="Grupo_171042" data-name="Grupo 171042">
                <g id="Grupo_171041" data-name="Grupo 171041" clip-path="url(#clip-path-3)">
                  <g id="Grupo_171020" data-name="Grupo 171020" transform="translate(20.462 112.065)" style="mix-blend-mode: multiply;isolation: isolate">
                    <g id="Grupo_171019" data-name="Grupo 171019">
                      <g id="Grupo_171018" data-name="Grupo 171018" clip-path="url(#clip-path-7)">
                        <rect id="Rectángulo_43365" data-name="Rectángulo 43365" width="317.037" height="12.075" transform="translate(0)" fill="#ffd9ce"/>
                      </g>
                    </g>
                  </g>
                  <path id="Trazado_167392" data-name="Trazado 167392" d="M564.793,443.1a14.7,14.7,0,0,0,2.465-1.331c9.837-6.641,17.465-14.478,28.673-19.367,2.682-1.17,5.48-2.255,7.649-4.22s3.591-5.078,2.662-7.853c-1.251-3.733-5.865-5.039-9.8-5.135A36.477,36.477,0,0,0,571.2,414.66l25.627-22c1.757-1.509,3.571-3.092,4.5-5.216s.68-4.95-1.189-6.32c-1.521-1.115-3.6-.977-5.461-.683a50.539,50.539,0,0,0-37.842,29.43c1.894-8.433,6.544-15.954,9.654-24.019s4.533-17.607.113-25.035a3.5,3.5,0,0,0-4.7-1.9c-7.248,1.912-12.47,8.109-16.8,14.23a179.465,179.465,0,0,0-13.638,22.67c3.33-10.886,6.21-34.646-4.192-43.007-4.667-3.752-11.39,1.01-14.794,5.937a62.986,62.986,0,0,0-10.439,26.444c-.617-15.092-1.34-33.222-9.387-46.544-2.221-3.678-5.727-7.337-10.012-7.023-6.024.442-8.5,7.817-9.509,13.771-1.631,9.611-2.013,19.13-2.955,28.708-1.248-2.6-1.442-5.863-1.949-8.763-.716-4.1-1.5-8.358-3.933-11.733s-7.05-5.568-10.865-3.9a10.863,10.863,0,0,0-3.031,2.146c-4.709,4.436-7.553,10.567-9.022,16.867a50.451,50.451,0,0,0-1.48,15.793c-1.122-8.407-8.842-16.312-16.256-19.857-2.788-1.333-6.583-2.046-8.6.3a7.153,7.153,0,0,0-1.364,3.328c-2.206,10.916,2.053,25.03,5,35.6a138.551,138.551,0,0,0,15.11,34.851c3.981,6.531,12.975,6.447,20.625,6.208,26.025-.813,52.059-1.944,78.1-1.531,9.731.154,23.434,3.463,32.278-.308" transform="translate(-235.699 -189.219)" fill="#00a29b"/>
                  <path id="Trazado_167393" data-name="Trazado 167393" d="M570.145,444.128l.694-.019a217.36,217.36,0,0,0-1.138-87.046,214.824,214.824,0,0,0-7.073-24.943c-.222.056-.439.122-.65.2a215.78,215.78,0,0,1,10.536,45.735A88.065,88.065,0,0,1,555.84,339.8q-.237.659-.442,1.335a88.882,88.882,0,0,0,17.052,37.944.279.279,0,0,0,.195.116,216.538,216.538,0,0,1,.292,45.968q-.962,9.542-2.792,18.96" transform="translate(-316.914 -189.51)" fill="#007d78"/>
                  <path id="Trazado_167394" data-name="Trazado 167394" d="M501.077,416.305a279.321,279.321,0,0,0,5.008,29q2.509,11.02,5.911,21.809c.131.417.789.239.657-.181a279.873,279.873,0,0,1-12.818-78.025q-.169-8.216.154-16.429c-.226-.023-.453-.038-.679-.042a281.044,281.044,0,0,0,1.737,43.624.329.329,0,0,0-.041-.072,46.935,46.935,0,0,1-10.019-18.157,57.916,57.916,0,0,1-1.9-17.449q-.363.571-.7,1.156a56.784,56.784,0,0,0,2.1,17.021,47.756,47.756,0,0,0,10.034,17.911.322.322,0,0,0,.554-.166" transform="translate(-278.675 -212.515)" fill="#007d78"/>
                  <path id="Trazado_167395" data-name="Trazado 167395" d="M442.385,448.892a.277.277,0,0,0,.31-.169c4.691-9.871,4.13-20.8,2.034-31.247q-.463-.66-.965-1.3c2.291,10.665,3.162,21.952-1.6,32.08q-4.988-14.225-9.228-28.7-1.99-6.8-3.8-13.647c-.245-.045-.49-.083-.734-.109a577.113,577.113,0,0,0,22.58,67.78q2.786,6.9,5.755,13.72.374.015.748.025-8.228-18.944-15.094-38.438" transform="translate(-244.446 -231.555)" fill="#007d78"/>
                  <path id="Trazado_167396" data-name="Trazado 167396" d="M616.664,471.06l.766-.016a267.128,267.128,0,0,0,23.689-73.873q1.394-8.42,2.24-16.916a6.321,6.321,0,0,0-.645-.44,266.88,266.88,0,0,1-10.882,53.354,85.625,85.625,0,0,1-4.865-44.327q-.465.751-.909,1.514a86.172,86.172,0,0,0,5.385,43.681.36.36,0,0,0,.079.119q-3.182,10.021-7.15,19.775-3.544,8.7-7.708,17.128" transform="translate(-351.873 -216.725)" fill="#007d78"/>
                  <path id="Trazado_167397" data-name="Trazado 167397" d="M660.089,483.547q20.23-30.94,38.349-63.191,4.884-8.7,9.6-17.5-.173-.382-.365-.758-9.015,16.788-18.608,33.256a50.613,50.613,0,0,1,.055-26.636q-.529.639-1.039,1.292a51.27,51.27,0,0,0,.5,26.162q-9.33,15.984-19.2,31.647-4.986,7.908-10.11,15.728h.805" transform="translate(-376.192 -229.44)" fill="#007d78"/>
                  <path id="Trazado_167398" data-name="Trazado 167398" d="M730.225,476.428a33.932,33.932,0,0,1,3.722-18.678q-.607.435-1.2.887a34.436,34.436,0,0,0-3.168,18.186.337.337,0,0,0,.08.185c-6.617,6.8-12.951,13.91-19.472,20.508a152.886,152.886,0,0,1-16.244,14.5q.517.02,1.046.049c20.67-15.942,35.188-38.636,56.785-53.526a82.778,82.778,0,0,1,10.259-6.063,5.221,5.221,0,0,0-.167-.686c-12.066,5.927-22.158,14.937-31.642,24.633" transform="translate(-395.97 -257.798)" fill="#007d78"/>
                  <path id="Trazado_167399" data-name="Trazado 167399" d="M788.878,508.219c-.01-.031-.023-.061-.034-.091a120.166,120.166,0,0,0-18.28,6.892.344.344,0,0,0,.014-.042,22.936,22.936,0,0,1,5.228-11.817q-.47.033-.939.077a23.8,23.8,0,0,0-4.971,11.74.258.258,0,0,0,.153.29,120.782,120.782,0,0,0-11.424,6.237.352.352,0,0,0-.234.147,119.763,119.763,0,0,0-13.616,9.851,117.978,117.978,0,0,0-11.636,11.2q.443.022.883.039a119.246,119.246,0,0,1,24.6-20.427c2.547,2.6,6.861,3.071,10.522,3.159q.493-.325.993-.643c-3.759.016-8.31-.337-10.93-2.883a119.22,119.22,0,0,1,24.406-11.494q2.686-.909,5.413-1.68a5.439,5.439,0,0,0-.152-.553" transform="translate(-418.335 -287.108)" fill="#007d78"/>
                  <path id="Trazado_167400" data-name="Trazado 167400" d="M163.193,472.238c5.005-5.184,7.792-13.285,8.833-20.658a5.609,5.609,0,0,0-.152-2.958c-1.116-2.64-5.245-2.021-6.965.252s-1.987,5.331-3.013,8.01c1.022-5.138,2.837-19.337-1.748-23.3-2.861-2.475-13.74.314-14.281,4.51.914-7.093,1.2-18.281-8.723-17.619-4.421.3-8.174,3.734-10.2,7.781s-2.633,8.662-3.211,13.173q-2.549-13.407-6.29-26.536c-1.749-6.138-4.86-13.272-11.038-14.066-4.293-.552-8.41,2.5-10.554,6.364s-2.729,8.4-3.274,12.807c-1.206-8.312-2.483-16.776-6.127-24.3s-10.1-14.094-18.15-15.6c-16.824-3.149-27.716,21.263-19.866,35.125A62.67,62.67,0,0,0,34.328,398.2c-2.936-2.473-6.226-4.72-9.967-5.388s-8.015.584-10.067,3.866c-1.773,2.837-1.58,6.513-.879,9.807a37.29,37.29,0,0,0,8.048,16.37c-3.67-1.1-7.434-2.212-11.247-1.939s-7.749,2.223-9.378,5.775c-1.353,2.951-.905,6.464.19,9.526,2.244,6.277,6.9,11.269,11.441,16.064,5.866,6.2,13.608,12.261,17.314,20.1,2.355,1.155,5.421.924,8.065.923q30.38-.015,60.737,1.371c5.384.246,10.768.525,16.14.951,12.233.97,24.5,2.48,36.791,2.016a16.748,16.748,0,0,0,11.677-5.4" transform="translate(0 -216.725)" fill="#407971"/>
                  <path id="Trazado_167401" data-name="Trazado 167401" d="M61.4,443.3a.271.271,0,0,0,.067-.207A50.477,50.477,0,0,0,46.24,410.4q-.582-.162-1.18-.274a49.778,49.778,0,0,1,15.749,32.321Q55.646,435.1,50.083,428.06q-6.492-8.215-13.507-15.971c-.158.131-.313.266-.461.408a321.073,321.073,0,0,1,45.948,65.938q3.237,6.171,6.2,12.485l.673.014A324.066,324.066,0,0,0,61.4,443.3" transform="translate(-20.607 -234.022)" fill="#305b55"/>
                  <path id="Trazado_167402" data-name="Trazado 167402" d="M133.715,415.34a.3.3,0,0,0,.214-.138c6.112-9.218,7.056-20.326,6.155-31.15q-.319-.235-.645-.457c.951,10.718.117,21.751-5.809,30.936q-.967-9.248-1.8-18.509-.718-7.988-1.335-15.985c-.2-.027-.407-.051-.61-.07q2.481,31.978,6.528,63.8c-14.449-12.571-21.037-31.225-25.432-49.642q-.2.509-.38,1.028c4.443,18.332,11.151,36.818,25.609,49.26a.294.294,0,0,0,.292.058q.627,4.9,1.292,9.8,1.34,9.862,2.834,19.7l.618.019q-4.427-29.229-7.529-58.647" transform="translate(-63.109 -216.812)" fill="#305b55"/>
                  <path id="Trazado_167403" data-name="Trazado 167403" d="M33.767,505.829a.25.25,0,0,0,.231-.292,39.841,39.841,0,0,0-18.906-30.05q-.66-.045-1.323-.044a39.127,39.127,0,0,1,19.6,29.88,122.8,122.8,0,0,0-18.427-18.658,119.078,119.078,0,0,0-10.3-7.505q-.207.234-.4.482a122.778,122.778,0,0,1,39.034,41.244,37.035,37.035,0,0,0-21-6.721q.319.317.636.635A36.549,36.549,0,0,1,43.895,522.1a.3.3,0,0,0,.094.047c.113.2.229.4.341.6q1.412,2.534,2.7,5.138l.667,0a125.292,125.292,0,0,0-13.927-22.055" transform="translate(-2.419 -271.292)" fill="#305b55"/>
                  <path id="Trazado_167404" data-name="Trazado 167404" d="M245.125,444.988c-2.155,12.509-5.787,25.226-15.99,33.166a210.872,210.872,0,0,0,3.311-36.546q.019-6.5-.372-12.991c-.2.009-.405.024-.606.048a210.912,210.912,0,0,1-5.028,59.675q-1.64,7.094-3.777,14.05l.625.027a211.2,211.2,0,0,0,5.747-23.7.235.235,0,0,0,.342.029c10.084-7.805,13.892-20.106,16.121-32.413-.122-.449-.248-.9-.372-1.346" transform="translate(-127.053 -244.572)" fill="#305b55"/>
                  <path id="Trazado_167405" data-name="Trazado 167405" d="M279.034,502.837a.281.281,0,0,0,.4.1c8.659-5.155,13.15-14.638,14.2-24.53a8.522,8.522,0,0,0-.524-.87c-.865,9.961-5.236,19.616-13.921,24.821,1.012-3.235,1.853-6.529,2.663-9.82q2.191-8.9,3.918-17.91a.322.322,0,0,0,0-.081c-.207.019-.414.044-.619.077q-1.665,8.623-3.74,17.155a119.179,119.179,0,0,1-4.653,15.675c-3.47,8.762-9.393,15.587-15.866,22.025l.817.06c6.191-6.185,11.871-12.759,15.3-21.094.757-1.839,1.421-3.713,2.025-5.608" transform="translate(-148.865 -270.781)" fill="#305b55"/>
                  <path id="Trazado_167406" data-name="Trazado 167406" d="M328.857,527.15a34.653,34.653,0,0,0,5.034-7.758c.042-.554.076-1.116.1-1.683a35.309,35.309,0,0,1-5.268,8.649c-3.355,3.973-8.411,7.752-13.762,7.486A108.066,108.066,0,0,0,329.585,512.8q1.662-3.132,3.111-6.374-.164-.374-.353-.715a108.312,108.312,0,0,1-7.214,13.546c0-.012,0-.022,0-.035a27.742,27.742,0,0,1-.048-15.835q-.332.057-.665.126a28.348,28.348,0,0,0,.126,15.875.3.3,0,0,0,.377.206,106.989,106.989,0,0,1-18.422,21.976q-3.343,3.038-6.932,5.761l.909.074a106.505,106.505,0,0,0,13.979-12.981.27.27,0,0,0,.055.017c5.518.515,10.828-3.247,14.353-7.288" transform="translate(-170.932 -287.235)" fill="#305b55"/>
                  <path id="Trazado_167407" data-name="Trazado 167407" d="M330.1,567.14c3.716-2.409,7.49-4.962,11.06-7.765,5.216-.17,10.507-1.558,14.591-4.729q.315-.644.606-1.3c-3.88,3.487-9.132,5.066-14.363,5.372,7.306-5.871,13.645-12.833,16.681-21.779a2.849,2.849,0,0,0-.547-.3c-3.082,9.149-9.653,16.194-17.172,22.119l-.215.007a.3.3,0,0,0-.283.383c-3.7,2.876-7.611,5.488-11.439,7.954.361.013.721.028,1.082.039" transform="translate(-187.74 -306.209)" fill="#305b55"/>
                  <path id="Trazado_167408" data-name="Trazado 167408" d="M391.372,652.381H55.11l3.172-50.555,310.664-1.956Z" transform="translate(-31.446 -342.29)" fill="#ebcfc2"/>
                  <path id="Trazado_167409" data-name="Trazado 167409" d="M372.958,590.789v-6.834L62.142,588.411v6.762Z" transform="translate(-35.459 -333.209)" fill="#292c34"/>
                  <path id="Trazado_167410" data-name="Trazado 167410" d="M403.9,606.765c2.84,2.063,21.113,13.28,23.954,15.343,4.277,3.106,8.884,7.845,14.3,6.884,1.816-.322,5.882-.924,4.447,2.146-1.341,2.868-5.244,4.52-8.243,4.617a12.251,12.251,0,0,1-3.068-.124,16.138,16.138,0,0,0-2.137-.711c-1.232-.142-2.406.255-3.639.106-2.459-.3-4.833-2.6-6.892-3.949-2.019-1.318-3.99-2.512-6.127-3.632l-7.826-4.1c-.392-.2-3.013-1.937-3.4-1.782,0,0-1.369-14.795-1.369-14.795" transform="translate(-230.467 -346.225)" fill="#ab6d3b"/>
                  <path id="Trazado_167411" data-name="Trazado 167411" d="M255.664,554.762s-17.732-9.753-9.53-24.734c-.713-.422-22.914,17.756-3.153,25.9a7.553,7.553,0,0,0,5.035.233c3.9-1.167,4.818.81,4.818.81h2.83Z" transform="translate(-133.984 -302.434)" fill="#e58c4f"/>
                  <path id="Trazado_167412" data-name="Trazado 167412" d="M306.755,615.359c.241.977-14.446,5.274-15.419,5.542a98.113,98.113,0,0,1-15.867,3.056,77.082,77.082,0,0,1-8.9.431c-3-.035-5.377-.57-7.876,1.337-2.113,1.613-3.021,4.113-4.294,6.373a4.945,4.945,0,0,1-1.146,1.523,5.028,5.028,0,0,1-1.994.794,4.566,4.566,0,0,1-2.592.107,13.835,13.835,0,0,1-1.555-.9,3.7,3.7,0,0,1-1.417-.864,2.246,2.246,0,0,1-.2-1.708c.487-2.91,2.05-4.823,3.372-7.379a51.088,51.088,0,0,0,2.953-5.83c.5-1.374.335-2.149,1.795-2.955,2.466-1.36,5.786-.211,8.467-.445a18.793,18.793,0,0,0,11.328-5.266c.161-.311,13.305-20.038,28.652-14.123-.337-.061,4.691,20.3,4.692,20.3" transform="translate(-140.041 -338.912)" fill="#ab6d3b"/>
                  <path id="Trazado_167413" data-name="Trazado 167413" d="M249.78,602.79c.234.994-14.575,5.607-15.555,5.9a98.615,98.615,0,0,1-15.986,3.362,76.651,76.651,0,0,1-8.953.573c-3.021.009-5.4-.5-7.933,1.484-2.07,1.626-2.825,4.129-5.091,5.493a20.355,20.355,0,0,1-3.433,1.527,4.884,4.884,0,0,1-2.42.456,2.481,2.481,0,0,1-1.94-1.683c-.725-2.36,2.022-5.809,3.014-7.744a53.971,53.971,0,0,0,3.018-6c.51-1.413.355-2.2,1.83-3.048,2.492-1.428,5.823-.3,8.521-.581a19.259,19.259,0,0,0,11.438-5.552c.164-.321,13.547-20.685,28.937-14.867-.339-.058,4.553,20.686,4.554,20.688" transform="translate(-107.473 -331.555)" fill="#e58c4f"/>
                  <path id="Trazado_167414" data-name="Trazado 167414" d="M267.187,557.305c5.166-3.172,11.513-4.288,17.714-4.618s46.866,4.618,53.393-18.567c5.188,2.379,21.7.913,22.454,2.807,1.062,2.653-11.97,24.338-12.741,27.074a58.135,58.135,0,0,1-3.077,8.7,52.471,52.471,0,0,1-6.11,13.978,3.558,3.558,0,0,0,.456.951c3.09,4.289,5.983,10.231,11.426,11.013,1.965.282,5.641.858,3.594,3.387-1.947,2.4-5.495,2.768-8.313,1.776-1.626-.572-3.152-1.374-4.782-1.939a45.648,45.648,0,0,1-4.393-1.449c-2.243-1.053-3.775-3.986-5.31-5.908a17.073,17.073,0,0,0-7.188-5.685,27.845,27.845,0,0,0-7.665-2.122,57.519,57.519,0,0,1-6.575-.571c-5.282-1.069-10.412-2.744-15.557-4.321-7.34-2.251-14.915-4.332-22.649-4.119-4.2.115-9.289.559-11.7-2.609a6.786,6.786,0,0,1-1.223-3.345c-.681-5.683,3.078-11.261,8.245-14.434" transform="translate(-147.709 -304.773)" fill="#e58c4f"/>
                  <path id="Trazado_167415" data-name="Trazado 167415" d="M301.512,569.957q-.566.045-1.131.1l-.307.03c-.983.1-1.963.228-2.937.385l-.125.021q-.714.117-1.423.256l-.052.01a36.383,36.383,0,0,0-4.454,1.168,4.825,4.825,0,0,0,1.9,2.528,15.879,15.879,0,0,0,4.683,1.777c9.275,2.689,17.9,9.521,27.448,8.055,5.38-.826,10.069-4.294,13.481-8.535,1.246-1.55,6.038-7.808,7.376-11.576-12.993,7.221-33.213,5.859-40.628,5.666h-.017l-.434-.01-.093,0-.415-.006h-.472l-.251,0-.091,0c-.1,0-.2.006-.284.011-.467.025-.935.056-1.4.09l-.372.029" transform="translate(-166.095 -321.923)" fill="#373b45"/>
                  <path id="Trazado_167416" data-name="Trazado 167416" d="M438.1,606.225c-2.259-2.546-4.136-4.6-4.787-7.263-1.437-5.88.813-9.5,2.626-15.274,1.165-3.712,2.511-7.683,5.662-9.965,2.04-1.478,10.914-6.308,13.054-5.183a2.686,2.686,0,0,1,.336.21c-3.389,6.48-7.292,13.336-7.7,14.8a57.636,57.636,0,0,1-3.082,8.7h.005a40.344,40.344,0,0,1-6.11,13.978" transform="translate(-246.992 -324.317)" fill="#ffd9ce"/>
                  <path id="Trazado_167417" data-name="Trazado 167417" d="M273.444,619.424A5.2,5.2,0,0,1,272.277,622a5.072,5.072,0,0,1-1.8,1.089,15.638,15.638,0,0,1-8.1.95,4.422,4.422,0,0,1-2.161-.789c-1.381-1.114-1.244-3.243-.806-4.963a26.453,26.453,0,0,1,1.424-4.128,11.356,11.356,0,0,1,1.785-2.983c1.594-1.807,6.806-4.349,9.212-2.822,2.754,1.747,2.194,8.39,1.611,11.071" transform="translate(-147.849 -346.863)" fill="#373b45"/>
                  <path id="Trazado_167418" data-name="Trazado 167418" d="M413.087,624.106a2.066,2.066,0,0,1-2.4,2.064c-1.852.2-4,.3-5.27-1.069s-1-3.543-.558-5.368a7.689,7.689,0,0,1,1.022-2.645c1.118-1.6,6.467-4.1,8.106-2.2,1.359,1.578-.6,7.344-.9,9.216" transform="translate(-230.803 -350.47)" fill="#ffd9ce"/>
                  <path id="Trazado_167419" data-name="Trazado 167419" d="M499.91,556.509l4.02.559a1.5,1.5,0,0,0,1.339-.5l.956-1.1s-4.854-.6-4.9-.583-1.414,1.622-1.414,1.622" transform="translate(-285.253 -316.622)" fill="#ab6d3b"/>
                  <path id="Trazado_167420" data-name="Trazado 167420" d="M446,507.006s10.038-5.593,23.871-.064c1.078.431.529,1.457.859,2.569.585,1.97,2.7,2.992,4.6,3.783l4.88,2.033a2.089,2.089,0,0,1,1.457,3.035,19.472,19.472,0,0,1-2.089,5.992,6.593,6.593,0,0,1-5.122,3.349c-.935.028-1.859-.213-2.794-.252-1.282-.053-2.551.275-3.833.307-2.084.053-4.1-.669-6.142-1.078-4.71-.943-11.424.787-15.277-2.08-2.939-2.187-2.915-7.23-2.556-10.875s-.41-4.1,2.149-6.72" transform="translate(-253.172 -287.872)" fill="#e58c4f"/>
                  <path id="Trazado_167421" data-name="Trazado 167421" d="M499.608,524.388A19.468,19.468,0,0,0,501.7,518.4a2.089,2.089,0,0,0-1.457-3.035l-4.88-2.033c-1.9-.791-4.012-1.812-4.6-3.783-.331-1.112.218-2.138-.859-2.569a33.136,33.136,0,0,0-11.114-2.415c.423,1.355,1.752,1.6,3,1.834,1.667.309,3.32.728,4.948,1.2a4.1,4.1,0,0,1,1.457.647c.835.668,1.038,1.827,1.449,2.814a6.275,6.275,0,0,0,1.775,2.4c1.134.943,2.671,1.572,3.219,2.94a5.7,5.7,0,0,1-.161,3.4,33.631,33.631,0,0,0-.814,5.138,8.439,8.439,0,0,0,.165,2.776,6.13,6.13,0,0,0,.66.021,6.593,6.593,0,0,0,5.122-3.349" transform="translate(-273.201 -287.906)" fill="#ffd9ce"/>
                  <path id="Trazado_167422" data-name="Trazado 167422" d="M490.8,518.1c-.121-.3.091-.546.688-.834a5.43,5.43,0,0,1,2.206-.537,1.617,1.617,0,0,1,.706.1,1.751,1.751,0,0,1,.813,1.373,2.714,2.714,0,0,1,.043.973c-.261,1.438-1.584,1.054-2.523.513a10.432,10.432,0,0,1-1.512-1.1,1.435,1.435,0,0,1-.42-.493" transform="translate(-280.038 -294.85)" fill="#ab6d3b"/>
                  <path id="Trazado_167423" data-name="Trazado 167423" d="M528.164,533.188q.106-.446.209-.893a2.089,2.089,0,0,0-1.457-3.035l-.819-.341a2.411,2.411,0,0,0-.307.509,2.527,2.527,0,0,0,.556,2.979,3.953,3.953,0,0,0,1.818.781" transform="translate(-299.876 -301.805)" fill="#373b45"/>
                  <path id="Trazado_167424" data-name="Trazado 167424" d="M456.768,498.674a.942.942,0,0,0,.079-.644,1.129,1.129,0,0,0-.5-.527l-4.866-3.262a12.6,12.6,0,0,0-4-2.037,4.99,4.99,0,0,0-2.643.082s-7.531,3.642-10.975,6.361a2.588,2.588,0,0,0-.987,1.188c-.288.967.568,1.882,1.406,2.443a15.23,15.23,0,0,0,10.116,2.2,26,26,0,0,0,9.895-3.5,5.342,5.342,0,0,0,2.477-2.31" transform="translate(-246.969 -280.777)" fill="#ab6d3b"/>
                  <path id="Trazado_167425" data-name="Trazado 167425" d="M483.626,555.5H483.6a36.612,36.612,0,0,1-10.03-2.245.373.373,0,0,1,.274-.693,35.747,35.747,0,0,0,9.8,2.194.373.373,0,0,1-.02.745" transform="translate(-270.091 -315.28)" fill="#ab6d3b"/>
                  <path id="Trazado_167426" data-name="Trazado 167426" d="M498.4,519.884a3.342,3.342,0,0,0-.362-1.89,1.522,1.522,0,0,0-1.7,1.224,1.854,1.854,0,0,0,.269,1.5c.006.008.013.015.019.023.784.273,1.583.223,1.779-.86" transform="translate(-283.184 -295.554)" fill="#373b45"/>
                  <path id="Trazado_167427" data-name="Trazado 167427" d="M455.139,555.147s-12.738-1.252-20.51-8.38a3.607,3.607,0,0,0-2.675,3.313c.187-.189,7.962,7.483,21.005,9.209.108-.2,3.494-1.062,2.18-4.142" transform="translate(-246.476 -311.989)" fill="#373b45"/>
                  <path id="Trazado_167428" data-name="Trazado 167428" d="M476.086,569.1a.73.73,0,1,0,.73-.73.73.73,0,0,0-.73.73" transform="translate(-271.658 -324.317)" fill="#f1ffff"/>
                  <path id="Trazado_167429" data-name="Trazado 167429" d="M461.239,565.7a.73.73,0,1,0,.73-.73.73.73,0,0,0-.73.73" transform="translate(-263.187 -322.377)" fill="#f1ffff"/>
                  <path id="Trazado_167430" data-name="Trazado 167430" d="M436.607,552.569a.73.73,0,1,0,.73-.73.73.73,0,0,0-.73.73" transform="translate(-249.131 -314.884)" fill="#f1ffff"/>
                  <path id="Trazado_167431" data-name="Trazado 167431" d="M447.3,558.678a.73.73,0,1,0,.73-.73.73.73,0,0,0-.73.73" transform="translate(-255.234 -318.369)" fill="#f1ffff"/>
                  <path id="Trazado_167432" data-name="Trazado 167432" d="M604.492,469.661l24.519,51.8c.935,1.975,2.65,3.331,4.268,4.8,1.485,1.347,3,1.958,3.167,2.374a9.1,9.1,0,0,1,.532,4.742,5.8,5.8,0,0,1-10.185,2.841l-3.207-3.852a37.966,37.966,0,0,1,0-4.3s-23.724-19.87-35.021-51.181c-1.313-3.638-.407-7.607,3.313-8.667l5.79-1.649a5.794,5.794,0,0,1,6.826,3.094" transform="translate(-335.515 -266.1)" fill="#ffa78b"/>
                  <path id="Trazado_167433" data-name="Trazado 167433" d="M677.413,598.592s-5.972-5.654-7.857-8.631c-.1-.219-6.468,1.91-8.824,4.57.092.091,4.157,4.869,4.358,8.359,0,.255,5.984,3.961,5.984,3.961a3.749,3.749,0,0,0,2,0,9.66,9.66,0,0,0,2.734-.851c.729-.486,1.944-1.093,2.187-2.065s-.587-5.344-.587-5.344" transform="translate(-377.019 -336.628)" fill="#fff"/>
                  <path id="Trazado_167434" data-name="Trazado 167434" d="M670.88,614.381s-.161,7.262,2.767,11.484c1.572-.6,30.939-12.626,30.939-12.626l-.208-.543a1.639,1.639,0,0,0-1.553-1.055c-3.575.048-15.121-.471-19.622-1.559-.454-.044-4.083,6.158-12.323,4.3" transform="translate(-382.808 -348.117)" fill="#ffa753"/>
                  <path id="Trazado_167435" data-name="Trazado 167435" d="M705.939,615.611a.182.182,0,0,1-.17-.251c.478-1.18,2.9-3.412,3-3.507a.182.182,0,1,1,.246.268c-.024.023-2.46,2.271-2.907,3.375a.182.182,0,0,1-.168.114" transform="translate(-402.71 -349.101)" fill="#373b45"/>
                  <path id="Trazado_167436" data-name="Trazado 167436" d="M712.816,616.5a.183.183,0,0,1-.167-.257A19.675,19.675,0,0,1,715.316,613a.183.183,0,0,1,.26.256,19.97,19.97,0,0,0-2.594,3.132.183.183,0,0,1-.167.108" transform="translate(-406.634 -349.752)" fill="#373b45"/>
                  <path id="Trazado_167437" data-name="Trazado 167437" d="M719.013,616.772a.172.172,0,0,1-.053-.008.182.182,0,0,1-.122-.227c.394-1.3,2.271-3.372,2.737-3.372h0a.182.182,0,0,1,.008.364,7.879,7.879,0,0,0-2.4,3.113.182.182,0,0,1-.174.13" transform="translate(-410.17 -349.877)" fill="#373b45"/>
                  <path id="Trazado_167438" data-name="Trazado 167438" d="M674.423,616.565a15.612,15.612,0,0,1-3.765-.485.182.182,0,0,1-.133-.221.18.18,0,0,1,.221-.133c8.466,2.1,12.614-3.391,13.683-5.125.076-.124.127-.207.254-.182a.182.182,0,0,1,.145.212.178.178,0,0,1-.044.089l-.045.072a12.075,12.075,0,0,1-10.316,5.771" transform="translate(-382.603 -348.308)" fill="#373b45"/>
                  <path id="Trazado_167439" data-name="Trazado 167439" d="M677.921,631.492l31.154-11.945-.81-2.112-30.939,12.626Z" transform="translate(-386.487 -352.313)" fill="#fff"/>
                  <path id="Trazado_167440" data-name="Trazado 167440" d="M493.572,367.1c-.211.153-.422.307-.635.457q-1.092.764-2.234,1.454c-1.466.884-3,1.675-4.5,2.486q-4.174,2.25-8.522,4.146c-.285.115-.572.222-.858.334-2.089-3.023-4.323-6.076-6.769-9.159-2.067-2.6-72.822-69.5-74.039-70.067,0,0,25.384-13.73,25.493-15.893,13.725,2.779,65.71,58.117,67.446,61.131.268.465,4.5,8.853,10.282,20.169-1.872,1.665-3.738,3.337-5.662,4.942" transform="translate(-225.967 -160.258)" fill="#34546e"/>
                  <path id="Trazado_167441" data-name="Trazado 167441" d="M270.713,472.4,213.468,469.7c-2.183-.1-4.186.773-6.242,1.511-1.887.677-3.136,1.724-3.584,1.679a9.1,9.1,0,0,1-4.436-1.759,5.8,5.8,0,0,1,2.28-10.325l4.908-1.02a38,38,0,0,1,3.795,2.019s28.689-11.6,61.636-6.852c3.828.552,6.905,3.217,6.093,7l-1.266,5.886a5.8,5.8,0,0,1-5.939,4.57" transform="translate(-112.331 -258.947)" fill="#ffa78b"/>
                  <path id="Trazado_167442" data-name="Trazado 167442" d="M206.7,480.615s7.8-2.613,11.311-2.878c.243.012,1.354-6.607.114-9.937-.123.039-6.252,1.381-9.427-.082-.224-.121-6.309,3.419-6.309,3.419a3.754,3.754,0,0,0-.943,1.77,9.684,9.684,0,0,0-.535,2.813c.087.872.052,2.23.8,2.9s4.993,1.994,4.993,1.994" transform="translate(-114.635 -266.882)" fill="#fff"/>
                  <path id="Trazado_167443" data-name="Trazado 167443" d="M199.346,463.7s-6.334-3.556-11.437-2.956c-.207,1.671-3.4,33.243-3.4,33.243l.578.072a1.639,1.639,0,0,0,1.66-.875c1.639-3.178,7.524-13.125,10.6-16.587.252-.379-3.516-6.5,2-12.9" transform="translate(-105.283 -262.867)" fill="#ffa753"/>
                  <path id="Trazado_167444" data-name="Trazado 167444" d="M203.744,502.972a.184.184,0,0,1-.177-.137c-.009-.033-.848-3.239-1.612-4.153a.182.182,0,1,1,.279-.234c.817.976,1.651,4.16,1.687,4.3a.182.182,0,0,1-.131.222.18.18,0,0,1-.045.006" transform="translate(-115.213 -284.382)" fill="#373b45"/>
                  <path id="Trazado_167445" data-name="Trazado 167445" d="M199.956,508.381a.182.182,0,0,1-.174-.128,20.04,20.04,0,0,0-1.545-3.762.182.182,0,0,1,.288-.224,19.678,19.678,0,0,1,1.6,3.877.182.182,0,0,1-.119.228.186.186,0,0,1-.055.009" transform="translate(-113.094 -287.698)" fill="#373b45"/>
                  <path id="Trazado_167446" data-name="Trazado 167446" d="M196.814,513.652a.185.185,0,0,1-.09-.024.182.182,0,0,1-.076-.232,7.878,7.878,0,0,0-1.619-3.582.182.182,0,1,1,.258-.258c.961.959,1.913,3.605,1.687,4a.182.182,0,0,1-.158.092" transform="translate(-111.254 -290.726)" fill="#373b45"/>
                  <path id="Trazado_167447" data-name="Trazado 167447" d="M209.406,481.063a.183.183,0,0,1-.171-.121l-.042-.073c-1.059-1.813-4.048-8.245,1.952-14.915a.182.182,0,0,1,.271.244c-5.835,6.485-2.936,12.727-1.909,14.486.073.125.122.208.042.309a.182.182,0,0,1-.143.069" transform="translate(-118.405 -265.843)" fill="#373b45"/>
                  <path id="Trazado_167448" data-name="Trazado 167448" d="M183.383,460.5l-4.1,33.112,2.245.278,3.4-33.243Z" transform="translate(-102.299 -262.762)" fill="#fff"/>
                  <path id="Trazado_167449" data-name="Trazado 167449" d="M334.08,363.209a83.27,83.27,0,0,1-2.941-10.706c3.782-.764,7.551-1.607,11.287-2.577,3.055-.794,18.944-62.5,19.9-63.334,0,0,33.724,18.929,35.565,19.847-5.342,20.909-27.858,65.71-32.626,68.029a28.736,28.736,0,0,1-9.55,2.452c-.356.038-5.651.453-13.407,1.038a140.977,140.977,0,0,1-8.231-14.749" transform="translate(-188.951 -163.532)" fill="#45708e"/>
                  <path id="Trazado_167450" data-name="Trazado 167450" d="M336.986,380.408c-.19-.4-.382-.792-.565-1.192-.447-1.189-.831-2.392-1.18-3.6l8.788-1.408a13.986,13.986,0,0,0,10.709-8.456l21.179-51.1,6.407,2.552-21.331,52.521a14.386,14.386,0,0,1-11.241,8.82Z" transform="translate(-191.291 -179.538)" fill="#fff"/>
                  <path id="Trazado_167451" data-name="Trazado 167451" d="M624.369,181.787a46.008,46.008,0,0,0-10.054,4.714c.076.024,2.208,3.96,3.587,6.519a1.317,1.317,0,0,0,2.232.137c1.172-1.628,3.529-3.924,8.112-5.642-.367-.559-3.877-5.727-3.877-5.727" transform="translate(-350.533 -103.729)" fill="#ffa78b"/>
                  <path id="Trazado_167452" data-name="Trazado 167452" d="M641.484,160.366a17.914,17.914,0,0,1,.848-3.232,7.079,7.079,0,0,0,.55-1.592,1.574,1.574,0,0,0-.527-1.515.234.234,0,0,0-.1-.048.265.265,0,0,0-.206.117,23.21,23.21,0,0,0-1.872,2.5l-1.4,2.053a31.4,31.4,0,0,0-1.78,2.82,18.6,18.6,0,0,0-1.946,4.719c-.018.1.342-.085.412-.017s.225.04.332-.009a16.854,16.854,0,0,0,3.149-1.726,7.931,7.931,0,0,0,1.947-1.977,5.492,5.492,0,0,0,.6-2.091" transform="translate(-362.363 -87.861)" fill="#ffa78b"/>
                  <path id="Trazado_167453" data-name="Trazado 167453" d="M635.874,177.526a21.911,21.911,0,0,0,10.48-5.817,8.058,8.058,0,0,0-.4-5.27,8.224,8.224,0,0,0-3.692-3.859,14.332,14.332,0,0,0-5.361,3.875c-1.521,1.625-2.859,3.416-4.421,5-.785.8-.506,2.218-.24,3.3.337,1.381,2.592,1.8,3.638,2.765" transform="translate(-360.603 -92.769)" fill="#ffa78b"/>
                  <path id="Trazado_167454" data-name="Trazado 167454" d="M659.781,161.874a32.84,32.84,0,0,1,8.051-4.119,2.573,2.573,0,0,1,1.04-.2.923.923,0,0,1,.824.575,1.276,1.276,0,0,1-.2.945c.643.186.833,1.46-1.051,2.648-1.977,1.247-4.041,2.631-6.08,3.773a4.2,4.2,0,0,1-1.025.459,2.16,2.16,0,0,1-2.38-1.107,2.8,2.8,0,0,1,.817-2.974" transform="translate(-375.92 -89.899)" fill="#ffa78b"/>
                  <path id="Trazado_167455" data-name="Trazado 167455" d="M668.685,172.552a8.624,8.624,0,0,1,1.05-.316.484.484,0,0,1,.311,0c.2.095.191.388.1.593a2.938,2.938,0,0,1-.927,1.064,23.97,23.97,0,0,1-5.812,3.482c-.285.12-.69.2-.839-.074-.474-.861,1.113-2.363,1.759-2.749a24.462,24.462,0,0,1,4.354-2" transform="translate(-378.02 -98.266)" fill="#ffa78b"/>
                  <path id="Trazado_167456" data-name="Trazado 167456" d="M659.145,153.828a2.739,2.739,0,0,0,1.1-.852.854.854,0,0,0-.251-1.214,1.112,1.112,0,0,0-.641-.014,9.907,9.907,0,0,0-2.793,1.11,45.021,45.021,0,0,0-7.028,4.955c-.39.359,0,.633-.053,1.161-.091.842,1.607.618,2.454.582,1.609-.068,2.158-1.554,3.108-2.56a16.672,16.672,0,0,1,4.1-3.169" transform="translate(-370.528 -86.566)" fill="#ffa78b"/>
                  <path id="Trazado_167457" data-name="Trazado 167457" d="M663.382,165.691a.228.228,0,0,1-.131-.415,92.931,92.931,0,0,1,8.631-4.684.228.228,0,1,1,.2.41,94.915,94.915,0,0,0-8.568,4.648.229.229,0,0,1-.131.041" transform="translate(-378.4 -91.622)" fill="#ff7559"/>
                  <path id="Trazado_167458" data-name="Trazado 167458" d="M514.545,125.77l.11.012c.091.015.183.03.276.041.86.149,1.8.479-.386-.053" transform="translate(-293.603 -71.765)" fill="#e58c4f"/>
                  <path id="Trazado_167459" data-name="Trazado 167459" d="M496.087,166.622a35.569,35.569,0,0,1-2.935-9.405,136.339,136.339,0,0,1-2.342-22.051,9.059,9.059,0,0,0,4.081-.457c3.341-1.215,8.955-6.257,10.044-4.131,4.834,9.436,6.547,20.1,11.425,27.383a110.179,110.179,0,0,0,32.871-4.513s3.4,6.347,3.012,9.375c-16.393,12.127-26.415,17.292-33.69,19.211-16.018,1.605-20.735-11.8-22.466-15.412" transform="translate(-280.06 -74.214)" fill="#373b45"/>
                  <path id="Trazado_167460" data-name="Trazado 167460" d="M641.506,176.787a.228.228,0,0,1-.133-.414c3.141-2.24,3.266-7.992,3.267-8.049a.228.228,0,0,1,.228-.225h0a.228.228,0,0,1,.225.231c0,.246-.131,6.041-3.458,8.414a.228.228,0,0,1-.133.042" transform="translate(-365.918 -95.919)" fill="#ff7559"/>
                  <path id="Trazado_167461" data-name="Trazado 167461" d="M427.872,83.141a20.066,20.066,0,0,1,20.476,1.5c.372.265-2.558,12.117-2.558,12.117s-12.119-1.037-12.978-1.067-6.519-3.965-6.519-3.965Z" transform="translate(-243.246 -46.223)" fill="#373b45"/>
                  <path id="Trazado_167462" data-name="Trazado 167462" d="M465.29,69.473s-2.485,10.77,2.4,14.295c-.088,2.557-2.782,8.75-11.512,7.367-.208-.028-17.284.873-14.37-9.775,4.834-3.032,9.6-11.613,9.837-16.039.141.018,13.644,4.152,13.644,4.152" transform="translate(-251.908 -37.273)" fill="#ffa78b"/>
                  <path id="Trazado_167463" data-name="Trazado 167463" d="M466.321,68.933a21.184,21.184,0,0,0,6.446.749l.133.036.063.018,2.157.6.04.011.935.258.014,0,.678.187.212.059.979.271.044.012.492.136.1.028.255.07L479,71.4l.012,0,.167.046.151.042.091.025.023.006.015,0,.007,0a28.912,28.912,0,0,0-.552,3.886c-2.694,2.537-10.24,3.536-12.594-6.487" transform="translate(-266.086 -39.333)" fill="#ff7559"/>
                  <path id="Trazado_167464" data-name="Trazado 167464" d="M459.162,31.879c4.164,15.977,11.27,14.29,12.43,14.36,8.514-.361,8.837-21.1,8.831-21.314,0,0-.221-10.834-13.61-8.116,0,0-12.159,1.629-7.651,15.07" transform="translate(-261.429 -9.342)" fill="#ffa78b"/>
                  <path id="Trazado_167465" data-name="Trazado 167465" d="M503.161,56.5a1.371,1.371,0,0,1,.7,1.352,1.305,1.305,0,0,1-.1.457,1.251,1.251,0,0,1-.6.6,1.516,1.516,0,0,1-1.918-.608,1.315,1.315,0,0,1,1.1-2.027,1.918,1.918,0,0,1,.818.221" transform="translate(-285.909 -32.111)" fill="#ff7559"/>
                  <path id="Trazado_167466" data-name="Trazado 167466" d="M472.8,57.412a1.371,1.371,0,0,1,.7,1.352,1.316,1.316,0,0,1-.1.457,1.251,1.251,0,0,1-.6.6,1.516,1.516,0,0,1-1.918-.608,1.315,1.315,0,0,1,1.1-2.027,1.918,1.918,0,0,1,.818.221" transform="translate(-268.583 -32.632)" fill="#ff7559"/>
                  <path id="Trazado_167467" data-name="Trazado 167467" d="M491.308,57.6a.21.21,0,0,1-.024-.42,1.663,1.663,0,0,0,1.189-.463,1.584,1.584,0,0,0,.023-1.326c-.134-.471-.286-.94-.438-1.408a15.669,15.669,0,0,1-.882-3.732.211.211,0,0,1,.2-.225.225.225,0,0,1,.225.2,15.309,15.309,0,0,0,.862,3.631c.154.473.307.946.443,1.423a1.927,1.927,0,0,1-.088,1.689,2.012,2.012,0,0,1-1.48.632l-.025,0" transform="translate(-280.225 -28.544)" fill="#ff7559"/>
                  <path id="Trazado_167468" data-name="Trazado 167468" d="M469.67,43.469c-.215-.038-.485-.146-.471-.364.009-.146.149-.245.277-.318a9.4,9.4,0,0,1,3.383-1.152,2.957,2.957,0,0,1,1.18.023c1.049.288,1.316,1.741.125,1.979a12.8,12.8,0,0,1-4.493-.168" transform="translate(-267.728 -23.73)" fill="#7a3a26"/>
                  <g id="Grupo_171023" data-name="Grupo 171023" transform="translate(202.262 17.997)" opacity="0.38" style="mix-blend-mode: screen;isolation: isolate">
                    <g id="Grupo_171022" data-name="Grupo 171022">
                      <g id="Grupo_171021" data-name="Grupo 171021" clip-path="url(#clip-path-8)">
                        <path id="Trazado_167469" data-name="Trazado 167469" d="M472.827,42.039c.181-.047.363-.09.547-.126a4.9,4.9,0,0,1-1.671,1.895c-.224-.03-.444-.064-.659-.1a4.472,4.472,0,0,0,1.784-1.669" transform="translate(-471.043 -41.913)" fill="#7a3a26"/>
                      </g>
                    </g>
                  </g>
                  <g id="Grupo_171026" data-name="Grupo 171026" transform="translate(204.182 17.879)" opacity="0.38" style="mix-blend-mode: screen;isolation: isolate">
                    <g id="Grupo_171025" data-name="Grupo 171025">
                      <g id="Grupo_171024" data-name="Grupo 171024" clip-path="url(#clip-path-9)">
                        <path id="Trazado_167470" data-name="Trazado 167470" d="M477.394,41.638a1.836,1.836,0,0,1,.249.049,1.258,1.258,0,0,1,.16.057,3.663,3.663,0,0,1-1.449,2.054c-.278,0-.558,0-.838-.018a3.24,3.24,0,0,0,1.878-2.143" transform="translate(-475.516 -41.638)" fill="#7a3a26"/>
                      </g>
                    </g>
                  </g>
                  <path id="Trazado_167471" data-name="Trazado 167471" d="M495.924,43.13c-.2-.079-.448-.237-.393-.448.037-.142.194-.212.333-.259a9.4,9.4,0,0,1,3.541-.479,2.944,2.944,0,0,1,1.153.25c.973.484.957,1.961-.258,1.966a12.816,12.816,0,0,1-4.377-1.031" transform="translate(-282.75 -23.925)" fill="#7a3a26"/>
                  <g id="Grupo_171029" data-name="Grupo 171029" transform="translate(215.834 18.129)" opacity="0.38" style="mix-blend-mode: screen;isolation: isolate">
                    <g id="Grupo_171028" data-name="Grupo 171028">
                      <g id="Grupo_171027" data-name="Grupo 171027" clip-path="url(#clip-path-10)">
                        <path id="Trazado_167472" data-name="Trazado 167472" d="M504.244,42.221a2.027,2.027,0,0,1,.38.14l.016.01a3.225,3.225,0,0,1-1.33,1.876q-.33-.048-.662-.119a2.8,2.8,0,0,0,1.6-1.907" transform="translate(-502.648 -42.221)" fill="#7a3a26"/>
                      </g>
                    </g>
                  </g>
                  <g id="Grupo_171032" data-name="Grupo 171032" transform="translate(213.874 18.007)" opacity="0.38" style="mix-blend-mode: screen;isolation: isolate">
                    <g id="Grupo_171031" data-name="Grupo 171031">
                      <g id="Grupo_171030" data-name="Grupo 171030" clip-path="url(#clip-path-11)">
                        <path id="Trazado_167473" data-name="Trazado 167473" d="M498.608,43.569q-.265-.086-.522-.177a5.354,5.354,0,0,0,1.668-1.438q.261-.017.523-.018a5.786,5.786,0,0,1-1.669,1.633" transform="translate(-498.086 -41.936)" fill="#7a3a26"/>
                      </g>
                    </g>
                  </g>
                  <path id="Trazado_167474" data-name="Trazado 167474" d="M505.215,42.017c.062.006.123.014.185.024-.062-.006-.123-.015-.185-.024" transform="translate(-288.28 -23.975)" fill="#9d4d32"/>
                  <path id="Trazado_167475" data-name="Trazado 167475" d="M500.494,50.057s-2.247,2.139-3.93-.169c0,.006,1.724-1.884,3.93.169" transform="translate(-283.343 -28.017)" fill="#f3e1d9"/>
                  <path id="Trazado_167476" data-name="Trazado 167476" d="M500.314,50.123a.208.208,0,0,1-.115-.034,3.455,3.455,0,0,0-3.656-.062.21.21,0,1,1-.232-.35,3.839,3.839,0,0,1,4.119.061.211.211,0,0,1-.115.386" transform="translate(-283.145 -28.02)" fill="#7a3a26"/>
                  <path id="Trazado_167477" data-name="Trazado 167477" d="M499.271,50.43c.046.462.365.809.711.775a.759.759,0,0,0,.544-.9c-.046-.462-.365-.809-.711-.775a.759.759,0,0,0-.544.9" transform="translate(-284.885 -28.261)" fill="#7a3a26"/>
                  <path id="Trazado_167478" data-name="Trazado 167478" d="M472.942,50.62s2.271,2.114,3.928-.213c0,.006-1.745-1.864-3.928.213" transform="translate(-269.864 -28.325)" fill="#f3e1d9"/>
                  <path id="Trazado_167479" data-name="Trazado 167479" d="M472.614,50.688a.211.211,0,0,1-.117-.386,3.843,3.843,0,0,1,4.119-.106.211.211,0,0,1-.229.353,3.456,3.456,0,0,0-3.655.1.21.21,0,0,1-.117.036" transform="translate(-269.557 -28.33)" fill="#7a3a26"/>
                  <path id="Trazado_167480" data-name="Trazado 167480" d="M477.707,50.962c-.041.463-.355.813-.7.783a.759.759,0,0,1-.554-.894c.041-.463.356-.814.7-.783a.759.759,0,0,1,.555.894" transform="translate(-271.863 -28.568)" fill="#7a3a26"/>
                  <path id="Trazado_167481" data-name="Trazado 167481" d="M487.628,73.429a6.2,6.2,0,0,1-3-.764.21.21,0,1,1,.2-.368,5.831,5.831,0,0,0,5.078.246.211.211,0,0,1,.168.386,6.131,6.131,0,0,1-2.446.5" transform="translate(-276.469 -41.238)" fill="#ff7559"/>
                  <path id="Trazado_167482" data-name="Trazado 167482" d="M387.76,108.793c7.353-3.591,22.9-8.163,22.9-8.163,16.454,14.659,24.7,3.4,24.7,3.4,18.341,7.791,9.118,42.985,9.118,42.985-1.493,4.986,2.319,55.234,2.319,55.234s-39.455,3.435-60.648-4.709c.443-2.575,2.925-45.436,2.357-54.229-.218-3.37-7.808-31.074-.748-34.521" transform="translate(-219.548 -57.42)" fill="#292c34"/>
                  <g id="Grupo_171037" data-name="Grupo 171037" transform="translate(183.047 79.468)" style="mix-blend-mode: multiply;isolation: isolate">
                    <g id="Grupo_171036" data-name="Grupo 171036">
                      <g id="Grupo_171035" data-name="Grupo 171035" clip-path="url(#clip-path-12)">
                        <g id="Grupo_171034" data-name="Grupo 171034" transform="translate(0 0)">
                          <g id="Grupo_171033" data-name="Grupo 171033" clip-path="url(#clip-path-13)">
                            <rect id="Rectángulo_43371" data-name="Rectángulo 43371" width="2.189" height="1.368" transform="translate(-0.196 2.069) rotate(-84.587)" fill="url(#linear-gradient)"/>
                          </g>
                        </g>
                      </g>
                    </g>
                  </g>
                  <path id="Trazado_167484" data-name="Trazado 167484" d="M480.625,27.143s-12.715-3.287-22.47,3.347c-.04.4.361,4.174.361,4.174a30.244,30.244,0,0,1,21.882-2.4c.08-.335.227-5.122.227-5.122" transform="translate(-261.425 -15.023)" fill="#34546e"/>
                  <path id="Trazado_167485" data-name="Trazado 167485" d="M454.607,22.8a4.3,4.3,0,0,1-3.149-1.181,3.121,3.121,0,0,1-.771-3.183,1.579,1.579,0,0,0,.171-.649c-.042-.577-.845-.886-.851-1.464s.855-.962.578-1.463a4.4,4.4,0,0,1-.606-2.039,2.577,2.577,0,0,1,.772-1.937,1.116,1.116,0,0,0,.3-.338c.137-.308-.1-.641-.194-.966a1.133,1.133,0,0,1,.684-1.323,1.66,1.66,0,0,0,.369-.14c.3-.2.279-.637.188-.983A1.334,1.334,0,0,1,452.08,6.1c.255-.4.9-.4,1.182-.781a1.983,1.983,0,0,1,.619-1.682,3.061,3.061,0,0,1,2.782.064,1.638,1.638,0,0,1,1.694-2.2,3.109,3.109,0,0,1,1.162.249A2.734,2.734,0,0,1,462,0a3,3,0,0,1,2.718,1.665,1.318,1.318,0,0,1,1.737-.214,3.9,3.9,0,0,1,1.309,1.417,1.606,1.606,0,0,1,2.085-.152c.636.426.7,1.033.995,1.739a5.231,5.231,0,0,1,5.622-.088,4.44,4.44,0,0,1,1.819,2.216,3.391,3.391,0,0,1,.022,2.783,1.432,1.432,0,0,1,1.384,1.022,3.144,3.144,0,0,1-.054,1.827c-.1.36-.244.91-.614.863a2.356,2.356,0,0,1-1.485,3.354c-.452.121-1.058.257-1.32-.13a2.7,2.7,0,0,1-3.135-1.794,1.339,1.339,0,0,1-1.492-.185c-.453-.412-.649-1.157-1.245-1.3a2.779,2.779,0,0,0-.928.076,4.179,4.179,0,0,1-2.531-.792,3.01,3.01,0,0,1-1.864,1.877,5.783,5.783,0,0,1-2.707.238,10.964,10.964,0,0,1-5.74-2.454c-.067,1.384-.211,3.229-1.292,4.1-.423.34-.979.584-1.179,1.089a1.919,1.919,0,0,0,.023,1.137,10.476,10.476,0,0,1,.476,4.515" transform="translate(-256.761 0)" fill="#7a3a26"/>
                  <path id="Trazado_167486" data-name="Trazado 167486" d="M508.622,42.908a51.14,51.14,0,0,0,.54-6.419,2.516,2.516,0,0,1,1.216-.468.6.6,0,0,1,.3.07.565.565,0,0,1,.2.28,3.388,3.388,0,0,1,.159,1.3,2.393,2.393,0,0,1-.289,1.373,7.356,7.356,0,0,0-.532.646,2.084,2.084,0,0,0-.167.541,6.57,6.57,0,0,1-1.427,2.681" transform="translate(-290.224 -20.554)" fill="#7a3a26"/>
                  <g id="Grupo_171040" data-name="Grupo 171040" transform="translate(194.035 0.861)" opacity="0.38" style="mix-blend-mode: screen;isolation: isolate">
                    <g id="Grupo_171039" data-name="Grupo 171039">
                      <g id="Grupo_171038" data-name="Grupo 171038" clip-path="url(#clip-path-14)">
                        <path id="Trazado_167487" data-name="Trazado 167487" d="M510.378,12.621a2.6,2.6,0,0,1,1.223,1.835c.044.267-.377.277-.421.013a2.142,2.142,0,0,0-1-1.478c-.23-.141-.03-.512.2-.37" transform="translate(-485.088 -8.044)" fill="#7a3a26"/>
                        <path id="Trazado_167488" data-name="Trazado 167488" d="M510.32,18.577a2.7,2.7,0,0,1,.833,1.223c.087.257-.316.38-.4.124a2.289,2.289,0,0,0-.719-1.04c-.208-.174.081-.479.289-.307" transform="translate(-485.022 -11.432)" fill="#7a3a26"/>
                        <path id="Trazado_167489" data-name="Trazado 167489" d="M515.939,25.245a.954.954,0,0,1,.28.618c.018.27-.4.283-.42.012a.506.506,0,0,0-.148-.325c-.191-.192.1-.5.289-.306" transform="translate(-488.233 -15.231)" fill="#7a3a26"/>
                        <path id="Trazado_167490" data-name="Trazado 167490" d="M512.422,29.78a1.085,1.085,0,0,0,1.05-.213c.2-.178.51.109.306.288a1.514,1.514,0,0,1-1.456.334c-.258-.078-.161-.487.1-.409" transform="translate(-486.284 -17.7)" fill="#7a3a26"/>
                        <path id="Trazado_167491" data-name="Trazado 167491" d="M510.084,25.53A1.407,1.407,0,0,0,511.15,26a.211.211,0,0,1,.012.421,1.821,1.821,0,0,1-1.367-.587c-.182-.2.105-.507.289-.307" transform="translate(-484.895 -15.391)" fill="#7a3a26"/>
                        <path id="Trazado_167492" data-name="Trazado 167492" d="M511.339,34.255a1.3,1.3,0,0,0,1.1-.275c.212-.169.433.19.223.357a1.7,1.7,0,0,1-1.421.327c-.265-.055-.166-.464.1-.409" transform="translate(-485.663 -20.225)" fill="#7a3a26"/>
                        <path id="Trazado_167493" data-name="Trazado 167493" d="M505.643,31.849a1.467,1.467,0,0,0,.866.553.21.21,0,0,1-.1.409,1.911,1.911,0,0,1-1.123-.739c-.162-.218.2-.439.357-.223" transform="translate(-482.332 -18.984)" fill="#7a3a26"/>
                        <path id="Trazado_167494" data-name="Trazado 167494" d="M504.382,27.266a3.071,3.071,0,0,1,.954.418c.224.148.025.519-.2.369a2.728,2.728,0,0,0-.852-.379.21.21,0,0,1,.1-.409" transform="translate(-481.694 -16.415)" fill="#7a3a26"/>
                        <path id="Trazado_167495" data-name="Trazado 167495" d="M505.272,20.136a3.589,3.589,0,0,1,1.214.651c.21.171-.079.477-.289.307a3.043,3.043,0,0,0-1.025-.549c-.257-.08-.16-.49.1-.409" transform="translate(-482.204 -12.345)" fill="#7a3a26"/>
                        <path id="Trazado_167496" data-name="Trazado 167496" d="M501.181,10.231a2.92,2.92,0,0,1,1.858.164c.249.106.046.475-.2.369a2.432,2.432,0,0,0-1.532-.131c-.263.062-.388-.34-.124-.4" transform="translate(-479.929 -6.652)" fill="#7a3a26"/>
                        <path id="Trazado_167497" data-name="Trazado 167497" d="M503.349,13.453a5.553,5.553,0,0,1,1.107.244c.255.084.158.494-.1.409a5.546,5.546,0,0,0-1.107-.244c-.268-.031-.167-.44.1-.409" transform="translate(-481.103 -8.536)" fill="#7a3a26"/>
                        <path id="Trazado_167498" data-name="Trazado 167498" d="M495.815,15.655a7.4,7.4,0,0,1,1.227-.524.211.211,0,0,1,.124.4,6.767,6.767,0,0,0-1.128.479c-.238.128-.462-.228-.223-.357" transform="translate(-476.893 -9.488)" fill="#7a3a26"/>
                        <path id="Trazado_167499" data-name="Trazado 167499" d="M498.645,19.3a2.442,2.442,0,0,0,.938-.372c.226-.15.449.207.223.357a2.747,2.747,0,0,1-1.037.418c-.264.047-.39-.355-.124-.4" transform="translate(-478.482 -11.641)" fill="#7a3a26"/>
                        <path id="Trazado_167500" data-name="Trazado 167500" d="M499.277,24.869a2.2,2.2,0,0,0,1.047-.1c.257-.087.38.316.124.4a2.662,2.662,0,0,1-1.27.106c-.268-.04-.167-.45.1-.409" transform="translate(-478.779 -14.988)" fill="#7a3a26"/>
                        <path id="Trazado_167501" data-name="Trazado 167501" d="M499.056,29.512a2.946,2.946,0,0,0,.946.068c.27-.023.282.4.013.421a3.325,3.325,0,0,1-1.058-.08.21.21,0,0,1,.1-.409" transform="translate(-478.655 -17.697)" fill="#7a3a26"/>
                        <path id="Trazado_167502" data-name="Trazado 167502" d="M493.949,24.1a2.274,2.274,0,0,0,1.14-.286c.237-.131.46.225.223.357a2.715,2.715,0,0,1-1.351.349c-.27,0-.284-.423-.012-.42" transform="translate(-475.774 -14.433)" fill="#7a3a26"/>
                        <path id="Trazado_167503" data-name="Trazado 167503" d="M511.644,39.977a2.067,2.067,0,0,0,.176-.84c0-.27.421-.284.421-.012a2.593,2.593,0,0,1-.227,1.054c-.11.247-.479.046-.37-.2" transform="translate(-485.972 -23.073)" fill="#7a3a26"/>
                        <path id="Trazado_167504" data-name="Trazado 167504" d="M510.223,43.3c.044-.267.453-.167.408.1s-.088.529-.132.794-.453.167-.409-.1.088-.529.133-.794" transform="translate(-485.095 -25.479)" fill="#7a3a26"/>
                        <path id="Trazado_167505" data-name="Trazado 167505" d="M490.579,26.678q.461.207.94.368c.255.085.158.5-.1.409q-.531-.178-1.042-.407c-.247-.111-.045-.48.2-.37" transform="translate(-473.784 -16.072)" fill="#7a3a26"/>
                        <path id="Trazado_167506" data-name="Trazado 167506" d="M490.523,20.417a4.761,4.761,0,0,1,1.479.058c.266.052.166.461-.1.409a4.383,4.383,0,0,0-1.367-.047c-.269.032-.28-.389-.012-.42" transform="translate(-473.82 -12.492)" fill="#7a3a26"/>
                        <path id="Trazado_167507" data-name="Trazado 167507" d="M490.3,17.159a3.553,3.553,0,0,1,1.118.165c.256.082.159.491-.1.409a3.172,3.172,0,0,0-1.005-.154.21.21,0,0,1-.013-.42" transform="translate(-473.69 -10.652)" fill="#7a3a26"/>
                        <path id="Trazado_167508" data-name="Trazado 167508" d="M493.739,11.382a2.869,2.869,0,0,1,.627.235c.241.124.04.493-.2.37a2.39,2.39,0,0,0-.526-.2.21.21,0,0,1,.1-.409" transform="translate(-475.622 -7.352)" fill="#7a3a26"/>
                        <path id="Trazado_167509" data-name="Trazado 167509" d="M492.726,7.986a1.719,1.719,0,0,1,1.273.3c.217.156.019.527-.2.37a1.377,1.377,0,0,0-1.059-.249c-.266.043-.276-.378-.012-.421" transform="translate(-475.078 -5.406)" fill="#7a3a26"/>
                        <path id="Trazado_167510" data-name="Trazado 167510" d="M485.325,4.66a2.8,2.8,0,0,1,1.255.722c.191.191-.1.5-.289.306a2.371,2.371,0,0,0-1.066-.619.211.211,0,0,1,.1-.409" transform="translate(-470.821 -3.515)" fill="#7a3a26"/>
                        <path id="Trazado_167511" data-name="Trazado 167511" d="M476.813,2.122a2.072,2.072,0,0,1,1.94.309c.218.161-.072.465-.289.307a1.634,1.634,0,0,0-1.527-.213c-.256.089-.379-.313-.124-.4" transform="translate(-466.028 -2.005)" fill="#7a3a26"/>
                        <path id="Trazado_167512" data-name="Trazado 167512" d="M478.251,5.8a1.945,1.945,0,0,1,1.058.032c.256.082.159.492-.1.408a1.525,1.525,0,0,0-.835-.038c-.262.062-.388-.339-.124-.4" transform="translate(-466.846 -4.136)" fill="#7a3a26"/>
                        <path id="Trazado_167513" data-name="Trazado 167513" d="M483.823,9.78l.955.086c.266.024.282.445.013.42l-.955-.085c-.267-.024-.283-.445-.013-.421" transform="translate(-469.997 -6.441)" fill="#7a3a26"/>
                        <path id="Trazado_167514" data-name="Trazado 167514" d="M487.427,12.711a1.525,1.525,0,0,0,.747-.48c.177-.206.483.083.306.288a1.922,1.922,0,0,1-.929.594.211.211,0,0,1-.124-.4" transform="translate(-472.082 -7.8)" fill="#7a3a26"/>
                        <path id="Trazado_167515" data-name="Trazado 167515" d="M483.032,19.231a1.646,1.646,0,0,0,1.311-.55c.182-.2.488.088.306.289a2.06,2.06,0,0,1-1.605.682c-.269-.009-.284-.429-.012-.42" transform="translate(-469.545 -11.481)" fill="#7a3a26"/>
                        <path id="Trazado_167516" data-name="Trazado 167516" d="M484.375,23.478a2.579,2.579,0,0,0,1.259-.3c.238-.127.462.229.223.357a3.025,3.025,0,0,1-1.469.364c-.27,0-.284-.423-.013-.42" transform="translate(-470.311 -14.071)" fill="#7a3a26"/>
                        <path id="Trazado_167517" data-name="Trazado 167517" d="M482.566,28.162a1.531,1.531,0,0,0,1.226-.468c.189-.195.5.094.307.289a1.941,1.941,0,0,1-1.52.6c-.268-.016-.283-.437-.012-.42" transform="translate(-469.279 -16.627)" fill="#7a3a26"/>
                        <path id="Trazado_167518" data-name="Trazado 167518" d="M477.9,30.359a3.547,3.547,0,0,0,1.578.218c.27-.024.282.4.012.42a3.82,3.82,0,0,1-1.69-.229c-.25-.094-.154-.5.1-.409" transform="translate(-466.59 -18.176)" fill="#7a3a26"/>
                        <path id="Trazado_167519" data-name="Trazado 167519" d="M477.916,25.23a3.022,3.022,0,0,0,1.159.368c.266.027.282.447.013.421a3.547,3.547,0,0,1-1.374-.419.211.211,0,0,1,.2-.37" transform="translate(-466.562 -15.242)" fill="#7a3a26"/>
                        <path id="Trazado_167520" data-name="Trazado 167520" d="M477.779,21.337a4.51,4.51,0,0,0,1.06.328c.266.049.167.457-.1.409a4.967,4.967,0,0,1-1.161-.367c-.246-.112-.045-.481.2-.37" transform="translate(-466.481 -13.024)" fill="#7a3a26"/>
                        <path id="Trazado_167521" data-name="Trazado 167521" d="M482.53,15.706l.846.061c.267.019.283.44.012.42l-.846-.06c-.268-.019-.283-.44-.012-.421" transform="translate(-469.259 -9.823)" fill="#7a3a26"/>
                        <path id="Trazado_167522" data-name="Trazado 167522" d="M478.6,11.362a4.182,4.182,0,0,1,1.218.189c.257.08.16.49-.1.409a3.778,3.778,0,0,0-1.106-.177c-.27,0-.284-.423-.012-.42" transform="translate(-467.017 -7.344)" fill="#7a3a26"/>
                        <path id="Trazado_167523" data-name="Trazado 167523" d="M475.819,16.572l1.314-.009a.21.21,0,0,1,.013.42l-1.315.009a.21.21,0,0,1-.012-.42" transform="translate(-465.429 -10.312)" fill="#7a3a26"/>
                        <path id="Trazado_167524" data-name="Trazado 167524" d="M471.932,7.69a3.493,3.493,0,0,1,1.266-.127c.267.022.283.443.013.42a3.176,3.176,0,0,0-1.155.109.211.211,0,0,1-.124-.4" transform="translate(-463.241 -5.169)" fill="#7a3a26"/>
                        <path id="Trazado_167525" data-name="Trazado 167525" d="M467.034,6.283a1.555,1.555,0,0,1,1.255-.956c.268-.037.278.383.012.42a1.145,1.145,0,0,0-.9.737c-.1.251-.468.048-.37-.2" transform="translate(-460.519 -3.899)" fill="#7a3a26"/>
                        <path id="Trazado_167526" data-name="Trazado 167526" d="M467.685,12.631a1.247,1.247,0,0,0,1.064-.426c.181-.2.487.087.306.289a1.686,1.686,0,0,1-1.469.546c-.268-.028-.167-.437.1-.409" transform="translate(-460.753 -7.786)" fill="#7a3a26"/>
                        <path id="Trazado_167527" data-name="Trazado 167527" d="M473.3,13.5l.93-.555c.233-.139.456.218.223.357l-.93.555c-.233.139-.456-.218-.223-.357" transform="translate(-464.045 -8.23)" fill="#7a3a26"/>
                        <path id="Trazado_167528" data-name="Trazado 167528" d="M469.85,19.735,471,19.484c.263-.058.389.344.124.4l-1.149.252c-.263.058-.389-.344-.124-.4" transform="translate(-462.052 -11.975)" fill="#7a3a26"/>
                        <path id="Trazado_167529" data-name="Trazado 167529" d="M472.013,25.059a1.747,1.747,0,0,0,1.415.009c.25-.1.372.3.124.4a2.164,2.164,0,0,1-1.74-.041c-.247-.111-.045-.48.2-.37" transform="translate(-463.19 -15.148)" fill="#7a3a26"/>
                        <path id="Trazado_167530" data-name="Trazado 167530" d="M470.639,28.294a2.7,2.7,0,0,0,1.269.314c.27,0,.284.421.012.421a3.169,3.169,0,0,1-1.483-.365.211.211,0,0,1,.2-.37" transform="translate(-462.409 -16.991)" fill="#7a3a26"/>
                        <path id="Trazado_167531" data-name="Trazado 167531" d="M466.034,23.655a2.16,2.16,0,0,0,.947.056c.267-.042.277.379.012.42a2.441,2.441,0,0,1-1.059-.067c-.259-.074-.162-.483.1-.409" transform="translate(-459.814 -14.353)" fill="#7a3a26"/>
                        <path id="Trazado_167532" data-name="Trazado 167532" d="M464.78,16.937a9.062,9.062,0,0,0,1.55-.729c.234-.137.457.219.223.357a9.7,9.7,0,0,1-1.649.774c-.255.092-.378-.311-.124-.4" transform="translate(-459.162 -10.092)" fill="#7a3a26"/>
                        <path id="Trazado_167533" data-name="Trazado 167533" d="M461.26,13.711a2.593,2.593,0,0,1,1.227-.678c.263-.061.388.341.124.4a2.177,2.177,0,0,0-1.044.564c-.194.189-.5-.1-.307-.289" transform="translate(-457.198 -8.294)" fill="#7a3a26"/>
                        <path id="Trazado_167534" data-name="Trazado 167534" d="M459.355,11.054a2.815,2.815,0,0,1,1.022-.848c.241-.118.466.238.223.357a2.552,2.552,0,0,0-.94.78c-.161.217-.466-.073-.306-.289" transform="translate(-456.121 -6.671)" fill="#7a3a26"/>
                        <path id="Trazado_167535" data-name="Trazado 167535" d="M462.721,25.926q.195-.714.39-1.429c.07-.261.48-.163.408.1q-.2.714-.39,1.429c-.071.261-.481.163-.409-.1" transform="translate(-458.062 -14.752)" fill="#7a3a26"/>
                        <path id="Trazado_167536" data-name="Trazado 167536" d="M459.436,21.037a5.763,5.763,0,0,1,1.26-1.087.211.211,0,0,1,.223.357,5.367,5.367,0,0,0-1.177,1.019c-.178.2-.484-.084-.307-.289" transform="translate(-456.162 -12.225)" fill="#7a3a26"/>
                        <path id="Trazado_167537" data-name="Trazado 167537" d="M457.5,18.174a3.155,3.155,0,0,1,.752-.695c.226-.15.448.207.223.357a2.8,2.8,0,0,0-.669.626c-.166.214-.471-.076-.306-.289" transform="translate(-455.058 -10.814)" fill="#7a3a26"/>
                        <path id="Trazado_167538" data-name="Trazado 167538" d="M456.092,14.665a1.219,1.219,0,0,1,.433-.4c.238-.128.462.228.224.357a.78.78,0,0,0-.287.246.218.218,0,0,1-.286.084.211.211,0,0,1-.084-.286" transform="translate(-454.269 -8.984)" fill="#7a3a26"/>
                        <path id="Trazado_167539" data-name="Trazado 167539" d="M464.621,20.973l.624-.185a.211.211,0,0,1,.124.4l-.623.185a.211.211,0,0,1-.124-.4" transform="translate(-459.07 -12.717)" fill="#7a3a26"/>
                        <path id="Trazado_167540" data-name="Trazado 167540" d="M453.523,22.152a2.339,2.339,0,0,1,.741-.985c.212-.169.433.19.223.357a1.943,1.943,0,0,0-.594.829c-.1.252-.467.049-.37-.2" transform="translate(-452.809 -12.914)" fill="#7a3a26"/>
                        <path id="Trazado_167541" data-name="Trazado 167541" d="M456.658,27.239a4.379,4.379,0,0,1,.581-1.552c.14-.23.511-.03.37.2a4.064,4.064,0,0,0-.542,1.45c-.045.267-.454.167-.409-.1" transform="translate(-454.606 -15.46)" fill="#7a3a26"/>
                        <path id="Trazado_167542" data-name="Trazado 167542" d="M460.088,31.718a2.9,2.9,0,0,0,.509-1.594c0-.27.426-.284.421-.012a3.3,3.3,0,0,1-.56,1.808c-.15.223-.521.024-.37-.2" transform="translate(-456.544 -17.931)" fill="#7a3a26"/>
                        <path id="Trazado_167543" data-name="Trazado 167543" d="M456.792,32.64l.441-1.066c.1-.249.473-.047.37.2l-.441,1.066c-.1.25-.473.047-.37-.2" transform="translate(-454.674 -18.813)" fill="#7a3a26"/>
                        <path id="Trazado_167544" data-name="Trazado 167544" d="M452.445,26.617c.156-.217.528-.019.37.2a2.622,2.622,0,0,0-.471,2.009c.043.266-.377.276-.421.012a2.963,2.963,0,0,1,.523-2.223" transform="translate(-451.883 -15.995)" fill="#7a3a26"/>
                        <path id="Trazado_167545" data-name="Trazado 167545" d="M454.11,33.022c.125-.24.494-.04.37.2a2.6,2.6,0,0,0-.294,1.275.21.21,0,0,1-.42.013,3.054,3.054,0,0,1,.345-1.49" transform="translate(-452.956 -19.642)" fill="#7a3a26"/>
                        <path id="Trazado_167546" data-name="Trazado 167546" d="M457,36.911c.24-.122.465.234.223.357a1.066,1.066,0,0,0-.6.992.21.21,0,0,1-.42.013,1.48,1.48,0,0,1,.8-1.362" transform="translate(-454.349 -21.908)" fill="#7a3a26"/>
                        <path id="Trazado_167547" data-name="Trazado 167547" d="M452.365,38.6c0-.27.423-.284.42-.012a3.917,3.917,0,0,0,.129,1.045c.069.262-.333.386-.4.124a4.347,4.347,0,0,1-.147-1.157" transform="translate(-452.158 -22.769)" fill="#7a3a26"/>
                        <path id="Trazado_167548" data-name="Trazado 167548" d="M457.217,43.728a4.2,4.2,0,0,0,.136.832c.07.261-.332.386-.4.124a4.772,4.772,0,0,1-.154-.944c-.016-.271.4-.283.421-.012" transform="translate(-454.686 -25.7)" fill="#7a3a26"/>
                        <path id="Trazado_167549" data-name="Trazado 167549" d="M452.918,43.921c.079-.258.488-.161.409.1a1.417,1.417,0,0,0,.066,1.046c.116.242-.24.467-.356.223a1.852,1.852,0,0,1-.118-1.369" transform="translate(-452.428 -25.836)" fill="#7a3a26"/>
                        <path id="Trazado_167550" data-name="Trazado 167550" d="M455.321,46.174a5.2,5.2,0,0,0,.252.937c.095.254-.308.377-.4.124a5.176,5.176,0,0,1-.252-.937c-.045-.264.357-.39.4-.124" transform="translate(-453.613 -27.124)" fill="#7a3a26"/>
                        <path id="Trazado_167551" data-name="Trazado 167551" d="M459.418,47.157a1.887,1.887,0,0,1,.126.9.218.218,0,0,1-.2.217.211.211,0,0,1-.216-.2,1.624,1.624,0,0,0-.108-.785c-.1-.252.3-.374.4-.124" transform="translate(-455.944 -27.691)" fill="#7a3a26"/>
                        <path id="Trazado_167552" data-name="Trazado 167552" d="M504.951,16.5a5.266,5.266,0,0,1,.957.5c.224.149.024.52-.2.369a5.263,5.263,0,0,0-.957-.5c-.25-.1-.048-.47.2-.37" transform="translate(-481.984 -10.265)" fill="#7a3a26"/>
                      </g>
                    </g>
                  </g>
                  <path id="Trazado_167553" data-name="Trazado 167553" d="M456.7,50.808a1.246,1.246,0,0,0-1.151.373,1.651,1.651,0,0,0-.3.843,6,6,0,0,0,.087,2.1,3.184,3.184,0,0,0,.4,1.042,3.028,3.028,0,0,0,.57.635,5.038,5.038,0,0,0,3.168,1.223,30.814,30.814,0,0,0-.891-3.98c-.378-1.019-.663-2.05-1.88-2.241" transform="translate(-259.738 -28.982)" fill="#ffa78b"/>
                  <path id="Trazado_167554" data-name="Trazado 167554" d="M459.878,57.718a.209.209,0,0,1-.206-.17,3.664,3.664,0,0,0-2.587-2.957.211.211,0,0,1,0-.421h0a4.051,4.051,0,0,1,3,3.3.21.21,0,0,1-.166.246.188.188,0,0,1-.041,0" transform="translate(-260.698 -30.91)" fill="#ff7559"/>
                  <path id="Trazado_167555" data-name="Trazado 167555" d="M458.626,58.221a.217.217,0,0,1-.078-.015.21.21,0,0,1-.117-.274,1.148,1.148,0,0,1,1.65-.564.21.21,0,1,1-.214.362.728.728,0,0,0-1.046.358.21.21,0,0,1-.2.133" transform="translate(-261.576 -32.645)" fill="#ff7559"/>
                  <path id="Trazado_167556" data-name="Trazado 167556" d="M445.946,100.347s-11.84-2.831-22.158-14.367c.07.31-5.889,3.388-4.42,11.017-.146.073,9.115,11.21,26.578,3.35" transform="translate(-239.162 -49.061)" fill="#292c34"/>
                  <path id="Trazado_167557" data-name="Trazado 167557" d="M481.575,105.2s6.737-6.4,6.177-10.232c-.306-2.088,5.284,3.065,5.1,6.728-.232-.144-4.859,4.255-11.273,3.5" transform="translate(-274.79 -53.917)" fill="#292c34"/>
                  <path id="Trazado_167558" data-name="Trazado 167558" d="M454.049,253.921a124.162,124.162,0,0,1-18.66-1.455.365.365,0,0,1-.3-.359V238.357a.364.364,0,0,1,.2-.327c12.266-6.033,10.291-29.582,10.269-29.819a.365.365,0,0,1,.363-.4H473.2a.364.364,0,0,1,0,.729H446.317c.235,3.253,1.251,24.017-10.5,30.039V251.8c2.819.447,24.589,3.658,38.672-1.493a.364.364,0,1,1,.251.684c-6.179,2.26-13.8,2.933-20.69,2.933" transform="translate(-248.264 -118.58)" fill="#87898f"/>
                  <path id="Trazado_167559" data-name="Trazado 167559" d="M397.319,255.027a46.027,46.027,0,0,0-8.623-7c.012.08-2.6,3.713-4.3,6.069a1.318,1.318,0,0,0,.85,2.069c1.976.345,5.069,1.466,8.613,4.843.343-.574,3.466-5.986,3.466-5.986" transform="translate(-219.194 -141.528)" fill="#ffa78b"/>
                  <path id="Trazado_167560" data-name="Trazado 167560" d="M421.125,264.982a17.93,17.93,0,0,1,3.278-.645,7.05,7.05,0,0,0,1.673-.2A1.575,1.575,0,0,0,427.21,263a.236.236,0,0,0,0-.114c-.027-.078-.116-.111-.195-.134a23.2,23.2,0,0,0-3.064-.6l-2.457-.365a31.291,31.291,0,0,0-3.314-.373,18.571,18.571,0,0,0-5.095.3c-.095.025.226.271.195.364-.037.112.062.219.152.3a16.883,16.883,0,0,0,2.925,2.082,7.929,7.929,0,0,0,2.628.891,5.486,5.486,0,0,0,2.142-.375" transform="translate(-235.698 -149.146)" fill="#ffa78b"/>
                  <path id="Trazado_167561" data-name="Trazado 167561" d="M402.246,266.441a21.911,21.911,0,0,0,9.8,6.9,8.056,8.056,0,0,0,4.567-2.66,8.224,8.224,0,0,0,1.866-5.005,14.347,14.347,0,0,0-5.824-3.137c-2.125-.66-4.32-1.085-6.428-1.8-1.059-.359-2.216.511-3.079,1.223-1.1.905-.492,3.118-.9,4.479" transform="translate(-229.525 -148.732)" fill="#ffa78b"/>
                  <path id="Trazado_167562" data-name="Trazado 167562" d="M433.161,278.867a32.829,32.829,0,0,1,7.215,5.452,2.572,2.572,0,0,1,.633.848.923.923,0,0,1-.158.993,1.275,1.275,0,0,1-.935.236c.112.659-.952,1.386-2.842.208-1.983-1.237-4.129-2.491-6.045-3.829a4.19,4.19,0,0,1-.86-.722,2.161,2.161,0,0,1-.04-2.625,2.805,2.805,0,0,1,3.032-.56" transform="translate(-245.193 -158.995)" fill="#ffa78b"/>
                  <path id="Trazado_167563" data-name="Trazado 167563" d="M430.509,290.753a8.671,8.671,0,0,1,.742.807.491.491,0,0,1,.132.282c0,.222-.267.34-.489.352a2.936,2.936,0,0,1-1.362-.371,23.976,23.976,0,0,1-5.666-3.715c-.232-.2-.477-.535-.3-.787.568-.8,2.612-.028,3.241.386a24.445,24.445,0,0,1,3.7,3.045" transform="translate(-241.656 -163.749)" fill="#ffa78b"/>
                  <path id="Trazado_167564" data-name="Trazado 167564" d="M440.294,275.1a2.744,2.744,0,0,0,1.246.62c.468.047,1.008-.286.983-.755a1.107,1.107,0,0,0-.267-.583,9.9,9.9,0,0,0-2.217-2.031,45,45,0,0,0-7.521-4.167c-.494-.195-.569.279-1.068.458-.8.286.143,1.716.545,2.462.762,1.418,2.338,1.265,3.658,1.682a16.674,16.674,0,0,1,4.64,2.314" transform="translate(-246.011 -153.002)" fill="#ffa78b"/>
                  <path id="Trazado_167565" data-name="Trazado 167565" d="M442.623,289.04a.227.227,0,0,1-.141-.049,94.884,94.884,0,0,0-7.916-5.687.228.228,0,1,1,.222-.4,93.032,93.032,0,0,1,7.976,5.727.228.228,0,0,1-.141.407" transform="translate(-247.9 -161.412)" fill="#ff7559"/>
                  <path id="Trazado_167566" data-name="Trazado 167566" d="M364.564,122.89c2.181,1.6,3,4.462,1.157,6.441-2.6,2.78-7.285,17.668-8.152,18.133-7.47,4.011-25.017,3.161-24.128,4.961a109.808,109.808,0,0,0,17.312,25.384s-4.23,5.829-7.126,6.8c-18.058-9.471-27.073-16.242-31.97-21.954-8.286-13.495-.757-23.1,3.956-26.777,2.633-2.055,28.318-16.5,28.318-16.5s13.831-1.478,20.633,3.521" transform="translate(-175.718 -67.997)" fill="#292c34"/>
                  <path id="Trazado_167567" data-name="Trazado 167567" d="M483.545,115.694a15.3,15.3,0,0,1-2.46-.207.365.365,0,1,1,.118-.72c7.85,1.282,10.841-4.09,10.87-4.145a.364.364,0,1,1,.641.346,10.441,10.441,0,0,1-9.169,4.725" transform="translate(-274.336 -63.013)" fill="#87898f"/>
                  <path id="Trazado_167568" data-name="Trazado 167568" d="M435.327,116.039a22.7,22.7,0,0,1-16.939-7.354.364.364,0,1,1,.528-.5c9.732,10.242,21.954,6.819,25.468,5.525a1.4,1.4,0,0,1,.266-.085.365.365,0,0,1,.134.716l-.148.054a27.7,27.7,0,0,1-9.308,1.647" transform="translate(-238.678 -61.665)" fill="#87898f"/>
                  <path id="Trazado_167569" data-name="Trazado 167569" d="M450.054,131.465a7.277,7.277,0,0,1-1.373-.135.365.365,0,1,1,.137-.716,5.418,5.418,0,0,0,4.458-.961c3.863-2.9,4.624-10.652,4.631-10.73a.365.365,0,0,1,.726.067c-.03.331-.8,8.149-4.919,11.245a5.962,5.962,0,0,1-3.661,1.231" transform="translate(-255.852 -67.669)" fill="#fff"/>
                  <path id="Trazado_167570" data-name="Trazado 167570" d="M476.157,128.833a.364.364,0,0,1-.025-.728,5.43,5.43,0,0,0,4.059-2.077c2.986-3.8,1.725-11.485,1.712-11.562a.365.365,0,0,1,.719-.122c.056.328,1.328,8.08-1.857,12.133a6.128,6.128,0,0,1-4.582,2.354h-.026" transform="translate(-271.491 -65.073)" fill="#fff"/>
                  <path id="Trazado_167571" data-name="Trazado 167571" d="M391.314,145.279a.365.365,0,0,1-.125-.708c5.7-2.073,9.53-5.518,11.37-10.24,3.988-10.238-2.661-23.236-2.728-23.366a.364.364,0,1,1,.647-.336c.069.133,6.869,13.416,2.761,23.964-1.919,4.928-5.889,8.516-11.8,10.664a.361.361,0,0,1-.125.022" transform="translate(-223.079 -63.014)" fill="#87898f"/>
                  <path id="Trazado_167572" data-name="Trazado 167572" d="M539.023,203.625h-.032a.364.364,0,0,1-.332-.395,13.287,13.287,0,0,1,4.785-8.968.365.365,0,0,1,.438.583,12.782,12.782,0,0,0-4.5,8.448.365.365,0,0,1-.363.333" transform="translate(-307.362 -110.805)" fill="#87898f"/>
                  <path id="Trazado_167573" data-name="Trazado 167573" d="M398.786,245.561a.361.361,0,0,1-.28-.131l-6.294-7.569a.364.364,0,1,1,.56-.466l6.293,7.568a.364.364,0,0,1-.28.6" transform="translate(-223.751 -135.384)" fill="#87898f"/>
                </g>
              </g>
            </g>
          </g>
        </g>
      </g>
    </g>
    <g id="Grupo_171046" data-name="Grupo 171046" transform="translate(948.055 2164.387)">
      <g id="Grupo_171045" data-name="Grupo 171045" transform="translate(45.945 50.613)" clip-path="url(#clip-path-15)">
        <path id="Trazado_167604" data-name="Trazado 167604" d="M0,0H143.839V118.462H0Z" transform="translate(-15.631 -17.219)" fill="#fc5f65"/>
        <path id="Trazado_167574" data-name="Trazado 167574" d="M246.218,279.463a5.35,5.35,0,0,0-1.19-1.583,2.709,2.709,0,0,0-.854-.554,1,1,0,0,0-.761.038c-.5-.747-2.395-4.164-2.809-4.216,0,0-1.469,2.385-1.632,2.813-.88,2.3-.172,3.863.733,6.058a3.237,3.237,0,0,0,.612,1.071,2,2,0,0,0,2.281.532,19.956,19.956,0,0,0,3.448-2.767.984.984,0,0,0,.173-1.391" transform="translate(-173.034 -197.438)" fill="#f6ba88"/>
        <path id="Trazado_167575" data-name="Trazado 167575" d="M252.7,285.486a10.325,10.325,0,0,1,1.717,2.479.856.856,0,0,0,.279-.118.3.3,0,0,0,.132-.263.445.445,0,0,0-.188-.265l-1.193-1" transform="translate(-182.357 -205.578)" fill="#eda672"/>
        <path id="Trazado_167576" data-name="Trazado 167576" d="M127.946,279.043c-2.359,2.487-3.316,7.818-3.725,10.208-1.207,7.049,6.173,22.979,8.633,29.81.938,1.21,16.753.978,18.49-1.384,0,0,15.008,1.254,17.267-1.15,1.362-5.756,12.086-21.4,8.38-37.9Z" transform="translate(-97.503 -201.052)" fill="#449393"/>
        <path id="Trazado_167577" data-name="Trazado 167577" d="M232.082,159.837c-1.382-.749-5.528-3.055-8.126-2.072-.577,3.772,2.17,23.384,6.155,21.473.2,2.626,4.574,7.44,5.93,9.741,0,0-4.428-.132-6.615,9.127-1.16,4.543,7.779,9.658,8.722,10.205,9.4-10.1,7.576-16.576,6.785-20.791-.566-3.016-2.764-22.215-12.851-27.684" transform="translate(-163.343 -121.152)" fill="#f6ba88"/>
        <path id="Trazado_167578" data-name="Trazado 167578" d="M126.219,281.5s6.1,5.566,18.536,6.906c11.311,1.219,31.321-.712,34.416-5.522,3.225-5.011,1.6-10.818,0-13.723.166.3-53.73,7.412-52.452,3.076-.484,1.642-.5,9.262-.5,9.262" transform="translate(-98.908 -194.809)" fill="#f6ba88"/>
        <path id="Trazado_167579" data-name="Trazado 167579" d="M171.482,148.51s-.048,18.83,11.889,18.432c10.157-.339,6.9-17.043,6.9-17.043l-4.434.746-.547-1.723L174.7,146.551l-1.342,1.33Z" transform="translate(-128.772 -113.911)" fill="#eda672"/>
        <path id="Trazado_167580" data-name="Trazado 167580" d="M131.881,172.344l-7.4,28.581c13.9,6.308,52.624-.692,54.726-7.4,0,0-.417-5.427-5.605-11.766,5.605-3.428-.826-10.648-4.434-14.4-2.485-2.584-5.373-11.06-7.537-14.4l-3.924-.786s3.679,8.828-3.423,9.07c-7.768.264-11.935-10.775-11.935-10.775-2.88.888-10.292,3.811-10.126,4.624,3.308,16.288-.339,17.259-.339,17.259" transform="translate(-97.76 -116.491)" fill="#b2442b"/>
        <path id="Trazado_167581" data-name="Trazado 167581" d="M212.1,88.433a.942.942,0,0,1,.422-.323,12.229,12.229,0,0,1,4.872-1.222,38.154,38.154,0,0,1,.389,7.187,20.76,20.76,0,0,1-2.682,8.664q-1.67-6.769-3.034-13.609a.984.984,0,0,1,.033-.7" transform="translate(-155.516 -74.547)" fill="#aa5c07"/>
        <path id="Trazado_167582" data-name="Trazado 167582" d="M167.01,87.029c0,7.766,2,10.017,4.519,11.976,4.047,3.141,10.809,2.434,13.574,1.011,4.015-2.066,6.87-6.882,3.706-12.02-.782-1.27-2.072-2.108-2.212-2.647-1.948-7.468-3.57-10.949-6.411-12.24a8.1,8.1,0,0,0-3.17-.778c-2.224,0-10.007,1.95-10.007,14.7" transform="translate(-125.822 -64.943)" fill="#f6ba88"/>
        <path id="Trazado_167583" data-name="Trazado 167583" d="M206.441,100.114a6.557,6.557,0,0,1,2.028,1.3.741.741,0,0,1,.265.342c.06.253-.149.488-.339.664a10.055,10.055,0,0,0-2.867-1.617,1.663,1.663,0,0,1,.112-.472.538.538,0,0,1,.34-.315.74.74,0,0,1,.46.1" transform="translate(-151.236 -83.199)" fill="#aa5c07"/>
        <path id="Trazado_167584" data-name="Trazado 167584" d="M103.311,316.616a1.272,1.272,0,0,0-.033,1.121.845.845,0,0,0,1.08.172,2.165,2.165,0,0,0,.777-.891,5.987,5.987,0,0,0,.874-4.243,1.546,1.546,0,0,0-1.088-.724l-1.61,4.566" transform="translate(-83.694 -223.105)" fill="#eda672"/>
        <path id="Trazado_167585" data-name="Trazado 167585" d="M112.351,307.75a7.272,7.272,0,0,1-4.3,10.823,2.125,2.125,0,0,1-1.964-.184c-.637-.546-.541-1.539-.391-2.364q.4-2.221.809-4.442a10.813,10.813,0,0,0-.232-2,3.089,3.089,0,0,1,.517-1.865,3.671,3.671,0,0,1,2.256-1.254,1.857,1.857,0,0,1,1-.011c.443.156.72.582,1.06.906s.886.7,1.244.395" transform="translate(-85.292 -219.366)" fill="#f6ba88"/>
        <path id="Trazado_167586" data-name="Trazado 167586" d="M186.262,101.137a11.477,11.477,0,0,0-2.041,1.466.7.7,0,0,0-.257.365c-.048.258.183.476.391.637a10.969,10.969,0,0,1,2.9-1.857,1.593,1.593,0,0,0-.144-.463.537.537,0,0,0-.373-.287.774.774,0,0,0-.474.14" transform="translate(-137.003 -83.852)" fill="#aa5c07"/>
        <path id="Trazado_167587" data-name="Trazado 167587" d="M202.2,122.738a1.636,1.636,0,0,1-.87.986,1.294,1.294,0,0,1-.8-.019,3.117,3.117,0,0,1-.75-.385c-.087-.059-.19-.168-.157-.267.025-.075.115-.1.192-.118.735-.156,2.216-.406,2.216-.406a.18.18,0,0,1,.172.023c.045.049.023.126,0,.187" transform="translate(-147.332 -98.055)" fill="#eda672"/>
        <path id="Trazado_167588" data-name="Trazado 167588" d="M174.688,132.365c3.087-1.826,5.835-4.223,9.454-3.441,2.644.572,5.026,1.835,7.626,2.545.64.175,2.841.273,2.959.9.5,2.652-1.6,6.746-6.33,7.379-6.308.844-12.962-.657-13.709-7.379" transform="translate(-130.887 -102.181)" fill="#f6ba88"/>
        <path id="Trazado_167589" data-name="Trazado 167589" d="M178.321,124.368c.106.859,1.237,1.427,2.526,1.267s2.248-.985,2.142-1.845-1.237-1.427-2.526-1.267-2.248.985-2.142,1.845" transform="translate(-133.279 -98.04)" fill="#ed9677"/>
        <path id="Trazado_167590" data-name="Trazado 167590" d="M214.727,118.276c.116.682,1.039,1.093,2.061.919s1.758-.868,1.642-1.55-1.039-1.093-2.062-.919-1.757.868-1.641,1.549" transform="translate(-157.296 -94.207)" fill="#ed9677"/>
        <path id="Trazado_167591" data-name="Trazado 167591" d="M209.054,111.244c-.1.3-.294.613-.6.655a.656.656,0,0,1-.541-.218,1.565,1.565,0,0,1-.3-.52,5.4,5.4,0,0,1-.34-1.319,1.182,1.182,0,0,1,.077-.72.84.84,0,0,1,1.123-.241,1.517,1.517,0,0,1,.663,1.047,2.616,2.616,0,0,1-.076,1.317" transform="translate(-152.369 -88.981)" fill="#7c3e03"/>
        <path id="Trazado_167592" data-name="Trazado 167592" d="M189.335,114.714a.86.86,0,0,0,.79.414.658.658,0,0,0,.437-.387,1.57,1.57,0,0,0,.11-.591,5.419,5.419,0,0,0-.123-1.356,1.182,1.182,0,0,0-.314-.653.839.839,0,0,0-1.138.15,1.516,1.516,0,0,0-.274,1.208,2.615,2.615,0,0,0,.513,1.215" transform="translate(-140.198 -91.101)" fill="#7c3e03"/>
        <path id="Trazado_167593" data-name="Trazado 167593" d="M165.206,73.159s15.1,2.077,18.281-2.969c2.211-3.5-.473-8.837-4.644-10.8l-.758,3.223-.853-1.9L176.115,62.8l-1.442-1.137s-10.863,1.595-12.684,5.242a15.569,15.569,0,0,0,.972,16.276c2.863-5.7,1.9-5.789,2.245-10.019" transform="translate(-121.292 -56.401)" fill="#c86e00"/>
        <path id="Trazado_167594" data-name="Trazado 167594" d="M163.525,114.179a1.52,1.52,0,0,0-2.244-1.471,2.535,2.535,0,0,0-1.036,2.263,6.722,6.722,0,0,0,.472,2.572,2.876,2.876,0,0,0,1.317,1.622,1.375,1.375,0,0,0,1.83-.558" transform="translate(-121.357 -91.462)" fill="#f6ba88"/>
        <path id="Trazado_167595" data-name="Trazado 167595" d="M162.885,118.7a2.313,2.313,0,0,0,1.1,1.74,2.332,2.332,0,0,1-.238-.739.791.791,0,0,1,.262-.7.485.485,0,0,1,.686.088,7.751,7.751,0,0,1-.013-1.1,2.959,2.959,0,0,0-.14-1.089,1.257,1.257,0,0,0-.738-.773.809.809,0,0,0-.956.342.908.908,0,0,1,1.056,1.257.482.482,0,0,0-.589-.208.732.732,0,0,0-.424.5,1.6,1.6,0,0,0-.006.68" transform="translate(-123.076 -93.81)" fill="#eda672"/>
        <path id="Trazado_167596" data-name="Trazado 167596" d="M117.376,164.052c5.033,2.633,6.981,21.136,2.3,20.711-.636,4.289-7.426,17.427-9.718,29.577,2.411,4.531-4.7-.737-5.5,0-3.862-7.878-2.089-20.918-1.931-21.76,1.592-8.485,3.554-23.811,14.852-28.528" transform="translate(-82.917 -125.458)" fill="#f6ba88"/>
        <path id="Trazado_167597" data-name="Trazado 167597" d="M202.725,363.386a66.551,66.551,0,0,0,9.445-14.671" transform="translate(-149.386 -247.296)" fill="none" stroke="#2a7270" stroke-linecap="round" stroke-linejoin="round" stroke-width="6.2"/>
        <path id="Trazado_167598" data-name="Trazado 167598" d="M230.5,341.5a10.591,10.591,0,0,0,7.9-4.146" transform="translate(-167.709 -239.801)" fill="none" stroke="#2a7270" stroke-linecap="round" stroke-linejoin="round" stroke-width="6.2"/>
        <path id="Trazado_167599" data-name="Trazado 167599" d="M200.544,131.692a4.526,4.526,0,0,1,4-1.312,1.567,1.567,0,0,1,1.288.861" transform="translate(-147.947 -103.198)" fill="none" stroke="#d38854" stroke-linecap="round" stroke-linejoin="round" stroke-width="6.2"/>
        <path id="Trazado_167600" data-name="Trazado 167600" d="M199.619,134.418a1.549,1.549,0,0,1-.694-.746" transform="translate(-146.879 -105.414)" fill="none" stroke="#d38854" stroke-linecap="round" stroke-linejoin="round" stroke-width="6.2"/>
        <path id="Trazado_167601" data-name="Trazado 167601" d="M215.411,132.653a1.066,1.066,0,0,0,.664-.752" transform="translate(-157.756 -104.245)" fill="none" stroke="#d38854" stroke-linecap="round" stroke-linejoin="round" stroke-width="6.2"/>
        <path id="Trazado_167602" data-name="Trazado 167602" d="M197.661,144.575a17.158,17.158,0,0,0,9.767-2.025,5.709,5.709,0,0,1-4.4,2.784,8.728,8.728,0,0,1-5.364-.76" transform="translate(-146.045 -111.271)" fill="#eda672"/>
      </g>
    </g>
  </g>
</svg>
