<svg xmlns="http://www.w3.org/2000/svg" xmlns:xlink="http://www.w3.org/1999/xlink" width="105" height="105" viewBox="0 0 105 105">
  <defs>
    <clipPath id="clip-path">
      <rect id="Rectángulo_43338" data-name="Rectángulo 43338" width="62.426" height="62.767" fill="none"/>
    </clipPath>
  </defs>
  <g id="Grupo_170721" data-name="Grupo 170721" transform="translate(-1063.326 -839)">
    <path id="Trazado_165117" data-name="Trazado 165117" d="M52.5,0A52.5,52.5,0,1,1,0,52.5,52.5,52.5,0,0,1,52.5,0Z" transform="translate(1063.326 839)" fill="#a6bbff"/>
    <g id="Grupo_170978" data-name="Grupo 170978" transform="translate(1084.326 860)">
      <g id="Grupo_170978-2" data-name="Grupo 170978" clip-path="url(#clip-path)">
        <path id="Trazado_166856" data-name="Trazado 166856" d="M57.413,33.733a1,1,0,0,1,.91,1.15q-.006,12.206,0,24.412a3.1,3.1,0,0,1-.209,1.312c-.186.4.028.388.307.387.811-.005,1.623-.012,2.435,0A1.387,1.387,0,0,1,62.4,62.54a16.461,16.461,0,0,1-.09,3.1,3.887,3.887,0,0,1-3.628,3.221c-2.615.092-5.235.049-7.852.052A.935.935,0,0,1,49.807,68c.176-.729.384-.907,1.132-.91,2.375-.01,4.751,0,7.126-.021a2.27,2.27,0,0,0,2.5-2.487c0-.406-.029-.814.008-1.217.04-.432-.114-.534-.536-.533q-10.873.013-21.745-.016c-.459,0-.566.126-.587.573a2.237,2.237,0,0,1-2.247,2.324q-4.261.085-8.525,0A2.221,2.221,0,0,1,24.7,63.436c-.023-.5-.165-.625-.663-.624q-10.811.027-21.623.012c-.122,0-.244,0-.366,0-.151,0-.223.071-.217.218a10.936,10.936,0,0,0,.09,2.363c.3,1.127,1.149,1.674,2.567,1.675q10.9,0,21.806,0H46.4c.934,0,1.119.132,1.315.916a1,1,0,0,1-1.145.916q-21.159,0-42.318-.009A4.032,4.032,0,0,1,.132,65.856C.1,65.779.094,65.7,0,65.678V61.9a1.983,1.983,0,0,1,2.013-.919c.782.051,1.569.011,2.426.011a5.461,5.461,0,0,1-.358-2.468q0-15.2,0-30.392a3.388,3.388,0,0,1,2.437-3.57,4.629,4.629,0,0,1,1.327-.127q12.519,0,25.037.013c.533,0,.64-.129.671-.656a2.159,2.159,0,0,0-.942-2.173,2.707,2.707,0,0,1-1.044-1.242c-.554-1.4,1.023-4.1,2.519-4.277a4.688,4.688,0,0,1,2.116.472,1.093,1.093,0,0,0,1.186-.121.911.911,0,0,1,.264-.149,1.563,1.563,0,0,0,1.1-1.492,4.163,4.163,0,0,1,.268-1.12,1.96,1.96,0,0,1,1.8-1.415,16.728,16.728,0,0,1,1.947-.01,2.037,2.037,0,0,1,1.917,1.513,2.828,2.828,0,0,1,.165.708,2.151,2.151,0,0,0,1.515,2.022,1.192,1.192,0,0,0,1.021.085,10.83,10.83,0,0,1,1.395-.421,2.014,2.014,0,0,1,2.32.9,18.193,18.193,0,0,1,.915,1.575,2.027,2.027,0,0,1-.357,2.416,2.746,2.746,0,0,1-.572.544,2.218,2.218,0,0,0-.972,2.4c.026.359.148.438.474.435,1.381-.013,2.762-.009,4.142,0A3.342,3.342,0,0,1,58.318,28c.009.873,0,1.746,0,2.619a.955.955,0,0,1-.9,1.086c-.711-.152-.939-.411-.955-1.174-.019-.933.007-1.868-.015-2.8a1.342,1.342,0,0,0-1.177-1.4c-1.05-.053-2.1-.014-3.176-.014.06.316.1.614.177.9s-.3.656.017.831a2.3,2.3,0,0,0,.956.055c.1,0,.2,0,.3,0,.833.008,1.091.257,1.1,1.093.02,1.7.043,3.409.044,5.113q.007,11.631,0,23.262c0,.162.006.325-.006.487-.059.807-.342,1.077-1.151,1.077q-22.322,0-44.644,0c-.843,0-1.165-.292-1.172-1.113-.015-1.847-.005-3.694,0-5.541a1.02,1.02,0,0,1,.911-1.162c.822.239.938.4.94,1.332,0,1.32.035,2.641-.015,3.959-.023.6.153.724.734.724q20.93-.031,41.86-.007c.576,0,.685-.169.684-.7q-.025-13.006-.012-26.013c0-.122-.009-.244,0-.366.019-.238-.09-.322-.32-.313-.706.026-1.458-.173-2.009.518-.122.153-.391.2-.6.272a2.791,2.791,0,0,1-2.062-.282,1.9,1.9,0,0,0-1.915.192,1.615,1.615,0,0,0-.974,1.386,4.392,4.392,0,0,1-.247,1.063,2.053,2.053,0,0,1-1.951,1.553c-.608.028-1.219.028-1.827,0A2,2,0,0,1,39,33.124c-.153-.524-.265-1.062-.365-1.6a.809.809,0,0,0-.372-.584c-.848-.568-1.7-1.039-2.718-.4a1.779,1.779,0,0,1-.4.125,2.122,2.122,0,0,1-2.343-.547.6.6,0,0,0-.478-.2c-.507.007-1.015,0-1.523,0-.112,0-.247-.041-.314.105a4.922,4.922,0,0,0,.451,1.662c.83.512,1.619,1.2,2.7.557a3.04,3.04,0,0,1,.813-.242,2.036,2.036,0,0,1,2.32.9c.309.475.592.969.86,1.468A2.08,2.08,0,0,1,37.238,37c-.358.359-.746.688-1.122,1.028a.667.667,0,0,0-.306.492c-.03,1.011-.154,2.041.97,2.636a2.293,2.293,0,0,1,.531.5,2.057,2.057,0,0,1,.353,2.47,17.732,17.732,0,0,1-.915,1.576,2.013,2.013,0,0,1-2.277.872c-.529-.134-1.044-.319-1.568-.477-.171-.051-.343-.147-.526-.038-.807.479-1.842.735-1.809,2a3.068,3.068,0,0,1-.229.942,2.024,2.024,0,0,1-1.882,1.476c-.627.032-1.259.032-1.887,0a2.038,2.038,0,0,1-1.915-1.515,4.775,4.775,0,0,1-.251-1.063,1.658,1.658,0,0,0-1-1.436,1.722,1.722,0,0,0-1.855-.171,2.824,2.824,0,0,1-.582.17,2.217,2.217,0,0,1-2.958-1.15c-1.515-2.377-1.114-3.029.787-4.678.151-.131.393-.225.386-.444-.029-.884.379-1.882-.679-2.511a4.121,4.121,0,0,1-.837-.794,1.981,1.981,0,0,1-.347-2.362,17.178,17.178,0,0,1,.943-1.63,2.013,2.013,0,0,1,2.333-.863c.508.134,1.007.3,1.509.462.175.055.358.147.528.041.773-.48,1.783-.691,1.817-1.938.014-.509.066-.682-.536-.678q-6.794.04-13.588,0c-.6,0-.77.125-.767.753.028,5.747.017,11.494.016,17.241,0,.921-.127,1.1-.912,1.336-.773-.216-.939-.455-.94-1.387q0-9.137,0-18.275c0-1.266.239-1.509,1.486-1.509H30.59c.835,0,.834,0,.842-.8a.988.988,0,0,1,.026-.362c.265-.615-.073-.632-.553-.632q-10.845.015-21.69.007c-.629,0-1.26-.016-1.889.013a1.4,1.4,0,0,0-1.38,1.353c-.015.182-.013.365-.013.548q0,15.412,0,30.824a5.878,5.878,0,0,0,.022.669,1.406,1.406,0,0,0,1.282,1.254c.222.022.446.017.67.017H52.63c.812,0,1.625.007,2.437-.022a1.378,1.378,0,0,0,1.378-1.348c.017-.242.012-.487.012-.73q0-11.727,0-23.453c0-.2-.008-.407.006-.609a.994.994,0,0,1,.949-1.065M21,39.265a2.892,2.892,0,0,1-1.254,2.988c-.971.738-.885.777-.312,1.892.315.614.668.788,1.273.476a3.41,3.41,0,0,1,3.91.452,1.855,1.855,0,0,0,.263.152,2.235,2.235,0,0,1,1.2,1.727c.069.44.183.873.272,1.309a.439.439,0,0,0,.508.4c2.028-.068,1.594.4,2.022-1.6a2.385,2.385,0,0,1,1.087-1.742c.316-.182.648-.344.943-.555a2.836,2.836,0,0,1,2.926-.3c1.24.5,1.23.425,1.941-.7.345-.546.314-.913-.221-1.249a3.411,3.411,0,0,1-1.585-3.661,2.183,2.183,0,0,0,0-.365,2.1,2.1,0,0,1,.814-1.753c.373-.313.721-.656,1.086-.978a.4.4,0,0,0,.1-.582c-1.106-1.777-.454-1.575-2.382-1-.116.034-.228.084-.344.119a2.373,2.373,0,0,1-1.767-.157c-1.539-.708-2.758-1.643-2.779-3.533,0-.019-.016-.038-.017-.058-.026-.522-.312-.645-.808-.637-1.459.024-1.47,0-1.749,1.433a2.246,2.246,0,0,1-.645,1.534c-1.34.968-2.615,2.02-4.525,1.184-1.237-.542-.953-.57-1.643.612-.561.96-.636.756.225,1.457,1.032.84,1.753,1.753,1.456,3.132M35.326,23.4a2.772,2.772,0,0,1-1.319,3.072c-.083.057-.138.154-.223.206-.544.339-.555.711-.214,1.25.7,1.108.692,1.18,1.948.676a2.783,2.783,0,0,1,2.87.285,4.516,4.516,0,0,0,.633.361,2.559,2.559,0,0,1,1.461,2.093c.213,1.465.243,1.437,1.709,1.468.526.011.808-.138.833-.673a3.652,3.652,0,0,1,2.561-3.413.776.776,0,0,0,.1-.064,2.2,2.2,0,0,1,2.037-.192c.452.176.93.284,1.388.445a.387.387,0,0,0,.507-.181c1.014-1.362,1.006-1.457-.3-2.562-.093-.079-.183-.16-.277-.239a2.08,2.08,0,0,1-.75-1.48c-.133-1.645-.113-3.24,1.568-4.214.017-.01.028-.03.045-.041.543-.348.522-.726.186-1.254-.691-1.087-.68-1.156-1.9-.671a2.861,2.861,0,0,1-2.98-.316,3.326,3.326,0,0,0-.528-.3,2.673,2.673,0,0,1-1.5-2.064c-.385-1.884,0-1.431-1.851-1.5-.383-.014-.611.078-.663.5-.048.4-.165.793-.247,1.189a4.382,4.382,0,0,1-3.925,2.771,3.324,3.324,0,0,1-.528-.132c-.271-.084-.535-.189-.808-.265-1.085-.3-.855-.467-1.432.553-.621,1.1-.789.8.328,1.731A2.87,2.87,0,0,1,35.326,23.4M31.19,62.835c-1.378,0-2.756-.005-4.134.006-.2,0-.531-.153-.531.275,0,.335.009.668.435.754a1.837,1.837,0,0,0,.362.032q3.89,0,7.781,0a1.36,1.36,0,0,0,.419-.054c.374-.123.357-.448.355-.754,0-.383-.3-.251-.493-.253-1.4-.009-2.8,0-4.195,0" transform="translate(0 -6.15)" fill="#050606"/>
        <path id="Trazado_166857" data-name="Trazado 166857" d="M14.624,65.493a1.02,1.02,0,0,0-.911,1.162c0,1.847-.011,3.695,0,5.541.006.822.328,1.113,1.171,1.114q22.322,0,44.644,0c.809,0,1.092-.27,1.151-1.077.012-.161.005-.324.005-.487q0-11.631,0-23.262c0-1.7-.024-3.409-.044-5.114-.01-.835-.268-1.084-1.1-1.093-.1,0-.2,0-.3,0a2.3,2.3,0,0,1-.956-.056c-.318-.175.06-.541-.017-.831s-.117-.586-.177-.9c1.072,0,2.126-.039,3.175.013a1.342,1.342,0,0,1,1.177,1.4c.022.933,0,1.867.016,2.8.016.763.243,1.022.955,1.174q0,1.013,0,2.024a.994.994,0,0,0-.949,1.065c-.014.2-.005.406-.006.609q0,11.727,0,23.453c0,.244.005.488-.012.731a1.377,1.377,0,0,1-1.377,1.347c-.811.03-1.624.022-2.437.022H13.9c-.223,0-.448.005-.67-.016a1.407,1.407,0,0,1-1.282-1.255,5.873,5.873,0,0,1-.022-.669q0-15.412,0-30.824c0-.183,0-.366.013-.548a1.4,1.4,0,0,1,1.38-1.353c.628-.029,1.259-.012,1.889-.013q10.845,0,21.69-.007c.48,0,.817.017.552.631a.979.979,0,0,0-.025.363c-.008.8-.007.8-.843.8H15.2c-1.247,0-1.486.243-1.486,1.508q0,9.137,0,18.275c0,.933.167,1.171.94,1.387q-.013,1.04-.027,2.081" transform="translate(-5.992 -20.325)" fill="#427e9d"/>
        <path id="Trazado_166858" data-name="Trazado 166858" d="M49.54,119.077c-.2-.785-.382-.916-1.315-.917h-20.1q-10.9,0-21.807,0c-1.417,0-2.27-.548-2.566-1.675a10.87,10.87,0,0,1-.09-2.363c-.006-.147.065-.221.216-.217.122,0,.244,0,.366,0q10.811,0,21.623-.012c.5,0,.641.122.663.623a2.222,2.222,0,0,0,2.231,2.274q4.261.084,8.525,0a2.237,2.237,0,0,0,2.247-2.324c.021-.446.128-.574.587-.573q10.873.031,21.745.016c.422,0,.577.1.536.533-.037.4-.006.811-.008,1.217a2.27,2.27,0,0,1-2.5,2.487c-2.375.02-4.751.011-7.126.021-.748,0-.956.182-1.132.911h-2.1" transform="translate(-1.829 -57.226)" fill="#a6d7f1"/>
        <path id="Trazado_166859" data-name="Trazado 166859" d="M17.349,69.162q.013-1.04.027-2.081c.785-.234.911-.415.911-1.336,0-5.747.012-11.494-.016-17.24,0-.628.165-.757.767-.754q6.793.041,13.587,0c.6,0,.551.169.536.678-.035,1.247-1.045,1.458-1.817,1.938-.17.105-.353.013-.528-.042-.5-.159-1-.328-1.509-.462a2.013,2.013,0,0,0-2.333.863,17,17,0,0,0-.943,1.629,1.981,1.981,0,0,0,.347,2.362,4.1,4.1,0,0,0,.837.794c1.057.63.65,1.627.679,2.512.007.218-.235.313-.386.444-1.9,1.648-2.3,2.3-.786,4.678a2.217,2.217,0,0,0,2.958,1.15,2.82,2.82,0,0,0,.582-.17,1.722,1.722,0,0,1,1.855.171,1.66,1.66,0,0,1,1,1.436A4.8,4.8,0,0,0,33.37,66.8a2.039,2.039,0,0,0,1.915,1.516c.628.03,1.26.03,1.888,0a2.025,2.025,0,0,0,1.882-1.476,3.064,3.064,0,0,0,.229-.941c-.033-1.263,1-1.519,1.81-2,.183-.108.356-.012.526.039.523.157,1.039.343,1.567.477a2.013,2.013,0,0,0,2.277-.872,17.809,17.809,0,0,0,.916-1.576,2.057,2.057,0,0,0-.354-2.47,2.269,2.269,0,0,0-.53-.5c-1.123-.6-1-1.625-.97-2.636a.666.666,0,0,1,.306-.492c.376-.34.764-.669,1.122-1.028a2.079,2.079,0,0,0,.392-2.616c-.268-.5-.551-.994-.86-1.469a2.036,2.036,0,0,0-2.32-.9,3.035,3.035,0,0,0-.812.241c-1.082.64-1.872-.044-2.7-.557a4.906,4.906,0,0,1-.451-1.662c.067-.146.2-.1.314-.1.508,0,1.015,0,1.523,0a.594.594,0,0,1,.478.2,2.122,2.122,0,0,0,2.343.547,1.754,1.754,0,0,0,.4-.125c1.023-.644,1.87-.173,2.718.395a.812.812,0,0,1,.373.584,16.333,16.333,0,0,0,.364,1.6,2,2,0,0,0,1.916,1.506c.607.029,1.219.029,1.826,0a2.053,2.053,0,0,0,1.952-1.553,4.388,4.388,0,0,0,.247-1.063,1.614,1.614,0,0,1,.974-1.386,1.9,1.9,0,0,1,1.915-.192,2.79,2.79,0,0,0,2.062.282c.207-.076.476-.119.6-.272.552-.691,1.3-.492,2.009-.518.231-.009.34.075.32.313-.01.121,0,.243,0,.365q0,13.007.012,26.013c0,.536-.108.705-.684.7q-20.93-.023-41.86.007c-.581,0-.757-.124-.734-.724.051-1.318.017-2.639.015-3.959,0-.931-.118-1.093-.94-1.332" transform="translate(-8.717 -23.994)" fill="#f2f2f2"/>
        <path id="Trazado_166860" data-name="Trazado 166860" d="M40.092,57.113c.3-1.379-.424-2.292-1.457-3.131-.862-.7-.786-.5-.225-1.458.691-1.182.406-1.154,1.643-.612,1.909.836,3.185-.215,4.525-1.184a2.245,2.245,0,0,0,.645-1.534c.279-1.431.29-1.408,1.749-1.433.5-.008.782.114.808.637,0,.019.017.038.017.058.021,1.891,1.239,2.825,2.779,3.533a2.375,2.375,0,0,0,1.767.158c.116-.036.228-.085.344-.12,1.927-.575,1.275-.777,2.381,1a.4.4,0,0,1-.1.583c-.366.322-.713.665-1.087.978a2.1,2.1,0,0,0-.813,1.753,2.237,2.237,0,0,1,0,.365,3.411,3.411,0,0,0,1.585,3.661c.535.336.567.7.221,1.249-.711,1.123-.7,1.2-1.941.7a2.835,2.835,0,0,0-2.926.3c-.3.211-.627.373-.943.555a2.388,2.388,0,0,0-1.088,1.742c-.428,2,.007,1.53-2.021,1.6a.439.439,0,0,1-.508-.4c-.09-.437-.2-.87-.272-1.309a2.235,2.235,0,0,0-1.2-1.727,1.861,1.861,0,0,1-.264-.152,3.41,3.41,0,0,0-3.91-.452c-.6.311-.957.138-1.273-.476-.573-1.114-.658-1.154.312-1.892a2.892,2.892,0,0,0,1.254-2.988m6.521-4.94a4.964,4.964,0,1,0,4.969,4.955,4.947,4.947,0,0,0-4.969-4.955" transform="translate(-19.088 -23.998)" fill="#fac027"/>
        <path id="Trazado_166861" data-name="Trazado 166861" d="M68.908,25.272a2.87,2.87,0,0,0-1.258-2.957c-1.117-.931-.95-.634-.328-1.731.578-1.02.347-.855,1.432-.553.273.076.537.181.808.265a3.33,3.33,0,0,0,.529.132,4.383,4.383,0,0,0,3.925-2.771c.082-.4.2-.789.247-1.189.051-.427.28-.519.663-.5,1.852.071,1.466-.382,1.851,1.5a2.675,2.675,0,0,0,1.5,2.064,3.247,3.247,0,0,1,.528.3,2.862,2.862,0,0,0,2.98.315c1.215-.485,1.2-.416,1.9.671.336.528.357.906-.187,1.254-.016.011-.027.031-.045.041-1.682.973-1.7,2.568-1.568,4.214a2.085,2.085,0,0,0,.75,1.48c.094.078.184.16.277.238,1.3,1.1,1.311,1.2.3,2.562a.387.387,0,0,1-.507.181c-.458-.161-.936-.269-1.388-.445a2.2,2.2,0,0,0-2.037.192.8.8,0,0,1-.1.064,3.652,3.652,0,0,0-2.561,3.413c-.026.535-.307.685-.834.673-1.467-.031-1.5,0-1.709-1.468a2.558,2.558,0,0,0-1.46-2.093,4.487,4.487,0,0,1-.633-.361,2.784,2.784,0,0,0-2.87-.285c-1.256.5-1.247.432-1.948-.676-.341-.539-.331-.91.214-1.25.084-.053.14-.15.222-.206a2.773,2.773,0,0,0,1.32-3.072m11.5.026a5,5,0,1,0-4.969,4.992A4.959,4.959,0,0,0,80.4,25.3" transform="translate(-33.582 -8.02)" fill="#fac027"/>
        <path id="Trazado_166862" data-name="Trazado 166862" d="M57.978,113.913c1.4,0,2.8,0,4.195,0,.19,0,.489-.13.493.253,0,.306.019.631-.355.754a1.36,1.36,0,0,1-.419.054q-3.891,0-7.781,0a1.836,1.836,0,0,1-.362-.032c-.426-.086-.435-.419-.435-.754,0-.428.329-.273.531-.275,1.378-.011,2.756-.006,4.134-.006" transform="translate(-26.789 -57.229)" fill="#a6d7f1"/>
        <path id="Trazado_166863" data-name="Trazado 166863" d="M50.278,56.628a4.964,4.964,0,1,1-5,4.912,4.983,4.983,0,0,1,5-4.912m-.077,8.1a3.134,3.134,0,1,0-3.089-3.218A3.112,3.112,0,0,0,50.2,64.725" transform="translate(-22.753 -28.454)" fill="#050606"/>
        <path id="Trazado_166864" data-name="Trazado 166864" d="M84.019,29.723a5,5,0,1,1-5-4.956,4.96,4.96,0,0,1,5,4.956M79,30.729c.871,0,1.744-.023,2.614.011.384.015.5-.163.537-.477a3.1,3.1,0,0,0-1.4-3.148,3.15,3.15,0,0,0-4.828,3.2c.06.338.2.429.518.423.851-.017,1.7-.006,2.554-.006M80.328,32.6H77.97a2.809,2.809,0,0,0,2.358,0" transform="translate(-37.196 -12.445)" fill="#050606"/>
        <path id="Trazado_166865" data-name="Trazado 166865" d="M52.049,66.573a3.134,3.134,0,1,1,.108-6.267,3.134,3.134,0,1,1-.108,6.267" transform="translate(-24.601 -30.303)" fill="#f2f2f2"/>
        <path id="Trazado_166866" data-name="Trazado 166866" d="M80.873,32.582c-.851,0-1.7-.011-2.553.006-.32.006-.458-.086-.518-.423a3.15,3.15,0,0,1,4.828-3.2,3.1,3.1,0,0,1,1.395,3.148c-.036.314-.153.492-.537.477-.87-.034-1.742-.01-2.614-.01" transform="translate(-39.069 -14.297)" fill="#fdfdfd"/>
        <path id="Trazado_166867" data-name="Trazado 166867" d="M84.311,40.519a2.809,2.809,0,0,1-2.358,0Z" transform="translate(-41.18 -20.36)" fill="#427e9d"/>
        <path id="Trazado_166868" data-name="Trazado 166868" d="M70.9,47.515H31.6c-.148-.1-.313-.026-.469-.048a4.007,4.007,0,0,1-3.561-3.212c-.011-.089.023-.186-.049-.263V31.941c.208-.488.324-.562.875-.552a.9.9,0,0,1,.656.906c.011.2.008.4.008.6q0,5.029,0,10.058A2.778,2.778,0,0,0,32.1,45.975q17.2,0,34.391,0a.846.846,0,0,0,.452-.051c.041-.123-.037-.209-.094-.3a5,5,0,0,1-.73-2.782q.007-16.871,0-33.742c0-1.456-.213-1.672-1.652-1.672H30.631c-.186,0-.371-.006-.556.006a1.013,1.013,0,0,0-.994.92,5.038,5.038,0,0,0-.024.74q0,9.526,0,19.05c0,.216,0,.432-.007.649a.9.9,0,0,1-.649.914c-.548.018-.676-.062-.883-.551V7.931a2.471,2.471,0,0,1,2.648-2.183c1.085-.008,1,.111,1.012-1.039a15.15,15.15,0,0,1,.083-2.5A2.469,2.469,0,0,1,33.89.007H56.211c.683,0,.842.117.992.713a.869.869,0,0,1-.905.859c-.231.02-.463.011-.695.011H34.521c-1.358,0-1.659.3-1.662,1.658,0,.664,0,1.328,0,1.993,0,.351.152.508.5.5.2,0,.4,0,.6,0q15.476,0,30.951-.005a2.711,2.711,0,0,1,2.574,1.408,2.876,2.876,0,0,1,.323,1.474q-.007,6.534,0,13.066v13.9c0,.17,0,.34,0,.509,0,.29.143.4.426.424,1.019.082,1.515-.333,1.581-1.349.014-.216.008-.432.008-.649q0-6.139,0-12.278c0-.2-.007-.4.01-.6a.839.839,0,0,1,.756-.851.825.825,0,0,1,.845.709,2.777,2.777,0,0,1,.072.782q0,6.326,0,12.653c0,.139,0,.278-.011.417A2.788,2.788,0,0,1,68.463,38.2c-.633.008-.66.029-.66.648,0,1.468-.026,2.936.008,4.4a2.725,2.725,0,0,0,2.37,2.676,2.806,2.806,0,0,0,3.092-1.748,3.393,3.393,0,0,0,.173-1.277q0-14.067,0-28.133,0-5.817,0-11.634A2.915,2.915,0,0,0,73.4,2.4a.994.994,0,0,0-1.015-.778.953.953,0,0,0-.863.933c-.017.2-.009.4-.009.6q0,7.208,0,14.415a3.09,3.09,0,0,1-.079.919.821.821,0,0,1-.82.683.843.843,0,0,1-.775-.882c-.014-.185-.008-.371-.008-.556V2.859a4.076,4.076,0,0,1,.034-.832c.071-.339-.07-.44-.389-.438-1.035.006-2.07,0-3.105,0-2.132,0-4.264,0-6.4,0-.724,0-.959-.174-1.138-.772.068-.6.266-.806.845-.806C64.017,0,68.357.018,72.7,0a2.421,2.421,0,0,1,2.33,2.343c0,.108,0,.216,0,.324q0,20.338.008,40.675a4.08,4.08,0,0,1-2.451,3.863,2.635,2.635,0,0,1-1.117.262c-.187.023-.383-.05-.565.048" transform="translate(-13.827 0)"/>
        <path id="Trazado_166869" data-name="Trazado 166869" d="M34.771,95.4a.082.082,0,0,0-.013-.083.528.528,0,0,1,.477.083Z" transform="translate(-17.465 -47.885)" fill="#505050"/>
        <path id="Trazado_166870" data-name="Trazado 166870" d="M115.193,95.318a.078.078,0,0,0-.012.083h-.464a.527.527,0,0,1,.476-.083" transform="translate(-57.643 -47.885)" fill="#505050"/>
        <path id="Trazado_166871" data-name="Trazado 166871" d="M29.005,38.785V36.96c.515-.118.657-.465.656-.961q-.013-9.964-.005-19.927c0-1.1.394-1.5,1.512-1.5q17.17,0,34.339,0a1.484,1.484,0,0,1,1.2.365,1.4,1.4,0,0,1,.324,1.028q-.007,5.723,0,11.446,0,11.423-.005,22.847a4.456,4.456,0,0,0,1.071,3.114c-.121.136-.268.07-.393.07q-17.447.005-34.895.015a3.05,3.05,0,0,1-3.167-3.151c.065-3.536.014-7.074.023-10.612a.793.793,0,0,0-.655-.911" transform="translate(-14.574 -7.323)" fill="#e6ebf5"/>
        <path id="Trazado_166872" data-name="Trazado 166872" d="M62.378,1.409A7.638,7.638,0,0,0,64.2,1.5c.123.509.463.66.962.658,3.242-.012,6.485-.006,9.727-.006h.558a6.5,6.5,0,0,0-.229,2.571q-.013,7.04,0,14.081c0,.665.1.8.677.974a2.505,2.505,0,0,1,0,1.828c-.578.17-.677.308-.677.975q0,6.6,0,13.208a1.527,1.527,0,0,1-2.129,1.592.167.167,0,0,1-.145-.191c0-.123,0-.247,0-.371q0-13.741,0-27.481A2.571,2.571,0,0,0,71,6.643a4.206,4.206,0,0,0-1.06-.073H38.612c-.668,0-.592.085-.6-.589,0-.834-.007-1.669,0-2.5a1.171,1.171,0,0,1,1.343-1.326q11.029,0,22.059,0c.658,0,.848-.149.958-.741" transform="translate(-19.101 -0.708)" fill="#d7e1f0"/>
        <path id="Trazado_166873" data-name="Trazado 166873" d="M111.166,22.356V20.528c.589-.155.712-.322.713-1q0-7.508,0-15.015c0-.17,0-.34.006-.509a1.129,1.129,0,0,1,1.1-1.1,1.173,1.173,0,0,1,1.139,1.018,2.541,2.541,0,0,1,.013.37q0,20.159,0,40.319a2.748,2.748,0,0,1-1.611,2.65,2.909,2.909,0,0,1-3.186-.3,2.637,2.637,0,0,1-1.118-2.186c-.018-1.637,0-3.275-.014-4.913,0-.305.108-.358.374-.348a5.731,5.731,0,0,0,1.109-.032,2.576,2.576,0,0,0,2.188-2.733q.009-5.051,0-10.1c0-1.127,0-2.255,0-3.383,0-.587-.148-.76-.711-.906" transform="translate(-54.371 -1.459)" fill="#a1b8e1"/>
        <path id="Trazado_166874" data-name="Trazado 166874" d="M50.652,17.613H66.685c.814,0,1.016.2,1.016,1q0,5.978,0,11.956c0,.756-.208.973-.952.973H34.5c-.757,0-.973-.212-.973-.955q0-6,0-12c0-.769.213-.974,1-.974H50.652" transform="translate(-16.845 -8.85)"/>
        <path id="Trazado_166875" data-name="Trazado 166875" d="M48.04,58.593q0,3.569,0,7.137c0,.806-.2,1-1.015,1H34.511c-.785,0-.986-.2-.986-.986q0-7.184,0-14.367c0-.81.2-1,1.015-1H47.054c.781,0,.986.2.986.984q0,3.615,0,7.23" transform="translate(-16.845 -25.314)"/>
        <path id="Trazado_166876" data-name="Trazado 166876" d="M50.666,86.512h15.98c.719,0,1.051.209,1.065.668.014.482-.341.722-1.072.722H34.587a1.5,1.5,0,0,1-.595-.063.65.65,0,0,1-.439-.689.633.633,0,0,1,.578-.623,3.932,3.932,0,0,1,.508-.015H50.666" transform="translate(-16.858 -43.47)"/>
        <path id="Trazado_166877" data-name="Trazado 166877" d="M76.056,57.769h-7.6a2.579,2.579,0,0,1-.416-.01.69.69,0,0,1-.024-1.368,2.188,2.188,0,0,1,.416-.011H83.725a2.184,2.184,0,0,1,.416.011.69.69,0,0,1-.022,1.368,2.573,2.573,0,0,1-.416.01H76.056" transform="translate(-33.882 -28.327)"/>
        <path id="Trazado_166878" data-name="Trazado 166878" d="M76.056,75.837H68.409a1.891,1.891,0,0,1-.415-.014.664.664,0,0,1-.567-.69.655.655,0,0,1,.541-.663,1.968,1.968,0,0,1,.461-.022H83.723a2.226,2.226,0,0,1,.416.012.69.69,0,0,1-.019,1.368,2.524,2.524,0,0,1-.416.009H76.056" transform="translate(-33.881 -37.406)"/>
        <path id="Trazado_166879" data-name="Trazado 166879" d="M76.1,50.378h7.6a4,4,0,0,1,.416.008.637.637,0,0,1,.6.6.651.651,0,0,1-.453.723,1.528,1.528,0,0,1-.6.058h-15.2a1.506,1.506,0,0,1-.595-.06.651.651,0,0,1-.449-.725.638.638,0,0,1,.607-.6c.138-.013.278-.008.417-.008H76.1" transform="translate(-33.88 -25.314)"/>
        <path id="Trazado_166880" data-name="Trazado 166880" d="M76.056,63.773q-3.869,0-7.737,0a.845.845,0,0,1-.72-.23.68.68,0,0,1,.28-1.1,1.625,1.625,0,0,1,.6-.061h15.2c.077,0,.154,0,.231,0,.521.022.849.313.829.735s-.329.654-.845.654q-3.915,0-7.83,0" transform="translate(-33.878 -31.345)"/>
        <path id="Trazado_166881" data-name="Trazado 166881" d="M76.074,68.439q3.846,0,7.692,0a.992.992,0,0,1,.667.127.666.666,0,0,1,.288.644.675.675,0,0,1-.433.556,1.535,1.535,0,0,1-.595.062H68.449c-.093,0-.186,0-.278,0a.719.719,0,0,1-.755-.712.706.706,0,0,1,.782-.674c1.714-.007,3.428,0,5.143,0h2.734" transform="translate(-33.875 -34.388)"/>
        <path id="Trazado_166882" data-name="Trazado 166882" d="M76.053,81.847q-3.869,0-7.738,0a.822.822,0,0,1-.777-.306.669.669,0,0,1,.384-1.035,2.035,2.035,0,0,1,.549-.05q7.6,0,15.2,0c.093,0,.186,0,.278,0,.486.027.8.324.783.732a.708.708,0,0,1-.8.655q-3.938.006-7.877,0" transform="translate(-33.875 -40.427)"/>
        <path id="Trazado_166883" data-name="Trazado 166883" d="M52.05,20.4c5.051,0,10.1.006,15.153-.011.44,0,.517.131.515.535q-.024,5.1,0,10.195c0,.334-.064.441-.424.441q-15.268-.016-30.537,0c-.38,0-.452-.117-.451-.468q.019-5.121,0-10.241c0-.361.087-.46.455-.459q7.646.019,15.292.008" transform="translate(-18.241 -10.243)" fill="#fedf7c"/>
        <path id="Trazado_166884" data-name="Trazado 166884" d="M36.31,59.95c0-2.116.007-4.233-.008-6.349,0-.34.077-.444.433-.443q5.446.021,10.891,0c.362,0,.428.113.427.446q-.017,6.349,0,12.7c0,.337-.072.446-.431.445q-5.446-.021-10.891,0c-.362,0-.431-.114-.429-.448.015-2.116.008-4.233.008-6.349" transform="translate(-18.241 -26.71)" fill="#de75a4"/>
        <path id="Trazado_166885" data-name="Trazado 166885" d="M72.05,28.486c.271-1.353.513-2.56.755-3.767.03-.151.056-.3.092-.453a.687.687,0,0,1,.831-.6.7.7,0,0,1,.529.883q-.37,1.883-.751,3.763c-.167.831-.341,1.661-.5,2.493a.848.848,0,0,1-1.674.089c-.417-1.349-.831-2.7-1.25-4.06-.2.109-.181.3-.228.452-.373,1.174-.732,2.352-1.1,3.527-.17.54-.474.789-.905.759s-.689-.3-.8-.869q-.609-3.061-1.21-6.123c-.1-.5.094-.834.509-.931s.732.146.836.65c.247,1.192.477,2.387.716,3.581.032.163.073.323.131.578.433-1.393.84-2.7,1.247-4,.023-.074.049-.146.067-.221a.688.688,0,0,1,.68-.587.728.728,0,0,1,.723.6q.525,1.7,1.043,3.4c.072.235.146.469.26.833" transform="translate(-33.069 -11.874)"/>
        <path id="Trazado_166886" data-name="Trazado 166886" d="M43.6,28.691V24.934c0-.216-.011-.433,0-.648a.683.683,0,0,1,1.343-.131,1.508,1.508,0,0,1,.041.411q.026,2.941.047,5.882a1.2,1.2,0,0,1-.14.714.766.766,0,0,1-1.311-.056c-.581-.816-1.144-1.646-1.714-2.471-.445-.644-.89-1.29-1.418-2.056v1.158c0,.988,0,1.976,0,2.964,0,.564-.278.894-.72.879-.423-.014-.668-.33-.668-.879,0-2.053,0-4.107,0-6.16,0-.385.069-.712.481-.847.438-.143.691.109.915.436,1.021,1.487,2.048,2.97,3.146,4.561" transform="translate(-19.625 -11.879)"/>
        <path id="Trazado_166887" data-name="Trazado 166887" d="M88.143,31.578a3.734,3.734,0,0,1-2.512-1.1.69.69,0,0,1-.072-1.058.706.706,0,0,1,1.03.059,2.245,2.245,0,0,0,2.2.625.943.943,0,0,0,.787-.808c.049-.467-.293-.7-.65-.857-.589-.266-1.2-.489-1.792-.739a1.959,1.959,0,0,1-1.415-2.074,2.229,2.229,0,0,1,1.9-1.931,3.571,3.571,0,0,1,2.752.668.7.7,0,0,1,.275,1.028.714.714,0,0,1-1.058.115,2.205,2.205,0,0,0-1.831-.415.762.762,0,0,0-.651.688c-.028.376.243.521.554.638.6.229,1.208.462,1.8.729a2.2,2.2,0,0,1,1.31,3.015,2.776,2.776,0,0,1-2.627,1.417" transform="translate(-42.884 -11.877)"/>
        <path id="Trazado_166888" data-name="Trazado 166888" d="M54.182,27.535c0-.988,0-1.976,0-2.964,0-.718.23-.954.933-.957.788,0,1.575-.005,2.362,0,.54,0,.858.269.862.7s-.314.687-.853.692-1.05.012-1.574,0c-.257-.008-.359.063-.345.334a11.56,11.56,0,0,1,0,1.2c-.014.276.063.387.357.372.446-.022.9-.01,1.342,0,.544.007.866.262.873.679.007.433-.332.7-.9.709-.432,0-.866.022-1.3-.005-.32-.021-.4.1-.376.4.042.487-.2,1.139.1,1.416.265.242.907.07,1.383.079.216,0,.434-.016.648.008a.648.648,0,0,1,.633.671.619.619,0,0,1-.6.693c-.971.034-1.945.03-2.916,0-.411-.011-.625-.328-.628-.823-.006-1.065,0-2.13,0-3.2" transform="translate(-27.224 -11.864)"/>
      </g>
    </g>
  </g>
</svg>
