<svg xmlns="http://www.w3.org/2000/svg" xmlns:xlink="http://www.w3.org/1999/xlink" width="105" height="105" viewBox="0 0 105 105">
  <defs>
    <clipPath id="clip-path">
      <rect id="Rectángulo_43339" data-name="Rectángulo 43339" width="66.598" height="66.966" fill="none"/>
    </clipPath>
  </defs>
  <g id="Grupo_170738" data-name="Grupo 170738" transform="translate(-433.326 -839)">
    <path id="Trazado_160852" data-name="Trazado 160852" d="M52.5,0A52.5,52.5,0,1,1,0,52.5,52.5,52.5,0,0,1,52.5,0Z" transform="translate(433.326 839)" fill="#a6bbff"/>
    <g id="Grupo_170979" data-name="Grupo 170979" transform="translate(452.325 858)">
      <g id="Grupo_170979-2" data-name="Grupo 170979" clip-path="url(#clip-path)">
        <path id="Trazado_166889" data-name="Trazado 166889" d="M61.169,65.126c0-1.251-.012-2.5.007-3.752.006-.371-.03-.547-.487-.54-1.831.031-3.663.025-5.495,0-.4,0-.47.129-.467.491.017,1.786-.006,3.573.018,5.36.006.437-.058.613-.56.605-1.594-.023-1.594,0-1.594-1.57,0-1.43-.018-2.859.01-4.288.009-.443-.066-.611-.563-.6-1.786.034-3.574.024-5.361.005-.384,0-.61.052-.521.5a.335.335,0,0,1,0,.067c-.017,1.783-.016,1.773-1.83,1.6-.282-.027-.325-.13-.318-.366.013-.446-.014-.894.009-1.34.018-.331-.058-.461-.431-.457q-2.78.031-5.562,0c-.418-.006-.456.159-.453.5.015,1.809-.005,3.619.016,5.427,0,.4-.075.525-.5.525-1.649,0-1.649.017-1.649-1.649,0-1.384-.024-2.77.013-4.154.013-.513-.108-.683-.645-.655a5.275,5.275,0,0,1-4.6-1.991,5.341,5.341,0,0,1,2.9-8.555.728.728,0,0,0,.609-.576,8.542,8.542,0,0,1,11.4-5.367.535.535,0,0,0,.791-.241,10.706,10.706,0,0,1,19.377,4.062c.142.625-.041,1.376.239,1.9s1.113.489,1.656.829a5.363,5.363,0,0,1-2.652,9.945c-1.2.031-1.2.031-1.2,1.215,0,2.278-.014,4.557.011,6.835,0,.45-.131.543-.555.541-1.6-.009-1.6.007-1.6-1.561V65.126" transform="translate(-16.032 -21.772)"/>
        <path id="Trazado_166890" data-name="Trazado 166890" d="M116.963,107.652c.824,0,1.534.017,2.242-.008.356-.013.493.058.5.461.022,1.691.038,1.691-1.672,1.691h-1.107c.416.416.732.762,1.082,1.071.269.237.23.386-.006.634-1.181,1.238-1.173,1.246-2.379.032l-.094-.1c-1.737-1.743-1.737-1.744-4.222-1.638-.161.007-.378-.086-.45.164-.064.22.123.314.243.435.866.871,1.728,1.745,2.607,2.6.235.229.28.364.024.635-1.183,1.252-1.172,1.262-2.382.055q-.9-.9-1.8-1.8c-.123-.122-.23-.293-.447-.2-.193.085-.125.267-.126.411-.007.759.013,1.519-.011,2.277a.793.793,0,0,0,.3.627c.762.754,1.507,1.525,2.283,2.264.278.264.284.43,0,.68-.4.35-.745.992-1.167,1.04-.444.05-.761-.659-1.163-1-.048-.042-.1-.08-.244-.2,0,.8-.018,1.521.008,2.241.013.359-.063.491-.463.5-1.689.021-1.689.037-1.689-1.674v-1.093c-.4.392-.729.691-1.027,1.022-.232.257-.405.361-.677.035-.354-.423-1.008-.785-1.05-1.219-.033-.35.652-.767,1.019-1.155a.3.3,0,0,1,.048-.047,3.832,3.832,0,0,0,1.685-4.136c-.036-.2.135-.476-.169-.579-.245-.083-.348.158-.481.289-.858.847-1.714,1.7-2.555,2.561-.231.237-.366.27-.633.016-1.245-1.185-1.255-1.175-.051-2.379l1.8-1.8c.123-.123.292-.233.193-.448-.088-.19-.27-.121-.413-.122-.759-.007-1.52.013-2.278-.011a.793.793,0,0,0-.626.307c-.74.745-1.493,1.476-2.218,2.234-.258.269-.432.394-.727.036-.339-.412-1-.749-1.038-1.166-.045-.438.661-.761,1.009-1.163.041-.047.078-.1.19-.239-.821,0-1.566-.014-2.31.007-.309.008-.408-.068-.422-.4-.071-1.751-.082-1.751,1.678-1.751h1.1c-.416-.417-.733-.764-1.084-1.074-.268-.237-.23-.385.007-.632,1.179-1.232,1.171-1.24,2.379-.031l.095.095c1.746,1.746,1.746,1.747,4.22,1.64.161-.007.378.084.45-.165.064-.219-.121-.315-.242-.436-.866-.87-1.729-1.745-2.607-2.6-.233-.227-.281-.36-.023-.632,1.189-1.25,1.178-1.26,2.382-.056q.9.9,1.8,1.8c.123.123.23.295.446.2.192-.086.123-.268.124-.412.007-.759-.012-1.519.011-2.277a.8.8,0,0,0-.3-.628c-.761-.755-1.506-1.526-2.282-2.264-.279-.265-.282-.43.005-.678.4-.35.746-.993,1.167-1.04.444-.05.762.658,1.163,1,.048.041.1.08.243.2,0-.822.013-1.566-.007-2.309-.008-.308.065-.41.4-.423,1.753-.072,1.752-.084,1.752,1.677v1.1c.432-.429.791-.765,1.123-1.125.2-.218.323-.189.537,0,1.327,1.182,1.332,1.176.079,2.429l-.095.095c-1.745,1.745-1.747,1.745-1.641,4.22.007.161-.085.377.163.451.219.065.316-.121.436-.241.871-.866,1.746-1.728,2.6-2.607.229-.235.363-.28.634-.026,1.261,1.18,1.27,1.169.058,2.382q-.9.9-1.8,1.8c-.123.123-.3.228-.2.445.085.194.267.126.41.127.759.007,1.519-.012,2.278.011a.794.794,0,0,0,.628-.3c.754-.762,1.525-1.507,2.265-2.282.26-.273.427-.3.681,0,.349.4.989.745,1.04,1.168.054.448-.656.761-1,1.163-.042.049-.083.1-.206.247" transform="translate(-53.109 -53.567)"/>
        <path id="Trazado_166891" data-name="Trazado 166891" d="M15.437,109.061c1.227,2.479,2.51,4.846,3.589,7.3a6.224,6.224,0,0,1-5.619,8.656c-2.321.046-4.644.039-6.966,0a6.254,6.254,0,0,1-5.588-8.956c1.107-2.331,2.3-4.624,3.482-7l3.108,4.127,2.439-4.248,2.44,4.246,3.115-4.13" transform="translate(-0.129 -60.227)"/>
        <path id="Trazado_166892" data-name="Trazado 166892" d="M115.328,14.082a13.485,13.485,0,0,1,1.5-5.269,38.267,38.267,0,0,1,5.731-8.59c.152-.176.252-.363.5-.07,2.978,3.556,5.681,7.284,6.936,11.835a7.53,7.53,0,1,1-14.663,2.094" transform="translate(-63.756 0)"/>
        <path id="Trazado_166893" data-name="Trazado 166893" d="M25.34,20.848a5.359,5.359,0,1,1-5.33-5.388,5.374,5.374,0,0,1,5.33,5.388" transform="translate(-8.083 -8.547)"/>
        <path id="Trazado_166894" data-name="Trazado 166894" d="M63.685,5.876a30.356,30.356,0,0,1,14.859,4.482c.443.265.543.468.208.883-.305.379-.5,1.043-.852,1.133s-.833-.4-1.258-.63A28.6,28.6,0,0,0,53.882,9.332c-.645.194-.855.058-1.039-.562-.386-1.3-.425-1.3.821-1.652A34.181,34.181,0,0,1,63.685,5.876" transform="translate(-29.081 -3.248)"/>
        <path id="Trazado_166895" data-name="Trazado 166895" d="M59.06,139.5a31.011,31.011,0,0,1-11.242-2.29c-.359-.144-.5-.268-.293-.654.252-.466.331-1.154.708-1.388.36-.224.914.275,1.388.441a28.878,28.878,0,0,0,20.831-.387c.343-.136.507-.151.683.257.675,1.57.7,1.562-.914,2.144A32.012,32.012,0,0,1,59.06,139.5" transform="translate(-26.219 -74.69)"/>
        <path id="Trazado_166896" data-name="Trazado 166896" d="M5.029,62.34a30.521,30.521,0,0,1,1.448-8.6c.139-.437.262-.655.761-.411.435.212,1.091.212,1.322.537.25.352-.178.9-.3,1.363A28.827,28.827,0,0,0,9.3,73.985c.174.433.09.6-.327.772-1.5.634-1.49.65-2.034-.85A32.714,32.714,0,0,1,5.029,62.34" transform="translate(-2.78 -29.427)"/>
        <path id="Trazado_166897" data-name="Trazado 166897" d="M138.681,62.911A32.188,32.188,0,0,1,136.4,75.02c-.174.434-.352.454-.714.268-.453-.233-1.129-.311-1.333-.67-.215-.377.271-.918.438-1.392a28.892,28.892,0,0,0,.4-18.65c-.143-.459-.113-.643.38-.8,1.517-.479,1.5-.5,1.94,1.047a30.843,30.843,0,0,1,1.179,8.088" transform="translate(-74.241 -29.57)"/>
        <path id="Trazado_166898" data-name="Trazado 166898" d="M62.561,104.395c0-2.3.012-4.6-.011-6.9,0-.436.109-.552.547-.549,1.608.01,1.608-.008,1.608,1.621,0,4.265-.01,8.53.013,12.8,0,.5-.113.628-.616.618-1.541-.031-1.541-.007-1.541-1.557v-6.029" transform="translate(-34.579 -53.594)"/>
        <path id="Trazado_166899" data-name="Trazado 166899" d="M9.477,11.9c-1-1.009-1.887-1.923-2.8-2.811-.254-.248-.236-.392.013-.613.416-.37.8-1.058,1.208-1.072.388-.013.8.669,1.2,1.055.511.5,1,1.028,1.525,1.506.294.265.255.415-.008.67-.4.386-.748.825-1.139,1.265" transform="translate(-3.592 -4.092)" fill="#010101"/>
        <path id="Trazado_166900" data-name="Trazado 166900" d="M39.873,7.16c.529.512,1.312.931,1.429,1.489.093.446-.792.9-1.222,1.374-.15.165-.314.317-.472.475-1.27,1.27-1.263,1.265-2.461-.078-.193-.216-.194-.32.012-.522.922-.909,1.824-1.837,2.714-2.738" transform="translate(-20.457 -3.958)" fill="#010101"/>
        <path id="Trazado_166901" data-name="Trazado 166901" d="M6.122,40.786c.983-.969,1.911-1.871,2.821-2.792.2-.2.3-.21.523-.014,1.346,1.2,1.352,1.194.081,2.463-.521.521-1.051,1.033-1.557,1.569-.214.226-.35.24-.573.007-.4-.418-.837-.8-1.3-1.233" transform="translate(-3.384 -20.918)" fill="#010101"/>
        <path id="Trazado_166902" data-name="Trazado 166902" d="M36.6,39.2c.469-.424.932-.811,1.354-1.238.229-.231.343-.143.523.04.813.828,1.629,1.655,2.467,2.459.266.255.217.4-.026.621-.415.371-.773,1.014-1.218,1.074-.329.045-.762-.652-1.143-1.025-.622-.609-1.24-1.222-1.958-1.93" transform="translate(-20.233 -20.907)" fill="#010101"/>
        <path id="Trazado_166903" data-name="Trazado 166903" d="M24.2,3.127c0-.58.017-1.161-.007-1.741-.012-.3.1-.358.381-.372,1.77-.092,1.77-.1,1.77,1.656,0,.736-.02,1.474.009,2.209.014.363-.111.433-.45.44-1.7.035-1.7.046-1.7-1.656V3.127" transform="translate(-13.374 -0.543)"/>
        <path id="Trazado_166904" data-name="Trazado 166904" d="M2.19,27.181H1.655c-1.689,0-1.8-.139-1.56-1.867.034-.249.132-.28.335-.279,1.206,0,2.411.013,3.617,0,.325,0,.339.143.351.4.082,1.752.088,1.752-1.672,1.752Z" transform="translate(0 -13.837)"/>
        <path id="Trazado_166905" data-name="Trazado 166905" d="M45.532,25.036c.558,0,1.117.017,1.674-.006.331-.014.45.062.459.431.039,1.72.054,1.719-1.643,1.719-.736,0-1.474-.015-2.21.007-.331.009-.45-.062-.459-.432-.04-1.72-.054-1.719,1.643-1.719h.536" transform="translate(-23.961 -13.836)"/>
        <path id="Trazado_166906" data-name="Trazado 166906" d="M26.347,46.332v.536c0,1.771,0,1.764-1.807,1.618-.254-.021-.345-.078-.342-.342q.018-1.808,0-3.616c0-.258.074-.376.338-.339a.373.373,0,0,0,.067,0c1.744-.087,1.744-.087,1.744,1.673Z" transform="translate(-13.377 -24.414)"/>
        <path id="Trazado_166907" data-name="Trazado 166907" d="M43.382,108.617c0-.58.017-1.161-.007-1.741-.012-.3.1-.358.381-.373,1.77-.092,1.77-.1,1.77,1.656,0,.736-.02,1.474.009,2.209.014.363-.111.433-.45.44-1.7.035-1.7.046-1.7-1.656v-.536" transform="translate(-23.978 -58.86)"/>
        <path id="Trazado_166908" data-name="Trazado 166908" d="M81.747,113.412c0-.58.017-1.161-.007-1.741-.012-.3.1-.358.381-.372,1.77-.092,1.77-.1,1.77,1.656,0,.736-.02,1.474.009,2.21.014.363-.111.433-.45.44-1.7.035-1.7.046-1.7-1.656v-.536" transform="translate(-45.187 -61.511)"/>
        <path id="Trazado_166909" data-name="Trazado 166909" d="M51.977,61.364c-4.958,0-9.916.009-14.874,0a3.21,3.21,0,1,1,.1-6.413c.59.017.851-.052.96-.763a6.414,6.414,0,0,1,9.81-4.684c.373.23.745.731,1.117.613.283-.09.4-.688.594-1.062A8.57,8.57,0,0,1,65.9,53.808c0,.022-.008.044-.011.066-.146,1.063-.146,1.063.925,1.062a3.219,3.219,0,1,1,.037,6.426q-7.437.008-14.874,0" transform="translate(-18.683 -24.433)" fill="#e5e8ec"/>
        <path id="Trazado_166910" data-name="Trazado 166910" d="M122.264,122.034a1.069,1.069,0,1,1-1.04-1.081,1.08,1.08,0,0,1,1.04,1.081" transform="translate(-66.409 -66.866)" fill="#f8d46e"/>
        <path id="Trazado_166911" data-name="Trazado 166911" d="M17.809,118.554c1.03,1.821,2.03,3.48,2.919,5.2a3.035,3.035,0,0,1-.933,3.778,3.249,3.249,0,0,1-3.974,0,3.037,3.037,0,0,1-.931-3.779c.89-1.716,1.89-3.375,2.92-5.2" transform="translate(-8.056 -65.54)" fill="#ec5565"/>
        <path id="Trazado_166912" data-name="Trazado 166912" d="M7.337,118.289c.511.681.952,1.3,1.423,1.885.2.246.049.406-.055.6a17.321,17.321,0,0,0-1.224,2.3,5.219,5.219,0,0,0,.22,4.158c.092.195.276.354.255.6A4,4,0,0,1,5.22,122.7a44.224,44.224,0,0,1,2.118-4.409" transform="translate(-2.764 -65.393)" fill="#ee7284"/>
        <path id="Trazado_166913" data-name="Trazado 166913" d="M31,127.791a5.476,5.476,0,0,0-.334-6.337,1.338,1.338,0,0,1,.122-2,10.372,10.372,0,0,0,.893-1.147c.753,1.733,1.879,3.207,2.254,5.009A3.928,3.928,0,0,1,31,127.791" transform="translate(-16.74 -65.403)" fill="#ee7284"/>
        <path id="Trazado_166914" data-name="Trazado 166914" d="M130.847,18.549a5.365,5.365,0,1,1-10.641-.947,13.036,13.036,0,0,1,.913-3.061A32.979,32.979,0,0,1,125.2,7.817c.135-.178.237-.481.515-.1,2.067,2.832,4.052,5.707,4.918,9.181a6.4,6.4,0,0,1,.216,1.651" transform="translate(-66.411 -4.165)" fill="#69d5f3"/>
        <path id="Trazado_166915" data-name="Trazado 166915" d="M25.847,23.457a3.215,3.215,0,1,1-3.194-3.2,3.23,3.23,0,0,1,3.194,3.2" transform="translate(-10.735 -11.198)" fill="#fbd670"/>
      </g>
    </g>
  </g>
</svg>
