<svg id="Grupo_170951" data-name="Grupo 170951" xmlns="http://www.w3.org/2000/svg" xmlns:xlink="http://www.w3.org/1999/xlink" width="90" height="90" viewBox="0 0 90 90">
  <defs>
    <clipPath id="clip-path">
      <rect id="Rectángulo_43330" data-name="Rectángulo 43330" width="59.762" height="57.33" fill="none"/>
    </clipPath>
  </defs>
  <g id="Grupo_159043" data-name="Grupo 159043" transform="translate(0 0)">
    <circle id="Elipse_4780" data-name="Elipse 4780" cx="45" cy="45" r="45" transform="translate(0 0)" fill="#c4d1ff"/>
  </g>
  <g id="Grupo_170957" data-name="Grupo 170957" transform="translate(15 16)">
    <g id="Grupo_170957-2" data-name="Grupo 170957" transform="translate(0 0)" clip-path="url(#clip-path)">
      <path id="Trazado_166703" data-name="Trazado 166703" d="M20.641,67.008H44.687A2.615,2.615,0,0,0,47.3,64.394V50.639a2.615,2.615,0,0,0-2.614-2.614H20.641a2.615,2.615,0,0,0-2.614,2.614V64.394a2.615,2.615,0,0,0,2.614,2.614" transform="translate(-1.562 -10.667)" fill="#fbae96"/>
      <path id="Trazado_166704" data-name="Trazado 166704" d="M18.909,31.639a3.718,3.718,0,0,1,4.057-2.826,3.162,3.162,0,0,1,.547.194c-.536-5.955.017-12.529,3.988-16.333,8.543-8.189,21.473-6.095,24.526.755,2.373,5.318,3.43,11.58,3.953,17.7.228,2.609.361,5.2.45,7.675.012.264.017.52.03.776a10.1,10.1,0,0,1-.26,3.294c-1.217,4.078-6.813,6.83-10.638,7.816a16.308,16.308,0,0,1-14.03-2.834A18.03,18.03,0,0,1,25.1,38.036a7.96,7.96,0,0,1-2.429-.121A6.2,6.2,0,0,1,19.744,35.7a4.926,4.926,0,0,1-.835-4.063" transform="translate(-11.318 -1.635)" fill="#fa9778"/>
      <path id="Trazado_166705" data-name="Trazado 166705" d="M24,45.573a4.025,4.025,0,0,1-1.01.181,3.968,3.968,0,0,1-.384-7.927,3.719,3.719,0,0,1,.944.071c.228,2.609.362,5.2.45,7.675" transform="translate(21.11 -8.401)" fill="#fa8864"/>
      <path id="Trazado_166706" data-name="Trazado 166706" d="M40.649,43.215a3.97,3.97,0,1,0,3.774-4.158,3.971,3.971,0,0,0-3.774,4.158" transform="translate(-20.438 -8.674)" fill="#fa8864"/>
      <path id="Trazado_166707" data-name="Trazado 166707" d="M33.7,48.036a1.886,1.886,0,0,1-1.185.467,1.969,1.969,0,0,1-1.227-.35,6.2,6.2,0,0,0,1.213.077,5.216,5.216,0,0,0,1.2-.194" transform="translate(1.722 -10.669)" fill="#450d20"/>
      <path id="Trazado_166708" data-name="Trazado 166708" d="M43.876,23.211a2.722,2.722,0,0,0-1.806-.571,5.483,5.483,0,0,0-1.877.36,4.613,4.613,0,0,0-1.618,1.034,4.829,4.829,0,0,0-1.065,1.511.549.549,0,0,0,.882.629l.044-.045a6.791,6.791,0,0,1,1.087-.953,3.978,3.978,0,0,1,1.224-.573,4.876,4.876,0,0,1,1.347-.2,5.212,5.212,0,0,0,1.442-.154l.143-.042a.575.575,0,0,0,.2-1" transform="translate(-13.461 -5.028)" fill="#872000"/>
      <path id="Trazado_166709" data-name="Trazado 166709" d="M22,22.8a2.719,2.719,0,0,1,1.742-.743,5.47,5.47,0,0,1,1.9.177,4.615,4.615,0,0,1,1.71.872,4.859,4.859,0,0,1,1.207,1.4.549.549,0,0,1-.818.712l-.048-.04a6.753,6.753,0,0,0-1.175-.843,3.975,3.975,0,0,0-1.273-.453,4.885,4.885,0,0,0-1.359-.065,5.194,5.194,0,0,1-1.451-.013l-.146-.029A.574.574,0,0,1,22,22.8" transform="translate(14.14 -4.895)" fill="#872000"/>
      <path id="Trazado_166710" data-name="Trazado 166710" d="M42.153,31.617a2.476,2.476,0,0,0,1.263,1.629.425.425,0,0,1-.333.781.4.4,0,0,1-.095-.056l-.017-.014a2.716,2.716,0,0,1-.818-1.074,3.36,3.36,0,0,1-.272-1.238.137.137,0,0,1,.269-.04Z" transform="translate(-16.489 -6.997)" fill="#450d20"/>
      <path id="Trazado_166711" data-name="Trazado 166711" d="M41.334,33.958a3.475,3.475,0,0,0-4.271-.111.25.25,0,0,0,.222.44,6.4,6.4,0,0,1,1.926-.387,4.787,4.787,0,0,1,1.928.372.189.189,0,0,0,.2-.313" transform="translate(-10.384 -7.367)" fill="#450d20"/>
      <path id="Trazado_166712" data-name="Trazado 166712" d="M24.492,30.078a2.475,2.475,0,0,1-1.144,1.714.424.424,0,0,0,.387.755.413.413,0,0,0,.091-.063l.016-.015a2.719,2.719,0,0,0,.741-1.13,3.364,3.364,0,0,0,.184-1.253.137.137,0,0,0-.271-.021Z" transform="translate(17.011 -6.653)" fill="#450d20"/>
      <path id="Trazado_166713" data-name="Trazado 166713" d="M24.749,33.139a5.135,5.135,0,0,1,3.82-.246.25.25,0,0,0,.191-.455,3.474,3.474,0,0,0-4.253.414.189.189,0,0,0,.241.287" transform="translate(11.861 -7.085)" fill="#450d20"/>
      <path id="Trazado_166714" data-name="Trazado 166714" d="M35.243,42.682s-.712,3.068-3.305,2.843a4.022,4.022,0,0,1-3.394-2.953Z" transform="translate(2.315 -9.456)" fill="#fff"/>
      <path id="Trazado_166715" data-name="Trazado 166715" d="M32.761,29.028c.245.874.437,1.744.643,2.605s.413,1.715.7,2.524c.067.2.141.4.224.6a2.17,2.17,0,0,1,.236.747,1.527,1.527,0,0,1-.755,1.431,1.854,1.854,0,0,1-1.491.152,3.645,3.645,0,0,1-1.218-.651c.837.269,1.809.464,2.366,0a.9.9,0,0,0,.366-.856,1.679,1.679,0,0,0-.2-.512c-.1-.215-.187-.433-.264-.651a12.486,12.486,0,0,1-.561-2.677,14.306,14.306,0,0,1-.048-2.707" transform="translate(1.002 -6.447)" fill="#450d20"/>
      <path id="Trazado_166716" data-name="Trazado 166716" d="M57.366,39.188a9.793,9.793,0,0,1,2.857-.149,7.642,7.642,0,0,1,2.667.714l.187-.739a8.892,8.892,0,0,0-2.432.148,3.387,3.387,0,0,0-1.216.5,1.482,1.482,0,0,0-.645,1.307,2.226,2.226,0,0,0,1.6,1.947,3.232,3.232,0,0,0,2.373-.107,3.487,3.487,0,0,1-2.192-.317,1.751,1.751,0,0,1-1.079-1.536c-.032-.57.616-.854,1.324-1.007a9.859,9.859,0,0,1,2.21-.157h.023a.385.385,0,0,0,.164-.74,7.022,7.022,0,0,0-2.975-.548,7.182,7.182,0,0,0-2.872.688" transform="translate(-48.311 -8.55)" fill="#450d20"/>
      <path id="Trazado_166717" data-name="Trazado 166717" d="M56.3,26.48c.847,3.329,1.529,6.736,2.31,9.953A29.151,29.151,0,0,1,59.7,45.567c-.007.025-.012.05-.019.074-.062.228-.527,1.521-.527,1.636-.248.5-.522.987-.8,1.468-.2.345-.949,1.31-.629.944a8.251,8.251,0,0,1-3.069,2.477,9.1,9.1,0,0,0-2.8,2.53c-4.715,1.615-10.62,1.8-14.854,1.973-.467.019-.94.044-1.412.068-.6-2.331-1.3-5.645-1.092-7.746,0,0,8.963-2.323,10.477-8.138A115.9,115.9,0,0,0,44.45,27.3c-.68-4.908-2.214-11.417-2.214-11.417s-7.635-3.332-8.878-6c0,0-9.4,21.722-21.158,17.623,0,0-3.969-1.191-4.744,3.384a5.69,5.69,0,0,0,6.611,5.5s5.76,14.552,9.436,17.875a2.681,2.681,0,0,1,.8,3.036c-6.408.155-12.85-.247-18.548-2.665A30.666,30.666,0,0,1,0,51.42,41.546,41.546,0,0,1,2.981,37.484c6.508-16.427,1.552-19.576,3.7-24.291C8.63,8.9,15.88-1.829,35.68.268A14.135,14.135,0,0,1,47.6,9.462c.033.093.065.187.1.283a30.407,30.407,0,0,0,5.152,9.367,7.194,7.194,0,0,0,1.256,3.852c.793,1.135,1.515,2.31,2.191,3.515" transform="translate(0 0)" fill="#1f1f1f"/>
    </g>
  </g>
</svg>
